<svg width="1920" height="1080" viewBox="0 0 1920 1080" fill="none" xmlns="http://www.w3.org/2000/svg">
<g clip-path="url(#clip0_14_2073)">
<path d="M1166.95 291.398L1171.1 297.076L1166.31 299.65L1164.07 297.898L1165.4 294.349L1166.95 291.398Z" fill="#8D91A1"/>
<path d="M749.879 852.483C751.307 853.558 753.645 855.827 755.226 856.51C757.402 857.448 758.057 856.607 759.957 858.646C759.161 864.433 760.783 869.504 760.704 875.256L749.879 852.483Z" fill="#434759"/>
<path d="M1171.1 297.076C1185.2 315.8 1200.67 338.013 1208.71 359.785C1206.26 358.082 1203.02 356.167 1201.2 353.855C1196.33 347.663 1195.59 340.391 1189.19 334.872C1183.99 327.907 1179.56 319.128 1174.01 312.684C1171.1 309.298 1167.74 306.417 1164.87 302.84L1166.31 299.65L1171.1 297.076Z" fill="#4A4B5B"/>
<path d="M1189.19 334.872C1195.59 340.391 1196.33 347.663 1201.2 353.855C1203.02 356.167 1206.26 358.083 1208.71 359.785C1215.62 375.499 1222.95 391.715 1226.9 408.36C1224.21 406.518 1223.05 403.593 1222.07 400.667L1220.61 396.41C1219.16 389.54 1210.3 385.577 1208.32 379.006C1207.89 377.581 1207.87 377.058 1206.85 375.9C1205.03 373.836 1204.1 372.294 1203.57 369.676L1201.65 366.443C1199.14 362.867 1199.5 358.981 1196.14 355.469C1192.01 351.162 1192.98 345.864 1189.83 341.396C1188.92 340.117 1189.25 336.543 1189.19 334.872Z" fill="#2B2D40"/>
<path d="M708.437 755.05C714.979 758.107 718.169 765.069 724.285 768.999C725.899 775.142 728.974 781.832 729.758 787.985C730.652 790.73 731.952 797.19 733.727 799.239C735.831 806.486 738.948 813.564 738.746 821.158L736.66 824.224L708.437 755.05Z" fill="#575D72"/>
<path d="M759.957 858.646L760.66 858.773L762.049 859.09L763.929 859.926L764.954 859.035L768.02 860.48C768.02 861.391 767.787 862.037 767.514 862.903L769.551 865.312L768.537 866.769L768.948 867.309C770.663 869.744 771.305 871.9 773.648 874.011C773.656 875.739 773.286 875.59 774.67 876.912C774.083 879.157 773.26 880.525 771.598 882.231L771.609 885.139C772.705 885.52 773.556 885.691 774.723 885.75L775.365 884.701C777.53 887.668 778.969 889.46 782.563 890.841L781.328 891.854C779.1 890.886 777.203 889.844 775.195 888.515C773.926 891.104 774.647 895.789 774.681 898.675L775.092 899.214C776.773 901.603 777.486 905.011 780.314 906.409L781.336 905.917L780.007 901.788C779.667 900.781 779.8 901.009 779.8 899.642C781.777 900.429 782.149 902.6 782.93 904.441C784.167 907.357 785.174 910.436 786.825 913.168L784.914 913.893C784.917 915.482 784.49 919.286 785.331 920.482C787.074 922.959 787.808 926.033 790.031 928.152L790.194 929.001C790.529 930.261 792.435 933.703 793.279 934.795C795.266 937.366 795.858 940.472 796.154 943.579C791.853 938.304 788.697 931.617 785.538 925.677C780.487 916.18 775.289 906.392 771.376 896.42L763.423 880.451L760.704 875.256C760.783 869.504 759.161 864.433 759.957 858.646Z" fill="#2B2D40"/>
<path d="M763.423 880.451L772.644 888.03C773.043 891.411 773.095 893.376 771.376 896.42L763.423 880.451Z" fill="#494455"/>
<path d="M585.607 212.238C586.417 212.05 586.984 211.867 587.864 211.924C589.872 212.052 591.144 213.013 592.514 214.275C594.174 215.799 598.014 219.698 600.1 220.465C607.07 223.024 615.584 218.938 622.661 223.789C624.648 225.153 624.371 225.999 624.787 228.192C624.072 230.862 623.301 231.795 621.091 233.57C613.694 234.595 599.728 233.523 593.073 230.372C588.436 228.177 583.086 223.757 581.5 219.007C582.003 215.832 583.246 214.478 585.607 212.238Z" fill="#040206"/>
<path d="M1371.08 462.352C1373.45 462.371 1375.56 463.203 1377.77 463.923C1380.06 466.643 1380.35 466.935 1380.55 470.373C1377.81 475.578 1375.43 474.917 1369.62 475.103C1369.09 475.12 1366.61 474.991 1366.19 475.189C1364.97 475.766 1362.94 478.147 1361.87 479.11C1358.08 482.543 1354.4 485.899 1350.07 488.742C1347.61 489.782 1346.64 489.71 1343.98 489.255C1341.49 487.634 1340.89 486.599 1339.94 483.909C1340.13 482.835 1340.21 481.929 1340.91 481.018C1348.32 471.373 1358.75 464.413 1371.08 462.352Z" fill="#040206"/>
<path d="M1319.95 202.571L1322.47 202.271C1325.66 203.883 1326.95 205.301 1328.69 208.271C1328.61 208.689 1328.52 209.11 1328.43 209.531C1327.64 213.394 1321.6 215.342 1319.25 218.322C1318.08 219.804 1317.95 223.165 1317.73 224.947C1316.98 231.026 1316.7 236.731 1312.24 241.535C1310.55 241.805 1308.84 241.787 1307.12 241.837C1304.08 240.075 1303.68 239.988 1302.39 236.892C1304.02 231.501 1303.83 225.923 1305.15 220.5C1307.29 211.723 1312.18 207.125 1319.95 202.571Z" fill="#040206"/>
<path d="M775.137 85.5899C777.066 84.8672 780.298 84.6098 782.238 85.3597C786.201 86.8917 785.226 94.7226 788.364 97.8263C794.002 103.402 803.531 103.974 806.852 112.176C806.267 115.406 805.73 115.941 803.441 118.46C802.652 118.579 800.427 119.176 799.766 119.017C795.523 118.01 787.234 112.315 783.509 109.798C778.256 106.251 773.465 99.6231 772.639 93.5025C772.157 89.9137 772.878 88.2183 775.137 85.5899Z" fill="#040206"/>
<path d="M534.137 464.574C534.949 464.433 535.445 464.307 536.231 464.292C538.265 464.253 540.362 465.203 541.728 466.594C543.982 468.896 543.605 469.43 543.342 472.385C542.546 473.578 541.675 474.561 540.412 475.35C538.359 476.637 535.091 477.227 532.753 477.986C522.823 481.219 516.325 482.991 505.88 480.442L501.292 477.452C498.703 475.13 499.001 473.692 499.245 470.638C501.355 467.794 501.919 467.648 505.389 466.379L508.357 467.557C518.333 471.455 524.472 467.435 534.137 464.574Z" fill="#040206"/>
<path d="M1068.93 75.9201C1070.62 75.7642 1072.03 76.185 1073.67 76.5389C1081.07 84.1965 1073.18 85.5999 1073.4 92.9259C1073.42 93.6882 1074.95 95.9652 1075.35 96.7794C1077.37 100.866 1081.53 108.258 1080.96 112.746C1080.68 114.978 1078.4 116.206 1076.74 117.597C1072.91 117.988 1072.76 118.087 1069.57 116.077C1065.45 106.484 1059.03 96.9972 1061.94 86.2929C1063.08 82.0829 1064.8 78.2145 1068.93 75.9201Z" fill="#040206"/>
<path d="M724.285 768.999C725.941 770.128 731.582 773.15 732.382 774.56L737.341 777.503C736.78 781.206 737.365 783.861 738.204 787.455C739.548 793.202 744.901 800.058 747.271 805.825C750.466 813.596 750.71 825.553 756.251 831.946L757.792 832.433L757.787 833.406L756.091 833.889L756.584 834.78C758.686 838.698 758.796 843.4 761.37 847.12L766.762 846.479C766.589 848.843 766.796 849.387 765.457 851.293C764.28 852.961 764.387 855.201 764.432 857.092L762.049 859.089L760.66 858.772L759.957 858.646C758.057 856.607 757.402 857.448 755.226 856.51C753.645 855.827 751.307 853.557 749.879 852.483L743.9 839.368C741.016 834.703 738.966 829.186 736.66 824.224L738.746 821.157C738.948 813.564 735.831 806.485 733.727 799.239C731.952 797.189 730.652 790.73 729.758 787.985C728.974 781.832 725.899 775.142 724.285 768.999Z" fill="#2B2D40"/>
<path d="M732.382 774.561L737.341 777.503C736.78 781.206 737.365 783.862 738.204 787.455C739.548 793.202 744.901 800.058 747.271 805.825C750.466 813.596 750.71 825.553 756.251 831.946L757.792 832.433L757.787 833.406L756.091 833.889L756.584 834.78C758.686 838.698 758.796 843.4 761.37 847.12L766.762 846.479C766.589 848.843 766.796 849.387 765.457 851.293C764.28 852.961 764.387 855.201 764.432 857.092L762.049 859.089L760.66 858.772L762.285 853.525L762.403 853.498C763.381 851.189 764.12 850.427 763.417 847.979L758.529 851.293C756.516 845.081 753.166 839.156 750.316 833.248C748.94 830.397 748.306 827.432 746.421 824.756L746.012 824.231L747.035 823.739L746.862 818.905C746.736 809.777 739.742 792.509 734.13 784.842L733.47 783.951C733.842 782.127 733.226 780.901 732.135 779.357L731.687 778.783L732.382 774.561Z" fill="#25202F"/>
<path d="M729.758 787.985C731.181 789.545 733.456 791.416 733.876 793.378C734.222 794.999 734.83 795.811 735.771 797.16L736.838 796.185C739.095 802.028 742.364 808.58 743.462 814.688C744.403 819.918 743.763 824.796 745.43 830.036C748.227 838.834 753.394 846.492 756.366 855.078C759.771 854.697 758.773 851.89 762.285 853.526L760.66 858.773L759.957 858.647C758.057 856.607 757.402 857.449 755.226 856.511C753.645 855.828 751.307 853.558 749.879 852.484L743.9 839.369C741.016 834.703 738.966 829.187 736.66 824.224L738.746 821.158C738.948 813.564 735.831 806.486 733.727 799.239C731.952 797.19 730.652 790.73 729.758 787.985Z" fill="#494455"/>
<path d="M733.727 799.239C738.337 803.904 741.758 812.475 741.488 818.927C741.187 826.204 744.175 832.282 743.9 839.368C741.016 834.703 738.966 829.186 736.66 824.224L738.746 821.157C738.948 813.564 735.831 806.486 733.727 799.239Z" fill="#434759"/>
<path d="M898.923 183.177L899.738 182.533C900.742 181.667 901.101 181.043 901.649 179.905C911.266 177.37 922.601 176.828 932.564 176.39C980.218 174.299 1027.6 186.81 1068.89 208.827C1093.46 221.93 1114.68 238.005 1134.68 256.699C1141.75 263.31 1149.55 270.279 1155.02 278.199L1166.95 291.398L1165.4 294.349L1164.07 297.898L1163.49 297.598L1162.9 297.066C1157.7 293.25 1153.52 287.854 1149.07 283.223C1139.08 272.843 1129.25 263.678 1118.03 254.501C1114.45 251.576 1111.14 248.088 1107.11 245.735C1100.59 241.921 1094.69 236.78 1088.36 232.587C1077.93 225.667 1065.14 218.557 1053.51 213.518C1045.26 209.946 1036.22 207.711 1027.59 205.051C1017.81 202.034 1007.9 198.39 997.896 196.155C979.369 192.012 959.442 192.116 940.533 192.527C932.944 192.693 922.884 192.24 915.736 194.708L920.774 198.653C922.614 200.249 931.29 208.87 932.907 209.115C933.901 210.783 935.122 212.367 935.151 214.337L934.7 215.163L919.846 203.269C919.725 202.056 908.517 191.762 906.81 190C904.755 188.49 902.446 185.988 900.013 185.194L899.269 185.035L898.923 183.177Z" fill="#575D72"/>
<path d="M911.211 190.78C919.796 188.201 932.286 188.869 941.413 188.906C960.533 188.983 979.689 188.859 998.473 192.98C1008.78 195.24 1018.16 198.903 1028.1 202.103C1039.95 205.917 1050.91 209.078 1062.14 214.58C1071.64 219.238 1081.65 224.457 1090.34 230.363C1096.38 234.466 1102.02 239.441 1108.21 243.252C1110.37 244.584 1113.23 247.549 1115.4 248.237C1118.18 249.116 1122.63 254.699 1124.92 256.803C1127.49 259.154 1131.24 261.659 1134.09 263.963L1135.71 265.852C1140.91 271.663 1147.37 276.962 1153.1 282.343C1154.77 283.919 1157.73 285.939 1158.15 288.129L1159.1 288.76C1160.4 289.676 1159.94 289.25 1160.67 290.248C1161.86 291.871 1163.79 293.101 1165.4 294.349L1164.07 297.898L1163.49 297.599L1162.9 297.066C1157.7 293.25 1153.52 287.854 1149.07 283.224C1139.08 272.844 1129.25 263.679 1118.03 254.501C1114.45 251.576 1111.14 248.089 1107.11 245.735C1100.59 241.921 1094.69 236.78 1088.36 232.588C1077.93 225.668 1065.14 218.557 1053.51 213.518C1045.26 209.946 1036.22 207.711 1027.59 205.051C1017.81 202.034 1007.9 198.391 997.896 196.156C979.369 192.013 959.442 192.117 940.533 192.527C932.944 192.693 922.884 192.24 915.736 194.708C915.03 194.567 911.916 191.409 911.211 190.78Z" fill="#4A4B5B"/>
<path d="M898.923 183.177L899.738 182.533C900.742 181.667 901.101 181.043 901.649 179.905C911.266 177.37 922.601 176.828 932.564 176.39C980.218 174.299 1027.6 186.81 1068.89 208.827C1093.46 221.93 1114.68 238.005 1134.68 256.699C1141.75 263.31 1149.55 270.279 1155.02 278.199L1152.75 277.073C1147.27 274.747 1145 270.059 1141.27 266.329C1138.46 263.525 1134.84 259.327 1131.51 257.199C1128.8 255.461 1124.86 253.046 1122.81 250.427C1121.92 249.289 1122.07 249.12 1120.64 248.321C1118.32 247.022 1116.42 244.769 1114.11 243.666C1110.53 241.958 1106.32 236.684 1103.12 235.679C1099.29 234.483 1093.64 228.788 1089.98 226.39C1074.71 216.398 1056.21 206.093 1038.34 201.125C1032.01 199.368 1026.16 196.193 1019.85 194.302C1015.92 193.124 1011.63 192.747 1007.75 191.505C994.281 187.186 976.756 185.196 962.572 184.283C955.875 183.85 911.23 184.06 908.325 186.619L911.211 190.78C911.916 191.408 915.03 194.567 915.736 194.708L920.774 198.653C922.614 200.249 931.29 208.87 932.907 209.115C933.901 210.783 935.122 212.367 935.151 214.337L934.7 215.163L919.846 203.269C919.725 202.056 908.517 191.762 906.81 190C904.755 188.49 902.446 185.988 900.013 185.194L899.269 185.035L898.923 183.177Z" fill="#757D8D"/>
<path d="M692.738 323.65L698.45 314.844C701.336 315.78 703.988 316.572 707.016 316.965L707.794 317.544L709.11 317.846C708.402 331.159 697.881 341.913 691.682 353.392C689.003 358.35 687.037 363.51 684.185 368.421C681.794 372.539 677.299 378.439 676.271 382.919C675.844 384.77 676.646 386.941 677.28 388.674L674.803 390.795L676.927 395.413L682.138 405.169C683.22 409.053 682.927 410.077 686.754 412.211L686.193 413.686C684.84 429.667 684.927 447.814 681.068 463.359L678.528 482.872L674.94 482.105C669.165 480.159 662.292 479.771 656.219 479.34C652.887 482.793 652.685 494.695 652.09 499.69L650.704 499.407C649.047 501.93 648.001 503.877 647.244 506.753C646.945 507.887 646.407 508.624 645.658 509.53C645.534 512.74 645.723 516.289 645.042 519.43C643.679 514.287 644.027 508.144 643.941 502.855C643.762 492.331 644.022 481.85 644.407 471.334C646.486 438.723 654.164 407.904 665.632 377.162C668.795 370.829 671.005 364.089 673.954 357.659C679.275 346.061 685.794 334.459 692.738 323.65Z" fill="#6B7181"/>
<path d="M692.738 323.65L698.45 314.844C701.336 315.78 703.988 316.572 707.016 316.965L707.794 317.544L703.32 320.198L699.831 325.464C698.948 326.675 698.859 327.373 698.405 328.744C696.919 333.233 692.987 339.513 690.214 343.458C685.126 350.685 683.026 359.412 677.925 366.661C675.398 370.252 674.117 374.507 671.419 378.046L672.279 382.394L670.754 383.352C668.012 381.543 666.958 380.043 665.632 377.162C668.796 370.829 671.005 364.089 673.954 357.659C679.275 346.061 685.794 334.459 692.738 323.65Z" fill="#757D8D"/>
<path d="M692.738 323.65L698.45 314.844C701.336 315.78 703.988 316.572 707.016 316.965L707.794 317.544L703.32 320.198L692.738 323.65Z" fill="#8D91A1"/>
<path d="M655.694 439.572C658.62 429.038 660.376 418.299 663.131 407.706C664.895 400.925 666.95 393.265 672.29 388.151L674.803 390.795L676.927 395.413L674.255 395.975C674.038 399.767 674.009 403.36 672.643 406.961C670.198 413.411 667.335 419.643 665.401 426.274C661.959 438.065 660.968 450.244 658.693 462.211C657.805 466.894 654.284 475.106 656.219 479.34C652.887 482.793 652.685 494.695 652.09 499.69L650.704 499.408C649.047 501.93 648.001 503.877 647.244 506.753C646.945 507.887 646.407 508.624 645.658 509.53C645.534 512.74 645.723 516.29 645.042 519.43C643.679 514.287 644.027 508.144 643.941 502.855C643.762 492.332 644.022 481.85 644.407 471.334L647.317 467.047C648.384 465.537 647.705 459.865 647.705 457.805C649.304 458.998 649.215 459.52 649.763 461.409L652.656 448.482C653.071 445.017 654.132 442.683 655.694 439.572Z" fill="#4A4B5B"/>
<path d="M644.407 471.333L647.317 467.047C648.384 465.537 647.705 459.864 647.705 457.805C649.304 458.998 649.215 459.52 649.763 461.409L652.656 448.482C653.071 445.017 654.132 442.683 655.694 439.572C655.183 451.687 651.275 462.923 650.2 474.724C649.962 477.348 651.448 477.536 652.179 479.558C652.431 480.253 651.791 483.107 651.705 484.092C651.257 489.178 651.112 494.309 650.704 499.407C649.047 501.929 648.001 503.877 647.244 506.753C646.945 507.887 646.407 508.624 645.658 509.53C645.534 512.74 645.723 516.289 645.042 519.43C643.679 514.287 644.027 508.144 643.941 502.855C643.762 492.331 644.022 481.85 644.407 471.333Z" fill="#5D737D"/>
<path d="M656.219 479.34C654.284 475.106 657.805 466.894 658.693 462.211C660.968 450.244 661.959 438.065 665.401 426.274C667.335 419.643 670.198 413.411 672.643 406.961C674.009 403.36 674.038 399.767 674.255 395.975L676.927 395.413L682.138 405.17C683.22 409.053 682.927 410.077 686.754 412.211L686.193 413.686C684.84 429.667 684.927 447.814 681.068 463.359L678.528 482.872L674.94 482.105C669.165 480.16 662.292 479.771 656.219 479.34Z" fill="url(#paint0_linear_14_2073)"/>
<path d="M669.207 439.436L669.944 439.921C670.138 448.049 667.21 457.721 664.919 465.539L664.321 465.267C664.185 462.911 663.7 461.738 665.11 459.738C665.026 456.345 666.02 453.808 666.651 450.551L667.16 448.138C668.174 445.116 668.667 442.559 669.207 439.436Z" fill="#2B2D40"/>
<path d="M678.969 452.944C680.298 456.501 680.746 459.607 681.068 463.359L678.528 482.872L674.94 482.105L678.969 452.944Z" fill="#434759"/>
<path d="M682.138 405.169C683.22 409.053 682.927 410.077 686.754 412.211L686.193 413.686C684.84 429.667 684.927 447.814 681.068 463.359C680.746 459.607 680.298 456.501 678.969 452.944L682.138 405.169Z" fill="#494455"/>
<path d="M796.154 943.578C795.858 940.472 795.266 937.366 793.279 934.795C792.435 933.703 790.529 930.26 790.193 929.001L790.031 928.152C787.808 926.033 787.074 922.959 785.331 920.482C784.49 919.286 784.917 915.482 784.914 913.893L786.825 913.168C785.174 910.436 784.167 907.357 782.93 904.441C782.149 902.6 781.777 900.429 779.8 899.642C779.8 901.008 779.666 900.781 780.007 901.788L781.336 905.916L780.314 906.409C777.486 905.011 776.773 901.602 775.092 899.214L774.681 898.675C774.647 895.789 773.926 891.103 775.195 888.515C777.203 889.844 779.1 890.886 781.328 891.853L782.563 890.841C785.473 891.745 786.587 892.368 788.463 894.643C789.169 895.497 789.719 895.732 790.809 896.006C792.76 895.393 793.145 895.818 795.032 896.581C796.22 897.061 795.709 896.853 796.807 897.593C797.965 898.373 797.399 898.095 798.728 898.407C800.162 898.746 800.652 899.281 801.816 900.115C805.184 902.536 808.791 903.686 811.798 906.642L810.068 907.555C820.66 912.933 828.542 920.752 837.077 928.578C848.089 938.676 858.944 948.868 868.186 960.505C870.999 963.547 878.516 970.477 879.562 974.125C880.115 976.058 879.633 979.669 879.659 981.837C879.733 987.668 880.17 993.752 879.796 999.556L879.735 1000.22C879.34 1002.58 879.568 1004.49 877.701 1006.17L867.347 1003.58C836.652 994.039 810.445 970.816 796.154 943.578Z" fill="url(#paint1_linear_14_2073)"/>
<path d="M872.76 185.988L874.48 187.139L870.773 192.421L871.623 194.963L864.281 202.989C853.57 214.53 841.457 224.591 829.337 234.731C823.36 239.73 817.968 245.381 812.031 250.445C797.868 262.515 782.091 274.628 766.5 285.02C754.324 293.138 741.446 301.073 728.505 308.06C722.135 311.503 715.435 314.28 709.11 317.846L707.794 317.544L707.016 316.965C703.988 316.572 701.336 315.78 698.45 314.844C727.705 270.408 771.299 230.944 820.325 206.432C837.182 198.004 854.784 191.891 872.76 185.988Z" fill="#757D8D"/>
<path d="M831.63 223.789L839.717 218.78L841.641 219.78C838.403 223.121 829.515 233.427 825.339 234.182L825.043 232.667L828.181 229.638L827.916 227.707L831.63 223.789Z" fill="#2B2D40"/>
<path d="M718.833 309.001C716.167 311.765 708.382 313.297 704.589 314.337C715.302 303.813 723.813 291.047 734.093 280.083C736.919 277.068 744.563 272.217 745.795 269.047C747.126 265.624 756.987 258.073 760.345 255.882C769.195 250.113 776.209 241.71 785.166 235.934L796.697 228.684C801.821 225.294 807.675 222.759 812.854 219.5C821.997 213.745 832.267 210.015 841.827 204.976C845.544 203.016 850.018 200.479 854.283 199.964C855.628 199.801 856.335 199.695 857.481 198.984L867.916 193.408L857.858 204.291C855.059 207.206 845.001 218.93 841.641 219.779L839.717 218.779L831.63 223.789C828.17 225.071 824.946 226.506 821.177 226.613C817.132 226.969 814 230.489 810.519 232.55L809.716 233.092C808.773 233.689 809.176 233.446 808.018 233.746C806.6 234.112 806.081 234.738 804.888 235.491C800.768 238.077 795.706 239.465 791.577 242.21C790.115 241.829 789.184 241.332 787.939 240.517C778.343 245.076 773.824 251.289 765.832 257.503C755.302 263.688 749.451 272.395 740.736 280.372C737.506 283.327 732.948 285.978 730.18 289.139C725.737 294.212 722.3 300.546 718.353 306.018L718.833 309.001Z" fill="#5C6072"/>
<path d="M851.297 206.414C852.904 204.778 854.456 203.734 856.469 202.571L857.858 204.291C855.059 207.206 845.001 218.931 841.641 219.779L839.717 218.78L831.63 223.789C828.17 225.071 824.946 226.507 821.177 226.613C817.132 226.969 814 230.489 810.519 232.55L809.716 233.093C808.773 233.689 809.176 233.446 808.018 233.746C806.6 234.112 806.081 234.738 804.888 235.491C800.767 238.077 795.706 239.466 791.577 242.21C790.115 241.829 789.184 241.332 787.939 240.518C807.664 226.066 827.769 214.505 851.297 206.414Z" fill="#4A4B5B"/>
<path d="M851.297 206.414C852.904 204.778 854.456 203.734 856.469 202.571L857.858 204.291C855.059 207.206 845.001 218.931 841.641 219.779L839.717 218.78L831.63 223.789C828.17 225.071 824.946 226.507 821.177 226.613C825.397 223.381 830.472 222.178 834.679 219.195L835.609 218.527C840.972 215.763 846.296 210.147 851.297 206.414Z" fill="#434759"/>
<path d="M821.177 226.613C824.946 226.507 828.17 225.071 831.63 223.789L827.916 227.707L828.181 229.637L825.043 232.667L825.339 234.182C805.955 254.266 781.176 272.861 757.36 288.09C749.438 293.153 740.846 297.071 733.221 302.62C728.699 305.38 723.656 306.828 718.833 309.001L718.353 306.018C722.3 300.546 725.737 294.213 730.18 289.139C732.948 285.978 737.506 283.328 740.736 280.373C749.451 272.396 755.302 263.689 765.832 257.503C773.824 251.289 778.343 245.077 787.939 240.518C789.184 241.332 790.115 241.829 791.577 242.21C795.706 239.466 800.768 238.077 804.888 235.491C806.081 234.738 806.6 234.112 808.018 233.746C809.177 233.446 808.773 233.689 809.717 233.093L810.519 232.551C814 230.489 817.132 226.969 821.177 226.613Z" fill="url(#paint2_linear_14_2073)"/>
<path d="M759.163 271.215C759.194 271.311 758.361 273.375 758.298 273.531L757.769 273.002L759.163 271.215Z" fill="#434759"/>
<path d="M718.833 309.001L718.353 306.018C722.3 300.546 725.737 294.213 730.18 289.139C732.948 285.978 737.506 283.328 740.736 280.372C749.451 272.396 755.302 263.688 765.832 257.503C764.424 262.721 760.681 264.263 757.142 268.314C754.922 270.856 753.658 273.95 751.354 276.474C745.886 282.464 738.898 287.476 734.109 293.881C732.13 296.527 727.276 302.556 723.991 303.598L724.51 304.095C725.559 303.83 726.387 303.514 727.391 303.13C729.003 302.511 730.08 302.625 731.795 302.63L733.221 302.62C728.699 305.38 723.656 306.828 718.833 309.001Z" fill="#4A4B5B"/>
<path d="M915.736 194.708C922.884 192.24 932.944 192.693 940.533 192.527C959.442 192.117 979.369 192.013 997.896 196.156C1007.9 198.391 1017.81 202.034 1027.59 205.051C1036.22 207.712 1045.26 209.947 1053.51 213.518C1065.14 218.557 1077.93 225.668 1088.36 232.588C1094.69 236.78 1100.59 241.921 1107.11 245.735C1111.14 248.089 1114.45 251.576 1118.03 254.501C1129.25 263.679 1139.08 272.844 1149.07 283.224C1153.52 287.855 1157.7 293.25 1162.9 297.067L1163.49 297.599L1164.07 297.898L1166.31 299.65L1164.87 302.841L1158.43 311.308L1154.2 308.278L1151.05 307.152C1147.84 306.316 1144.52 305.977 1141.24 305.531L1140 305.504C1122.15 304.311 1102.58 299.695 1085.44 294.911C1037.14 281.427 993.553 260.159 954.147 230.608C947.411 225.556 940.656 221.134 934.7 215.164L935.151 214.337C935.122 212.367 933.901 210.783 932.907 209.115C931.29 208.87 922.614 200.249 920.774 198.653L915.736 194.708Z" fill="url(#paint3_linear_14_2073)"/>
<path d="M1068.87 228.724C1079.66 233.6 1091.71 240.183 1100.01 248.43C1101.93 250.338 1104.69 251.338 1106.93 252.947C1112.11 256.662 1117.2 260.503 1122.24 264.394C1129.66 270.136 1135.56 277.234 1141.93 283.964C1146.52 288.82 1151.54 293.069 1155.75 298.284L1159.66 299.526L1160.35 302.232C1161.71 301.16 1162.61 299.061 1163.49 297.598L1164.07 297.898L1166.31 299.65L1164.87 302.84L1158.43 311.307L1154.2 308.278L1151.05 307.152C1147.84 306.315 1144.52 305.976 1141.24 305.531L1141.88 302.556L1141.81 301.739C1143.53 301.368 1144.05 301.328 1145.34 300.227V300.207L1140.46 296.351C1141.85 295.611 1142.07 295.247 1143.81 295.383L1145.35 295.626L1142.28 292.483L1139.2 292.473L1137.16 290.067L1138.17 289.099C1137.11 287.713 1136.34 286.647 1134.73 285.805L1133.57 285.228C1132.83 282.964 1132.53 281.543 1130.43 280.058L1129.48 279.427C1129.37 278.85 1129.36 278.524 1128.97 277.982C1127.75 276.269 1124.69 273.358 1122.53 272.873L1121.29 272.66L1120.78 270.247C1120.03 269.544 1118.01 267.153 1117.19 266.859C1115.02 266.082 1114.11 266.931 1111.71 265.263C1105.09 260.671 1099.82 254.504 1092.59 250.749C1091.39 250.13 1091.09 249.71 1090.57 248.489L1090.39 247.792C1089.88 246.339 1087.1 243.762 1085.56 243.275C1084.1 242.812 1082.32 240.057 1081.35 238.822C1078.61 238.515 1078.32 237.01 1076.23 235.921C1072.64 234.048 1071.13 232.065 1068.87 228.724Z" fill="#201D2C"/>
<path d="M1141.88 302.556C1147.35 303.046 1153.71 304.115 1159.14 303.548C1156.32 304.907 1154.11 304.984 1150.98 305.075L1151.05 307.152C1147.84 306.315 1144.52 305.976 1141.24 305.531L1141.88 302.556Z" fill="#494455"/>
<path d="M1163.49 297.599L1164.07 297.898L1166.31 299.65L1164.87 302.841L1158.43 311.308L1154.2 308.278L1151.05 307.152L1150.98 305.076C1154.11 304.984 1156.32 304.907 1159.14 303.549L1160.35 302.232C1161.71 301.16 1162.61 299.061 1163.49 297.599Z" fill="#757D8D"/>
<path d="M932.907 209.115C944.433 217.926 955.463 227.697 967.421 235.951C1018.67 271.321 1078.56 295.222 1141.81 301.739L1141.88 302.556L1141.24 305.531L1140 305.504C1122.15 304.311 1102.58 299.695 1085.44 294.911C1037.14 281.427 993.553 260.159 954.147 230.608C947.411 225.556 940.656 221.133 934.7 215.164L935.151 214.337C935.122 212.367 933.901 210.783 932.907 209.115Z" fill="#4A4B5B"/>
<path d="M915.736 194.708C922.884 192.24 932.944 192.693 940.533 192.527C959.442 192.117 979.369 192.013 997.896 196.156C1007.9 198.391 1017.81 202.034 1027.59 205.051C1036.22 207.712 1045.26 209.947 1053.51 213.518C1065.14 218.557 1077.93 225.668 1088.36 232.588C1094.69 236.78 1100.59 241.921 1107.11 245.735C1111.14 248.089 1114.45 251.576 1118.03 254.501C1129.25 263.679 1139.08 272.844 1149.07 283.224C1153.52 287.855 1157.7 293.25 1162.9 297.067L1163.49 297.599C1162.61 299.061 1161.71 301.16 1160.35 302.232L1159.66 299.527L1155.75 298.284C1151.54 293.069 1146.52 288.82 1141.93 283.964C1135.56 277.234 1129.66 270.136 1122.24 264.394C1117.2 260.503 1112.11 256.662 1106.93 252.947C1104.69 251.338 1101.93 250.339 1100.01 248.43C1091.71 240.184 1079.66 233.6 1068.87 228.724C1066.44 226.294 1059.57 223.948 1056.23 222.497C1040.56 215.706 1023.91 209.08 1007.33 204.536C1002.18 203.123 996.646 202.913 991.592 201.442C987.335 200.202 982.929 200.009 978.494 199.752C976.281 199.626 976.213 199.066 974.604 197.732L972.811 198.695C969.212 196.438 964.533 199.203 961.293 196.765L957.453 197.727C955.982 196.354 955.835 196.77 953.869 196.762C952.344 198.2 951.324 197.727 949.261 197.727C947.862 196.421 948.019 196.77 946.189 196.762L945.164 197.737L947.725 198.22V199.123C943.039 199.156 938.223 199.294 933.557 198.893C928.926 198.497 925.169 197 920.774 198.653L915.736 194.708Z" fill="#434759"/>
<path d="M893.243 181.305L896.016 180.746L898.923 183.177L899.269 185.035L900.013 185.194C902.446 185.988 904.755 188.49 906.81 190C908.517 191.762 919.725 202.056 919.846 203.269L918.768 204.786L915.982 202.561C913.578 203.217 913.193 204.974 911.274 205.583C908.894 206.338 907.426 208.446 904.721 209.33L903.948 209.605L898.831 210.785C896.776 211.352 896.338 211.062 894.304 210.51C893.211 210.211 893.646 210.295 892.422 210.305L891.929 211.711C891.408 213.169 890.773 214.406 889.984 215.745L886.959 254.382L886.585 269.136L887.022 270.052L885.759 275.437L880.506 280.778L873.908 286.995L871.788 284.171C827.027 333.637 777.881 386.201 706.112 397.616C704.573 397.861 693.737 399.524 693.537 399.937L686.195 400.571L689.084 402.214L688.326 405.184L687.957 406.337L686.754 412.211C682.927 410.077 683.22 409.052 682.138 405.169L676.927 395.413L674.803 390.794L677.281 388.673C676.646 386.941 675.844 384.77 676.271 382.919C677.299 378.439 681.794 372.539 684.185 368.42C687.037 363.51 689.003 358.35 691.682 353.392C697.881 341.913 708.403 331.159 709.11 317.846C715.435 314.28 722.135 311.503 728.505 308.06C741.446 301.073 754.324 293.138 766.5 285.02C782.091 274.628 797.868 262.515 812.031 250.445C817.968 245.381 823.36 239.73 829.337 234.731C841.457 224.591 853.57 214.53 864.28 202.989L871.623 194.963L870.773 192.421L874.48 187.139L872.76 185.988C876.448 184.394 880.454 183.976 884.43 183.345L893.243 181.305Z" fill="#2B2D40"/>
<path d="M677.281 388.673C679.139 389.997 679.813 391.411 680.798 393.326C679.372 394.326 678.649 394.99 676.927 395.413L674.803 390.794L677.281 388.673Z" fill="#575D72"/>
<path d="M883.654 246.344L885.156 245.549C886.818 248.274 886.726 251.314 886.96 254.383L886.585 269.136C884.281 266.136 886.742 261.869 884.241 258.654C884.199 260.746 883.562 262.538 882.981 264.538L883.654 246.344Z" fill="#575D72"/>
<path d="M680.798 393.327L686.195 400.571L689.084 402.214L688.326 405.184L687.957 406.338L686.754 412.211C682.927 410.077 683.22 409.053 682.138 405.17L676.927 395.413C678.649 394.99 679.372 394.327 680.798 393.327Z" fill="#5C6072"/>
<path d="M882.981 264.537C883.562 262.538 884.199 260.746 884.241 258.654C886.742 261.869 884.281 266.136 886.585 269.136L887.022 270.052L885.759 275.437L880.506 280.778L873.908 286.996L871.788 284.172C877.772 277.501 882.462 273.722 882.981 264.537Z" fill="#6B7181"/>
<path d="M885.612 201.229L886.524 196.742L887.224 204.934L888.425 204.927L889.903 200.663L889.984 215.745L886.959 254.382C886.726 251.313 886.818 248.274 885.156 245.549L883.654 246.344L885.612 201.229Z" fill="#5C6072"/>
<path d="M872.76 185.989C876.448 184.395 880.454 183.976 884.43 183.345L883.429 185.635L886.344 187.102C886.454 189.869 887.253 194.154 886.524 196.742L885.612 201.23L883.73 199.67L882.705 200.628C879.615 202.608 874.464 203.222 870.931 205.029L869.395 204.504L868.37 205.152C867.017 204.378 865.72 203.615 864.281 202.989L871.623 194.963L870.773 192.421L874.48 187.139L872.76 185.989Z" fill="#575D72"/>
<path d="M872.76 185.989C876.448 184.395 880.454 183.976 884.43 183.345L883.429 185.635L871.623 194.963L870.773 192.421L874.48 187.139L872.76 185.989Z" fill="#8D91A1"/>
<path d="M893.243 181.305L896.016 180.746L898.923 183.177L899.269 185.035L900.013 185.194C902.446 185.988 904.755 188.49 906.81 190C908.517 191.762 919.725 202.056 919.846 203.269L918.768 204.786L915.982 202.561C913.578 203.217 913.193 204.974 911.274 205.583C908.894 206.338 907.426 208.446 904.721 209.33L903.948 209.605L898.831 210.785C896.776 211.352 896.338 211.062 894.304 210.51C893.211 210.211 893.646 210.295 892.422 210.305L891.929 211.711C891.408 213.169 890.773 214.406 889.984 215.745L889.903 200.662L888.425 204.927L887.224 204.934L886.524 196.742C887.253 194.153 886.454 189.869 886.344 187.102L883.429 185.634L884.43 183.345L893.243 181.305Z" fill="url(#paint4_linear_14_2073)"/>
<path d="M893.243 181.305L896.016 180.746L898.923 183.177L899.269 185.035L900.013 185.194C902.446 185.988 904.755 188.49 906.81 190C904.991 190.384 898.621 192.126 897.041 191.604C895.201 190.995 892.834 189.3 891.101 188.349L893.243 181.305Z" fill="#6B7181"/>
<path d="M884.43 183.345L893.243 181.306L891.101 188.35C890.648 192.312 889.759 196.703 889.903 200.663L888.425 204.927L887.224 204.935L886.524 196.742C887.253 194.153 886.454 189.869 886.344 187.102L883.429 185.634L884.43 183.345Z" fill="#757D8D"/>
<path d="M880.506 280.778C881.169 283.031 881.229 283.483 880.606 285.748C879.243 290.696 880.315 298.289 880.278 303.504C880.178 317.072 880.066 330.949 879.381 344.48C875.41 348.823 879.513 386.196 875.298 395.683C873.308 400.157 868.915 404.773 865.848 408.659C853.161 424.727 839.47 438.844 823.895 452.452C818.82 456.887 812.453 460.795 807.855 465.544L810.519 465.549C805.263 468.859 798.293 471.809 794.34 476.311C784.096 480.729 773.47 484.82 762.364 486.872C758.778 487.532 755.989 487.617 752.668 488.693C749.755 489.636 744.751 487.701 742.298 489.651L741.142 490.686C741.472 495.519 739.48 497.489 736.371 501.172L732.505 499.561L678.528 482.872L681.068 463.359C684.927 447.814 684.84 429.667 686.193 413.686L686.754 412.211L687.957 406.338L688.326 405.184L689.084 402.214L686.195 400.571L693.538 399.937C693.737 399.524 704.573 397.861 706.112 397.616C777.881 386.201 827.027 333.637 871.788 284.172L873.908 286.996L880.506 280.778Z" fill="url(#paint5_linear_14_2073)"/>
<path d="M686.195 400.571L693.538 399.937C694.662 400.989 695.312 401.147 695.509 402.677C693.113 403.454 690.604 404.142 688.326 405.184L689.084 402.214L686.195 400.571Z" fill="#4A4B5B"/>
<path d="M807.855 465.544L810.519 465.549C805.263 468.858 798.293 471.809 794.34 476.311C784.096 480.729 773.47 484.82 762.364 486.872C758.778 487.532 755.989 487.616 752.668 488.693C749.755 489.636 744.752 487.701 742.298 489.651L741.142 490.686L739.354 487.777L740.303 485.968C739.242 485.023 739.208 484.919 738.838 483.666L742.264 483.184C740.416 483.065 738.99 483.085 737.428 482.055L736.419 481.355C760.322 484.436 786.946 476.142 807.855 465.544Z" fill="#201D2C"/>
<path d="M871.788 284.171L873.908 286.995C866.915 296.833 857.363 305.82 848.904 314.572C810.888 353.909 765.218 390.354 708.363 401.12C705.564 401.65 698.167 403.531 695.509 402.677C695.312 401.147 694.662 400.989 693.538 399.937C693.737 399.524 704.573 397.861 706.112 397.615C777.881 386.201 827.027 333.637 871.788 284.171Z" fill="#434759"/>
<path d="M687.957 406.337C689.341 410.795 693.532 414.181 696.104 418.151C705.774 433.09 716.555 448.415 724.578 464.198L730.057 472.276L736.418 481.355L737.428 482.055C738.99 483.085 740.416 483.065 742.264 483.184L738.838 483.666C739.208 484.919 739.242 485.023 740.303 485.968L739.354 487.777L741.142 490.685C741.472 495.519 739.48 497.489 736.371 501.172L732.505 499.561L678.528 482.872L681.068 463.359C684.927 447.813 684.84 429.667 686.193 413.686L686.754 412.211L687.957 406.337Z" fill="#201D2C"/>
<path d="M717.126 459.486L717.839 459.971C721.598 462.594 722.374 465.99 725.543 468.923L723.886 465.577L724.578 464.198L730.057 472.277C729.595 474.056 729.069 475.576 729.218 477.422L728.733 478.1L717.126 459.486Z" fill="#494455"/>
<path d="M730.057 472.276L736.418 481.355L737.428 482.055C738.99 483.085 740.416 483.065 742.264 483.184L738.838 483.666C739.207 484.919 739.242 485.023 740.303 485.968L739.354 487.777L741.142 490.685C741.472 495.519 739.48 497.489 736.371 501.172L732.505 499.561L734.185 498.375C736.526 490.242 732.269 485.171 728.733 478.1L729.218 477.422C729.069 475.576 729.595 474.056 730.057 472.276Z" fill="#2B2D40"/>
<path d="M687.957 406.337C689.341 410.795 693.532 414.181 696.104 418.151C705.774 433.09 716.555 448.415 724.578 464.198L723.886 465.576L725.543 468.923C722.374 465.99 721.598 462.594 717.839 459.971L717.126 459.486C716.038 459.057 711.813 451.489 711.016 450.227C705.842 442.059 700.211 434.174 695.121 425.952C692.628 421.927 690.919 417.71 688.219 413.765L686.193 413.686L686.754 412.211L687.957 406.337Z" fill="#4A4B5B"/>
<path d="M889.985 215.745C890.774 214.406 891.408 213.169 891.929 211.711L892.422 210.305C893.646 210.295 893.211 210.211 894.304 210.511C896.338 211.063 896.776 211.352 898.831 210.785L903.948 209.605L904.721 209.33C907.426 208.447 908.894 206.338 911.274 205.583C913.193 204.974 913.578 203.217 915.982 202.561L918.768 204.786L919.846 203.269L934.7 215.164C940.656 221.133 947.411 225.556 954.147 230.608C993.553 260.159 1037.14 281.427 1085.44 294.911C1102.58 299.695 1122.15 304.311 1140 305.504L1141.24 305.531C1144.52 305.976 1147.84 306.315 1151.05 307.152L1154.2 308.278L1158.43 311.308L1155.48 315.926L1105.64 379.788L1105.38 379.791L1103.84 383.001L1097.27 391.701L1044.96 461.008C1042.81 463.958 1040.71 467.539 1038.06 470.079L1034.88 476.051L1032.27 479.558C1030.3 479.449 1028.34 479.006 1026.4 478.665C1018.33 475.531 1009.18 476.942 1000.59 476.62C984.376 476.011 966.271 470.735 952.488 462.758L953.115 458.582C947.052 456.984 940.365 451.086 935.508 447.321C917.335 433.238 902.535 418.01 888.676 400.101C887.041 397.987 883.534 394.638 882.642 392.334C882.136 391.03 882.76 386.52 882.792 384.884C882.946 377.009 883.646 368.715 882.781 360.887L882.684 360.087L881.704 359.991C881.725 356.536 882.616 349.655 881.169 346.613C880.226 348.415 880.063 350.517 879.699 352.489L879.382 344.48C880.066 330.949 880.178 317.072 880.278 303.504C880.315 298.289 879.243 290.696 880.606 285.748C881.23 283.484 881.169 283.031 880.506 280.778L885.759 275.437L887.022 270.052L886.585 269.136L886.96 254.383L889.985 215.745Z" fill="url(#paint6_linear_14_2073)"/>
<path d="M1085.23 379.642L1097.9 380.147C1095.65 381.08 1094.07 381.439 1091.66 381.756C1090.42 381.922 1090.84 381.884 1089.46 382.61L1084.4 382.904L1085.23 379.642Z" fill="#5C6072"/>
<path d="M1101.88 378.202C1103.28 378.657 1104.2 378.919 1105.38 379.791L1103.84 383.001L1097.27 391.7C1096.1 390.416 1096.05 389.507 1095.85 387.854L1096.83 385.763C1095.41 383.723 1091.93 383.332 1089.46 382.61C1090.84 381.884 1090.42 381.922 1091.66 381.756C1094.07 381.439 1095.65 381.08 1097.9 380.147C1099.29 379.642 1100.58 378.887 1101.88 378.202Z" fill="#4A4B5B"/>
<path d="M887.022 270.052L906.988 291.899L905.683 293.45L902.532 293.408L887.311 276.752L885.759 275.437L887.022 270.052Z" fill="#434759"/>
<path d="M906.989 291.898L932.905 317.69L929.46 319.673L902.532 293.408L905.683 293.45L906.989 291.898Z" fill="#494455"/>
<path d="M1154.2 308.278L1158.43 311.307L1155.48 315.926L1105.64 379.788L1105.38 379.79C1104.2 378.919 1103.28 378.657 1101.88 378.202L1153.77 311.253L1154.37 310.622L1154.2 308.278Z" fill="#494455"/>
<path d="M885.759 275.438L887.311 276.752L902.532 293.408L929.461 319.673L932.905 317.691L933.597 318.176C943.568 325.282 952.708 333.288 962.881 340.248C977.629 350.333 995.587 359.578 1012.74 365.399C1022.39 368.673 1032.45 370.621 1042.25 373.448L1051.35 375.613L1075.34 378.494C1077.17 378.655 1084.19 378.704 1085.23 379.642L1084.4 382.904L1089.46 382.61C1091.93 383.333 1095.41 383.724 1096.83 385.763L1095.85 387.854C1096.05 389.508 1096.1 390.416 1097.27 391.701L1044.96 461.008C1042.81 463.958 1040.71 467.54 1038.06 470.079L1034.88 476.051L1032.27 479.558C1030.3 479.449 1028.34 479.006 1026.4 478.665C1018.33 475.531 1009.18 476.942 1000.59 476.62C984.376 476.012 966.271 470.735 952.488 462.758L953.115 458.583C947.052 456.984 940.365 451.086 935.508 447.321C917.335 433.239 902.535 418.01 888.676 400.101C887.041 397.987 883.534 394.638 882.642 392.334C882.136 391.03 882.76 386.52 882.792 384.884C882.946 377.009 883.646 368.715 882.781 360.887L882.684 360.087L881.704 359.991C881.725 356.536 882.616 349.655 881.169 346.614C880.226 348.415 880.063 350.517 879.699 352.489L879.382 344.48C880.066 330.949 880.178 317.072 880.278 303.504C880.315 298.289 879.243 290.696 880.606 285.748C881.23 283.484 881.169 283.031 880.506 280.779L885.759 275.438Z" fill="#0D0716"/>
<path d="M1036.15 376.202L1036.67 375.989C1038.91 375.281 1040.28 374.665 1042.25 373.447L1051.35 375.613C1050.15 376.595 1049.24 377.301 1048.54 378.662C1044.87 378.655 1039.82 376.979 1036.15 376.202Z" fill="#494455"/>
<path d="M1075.34 378.494C1077.17 378.655 1084.18 378.704 1085.23 379.642L1084.4 382.904L1070.12 381.548C1071.83 379.397 1072.71 379.372 1075.34 378.494Z" fill="#494455"/>
<path d="M1042.73 457.271L1044.96 461.008C1042.81 463.958 1040.71 467.539 1038.06 470.079C1036.8 468.574 1036.91 468.381 1034.93 468.089C1037.16 464.163 1039.86 460.785 1042.73 457.271Z" fill="#25202F"/>
<path d="M1051.35 375.613L1075.34 378.494C1072.71 379.372 1071.83 379.397 1070.12 381.548L1048.54 378.662C1049.24 377.301 1050.15 376.595 1051.35 375.613Z" fill="#4A4B5B"/>
<path d="M885.759 275.438L887.311 276.752C886.695 277.863 886.231 278.66 886.011 279.915C884.488 288.666 885.68 299.012 885.29 308.011C884.818 318.968 884.194 329.922 883.552 340.869C883.182 347.158 882.236 353.813 882.684 360.087L881.704 359.991C881.725 356.536 882.616 349.655 881.169 346.614C880.226 348.415 880.063 350.517 879.699 352.489L879.382 344.48C880.066 330.949 880.178 317.072 880.278 303.504C880.315 298.289 879.243 290.696 880.606 285.748C881.23 283.484 881.169 283.031 880.506 280.779L885.759 275.438Z" fill="#4A4B5B"/>
<path d="M1095.85 387.854C1096.05 389.508 1096.1 390.416 1097.27 391.701L1044.96 461.008L1042.73 457.271C1053.74 442.606 1064.55 427.811 1075.47 413.085C1081.58 404.855 1088 394.606 1095.85 387.854Z" fill="#2B2D40"/>
<path d="M953.115 458.583C960.423 461.642 967.723 465.193 975.411 467.292C993.427 472.21 1011.15 472.304 1029.64 473.678C1031.5 471.868 1033.32 470.109 1034.93 468.089C1036.91 468.381 1036.8 468.574 1038.06 470.079L1034.88 476.051L1032.27 479.558C1030.3 479.449 1028.34 479.006 1026.4 478.665C1018.33 475.531 1009.18 476.942 1000.59 476.62C984.376 476.011 966.271 470.735 952.488 462.758L953.115 458.583Z" fill="url(#paint7_linear_14_2073)"/>
<path d="M932.905 317.69L933.597 318.176C943.568 325.281 952.708 333.288 962.881 340.248C977.629 350.333 995.587 359.577 1012.74 365.399C1022.39 368.673 1032.45 370.621 1042.25 373.447C1040.28 374.665 1038.91 375.281 1036.67 375.989L1036.15 376.202C994.391 365.854 961.497 346.725 929.461 319.673L932.905 317.69Z" fill="#2B2D40"/>
<path d="M807.855 465.545C812.453 460.795 818.82 456.887 823.895 452.452C839.47 438.844 853.161 424.727 865.848 408.659C868.915 404.773 873.308 400.158 875.298 395.683C879.513 386.196 875.41 348.824 879.381 344.48L879.699 352.489C880.063 350.517 880.226 348.415 881.169 346.613C882.616 349.655 881.725 356.536 881.704 359.991L882.684 360.087L882.781 360.887C883.646 368.715 882.946 377.009 882.792 384.884C882.76 386.52 882.136 391.03 882.642 392.334C883.534 394.638 887.041 397.987 888.676 400.101C902.535 418.01 917.335 433.238 935.508 447.321C940.365 451.086 947.052 456.984 953.115 458.582L952.488 462.758C966.271 470.735 984.376 476.011 1000.59 476.62C1009.18 476.942 1018.33 475.531 1026.4 478.665C1028.34 479.006 1030.3 479.449 1032.27 479.558L1031.76 480.239C1030.99 481.209 1031.34 480.872 1030.18 481.491L1029.63 483.469L1031.94 504.655L1021.97 509.394L999.883 520.096C990.677 525.435 981.382 530.664 973.162 537.334C937.282 566.445 914.223 614.173 903.41 657.087C901.29 665.5 896.247 679.164 898.755 687.48C906.926 714.564 924.417 751.892 949.985 768.18C965.018 781.068 984.024 787.262 1004.3 786.376C1013.93 785.956 1031.35 783.055 1039.11 777.622L1049.8 772.885L1055.78 770.002C1041.69 797.969 1036.31 832.624 1034.62 863.401C1034.1 872.907 1033.32 883.379 1034.43 892.839C1032.52 895.148 1030.12 899.266 1027.39 900.523C1018.6 903.152 1009.48 901.585 1000.45 902.409C975.836 904.654 950.955 915.161 931.225 928.87C920.105 937.262 910.493 945.71 901.329 956.048C897.431 960.443 893.964 966.034 889.667 969.96C888.391 971.128 886.692 971.657 885.028 972.143C883.334 979.555 884.758 988.807 884.692 996.487C884.682 997.558 885.015 1001.53 884.632 1002.11C884.215 1002.75 883.347 1002.98 882.705 1003.42L879.735 1000.22L879.796 999.556C880.17 993.752 879.733 987.668 879.659 981.837C879.633 979.669 880.115 976.058 879.562 974.125C878.516 970.477 870.999 963.547 868.186 960.505C858.944 948.868 848.089 938.676 837.077 928.578C828.542 920.752 820.66 912.933 810.068 907.555L811.798 906.642C808.791 903.686 805.184 902.536 801.816 900.115C800.652 899.281 800.162 898.746 798.728 898.407C797.399 898.095 797.965 898.373 796.807 897.593C795.709 896.853 796.22 897.061 795.032 896.581C793.145 895.818 792.76 895.393 790.809 896.007C789.719 895.732 789.169 895.497 788.463 894.643C786.587 892.368 785.473 891.745 782.563 890.841C778.969 889.46 777.53 887.668 775.365 884.701L774.723 885.75C773.556 885.691 772.704 885.52 771.609 885.139L771.598 882.231C773.26 880.525 774.083 879.157 774.67 876.912C773.286 875.59 773.656 875.739 773.648 874.011C771.305 871.9 770.662 869.744 768.948 867.309L768.537 866.769L769.551 865.312L767.514 862.903C767.787 862.037 768.02 861.391 768.02 860.48L764.953 859.035L763.929 859.926L762.049 859.089L764.432 857.092C764.387 855.201 764.28 852.961 765.457 851.293C766.796 849.387 766.589 848.843 766.762 846.479L761.37 847.12C758.796 843.4 758.686 838.698 756.584 834.78L756.091 833.889L757.787 833.406L757.792 832.434L756.251 831.946C750.71 825.553 750.466 813.596 747.27 805.825C744.901 800.058 739.548 793.202 738.204 787.456C737.365 783.862 736.78 781.206 737.341 777.504L732.382 774.561C731.582 773.15 725.941 770.128 724.285 768.999C718.169 765.069 714.979 758.107 708.437 755.05C702.638 743.752 693.522 734.352 687.839 723.059C684.659 716.742 682.72 709.854 680.326 703.251C673.679 684.889 668.166 666.176 662.738 647.465C658.185 631.778 652.119 615.148 650.263 598.972C647.967 592.584 648.892 583.617 648.879 576.887C648.861 565.879 648.646 554.927 648.135 543.925C646.213 535.988 645.217 527.556 645.042 519.43C645.723 516.29 645.535 512.74 645.658 509.53C646.407 508.624 646.945 507.887 647.244 506.753C648.001 503.877 649.047 501.93 650.704 499.408L652.09 499.69C652.685 494.695 652.887 482.793 656.219 479.34C662.292 479.771 669.165 480.16 674.94 482.105L678.528 482.872L732.505 499.561L736.371 501.172C739.48 497.489 741.472 495.519 741.142 490.686L742.298 489.651C744.751 487.701 749.755 489.636 752.668 488.693C755.989 487.617 758.778 487.533 762.364 486.872C773.47 484.82 784.096 480.729 794.34 476.311C798.293 471.809 805.263 468.859 810.519 465.55L807.855 465.545Z" fill="#0D0716"/>
<path d="M742.298 489.651C746.432 494.341 749.921 498.843 753.546 503.902C754.948 505.862 752.875 506.659 755.58 507.6L758.272 511.649L736.371 501.172C739.48 497.489 741.472 495.519 741.142 490.685L742.298 489.651Z" fill="#25202F"/>
<path d="M737.341 777.503L740.28 779.318L747.47 782.486C745.894 786.975 747.174 786.681 748.319 790.977C748.83 792.895 750.6 794.774 751.352 796.893C751.984 798.667 753.035 800.471 754.193 801.986L752.149 802.711C752.607 804.224 752.678 804.001 752.243 805.572L751.942 808.419C754.12 810.827 753.014 814.73 754.678 817.096C755.404 818.128 755.129 817.7 755.444 818.876C755.787 820.17 756.385 820.794 757.265 821.803C757.268 823.18 756.948 824.66 757.75 825.798C758.474 826.828 758.201 826.402 758.516 827.578C758.859 828.872 759.457 829.496 760.337 830.506C760.345 832.362 759.9 832.51 761.36 833.889L759.318 834.614C759.69 836 760.22 837.186 760.854 838.482C762.377 838.839 761.53 838.723 763.407 838.723L763.417 842.601L764.953 843.559L765.777 842.774C767.651 841.019 769.923 839.821 771.609 837.881L771.866 839.933L771.066 840.633C768.851 842.613 767.632 843.722 766.762 846.479L761.37 847.12C758.796 843.4 758.686 838.698 756.584 834.78L756.091 833.889L757.787 833.406L757.792 832.434L756.251 831.946C750.71 825.553 750.466 813.596 747.271 805.825C744.901 800.058 739.548 793.202 738.204 787.455C737.365 783.862 736.78 781.206 737.341 777.503Z" fill="#201D2C"/>
<path d="M740.28 779.317L747.47 782.485C745.894 786.975 747.173 786.681 748.319 790.977C748.83 792.895 750.599 794.774 751.352 796.892C751.983 798.667 753.035 800.471 754.193 801.986L752.149 802.711C752.607 804.223 752.678 804.001 752.243 805.572L751.941 808.418C750.198 804.478 748.822 800.335 746.903 796.477C744.02 790.675 739.816 786.074 740.28 779.317Z" fill="#25202F"/>
<path d="M775.365 884.701L774.17 881.263L775.706 879.812C777.142 881.033 778.66 882.186 779.79 883.678L779.8 887.074C781.871 888.376 783.21 887.517 785.048 888.977C785.981 889.717 786.256 889.901 787.444 890.178C788.739 890.482 788.802 890.693 789.74 891.502C792.314 893.72 795.643 894.838 798.631 896.472C804.018 899.419 809.234 902.86 814.471 906.06C834.584 918.356 855.775 936.856 869.644 955.29L868.186 960.505C858.944 948.867 848.089 938.675 837.077 928.577C828.542 920.751 820.66 912.933 810.068 907.555L811.798 906.641C808.791 903.686 805.184 902.535 801.816 900.115C800.652 899.281 800.162 898.746 798.728 898.407C797.399 898.095 797.965 898.373 796.807 897.593C795.709 896.853 796.22 897.061 795.032 896.581C793.145 895.818 792.76 895.393 790.809 896.006C789.719 895.732 789.169 895.497 788.463 894.643C786.587 892.368 785.473 891.744 782.563 890.841C778.969 889.46 777.53 887.668 775.365 884.701Z" fill="#201D2C"/>
<path d="M869.644 955.29L879.253 966.613L877.961 895.764H878.611C878.611 903.76 878.611 911.757 878.611 919.754C878.611 924.734 878.008 929.901 879.633 934.436C881.444 939.487 877.458 948.701 880.008 953.533C881.502 956.364 880.572 962.329 880.401 965.616C877.452 965.868 877.625 965.885 875.282 964.165L874.514 965.373L878.606 968.999C878.611 970.719 878.925 970.506 880.147 971.657C880.383 972.736 880.54 973.501 881.201 974.436C882.142 975.77 881.68 978.812 881.68 980.54C881.68 987.086 881.68 993.633 881.68 1000.18H882.705C882.705 996.771 881.764 991.361 883.73 988.576C883.73 985.678 884.417 982.3 882.705 979.877C882.658 977.307 882.066 973.674 883.473 971.417C885.526 970.472 886.965 969.845 888.344 968.034L884.752 967.791C879.573 962.9 885.424 953.273 881.68 947.971C881.659 940.447 881.644 932.923 881.646 925.399C881.649 921.481 881.232 917.16 882.194 913.346L884.815 969.87C890.608 963.754 895.494 956.852 901.133 950.59C909.117 941.724 919.361 932.805 929.382 925.998L930.606 925.179C930.74 926.268 930.703 927.914 931.225 928.869C920.105 937.262 910.493 945.709 901.329 956.047C897.431 960.443 893.964 966.034 889.667 969.959C888.391 971.127 886.692 971.657 885.028 972.142C883.334 979.555 884.758 988.806 884.692 996.486C884.682 997.558 885.015 1001.53 884.632 1002.11C884.215 1002.75 883.347 1002.98 882.705 1003.42L879.735 1000.22L879.796 999.555C880.17 993.751 879.733 987.668 879.659 981.837C879.633 979.669 880.115 976.058 879.562 974.125C878.516 970.476 870.999 963.546 868.186 960.505L869.644 955.29Z" fill="#27282F"/>
<path d="M881.704 359.991L882.684 360.087L882.781 360.887C883.646 368.715 882.946 377.009 882.792 384.884C882.76 386.52 882.136 391.03 882.642 392.334C883.534 394.638 887.041 397.987 888.676 400.101C902.535 418.01 917.335 433.238 935.508 447.321C940.365 451.086 947.052 456.984 953.115 458.582L952.488 462.758C933.164 452.88 918.333 439.706 903.686 424.571C895.699 416.319 888.068 408.125 882.383 398.257C882.233 404.467 880.443 444.549 878.611 447.17C878.611 440.859 877.743 433.627 879.633 427.835C880.758 424.393 878.302 420.537 880.658 417.2C880.658 412.973 881.901 403.009 879.633 399.799L881.68 397.863C882.936 397.863 882.454 397.821 883.665 397.984L884.498 398.106C883.67 395.955 881.264 393.99 880.658 392.064C879.274 387.659 880.53 376.974 881.68 372.727C882.569 369.458 881.699 363.537 881.704 359.991Z" fill="#25202F"/>
<path d="M1026.4 478.665C1028.34 479.006 1030.3 479.449 1032.27 479.558L1031.76 480.239C1030.99 481.209 1031.34 480.872 1030.18 481.491L1029.63 483.468L1031.94 504.654L1021.97 509.394L999.883 520.096L999.723 518.769C999.466 515.262 1002.48 510.859 1004.9 508.426C1008.03 503.439 1011.83 499.202 1015.18 494.415C1017.43 491.203 1018.92 487.622 1021.59 484.669L1026.4 478.665Z" fill="url(#paint8_linear_14_2073)"/>
<path d="M1026.4 478.665C1028.34 479.006 1030.3 479.449 1032.27 479.558L1031.76 480.239C1030.99 481.209 1031.34 480.872 1030.18 481.491L1029.63 483.468C1026.25 487.5 1022.58 491.369 1019.51 495.616C1016.24 500.145 1012.99 506.929 1007.62 509.33L1004.9 508.426C1008.03 503.439 1011.83 499.202 1015.18 494.415C1017.43 491.203 1018.92 487.622 1021.59 484.669L1026.4 478.665Z" fill="#25202F"/>
<path d="M807.856 465.545C812.453 460.795 818.82 456.887 823.895 452.452C839.47 438.844 853.161 424.727 865.848 408.659C868.915 404.773 873.308 400.158 875.298 395.683C879.513 386.196 875.41 348.824 879.382 344.48L879.699 352.489C879.675 358.761 880.684 366.555 878.611 372.245C876.87 377.019 880.351 385.355 878.611 390.129C878.247 391.126 877.604 391.037 877.594 392.262C877.541 397.517 872.417 402.766 869.395 407.048L870.163 407.773C872.302 405.306 873.929 402.615 877.075 401.249C878.003 402.425 878.199 403.239 878.611 404.632L878.236 405.338C875.848 411.34 877.568 424.539 877.575 431.392C877.578 433.09 878.045 436.025 877.586 437.503C875.195 445.185 876.561 456.199 876.561 464.574L876.024 464.089C875.921 452.17 875.686 440.22 876.094 428.303C876.307 422.18 876.469 416.067 876.566 409.941C876.595 408.09 877.022 405.197 876.218 403.556C869.856 410.921 864.186 418.918 857.722 426.143C852.249 432.258 845.63 437.839 839.575 443.47C827.58 454.622 810.807 471.589 794.34 476.311C798.293 471.809 805.263 468.859 810.519 465.55L807.856 465.545Z" fill="#25202F"/>
<path d="M1055.78 770.001C1041.69 797.969 1036.31 832.624 1034.62 863.401C1034.1 872.907 1033.32 883.379 1034.43 892.838C1032.52 895.147 1030.12 899.266 1027.39 900.523C1018.6 903.152 1009.48 901.585 1000.45 902.409C975.836 904.654 950.955 915.16 931.225 928.869C930.703 927.914 930.74 926.268 930.606 925.179L930.761 924.917C935.34 920.583 943.143 916.853 948.923 914.15C965.542 906.379 982.41 900.667 1000.98 898.627C1009.12 897.731 1017.9 898.318 1026.11 898.362C1012.28 880.768 998.523 862.962 985.238 845.009C977.343 834.339 965.691 822.543 962.69 809.77L1029.25 893.635C1029.08 878.265 1028.87 862.68 1030.53 847.38C1032.39 830.146 1036.48 813.455 1041.08 796.717C1043.34 788.487 1044.33 781.052 1049.23 773.721L1049.8 772.885L1055.78 770.001Z" fill="#201D2C"/>
<path d="M656.219 479.34C662.292 479.771 669.165 480.16 674.94 482.105L678.528 482.872L732.505 499.561L736.371 501.172L758.272 511.649L758.725 512.396C803.368 532.236 828.016 573.643 843.955 615.661C850.338 632.483 855.085 649.821 858.59 667.371C859.717 673.012 861.557 679.429 861.001 685.166C860.485 690.49 858.212 696.096 856.453 701.177C853.418 709.953 850.304 718.717 846.089 727.066C835.649 747.739 818.595 774.019 794.587 782.018C777.027 787.871 765.153 787.639 747.47 782.486L740.28 779.318L737.341 777.504L732.382 774.561C731.582 773.15 725.941 770.128 724.285 768.999C718.169 765.069 714.979 758.107 708.437 755.05C702.638 743.752 693.522 734.352 687.839 723.059C684.659 716.742 682.72 709.854 680.326 703.251C673.679 684.889 668.166 666.176 662.738 647.465C658.185 631.778 652.119 615.149 650.263 598.972C647.967 592.584 648.892 583.617 648.879 576.887C648.861 565.879 648.646 554.927 648.135 543.925C646.213 535.988 645.217 527.556 645.042 519.43C645.723 516.29 645.535 512.74 645.658 509.53C646.407 508.625 646.945 507.887 647.244 506.753C648.001 503.878 649.047 501.93 650.704 499.408L652.09 499.69C652.685 494.695 652.887 482.793 656.219 479.34Z" fill="url(#paint9_linear_14_2073)"/>
<path d="M818.972 589.062C821.735 593.821 830.904 604.956 829.457 610.008L827.738 609.941C823.407 604.056 818.807 598.276 815.787 591.666L817.672 591.359L818.972 589.062Z" fill="#DE125A"/>
<path d="M661.485 604.598C661.944 602.61 662.161 600.556 663.585 598.957C663.826 600.868 663.975 602.759 664.526 604.615C665.574 606.523 665.372 612.369 665.59 614.693C666.3 622.259 667.163 629.682 668.659 637.146C668.043 638.129 667.891 638.48 666.822 639.074C663.186 627.622 661.309 616.581 661.485 604.598Z" fill="#DE125A"/>
<path d="M790.524 548.638C801.777 558.793 813.643 575.271 818.972 589.062L817.672 591.359L815.787 591.666C813.017 585.792 811.038 579.38 807.882 573.707C803.247 565.369 796.049 557.79 789.821 550.452L790.524 548.638Z" fill="#9C0134"/>
<path d="M686.077 495.42C699.97 498.913 713.926 503.311 727.223 508.496C732.565 510.58 739.97 516.042 745.281 516.911C760.655 526.383 779.072 534.468 790.524 548.638L789.821 550.452C776.13 536.396 759.069 527.036 741.079 518.918C723.084 510.523 703.65 503.182 684.242 498.4L686.077 495.42Z" fill="#DE125A"/>
<path d="M660.366 547.67L665.008 491.75L665.026 490.5L686.077 495.42L684.243 498.4L667.965 494.264L664.455 542.866C662.028 563.188 664.387 584.211 664.526 604.615C663.975 602.759 663.826 600.868 663.585 598.957C662.161 600.556 661.944 602.61 661.485 604.598L660.366 547.67Z" fill="#9C0134"/>
<path d="M664.455 542.866L667.965 494.265L684.242 498.4C703.65 503.182 723.084 510.523 741.079 518.918L741.879 519.651C744.689 522.185 747.014 523.836 750.618 525.234C751.905 525.734 752.062 525.846 752.922 526.937C751.433 527.563 750.945 527.571 749.957 528.818C748.471 530.689 746.544 530.976 744.287 531.645C722.667 521.42 701.556 513.929 678.523 507.132L675.548 583.704L674.512 582.867L674.347 560.285L673.574 560.77C673.509 563.035 673.325 564.51 672.3 566.572C670.214 566.25 668.229 566.418 666.145 566.097C666.195 564.725 666.287 563.312 665.996 561.963C664.667 555.803 664.785 549.143 664.455 542.866Z" fill="#F0448C"/>
<path d="M656.219 479.34C662.292 479.771 669.165 480.16 674.94 482.105L678.528 482.872L732.505 499.561L736.371 501.172L758.272 511.649L758.725 512.396L759.839 515.324L760.988 515.72C762.455 516.28 763.216 516.881 764.453 517.747L768.542 520.406L768.794 522.824L767.525 523.549L767.769 525.724C764.29 525.472 763.572 524.479 760.602 523.069L759.305 522.163C757.556 520.915 755.729 520.173 753.797 519.237C750.982 517.876 748.387 517.376 745.281 516.911C739.97 516.042 732.565 510.58 727.223 508.496C713.926 503.311 699.97 498.913 686.077 495.42L665.026 490.5L665.008 491.75L660.366 547.67C658.761 555.343 659.241 563.562 659.11 571.358C659.063 574.172 659.487 577.994 658.392 580.588C657.472 582.768 657.928 585.973 657.964 588.324L658.987 589.29C659.105 591.324 659.522 593.604 658.968 595.574L656.929 593.168C655.063 593.626 653.461 594.661 651.81 595.574C650.643 591.634 651.506 586.607 651.697 582.523H650.656C650.633 587.854 651.102 593.722 650.263 598.972C647.967 592.584 648.892 583.617 648.879 576.887C648.861 565.879 648.646 554.927 648.135 543.925C646.213 535.988 645.217 527.556 645.042 519.43C645.723 516.29 645.535 512.74 645.658 509.53C646.407 508.625 646.945 507.887 647.244 506.753C648.001 503.878 649.047 501.93 650.704 499.408L652.09 499.69C652.685 494.695 652.887 482.793 656.219 479.34Z" fill="#F0448C"/>
<path d="M645.042 519.43C645.723 516.289 645.535 512.74 645.658 509.53C646.407 508.624 646.945 507.887 647.244 506.753C648.001 503.877 649.047 501.929 650.704 499.407L652.09 499.689C651.335 508.976 650.538 518.264 649.975 527.563C649.658 532.835 649.996 538.923 648.135 543.925C646.213 535.988 645.217 527.555 645.042 519.43Z" fill="#6B7181"/>
<path d="M675.548 583.703L678.523 507.132C701.556 513.928 722.667 521.42 744.288 531.644C758.642 539.567 772.083 548.744 783.328 560.401C785.069 562.203 788.403 565.336 789.056 567.683C794.259 573.108 798.18 580.528 801.811 586.995C815.578 611.515 825.114 638.626 830.878 665.816C832 671.096 834.065 677.778 833.769 683.149C833.434 689.255 830.186 696.301 827.869 702.031C820.089 721.269 810.401 741.641 793.045 754.951C786.982 759.602 777.596 763.46 769.638 762.624C750.796 760.649 736.652 746.596 725.784 732.988C710.39 713.718 698.156 689.495 690.576 666.48C688.856 661.262 686.633 655.907 685.464 650.566C682.856 645.606 681.779 638.715 680.683 633.218C677.404 616.784 676.245 600.375 675.548 583.703Z" fill="white"/>
<path d="M675.548 583.703L678.523 507.132C701.556 513.928 722.667 521.42 744.288 531.644C758.642 539.567 772.083 548.744 783.328 560.401C785.069 562.203 788.403 565.336 789.056 567.683L788.684 570.126C783.038 562.614 776.694 555.704 768.794 550.377C764.854 547.719 761.929 543.816 757.53 541.675L755.74 540.468L745.291 534.228C744.136 533.449 744.877 533.84 743.554 533.528C741.218 532.976 739.36 530.998 737.053 530.073L733.1 528.469C731.831 528.016 732.4 528.283 731.166 527.414C729.048 527.16 728.841 526.917 727.134 525.709C725.863 524.808 725.407 524.949 723.996 524.514L718.366 522.098L715.181 520.754C713.947 520.222 713.008 519.96 711.711 519.68C710.652 519.452 710.143 519.348 709.294 518.71C708.164 517.863 706.463 517.693 705.102 517.007C703.456 516.178 702.458 516.369 700.704 516.054C700.091 515.945 699.467 515.572 698.911 515.329L695.776 513.97C694.237 513.265 693.092 513.451 691.488 513.154C690.89 513.045 690.243 512.656 689.695 512.428C687.781 511.636 685.771 511.124 683.729 510.738C682.098 510.431 682.809 510.656 681.249 509.77C680.562 510.676 679.994 511.062 679.938 512.196C679.86 513.913 679.86 515.237 678.945 516.779L679.194 518.23C679.524 520.977 679.514 530.179 678.295 532.488C675.637 537.525 679.781 547.232 677.92 552.551C677.446 553.909 676.817 553.251 677.024 555.013C677.962 562.948 675.634 571.373 677.163 579.295C677.642 581.78 676.995 584.285 677.092 586.812C677.186 589.23 677.983 591.665 677.973 594.361C677.965 596.098 677.488 599.363 677.92 600.892C679.081 604.983 677.839 609.686 678.945 613.46C679.524 615.435 680.059 616.193 680.224 618.537C681.021 616.965 681.648 615.67 682.022 613.948C683.655 613.557 683.821 613.686 685.087 612.503L685.855 612.631C690.68 613.188 695.451 610.391 698.911 613.47C700.578 612.21 701.116 611.587 703.262 611.285C700.175 611.208 697.315 611.225 694.303 610.56L693.008 610.332C691.808 610.107 691.047 609.815 689.952 609.352L688.159 608.627C690.148 606.768 700.699 607.669 704.03 607.669C705.362 608.508 705.262 608.607 706.974 608.708C708.08 608.775 708.542 608.882 709.58 609.253C711.378 609.894 713.399 609.654 715.294 609.602L716.319 610.57C720.274 610.57 720.552 612.503 724.51 612.503L726.547 615.393C725.147 615.614 724.117 616.071 722.814 615.544C720.678 614.681 718.513 614.906 716.319 613.943L714.526 613.218L714.01 615.876L714.783 616.844L716.319 615.403C717.048 616.601 717.213 617.405 717.341 618.777L718.356 619.744C718.356 621.163 718.796 624.816 718.356 626.028C717.687 627.87 716.397 626.231 717.331 628.929L715.805 629.894L716.308 631.83L715.593 632.144C714.206 632.798 713.871 633.456 713.247 634.721L710.943 634.488L710.68 636.176L709.821 636.25C708.5 636.406 707.338 636.765 706.078 637.146L705.561 639.074L704.03 639.079L702.494 639.564L702.489 641.01L700.958 641.487L699.679 640.289L699.417 641.975L697.886 642.455L696.607 641.255L695.582 641.975L694.303 641.014L692.767 642.455L691.745 641.014L690.958 641.465C689.994 641.982 689.223 642.21 688.159 642.455C686.869 641.438 685.771 640.039 684.064 640.047C684.811 643.106 687.019 647.271 686.78 650.229L685.464 650.566C682.856 645.606 681.779 638.715 680.683 633.218C677.404 616.784 676.245 600.375 675.548 583.703Z" fill="white"/>
<path d="M1164.87 302.84C1167.74 306.417 1171.1 309.298 1174.01 312.683C1179.56 319.128 1183.99 327.907 1189.19 334.872C1189.25 336.542 1188.92 340.116 1189.83 341.396C1192.98 345.863 1192.01 351.162 1196.14 355.469C1199.5 358.981 1199.14 362.867 1201.65 366.443L1203.57 369.675C1204.1 372.294 1205.03 373.836 1206.85 375.9C1207.87 377.058 1207.89 377.58 1208.32 379.006C1210.3 385.577 1219.16 389.54 1220.61 396.41L1222.07 400.667C1223.05 403.593 1224.21 406.518 1226.9 408.359C1242.64 456.86 1244.4 513.104 1236.44 563.04L1236.18 563.307C1234.61 582.161 1230.06 601.343 1225.78 619.806C1204.09 713.433 1163.92 806.792 1110.93 888.51C1091.1 919.101 1070.86 947.823 1041.78 971.424C1003.45 1002.54 953.382 1013.72 903.696 1010.05C895.618 1009.45 885.392 1008.58 877.701 1006.17C879.568 1004.49 879.34 1002.58 879.735 1000.22L882.705 1003.42C883.347 1002.98 884.215 1002.75 884.632 1002.11C885.015 1001.53 884.682 997.558 884.692 996.486C884.758 988.806 883.334 979.555 885.028 972.142C886.692 971.657 888.391 971.128 889.667 969.959C893.964 966.034 897.431 960.443 901.329 956.047C910.493 945.709 920.105 937.262 931.225 928.869C950.955 915.16 975.836 904.654 1000.45 902.409C1009.48 901.585 1018.6 903.152 1027.39 900.523C1030.12 899.266 1032.52 895.147 1034.43 892.838C1033.32 883.379 1034.1 872.907 1034.62 863.401C1036.31 832.624 1041.69 797.969 1055.78 770.002L1049.8 772.885L1039.11 777.622C1031.35 783.055 1013.93 785.955 1004.3 786.376C984.024 787.262 965.018 781.067 949.985 768.18C924.417 751.892 906.926 714.564 898.755 687.48C896.247 679.164 901.29 665.5 903.41 657.087C914.223 614.173 937.282 566.445 973.162 537.334C981.382 530.664 990.677 525.434 999.883 520.096L1021.97 509.394L1031.94 504.654L1029.63 483.468L1030.18 481.491C1031.34 480.872 1030.99 481.209 1031.76 480.238L1032.27 479.558L1034.88 476.051L1038.06 470.079C1040.71 467.539 1042.81 463.958 1044.96 461.008L1097.27 391.7L1103.84 383.001L1105.38 379.791L1105.64 379.788L1155.48 315.926L1158.43 311.307L1164.87 302.84Z" fill="#040206"/>
<path d="M1108.84 479.746C1109.25 476.387 1109.47 473.808 1111.55 470.977L1113.05 481.969L1109.24 482.58L1108.84 479.746Z" fill="#4A4B5B"/>
<path d="M1034.43 892.838L1036.81 899.642L1034.07 901.422L1034.38 902.152L1030.7 902.988L1027.39 900.523C1030.12 899.266 1032.52 895.148 1034.43 892.838Z" fill="#0D0716"/>
<path d="M1112.25 860.856L1114.91 864.43C1112.73 873.207 1111.2 881.441 1106.54 889.42C1107.93 879.607 1109.15 870.355 1112.25 860.856Z" fill="#2B2D40"/>
<path d="M1126.06 816.354C1126.56 818.46 1126.83 820.648 1128 822.521L1114.91 864.43L1112.25 860.857L1126.06 816.354Z" fill="#27282F"/>
<path d="M1030.7 902.988L1034.38 902.152C1045.29 914.445 1056.73 928.266 1065.1 942.17L1064.75 944.519L1063.28 945.071L1062.73 944.316L1030.7 902.988Z" fill="#27282F"/>
<path d="M1170.81 409.713L1174.24 407.021L1184.68 457.107C1184.38 459.958 1184.68 463.552 1182.89 465.861C1176.8 448.232 1174.1 428.013 1170.81 409.713Z" fill="#434759"/>
<path d="M1144.02 593.915C1148.45 597.873 1149.21 602.592 1151.75 607.607C1155.91 615.824 1160.41 623.934 1164.71 632.089C1170.62 643.267 1177.15 654.147 1183.37 665.168C1182.17 666.44 1182.06 666.648 1180.34 667.064C1171 653.142 1163.57 638.554 1155.75 623.87C1152.57 617.895 1147.57 611.017 1146.92 604.268C1146.64 601.375 1145.85 598.919 1144.93 596.167L1144.02 593.915Z" fill="#4A4B5B"/>
<path d="M1184.68 457.107L1193.48 489.27C1194.93 496.809 1197.84 504.415 1200.16 511.76C1205.13 527.504 1210.75 543.138 1216.88 558.513C1221.41 569.839 1226.86 580.793 1229.22 592.757C1223.27 586.493 1220.14 575.863 1216.85 568.054C1203.22 535.661 1189.36 500.252 1182.89 465.862C1184.68 463.552 1184.39 459.959 1184.68 457.107Z" fill="#4A4B5B"/>
<path d="M1183.37 665.168C1188.43 671.749 1191.52 679.931 1198.12 685.292L1204.22 685.572L1204.49 686.936C1202.39 688.27 1193.39 689.641 1192.95 690.173C1191.76 691.608 1190.75 696.177 1189.93 698.053C1185.73 707.624 1179.43 720.536 1171.91 727.917C1168.2 731.55 1166.75 739.198 1164.43 743.927C1159.87 753.221 1153.45 761.733 1149.02 771.048C1141.11 787.673 1134.62 805.387 1128 822.521C1126.83 820.647 1126.56 818.46 1126.06 816.353C1135.92 794.222 1144.54 771.853 1156.43 750.499C1162.81 739.037 1169.21 727.437 1176.14 716.264C1181.19 708.114 1187.05 700.147 1191.04 691.467C1181.67 690.418 1172.13 690.918 1162.72 691.039C1148.52 691.225 1134.33 691.438 1120.13 691.655L1121.08 688.359L1190.96 686.356C1191.39 683.572 1182.29 670.269 1180.34 667.064C1182.06 666.648 1182.17 666.44 1183.37 665.168Z" fill="#2B2D40"/>
<path d="M1113.05 481.969C1118.16 480.991 1125.77 478.424 1130.81 478.924L1140.87 533.411L1140.51 534.144C1139.68 535.894 1138.94 537.062 1139.45 539.022L1137.66 538.059L1136.13 539.5L1134.08 539.027L1132.02 540.95C1131.72 538.386 1131.68 538.114 1129.95 536.141C1128.12 533.501 1129.41 531.164 1128.8 528.382C1128.02 524.798 1127.58 521.133 1127.2 517.378L1123.63 498.41C1122.98 496.574 1122.71 495.742 1122.71 493.769C1122.72 492.638 1121.98 492.173 1121.28 491.292C1117.25 491.225 1113.96 492.321 1110.2 493.467L1111.43 495.67L1101.82 497.838C1089.99 500.227 1076.18 503.865 1064.96 508.07C1059.62 510.072 1053.66 512.072 1048.02 513.097L1047.95 512.998L1046.05 511.498C1044.26 511.656 1042.8 511.678 1041.29 512.708C1040.12 513.502 1040.81 513.307 1039.66 513.671C1038.15 514.148 1036.71 514.552 1035.37 515.396C1034.09 516.203 1030.79 515.886 1029.13 515.916L1029.64 515.329C1028.84 514.559 1029.28 514.94 1028.07 514.084L1027.08 513.391C1026.82 512.052 1026.56 510.805 1026.06 509.53L1024.51 510.894L1021.97 509.394L1031.94 504.654L1038.9 501.905L1040.19 501.825C1061.49 492.606 1086.46 487.297 1109.24 482.58L1113.05 481.969Z" fill="#F0448C"/>
<path d="M1040.19 501.825C1039.95 504.932 1039.31 507.295 1040.77 510.176C1043.61 510.666 1046.54 510.639 1049.16 509.349C1050.21 508.83 1051.13 508.404 1052.27 508.05L1070.6 502.288C1071.99 501.823 1073.2 501.444 1074.66 501.167L1077.71 500.454C1081.94 499.239 1086.68 497.87 1091.04 497.259L1104.38 494.554C1106.59 493.834 1107.83 493.561 1110.2 493.467L1111.43 495.67L1101.82 497.838C1089.99 500.226 1076.18 503.865 1064.96 508.07C1059.62 510.072 1053.66 512.072 1048.02 513.097L1047.95 512.997L1046.05 511.498C1044.26 511.656 1042.8 511.678 1041.29 512.708C1040.12 513.502 1040.81 513.307 1039.66 513.671C1038.15 514.148 1036.71 514.552 1035.37 515.396C1034.09 516.203 1030.79 515.886 1029.13 515.916L1029.64 515.329C1028.84 514.559 1029.28 514.94 1028.07 514.084L1027.08 513.391C1026.82 512.052 1026.56 510.805 1026.06 509.53L1024.51 510.894L1021.97 509.394L1031.94 504.654L1038.9 501.905L1040.19 501.825Z" fill="#EE3370"/>
<path d="M1144.93 596.167C1145.85 598.92 1146.64 601.375 1146.92 604.268C1147.57 611.018 1152.57 617.895 1155.75 623.87C1163.57 638.554 1171 653.142 1180.34 667.064C1182.29 670.269 1191.39 683.572 1190.96 686.356L1121.08 688.359C1127.55 672.395 1134.47 656.332 1138.58 639.614C1142.11 625.298 1143.39 610.758 1144.93 596.167Z" fill="#040206"/>
<path d="M1097.27 391.701L1103.84 383.001C1104.71 385.243 1105.41 386.129 1104.81 388.493L1111.55 470.977C1109.47 473.809 1109.25 476.388 1108.84 479.746L1109.24 482.58C1086.46 487.298 1061.49 492.606 1040.19 501.826L1038.9 501.905L1031.94 504.655L1029.63 483.469L1030.18 481.491C1031.34 480.872 1030.99 481.209 1031.76 480.239L1032.27 479.558L1034.88 476.051L1038.06 470.079C1040.71 467.54 1042.81 463.958 1044.96 461.008L1097.27 391.701Z" fill="#0D0716"/>
<path d="M1032.27 479.558L1034.88 476.051L1036.83 501.004L1038.9 501.905L1031.94 504.654L1029.63 483.468L1030.18 481.491C1031.34 480.872 1030.99 481.209 1031.76 480.238L1032.27 479.558Z" fill="#201D2C"/>
<path d="M1104.81 388.493L1111.55 470.977C1109.47 473.808 1109.25 476.387 1108.84 479.746L1108.09 476.313C1103.65 454.293 1102.23 431.315 1101.49 408.949C1101.35 404.924 1100.29 395.982 1101.9 392.547C1102.52 391.218 1103.93 389.725 1104.81 388.493Z" fill="#494455"/>
<path d="M1164.87 302.84C1167.74 306.417 1171.1 309.298 1174.01 312.683C1179.56 319.128 1183.99 327.907 1189.19 334.872C1189.25 336.542 1188.92 340.116 1189.83 341.396C1192.98 345.863 1192.01 351.162 1196.14 355.469C1199.5 358.981 1199.14 362.867 1201.65 366.443L1203.57 369.675C1204.1 372.294 1205.03 373.836 1206.85 375.9C1207.87 377.058 1207.89 377.58 1208.32 379.006C1210.3 385.577 1219.16 389.54 1220.61 396.41L1222.07 400.667C1223.05 403.593 1224.21 406.518 1226.9 408.359C1242.64 456.86 1244.4 513.104 1236.43 563.039L1236.18 563.307L1233.45 566.096C1233.57 571.361 1231.36 576.617 1231.36 581.555C1229.7 583.127 1230.34 585.191 1230.34 587.356L1228.79 583.01L1228.27 581.072C1227.07 578.654 1226.77 576.041 1225.46 573.729C1223.99 571.128 1223.57 568.178 1222.13 565.604C1219.25 560.485 1216.68 553.729 1215.15 548.021L1214.96 547.234L1213.94 546.266C1213.5 543.584 1212.15 541.336 1211.6 538.718C1210.53 533.624 1207.06 529.204 1206.37 524.004C1206.24 522.999 1206.02 522.108 1205.74 521.13C1204.36 519.809 1204.73 519.957 1204.72 518.23C1203.81 517.198 1203.69 516.797 1203.45 515.426C1202.98 512.691 1201.75 506.887 1200.37 504.696C1199.34 503.048 1198.74 501.793 1198.47 499.835C1198.11 497.261 1196.01 494.222 1196.31 491.901L1196.53 491.161L1195.38 489.366L1193.48 489.27L1184.68 457.107L1174.24 407.021L1170.81 409.713L1161.09 335.867C1159.78 331.496 1161.36 324.135 1159.69 320.519C1159.12 319.289 1156.49 317.027 1155.48 315.926L1158.43 311.307L1164.87 302.84Z" fill="url(#paint10_linear_14_2073)"/>
<path d="M1170 319.468C1172.61 327.489 1178.04 335.305 1183.23 342.215C1188.34 349.024 1191.21 356.657 1196.8 363.543C1198.7 365.894 1199.42 368.559 1201.92 370.547C1202.71 371.812 1203.35 373.066 1203.96 374.42L1203.71 376.586C1203.93 379.444 1204.38 381.385 1203.71 384.32C1203.07 383.231 1202.67 382.422 1202.4 381.184C1201.62 377.536 1199.07 370.235 1196.77 367.347L1196.03 366.438C1193.78 362.595 1189.48 358.501 1186.5 354.749L1185.79 353.87C1185.12 352.95 1184.97 352.494 1183.94 351.846L1183.24 351.457L1184.26 350.732L1181.19 347.591L1182.2 347.109C1181.66 345.982 1181.15 345.084 1180.36 344.084C1179.83 343.418 1179.43 343.349 1179.65 342.515L1180.17 341.307L1178.63 339.369C1177.22 339.129 1176.68 338.966 1175.52 338.144L1174.53 337.434L1172.99 337.179C1168.61 332.308 1169.79 325.472 1170 319.468Z" fill="#201D2C"/>
<path d="M1161.09 335.867C1161.79 329.863 1161.04 323.237 1161.12 317.136L1162.24 316.23C1162.95 316.973 1163.53 317.508 1163.85 318.495L1165.06 327.702C1166.33 345.282 1167.81 363.048 1170.16 380.526C1171.01 386.837 1172.13 393.121 1173.1 399.415C1173.45 401.633 1174.41 404.838 1174.24 407.021L1170.81 409.714L1161.09 335.867Z" fill="#4A4B5B"/>
<path d="M1164.87 302.84C1167.74 306.417 1171.1 309.298 1174.01 312.683C1179.56 319.128 1183.99 327.907 1189.19 334.872C1189.25 336.542 1188.92 340.116 1189.83 341.396C1192.98 345.863 1192.01 351.162 1196.14 355.469C1199.5 358.981 1199.14 362.866 1201.65 366.443L1203.57 369.675L1201.92 370.546C1199.42 368.559 1198.7 365.893 1196.8 363.542C1191.21 356.657 1188.34 349.024 1183.23 342.215C1178.04 335.305 1172.61 327.489 1170 319.467L1166.5 315.146C1165.66 314.094 1165.27 313.027 1164.8 311.81C1163.44 311.537 1162.35 311.332 1160.96 311.332L1159.42 313.027C1161.04 313.767 1162.54 314.097 1164.28 314.478L1164.5 315.248C1164.96 316.765 1164.61 315.634 1165.3 317.378C1165.81 318.653 1165.86 319.655 1165.82 321.004L1166.84 321.97C1166.48 324.029 1165.84 325.774 1165.06 327.702L1163.85 318.495C1163.53 317.507 1162.95 316.973 1162.24 316.23L1161.12 317.136C1161.04 323.237 1161.79 329.862 1161.09 335.867C1159.78 331.496 1161.36 324.135 1159.69 320.519C1159.12 319.289 1156.49 317.027 1155.48 315.926L1158.43 311.307L1164.87 302.84Z" fill="#25202F"/>
<path d="M1110.2 493.467C1113.96 492.322 1117.25 491.225 1121.28 491.292C1121.98 492.173 1122.72 492.638 1122.71 493.769C1122.71 495.742 1122.98 496.574 1123.63 498.41L1127.2 517.378C1127.58 521.133 1128.02 524.799 1128.8 528.382C1129.41 531.164 1128.12 533.501 1129.95 536.141C1131.68 538.114 1131.72 538.386 1132.02 540.95L1134.08 539.027L1136.13 539.5L1137.66 538.06L1139.45 539.022C1138.94 537.062 1139.68 535.894 1140.51 534.144L1140.87 533.412C1142.41 542.802 1147.29 588.129 1144.02 593.915L1144.93 596.168C1143.39 610.758 1142.11 625.298 1138.58 639.614C1134.47 656.332 1127.55 672.395 1121.08 688.359L1120.13 691.656C1116.67 696.425 1099.96 727.949 1096.44 729.157C1090.51 737.814 1082.74 747.15 1074.97 754.355C1070.61 758.399 1065.59 762.047 1060.89 765.742C1059.42 766.903 1056.74 768.475 1055.78 770.002L1049.8 772.885L1039.11 777.622C1031.35 783.055 1013.93 785.956 1004.31 786.376C984.025 787.262 965.018 781.067 949.985 768.18C924.417 751.892 906.926 714.564 898.755 687.48C896.247 679.164 901.29 665.5 903.411 657.087C914.223 614.173 937.282 566.445 973.162 537.334C981.382 530.664 990.677 525.435 999.883 520.096L1021.97 509.394L1024.51 510.894L1026.06 509.53C1026.56 510.805 1026.82 512.052 1027.08 513.391L1028.07 514.084C1029.28 514.941 1028.84 514.559 1029.64 515.329L1029.13 515.916C1030.79 515.886 1034.09 516.203 1035.37 515.396C1036.71 514.552 1038.15 514.149 1039.66 513.671C1040.81 513.307 1040.12 513.503 1041.29 512.708C1042.8 511.679 1044.26 511.656 1046.05 511.498L1047.95 512.998L1048.02 513.097C1053.66 512.072 1059.62 510.072 1064.96 508.07C1076.18 503.865 1089.99 500.227 1101.82 497.838L1111.43 495.67L1110.2 493.467Z" fill="url(#paint11_linear_14_2073)"/>
<path d="M941.217 718.479C944.265 719.073 946.609 719.692 949.261 721.259L951.565 720.296L952.583 721.259C953.956 722.415 955.765 723.09 957.453 723.684C958.588 724.085 959.665 724.471 960.811 724.83C963.88 725.791 968.884 731.015 971.264 733.342L971.427 734.082C971.783 735.245 971.678 734.909 972.515 735.834C973.699 737.143 974.001 738.317 974.564 739.901C975.183 741.643 977.204 743.504 978.444 744.955C982.2 745.657 983.39 748.103 987.146 748.811L988.171 747.855C989.951 747.845 989.849 748.172 991.241 746.939L997.655 747.214C991.54 749.194 981.249 751.818 977.38 756.849L972.795 754.644C959.159 745.44 948.745 732.535 941.217 718.479Z" fill="white"/>
<path d="M1111.43 495.67C1114.4 494.72 1116.62 494.368 1119.76 494.544L1119.77 495.321C1119.84 497.393 1120.17 498.415 1120.78 500.345C1122.87 507.021 1122.19 515.203 1124.54 521.613C1126.02 525.652 1125.3 530.937 1126.15 535.149C1128.15 544.987 1129.53 557.199 1127.68 567.277L1127.42 552.551C1125.22 553.046 1124.53 554.273 1123.32 555.932C1122.59 556.941 1121.87 557.756 1120.96 558.619C1118.48 560.953 1119.49 568.109 1118.19 571.539C1116.52 564.49 1116.68 556.469 1116.06 549.234C1114.86 535.3 1113.33 520.22 1109.66 506.679L1043.29 526.239C1039.63 524.088 1037.93 527.848 1033.73 527.424L1032.97 528.622L1030.66 527.424L1031.68 526.449L1029.63 524.031C1033.23 520.071 1039.41 520.492 1043.3 516.21C1044.81 514.552 1045.88 513.978 1047.95 512.998L1048.02 513.097C1053.66 512.072 1059.62 510.072 1064.96 508.07C1076.18 503.865 1089.99 500.227 1101.82 497.838L1111.43 495.67Z" fill="#F0448C"/>
<path d="M1110.2 493.467C1113.96 492.322 1117.25 491.225 1121.28 491.292C1121.98 492.173 1122.72 492.638 1122.71 493.769C1122.71 495.742 1122.98 496.574 1123.63 498.41L1127.2 517.378C1127.58 521.133 1128.02 524.799 1128.8 528.382C1129.41 531.164 1128.12 533.501 1129.95 536.141C1129.85 542.606 1130.61 549.197 1131.83 555.451C1132.73 560.018 1131.03 565.44 1132.03 569.965C1133.47 576.484 1133.86 584.392 1132.02 590.74C1130.86 594.759 1132.48 599.009 1131 603.308C1130.24 605.493 1132.12 610.411 1130.46 612.05C1126.74 615.715 1129.34 618.245 1126.92 621.677L1126.96 622.776C1127.02 625.491 1126.64 626.415 1125.9 628.929C1125.45 630.446 1125.24 633.057 1124.87 634.731C1124.54 636.282 1125.18 636.983 1124.36 638.542C1123.32 640.51 1123.77 643.024 1122.83 645.363L1122.33 647.786C1122.07 649.133 1121.76 650.363 1121.29 651.652C1119.61 656.303 1117.28 665.74 1112.88 668.512C1107.8 671.712 1107.24 678.87 1105.23 683.832C1102.39 690.861 1094.04 710.931 1083.98 709.33L1079.72 708.649C1093.02 686.98 1105.37 663.564 1111.63 639.087C1117.36 616.673 1118.07 594.452 1118.19 571.539C1119.49 568.109 1118.48 560.953 1120.96 558.619C1121.87 557.756 1122.59 556.941 1123.32 555.932C1124.53 554.273 1125.22 553.046 1127.42 552.551L1127.68 567.277C1129.53 557.199 1128.15 544.987 1126.15 535.149C1125.3 530.937 1126.02 525.652 1124.54 521.613C1122.19 515.203 1122.87 507.021 1120.78 500.345C1120.17 498.415 1119.84 497.393 1119.77 495.321L1119.76 494.544C1116.62 494.368 1114.4 494.72 1111.43 495.67L1110.2 493.467Z" fill="#DE125A"/>
<path d="M1140.87 533.412C1142.41 542.802 1147.29 588.129 1144.02 593.915L1144.93 596.168C1143.39 610.758 1142.11 625.298 1138.58 639.614C1134.47 656.333 1127.55 672.395 1121.08 688.359L1120.13 691.656C1116.67 696.425 1099.96 727.949 1096.44 729.157C1090.51 737.814 1082.74 747.15 1074.97 754.355C1070.61 758.399 1065.59 762.047 1060.89 765.742C1059.42 766.903 1056.74 768.475 1055.78 770.002L1049.8 772.885L1039.11 777.622C1031.35 783.055 1013.93 785.956 1004.31 786.376C984.024 787.262 965.018 781.068 949.985 768.18L950.478 767.539L950.784 766.695C952.407 764.332 953.327 763.304 954.294 760.419L954.611 759.446C958.402 757.144 961.33 758.825 965.644 758.711C968.795 758.629 970.701 756.639 972.795 754.644L977.38 756.85C981.249 751.818 991.54 749.194 997.655 747.214C1021.66 739.624 1043.21 728.281 1068.08 722.667L1079.72 708.649L1083.98 709.33C1094.04 710.931 1102.39 690.861 1105.23 683.832C1107.24 678.87 1107.8 671.712 1112.88 668.512C1117.28 665.74 1119.61 656.303 1121.29 651.652C1121.76 650.363 1122.07 649.133 1122.33 647.786L1122.83 645.363C1123.77 643.024 1123.32 640.51 1124.36 638.542C1125.18 636.983 1124.54 636.282 1124.87 634.731C1125.24 633.058 1125.45 630.446 1125.9 628.929C1126.64 626.415 1127.02 625.492 1126.96 622.776L1126.92 621.678C1129.34 618.245 1126.74 615.715 1130.46 612.05C1132.12 610.411 1130.24 605.494 1131 603.308C1132.48 599.009 1130.86 594.759 1132.02 590.74C1133.86 584.392 1133.47 576.484 1132.03 569.965C1131.03 565.441 1132.73 560.018 1131.83 555.451C1130.61 549.197 1129.85 542.606 1129.95 536.142C1131.68 538.114 1131.72 538.386 1132.02 540.95L1134.08 539.027L1136.13 539.5L1137.66 538.06L1139.45 539.022C1138.94 537.062 1139.68 535.894 1140.51 534.144L1140.87 533.412Z" fill="url(#paint12_linear_14_2073)"/>
<path d="M1039.11 777.622C1040.39 775.669 1041.49 774.496 1043.56 773.241C1045.05 772.341 1045.34 772.296 1046.28 770.806L1045 772.004L1043.98 770.564C1044.22 769.237 1044.59 768.643 1045.55 767.683L1046.54 766.703C1046.54 764.849 1046.24 763.893 1044.98 762.468C1043.61 760.933 1043.98 760.876 1043.98 758.963C1044.83 757.976 1045.49 757.132 1046.68 756.491C1048.63 755.439 1050.58 754.179 1051.66 752.199L1052.17 750.746C1054.77 747.197 1060.62 742.165 1064.45 740.121C1067.87 738.297 1068.82 734.678 1073.19 733.498C1074.64 733.107 1075.71 731.518 1076.74 730.451L1078.27 730.931C1078.28 732.906 1078.43 732.525 1079.8 733.827L1078.53 735.035L1079.8 736.728L1081.34 738.666C1082.38 740.411 1081.22 743.093 1080.82 744.945C1082.48 742.826 1084.1 740.383 1086.06 738.52C1089.99 734.785 1091.26 732.045 1096.44 729.157C1090.51 737.814 1082.74 747.15 1074.97 754.355C1070.61 758.399 1065.59 762.047 1060.89 765.742C1059.42 766.903 1056.74 768.475 1055.78 770.002L1049.8 772.885L1039.11 777.622Z" fill="#9C0134"/>
<path d="M997.655 747.215C1021.66 739.624 1043.21 728.281 1068.08 722.667C1056.22 739.398 1034.83 757.456 1013.51 761.505C1001.91 763.71 987.571 763.21 977.38 756.85C981.249 751.818 991.54 749.195 997.655 747.215Z" fill="white"/>
<path d="M1021.97 509.394L1024.51 510.894L1026.06 509.53C1026.56 510.805 1026.82 512.052 1027.08 513.391L1028.07 514.084C1029.28 514.94 1028.84 514.559 1029.64 515.329L1029.13 515.916C1030.79 515.886 1034.09 516.203 1035.37 515.396C1036.71 514.552 1038.15 514.149 1039.66 513.671C1040.81 513.307 1040.12 513.503 1041.29 512.708C1042.8 511.678 1044.26 511.656 1046.05 511.498L1047.95 512.998C1045.88 513.978 1044.81 514.552 1043.3 516.21C1039.41 520.492 1033.23 520.071 1029.63 524.031L1031.68 526.449L1030.66 527.424L1032.97 528.622L1033.73 527.424C1037.93 527.848 1039.63 524.088 1043.29 526.239C1024.55 534.362 1005.7 543.108 989.925 555.884C964.764 576.259 950.019 606.29 938.737 635.122C934.428 646.138 931.28 657.255 928.354 668.655C927.196 673.167 925.277 678.583 925.736 683.198C926.423 690.109 930.446 697.244 933.495 703.493L941.172 718.465L941.217 718.48C948.745 732.535 959.159 745.44 972.795 754.644C970.701 756.639 968.795 758.629 965.644 758.711C961.33 758.825 958.402 757.144 954.612 759.446L954.294 760.418C953.327 763.304 952.407 764.331 950.784 766.695L950.478 767.539L949.985 768.18C924.417 751.892 906.926 714.564 898.755 687.48C896.247 679.164 901.29 665.5 903.411 657.087C914.223 614.173 937.282 566.445 973.162 537.334C981.382 530.664 990.677 525.435 999.883 520.096L1021.97 509.394Z" fill="url(#paint13_linear_14_2073)"/>
</g>
<defs>
<linearGradient id="paint0_linear_14_2073" x1="674.337" y1="477.142" x2="661.833" y2="474.23" gradientUnits="userSpaceOnUse">
<stop stop-color="#1A192F"/>
<stop offset="1" stop-color="#323446"/>
</linearGradient>
<linearGradient id="paint1_linear_14_2073" x1="878.097" y1="975.043" x2="810.504" y2="999.141" gradientUnits="userSpaceOnUse">
<stop/>
<stop offset="1" stop-color="#282536"/>
</linearGradient>
<linearGradient id="paint2_linear_14_2073" x1="796.183" y1="257.679" x2="787.513" y2="246.619" gradientUnits="userSpaceOnUse">
<stop stop-color="#2B3145"/>
<stop offset="1" stop-color="#414B5E"/>
</linearGradient>
<linearGradient id="paint3_linear_14_2073" x1="1146.37" y1="300.217" x2="1133.05" y2="176.584" gradientUnits="userSpaceOnUse">
<stop stop-color="#0F0615"/>
<stop offset="1" stop-color="#2A2F42"/>
</linearGradient>
<linearGradient id="paint4_linear_14_2073" x1="905.743" y1="208.372" x2="899.587" y2="190.446" gradientUnits="userSpaceOnUse">
<stop stop-color="#2D2F45"/>
<stop offset="1" stop-color="#4F566A"/>
</linearGradient>
<linearGradient id="paint5_linear_14_2073" x1="856.595" y1="418.168" x2="750.394" y2="332.546" gradientUnits="userSpaceOnUse">
<stop stop-color="#0F0616"/>
<stop offset="1" stop-color="#25293D"/>
</linearGradient>
<linearGradient id="paint6_linear_14_2073" x1="1099.27" y1="377.561" x2="1025.35" y2="164.249" gradientUnits="userSpaceOnUse">
<stop stop-color="#08000D"/>
<stop offset="1" stop-color="#2B3045"/>
</linearGradient>
<linearGradient id="paint7_linear_14_2073" x1="952.845" y1="460.706" x2="991.034" y2="422.587" gradientUnits="userSpaceOnUse">
<stop stop-color="#1C1624"/>
<stop offset="1" stop-color="#373140"/>
</linearGradient>
<linearGradient id="paint8_linear_14_2073" x1="1003.02" y1="513.879" x2="1029.03" y2="515.117" gradientUnits="userSpaceOnUse">
<stop stop-color="#1D0D23"/>
<stop offset="1" stop-color="#0C0614"/>
</linearGradient>
<linearGradient id="paint9_linear_14_2073" x1="797.208" y1="778.783" x2="693.559" y2="554.392" gradientUnits="userSpaceOnUse">
<stop stop-color="#C8002F"/>
<stop offset="1" stop-color="#E71D6D"/>
</linearGradient>
<linearGradient id="paint10_linear_14_2073" x1="1230.33" y1="588.324" x2="1298.91" y2="554.681" gradientUnits="userSpaceOnUse">
<stop/>
<stop offset="1" stop-color="#1F1E25"/>
</linearGradient>
<linearGradient id="paint11_linear_14_2073" x1="943.628" y1="718.841" x2="1135.52" y2="538.832" gradientUnits="userSpaceOnUse">
<stop stop-color="white"/>
<stop offset="1" stop-color="#FFFFFE"/>
</linearGradient>
<linearGradient id="paint12_linear_14_2073" x1="1036.81" y1="776.848" x2="969.986" y2="603.084" gradientUnits="userSpaceOnUse">
<stop stop-color="#9D0034"/>
<stop offset="1" stop-color="#FF357C"/>
</linearGradient>
<linearGradient id="paint13_linear_14_2073" x1="899.599" y1="683.07" x2="1054.54" y2="655.668" gradientUnits="userSpaceOnUse">
<stop stop-color="#C80030"/>
<stop offset="1" stop-color="#EB2668"/>
</linearGradient>
<clipPath id="clip0_14_2073">
<rect width="1920" height="1080" fill="white"/>
</clipPath>
</defs>
</svg>
