<svg width="1920" height="1080" viewBox="0 0 1920 1080" fill="none" xmlns="http://www.w3.org/2000/svg">
<g clip-path="url(#clip0_14_2736)">
<path d="M669.778 359.108C669.316 363.896 665.645 367.791 665.934 372.462C664.733 373.745 664.414 373.974 664.187 375.58C662.298 375.614 660.597 375.157 658.793 374.746L669.778 359.108Z" fill="#707887"/>
<path d="M611.218 508.113C614.992 503.958 615.249 498.688 616.559 493.781C618.168 487.755 619.834 480.01 622.956 474.475C621.093 488.72 617.306 503.715 617.528 517.985C618.611 516.804 619.644 515.5 620.895 514.453V525.614L621.085 525.138C621.627 524.075 622.561 523.222 623.404 522.331C623.144 527.536 620.257 543.644 623.621 547.373L624.056 547.993L617.499 566.525C616.668 569.958 615.919 572.432 612.698 574.759C609.732 552.495 609.292 530.448 611.218 508.113Z" fill="#5F6374"/>
<path d="M617.528 517.985C618.611 516.804 619.644 515.5 620.895 514.453V525.614L621.085 525.138C621.627 524.075 622.561 523.222 623.404 522.331C623.145 527.536 620.257 543.644 623.622 547.373L624.057 547.993L617.499 566.525C615.331 563.53 616.233 559.095 616.154 555.548C615.872 542.947 616.285 530.548 617.528 517.985Z" fill="#4B5669"/>
<path d="M656.126 378.726L657.157 383.736L656.329 387.019C654.396 389.974 654.396 393.007 653.444 396.216C652.27 400.186 650.488 403.937 649.452 407.965L649.17 408.594C648.417 410.249 647.754 411.337 646.491 412.753L644.041 415.827C642.321 417.818 642.447 419.497 641.357 421.654C637.367 429.54 634.236 437.52 631.601 445.83L622.957 474.475C619.835 480.01 618.169 487.755 616.559 493.781C615.249 498.688 614.992 503.958 611.218 508.113C611.149 500.671 612.911 492.896 614.196 485.549C617.076 469.097 620.593 450.641 628.261 435.315C629.66 429.06 633.007 422.549 635.696 416.616C641.668 403.442 648.209 391.117 656.126 378.726Z" fill="#707887"/>
<path d="M649.452 407.965C650.488 403.937 652.27 400.186 653.444 396.215C654.396 393.007 654.396 389.973 656.329 387.019C656.712 394.469 656.539 401.251 655.165 408.628L658.633 409.362L656.89 420.688L653.457 423.554L652.186 425.79L650.018 424.196C646.684 428.152 645.522 433.033 643.594 437.556C640.596 444.596 637.19 451.825 634.903 459.055C632.006 468.218 630.424 477.862 628.145 487.167C625.349 498.582 622.976 510.623 623.404 522.331C622.561 523.222 621.627 524.075 621.085 525.137L620.895 525.614V514.452C619.644 515.5 618.611 516.804 617.528 517.985C617.306 503.715 621.093 488.72 622.957 474.475L631.601 445.83C634.236 437.52 637.367 429.54 641.357 421.654C642.447 419.497 642.321 417.818 644.041 415.826L646.491 412.753C647.754 411.337 648.417 410.249 649.171 408.594L649.452 407.965Z" fill="#4E4F5F"/>
<path d="M655.165 408.628L658.633 409.362L656.89 420.689L653.457 423.555L655.165 408.628Z" fill="#666F7E"/>
<path d="M623.404 522.331C622.976 510.624 625.349 498.582 628.145 487.167C630.424 477.862 632.006 468.218 634.903 459.055C637.189 451.825 640.596 444.596 643.594 437.556C645.522 433.033 646.684 428.152 650.018 424.196L652.186 425.79C650.194 435.816 649.393 445.97 647.477 456.016C644.756 470.286 640.905 484.269 637.58 498.419C635.163 508.712 633.254 520.074 628.83 529.858L623.621 547.373C620.257 543.644 623.144 527.536 623.404 522.331Z" fill="#2D2C3D"/>
<path d="M623.404 522.331C622.976 510.624 625.349 498.582 628.145 487.167C630.424 477.862 632.006 468.218 634.903 459.055C637.189 451.825 640.596 444.596 643.594 437.556C645.522 433.033 646.684 428.152 650.018 424.196L650.278 427.197L649.368 428.048C649.368 429.646 648.681 438.377 647.952 439.315C647.299 440.151 647.228 440.738 646.924 441.688C646.432 443.227 645.935 444.675 645.507 446.239C644.276 450.724 641.824 455.017 640.677 459.468L640.2 460.704L639.234 463.185L637.79 463.593L636.816 462.776C636.816 463.951 637.254 467.615 636.816 468.563C636.483 469.287 635.232 469.497 634.886 470.216C634.488 471.044 634.893 474.541 634.896 475.591L636.497 476.831C631.999 493.84 627.248 510.325 627.087 527.887C627.072 529.282 627.198 528.55 626.605 529.697C625.898 531.064 626.261 532.44 626.447 533.886L626.771 532.785C627.171 531.511 627.779 530.825 628.83 529.858L623.621 547.373C620.257 543.644 623.144 527.536 623.404 522.331Z" fill="#343641"/>
<path d="M932.94 224.232C956.675 224.141 978.33 226.823 1001.3 231.806C1009.48 233.579 1020.2 235.851 1027.57 239.453C1040.26 242.806 1052.46 248.134 1064.07 253.58C1095.31 268.221 1122.64 286.896 1147.46 308.727C1155.03 315.378 1164.55 323.62 1170.03 331.598C1167.72 330.474 1166.08 328.611 1164.02 327.189C1153.69 320.041 1145.06 311.699 1135.47 303.791C1107.39 280.65 1070.56 258.785 1033.66 247.518C1030.08 245.68 1025.75 244.859 1021.83 243.642C1005.87 238.676 988.383 236.039 971.602 234.064C965.188 233.308 937.906 232.618 934.203 230.235L933.736 229.899L932.053 230.085L931.778 233.069L930.962 232.65L930.958 227.39L932.94 224.232Z" fill="#666F7E"/>
<path d="M932.94 224.232C956.675 224.141 978.33 226.823 1001.3 231.806C1009.48 233.579 1020.2 235.851 1027.57 239.453C1019.14 239.711 1008.34 236.649 999.981 235.082C992.249 233.632 984.446 232.765 976.694 231.439C973.023 230.811 967.19 229.113 963.581 229.498C961.776 229.691 959.529 229.029 957.611 228.885C951.728 228.444 944.481 227.674 938.615 228.248C935.565 228.548 933.897 228.256 930.958 227.39L932.94 224.232Z" fill="#707887"/>
<path d="M1429.34 185.79L1432.45 185.379C1435.33 186.42 1436.64 187.407 1438.44 189.589C1438.76 192.152 1438.73 192.957 1437.25 195.302C1433.98 200.488 1426.94 205.335 1420.19 206.556C1415.41 207.422 1409.35 207.519 1404.88 208.98C1394.16 212.476 1397.81 225.236 1393.93 232.725C1389.55 241.176 1380.88 245.712 1370.51 246.976C1367.06 247.397 1362.29 247.497 1359.12 248.743C1350.1 252.295 1353.29 264.286 1350.18 271.04C1347.07 277.826 1340.62 282.464 1332.99 285.264C1329.79 285.914 1328.25 285.694 1325.27 284.511C1323.51 282.593 1322.33 281.454 1322.71 278.806C1323.24 275.134 1332.95 272.027 1335.99 269.245C1337.27 268.077 1337.22 265.251 1337.41 263.746C1338.68 253.51 1340.43 244.944 1351.34 239.013C1360.47 234.052 1372.84 237.307 1379.85 229.704C1382.22 227.132 1382.12 224.05 1382.46 220.926C1383.34 212.919 1385.26 206.848 1392.82 201.544C1397.53 198.236 1402.02 196.563 1408.08 196.113C1410.75 195.914 1416.79 195.814 1419.03 194.68C1422.23 193.065 1426.43 188.177 1429.34 185.79Z" fill="#020103"/>
<path d="M348.77 471.87C350.755 471.281 353.338 471.279 355.434 471.398C370.196 472.229 373.6 481.685 382.493 489.197C391.135 496.497 404.06 486.295 414.264 486.284C422.166 486.276 430.509 489.535 435.495 494.797C438.392 497.854 440.886 501.786 444.297 504.409C453.124 511.201 464.922 501.979 474.611 501.48C481.322 501.132 490.226 503.717 494.992 507.8C496.618 509.195 498.262 511.134 498.136 513.212C497.98 515.816 496.969 516.44 494.888 518.102L494.161 518.479C493.803 518.635 493.439 518.79 493.059 518.904C488.315 520.322 481.055 512.836 474.149 513.418C471.124 513.672 467.72 515.596 464.956 516.654C457.558 519.484 447.016 519.666 439.818 516.336C431.32 512.406 426.26 500.271 417.663 498.633C412.759 497.699 408.816 499.865 404.394 501.302C396.652 503.821 388.856 504.993 380.939 502.184C373.612 499.587 369.316 494.751 364.605 489.535C363.742 488.581 361.74 485.658 360.66 485.105C357.928 483.71 352.737 483.369 349.571 482.33C346.493 481.32 346.18 480.478 344.961 478.071C345.858 474.867 346.128 474.238 348.77 471.87Z" fill="#020103"/>
<path d="M464.368 189.098L467.376 188.441C479.684 191.322 485.315 199.67 487.977 209.64C488.75 212.54 489.398 216.589 491.89 218.767C498.764 224.77 513.251 220.613 522.222 224.702C529.526 228.034 534.358 233.577 536.383 240.355C537.327 243.506 537.925 247.746 539.737 250.557C544.441 257.851 553.263 256.003 561.301 256.668C566.87 257.125 571.379 258.215 575.838 261.219C580.683 264.483 585.394 269.285 586.166 274.672C585.167 277.428 583.79 278.417 581.076 280.046C571.12 281.126 572.368 271.195 564.408 268.991C562.834 268.555 559.418 268.926 557.554 268.879C551.599 268.727 545.131 268.515 539.693 266.218C525.746 260.326 526.718 251.808 521.967 240.994C517.424 230.652 500.252 235.806 490.36 231.975C480.885 228.307 477.034 221.923 474.56 213.714C473.843 211.342 473.442 208.139 472.36 205.967C470.041 201.321 462.279 200.627 459.906 194.885C461.044 191.811 461.577 191.293 464.368 189.098Z" fill="#020103"/>
<path d="M1109.08 32.0004C1112.26 31.8556 1113.27 32.4887 1116.08 33.6541C1118.21 36.6528 1118.49 39.533 1117.92 43.0521C1116.6 51.3082 1109.79 55.8402 1102.82 60.728C1100.56 62.3164 1097.84 63.8721 1096.62 66.2212C1091.47 76.1532 1105.38 85.5389 1102.16 96.9469C1100.97 101.195 1098.89 105.095 1095.3 108.249C1090.94 112.077 1081.54 116.046 1080.2 121.586L1080.02 122.488C1078.66 128.365 1085.16 134.606 1086.3 140.531L1086.47 141.555C1086.82 143.553 1087.23 145.54 1087.06 147.573C1086.56 153.854 1082.82 159.474 1077.32 163.465L1075.97 163.893C1073.71 164.424 1071.37 163.942 1069.6 162.639C1062.88 157.684 1073.11 151.503 1073.17 145.546C1073.24 138.966 1066.1 132.578 1065.88 125.328C1065.69 119.275 1068.53 112.259 1073.79 108.068C1077.47 105.139 1082.34 102.833 1085.54 99.5301C1093.66 91.1566 1082.34 83.1164 1081.38 74.8364C1079.44 57.9327 1093.02 54.461 1103.5 43.576L1103.86 38.529C1104.38 35.0901 1106.11 33.9374 1109.08 32.0004Z" fill="#020103"/>
<path d="M1472.77 493.929C1482.1 493.061 1487.69 494.048 1495.77 498.021C1498.33 499.276 1501.24 501.056 1504.2 501.342C1508.27 501.733 1511.22 499.947 1515 499.648C1517.98 499.413 1520.1 500.893 1522.22 502.464C1523.23 505.147 1523.13 506.659 1522.25 509.362C1520.27 510.49 1518.3 511.506 1516.04 512.152C1503.47 515.739 1495.67 511.635 1484.71 506.834C1470.9 500.789 1463.18 518.262 1450.49 521.403C1440.17 523.958 1432.15 520.229 1423.33 516.239C1418.11 513.883 1415.79 513.453 1410.15 515.001L1409.06 515.308C1400.83 521.293 1396.35 528.6 1384.69 530.385C1380.16 531.079 1372.49 531.229 1368.72 528.59C1366.61 527.116 1365.16 525.565 1365.16 523.133C1365.16 520.303 1366.48 519.587 1368.72 517.812C1370.64 517.714 1372.47 517.649 1374.37 517.96C1377.6 518.487 1380.98 519.255 1384.2 518.231C1387.24 517.268 1389.68 514.715 1391.93 512.803C1396.46 508.947 1401.08 504.764 1407.35 503.052C1419.68 499.676 1427.53 504.94 1438.03 509.207C1448.85 513.606 1455.48 502.58 1462.59 497.964C1465.61 496.006 1469.21 494.935 1472.77 493.929Z" fill="#020103"/>
<path d="M723.029 37.7886C724.208 37.6379 725.34 37.8386 726.356 38.4014C734.207 42.7516 736.72 53.2568 734.822 60.5263C733.596 65.2181 730.566 71.3295 732.209 76.1252C735.171 84.7581 754.718 85.7815 759.044 101.427C760.42 106.41 759.355 110.535 757.679 115.329C756.809 117.815 754.515 121.903 755.44 124.442L755.699 125.098C758.757 134.192 768.657 134.955 776.003 140.992C782.173 146.063 783.517 153.226 783.816 160.158C782.205 162.891 781.209 164.904 777.797 166.293L774.587 166.078C771.638 164.423 770.711 163.998 769.107 161.363C770.688 145.872 756.846 148.11 748.239 138.971C743.194 133.613 740.235 126.542 741.812 119.644C742.789 115.371 745.056 110.979 745.453 106.667C746.378 96.6976 730.667 94.2128 724.27 88.0971C714.269 78.5338 718.08 68.747 721.022 57.5921C721.18 56.9935 722.169 54.3509 722.018 53.8509C720.56 49.0673 716.469 47.8574 716.946 41.9227C718.557 39.5681 720.154 38.8618 723.029 37.7886Z" fill="#020103"/>
<path d="M654.134 719.82C657.8 719.928 663.027 719.433 666.115 721.241L666.659 723.647L667.227 723.963L669.294 723.679L676.494 724.185L692.779 761.44L709.058 789.787C706.631 800.834 718.627 813.601 721.773 824.098L718.859 824.739C720.508 830.552 721.662 836.832 723.588 842.523C725.048 846.839 727.503 850.647 727.619 855.259C729.574 860.346 730.877 866.262 735.828 869.731C737.603 870.976 738.72 873.228 739.781 874.947L739.642 876.394C737.808 875.196 736.515 873.435 734.829 872.053L735.554 871.02L732.899 869.16L731.441 869.572C732.175 871.778 733.685 873.797 734.553 876.009C734.864 876.807 734.824 876.585 735.517 877.377C737.514 879.66 737.366 881.398 737.269 884.114L712.645 842.695L710.934 838.735L697.542 813.476L696.585 811.48C693.99 808.282 692.245 803.695 690.403 800.095C686.747 792.941 682.965 785.816 680.029 778.418C674.371 769.907 670.008 758.052 666.557 748.67C661.376 739.73 657.861 729.284 654.134 719.82Z" fill="#42414C"/>
<path d="M695.75 798.689C703.442 811.317 716.735 828.089 712.645 842.694L710.934 838.734L697.542 813.476L696.585 811.48C696.647 810.231 696.748 809.027 696.489 807.793C695.846 804.73 695.801 801.79 695.75 798.689Z" fill="#4B5669"/>
<path d="M697.542 813.476C704.975 818.831 710.208 825.937 711.021 834.361L710.934 838.734L697.542 813.476Z" fill="#4E4F5F"/>
<path d="M675.52 754.855L695.75 798.689C695.802 801.79 695.846 804.73 696.489 807.793C696.748 809.027 696.647 810.231 696.585 811.48C693.99 808.282 692.245 803.695 690.403 800.094C686.747 792.94 682.965 785.815 680.029 778.418C680.12 775.425 680.157 772.036 679.433 769.113C678.135 763.88 675.293 760.479 675.52 754.855Z" fill="#4E4F5F"/>
<path d="M667.227 723.962L669.293 723.679C669.229 727.734 672.008 730.221 673.377 733.964C674.986 738.366 675.738 742.881 677.559 747.26C683.01 760.365 690.302 773.192 696.494 786.08C698.014 789.245 698.637 792.699 700.194 795.853C704.839 805.263 710.833 814.291 714.988 823.903C718.125 831.155 718.955 838.965 722.769 846.007L724.65 850.632C722.727 849.79 721.177 848.49 719.323 847.66L718.174 847.252C717.638 846.304 717.173 845.364 716.402 844.534L715.996 844.147L716.958 843.114C716.763 838.006 716.253 832.359 714.419 827.482C710.459 816.943 703.674 807.111 698.622 796.951C692.262 784.169 687.37 770.703 681.059 757.952C679.72 755.24 677.631 752.853 676.398 750.097C673.355 743.294 672.994 736.506 668.275 730.048C667.734 729.307 667.237 728.672 666.864 727.853C666.006 725.971 666.364 725.776 667.227 723.962Z" fill="#343641"/>
<path d="M654.134 719.82C657.8 719.928 663.027 719.433 666.115 721.241L666.659 723.647L660.269 724.052C660.531 726.761 664.548 728.41 666.011 730.878L675.52 754.855C675.293 760.479 678.135 763.881 679.433 769.113C680.157 772.036 680.12 775.425 680.029 778.418C674.371 769.907 670.008 758.052 666.557 748.67C661.376 739.73 657.861 729.284 654.134 719.82Z" fill="#5F6374"/>
<path d="M669.294 723.679L676.494 724.185L692.779 761.44L709.058 789.786C706.631 800.833 718.627 813.601 721.773 824.098L718.859 824.739C720.508 830.551 721.662 836.831 723.588 842.523C725.048 846.839 727.503 850.647 727.619 855.259L724.65 850.632L722.769 846.007C718.955 838.965 718.125 831.155 714.988 823.903C710.833 814.291 704.839 805.263 700.194 795.853C698.637 792.699 698.014 789.245 696.494 786.08C690.302 773.192 683.01 760.365 677.559 747.26C675.738 742.881 674.986 738.366 673.377 733.964C672.008 730.221 669.229 727.734 669.294 723.679Z" fill="#2D2C3D"/>
<path d="M718.859 824.739L695.811 776.602C695.159 774.684 693.98 772.878 693.525 770.946C693.218 769.644 693.461 770.317 693.112 769.329L692.43 767.456C691.55 765.237 692.17 763.646 692.778 761.44L709.058 789.786C706.631 800.833 718.626 813.601 721.773 824.097L718.859 824.739Z" fill="#211E2D"/>
<path d="M709.058 789.787C719.465 804.586 730.736 819.496 746.306 830.746L761.058 841.418L769.383 845.394L767.945 846.835C769.423 856.716 771.838 866.416 772.948 876.352C773.761 883.654 774.389 890.97 774.871 898.291C775.138 902.342 774.925 906.878 776.213 910.79C777.155 912.566 778.02 914.388 778.277 916.342L777.899 917.252C777.491 918.397 777.521 918.876 777.788 920.008C773.835 921.077 773.677 922.449 771.732 925.433L770.869 927.45C771.682 928.471 771.863 928.695 773.183 929.311L771.035 929.724C771.03 931.667 770.093 933.271 771.03 934.478L771.517 935.511C773.934 939.89 777.105 944.792 780.264 948.803C781.048 949.8 780.371 948.943 781.172 950.395L786.061 957.905C786.879 958.961 786.1 957.926 786.966 959.49C789.781 964.583 795.209 969.223 795.241 974.91C790.35 970.283 786.6 963.034 783.03 957.532C776.357 947.252 769.26 937.003 763.234 926.439L737.269 884.114C737.366 881.398 737.514 879.66 735.517 877.376C734.825 876.585 734.864 876.807 734.553 876.009C733.685 873.797 732.175 871.778 731.441 869.572L732.899 869.159L735.554 871.02L734.83 872.053C736.515 873.435 737.808 875.196 739.642 876.394L739.781 874.946C738.72 873.228 737.603 870.976 735.828 869.731C730.877 866.262 729.574 860.346 727.619 855.259C727.503 850.647 725.049 846.839 723.588 842.523C721.662 836.832 720.508 830.552 718.859 824.739L721.773 824.098C718.627 813.601 706.631 800.834 709.058 789.787Z" fill="url(#paint0_linear_14_2736)"/>
<path d="M761.058 841.418L769.383 845.394L767.945 846.835C769.423 856.716 771.838 866.416 772.948 876.352C773.761 883.654 774.389 890.97 774.871 898.291C775.138 902.342 774.925 906.878 776.213 910.79C777.155 912.566 778.02 914.388 778.277 916.342L777.899 917.252C777.491 918.397 777.521 918.876 777.788 920.008C773.835 921.077 773.677 922.449 771.731 925.433L770.869 927.45C771.682 928.471 771.863 928.695 773.182 929.311L771.034 929.724C771.03 931.667 770.093 933.271 771.029 934.478L771.516 935.511C773.934 939.89 777.105 944.792 780.264 948.803C781.048 949.8 780.371 948.943 781.171 950.395L786.061 957.905C786.879 958.961 786.1 957.926 786.965 959.49C789.781 964.583 795.209 969.223 795.241 974.91C790.349 970.283 786.6 963.034 783.03 957.532C776.356 947.252 769.26 937.003 763.233 926.439L764.096 925.558C765.846 923.414 769.556 918.194 770.246 915.769C770.805 913.8 769.69 910.887 769.633 908.847C769.512 904.319 770.429 899.813 770.187 895.201C769.25 877.497 765.04 858.803 761.058 841.418Z" fill="url(#paint1_linear_14_2736)"/>
<path d="M664.637 382.703L680.627 402.309L678.484 405.958L695.226 428.761L703.217 439.235C707.874 446.004 705.251 454.191 704.213 461.625C703.187 468.974 702.332 476.319 701.971 483.714L668.53 476.355L659.03 541.586L655.76 624.657L657.55 650.694L654.967 653.492C656.153 655.094 656.388 655.412 656.489 657.289L649.244 672.153L644.175 682.035C643.203 683.758 642.751 685.439 641.666 687.177L625.47 635.287L618.606 605.135L618.448 605.078L614.99 588.33C613.6 584.114 613.366 579.131 612.698 574.758C615.919 572.432 616.668 569.958 617.499 566.525L624.056 547.993L623.621 547.373L628.829 529.858C633.254 520.074 635.162 508.712 637.58 498.419C640.904 484.269 644.755 470.286 647.477 456.016C649.393 445.97 650.194 435.816 652.186 425.79L653.456 423.554L656.89 420.688L658.632 409.362L660.449 398.156L660.41 388.36C661.964 386.989 663.462 385.759 664.197 383.907L664.637 382.703Z" fill="url(#paint2_linear_14_2736)"/>
<path d="M664.636 382.703L680.627 402.309L678.484 405.958C672.791 398.787 667.85 392.844 664.572 384.561L660.449 398.156L660.41 388.36C661.964 386.989 663.462 385.759 664.196 383.907L664.636 382.703Z" fill="#5F6374"/>
<path d="M653.456 423.554L656.89 420.688L626.58 550.794C625.663 550.419 624.672 548.749 624.056 547.993L623.621 547.373L628.829 529.858C633.254 520.074 635.162 508.712 637.58 498.419C640.904 484.269 644.755 470.286 647.477 456.016C649.393 445.97 650.193 435.816 652.186 425.79L653.456 423.554Z" fill="#626375"/>
<path d="M624.346 562.639C625.376 564.207 626.513 565.49 626.204 567.369L627.161 568.195L627.856 570.847C628.211 572.384 628.585 573.821 630.058 574.81L630.241 575.485L631.959 579.889C633.019 582.199 633.078 584.286 634.885 586.386C634.89 587.454 634.641 588.109 635.343 589.012C636.682 590.742 636.878 592.223 636.826 594.249L637.782 595.481L636.826 596.73L637.782 597.962L636.826 600.864C638.304 602.771 637.782 605.198 637.782 607.47L636.816 608.297C636.821 610.084 636.267 611.534 637.782 612.844L637.79 615.325H639.238L639.315 614.165C639.404 613.003 639.74 612.632 640.205 611.604L640.687 609.959C642.659 612.499 640.445 615.818 642.101 617.951C643.443 619.681 643.638 621.154 643.574 623.18L641.648 623.8C641.656 626.515 642.84 625.772 643.574 627.726C643.927 628.666 643.757 630.416 643.826 631.451L644.55 628.975C645.818 630.611 644.941 631.79 646.471 633.1L645.507 633.928L645.719 634.421C646.308 635.92 646.538 637.321 646.481 638.898L647.924 639.306C647.924 640.286 648.003 639.571 647.68 640.528C647.299 641.662 647.41 642.691 647.447 643.857L649.62 644.056L648.896 642.196C650.282 640.413 649.749 639.133 649.62 637.029L647.929 636.409L648.411 634.762L649.86 634.341L649.936 633.181C649.998 632.355 650.035 632.004 650.468 631.261C651.2 630.004 651.014 628.296 651.061 626.901L651.551 626.28C652.114 627.343 652.9 628.05 652.529 629.199C652.257 630.042 652.159 630.808 652.075 631.674L654.195 633.1L654.215 633.515C654.638 630.73 654.448 627.197 655.76 624.657L657.55 650.694L654.967 653.492C651.607 660.437 647.912 669.357 642.523 675.264C642.172 669.846 643.497 663.892 641.915 658.636C641.236 656.373 639.275 654.635 638.198 652.531C637.125 650.436 636.65 648.103 635.894 645.917C633.993 640.409 634.448 633.581 633.412 627.768C632.26 621.298 629.398 615.113 627.999 608.706C626.461 601.685 626.316 593.896 625.68 586.745C624.934 578.372 623.646 571.194 624.346 562.639Z" fill="url(#paint3_linear_14_2736)"/>
<path d="M624.056 547.993C624.672 548.749 625.663 550.419 626.58 550.794C625.7 553.429 625.065 556.885 623.344 559.167L624.346 562.638C623.646 571.194 624.934 578.372 625.68 586.745C626.316 593.895 626.461 601.685 627.999 608.706C629.398 615.113 632.26 621.298 633.412 627.768C634.448 633.581 633.993 640.409 635.894 645.917C636.65 648.103 637.125 650.436 638.198 652.531C639.275 654.635 641.236 656.373 641.915 658.636C643.497 663.891 642.172 669.845 642.523 675.264C647.912 669.356 651.607 660.437 654.967 653.492C656.153 655.094 656.388 655.412 656.489 657.289L649.244 672.153L644.175 682.035C643.203 683.758 642.751 685.439 641.666 687.177L625.47 635.287L618.606 605.135L618.448 605.078L614.99 588.33C613.6 584.114 613.366 579.131 612.698 574.758C615.919 572.432 616.668 569.958 617.499 566.525L624.056 547.993Z" fill="#5F6374"/>
<path d="M618.606 605.135L622.274 606.665C622.751 608.581 623.124 610.598 623.933 612.429C626.192 617.547 626.753 625.618 625.905 631.039L625.47 635.287L618.606 605.135Z" fill="#666F7E"/>
<path d="M624.056 547.993C624.672 548.749 625.663 550.419 626.58 550.794C625.7 553.429 625.065 556.885 623.344 559.167C621.77 563.834 620.01 568.565 618.749 573.289C617.941 576.318 617.484 580.632 615.252 583.077L614.99 588.33C613.6 584.114 613.366 579.131 612.698 574.758C615.919 572.432 616.668 569.958 617.499 566.525L624.056 547.993Z" fill="#707887"/>
<path d="M778.277 916.342C783.809 920.495 799.507 920.478 807.326 921.822C814.848 923.115 822.357 924.73 829.61 926.887C842.535 930.729 857.299 937.616 868.205 944.498L864.243 946.159C870.679 950.594 877.642 954.651 883.849 959.287C897.612 969.563 910.508 981.633 921.745 993.966C921.624 997.069 923.549 996.898 924.573 999.383C925.023 1000.48 924.565 1003.18 924.563 1004.51C924.555 1009.93 924.086 1015.72 924.701 1021.09L925.146 1038.25C920.754 1038.2 915.118 1037.51 911.329 1039.53C900.776 1040.11 885.743 1036.92 875.69 1034.08C847.456 1026.13 826.774 1012.08 808.782 992.095C803.949 986.729 798.791 980.978 795.241 974.91C795.209 969.222 789.781 964.583 786.965 959.49C786.1 957.926 786.879 958.961 786.061 957.905L781.171 950.395C780.371 948.943 781.048 949.8 780.264 948.803C777.105 944.792 773.934 939.89 771.516 935.51L771.029 934.477C770.093 933.271 771.029 931.666 771.034 929.723L773.182 929.311C771.862 928.695 771.682 928.47 770.869 927.45L771.731 925.433C773.677 922.448 773.835 921.077 777.787 920.008C777.521 918.875 777.491 918.397 777.899 917.252L778.277 916.342Z" fill="url(#paint4_linear_14_2736)"/>
<path d="M778.277 916.342C783.809 920.495 799.507 920.478 807.326 921.822C814.848 923.115 822.357 924.73 829.61 926.887C842.535 930.729 857.299 937.616 868.205 944.498L864.243 946.159C837.213 930.346 808.28 924.334 776.134 921.661L771.731 925.433C773.677 922.448 773.835 921.077 777.787 920.008C777.521 918.875 777.491 918.397 777.899 917.252L778.277 916.342Z" fill="#211E2D"/>
<path d="M926.919 224.22L932.94 224.232L930.958 227.39L930.962 232.65L931.778 233.069C931.875 234.236 932.53 237.277 932.206 238.293C931.801 239.58 927.013 243.678 925.863 244.836L925.201 245.02C909.757 256.692 895.385 269.375 879.897 281.059C846.643 306.143 807.516 329.344 768.251 346.847C750.224 354.884 731.727 362.055 712.622 367.994C702.406 371.169 691.612 373.595 681.198 376.313C676.84 377.449 671.575 377.718 668.208 380.436C667.252 381.209 666.392 381.302 665.138 381.513L664.637 382.703L664.197 383.907C663.462 385.759 661.965 386.989 660.41 388.361L660.449 398.157L658.633 409.362L655.165 408.628C656.539 401.251 656.712 394.47 656.329 387.019L657.157 383.736L656.126 378.726L658.793 374.746C660.598 375.157 662.298 375.614 664.187 375.58C664.414 373.974 664.733 373.745 665.934 372.463C665.645 367.791 669.316 363.896 669.778 359.109C672.057 355.032 675.891 351.046 678.916 347.276C689.946 333.533 702.839 320.979 716.323 308.971C771.284 260.019 846.562 225.621 926.919 224.22Z" fill="#737C8D"/>
<path d="M658.793 374.746C660.597 375.157 662.298 375.614 664.187 375.58L666.105 377.199C664.525 378.88 663.025 379.341 660.701 380.093L660.766 381.359C660.805 383.219 659.831 384.396 658.662 385.88C657.535 385.264 657.609 384.779 657.157 383.736L656.126 378.725L658.793 374.746Z" fill="#9CA2B0"/>
<path d="M926.919 224.22L932.94 224.232L930.958 227.39L930.963 232.65L931.778 233.069C931.875 234.236 932.53 237.277 932.206 238.293C931.801 239.58 927.013 243.678 925.863 244.836L925.201 245.02L922.141 243.979L925.811 239.087L927.065 237.392C929.235 234.236 927.398 227.913 926.919 224.22Z" fill="#9CA2B0"/>
<path d="M667.118 373.125C672.43 369.211 675.579 362.256 679.589 357.356C683.138 353.016 687.061 348.231 691.083 344.236C692.934 342.395 695.334 341.011 697.178 339.169C701.684 334.669 703.538 329.43 709.345 325.625C721.185 317.863 730.486 306.329 741.58 297.617C747.342 293.091 754.372 289.265 760.697 285.281C785.178 269.874 811.377 256.486 839.586 246.548C854.476 241.301 872.911 236.473 888.837 234.197C894.49 233.389 900.336 233.351 906.041 232.567C911.961 231.755 920.87 229.263 926.493 231.272C927.262 233.448 927.23 235.135 927.064 237.391L925.811 239.087L922.14 243.978L921.087 244.017C912.755 252.684 902.44 260.389 892.832 268.036C845.55 305.679 792.764 335.816 733.922 358.486C723.086 362.66 711.94 365.843 700.686 369.037C695 370.652 689.582 371.575 684.124 373.823C679.319 374.939 674.126 375.284 669.202 374.657C667.857 374.486 667.882 374.022 667.118 373.125Z" fill="url(#paint5_linear_14_2736)"/>
<path d="M810.774 263.507C824.488 259.168 837.708 253.067 851.429 248.682C859.746 246.025 868.776 244.802 877.43 243.225C888.373 241.229 898.671 239.193 909.799 237.872C914.522 237.313 919.842 236.049 924.563 236.769L925.811 239.087L922.141 243.979L921.088 244.017L920.702 242.006C918.732 242.006 918.292 242.423 916.839 241.178C914.646 241.185 911.66 242.855 910.563 242.419C908.887 241.752 907.038 241.94 905.243 242.014L903.805 242.831L901.315 242.162C899.803 241.79 898.426 242.404 896.958 242.653C895.025 242.982 890.682 242.37 889.226 243.197C887.807 244.004 886.41 244.385 884.762 244.669C882.255 245.102 880.962 246.273 878.211 246.353L879.173 246.974C875.406 248.413 870.682 247.858 866.621 247.801C868.022 248.288 869.31 248.33 870.805 248.421C868.351 249.302 865.973 249.067 863.568 249.886C861.497 250.591 859.161 250.337 856.963 250.282C855.831 251.179 854.383 252.794 852.909 252.981C851.661 253.139 850.803 253.62 849.689 254.062C842.313 256.998 834.19 258.886 826.673 261.693C824.782 262.4 817.871 265.655 816.351 265.327C813.738 264.762 813.029 265.213 810.774 263.507Z" fill="#4E4F5F"/>
<path d="M667.118 373.125C672.43 369.211 675.579 362.256 679.589 357.356C683.138 353.016 687.061 348.231 691.083 344.236C692.934 342.395 695.334 341.011 697.178 339.169C701.684 334.669 703.538 329.43 709.345 325.625C721.185 317.863 730.486 306.329 741.58 297.617C747.342 293.091 754.372 289.265 760.697 285.281C785.178 269.874 811.377 256.486 839.586 246.548C854.476 241.301 872.911 236.473 888.837 234.197C894.49 233.389 900.336 233.351 906.041 232.567C911.961 231.755 920.87 229.263 926.493 231.272C927.262 233.448 927.23 235.135 927.064 237.391L925.811 239.087L924.563 236.769C919.842 236.049 914.522 237.313 909.798 237.872C898.67 239.193 888.373 241.229 877.43 243.225C868.776 244.802 859.746 246.025 851.428 248.682C837.707 253.067 824.488 259.168 810.774 263.507L808.695 264.33L807.489 263.92C806.231 263.539 805.568 263.327 804.345 263.92C801.982 265.067 799.98 267.179 797.592 268.464C798.318 269.099 799.038 269.213 799.999 269.505L800.667 268.82C801.638 267.852 801.218 268.21 802.414 267.437L803.143 268.678L805.316 267.232L806.765 268.058C805.455 269.366 804.646 269.442 802.901 270.134L801.453 270.96L787.452 279.229L786.276 280.057C785.178 280.84 784.143 281.297 782.862 281.822C781.508 282.377 780.281 283.065 779.033 283.776C776.89 284.999 774.465 285.673 772.384 287.044C766.825 290.706 761.614 295.187 755.59 298.246C749.964 301.101 742.443 307.798 738.693 312.302L737.427 313.204C731.233 317.423 727.011 321.937 721.432 326.679C717.914 329.667 712.869 333.046 710.687 336.68C710.027 337.781 708.811 338.714 707.795 339.571L706.346 340.818L707.303 341.233L705.862 342.05C705.862 342.744 706.099 343.466 705.867 344.131C705.57 344.979 703.16 346.899 702.399 347.723C699.457 350.895 697.027 354.896 693.794 357.777C691.93 359.438 690.7 360.344 689.454 362.321C686.871 366.415 683.551 370.259 678.827 372.644L679.309 372.659L679.865 372.932C681.185 373.485 682.688 373.614 684.124 373.823C679.319 374.939 674.126 375.284 669.202 374.657C667.857 374.486 667.882 374.022 667.118 373.125Z" fill="#4B5669"/>
<path d="M925.201 245.02L925.863 244.836L927.883 246.066L929.952 245.242C931.731 254.987 931.185 265.272 931.16 275.125C931.123 290.452 930.93 305.779 930.955 321.106L932.203 323.777L930.488 328.377C928.824 329.486 927.107 330.529 925.712 331.894C914.115 341.364 903.619 351.67 892.244 361.32C870.842 379.477 848.099 395.382 822.696 409.254C813.919 414.049 803.052 420.041 793.303 423.036L790.943 421.353C768.508 429.223 747.181 434.777 723.232 438.077C719.504 438.591 712.014 440.06 708.487 438.807L707.743 438.433C706.013 438.551 704.797 438.545 703.217 439.235L695.226 428.762L678.484 405.959L680.627 402.31L664.637 382.703L665.139 381.513C666.392 381.302 667.252 381.209 668.209 380.436C671.575 377.718 676.84 377.449 681.198 376.313C691.612 373.595 702.406 371.169 712.623 367.994C731.727 362.055 750.224 354.884 768.251 346.847C807.516 329.344 846.643 306.143 879.897 281.058C895.385 269.374 909.757 256.691 925.201 245.02Z" fill="url(#paint6_linear_14_2736)"/>
<path d="M697.65 425.748L707.743 438.433C706.013 438.551 704.797 438.545 703.217 439.235L695.226 428.762L697.65 425.748Z" fill="#5F6374"/>
<path d="M680.627 402.31L697.651 425.747L695.226 428.762L678.484 405.959L680.627 402.31Z" fill="#626375"/>
<path d="M929.952 245.242C931.731 254.987 931.185 265.272 931.16 275.125C931.123 290.452 930.931 305.779 930.955 321.106L928.427 319.872C928.093 321.741 927.93 323.694 926.963 325.413C926.568 308.253 926.353 291.11 926.6 273.948C926.731 264.686 926.434 255.258 927.883 246.066L929.952 245.242Z" fill="#5F6374"/>
<path d="M926.963 325.413C927.93 323.694 928.093 321.741 928.427 319.872L930.955 321.106L932.204 323.777L930.488 328.376C928.825 329.485 927.107 330.529 925.713 331.894C914.115 341.364 903.619 351.67 892.244 361.32C870.843 379.477 848.099 395.382 822.696 409.254C813.919 414.048 803.052 420.041 793.304 423.036L790.943 421.353C828.151 406.807 861.623 384.728 890.083 359.663C902.734 348.523 914.367 336.542 926.963 325.413Z" fill="#626375"/>
<path d="M931.778 233.069L932.053 230.085L933.736 229.898L934.203 230.235C937.906 232.618 965.188 233.308 971.602 234.064C988.384 236.039 1005.87 238.676 1021.83 243.642C1025.75 244.859 1030.08 245.68 1033.66 247.518C1070.56 258.785 1107.39 280.65 1135.47 303.791C1145.06 311.699 1153.7 320.041 1164.02 327.189C1166.08 328.611 1167.72 330.474 1170.03 331.598C1182.79 344.099 1193.46 358.92 1202.86 373.398C1200.2 374.996 1200 375.652 1196.68 375.225L1191.12 374.249L1191.9 377.047L1196.95 380.131L1198.97 383.242L1197.71 384.813C1191.71 390.613 1187.3 397.606 1182.34 404.062C1173.77 415.223 1165.08 426.304 1156.53 437.474L1151.38 445.013C1150.12 444.23 1150.35 444.577 1149.74 443.58C1149.13 442.564 1148.31 442.372 1147.18 441.773L1140.79 439.942L1140.3 437.19L1134.79 436.047C1123.3 435.169 1110.83 431.97 1099.65 429.445L1099.64 429.371L1067.96 418.79C1037.88 407.504 1014.26 391.533 988.88 374.115C988.512 373.063 958.578 348.252 954.831 344.812L952.631 347.63C948.864 344.139 935.417 329.416 930.891 328.918L930.488 328.376L932.204 323.777L930.955 321.106C930.931 305.779 931.123 290.452 931.16 275.125C931.185 265.272 931.731 254.987 929.952 245.242L927.883 246.066L925.863 244.836C927.013 243.678 931.801 239.58 932.206 238.293C932.53 237.277 931.875 234.235 931.778 233.069Z" fill="url(#paint7_linear_14_2736)"/>
<path d="M1178.83 374.403L1188.82 376.687L1191.9 377.047L1196.95 380.131L1193.78 383.179C1192.58 384.642 1189.94 388.856 1188.37 389.656C1188.25 388.306 1187.81 387.34 1187.2 386.098C1186.02 386.216 1185.13 386.246 1183.96 386.197L1182.97 383.814C1184.3 382.032 1184.25 381.46 1186.71 380.929L1187.21 379.68L1185.75 378.023C1183.13 377.657 1180.89 375.758 1178.83 374.403Z" fill="#1F2027"/>
<path d="M1188.82 376.688L1191.9 377.047L1196.95 380.131L1193.78 383.179C1193.07 382.936 1191.69 382.565 1191.07 382.117C1188.93 380.586 1189.18 378.882 1188.82 376.688Z" fill="#2D2C3D"/>
<path d="M932.203 323.777C939.75 330.633 948.265 337.264 954.83 344.812L952.631 347.63C948.863 344.139 935.417 329.416 930.891 328.918L930.488 328.376L932.203 323.777Z" fill="#42414C"/>
<path d="M1196.95 380.131L1198.97 383.242L1197.71 384.813C1191.71 390.613 1187.3 397.606 1182.34 404.062C1173.77 415.223 1165.08 426.304 1156.53 437.473L1151.38 445.013C1150.12 444.23 1150.35 444.577 1149.74 443.58C1149.13 442.564 1148.31 442.371 1147.18 441.772L1140.79 439.941L1140.3 437.19L1150.5 437.713C1157.87 432.065 1162.92 423.093 1168.35 416.059C1175.13 407.279 1181.93 398.656 1188.37 389.656C1189.94 388.856 1192.58 384.641 1193.78 383.179L1196.95 380.131Z" fill="#4E4F5F"/>
<path d="M931.778 233.069L932.053 230.085L933.736 229.898L934.203 230.235C937.906 232.618 965.188 233.308 971.602 234.064C988.384 236.039 1005.87 238.676 1021.83 243.642C1025.75 244.859 1030.08 245.68 1033.66 247.518C1032.32 248.127 1031.01 249.05 1029.51 248.923C1028.01 248.796 1026.8 249.145 1025.36 249.463C995.337 243.619 967.924 236.316 936.633 238.048L935.644 239.119L939.698 242.62C1001.66 300.178 1086.99 351.071 1176.07 370.945C1179.33 372.179 1182.6 372.689 1186.07 373.279L1191.12 374.249L1191.9 377.047L1188.82 376.687L1178.83 374.403C1142.46 367.099 1107.47 353.264 1075.18 337.438C1028.79 314.694 986.339 287.588 948.256 255.364C943.132 251.027 938.685 246.178 933.736 241.703L931.699 242.014L929.952 245.242L927.883 246.066L925.863 244.836C927.013 243.678 931.801 239.58 932.206 238.293C932.53 237.277 931.875 234.235 931.778 233.069Z" fill="#4B5669"/>
<path d="M939.698 242.62L935.644 239.119L936.633 238.048C967.924 236.316 995.336 243.619 1025.36 249.463C1026.8 249.145 1028.01 248.796 1029.51 248.923C1031.01 249.05 1032.32 248.127 1033.66 247.518C1070.56 258.785 1107.39 280.65 1135.47 303.791C1145.06 311.699 1153.69 320.041 1164.02 327.189C1166.08 328.611 1167.72 330.474 1170.03 331.598C1182.79 344.099 1193.46 358.92 1202.86 373.398C1200.2 374.996 1200 375.652 1196.68 375.224L1191.12 374.249L1186.07 373.279C1182.6 372.689 1179.33 372.179 1176.07 370.945C1086.99 351.071 1001.66 300.178 939.698 242.62Z" fill="url(#paint8_linear_14_2736)"/>
<path d="M1021.47 254.456C1061.63 265.147 1098.94 284.87 1129.49 309.555C1140.25 318.248 1150.03 328.095 1159.78 337.62C1168.21 345.85 1178.77 354.655 1184.63 364.451L1188.16 371.59C1187.44 372.536 1187.28 372.668 1186.07 373.279C1182.6 372.689 1179.33 372.179 1176.07 370.945C1176.69 369.478 1173.72 364.527 1172.94 362.506L1171.76 359.836C1170.93 358.64 1170.32 358.535 1169.97 357.042L1169.83 356.115C1168.82 355.309 1167.48 354.46 1167.03 353.311L1166.93 352.807L1164.51 351.564C1164.14 349.765 1162.02 348.73 1160.65 347.429C1156.67 343.652 1151.41 339.614 1148.04 335.546L1147.62 335.031C1146.8 334.121 1146.2 333.664 1145.86 332.523C1145.66 331.805 1145.48 331.175 1145.19 330.476C1144.29 329.862 1143.53 329.274 1142.42 328.954C1140.96 328.531 1141.36 327.604 1140.37 326.759C1136.33 323.296 1129.7 318.627 1126.38 314.449C1125.76 313.659 1125.66 313.189 1124.61 312.7C1120.8 310.929 1117.37 307.697 1114.06 305.275C1105.19 298.779 1096.52 291.934 1086.3 287.032C1086.14 286.632 1086.17 286.13 1085.82 285.836C1085.68 285.717 1084.26 285.897 1083.88 285.789C1081.39 285.069 1077.03 281.731 1074.71 280.362L1074.71 278.385C1073.05 277.223 1071.49 277.159 1069.94 276.165C1067.18 274.393 1064.09 273.673 1061.68 271.366C1060.49 270.223 1059.08 269.334 1057.33 268.881C1055.29 268.352 1054.23 267.931 1052.5 266.811C1050.62 265.592 1048.69 264.931 1046.77 263.843C1045.81 263.295 1044.95 263.507 1043.81 263.503C1040.66 261.661 1037.82 260.673 1034.16 259.786C1031.46 259.132 1029.15 257.972 1026.43 257.305C1024.4 256.808 1023.07 255.608 1021.47 254.456Z" fill="#2D2C3D"/>
<path d="M939.698 242.62L935.644 239.119L936.633 238.048C967.924 236.316 995.336 243.619 1025.36 249.463C1026.8 249.145 1028.01 248.796 1029.51 248.923C1031.01 249.05 1032.32 248.127 1033.66 247.518C1070.56 258.785 1107.39 280.65 1135.47 303.791C1145.06 311.699 1153.69 320.041 1164.02 327.189C1166.08 328.611 1167.72 330.474 1170.03 331.598C1182.79 344.099 1193.46 358.92 1202.86 373.398C1200.2 374.996 1200 375.652 1196.68 375.224L1191.12 374.249L1186.07 373.279C1187.28 372.668 1187.44 372.536 1188.16 371.59L1184.63 364.451C1178.77 354.655 1168.21 345.849 1159.78 337.62C1150.03 328.095 1140.25 318.248 1129.49 309.555C1098.94 284.87 1061.63 265.147 1021.47 254.456C1010.57 251.266 1000.06 249.166 988.779 247.384C986.705 247.056 984.861 246.694 983.074 245.678C981.596 244.838 977.191 245.314 975.255 245.312L974.289 244.495C971.953 244.548 967.976 245.009 965.964 243.896L964.876 243.25C963.331 242.476 962.318 242.205 960.575 242.628L959.806 242.831C958.242 242.408 957.287 242.145 955.718 242.81C954.749 243.219 954.096 243.409 953.046 243.587L952.082 242.84L949.18 243.172C946.864 243.578 945.309 242.933 943.141 242.289C941.584 241.826 941.223 242.2 939.698 242.62Z" fill="#42414C"/>
<path d="M1033.66 247.518C1070.56 258.785 1107.39 280.65 1135.47 303.791C1145.06 311.699 1153.7 320.041 1164.02 327.189C1166.08 328.611 1167.72 330.474 1170.03 331.598C1182.79 344.099 1193.46 358.92 1202.86 373.398C1200.2 374.996 1200 375.652 1196.68 375.225L1199.75 374.124L1199.33 371.825C1197.81 370.415 1195.8 369.516 1194.4 368.14C1190.42 364.26 1187.26 359.39 1183.84 355.129C1180.22 350.614 1175.09 345.595 1170.93 341.428C1132.07 302.475 1083.25 265.484 1025.36 249.463C1026.8 249.145 1028.01 248.796 1029.51 248.923C1031.01 249.05 1032.32 248.127 1033.66 247.518Z" fill="#4E4F5F"/>
<path d="M1202.86 373.398L1204.89 376.228L1224.69 412.802C1229.07 421.184 1233.13 430.074 1235.55 439.034C1251.81 480.04 1258.46 527.944 1253.97 571.107C1244.37 670.087 1202.46 766.143 1150.49 854.305C1138.18 875.196 1124.47 895.353 1111.46 915.917C1090.28 949.398 1069.82 988.017 1035.34 1013.09C1002.97 1036.63 955.362 1043.78 913.914 1040.01C913.007 1039.93 912.201 1039.74 911.329 1039.53C915.118 1037.51 920.754 1038.2 925.146 1038.25L924.701 1021.09C924.086 1015.72 924.555 1009.93 924.563 1004.51C924.565 1003.18 925.023 1000.48 924.573 999.383C923.549 996.898 921.624 997.07 921.745 993.966C923.478 995.463 924.877 997.017 926.31 998.729C926.086 1009.5 924.368 1023.27 926.839 1033.75L927.42 1008.5L929.902 1007.16L930.475 1006.81L931.449 999.176C941.176 990.717 949.474 981.264 959.008 972.69C980.342 953.5 1008.8 936.131 1038.95 929.038C1048.46 926.802 1057.9 925.139 1067.67 923.989C1072.24 923.452 1077.54 923.782 1081.91 922.557L1083.31 922.139C1080.31 920.941 1076.01 921.077 1072.71 920.624C1075.79 920.423 1078.72 920.855 1080.98 918.975L1075.12 910.79L1076.03 910.856C1076.81 911.469 1077.53 912.018 1078.13 912.777L1080.5 915.874C1081.47 917.072 1082.17 918.289 1082.92 919.595L1083.4 917.942C1082.34 915.883 1081.25 913.813 1079.69 911.99L1079.1 911.334L1080.15 910.36C1076.82 905.058 1072.02 900.306 1067.88 895.459C1059.23 885.339 1049.75 874.415 1042.48 863.569C1041.23 861.239 1039.92 859.279 1038.07 857.249L1037.53 856.665L1037.87 854.91L1041.87 854.108L1042.35 853.037L1046.43 852.275C1064.23 854.643 1079.75 850.001 1095.1 842.942L1099.34 840.876C1110.18 833.788 1120.78 825.912 1129.63 816.984C1145.88 800.59 1158.8 779.222 1168.26 759.402C1173.72 747.963 1177.96 736.18 1183.53 724.779L1183.87 721.209L1196.96 678.12L1202.52 650.393C1203.7 644.702 1203.3 638.447 1203.94 632.63C1205.69 580.744 1203.15 527.739 1191.57 476.651C1188.79 476.425 1185.14 477.572 1182.38 478.128C1174.57 479.703 1166.82 481.447 1159.07 483.232L1157.82 471.345L1153.89 471.548L1153.5 466.298L1152.93 466.034L1152.97 447.479L1150.8 446.074L1151.38 445.013L1156.53 437.474C1165.08 426.304 1173.77 415.223 1182.34 404.062C1187.3 397.606 1191.71 390.613 1197.71 384.813L1198.97 383.243L1196.95 380.131L1191.9 377.047L1191.12 374.249L1196.68 375.225C1200 375.652 1200.2 374.996 1202.86 373.398Z" fill="#020103"/>
<path d="M926.839 1033.75L927.42 1008.5L929.902 1007.16C929.904 1014.39 929.904 1021.63 929.907 1028.86C929.907 1032 930.708 1035.3 928.426 1037.81L926.869 1036.59L926.839 1033.75Z" fill="#343641"/>
<path d="M1183.53 724.779L1183.87 721.209C1192.19 721.103 1204.71 719.579 1212.52 721.416L1212.3 722.775C1207.73 725.713 1189.92 724.57 1183.53 724.779Z" fill="#343641"/>
<path d="M1156.53 437.474C1157.49 443.212 1157.68 450.18 1156.77 455.944L1157.82 471.345L1153.89 471.548L1153.5 466.298L1152.93 466.034L1152.97 447.479L1150.8 446.074L1151.38 445.013L1156.53 437.474Z" fill="#42414C"/>
<path d="M1156.53 437.474C1157.49 443.212 1157.68 450.18 1156.77 455.944L1154.47 445.42L1153.5 466.298L1152.93 466.034L1152.97 447.479L1150.8 446.074L1151.38 445.013L1156.53 437.474Z" fill="#211E2D"/>
<path d="M1085.54 907.691L1087.02 903.089C1087.11 905.435 1086.63 911.884 1087.98 913.601L1088.47 904.717C1089.68 906.436 1089.25 909.382 1089.28 911.361C1089.13 914.035 1087.92 919.667 1088.69 922.031C1088.8 922.362 1090.5 923.769 1090.8 924.063C1093.75 926.957 1097.59 930.018 1096.43 934.209L1094.98 934.647C1091.98 931.396 1087.19 926.841 1086.61 922.7L1083.31 922.139C1080.31 920.941 1076.01 921.077 1072.71 920.624C1075.79 920.423 1078.72 920.855 1080.98 918.975L1075.12 910.79L1076.03 910.855C1076.81 911.469 1077.53 912.017 1078.13 912.777L1080.5 915.874C1081.47 917.072 1082.17 918.289 1082.92 919.595L1083.4 917.942C1082.34 915.882 1081.25 913.812 1079.69 911.99L1079.1 911.334L1080.15 910.36C1081.49 911.533 1082.72 913.641 1083.79 915.046H1084.97L1085.54 907.691Z" fill="#343641"/>
<path d="M1203.94 632.63C1203.96 636.703 1202.94 642.445 1203.88 646.329C1206.04 655.243 1226.24 685.018 1223.89 691.317L1222.54 690.978C1218.02 683.708 1215.13 676.568 1211.34 669.09C1207.98 662.484 1205.07 657.539 1203.51 650.398L1202.52 650.393C1203.7 644.702 1203.3 638.447 1203.94 632.63Z" fill="#343641"/>
<path d="M1099.34 840.876C1096.76 855.242 1093.37 869.629 1091.56 884.078C1090.46 892.87 1091.51 902.825 1089.28 911.362C1089.25 909.382 1089.68 906.436 1088.47 904.717L1087.98 913.601C1086.63 911.884 1087.11 905.435 1087.02 903.09L1085.54 907.691C1086.58 886.076 1088.88 863.961 1095.11 842.942L1099.34 840.876Z" fill="#1F2027"/>
<path d="M1223.89 492.069C1226.92 503.02 1229.87 513.987 1232.82 524.953C1234.06 529.551 1235.17 536.604 1237.71 540.598C1239.95 548.313 1242.27 555.994 1244.79 563.648C1247.15 570.847 1249.91 577.561 1249.21 585.145C1247.08 583.619 1246.73 578.969 1245.8 576.566C1235.48 549.795 1226.83 521.452 1221.11 493.686L1223.89 492.069Z" fill="#42414C"/>
<path d="M1095.1 842.942C1088.88 863.961 1086.58 886.076 1085.54 907.691L1084.97 915.047H1083.79C1082.72 913.641 1081.48 911.533 1080.15 910.36C1076.82 905.058 1072.02 900.306 1067.88 895.459C1059.23 885.339 1049.75 874.415 1042.48 863.569C1041.23 861.239 1039.92 859.279 1038.07 857.249L1037.53 856.665L1037.87 854.91L1041.87 854.108L1042.35 853.037L1046.43 852.275C1064.23 854.643 1079.75 850.001 1095.1 842.942Z" fill="#020103"/>
<path d="M1202.86 373.398L1204.89 376.228L1224.69 412.802C1229.07 421.184 1233.13 430.074 1235.55 439.034C1251.81 480.04 1258.46 527.944 1253.97 571.107C1253.21 571.816 1252.7 572.316 1252.25 573.218C1251.77 574.21 1252.08 573.787 1251.37 574.699C1250.33 576.031 1251.32 579.557 1250.93 581.424C1250.8 578.598 1250.81 575.902 1249.95 573.156L1248.99 572.329C1249.07 571.137 1249.09 570.457 1248.56 569.331C1246.84 565.655 1246.3 561.305 1245.12 557.446C1243.68 556.204 1244.16 555.816 1244.15 554.14C1242.17 552.419 1241.86 547.659 1241.02 545.108L1240.78 544.425C1240.28 542.666 1239.15 541.863 1237.71 540.598C1235.17 536.604 1234.06 529.551 1232.82 524.953C1229.87 513.987 1226.92 503.02 1223.89 492.069L1221.11 493.686C1216.39 473.506 1211.99 453.275 1207.91 432.988C1205.58 421.389 1202.47 408.99 1202.11 397.249C1200.81 393.963 1200.6 391.371 1200.68 387.939L1200.71 386.744L1197.71 384.813L1198.97 383.243L1196.95 380.131L1191.9 377.047L1191.12 374.249L1196.68 375.225C1200 375.652 1200.2 374.996 1202.86 373.398Z" fill="url(#paint9_linear_14_2736)"/>
<path d="M1216.73 407.065C1219.31 408.579 1222.52 410.236 1223.17 413.024L1224.69 412.802C1229.07 421.184 1233.12 430.074 1235.55 439.033C1234.57 438.293 1233.78 437.73 1233.12 436.741C1232.62 435.981 1232.2 435.441 1231.56 434.77L1230.66 433.837C1230.82 431.913 1230.51 431.299 1229.44 429.699L1228.96 431.64L1228.17 430.944C1226.11 428.759 1221.02 421.044 1221.73 418.087L1221.96 417.3L1220.99 418.119L1218.1 411.925C1216.97 410.162 1216.91 409.093 1216.73 407.065Z" fill="#343641"/>
<path d="M1202.86 373.398L1204.89 376.228L1224.69 412.802L1223.17 413.024C1222.52 410.236 1219.31 408.579 1216.73 407.066C1215.14 406.219 1214.57 405.008 1213.63 403.658L1214.23 402.83L1213.28 401.59L1215.2 401.177L1213.75 397.039C1213.34 395.648 1213.26 395.219 1212.06 394.145L1211.34 396.622L1209.41 394.975V388.361C1207.91 387.074 1207.65 387.063 1205.54 386.699C1206.59 389.673 1205.74 392.727 1206.99 395.595C1207.36 396.465 1207.55 396.785 1207.3 397.725C1206.41 401.067 1206.72 404.037 1207 407.417C1205.09 401.207 1206.72 390.835 1202.64 385.888L1201.69 386.708L1202.11 397.249C1200.81 393.963 1200.6 391.371 1200.68 387.939L1200.71 386.744L1197.71 384.813L1198.97 383.243L1196.95 380.131L1191.9 377.047L1191.12 374.249L1196.68 375.225C1200 375.652 1200.2 374.996 1202.86 373.398Z" fill="#42414C"/>
<path d="M1202.86 373.398L1204.89 376.228L1198.97 383.243L1196.95 380.131L1191.9 377.047L1191.12 374.249L1196.68 375.225C1200 375.652 1200.2 374.996 1202.86 373.398Z" fill="#737C8D"/>
<path d="M1202.11 397.248L1201.69 386.707L1202.65 385.888C1206.72 390.835 1205.09 401.207 1207 407.417C1210.14 427.855 1214.25 448.15 1218.63 468.415C1220.29 476.145 1221.22 484.567 1223.89 492.069L1221.11 493.686C1216.39 473.506 1211.99 453.274 1207.91 432.988C1205.58 421.389 1202.47 408.989 1202.11 397.248Z" fill="#4E4F5F"/>
<path d="M925.713 331.894C927.107 330.529 928.825 329.486 930.488 328.376L930.891 328.918C935.417 329.416 948.864 344.139 952.631 347.63L954.831 344.812C958.578 348.252 988.512 373.064 988.88 374.116C1014.26 391.534 1037.88 407.504 1067.96 418.79L1099.64 429.371L1099.65 429.445C1110.83 431.97 1123.3 435.169 1134.79 436.047L1140.3 437.19L1140.79 439.942L1147.18 441.773C1148.31 442.372 1149.13 442.564 1149.74 443.58C1150.35 444.577 1150.12 444.23 1151.38 445.013L1150.8 446.074L1152.97 447.479L1152.93 466.034L1153.5 466.298L1153.89 471.548L1157.82 471.345L1159.07 483.232C1166.82 481.447 1174.57 479.703 1182.38 478.129C1185.14 477.572 1188.79 476.425 1191.57 476.651C1203.15 527.739 1205.69 580.745 1203.94 632.63C1203.3 638.447 1203.7 644.702 1202.52 650.393L1196.96 678.12L1183.87 721.209L1183.53 724.779C1177.96 736.18 1173.72 747.963 1168.26 759.402C1158.8 779.222 1145.88 800.59 1129.63 816.984C1120.78 825.912 1110.18 833.788 1099.34 840.877L1095.11 842.942C1079.75 850.001 1064.23 854.643 1046.43 852.275L1042.35 853.037L1041.87 854.108L1037.87 854.91L1037.53 856.665L1038.07 857.249C1039.92 859.279 1041.23 861.239 1042.48 863.569C1049.75 874.415 1059.23 885.339 1067.88 895.459C1072.02 900.306 1076.82 905.058 1080.15 910.36L1079.1 911.334L1079.69 911.99C1081.25 913.813 1082.34 915.883 1083.4 917.942L1082.92 919.595C1082.17 918.289 1081.47 917.072 1080.5 915.874L1078.13 912.778C1077.53 912.018 1076.81 911.469 1076.03 910.856L1075.12 910.79L1080.98 918.975C1078.72 920.855 1075.79 920.423 1072.71 920.624C1076.02 921.077 1080.31 920.942 1083.31 922.14L1081.91 922.557C1077.54 923.782 1072.24 923.452 1067.67 923.99C1057.9 925.139 1048.46 926.803 1038.95 929.038C1008.8 936.131 980.343 953.5 959.008 972.69C949.474 981.265 941.176 990.718 931.45 999.176L930.476 1006.81L929.902 1007.16L927.421 1008.5L926.84 1033.75C924.368 1023.27 926.086 1009.5 926.311 998.729C924.877 997.017 923.478 995.463 921.745 993.967C910.508 981.633 897.613 969.563 883.849 959.287C877.643 954.652 870.679 950.594 864.243 946.159L868.205 944.498C857.299 937.617 842.535 930.729 829.61 926.887C822.357 924.73 814.848 923.115 807.326 921.822C799.508 920.478 783.809 920.495 778.277 916.342C778.02 914.388 777.155 912.566 776.213 910.79C774.925 906.878 775.138 902.342 774.871 898.291C774.389 890.97 773.761 883.654 772.948 876.352C771.838 866.416 769.423 856.716 767.945 846.835L769.384 845.393L761.058 841.418L746.306 830.746C730.736 819.496 719.465 804.586 709.058 789.787L692.779 761.44L676.494 724.185L669.294 723.679L667.227 723.962L666.659 723.647L666.115 721.24C663.028 719.433 657.8 719.928 654.134 719.82L641.666 687.177C642.751 685.439 643.203 683.758 644.175 682.035L649.245 672.153L656.49 657.29C656.388 655.412 656.153 655.095 654.967 653.492L657.55 650.694L655.76 624.657L659.031 541.586L668.53 476.355L701.971 483.714C702.332 476.319 703.188 468.974 704.213 461.625C705.252 454.191 707.874 446.004 703.217 439.235C704.797 438.545 706.013 438.551 707.743 438.433L708.487 438.807C712.015 440.06 719.504 438.591 723.232 438.077C747.181 434.777 768.508 429.223 790.943 421.353L793.304 423.036C803.052 420.041 813.919 414.049 822.696 409.254C848.099 395.382 870.843 379.477 892.244 361.32C903.619 351.67 914.115 341.364 925.713 331.894Z" fill="#0D0616"/>
<path d="M1134.79 436.047L1140.3 437.19L1140.79 439.942C1137.25 440.16 1133.26 439.279 1129.74 438.811L1130.39 438.358C1131.91 437.279 1132.9 436.648 1134.79 436.047Z" fill="#42414C"/>
<path d="M1153.89 471.548L1157.82 471.345L1159.07 483.232L1156.15 484.227C1154.67 480.203 1154.43 475.739 1153.89 471.548Z" fill="#4E4F5F"/>
<path d="M791.781 893.124L808.696 873.069L808.938 874.739L807.247 876.187L808.214 877.014L811.593 874.119L812.035 874.946L796.749 892.504L795.175 891.471L791.781 893.124Z" fill="#211E2D"/>
<path d="M791.781 893.124L795.174 891.471L796.749 892.504C791.61 899.364 785.351 906.201 781.337 913.533C780.613 914.858 779.614 915.485 778.277 916.342C778.02 914.388 777.155 912.566 776.213 910.79C782.088 906.182 787.316 898.812 791.781 893.124Z" fill="#2D2C3D"/>
<path d="M1099.65 429.445C1110.83 431.97 1123.3 435.169 1134.79 436.047C1132.9 436.648 1131.91 437.279 1130.39 438.359L1129.74 438.812C1118.91 437.675 1107.35 434.796 1096.87 432.193C1097.5 430.933 1098.47 430.328 1099.65 429.445Z" fill="#4E4F5F"/>
<path d="M1067.96 418.79L1099.64 429.371L1099.65 429.445C1098.47 430.328 1097.5 430.933 1096.86 432.193C1085.74 430.224 1073.2 424.962 1062.92 420.858C1064.76 420.46 1066.31 419.577 1067.96 418.79Z" fill="#42414C"/>
<path d="M954.831 344.812C958.578 348.252 988.512 373.064 988.88 374.116C989.768 375.654 990.588 377.181 991.807 378.554L991.241 379.308C981.838 372.666 973.192 365.82 964.53 358.486C960.459 355.038 955.926 351.66 952.631 347.63L954.831 344.812Z" fill="#4E4F5F"/>
<path d="M1147.18 441.772C1148.31 442.371 1149.13 442.564 1149.74 443.58C1150.35 444.577 1150.12 444.23 1151.38 445.013L1150.8 446.074C1141.05 457.146 1132.55 468.838 1123.71 480.436C1119.69 485.712 1115.45 492.928 1110.09 497.166C1108.16 498.69 1105.6 499.737 1103.25 500.717C1105.39 497.473 1108.3 494.602 1110.71 491.495C1116.13 484.512 1121.35 477.404 1126.77 470.415C1133.76 461.419 1139.37 452.102 1147.75 443.895L1147.18 441.772Z" fill="#42414C"/>
<path d="M988.88 374.116C1014.26 391.534 1037.88 407.504 1067.96 418.79C1066.31 419.577 1064.76 420.46 1062.92 420.858C1043.47 413.067 1026.02 403.362 1008.99 392.272C1003 388.376 995.952 384.348 991.241 379.308L991.807 378.554C990.588 377.181 989.767 375.655 988.88 374.116Z" fill="#2D2C3D"/>
<path d="M1075.12 910.79L1074.49 910.405C1069.86 906.453 1065.62 899.644 1061.84 894.998C1054.46 885.902 1047.36 876.718 1040.19 867.506C1037.39 863.912 1033.9 860.445 1031.35 856.756C1030.44 855.446 1030.13 854.571 1030.29 853.028C1034.38 854.43 1038.82 860.667 1042.48 863.569C1049.75 874.415 1059.23 885.339 1067.88 895.459C1072.02 900.306 1076.82 905.058 1080.15 910.36L1079.1 911.334L1079.69 911.99C1081.25 913.813 1082.34 915.883 1083.4 917.942L1082.92 919.595C1082.17 918.289 1081.47 917.072 1080.5 915.874L1078.13 912.778C1077.53 912.018 1076.81 911.47 1076.03 910.856L1075.12 910.79Z" fill="#1F2027"/>
<path d="M868.205 944.498C890.333 956.089 909.559 975.477 926.177 992.29L927.277 918.772L927.942 919.183V990.703C926.775 992.201 926.664 991.996 924.563 992.356L920.942 989.255L920.218 990.288C921.626 991.424 923.001 992.487 924.004 993.918C924.902 995.198 927.576 997.294 927.942 998.558C928.538 1000.61 927.942 1004.19 927.942 1006.41L928.666 1006.83C928.726 1005.42 928.671 1004.04 929.257 1002.7C930.777 999.243 929.423 998.742 932.774 995.869L932.77 994.837C931.586 995.22 931.225 995.249 929.875 995.249C929.853 977.986 929.835 960.724 929.84 943.461C929.843 936.755 928.659 928.162 930.357 921.67L931.707 994.638L958.766 968.842C987.103 944.125 1031 920.783 1072.71 920.624C1076.02 921.077 1080.31 920.942 1083.31 922.14L1081.91 922.557C1077.54 923.782 1072.24 923.452 1067.67 923.99C1057.9 925.139 1048.46 926.803 1038.95 929.038C1008.8 936.131 980.343 953.5 959.008 972.69C949.474 981.264 941.176 990.718 931.45 999.176L930.476 1006.81L929.902 1007.16L927.42 1008.5L926.84 1033.75C924.368 1023.27 926.086 1009.5 926.311 998.729C924.877 997.017 923.478 995.463 921.745 993.967C910.508 981.633 897.613 969.564 883.849 959.287C877.643 954.652 870.679 950.594 864.243 946.16L868.205 944.498Z" fill="#1F2027"/>
<path d="M925.712 331.894C927.107 330.529 928.824 329.486 930.488 328.376L930.891 328.918L931.771 434.663L934.208 437.143H932.77L931.801 437.351C930.463 441.387 928.325 442.53 925.183 445.589L924.049 445.741C917.12 452.481 911.43 460.01 904.591 466.775C885.572 485.586 860.688 504.695 833.317 513.748C826.925 515.862 820.212 518.102 813.523 519.418C808.609 520.386 799.713 519.967 795.773 522.223L790.599 519.401C805.289 517.666 822.009 513.589 835.807 508.706C866.499 497.841 892.728 474.124 912.641 452.026C916.935 447.263 922.501 442.406 924.981 436.71C928.098 429.549 926.318 417.152 926.261 409.39C926.133 391.781 925.927 374.173 925.972 356.564C925.992 349.293 927.084 341.352 926.681 334.204C926.632 333.329 926.165 332.648 925.712 331.894Z" fill="url(#paint10_linear_14_2736)"/>
<path d="M925.712 331.895C926.165 332.648 926.632 333.33 926.681 334.204C927.084 341.352 925.992 349.294 925.972 356.564C925.927 374.173 926.132 391.781 926.261 409.39C926.318 417.152 928.098 429.549 924.981 436.71C922.501 442.406 916.935 447.263 912.641 452.026C892.728 474.124 866.499 497.841 835.806 508.706C822.009 513.589 805.289 517.666 790.599 519.402L771.811 509.565L753.049 500.921L749.067 499.062L705.429 484.4L701.971 483.715C702.332 476.319 703.187 468.974 704.213 461.625C705.251 454.191 707.874 446.004 703.217 439.235C704.796 438.545 706.013 438.551 707.743 438.433L708.487 438.807C712.014 440.06 719.504 438.591 723.231 438.077C747.181 434.777 768.508 429.223 790.943 421.353L793.303 423.036C803.052 420.041 813.918 414.049 822.696 409.254C848.099 395.382 870.842 379.477 892.243 361.32C903.619 351.671 914.114 341.364 925.712 331.895Z" fill="#0D0616"/>
<path d="M719.58 453.078C731.109 467.587 740.282 484.127 753.029 497.915L753.049 500.921L749.067 499.062C749.047 497.532 742.756 492.026 741.286 489.973C732.956 478.334 723.849 467.412 715.944 455.478C717.371 454.777 718.404 454.06 719.58 453.078Z" fill="#4E4F5F"/>
<path d="M790.943 421.353L793.303 423.036C775.061 429.612 756.663 435.655 737.244 439.205C730.259 440.483 722.925 440.748 716.001 442.194C713.737 442.666 712.415 443.326 711.085 444.998L719.581 453.078C718.404 454.06 717.371 454.777 715.944 455.478L710.586 446.596L705.429 484.4L701.971 483.714C702.332 476.319 703.187 468.974 704.213 461.625C705.251 454.191 707.874 446.004 703.217 439.235C704.796 438.545 706.013 438.551 707.743 438.432L708.487 438.807C712.014 440.06 719.504 438.591 723.231 438.077C747.181 434.777 768.508 429.223 790.943 421.353Z" fill="url(#paint11_linear_14_2736)"/>
<path d="M705.429 484.4L710.585 446.597L715.944 455.478C723.849 467.412 732.956 478.334 741.286 489.974C742.756 492.027 749.047 497.532 749.067 499.062L705.429 484.4Z" fill="#211E2D"/>
<path d="M1159.07 483.232C1166.82 481.448 1174.57 479.704 1182.38 478.129C1185.14 477.572 1188.79 476.425 1191.57 476.651C1203.15 527.739 1205.69 580.745 1203.94 632.631C1203.3 638.447 1203.7 644.702 1202.52 650.394L1196.96 678.12L1183.87 721.209L1183.53 724.78C1177.96 736.18 1173.72 747.964 1168.26 759.402C1158.8 779.222 1145.88 800.59 1129.63 816.984C1120.78 825.912 1110.18 833.788 1099.34 840.877L1095.1 842.943C1079.75 850.002 1064.23 854.644 1046.43 852.275C1041.2 851.047 1035.7 849.961 1030.77 847.957C996.046 833.813 976.78 797.557 964.634 768.163C961.66 759.802 958.588 751.507 955.817 743.091C954.42 738.843 952.322 734.021 952.102 729.631C951.61 719.81 954.339 708.291 956.576 698.639C971.283 635.179 996.703 561.036 1062.87 523.074L1062.94 522.955C1067.02 519.308 1073.62 516.536 1078.66 513.93C1086.88 509.68 1095.5 504.862 1104.16 501.344C1120.64 494.643 1138.76 488.983 1156.15 484.227L1159.07 483.232Z" fill="url(#paint12_linear_14_2736)"/>
<path d="M1034.55 578.71L1036.75 578.814L1036.06 579.551L1029.33 588.039C1030.36 588.043 1030.8 587.926 1031.74 587.634L1032.7 588.453L1031.5 589.486L1032.05 589.899C1032.96 590.684 1032.9 591.248 1033.43 592.172L1034.15 593.207C1035.13 594.634 1035.6 595.546 1036.08 597.138L1036.56 598.374L1035.36 599.407L1036.08 600.235L1035.36 601.062L1036.56 602.095C1036.24 603.395 1035.72 604.038 1035.12 605.196C1033.37 608.541 1031.98 612.037 1027.88 614.076C1027.44 614.296 1026.87 614.283 1026.42 614.493L1024.5 615.729L1023.29 616.148L1022.33 615.733C1019.77 615.073 1018.4 616.696 1015.81 616.148C1014.74 615.032 1014.2 614.52 1014.12 613.051L1010.74 619.702C1010.32 620.508 1010.12 621.133 1009.88 621.971C1009.58 623.008 1009.38 623.516 1008.81 624.416C1007.72 626.126 1007.18 627.834 1006.64 629.709C1006.37 629.163 1006.05 627.993 1005.43 627.732C1007.56 621.177 1011.35 614.535 1014.69 608.365C1020.16 598.23 1026.25 587.37 1034.55 578.71Z" fill="white"/>
<path d="M1069.67 535.564C1101.08 513.999 1142.92 503.477 1180.46 492.589L1182.41 504.402L1190.54 575.224C1192.07 574.066 1192.38 573.26 1193.02 571.662C1196.88 600.973 1193.57 630.598 1190.1 659.768C1189.51 664.757 1189.85 671.573 1187.91 676.219L1187.56 677.241C1187.25 678.196 1187.21 678.89 1187.22 679.866C1187.22 681.417 1186.91 681.383 1186.25 682.71L1177.05 709.577H1176.33L1176.03 709.033L1174.71 707.101C1176.83 700.224 1180.34 691.827 1180.57 684.764L1170.97 685.041C1182.97 643.933 1182 599.318 1178.33 557.332C1176.82 539.986 1175.31 522.413 1172.1 505.236C1148.55 511.959 1125.57 518.988 1103.59 529.019C1091.84 534.387 1080.84 540.86 1069.84 547.261C1070.97 545.218 1071.79 544.005 1074.02 542.742L1074.71 542.361C1077.74 540.5 1082.05 538.792 1084.67 536.701L1085.57 535.954L1086.78 535.949C1088.53 534.338 1090.24 533.371 1092.58 532.436C1098.38 530.116 1103.33 526.448 1109.47 524.377C1110.5 524.032 1111.26 523.819 1112.22 523.315L1113.33 522.724L1114.78 522.72C1115.87 522.003 1116.87 521.302 1118.16 520.864C1120.16 520.184 1121.99 519.283 1123.96 518.591C1128.54 516.975 1134.7 515.255 1138.93 513.212L1138.22 510.509L1137.23 508.043L1134.57 508.039L1133.37 508.458C1127.45 509.624 1122.9 512.412 1117.19 514.038L1115.26 514.452C1112.55 515.659 1109.19 516.594 1106.76 518.248L1106.33 518.582L1105.12 518.586C1102.33 520.684 1097.45 521.414 1094.02 523.548L1086.3 527.682L1077.12 532.641L1069.73 537.204L1069.67 535.564Z" fill="#EA3068"/>
<path d="M1193.02 571.662C1196.88 600.974 1193.57 630.599 1190.1 659.768C1189.51 664.757 1189.85 671.573 1187.91 676.219L1187.56 677.241C1187.25 678.196 1187.21 678.89 1187.22 679.866C1187.22 681.418 1186.91 681.384 1186.25 682.711L1177.05 709.578H1176.33L1176.03 709.034L1174.71 707.101C1176.83 700.224 1180.34 691.827 1180.57 684.764C1182.49 677.978 1185 671.681 1186.36 664.738C1190.46 643.8 1191.12 622.015 1191.08 600.819C1191.07 592.283 1190.3 583.759 1190.54 575.224C1192.07 574.067 1192.38 573.26 1193.02 571.662Z" fill="#A5023E"/>
<path d="M1159.07 483.232C1166.82 481.448 1174.57 479.704 1182.38 478.129C1185.14 477.572 1188.79 476.425 1191.57 476.651C1203.15 527.739 1205.69 580.745 1203.94 632.631C1203.3 638.447 1203.7 644.702 1202.52 650.394L1196.96 678.12L1196.8 678.073L1195.32 679.403L1194.22 678.577C1191.47 678.456 1190.11 677.563 1187.91 676.219C1189.85 671.573 1189.51 664.757 1190.1 659.768C1193.57 630.599 1196.88 600.974 1193.02 571.662C1192.38 573.26 1192.07 574.067 1190.54 575.224L1182.41 504.403L1180.46 492.59C1142.92 503.478 1101.08 514 1069.67 535.564L1069.73 537.205L1077.12 532.641L1086.3 527.682L1094.02 523.548C1097.45 521.415 1102.33 520.684 1105.12 518.587L1106.33 518.582L1106.76 518.248C1109.19 516.595 1112.55 515.659 1115.26 514.453L1117.19 514.038C1122.9 512.412 1127.45 509.625 1133.37 508.458L1134.57 508.039L1137.23 508.044L1138.22 510.51L1138.93 513.212C1134.7 515.255 1128.54 516.976 1123.96 518.591C1121.99 519.283 1120.16 520.185 1118.16 520.864C1116.87 521.302 1115.87 522.003 1114.78 522.721L1113.33 522.725L1112.22 523.315C1111.26 523.819 1110.5 524.033 1109.47 524.378C1103.33 526.448 1098.38 530.116 1092.58 532.436C1090.24 533.372 1088.53 534.339 1086.78 535.95L1085.57 535.954L1084.67 536.701C1082.05 538.792 1077.74 540.501 1074.71 542.361L1074.02 542.742C1071.79 544.006 1070.96 545.219 1069.84 547.261C1057.64 555.912 1042.28 566.641 1034.55 578.711C1026.25 587.37 1020.16 598.231 1014.69 608.365C1011.35 614.535 1007.56 621.177 1005.43 627.733C1001.44 634.26 999.059 642.084 996.498 649.111C990.029 666.878 984.915 685.122 980.758 703.386C979.106 710.632 976.531 719.173 976.612 726.498C976.672 731.835 979.93 739.101 981.816 744.228C982.809 746.931 983.939 751.627 985.686 753.924L989.884 764.283C987.852 765.583 984.263 768.58 981.756 768.645C979.015 765.005 976.575 761.487 974.561 757.508C974.15 762.691 974.546 766.76 969.943 770.491C966.915 770.326 966.792 769.86 964.634 768.163C961.66 759.802 958.588 751.507 955.817 743.091C954.42 738.843 952.322 734.021 952.102 729.631C951.61 719.81 954.339 708.291 956.576 698.639C971.283 635.179 996.703 561.036 1062.87 523.074L1062.94 522.955C1067.02 519.308 1073.62 516.536 1078.66 513.93C1086.88 509.68 1095.5 504.862 1104.16 501.344C1120.64 494.643 1138.76 488.983 1156.15 484.227L1159.07 483.232Z" fill="#DD1051"/>
<path d="M1075.85 527.239C1083.56 523.793 1090.63 519.181 1098.4 515.706C1125.71 503.503 1154.02 494.653 1183.7 487.708L1185.43 500.269L1183.32 500.536L1182.41 504.403L1180.46 492.59C1142.92 503.478 1101.08 514 1069.67 535.564C1062.09 538.942 1054.95 544.607 1048.81 549.668C1035.89 560.336 1024.3 572.081 1015.35 585.477C1012.19 590.21 1009.31 598.179 1004.85 601.683L1004.6 600.855C1007.03 594.693 1011.44 588.714 1015.19 583.077C1026.49 566.091 1039.83 551.837 1057.22 539.103C1063.08 534.815 1069.75 531.276 1075.85 527.239Z" fill="#A50026"/>
<path d="M1159.07 483.232C1166.82 481.448 1174.57 479.704 1182.38 478.129C1185.14 477.572 1188.79 476.425 1191.57 476.651C1203.15 527.739 1205.69 580.745 1203.94 632.631C1203.3 638.447 1203.7 644.702 1202.52 650.394L1196.96 678.12L1196.8 678.073L1195.32 679.403L1194.22 678.577C1191.47 678.456 1190.11 677.563 1187.91 676.219C1189.85 671.573 1189.51 664.757 1190.1 659.768C1193.57 630.599 1196.88 600.974 1193.02 571.662C1192.38 573.26 1192.07 574.067 1190.54 575.224L1182.41 504.403L1183.32 500.536L1185.43 500.269L1183.7 487.709C1154.02 494.654 1125.71 503.503 1098.41 515.706C1090.63 519.181 1083.56 523.794 1075.85 527.24C1075.34 526.689 1075.55 527.058 1075.67 526.027L1081.47 522.721C1093.06 515.617 1106.69 511.231 1119.12 505.358V504.109L1116.72 502.464V499.983L1114.3 499.568L1111.4 500.809C1108.93 501.52 1106.93 501.937 1104.83 503.366L1104.4 503.7L1103.19 503.702L1101.02 504.737C1099.63 505.279 1099.22 505.349 1098.26 506.424L1097.4 507.415L1095.95 507.011L1093.05 508.664C1091.95 509.373 1091.5 509.832 1090.14 510.124C1088.92 510.385 1089.43 510.154 1088.42 510.77L1075.55 517.617L1072.77 519.408L1071.33 519.412C1070.31 520.572 1069.63 521.626 1067.95 522.096C1066.08 522.619 1065.06 523.301 1063.57 524.365L1062.97 524.797L1062.88 523.074L1062.94 522.955C1067.03 519.308 1073.62 516.536 1078.66 513.93C1086.88 509.68 1095.5 504.862 1104.16 501.344C1120.64 494.643 1138.76 488.983 1156.15 484.227L1159.07 483.232Z" fill="#EA3068"/>
<path d="M1182.41 504.402L1183.31 500.535L1185.43 500.269L1193.02 571.662C1192.38 573.26 1192.07 574.066 1190.54 575.224L1182.41 504.402Z" fill="#990011"/>
<path d="M1180.57 684.764C1180.34 691.827 1176.83 700.224 1174.71 707.101L1176.03 709.033L1176.33 709.577H1177.05L1186.25 682.711C1186.91 681.383 1187.22 681.417 1187.22 679.866C1187.21 678.89 1187.25 678.196 1187.56 677.241L1187.91 676.219C1190.11 677.563 1191.47 678.456 1194.22 678.577L1195.32 679.402L1196.8 678.073L1196.96 678.119L1183.87 721.209L1183.53 724.779C1177.96 736.18 1173.72 747.963 1168.26 759.402C1158.8 779.222 1145.88 800.59 1129.63 816.983C1120.78 825.911 1110.18 833.788 1099.34 840.876L1095.1 842.942C1079.75 850.001 1064.23 854.643 1046.43 852.275C1041.2 851.047 1035.7 849.961 1030.77 847.957C996.046 833.813 976.78 797.557 964.634 768.162C966.792 769.86 966.915 770.326 969.943 770.491C974.546 766.759 974.15 762.691 974.561 757.507C976.575 761.487 979.015 765.004 981.756 768.645C984.263 768.579 987.852 765.582 989.884 764.283L985.686 753.924C987.6 755.378 989.627 757.056 989.963 759.351C990.114 760.394 990.393 760.449 991.186 761.266C993.673 760.902 995.487 760.174 997.705 759.196L999.635 758.369C1000.63 758.045 1001.22 758.055 1002.15 757.52L1002.77 757.133C1008.71 757.613 1017.95 753.486 1023.62 751.521C1055.79 740.385 1087.8 726.447 1118.16 712.09C1129.14 706.898 1140.2 701.885 1151.19 696.733C1157.29 693.872 1162.84 690.098 1169.8 689.128L1170.97 685.041L1180.57 684.764Z" fill="white"/>
<path d="M1180.57 684.764C1180.34 691.827 1176.83 700.224 1174.71 707.101L1176.03 709.033L1176.33 709.577H1177.05L1186.25 682.711C1186.91 681.383 1187.22 681.417 1187.22 679.866C1187.21 678.89 1187.25 678.196 1187.56 677.241L1187.91 676.219C1190.11 677.563 1191.47 678.456 1194.22 678.577L1195.32 679.402L1196.8 678.073L1196.96 678.119L1183.87 721.209L1183.53 724.779C1177.96 736.18 1173.72 747.963 1168.26 759.402C1158.8 779.222 1145.88 800.59 1129.63 816.983C1120.78 825.911 1110.18 833.788 1099.34 840.876L1095.1 842.942C1079.75 850.001 1064.23 854.643 1046.43 852.275C1041.2 851.047 1035.7 849.961 1030.77 847.957C996.046 833.813 976.78 797.557 964.634 768.162C966.792 769.86 966.915 770.326 969.943 770.491C974.546 766.759 974.15 762.691 974.561 757.507C976.575 761.487 979.015 765.004 981.756 768.645C984.263 768.579 987.852 765.582 989.884 764.283L1003.9 791.097C1012.86 804.624 1026.23 822.057 1044.83 826.244C1058.13 829.237 1072.83 827.52 1084.61 821.471C1096.05 815.603 1106.75 805.134 1114.68 796.052C1141.85 764.943 1158.74 726.536 1169.8 689.128L1170.97 685.041L1180.57 684.764Z" fill="#9E023A"/>
<path d="M659.031 541.586L668.53 476.354L701.971 483.714L705.43 484.4L749.067 499.062L753.05 500.92L771.811 509.565L790.599 519.401L795.773 522.223C812.512 533.464 828.438 545.421 841.208 560.103C851.243 571.641 858.483 584.465 865.474 597.481C885.946 635.6 899.869 678.392 905.523 720.116C906.842 729.859 904.089 738.478 901.182 747.806C895.049 767.494 886.606 785.578 875.665 803.659C863.346 822.827 846.171 843.592 820.439 850.12C801.542 854.91 787.07 851.362 769.384 845.393L761.058 841.418L746.306 830.746C730.736 819.496 719.465 804.586 709.058 789.786L692.779 761.44L676.494 724.184L669.294 723.679L667.227 723.962L666.659 723.647L666.115 721.24C663.028 719.433 657.8 719.928 654.134 719.82L641.666 687.177C642.751 685.439 643.203 683.758 644.175 682.035L649.245 672.152L656.49 657.289C656.388 655.412 656.153 655.094 654.967 653.492L657.55 650.694L655.76 624.657L659.031 541.586Z" fill="url(#paint13_linear_14_2736)"/>
<path d="M771.811 509.565L790.599 519.402L795.773 522.223C812.512 533.465 828.438 545.422 841.208 560.103C851.243 571.641 858.483 584.466 865.474 597.481C885.945 635.6 899.869 678.393 905.522 720.117C906.842 729.86 904.089 738.479 901.182 747.807C895.049 767.494 886.605 785.579 875.665 803.659L873.371 803.812C870.133 802.178 867.908 801.187 866.544 798.057C865.936 796.66 865.711 796.894 864.215 796.247C861.145 798.685 856.657 803.547 852.998 804.9C851.557 805.431 849.735 804.701 848.284 804.263L849.174 803.405L848.428 800.666C848.598 799.047 852.309 794.856 853.458 793.055C857.245 787.113 860.71 780.941 863.931 774.76C871.567 760.107 876.565 744.979 880.94 729.426C882.554 723.685 879.887 715.873 878.718 710.041C874.936 691.167 870.311 672.386 863.748 654.062C857.574 636.819 850.081 620.085 841.091 603.778C834.42 591.677 826.987 579.655 816.766 569.435C796.381 549.056 769.776 535.459 742.453 523.063L742.294 521.239L743.52 521.692C746.047 522.922 748.842 523.631 751.245 524.998C752.061 525.462 753.136 526.283 754.142 526.442L755.59 526.45L756.315 527.475C757.447 526.518 757.536 525.673 758.008 524.378C759.98 524.371 759.602 524.247 760.9 523.142L760.905 521.889L752.209 518.165C751.146 517.598 750.442 517.209 749.238 516.857C747.265 516.282 746.793 515.266 745.547 513.892L759.676 519.287L759.024 517.376L760.789 516.349L765.653 518.159C766.16 516.777 765.732 517.283 766.694 516.51L768.142 517.338C768.34 516.009 768.447 515.403 769.438 514.313C771.074 512.51 771.435 511.801 771.811 509.565Z" fill="url(#paint14_linear_14_2736)"/>
<path d="M759.677 519.287L759.024 517.376L760.789 516.349L765.653 518.159C772.837 521.872 780.509 525.063 787.455 529.066C797.651 534.942 806.728 542.247 815.211 549.816L814.077 552.231C806.258 545.146 797.797 540.854 788.456 535.537C778.846 530.063 769.611 524.356 759.677 519.287Z" fill="#9E023A"/>
<path d="M814.077 552.231L815.211 549.816C822.931 556.689 830.645 564.061 836.912 571.954C849.585 587.916 859.843 607.129 867.639 625.265C869.107 628.681 871.816 633.23 871.774 636.817C870.862 636.352 870.568 636.076 870.249 635.164L870.039 634.182C869.74 632.899 869.28 632.169 868.561 631.035L868.079 633.1L868.531 633.617C869.199 634.476 869.206 635.033 869.525 635.994C870.123 637.795 870.899 640.314 872.177 641.783L870.936 641.787C859.472 620.792 851.3 598.343 837.507 578.196C831.271 569.086 822.362 559.993 814.077 552.231Z" fill="#A50026"/>
<path d="M659.031 541.586L668.53 476.354L701.972 483.714L705.43 484.4L749.067 499.062L753.05 500.92L771.811 509.565C771.435 511.8 771.074 512.509 769.438 514.313C768.447 515.403 768.34 516.008 768.143 517.337L766.694 516.51C765.733 517.282 766.16 516.776 765.654 518.159L760.789 516.349L759.024 517.376L759.677 519.287L745.548 513.891C746.793 515.265 747.265 516.281 749.238 516.857C750.442 517.208 751.146 517.598 752.209 518.165L760.905 521.888L760.9 523.141C759.602 524.246 759.981 524.371 758.008 524.377C757.536 525.673 757.447 526.517 756.315 527.474L755.591 526.45L754.142 526.441C753.136 526.282 752.061 525.461 751.245 524.998C748.843 523.63 746.047 522.921 743.521 521.691L742.295 521.238L742.453 523.063L687.61 505.281L679.74 612.331C680.464 633.271 682.293 653.566 686.901 674.182C695.189 711.262 711.602 751.144 735.131 783.267C742.196 792.911 750.219 802.728 759.953 810.542C762.05 812.225 764.264 813.738 766.042 815.684L777.464 822.273C788.456 819.911 799.599 818.359 810.626 816.164C819.905 814.318 828.928 811.317 838.511 811.228L848.428 800.666L849.175 803.405L848.285 804.262C849.736 804.7 851.557 805.431 852.998 804.899C856.657 803.547 861.146 798.685 864.216 796.246C865.711 796.894 865.936 796.659 866.544 798.056C867.909 801.187 870.133 802.177 873.371 803.811L875.665 803.659C863.346 822.827 846.171 843.592 820.439 850.12C801.542 854.91 787.07 851.362 769.384 845.393L761.058 841.418L746.306 830.746C730.736 819.496 719.465 804.586 709.058 789.786L692.779 761.44L676.494 724.184L669.294 723.679L667.227 723.962L666.659 723.647L666.115 721.24C663.028 719.433 657.8 719.928 654.134 719.82L641.666 687.177C642.751 685.439 643.203 683.758 644.175 682.035L649.245 672.152L656.49 657.289C656.388 655.412 656.153 655.094 654.967 653.492L657.55 650.694L655.76 624.657L659.031 541.586Z" fill="#DD1051"/>
<path d="M674.378 530.099L679.606 492.917C696.375 496.114 712.931 501.687 729.04 506.782L745.527 513.731L745.547 513.892C746.793 515.265 747.265 516.281 749.238 516.857C750.441 517.208 751.146 517.598 752.209 518.165L760.905 521.888L760.9 523.141C759.602 524.246 759.98 524.371 758.008 524.377C757.536 525.673 757.447 526.517 756.314 527.474L755.59 526.45L754.142 526.441C753.136 526.282 752.06 525.461 751.245 524.998C748.842 523.63 746.046 522.921 743.52 521.691L742.294 521.238L742.452 523.063L687.61 505.281L679.739 612.331C678.276 608.308 678.884 603.602 677.801 599.42C677.559 598.484 677.317 597.75 677.505 596.78C677.992 594.266 678.622 591.836 678.622 589.266L678.531 584.038C678.274 581.4 678.714 578.837 678.531 576.217C678.239 572.079 679.378 568.188 679.556 564.061C679.68 561.199 678.877 557.819 679.514 555.071L680.041 553.135L680.286 552.072C680.728 550.226 680.79 549.111 680.404 547.244L680.286 546.698C681.514 544.691 682.093 542.359 681.487 540.083C681.171 538.896 680.404 538.633 679.319 538.015L676.022 540.178L675.448 540.487L674.964 541.324C674.301 542.401 674.188 542.956 674.207 544.154C674.257 547.055 674.02 548.66 673.033 551.244C672.089 553.721 673.177 556.686 672.069 559.514C671.389 561.248 672.069 565.606 672.069 567.574C672.069 571.092 672.264 573.687 671.103 576.877C669.068 582.465 673.313 591.249 670.621 596.837L670.084 580.37L670.801 563.949L668.688 564.884L667.793 560.6L668.27 550.863L670.255 534.728L673.533 537.522L674.378 530.099Z" fill="#EA3068"/>
<path d="M670.255 534.728L673.533 537.522L670.801 563.949L668.688 564.884L667.793 560.6L668.27 550.863L670.255 534.728Z" fill="#A50026"/>
<path d="M659.03 541.586L668.53 476.354L701.971 483.714L705.429 484.4L749.067 499.062L753.049 500.92L771.81 509.565C771.435 511.8 771.074 512.509 769.438 514.313C768.446 515.403 768.34 516.008 768.142 517.337L766.694 516.51C765.732 517.282 766.16 516.776 765.653 518.159L760.788 516.349L759.024 517.375L759.676 519.287L745.547 513.891L745.527 513.731L729.04 506.782C712.931 501.687 696.375 496.114 679.606 492.917L674.378 530.099L673.533 537.522L670.255 534.728L668.27 550.863L667.482 540.906L667.964 539.876L666.033 537.81L665.309 538.843L662.896 539.255C662.244 540.284 661.665 541.093 661.492 542.276L661.448 542.977L659.03 541.586Z" fill="url(#paint15_linear_14_2736)"/>
<path d="M671.452 523.567C674.26 525.711 673.899 527.093 674.378 530.099L673.533 537.522L670.255 534.728L671.452 523.567Z" fill="#A5023E"/>
<path d="M734.404 504.871C743.602 508.088 752.624 511.434 760.788 516.349L759.023 517.376L759.676 519.287L745.547 513.892L745.527 513.731L729.04 506.782C730.753 505.874 732.513 505.429 734.404 504.871Z" fill="#A50026"/>
<path d="M671.452 523.567L676.109 487.897C686.003 490.363 696.079 492.325 705.847 495.147C715.502 497.934 724.952 501.602 734.405 504.871C732.514 505.429 730.754 505.874 729.041 506.782C712.932 501.687 696.375 496.114 679.606 492.918L674.378 530.099C673.899 527.093 674.26 525.711 671.452 523.567Z" fill="#9E023A"/>
<path d="M682.071 692.959C683.762 699.03 685.398 705.196 687.677 711.127C688.347 712.871 691.133 718.08 690.856 719.49C694.566 728.297 697.413 737.34 701.497 746.037C709.098 762.232 720.36 779.468 731.819 793.918C734.021 796.693 736.862 798.988 739.168 801.678C744.502 807.903 751.008 816.467 759.452 819.97L760.658 820.381L761.852 821.414C762.89 822.356 763.167 822.421 764.521 822.861C767.915 823.962 769.055 825.012 772.98 824.923L773.944 823.683C772.894 821.454 771.359 820.929 769.112 819.756L765.112 816.664L766.042 815.684L777.464 822.273C788.456 819.911 799.599 818.359 810.626 816.164C819.906 814.319 828.928 811.317 838.511 811.228L848.428 800.666L849.175 803.405L848.285 804.262C849.736 804.7 851.557 805.431 852.998 804.899C856.657 803.547 861.146 798.685 864.216 796.246C865.711 796.894 865.936 796.659 866.544 798.056C867.909 801.187 870.133 802.177 873.371 803.811L875.665 803.659C863.346 822.828 846.171 843.592 820.439 850.12C801.542 854.91 787.07 851.362 769.384 845.393L761.058 841.418L746.306 830.746L749.307 830.234C751.475 830.175 752.229 830.251 754.278 829.586C756.186 824.18 739.949 814.642 736.946 809.249L736.258 807.973C733.581 805.016 730.479 802.069 728.438 798.731C727.911 797.874 727.469 797.152 726.804 796.361L715.515 780.693C715.097 779.878 715.226 779.622 714.459 778.922C711.602 776.31 710.974 773.683 708.799 770.857C706.552 767.94 705.879 764.74 704.246 761.582C701.151 755.602 697.352 750.057 694.588 743.895C691.659 737.354 689.877 730.53 687.845 723.761C683.811 715.265 681.648 706.011 679.216 697.093L682.071 692.959Z" fill="#A5023E"/>
<path d="M682.071 692.959C683.762 699.03 685.398 705.196 687.677 711.127C688.347 712.871 691.133 718.08 690.856 719.49L689.239 719.661L687.482 715.927C687.061 715.03 686.849 714.226 686.552 713.303L684.861 708.961C684.931 711.027 685.284 712.206 686.06 714.13L686.79 717.024L687.141 717.557C688.226 719.407 688.006 721.752 687.845 723.761C683.811 715.265 681.648 706.011 679.216 697.093L682.071 692.959Z" fill="#A50026"/>
<path d="M777.464 822.273C788.456 819.911 799.599 818.36 810.626 816.165C819.905 814.319 828.928 811.317 838.511 811.229C829.113 819.68 818.182 827.489 803.868 827.83C793.709 828.071 786.387 826.191 777.464 822.273Z" fill="white"/>
<path d="M659.031 541.586L661.448 542.977L661.493 542.276C661.666 541.093 662.244 540.284 662.897 539.256L665.309 538.843L666.033 537.81L667.964 539.876L667.482 540.907L668.27 550.864L667.793 560.6L668.688 564.884L670.802 563.949L670.085 580.37L669.049 589.336L669.519 619.998L671.59 649.263C674.208 664.057 676.877 678.623 682.071 692.96L679.216 697.093C681.648 706.011 683.811 715.265 687.845 723.761C689.877 730.53 691.659 737.355 694.588 743.895C697.352 750.057 701.151 755.602 704.246 761.582C705.879 764.74 706.552 767.94 708.799 770.857C710.974 773.683 711.602 776.31 714.459 778.922C715.226 779.622 715.097 779.878 715.515 780.693L726.804 796.361C727.468 797.153 727.911 797.874 728.437 798.732C730.479 802.07 733.581 805.016 736.258 807.973L736.946 809.249C739.949 814.643 756.186 824.18 754.278 829.586C752.229 830.251 751.475 830.175 749.307 830.234L746.306 830.746C730.736 819.496 719.465 804.586 709.058 789.787L692.779 761.44L676.494 724.185L669.294 723.679L667.227 723.962L666.659 723.647L666.115 721.24C663.028 719.433 657.8 719.928 654.134 719.82L641.666 687.177C642.751 685.439 643.203 683.758 644.175 682.036L649.245 672.153L656.49 657.29C656.388 655.412 656.153 655.095 654.967 653.492L657.55 650.694L655.76 624.657L659.031 541.586Z" fill="url(#paint16_linear_14_2736)"/>
<path d="M667.793 560.6L668.688 564.884L670.802 563.949L670.085 580.37L669.049 589.336C668.508 587.814 668.399 586.307 668.206 584.732C667.339 584.667 667.017 584.959 666.261 585.293L667.793 560.6Z" fill="#9E023A"/>
<path d="M669.519 619.998L671.59 649.263C671.145 650.842 670.952 652.349 669.494 653.494L666.221 621.511L669.519 619.998Z" fill="#9E023A"/>
<path d="M666.261 585.293C667.017 584.959 667.338 584.667 668.206 584.732C668.399 586.307 668.508 587.814 669.049 589.336L669.519 619.998L666.221 621.512L666.261 585.293Z" fill="#A50026"/>
<path d="M671.59 649.263C674.207 664.057 676.877 678.623 682.07 692.96L679.215 697.094C674.61 683.102 670.883 668.01 669.494 653.494C670.952 652.349 671.145 650.842 671.59 649.263Z" fill="#A5023E"/>
<path d="M654.967 653.492L657.55 650.694L670.431 705.7C668.265 704.555 667.168 703.164 666.491 701.128L665.314 698.001C664.486 695.927 663.846 693.552 663.383 691.387C663.003 689.609 662.59 688.04 661.396 686.508L660.973 686.017C661.075 684.283 661.238 682.755 660.496 681.102C659.231 678.291 657.585 675.349 657.305 672.294C656.865 667.488 657.78 662.939 656.692 658.113L656.49 657.289C656.388 655.412 656.153 655.094 654.967 653.492Z" fill="#0D0616"/>
<path d="M649.245 672.153L656.49 657.29L656.692 658.113C657.78 662.939 656.865 667.488 657.305 672.295C657.585 675.349 659.231 678.291 660.496 681.102C661.238 682.755 661.075 684.283 660.973 686.017L661.396 686.508C662.59 688.041 663.003 689.609 663.384 691.387C663.846 693.552 664.486 695.927 665.314 698.002L666.491 701.128C667.168 703.164 668.265 704.555 670.431 705.7C672.198 710.388 673.325 715.811 675.592 720.296C672.7 720.22 669.044 720.491 666.377 719.505C665.843 712.562 662.716 708.487 660.051 702.262C657.827 697.066 656.584 691.795 654.7 686.544C652.871 681.434 650.424 677.618 649.245 672.153Z" fill="#211E2D"/>
<path d="M641.666 687.177C642.751 685.439 643.203 683.759 644.175 682.036L649.245 672.153C650.424 677.618 652.871 681.434 654.7 686.544C656.584 691.796 657.827 697.066 660.052 702.262C662.716 708.488 665.843 712.562 666.377 719.505C669.044 720.491 672.7 720.22 675.592 720.296L676.494 724.185L669.294 723.679L667.227 723.963L666.659 723.647L666.115 721.24C663.028 719.433 657.8 719.928 654.134 719.82L641.666 687.177Z" fill="#4E4F5F"/>
</g>
<defs>
<linearGradient id="paint0_linear_14_2736" x1="760.418" y1="844.767" x2="727.138" y2="863.099" gradientUnits="userSpaceOnUse">
<stop stop-color="#000004"/>
<stop offset="1" stop-color="#33353F"/>
</linearGradient>
<linearGradient id="paint1_linear_14_2736" x1="766.212" y1="848.075" x2="741.592" y2="856.363" gradientUnits="userSpaceOnUse">
<stop stop-color="#1F1829"/>
<stop offset="1" stop-color="#494752"/>
</linearGradient>
<linearGradient id="paint2_linear_14_2736" x1="649.378" y1="643.849" x2="533.326" y2="542.448" gradientUnits="userSpaceOnUse">
<stop stop-color="#16101E"/>
<stop offset="1" stop-color="#272A3F"/>
</linearGradient>
<linearGradient id="paint3_linear_14_2736" x1="655.172" y1="638.062" x2="644.889" y2="641.274" gradientUnits="userSpaceOnUse">
<stop stop-color="#190D21"/>
<stop offset="1" stop-color="#262735"/>
</linearGradient>
<linearGradient id="paint4_linear_14_2736" x1="924.563" y1="999.383" x2="781.698" y2="1018.8" gradientUnits="userSpaceOnUse">
<stop/>
<stop offset="1" stop-color="#181627"/>
</linearGradient>
<linearGradient id="paint5_linear_14_2736" x1="797.11" y1="328.829" x2="771.216" y2="282.163" gradientUnits="userSpaceOnUse">
<stop stop-color="#26283E"/>
<stop offset="1" stop-color="#374053"/>
</linearGradient>
<linearGradient id="paint6_linear_14_2736" x1="836.697" y1="396.631" x2="786.138" y2="311.594" gradientUnits="userSpaceOnUse">
<stop stop-color="#120B1D"/>
<stop offset="1" stop-color="#2E364B"/>
</linearGradient>
<linearGradient id="paint7_linear_14_2736" x1="1149.54" y1="436.318" x2="1106.21" y2="210.484" gradientUnits="userSpaceOnUse">
<stop stop-color="#07000B"/>
<stop offset="1" stop-color="#26283C"/>
</linearGradient>
<linearGradient id="paint8_linear_14_2736" x1="1173.68" y1="368.517" x2="1171.73" y2="238.797" gradientUnits="userSpaceOnUse">
<stop stop-color="#0C0111"/>
<stop offset="1" stop-color="#262A3D"/>
</linearGradient>
<linearGradient id="paint9_linear_14_2736" x1="1250.92" y1="585.145" x2="1303.06" y2="556.086" gradientUnits="userSpaceOnUse">
<stop/>
<stop offset="1" stop-color="#2F2E37"/>
</linearGradient>
<linearGradient id="paint10_linear_14_2736" x1="862.767" y1="498.328" x2="807.775" y2="398.803" gradientUnits="userSpaceOnUse">
<stop stop-color="#1C1626"/>
<stop offset="1" stop-color="#4C465A"/>
</linearGradient>
<linearGradient id="paint11_linear_14_2736" x1="704.416" y1="478.484" x2="710.914" y2="439.725" gradientUnits="userSpaceOnUse">
<stop stop-color="#53485A"/>
<stop offset="1" stop-color="#5C5C70"/>
</linearGradient>
<linearGradient id="paint12_linear_14_2736" x1="991.186" y1="761.258" x2="1122.67" y2="486.176" gradientUnits="userSpaceOnUse">
<stop stop-color="white"/>
<stop offset="1" stop-color="white"/>
</linearGradient>
<linearGradient id="paint13_linear_14_2736" x1="837.663" y1="809.213" x2="674.503" y2="516.009" gradientUnits="userSpaceOnUse">
<stop stop-color="white"/>
<stop offset="1" stop-color="#FFFFFE"/>
</linearGradient>
<linearGradient id="paint14_linear_14_2736" x1="904.286" y1="727.36" x2="749.518" y2="720.966" gradientUnits="userSpaceOnUse">
<stop stop-color="#CA0032"/>
<stop offset="1" stop-color="#EF327B"/>
</linearGradient>
<linearGradient id="paint15_linear_14_2736" x1="768.142" y1="516.518" x2="724.703" y2="445.435" gradientUnits="userSpaceOnUse">
<stop stop-color="#ED3172"/>
<stop offset="1" stop-color="#FC58A1"/>
</linearGradient>
<linearGradient id="paint16_linear_14_2736" x1="744.969" y1="827.404" x2="855.334" y2="686.899" gradientUnits="userSpaceOnUse">
<stop stop-color="#D0003A"/>
<stop offset="1" stop-color="#F0458B"/>
</linearGradient>
<clipPath id="clip0_14_2736">
<rect width="1920" height="1080" fill="white"/>
</clipPath>
</defs>
</svg>
