<?xml version="1.0" encoding="utf-8" ?>
<svg xmlns="http://www.w3.org/2000/svg" xmlns:xlink="http://www.w3.org/1999/xlink" width="800" height="600">
	<path fill="white" d="M0 0.195312C1.7549 -0.189278 3.73802 -0.00294089 5.54009 -0.00262959C8.7651 -0.00207249 11.9901 -0.00273718 15.2151 -0.00307689C27.6824 -0.00439015 40.1498 -0.00484362 52.6171 -0.00545381C102.37 -0.00788885 152.123 -0.0100449 201.875 -0.0109017C401.25 -0.0143352 600.625 -0.00786761 800 0L800 599.805C798.245 600.189 796.262 600.003 794.46 600.003C791.235 600.002 788.01 600.003 784.785 600.003C772.318 600.004 759.85 600.005 747.383 600.005C697.63 600.008 647.877 600.01 598.125 600.011C398.75 600.014 199.375 600.008 -0 600L0 0.195312Z"/>
	<path fill="#423F4C" d="M327.557 422.942C328.036 423.278 328.983 423.741 329.16 424.269C329.301 424.688 329.279 424.586 329.562 424.964C330.1 425.682 330.438 426.968 331.055 427.543C331.604 428.056 331.649 427.698 332.08 428.598C332.572 429.622 332.4 430.692 333.103 431.629C333.495 432.154 333.338 431.852 333.473 432.388C333.669 433.169 334.271 433.685 334.659 434.375C335.561 435.978 336.047 437.61 337.113 439.171C337.657 439.967 338.043 440.934 338.477 441.797L338.946 441.443L340.328 444.766L340.043 445.898L340.82 446.424L341.406 447.656C341.797 448.159 342.026 448.217 342.222 448.867L342.379 449.414L342.773 449.609L343.213 448.59L343.359 448.242C343.821 447.241 343.674 446.105 343.652 445.02C342.989 445.274 342.732 445.478 342.31 446.069L342.09 446.387L341.215 446.289C341.909 445.533 342.778 444.344 343.703 443.893L344.065 443.729L344.173 444.872L344.288 445.529L344.254 446.018C344.071 448.499 342.988 449.98 343.616 452.517L343.777 453.624L327.557 422.942Z"/>
	<path fill="#5B5E6E" d="M298.856 351.921L301.509 352.408C302.938 354.441 303.435 356.956 304.155 359.306L304.515 362.596C304.762 364.751 305.969 366.342 306.852 368.248C307.074 368.727 307.047 369.048 307.058 369.553C307.079 370.57 306.986 371.869 307.339 372.828C307.732 373.894 308.392 374.635 308.712 375.781C310.25 381.289 313.166 386.427 314.609 391.992C314.973 393.397 315.102 394.321 314.958 395.781C308.196 381.97 303.681 366.503 298.856 351.921Z"/>
	<path fill="#73798A" d="M313.771 206.212L317.484 205.417C315.862 207.796 314.072 210.055 312.39 212.392C311.295 213.913 310.361 215.645 309.067 216.992L309.57 217.472L311.663 217.107L312.114 218.458L309.712 219.099C308.348 219.443 307.266 219.434 306.449 220.703C305.655 221.938 304.344 224.368 304.025 225.766C303.739 227.025 302.8 228.442 302.259 229.642C300.123 231.067 299.392 234.136 298.246 236.328C298.367 237.672 298.606 238.569 298.045 239.842L297.754 239.842L297.461 239.254L296.285 239.258L296.223 239.481C295.856 240.587 295.511 241.316 294.484 241.904C295.827 236.955 298.367 231.76 300.696 227.205C304.528 219.712 308.597 212.866 313.771 206.212Z"/>
	<path fill="#505462" d="M304.155 359.306L304.357 359.63C306.121 362.545 306.387 366.716 309.57 368.489L310.892 368.401L310.888 369.075L309.539 369.727C308.832 372.025 310.58 375.142 311.436 377.344C312.399 379.82 313.077 382.395 314.071 384.875L317.773 394.73L319.139 398.049C320.319 401.538 321.853 405.282 323.601 408.52C323.984 409.229 324.117 409.747 324.224 410.547C323.737 411.938 323.95 412.293 324.413 413.714C324.783 414.848 324.82 415.692 324.718 416.875C320.761 410.446 317.922 402.731 314.958 395.781C315.102 394.321 314.973 393.397 314.609 391.992C313.166 386.427 310.25 381.289 308.712 375.781C308.392 374.635 307.732 373.894 307.339 372.828C306.986 371.869 307.079 370.57 307.058 369.553C307.047 369.048 307.074 368.727 306.852 368.248C305.969 366.342 304.762 364.751 304.515 362.596L304.155 359.306Z"/>
	<path fill="#717988" d="M313.771 206.212L319.2 199.196C335.884 179.331 362.634 162.821 388.836 160.513C386.569 162.424 384.676 162.009 382.065 162.634C380.977 162.894 379.961 163.476 378.879 163.788C373.394 165.368 368.12 166.87 362.893 169.19C361.062 170.002 358.912 170.635 357.227 171.708C356.362 172.259 355.998 173.049 355.273 173.637L354.987 173.745C354.468 173.948 354.126 174.453 353.766 174.867C351.686 176.05 349.891 177.581 347.865 178.809C344.063 181.115 340.429 183.128 336.914 185.936C334.119 188.169 331.558 190.803 328.899 193.207C324.969 196.762 320.407 200.986 317.484 205.417L313.771 206.212Z"/>
	<path fill="#2D2D37" d="M324.718 416.875C324.82 415.692 324.783 414.848 324.413 413.714C323.95 412.293 323.737 411.938 324.224 410.547C324.117 409.747 323.984 409.229 323.601 408.52C321.853 405.282 320.319 401.538 319.139 398.049L317.773 394.73L314.071 384.875C313.077 382.395 312.399 379.82 311.436 377.344C310.58 375.142 308.832 372.025 309.539 369.727L310.888 369.075C311.628 370.674 312.399 372.245 313.348 373.731C314.674 375.806 316.061 377.846 317.414 379.904C317.846 380.56 318.811 381.69 318.902 382.439L318.16 383.203L318.247 383.534C318.479 384.458 318.573 385.19 318.555 386.137C319.099 386.957 318.678 387.663 319.114 388.32C319.501 388.901 319.702 389.577 319.913 390.236L321.871 395.776C323.11 398.874 323.626 402.458 324.773 405.666C325.348 407.274 326.903 409.042 326.754 410.742C326.324 411.457 325.987 411.615 325.193 411.816C325.195 412.747 325.404 414.424 325.95 415.077C326.368 415.578 326.547 415.996 326.758 416.605C327.372 416.809 327.37 416.841 327.734 417.383L328.027 416.895L327.881 416.655C327.422 415.878 327.258 415.452 327.246 414.551L326.562 414.258L326.758 413.09C328.334 415.097 329.173 417.617 330.133 419.956C331.686 423.74 333.423 428.109 335.355 431.641C335.984 432.79 335.844 433.39 336.916 434.277L336.55 434.57L336.805 434.727C338.606 435.973 339.898 439.885 340.186 442.016C340.311 442.942 340.361 443.833 340.328 444.766L338.946 441.443L338.477 441.797C338.043 440.934 337.657 439.967 337.113 439.171C336.047 437.61 335.561 435.978 334.659 434.375C334.271 433.685 333.669 433.169 333.473 432.388C333.338 431.852 333.495 432.154 333.103 431.629C332.4 430.692 332.572 429.622 332.08 428.598C331.649 427.698 331.604 428.056 331.055 427.543C330.438 426.968 330.1 425.682 329.562 424.964C329.279 424.586 329.301 424.688 329.16 424.269C328.983 423.741 328.036 423.278 327.557 422.942C326.511 422.093 325.271 418.306 324.718 416.875Z"/>
	<path fill="#717988" d="M294.484 241.904C295.511 241.316 295.856 240.587 296.223 239.481L296.285 239.258L297.461 239.254L297.754 239.842L298.045 239.842C298.606 238.569 298.367 237.672 298.246 236.328C299.392 234.136 300.123 231.067 302.259 229.642L302.768 230.471C302.307 232.689 301.286 233.951 300.127 235.829C299.856 236.267 299.087 237.243 298.978 237.695C298.844 238.254 299.26 239.195 299.533 239.648L299.1 240.063C297.713 241.569 297.509 247.109 297.202 249.255L295.778 256.645L294.676 255.678C294.383 258.9 294.102 262.178 293.115 265.268C292.456 267.328 292.236 269.676 291.805 271.81L291.993 272.121L291.137 276.455L291.863 280.548L291.018 284.154C290.402 286.285 290.103 288.325 289.88 290.529C289.062 293.358 288.953 296.742 287.696 299.342C285.703 279.662 288.026 260.556 294.484 241.904Z"/>
	<path fill="#4A4E5F" d="M291.137 276.455C290.76 278.637 290.069 280.544 289.243 282.593C288.843 278.523 289.894 274.314 290.668 270.337L291.805 271.81L291.993 272.121L291.137 276.455Z"/>
	<path fill="#505462" d="M290.668 270.337C291.75 265.369 292.452 260.32 293.546 255.339C294.153 252.574 294.679 249.82 296.024 247.308L294.676 255.678C294.383 258.9 294.102 262.178 293.115 265.268C292.456 267.328 292.236 269.676 291.805 271.81L290.668 270.337Z"/>
	<path fill="#505462" d="M289.88 290.529C290.103 288.325 290.402 286.285 291.018 284.154C290.786 287.466 291.692 290.292 292.011 293.534C292.677 300.31 293.137 307.128 294.162 313.867C294.916 318.818 296.265 323.668 297.236 328.577C297.704 330.941 297.727 334.054 298.8 336.133C299.319 337.137 299.477 338.154 299.667 339.258L300.001 339.258C300.551 338.285 300.876 337.42 301.138 336.334L301.877 336.719L301.9 337.773L302.001 345.253L302.332 345.54C302.606 346.867 303.152 348.823 302.363 350.059L302.063 350.49L301.509 352.408L298.856 351.921L296.557 343.129C295.392 340.473 294.837 337.144 294.119 334.329C291.182 322.799 289.01 311.169 287.696 299.342C288.953 296.742 289.062 293.358 289.88 290.529Z"/>
	<path fill="#4A4E5F" d="M296.557 343.129C296.585 342.444 296.866 340.816 296.676 340.234C296.237 338.896 295.79 338.011 295.895 336.523C296.164 336.879 296.3 337.092 296.411 337.537C296.543 338.062 296.358 337.783 296.827 338.184L297.093 337.238C297.621 338.815 298.154 340.336 298.369 341.992L298.828 342.25L300.195 340.841L301.01 341.806C301.552 340.8 301.668 338.932 301.9 337.773L302.001 345.253L302.332 345.54C302.606 346.867 303.152 348.823 302.363 350.059L302.063 350.49L301.509 352.408L298.856 351.921L296.557 343.129Z"/>
	<path fill="#423F4C" d="M301.9 337.773L302.001 345.253L302.332 345.54C302.606 346.867 303.152 348.823 302.363 350.059L302.063 350.49L301.769 349.996C300.135 347.128 300.206 344.921 301.01 341.806C301.552 340.8 301.668 338.932 301.9 337.773Z"/>
	<path fill="#5B5E6E" d="M289.88 290.529C289.944 293.328 289.766 296.308 290.039 299.077C290.453 303.276 291.639 307.348 292.221 311.521C292.475 313.347 292.408 315.201 292.663 316.992C293.042 319.646 293.784 322.286 294.307 324.918C295.124 329.026 295.825 333.24 297.093 337.238L296.827 338.184C296.358 337.783 296.543 338.062 296.411 337.537C296.3 337.092 296.164 336.879 295.895 336.523C295.79 338.011 296.237 338.896 296.676 340.234C296.866 340.816 296.585 342.444 296.557 343.129C295.392 340.473 294.837 337.144 294.119 334.329C291.182 322.799 289.01 311.169 287.696 299.342C288.953 296.742 289.062 293.358 289.88 290.529Z"/>
	<path fill="#39394E" d="M302.768 230.471L303.32 229.346L303.734 229.492L303.877 229.966C304.188 230.895 304.991 231.708 305.616 232.452L307.969 235.998L307.78 236.316C307.213 235.865 306.789 235.48 306.051 235.352L305.991 235.582C305.382 237.42 303.701 238.613 303.32 240.625L303.707 241.016L303.524 241.443C303.31 241.978 303.235 242.41 303.123 242.967L303.022 243.407C302.449 246.25 301.865 249.299 300.96 252.1C299.328 257.151 297.039 261.113 297.07 266.605C296.219 267.886 296.242 270.852 296.036 272.476C295.6 275.916 294.33 279.558 294.384 283.008C294.469 288.501 294.91 294.135 295.246 299.628C295.323 300.896 295.982 303.03 295.508 304.105C296.024 304.882 295.693 305.061 295.898 305.859C295.909 305.899 296.321 306.387 296.346 306.445C296.806 307.518 296.724 309.864 296.922 311.12C297.176 312.736 296.658 315.16 297.07 316.605C297.341 317.557 297.846 317.192 297.852 318.559L298.321 318.752L298.713 320.576C299.093 324.181 299.843 327.736 300.152 331.348C300.239 332.373 299.958 335.168 300.3 335.938C300.379 336.114 300.59 336.193 300.735 336.321L301.138 336.334C300.876 337.42 300.551 338.285 300.001 339.258L299.667 339.258C299.477 338.154 299.319 337.137 298.8 336.133C297.727 334.054 297.704 330.941 297.236 328.577C296.265 323.668 294.916 318.818 294.162 313.867C293.137 307.128 292.677 300.31 292.011 293.534C291.692 290.292 290.786 287.466 291.018 284.154L291.863 280.548L291.137 276.455L291.993 272.121L291.805 271.81C292.236 269.676 292.456 267.328 293.115 265.268C294.102 262.178 294.383 258.9 294.676 255.678L295.778 256.645L297.202 249.255C297.509 247.109 297.713 241.569 299.1 240.063L299.533 239.648C299.26 239.195 298.844 238.254 298.978 237.695C299.087 237.243 299.856 236.267 300.127 235.829C301.286 233.951 302.307 232.689 302.768 230.471Z"/>
	<path fill="#6B6F7F" d="M291.993 272.121L292.559 272.092L292.479 272.656L293.083 274.268L291.863 280.548L291.137 276.455L291.993 272.121Z"/>
	<path fill="#73798A" d="M291.805 271.81C292.236 269.676 292.456 267.328 293.115 265.268C294.102 262.178 294.383 258.9 294.676 255.678L295.778 256.645L293.083 274.268L292.479 272.656L292.559 272.092L291.993 272.121L291.805 271.81Z"/>
	<path fill="#4A4E5F" d="M302.768 230.471L303.32 229.346L303.734 229.492L303.877 229.966C304.188 230.895 304.991 231.708 305.616 232.452L300.586 243.916L300.293 241.99C299.755 242.268 299.432 242.526 299.02 242.969L298.826 243.748L298.715 244.161C298.524 245.111 298.818 246.183 298.629 247.07C298.521 247.577 297.53 248.745 297.202 249.255C297.509 247.109 297.713 241.569 299.1 240.063L299.533 239.648C299.26 239.195 298.844 238.254 298.978 237.695C299.087 237.243 299.856 236.267 300.127 235.829C301.286 233.951 302.307 232.689 302.768 230.471Z"/>
	<path fill="#5B5E6E" d="M396.9 159.605L394.979 162.478L395.686 162.905C394.936 164.101 393.949 165.026 392.957 166.017C391.19 167.76 389.011 169.562 387.457 171.481L386.485 170.776L388.767 168.517L388.477 167.737C383.724 168.282 379.199 169.537 374.608 170.805C367.179 172.856 359.673 175.543 352.955 179.374C348.203 182.084 344.126 185.27 339.787 188.562C334.254 192.76 329.067 196.985 324.703 202.465C323.52 203.95 322.297 206.208 320.703 207.223L319.723 207.227C319.261 207.92 319.537 208.471 319.171 209.021C318.858 209.49 319.003 209.266 318.736 209.793C317.976 211.294 315.564 214.276 314.318 215.441L316.952 215.584C315.12 216.277 313.559 216.555 311.651 216.886L311.663 217.107L309.57 217.472L309.067 216.992C310.361 215.645 311.295 213.913 312.39 212.392C314.072 210.055 315.862 207.796 317.484 205.417C320.407 200.986 324.969 196.762 328.899 193.207C331.558 190.803 334.119 188.169 336.914 185.936C340.429 183.128 344.063 181.115 347.865 178.809C349.891 177.581 351.686 176.05 353.766 174.867C354.126 174.453 354.468 173.948 354.987 173.745L355.273 173.637C355.998 173.049 356.362 172.259 357.227 171.708C358.912 170.635 361.062 170.002 362.893 169.19C368.12 166.87 373.394 165.368 378.879 163.788C379.961 163.476 380.977 162.894 382.065 162.634C384.676 162.009 386.569 162.424 388.836 160.513L396.9 159.605Z"/>
	<path fill="#73798A" d="M396.9 159.605L394.979 162.478L395.686 162.905C394.936 164.101 393.949 165.026 392.957 166.017C391.19 167.76 389.011 169.562 387.457 171.481L386.485 170.776L388.767 168.517C390.101 167.7 390.83 166.538 391.702 165.284L394.012 162.426C384.846 163.796 375.98 165.264 367.337 168.802C364.538 169.948 361.731 171.122 358.993 172.409C357.295 173.208 355.542 174.292 353.766 174.867C354.126 174.453 354.468 173.948 354.987 173.745L355.273 173.637C355.998 173.049 356.362 172.259 357.227 171.708C358.912 170.635 361.062 170.002 362.893 169.19C368.12 166.87 373.394 165.368 378.879 163.788C379.961 163.476 380.977 162.894 382.065 162.634C384.676 162.009 386.569 162.424 388.836 160.513L396.9 159.605Z"/>
	<path fill="#505462" d="M311.651 216.886L310.803 216.363C310.848 216.118 310.823 215.848 310.939 215.627C311.281 214.977 312.748 214.28 313.307 213.625C314.771 211.91 316.24 209.763 317.387 207.812L317.848 207.031C323.793 198.836 331.35 192.356 339.456 186.457C342.999 183.878 346.356 181.07 350.079 178.739C357.31 174.211 365.645 171.084 373.724 168.507C376.286 167.69 378.827 166.655 381.45 166.052C384.582 165.332 387.847 165.11 391.016 164.53L391.702 165.284C390.83 166.538 390.101 167.7 388.767 168.517L388.477 167.737C383.724 168.282 379.199 169.537 374.608 170.805C367.179 172.856 359.673 175.543 352.955 179.374C348.203 182.084 344.126 185.27 339.787 188.562C334.254 192.76 329.067 196.985 324.703 202.465C323.52 203.95 322.297 206.208 320.703 207.223L319.723 207.227C319.261 207.92 319.537 208.471 319.171 209.021C318.858 209.49 319.003 209.266 318.736 209.793C317.976 211.294 315.564 214.276 314.318 215.441L316.952 215.584C315.12 216.277 313.559 216.555 311.651 216.886Z"/>
	<defs>
		<linearGradient id="gradient_0" gradientUnits="userSpaceOnUse" x1="336.133" y1="401.758" x2="319.159" y2="412.41">
			<stop offset="0" stop-color="#070010"/>
			<stop offset="1" stop-color="#30313F"/>
		</linearGradient>
	</defs>
	<path fill="url(#gradient_0)" d="M318.902 382.439C322.266 387.687 325.66 391.812 330.236 396.055C330.664 396.452 333.623 398.943 333.656 399.282C333.84 400.875 334.122 401.236 334.961 402.535L335.254 401.27C335.653 401.327 335.879 401.238 336.121 401.599C336.419 402.047 336.412 402.418 336.523 402.926C336.666 403.575 337.008 404.204 337.268 404.81C337.557 405.483 337.459 406.197 337.751 406.877C338.134 407.772 337.769 408.666 338.281 409.57L338.09 410.742L338.672 411.133L338.672 411.719L338.926 412.036C341.631 415.667 342.125 422.637 342.913 427.007C343.292 429.106 344.014 431.356 343.806 433.496C343.892 436.852 344.485 440.398 344.065 443.729L343.703 443.893C342.778 444.344 341.909 445.533 341.215 446.289L342.09 446.387L342.31 446.069C342.732 445.478 342.989 445.274 343.652 445.02C343.674 446.105 343.821 447.241 343.359 448.242L343.213 448.59L342.773 449.609L342.379 449.414L342.222 448.867C342.026 448.217 341.797 448.159 341.406 447.656L340.82 446.424L340.043 445.898L340.328 444.766C340.361 443.833 340.311 442.942 340.186 442.016C339.898 439.885 338.606 435.973 336.805 434.727L336.55 434.57L336.916 434.277C335.844 433.39 335.984 432.79 335.355 431.641C333.423 428.109 331.686 423.74 330.133 419.956C329.173 417.617 328.334 415.097 326.758 413.09L326.562 414.258L327.246 414.551C327.258 415.452 327.422 415.878 327.881 416.655L328.027 416.895L327.734 417.383C327.37 416.841 327.372 416.809 326.758 416.605C326.547 415.996 326.368 415.578 325.95 415.077C325.404 414.424 325.195 412.747 325.193 411.816C325.987 411.615 326.324 411.457 326.754 410.742C326.903 409.042 325.348 407.274 324.773 405.666C323.626 402.458 323.11 398.874 321.871 395.776L319.913 390.236C319.702 389.577 319.501 388.901 319.114 388.32C318.678 387.663 319.099 386.957 318.555 386.137C318.573 385.19 318.479 384.458 318.247 383.534L318.16 383.203L318.902 382.439Z"/>
	<path fill="#0A070F" d="M330.668 413.086L332.031 413.281C332.641 413.891 333.036 414.607 333.496 415.332C333.149 415.91 333.016 416.354 332.812 416.992L332.227 418.065C331.554 416.419 331.092 414.81 330.668 413.086Z"/>
	<path fill="#5B5E6E" d="M401.436 159.622C411.23 160.426 420.108 161.836 429.486 164.936C433.209 166.167 437.33 167.594 440.654 169.7C451.616 174.272 462.109 182.691 470.512 190.95C473.727 194.109 477.019 197.373 479.563 201.118C483.036 204.872 487.071 209.931 489.337 214.5L486.02 213.159L487.452 216.211L487.107 216.652C485.864 216.683 484.84 216.744 483.662 216.275C483.907 215.843 483.957 215.7 484.029 215.234L481.545 212.092C479.722 210.871 479.724 209.995 477.293 209.862C476.92 209.332 476.551 208.739 476.092 208.28L475.781 208.004C475.286 207.558 474.848 207.061 474.183 206.894C473.754 206.786 473.604 206.713 473.246 206.445L473.635 206.152C472.897 205.339 472.767 205.108 471.68 204.793C470.449 203.475 468.723 202.19 468.559 200.391C466.797 199.876 465.069 197.078 463.694 195.789C461.088 193.347 457.936 192.177 455.64 189.279L455.471 189.061C454.713 188.882 454.108 188.339 453.488 187.891L453.324 186.719C451.705 186.322 450.604 184.713 449.221 183.982C447.711 183.185 446.889 182.086 446.008 180.609C443.581 179.016 440.423 177.236 437.755 176.141C435.835 175.354 433.662 175.186 431.681 174.515C427.86 173.219 423.831 171.075 419.961 170.176C417.137 169.52 414.39 169.881 411.655 168.673C410.783 168.318 410.056 168.334 409.136 168.34L408.491 168.028L407.789 168.956L404.568 165.604L403.183 164.234C402.62 163.748 402.268 163.338 401.845 162.736L402.118 162.342C402.035 161.373 401.747 160.539 401.436 159.622Z"/>
	<path fill="#4A4E5F" d="M405.998 165.276C407.798 164.6 410.404 165.429 412.326 165.736C415.486 166.241 418.852 166.525 421.94 167.341C425.123 168.183 428.159 169.631 431.292 170.65C433.841 171.48 436.596 172.099 439.02 173.242C441.094 174.22 443.032 175.478 445.059 176.547C447.593 177.884 450.25 179.058 452.63 180.664C457.875 184.201 462.427 188.482 467.109 192.696C471.507 196.655 477.947 201.527 480.461 206.941L478.127 205.076C477.872 203.645 475.525 202.535 474.804 201.168L474.611 200.779C473.097 200.502 468.841 195.388 467.466 194.119C464.661 191.53 461.52 189.249 458.553 186.849C456.319 185.042 454.063 183.089 451.632 181.549C449.553 180.233 447.215 179.288 445.019 178.182C442.101 176.712 439.116 174.987 436.042 173.873C433.862 173.083 431.58 172.655 429.365 171.975C423.236 170.094 418.206 168.42 411.655 168.673C410.783 168.318 410.056 168.334 409.136 168.34L408.491 168.028L405.998 165.276Z"/>
	<path fill="#6B6F7F" d="M401.436 159.622C411.23 160.426 420.108 161.836 429.486 164.936C433.209 166.167 437.33 167.594 440.654 169.7C451.616 174.272 462.109 182.691 470.512 190.95C473.727 194.109 477.019 197.373 479.563 201.118C478.774 200.935 477.799 200.662 477.148 200.165C474.964 198.497 473.316 195.893 471.289 193.997C466.528 189.545 461.55 185.48 456.252 181.684C454.219 180.227 452.291 178.635 450.098 177.418C446.255 175.284 442.27 172.926 438.237 171.201C436.189 170.324 433.971 169.772 431.885 168.962C429.957 168.214 428.202 167.18 426.195 166.609C420.756 165.062 414.524 164.358 408.909 163.679C407.239 163.478 405.292 162.386 403.722 162.838L405.998 165.276L408.491 168.028L407.789 168.956L404.568 165.604L403.183 164.234C402.62 163.748 402.268 163.338 401.845 162.736L402.118 162.342C402.035 161.373 401.747 160.539 401.436 159.622Z"/>
	<path fill="#717988" d="M401.436 159.622C411.23 160.426 420.108 161.836 429.486 164.936C433.209 166.167 437.33 167.594 440.654 169.7C438.582 169.472 436.145 169.154 434.18 168.427C432.317 167.738 430.702 166.607 428.749 166.141C424.294 165.078 419.746 163.761 415.239 162.963C413.587 162.67 411.83 162.962 410.201 162.559C408.145 162.051 405.876 162.394 403.97 161.462C403.548 161.255 403.379 161.411 402.934 161.523L402.926 162.305L403.722 162.838L405.998 165.276L408.491 168.028L407.789 168.956L404.568 165.604L403.183 164.234C402.62 163.748 402.268 163.338 401.845 162.736L402.118 162.342C402.035 161.373 401.747 160.539 401.436 159.622Z"/>
	<path fill="#423F4C" d="M411.655 168.673C418.206 168.42 423.236 170.094 429.365 171.975C431.58 172.655 433.862 173.083 436.042 173.873C439.116 174.987 442.101 176.712 445.019 178.182C447.215 179.288 449.553 180.233 451.632 181.549C454.063 183.089 456.319 185.042 458.553 186.849C461.52 189.249 464.661 191.53 467.466 194.119C468.841 195.388 473.097 200.502 474.611 200.779L474.804 201.168C475.525 202.535 477.872 203.645 478.127 205.076L480.461 206.941C482.505 208.929 484.279 210.898 486.02 213.159L487.452 216.211L487.107 216.652C485.864 216.683 484.84 216.744 483.662 216.275C483.907 215.843 483.957 215.7 484.029 215.234L481.545 212.092C479.722 210.871 479.724 209.995 477.293 209.862C476.92 209.332 476.551 208.739 476.092 208.28L475.781 208.004C475.286 207.558 474.848 207.061 474.183 206.894C473.754 206.786 473.604 206.713 473.246 206.445L473.635 206.152C472.897 205.339 472.767 205.108 471.68 204.793C470.449 203.475 468.723 202.19 468.559 200.391C466.797 199.876 465.069 197.078 463.694 195.789C461.088 193.347 457.936 192.177 455.64 189.279L455.471 189.061C454.713 188.882 454.108 188.339 453.488 187.891L453.324 186.719C451.705 186.322 450.604 184.713 449.221 183.982C447.711 183.185 446.889 182.086 446.008 180.609C443.581 179.016 440.423 177.236 437.755 176.141C435.835 175.354 433.662 175.186 431.681 174.515C427.86 173.219 423.831 171.075 419.961 170.176C417.137 169.52 414.39 169.881 411.655 168.673Z"/>
	<path fill="#332F3B" d="M446.008 180.609C456.454 185.558 464.962 194.043 472.934 202.218C476.091 205.456 479.175 208.147 481.545 212.092C479.722 210.871 479.724 209.995 477.293 209.862C476.92 209.332 476.551 208.739 476.092 208.28L475.781 208.004C475.286 207.558 474.848 207.061 474.183 206.894C473.754 206.786 473.604 206.713 473.246 206.445L473.635 206.152C472.897 205.339 472.767 205.108 471.68 204.793C470.449 203.475 468.723 202.19 468.559 200.391C466.797 199.876 465.069 197.078 463.694 195.789C461.088 193.347 457.936 192.177 455.64 189.279L455.471 189.061C454.713 188.882 454.108 188.339 453.488 187.891L453.324 186.719C451.705 186.322 450.604 184.713 449.221 183.982C447.711 183.185 446.889 182.086 446.008 180.609Z"/>
	<defs>
		<linearGradient id="gradient_1" gradientUnits="userSpaceOnUse" x1="353.711" y1="197.85201" x2="345.21899" y2="185.472">
			<stop offset="0" stop-color="#28293F"/>
			<stop offset="1" stop-color="#3A4154"/>
		</linearGradient>
	</defs>
	<path fill="url(#gradient_1)" d="M316.952 215.584L314.318 215.441C315.564 214.276 317.976 211.294 318.736 209.793C319.003 209.266 318.858 209.49 319.171 209.021C319.537 208.471 319.261 207.92 319.723 207.227L320.703 207.223C322.297 206.208 323.52 203.95 324.703 202.465C329.067 196.985 334.254 192.76 339.787 188.562C344.126 185.27 348.203 182.084 352.955 179.374C359.673 175.543 367.179 172.856 374.608 170.805C379.199 169.537 383.724 168.282 388.477 167.737L388.767 168.517L386.485 170.776C372.02 185.381 355.17 199.76 336.432 208.505C333.271 209.98 329.838 211.536 326.547 212.648C324.304 213.405 321.998 214.018 319.727 214.688C318.929 214.923 317.64 215.146 316.952 215.584Z"/>
	<defs>
		<linearGradient id="gradient_2" gradientUnits="userSpaceOnUse" x1="301.758" y1="329.492" x2="268.548" y2="313.84601">
			<stop offset="0" stop-color="#160F20"/>
			<stop offset="1" stop-color="#272B3F"/>
		</linearGradient>
	</defs>
	<path fill="url(#gradient_2)" d="M309.168 235.023C312.424 239.47 314.873 244.648 318.423 248.827L331.087 247.389C331.603 247.845 332.054 248.222 332.452 248.791C330.419 249.212 328.381 249.672 326.315 249.892C324.199 250.117 321.34 250.103 319.488 251.153L319.403 252.016C320.853 253.589 324.765 257.293 325.133 259.394C325.158 259.894 325.089 260.663 325.219 261.127C325.418 261.831 326.085 261.888 325.876 262.719L325.278 262.86L326.919 265.813L339.754 286.001C340.778 287.783 340.305 290.179 340.357 292.16C340.364 292.442 340.313 293.415 340.43 293.621C340.631 293.979 341.775 294.707 342.13 294.968L342.399 295.983L315.703 288.08L314.134 287.774L307.48 286.374L303.307 314.126L302.688 323.98C301.912 325.816 302.697 327.872 301.653 329.492C300.779 328.295 300.814 326.797 300.48 325.391C300.118 323.865 299.513 322.364 298.875 320.935L298.713 320.576L298.321 318.752L297.852 318.559C297.846 317.192 297.341 317.557 297.07 316.605C296.658 315.16 297.176 312.736 296.922 311.12C296.724 309.864 296.806 307.518 296.346 306.445C296.321 306.387 295.909 305.899 295.898 305.859C295.693 305.061 296.024 304.882 295.508 304.105C295.982 303.03 295.323 300.896 295.246 299.628C294.91 294.135 294.469 288.501 294.384 283.008C294.33 279.558 295.6 275.916 296.036 272.476C296.242 270.852 296.219 267.886 297.07 266.605C297.039 261.113 299.328 257.151 300.96 252.1C301.865 249.299 302.449 246.25 303.022 243.407L303.123 242.967C303.235 242.41 303.31 241.978 303.524 241.443L303.707 241.016L303.32 240.625C303.701 238.613 305.382 237.42 305.991 235.582L306.051 235.352C306.789 235.48 307.213 235.865 307.78 236.316L307.969 235.998C308.532 235.862 308.778 235.437 309.168 235.023Z"/>
	<path fill="#423F4C" d="M314.847 282.765L316.332 283.136L315.703 288.08L314.134 287.774C314.573 286.136 314.681 284.448 314.847 282.765Z"/>
	<path fill="#4A4E5F" d="M309.168 235.023C312.424 239.47 314.873 244.648 318.423 248.827L331.087 247.389C331.603 247.845 332.054 248.222 332.452 248.791C330.419 249.212 328.381 249.672 326.315 249.892C324.199 250.117 321.34 250.103 319.488 251.153L319.403 252.016C320.853 253.589 324.765 257.293 325.133 259.394C325.158 259.894 325.089 260.663 325.219 261.127C325.418 261.831 326.085 261.888 325.876 262.719L325.278 262.86C323.146 259.687 321.278 256.23 318.836 253.301L316.332 283.136L314.847 282.765C315.2 278.74 318.149 252.668 316.598 250.054L307.78 236.316L307.969 235.998C308.532 235.862 308.778 235.437 309.168 235.023Z"/>
	<path fill="#0A070F" d="M316.332 283.136L318.836 253.301C321.278 256.23 323.146 259.687 325.278 262.86L326.919 265.813L339.754 286.001C340.778 287.783 340.305 290.179 340.357 292.16C340.364 292.442 340.313 293.415 340.43 293.621C340.631 293.979 341.775 294.707 342.13 294.968L342.399 295.983L315.703 288.08L316.332 283.136Z"/>
	<path fill="#0A070F" d="M495.971 226.2L499.999 235.043C504.817 246.758 508.19 258.685 509.849 271.262C510.426 275.635 511.05 280.36 510.907 284.764C510.994 290.676 511.102 296.637 510.679 302.539C509.403 320.309 505.341 338.086 500.114 355.078C494.923 371.956 488.729 388.426 481.313 404.46C474.003 420.262 465.559 435.538 456.962 450.669L456.839 449.638C456.428 448.438 456.21 448.475 455.158 447.852C454.681 434.97 456.967 421.585 460.417 409.202C461.344 405.873 462.102 402.404 463.576 399.268C465.042 397.312 467.559 395.618 469.344 393.88C472.287 391.015 474.946 387.727 477.481 384.502C479.441 382.009 480.632 378.791 482.07 375.974C483.191 373.776 484.881 371.837 485.927 369.645C486.983 367.433 487.481 364.601 488.263 362.242C489.209 359.387 490.523 356.647 491.406 353.782C493.144 348.142 494.178 342.138 494.635 336.264L494.416 336.013L495.068 332.318C494.352 328.583 494.698 324.107 494.481 320.267C493.85 309.084 492.981 297.353 489.96 286.533L483.25 287.724C483.508 283.587 482.399 278.664 482.073 274.486C481.58 268.155 481.775 261.407 480.716 255.178L480.319 251.884C480.421 251.743 480.132 250.182 480.093 249.892C480.816 247.823 482.379 245.825 483.576 243.984C485.719 240.686 487.864 237.398 489.966 234.072C490.854 231.925 492.231 230.009 493.616 228.159C494.127 227.15 495.025 226.76 495.971 226.2Z"/>
	<path fill="#1D1D24" d="M499.495 343.13C500.377 344.354 501.083 345.035 500.842 346.68C500.781 347.09 500.542 347.492 500.356 347.852L499.609 347.943C498.876 346.895 498.512 345.852 498.12 344.642L499.495 343.13Z"/>
	<path fill="#2D2D37" d="M493.616 228.159L494.34 228.32C494.509 229.667 494.651 230.845 495.188 232.108L494.437 232.108L493.75 231.836L493.555 233.004C493.128 232.362 493.168 232.228 493.168 231.445L493.559 231.055L493.361 230.467L492.871 230.467L492.653 230.834C491.87 232.136 491.432 233.424 489.966 234.072C490.854 231.925 492.231 230.009 493.616 228.159Z"/>
	<path fill="#2D2D37" d="M495.068 332.318C495.433 334.124 496.203 335.467 496.938 337.109C497.832 339.109 498.323 341.224 499.495 343.13L498.12 344.642C496.811 341.458 496.059 338.445 495.152 335.158L494.635 336.264L494.416 336.013L495.068 332.318Z"/>
	<path fill="#332F3B" d="M501.949 255.151L503.201 256.686C504.532 261.634 505.458 266.798 506.319 271.848C507.018 275.951 507.037 281.483 509.143 285.063C509.773 287.903 509.794 290.483 509.727 293.364C508.86 290.621 508.446 287.858 507.727 285.092C505.987 278.399 504.441 271.722 503.206 264.913C502.635 261.768 501.843 258.349 501.949 255.151Z"/>
	<path fill="#332F3B" d="M495.971 226.2L499.999 235.043C499.575 237.304 499.318 242.434 500.586 244.41C501.006 247.876 501.904 251.703 501.949 255.151C501.645 254.654 500.903 253.829 500.708 253.32C500.319 252.302 500.199 249.713 500.199 248.633L499.512 249.217L499.023 249.099C498.283 247.584 497.452 246.079 497.121 244.413L497.074 244.141C496.151 243.576 495.426 240.876 495.121 239.844L495.508 239.453L495.898 240.234C496.125 240.868 496.136 241.136 496.582 241.699L496.684 241.211L497.656 241.016C497.659 240.551 497.572 240.467 497.465 240.039C496.954 237.999 496.268 237.142 495.401 235.338L495.121 234.766C494.559 233.899 494.556 233.129 494.437 232.108L495.188 232.108C494.651 230.845 494.509 229.667 494.34 228.32L493.616 228.159C494.127 227.15 495.025 226.76 495.971 226.2Z"/>
	<defs>
		<linearGradient id="gradient_3" gradientUnits="userSpaceOnUse" x1="509.961" y1="283.008" x2="491.89001" y2="279.01599">
			<stop offset="0" stop-color="#141417"/>
			<stop offset="1" stop-color="#43424A"/>
		</linearGradient>
	</defs>
	<path fill="url(#gradient_3)" d="M499.999 235.043C504.817 246.758 508.19 258.685 509.849 271.262C510.426 275.635 511.05 280.36 510.907 284.764L509.866 284.501L509.143 285.063C507.037 281.483 507.018 275.951 506.319 271.848C505.458 266.798 504.532 261.634 503.201 256.686L501.949 255.151C501.904 251.703 501.006 247.876 500.586 244.41C499.318 242.434 499.575 237.304 499.999 235.043Z"/>
	<path fill="#505462" d="M500.586 244.41L500.977 243.168L501.27 243.947L502.21 243.848L502.106 244.323C501.86 245.591 502.214 247.17 502.332 248.452C502.587 251.231 502.638 253.932 503.201 256.686L501.949 255.151C501.904 251.703 501.006 247.876 500.586 244.41Z"/>
	<defs>
		<linearGradient id="gradient_4" gradientUnits="userSpaceOnUse" x1="364.258" y1="232.617" x2="341.88599" y2="199.162">
			<stop offset="0" stop-color="#181427"/>
			<stop offset="1" stop-color="#2F374B"/>
		</linearGradient>
	</defs>
	<path fill="url(#gradient_4)" d="M396.9 159.605C398.399 159.413 399.94 159.311 401.436 159.622C401.747 160.539 402.035 161.373 402.118 162.342L401.845 162.736C402.268 163.338 402.62 163.748 403.183 164.234L404.568 165.604L407.789 168.956L407.581 169.147C405.847 169.289 404.686 169.7 403.125 170.113C402.323 170.326 400.913 170.11 400.014 170.117L399.22 171.846C399.222 177.78 399.248 183.715 399.232 189.648C399.225 192.426 398.903 195.512 399.267 198.242C399.399 199.234 399.986 200.202 400.596 200.977L400.34 201.096C399.968 201.247 399.711 201.248 399.318 201.245L399.003 201.746L399.175 202.198C399.591 212.966 399.24 223.794 399.234 234.572C399.231 239.272 398.964 244.337 399.525 248.999C399.631 249.877 400.25 250.458 400.634 251.201L400.717 251.458L400.634 251.844L400.096 251.953L399.945 252.188C399.367 253.053 399 253.314 398.047 253.711L397.852 254.351L397.4 254.102L391.435 261.2C386.697 267.598 381.072 272.706 374.626 277.298C372.476 278.829 370.281 280.532 367.922 281.722C365.771 282.807 363.314 283.565 361.047 284.376L343.388 286.826L343.037 287.886C342.98 289.025 343.013 290.233 342.745 291.341L342.13 294.968C341.775 294.707 340.631 293.979 340.43 293.621C340.313 293.415 340.364 292.442 340.357 292.16C340.305 290.179 340.778 287.783 339.754 286.001L326.919 265.813L325.278 262.86L325.876 262.719C326.085 261.888 325.418 261.831 325.219 261.127C325.089 260.663 325.158 259.894 325.133 259.394C324.765 257.293 320.853 253.589 319.403 252.016L319.488 251.153C321.34 250.103 324.199 250.117 326.315 249.892C328.381 249.672 330.419 249.212 332.452 248.791C332.054 248.222 331.603 247.845 331.087 247.389L318.423 248.827C314.873 244.648 312.424 239.47 309.168 235.023C308.778 235.437 308.532 235.862 307.969 235.998L305.616 232.452C304.991 231.708 304.188 230.895 303.877 229.966L303.734 229.492L303.32 229.346L302.768 230.471L302.259 229.642C302.8 228.442 303.739 227.025 304.025 225.766C304.344 224.368 305.655 221.938 306.449 220.703C307.266 219.434 308.348 219.443 309.712 219.099L312.114 218.458L311.663 217.107L311.651 216.886C313.559 216.555 315.12 216.277 316.952 215.584C317.64 215.146 318.929 214.923 319.727 214.688C321.998 214.018 324.304 213.405 326.547 212.648C329.838 211.536 333.271 209.98 336.432 208.505C355.17 199.76 372.02 185.381 386.485 170.776L387.457 171.481C389.011 169.562 391.19 167.76 392.957 166.017C393.949 165.026 394.936 164.101 395.686 162.905L394.979 162.478L396.9 159.605Z"/>
	<path fill="#6B6F7F" d="M302.259 229.642C302.8 228.442 303.739 227.025 304.025 225.766C304.344 224.368 305.655 221.938 306.449 220.703C307.266 219.434 308.348 219.443 309.712 219.099C308.61 222.607 307.934 225.521 305.385 228.347L309.168 235.023C308.778 235.437 308.532 235.862 307.969 235.998L305.616 232.452C304.991 231.708 304.188 230.895 303.877 229.966L303.734 229.492L303.32 229.346L302.768 230.471L302.259 229.642Z"/>
	<path fill="#6B6F7F" d="M386.485 170.776L387.457 171.481C367.879 190.306 347.327 207.574 320.889 215.577C318.196 216.392 315.632 217.746 312.891 218.275L312.114 218.458L311.663 217.107L311.651 216.886C313.559 216.555 315.12 216.277 316.952 215.584C317.64 215.146 318.929 214.923 319.727 214.688C321.998 214.018 324.304 213.405 326.547 212.648C329.838 211.536 333.271 209.98 336.432 208.505C355.17 199.76 372.02 185.381 386.485 170.776Z"/>
	<path fill="#5B5E6E" d="M396.9 159.605C398.399 159.413 399.94 159.311 401.436 159.622C401.747 160.539 402.035 161.373 402.118 162.342L401.845 162.736C402.268 163.338 402.62 163.748 403.183 164.234L404.568 165.604L407.789 168.956L407.581 169.147C405.847 169.289 404.686 169.7 403.125 170.113C402.323 170.326 400.913 170.11 400.014 170.117L399.22 171.846C399.222 177.78 399.248 183.715 399.232 189.648C399.225 192.426 398.903 195.512 399.267 198.242C399.399 199.234 399.986 200.202 400.596 200.977L400.34 201.096C399.968 201.247 399.711 201.248 399.318 201.245L399.003 201.746C398.303 202.128 397.535 202.424 397.127 203.142C395.46 204.776 393.939 206.401 392.519 208.255L390.866 209.254L390.385 209.106L391.17 207.329C392.954 205.403 394.566 203.329 396.211 201.284C396.435 201.006 397.373 200.052 397.441 199.753C397.995 197.335 397.361 193.097 397.356 190.533C397.343 183.168 397.628 175.815 397.537 168.446C397.337 167.733 397.159 167.234 396.752 166.602L392.957 166.017C393.949 165.026 394.936 164.101 395.686 162.905L394.979 162.478L396.9 159.605Z"/>
	<path fill="#73798A" d="M396.9 159.605C398.399 159.413 399.94 159.311 401.436 159.622C401.747 160.539 402.035 161.373 402.118 162.342L401.845 162.736L400.405 161.333L399.389 161.859L399.127 162.837C398.637 164.5 399.298 168.764 398.438 169.87L397.833 167.97L397.537 168.446C397.337 167.733 397.159 167.234 396.752 166.602L392.957 166.017C393.949 165.026 394.936 164.101 395.686 162.905L394.979 162.478L396.9 159.605Z"/>
	<path fill="#505462" d="M396.103 162.792L397.18 163.281L397.833 167.97L397.537 168.446C397.337 167.733 397.159 167.234 396.752 166.602L392.957 166.017C393.949 165.026 394.936 164.101 395.686 162.905L396.103 162.792Z"/>
	<path fill="#B0B9C1" d="M396.9 159.605C398.399 159.413 399.94 159.311 401.436 159.622C401.747 160.539 402.035 161.373 402.118 162.342L401.845 162.736L400.405 161.333C399.204 161.046 398.404 161.158 397.266 161.738C396.883 161.933 396.319 162.409 396.103 162.792L395.686 162.905L394.979 162.478L396.9 159.605Z"/>
	<path fill="#39394E" d="M400.405 161.333L401.845 162.736C402.268 163.338 402.62 163.748 403.183 164.234L404.568 165.604L407.789 168.956L407.581 169.147C405.847 169.289 404.686 169.7 403.125 170.113C402.323 170.326 400.913 170.11 400.014 170.117L399.22 171.846L399.192 166.546L399.127 162.837L399.389 161.859L400.405 161.333Z"/>
	<path fill="#505462" d="M400.405 161.333L401.845 162.736C402.268 163.338 402.62 163.748 403.183 164.234L404.568 165.604L404.143 165.668C402.891 165.845 401.852 165.894 400.586 165.718L399.192 166.546L399.127 162.837L399.389 161.859L400.405 161.333Z"/>
	<path fill="#100919" d="M397.127 203.142C397.535 202.424 398.303 202.128 399.003 201.746L399.175 202.198C399.591 212.966 399.24 223.794 399.234 234.572C399.231 239.272 398.964 244.337 399.525 248.999C399.631 249.877 400.25 250.458 400.634 251.201L400.717 251.458L400.634 251.844L400.096 251.953L399.945 252.188C399.367 253.053 399 253.314 398.047 253.711L397.852 254.351L397.4 254.102L391.435 261.2C386.697 267.598 381.072 272.706 374.626 277.298C372.476 278.829 370.281 280.532 367.922 281.722C365.771 282.807 363.314 283.565 361.047 284.376L343.388 286.826L343.037 287.886C342.98 289.025 343.013 290.233 342.745 291.341L342.13 294.968C341.775 294.707 340.631 293.979 340.43 293.621C340.313 293.415 340.364 292.442 340.357 292.16C340.305 290.179 340.778 287.783 339.754 286.001L326.919 265.813L325.278 262.86L325.876 262.719C326.085 261.888 325.418 261.831 325.219 261.127C325.089 260.663 325.158 259.894 325.133 259.394C324.765 257.293 320.853 253.589 319.403 252.016L319.488 251.153C321.34 250.103 324.199 250.117 326.315 249.892C328.381 249.672 330.419 249.212 332.452 248.791C332.054 248.222 331.603 247.845 331.087 247.389L342.808 244.26C362.736 237.808 378.173 223.224 391.17 207.329L390.385 209.106L390.866 209.254L392.519 208.255C393.939 206.401 395.46 204.776 397.127 203.142Z"/>
	<path fill="#423F4C" d="M325.133 259.394C325.86 260.419 327.993 263.225 327.979 264.374C327.692 264.814 327.355 265.536 326.919 265.813L325.278 262.86L325.876 262.719C326.085 261.888 325.418 261.831 325.219 261.127C325.089 260.663 325.158 259.894 325.133 259.394Z"/>
	<path fill="#423F4C" d="M331.087 247.389L342.808 244.26L344.169 245.528C340.411 246.793 336.386 248.259 332.452 248.791C332.054 248.222 331.603 247.845 331.087 247.389Z"/>
	<path fill="#0A070F" d="M390.747 259.738L391.435 261.2C386.697 267.598 381.072 272.706 374.626 277.298C372.476 278.829 370.281 280.532 367.922 281.722C365.771 282.807 363.314 283.565 361.047 284.376L359.122 283.382C361.537 282.519 364.076 281.752 366.387 280.635C375.614 276.174 384.824 268.094 390.747 259.738Z"/>
	<path fill="#39394E" d="M342.808 244.26C362.736 237.808 378.173 223.224 391.17 207.329L390.385 209.106L390.866 209.254L392.519 208.255C381.342 221.458 369.715 232.675 354.426 240.989C351.346 242.663 347.601 244.823 344.169 245.528L342.808 244.26Z"/>
	<defs>
		<linearGradient id="gradient_5" gradientUnits="userSpaceOnUse" x1="357.22699" y1="284.57001" x2="325.64899" y2="268.83099">
			<stop offset="0" stop-color="#241E2C"/>
			<stop offset="1" stop-color="#47445A"/>
		</linearGradient>
	</defs>
	<path fill="url(#gradient_5)" d="M327.979 264.374C330.314 267.535 340.158 284.109 342.773 284.629C347.209 285.511 354.665 284.275 359.122 283.382L361.047 284.376L343.388 286.826L343.037 287.886C342.98 289.025 343.013 290.233 342.745 291.341L342.13 294.968C341.775 294.707 340.631 293.979 340.43 293.621C340.313 293.415 340.364 292.442 340.357 292.16C340.305 290.179 340.778 287.783 339.754 286.001L326.919 265.813C327.355 265.536 327.692 264.814 327.979 264.374Z"/>
	<defs>
		<linearGradient id="gradient_6" gradientUnits="userSpaceOnUse" x1="399.80499" y1="251.367" x2="375.58401" y2="229.054">
			<stop offset="0" stop-color="#211B28"/>
			<stop offset="1" stop-color="#4A475B"/>
		</linearGradient>
	</defs>
	<path fill="url(#gradient_6)" d="M397.127 203.142C397.535 202.424 398.303 202.128 399.003 201.746L399.175 202.198C399.591 212.966 399.24 223.794 399.234 234.572C399.231 239.272 398.964 244.337 399.525 248.999C399.631 249.877 400.25 250.458 400.634 251.201L400.717 251.458L400.634 251.844L400.096 251.953L399.945 252.188C399.367 253.053 399 253.314 398.047 253.711L397.852 254.351L397.4 254.102L391.435 261.2L390.747 259.738C392.432 257.309 395.828 254.076 396.68 251.359C397.316 249.333 397.199 246.514 397.247 244.389C397.358 239.528 397.289 234.653 397.287 229.79C397.282 222.504 397.309 215.223 397.076 207.939C397.024 206.322 397.251 204.753 397.127 203.142Z"/>
	<defs>
		<linearGradient id="gradient_7" gradientUnits="userSpaceOnUse" x1="361.914" y1="404.10199" x2="329.91699" y2="305.36301">
			<stop offset="0" stop-color="#C60039"/>
			<stop offset="1" stop-color="#E21B5C"/>
		</linearGradient>
	</defs>
	<path fill="url(#gradient_7)" d="M303.307 314.126L307.48 286.374L314.134 287.774L315.703 288.08L342.399 295.983L345.767 297.541L350.039 299.902L352.064 300.618C357.348 304.109 362.48 307.317 367.039 311.781C372.791 317.413 376.933 324.402 380.437 331.587C384.785 340.499 388.245 350.032 390.235 359.766C390.624 361.67 391.822 365.318 391.559 367.078C391.391 368.195 390.508 369.774 390.112 370.872C387.722 377.496 384.902 384.347 380.962 390.212C375.899 397.746 368.129 403.923 359.07 405.615C351.836 406.965 345.243 405.392 338.775 402.117C337.042 401.239 335.433 400.041 333.656 399.282C333.623 398.943 330.664 396.452 330.236 396.055C325.66 391.812 322.266 387.687 318.902 382.439C318.811 381.69 317.846 380.56 317.414 379.904C316.061 377.846 314.674 375.806 313.348 373.731C312.399 372.245 311.628 370.674 310.888 369.075L310.892 368.401L309.57 368.489C306.387 366.716 306.121 362.545 304.357 359.63L304.155 359.306C303.435 356.956 302.938 354.441 301.509 352.408L302.063 350.49L302.363 350.059C303.152 348.823 302.606 346.867 302.332 345.54L302.001 345.253L301.9 337.773L301.877 336.719L301.138 336.334L300.735 336.321C300.59 336.193 300.379 336.114 300.3 335.938C299.958 335.168 300.239 332.373 300.152 331.348C299.843 327.736 299.093 324.181 298.713 320.576L298.875 320.935C299.513 322.364 300.118 323.865 300.48 325.391C300.814 326.797 300.779 328.295 301.653 329.492C302.697 327.872 301.912 325.816 302.688 323.98L303.307 314.126Z"/>
	<path fill="#B8023C" d="M307.764 309.877C308.376 307.378 308.378 304.735 308.678 302.183C309.137 298.288 309.775 294.404 310.37 290.528C314.237 291.555 318.205 292.178 322.068 293.248C330.946 295.708 339.311 298.802 347.585 302.866L347.89 303.146C349.406 304.487 351.996 305.434 353.801 306.411C358.212 308.797 362.918 312.72 365.98 316.699C367.486 318.657 370.033 320.929 370.895 323.242L370.701 323.826L370.314 323.826C369.432 322.918 368.806 322.208 368.171 321.094C367.24 319.458 365.382 317.784 364.063 316.409C359.841 312.013 354.533 306.694 348.513 304.898C336.529 299.312 324.562 294.622 311.448 292.36C310.373 300.256 308.503 308.699 308.562 316.649C308.023 319.748 308.155 322.957 308.146 326.094C308.122 333.901 308.667 342.27 310.665 349.84C311.153 351.69 312.967 355.997 312.598 357.715L312.109 357.031L311.823 357.033C311.453 357.032 311.601 357.045 311.292 356.997C308.759 347.894 306.71 338.431 306.588 328.928C306.506 322.535 307.281 316.235 307.764 309.877Z"/>
	<path fill="#ED3876" d="M308.562 316.649C308.503 308.699 310.373 300.256 311.448 292.36C324.562 294.622 336.529 299.312 348.513 304.898L347.082 305.243L346.832 304.983C346.458 304.636 346.176 304.544 345.703 304.393C345.02 304.803 344.308 305.114 343.945 305.859C345.38 306.904 347.191 307.449 348.73 308.316C349.335 308.657 349.692 309.451 350.026 310.038C346.377 308.031 342.52 305.874 338.597 304.475C331.523 301.154 322.696 298.332 314.958 297.027L312.157 329.527C310.777 326.346 311.95 322.515 311.527 319.141L311.133 319.332L310.746 318.945C310.199 319.108 309.968 319.201 309.407 319.041L309.082 318.943L308.887 323.374L308.562 316.649Z"/>
	<path fill="#ED3876" d="M303.307 314.126L307.48 286.374L314.134 287.774L315.703 288.08L342.399 295.983L345.767 297.541L350.039 299.902L350.057 300.67C349.492 300.304 349.228 300.001 348.535 299.998L348.047 299.609L346.873 299.998L346.285 301.172C346.705 301.994 347.767 301.905 347.585 302.866C339.311 298.802 330.946 295.708 322.068 293.248C318.205 292.178 314.237 291.555 310.37 290.528C309.775 294.404 309.137 298.288 308.678 302.183C308.378 304.735 308.376 307.378 307.764 309.877L306.898 309.846C306.857 311.727 307.146 312.845 305.664 314.262L304.102 315.426L303.872 314.993C303.55 314.402 303.695 314.63 303.307 314.126Z"/>
	<defs>
		<linearGradient id="gradient_8" gradientUnits="userSpaceOnUse" x1="310.742" y1="364.64801" x2="333.55399" y2="344.38599">
			<stop offset="0" stop-color="#D20449"/>
			<stop offset="1" stop-color="#F2397F"/>
		</linearGradient>
	</defs>
	<path fill="url(#gradient_8)" d="M303.307 314.126C303.695 314.63 303.55 314.402 303.872 314.993L304.102 315.426L305.664 314.262C307.146 312.845 306.857 311.727 306.898 309.846L307.764 309.877C307.281 316.235 306.506 322.535 306.588 328.928C306.71 338.431 308.759 347.894 311.292 356.997L311.33 357.368C311.428 358.272 311.495 358.607 311.918 359.375L312.395 360.636C312.784 361.808 313.199 362.111 313.09 363.477C313.451 364.1 313.811 364.662 314.254 365.234C314.024 366.712 314.148 366.939 313.016 367.871C313.122 366.46 312.015 365.334 311.133 364.262L310.738 364.648L310.575 364.221L309.863 362.697L309.957 361.914C309.331 361.437 308.849 361.081 308.103 360.801C309.045 363.27 310.25 365.846 310.892 368.401L309.57 368.489C306.387 366.716 306.121 362.545 304.357 359.63L304.155 359.306C303.435 356.956 302.938 354.441 301.509 352.408L302.063 350.49L302.363 350.059C303.152 348.823 302.606 346.867 302.332 345.54L302.001 345.253L301.9 337.773L301.877 336.719L301.138 336.334L300.735 336.321C300.59 336.193 300.379 336.114 300.3 335.938C299.958 335.168 300.239 332.373 300.152 331.348C299.843 327.736 299.093 324.181 298.713 320.576L298.875 320.935C299.513 322.364 300.118 323.865 300.48 325.391C300.814 326.797 300.779 328.295 301.653 329.492C302.697 327.872 301.912 325.816 302.688 323.98L303.307 314.126Z"/>
	<path fill="#351930" d="M298.713 320.576L298.875 320.935C299.513 322.364 300.118 323.865 300.48 325.391C300.814 326.797 300.779 328.295 301.653 329.492C302.697 327.872 301.912 325.816 302.688 323.98C302.594 331.76 302.707 339.511 304.555 347.126C303.867 346.503 303.111 346.035 302.332 345.54L302.001 345.253L301.9 337.773L301.877 336.719L301.138 336.334L300.735 336.321C300.59 336.193 300.379 336.114 300.3 335.938C299.958 335.168 300.239 332.373 300.152 331.348C299.843 327.736 299.093 324.181 298.713 320.576Z"/>
	<path fill="#332F3B" d="M302.332 345.54C303.111 346.035 303.867 346.503 304.555 347.126C305.424 350.622 306.042 354.241 307.097 357.675C307.363 358.539 307.649 360.073 308.103 360.801C309.045 363.27 310.25 365.846 310.892 368.401L309.57 368.489C306.387 366.716 306.121 362.545 304.357 359.63L304.155 359.306C303.435 356.956 302.938 354.441 301.509 352.408L302.063 350.49L302.363 350.059C303.152 348.823 302.606 346.867 302.332 345.54Z"/>
	<defs>
		<linearGradient id="gradient_9" gradientUnits="userSpaceOnUse" x1="360.742" y1="395.117" x2="318.29901" y2="296.78201">
			<stop offset="0" stop-color="white"/>
			<stop offset="1" stop-color="#FDFFFE"/>
		</linearGradient>
	</defs>
	<path fill="url(#gradient_9)" d="M312.157 329.527L314.958 297.027C322.696 298.332 331.523 301.154 338.597 304.475C342.52 305.874 346.377 308.031 350.026 310.038L351.655 311.258C355.156 313.752 358.56 316.251 361.495 319.424C370.048 328.669 375.29 341.942 378.733 353.864C379.725 357.3 381.4 361.706 381.669 365.227C381.779 366.676 380.558 369.168 380.013 370.553C377.178 377.764 373.849 385.312 368.183 390.791C363.527 395.292 359.092 397.351 352.613 397.135C345.66 396.904 339.374 392.135 334.852 387.238C320.146 371.309 313.083 350.956 312.157 329.527Z"/>
	<path fill="white" d="M338.597 304.475C342.52 305.874 346.377 308.031 350.026 310.038L351.655 311.258L350.879 314.398L350.781 311.719C350.295 311.232 349.792 310.918 349.219 310.547L348.633 311.129L348.34 310.645C347.923 311.061 348.097 310.843 347.736 311.442L347.461 311.91L346.875 311.719C346.546 312.155 346.628 312 346.416 312.425L346.289 312.691L345.996 312.207C345.63 312.527 345.424 312.889 344.924 312.889L344.824 312.207L343.945 312.301L343.359 311.133L342.773 311.129C342.054 310.046 341.996 309.892 341.996 308.594C342.475 308.11 342.422 308.047 342.578 307.422C342.191 306.842 341.951 306.608 341.215 306.445C340.452 306.277 340.087 305.796 339.359 305.555C338.878 305.396 338.467 305.19 338.01 304.967L338.597 304.475Z"/>
	<defs>
		<linearGradient id="gradient_10" gradientUnits="userSpaceOnUse" x1="478.32001" y1="247.85201" x2="448.237" y2="154.951">
			<stop offset="0" stop-color="#07000A"/>
			<stop offset="1" stop-color="#282A3F"/>
		</linearGradient>
	</defs>
	<path fill="url(#gradient_10)" d="M408.491 168.028L409.136 168.34C410.056 168.334 410.783 168.318 411.655 168.673C414.39 169.881 417.137 169.52 419.961 170.176C423.831 171.075 427.86 173.219 431.681 174.515C433.662 175.186 435.835 175.354 437.755 176.141C440.423 177.236 443.581 179.016 446.008 180.609C446.889 182.086 447.711 183.185 449.221 183.982C450.604 184.713 451.705 186.322 453.324 186.719L453.488 187.891C454.108 188.339 454.713 188.882 455.471 189.061L455.64 189.279C457.936 192.177 461.088 193.347 463.694 195.789C465.069 197.078 466.797 199.876 468.559 200.391C468.723 202.19 470.449 203.475 471.68 204.793C472.767 205.108 472.897 205.339 473.635 206.152L473.246 206.445C473.604 206.713 473.754 206.786 474.183 206.894C474.848 207.061 475.286 207.558 475.781 208.004L476.092 208.28C476.551 208.739 476.92 209.332 477.293 209.862C479.724 209.995 479.722 210.871 481.545 212.092L484.029 215.234C483.957 215.7 483.907 215.843 483.662 216.275C484.84 216.744 485.864 216.683 487.107 216.652L487.452 216.211L486.02 213.159L489.337 214.5L492.475 219.841L494.7 223.833L495.971 226.2C495.025 226.76 494.127 227.15 493.616 228.159C492.231 230.009 490.854 231.925 489.966 234.072C487.864 237.398 485.719 240.686 483.576 243.984C482.379 245.825 480.816 247.823 480.093 249.892C480.132 250.182 480.421 251.743 480.319 251.884L480.716 255.178C481.775 261.407 481.58 268.155 482.073 274.486C482.399 278.664 483.508 283.587 483.25 287.724L482.101 287.825L464.968 292.517L457.377 295.239C456.456 293.709 456.487 291.337 456.711 289.605C456.819 288.75 457.037 287.76 456.802 286.919C456.564 286.069 457.812 284.087 458.219 283.211L458.105 281.738C457.584 281.999 457.822 281.905 457.214 282.094L456.761 282.23L454.661 284.777C449.321 284.765 444.582 283.82 439.342 283.071C439.328 282.884 438.152 282.589 437.942 282.52C434.437 281.37 431.199 280.005 427.879 278.414C426.744 277.87 425.394 277.494 424.361 276.784C418.09 272.482 412.262 266.411 407.464 260.522C405.09 257.608 403.12 254.384 400.717 251.458L400.634 251.201C400.25 250.458 399.631 249.877 399.525 248.999C398.964 244.337 399.231 239.272 399.234 234.572C399.24 223.794 399.591 212.966 399.175 202.198L399.003 201.746L399.318 201.245C399.711 201.248 399.968 201.247 400.34 201.096L400.596 200.977C399.986 200.202 399.399 199.234 399.267 198.242C398.903 195.512 399.225 192.426 399.232 189.648C399.248 183.715 399.222 177.78 399.22 171.846L400.014 170.117C400.913 170.11 402.323 170.326 403.125 170.113C404.686 169.7 405.847 169.289 407.581 169.147L407.789 168.956L408.491 168.028Z"/>
	<path fill="#4A4E5F" d="M486.051 218.492C487.393 218.687 488.391 218.876 489.648 219.332L490.627 219.516L492.475 219.841L494.7 223.833L491.643 228.226C490.372 224.729 487.435 222.045 486.051 218.492Z"/>
	<path fill="#332F3B" d="M450.1 242.194C456.329 244.866 462.39 246.232 469.043 247.331C472.282 247.867 475.629 248.486 478.919 248.417C477.643 249.109 476.402 248.827 475.014 248.69L474.059 249.437C472.921 249.889 470.854 249.361 469.646 249.206C462.686 248.315 455.954 246.475 449.461 243.847L450.1 242.194Z"/>
	<path fill="#5B5E6E" d="M494.7 223.833L495.971 226.2C495.025 226.76 494.127 227.15 493.616 228.159C492.231 230.009 490.854 231.925 489.966 234.072C487.864 237.398 485.719 240.686 483.576 243.984C482.379 245.825 480.816 247.823 480.093 249.892L479.169 251.488L477.976 250.683C476.965 249.863 475.316 249.711 474.059 249.437L475.014 248.69C476.402 248.827 477.643 249.109 478.919 248.417C480.76 246.57 481.847 243.999 483.214 241.797C486.008 237.297 488.769 232.668 491.643 228.226L494.7 223.833Z"/>
	<path fill="#39394E" d="M400.596 200.977C402.153 201.772 403.373 203.754 404.484 205.091C406.933 208.037 409.41 210.965 411.918 213.86C422.096 225.604 435.492 236.6 450.1 242.194L449.461 243.847C444.223 241.373 439.045 239.002 434.206 235.761C427.775 231.453 421.619 225.979 416.075 220.583C411.722 216.346 407.763 211.814 403.755 207.26C402.382 205.698 401.057 203.1 399.175 202.198L399.003 201.746L399.318 201.245C399.711 201.248 399.968 201.247 400.34 201.096L400.596 200.977Z"/>
	<path fill="#505462" d="M408.491 168.028L409.136 168.34C411.702 170.866 414.046 173.611 416.602 176.123C420.135 179.596 424.212 182.895 428.023 186.056C442.419 197.996 458.122 207.986 476.047 213.751L478.711 213.48L477.543 211.914L477.93 211.719C477.786 211.044 477.564 210.492 477.293 209.862C479.724 209.995 479.722 210.871 481.545 212.092L484.029 215.234C483.957 215.7 483.907 215.843 483.662 216.275C484.84 216.744 485.864 216.683 487.107 216.652L487.452 216.211L486.02 213.159L489.337 214.5L492.475 219.841L490.627 219.516L489.648 219.332C488.391 218.876 487.393 218.687 486.051 218.492C477.767 215.473 469.482 212.979 461.392 209.387C440.924 200.299 423.361 184.706 407.581 169.147L407.789 168.956L408.491 168.028Z"/>
	<path fill="#2D2D37" d="M477.293 209.862C479.724 209.995 479.722 210.871 481.545 212.092L484.029 215.234C483.957 215.7 483.907 215.843 483.662 216.275L476.047 213.751L478.711 213.48L477.543 211.914L477.93 211.719C477.786 211.044 477.564 210.492 477.293 209.862Z"/>
	<defs>
		<linearGradient id="gradient_11" gradientUnits="userSpaceOnUse" x1="477.539" y1="213.47701" x2="482.77399" y2="180.61301">
			<stop offset="0" stop-color="#0F0617"/>
			<stop offset="1" stop-color="#26273A"/>
		</linearGradient>
	</defs>
	<path fill="url(#gradient_11)" d="M409.136 168.34C410.056 168.334 410.783 168.318 411.655 168.673C414.39 169.881 417.137 169.52 419.961 170.176C423.831 171.075 427.86 173.219 431.681 174.515C433.662 175.186 435.835 175.354 437.755 176.141C440.423 177.236 443.581 179.016 446.008 180.609C446.889 182.086 447.711 183.185 449.221 183.982C450.604 184.713 451.705 186.322 453.324 186.719L453.488 187.891C454.108 188.339 454.713 188.882 455.471 189.061L455.64 189.279C457.936 192.177 461.088 193.347 463.694 195.789C465.069 197.078 466.797 199.876 468.559 200.391C468.723 202.19 470.449 203.475 471.68 204.793C472.767 205.108 472.897 205.339 473.635 206.152L473.246 206.445C473.604 206.713 473.754 206.786 474.183 206.894C474.848 207.061 475.286 207.558 475.781 208.004L476.092 208.28C476.551 208.739 476.92 209.332 477.293 209.862C477.564 210.492 477.786 211.044 477.93 211.719L477.543 211.914L478.711 213.48L476.047 213.751C458.122 207.986 442.419 197.996 428.023 186.056C424.212 182.895 420.135 179.596 416.602 176.123C414.046 173.611 411.702 170.866 409.136 168.34Z"/>
	<path fill="#100919" d="M399.175 202.198C401.057 203.1 402.382 205.698 403.755 207.26C407.763 211.814 411.722 216.346 416.075 220.583C421.619 225.979 427.775 231.453 434.206 235.761C439.045 239.002 444.223 241.373 449.461 243.847C455.954 246.475 462.686 248.315 469.646 249.206C470.854 249.361 472.921 249.889 474.059 249.437C475.316 249.711 476.965 249.863 477.976 250.683L479.169 251.488L480.093 249.892C480.132 250.182 480.421 251.743 480.319 251.884L480.716 255.178C481.775 261.407 481.58 268.155 482.073 274.486C482.399 278.664 483.508 283.587 483.25 287.724L482.101 287.825L464.968 292.517L457.377 295.239C456.456 293.709 456.487 291.337 456.711 289.605C456.819 288.75 457.037 287.76 456.802 286.919C456.564 286.069 457.812 284.087 458.219 283.211L458.105 281.738C457.584 281.999 457.822 281.905 457.214 282.094L456.761 282.23L454.661 284.777C449.321 284.765 444.582 283.82 439.342 283.071C439.328 282.884 438.152 282.589 437.942 282.52C434.437 281.37 431.199 280.005 427.879 278.414C426.744 277.87 425.394 277.494 424.361 276.784C418.09 272.482 412.262 266.411 407.464 260.522C405.09 257.608 403.12 254.384 400.717 251.458L400.634 251.201C400.25 250.458 399.631 249.877 399.525 248.999C398.964 244.337 399.231 239.272 399.234 234.572C399.24 223.794 399.591 212.966 399.175 202.198Z"/>
	<path fill="#39394E" d="M465.379 269.543L466.152 270.642L458.219 283.211L458.105 281.738C457.584 281.999 457.822 281.905 457.214 282.094L456.761 282.23L465.379 269.543Z"/>
	<path fill="#423F4C" d="M477.976 250.683L479.169 251.488C478.335 253.938 475.453 256.537 473.948 258.737C471.268 262.652 468.881 266.754 466.152 270.642L465.379 269.543C466.89 266.731 468.857 264.278 470.571 261.602C472.918 257.938 475.004 253.888 477.976 250.683Z"/>
	<path fill="#100919" d="M480.093 249.892C480.132 250.182 480.421 251.743 480.319 251.884L480.716 255.178C481.775 261.407 481.58 268.155 482.073 274.486C482.399 278.664 483.508 283.587 483.25 287.724L482.101 287.825L464.968 292.517L457.377 295.239C456.456 293.709 456.487 291.337 456.711 289.605C456.819 288.75 457.037 287.76 456.802 286.919C456.564 286.069 457.812 284.087 458.219 283.211L466.152 270.642C468.881 266.754 471.268 262.652 473.948 258.737C475.453 256.537 478.335 253.938 479.169 251.488L480.093 249.892Z"/>
	<path fill="#332F3B" d="M482.101 287.825C481.367 281.005 477.331 257.23 480.319 251.884L480.716 255.178C481.775 261.407 481.58 268.155 482.073 274.486C482.399 278.664 483.508 283.587 483.25 287.724L482.101 287.825Z"/>
	<defs>
		<linearGradient id="gradient_12" gradientUnits="userSpaceOnUse" x1="452.539" y1="446.289" x2="302.315" y2="358.73099">
			<stop offset="0" stop-color="#020106"/>
			<stop offset="1" stop-color="#140A21"/>
		</linearGradient>
	</defs>
	<path fill="url(#gradient_12)" d="M400.717 251.458C403.12 254.384 405.09 257.608 407.464 260.522C412.262 266.411 418.09 272.482 424.361 276.784C425.394 277.494 426.744 277.87 427.879 278.414C431.199 280.005 434.437 281.37 437.942 282.52C438.152 282.589 439.328 282.884 439.342 283.071C444.582 283.82 449.321 284.765 454.661 284.777L456.761 282.23L457.214 282.094C457.822 281.905 457.584 281.999 458.105 281.738L458.219 283.211C457.812 284.087 456.564 286.069 456.802 286.919C457.037 287.76 456.819 288.75 456.711 289.605C456.487 291.337 456.456 293.709 457.377 295.239L464.968 292.517L482.101 287.825L483.25 287.724L489.96 286.533C492.981 297.353 493.85 309.084 494.481 320.267C494.698 324.107 494.352 328.583 495.068 332.318L494.416 336.013L494.635 336.264C494.178 342.138 493.144 348.142 491.406 353.782C490.523 356.647 489.209 359.387 488.263 362.242C487.481 364.601 486.983 367.433 485.927 369.645C484.881 371.837 483.191 373.776 482.07 375.974C480.632 378.791 479.441 382.009 477.481 384.502C474.946 387.727 472.287 391.015 469.344 393.88C467.559 395.618 465.042 397.312 463.576 399.268C462.102 402.404 461.344 405.873 460.417 409.202C456.967 421.585 454.681 434.97 455.158 447.852C456.21 448.475 456.428 448.438 456.839 449.638L456.962 450.669C449.609 466.283 438.037 484.027 421.2 490.116C407.239 495.165 387.779 495.329 374.202 488.782C368.727 486.142 363.664 481.799 359.568 477.375C358.799 476.543 357.255 475.133 356.847 474.11C355.335 472.655 354.13 470.635 352.923 468.915C349.489 464.022 346.671 458.847 343.777 453.624L343.616 452.517C342.988 449.98 344.071 448.499 344.254 446.018L344.288 445.529L344.173 444.872L344.065 443.729C344.485 440.398 343.892 436.852 343.806 433.496C344.014 431.356 343.292 429.106 342.913 427.007C342.125 422.637 341.631 415.667 338.926 412.036L338.672 411.719L338.672 411.133L338.09 410.742L338.281 409.57C337.769 408.666 338.134 407.772 337.751 406.877C337.459 406.197 337.557 405.483 337.268 404.81C337.008 404.204 336.666 403.575 336.523 402.926C336.412 402.418 336.419 402.047 336.121 401.599C335.879 401.238 335.653 401.327 335.254 401.27L334.961 402.535C334.122 401.236 333.84 400.875 333.656 399.282C335.433 400.041 337.042 401.239 338.775 402.117C345.243 405.392 351.836 406.965 359.07 405.615C368.129 403.923 375.899 397.746 380.962 390.212C384.902 384.347 387.722 377.496 390.112 370.872C390.508 369.774 391.391 368.195 391.559 367.078C391.822 365.318 390.624 361.67 390.235 359.766C388.245 350.032 384.785 340.499 380.437 331.587C376.933 324.402 372.791 317.413 367.039 311.781C362.48 307.317 357.348 304.109 352.064 300.618L350.039 299.902L345.767 297.541L342.399 295.983L342.13 294.968L342.745 291.341C343.013 290.233 342.98 289.025 343.037 287.886L343.388 286.826L361.047 284.376C363.314 283.565 365.771 282.807 367.922 281.722C370.281 280.532 372.476 278.829 374.626 277.298C381.072 272.706 386.697 267.598 391.435 261.2L397.4 254.102L397.852 254.351L398.047 253.711C399 253.314 399.367 253.053 399.945 252.188L400.096 251.953L400.634 251.844L400.717 251.458Z"/>
	<path fill="#351930" d="M343.037 287.886C343.44 289.949 344.257 290.575 345.508 292.105C347.648 294.726 350.666 297.588 352.064 300.618L350.039 299.902L345.767 297.541L342.399 295.983L342.13 294.968L342.745 291.341C343.013 290.233 342.98 289.025 343.037 287.886Z"/>
	<path fill="#100919" d="M342.745 291.341C344.276 292.883 344.564 294.968 346.231 296.41L346.232 297.105L345.767 297.541L342.399 295.983L342.13 294.968L342.745 291.341Z"/>
	<path fill="#0A070F" d="M343.806 433.496C345.273 436.688 344.74 441.2 344.731 444.726L347.855 441.602C347.73 441.111 347.562 440.927 347.867 440.43L348.489 439.873C349.538 438.943 350.1 437.792 350.977 436.735C353.293 433.941 355.252 431.343 357.373 428.404C359.735 425.13 362.332 422.029 364.648 418.722L365.234 419.336L365.739 419.336L348.831 443.4L348.544 443.569C347.74 444.684 347.472 445.683 347.178 447.014C346.585 446.905 346.391 446.79 345.898 446.474L345.671 444.959C345.037 445.175 344.81 445.018 344.173 444.872L344.065 443.729C344.485 440.398 343.892 436.852 343.806 433.496Z"/>
	<path fill="#2D2D37" d="M345.671 444.959C346.363 444.158 346.902 443.572 347.841 443.069L348.544 443.569C347.74 444.684 347.472 445.683 347.178 447.014C346.585 446.905 346.391 446.79 345.898 446.474L345.671 444.959Z"/>
	<path fill="#0A070F" d="M400.717 251.458C403.12 254.384 405.09 257.608 407.464 260.522C412.262 266.411 418.09 272.482 424.361 276.784C425.394 277.494 426.744 277.87 427.879 278.414C431.199 280.005 434.437 281.37 437.942 282.52C438.152 282.589 439.328 282.884 439.342 283.071L438.929 283.106C436.09 283.268 432.992 281.438 430.38 280.573C429.414 280.254 428.324 279.289 427.342 279.299C429.203 280.232 431.6 281.828 433.577 282.318C435.063 282.687 436.513 283.752 438.033 284.254L438.18 284.629C436.685 284.607 435.156 283.855 433.789 283.293C429.973 281.723 425.551 279.641 422.309 277.079C420.446 275.606 418.325 274.446 416.541 272.878C412.385 269.226 408.689 264.371 405.08 260.156L405.273 259.766C405.763 260.255 406.338 261.133 407.031 261.133C406.745 260.273 406.136 259.808 405.652 259.082C404.027 256.644 402.126 254.361 400.634 251.844L400.717 251.458Z"/>
	<path fill="#1D1D24" d="M382.084 463.761C388.048 468.603 392.738 474.151 397.579 480.075L397.461 450.831C397.717 451.321 398.098 451.737 397.961 452.283L397.656 453.711C398.09 454.362 398.167 454.967 397.949 455.762L397.797 456.102C397.278 457.312 397.642 460.124 397.656 461.523C398.555 462.872 398.047 477.293 398.047 479.883L397.068 480.176C397.365 480.674 397.618 481.053 398.047 481.445L398.047 491.211L398.438 491.211L398.438 447.852L398.647 447.852L399.34 480.34L409.292 469.505L410.054 470.612C407.269 473.285 404.985 476.235 402.428 479.104C401.25 480.425 399.469 481.788 399.312 483.594C399.083 486.218 399.737 489.512 398.934 491.992L398.047 492.196L397.285 491.602L397.495 481.605C394.309 479.415 391.947 475.72 389.389 472.852C386.821 469.973 383.986 467.394 381.02 464.935L382.084 463.761Z"/>
	<path fill="#332F3B" d="M438.18 284.629L438.033 284.254C436.513 283.752 435.063 282.687 433.577 282.318C431.6 281.828 429.203 280.232 427.342 279.299C428.324 279.289 429.414 280.254 430.38 280.573C432.992 281.438 436.09 283.268 438.929 283.106L439.342 283.071C444.582 283.82 449.321 284.765 454.661 284.777L456.761 282.23L457.214 282.094C457.822 281.905 457.584 281.999 458.105 281.738L458.219 283.211C457.812 284.087 456.564 286.069 456.802 286.919C457.037 287.76 456.819 288.75 456.711 289.605C456.487 291.337 456.456 293.709 457.377 295.239L455.615 295.989L452.468 297.408L450.566 295.315L448.605 296.543L448.415 295.118C449.308 292.409 451.888 289.606 453.619 287.344C452.5 286.715 450.412 286.809 449.092 286.619C445.402 286.087 441.794 285.572 438.18 284.629Z"/>
	<path fill="#100919" d="M450.566 295.315C452.183 293.233 453.404 291.118 454.776 288.889L455.494 289.126L456.711 289.605C456.487 291.337 456.456 293.709 457.377 295.239L455.615 295.989L452.468 297.408L450.566 295.315Z"/>
	<path fill="#351930" d="M455.494 289.126L456.711 289.605C456.487 291.337 456.456 293.709 457.377 295.239L455.615 295.989C455.119 293.899 454.896 291.198 455.494 289.126Z"/>
	<path fill="#1D1D24" d="M461.362 400.525C461.424 400.377 463.313 399.415 463.576 399.268C462.102 402.404 461.344 405.873 460.417 409.202C456.967 421.585 454.681 434.97 455.158 447.852C456.21 448.475 456.428 448.438 456.839 449.638C456.515 449.918 456.028 450.478 455.664 450.655C455.193 450.884 453.781 450.848 453.216 450.909C450.961 451.152 448.677 451.616 446.409 451.616L446.392 451.446L445.508 451.172C445.251 451.323 445.153 451.403 444.824 451.465C444.259 451.57 443.147 451.586 442.676 451.27L444.384 451.074L443.375 450.785C445.379 450.014 450.387 449.68 451.799 448.304C448.795 447.175 445.517 440.839 443.622 438.086C440.854 434.063 437.878 430.193 435.175 426.12C433.095 422.984 431.304 419.673 429.102 416.619L429.297 416.03C431.845 416.983 435.761 423.941 437.406 426.291C440.723 431.03 444.117 435.679 447.558 440.326C449.519 442.974 451.173 445.723 453.382 448.185C453.42 438.076 454.331 428.569 456.33 418.645C457.092 414.863 458.123 411.102 459.281 407.424C459.892 405.482 461.674 402.41 461.362 400.525Z"/>
	<defs>
		<linearGradient id="gradient_13" gradientUnits="userSpaceOnUse" x1="431.44501" y1="483.789" x2="384.38501" y2="418.953">
			<stop offset="0" stop-color="black"/>
			<stop offset="1" stop-color="#100D1C"/>
		</linearGradient>
	</defs>
	<path fill="url(#gradient_13)" d="M348.544 443.569L348.831 443.4L350.222 444.336C350.431 446.028 350.242 448.24 350.887 449.799C358.105 450.637 367.302 453.698 373.532 457.433C376.568 459.253 379.299 461.584 382.084 463.761L381.02 464.935C383.986 467.394 386.821 469.973 389.389 472.852C391.947 475.72 394.309 479.415 397.495 481.605L397.285 491.602L398.047 492.196L398.934 491.992C399.737 489.512 399.083 486.218 399.312 483.594C399.469 481.788 401.25 480.425 402.428 479.104C404.985 476.235 407.269 473.285 410.054 470.612L409.292 469.505C411.334 467.028 414.055 464.916 416.579 462.952C424.528 456.769 433.277 452.076 443.375 450.785L444.384 451.074L442.676 451.27C443.147 451.586 444.259 451.57 444.824 451.465C445.153 451.403 445.251 451.323 445.508 451.172L446.392 451.446L446.409 451.616C448.677 451.616 450.961 451.152 453.216 450.909C453.781 450.848 455.193 450.884 455.664 450.655C456.028 450.478 456.515 449.918 456.839 449.638L456.962 450.669C449.609 466.283 438.037 484.027 421.2 490.116C407.239 495.165 387.779 495.329 374.202 488.782C368.727 486.142 363.664 481.799 359.568 477.375C358.799 476.543 357.255 475.133 356.847 474.11C355.335 472.655 354.13 470.635 352.923 468.915C349.489 464.022 346.671 458.847 343.777 453.624L343.616 452.517C342.988 449.98 344.071 448.499 344.254 446.018L344.288 445.529L344.173 444.872C344.81 445.018 345.037 445.175 345.671 444.959L345.898 446.474C346.391 446.79 346.585 446.905 347.178 447.014C347.472 445.683 347.74 444.684 348.544 443.569Z"/>
	<path fill="#332F3B" d="M344.173 444.872C344.81 445.018 345.037 445.175 345.671 444.959L345.898 446.474C346.391 446.79 346.585 446.905 347.178 447.014C346.918 447.457 346.211 448.324 346.348 448.805C346.627 449.783 347.226 450.684 347.556 451.667C347.822 452.461 348.225 453.177 348.629 453.906L348.887 453.969C349.318 454.115 349.505 454.363 349.801 454.688L349.805 456.059L350.389 456.252C350.568 457.019 350.601 457.624 350.586 458.402L350.926 458.815L351.766 459.997C352.055 460.447 352.239 460.692 352.732 460.939C353.137 461.75 353.377 461.896 353.123 462.793C351.682 462.104 351.014 460.934 349.902 459.863L348.723 457.12C348.309 455.869 347.631 454.794 347.29 453.514C346.541 450.696 344.837 448.532 344.288 445.529L344.173 444.872Z"/>
	<path fill="#2D2D37" d="M344.288 445.529C344.837 448.532 346.541 450.696 347.29 453.514C347.631 454.794 348.309 455.869 348.723 457.12L349.902 459.863C349.942 460.253 349.994 460.571 350.101 460.946C350.411 462.044 349.935 462.698 350.582 463.672L350.779 464.16C351.987 466.261 353.738 468.361 355.076 470.41L355.66 471.094L356.248 471.973C356.792 472.789 356.759 473.143 356.847 474.11C355.335 472.655 354.13 470.635 352.923 468.915C349.489 464.022 346.671 458.847 343.777 453.624L343.616 452.517C342.988 449.98 344.071 448.499 344.254 446.018L344.288 445.529Z"/>
	<path fill="#2D2D37" d="M409.292 469.505C411.334 467.028 414.055 464.916 416.579 462.952C424.528 456.769 433.277 452.076 443.375 450.785L444.384 451.074L442.676 451.27C443.147 451.586 444.259 451.57 444.824 451.465C445.153 451.403 445.251 451.323 445.508 451.172L446.392 451.446L446.409 451.616C431.725 453.817 420.342 460.069 410.054 470.612L409.292 469.505Z"/>
	<path fill="#2D2D37" d="M381.02 464.935C378.364 462.969 375.701 460.657 372.828 459.049L372.354 458.789C369.034 456.925 365.174 455.269 361.526 454.179C358.815 453.368 352.218 451.23 349.805 452.535L348.828 452.145C347.892 451.569 347.418 450.443 347.266 449.414L347.852 448.721L350.887 449.799C358.105 450.637 367.302 453.698 373.532 457.433C376.568 459.253 379.299 461.584 382.084 463.761L381.02 464.935Z"/>
	<defs>
		<linearGradient id="gradient_14" gradientUnits="userSpaceOnUse" x1="422.461" y1="379.492" x2="441.93799" y2="289.31799">
			<stop offset="0" stop-color="white"/>
			<stop offset="1" stop-color="#F2FFFD"/>
		</linearGradient>
	</defs>
	<path fill="url(#gradient_14)" d="M483.25 287.724L489.96 286.533C492.981 297.353 493.85 309.084 494.481 320.267C494.698 324.107 494.352 328.583 495.068 332.318L494.416 336.013L494.635 336.264C494.178 342.138 493.144 348.142 491.406 353.782C490.523 356.647 489.209 359.387 488.263 362.242C487.481 364.601 486.983 367.433 485.927 369.645C484.881 371.837 483.191 373.776 482.07 375.974C480.632 378.791 479.441 382.009 477.481 384.502C474.946 387.727 472.287 391.015 469.344 393.88C467.559 395.618 465.042 397.312 463.576 399.268C463.313 399.415 461.424 400.377 461.362 400.525C458.416 402.092 455.297 403.953 452.148 405.045C447.43 406.682 440.509 406.585 435.743 405.393C425.538 402.84 418.903 393.93 413.701 385.396C410.144 380.05 407.94 373.987 406.055 367.889C404.552 363.029 410.755 345.495 412.86 339.943C415.964 331.754 420.579 322.699 426.132 315.892C431.463 309.355 440.346 302.81 448.053 299.352C448.426 298.432 448.498 297.524 448.605 296.543L450.566 295.315L452.468 297.408L455.615 295.989L457.377 295.239L464.968 292.517L482.101 287.825L483.25 287.724Z"/>
	<defs>
		<linearGradient id="gradient_15" gradientUnits="userSpaceOnUse" x1="406.836" y1="367.77301" x2="485.81299" y2="345.06">
			<stop offset="0" stop-color="#CA003A"/>
			<stop offset="1" stop-color="#EC3B6C"/>
		</linearGradient>
	</defs>
	<path fill="url(#gradient_15)" d="M483.25 287.724L489.96 286.533C492.981 297.353 493.85 309.084 494.481 320.267C494.698 324.107 494.352 328.583 495.068 332.318L494.416 336.013C494.199 336.265 494.002 336.488 493.752 336.707L493.559 335.938L494.043 335.449L493.361 334.764C493.128 333.823 493.245 333.855 493.75 333.008L493.164 333.395L492.189 332.42C492.069 331.765 491.982 330.75 491.504 330.271C491.456 330.857 491.4 331.354 491.211 331.912C491.163 328.103 491.475 323.777 490.748 320.055L490.673 319.705L490.529 331.287C490.503 335.621 489.544 339.591 489.322 343.83L488.053 343.824C487.481 345.856 486.762 348.242 486.531 350.327C486.062 350.388 485.893 350.67 485.547 350.977L484.961 350.59L484.766 351.758L483.301 351.76L483.203 350.391L483.752 349.8L483.045 348.821C483.838 344.399 484.646 340.023 484.962 335.535C485.702 325.044 484.761 314.519 483.499 304.111L482.231 296.907C468.018 300.222 450.891 305.851 439.636 315.565C435.697 318.964 432.29 323.252 429.556 327.676C424.806 335.363 421.354 343.71 418.753 352.344C417.492 356.527 416.205 361.013 415.714 365.359C415.566 366.673 416.27 368.148 416.714 369.367C418.141 373.281 419.884 376.91 421.893 380.559L421.895 380.916L421.662 381.986C420.881 382.407 420.452 382.851 419.531 382.6C418.726 382.381 417.899 381.776 417.188 381.333C416.199 382.133 416.632 382.724 416.031 383.594C415.559 384.276 414.39 384.936 413.701 385.396C410.144 380.05 407.94 373.987 406.055 367.889C404.552 363.029 410.755 345.495 412.86 339.943C415.964 331.754 420.579 322.699 426.132 315.892C431.463 309.355 440.346 302.81 448.053 299.352C448.426 298.432 448.498 297.524 448.605 296.543L450.566 295.315L452.468 297.408L455.615 295.989L457.377 295.239L464.968 292.517L482.101 287.825L483.25 287.724Z"/>
	<path fill="#351930" d="M450.566 295.315L452.468 297.408L448.053 299.352C448.426 298.432 448.498 297.524 448.605 296.543L450.566 295.315Z"/>
	<path fill="#970125" d="M468.504 295.21C474.606 293.72 480.891 291.593 487.094 290.725L490.673 319.705L490.529 331.287C489.034 329.27 490.071 323.311 489.508 320.49C488.656 311.123 488.253 301.453 485.832 292.312L484.701 292.537C470.152 295.073 454.955 300.596 442.586 308.652C440.024 310.321 437.405 311.808 435.109 313.855C431.75 316.85 428.96 320.737 426.143 324.246C427.701 320.927 429.587 318.893 431.972 316.211C441.015 306.039 453.316 300.632 465.917 296.111L468.504 295.21Z"/>
	<path fill="#ED3876" d="M483.25 287.724L489.96 286.533C492.981 297.353 493.85 309.084 494.481 320.267C494.698 324.107 494.352 328.583 495.068 332.318L494.416 336.013C494.199 336.265 494.002 336.488 493.752 336.707L493.559 335.938L494.043 335.449L493.361 334.764C493.128 333.823 493.245 333.855 493.75 333.008L493.164 333.395L492.189 332.42C492.069 331.765 491.982 330.75 491.504 330.271C491.456 330.857 491.4 331.354 491.211 331.912C491.163 328.103 491.475 323.777 490.748 320.055L490.673 319.705L487.094 290.725C480.891 291.593 474.606 293.72 468.504 295.21L466.016 295.121L465.625 295.508C464.146 295.511 463.911 295.541 462.695 294.73C463.034 293.693 463.106 294.369 463.867 293.941C464.159 293.778 464.73 292.825 464.968 292.517L482.101 287.825L483.25 287.724Z"/>
	<path fill="#ED3876" d="M484.701 292.537L485.832 292.312C488.253 301.453 488.656 311.123 489.508 320.49C490.071 323.311 489.034 329.27 490.529 331.287C490.503 335.621 489.544 339.591 489.322 343.83L488.053 343.824C487.481 345.856 486.762 348.242 486.531 350.327C486.062 350.388 485.893 350.67 485.547 350.977L484.961 350.59L484.766 351.758L483.301 351.76L483.203 350.391L483.752 349.8L483.045 348.821C483.838 344.399 484.646 340.023 484.962 335.535C485.702 325.044 484.761 314.519 483.499 304.111L484.176 302.344C483.935 301.287 483.827 300.301 483.785 299.219L483.398 298.828C483.436 298.274 483.495 297.838 483.264 297.318C482.879 296.451 482.777 296.475 481.934 296.191C481.3 296.446 481.019 296.38 480.361 296.32L480.078 296.293C479.695 296.595 479.521 296.68 479.032 296.778C478.508 296.884 478.026 297.18 477.539 297.266C476.806 297.394 476.47 297.189 475.831 297.719C475.538 297.962 473.676 298.355 473.047 298.633C471.521 298.415 471.528 298.261 470.508 297.074L470.703 296.68C471.425 296.428 472.138 296.317 472.852 296.094C474.515 295.574 476.709 295.448 478.265 294.781C478.951 294.488 479.663 294.58 480.347 294.287C480.873 294.061 481.404 294.03 481.943 293.847L482.812 293.555C483.752 293.401 483.935 293.133 484.701 292.537Z"/>
	<path fill="#B8023C" d="M489.508 320.49C490.071 323.311 489.034 329.27 490.529 331.287C490.503 335.621 489.544 339.591 489.322 343.83L488.053 343.824C489.039 335.919 489.484 328.449 489.508 320.49Z"/>
	<defs>
		<linearGradient id="gradient_16" gradientUnits="userSpaceOnUse" x1="437.30499" y1="395.508" x2="461.36301" y2="345.901">
			<stop offset="0" stop-color="white"/>
			<stop offset="1" stop-color="white"/>
		</linearGradient>
	</defs>
	<path fill="url(#gradient_16)" d="M490.673 319.705L490.748 320.055C491.475 323.777 491.163 328.103 491.211 331.912C491.4 331.354 491.456 330.857 491.504 330.271C491.982 330.75 492.069 331.765 492.189 332.42L493.164 333.395L493.75 333.008C493.245 333.855 493.128 333.823 493.361 334.764L494.043 335.449L493.559 335.938L493.752 336.707C494.002 336.488 494.199 336.265 494.416 336.013L494.635 336.264C494.178 342.138 493.144 348.142 491.406 353.782C490.523 356.647 489.209 359.387 488.263 362.242C487.481 364.601 486.983 367.433 485.927 369.645C484.881 371.837 483.191 373.776 482.07 375.974C480.632 378.791 479.441 382.009 477.481 384.502C474.946 387.727 472.287 391.015 469.344 393.88C467.559 395.618 465.042 397.312 463.576 399.268C463.313 399.415 461.424 400.377 461.362 400.525C458.416 402.092 455.297 403.953 452.148 405.045C447.43 406.682 440.509 406.585 435.743 405.393C425.538 402.84 418.903 393.93 413.701 385.396C414.39 384.936 415.559 384.276 416.031 383.594C416.632 382.724 416.199 382.133 417.188 381.333C417.899 381.776 418.726 382.381 419.531 382.6C420.452 382.851 420.881 382.407 421.662 381.986L421.895 380.916L421.893 380.559C424.373 379.956 426.479 378.894 428.855 378.049C442.939 373.038 456.245 365.826 469.541 359.051C471.931 357.833 474.259 356.502 476.6 355.192C477.293 354.805 478.658 353.781 479.386 353.637C479.983 353.518 480.909 353.628 481.534 353.624L483.045 348.821L483.752 349.8L483.203 350.391L483.301 351.76L484.766 351.758L484.961 350.59L485.547 350.977C485.893 350.67 486.062 350.388 486.531 350.327C486.762 348.242 487.481 345.856 488.053 343.824L489.322 343.83C489.544 339.591 490.503 335.621 490.529 331.287L490.673 319.705Z"/>
	<defs>
		<linearGradient id="gradient_17" gradientUnits="userSpaceOnUse" x1="452.539" y1="404.10199" x2="432.38101" y2="354.19199">
			<stop offset="0" stop-color="#940031"/>
			<stop offset="1" stop-color="#C2134F"/>
		</linearGradient>
	</defs>
	<path fill="url(#gradient_17)" d="M490.673 319.705L490.748 320.055C491.475 323.777 491.163 328.103 491.211 331.912C491.4 331.354 491.456 330.857 491.504 330.271C491.982 330.75 492.069 331.765 492.189 332.42L493.164 333.395L493.75 333.008C493.245 333.855 493.128 333.823 493.361 334.764L494.043 335.449L493.559 335.938L493.752 336.707C494.002 336.488 494.199 336.265 494.416 336.013L494.635 336.264C494.178 342.138 493.144 348.142 491.406 353.782C490.523 356.647 489.209 359.387 488.263 362.242C487.481 364.601 486.983 367.433 485.927 369.645C484.881 371.837 483.191 373.776 482.07 375.974C480.632 378.791 479.441 382.009 477.481 384.502C474.946 387.727 472.287 391.015 469.344 393.88C467.559 395.618 465.042 397.312 463.576 399.268C463.313 399.415 461.424 400.377 461.362 400.525C458.416 402.092 455.297 403.953 452.148 405.045C447.43 406.682 440.509 406.585 435.743 405.393C425.538 402.84 418.903 393.93 413.701 385.396C414.39 384.936 415.559 384.276 416.031 383.594C416.632 382.724 416.199 382.133 417.188 381.333C417.899 381.776 418.726 382.381 419.531 382.6C420.452 382.851 420.881 382.407 421.662 381.986L421.895 380.916C425.539 386.803 428.523 392.042 434.888 395.334C438.54 397.223 444.579 397.978 448.54 396.673C464.545 391.399 472.144 374.452 479.175 360.708C480.22 358.466 480.828 355.991 481.534 353.624L483.045 348.821L483.752 349.8L483.203 350.391L483.301 351.76L484.766 351.758L484.961 350.59L485.547 350.977C485.893 350.67 486.062 350.388 486.531 350.327C486.762 348.242 487.481 345.856 488.053 343.824L489.322 343.83C489.544 339.591 490.503 335.621 490.529 331.287L490.673 319.705Z"/>
	<path fill="#970125" d="M486.531 350.327C486.762 348.242 487.481 345.856 488.053 343.824L489.322 343.83L488.848 349.414L488.086 349.801L487.695 348.828L487.691 349.414C487.632 349.74 487.368 350.12 487.205 350.391C487.845 351.418 487.691 352.153 487.691 353.32C486.666 354.858 488.066 356.588 486.52 358.008L486.459 358.434C486.33 359.088 486.099 359.413 485.742 359.957C485.415 360.074 485.215 360.154 484.863 360.154C484.94 359.158 485.358 357.804 485.706 356.88C486.006 356.08 485.857 354.87 485.84 354.004L485.387 354.634C484.933 353.455 486.061 351.495 486.531 350.327Z"/>
	<path fill="#B8023C" d="M483.045 348.821L483.752 349.8L483.203 350.391L483.301 351.76L484.766 351.758L484.961 350.59L485.547 350.977C485.893 350.67 486.062 350.388 486.531 350.327C486.061 351.495 484.933 353.455 485.387 354.634C485.106 355.725 484.645 356.27 484.202 357.227C483.341 359.088 483.56 360.588 481.641 361.855C480.374 361.647 480.16 361.535 479.175 360.708C480.22 358.466 480.828 355.991 481.534 353.624L483.045 348.821Z"/>
</svg>
