<?xml version="1.0" encoding="utf-8" ?>
<svg xmlns="http://www.w3.org/2000/svg" xmlns:xlink="http://www.w3.org/1999/xlink" width="800" height="600">
	<path fill="white" d="M0 0.195312C1.7549 -0.189278 3.73802 -0.00294089 5.54009 -0.00262959C8.7651 -0.00207249 11.9901 -0.00273718 15.2151 -0.00307689C27.6824 -0.00439015 40.1498 -0.00484362 52.6171 -0.00545381C102.37 -0.00788885 152.123 -0.0100449 201.875 -0.0109017C401.25 -0.0143352 600.625 -0.00786761 800 0L800 599.805C798.245 600.189 796.262 600.003 794.46 600.003C791.235 600.002 788.01 600.003 784.785 600.003C772.318 600.004 759.85 600.005 747.383 600.005C697.63 600.008 647.877 600.01 598.125 600.011C398.75 600.014 199.375 600.008 -0 600L0 0.195312Z"/>
	<path fill="#4A4755" d="M482.254 211.492L487.006 218.984C485.625 219.09 484.614 219.099 483.448 218.294L482.617 216.009C482.157 214.698 481.943 213.919 480.85 213.013L482.254 211.492Z"/>
	<path fill="#757D8C" d="M307.137 205.407C307.722 205.468 308.307 205.477 308.887 205.529L310.063 205.855C308.228 208.197 306.363 211.662 304.329 213.656C303.122 213.803 302.103 214.094 300.966 214.519C302.61 211.349 304.895 208.183 307.137 205.407Z"/>
	<path fill="#3A3743" d="M483.448 218.294C484.614 219.099 485.625 219.09 487.006 218.984C489.463 223.75 492.205 228.656 493.972 233.721C489.351 229.894 488.817 223.527 484.441 219.618C483.919 219.151 483.678 218.982 483.448 218.294Z"/>
	<path fill="#5A5A6B" d="M298.71 370.198C301.132 370.865 302.947 374.308 304.508 376.197L304.574 377.244C304.672 378.737 304.692 380.275 305.015 381.739C304.788 383.285 304.688 383.335 303.568 384.463L298.71 370.198Z"/>
	<path fill="#757D8C" d="M342.819 173.101C348.301 169.676 354.27 166.485 360.48 164.621L360.613 165.291C360.015 165.724 360.367 165.56 359.826 165.698C358.652 165.995 357.512 166.72 356.519 167.401C354.757 168.608 353.526 169.657 352.004 171.231L345.74 175.199L341.992 175.199L342.819 173.101Z"/>
	<path fill="#66697B" d="M281.345 274.341C282.159 264.47 283.852 255.292 286.643 245.783C287.622 242.447 288.548 238.894 290.127 235.791C290.62 236.64 290.907 237.241 291.038 238.218L291.265 238.472C290.312 239.621 289.973 240.35 289.668 241.797L289.578 242.188L286.784 252.499C286.597 255.673 285.404 258.446 284.791 261.523C283.519 267.914 283.674 275.416 281.236 281.501L281.345 274.341Z"/>
	<path fill="#73798A" d="M286.784 252.499L289.578 242.188L289.668 241.797C289.973 240.35 290.312 239.621 291.265 238.472L292.116 239.47C291.119 243.093 289.765 246.669 288.826 250.277C287.029 257.175 285.947 263.934 285.033 270.984C284.733 273.299 284.21 275.596 284.084 277.93C283.731 284.51 284.392 291.118 284.081 297.683C284.051 298.917 284.011 299.979 283.765 301.172C283.4 302.949 282.968 304.492 282.746 306.371C282.246 304.278 282.155 301.947 281.899 299.805C281.181 293.788 280.714 287.549 281.236 281.501C283.674 275.416 283.519 267.914 284.791 261.523C285.404 258.446 286.597 255.673 286.784 252.499Z"/>
	<path fill="#73798A" d="M307.137 205.407C316.183 192.403 329.288 181.18 342.819 173.101L341.992 175.199L345.74 175.199C342.917 176.778 339.817 178.329 337.171 180.19C331.937 183.872 327.34 188.165 322.635 192.463C318.591 196.157 314.089 200.205 310.939 204.689L310.063 205.855L308.887 205.529C308.307 205.477 307.722 205.468 307.137 205.407Z"/>
	<path fill="#4A4755" d="M304.508 376.197L311.021 381.704C311.081 384.152 312.419 387.978 313.834 389.996C314.218 391.837 315.14 393.558 315.912 395.266C315.86 397.091 315.861 398.464 316.215 400.195C316.395 401.077 316.6 402.054 316.734 402.953C317.117 405.505 318.47 409.032 319.34 411.523C320.102 413.708 320.448 415.992 321.308 418.164C322.068 420.082 322.852 422.221 323.193 424.261L323.572 425.908L323.819 426.01C323.587 428.204 323.588 429.743 324.41 431.836L324.496 432.13C324.721 432.8 325.155 433.351 325.596 433.889C326.695 435.227 326.375 436.716 326.3 438.336L316.783 417.529L315.566 414.728L303.568 384.463C304.688 383.335 304.788 383.285 305.015 381.739C304.692 380.275 304.672 378.737 304.574 377.244L304.508 376.197Z"/>
	<path fill="#3F3A49" d="M316.531 406.181C318.067 408.781 318.603 411.176 318.84 414.158C318.892 414.809 319.057 415.112 319.442 415.624C319.812 416.117 320.022 416.649 319.924 417.285L319.772 417.773L319.907 418.004C321.107 420.101 321.618 422.344 323.193 424.261L323.572 425.908C322.698 424.968 321.876 424.149 320.731 423.545L320.504 423.438C320.076 422.579 319.525 421.688 319.222 420.78C319.075 420.341 318.985 419.951 318.724 419.558L318.555 419.34L318.653 418.652C317.569 416.346 317.951 413.559 317.775 411.069C317.656 409.388 317.086 407.761 316.531 406.181Z"/>
	<path fill="#4A4C5F" d="M304.574 377.244L305.589 379.253C306.193 383.453 308.068 389.06 310.196 392.746C311.087 394.289 311.246 396.452 311.898 398.148C313.322 401.856 316.169 405.974 316.884 409.766C317.345 412.21 316.999 415.054 316.783 417.529L315.566 414.728L315.85 412.5L316.211 412.109C316.242 411.564 316.238 411.164 316.087 410.632C315.659 409.13 315.293 407.484 314.648 406.067C313.951 404.532 312.834 403.198 312.182 401.64C311.311 399.56 310.889 397.316 309.952 395.259C309.308 393.844 308.201 392.414 307.76 390.943L307.613 390.43C307.418 389.877 307.201 389.44 307.104 388.856C307.039 388.472 307.004 387.86 306.832 387.5C306.039 385.834 305.538 383.576 305.015 381.739C304.692 380.275 304.672 378.737 304.574 377.244Z"/>
	<path fill="#4A4755" d="M305.015 381.739C305.538 383.576 306.039 385.834 306.832 387.5C307.004 387.86 307.039 388.472 307.104 388.856C307.201 389.44 307.418 389.877 307.613 390.43L307.76 390.943C308.201 392.414 309.308 393.844 309.952 395.259C310.889 397.316 311.311 399.56 312.182 401.64C312.834 403.198 313.951 404.532 314.648 406.067C315.293 407.484 315.659 409.13 316.087 410.632C316.238 411.164 316.242 411.564 316.211 412.109L315.85 412.5L315.566 414.728L303.568 384.463C304.688 383.335 304.788 383.285 305.015 381.739Z"/>
	<path fill="#3A3743" d="M304.508 376.197L311.021 381.704C311.081 384.152 312.419 387.978 313.834 389.996C314.218 391.837 315.14 393.558 315.912 395.266C315.86 397.091 315.861 398.464 316.215 400.195C316.395 401.077 316.6 402.054 316.734 402.953C317.117 405.505 318.47 409.032 319.34 411.523C320.102 413.708 320.448 415.992 321.308 418.164C322.068 420.082 322.852 422.221 323.193 424.261C321.618 422.344 321.107 420.101 319.907 418.004L319.772 417.773L319.924 417.285C320.022 416.649 319.812 416.117 319.442 415.624C319.057 415.112 318.892 414.809 318.84 414.158C318.603 411.176 318.067 408.781 316.531 406.181C316.338 405.113 315.426 403.664 314.969 402.646C313.816 400.078 312.71 397.479 311.662 394.867C311.189 393.687 311.096 392.48 310.701 391.294C309.425 387.47 307.684 382.676 305.589 379.253L304.574 377.244L304.508 376.197Z"/>
	<defs>
		<linearGradient id="gradient_0" gradientUnits="userSpaceOnUse" x1="293.94501" y1="294.72699" x2="283.24399" y2="292.46399">
			<stop offset="0" stop-color="#171327"/>
			<stop offset="1" stop-color="#333648"/>
		</linearGradient>
	</defs>
	<path fill="url(#gradient_0)" d="M292.116 239.47C293.16 240.767 293.939 241.823 294.511 243.41L294.952 243.903C296.291 246.59 298.071 248.897 299.322 251.672C299.602 252.17 299.815 252.672 300.258 253.043L300.995 253.96C300.243 257.023 300.111 260.141 299.861 263.272L299.156 270.907C299.198 278.141 297.539 286.258 296.342 293.411C295.978 295.585 294.854 298.889 295.053 300.999L291.873 300.636L289.371 300.192C288.166 301.244 288.389 303.731 288.035 305.337L285.742 307.456L285.031 307.227C284.796 303.963 284.725 300.922 284.081 297.683C284.392 291.118 283.731 284.51 284.084 277.93C284.21 275.596 284.733 273.299 285.033 270.984C285.947 263.934 287.029 257.175 288.826 250.277C289.765 246.669 291.119 243.093 292.116 239.47Z"/>
	<path fill="#4A4C5F" d="M298.803 258.574C298.873 259.972 298.73 261.866 299.224 263.165L299.861 263.272L299.156 270.907C298.923 270.752 298.53 270.857 298.254 270.874L297.918 267.781L298.803 258.574Z"/>
	<path fill="#5A5A6B" d="M299.322 251.672C299.602 252.17 299.815 252.672 300.258 253.043L300.995 253.96C300.243 257.023 300.111 260.141 299.861 263.272L299.224 263.165C298.73 261.866 298.873 259.972 298.803 258.574C298.732 256.278 299.079 253.953 299.322 251.672Z"/>
	<path fill="#4A4755" d="M291.873 300.636L293.164 300.401C294.614 296.652 295.075 291.993 295.61 288.015C296.515 281.278 297.23 274.542 297.918 267.781L298.254 270.874C298.53 270.857 298.923 270.752 299.156 270.907C299.198 278.141 297.539 286.258 296.342 293.411C295.978 295.585 294.854 298.889 295.053 300.999L291.873 300.636Z"/>
	<path fill="#4A4C5F" d="M292.116 239.47C293.16 240.767 293.939 241.823 294.511 243.41L293.538 243.855L293.536 244.305C293.506 246.525 292.153 249.723 291.138 251.717C290.326 253.31 290.269 255.541 289.888 257.304C289.439 259.381 288.68 261.359 288.352 263.477C286.804 273.485 286.507 283.649 287.382 293.722C287.573 295.918 287.393 297.865 288.086 300.002L288.437 299.973C288.994 299.952 288.789 299.945 289.371 300.192C288.166 301.244 288.389 303.731 288.035 305.337L285.742 307.456L285.031 307.227C284.796 303.963 284.725 300.922 284.081 297.683C284.392 291.118 283.731 284.51 284.084 277.93C284.21 275.596 284.733 273.299 285.033 270.984C285.947 263.934 287.029 257.175 288.826 250.277C289.765 246.669 291.119 243.093 292.116 239.47Z"/>
	<path fill="#1A1627" d="M301.197 251.569C301.678 253.379 303.868 255.67 304.95 257.391C306.647 260.089 308.154 262.926 309.712 265.707C312.99 270.622 316.864 275.926 319.311 281.294L318.824 281.654C319.051 282.271 319.476 283.241 319.969 283.696C320.503 284.296 321.093 284.659 321.096 285.485L321.893 286.39L322.025 286.689L321.566 288.199C320.42 293.803 320.583 300.952 320.695 306.692L319.792 306.535C312.069 303.649 303.14 302.568 295.053 300.999C294.854 298.889 295.978 295.585 296.342 293.411C297.539 286.258 299.198 278.141 299.156 270.907L299.861 263.272C300.111 260.141 300.243 257.023 300.995 253.96L300.258 253.043L301.197 251.569Z"/>
	<path fill="#4A4C5F" d="M301.197 251.569C301.678 253.379 303.868 255.67 304.95 257.391C306.647 260.089 308.154 262.926 309.712 265.707C309.119 266.215 309.362 265.917 308.984 266.602C309.414 267.246 309.402 267.493 309.47 268.277C306.041 264.051 303.864 258.557 300.995 253.96L300.258 253.043L301.197 251.569Z"/>
	<path fill="#3A3743" d="M319.969 283.696C320.503 284.296 321.093 284.659 321.096 285.485L321.893 286.39L322.025 286.689L321.566 288.199C320.42 293.803 320.583 300.952 320.695 306.692L319.792 306.535C318.96 303.751 319.403 300.996 319.465 298.144C319.559 293.821 319.584 289.497 319.745 285.176L319.969 283.696Z"/>
	<path fill="#3F3A49" d="M309.712 265.707C312.99 270.622 316.864 275.926 319.311 281.294L318.824 281.654C319.051 282.271 319.476 283.241 319.969 283.696L319.745 285.176C317.525 281.364 315.152 277.65 312.829 273.901C311.682 272.049 310.308 270.298 309.47 268.277C309.402 267.493 309.414 267.246 308.984 266.602C309.362 265.917 309.119 266.215 309.712 265.707Z"/>
	<path fill="#0D0715" d="M323.819 426.01L324.672 427.314L325.195 428.324L325.488 427.736L325.779 427.736C327.322 429.616 326.426 432.986 327.648 434.351L327.937 434.356L328.72 433.823L328.872 434.074C329.128 434.448 329.025 434.321 329.379 434.557C330.17 435.085 330.178 435.525 330.467 436.33C330.746 437.107 331.364 437.14 331.639 437.502C331.919 437.871 331.845 439.173 331.836 439.652L333.332 441.421C333.994 442.113 334.326 442.556 334.764 443.361C334.949 443.702 335.208 444.082 335.573 444.205C336.651 444.57 337.955 445.232 338.818 445.963C340.874 447.702 344.262 448.322 346.696 449.519C348.998 450.651 351.066 452.47 353.087 454.044L352.539 454.496C352.874 455.024 353.207 455.531 353.478 456.096L367.103 469.034L369.028 471.384L368.573 471.878C369.135 472.447 369.921 472.915 369.924 473.73L370.169 473.941C370.817 474.507 370.997 474.755 371.387 475.488L374.609 479.688C374.628 480.493 374.544 481.544 374.858 482.275C375.727 484.304 374.186 487.901 375.293 489.746C374.319 489.769 373.341 489.926 372.461 489.453C371.579 488.979 370.635 489.113 369.727 488.672C367.656 487.667 364.251 487.547 362.695 485.746C361.969 485.741 361.614 485.605 361.013 486.023C353.475 482.843 346.644 475.08 342.422 468.327C340.473 466.394 339 463.325 337.661 460.924C333.545 453.54 330.238 445.801 326.3 438.336C326.375 436.716 326.695 435.227 325.596 433.889C325.155 433.351 324.721 432.8 324.496 432.13L324.41 431.836C323.588 429.743 323.587 428.204 323.819 426.01Z"/>
	<path fill="#272331" d="M327.937 434.356L328.72 433.823L328.872 434.074C329.128 434.448 329.025 434.321 329.379 434.557C330.17 435.085 330.178 435.525 330.467 436.33C330.746 437.107 331.364 437.14 331.639 437.502C331.919 437.871 331.845 439.173 331.836 439.652L333.332 441.421C333.76 442.897 334.083 444.2 335.096 445.406L335.483 445.494C336.92 445.839 337.911 446.313 339.168 447.07L339.354 447.656L338.977 447.833L337.516 448.628C336.968 448.304 336.567 448.046 335.936 447.91L335.547 447.848C334.868 447.175 334.664 447.743 333.984 447.07L334.766 446.289C334.497 446.241 334.239 446.209 333.984 446.094C333.169 445.724 332.868 445.002 332.538 444.232C332.347 443.786 332.172 443.838 331.738 443.652L331.641 442.188C331.301 441.774 331.054 441.5 330.92 440.967L330.859 440.625C330.429 440.195 330.584 440.303 330.151 440.015L329.883 439.844C329.743 439.028 329.57 438.294 329.105 437.596C328.837 437.195 328.659 436.789 328.463 436.35L327.937 434.356Z"/>
	<path fill="#1A1627" d="M333.332 441.421C333.994 442.113 334.326 442.556 334.764 443.361C334.949 443.702 335.208 444.082 335.573 444.205C336.651 444.57 337.955 445.232 338.818 445.963C340.874 447.702 344.262 448.322 346.696 449.519C348.998 450.651 351.066 452.47 353.087 454.044L352.539 454.496C352.874 455.024 353.207 455.531 353.478 456.096C350.334 453.457 345.69 450.716 341.8 449.475C341.138 449.264 341.01 449.62 340.43 449.584C339.739 449.541 338.335 448.811 337.516 448.628L338.977 447.833L339.354 447.656L339.168 447.07C337.911 446.313 336.92 445.839 335.483 445.494L335.096 445.406C334.083 444.2 333.76 442.897 333.332 441.421Z"/>
	<path fill="#3A3743" d="M323.819 426.01L324.672 427.314L325.195 428.324L325.488 427.736L325.779 427.736C327.322 429.616 326.426 432.986 327.648 434.351L327.937 434.356L328.463 436.35L327.934 436.542C327.931 437.289 327.762 437.331 328.316 437.891C328.318 438.376 328.218 438.693 328.489 439.101C328.822 439.602 328.997 440.15 329.186 440.715C329.454 441.514 329.87 442.124 330.076 442.971C330.288 443.839 330.596 444.181 331.051 444.922C331.452 445.576 331.484 446.134 331.445 446.875L331.832 447.266L331.906 447.602C332.093 448.345 332.363 448.858 332.823 449.458C333.261 450.029 333.183 450.334 333.395 450.977L333.785 451.562C334.286 452.362 334.645 453.215 335.179 454.018C335.417 454.377 335.321 454.228 335.434 454.676C335.651 455.537 336.462 456.635 336.91 457.422L337.107 457.91C337.429 458.645 337.875 459.577 338.279 460.254L338.559 460.565C338.957 461.03 338.998 461.387 339.254 461.914L339.645 462.5L339.842 462.988C340.114 463.451 340.371 463.635 340.623 464.16C341.471 465.929 342.278 466.151 342.422 468.327C340.473 466.394 339 463.325 337.661 460.924C333.545 453.54 330.238 445.801 326.3 438.336C326.375 436.716 326.695 435.227 325.596 433.889C325.155 433.351 324.721 432.8 324.496 432.13L324.41 431.836C323.588 429.743 323.587 428.204 323.819 426.01Z"/>
	<defs>
		<linearGradient id="gradient_1" gradientUnits="userSpaceOnUse" x1="339.64801" y1="234.17999" x2="318.76901" y2="204.539">
			<stop offset="0" stop-color="#1D1D31"/>
			<stop offset="1" stop-color="#31374C"/>
		</linearGradient>
	</defs>
	<path fill="url(#gradient_1)" d="M378.989 159.625L378.611 161.033C377.09 161.137 376.721 161.388 375.473 162.271C376.106 163.035 376.771 163.776 377.272 164.635L376.952 166.698L376.832 169.429L377.14 172.07L377.342 172.202L378.155 171.297L378.184 173.666L377.417 197.22L377.737 197.658C377.588 198.546 377.521 199.249 376.934 199.974C376.606 200.294 374.913 201.734 374.862 202.035C370.476 205.914 366.705 210.863 362.897 215.322C350.384 229.052 336.621 240.706 318.871 247.014C315.358 248.263 311.64 249.021 307.985 249.738C305.992 250.129 302.681 250.046 301.197 251.569L300.258 253.043C299.815 252.672 299.602 252.17 299.322 251.672C298.071 248.897 296.291 246.59 294.952 243.903L294.511 243.41C293.939 241.823 293.16 240.767 292.116 239.47L291.265 238.472L291.038 238.218C290.907 237.241 290.62 236.64 290.127 235.791C292.062 229.977 295.153 223.775 298.51 218.659L300.116 215.87L300.781 214.894L300.966 214.519C302.103 214.094 303.122 213.803 304.329 213.656C306.363 211.662 308.228 208.197 310.063 205.855L310.939 204.689C314.089 200.205 318.591 196.157 322.635 192.463C327.34 188.165 331.937 183.872 337.171 180.19C339.817 178.329 342.917 176.778 345.74 175.199L352.004 171.231C353.526 169.657 354.757 168.608 356.519 167.401C357.512 166.72 358.652 165.995 359.826 165.698C360.367 165.56 360.015 165.724 360.613 165.291L360.48 164.621C366.204 161.939 372.801 160.642 378.989 159.625Z"/>
	<path fill="#73798A" d="M375.958 195.978C376.147 195.749 376.347 195.615 376.371 195.312C376.418 196.499 376.586 196.446 377.417 197.22L377.737 197.658C377.588 198.546 377.521 199.249 376.934 199.974C376.606 200.294 374.913 201.734 374.862 202.035C370.476 205.914 366.705 210.863 362.897 215.322L361.854 214.736C365.042 211.076 368.231 207.401 371.313 203.652C372.594 202.093 374.38 200.314 375.335 198.545C375.739 197.797 375.844 196.805 375.958 195.978Z"/>
	<path fill="#66697B" d="M376.832 169.429L377.14 172.07L377.342 172.202L378.155 171.297L378.184 173.666L377.417 197.22C376.586 196.446 376.418 196.499 376.371 195.312C376.347 195.615 376.147 195.749 375.958 195.978C375.336 194.562 375.83 191.18 375.889 189.546C376.132 182.834 376.46 176.135 376.832 169.429Z"/>
	<path fill="#66697B" d="M361.854 214.736L362.897 215.322C350.384 229.052 336.621 240.706 318.871 247.014C315.358 248.263 311.64 249.021 307.985 249.738C305.992 250.129 302.681 250.046 301.197 251.569L300.258 253.043C299.815 252.672 299.602 252.17 299.322 251.672C298.071 248.897 296.291 246.59 294.952 243.903L295.954 242.942L295.993 242.938L300.382 249.541C318.023 248.492 334.819 240.061 348.021 228.652C352.92 224.419 357.426 219.459 361.854 214.736Z"/>
	<path fill="#73798A" d="M378.989 159.625L378.611 161.033C377.09 161.137 376.721 161.388 375.473 162.271C376.106 163.035 376.771 163.776 377.272 164.635L376.952 166.698C375.606 166.969 374.582 167.286 373.242 166.988C372.709 166.87 372.154 166.962 371.707 167.23C371.131 167.577 370.627 167.71 369.986 167.889C355.448 182.875 340.012 197.294 322.07 208.113C317.442 210.904 312.534 213.793 307.536 215.866L302.124 217.601L302.253 216.527C301.611 216.471 301.157 216.415 300.576 216.115L300.116 215.87L300.781 214.894L300.966 214.519C302.103 214.094 303.122 213.803 304.329 213.656L304.41 214.663L305.014 215.14C307.105 214.767 308.818 214.267 310.626 213.14C330.79 204.071 347.73 188.778 363.152 173.194C364.546 172.451 365.977 170.471 367.067 169.273C368.837 167.855 370.231 165.896 371.66 164.141C370.422 164.342 369.503 164.566 368.359 165.043C366.979 165.619 365.183 165.705 363.735 166.204C359.757 167.575 355.797 169.412 352.004 171.231C353.526 169.657 354.757 168.608 356.519 167.401C357.512 166.72 358.652 165.995 359.826 165.698C360.367 165.56 360.015 165.724 360.613 165.291L360.48 164.621C366.204 161.939 372.801 160.642 378.989 159.625Z"/>
	<path fill="#66697B" d="M300.966 214.519C302.103 214.094 303.122 213.803 304.329 213.656L304.41 214.663L305.014 215.14L301.265 215.857L300.781 214.894L300.966 214.519Z"/>
	<path fill="#5A5A6B" d="M375.473 162.271C376.106 163.035 376.771 163.776 377.272 164.635L376.952 166.698C375.606 166.969 374.582 167.286 373.242 166.988C372.709 166.87 372.154 166.962 371.707 167.23C371.131 167.577 370.627 167.71 369.986 167.889C371.392 165.858 373.702 164.018 375.473 162.271Z"/>
	<path fill="#4A4C5F" d="M298.51 218.659L300.116 215.87L300.576 216.115C301.157 216.415 301.611 216.471 302.253 216.527L302.124 217.601L307.536 215.866C307.305 216.186 306.733 217.209 306.445 217.379C306.324 217.45 305.537 217.512 305.467 217.576C305.367 217.667 305.236 218.859 305.197 219.054C305.07 219.695 304.802 219.795 304.488 220.312C304.136 220.893 304.04 222.883 303.904 223.045C303.112 223.993 302.923 223.011 302.93 224.609L303.316 224.805C302.771 225.167 302.744 225.164 302.539 225.781L302.813 226.172L301.758 227.344L301.878 227.727C300.581 228.73 299.544 232.718 298.768 234.375C297.697 236.663 296.295 238.87 295.14 241.132L295.954 242.942L294.952 243.903L294.511 243.41C293.939 241.823 293.16 240.767 292.116 239.47L291.265 238.472L291.038 238.218C290.907 237.241 290.62 236.64 290.127 235.791C292.062 229.977 295.153 223.775 298.51 218.659Z"/>
	<path fill="#757D8C" d="M298.51 218.659L300.116 215.87L300.576 216.115C301.157 216.415 301.611 216.471 302.253 216.527L302.124 217.601L301.94 217.836L301.835 218.116C299.432 224.369 295.661 230.352 292.628 236.3C293.514 237.798 294.159 239.775 295.14 241.132L295.954 242.942L294.952 243.903L294.511 243.41C293.939 241.823 293.16 240.767 292.116 239.47L291.265 238.472L291.038 238.218C290.907 237.241 290.62 236.64 290.127 235.791C292.062 229.977 295.153 223.775 298.51 218.659Z"/>
	<path fill="#898E9D" d="M298.51 218.659L300.116 215.87L300.576 216.115C301.157 216.415 301.611 216.471 302.253 216.527L302.124 217.601L301.94 217.836L298.51 218.659Z"/>
	<defs>
		<linearGradient id="gradient_2" gradientUnits="userSpaceOnUse" x1="340.42999" y1="193.164" x2="335.48901" y2="186.94299">
			<stop offset="0" stop-color="#2A2D43"/>
			<stop offset="1" stop-color="#3E4559"/>
		</linearGradient>
	</defs>
	<path fill="url(#gradient_2)" d="M352.004 171.231C355.797 169.412 359.757 167.575 363.735 166.204C365.183 165.705 366.979 165.619 368.359 165.043C369.503 164.566 370.422 164.342 371.66 164.141C370.231 165.896 368.837 167.855 367.067 169.273C365.977 170.471 364.546 172.451 363.152 173.194C347.73 188.778 330.79 204.071 310.626 213.14C308.818 214.267 307.105 214.767 305.014 215.14L304.41 214.663L304.329 213.656C306.363 211.662 308.228 208.197 310.063 205.855L310.939 204.689C314.089 200.205 318.591 196.157 322.635 192.463C327.34 188.165 331.937 183.872 337.171 180.19C339.817 178.329 342.917 176.778 345.74 175.199L352.004 171.231Z"/>
	<path fill="#5A5A6B" d="M352.004 171.231C355.797 169.412 359.757 167.575 363.735 166.204C365.183 165.705 366.979 165.619 368.359 165.043C369.503 164.566 370.422 164.342 371.66 164.141C370.231 165.896 368.837 167.855 367.067 169.273C365.977 170.471 364.546 172.451 363.152 173.194L362.203 172.794C360.78 173.624 358.881 175.042 357.312 175.462C355.924 175.833 354.308 175.186 353.125 175.973L352.535 175.586L352.376 175.843C351.854 176.626 351.166 177.041 350.391 177.535C349.883 177.537 349.594 177.437 349.168 177.72C348.77 177.985 348.494 178.007 348.045 178.123L347.691 178.233C347.044 178.387 346.349 178.31 345.69 178.281C341.134 180.56 337.807 183.287 333.789 186.334C332.11 187.607 330.287 188.723 328.711 190.126C326.837 191.794 325.394 193.868 323.633 195.635C322.157 197.116 320.491 198.403 319.037 199.904C316.994 202.013 315.233 204.419 313.311 206.641C311.596 208.625 309.633 210.55 308.789 213.082C307.718 213.48 306.783 213.498 305.66 213.477L305.859 213.871C306.674 213.869 307.212 214.075 307.812 213.48C308.49 213.477 308.453 213.607 308.984 213.114L310.626 213.14C308.818 214.267 307.105 214.767 305.014 215.14L304.41 214.663L304.329 213.656C306.363 211.662 308.228 208.197 310.063 205.855L310.939 204.689C314.089 200.205 318.591 196.157 322.635 192.463C327.34 188.165 331.937 183.872 337.171 180.19C339.817 178.329 342.917 176.778 345.74 175.199L352.004 171.231Z"/>
	<path fill="#4A4C5F" d="M345.69 178.281L347.045 177.304C351.635 174.235 357.465 172.046 362.701 170.354C364.389 169.808 365.251 168.925 367.067 169.273C365.977 170.471 364.546 172.451 363.152 173.194L362.203 172.794C360.78 173.624 358.881 175.042 357.312 175.462C355.924 175.833 354.308 175.186 353.125 175.973L352.535 175.586L352.376 175.843C351.854 176.626 351.166 177.041 350.391 177.535C349.883 177.537 349.594 177.437 349.168 177.72C348.77 177.985 348.494 178.007 348.045 178.123L347.691 178.233C347.044 178.387 346.349 178.31 345.69 178.281Z"/>
	<defs>
		<linearGradient id="gradient_3" gradientUnits="userSpaceOnUse" x1="458.008" y1="241.992" x2="427.702" y2="154.55299">
			<stop offset="0" stop-color="#08000C"/>
			<stop offset="1" stop-color="#2A2E43"/>
		</linearGradient>
	</defs>
	<path fill="url(#gradient_3)" d="M378.989 159.625C383.367 158.643 387.973 158.541 392.443 158.493C411.7 158.284 429.834 164.401 445.988 174.651C450.093 177.256 453.83 180.152 457.555 183.27C459.299 184.73 461.483 186.412 462.822 188.233C467.89 192.66 472.114 197.732 476.298 202.974C478.307 205.49 480.94 208.574 482.254 211.492L480.85 213.013L478.691 217.239L459.58 243.99C457.349 248.346 453.668 252.087 450.977 256.226L449.822 255.327L456.947 245.312C456.278 244.617 455.809 244.661 454.879 244.472C454.473 244.19 454.09 243.929 453.645 243.71L453.32 243.559C453.744 243.276 454.289 243.144 454.769 242.975C452.33 242.366 449.545 242.252 447.033 241.943C441.58 241.196 436.344 240.461 431.076 238.763C424.872 236.659 418.33 234.119 412.695 230.737C408.903 228.461 405.338 225.676 401.858 222.953L396.856 218.56L395.404 219.362L384.092 207.552L378.526 200.837C377.975 200.133 377.818 200.19 376.934 199.974C377.521 199.249 377.588 198.546 377.737 197.658L377.417 197.22L378.184 173.666L378.155 171.297L377.342 172.202L377.14 172.07L376.832 169.429L376.952 166.698L377.272 164.635C376.771 163.776 376.106 163.035 375.473 162.271C376.721 161.388 377.09 161.137 378.611 161.033L378.989 159.625Z"/>
	<path fill="#5A5A6B" d="M377.737 197.658L385.414 206.613C384.9 207.221 384.844 207.329 384.092 207.552L378.526 200.837C377.975 200.133 377.818 200.19 376.934 199.974C377.521 199.249 377.588 198.546 377.737 197.658Z"/>
	<path fill="#4A4755" d="M385.414 206.613L396.856 218.56L395.404 219.362L384.092 207.552C384.844 207.329 384.9 207.221 385.414 206.613Z"/>
	<defs>
		<linearGradient id="gradient_4" gradientUnits="userSpaceOnUse" x1="383.008" y1="170.89799" x2="381.04401" y2="164.791">
			<stop offset="0" stop-color="#2D2F46"/>
			<stop offset="1" stop-color="#484F63"/>
		</linearGradient>
	</defs>
	<path fill="url(#gradient_4)" d="M378.611 161.033L379.887 160.742L383.57 163.578C385.397 165.341 387.621 167.127 389.113 169.173L388.388 169.47L387.301 168.555C386.3 169.219 385.231 169.849 384.32 170.627C383.903 170.983 383.716 170.979 383.201 171.092L382.775 171.201C381.991 171.356 380.797 171.072 380.176 171.482L379.488 171.289C379.06 171.823 379.03 172.157 378.969 172.829L378.184 173.666L378.155 171.297L377.342 172.202L377.14 172.07L376.832 169.429L376.952 166.698L377.272 164.635C376.771 163.776 376.106 163.035 375.473 162.271C376.721 161.388 377.09 161.137 378.611 161.033Z"/>
	<path fill="#73798A" d="M377.272 164.635L377.539 166.307L377.961 166.205L378.486 165.341L378.155 171.297L377.342 172.202L377.14 172.07L376.832 169.429L376.952 166.698L377.272 164.635Z"/>
	<path fill="#66697B" d="M378.611 161.033C378.577 162.247 378.432 163.561 378.564 164.764L378.486 165.341L377.961 166.205L377.539 166.307L377.272 164.635C376.771 163.776 376.106 163.035 375.473 162.271C376.721 161.388 377.09 161.137 378.611 161.033Z"/>
	<path fill="#5A5A6B" d="M378.611 161.033L379.887 160.742L383.57 163.578C381.91 163.755 379.71 163.558 378.564 164.764C378.432 163.561 378.577 162.247 378.611 161.033Z"/>
	<defs>
		<linearGradient id="gradient_5" gradientUnits="userSpaceOnUse" x1="471.289" y1="210.35201" x2="469.47699" y2="164.166">
			<stop offset="0" stop-color="#0F0516"/>
			<stop offset="1" stop-color="#292D40"/>
		</linearGradient>
	</defs>
	<path fill="url(#gradient_5)" d="M378.989 159.625C383.367 158.643 387.973 158.541 392.443 158.493C411.7 158.284 429.834 164.401 445.988 174.651C450.093 177.256 453.83 180.152 457.555 183.27C459.299 184.73 461.483 186.412 462.822 188.233C467.89 192.66 472.114 197.732 476.298 202.974C478.307 205.49 480.94 208.574 482.254 211.492L480.85 213.013L478.691 217.239L459.58 243.99C457.349 248.346 453.668 252.087 450.977 256.226L449.822 255.327L456.947 245.312C456.278 244.617 455.809 244.661 454.879 244.472C454.473 244.19 454.09 243.929 453.645 243.71L453.32 243.559C453.744 243.276 454.289 243.144 454.769 242.975L458.579 242.889L478.875 214.199L476.316 213.61C474.571 213.09 472.794 212.847 470.998 212.57C466.939 212.143 463.175 211.019 459.236 210.042C445.99 206.756 433.497 202.013 421.87 194.755C420.334 193.796 418.343 192.957 417.068 191.68C407.032 185.072 398.034 177.19 389.113 169.173C387.621 167.127 385.397 165.341 383.57 163.578L379.887 160.742L378.611 161.033L378.989 159.625Z"/>
	<path fill="#0D0715" d="M462.049 209.151C462.519 208.498 462.698 207.929 463.574 207.884C464.791 207.821 465.563 208.472 466.455 209.18C466.335 209.754 466.199 209.691 465.735 210.006L462.049 209.151Z"/>
	<path fill="#4A4755" d="M417.705 190.789C421.156 192.078 424.467 194.73 427.759 196.48C435.018 200.339 442.323 203.435 450.112 206.014C453.893 207.266 458.083 208.696 462.049 209.151L465.735 210.006L472.004 211.197L470.998 212.57C466.939 212.143 463.175 211.019 459.236 210.042C445.99 206.756 433.497 202.013 421.87 194.755C420.334 193.796 418.343 192.957 417.068 191.68L417.705 190.789Z"/>
	<path fill="#5A5A6B" d="M378.989 159.625C383.367 158.643 387.973 158.541 392.443 158.493C411.7 158.284 429.834 164.401 445.988 174.651C450.093 177.256 453.83 180.152 457.555 183.27C459.299 184.73 461.483 186.412 462.822 188.233C467.89 192.66 472.114 197.732 476.298 202.974C478.307 205.49 480.94 208.574 482.254 211.492L480.85 213.013L478.691 217.239L459.58 243.99C457.349 248.346 453.668 252.087 450.977 256.226L449.822 255.327L456.947 245.312C456.278 244.617 455.809 244.661 454.879 244.472C454.473 244.19 454.09 243.929 453.645 243.71L453.32 243.559C453.744 243.276 454.289 243.144 454.769 242.975L458.579 242.889L478.875 214.199L476.316 213.61C474.571 213.09 472.794 212.847 470.998 212.57L472.004 211.197L473.494 211.179C473.908 211.09 474.043 210.985 474.377 210.742L473.828 210.193C468.946 206.125 464.893 200.213 460.564 195.477C458.822 193.572 456.838 192.4 454.934 190.743C447.692 184.438 440.564 178.938 431.445 175.582C430.587 175.266 429.795 174.726 428.911 174.493C425.121 173.495 421.702 171.787 418.017 170.574C414.506 169.418 410.638 169.071 407.033 168.357L406.84 167.773C404.144 167.769 401.628 167.381 398.828 167.379C398.267 166.824 398.211 166.991 397.461 166.988C396.901 167.548 396.332 167.348 395.605 167.871C394.35 168.068 392.712 168.063 391.481 167.696L390.43 167.379C390.927 167.924 390.952 168.243 391.126 168.937L391.201 169.241C399.134 176.832 408.171 185.286 417.705 190.789L417.068 191.68C407.032 185.072 398.034 177.19 389.113 169.173C387.621 167.127 385.397 165.341 383.57 163.578L379.887 160.742L378.611 161.033L378.989 159.625Z"/>
	<path fill="#757D8C" d="M378.989 159.625C383.367 158.643 387.973 158.541 392.443 158.493C411.7 158.284 429.834 164.401 445.988 174.651C450.093 177.256 453.83 180.152 457.555 183.27C459.299 184.73 461.483 186.412 462.822 188.233C460.747 187.868 459.23 185.702 457.559 184.454C452.445 180.635 447.154 177.259 441.736 173.914C439.335 172.432 436.667 170.429 433.891 169.749C430.076 168.814 426.375 166.815 422.658 165.516C418.869 164.192 414.718 163.397 410.77 162.66C401.552 160.939 392.641 161.916 383.454 160.805C384.628 162.321 385.789 164.077 387.243 165.326L391.201 169.241C399.134 176.832 408.171 185.286 417.705 190.789L417.068 191.68C407.032 185.072 398.034 177.19 389.113 169.173C387.621 167.127 385.397 165.341 383.57 163.578L379.887 160.742L378.611 161.033L378.989 159.625Z"/>
	<path fill="#3F3A49" d="M387.243 165.326C387.527 165.115 387.756 164.798 388.094 164.695C388.697 164.511 390.311 164.797 391.016 164.795C396.809 164.774 402.41 164.641 408.181 165.483C414.41 166.392 420.661 168.168 426.562 170.311C429.253 171.288 432.01 172.071 434.601 173.312C436.322 174.137 437.892 175.246 439.573 176.145C442.52 177.721 445.492 179.125 448.242 181.051C455.71 186.279 462.499 192.869 469.04 199.196C471.305 201.387 472.943 204.217 475.096 206.519C476.5 208.02 478.366 209.267 479.982 210.547L479.938 211.719C479.45 211.866 479.43 211.949 478.93 211.786C477.399 211.288 475.331 211.866 473.647 211.549L473.494 211.179C473.908 211.09 474.043 210.985 474.377 210.742L473.828 210.193C468.946 206.125 464.893 200.213 460.564 195.477C458.822 193.572 456.838 192.4 454.934 190.743C447.692 184.438 440.564 178.938 431.445 175.582C430.587 175.266 429.795 174.726 428.911 174.493C425.121 173.495 421.702 171.787 418.017 170.574C414.506 169.418 410.638 169.071 407.033 168.357L406.84 167.773C404.144 167.769 401.628 167.381 398.828 167.379C398.267 166.824 398.211 166.991 397.461 166.988C396.901 167.548 396.332 167.348 395.605 167.871C394.35 168.068 392.712 168.063 391.481 167.696L390.43 167.379C390.927 167.924 390.952 168.243 391.126 168.937L391.201 169.241L387.243 165.326Z"/>
	<path fill="#040207" d="M480.85 213.013C481.943 213.919 482.157 214.698 482.617 216.009L483.448 218.294C483.678 218.982 483.919 219.151 484.441 219.618C488.817 223.527 489.351 229.894 493.972 233.721L498.396 245.737C503.666 262.559 505.761 279.999 504.774 297.588C504.553 301.53 504.489 305.583 503.742 309.469C503.134 316.982 501.568 324.616 500.02 331.992C496.407 349.205 491.32 366.063 485.026 382.477C480.259 395.521 474.743 409.377 467.795 421.409C453.986 447.249 438.38 479.739 408.165 488.855C394.556 492.96 374.505 493.275 361.778 486.448L361.013 486.023C361.614 485.605 361.969 485.741 362.695 485.746C364.251 487.547 367.656 487.667 369.727 488.672C370.635 489.113 371.579 488.979 372.461 489.453C373.341 489.926 374.319 489.769 375.293 489.746C374.186 487.901 375.727 484.304 374.858 482.275C374.544 481.544 374.628 480.493 374.609 479.688L371.387 475.488C370.997 474.755 370.817 474.507 370.169 473.941L369.924 473.73C369.921 472.915 369.135 472.447 368.573 471.878L369.028 471.384C370.407 473.056 371.839 474.702 372.993 476.54C373.494 477.157 375.031 478.635 375.23 479.296C375.925 481.604 375.613 485.991 375.582 488.477L376.367 489.262C376.677 489.13 377.079 489.125 377.296 488.867C377.844 488.214 376.987 480.714 378.236 478.814L378.445 478.516L384.887 470.131C390.955 463.499 398.706 457.601 407.109 454.282C411.043 452.727 415.306 451.902 419.428 450.982L422.512 450.504C424.663 450.42 429.421 450.558 430.862 449.159L431.415 447.995C431.928 444.037 431.545 439.762 431.756 435.752C432.221 426.909 433.587 418.21 435.729 409.617C437.326 403.215 439.743 396.76 442.395 390.73C443.404 388.436 446.404 384.473 446.397 382.08C447.311 381.298 448.45 380.744 449.492 380.148C454.198 376.075 458.241 372.028 462.342 367.366L462.959 366.384L468.978 356.5C474.094 348.048 476.57 335.959 475.134 326.25C474.43 317.835 473.193 308.583 469.98 300.759C468.883 300.193 467.409 300.681 466.187 300.842L464.628 301.113L435.424 306.864L434.713 306.43C434.905 299.843 434.537 293.071 434.421 286.462C434.396 285.064 433.923 283.384 434.149 282.034C434.312 281.06 434.858 280.081 435.34 279.23L437.706 275.757C439.923 272.79 441.823 269.511 443.95 266.464C446.266 263.148 449.08 259.785 450.977 256.226C453.668 252.087 457.349 248.346 459.58 243.99L478.691 217.239L480.85 213.013Z"/>
	<path fill="#3F3A49" d="M463.787 296.532C464.147 295.628 464.213 295.504 464.988 294.922L466.187 300.842L464.628 301.113L463.787 296.532Z"/>
	<path fill="#4A4755" d="M485.333 251.262L486.1 255.533C485.936 256.818 485.909 257.671 484.974 258.622L484.091 251.976C484.769 251.801 484.854 251.769 485.333 251.262Z"/>
	<path fill="#4A4755" d="M463.693 288.144L464.988 294.922C464.213 295.504 464.147 295.628 463.787 296.532L462.735 291.37C463.148 290.31 463.421 289.248 463.693 288.144Z"/>
	<path fill="#4A4C5F" d="M480.266 219.995C480.516 218.963 480.716 217.967 481.215 217.023C481.984 217.852 482.17 222.619 482.305 223.932L482.504 227.198C482.407 228.375 482.468 229.462 481.84 230.469L481.385 231.543L480.266 219.995Z"/>
	<path fill="#3A3743" d="M431.995 449.171C434.311 451.159 435.796 453.738 437.681 456.108C439.077 457.865 440.876 459.544 441.92 461.523L441.602 462.699C439.425 462.186 433.774 453.623 432.481 451.367C432.143 450.779 431.918 450.158 431.821 449.489L431.995 449.171Z"/>
	<path fill="#3F3A49" d="M462.959 366.384L488.086 365.174L488.381 365.627C488.088 365.841 487.833 366.125 487.5 366.27C485.798 367.014 464.932 367.73 462.342 367.366L462.959 366.384Z"/>
	<path fill="#3F3A49" d="M482.504 227.198L485.333 251.262C484.854 251.769 484.769 251.801 484.091 251.976L481.385 231.543L481.84 230.469C482.468 229.462 482.407 228.375 482.504 227.198Z"/>
	<path fill="#3A3743" d="M486.1 255.533C486.888 260.664 487.91 265.731 488.991 270.808C489.523 273.31 489.87 276.125 490.756 278.516L489.551 280.439C488.546 277.423 488.09 274.202 487.474 271.094C486.649 266.93 485.731 262.801 484.974 258.622C485.909 257.671 485.936 256.818 486.1 255.533Z"/>
	<path fill="#3A3743" d="M476.625 332.617L476.756 332.69C477.579 334.045 478.022 335.569 478.687 337.005C480.123 340.106 481.64 343.187 483.151 346.253C484.866 349.733 486.76 353.117 488.453 356.61C489.031 357.803 489.984 359.205 490.373 360.452C490.51 360.893 490.47 361.293 490.43 361.743L489.929 361.909L489.734 361.703C488.558 360.258 487.866 357.988 486.932 356.324C484.058 351.207 480.991 346.284 478.719 340.851C477.517 337.979 476.448 335.813 476.625 332.617Z"/>
	<path fill="#3F3A49" d="M490.756 278.516L491.234 280.529C491.737 283.664 492.858 286.777 493.683 289.844C494.872 294.262 495.89 298.763 497.27 303.125C498.286 306.339 499.676 309.466 500.733 312.681C501.243 314.235 501.832 315.536 501.06 317.066C500.332 315.734 499.956 313.995 499.364 312.565C495.105 302.262 492.241 291.249 489.551 280.439L490.756 278.516Z"/>
	<path fill="#20212A" d="M446.397 382.08C447.311 381.298 448.45 380.744 449.492 380.148L449.363 380.507C447.392 385.778 444.263 390.627 442.202 395.92C439 404.146 436.22 412.651 434.834 421.392C433.843 427.647 433.444 434.054 433.082 440.372C432.978 442.187 432.866 444.004 432.813 445.822C432.801 446.204 432.908 447.555 432.775 447.852C432.453 448.567 432.048 448.143 431.995 449.171L431.821 449.489L430.862 449.159L431.415 447.995C431.928 444.037 431.545 439.762 431.756 435.752C432.221 426.909 433.587 418.21 435.729 409.617C437.326 403.215 439.743 396.76 442.395 390.73C443.404 388.436 446.404 384.473 446.397 382.08Z"/>
	<path fill="#1F2023" d="M467.795 421.409C467.535 420.955 467.032 420.262 466.988 419.727C466.803 417.45 468.032 414.338 468.782 412.167C471.414 404.56 474.845 397.913 478.381 390.744C479.811 387.844 481.135 383.739 483.395 381.445L485.026 382.477C480.259 395.521 474.743 409.377 467.795 421.409Z"/>
	<defs>
		<linearGradient id="gradient_6" gradientUnits="userSpaceOnUse" x1="502.14801" y1="316.60199" x2="522.99799" y2="308.22">
			<stop offset="0" stop-color="black"/>
			<stop offset="1" stop-color="#26232D"/>
		</linearGradient>
	</defs>
	<path fill="url(#gradient_6)" d="M480.85 213.013C481.943 213.919 482.157 214.698 482.617 216.009L483.448 218.294C483.678 218.982 483.919 219.151 484.441 219.618C488.817 223.527 489.351 229.894 493.972 233.721L498.396 245.737C503.666 262.559 505.761 279.999 504.774 297.588C504.553 301.53 504.489 305.583 503.742 309.469L503.061 309.358C503.011 309.816 502.994 310.104 502.73 310.499L502.543 310.742L502.562 312.179C502.554 312.678 502.114 316.444 501.953 316.602C502.085 315.972 502.198 315.472 502.073 314.832L501.953 314.258L501.754 313.281L501.367 312.699C501.135 311.944 500.898 311.084 500.675 310.309L498.047 302.93C497.86 302.529 497.754 302.412 497.697 301.954C497.633 301.447 497.703 301.703 497.562 301.283L497.457 300.977C497.337 300.498 497.293 300.061 497.117 299.592C496.467 297.855 496.372 295.902 495.699 294.22C495.545 293.834 495.46 293.444 495.311 293.066C494.92 292.078 494.83 291.029 494.414 290.088L494.238 289.746C494.347 289.169 494.38 288.931 494.155 288.367C493.843 287.587 494.024 288.196 493.833 287.518L493.748 287.207C493.489 286.472 493.214 285.814 493.061 285.046L492.969 284.57L492.674 283.594C492.64 282.535 492.355 282.981 492.188 282.227C491.993 281.351 492.497 281.452 491.883 280.401L491.234 280.529L490.756 278.516C489.87 276.125 489.523 273.31 488.991 270.808C487.91 265.731 486.888 260.664 486.1 255.533L485.333 251.262L482.504 227.198L482.305 223.932C482.17 222.619 481.984 217.852 481.215 217.023C480.716 217.967 480.516 218.963 480.266 219.995C480.07 219.381 480.141 218.802 480.158 218.164L478.691 217.239L480.85 213.013Z"/>
	<path fill="#272331" d="M483.452 222.11L486.614 228.735C487.265 230.073 490.597 234.832 490.354 236C490.064 236.554 490.15 236.331 489.965 236.908C489.783 237.475 489.964 237.206 489.453 237.625L483.574 226.657C483.139 225.888 483.44 223.107 483.452 222.11Z"/>
	<path fill="#3A3743" d="M483.317 219.611C485.432 222.603 486.906 225.824 488.667 229.017C490.283 231.949 492.252 234.99 493.354 238.161L492.846 238.152L492.383 238.473C491.56 237.704 490.979 236.934 490.354 236C490.597 234.832 487.265 230.073 486.614 228.735L483.452 222.11C483.399 221.541 483.471 221.749 483.221 221.245C482.939 220.677 483.185 220.22 483.317 219.611Z"/>
	<path fill="#3F3A49" d="M480.85 213.013C481.943 213.919 482.157 214.698 482.617 216.009L483.448 218.294C483.678 218.982 483.919 219.151 484.441 219.618C488.817 223.527 489.351 229.894 493.972 233.721L498.396 245.737C498.041 245.373 497.685 245.081 497.515 244.587L497.457 244.336L496.708 243.945L496.684 242.969C496.409 242.652 496.297 242.447 496.225 242.031C496.029 240.891 495.438 240.39 495.2 239.428C495.093 238.999 494.994 238.828 494.73 238.477L494.141 238.672L494.922 239.648L494.727 240.816L494.34 240.43C494.069 240.96 494.154 240.708 494.031 241.363L493.945 241.858C493.128 240.332 493.226 239.827 493.354 238.161C492.252 234.99 490.283 231.949 488.667 229.017C486.906 225.824 485.432 222.603 483.317 219.611L482.621 218.75C482.509 219.301 482.32 219.526 482.604 220.026C483.195 221.065 482.969 221.895 482.628 222.995L482.305 223.932C482.17 222.619 481.984 217.852 481.215 217.023C480.716 217.967 480.516 218.963 480.266 219.995C480.07 219.381 480.141 218.802 480.158 218.164L478.691 217.239L480.85 213.013Z"/>
	<path fill="#0D0715" d="M450.977 256.226C453.668 252.087 457.349 248.346 459.58 243.99C460.424 245.805 460.346 246.908 460.207 248.842C460.275 257.866 461.086 267.194 462.089 276.163C462.504 279.87 463.884 284.5 463.693 288.144C463.421 289.248 463.148 290.31 462.735 291.37L463.787 296.532L464.628 301.113L435.424 306.864L434.713 306.43C434.905 299.843 434.537 293.071 434.421 286.462C434.396 285.064 433.923 283.384 434.149 282.034C434.312 281.06 434.858 280.081 435.34 279.23L437.706 275.757C439.923 272.79 441.823 269.511 443.95 266.464C446.266 263.148 449.08 259.785 450.977 256.226Z"/>
	<path fill="#3F3A49" d="M462.735 291.37C461.106 283.685 456.224 252.259 459.513 246.68L460.207 248.842C460.275 257.866 461.086 267.194 462.089 276.163C462.504 279.87 463.884 284.5 463.693 288.144C463.421 289.248 463.148 290.31 462.735 291.37Z"/>
	<path fill="#0D0715" d="M376.934 199.974C377.818 200.19 377.975 200.133 378.526 200.837L384.092 207.552L395.404 219.362L396.856 218.56L401.858 222.953C405.338 225.676 408.903 228.461 412.695 230.737C418.33 234.119 424.872 236.659 431.076 238.763C436.344 240.461 441.58 241.196 447.033 241.943C449.545 242.252 452.33 242.366 454.769 242.975C454.289 243.144 453.744 243.276 453.32 243.559L453.645 243.71C454.09 243.929 454.473 244.19 454.879 244.472C455.809 244.661 456.278 244.617 456.947 245.312L449.822 255.327L450.977 256.226C449.08 259.785 446.266 263.148 443.95 266.464C441.823 269.511 439.923 272.79 437.706 275.757L435.34 279.23C434.858 280.081 434.312 281.06 434.149 282.034C433.923 283.384 434.396 285.064 434.421 286.462C434.537 293.071 434.905 299.843 434.713 306.43L435.424 306.864L464.628 301.113L466.187 300.842C467.409 300.681 468.883 300.193 469.98 300.759C473.193 308.583 474.43 317.835 475.134 326.25C476.57 335.959 474.094 348.048 468.978 356.5L462.959 366.384L462.342 367.366C458.241 372.028 454.198 376.075 449.492 380.148C448.45 380.744 447.311 381.298 446.397 382.08C446.404 384.473 443.404 388.436 442.395 390.73C439.743 396.76 437.326 403.215 435.729 409.617C433.587 418.21 432.221 426.909 431.756 435.752C431.545 439.762 431.928 444.037 431.415 447.995L430.862 449.159C429.421 450.558 424.663 450.42 422.512 450.504L419.428 450.982C415.306 451.902 411.043 452.727 407.109 454.282C398.706 457.601 390.955 463.499 384.887 470.131L378.445 478.516L378.236 478.814C376.987 480.714 377.844 488.214 377.296 488.867C377.079 489.125 376.677 489.13 376.367 489.262L375.582 488.477C375.613 485.991 375.925 481.604 375.23 479.296C375.031 478.635 373.494 477.157 372.993 476.54C371.839 474.702 370.407 473.056 369.028 471.384L367.103 469.034L353.478 456.096C353.207 455.531 352.874 455.024 352.539 454.496L353.087 454.044C351.066 452.47 348.998 450.651 346.696 449.519C344.262 448.322 340.874 447.702 338.818 445.963C337.955 445.232 336.651 444.57 335.573 444.205C335.208 444.082 334.949 443.702 334.764 443.361C334.326 442.556 333.994 442.113 333.332 441.421L331.836 439.652C331.845 439.173 331.919 437.871 331.639 437.502C331.364 437.14 330.746 437.107 330.467 436.33C330.178 435.525 330.17 435.085 329.379 434.557C329.025 434.321 329.128 434.448 328.872 434.074L328.72 433.823L327.937 434.356L327.648 434.351C326.426 432.986 327.322 429.616 325.779 427.736L325.488 427.736L325.195 428.324L324.672 427.314L323.819 426.01L323.572 425.908L323.193 424.261C322.852 422.221 322.068 420.082 321.308 418.164C320.448 415.992 320.102 413.708 319.34 411.523C318.47 409.032 317.117 405.505 316.734 402.953C316.6 402.054 316.395 401.077 316.215 400.195C315.861 398.464 315.86 397.091 315.912 395.266C315.14 393.558 314.218 391.837 313.834 389.996C312.419 387.978 311.081 384.152 311.021 381.704L304.508 376.197C302.947 374.308 301.132 370.865 298.71 370.198C294.35 360.123 288.166 351.586 286.75 340.269C285.084 334.606 285.631 327.127 285.469 321.239C285.037 320.036 284.79 318.821 284.528 317.573L282.746 306.371C282.968 304.492 283.4 302.949 283.765 301.172C284.011 299.979 284.051 298.917 284.081 297.683C284.725 300.922 284.796 303.963 285.031 307.227L285.742 307.456L288.035 305.337C288.389 303.731 288.166 301.244 289.371 300.192L291.873 300.636L295.053 300.999C303.14 302.568 312.069 303.649 319.792 306.535L320.695 306.692C320.583 300.952 320.42 293.803 321.566 288.199L322.025 286.689L321.893 286.39L321.096 285.485C321.093 284.659 320.503 284.296 319.969 283.696C319.476 283.241 319.051 282.271 318.824 281.654L319.311 281.294C316.864 275.926 312.99 270.622 309.712 265.707C308.154 262.926 306.647 260.089 304.95 257.391C303.868 255.67 301.678 253.379 301.197 251.569C302.681 250.046 305.992 250.129 307.985 249.738C311.64 249.021 315.358 248.263 318.871 247.014C336.621 240.706 350.384 229.052 362.897 215.322C366.705 210.863 370.476 205.914 374.862 202.035C374.913 201.734 376.606 200.294 376.934 199.974Z"/>
	<path fill="#20212A" d="M418.458 449.775L423.145 449.26L422.204 449.813L422.512 450.504L419.428 450.982C418.72 450.564 418.739 450.553 418.458 449.775Z"/>
	<path fill="#3F3A49" d="M322.025 286.689C323.798 288.184 324.793 290.15 326.027 292.076L325 292.578L325.02 293.68C324.025 291.808 323.061 289.722 321.566 288.199L322.025 286.689Z"/>
	<path fill="#272331" d="M328.125 428.711L328.661 428.615L329.42 429.539L329.688 429.915L331.445 428.601L332.763 428.934C332.926 429.839 332.803 430.152 332.446 430.957C332.265 431.873 332.489 432.925 331.836 433.594C330.849 433.426 330.216 433.277 329.689 432.324C329.314 431.645 329.184 431.438 328.528 430.969L328.223 430.762L328.125 428.711Z"/>
	<path fill="#1F2023" d="M423.145 449.26L430.451 448.706L426.612 443.75L426.758 443.359C427.178 443.765 427.641 444.165 427.966 444.653L428.516 445.508L428.906 444.922L428.127 444.043C428.124 443.322 427.929 443.359 427.441 442.871L427.539 442.118L431.415 447.995L430.862 449.159C429.421 450.558 424.663 450.42 422.512 450.504L422.204 449.813L423.145 449.26Z"/>
	<path fill="#1A1627" d="M311.021 381.704C314.713 384.105 318.247 386.313 322.333 388C321.572 387.91 320.858 387.831 320.092 387.874C319.508 387.907 319.119 387.84 318.559 387.695L318.359 387.301L317.383 387.301L316.992 386.52L315.818 386.621L316.988 387.305L316.309 387.693L316.095 387.509C315.231 386.815 314.03 386.043 313.082 385.352C313.401 386.929 313.82 388.38 313.834 389.996C312.419 387.978 311.081 384.152 311.021 381.704Z"/>
	<path fill="#20212A" d="M368.168 467.685L374.949 476.294L375.116 476.197C374.57 468.043 374.379 459.712 374.364 451.542C374.36 449.176 373.996 446.025 374.512 443.752L375.391 475.977C374.711 476.138 374.275 476.193 373.584 476.077L373.438 476.476L372.993 476.54C371.839 474.702 370.407 473.056 369.028 471.384L367.103 469.034L368.168 467.685Z"/>
	<path fill="#272331" d="M353.478 456.096C353.207 455.531 352.874 455.024 352.539 454.496L353.087 454.044C356.852 456.554 359.794 459.618 363.002 462.768C364.694 464.43 366.55 465.957 368.168 467.685L367.103 469.034L353.478 456.096Z"/>
	<path fill="#272331" d="M326.027 292.076C327.744 294.473 329.018 297.14 330.664 299.578C332.509 302.311 335.382 304.682 336.688 307.669L335.706 308.507C334.779 306.177 332.41 304.547 330.783 302.686C328.448 300.015 326.399 296.949 325.02 293.68L325 292.578L326.027 292.076Z"/>
	<path fill="#1A1627" d="M425.32 294.294C422.536 300.123 416.688 304.078 413.743 309.705C413.53 310.112 413.308 310.081 412.891 310.243L412.144 309.57C412.747 306.277 415.427 304.647 417.294 302.095C419.613 298.926 421.585 295.598 424.07 292.519C423.071 295.528 421.331 297.2 419.723 299.805L419.527 300.086C419.021 300.844 418.753 301.611 418.16 302.344C419.645 301.501 421.463 298.734 422.268 297.268C422.895 296.125 424.303 295.088 425.32 294.294Z"/>
	<path fill="#272331" d="M373.438 476.476C377.726 480.258 375.108 483.59 376.367 488.281C376.457 487.845 376.518 487.537 376.77 487.158C377.509 486.05 376.724 482.089 377.045 480.485C377.208 479.666 377.325 479.484 376.953 478.711C376.541 477.855 376.384 476.135 376.172 475.195C375.973 474.318 376.172 472.835 376.172 471.906C376.172 469.086 376.172 466.266 376.172 463.446C376.172 462.516 376.37 461.034 376.172 460.156C376.12 459.927 375.834 459.799 375.781 459.57C375.362 457.75 376.2 455.336 375.781 453.516C375.729 453.287 375.445 453.158 375.391 452.93C374.985 451.243 375.796 448.953 375.391 447.266C374.868 445.091 374.994 442.957 375.098 440.627L375.45 440.82L377.094 477.05L383.65 470.058L384.887 470.131L378.445 478.516L378.236 478.814C376.987 480.714 377.844 488.214 377.296 488.867C377.079 489.125 376.677 489.13 376.367 489.262L375.582 488.477C375.613 485.991 375.925 481.604 375.23 479.296C375.031 478.635 373.494 477.157 372.993 476.54L373.438 476.476Z"/>
	<path fill="#1A1627" d="M376.15 236.674C376.238 238.976 376.229 241.23 376.114 243.529C376.067 244.486 375.781 246.008 376.007 246.897C376.307 248.077 378.395 249.733 378.938 251.147L377.543 250.195L377.539 249.609L376.754 249.023L376.443 249.524C375.955 250.288 375.332 250.915 374.705 251.562L375 252.539L374.862 252.788C374.461 253.723 374.757 254.778 374.357 255.713C373.971 256.613 374.2 258.438 374.199 259.45C374.196 262.745 374.206 266.041 374.219 269.336L373.844 269.336C373.851 263.345 373.541 257.25 374.473 251.32L366.427 261.074C365.698 261.269 365.217 261.26 364.48 261.197C366.612 257.948 369.138 254.977 371.417 251.83C372.304 250.604 373.412 249.421 373.506 247.843L374.123 239.895C374.503 241.21 374.824 242.362 374.801 243.75C373.996 244.563 374.536 246.862 374.41 248.047C374.314 248.957 373.517 250.432 372.958 251.177L371.656 252.88L371.092 253.514C370.414 254.579 367.962 256.957 367.77 258.008C369.332 256.517 371.675 254.223 372.658 252.346C373.167 251.375 375.034 250.014 375.247 249.302C375.788 247.493 375.015 244.424 375.342 242.362L376.15 236.674Z"/>
	<path fill="#1F2023" d="M383.65 470.058C384.899 468.143 387.003 466.213 388.698 464.666C391.11 462.466 393.774 459.948 396.532 458.209C399.569 456.295 403.025 454.794 406.187 453.058C409.856 451.043 414.33 450.243 418.458 449.775C418.739 450.553 418.72 450.564 419.428 450.982C415.306 451.902 411.043 452.727 407.109 454.282C398.706 457.601 390.955 463.499 384.887 470.131L383.65 470.058Z"/>
	<path fill="#272331" d="M315.912 395.266C318.544 400.146 322.071 405.997 322.545 411.621C322.008 412.388 322.067 412.529 322.07 413.48L322.654 413.674L322.654 413.965L322.066 414.258L322.07 415.043L322.654 415.236L322.739 415.687L323.436 418.361C323.539 419.006 323.339 418.959 323.727 419.595C324.44 420.762 323.578 422.558 324.18 423.464C324.603 424.1 324.986 424.849 325.191 425.586L324.799 425.987L324.672 427.314L323.819 426.01L323.572 425.908L323.193 424.261C322.852 422.221 322.068 420.082 321.308 418.164C320.448 415.992 320.102 413.708 319.34 411.523C318.47 409.032 317.117 405.505 316.734 402.953C316.6 402.054 316.395 401.077 316.215 400.195C315.861 398.464 315.86 397.091 315.912 395.266Z"/>
	<path fill="#1A1627" d="M378.938 251.147L379.113 251.315C381.479 253.672 382.988 256.967 385.165 259.534C388.652 263.645 392.667 267.017 396.956 270.242C398.865 271.678 400.603 273.2 402.734 274.328C407.044 276.609 411.796 278.078 416.476 279.385C415.204 279.436 413.067 279.585 412.06 278.914C411.655 278.644 411.394 278.642 410.939 278.514C409.612 278.138 408.268 277.692 407.116 276.925C406.629 276.6 406.037 276.559 405.467 276.564C406.658 277.191 407.843 277.721 409.18 277.934L409.57 278.324C409.656 278.39 410.091 278.498 410.154 278.518L412.796 279.383C413.651 279.634 413.983 279.961 414.586 280.613C411.727 280.251 408.532 278.832 405.951 277.583C399.687 274.555 393.391 270.625 388.552 265.564C385.45 262.32 382.659 258.434 379.806 254.951C379.105 254.095 377.772 252.018 376.758 251.685C374.933 255.57 375.685 263.352 375.608 267.773L375.391 267.773C375.378 264.673 375.368 261.573 375.371 258.473C375.372 257.495 375.157 255.791 375.531 254.918C375.965 253.906 375.948 252.411 376.27 251.27L377.539 251.172C377.69 252.008 380.274 254.723 380.957 255.371L381.25 255.078C380.385 253.781 379.578 252.576 378.938 251.147Z"/>
	<path fill="#3F3A49" d="M376.934 199.974C377.818 200.19 377.975 200.133 378.526 200.837L377.539 200.996C377.537 201.483 377.563 201.649 377.758 202.089C378.276 203.256 377.847 205.082 377.535 206.25L376.15 236.674L375.342 242.362C375.015 244.424 375.788 247.493 375.247 249.302C375.034 250.014 373.167 251.375 372.658 252.346C371.675 254.223 369.332 256.517 367.77 258.008C367.962 256.957 370.414 254.579 371.092 253.514L371.656 252.88L372.958 251.177C373.517 250.432 374.314 248.957 374.41 248.047C374.536 246.862 373.996 244.563 374.801 243.75C374.824 242.362 374.503 241.21 374.123 239.895C375.035 236.433 374.541 231.373 374.556 227.757C374.58 221.973 374.779 216.203 374.816 210.423C374.827 208.678 374.432 205.2 375.039 203.683C375.275 203.094 375.019 202.641 374.862 202.035C374.913 201.734 376.606 200.294 376.934 199.974Z"/>
	<defs>
		<linearGradient id="gradient_7" gradientUnits="userSpaceOnUse" x1="356.44501" y1="270.89801" x2="348.15799" y2="261.32101">
			<stop offset="0" stop-color="#1A1424"/>
			<stop offset="1" stop-color="#343346"/>
		</linearGradient>
	</defs>
	<path fill="url(#gradient_7)" d="M364.48 261.197C365.217 261.26 365.698 261.269 366.427 261.074C362.17 266.652 357.618 270.691 352.154 274.97C349.919 276.719 347.637 278.705 345.117 280.023C340.491 282.442 334.46 284.071 329.29 284.742C327.095 285.027 324.256 284.954 322.23 285.789L321.893 286.39L321.096 285.485C321.093 284.659 320.503 284.296 319.969 283.696C319.476 283.241 319.051 282.271 318.824 281.654L319.311 281.294C319.75 282.057 320.249 283.258 321.044 283.651C328.603 282.835 336.378 281.862 343.374 278.665C351.492 274.954 358.523 267.7 364.48 261.197Z"/>
	<path fill="#272331" d="M436.105 275.346C436.708 275.44 437.137 275.519 437.706 275.757L435.34 279.23C434.858 280.081 434.312 281.06 434.149 282.034C433.923 283.384 434.396 285.064 434.421 286.462C434.537 293.071 434.905 299.843 434.713 306.43L435.424 306.864L434.009 307.312C433.743 306.724 433.582 306.125 433.398 305.508C431.51 299.162 432.385 290.594 432.392 283.972C429.97 287.334 427.221 290.6 425.32 294.294C424.303 295.088 422.895 296.125 422.268 297.268C421.463 298.734 419.645 301.501 418.16 302.344C418.753 301.611 419.021 300.844 419.527 300.086L419.723 299.805C421.331 297.2 423.071 295.528 424.07 292.519L430.581 282.443C425.339 282.215 420.085 282.124 414.99 280.726L414.586 280.613C413.983 279.961 413.651 279.634 412.796 279.383L410.154 278.518C410.091 278.498 409.656 278.39 409.57 278.324L409.18 277.934C407.843 277.721 406.658 277.191 405.467 276.564C406.037 276.559 406.629 276.6 407.116 276.925C408.268 277.692 409.612 278.138 410.939 278.514C411.394 278.642 411.655 278.644 412.06 278.914C413.067 279.585 415.204 279.436 416.476 279.385L426.717 280.433C429.312 280.472 431.62 280.718 433.631 278.773L436.105 275.346Z"/>
	<path fill="#3F3A49" d="M436.105 275.346C436.708 275.44 437.137 275.519 437.706 275.757L435.34 279.23C435.281 278.583 435.407 278.172 435.547 277.539C435.095 277.539 434.451 278.492 433.631 278.773L436.105 275.346Z"/>
	<path fill="#1A1627" d="M321.566 288.199C323.061 289.722 324.025 291.808 325.02 293.68C326.399 296.949 328.448 300.015 330.783 302.686C332.41 304.547 334.779 306.177 335.706 308.507L336.688 307.669C338.125 309.951 340.235 312.833 340.959 315.383L335.619 312.557L320.695 306.692C320.583 300.952 320.42 293.803 321.566 288.199Z"/>
	<defs>
		<linearGradient id="gradient_8" gradientUnits="userSpaceOnUse" x1="370.89801" y1="251.758" x2="327.06601" y2="219.3">
			<stop offset="0" stop-color="#0E0413"/>
			<stop offset="1" stop-color="#23253A"/>
		</linearGradient>
	</defs>
	<path fill="url(#gradient_8)" d="M374.862 202.035C375.019 202.641 375.275 203.094 375.039 203.683C374.432 205.2 374.827 208.678 374.816 210.423C374.779 216.203 374.58 221.973 374.556 227.757C374.541 231.373 375.035 236.433 374.123 239.895L373.506 247.843C373.412 249.421 372.304 250.604 371.417 251.83C369.138 254.977 366.612 257.948 364.48 261.197C358.523 267.7 351.492 274.954 343.374 278.665C336.378 281.862 328.603 282.835 321.044 283.651C320.249 283.258 319.75 282.057 319.311 281.294C316.864 275.926 312.99 270.622 309.712 265.707C308.154 262.926 306.647 260.089 304.95 257.391C303.868 255.67 301.678 253.379 301.197 251.569C302.681 250.046 305.992 250.129 307.985 249.738C311.64 249.021 315.358 248.263 318.871 247.014C336.621 240.706 350.384 229.052 362.897 215.322C366.705 210.863 370.476 205.914 374.862 202.035Z"/>
	<path fill="#0D0715" d="M376.15 236.674L377.535 206.25C377.847 205.082 378.276 203.256 377.758 202.089C377.563 201.649 377.537 201.483 377.539 200.996L378.526 200.837L384.092 207.552L395.404 219.362L396.856 218.56L401.858 222.953C405.338 225.676 408.903 228.461 412.695 230.737C418.33 234.119 424.872 236.659 431.076 238.763C436.344 240.461 441.58 241.196 447.033 241.943C449.545 242.252 452.33 242.366 454.769 242.975C454.289 243.144 453.744 243.276 453.32 243.559L453.645 243.71C454.09 243.929 454.473 244.19 454.879 244.472C455.809 244.661 456.278 244.617 456.947 245.312L449.822 255.327L450.977 256.226C449.08 259.785 446.266 263.148 443.95 266.464C441.823 269.511 439.923 272.79 437.706 275.757C437.137 275.519 436.708 275.44 436.105 275.346L433.631 278.773C431.62 280.718 429.312 280.472 426.717 280.433L416.476 279.385C411.796 278.078 407.044 276.609 402.734 274.328C400.603 273.2 398.865 271.678 396.956 270.242C392.667 267.017 388.652 263.645 385.165 259.534C382.988 256.967 381.479 253.672 379.113 251.315L378.938 251.147C378.395 249.733 376.307 248.077 376.007 246.897C375.781 246.008 376.067 244.486 376.114 243.529C376.229 241.23 376.238 238.976 376.15 236.674Z"/>
	<path fill="#3F3A49" d="M396.856 218.56L401.858 222.953L401.06 224.135L395.404 219.362L396.856 218.56Z"/>
	<path fill="#4A4755" d="M447.033 241.943C449.545 242.252 452.33 242.366 454.769 242.975C454.289 243.144 453.744 243.276 453.32 243.559L453.645 243.71C454.09 243.929 454.473 244.19 454.879 244.472L445.34 243.324L445.461 242.68L447.033 241.943Z"/>
	<path fill="#3F3A49" d="M431.076 238.763C436.344 240.461 441.58 241.196 447.033 241.943L445.461 242.68L445.34 243.324C440.222 243.447 434.469 241.645 429.663 240.035C430.175 239.661 430.617 239.2 431.076 238.763Z"/>
	<path fill="#3A3743" d="M436.105 275.346L449.822 255.327L450.977 256.226C449.08 259.785 446.266 263.148 443.95 266.464C441.823 269.511 439.923 272.79 437.706 275.757C437.137 275.519 436.708 275.44 436.105 275.346Z"/>
	<path fill="#3A3743" d="M401.858 222.953C405.338 225.676 408.903 228.461 412.695 230.737C418.33 234.119 424.872 236.659 431.076 238.763C430.617 239.2 430.175 239.661 429.663 240.035C419.196 237.155 409.3 231.09 401.06 224.135L401.858 222.953Z"/>
	<defs>
		<linearGradient id="gradient_9" gradientUnits="userSpaceOnUse" x1="345.508" y1="386.914" x2="318.13" y2="317.10501">
			<stop offset="0" stop-color="#C5002B"/>
			<stop offset="1" stop-color="#E61D69"/>
		</linearGradient>
	</defs>
	<path fill="url(#gradient_9)" d="M284.081 297.683C284.725 300.922 284.796 303.963 285.031 307.227L285.742 307.456L288.035 305.337C288.389 303.731 288.166 301.244 289.371 300.192L291.873 300.636L295.053 300.999C303.14 302.568 312.069 303.649 319.792 306.535L320.695 306.692L335.619 312.557L340.959 315.383C344.974 317.795 348.671 320.384 351.972 323.753C360.211 332.161 366.4 345.101 369.127 356.445C369.328 357.283 369.729 358.548 369.707 359.408C369.689 360.071 369.06 361.35 368.826 362.001C367.681 365.18 366.142 368.366 364.371 371.247C359.174 379.702 351.877 386.398 342.053 388.775C335.56 390.346 328.666 390.238 322.333 388C318.247 386.313 314.713 384.105 311.021 381.704L304.508 376.197C302.947 374.308 301.132 370.865 298.71 370.198C294.35 360.123 288.166 351.586 286.75 340.269C285.084 334.606 285.631 327.127 285.469 321.239C285.037 320.036 284.79 318.821 284.528 317.573L282.746 306.371C282.968 304.492 283.4 302.949 283.765 301.172C284.011 299.979 284.051 298.917 284.081 297.683Z"/>
	<path fill="#EE3E80" d="M297.521 332.702L297.156 332.492L297.074 325.977C296.338 325.977 296.357 325.576 295.314 325.783C295.208 326.136 295.189 326.301 294.92 326.564L294.533 326.564L294.34 327.148L293.945 326.762C293.654 327.201 293.656 327.295 293.164 327.543C293.18 327.31 293.216 326.981 293.16 326.758C291.897 321.698 292.943 315.458 293.629 310.375C293.797 309.128 293.925 306.63 294.723 305.664L296.094 305.66C296.519 306.032 296.788 306.077 297.328 306.125C302.724 306.612 308.399 308.458 313.674 309.72C317.518 310.64 322.009 312.177 325.586 313.863L326.367 314.23C327.299 314.581 327.894 314.832 328.711 315.426L328.514 316.404C327.924 316.599 327.602 316.766 327.145 317.188C327.834 317.536 328.18 318.246 328.616 318.871C318.841 314.743 309.002 312.051 298.615 309.958L297.521 332.702Z"/>
	<defs>
		<linearGradient id="gradient_10" gradientUnits="userSpaceOnUse" x1="290.42999" y1="330.664" x2="284.177" y2="302.586">
			<stop offset="0" stop-color="#ED276E"/>
			<stop offset="1" stop-color="#F6599E"/>
		</linearGradient>
	</defs>
	<path fill="url(#gradient_10)" d="M284.081 297.683C284.725 300.922 284.796 303.963 285.031 307.227L285.742 307.456L288.035 305.337C288.389 303.731 288.166 301.244 289.371 300.192L291.873 300.636L295.053 300.999C303.14 302.568 312.069 303.649 319.792 306.535L320.695 306.692L335.619 312.557L333.48 313.152C332.959 313.327 332.442 313.896 332.031 314.258L335.35 315.918L335.352 316.304C333.322 315.803 331.582 314.45 329.586 313.788C325.601 312.467 321.659 310.965 317.627 309.737C315.011 308.94 312.283 308.395 309.69 307.576C306.836 306.674 303.899 306.234 300.977 305.668C298.797 305.246 296.557 304.566 294.342 304.51C293.788 304.496 294.002 304.508 293.361 304.34C292.5 305.658 292.836 307.937 292.388 309.57C292.203 310.246 292.532 310.8 292.209 311.517C291.798 312.429 292.201 313.34 291.992 314.262C291.194 317.789 291.341 321.212 291.231 324.903C291.178 326.681 290.457 328.763 290.883 330.664C291.462 333.247 291.262 335.982 291.254 338.67C290.997 338.19 291.002 337.87 290.982 337.34C290.96 336.762 290.909 336.444 290.664 335.924C290.401 335.367 290.419 335.055 290.485 334.436L290.625 331.055C290.052 330.482 289.554 329.925 288.867 329.488L288.634 329.575C288.197 329.721 287.753 329.797 287.301 329.883C286.586 331.56 286.974 333.018 286.814 334.766C286.648 336.581 286.971 338.447 286.75 340.269C285.084 334.606 285.631 327.127 285.469 321.239C285.037 320.036 284.79 318.821 284.528 317.573L282.746 306.371C282.968 304.492 283.4 302.949 283.765 301.172C284.011 299.979 284.051 298.917 284.081 297.683Z"/>
	<path fill="#66697B" d="M284.528 317.573L284.938 317.046C285.687 316.006 285.845 314.756 285.607 313.501C285.506 312.97 285.552 312.81 285.742 312.309L286.53 312.17L286.932 313.191C286.677 315.819 286.68 318.858 285.469 321.239C285.037 320.036 284.79 318.821 284.528 317.573Z"/>
	<defs>
		<linearGradient id="gradient_11" gradientUnits="userSpaceOnUse" x1="286.914" y1="307.617" x2="282.935" y2="308.689">
			<stop offset="0" stop-color="#6A5E72"/>
			<stop offset="1" stop-color="#5E687A"/>
		</linearGradient>
	</defs>
	<path fill="url(#gradient_11)" d="M284.081 297.683C284.725 300.922 284.796 303.963 285.031 307.227L285.742 307.456L288.035 305.337L286.932 313.191L286.53 312.17L285.742 312.309C285.552 312.81 285.506 312.97 285.607 313.501C285.845 314.756 285.687 316.006 284.938 317.046L284.528 317.573L282.746 306.371C282.968 304.492 283.4 302.949 283.765 301.172C284.011 299.979 284.051 298.917 284.081 297.683Z"/>
	<path fill="white" d="M297.521 332.702L298.615 309.958C309.002 312.051 318.841 314.743 328.616 318.871C331.447 320.359 336.446 322.532 338.4 325.053C341.154 326.882 343.127 329.438 345.124 332.026C351.003 339.646 355.826 349.197 357.674 358.717C358.127 361.053 353.799 367.651 352.453 369.581C348.762 374.871 343.566 380.119 336.961 381.327C330.891 382.438 325.703 380.195 320.826 376.707C314.29 372.032 309.521 365.627 305.393 358.821C303.694 356.019 301.801 352.856 301.071 349.635C298.696 344.168 297.787 338.613 297.521 332.702Z"/>
	<path fill="white" d="M297.521 332.702L298.615 309.958C309.002 312.051 318.841 314.743 328.616 318.871C331.447 320.359 336.446 322.532 338.4 325.053L337.977 325.679L337.769 325.456C337.265 324.923 336.944 324.549 336.23 324.316C335.285 324.009 334.157 322.894 333.203 322.361L332.812 322.07C332.191 321.652 331.5 321.287 330.859 320.898C330.02 320.389 327.923 319.142 327.051 319.139L326.868 318.969C326.472 318.653 326.047 318.548 325.586 318.359L325.25 318.207C324.766 317.999 324.989 318.1 324.396 317.938C322.678 317.47 321.203 316.482 319.421 316.125C318.851 316.011 318.824 315.84 318.359 315.625L317.578 315.43C316.254 315.054 314.861 314.613 313.574 314.16L311.035 313.599C310.427 313.477 310.079 313.225 309.57 312.891L308.984 312.986C308.316 313 307.823 312.685 307.227 312.5L306.25 312.305L305.75 312.183C305.228 312.079 304.982 312.14 304.492 312.301L303.906 311.719L302.539 311.91C302.063 311.438 302.153 311.361 301.459 311.298C300.921 311.249 300.661 311.176 300.195 310.938L299.219 311.133L299.246 311.476C299.32 312.471 299.425 313.427 298.967 314.346C298.595 315.092 298.955 315.945 298.579 316.698C298.131 317.597 298.361 320.868 298.539 321.889C298.831 323.561 298.211 324.504 298.097 325.993C297.95 327.918 298.037 329.906 298.047 331.836L298.246 331.641C298.246 330.799 298.019 330.11 298.633 329.496L299.027 329.883L299.414 329.496C300.054 330.101 300.466 330.434 300.779 331.252L301.083 331.812C301.391 332.391 301.422 332.74 301.367 333.402C302.082 334.478 301.754 336.391 301.754 337.695L301.595 337.915C300.784 339.132 300.666 339.887 299.219 340.625C299.251 341.495 299.352 341.963 299.609 342.773L300.281 345.398C300.468 346.333 300.913 347.3 301.172 348.242L301.465 348.926L301.76 349.712L301.071 349.635C298.696 344.168 297.787 338.613 297.521 332.702Z"/>
	<path fill="#C3043F" d="M466.187 300.842C467.409 300.681 468.883 300.193 469.98 300.759C473.193 308.583 474.43 317.835 475.134 326.25C476.57 335.959 474.094 348.048 468.978 356.5L462.959 366.384L462.342 367.366C458.241 372.028 454.198 376.075 449.492 380.148C448.45 380.744 447.311 381.298 446.397 382.08L444.117 383.398C433.12 389.167 421.146 391.874 408.982 387.957C398.239 384.498 389.743 375.889 384.716 365.985C381.893 360.425 381.993 358.382 383.947 352.46C388.685 338.102 398.458 323.263 412.194 316.336C419.158 312.254 426.444 309.96 434.009 307.312L435.424 306.864L464.628 301.113L466.187 300.842Z"/>
	<path fill="#EE3E80" d="M413.373 326.484C413.827 325.298 414.279 324.665 415.236 323.83L415.82 323.828C416.409 322.903 419.202 321.327 420.253 320.969C421.726 320.468 422.871 319.311 424.391 319.009C424.968 318.895 424.844 318.9 425.197 318.457C424.717 317.85 424.244 317.459 423.637 316.992C423.011 316.992 422.522 316.978 422.015 317.382C421.692 317.639 421.497 317.681 421.094 317.773C419.987 318.026 418.417 318.659 417.596 319.474C416.999 320.068 416.477 320.077 415.82 320.895L415.227 320.508C418.575 317.946 422.144 316.672 426.042 315.165C438.553 310.327 451.612 307.756 464.77 305.394C465.324 305.916 465.494 306.881 465.709 307.615C466.622 310.721 466.982 313.936 467.637 317.095L467.531 318.75L467.189 319.043L467.188 318.555C467.166 317.267 466.756 315.957 466.602 314.645C466.516 313.915 466.287 313.255 466.211 312.5C466.149 311.889 465.873 311.42 465.82 310.738L465.533 309.033C465.422 308.475 465.488 308.672 465.139 308.203L465.113 307.861C465.05 307.366 464.885 307.068 464.648 306.641C463.937 306.166 463.064 306.118 462.207 306.348C461.025 306.665 459.99 306.75 458.789 307.031C457.48 307.338 456.188 307.423 454.883 307.812L454.389 307.904C453.887 308.004 453.709 308.091 453.316 308.398L453.238 308.818L452.832 310.449C453.584 310.381 453.739 310.517 454.297 309.965C455.112 309.963 455.649 310.169 456.25 309.574C456.532 309.594 457.399 309.75 457.619 309.668C458.098 309.488 457.857 309.157 458.495 309.235C459.474 309.355 460.539 309.229 461.523 309.184L461.603 309.731C461.68 310.236 461.837 310.483 462.012 310.939L462.205 311.719L462.353 312.146C462.653 313.142 462.579 314.146 462.911 315.149C463.172 315.939 463.042 316.584 462.891 317.383L463.175 317.792C463.53 318.33 463.521 318.704 463.553 319.322C463.575 319.755 463.71 320.108 463.863 320.508L463.228 323.146L460.939 309.816C444.83 312.492 426.685 316.607 413.373 326.484Z"/>
	<path fill="#E11B58" d="M470.136 327C470.291 326.177 470.27 325.255 470.312 324.414L471.285 323.633L471.68 324.02L471.973 323.535L473.242 323.629C474.864 323.981 473.785 324.224 474.027 325.195C474.064 325.341 474.554 325.432 474.609 325.586C474.954 326.544 474.142 327.545 474.805 328.579L475.134 326.25C476.57 335.959 474.094 348.048 468.978 356.5C466.938 357.992 466.714 359.599 465.265 361.401C464.334 362.558 463.612 363.86 462.699 365.039L461.681 364.737L461.328 364.652C461.128 364.375 460.954 364.107 460.806 363.798C460.546 363.255 460.311 362.798 459.922 362.331L459.57 361.918C459.389 360.28 460.547 359.472 461.188 358.063L462.322 355.916L462.5 355.664C462.693 355.371 462.857 355.112 463.097 354.851C463.441 354.477 463.758 354.171 463.989 353.709L464.16 353.318C464.536 352.547 464.731 351.647 465.234 350.977L465.625 350.977C465.489 351.746 465.236 352.387 465.039 353.125C464.922 353.564 464.937 353.795 464.65 354.156C464.382 354.493 464.481 354.291 464.35 354.742L464.258 355.078C463.651 356.228 464.211 354.812 463.832 355.817L462.891 358.008L463.379 358.496L464.061 358.105L464.254 357.617L464.645 357.227C464.588 356.577 464.611 356.242 464.913 355.675C467.364 351.065 468.032 345.589 469.332 340.625C469.765 338.973 469.378 337.33 469.723 335.742C470.325 332.968 469.962 329.878 470.136 327Z"/>
	<path fill="#E11B58" d="M463.228 323.146L463.863 320.508C463.71 320.108 463.575 319.755 463.553 319.322C463.521 318.704 463.53 318.33 463.175 317.792L462.891 317.383C463.042 316.584 463.172 315.939 462.911 315.149C462.579 314.146 462.653 313.142 462.353 312.146L462.205 311.719L462.012 310.939C461.837 310.483 461.68 310.236 461.603 309.731L461.523 309.184C460.539 309.229 459.474 309.355 458.495 309.235C457.857 309.157 458.098 309.488 457.619 309.668C457.399 309.75 456.532 309.594 456.25 309.574C455.649 310.169 455.112 309.963 454.297 309.965C453.739 310.517 453.584 310.381 452.832 310.449L453.238 308.818L453.316 308.398C453.709 308.091 453.887 308.004 454.389 307.904L454.883 307.812C456.188 307.423 457.48 307.338 458.789 307.031C459.99 306.75 461.025 306.665 462.207 306.348C463.064 306.118 463.937 306.166 464.648 306.641C464.885 307.068 465.05 307.366 465.113 307.861L465.139 308.203C465.488 308.672 465.422 308.475 465.533 309.033L465.82 310.738C465.873 311.42 466.149 311.889 466.211 312.5C466.287 313.255 466.516 313.915 466.602 314.645C466.756 315.957 467.166 317.267 467.188 318.555L467.189 319.043L467.531 318.75L467.637 317.095C468.007 319.514 468.422 321.943 468.61 324.383C468.712 325.71 468.547 327.125 468.842 328.418C469.362 330.704 469.142 334.442 468.659 336.719C468.374 338.057 468.588 339.219 468.198 340.625L468.063 341.498C467.945 342.238 467.642 342.904 467.527 343.661C467.301 345.15 465.642 347.668 464.652 348.828C463.493 350.187 463.106 352.438 461.918 353.906L461.636 354.469C459.743 358.484 457.515 361.664 454.37 364.812C453.836 365.346 452.926 366.493 452.242 366.72L451.955 366.799L451.172 367.387L450.582 367.773L450 367.387C449.998 367.014 450.087 366.76 450.195 366.406L452.145 364.648L452.148 364.062C453.203 363.128 453.825 362.042 454.879 361.133L454.883 360.738C455.458 360.163 455.658 360.228 455.664 359.375C455.982 358.938 456.31 358.552 456.664 358.148C457.124 357.623 456.964 357.544 457.227 357.031L457.518 356.641L457.464 356.12L456.909 356.2C457.985 353.475 459.616 350.883 460.749 348.14C464.105 340.015 463.834 331.739 463.228 323.146Z"/>
	<path fill="#EE3E80" d="M466.187 300.842C467.409 300.681 468.883 300.193 469.98 300.759C473.193 308.583 474.43 317.835 475.134 326.25L474.805 328.579C474.142 327.545 474.954 326.544 474.609 325.586C474.554 325.432 474.064 325.341 474.027 325.195C473.785 324.224 474.864 323.981 473.242 323.629L471.973 323.535L471.68 324.02L471.285 323.633L470.312 324.414C470.27 325.255 470.291 326.177 470.136 327C470.086 326.197 470.054 325.428 469.857 324.645C469.563 323.474 469.785 322.271 469.488 321.099C468.734 318.125 468.605 314.669 468.086 311.602C467.675 309.174 466.82 306.707 466.213 304.319C452.385 305.432 437.473 309.757 424.511 314.626C422.306 315.454 419.672 316.149 417.684 317.375C417.05 317.765 416.761 317.887 416.018 317.894L416.406 317.578C416.87 317.168 417.163 316.876 417.744 316.65C418.077 316.521 418.366 316.406 418.679 316.228C419.216 315.921 419.607 315.659 420.245 315.631L420.703 315.625L420.801 315.232L418.359 314.158C417.754 314.665 417.165 314.866 416.406 315.039C415.867 315.162 415.671 315.175 415.21 315.521C414.559 316.01 413.985 316.196 413.328 316.611L413.083 316.779L412.194 316.336C419.158 312.254 426.444 309.96 434.009 307.312L435.424 306.864L464.628 301.113L466.187 300.842Z"/>
	<defs>
		<linearGradient id="gradient_12" gradientUnits="userSpaceOnUse" x1="406.05499" y1="374.80499" x2="436.78201" y2="301.08099">
			<stop offset="0" stop-color="white"/>
			<stop offset="1" stop-color="white"/>
		</linearGradient>
	</defs>
	<path fill="url(#gradient_12)" d="M413.373 326.484C426.685 316.607 444.83 312.492 460.939 309.816L463.228 323.146C463.834 331.739 464.105 340.015 460.749 348.14C459.616 350.883 457.985 353.475 456.909 356.2C451.883 363.708 446.084 371.632 437.976 376.049L437.66 376.311C432.928 380.112 423.833 382.255 417.804 381.41C412.298 380.639 405.93 377.105 402.56 372.639C398.673 369.422 395.798 363.654 393.853 359.089C396.653 346.928 404.249 334.863 413.373 326.484Z"/>
	<defs>
		<linearGradient id="gradient_13" gradientUnits="userSpaceOnUse" x1="430.27301" y1="379.10199" x2="427.26001" y2="368.74701">
			<stop offset="0" stop-color="white"/>
			<stop offset="1" stop-color="white"/>
		</linearGradient>
	</defs>
	<path fill="url(#gradient_13)" d="M402.56 372.639L403.035 371.961C403.632 372.485 404.152 372.897 404.492 373.637L404.98 373.83L406.057 374.902C407.335 373.842 412.396 374.418 414.258 374.418C415.252 375.081 416.215 374.422 416.992 375.199C419.265 375.199 422.122 375.666 424.219 376.371C424.41 376.435 427.235 376.429 427.344 376.367C427.428 376.319 428.064 375.614 428.125 375.59C428.676 375.37 430.763 375.665 431.348 375.857C433.193 376.462 435.79 375.369 437.976 376.049L437.66 376.311C432.928 380.112 423.833 382.255 417.804 381.41C412.298 380.639 405.93 377.105 402.56 372.639Z"/>
</svg>
