<?xml version="1.0" encoding="utf-8" ?>
<svg xmlns="http://www.w3.org/2000/svg" xmlns:xlink="http://www.w3.org/1999/xlink" width="800" height="600">
	<path fill="white" d="M0 0.195312C1.7549 -0.189278 3.73802 -0.00294089 5.54009 -0.00262959C8.7651 -0.00207249 11.9901 -0.00273718 15.2151 -0.00307689C27.6824 -0.00439015 40.1498 -0.00484362 52.6171 -0.00545381C102.37 -0.00788885 152.123 -0.0100449 201.875 -0.0109017C401.25 -0.0143352 600.625 -0.00786761 800 0L800 599.805C798.245 600.189 796.262 600.003 794.46 600.003C791.235 600.002 788.01 600.003 784.785 600.003C772.318 600.004 759.85 600.005 747.383 600.005C697.63 600.008 647.877 600.01 598.125 600.011C398.75 600.014 199.375 600.008 -0 600L0 0.195312Z"/>
	<path fill="#9199AB" d="M363.288 161.351C364.722 160.904 366.071 160.646 367.554 160.444L366.283 162.032C365.266 162.75 364.293 163.454 363.392 164.319C363.23 163.355 363.289 162.33 363.288 161.351Z"/>
	<path fill="#7A8192" d="M384.167 157.571C383.561 158.012 383.084 158.278 382.42 158.592C382.03 158.776 381.861 158.944 381.641 159.304L377.408 160.154L376.556 160.963C375.853 160.247 375.831 159.403 375.685 158.457L384.167 157.571Z"/>
	<path fill="#434253" d="M476.012 205.273C478.757 209.271 481.742 213.305 483.837 217.697C481.801 216.689 480.185 215.992 478.515 214.41L478.551 214.3C477.826 212.965 477.161 211.439 475.934 210.5C475.374 210.072 475.181 209.925 474.947 209.245C474.68 208.471 474.461 208.3 473.798 207.826C474.259 206.795 475.21 206.045 476.012 205.273Z"/>
	<path fill="#46424D" d="M478.515 214.41C480.185 215.992 481.801 216.689 483.837 217.697C488.259 225.42 491.517 233.188 494.567 241.513C493.468 240.752 492.733 239.859 492.47 238.536C492.375 238.058 492.455 238.145 492.204 237.769L491.605 236.914C491.663 236.264 491.639 235.929 491.336 235.363C491.022 234.777 490.797 234.241 490.627 233.592C490.422 232.809 489.924 232.371 489.749 231.664C489.568 230.935 489.136 230.378 488.955 229.65C488.854 229.24 488.927 229.356 488.7 229.016C488.321 228.447 487.928 227.961 487.759 227.282L487.699 226.953C487.281 226.647 487.012 226.689 486.508 226.625C485.641 226.069 485.116 224.686 484.574 223.828L484.184 223.242C483.129 221.041 481.776 219.065 480.244 217.15C479.547 216.279 479.037 215.396 478.515 214.41Z"/>
	<path fill="#7A8192" d="M310.547 196.449L310.547 200.103C308.807 202.715 306.822 205.657 304.562 207.845C303.877 208.883 303.055 209.899 302.8 211.133L303.908 211.574L303.502 211.678L299.817 212.571L299.216 211.748L299.681 210.871C302.729 205.779 306.791 201.04 310.547 196.449Z"/>
	<path fill="#676975" d="M299.681 210.871C301.488 210.147 302.962 208.931 304.562 207.845C303.877 208.883 303.055 209.899 302.8 211.133L303.908 211.574L303.502 211.678L299.817 212.571L299.216 211.748L299.681 210.871Z"/>
	<path fill="#7A8192" d="M336.452 174.037C341.779 170.084 348.555 166.838 354.784 164.62C354.192 165.595 353.686 166.162 352.736 166.799L352.212 168.357C348.936 169.102 345.692 171.569 342.883 173.442L339.273 175.523L338.478 175.204L338.281 174.609C337.697 174.248 337.116 174.178 336.452 174.037Z"/>
	<path fill="#727B8C" d="M336.452 174.037C337.116 174.178 337.697 174.248 338.281 174.609L338.478 175.204L339.273 175.523C338.022 176.751 336.446 177.478 334.991 178.433C333.187 179.617 331.392 181.017 329.676 182.335C327.446 184.047 325.543 186.161 323.242 187.699C322.095 188.466 320.898 190.038 319.907 191.037C318.703 192.253 317.338 193.24 316.159 194.382C315.348 195.167 314.601 196.224 313.552 196.68L313.398 196.99C312.723 198.127 311.478 199.156 310.547 200.103L310.547 196.449C317.698 187.687 327.064 180.237 336.452 174.037Z"/>
	<path fill="#676975" d="M295.78 368.774C297.402 369.583 298.4 370.69 299.598 372.013L307.946 393.648C309.565 399.309 313.155 405.823 313.08 411.601C313.075 411.981 313.228 412.17 313.279 412.502C313.332 412.841 313.25 412.992 313.172 413.324C313.037 413.895 312.999 414.39 312.963 414.974C311.096 411.538 309.803 407.402 308.333 403.764C303.675 392.231 299.428 380.661 295.78 368.774Z"/>
	<path fill="#676975" d="M296.924 215.503L298.547 212.747L300.949 213.195L301.108 213.899L301.417 213.97C301.398 214.523 301.501 215.208 301.198 215.664C300.857 216.177 300.697 216.722 300.503 217.298C300.362 217.718 300.07 218.009 299.809 218.359C296.967 222.161 295.222 226.851 293.094 231.031C292.033 233.113 290.302 235.559 289.626 237.71C289.285 238.794 289.203 239.517 289.416 240.625L289.631 241.582L288.789 241.748L287.695 242.197C286.443 245.871 285.149 249.762 284.198 253.516C282.802 259.024 282.178 265.308 281.393 270.964L280.856 273.376C280.359 274.17 279.862 274.849 279.689 275.783L279.19 278.161C278.885 279.699 279.09 281.591 279.093 283.166C279.096 284.459 279.029 284.996 278.715 286.133C278.259 287.783 278.82 290.112 278.478 291.899C277.884 287.861 278.066 283.588 278.167 279.518C278.521 265.124 281.375 251.55 286.125 237.997L286.152 237.92C288.642 230.204 292.37 222.223 296.924 215.503Z"/>
	<path fill="#727B8C" d="M296.924 215.503L298.547 212.747L300.949 213.195L301.108 213.899L300.846 214.346C299.734 216.674 298.305 219.423 296.877 221.572C294.039 225.843 293.052 231.491 290.043 235.547C289.68 236.036 288.602 237.369 288.48 237.891C288.203 239.083 289.298 239.971 288.477 241.207C287.545 240.175 286.766 239.25 286.125 237.997L286.152 237.92C288.642 230.204 292.37 222.223 296.924 215.503Z"/>
	<path fill="#9199AB" d="M296.924 215.503L298.547 212.747L300.949 213.195L301.108 213.899L300.846 214.346C299.549 214.799 298.285 215.284 296.924 215.503Z"/>
	<path fill="#5B6578" d="M354.784 164.62L354.799 164.557L363.288 161.351C363.289 162.33 363.23 163.355 363.392 164.319L363.239 165.225L359.114 169.235L352.608 175.833L352.421 174.281L351.909 173.485C350.565 173.76 349.064 174.795 347.852 174.956C346.958 175.075 347.086 174.471 346.238 175.181C345.75 175.59 345.514 175.605 344.92 175.779C343.081 176.319 340.995 178.615 339.366 179.698C338.322 180.391 337.142 180.9 336.078 181.608C335.123 182.243 334.29 183.055 333.139 183.159L332.934 183.415C331.834 183.859 330.997 184.447 329.994 185.049L327.819 186.526C324.993 188.35 323.357 191.288 321 193.514C320.348 194.13 319.673 194.165 319.009 194.668C316.675 196.434 312.853 199.633 311.523 202.202C310.285 204.594 308.714 206.665 307.078 208.789L307.422 209.43C307.926 209.356 308.604 209.162 309.098 209.253C307.705 210.397 305.615 211.066 303.908 211.574L302.8 211.133C303.055 209.899 303.877 208.883 304.562 207.845C306.822 205.657 308.807 202.715 310.547 200.103C311.478 199.156 312.723 198.127 313.398 196.99L313.552 196.68C314.601 196.224 315.348 195.167 316.159 194.382C317.338 193.24 318.703 192.253 319.907 191.037C320.898 190.038 322.095 188.466 323.242 187.699C325.543 186.161 327.446 184.047 329.676 182.335C331.392 181.017 333.187 179.617 334.991 178.433C336.446 177.478 338.022 176.751 339.273 175.523L342.883 173.442C345.692 171.569 348.936 169.102 352.212 168.357L352.736 166.799C353.686 166.162 354.192 165.595 354.784 164.62Z"/>
	<path fill="#4F5266" d="M333.139 183.159C333.587 182.182 334.71 181.403 335.599 180.868L337.893 179.299C339.832 178.32 341.571 176.861 343.359 175.59C345.28 174.225 347.669 173.737 349.735 172.625C351.883 171.468 353.805 170.034 356.047 168.98L356.96 169.637L352.421 174.281L351.909 173.485C350.565 173.76 349.064 174.795 347.852 174.956C346.958 175.075 347.086 174.471 346.238 175.181C345.75 175.59 345.514 175.605 344.92 175.779C343.081 176.319 340.995 178.615 339.366 179.698C338.322 180.391 337.142 180.9 336.078 181.608C335.123 182.243 334.29 183.055 333.139 183.159Z"/>
	<path fill="#727B8C" d="M354.784 164.62L354.799 164.557L363.288 161.351C363.289 162.33 363.23 163.355 363.392 164.319L363.239 165.225L359.114 169.235L352.608 175.833L352.421 174.281L356.96 169.637C357.629 169.457 360.362 165.631 360.934 164.936L352.212 168.357L352.736 166.799C353.686 166.162 354.192 165.595 354.784 164.62Z"/>
	<defs>
		<linearGradient id="gradient_0" gradientUnits="userSpaceOnUse" x1="334.17999" y1="191.211" x2="330.50101" y2="186.959">
			<stop offset="0" stop-color="#2B3045"/>
			<stop offset="1" stop-color="#43495C"/>
		</linearGradient>
	</defs>
	<path fill="url(#gradient_0)" d="M333.139 183.159C334.29 183.055 335.123 182.243 336.078 181.608C337.142 180.9 338.322 180.391 339.366 179.698C340.995 178.615 343.081 176.319 344.92 175.779C345.514 175.605 345.75 175.59 346.238 175.181C347.086 174.471 346.958 175.075 347.852 174.956C349.064 174.795 350.565 173.76 351.909 173.485L352.421 174.281L352.608 175.833C349.315 179.153 345.944 182.314 342.576 185.545C340.688 187.356 338.88 189.551 336.717 191.014C336.089 191.438 335.647 191.885 334.877 192.041L334.337 192.3C334.02 192.305 333.179 192.214 332.924 192.321C331.558 192.894 329.043 195.689 327.791 196.692C325.335 198.662 322.763 200.393 320.133 202.119C317.7 203.716 315.307 205.416 312.841 206.956C311.694 207.673 310.078 208.359 309.098 209.253C308.604 209.162 307.926 209.356 307.422 209.43L307.078 208.789C308.714 206.665 310.285 204.594 311.523 202.202C312.853 199.633 316.675 196.434 319.009 194.668C319.673 194.165 320.348 194.13 321 193.514C323.357 191.288 324.993 188.35 327.819 186.526L329.994 185.049C330.997 184.447 331.834 183.859 332.934 183.415L333.139 183.159Z"/>
	<path fill="#434253" d="M324.02 193.164L324.719 193.237C324.217 194.543 322.509 195.291 321.728 196.49L321.486 196.877C320.527 197.053 319.782 197.536 318.945 198.013L318.206 198.433L318.357 197.654C319.467 197.451 320.524 195.743 321.447 195.041L321.875 194.723L324.02 193.164Z"/>
	<path fill="#434253" d="M333.139 183.159C334.29 183.055 335.123 182.243 336.078 181.608C337.142 180.9 338.322 180.391 339.366 179.698C340.995 178.615 343.081 176.319 344.92 175.779C345.514 175.605 345.75 175.59 346.238 175.181C347.086 174.471 346.958 175.075 347.852 174.956C349.064 174.795 350.565 173.76 351.909 173.485L352.421 174.281L352.608 175.833C349.315 179.153 345.944 182.314 342.576 185.545C340.688 187.356 338.88 189.551 336.717 191.014C336.089 191.438 335.647 191.885 334.877 192.041C335.346 190.463 335.826 189.697 337.206 188.724C340.052 186.719 342.602 183.589 345.092 181.121C346.199 180.025 347.471 179.309 348.242 177.934L347.852 177.564C346.643 177.71 345.805 178.403 344.727 178.881C341.733 180.209 338.7 181.441 335.938 183.244C334.07 184.463 332.614 186.123 330.469 186.91L330.27 186.328C330.457 186.071 330.778 185.55 331.051 185.352C331.906 184.729 332.201 184.618 332.77 183.689L332.934 183.415L333.139 183.159Z"/>
	<defs>
		<linearGradient id="gradient_1" gradientUnits="userSpaceOnUse" x1="289.258" y1="279.883" x2="284.45099" y2="279.159">
			<stop offset="0" stop-color="#211F33"/>
			<stop offset="1" stop-color="#36384A"/>
		</linearGradient>
	</defs>
	<path fill="url(#gradient_1)" d="M280.856 273.376L281.393 270.964C282.178 265.308 282.802 259.024 284.198 253.516C285.149 249.762 286.443 245.871 287.695 242.197L288.789 241.748L288.934 243.018L290.905 246.48L292.514 248.98L292.519 251.689L291.276 266.806L292.524 268.724L287.742 301.576L283.402 301.143L281.677 301.264C281.235 303.084 281.234 303.939 279.822 305.167L278.478 291.899C278.82 290.112 278.259 287.783 278.715 286.133C279.029 284.996 279.096 284.459 279.093 283.166C279.09 281.591 278.885 279.699 279.19 278.161L279.689 275.783C279.862 274.849 280.359 274.17 280.856 273.376Z"/>
	<path fill="#434253" d="M291.276 266.806L292.524 268.724L287.742 301.576L283.402 301.143C283.402 298.842 283.048 297.013 283.148 294.668L283.97 296.32L284.176 296.68C284.136 297.357 284.042 298.163 284.176 298.828C284.371 299.798 284.869 300.189 285.686 300.586L286.523 299.985L291.276 266.806Z"/>
	<path fill="#4F5266" d="M280.856 273.376L281.393 270.964C282.178 265.308 282.802 259.024 284.198 253.516C285.149 249.762 286.443 245.871 287.695 242.197L288.789 241.748L288.934 243.018L288.405 243.359L288.467 243.827C289.216 249.869 286.412 255.81 284.903 261.531C284.108 264.542 283.973 267.25 283.548 270.312C283.031 274.034 282.52 277.606 282.538 281.382C282.543 282.581 283.282 294.423 283.148 294.668C283.048 297.013 283.402 298.842 283.402 301.143L281.677 301.264C281.235 303.084 281.234 303.939 279.822 305.167L278.478 291.899C278.82 290.112 278.259 287.783 278.715 286.133C279.029 284.996 279.096 284.459 279.093 283.166C279.09 281.591 278.885 279.699 279.19 278.161L279.689 275.783C279.862 274.849 280.359 274.17 280.856 273.376Z"/>
	<path fill="#6D6D7C" d="M278.478 291.899C278.82 290.112 278.259 287.783 278.715 286.133C279.029 284.996 279.096 284.459 279.093 283.166C279.09 281.591 278.885 279.699 279.19 278.161L279.689 275.783C279.862 274.849 280.359 274.17 280.856 273.376C280.236 279.547 280.144 286.263 280.624 292.457C280.781 294.49 280.765 296.625 281.075 298.633C281.203 299.462 281.751 300.481 281.677 301.264C281.235 303.084 281.234 303.939 279.822 305.167L278.478 291.899Z"/>
	<path fill="#282B3F" d="M368.611 159.925C369.251 161.321 369.23 162.874 369.336 164.386L370.247 164.138L370.459 164.908L370.376 166.265L369.911 170.118L370.09 172.093C369.526 174.263 369.531 176.639 369.399 178.869C369.089 184.085 369.201 189.319 368.679 194.52L368.85 195.015L368.689 196.865C367.982 197.549 366.221 198.863 365.889 199.709L364.471 201.214C350.215 217.887 335.488 235.042 314.679 243.599C308.25 246.243 301.72 247.716 294.884 248.794L294.431 249.216L294.236 249.191L292.514 248.98L290.905 246.48L288.934 243.018L288.789 241.748L289.631 241.582L289.416 240.625C289.203 239.517 289.285 238.794 289.626 237.71C290.302 235.559 292.033 233.113 293.094 231.031C295.222 226.851 296.967 222.161 299.809 218.359C300.07 218.009 300.362 217.718 300.503 217.298C300.697 216.722 300.857 216.177 301.198 215.664C301.501 215.208 301.398 214.523 301.417 213.97L301.108 213.899L300.949 213.195L298.547 212.747L299.216 211.748L299.817 212.571L303.502 211.678L303.908 211.574C305.615 211.066 307.705 210.397 309.098 209.253C310.078 208.359 311.694 207.673 312.841 206.956C315.307 205.416 317.7 203.716 320.133 202.119C322.763 200.393 325.335 198.662 327.791 196.692C329.043 195.689 331.558 192.894 332.924 192.321C333.179 192.214 334.02 192.305 334.337 192.3L334.877 192.041C335.647 191.885 336.089 191.438 336.717 191.014C338.88 189.551 340.688 187.356 342.576 185.545C345.944 182.314 349.315 179.153 352.608 175.833L359.114 169.235L363.239 165.225L363.392 164.319C364.293 163.454 365.266 162.75 366.283 162.032L367.554 160.444L368.611 159.925Z"/>
	<path fill="#676975" d="M292.082 245.298C292.868 246.457 293.089 247.094 294.466 247.628L294.884 248.794L294.431 249.216L294.236 249.191L292.514 248.98L290.905 246.48C291.36 246.107 291.697 245.738 292.082 245.298Z"/>
	<path fill="#6D6D7C" d="M367.233 193.683C367.763 193.943 368.204 194.164 368.679 194.52L368.85 195.015L368.689 196.865C367.982 197.549 366.221 198.863 365.889 199.709L364.471 201.214L363.037 200.699C364.908 198.387 366.67 196.684 367.233 193.683Z"/>
	<path fill="#5B6578" d="M368.397 169.677L368.813 169.691L369.313 170.516L369.911 170.118L370.09 172.093C369.526 174.263 369.531 176.639 369.399 178.869C369.089 184.085 369.201 189.319 368.679 194.52C368.204 194.164 367.763 193.943 367.233 193.683L368.397 169.677Z"/>
	<path fill="#7A8192" d="M309.098 209.253C310.078 208.359 311.694 207.673 312.841 206.956C315.307 205.416 317.7 203.716 320.133 202.119C322.763 200.393 325.335 198.662 327.791 196.692C329.043 195.689 331.558 192.894 332.924 192.321C333.179 192.214 334.02 192.305 334.337 192.3C331.752 195.231 328.143 197.644 324.982 199.946C318.111 204.951 311.197 209.658 303.451 213.209C302.783 213.435 302.025 213.615 301.417 213.97L301.108 213.899L300.949 213.195L298.547 212.747L299.216 211.748L299.817 212.571L303.502 211.678L303.908 211.574C305.615 211.066 307.705 210.397 309.098 209.253Z"/>
	<path fill="#4F5266" d="M368.611 159.925C369.251 161.321 369.23 162.874 369.336 164.386L370.247 164.138L370.459 164.908L370.376 166.265L369.911 170.118L369.313 170.516L368.813 169.691L368.397 169.677C368.177 169.185 368.283 169.385 367.996 168.9C367.656 168.322 367.781 167.657 367.777 166.992C367.341 167.448 366.716 168.286 366.119 168.484C365.537 168.677 365.012 168.813 364.49 169.161L364.258 169.332L363.281 168.941C362.477 168.407 362.132 168.553 361.133 168.551L360.938 168.945L361.523 169.141L361.621 169.838C360.842 169.495 360.237 169.348 359.39 169.261L359.114 169.235L363.239 165.225L363.392 164.319C364.293 163.454 365.266 162.75 366.283 162.032L367.554 160.444L368.611 159.925Z"/>
	<path fill="#5B6578" d="M363.392 164.319C364.293 163.454 365.266 162.75 366.283 162.032L368.359 162.461C368.703 163.256 368.742 164.002 368.809 164.852C366.936 165.078 365.13 165.281 363.239 165.225L363.392 164.319Z"/>
	<path fill="#676975" d="M368.611 159.925C369.251 161.321 369.23 162.874 369.336 164.386L370.247 164.138L370.459 164.908L370.376 166.265L369.911 170.118L369.313 170.516L368.813 169.691L368.809 164.852C368.742 164.002 368.703 163.256 368.359 162.461L366.283 162.032L367.554 160.444L368.611 159.925Z"/>
	<path fill="#6D6D7C" d="M301.417 213.97C302.025 213.615 302.783 213.435 303.451 213.209C303.454 214.139 303.411 215.131 303.096 216.016C301.727 219.866 298.83 223.581 296.926 227.212C295.517 229.9 294.658 232.812 293.243 235.475C292.619 236.649 290.25 239.923 290.377 241.115C290.505 242.315 291.558 244.215 292.082 245.298C291.697 245.738 291.36 246.107 290.905 246.48L288.934 243.018L288.789 241.748L289.631 241.582L289.416 240.625C289.203 239.517 289.285 238.794 289.626 237.71C290.302 235.559 292.033 233.113 293.094 231.031C295.222 226.851 296.967 222.161 299.809 218.359C300.07 218.009 300.362 217.718 300.503 217.298C300.697 216.722 300.857 216.177 301.198 215.664C301.501 215.208 301.398 214.523 301.417 213.97Z"/>
	<path fill="#4F5266" d="M363.037 200.699L364.471 201.214C350.215 217.887 335.488 235.042 314.679 243.599C308.25 246.243 301.72 247.716 294.884 248.794L294.466 247.628C296.916 246.495 300.852 246.312 303.516 245.739C307.154 244.955 310.723 243.737 314.189 242.396C335.037 234.329 348.863 217.03 363.037 200.699Z"/>
	<defs>
		<linearGradient id="gradient_2" gradientUnits="userSpaceOnUse" x1="355.664" y1="256.44501" x2="315.52499" y2="224.312">
			<stop offset="0" stop-color="#100617"/>
			<stop offset="1" stop-color="#25293E"/>
		</linearGradient>
	</defs>
	<path fill="url(#gradient_2)" d="M365.889 199.709C366.085 200.216 366.292 200.709 366.427 201.236C365.717 211.99 365.572 222.761 365.161 233.527C365.031 236.932 365.428 241.681 364.528 244.925C364.049 246.653 362.069 248.799 361.064 250.305C355.51 257.229 350.366 264.403 343.284 269.922L343.259 269.951L343.199 271.734C338.677 276.525 329.838 280.287 323.443 281.453C320.606 281.971 317.146 281.973 314.437 282.749C314.256 283.271 314.133 283.719 314.003 284.252C313.854 284.861 313.521 285.117 313.09 285.547L313.145 287.431C314.038 293.87 311.707 300.254 313.313 306.602L313.349 306.924L311.74 306.462L287.742 301.576L292.524 268.724L291.276 266.806L292.519 251.689L292.514 248.98L294.236 249.191L294.431 249.216L294.884 248.794C301.72 247.716 308.25 246.243 314.679 243.599C335.488 235.042 350.215 217.887 364.471 201.214L365.889 199.709Z"/>
	<path fill="#434253" d="M297.821 258.175C297.905 257.568 297.937 257.796 297.777 257.224L297.656 256.836C298.027 256.162 297.79 256.45 298.361 255.966L305.582 268.524L304.656 270.018C302.469 266.159 299.57 262.231 297.821 258.175Z"/>
	<defs>
		<linearGradient id="gradient_3" gradientUnits="userSpaceOnUse" x1="343.164" y1="270.89801" x2="311.47" y2="256.08099">
			<stop offset="0" stop-color="#1A1325"/>
			<stop offset="1" stop-color="#444357"/>
		</linearGradient>
	</defs>
	<path fill="url(#gradient_3)" d="M305.582 268.524L313.036 280.536C317.067 280.292 321.334 279.972 325.253 278.92C331.863 277.147 337.542 273.552 343.259 269.951L343.199 271.734C338.677 276.525 329.838 280.287 323.443 281.453C320.606 281.971 317.146 281.973 314.437 282.749C314.256 283.271 314.133 283.719 314.003 284.252C313.854 284.861 313.521 285.117 313.09 285.547L313.145 287.431C314.038 293.87 311.707 300.254 313.313 306.602L313.349 306.924L311.74 306.462L311.89 305.778C310.7 302.504 311.192 299.89 311.313 296.512C311.478 291.931 311.694 287.353 311.905 282.773L304.656 270.018L305.582 268.524Z"/>
	<path fill="#0D0813" d="M292.514 248.98L294.236 249.191L294.431 249.216C294.576 251.815 297.201 253.732 298.361 255.966C297.79 256.45 298.027 256.162 297.656 256.836L297.777 257.224C297.937 257.796 297.905 257.568 297.821 258.175C299.57 262.231 302.469 266.159 304.656 270.018L311.905 282.773C311.694 287.353 311.478 291.931 311.313 296.512C311.192 299.89 310.7 302.504 311.89 305.778L311.74 306.462L287.742 301.576L292.524 268.724L291.276 266.806L292.519 251.689L292.514 248.98Z"/>
	<path fill="#4F5266" d="M292.514 248.98L294.236 249.191L294.431 249.216C294.576 251.815 297.201 253.732 298.361 255.966C297.79 256.45 298.027 256.162 297.656 256.836L297.777 257.224C297.937 257.796 297.905 257.568 297.821 258.175C296.46 256.125 295.607 253.964 293.925 252.143L292.524 268.724L291.276 266.806L292.519 251.689L292.514 248.98Z"/>
	<path fill="#5B6578" d="M292.514 248.98L294.236 249.191L294.055 251.162C293.507 251.521 293.168 251.615 292.519 251.689L292.514 248.98Z"/>
	<defs>
		<linearGradient id="gradient_4" gradientUnits="userSpaceOnUse" x1="448.242" y1="237.69501" x2="416.034" y2="152.961">
			<stop offset="0" stop-color="#09000D"/>
			<stop offset="1" stop-color="#2C3146"/>
		</linearGradient>
	</defs>
	<path fill="url(#gradient_4)" d="M384.167 157.571C396.975 156.943 408.293 158.48 420.463 162.478C424.523 163.812 429.235 165.475 432.857 167.743C449.871 176.349 465.112 189.582 476.012 205.273C475.21 206.045 474.259 206.795 473.798 207.826C472.946 208.822 470.697 210.95 470.514 212.19L450.721 239.162L448.934 241.76C448.39 241.276 448.077 240.781 447.677 240.183C446.206 239.665 444.729 239.576 443.19 239.443L442.438 238.187C442.245 237.977 441.877 238.084 441.594 238.047C437.375 237.494 433.133 237.083 428.91 236.551C428.599 236.139 422.011 234.753 420.978 234.47C412.182 231.859 404.58 227.728 396.904 222.821C392.221 219.597 388.217 215.649 383.95 211.927L382.597 212.675L369.341 197.703L368.689 196.865L368.85 195.015L368.679 194.52C369.201 189.319 369.089 184.085 369.399 178.869C369.531 176.639 369.526 174.263 370.09 172.093L369.911 170.118L370.376 166.265L370.459 164.908L370.247 164.138L369.336 164.386C369.23 162.874 369.251 161.321 368.611 159.925C370.884 159.195 373.337 158.883 375.685 158.457C375.831 159.403 375.853 160.247 376.556 160.963L377.408 160.154L381.641 159.304C381.861 158.944 382.03 158.776 382.42 158.592C383.084 158.278 383.561 158.012 384.167 157.571Z"/>
	<path fill="#4F5266" d="M368.85 195.015L383.95 211.927L382.597 212.675L369.341 197.703L368.689 196.865L368.85 195.015Z"/>
	<defs>
		<linearGradient id="gradient_5" gradientUnits="userSpaceOnUse" x1="375.19501" y1="169.72701" x2="373.987" y2="165.20399">
			<stop offset="0" stop-color="#2F3248"/>
			<stop offset="1" stop-color="#464C60"/>
		</linearGradient>
	</defs>
	<path fill="url(#gradient_5)" d="M368.611 159.925C370.884 159.195 373.337 158.883 375.685 158.457C375.831 159.403 375.853 160.247 376.556 160.963L378.359 162.989C378.29 163.363 378.256 163.576 378.061 163.909C378.92 165.41 380.471 166.597 381.725 167.776C380.829 167.769 379.751 167.563 379.063 168.138C378.491 168.615 377.95 168.796 377.253 169.03C376.579 169.256 376.002 169.694 375.351 169.954C374.191 170.419 372.162 170.139 370.895 170.117C370.789 171.183 370.774 171.274 370.09 172.093L369.911 170.118L370.376 166.265L370.459 164.908L370.247 164.138L369.336 164.386C369.23 162.874 369.251 161.321 368.611 159.925Z"/>
	<path fill="#4F5266" d="M370.459 164.908C371.549 164.697 372.522 164.609 373.633 164.645C374.537 164.042 375.677 164.256 376.754 164.258C375.161 165.577 372.356 165.417 370.376 166.265L370.459 164.908Z"/>
	<path fill="#9199AB" d="M368.611 159.925C370.884 159.195 373.337 158.883 375.685 158.457C375.831 159.403 375.853 160.247 376.556 160.963L378.359 162.989C378.29 163.363 378.256 163.576 378.061 163.909L376.385 162.305C374.525 160.763 373.588 160.413 371.196 160.685C370.321 161.696 370.366 162.863 370.247 164.138L369.336 164.386C369.23 162.874 369.251 161.321 368.611 159.925Z"/>
	<defs>
		<linearGradient id="gradient_6" gradientUnits="userSpaceOnUse" x1="467.77301" y1="206.44501" x2="464.70599" y2="160.70799">
			<stop offset="0" stop-color="#100617"/>
			<stop offset="1" stop-color="#2A2E42"/>
		</linearGradient>
	</defs>
	<path fill="url(#gradient_6)" d="M384.167 157.571C396.975 156.943 408.293 158.48 420.463 162.478C424.523 163.812 429.235 165.475 432.857 167.743C449.871 176.349 465.112 189.582 476.012 205.273C475.21 206.045 474.259 206.795 473.798 207.826C472.946 208.822 470.697 210.95 470.514 212.19L450.721 239.162L448.934 241.76C448.39 241.276 448.077 240.781 447.677 240.183C446.206 239.665 444.729 239.576 443.19 239.443L442.438 238.187L449.339 238.397L470.297 209.844L470.632 209.453C468.817 208.264 465.401 208.122 463.276 207.818C459.51 207.281 455.757 206.608 452.017 205.914C449.018 205.357 446.165 204.563 443.248 203.685C436.384 201.563 429.557 199.406 423.01 196.4C407.903 189.463 393.72 179.222 381.725 167.776C380.471 166.597 378.92 165.41 378.061 163.909C378.256 163.576 378.29 163.363 378.359 162.989L376.556 160.963L377.408 160.154L381.641 159.304C381.861 158.944 382.03 158.776 382.42 158.592C383.084 158.278 383.561 158.012 384.167 157.571Z"/>
	<path fill="#676975" d="M381.577 163.659C382.531 163.032 383.057 163.023 384.184 163.086C385.675 162.095 396.821 162.699 399.414 162.699C400.625 163.507 401.755 162.681 402.93 163.09C404.822 163.748 407.026 163.76 408.984 164.262C409.609 164.422 410.508 164.102 411.133 164.262C411.788 164.43 412.626 164.879 413.281 165.043C413.81 165.175 413.989 164.884 414.502 165.226C414.907 165.496 415.168 165.498 415.623 165.627C416.954 166.004 418.524 166.467 419.738 167.117C420.304 167.421 420.639 167.444 421.289 167.387L421.533 167.57C421.927 167.832 421.793 167.754 422.228 167.862C422.652 167.967 422.854 168.075 423.229 168.277C423.807 168.587 424.14 168.617 424.805 168.559L425.037 168.729C426.408 169.644 430.016 170.981 431.664 171.39C432.438 171.582 433.687 172.396 434.375 172.855C435.321 173.487 436.531 174.15 437.597 174.502C438.161 174.689 438.658 175.068 439.148 175.395C440.071 176.01 441.157 176.342 442.09 176.945C443.532 177.876 444.821 179.026 446.289 179.887C447.098 180.361 447.723 181.046 448.534 181.534C449.412 182.061 449.855 182.738 450.779 183.205C453.711 184.686 455.438 187.86 458.008 189.652C460.111 191.12 461.891 193.096 463.747 194.952C465.361 196.566 467.157 198.119 468.357 200.002C469.205 201.332 470.684 202.057 471.482 203.518C471.936 204.349 472.525 204.666 472.848 205.664C472.76 206.335 472.679 206.946 472.489 207.599C472.957 207.724 473.308 207.799 473.798 207.826C472.946 208.822 470.697 210.95 470.514 212.19L450.721 239.162L448.934 241.76C448.39 241.276 448.077 240.781 447.677 240.183C446.206 239.665 444.729 239.576 443.19 239.443L442.438 238.187L449.339 238.397L470.297 209.844L470.632 209.453C468.817 208.264 465.401 208.122 463.276 207.818C459.51 207.281 455.757 206.608 452.017 205.914C449.018 205.357 446.165 204.563 443.248 203.685L443.087 202.508C450.026 204.338 457.032 205.983 464.162 206.885C466.918 207.233 469.817 207.131 472.603 207.296C469.364 203.819 466.06 200.972 463.189 197.151C461.031 194.28 457.986 191.914 455.329 189.5C447.631 182.507 438.911 176.097 429.367 171.826C423.76 169.317 417.614 167.578 411.775 165.682C409.718 165.014 407.407 165.232 405.469 164.635C402.725 163.791 399.829 164.127 397.074 163.477C396.122 163.252 394.613 163.451 393.612 163.45C391.624 163.447 386.063 162.868 384.57 163.863C383.718 163.925 382.695 164.113 381.88 163.815L381.577 163.659Z"/>
	<path fill="#6D6D7C" d="M384.167 157.571C396.975 156.943 408.293 158.48 420.463 162.478C424.523 163.812 429.235 165.475 432.857 167.743C449.871 176.349 465.112 189.582 476.012 205.273C475.21 206.045 474.259 206.795 473.798 207.826C473.308 207.799 472.957 207.724 472.489 207.599C472.679 206.946 472.76 206.335 472.848 205.664C472.525 204.666 471.936 204.349 471.482 203.518C470.684 202.057 469.205 201.332 468.357 200.002C467.157 198.119 465.361 196.566 463.747 194.952C461.891 193.096 460.111 191.12 458.008 189.652C455.438 187.86 453.711 184.686 450.779 183.205C449.855 182.738 449.412 182.061 448.534 181.534C447.723 181.046 447.098 180.361 446.289 179.887C444.821 179.026 443.532 177.876 442.09 176.945C441.157 176.342 440.071 176.01 439.148 175.395C438.658 175.068 438.161 174.689 437.597 174.502C436.531 174.15 435.321 173.487 434.375 172.855C433.687 172.396 432.438 171.582 431.664 171.39C430.016 170.981 426.408 169.644 425.037 168.729L424.805 168.559C424.14 168.617 423.807 168.587 423.229 168.277C422.854 168.075 422.652 167.967 422.228 167.862C421.793 167.754 421.927 167.832 421.533 167.57L421.289 167.387C420.639 167.444 420.304 167.421 419.738 167.117C418.524 166.467 416.954 166.004 415.623 165.627C415.168 165.498 414.907 165.496 414.502 165.226C413.989 164.884 413.81 165.175 413.281 165.043C412.626 164.879 411.788 164.43 411.133 164.262C410.508 164.102 409.609 164.422 408.984 164.262C407.026 163.76 404.822 163.748 402.93 163.09C401.755 162.681 400.625 163.507 399.414 162.699C396.821 162.699 385.675 162.095 384.184 163.086C383.057 163.023 382.531 163.032 381.577 163.659L380.565 163.885C381.059 167.103 397.732 179.755 401.093 182.22C413.704 191.467 428.195 197.975 443.087 202.508L443.248 203.685C436.384 201.563 429.557 199.406 423.01 196.4C407.903 189.463 393.72 179.222 381.725 167.776C380.471 166.597 378.92 165.41 378.061 163.909C378.256 163.576 378.29 163.363 378.359 162.989L376.556 160.963L377.408 160.154L381.641 159.304C381.861 158.944 382.03 158.776 382.42 158.592C383.084 158.278 383.561 158.012 384.167 157.571Z"/>
	<path fill="#727B8C" d="M384.167 157.571C396.975 156.943 408.293 158.48 420.463 162.478C424.523 163.812 429.235 165.475 432.857 167.743C431.182 167.418 429.578 167.01 427.93 166.605C427.197 166.425 426.503 166.208 425.779 166.018C424.32 165.633 422.966 164.875 421.482 164.455C421.028 164.326 420.767 164.325 420.361 164.054C419.793 163.675 419.313 164.057 418.75 163.871C417.907 163.593 417.06 163.335 416.211 163.09C415.714 162.946 414.95 163.233 414.453 163.09C411.2 162.152 407.669 161.85 404.492 160.746C402.539 160.067 398.806 161.122 397.07 159.965C393.947 159.965 389.328 159.383 386.527 160.352C385.354 160.757 384.219 159.94 383.012 160.742C381.341 160.783 378.773 161.173 377.408 160.154L381.641 159.304C381.861 158.944 382.03 158.776 382.42 158.592C383.084 158.278 383.561 158.012 384.167 157.571Z"/>
	<path fill="#0D0716" d="M365.889 199.709C366.221 198.863 367.982 197.549 368.689 196.865L369.341 197.703L382.597 212.675L383.95 211.927C388.217 215.649 392.221 219.597 396.904 222.821C404.58 227.728 412.182 231.859 420.978 234.47C422.011 234.753 428.599 236.139 428.91 236.551C433.133 237.083 437.375 237.494 441.594 238.047C441.877 238.084 442.245 237.977 442.438 238.187L443.19 239.443C444.729 239.576 446.206 239.665 447.677 240.183C448.077 240.781 448.39 241.276 448.934 241.76L450.721 239.162L470.514 212.19C470.697 210.95 472.946 208.822 473.798 207.826C474.461 208.3 474.68 208.471 474.947 209.245C475.181 209.925 475.374 210.072 475.934 210.5C477.161 211.439 477.826 212.965 478.551 214.3L478.515 214.41C479.037 215.396 479.547 216.279 480.244 217.15C481.776 219.065 483.129 221.041 484.184 223.242L484.574 223.828C485.116 224.686 485.641 226.069 486.508 226.625C487.012 226.689 487.281 226.647 487.699 226.953L487.759 227.282C487.928 227.961 488.321 228.447 488.7 229.016C488.927 229.356 488.854 229.24 488.955 229.65C489.136 230.378 489.568 230.935 489.749 231.664C489.924 232.371 490.422 232.809 490.627 233.592C490.797 234.241 491.022 234.777 491.336 235.363C491.639 235.929 491.663 236.264 491.605 236.914L492.204 237.769C492.455 238.145 492.375 238.058 492.47 238.536C492.733 239.859 493.468 240.752 494.567 241.513C502.115 264.316 504.589 290.168 500.181 313.905L500.115 313.939C499.537 320.936 497.936 328.063 496.357 334.896C494.243 344.047 491.864 353.05 489.055 362.013L488.98 362.027C482.727 382.384 474.436 402.109 464.664 421.019C461.652 426.848 458.62 433.012 454.94 438.441L452.122 443.174C439.056 463.827 424.712 481.922 399.609 487.521C389.096 489.866 378.326 489.658 367.71 488.162L366.409 487.744L364.692 487.304C350.944 483.153 341.682 474.677 334.907 462.12C332.976 459.518 331.525 456.167 330.083 453.269C327.082 447.235 324.282 441.021 321.602 434.837L312.963 414.974C312.999 414.39 313.037 413.895 313.172 413.324C313.25 412.992 313.332 412.841 313.279 412.502C313.228 412.17 313.075 411.981 313.08 411.601C313.155 405.823 309.565 399.309 307.946 393.648L299.598 372.013C298.4 370.69 297.402 369.583 295.78 368.774C294.406 366.44 292.384 364.532 290.84 362.306C288.548 359.001 287.563 353.452 286.572 349.557C284.58 343.138 282.956 336.555 281.424 330.015C280.591 326.459 279.442 322.57 279.265 318.924C279.044 314.406 279.801 309.728 279.822 305.167C281.234 303.939 281.235 303.084 281.677 301.264L283.402 301.143L287.742 301.576L311.74 306.462L313.349 306.924L313.313 306.602C311.707 300.254 314.038 293.87 313.145 287.431L313.09 285.547C313.521 285.117 313.854 284.861 314.003 284.252C314.133 283.719 314.256 283.271 314.437 282.749C317.146 281.973 320.606 281.971 323.443 281.453C329.838 280.287 338.677 276.525 343.199 271.734L343.259 269.951L343.284 269.922C350.366 264.403 355.51 257.229 361.064 250.305C362.069 248.799 364.049 246.653 364.528 244.925C365.428 241.681 365.031 236.932 365.161 233.527C365.572 222.761 365.717 211.99 366.427 201.236C366.292 200.709 366.085 200.216 365.889 199.709Z"/>
	<path fill="#0D0813" d="M368.55 246.248C371.766 250.604 374.694 254.945 378.459 258.869L377.477 259.74C374.897 256.975 372.36 254.152 370.019 251.181C369.033 249.93 367.799 248.605 367.517 246.998L368.55 246.248Z"/>
	<path fill="#0D0813" d="M343.259 269.951L343.284 269.922C350.366 264.403 355.51 257.229 361.064 250.305L361.513 252.292C355.998 259.577 350.24 265.904 343.199 271.734L343.259 269.951Z"/>
	<path fill="#2F2F35" d="M360.978 466.088L365.647 472.223L365.282 447.461L365.625 447.656L366.016 471.68L364.939 472.656C365.196 473.359 365.759 473.748 366.309 474.221C366.379 474.865 366.412 475.439 366.669 476.037C366.86 476.483 366.851 477.17 366.699 477.637L366.547 477.965C365.998 479.244 366.392 482.304 366.406 483.789L366.595 484.021C366.891 484.465 366.867 484.841 366.895 485.354L367.188 485.156C367.188 483.248 366.632 479.194 367.188 477.539C367.529 476.522 367.813 475.492 367.33 474.365C366.707 472.913 367.581 470.808 367.188 469.336C366.386 466.34 366.797 462.481 366.797 459.256C366.797 458.38 367.003 456.871 366.797 456.055C366.127 453.398 366.406 450.314 366.406 447.461L366.608 447.283C366.767 452.405 367.084 457.51 367.254 462.63C367.39 466.71 366.996 471.581 368.426 475.437C366.704 479.137 368.27 484.272 367.71 488.162L366.409 487.744L366.617 487.01C365.51 484.287 365.937 480.783 365.945 477.892C365.947 477.112 366.155 475.559 365.789 474.871C364.484 472.42 361.622 469.613 359.87 467.314L360.978 466.088Z"/>
	<path fill="#0D0813" d="M422.002 279.004C421.323 280.275 420.612 281.848 419.34 282.617L419.336 283.203L418.524 284.151L419.043 284.464C414.85 290.711 410.816 297.107 406.527 303.28C405.729 304.427 404.61 305.3 403.843 306.427C403.065 307.57 402.346 307.94 401.136 308.572C404.553 302.335 408.404 296.86 412.305 290.975C414.517 287.638 416.5 284.026 419.344 281.153L419.741 281.503C420.54 280.631 420.926 279.446 422.002 279.004Z"/>
	<path fill="#282B3F" d="M423.83 276.57L424.591 276.756C424.746 282.359 424.419 287.974 424.618 293.571C424.732 296.786 425.715 300.724 425.336 303.84C425.223 304.769 424.599 305.536 424.023 306.232L423.207 306.139C422.858 303.56 423.055 300.903 422.919 298.304C422.587 291.95 422.114 285.652 422.984 279.3L419.043 284.464L418.524 284.151L419.336 283.203L419.34 282.617C420.612 281.848 421.323 280.275 422.002 279.004C423.155 278.103 423.333 277.937 423.83 276.57Z"/>
	<path fill="#2F2F35" d="M322.16 429.162L322.466 429.729C322.464 430.363 322.283 431.554 322.618 432.057C323.568 433.488 324.028 435.283 324.512 436.916L324.731 436.734C325.081 436.456 324.945 436.556 325.391 436.328L325 435.938L324.707 435.549L324.805 435.156L324.536 434.827C324.173 434.343 324.049 433.947 323.828 433.398L323.676 433.063C323.451 432.539 323.588 432.847 323.407 432.184C323.243 431.584 323.05 431.323 322.656 430.859C323.102 430.195 323.266 430.187 324.023 429.887C324.655 430.621 324.616 430.843 324.998 431.643L325.582 432.422C325.585 433.159 325.448 433.226 325.938 433.815C326.371 434.336 326.951 435.158 326.951 435.84L326.363 436.523C326.542 437.15 326.848 437.705 327.145 438.281L326.363 439.258C326.594 439.945 326.754 439.991 327.344 440.434L327.539 440.234L327.344 439.258C327.859 438.748 327.564 438.94 328.223 438.674L328.57 438.867L328.677 439.264C328.959 440.277 329.125 440.943 329.883 441.686L332.778 442.825L332.854 443.771C331.861 443.197 331.092 442.903 329.956 442.676C329.235 442.532 329.74 442.664 329.169 442.419C328.634 442.19 328.108 442.268 327.537 442.285C327.538 443.43 327.601 445.683 328.316 446.484C329.081 447.341 329.412 448.496 330.078 449.418L330.469 449.219L330.383 448.889C330.218 448.227 329.96 447.693 330.277 447.07C330.821 448.322 331.44 450.105 332.23 451.172L332.129 451.855C331.691 451.068 331.659 450.986 330.859 450.586L331.152 450.098L330.271 450.098C330.84 451.098 330.668 452.724 331.211 453.542C332.047 454.799 333.162 456.819 333.572 458.219C333.764 458.874 334.164 459.486 334.377 460.154C334.593 460.83 334.822 461.409 334.907 462.12C332.976 459.518 331.525 456.167 330.083 453.269C327.082 447.235 324.282 441.021 321.602 434.837C321.675 433.563 321.704 432.434 321.497 431.166C321.398 430.557 321.916 429.741 322.16 429.162Z"/>
	<defs>
		<linearGradient id="gradient_7" gradientUnits="userSpaceOnUse" x1="382.617" y1="264.64801" x2="393.76099" y2="251.707">
			<stop offset="0" stop-color="#1B1523"/>
			<stop offset="1" stop-color="#342F3E"/>
		</linearGradient>
	</defs>
	<path fill="url(#gradient_7)" d="M378.459 258.869C389.372 269.828 402.017 276.079 417.719 276.135C419.265 276.14 421.231 275.828 422.717 276.104L423.83 276.57C423.333 277.937 423.155 278.103 422.002 279.004C420.926 279.446 420.54 280.631 419.741 281.503L419.344 281.153C420.04 280.127 420.871 279.174 420.958 277.93C417.545 277.307 413.676 277.776 410.157 277.427C400.668 276.486 389.279 271.475 382.176 265.09C380.449 263.539 378.95 261.535 377.477 259.74L378.459 258.869Z"/>
	<defs>
		<linearGradient id="gradient_8" gradientUnits="userSpaceOnUse" x1="361.52301" y1="250.97701" x2="339.55801" y2="222.263">
			<stop offset="0" stop-color="#241D2C"/>
			<stop offset="1" stop-color="#504F63"/>
		</linearGradient>
	</defs>
	<path fill="url(#gradient_8)" d="M366.427 201.236L367.383 200.435L367.808 200.781C367.815 203.285 367.707 205.853 368.014 208.339C368.035 218.077 367.256 227.935 367.021 237.695C366.984 239.214 366.495 242.03 366.821 243.452C366.995 244.209 368.1 245.548 368.55 246.248L367.517 246.998L366.905 247.322C366.786 251.522 366.416 255.636 366.162 259.821C366.035 261.897 366.312 263.827 365.816 265.82L365.746 267.578L365.332 268.262C365.264 266.86 364.94 264.696 365.483 263.428C366.179 261.804 365.213 259.312 365.625 257.617C366.37 254.554 366.406 251.144 366.406 247.852C365.991 248.016 365.941 247.928 365.777 248.257C365.182 249.451 365.508 251.366 364.985 252.588C364.395 253.964 365.229 255.859 364.844 257.227C363.902 260.569 364.453 265.318 364.453 268.945L364.009 268.945C363.26 262.397 364.109 254.399 365.262 247.891L361.513 252.292L361.064 250.305C362.069 248.799 364.049 246.653 364.528 244.925C365.428 241.681 365.031 236.932 365.161 233.527C365.572 222.761 365.717 211.99 366.427 201.236Z"/>
	<path fill="#252530" d="M438.928 375.122L441.321 373.897C439.639 378.595 436.618 382.543 434.722 387.109C428.505 402.08 424.838 416.929 423.97 433.121C423.747 437.276 423.444 441.877 424.154 445.977C424.233 446.43 424.224 446.832 424.18 447.288C428.468 452.301 434.256 458.715 436.281 465.002C433.829 463.295 432.641 461.074 430.89 458.711C428.926 456.059 426.844 453.48 424.947 450.781C424.441 450.061 422.348 446.511 421.796 446.387C420.964 446.199 418.579 446.807 417.616 446.922C413.938 447.359 410.261 447.431 406.6 448.076L397.845 450.504C397.226 450.347 396.534 450.347 395.896 450.293L395.759 449.536C404.004 446.243 411.834 446.087 420.502 445.256L414.262 436.523L414.746 436.426L418.066 440.527C418.273 440.915 418.243 441.119 418.597 441.429C419.117 441.883 419.457 442.111 419.702 442.781C419.863 443.22 419.992 443.506 420.294 443.872C420.881 444.583 420.413 445.022 421.094 445.703L421.875 444.922L419.531 441.406L419.043 440.723C418.666 439.983 418.469 439.737 417.826 439.176L417.58 438.965C417.576 437.907 416.398 437.311 415.918 436.426C415.58 435.803 415.479 435.565 414.941 435.04C414.613 434.72 414.193 434.391 413.967 433.984C413.529 433.197 413.993 433.754 413.585 433.255L411.719 430.737L411.426 430.371L411.523 429.507L421.845 443.492C422.301 425.878 423.828 408.604 430.663 392.153C431.877 389.23 433.079 386.133 434.529 383.325C435.89 380.689 438.221 377.947 438.928 375.122Z"/>
	<path fill="#0D0813" d="M313.145 287.431L313.09 285.547C313.521 285.117 313.854 284.861 314.003 284.252C314.133 283.719 314.256 283.271 314.437 282.749C316.728 288.048 320.692 293.268 323.633 298.318C323.983 298.636 324.322 298.821 324.472 299.269C324.626 299.726 324.906 300.009 325.191 300.391C325.941 301.394 326.392 302.516 327.145 303.516C327.862 304.469 328.315 305.53 328.921 306.547C330.496 309.196 333.018 312.246 334.048 315.042L334.213 315.456C327.473 311.902 320.638 309.132 313.349 306.924L313.313 306.602C311.707 300.254 314.038 293.87 313.145 287.431Z"/>
	<path fill="#252530" d="M313.145 287.431L313.09 285.547C313.521 285.117 313.854 284.861 314.003 284.252C314.133 283.719 314.256 283.271 314.437 282.749C316.728 288.048 320.692 293.268 323.633 298.318L323.491 298.464L323.047 298.438C322.292 297.665 322.219 296.955 321.643 296.149L317.578 289.453L315.234 285.742L314.844 285.742C315.547 287.538 316.352 289.128 317.511 290.674C318.15 291.525 318.286 291.681 318.164 292.75C316.591 290.602 315.597 287.799 313.867 285.847L313.145 287.431Z"/>
	<path fill="#282B3F" d="M299.598 372.013L305.797 376.703L308.248 378.203L308.254 378.236C307.828 379.943 309.542 381.36 308.789 382.621L309.062 382.786C309.502 383.079 309.349 382.973 309.693 383.496L309.18 383.793C309.606 384.435 309.566 384.569 309.566 385.352L309.18 385.746L309.336 385.964C309.896 386.806 310.156 387.484 310.348 388.477C310.538 389.461 311.481 390.316 312.301 390.82L311.521 391.113L312.109 391.602L312.432 391.408C313.368 394.27 316.184 398.931 315.918 401.76L316.211 401.371C316.596 401.881 316.618 402.134 316.768 402.736C318.149 408.258 322.215 414.764 321.676 420.508L321.285 420.898C321.287 421.768 321.045 422.611 321.676 423.242L320.896 423.535L320.898 425.98C321.781 425.726 322.392 425.201 322.815 424.355C323.036 423.913 322.949 424.023 322.852 423.438C322.47 423.31 322.291 423.369 322.119 422.967C321.9 422.456 321.953 422.028 321.973 421.486L322.52 421.499L322.852 422.855L324.023 422.848L325.586 421.115C325.671 421.695 325.724 421.678 325.486 422.266C326.176 422.266 325.834 422.346 326.497 421.973L326.032 423.26C325.691 424.187 325.513 424.794 325.586 425.781L325.191 425.586L324.998 426.074L324.51 426.556C324.048 426.992 324.109 427.161 323.826 427.637L323.238 428.32L323.045 428.809L322.466 429.729L322.16 429.162C321.916 429.741 321.398 430.557 321.497 431.166C321.704 432.434 321.675 433.563 321.602 434.837L312.963 414.974C312.999 414.39 313.037 413.895 313.172 413.324C313.25 412.992 313.332 412.841 313.279 412.502C313.228 412.17 313.075 411.981 313.08 411.601C313.155 405.823 309.565 399.309 307.946 393.648L299.598 372.013Z"/>
	<path fill="#252530" d="M299.598 372.013L305.797 376.703C304.766 381.775 308.574 388.848 310.487 393.399C311.208 395.114 311.459 396.983 312.101 398.73C313.724 403.15 315.723 407.127 316.794 411.755C317.079 412.987 317.588 414.573 317.383 415.824L317.55 416.032C318.5 417.461 319.006 420.253 319.326 421.962L318.021 419.54C316.793 417.694 316.087 415.091 315.877 412.888C315.343 407.274 312.015 401.375 310.355 395.898L310.18 395.323C309.789 394.333 308.848 394.054 307.946 393.648L299.598 372.013Z"/>
	<path fill="#434253" d="M307.946 393.648C308.848 394.054 309.789 394.333 310.18 395.323L310.355 395.898C312.015 401.375 315.343 407.274 315.877 412.888C316.087 415.091 316.793 417.694 318.021 419.54L319.326 421.962L320.381 426.033C320.472 426.493 320.432 426.324 320.703 426.809C321.55 426.72 322.124 426.383 322.852 425.98L323.238 426.562L322.16 429.162C321.916 429.741 321.398 430.557 321.497 431.166C321.704 432.434 321.675 433.563 321.602 434.837L312.963 414.974C312.999 414.39 313.037 413.895 313.172 413.324C313.25 412.992 313.332 412.841 313.279 412.502C313.228 412.17 313.075 411.981 313.08 411.601C313.155 405.823 309.565 399.309 307.946 393.648Z"/>
	<defs>
		<linearGradient id="gradient_9" gradientUnits="userSpaceOnUse" x1="365.42999" y1="475.586" x2="339.64301" y2="483.59799">
			<stop offset="0" stop-color="black"/>
			<stop offset="1" stop-color="#262434"/>
		</linearGradient>
	</defs>
	<path fill="url(#gradient_9)" d="M334.907 462.12C334.822 461.409 334.593 460.83 334.377 460.154C334.164 459.486 333.764 458.874 333.572 458.219C333.162 456.819 332.047 454.799 331.211 453.542C330.668 452.724 330.84 451.098 330.271 450.098L331.152 450.098L330.859 450.586C331.659 450.986 331.691 451.068 332.129 451.855L332.23 451.172C331.44 450.105 330.821 448.322 330.277 447.07C329.96 447.693 330.218 448.227 330.383 448.889L330.469 449.219L330.078 449.418C329.412 448.496 329.081 447.341 328.316 446.484C327.601 445.683 327.538 443.43 327.537 442.285C328.108 442.268 328.634 442.19 329.169 442.419C329.74 442.664 329.235 442.532 329.956 442.676C331.092 442.903 331.861 443.197 332.854 443.771L332.778 442.825C338.208 444.813 343.779 449.056 348.094 452.873C352.634 456.91 357.441 461.11 360.978 466.088L359.87 467.314C361.622 469.613 364.484 472.42 365.789 474.871C366.155 475.559 365.947 477.112 365.945 477.892C365.937 480.783 365.51 484.287 366.617 487.01L366.409 487.744L364.692 487.304C350.944 483.153 341.682 474.677 334.907 462.12Z"/>
	<path fill="#282B3F" d="M332.778 442.825C338.208 444.813 343.779 449.056 348.094 452.873C347.561 453.316 347.462 453.348 347.284 454.006C344.142 451.666 341.094 449.228 337.72 447.208C336.12 446.251 334.098 445.827 332.621 444.727C333.923 444.399 335.613 445.441 336.825 446.045L337.695 446.484L337.695 446.094C336.098 445.2 334.585 444.383 332.854 443.771L332.778 442.825Z"/>
	<path fill="#252530" d="M348.094 452.873C352.634 456.91 357.441 461.11 360.978 466.088L359.87 467.314L347.284 454.006C347.462 453.348 347.561 453.316 348.094 452.873Z"/>
	<path fill="#0D0716" d="M365.889 199.709C366.221 198.863 367.982 197.549 368.689 196.865L369.341 197.703L382.597 212.675L383.95 211.927C388.217 215.649 392.221 219.597 396.904 222.821C404.58 227.728 412.182 231.859 420.978 234.47C422.011 234.753 428.599 236.139 428.91 236.551C433.133 237.083 437.375 237.494 441.594 238.047C441.877 238.084 442.245 237.977 442.438 238.187L443.19 239.443C444.729 239.576 446.206 239.665 447.677 240.183C448.077 240.781 448.39 241.276 448.934 241.76L429.883 268.343C428.21 271.046 425.759 273.82 424.591 276.756L423.83 276.57L422.717 276.104C421.231 275.828 419.265 276.14 417.719 276.135C402.017 276.079 389.372 269.828 378.459 258.869C374.694 254.945 371.766 250.604 368.55 246.248C368.1 245.548 366.995 244.209 366.821 243.452C366.495 242.03 366.984 239.214 367.021 237.695C367.256 227.935 368.035 218.077 368.014 208.339C367.707 205.853 367.815 203.285 367.808 200.781L367.383 200.435L366.427 201.236C366.292 200.709 366.085 200.216 365.889 199.709Z"/>
	<path fill="#434253" d="M365.889 199.709C366.221 198.863 367.982 197.549 368.689 196.865L369.341 197.703C367.373 200.186 368.862 205.221 368.014 208.339C367.707 205.853 367.815 203.285 367.808 200.781L367.383 200.435L366.427 201.236C366.292 200.709 366.085 200.216 365.889 199.709Z"/>
	<path fill="#252530" d="M422.717 276.104C424.549 273.421 426.374 270.144 428.639 267.843L429.883 268.343C428.21 271.046 425.759 273.82 424.591 276.756L423.83 276.57L422.717 276.104Z"/>
	<path fill="#46424D" d="M428.91 236.551C433.133 237.083 437.375 237.494 441.594 238.047C441.877 238.084 442.245 237.977 442.438 238.187L443.19 239.443C438.595 239.843 433.166 238.632 428.61 237.926C428.599 237.264 428.595 237.126 428.91 236.551Z"/>
	<path fill="#46424D" d="M383.95 211.927C388.217 215.649 392.221 219.597 396.904 222.821L397.756 224.432L397.476 224.87C392.225 222.298 386.613 216.898 382.597 212.675L383.95 211.927Z"/>
	<path fill="#46424D" d="M447.677 240.183C448.077 240.781 448.39 241.276 448.934 241.76L429.883 268.343L428.639 267.843C432.99 260.723 438.176 253.987 443.016 247.184C444.323 245.347 446.299 243.391 447.355 241.466C447.596 241.027 447.62 240.671 447.677 240.183Z"/>
	<path fill="#434253" d="M396.904 222.821C404.58 227.728 412.182 231.859 420.978 234.47C422.011 234.753 428.599 236.139 428.91 236.551C428.595 237.126 428.599 237.264 428.61 237.926L419.341 235.745C413.689 233.751 408.442 231.481 403.219 228.501C401.283 227.396 399.141 226.355 397.476 224.87L397.756 224.432L396.904 222.821Z"/>
	<defs>
		<linearGradient id="gradient_10" gradientUnits="userSpaceOnUse" x1="334.961" y1="380.664" x2="316.668" y2="314.59">
			<stop offset="0" stop-color="#C7002D"/>
			<stop offset="1" stop-color="#E81B6B"/>
		</linearGradient>
	</defs>
	<path fill="url(#gradient_10)" d="M283.402 301.143L287.742 301.576L311.74 306.462L313.349 306.924C320.638 309.132 327.473 311.902 334.213 315.456C336.665 316.985 340.672 319.211 342.29 321.595C351.793 329.389 358.553 343.516 360.778 355.323C356.625 365.698 350.061 375.404 339.453 379.986C331.338 383.491 320.937 383.49 312.744 380.247L308.254 378.236L308.248 378.203L305.797 376.703L299.598 372.013C298.4 370.69 297.402 369.583 295.78 368.774C294.406 366.44 292.384 364.532 290.84 362.306C288.548 359.001 287.563 353.452 286.572 349.557C284.58 343.138 282.956 336.555 281.424 330.015C280.591 326.459 279.442 322.57 279.265 318.924C279.044 314.406 279.801 309.728 279.822 305.167C281.234 303.939 281.235 303.084 281.677 301.264L283.402 301.143Z"/>
	<defs>
		<linearGradient id="gradient_11" gradientUnits="userSpaceOnUse" x1="285.35199" y1="341.60199" x2="277.405" y2="303.228">
			<stop offset="0" stop-color="#DC115C"/>
			<stop offset="1" stop-color="#F65A9F"/>
		</linearGradient>
	</defs>
	<path fill="url(#gradient_11)" d="M283.402 301.143L287.742 301.576L311.74 306.462L313.349 306.924C320.638 309.132 327.473 311.902 334.213 315.456C336.665 316.985 340.672 319.211 342.29 321.595L341.883 322.167C341.24 321.556 340.768 321.097 339.966 320.693C339.497 320.457 337.13 318.406 336.914 317.969L336.426 317.967C335.789 317.394 334.934 316.408 334.082 316.404L333.594 316.111L333.209 315.982C332.735 315.803 332.556 315.602 332.227 315.234L331.738 315.232C331.111 314.856 331.402 315.053 330.859 314.648C330.126 314.644 330.448 314.556 329.879 314.844C329.697 315.577 329.637 315.672 329.102 316.207L328.811 315.625C328.403 315.622 328.197 315.751 327.832 315.918C328.755 316.324 329.864 317.156 330.857 317.189L331.25 317.578C332.209 318.44 333.399 318.646 334.375 319.531L336.797 321.405C337.935 322.173 338.885 323.379 339.81 324.384L339.242 324.687C342.546 328.805 345.917 332.006 348.539 336.719C348.152 337.228 348.281 336.99 348.028 337.62L347.852 338.082C343.862 331.049 337.494 322.481 330.178 318.845L324.296 316.071C316.383 312.695 308.558 310.217 300.146 308.362C295.946 307.437 291.495 306.989 287.388 305.718C286.681 310.22 285.812 314.869 285.902 319.434C285.109 325.577 285.398 333.079 286.931 339.079C287.072 339.633 287.305 339.827 286.969 340.255C286.591 340.736 286.526 341.278 286.389 341.861L285.931 342.405L285.254 342.285C285.384 342.695 285.51 343.048 285.701 343.432C286.118 344.269 286.017 345.221 286.482 346.154C286.745 346.682 286.753 347.368 286.816 347.949L287.301 348.242L286.572 349.557C284.58 343.138 282.956 336.555 281.424 330.015C280.591 326.459 279.442 322.57 279.265 318.924C279.044 314.406 279.801 309.728 279.822 305.167C281.234 303.939 281.235 303.084 281.677 301.264L283.402 301.143Z"/>
	<path fill="#AE0036" d="M286.389 341.861C285.815 338.668 285.046 335.488 284.748 332.253C283.865 322.666 284.775 313.62 286.17 304.157C289.864 305.927 294.429 306.179 298.438 307.038C310.19 309.555 323.513 312.987 333.552 319.765C335.599 321.147 337.432 323.008 339.242 324.687C342.546 328.805 345.917 332.006 348.539 336.719C348.152 337.228 348.281 336.99 348.028 337.62L347.852 338.082C343.862 331.049 337.494 322.481 330.178 318.845L324.296 316.071C316.383 312.695 308.558 310.217 300.146 308.362C295.946 307.437 291.495 306.989 287.388 305.718C286.681 310.22 285.812 314.869 285.902 319.434C285.109 325.577 285.398 333.079 286.931 339.079C287.072 339.633 287.305 339.827 286.969 340.255C286.591 340.736 286.526 341.278 286.389 341.861Z"/>
	<defs>
		<linearGradient id="gradient_12" gradientUnits="userSpaceOnUse" x1="330.664" y1="373.242" x2="306.07199" y2="306.61499">
			<stop offset="0" stop-color="white"/>
			<stop offset="1" stop-color="white"/>
		</linearGradient>
	</defs>
	<path fill="url(#gradient_12)" d="M285.902 319.434C285.812 314.869 286.681 310.22 287.388 305.718C291.495 306.989 295.946 307.437 300.146 308.362C308.558 310.217 316.383 312.695 324.296 316.071L322.141 316.681C321.676 316.837 321.238 317.232 320.898 317.578C321.511 317.956 321.898 318.231 322.623 318.361L323.737 319.824C336.05 327.049 344.27 339.199 347.833 352.972C348.541 355.708 346.926 358.154 345.504 360.522C341.964 366.419 336.636 372.869 329.552 374.483C323.539 375.852 317.568 373.203 312.735 369.865C302.612 362.872 293.954 348.601 291.85 336.574L291.261 330.36L290.873 330.022L290.824 322.461L290.234 322.07L289.451 322.264L288.867 322.266C288.44 323.036 287.708 323.275 287.243 323.972L287.107 324.217L286.523 324.219L286.23 324.933L285.902 319.434Z"/>
	<path fill="#EE3D83" d="M285.902 319.434C285.812 314.869 286.681 310.22 287.388 305.718C291.495 306.989 295.946 307.437 300.146 308.362C308.558 310.217 316.383 312.695 324.296 316.071L322.141 316.681C321.676 316.837 321.238 317.232 320.898 317.578C321.511 317.956 321.898 318.231 322.623 318.361L323.737 319.824C313.455 315.277 303.038 312.352 291.974 310.377L291.261 330.36L290.873 330.022L290.824 322.461L290.234 322.07L289.451 322.264L288.867 322.266C288.44 323.036 287.708 323.275 287.243 323.972L287.107 324.217L286.523 324.219L286.23 324.933L285.902 319.434Z"/>
	<defs>
		<linearGradient id="gradient_13" gradientUnits="userSpaceOnUse" x1="398.633" y1="379.883" x2="427.54401" y2="303.569">
			<stop offset="0" stop-color="#CC0036"/>
			<stop offset="1" stop-color="#EB2767"/>
		</linearGradient>
	</defs>
	<path fill="url(#gradient_13)" d="M458.508 301.289L461.523 301.057C462.61 302.471 463.083 304.722 463.588 306.445C465.329 312.397 466.342 318.388 466.996 324.545L467.502 327.998L467.188 332.204C465.944 343.943 460.996 352.624 454.358 362.026L453.257 363.454C450.881 365.715 448.498 367.96 445.965 370.047C444.956 370.878 441.83 372.846 441.321 373.897L438.928 375.122L426.53 380.415C415.787 383.791 403.084 383.526 393.047 378.253C385.454 374.265 379.895 368.639 375.412 361.403C374.484 359.905 373.091 357.853 372.684 356.129C371.637 351.693 375.812 344.255 377.995 340.36C382.243 332.783 388.005 325.417 394.997 320.192C401.477 315.348 410.246 311.721 417.991 309.536C430.498 305.455 443.547 303.227 456.577 301.607L458.508 301.289Z"/>
	<path fill="#AE0036" d="M453.026 305.582L457.177 304.799C459.805 311.327 460.743 317.937 461.405 324.897C461.666 333.716 460.358 344.408 455.273 351.891C454.582 350.255 455.527 351.216 455.762 349.803C455.202 350.124 455.201 350.195 454.515 350.195C459.785 342.152 460.914 331.716 459.837 322.339C459.462 316.848 458.027 311.244 456.505 305.971L452.734 306.42L453.026 305.582Z"/>
	<path fill="#B3002E" d="M418.131 313.013L453.026 305.582L452.734 306.42C445.95 307.402 439.341 308.903 432.65 310.359C429.501 311.044 425.746 311.504 422.783 312.786L421.197 313.13C419.037 313.665 416.896 314.652 414.812 315.437C405.129 319.083 396.805 324.185 390.789 332.846C387.429 337.682 384.76 343.253 381.738 348.313C381.719 347.847 381.671 347.464 381.86 347.023L382.031 346.68L382.422 345.703C382.702 345.219 382.968 345.099 383.112 344.525C383.235 344.032 383.126 344.236 383.417 343.829L385.938 339.844C386.878 338.53 388.892 335.678 388.965 334.082C388.005 335.004 387.63 336.101 386.761 337.029L386.328 337.5C385.99 337.976 385.823 338.331 385.37 338.72L384.961 339.062L384.957 339.648L383.398 341.016L383.395 341.602C382.471 342.114 382.374 342.854 381.831 343.669C381.465 344.218 381.107 344.687 380.945 345.337C380.839 345.76 380.728 345.943 380.469 346.289L379.902 346.289C381.3 342.287 383.961 339.819 386.368 336.523C387.543 334.913 388.349 333.044 389.576 331.475C390.937 329.737 392.802 328.213 394.431 326.727C398.915 322.636 403.265 319.42 408.823 316.889C411.78 315.542 415.065 314.747 417.892 313.153L418.131 313.013Z"/>
	<defs>
		<linearGradient id="gradient_14" gradientUnits="userSpaceOnUse" x1="454.492" y1="317.383" x2="454.63" y2="306.82199">
			<stop offset="0" stop-color="#EA3A74"/>
			<stop offset="1" stop-color="#F459A9"/>
		</linearGradient>
	</defs>
	<path fill="url(#gradient_14)" d="M452.734 306.42L456.505 305.971C458.027 311.244 459.462 316.848 459.837 322.339L459.654 322.029C459.148 321.148 458.92 320.637 458.898 319.627C458.888 319.199 458.914 319.427 458.739 318.963C458.462 318.226 458.518 317.381 458.496 316.6L457.812 316.988L457.223 316.602C456.381 317.161 455.701 316.958 454.783 317.578L454.883 320.703L455.27 321.094C455.184 322.02 455.009 322.609 454.635 323.461L452.062 310.062C442.67 311.212 432.994 313.353 423.99 316.246C419.711 317.621 415.619 319.396 411.389 320.888L411.19 320.565C411.496 320.135 411.652 319.928 412.151 319.707L412.603 319.533C413.426 319.192 414.444 319.019 415.172 318.534L415.43 318.359C416.202 318.106 416.77 317.701 417.481 317.465L417.773 317.387C418.258 317.204 418.631 317.009 419.156 316.929C419.947 316.808 420.527 316.736 421.242 316.352C421.677 316.119 421.864 316.014 422.364 315.915C422.844 315.82 423.121 315.721 423.561 315.518L424.221 315.236C425.031 315.126 424.922 315.147 425.586 314.652L426.367 314.844L425 312.986C424.137 312.916 423.962 312.805 423.246 313.263L422.783 312.786C425.746 311.504 429.501 311.044 432.65 310.359C439.341 308.903 445.95 307.402 452.734 306.42Z"/>
	<defs>
		<linearGradient id="gradient_15" gradientUnits="userSpaceOnUse" x1="458.008" y1="302.14801" x2="458.103" y2="318.577">
			<stop offset="0" stop-color="#FA5BA4"/>
			<stop offset="1" stop-color="#EC3973"/>
		</linearGradient>
	</defs>
	<path fill="url(#gradient_15)" d="M458.508 301.289L461.523 301.057C462.61 302.471 463.083 304.722 463.588 306.445C465.329 312.397 466.342 318.388 466.996 324.545L466.324 324.676C465.836 323.319 466.288 321.361 465.434 320.312L465.482 319.991C465.578 319.333 465.736 318.783 465.43 318.16C464.615 317.617 464.046 317.771 463.082 317.773C462.44 318.31 462.195 318.75 461.328 318.75L461.523 319.107C462.149 320.357 461.342 322.045 461.719 323.242C461.977 324.062 462.097 323.98 462.01 325.016L461.405 324.897C460.743 317.937 459.805 311.327 457.177 304.799L453.026 305.582L418.131 313.013L418.366 312.305C419.078 312.182 419.649 312.003 420.312 311.719L420.312 311.129L417.991 309.536C430.498 305.455 443.547 303.227 456.577 301.607L458.508 301.289Z"/>
	<defs>
		<linearGradient id="gradient_16" gradientUnits="userSpaceOnUse" x1="399.80499" y1="370.508" x2="439.93301" y2="304.427">
			<stop offset="0" stop-color="white"/>
			<stop offset="1" stop-color="white"/>
		</linearGradient>
	</defs>
	<path fill="url(#gradient_16)" d="M411.389 320.888C415.619 319.396 419.711 317.621 423.99 316.246C432.994 313.353 442.67 311.212 452.062 310.062L454.635 323.461C454.862 328.026 455.086 332.985 454.146 337.467C451.607 349.572 442.052 361.925 431.674 368.555C424.196 373.331 415.191 376.383 406.274 374.276C398.463 372.431 391.266 365.624 387.193 358.949C386.343 357.556 384.651 355.29 385.102 353.745C388.201 343.146 395.661 331.842 404.409 325.141C406.565 323.489 409.017 322.203 411.389 320.888Z"/>
	<path fill="#000001" d="M487.93 361.763L488.309 361.302L488.98 362.027C482.727 382.384 474.436 402.109 464.664 421.019C461.652 426.848 458.62 433.012 454.94 438.441L452.122 443.174C439.056 463.827 424.712 481.922 399.609 487.521C389.096 489.866 378.326 489.658 367.71 488.162C368.27 484.272 366.704 479.137 368.426 475.437L368.911 474.321L368.637 472.656C369.514 470.761 371.519 468.998 372.922 467.441C379.834 459.774 386.427 454.132 395.759 449.536L395.896 450.293C396.534 450.347 397.226 450.347 397.845 450.504L406.6 448.076C410.261 447.431 413.938 447.359 417.616 446.922C418.579 446.807 420.964 446.199 421.796 446.387C422.348 446.511 424.441 450.061 424.947 450.781C426.844 453.48 428.926 456.059 430.89 458.711C432.641 461.074 433.829 463.295 436.281 465.002C434.256 458.715 428.468 452.301 424.18 447.288C424.224 446.832 424.233 446.43 424.154 445.977C423.444 441.877 423.747 437.276 423.97 433.121C424.838 416.929 428.505 402.08 434.722 387.109C436.618 382.543 439.639 378.595 441.321 373.897C441.83 372.846 444.956 370.878 445.965 370.047C448.498 367.96 450.881 365.715 453.257 363.454C461.023 363.598 468.819 363.326 476.58 363.04C480.249 362.905 484.699 363.852 487.93 361.763Z"/>
	<path fill="#282B3F" d="M395.759 449.536L395.896 450.293C396.534 450.347 397.226 450.347 397.845 450.504C385.057 454.793 377.351 464.581 368.911 474.321L368.637 472.656C369.514 470.761 371.519 468.998 372.922 467.441C379.834 459.774 386.427 454.132 395.759 449.536Z"/>
	<path fill="#2F2F35" d="M452.122 443.174C448.24 434.085 466.879 392.825 471.765 383.648C473.39 380.596 475.285 377.624 476.994 374.611C477.927 372.966 478.627 371.123 479.619 369.531C480.638 367.895 482.12 366.851 482.71 364.943L482.796 364.648L483.594 364.262L484.176 364.648C483.343 366.762 481.357 367.899 480.382 369.829C479.237 372.096 478.538 374.564 477.326 376.874C475.861 379.667 473.914 382.107 472.405 384.814C471.148 387.07 470.365 389.812 469.217 392.167C467.783 395.109 465.875 397.946 464.557 400.889C463.68 402.847 463.268 405.009 462.547 407.031C459.376 415.933 456.112 424.491 454.83 433.934C454.679 435.043 454.216 437.009 454.71 438.024L454.94 438.441L452.122 443.174Z"/>
	<path fill="#0D0813" d="M473.798 207.826C474.461 208.3 474.68 208.471 474.947 209.245C475.181 209.925 475.374 210.072 475.934 210.5C477.161 211.439 477.826 212.965 478.551 214.3L478.515 214.41C479.037 215.396 479.547 216.279 480.244 217.15C481.776 219.065 483.129 221.041 484.184 223.242L484.574 223.828C485.116 224.686 485.641 226.069 486.508 226.625C487.012 226.689 487.281 226.647 487.699 226.953L487.759 227.282C487.928 227.961 488.321 228.447 488.7 229.016C488.927 229.356 488.854 229.24 488.955 229.65C489.136 230.378 489.568 230.935 489.749 231.664C489.924 232.371 490.422 232.809 490.627 233.592C490.797 234.241 491.022 234.777 491.336 235.363C491.639 235.929 491.663 236.264 491.605 236.914L492.204 237.769C492.455 238.145 492.375 238.058 492.47 238.536C492.733 239.859 493.468 240.752 494.567 241.513C502.115 264.316 504.589 290.168 500.181 313.905L500.115 313.939C499.537 320.936 497.936 328.063 496.357 334.896C494.243 344.047 491.864 353.05 489.055 362.013L488.98 362.027L488.309 361.302L487.93 361.763C484.699 363.852 480.249 362.905 476.58 363.04C468.819 363.326 461.023 363.598 453.257 363.454L454.358 362.026C460.996 352.624 465.944 343.943 467.188 332.204L467.502 327.998L466.996 324.545C466.342 318.388 465.329 312.397 463.588 306.445C463.083 304.722 462.61 302.471 461.523 301.057L458.508 301.289L456.577 301.607L452.119 278.409C451.681 277.651 451.603 274.814 451.471 273.826C450.28 264.953 449.392 256.093 449.543 247.13C449.57 245.559 449.413 243.177 450.586 242.048L451.208 243.594L451.245 243.435C451.428 241.909 451.6 240.506 450.721 239.162L470.514 212.19C470.697 210.95 472.946 208.822 473.798 207.826Z"/>
	<path fill="#434253" d="M475.562 245.826L476.881 244.481L477.545 249.197C476.759 249.764 476.666 249.87 476.288 250.761L475.562 245.826Z"/>
	<path fill="#434253" d="M481.161 268.012C481.393 268.974 482.186 273.626 482.695 274.071L484.319 280.901C483.942 281.078 483.176 281.305 482.97 281.648L479.969 269.56L480.291 269.467L480.857 269.529C481.06 269.016 481.108 268.559 481.161 268.012Z"/>
	<path fill="#46424D" d="M476.288 250.761C476.666 249.87 476.759 249.764 477.545 249.197L481.161 268.012C481.108 268.559 481.06 269.016 480.857 269.529L480.291 269.467L479.969 269.56L476.288 250.761Z"/>
	<path fill="#46424D" d="M453.422 276.102C453.922 279.775 456.957 299.67 458.508 301.289L456.577 301.607L452.119 278.409C452.423 278.031 452.32 278.217 452.506 277.718L452.637 277.346C452.667 278.107 452.622 278.523 453.027 279.199L453.422 276.102Z"/>
	<path fill="#46424D" d="M472.23 217.234L472.353 214.062L473.242 212.991C474.001 213.591 474.012 213.88 474.113 214.857C474.393 217.593 473.766 220.619 474.551 223.263L476.881 244.481L475.562 245.826L472.23 217.234Z"/>
	<path fill="#46424D" d="M484.319 280.901C486.189 287.255 487.93 293.704 490.011 299.99C492.315 306.952 495.516 313.294 496.417 320.657C492.448 311.847 489.222 302.578 486.352 293.359C485.161 289.534 483.668 285.593 482.97 281.648C483.176 281.305 483.942 281.078 484.319 280.901Z"/>
	<path fill="#434253" d="M452.119 278.409C451.681 277.651 451.603 274.814 451.471 273.826C450.28 264.953 449.392 256.093 449.543 247.13C449.57 245.559 449.413 243.177 450.586 242.048L451.208 243.594C451.233 252.117 452.083 260.779 452.718 269.283C452.857 271.144 453.67 274.373 453.422 276.102L453.027 279.199C452.622 278.523 452.667 278.107 452.637 277.346L452.506 277.718C452.32 278.217 452.423 278.031 452.119 278.409Z"/>
	<path fill="#000001" d="M467.502 327.998C469.633 331.129 471.027 335.003 472.784 338.392C475.217 343.089 478.036 347.632 480.333 352.39C482.151 355.248 484.588 360.867 487.93 361.763C484.699 363.852 480.249 362.905 476.58 363.04C468.819 363.326 461.023 363.598 453.257 363.454L454.358 362.026C460.996 352.624 465.944 343.943 467.188 332.204L467.502 327.998Z"/>
	<path fill="#46424D" d="M467.502 327.998C469.633 331.129 471.027 335.003 472.784 338.392C475.217 343.089 478.036 347.632 480.333 352.39L479.132 353.513C475.011 346.406 469.886 338.426 467.811 330.469L467.188 332.204L467.502 327.998Z"/>
	<path fill="#2F2F35" d="M480.333 352.39C482.151 355.248 484.588 360.867 487.93 361.763C484.699 363.852 480.249 362.905 476.58 363.04C468.819 363.326 461.023 363.598 453.257 363.454L454.358 362.026L483.968 361.44L479.132 353.513L480.333 352.39Z"/>
	<defs>
		<linearGradient id="gradient_17" gradientUnits="userSpaceOnUse" x1="497.07001" y1="319.336" x2="523.36603" y2="307.819">
			<stop offset="0" stop-color="black"/>
			<stop offset="1" stop-color="#24222B"/>
		</linearGradient>
	</defs>
	<path fill="url(#gradient_17)" d="M473.798 207.826C474.461 208.3 474.68 208.471 474.947 209.245C475.181 209.925 475.374 210.072 475.934 210.5C477.161 211.439 477.826 212.965 478.551 214.3L478.515 214.41C479.037 215.396 479.547 216.279 480.244 217.15C481.776 219.065 483.129 221.041 484.184 223.242L484.574 223.828C485.116 224.686 485.641 226.069 486.508 226.625C487.012 226.689 487.281 226.647 487.699 226.953L487.759 227.282C487.928 227.961 488.321 228.447 488.7 229.016C488.927 229.356 488.854 229.24 488.955 229.65C489.136 230.378 489.568 230.935 489.749 231.664C489.924 232.371 490.422 232.809 490.627 233.592C490.797 234.241 491.022 234.777 491.336 235.363C491.639 235.929 491.663 236.264 491.605 236.914L492.204 237.769C492.455 238.145 492.375 238.058 492.47 238.536C492.733 239.859 493.468 240.752 494.567 241.513C502.115 264.316 504.589 290.168 500.181 313.905L500.115 313.939L499.429 315.417C498.475 316.654 498.679 319.063 498.238 320.703C497.085 319.387 497.211 318.876 496.734 317.297L496.285 315.43C496.202 315.005 496.14 314.585 496.002 314.175C495.306 312.099 494.576 309.958 493.764 307.928L492.967 305.861L491.988 303.125L491.602 302.734C491.624 301.959 491.524 301.531 491.209 300.825L490.915 300.105L490.323 298.48L490.232 298.145C490.003 297.412 489.908 296.352 489.549 295.703C489.172 295.024 488.767 293.754 488.863 292.969C488.335 292.435 488.476 292.495 488.473 291.797L488.086 291.406C488.08 290.463 487.713 289.765 487.5 288.867C487.358 288.27 487.379 287.974 487.045 287.439L486.814 287.109L486.91 286.523L486.411 285.187L486.326 284.863C485.962 283.576 485.713 282.946 485.156 281.836C484.921 281.367 485.029 280.28 484.863 279.691L484.566 278.711C484.36 277.755 483.864 276.918 483.792 275.958C483.726 275.092 483.229 274.734 482.695 274.071C482.186 273.626 481.393 268.974 481.161 268.012L477.545 249.197L476.881 244.481L474.551 223.263C473.766 220.619 474.393 217.593 474.113 214.857C474.012 213.88 474.001 213.591 473.242 212.991L472.353 214.062L472.23 217.234C471.896 215.367 471.849 213.602 470.514 212.19C470.697 210.95 472.946 208.822 473.798 207.826Z"/>
	<path fill="#2F2F35" d="M473.798 207.826C474.461 208.3 474.68 208.471 474.947 209.245C475.181 209.925 475.374 210.072 475.934 210.5C477.161 211.439 477.826 212.965 478.551 214.3L478.515 214.41C479.037 215.396 479.547 216.279 480.244 217.15C481.776 219.065 483.129 221.041 484.184 223.242L484.574 223.828C485.116 224.686 485.641 226.069 486.508 226.625L486.328 228.516C486.778 229.351 486.803 229.696 487.695 230.078L488.049 231.042L488.184 231.348C487.792 232 488.179 232.56 488.086 233.395L487.305 233.395L486.914 233.785L486.702 233.212L486.408 232.42C485.69 230.042 484.117 229.276 482.791 227.328C481.563 225.523 480.523 223.445 479.367 221.577C478.464 220.119 477.301 218.849 476.48 217.333C476.209 216.832 475.948 216.373 475.614 215.91C474.842 214.842 475.189 213.07 474.418 211.914C474.45 211.188 474.537 210.443 474.223 209.766C473.973 209.227 474.132 209.417 473.535 209.178C473.034 210.008 472.514 210.635 471.811 211.306L471.582 211.521L472.266 212.305L473.242 212.309L473.633 211.918C473.924 212.248 474.578 212.872 474.705 213.281C475.02 214.291 474.637 215.568 474.592 216.602C474.496 218.812 474.553 221.05 474.551 223.263C473.766 220.619 474.393 217.593 474.113 214.857C474.012 213.88 474.001 213.591 473.242 212.991L472.353 214.062L472.23 217.234C471.896 215.367 471.849 213.602 470.514 212.19C470.697 210.95 472.946 208.822 473.798 207.826Z"/>
</svg>
