<?xml version="1.0" encoding="utf-8" ?>
<svg xmlns="http://www.w3.org/2000/svg" xmlns:xlink="http://www.w3.org/1999/xlink" width="800" height="600">
	<path fill="white" d="M0 0.195312C1.7549 -0.189278 3.73802 -0.00294089 5.54009 -0.00262959C8.7651 -0.00207249 11.9901 -0.00273718 15.2151 -0.00307689C27.6824 -0.00439015 40.1498 -0.00484362 52.6171 -0.00545381C102.37 -0.00788885 152.123 -0.0100449 201.875 -0.0109017C401.25 -0.0143352 600.625 -0.00786761 800 0L800 599.805C798.245 600.189 796.262 600.003 794.46 600.003C791.235 600.002 788.01 600.003 784.785 600.003C772.318 600.004 759.85 600.005 747.383 600.005C697.63 600.008 647.877 600.01 598.125 600.011C398.75 600.014 199.375 600.008 -0 600L0 0.195312Z"/>
	<path fill="#484859" d="M318.259 423.764L318.945 422.694L319.482 422.855L319.707 423.861L318.955 425.33L318.739 426.064L317.92 429.358L315.046 422.52C315.685 423.082 316.441 423.511 316.689 424.335L317.229 424.159L318.259 423.764Z"/>
	<path fill="#555262" d="M472.765 202.119C478.52 210.221 484.136 218.399 487.855 227.676C484.655 225.704 484.698 223.83 482.834 220.968C480.845 217.916 478.468 215.023 476.301 212.086C474.239 209.294 473.229 207.091 470.537 204.713C470.97 203.737 472.023 202.881 472.765 202.119Z"/>
	<path fill="#717786" d="M277.299 294.308C276.337 290.804 276.591 285.786 276.689 282.131C277.1 266.834 279.049 251.72 284.755 237.402C285.28 238.61 285.992 239.557 286.673 240.667L285.583 240.702C285.401 241.168 285.365 241.386 285.363 241.892C285.361 242.629 284.917 243.292 284.756 244.043C284.049 247.33 282.81 250.416 282.032 253.669C282.011 256.775 281.014 259.421 280.462 262.421C279.662 266.772 278.922 271.378 278.481 275.781C277.921 281.374 279.118 287.598 277.565 293.082L277.299 294.308Z"/>
	<path fill="#686D7D" d="M277.565 293.082C276.919 289.606 276.436 282.297 277.539 279.105C277.81 278.323 277.272 276.955 277.543 276.172C277.932 275.048 277.971 273.994 278.32 272.855C278.526 272.185 278.323 270.7 278.323 269.953C278.324 268.875 278.928 265.893 279.492 265.043L279.105 264.648L279.492 264.262C279.481 263.676 279.466 263.164 279.581 262.586L279.887 261.133C280.106 259.982 280.481 258.92 280.861 257.814C281.041 257.29 281.154 256.8 281.255 256.252C281.422 255.337 281.707 254.536 282.032 253.669C282.011 256.775 281.014 259.421 280.462 262.421C279.662 266.772 278.922 271.378 278.481 275.781C277.921 281.374 279.118 287.598 277.565 293.082Z"/>
	<path fill="#626575" d="M293.886 366.548C295.133 367.384 296.27 368.173 297.321 369.262C298.091 371.069 299.557 373.415 299.9 375.294C300.704 379.384 303.045 383.834 304.492 387.84C305.787 391.425 306.782 395.103 308.094 398.687C309.815 404.594 312.887 409.825 312.18 416.107L293.886 366.548Z"/>
	<path fill="#484859" d="M282.032 253.669C282.81 250.416 284.049 247.33 284.756 244.043C284.917 243.292 285.361 242.629 285.363 241.892C285.365 241.386 285.401 241.168 285.583 240.702L286.673 240.667C287.067 241.371 287.605 242.07 287.652 242.883C288.074 243.588 288.456 244.377 289.026 244.97L288.903 245.265C289.182 245.602 289.62 246.307 289.988 246.501L288.502 268.467L285.772 286.398L284.96 291.482L284.48 294.263L283.953 296.295C283.89 297.26 283.907 298.267 283.586 299.181C282.569 299.854 281.514 299.682 280.352 299.634L280.033 299.589C278.898 299.375 278.834 299.273 277.768 299.851L277.299 294.308L277.565 293.082C279.118 287.598 277.921 281.374 278.481 275.781C278.922 271.378 279.662 266.772 280.462 262.421C281.014 259.421 282.011 256.775 282.032 253.669Z"/>
	<path fill="#626575" d="M282.032 253.669C282.81 250.416 284.049 247.33 284.756 244.043C284.917 243.292 285.361 242.629 285.363 241.892C285.365 241.386 285.401 241.168 285.583 240.702L286.673 240.667C287.067 241.371 287.605 242.07 287.652 242.883C284.231 246.103 283.964 254.965 282.537 259.375C281.457 262.712 281.14 266.53 280.746 270.004C279.991 276.648 279.572 283.311 279.675 290.001C279.723 293.181 280.157 296.422 280.033 299.589C278.898 299.375 278.834 299.273 277.768 299.851L277.299 294.308L277.565 293.082C279.118 287.598 277.921 281.374 278.481 275.781C278.922 271.378 279.662 266.772 280.462 262.421C281.014 259.421 282.011 256.775 282.032 253.669Z"/>
	<defs>
		<linearGradient id="gradient_0" gradientUnits="userSpaceOnUse" x1="286.914" y1="277.14801" x2="284.146" y2="276.71301">
			<stop offset="0" stop-color="#212034"/>
			<stop offset="1" stop-color="#323747"/>
		</linearGradient>
	</defs>
	<path fill="url(#gradient_0)" d="M282.351 289.242C281.523 285.54 281.847 281.055 281.946 277.295C282.036 273.857 282.659 270.578 283.187 267.196C283.528 265.014 283.707 262.725 284.294 260.598C285.752 255.313 287.636 251.093 288.001 245.525L288.903 245.265C289.182 245.602 289.62 246.307 289.988 246.501L288.502 268.467L285.772 286.398L284.96 291.482L284.48 294.263L283.953 296.295C283.89 297.26 283.907 298.267 283.586 299.181L282.665 298.991C281.663 296.549 282.323 291.985 282.351 289.242Z"/>
	<path fill="#433F4F" d="M282.351 289.242L282.613 286.133C283.352 285.382 282.742 284.85 283.619 283.986C283.971 284.7 284.333 285.375 284.57 286.137C283.907 287.161 284.298 288.816 284.359 290.039L284.661 290.232L284.863 288.379L285.348 288.086C285.243 287.447 285.034 287.128 285.365 286.549L285.772 286.398L284.96 291.482L284.48 294.263L283.953 296.295C283.89 297.26 283.907 298.267 283.586 299.181L282.665 298.991C281.663 296.549 282.323 291.985 282.351 289.242Z"/>
	<path fill="#26273A" d="M283.619 283.986C283.971 284.7 284.333 285.375 284.57 286.137C283.907 287.161 284.298 288.816 284.359 290.039L284.661 290.232L284.863 288.379L285.348 288.086C285.243 287.447 285.034 287.128 285.365 286.549L285.772 286.398L284.96 291.482L284.48 294.263L283.953 296.295C282.563 292.943 283.675 287.653 283.619 283.986Z"/>
	<defs>
		<linearGradient id="gradient_1" gradientUnits="userSpaceOnUse" x1="347.85199" y1="456.05499" x2="333.15701" y2="462.064">
			<stop offset="0" stop-color="#000005"/>
			<stop offset="1" stop-color="#2B2936"/>
		</linearGradient>
	</defs>
	<path fill="url(#gradient_1)" d="M318.955 425.33L319.711 425.805L322.066 427.539L322.168 428.713L322.461 428.324C323.177 429.402 322.496 430.073 323.826 430.861L324.106 432.313C324.326 433.406 324.516 433.907 325.37 434.654L326.327 434.977C327.392 438.315 327.486 438.571 330.664 440.177C333.723 441.723 336.387 443.53 339.164 445.533C339.929 446.084 341.483 446.989 341.98 447.783L342.121 448.231L342.462 449.135L342.186 449.928L347.738 455.159C347.899 455.925 348.028 456.648 348.347 457.364C349.176 459.225 348.359 461.649 349.41 463.281C350.319 464.692 350.915 466.4 351.777 467.867C352.358 468.856 353.297 469.603 353.468 470.769C353.602 471.685 353.364 470.356 353.811 471.484C354.066 472.129 354.207 472.753 354.49 473.436L354.688 474.414L354.879 475.195L354.708 475.427C354.224 476.154 354.062 476.891 353.904 477.732C353.595 479.38 353.634 479.59 352.346 480.619L351.96 480.569C351.48 480.525 351.207 480.579 350.755 480.712L349.888 480.329C343.371 476.862 338.296 469.849 334.456 463.699C333.084 461.503 331.479 459.129 330.651 456.671C328.996 454.453 327.866 451.395 326.686 448.892C323.642 442.436 320.793 435.891 317.92 429.358L318.739 426.064L318.955 425.33Z"/>
	<defs>
		<linearGradient id="gradient_2" gradientUnits="userSpaceOnUse" x1="342.383" y1="449.02301" x2="325.63101" y2="452.37399">
			<stop offset="0" stop-color="#161522"/>
			<stop offset="1" stop-color="#3A3944"/>
		</linearGradient>
	</defs>
	<path fill="url(#gradient_2)" d="M318.955 425.33L319.711 425.805L322.066 427.539L322.168 428.713L322.461 428.324C323.177 429.402 322.496 430.073 323.826 430.861L324.106 432.313C324.326 433.406 324.516 433.907 325.37 434.654L326.327 434.977C327.392 438.315 327.486 438.571 330.664 440.177C333.723 441.723 336.387 443.53 339.164 445.533C339.929 446.084 341.483 446.989 341.98 447.783L342.121 448.231L342.462 449.135L342.186 449.928C337.814 446.871 333.684 442.763 328.223 441.992L327.694 442.578C327.77 443.752 327.978 444.294 328.597 445.278C330.091 447.654 331.631 451.427 332.563 454.102L332.031 454.102L330.664 451.172L330.078 450.977C329.696 450.085 329.351 450.059 328.516 449.609L328.32 450.199L328.501 450.46C328.754 450.84 328.855 451.156 328.977 451.587C329.162 452.242 329.628 452.834 329.879 453.516L330.176 454.09C330.63 454.961 330.628 455.716 330.651 456.671C328.996 454.453 327.866 451.395 326.686 448.892C323.642 442.436 320.793 435.891 317.92 429.358L318.739 426.064L318.955 425.33Z"/>
	<path fill="#26273A" d="M318.955 425.33L319.711 425.805L322.066 427.539L322.168 428.713L322.461 428.324C323.177 429.402 322.496 430.073 323.826 430.861L324.106 432.313C324.326 433.406 324.516 433.907 325.37 434.654L325.197 438.279L324.611 438.279C323.96 438.189 323.529 437.784 323.136 437.305L322.663 436.719C322.137 436.188 321.918 436.121 321.665 435.378C321.282 434.253 320.468 432.151 319.723 431.25C319.133 430.537 319.334 429.643 319.332 428.711L319.723 428.32L319.336 427.934L319.644 427.539L318.739 426.064L318.955 425.33Z"/>
	<defs>
		<linearGradient id="gradient_3" gradientUnits="userSpaceOnUse" x1="461.133" y1="201.758" x2="458.45801" y2="160.793">
			<stop offset="0" stop-color="#12091A"/>
			<stop offset="1" stop-color="#292E43"/>
		</linearGradient>
	</defs>
	<path fill="url(#gradient_3)" d="M371.112 158.999L372.755 158.272C374.668 157.426 377.561 157.427 379.642 157.204C392.88 155.788 407.138 157.171 419.628 162.001L420.882 162.623C424.059 163.151 428.554 165.277 431.275 166.993C447.63 174.493 460.353 187.141 471.763 200.697L472.765 202.119C472.023 202.881 470.97 203.737 470.537 204.713C469.995 205.531 469.436 206.636 468.696 207.273C468.194 206.891 467.679 206.605 467.131 206.297L466.47 206.21C464.882 205.716 463.237 205.649 461.588 205.51C458.866 205.474 456.029 204.776 453.333 204.331C440.662 202.24 428.928 198.318 417.249 193.103C414.279 191.777 410.508 190.352 408.073 188.18C397.797 182.168 388.941 174.771 379.733 167.316C379.445 166.698 378.145 165.739 377.622 165.238C375.453 163.158 373.284 161.076 371.112 158.999Z"/>
	<path fill="#140F20" d="M441.398 200.275C441.735 198.486 443.202 197.724 444.531 196.684C446.062 196.646 446.63 196.656 448.047 197.212C448.698 197.468 449.504 197.358 450.201 197.606C450.83 197.83 451.491 197.819 452.152 197.852L452.37 198.007C452.856 198.328 452.66 198.193 453.265 198.47C454.367 198.974 455.258 200.034 456.348 200.684C457.142 201.157 457.451 201.637 458.398 201.953C458.95 201.68 458.739 201.894 458.986 201.27L459.677 201.457L459.738 201.603L462.209 203.39L462.155 203.922C455.437 203.962 447.933 201.705 441.398 200.275Z"/>
	<path fill="#433F4F" d="M408.273 186.914C411.094 187.947 413.661 189.865 416.392 191.157C424.392 194.94 432.79 198.224 441.398 200.275C447.933 201.705 455.437 203.962 462.155 203.922L462.067 204.252L461.588 205.51C458.866 205.474 456.029 204.776 453.333 204.331C440.662 202.24 428.928 198.318 417.249 193.103C414.279 191.777 410.508 190.352 408.073 188.18L408.273 186.914Z"/>
	<path fill="#545E75" d="M371.112 158.999L372.755 158.272C374.668 157.426 377.561 157.427 379.642 157.204C392.88 155.788 407.138 157.171 419.628 162.001L420.882 162.623C424.059 163.151 428.554 165.277 431.275 166.993C447.63 174.493 460.353 187.141 471.763 200.697L472.765 202.119C472.023 202.881 470.97 203.737 470.537 204.713C469.995 205.531 469.436 206.636 468.696 207.273C468.194 206.891 467.679 206.605 467.131 206.297L466.47 206.21C464.882 205.716 463.237 205.649 461.588 205.51L462.067 204.252L462.155 203.922L462.209 203.39L459.738 201.603C461.089 201.862 461.432 201.73 462.697 201.074L461.523 200.973C460.99 200.407 460.481 199.82 459.793 199.438L459.377 199.217C459.147 197.927 456.784 196.211 456.082 194.945L455.861 194.529L455.027 194.137C454.25 193.72 453.6 193.215 453.324 192.383C452.846 192.118 452.445 191.962 452.137 191.501C451.882 191.119 451.595 190.835 451.174 190.623C449.06 189.557 447.662 187.136 445.753 185.678C445.102 185.181 444.499 184.642 443.79 184.228L443.361 183.982C443.094 182.636 442.452 182.807 442.015 181.831C441.864 181.493 441.915 180.546 441.883 180.137C441.1 178.493 428.352 172.187 425.977 170.981C424.821 170.393 423.35 170.364 422.617 169.283C417.179 167.39 411.79 165.562 406.108 164.555C399.063 163.306 391.87 163.454 384.739 163.608C382.935 163.647 380.063 163.208 378.562 164.258C387.69 172.367 397.35 181.284 408.273 186.914L408.073 188.18C397.797 182.168 388.941 174.771 379.733 167.316C379.445 166.698 378.145 165.739 377.622 165.238C375.453 163.158 373.284 161.076 371.112 158.999Z"/>
	<path fill="#717786" d="M376.393 160.106C379.731 158.949 382.857 158.908 386.328 158.663C391.679 158.285 397.457 158.201 402.734 159.184L405.505 159.485C405.995 159.57 406.371 159.579 406.86 159.582C407.566 159.585 407.76 159.701 408.398 159.965C409.063 160.24 409.882 160.359 410.596 160.405C411.174 160.442 411.394 160.53 411.914 160.746C412.903 161.156 413.587 161.185 414.648 161.137L414.893 161.319C415.645 161.82 416.701 161.88 417.576 161.959C418.3 162.024 418.006 161.97 418.637 162.197C419.381 162.464 420.101 162.533 420.882 162.623C424.059 163.151 428.554 165.277 431.275 166.993C429.841 167.05 428.657 166.633 427.264 166.408C426.731 166.322 426.255 166.313 425.792 166.004C425.286 165.667 423.984 165.825 423.32 165.826C419.156 163.971 415.157 163.066 410.742 162.119C402.92 160.442 395.855 159.56 387.846 159.768C383.99 159.869 380.192 160.9 376.393 160.106Z"/>
	<path fill="#555262" d="M422.617 169.283C423.396 169.119 423.881 169.292 424.607 169.533C425.845 169.945 427.247 170.278 428.417 170.84C430.277 171.733 432.163 173.086 434.081 173.721C434.645 173.908 435.142 174.287 435.633 174.614C436.502 175.193 437.482 175.586 438.367 176.176C439.119 176.677 439.88 176.989 440.625 177.543C442.002 178.566 443.555 179.276 444.922 180.277L445.484 180.644C446.855 181.542 447.826 182.84 449.217 183.596L449.572 183.865C449.947 184.147 450.164 184.262 450.573 184.451C451.185 184.734 451.476 185.067 451.937 185.54C453.555 187.201 455.957 188.849 457.656 190.445C460.299 192.928 462.438 195.663 464.946 198.165C466.254 199.469 469.292 201.849 469.688 203.541L471.014 201.702L471.763 200.697L472.765 202.119C472.023 202.881 470.97 203.737 470.537 204.713C469.995 205.531 469.436 206.636 468.696 207.273C468.194 206.891 467.679 206.605 467.131 206.297L466.47 206.21C464.882 205.716 463.237 205.649 461.588 205.51L462.067 204.252L470.053 204.193C468.005 202.392 465.829 200.788 463.847 198.89C460.323 195.515 457.148 191.929 453.483 188.656C452.3 187.6 450.985 186.111 449.516 185.538C448.485 185.135 448.138 184.367 447.297 183.694C445.593 182.331 443.859 181.073 441.883 180.137C441.1 178.493 428.352 172.187 425.977 170.981C424.821 170.393 423.35 170.364 422.617 169.283Z"/>
	<path fill="#717786" d="M471.763 200.697L472.765 202.119C472.023 202.881 470.97 203.737 470.537 204.713C469.995 205.531 469.436 206.636 468.696 207.273C468.194 206.891 467.679 206.605 467.131 206.297L466.47 206.21C466.012 205.62 465.92 205.616 465.951 204.883L468.945 204.689L469.688 203.541L471.014 201.702L471.763 200.697Z"/>
	<path fill="#26273A" d="M441.883 180.137C443.859 181.073 445.593 182.331 447.297 183.694C448.138 184.367 448.485 185.135 449.516 185.538C450.985 186.111 452.3 187.6 453.483 188.656C457.148 191.929 460.323 195.515 463.847 198.89C465.829 200.788 468.005 202.392 470.053 204.193L462.067 204.252L462.155 203.922L462.209 203.39L459.738 201.603C461.089 201.862 461.432 201.73 462.697 201.074L461.523 200.973C460.99 200.407 460.481 199.82 459.793 199.438L459.377 199.217C459.147 197.927 456.784 196.211 456.082 194.945L455.861 194.529L455.027 194.137C454.25 193.72 453.6 193.215 453.324 192.383C452.846 192.118 452.445 191.962 452.137 191.501C451.882 191.119 451.595 190.835 451.174 190.623C449.06 189.557 447.662 187.136 445.753 185.678C445.102 185.181 444.499 184.642 443.79 184.228L443.361 183.982C443.094 182.636 442.452 182.807 442.015 181.831C441.864 181.493 441.915 180.546 441.883 180.137Z"/>
	<path fill="#686D7D" d="M423.32 165.826C423.984 165.825 425.286 165.667 425.792 166.004C426.255 166.313 426.731 166.322 427.264 166.408C428.657 166.633 429.841 167.05 431.275 166.993C447.63 174.493 460.353 187.141 471.763 200.697L471.014 201.702L470.311 200.783C469.354 198.76 466.499 197.324 465.035 195.312C462.847 192.305 459.922 190.02 457.335 187.43C456.57 186.664 454.957 184.585 454.01 184.272C453.275 184.029 452.804 183.399 452.148 183.012C449.113 181.215 446.392 178.242 443.298 176.305C436.78 172.225 430.115 169.296 423.32 165.826Z"/>
	<path fill="#757E8D" d="M371.112 158.999L372.755 158.272C374.668 157.426 377.561 157.427 379.642 157.204C392.88 155.788 407.138 157.171 419.628 162.001L420.882 162.623C420.101 162.533 419.381 162.464 418.637 162.197C418.006 161.97 418.3 162.024 417.576 161.959C416.701 161.88 415.645 161.82 414.893 161.319L414.648 161.137C413.587 161.185 412.903 161.156 411.914 160.746C411.394 160.53 411.174 160.442 410.596 160.405C409.882 160.359 409.063 160.24 408.398 159.965C407.76 159.701 407.566 159.585 406.86 159.582C406.371 159.579 405.995 159.57 405.505 159.485L402.734 159.184C397.457 158.201 391.679 158.285 386.328 158.663C382.857 158.908 379.731 158.949 376.393 160.106L375 160.214L374.92 160.553C375.616 161.278 377.785 164.019 378.562 164.258C387.69 172.367 397.35 181.284 408.273 186.914L408.073 188.18C397.797 182.168 388.941 174.771 379.733 167.316C379.445 166.698 378.145 165.739 377.622 165.238C375.453 163.158 373.284 161.076 371.112 158.999Z"/>
	<path fill="#26273A" d="M362.801 160.654L365.4 159.846L365.636 164.038L365.82 168.974L366.727 168.795L366.778 171.718C366.317 176.675 365.962 181.62 365.738 186.593C365.638 188.799 365.33 191.454 365.777 193.619C365.61 194.261 365.592 194.781 365.113 195.258C364.719 195.688 363.292 196.964 363.21 197.441L360.257 200.535C343.816 221.084 321.48 243.959 293.83 246.798L292.958 246.857C292.772 246.271 292.539 246.201 292.08 245.817C291.047 245.428 290.837 244.908 290.186 244.037L289.026 244.97C288.456 244.377 288.074 243.588 287.652 242.883C287.605 242.07 287.067 241.371 286.673 240.667C285.992 239.557 285.28 238.61 284.755 237.402C287.747 228.975 291.453 221.136 296.276 213.585L298.136 210.537C299.077 209.024 299.955 207.451 301.217 206.178L301.596 205.509C305.056 200.141 309.404 195.424 313.873 190.897C323.979 180.661 334.954 172.404 348 166.217C352.596 164.037 357.833 161.724 362.801 160.654Z"/>
	<path fill="#6E7387" d="M301.423 211.322L302.4 211.672C302.021 216.817 297.42 221.752 295.006 226.178C293.08 229.709 291.961 233.431 289.88 236.969C289.549 237.532 288.191 239.598 288.218 240.18C288.257 240.996 289.811 243.087 290.186 244.037L289.026 244.97C288.456 244.377 288.074 243.588 287.652 242.883C287.605 242.07 287.067 241.371 286.673 240.667L287.504 240.028L286.983 238.672C287.738 237.028 288.138 235.459 289.262 233.984C289.583 233.563 289.813 233.358 289.944 232.838C290.499 230.634 292.15 228.675 292.691 226.527C292.794 226.117 292.722 226.23 292.946 225.893C294.788 223.12 297.099 219.262 298.158 216.106C298.613 214.748 299.405 213.725 300.093 212.485L301.423 211.322Z"/>
	<path fill="#717786" d="M338.12 184.1L339.039 184.805C331.277 191.682 323.475 198.156 314.844 203.921C312.173 205.705 309.576 207.58 306.702 209.033L302.4 211.672L301.423 211.322L300.093 212.485L296.276 213.585L298.136 210.537C299.077 209.024 299.955 207.451 301.217 206.178C303.426 205.542 304.803 203.634 306.268 202.021L308.394 199.473L309.075 199.513L300.909 210.241C302.202 209.731 306.917 208.16 307.466 206.936C310.685 205.466 313.459 203.529 316.385 201.57C318.565 200.111 320.903 198.69 322.778 196.84C324.172 195.992 325.342 194.969 326.566 193.898L337.019 184.905L338.12 184.1Z"/>
	<path fill="#8B8F9F" d="M298.136 210.537C299.293 210.952 299.971 210.977 301.17 210.717L301.423 211.322L300.093 212.485L296.276 213.585L298.136 210.537Z"/>
	<path fill="#757E8D" d="M296.276 213.585L300.093 212.485C299.405 213.725 298.613 214.748 298.158 216.106C297.099 219.262 294.788 223.12 292.946 225.893C292.722 226.23 292.794 226.117 292.691 226.527C292.15 228.675 290.499 230.634 289.944 232.838C289.813 233.358 289.583 233.563 289.262 233.984C288.138 235.459 287.738 237.028 286.983 238.672L287.504 240.028L286.673 240.667C285.992 239.557 285.28 238.61 284.755 237.402C287.747 228.975 291.453 221.136 296.276 213.585Z"/>
	<path fill="#626575" d="M362.801 160.654L365.4 159.846L365.636 164.038L365.82 168.974L366.727 168.795L366.778 171.718C366.317 176.675 365.962 181.62 365.738 186.593C365.638 188.799 365.33 191.454 365.777 193.619C365.61 194.261 365.592 194.781 365.113 195.258C364.719 195.688 363.292 196.964 363.21 197.441L360.257 200.535L359.085 199.884C360.489 198.092 362.902 195.637 363.622 193.536C364.395 191.276 364.055 187.713 364.188 185.284C364.523 179.161 365.298 172.95 365.077 166.827C363.611 167.36 361.81 168.27 360.254 168.315C360.533 167.879 360.743 167.472 360.938 166.992L359.961 166.988L359.57 167.379L358.691 167.381L358.301 167.576L357.812 167.383L357.227 168.551L355.47 169.062C356.217 167.645 357.481 166.561 358.601 165.434C359.337 164.417 360.26 163.531 361.275 162.793C362.145 162.16 362.413 161.654 362.801 160.654Z"/>
	<path fill="#686D7D" d="M362.801 160.654L365.4 159.846L365.636 164.038C364.807 164.118 363.93 164.071 363.281 164.652C362.447 164.649 362.336 164.385 361.719 164.262C361.059 164.13 359.224 165.105 358.601 165.434C359.337 164.417 360.26 163.531 361.275 162.793C362.145 162.16 362.413 161.654 362.801 160.654Z"/>
	<path fill="#555262" d="M359.085 199.884L360.257 200.535C343.816 221.084 321.48 243.959 293.83 246.798L292.958 246.857C292.772 246.271 292.539 246.201 292.08 245.817C295.469 245.065 298.941 244.676 302.283 243.715C321.992 238.049 336.279 225.809 349.688 210.88C352.912 207.29 355.846 203.447 359.085 199.884Z"/>
	<path fill="#626575" d="M301.217 206.178L301.596 205.509C305.056 200.141 309.404 195.424 313.873 190.897C323.979 180.661 334.954 172.404 348 166.217C352.596 164.037 357.833 161.724 362.801 160.654C362.413 161.654 362.145 162.16 361.275 162.793C360.26 163.531 359.337 164.417 358.601 165.434C357.481 166.561 356.217 167.645 355.47 169.062L339.039 184.805L338.12 184.1L337.019 184.905L326.566 193.898C325.342 194.969 324.172 195.992 322.778 196.84C320.903 198.69 318.565 200.111 316.385 201.57C313.459 203.529 310.685 205.466 307.466 206.936C306.917 208.16 302.202 209.731 300.909 210.241L309.075 199.513L308.394 199.473L306.268 202.021C304.803 203.634 303.426 205.542 301.217 206.178Z"/>
	<path fill="#545E75" d="M329.411 183.307C331.712 181.986 333.293 179.936 335.457 178.481C337.409 177.17 339.726 175.689 341.797 174.611C343.818 173.559 345.999 172.955 347.996 171.803C349.936 170.684 351.503 168.417 353.759 168.156C352.688 169.552 351.704 170.986 350.287 172.053L349.558 171.794C346.947 173.275 340.415 179.501 337.691 179.102L337.498 179.619L330.879 184.24C328.862 185.074 327.137 186.666 325.228 187.757L329.411 183.307Z"/>
	<path fill="#484859" d="M330.879 184.24L337.498 179.619L337.691 179.102C340.415 179.501 346.947 173.275 349.558 171.794L350.287 172.053C349.482 172.905 346.031 176.969 345.197 177.08L338.12 184.1L337.019 184.905L336.328 184.191L334.766 184.839L334.566 184.57L335.995 182.87C334.819 183.332 332.118 184.883 331.079 184.758L330.879 184.24Z"/>
	<path fill="#433F4F" d="M335.995 182.87C338.442 181.494 342.597 177.012 345.197 177.08L338.12 184.1L337.019 184.905L336.328 184.191L334.766 184.839L334.566 184.57L335.995 182.87Z"/>
	<defs>
		<linearGradient id="gradient_4" gradientUnits="userSpaceOnUse" x1="334.961" y1="185.742" x2="331.849" y2="182.38499">
			<stop offset="0" stop-color="#2D3146"/>
			<stop offset="1" stop-color="#484E60"/>
		</linearGradient>
	</defs>
	<path fill="url(#gradient_4)" d="M330.879 184.24L331.079 184.758C332.118 184.883 334.819 183.332 335.995 182.87L334.566 184.57L334.766 184.839L336.328 184.191L337.019 184.905L326.566 193.898C325.342 194.969 324.172 195.992 322.778 196.84C320.903 198.69 318.565 200.111 316.385 201.57C313.459 203.529 310.685 205.466 307.466 206.936L306.772 206.25C307.558 204.375 308.669 202.902 309.665 201.153C310.901 198.981 312.538 197.629 314.195 195.83C315.083 194.867 315.787 193.781 316.822 192.954C318.405 191.69 320.352 190.679 321.74 189.214C324.235 186.578 326.102 184.837 329.411 183.307L325.228 187.757C327.137 186.666 328.862 185.074 330.879 184.24Z"/>
	<path fill="#26273A" d="M322.778 196.84C322.98 195.744 323.763 194.186 324.805 193.593C325.431 193.237 325.953 193.657 326.566 193.898C325.342 194.969 324.172 195.992 322.778 196.84Z"/>
	<path fill="#757E8D" d="M301.217 206.178L301.596 205.509C305.056 200.141 309.404 195.424 313.873 190.897C323.979 180.661 334.954 172.404 348 166.217C352.596 164.037 357.833 161.724 362.801 160.654C362.413 161.654 362.145 162.16 361.275 162.793C360.26 163.531 359.337 164.417 358.601 165.434C357.481 166.561 356.217 167.645 355.47 169.062L339.039 184.805L338.12 184.1L345.197 177.08C346.031 176.969 349.482 172.905 350.287 172.053C351.704 170.986 352.688 169.552 353.759 168.156C354.552 167.544 355.024 167.086 355.519 166.211C354.891 166.138 354.895 166.035 354.325 166.38C352.64 167.398 351.157 167.553 349.414 168.274C346.981 169.28 344.51 170.909 342.198 172.192C329.771 179.086 318.5 188.992 309.075 199.513L308.394 199.473L306.268 202.021C304.803 203.634 303.426 205.542 301.217 206.178Z"/>
	<defs>
		<linearGradient id="gradient_5" gradientUnits="userSpaceOnUse" x1="352.539" y1="253.711" x2="313.39099" y2="222.49001">
			<stop offset="0" stop-color="#110718"/>
			<stop offset="1" stop-color="#262B3F"/>
		</linearGradient>
	</defs>
	<path fill="url(#gradient_5)" d="M363.21 197.441C363.56 198.57 363.106 199.369 362.96 200.48C362.736 202.19 362.542 205.29 362.918 206.945C362.472 214.312 362.001 221.734 361.737 229.107C361.613 232.558 361.609 236.012 361.432 239.461C361.388 240.327 361.506 241.901 361.248 242.653C360.856 243.799 359.284 245.587 358.556 246.618C353.667 253.55 348.629 259.462 342.405 265.219L337.431 269.217L338.832 269.982C333.249 275.101 327.005 277.626 319.641 279.159C317.439 279.618 314.988 280.233 312.73 280.159L312.163 280.13L311.267 280.521L311.52 282.227L310.742 282.721C310.644 283.243 310.489 283.766 310.555 284.295L308.914 305.171L306.718 304.567L285.476 300.261C284.862 299.092 285.563 296.667 285.762 295.304C285.331 294.588 285.258 294.589 284.48 294.263L284.96 291.482L285.772 286.398L288.502 268.467L289.988 246.501C289.62 246.307 289.182 245.602 288.903 245.265L289.026 244.97L290.186 244.037C290.837 244.908 291.047 245.428 292.08 245.817C292.539 246.201 292.772 246.271 292.958 246.857L293.83 246.798C321.48 243.959 343.816 221.084 360.257 200.535L363.21 197.441Z"/>
	<path fill="#433F4F" d="M303.466 267.371C304.491 269.054 305.753 270.804 306.545 272.6C306.072 273.132 306.024 273.241 305.345 273.413L302.566 269.058L303.466 267.371Z"/>
	<defs>
		<linearGradient id="gradient_6" gradientUnits="userSpaceOnUse" x1="338.086" y1="269.72699" x2="314.13199" y2="257.97101">
			<stop offset="0" stop-color="#1C1728"/>
			<stop offset="1" stop-color="#3D3A4F"/>
		</linearGradient>
	</defs>
	<path fill="url(#gradient_6)" d="M306.545 272.6C308.041 274.201 309.131 276.412 310.278 278.285C320.088 278.027 329.493 274.971 337.431 269.217L338.832 269.982C333.249 275.101 327.005 277.626 319.641 279.159C317.439 279.618 314.988 280.233 312.73 280.159L312.163 280.13L311.267 280.521L311.52 282.227L310.742 282.721C310.644 283.243 310.489 283.766 310.555 284.295L308.914 305.171L306.718 304.567L307.399 304.087C308.152 298.321 308.374 292.515 308.766 286.719C308.88 285.027 309.467 282.404 309.219 280.785C309.143 280.288 308.51 279.402 308.255 278.906C307.306 277.063 306.367 275.216 305.345 273.413C306.024 273.241 306.072 273.132 306.545 272.6Z"/>
	<path fill="#26273A" d="M290.186 244.037C290.837 244.908 291.047 245.428 292.08 245.817C292.539 246.201 292.772 246.271 292.958 246.857C292.351 247.517 292.221 247.645 292.032 248.511C296.693 254.159 299.883 260.998 303.466 267.371L302.566 269.058L305.345 273.413C306.367 275.216 307.306 277.063 308.255 278.906C308.51 279.402 309.143 280.288 309.219 280.785C309.467 282.404 308.88 285.027 308.766 286.719C308.374 292.515 308.152 298.321 307.399 304.087L306.718 304.567L285.476 300.261C284.862 299.092 285.563 296.667 285.762 295.304C285.331 294.588 285.258 294.589 284.48 294.263L284.96 291.482L285.772 286.398L288.502 268.467L289.988 246.501C289.62 246.307 289.182 245.602 288.903 245.265L289.026 244.97L290.186 244.037Z"/>
	<path fill="#433F4F" d="M288.502 268.467L288.867 269.34L289.832 269.122C289.584 277.484 287.588 286.394 286.074 294.615L285.762 295.304C285.331 294.588 285.258 294.589 284.48 294.263L284.96 291.482L285.772 286.398L288.502 268.467Z"/>
	<path fill="#555262" d="M284.96 291.482C285.675 291.651 285.675 291.788 286.129 292.383C286.07 293.124 285.961 293.877 286.074 294.615L285.762 295.304C285.331 294.588 285.258 294.589 284.48 294.263L284.96 291.482Z"/>
	<path fill="#484859" d="M290.186 244.037C290.837 244.908 291.047 245.428 292.08 245.817C292.539 246.201 292.772 246.271 292.958 246.857C292.351 247.517 292.221 247.645 292.032 248.511C296.693 254.159 299.883 260.998 303.466 267.371L302.566 269.058C300.171 264.612 297.465 260.338 294.951 255.961C293.919 254.164 293.599 252.186 291.909 250.873L289.832 269.122L288.867 269.34L288.502 268.467L289.988 246.501C289.62 246.307 289.182 245.602 288.903 245.265L289.026 244.97L290.186 244.037Z"/>
	<path fill="#626575" d="M290.186 244.037C290.837 244.908 291.047 245.428 292.08 245.817C292.539 246.201 292.772 246.271 292.958 246.857C292.351 247.517 292.221 247.645 292.032 248.511L291.804 250.51L290.455 249.815L289.988 246.501C289.62 246.307 289.182 245.602 288.903 245.265L289.026 244.97L290.186 244.037Z"/>
	<defs>
		<linearGradient id="gradient_7" gradientUnits="userSpaceOnUse" x1="445.508" y1="234.57001" x2="411.66501" y2="152.69">
			<stop offset="0" stop-color="#09000E"/>
			<stop offset="1" stop-color="#2C3146"/>
		</linearGradient>
	</defs>
	<path fill="url(#gradient_7)" d="M370.064 158.853L370.917 158.749L371.112 158.999C373.284 161.076 375.453 163.158 377.622 165.238C378.145 165.739 379.445 166.698 379.733 167.316C388.941 174.771 397.797 182.168 408.073 188.18C410.508 190.352 414.279 191.777 417.249 193.103C428.928 198.318 440.662 202.24 453.333 204.331C456.029 204.776 458.866 205.474 461.588 205.51C463.237 205.649 464.882 205.716 466.47 206.21L467.131 206.297C467.679 206.605 468.194 206.891 468.696 207.273L467.474 208.992L467.486 209.044L446.87 236.852L431.879 257.494L430.668 257.617L430.993 256.28C433.743 253.449 435.955 249.501 438.232 246.268C440.238 243.419 442.494 240.752 444.477 237.891C443.8 236.934 442.466 236.898 441.344 236.613C440.783 236.884 439.094 236.719 438.401 236.737C431.109 236.914 422.547 235.037 415.547 233.074C411.881 232.193 408.267 230.405 404.884 228.776C400.302 226.571 395.485 224.266 391.554 221.006C391.709 220.181 391.295 219.497 390.974 218.758L380.479 209.544C375.226 204.723 371.359 197.903 365.777 193.619C365.33 191.454 365.638 188.799 365.738 186.593C365.962 181.62 366.317 176.675 366.778 171.718L366.727 168.795L365.82 168.974L365.636 164.038L365.4 159.846L370.064 158.853Z"/>
	<path fill="#433F4F" d="M417.003 231.754C422.732 233.39 428.537 234.205 434.446 234.879C436.501 235.113 438.759 235.034 440.762 235.481L445.659 235.54C444.306 236.229 442.42 235.737 441.344 236.613C440.783 236.884 439.094 236.719 438.401 236.737C431.109 236.914 422.547 235.037 415.547 233.074C415.992 232.57 416.485 232.18 417.003 231.754Z"/>
	<path fill="#484859" d="M440.762 235.481L445.659 235.54C444.306 236.229 442.42 235.737 441.344 236.613C440.783 236.884 439.094 236.719 438.401 236.737C437.83 236.44 438.095 236.555 437.421 236.31L436.914 236.129C437.943 235.465 439.557 235.563 440.762 235.481Z"/>
	<path fill="#39373F" d="M390.974 218.758C398.488 224.291 407.867 229.543 417.003 231.754C416.485 232.18 415.992 232.57 415.547 233.074C411.881 232.193 408.267 230.405 404.884 228.776C400.302 226.571 395.485 224.266 391.554 221.006C391.709 220.181 391.295 219.497 390.974 218.758Z"/>
	<path fill="#626575" d="M467.131 206.297C467.679 206.605 468.194 206.891 468.696 207.273L467.474 208.992L467.486 209.044L446.87 236.852L431.879 257.494L430.668 257.617L430.993 256.28C433.743 253.449 435.955 249.501 438.232 246.268C440.238 243.419 442.494 240.752 444.477 237.891C443.8 236.934 442.466 236.898 441.344 236.613C442.42 235.737 444.306 236.229 445.659 235.54C447.791 233.737 449.571 230.799 451.202 228.535C454.498 223.961 457.88 219.457 461.206 214.905C462.956 212.51 464.521 209.876 466.6 207.749C467.011 207.328 467.006 206.864 467.131 206.297Z"/>
	<defs>
		<linearGradient id="gradient_8" gradientUnits="userSpaceOnUse" x1="372.461" y1="170.117" x2="370.12299" y2="163.08501">
			<stop offset="0" stop-color="#2C2E44"/>
			<stop offset="1" stop-color="#4F5669"/>
		</linearGradient>
	</defs>
	<path fill="url(#gradient_8)" d="M370.064 158.853L370.917 158.749L371.112 158.999C373.284 161.076 375.453 163.158 377.622 165.238C378.145 165.739 379.445 166.698 379.733 167.316L378.923 167.522L378.316 166.992C377.965 167.192 377.685 167.389 377.368 167.641C376.915 168 376.459 168.251 375.973 168.555L375.694 168.748C374.776 169.358 373.446 170.074 372.363 170.215C371.397 170.341 372.108 170.237 371.488 170.413C370.334 170.739 368.858 170.115 367.969 170.895L366.778 171.718L366.727 168.795L365.82 168.974L365.636 164.038L365.4 159.846L370.064 158.853Z"/>
	<path fill="#6E7387" d="M365.4 159.846L370.064 158.853C369.259 159.93 368.459 160.89 367.48 161.813L366.727 168.795L365.82 168.974L365.636 164.038L365.4 159.846Z"/>
	<path fill="#0B0513" d="M486.35 358.455L486.927 358.019L488.541 358.539C480.123 384.942 469.497 410.343 455.502 434.313C445.018 452.27 432.857 470.673 413.81 480.45C402.861 486.071 390.939 487.962 378.726 487.799C372.411 487.715 366.143 487.13 360.103 485.198C356.796 484.14 353.625 482.666 350.755 480.712C351.207 480.579 351.48 480.525 351.96 480.569L352.346 480.619C353.634 479.59 353.595 479.38 353.904 477.732C354.062 476.891 354.224 476.154 354.708 475.427L354.879 475.195L354.688 474.414L354.49 473.436C354.207 472.753 354.066 472.129 353.811 471.484C353.364 470.356 353.602 471.685 353.468 470.769C353.297 469.603 352.358 468.856 351.777 467.867C350.915 466.4 350.319 464.692 349.41 463.281C348.359 461.649 349.176 459.225 348.347 457.364C348.028 456.648 347.899 455.925 347.738 455.159L358.291 466.902C359.428 468.161 361.833 470.76 362.443 472.306C362.657 472.85 362.533 474.237 362.565 474.909C362.688 477.506 362.639 480.217 362.962 482.791C363.109 483.961 363.137 484.103 364.062 484.841C365.003 483.858 364.498 474.586 364.604 472.719C366.694 471.049 367.807 468.615 369.48 466.575C372.448 462.955 375.731 459.573 379.345 456.6C387.153 450.303 396.831 445.808 406.908 444.735C409.966 444.41 413.179 444.86 416.182 444.203L416.481 444.132C417.319 443.991 418.047 443.669 418.825 443.344C418.419 442.531 418.109 441.821 417.908 440.934C419.044 439.28 418.592 427.933 418.843 424.813C419.184 420.58 419.769 416.366 420.473 412.179C421.827 404.127 424.06 396.377 427.192 388.832C428.536 385.593 430.244 382.52 431.71 379.334C432.739 377.19 434.687 374.686 435.08 372.368C435.266 372.037 437.316 371.233 437.782 371.006L449.936 360.498L451.082 359.212L465.616 358.925L472.463 359.473L470.541 359.708L470.446 360.109L470.518 360.13C472.917 360.233 475.321 360.08 477.729 360.209C478.642 360.258 480.445 360.69 481.25 360.541C481.535 360.489 481.93 359.889 482.227 359.803C483.914 359.313 485.147 360.413 486.76 359.183L486.35 358.455Z"/>
	<path fill="#39373F" d="M427.843 456.715L428.049 456.101C428.521 455.834 428.648 455.818 429.167 455.783L433.316 462.695L433.128 463.577C432.595 463.336 432.548 463.408 432.24 462.873L427.843 456.715Z"/>
	<path fill="#26273A" d="M437.782 371.006L432.965 380.513L432.327 380.414C431.843 380.003 431.893 379.913 431.71 379.334C432.739 377.19 434.687 374.686 435.08 372.368C435.266 372.037 437.316 371.233 437.782 371.006Z"/>
	<path fill="#26273A" d="M427.843 456.715C426.387 455.345 425.15 453.31 423.949 451.7C422.195 449.349 419.359 446.419 418.767 443.512C423.042 446.776 425.95 451.529 429.167 455.783C428.648 455.818 428.521 455.834 428.049 456.101L427.843 456.715Z"/>
	<path fill="#484859" d="M449.936 360.498L451.082 359.212L465.616 358.925L472.463 359.473L470.541 359.708L470.446 360.109L449.936 360.498Z"/>
	<path fill="#26273A" d="M463.07 392.149C466.041 385.467 469.673 379.08 473.302 372.738C475.553 368.802 478.116 363.83 481.404 360.697C480.278 364.118 478.206 367.186 476.441 370.306C472.239 377.736 467.319 385.463 464.372 393.476L463.07 392.149Z"/>
	<path fill="#39373F" d="M463.07 392.149L464.372 393.476C458.017 405.051 454.351 418.363 451.135 431.105C449.786 436.451 449.271 441.432 447.027 446.558C447.484 436.853 450.402 427.293 453.262 418.087C456.052 409.106 458.947 400.65 463.07 392.149Z"/>
	<path fill="#24212F" d="M431.71 379.334C431.893 379.913 431.843 380.003 432.327 380.414L432.965 380.513C425.432 396.499 421.143 412.756 420.368 430.449C420.177 434.804 419.881 438.942 420.632 443.267L420.246 443.198C419.701 443.129 419.347 443.212 418.825 443.344C418.419 442.531 418.109 441.821 417.908 440.934C419.044 439.28 418.592 427.933 418.843 424.813C419.184 420.58 419.769 416.366 420.473 412.179C421.827 404.127 424.06 396.377 427.192 388.832C428.536 385.593 430.244 382.52 431.71 379.334Z"/>
	<defs>
		<linearGradient id="gradient_9" gradientUnits="userSpaceOnUse" x1="487.69501" y1="358.39801" x2="405.09601" y2="310.435">
			<stop offset="0" stop-color="black"/>
			<stop offset="1" stop-color="#0D0515"/>
		</linearGradient>
	</defs>
	<path fill="url(#gradient_9)" d="M470.537 204.713C473.229 207.091 474.239 209.294 476.301 212.086C478.468 215.023 480.845 217.916 482.834 220.968C484.698 223.83 484.655 225.704 487.855 227.676C490.58 233.697 493.491 240.104 494.924 246.585C500.803 266.482 502.173 287.252 499.554 307.818C499.113 311.278 498.884 315.018 497.959 318.379C496.407 331.925 492.222 345.45 488.541 358.539L486.927 358.019L486.35 358.455L486.76 359.183C485.147 360.413 483.914 359.313 482.227 359.803C481.93 359.889 481.535 360.489 481.25 360.541C480.445 360.69 478.642 360.258 477.729 360.209C475.321 360.08 472.917 360.233 470.518 360.13L470.446 360.109L470.541 359.708L472.463 359.473L465.616 358.925L451.082 359.212C456.035 352.711 460.936 345.761 462.888 337.674C463.755 334.078 463.903 330.235 464.132 326.555L464.123 324.666L463.076 316.112C462.286 311.928 461.351 307.875 460.08 303.806C459.656 302.444 459.331 300.793 458.398 299.704L454.913 300.011L453.2 300.237C447.798 300.92 442.463 301.695 437.114 302.713C434.809 303.152 432.181 303.426 429.979 304.225L422.513 305.728C421.645 301.703 421.552 297.415 421.329 293.312C421.049 288.153 420.712 283.009 420.852 277.841C420.883 276.661 420.628 274.941 420.853 273.821C421.086 272.653 422.761 270.648 423.451 269.662C426.139 265.816 429.3 261.962 431.642 257.911L431.879 257.494L446.87 236.852L467.486 209.044L467.474 208.992L468.696 207.273C469.436 206.636 469.995 205.531 470.537 204.713Z"/>
	<path fill="#484859" d="M474.47 246.846L481.079 277.684C480.83 278.481 480.653 279.438 480.109 280.087C478.757 276.193 477.908 271.947 477.016 267.923C475.55 261.318 474.229 254.76 473.163 248.076L474.47 246.846Z"/>
	<path fill="#433F4F" d="M468.653 209.795C469.938 209.976 469.843 209.978 470.575 210.938C471.124 214.121 470.441 217.944 471.4 220.923L474.47 246.846L473.163 248.076L468.653 209.795Z"/>
	<path fill="#39373F" d="M481.079 277.684C484.292 288.567 487.203 300.156 492.094 310.403C493.357 313.85 496.381 319.287 495.651 322.94C494.769 322.073 494.212 319.717 493.693 318.526C490.956 312.252 488.565 305.852 486.252 299.414C483.997 293.135 481.455 286.637 480.109 280.087C480.653 279.438 480.83 278.481 481.079 277.684Z"/>
	<path fill="#0B0513" d="M464.123 324.666C465.689 326.555 466.451 329.177 467.569 331.368C470.888 337.871 474.347 344.138 477.959 350.484C479.652 353.459 480.587 356.397 483.167 358.789C484.322 358.856 485.226 358.717 486.35 358.455L486.76 359.183C485.147 360.413 483.914 359.313 482.227 359.803C481.93 359.889 481.535 360.489 481.25 360.541C480.445 360.69 478.642 360.258 477.729 360.209C475.321 360.08 472.917 360.233 470.518 360.13L470.446 360.109L470.541 359.708L472.463 359.473L465.616 358.925L451.082 359.212C456.035 352.711 460.936 345.761 462.888 337.674C463.755 334.078 463.903 330.235 464.132 326.555L464.123 324.666Z"/>
	<path fill="#39373F" d="M464.123 324.666C465.689 326.555 466.451 329.177 467.569 331.368C470.888 337.871 474.347 344.138 477.959 350.484C479.652 353.459 480.587 356.397 483.167 358.789C484.322 358.856 485.226 358.717 486.35 358.455L486.76 359.183C485.147 360.413 483.914 359.313 482.227 359.803C481.93 359.889 481.535 360.489 481.25 360.541C480.445 360.69 478.642 360.258 477.729 360.209C475.321 360.08 472.917 360.233 470.518 360.13L470.446 360.109L470.541 359.708L472.463 359.473L465.616 358.925C470.472 358.112 476.136 358.557 481.094 358.455C476.404 351.47 472.075 344.41 468.374 336.844C467.142 334.325 465.582 331.642 464.971 328.897C464.776 328.025 464.546 327.347 464.132 326.555L464.123 324.666Z"/>
	<path fill="#0B0513" d="M431.879 257.494L446.87 236.852C447.2 237.711 447.488 238.01 447.182 238.899C448.64 249.782 448.346 260.834 449.827 271.786C450.57 277.277 451.495 282.695 452.618 288.12C453.412 291.954 454.831 296.114 454.913 300.011L453.2 300.237C447.798 300.92 442.463 301.695 437.114 302.713C434.809 303.152 432.181 303.426 429.979 304.225L422.513 305.728C421.645 301.703 421.552 297.415 421.329 293.312C421.049 288.153 420.712 283.009 420.852 277.841C420.883 276.661 420.628 274.941 420.853 273.821C421.086 272.653 422.761 270.648 423.451 269.662C426.139 265.816 429.3 261.962 431.642 257.911L431.879 257.494Z"/>
	<path fill="#433F4F" d="M453.2 300.237C453.289 298.255 452.516 296.112 452.097 294.183C451.204 290.067 450.318 285.93 449.559 281.788C448.424 275.6 447.721 269.355 447.079 263.099C446.609 258.522 444.846 241.767 447.182 238.899C448.64 249.782 448.346 260.834 449.827 271.786C450.57 277.277 451.495 282.695 452.618 288.12C453.412 291.954 454.831 296.114 454.913 300.011L453.2 300.237Z"/>
	<defs>
		<linearGradient id="gradient_10" gradientUnits="userSpaceOnUse" x1="496.67999" y1="321.67999" x2="522.75403" y2="310.164">
			<stop offset="0" stop-color="black"/>
			<stop offset="1" stop-color="#1E1D24"/>
		</linearGradient>
	</defs>
	<path fill="url(#gradient_10)" d="M470.537 204.713C473.229 207.091 474.239 209.294 476.301 212.086C478.468 215.023 480.845 217.916 482.834 220.968C484.698 223.83 484.655 225.704 487.855 227.676C490.58 233.697 493.491 240.104 494.924 246.585C500.803 266.482 502.173 287.252 499.554 307.818C499.113 311.278 498.884 315.018 497.959 318.379L497.199 318.332C497.161 318.897 497.196 319.412 496.871 319.899C496.54 320.395 496.622 321.073 496.582 321.682C496.216 320.186 496.319 318.954 495.504 317.578C494.987 316.707 495.031 315.687 494.536 314.942C494.293 314.575 494.36 314.762 494.251 314.372C493.795 312.742 493.304 311.624 492.094 310.403C487.203 300.156 484.292 288.567 481.079 277.684L474.47 246.846L471.4 220.923C470.441 217.944 471.124 214.121 470.575 210.938C469.843 209.978 469.938 209.976 468.653 209.795L467.486 209.044L467.474 208.992L468.696 207.273C469.436 206.636 469.995 205.531 470.537 204.713Z"/>
	<path fill="#26273A" d="M470.537 204.713C473.229 207.091 474.239 209.294 476.301 212.086C478.468 215.023 480.845 217.916 482.834 220.968C484.698 223.83 484.655 225.704 487.855 227.676C490.58 233.697 493.491 240.104 494.924 246.585L493.752 245.701C493.663 245.265 493.603 244.958 493.351 244.58L493.168 244.336C493.227 243.672 493.196 243.328 492.886 242.748L492.58 242.186C491.977 240.605 490.081 239.536 489.049 238.149C488.264 237.092 487.707 235.561 487.111 234.373L486.426 234.277L486.719 234.961C487.078 235.707 487.042 236.194 487.012 237.006L486.662 236.721C486.092 234.897 485.438 232.742 484.46 231.111C483.566 229.622 482.246 228.437 481.343 226.941C479.359 223.657 477.531 220.27 475.425 217.061C474.501 215.653 472.825 213.96 472.333 212.385L472.268 212.107C472.041 211.341 471.953 210.506 471.684 209.766C471.403 208.993 470.714 207.503 470.02 207.225C469.578 207.666 469.098 207.979 468.945 208.594L469.727 208.793C470.448 209.54 471.088 210.045 471.384 211.072L471.482 211.426C471.677 211.995 471.697 212.027 471.568 212.662C471.055 215.189 471.397 218.323 471.4 220.923C470.441 217.944 471.124 214.121 470.575 210.938C469.843 209.978 469.938 209.976 468.653 209.795L467.486 209.044L467.474 208.992L468.696 207.273C469.436 206.636 469.995 205.531 470.537 204.713Z"/>
	<path fill="#0B0513" d="M365.777 193.619C371.359 197.903 375.226 204.723 380.479 209.544L390.974 218.758C391.295 219.497 391.709 220.181 391.554 221.006C395.485 224.266 400.302 226.571 404.884 228.776C408.267 230.405 411.881 232.193 415.547 233.074C422.547 235.037 431.109 236.914 438.401 236.737C439.094 236.719 440.783 236.884 441.344 236.613C442.466 236.898 443.8 236.934 444.477 237.891C442.494 240.752 440.238 243.419 438.232 246.268C435.955 249.501 433.743 253.449 430.993 256.28L430.668 257.617L431.879 257.494L431.642 257.911C429.3 261.962 426.139 265.816 423.451 269.662C422.761 270.648 421.086 272.653 420.853 273.821C420.628 274.941 420.883 276.661 420.852 277.841C420.712 283.009 421.049 288.153 421.329 293.312C421.552 297.415 421.645 301.703 422.513 305.728L429.979 304.225C432.181 303.426 434.809 303.152 437.114 302.713C442.463 301.695 447.798 300.92 453.2 300.237L454.913 300.011L458.398 299.704C459.331 300.793 459.656 302.444 460.08 303.806C461.351 307.875 462.286 311.928 463.076 316.112L464.123 324.666L464.132 326.555C463.903 330.235 463.755 334.078 462.888 337.674C460.936 345.761 456.035 352.711 451.082 359.212L449.936 360.498L437.782 371.006C437.316 371.233 435.266 372.037 435.08 372.368C434.687 374.686 432.739 377.19 431.71 379.334C430.244 382.52 428.536 385.593 427.192 388.832C424.06 396.377 421.827 404.127 420.473 412.179C419.769 416.366 419.184 420.58 418.843 424.813C418.592 427.933 419.044 439.28 417.908 440.934C418.109 441.821 418.419 442.531 418.825 443.344C418.047 443.669 417.319 443.991 416.481 444.132L416.182 444.203C413.179 444.86 409.966 444.41 406.908 444.735C396.831 445.808 387.153 450.303 379.345 456.6C375.731 459.573 372.448 462.955 369.48 466.575C367.807 468.615 366.694 471.049 364.604 472.719C364.498 474.586 365.003 483.858 364.062 484.841C363.137 484.103 363.109 483.961 362.962 482.791C362.639 480.217 362.688 477.506 362.565 474.909C362.533 474.237 362.657 472.85 362.443 472.306C361.833 470.76 359.428 468.161 358.291 466.902L347.738 455.159L342.186 449.928L342.462 449.135L342.121 448.231L341.98 447.783C341.483 446.989 339.929 446.084 339.164 445.533C336.387 443.53 333.723 441.723 330.664 440.177C327.486 438.571 327.392 438.315 326.327 434.977L325.37 434.654C324.516 433.907 324.326 433.406 324.106 432.313L323.826 430.861C322.496 430.073 323.177 429.402 322.461 428.324L322.168 428.713L322.066 427.539L319.711 425.805L318.955 425.33L319.707 423.861L319.482 422.855L318.945 422.694L318.259 423.764L317.229 424.159L316.689 424.335C316.441 423.511 315.685 423.082 315.046 422.52L312.18 416.107C312.887 409.825 309.815 404.594 308.094 398.687C306.782 395.103 305.787 391.425 304.492 387.84C303.045 383.834 300.704 379.384 299.9 375.294C299.557 373.415 298.091 371.069 297.321 369.262C296.27 368.173 295.133 367.384 293.886 366.548C292.17 364.093 289.805 361.938 288.426 359.269C286.982 356.476 286.256 352.955 285.405 349.927C283.554 343.344 281.921 336.691 280.167 330.081C278.811 324.142 276.691 317.462 276.858 311.365C276.962 307.571 278.303 303.606 277.768 299.851C278.834 299.273 278.898 299.375 280.033 299.589L280.352 299.634C281.514 299.682 282.569 299.854 283.586 299.181C283.907 298.267 283.89 297.26 283.953 296.295L284.48 294.263C285.258 294.589 285.331 294.588 285.762 295.304C285.563 296.667 284.862 299.092 285.476 300.261L306.718 304.567L308.914 305.171L310.555 284.295C310.489 283.766 310.644 283.243 310.742 282.721L311.52 282.227L311.267 280.521L312.163 280.13L312.73 280.159C314.988 280.233 317.439 279.618 319.641 279.159C327.005 277.626 333.249 275.101 338.832 269.982L337.431 269.217L342.405 265.219C348.629 259.462 353.667 253.55 358.556 246.618C359.284 245.587 360.856 243.799 361.248 242.653C361.506 241.901 361.388 240.327 361.432 239.461C361.609 236.012 361.613 232.558 361.737 229.107C362.001 221.734 362.472 214.312 362.918 206.945C362.542 205.29 362.736 202.19 362.96 200.48C363.106 199.369 363.56 198.57 363.21 197.441C363.292 196.964 364.719 195.688 365.113 195.258C365.592 194.781 365.61 194.261 365.777 193.619Z"/>
	<path fill="#26273A" d="M342.405 265.219L343.878 265.965L338.832 269.982L337.431 269.217L342.405 265.219Z"/>
	<path fill="#26273A" d="M416 443.055L416.442 442.673C416.762 440.736 410.029 433.118 408.605 430.859L408.789 430.469L409.766 431.836C410.707 433.338 411.901 434.91 413 436.307C413.558 437.017 414.435 437.696 414.752 438.539L414.844 438.867C415.424 439.294 415.753 439.517 416.132 440.145C416.432 440.643 416.664 440.917 417.09 441.309L416.992 440.625L416.701 440.234C416.246 439.416 416.745 440.029 416.306 439.484L412.5 434.253L412.207 433.887L412.305 433.043L417.908 440.934C418.109 441.821 418.419 442.531 418.825 443.344C418.047 443.669 417.319 443.991 416.481 444.132L412.528 443.955L412.362 443.555C413.391 443.53 414.48 443.564 415.467 443.242L416 443.055Z"/>
	<path fill="#26273A" d="M303.629 373.65L305.169 374.628C305.217 375.111 305.136 375.621 305.466 375.987C306.26 376.868 307.198 378.013 307.479 379.184L306.842 378.74C307.044 379.344 307.227 379.589 307.613 380.078C307.07 380.443 307.04 380.442 306.836 381.059L307.223 381.445L306.836 381.84L307.067 381.9C307.553 382.061 307.962 382.349 308.395 382.617L308.457 382.862C308.611 383.321 308.889 383.604 309.176 383.984L309.858 384.961L309.566 385.547L309.749 385.974C309.961 386.504 310.053 386.946 310.154 387.502C310.407 388.884 310.734 389.511 311.52 390.625C311.809 391.035 311.901 391.627 311.997 392.103C312.125 392.738 312.314 392.854 312.691 393.359C313.099 393.905 313.746 394.637 313.672 395.312C313.095 395.193 312.774 395.079 312.301 394.727L312.107 395.215L310.903 395.049L310.154 392.971L309.957 392.383C309.783 391.642 309.569 390.964 309.373 390.236C309.166 389.467 308.671 389.01 308.494 388.307C307.809 385.588 306.261 382.868 305.467 380.08C305.338 379.628 305.332 379.36 305.064 378.957L304.883 378.715C304.849 378.027 304.812 377.637 305.07 376.977L305.261 376.562L304.883 376.082C304.165 375.225 303.868 374.765 303.629 373.65Z"/>
	<path fill="#24212F" d="M341.98 447.783C348.152 452.528 355.123 459.178 359.394 465.725L358.291 466.902L347.738 455.159L342.186 449.928L342.462 449.135L342.121 448.231L341.98 447.783Z"/>
	<path fill="#24212F" d="M378.824 455.443L378.877 455.337C385.247 448.853 396.995 444.227 405.917 443.205C409.219 442.826 412.678 443.02 416 443.055L415.467 443.242C414.48 443.564 413.391 443.53 412.362 443.555L412.528 443.955L416.481 444.132L416.182 444.203C413.179 444.86 409.966 444.41 406.908 444.735C396.831 445.808 387.153 450.303 379.345 456.6L378.824 455.443Z"/>
	<path fill="#24212F" d="M310.555 284.295C310.489 283.766 310.644 283.243 310.742 282.721L311.52 282.227L311.267 280.521L312.163 280.13L311.914 281.077L327.225 307.714C326.552 308.071 326.903 307.912 326.172 308.187L311.328 284.014L310.555 284.295Z"/>
	<path fill="#26273A" d="M359.394 465.725L362.442 469.557L361.754 450.195L362.109 450.195C362.109 454.361 361.661 459.155 362.5 463.086C362.709 464.065 362.224 465.186 362.643 466.162C362.971 466.929 362.872 468.097 362.891 468.945C362.082 469.107 361.977 469.168 361.23 468.848L360.938 469.141C361.476 469.949 362.462 471.088 362.793 471.973C363.026 472.597 363.062 473.676 363.281 474.414C363.65 475.653 362.879 477.391 363.424 478.662C363.946 479.882 363.718 482.467 363.77 483.887C364.465 480.13 363.675 476.391 363.967 472.656C364.102 470.921 364.091 469.756 363.672 468.164C363.234 466.502 364.282 464.196 363.281 462.695C363.269 459.249 362.717 454.703 363.477 451.401L364.538 471.561C368.803 465.433 372.944 460.133 378.824 455.443L379.345 456.6C375.731 459.573 372.448 462.955 369.48 466.575C367.807 468.615 366.694 471.049 364.604 472.719C364.498 474.586 365.003 483.858 364.062 484.841C363.137 484.103 363.109 483.961 362.962 482.791C362.639 480.217 362.688 477.506 362.565 474.909C362.533 474.237 362.657 472.85 362.443 472.306C361.833 470.76 359.428 468.161 358.291 466.902L359.394 465.725Z"/>
	<path fill="#26273A" d="M414.955 278.758C415.455 278.581 415.793 278.583 416.107 278.143C416.732 277.269 417.403 276.513 417.969 275.586L418.359 275.781C418.13 277.063 416.134 279.38 415.234 280.469L415.06 281.652C415.037 282.083 413.888 283.483 413.607 283.92C410.422 288.883 406.837 293.513 403.667 298.472C402.672 300.028 401.136 302.051 400.735 303.867C400.584 304.55 400.384 305.031 400.076 305.664C399.065 305.925 398.377 306.364 397.436 305.859C398.478 300.702 403.744 294.655 406.732 290.326C409.368 286.508 411.935 282.264 414.955 278.758Z"/>
	<path fill="#26273A" d="M366.173 245.162C370.703 251.437 375.274 256.813 381.149 261.91C383.533 263.978 386.071 266.166 388.874 267.638C393.629 270.135 399.162 271.437 404.337 272.699C401.548 272.783 399.369 272.19 396.68 271.676L396.289 271.285L395.875 271.213C394.936 271.027 394.295 270.743 393.457 270.311C393.033 270.092 391.617 269.324 391.211 269.34C392.759 270.458 395.054 271.366 396.873 271.877L400.945 273.133C401.758 273.359 402.504 273.833 403.234 274.245C401.052 274.086 398.57 273.315 396.502 272.59C386.338 269.028 379.561 263.161 372.269 255.536C369.56 252.703 366.368 249.36 364.649 245.819C365.194 245.749 365.687 245.414 366.173 245.162Z"/>
	<defs>
		<linearGradient id="gradient_11" gradientUnits="userSpaceOnUse" x1="343.55499" y1="265.42999" x2="325.96799" y2="234.224">
			<stop offset="0" stop-color="#1A1325"/>
			<stop offset="1" stop-color="#464354"/>
		</linearGradient>
	</defs>
	<path fill="url(#gradient_11)" d="M362.918 206.945L363.156 207.48C363.722 208.862 363.482 211.174 363.48 212.695C364.18 211.894 363.899 210.856 364.522 209.955C364.488 218.751 363.822 227.675 363.457 236.478C363.417 237.458 362.899 240.673 363.173 241.424C363.542 242.438 365.432 244.24 366.173 245.162C365.687 245.414 365.194 245.749 364.649 245.819L363.867 244.592L363.384 244.922C363.287 249.352 363.073 253.78 362.972 258.209C362.913 260.75 363.446 263.524 362.498 265.918L362.109 265.625C362.128 264.719 362.002 263.476 362.357 262.647C363.415 260.179 361.719 255.864 362.5 253.32C363.22 250.978 362.891 248.06 362.891 245.508L362.301 245.703C362.211 246.507 362.122 247.263 361.914 248.047C361.615 249.177 361.947 250.901 361.471 251.854C360.706 253.39 361.316 258.426 361.328 260.352L360.746 260.352C360.826 257.009 360.85 253.603 361.164 250.273C361.241 249.463 361.898 246.392 361.624 245.95C355.795 252.506 351.033 260.713 343.878 265.965L342.405 265.219C348.629 259.462 353.667 253.55 358.556 246.618C359.284 245.587 360.856 243.799 361.248 242.653C361.506 241.901 361.388 240.327 361.432 239.461C361.609 236.012 361.613 232.558 361.737 229.107C362.001 221.734 362.472 214.312 362.918 206.945Z"/>
	<path fill="#24212F" d="M404.337 272.699C407.094 272.978 409.99 273.375 412.76 273.282C413.93 273.243 418.069 273.31 418.956 272.793C419.752 272.329 421.176 269.906 421.775 269.054C424.742 264.836 427.469 260.029 430.993 256.28L430.668 257.617L431.879 257.494L431.642 257.911C429.3 261.962 426.139 265.816 423.451 269.662C422.761 270.648 421.086 272.653 420.853 273.821C420.628 274.941 420.883 276.661 420.852 277.841C420.712 283.009 421.049 288.153 421.329 293.312C421.552 297.415 421.645 301.703 422.513 305.728L421.424 305.94C419.719 303.158 419.886 300.239 419.603 297.086C418.98 290.148 418.746 283.461 419.097 276.492L415.06 281.652L415.234 280.469C416.134 279.38 418.13 277.063 418.359 275.781L417.969 275.586C417.403 276.513 416.732 277.269 416.107 278.143C415.793 278.583 415.455 278.581 414.955 278.758L417.552 274.983C412.718 275.01 408.025 275.016 403.234 274.245C402.504 273.833 401.758 273.359 400.945 273.133L396.873 271.877C395.054 271.366 392.759 270.458 391.211 269.34C391.617 269.324 393.033 270.092 393.457 270.311C394.295 270.743 394.936 271.027 395.875 271.213L396.289 271.285L396.68 271.676C399.369 272.19 401.548 272.783 404.337 272.699Z"/>
	<path fill="#140F20" d="M310.555 284.295L311.328 284.014L326.172 308.187C326.903 307.912 326.552 308.071 327.225 307.714C328.561 309.304 329.09 311.26 329.998 313.103C323.385 309.67 316.139 306.988 308.914 305.171L310.555 284.295Z"/>
	<path fill="#24212F" d="M297.321 369.262L302.534 372.696L303.629 373.65C303.868 374.765 304.165 375.225 304.883 376.082L305.261 376.562L305.07 376.977C304.812 377.637 304.849 378.027 304.883 378.715L305.064 378.957C305.332 379.36 305.338 379.628 305.467 380.08C306.261 382.868 307.809 385.588 308.494 388.307C308.671 389.01 309.166 389.467 309.373 390.236C309.569 390.964 309.783 391.642 309.957 392.383L310.154 392.971L310.903 395.049C311.009 396.021 311.129 396.417 311.52 397.266L311.606 397.62C311.853 398.602 312.449 399.522 312.778 400.502C312.918 400.919 313.204 401.223 313.473 401.562L313.867 401.562L313.77 400.783L314.258 400.59C314.542 400.989 314.706 401.291 314.844 401.762C316.028 402.748 316.327 403.14 316.557 404.708C317.002 407.74 319.547 410.611 319.723 413.477L319.332 413.867C319.332 414.878 319.638 416.686 318.941 417.383C319.175 417.845 319.358 418.002 319.723 418.359L320.312 418.949C321.592 418.681 322.827 417.074 323.73 416.151C323.551 417.533 322.267 418.113 322.264 419.043L321.094 420.117L321.484 420.512C322.013 420.282 322.093 420.378 322.339 419.825L322.559 419.338L322.736 418.929C322.962 418.476 323.242 418.27 323.633 417.969L323.948 418.359L323.788 418.653C323.26 419.663 323.135 420.158 323.238 421.289C322.513 421.941 321.849 422.415 321.482 423.34C321.098 423.57 320.585 423.72 320.442 424.149C320.25 424.725 319.888 425.234 319.711 425.805L318.955 425.33L319.707 423.861L319.482 422.855L318.945 422.694L318.259 423.764L317.229 424.159L316.689 424.335C316.441 423.511 315.685 423.082 315.046 422.52L312.18 416.107C312.887 409.825 309.815 404.594 308.094 398.687C306.782 395.103 305.787 391.425 304.492 387.84C303.045 383.834 300.704 379.384 299.9 375.294C299.557 373.415 298.091 371.069 297.321 369.262Z"/>
	<path fill="#39373F" d="M297.321 369.262L302.534 372.696C302.536 373.623 302.308 374.935 302.918 375.613C303.399 376.148 303.747 376.723 304.102 377.344L303.715 377.734C303.713 378.293 303.587 378.885 303.894 379.348C304.173 379.768 304.129 380.007 304.262 380.471L306.215 385.891C306.596 387.123 307.367 388.226 307.811 389.455L308.094 390.089C308.711 391.482 308.888 393.035 309.332 394.49C309.818 396.084 310.693 397.457 311.151 399.115L312.389 402.434C313.048 404.397 314.268 406.177 314.842 408.205C315.161 409.333 315.535 410.379 315.816 411.523C316.063 412.524 316.231 413.216 316.211 414.262C316.936 415.354 316.171 416.735 316.749 417.604L316.988 417.969L317.173 418.227C318.02 419.436 317.97 420.835 318.16 422.266C318.806 421.905 319.352 421.437 319.922 420.971C320.448 421.215 320.604 421.374 320.895 421.875C320.57 422.732 320.336 423.198 319.707 423.861L319.482 422.855L318.945 422.694L318.259 423.764L317.446 423.385L317.456 421.289C317.295 419.594 316.575 419.583 315.82 418.287C315.31 417.411 315.305 415.507 315.182 414.483C314.971 412.73 314.533 411.007 314.036 409.315C311.641 401.167 307.837 393.256 304.736 385.352C303.35 381.817 303.003 377.872 299.9 375.294C299.557 373.415 298.091 371.069 297.321 369.262Z"/>
	<path fill="#26273A" d="M299.9 375.294C303.003 377.872 303.35 381.817 304.736 385.352C307.837 393.256 311.641 401.167 314.036 409.315C314.533 411.007 314.971 412.73 315.182 414.483C315.305 415.507 315.31 417.411 315.82 418.287C316.575 419.583 317.295 419.594 317.456 421.289L317.446 423.385L318.259 423.764L317.229 424.159L316.689 424.335C316.441 423.511 315.685 423.082 315.046 422.52L312.18 416.107C312.887 409.825 309.815 404.594 308.094 398.687C306.782 395.103 305.787 391.425 304.492 387.84C303.045 383.834 300.704 379.384 299.9 375.294Z"/>
	<path fill="#433F4F" d="M308.094 398.687C308.709 399.305 309.358 399.835 309.645 400.676C309.788 401.095 309.726 400.941 310.074 401.289C310.749 401.962 311.085 403.277 311.431 404.156C312.303 406.369 313.385 408.734 313.845 411.073C314.222 412.987 314.137 418.058 315.574 419.22C316.951 420.333 317.065 422.51 317.229 424.159L316.689 424.335C316.441 423.511 315.685 423.082 315.046 422.52L312.18 416.107C312.887 409.825 309.815 404.594 308.094 398.687Z"/>
	<path fill="#0B0513" d="M365.777 193.619C371.359 197.903 375.226 204.723 380.479 209.544L390.974 218.758C391.295 219.497 391.709 220.181 391.554 221.006C395.485 224.266 400.302 226.571 404.884 228.776C408.267 230.405 411.881 232.193 415.547 233.074C422.547 235.037 431.109 236.914 438.401 236.737C439.094 236.719 440.783 236.884 441.344 236.613C442.466 236.898 443.8 236.934 444.477 237.891C442.494 240.752 440.238 243.419 438.232 246.268C435.955 249.501 433.743 253.449 430.993 256.28C427.469 260.029 424.742 264.836 421.775 269.054C421.176 269.906 419.752 272.329 418.956 272.793C418.069 273.31 413.93 273.243 412.76 273.282C409.99 273.375 407.094 272.978 404.337 272.699C399.162 271.437 393.629 270.135 388.874 267.638C386.071 266.166 383.533 263.978 381.149 261.91C375.274 256.813 370.703 251.437 366.173 245.162C365.432 244.24 363.542 242.438 363.173 241.424C362.899 240.673 363.417 237.458 363.457 236.478C363.822 227.675 364.488 218.751 364.522 209.955C363.899 210.856 364.18 211.894 363.48 212.695C363.482 211.174 363.722 208.862 363.156 207.48L362.918 206.945C362.542 205.29 362.736 202.19 362.96 200.48C363.106 199.369 363.56 198.57 363.21 197.441C363.292 196.964 364.719 195.688 365.113 195.258C365.592 194.781 365.61 194.261 365.777 193.619Z"/>
	<path fill="#433F4F" d="M380.479 209.544L390.974 218.758C391.295 219.497 391.709 220.181 391.554 221.006C386.971 218.347 382.757 213.91 379.012 210.196C379.779 210.192 379.98 210.361 380.66 210.742L380.479 209.544Z"/>
	<path fill="#484859" d="M365.113 195.258L365.759 195.834C363.94 199.661 365.469 205.709 364.522 209.955C363.899 210.856 364.18 211.894 363.48 212.695C363.482 211.174 363.722 208.862 363.156 207.48L362.918 206.945C362.542 205.29 362.736 202.19 362.96 200.48C363.106 199.369 363.56 198.57 363.21 197.441C363.292 196.964 364.719 195.688 365.113 195.258Z"/>
	<path fill="#555262" d="M365.777 193.619C371.359 197.903 375.226 204.723 380.479 209.544L380.66 210.742C379.98 210.361 379.779 210.192 379.012 210.196L365.759 195.834L365.113 195.258C365.592 194.781 365.61 194.261 365.777 193.619Z"/>
	<defs>
		<linearGradient id="gradient_12" gradientUnits="userSpaceOnUse" x1="331.05499" y1="377.14801" x2="317.25101" y2="314.89001">
			<stop offset="0" stop-color="#C7002E"/>
			<stop offset="1" stop-color="#E91969"/>
		</linearGradient>
	</defs>
	<path fill="url(#gradient_12)" d="M284.48 294.263C285.258 294.589 285.331 294.588 285.762 295.304C285.563 296.667 284.862 299.092 285.476 300.261L306.718 304.567L308.914 305.171C316.139 306.988 323.385 309.67 329.998 313.103C332.22 314.42 336.126 316.401 337.675 318.403C347.315 326.035 355.326 340.242 357.659 352.233C354.445 361.524 347.343 371.113 338.29 375.454C331.419 378.749 323.655 379.342 316.177 378.503C314.306 379.074 313.843 378.817 312.109 378.221L311.426 378.123L310.742 377.926C309.955 378.153 309.434 378.607 308.789 379.098L307.479 379.184C307.198 378.013 306.26 376.868 305.466 375.987C305.136 375.621 305.217 375.111 305.169 374.628L303.629 373.65L302.534 372.696L297.321 369.262C296.27 368.173 295.133 367.384 293.886 366.548C292.17 364.093 289.805 361.938 288.426 359.269C286.982 356.476 286.256 352.955 285.405 349.927C283.554 343.344 281.921 336.691 280.167 330.081C278.811 324.142 276.691 317.462 276.858 311.365C276.962 307.571 278.303 303.606 277.768 299.851C278.834 299.273 278.898 299.375 280.033 299.589L280.352 299.634C281.514 299.682 282.569 299.854 283.586 299.181C283.907 298.267 283.89 297.26 283.953 296.295L284.48 294.263Z"/>
	<path fill="#140F20" d="M305.169 374.628C308.783 376.415 312.28 377.506 316.177 378.503C314.306 379.074 313.843 378.817 312.109 378.221L311.426 378.123L310.742 377.926C309.955 378.153 309.434 378.607 308.789 379.098L307.479 379.184C307.198 378.013 306.26 376.868 305.466 375.987C305.136 375.621 305.217 375.111 305.169 374.628Z"/>
	<defs>
		<linearGradient id="gradient_13" gradientUnits="userSpaceOnUse" x1="325.97699" y1="313.867" x2="315.77499" y2="286.97198">
			<stop offset="0" stop-color="#E72E73"/>
			<stop offset="1" stop-color="#F25DA1"/>
		</linearGradient>
	</defs>
	<path fill="url(#gradient_13)" d="M284.48 294.263C285.258 294.589 285.331 294.588 285.762 295.304C285.563 296.667 284.862 299.092 285.476 300.261L306.718 304.567L308.914 305.171C316.139 306.988 323.385 309.67 329.998 313.103C332.22 314.42 336.126 316.401 337.675 318.403L337.2 319.056C336.317 318.319 335.182 316.982 334.082 316.795L333.398 316.016L332.91 316.014L332.227 315.234L331.738 315.232L331.378 314.885C330.694 314.247 329.923 313.826 329.004 313.67L328.125 312.891L327.539 313.082L327.145 312.695C326.88 313.495 326.42 313.722 325.781 314.254L325.098 314.355L325.555 314.557C326.582 315.014 327.658 315.578 328.591 316.2C329.328 316.691 330.115 317.082 330.859 317.578C331.274 317.854 331.687 318.069 332.129 318.289C333.427 318.936 334.949 320.938 335.495 322.236C335.492 322.504 337.449 324.459 337.85 324.905C340.809 328.202 343.203 331.584 345.504 335.352L344.727 336.129C343.361 334.987 342.352 332.319 341.297 330.786C336.119 323.259 330.586 318.582 322.22 314.919C321.909 315.899 321.909 315.987 321.094 316.598L320.113 316.602C320.354 317.194 320.157 316.99 320.534 317.225C321.322 317.717 321.604 318.048 322.023 318.872C311.287 314.049 300.975 311.157 289.498 308.762L288.744 330.608C287.925 329.73 288.024 328.649 287.109 327.926C285.892 328.741 285.616 329.614 284.57 330.66L284.184 330.273L283.887 330.759C283.696 330.036 283.419 329.354 283.155 328.656C283.128 329.709 283.299 330.789 283.407 331.836L283.008 332.067C281.906 330.752 281.885 328.225 281.64 326.542L281.445 329.496L280.167 330.081C278.811 324.142 276.691 317.462 276.858 311.365C276.962 307.571 278.303 303.606 277.768 299.851C278.834 299.273 278.898 299.375 280.033 299.589L280.352 299.634C281.514 299.682 282.569 299.854 283.586 299.181C283.907 298.267 283.89 297.26 283.953 296.295L284.48 294.263Z"/>
	<path fill="#545E75" d="M284.48 294.263C285.258 294.589 285.331 294.588 285.762 295.304C285.563 296.667 284.862 299.092 285.476 300.261C283.735 300.111 282.045 300.13 280.352 299.634C281.514 299.682 282.569 299.854 283.586 299.181C283.907 298.267 283.89 297.26 283.953 296.295L284.48 294.263Z"/>
	<path fill="#AC003B" d="M281.64 326.542C281.606 318.583 282.081 310.961 283.402 303.113C287.854 304.107 292.407 304.609 296.859 305.566C301.975 306.665 307.231 308.365 312.183 310.05C315.045 311.024 318.11 311.828 320.898 312.981C326.372 315.246 331.062 318.364 335.495 322.236C335.492 322.504 337.449 324.459 337.85 324.905C340.809 328.202 343.203 331.584 345.504 335.352L344.727 336.129C343.361 334.987 342.352 332.319 341.297 330.786C336.119 323.259 330.586 318.582 322.22 314.919C310.181 309.787 297.468 306.463 284.551 304.436C283.223 312.302 282.697 320.685 283.155 328.656C283.128 329.709 283.299 330.789 283.407 331.836L283.008 332.067C281.906 330.752 281.885 328.225 281.64 326.542Z"/>
	<path fill="#EF3C82" d="M283.155 328.656C282.697 320.685 283.223 312.302 284.551 304.436C297.468 306.463 310.181 309.787 322.22 314.919C321.909 315.899 321.909 315.987 321.094 316.598L320.113 316.602C320.354 317.194 320.157 316.99 320.534 317.225C321.322 317.717 321.604 318.048 322.023 318.872C311.287 314.049 300.975 311.157 289.498 308.762L288.744 330.608C287.925 329.73 288.024 328.649 287.109 327.926C285.892 328.741 285.616 329.614 284.57 330.66L284.184 330.273L283.887 330.759C283.696 330.036 283.419 329.354 283.155 328.656Z"/>
	<path fill="white" d="M288.744 330.608L289.498 308.762C300.975 311.157 311.287 314.049 322.023 318.872C324.649 320.558 327.787 322.42 329.71 324.903C328.775 324.601 328.172 324.329 327.344 323.828L326.66 323.535L326.355 323.853C326.035 324.172 325.771 324.377 325.391 324.609C325.218 325.045 324.996 325.921 324.707 326.27C324.015 327.104 323.758 326.638 323.246 327.93L323.828 328.516L323.246 329.297L323.633 330.078L323.44 330.435C322.845 331.636 323.728 333.858 323.242 334.766C322.954 335.304 322.481 335.153 322.461 335.872C322.431 336.955 322.334 337.438 321.676 338.281L321.443 338.586C320.451 339.858 318.567 341.122 317.188 341.988L317.186 342.285C315.836 342.991 313.763 342.956 312.254 343.068C308.545 343.343 304.837 343.489 301.124 343.689C300.167 343.741 298.519 343.598 297.655 343.889C296.215 344.373 295.098 345.74 293.48 346.215C290.91 340.925 289.819 336.311 288.744 330.608Z"/>
	<defs>
		<linearGradient id="gradient_14" gradientUnits="userSpaceOnUse" x1="328.32001" y1="369.336" x2="313.54999" y2="328.39899">
			<stop offset="0" stop-color="white"/>
			<stop offset="1" stop-color="#F1FFFF"/>
		</linearGradient>
	</defs>
	<path fill="url(#gradient_14)" d="M293.48 346.215C295.098 345.74 296.215 344.373 297.655 343.889C298.519 343.598 300.167 343.741 301.124 343.689C304.837 343.489 308.545 343.343 312.254 343.068C313.763 342.956 315.836 342.991 317.186 342.285L317.188 341.988C318.567 341.122 320.451 339.858 321.443 338.586L321.676 338.281C322.334 337.438 322.431 336.955 322.461 335.872C322.481 335.153 322.954 335.304 323.242 334.766C323.728 333.858 322.845 331.636 323.44 330.435L323.633 330.078L323.246 329.297L323.828 328.516L323.246 327.93C323.758 326.638 324.015 327.104 324.707 326.27C324.996 325.921 325.218 325.045 325.391 324.609C325.771 324.377 326.035 324.172 326.355 323.853L326.66 323.535L327.344 323.828C328.172 324.329 328.775 324.601 329.71 324.903C332.122 326.583 334.012 329.288 335.641 331.713C339.528 337.499 343.452 344.512 344.719 351.449C345.099 353.532 340.897 359.703 339.517 361.583C336.17 366.147 330.562 370.321 324.85 371.114C318.527 371.992 312.861 368.856 308.079 365.05C301.957 360.179 296.854 353.273 293.48 346.215Z"/>
	<defs>
		<linearGradient id="gradient_15" gradientUnits="userSpaceOnUse" x1="390.42999" y1="374.414" x2="422.62701" y2="305.815">
			<stop offset="0" stop-color="#CC0036"/>
			<stop offset="1" stop-color="#E91D62"/>
		</linearGradient>
	</defs>
	<path fill="url(#gradient_15)" d="M454.913 300.011L458.398 299.704C459.331 300.793 459.656 302.444 460.08 303.806C461.351 307.875 462.286 311.928 463.076 316.112L464.123 324.666L464.132 326.555C463.903 330.235 463.755 334.078 462.888 337.674C460.936 345.761 456.035 352.711 451.082 359.212L449.936 360.498L437.782 371.006C437.316 371.233 435.266 372.037 435.08 372.368C422.595 378.216 409.529 381.297 395.911 377.282C382.629 373.365 374.833 364.129 368.494 352.469C369.494 347.538 372.291 341.858 374.792 337.502C384.574 320.465 399.137 312.183 417.671 307.176L421.424 305.94L422.513 305.728L429.979 304.225C432.181 303.426 434.809 303.152 437.114 302.713C442.463 301.695 447.798 300.92 453.2 300.237L454.913 300.011Z"/>
	<path fill="#AC003B" d="M451.614 303.926L453.711 303.579C456.125 305.837 457.121 314.281 457.799 317.633C458.15 322.204 458.663 326.907 458.239 331.488C457.541 339.021 454.15 345.829 450.947 352.539L450.391 352.926L450.098 352.441L450.978 351.085C451.6 350.151 451.681 348.687 452.344 348.242L451.953 347.852L451.398 348.712C451.196 349.015 450.991 349.198 450.732 349.445C450.378 349.783 450.327 349.863 450.122 350.322C449.804 351.036 449.215 351.455 448.633 351.953L448.448 351.562C452.392 346.178 457.602 338.099 456.925 331.074C457.475 324.065 456.493 316.91 454.918 310.096C454.51 308.331 454.224 305.963 453.141 304.492L451.889 304.575L451.614 303.926Z"/>
	<path fill="#BA0033" d="M431.689 307.182L451.614 303.926L451.889 304.575L417.236 311.845L409.059 314.773C405.712 316.118 402.038 317.577 399.015 319.574C388.428 326.567 382.103 337.625 377.23 349.023L376.953 349.023C377.03 348.587 377.105 348.163 377.248 347.742L377.539 346.875L377.543 346.289C378.091 345.816 378.489 345.227 378.711 344.531C379.249 342.843 380.068 341.022 381.06 339.534C381.49 338.889 381.836 338.505 381.836 337.691C380.703 338.72 379.293 340.926 378.656 342.328C378.33 343.045 378.006 343.764 377.549 344.41C377.227 344.866 376.841 345.319 376.758 345.895L376.754 346.289C376.245 346.63 376.305 346.68 375.646 346.68C377.551 342.964 379.721 339.656 381.918 336.131C383.834 333.056 385.695 329.831 388.166 327.148C392.674 322.253 399.072 318.053 405.12 315.339C409.86 313.213 414.773 311.832 419.628 310.049C423.605 308.974 427.808 308.53 431.689 307.182Z"/>
	<defs>
		<linearGradient id="gradient_16" gradientUnits="userSpaceOnUse" x1="452.539" y1="326.367" x2="458.013" y2="306.80499">
			<stop offset="0" stop-color="#E72963"/>
			<stop offset="1" stop-color="#F65CB8"/>
		</linearGradient>
	</defs>
	<path fill="url(#gradient_16)" d="M451.889 304.575L453.141 304.492C454.224 305.963 454.51 308.331 454.918 310.096C456.493 316.91 457.475 324.065 456.925 331.074C456.482 329.884 456.659 328.225 456.641 326.953C456.109 326.682 455.736 326.35 455.273 325.973C454.725 326.07 454.211 326.185 453.684 326.365C453.303 326.496 452.693 326.381 452.539 326.754C452.327 327.267 452.672 328.337 452.516 328.906C452.416 329.273 451.801 329.958 451.566 330.303C451.606 322.786 450.78 315.657 448.84 308.364C445.672 308.681 442.463 309.467 439.334 310.069C428.79 312.098 418.878 315.05 408.864 318.915C409.234 318.287 409.591 317.94 410.156 317.482L410.742 317.578C411.44 316.842 412.209 317.046 412.976 316.53C413.387 316.254 413.584 316.028 414.088 315.903C414.563 315.785 414.368 315.901 414.795 315.617L415.039 315.434L415.625 315.625L416.018 315.236C416.453 315.147 416.76 315.088 417.139 314.836L417.383 314.652L418.164 314.844C417.262 313.71 417.346 313.317 417.236 311.845L451.889 304.575Z"/>
	<path fill="#F64B98" d="M454.913 300.011L458.398 299.704C459.331 300.793 459.656 302.444 460.08 303.806C461.351 307.875 462.286 311.928 463.076 316.112C462.927 316.887 462.888 317.78 462.309 318.359C462.45 318.918 462.65 319.399 462.891 319.922L462.831 320.221C462.677 321.477 463.043 323.108 463.086 324.418L462.856 324.469C462.461 324.599 462.271 324.792 461.953 325.043C461.521 325.385 461.267 325.536 460.732 325.654C460.04 325.807 459.757 325.987 459.176 326.367C459.176 323.607 459.398 319.845 457.799 317.633C457.121 314.281 456.125 305.837 453.711 303.579L451.614 303.926L431.689 307.182C427.808 308.53 423.605 308.974 419.628 310.049C418.651 309.843 417.789 309.897 416.797 309.965C416.408 310.272 416.225 310.365 415.724 310.464C415.121 310.584 415.389 310.489 414.881 310.66L414.648 310.746C413.936 310.496 413.579 310.341 413.082 309.766C413.66 309.332 414.23 309.344 414.793 308.97C415.249 308.667 415.667 308.787 416.211 308.785L417.671 307.176L421.424 305.94L422.513 305.728L429.979 304.225C432.181 303.426 434.809 303.152 437.114 302.713C442.463 301.695 447.798 300.92 453.2 300.237L454.913 300.011Z"/>
	<path fill="#EF3C82" d="M429.979 304.225L430.017 304.968L430.261 304.834C430.952 304.534 431.85 304.547 432.617 304.297C433.614 303.972 434.71 303.989 435.744 304.004L436.525 305.371C436.184 305.654 436.095 305.85 435.641 305.87C434.865 305.905 434.501 306.059 433.789 306.25C432.778 306.522 432.434 306.23 431.458 306.9L431.689 307.182C427.808 308.53 423.605 308.974 419.628 310.049C418.651 309.843 417.789 309.897 416.797 309.965C416.408 310.272 416.225 310.365 415.724 310.464C415.121 310.584 415.389 310.489 414.881 310.66L414.648 310.746C413.936 310.496 413.579 310.341 413.082 309.766C413.66 309.332 414.23 309.344 414.793 308.97C415.249 308.667 415.667 308.787 416.211 308.785L417.671 307.176L421.424 305.94L422.513 305.728L429.979 304.225Z"/>
	<path fill="white" d="M408.864 318.915C418.878 315.05 428.79 312.098 439.334 310.069C442.463 309.467 445.672 308.681 448.84 308.364C450.78 315.657 451.606 322.786 451.566 330.303C450.84 336.786 448.848 344.598 444.313 349.52C444.257 349.02 444.308 348.547 444.34 348.047C445.095 347.389 445.244 347.059 445.512 346.094C444.58 345.623 444.703 344.674 443.361 344.529L442.871 344.529L442.578 344.336C441.79 344.359 441.36 344.307 440.68 343.883L440.332 343.652C438.763 343.899 436.938 343.435 435.449 343.748C435.037 343.835 434.976 344.139 434.473 344.139L433.984 343.846L433.398 344.332L432.031 344.141L431.543 344.529L431.055 344.531L430.664 345.113L430.078 344.531L429.492 345.113L428.906 344.531L428.418 344.92C427.837 344.487 427.454 344.671 426.758 344.723L424.063 341.87L423.83 341.699C423.53 340.942 423.383 340.672 422.656 340.33C421.495 339.783 420.815 338.891 419.495 338.559C419.061 338.449 419.192 338.527 418.801 338.267C418.171 337.849 417.462 338.273 416.797 338.082C415.445 337.694 413.965 337.305 412.5 337.301C412.111 336.994 411.928 336.901 411.427 336.801L408.789 336.129C407.285 335.759 405.631 335.401 404.297 334.566C403.672 334.176 403.057 333.819 402.346 333.592C401.301 333.258 400.983 332.191 400.044 331.876L399.805 331.832L398.926 330.857C398.4 330.324 396.769 328.711 396.094 328.711L395.616 329.542L395.483 328.561C398.402 324.326 404.341 321.077 408.864 318.915Z"/>
	<path fill="white" d="M395.483 328.561L395.616 329.542L396.094 328.711C396.769 328.711 398.4 330.324 398.926 330.857L399.805 331.832L400.044 331.876C400.983 332.191 401.301 333.258 402.346 333.592C403.057 333.819 403.672 334.176 404.297 334.566C405.631 335.401 407.285 335.759 408.789 336.129L411.427 336.801C411.928 336.901 412.111 336.994 412.5 337.301C413.965 337.305 415.445 337.694 416.797 338.082C417.462 338.273 418.171 337.849 418.801 338.267C419.192 338.527 419.061 338.449 419.495 338.559C420.815 338.891 421.495 339.783 422.656 340.33C423.383 340.672 423.53 340.942 423.83 341.699L424.063 341.87L426.758 344.723C427.454 344.671 427.837 344.487 428.418 344.92L428.906 344.531L429.492 345.113L430.078 344.531L430.664 345.113L431.055 344.531L431.543 344.529L432.031 344.141L433.398 344.332L433.984 343.846L434.473 344.139C434.976 344.139 435.037 343.835 435.449 343.748C436.938 343.435 438.763 343.899 440.332 343.652L440.68 343.883C441.36 344.307 441.79 344.359 442.578 344.336L442.871 344.529L443.361 344.529C444.703 344.674 444.58 345.623 445.512 346.094C445.244 347.059 445.095 347.389 444.34 348.047C444.308 348.547 444.257 349.02 444.313 349.52C440.375 356.205 433.244 362.654 426.531 366.533C419.117 370.818 410 372.7 401.596 370.391C392.378 367.859 385.97 360.061 381.456 352.103C384.005 343.636 388.923 334.591 395.483 328.561Z"/>
</svg>
