<svg width="1928" height="1088" viewBox="0 0 1928 1088" fill="none" xmlns="http://www.w3.org/2000/svg">
<g clip-path="url(#clip0_12_111)" filter="url(#filter0_d_12_111)">
<path d="M1141.19 263.101L1153.83 282.943C1150.16 283.223 1147.47 283.247 1144.37 281.115L1142.16 275.064C1140.93 271.592 1140.37 269.529 1137.46 267.129L1141.19 263.101Z" fill="#4A4755"/>
<path d="M675.6 246.986C677.156 247.148 678.711 247.172 680.253 247.309L683.38 248.173C678.501 254.375 673.543 263.552 668.135 268.832C664.926 269.222 662.216 269.992 659.193 271.118C663.564 262.723 669.64 254.338 675.6 246.986Z" fill="#757D8C"/>
<path d="M1144.37 281.115C1147.47 283.247 1150.16 283.223 1153.83 282.943C1160.36 295.565 1167.65 308.557 1172.35 321.971C1160.06 311.836 1158.64 294.974 1147.01 284.622C1145.62 283.385 1144.98 282.937 1144.37 281.115Z" fill="#3A3743"/>
<path d="M653.195 683.408C659.635 685.174 664.46 694.292 668.611 699.295L668.786 702.068C669.047 706.022 669.1 710.095 669.959 713.972C669.355 718.066 669.089 718.199 666.112 721.186L653.195 683.408Z" fill="#5A5A6B"/>
<path d="M770.47 161.429C785.045 152.359 800.915 143.908 817.426 138.971L817.78 140.746C816.19 141.892 817.126 141.458 815.687 141.824C812.566 142.61 809.535 144.53 806.895 146.334C802.21 149.53 798.937 152.308 794.891 156.477L778.236 166.985H768.271L770.47 161.429Z" fill="#757D8C"/>
<path d="M607.026 429.546C609.19 403.405 613.692 379.098 621.112 353.915C623.715 345.08 626.177 335.671 630.375 327.453C631.686 329.702 632.449 331.293 632.797 333.881L633.401 334.553C630.867 337.596 629.966 339.527 629.155 343.359L628.916 344.395L621.487 371.701C620.99 380.107 617.818 387.451 616.188 395.6C612.806 412.526 613.218 432.393 606.736 448.508L607.026 429.546Z" fill="#66697B"/>
<path d="M621.487 371.701L628.916 344.394L629.155 343.359C629.966 339.527 630.867 337.596 633.401 334.553L635.663 337.196C633.013 346.791 629.413 356.262 626.916 365.817C622.138 384.085 619.262 401.985 616.831 420.656C616.034 426.787 614.643 432.87 614.308 439.051C613.37 456.477 615.127 473.977 614.3 491.364C614.221 494.632 614.114 497.444 613.46 500.604C612.49 505.31 611.341 509.396 610.751 514.372C609.422 508.829 609.18 502.656 608.499 496.983C606.59 481.048 605.348 464.526 606.736 448.508C613.218 432.393 612.806 412.525 616.188 395.6C617.818 387.451 620.99 380.107 621.487 371.701Z" fill="#73798A"/>
<path d="M675.601 246.986C699.652 212.547 734.495 182.825 770.47 161.429L768.271 166.985H778.236C770.731 171.167 762.489 175.275 755.453 180.203C741.538 189.954 729.315 201.324 716.806 212.706C706.054 222.489 694.084 233.21 685.709 245.085L683.38 248.173L680.253 247.309C678.711 247.172 677.156 247.148 675.601 246.986Z" fill="#73798A"/>
<path d="M668.611 699.295L685.927 713.879C686.087 720.363 689.644 730.495 693.406 735.839C694.427 740.715 696.878 745.273 698.931 749.796C698.793 754.629 698.795 758.266 699.737 762.85C700.215 765.186 700.76 767.773 701.116 770.154C702.135 776.912 705.732 786.253 708.045 792.85C710.071 798.637 710.991 804.686 713.278 810.438C715.298 815.517 717.383 821.182 718.289 826.585L719.297 830.946L719.954 831.217C719.337 837.027 719.34 841.103 721.525 846.646L721.754 847.424C722.352 849.199 723.506 850.658 724.678 852.083C727.6 855.626 726.749 859.57 726.55 863.86L701.247 808.756L698.011 801.338L666.111 721.186C669.089 718.199 669.355 718.066 669.959 713.972C669.1 710.095 669.047 706.022 668.786 702.068L668.611 699.295Z" fill="#4A4755"/>
<path d="M700.577 778.703C704.661 785.588 706.086 791.931 706.716 799.828C706.854 801.552 707.293 802.355 708.316 803.711C709.3 805.016 709.859 806.425 709.598 808.11L709.194 809.402L709.553 810.014C712.743 815.567 714.102 821.508 718.289 826.584L719.297 830.946C716.973 828.457 714.788 826.288 711.744 824.688L711.14 824.405C710.002 822.13 708.537 819.77 707.732 817.366C707.341 816.203 707.101 815.17 706.408 814.129L705.958 813.552L706.219 811.73C703.337 805.623 704.352 798.242 703.884 791.648C703.568 787.196 702.053 782.887 700.577 778.703Z" fill="#3F3A49"/>
<path d="M668.786 702.068L671.485 707.388C673.091 718.511 678.076 733.36 683.734 743.122C686.103 747.209 686.525 752.937 688.259 757.429C692.045 767.249 699.614 778.154 701.515 788.197C702.741 794.669 701.821 802.201 701.247 808.756L698.011 801.338L698.766 795.437L699.726 794.402C699.808 792.959 699.798 791.899 699.396 790.49C698.258 786.513 697.285 782.153 695.57 778.401C693.717 774.335 690.747 770.803 689.014 766.677C686.698 761.168 685.576 755.225 683.085 749.778C681.373 746.03 678.429 742.243 677.257 738.347L676.866 736.989C676.348 735.524 675.771 734.367 675.513 732.82C675.34 731.803 675.247 730.182 674.79 729.229C672.681 724.817 671.349 718.837 669.959 713.972C669.1 710.095 669.047 706.022 668.786 702.068Z" fill="#4A4C5F"/>
<path d="M669.959 713.972C671.349 718.837 672.681 724.817 674.79 729.229C675.247 730.183 675.34 731.803 675.513 732.82C675.771 734.367 676.348 735.524 676.866 736.989L677.257 738.347C678.429 742.243 681.373 746.03 683.085 749.778C685.576 755.225 686.698 761.168 689.014 766.677C690.747 770.803 693.717 774.336 695.57 778.401C697.285 782.153 698.258 786.513 699.396 790.49C699.798 791.899 699.808 792.959 699.726 794.402L698.766 795.438L698.011 801.338L666.111 721.186C669.089 718.199 669.355 718.066 669.959 713.972Z" fill="#4A4755"/>
<path d="M668.611 699.295L685.927 713.879C686.087 720.363 689.644 730.495 693.406 735.839C694.427 740.715 696.878 745.273 698.931 749.796C698.793 754.629 698.795 758.266 699.737 762.85C700.215 765.186 700.76 767.773 701.117 770.154C702.135 776.912 705.732 786.253 708.045 792.85C710.071 798.637 710.991 804.685 713.278 810.438C715.298 815.517 717.383 821.182 718.289 826.585C714.102 821.508 712.743 815.567 709.553 810.014L709.194 809.402L709.598 808.11C709.858 806.425 709.3 805.017 708.316 803.711C707.293 802.355 706.854 801.552 706.716 799.828C706.086 791.931 704.661 785.588 700.577 778.703C700.064 775.874 697.639 772.037 696.424 769.341C693.358 762.54 690.418 755.657 687.631 748.739C686.374 745.614 686.126 742.418 685.076 739.277C681.684 729.15 677.055 716.454 671.485 707.388L668.786 702.068L668.611 699.295Z" fill="#3A3743"/>
<path d="M635.663 337.196C638.439 340.631 640.51 343.428 642.031 347.631L643.204 348.936C646.764 356.052 651.496 362.162 654.822 369.511C655.567 370.83 656.133 372.16 657.311 373.142L659.27 375.571C657.271 383.682 656.92 391.94 656.255 400.232L654.381 420.452C654.493 439.61 650.082 461.107 646.899 480.05C645.932 485.808 642.943 494.558 643.472 500.146L635.017 499.184L628.365 498.008C625.161 500.794 625.754 507.381 624.813 511.634L618.717 517.246L616.826 516.639C616.201 507.995 616.013 499.942 614.3 491.364C615.127 473.977 613.37 456.477 614.308 439.051C614.643 432.87 616.034 426.787 616.831 420.656C619.262 401.985 622.138 384.085 626.916 365.817C629.413 356.262 633.013 346.791 635.663 337.196Z" fill="url(#paint0_linear_12_111)"/>
<path d="M653.443 387.79C653.629 391.493 653.249 396.508 654.562 399.949L656.256 400.232L654.381 420.452C653.762 420.042 652.717 420.32 651.983 420.365L651.09 412.173L653.443 387.79Z" fill="#4A4C5F"/>
<path d="M654.822 369.511C655.567 370.83 656.133 372.16 657.311 373.142L659.27 375.571C657.271 383.682 656.92 391.94 656.255 400.232L654.562 399.949C653.248 396.508 653.629 391.492 653.442 387.79C653.254 381.709 654.176 375.552 654.822 369.511Z" fill="#5A5A6B"/>
<path d="M635.017 499.184L638.45 498.562C642.305 488.633 643.531 476.295 644.953 465.76C647.359 447.918 649.26 430.079 651.09 412.173L651.983 420.365C652.717 420.32 653.762 420.042 654.381 420.452C654.493 439.61 650.082 461.107 646.899 480.05C645.932 485.808 642.943 494.558 643.472 500.146L635.017 499.184Z" fill="#4A4755"/>
<path d="M635.663 337.196C638.439 340.631 640.51 343.428 642.031 347.631L639.444 348.809L639.439 350.001C639.359 355.88 635.762 364.35 633.063 369.63C630.904 373.849 630.753 379.758 629.74 384.427C628.546 389.927 626.528 395.166 625.656 400.775C621.54 427.279 620.75 454.197 623.077 480.874C623.585 486.689 623.106 491.846 624.949 497.505L625.882 497.428C627.363 497.373 626.818 497.354 628.365 498.008C625.161 500.794 625.754 507.381 624.813 511.634L618.717 517.246L616.826 516.639C616.201 507.995 616.013 499.942 614.3 491.364C615.127 473.977 613.37 456.477 614.308 439.051C614.643 432.87 616.034 426.787 616.831 420.656C619.262 401.985 622.138 384.085 626.916 365.817C629.413 356.262 633.013 346.791 635.663 337.196Z" fill="#4A4C5F"/>
<path d="M659.808 369.239C661.086 374.032 666.909 380.099 669.786 384.657C674.298 391.802 678.304 399.316 682.447 406.681C691.162 419.697 701.462 433.744 707.968 447.96L706.673 448.914C707.277 450.548 708.407 453.117 709.718 454.322C711.137 455.911 712.706 456.872 712.714 459.059L714.833 461.456L715.184 462.248L713.964 466.247C710.917 481.088 711.35 500.021 711.648 515.223L709.247 514.807C688.713 507.164 664.974 504.301 643.472 500.146C642.943 494.558 645.932 485.808 646.899 480.05C650.082 461.107 654.493 439.61 654.381 420.452L656.255 400.232C656.92 391.94 657.271 383.683 659.27 375.571L657.311 373.142L659.808 369.239Z" fill="#1A1627"/>
<path d="M659.807 369.239C661.086 374.032 666.909 380.099 669.786 384.657C674.298 391.802 678.304 399.316 682.447 406.681C680.87 408.026 681.516 407.237 680.511 409.051C681.654 410.756 681.622 411.411 681.803 413.487C672.686 402.295 666.898 387.745 659.27 375.571L657.311 373.142L659.807 369.239Z" fill="#4A4C5F"/>
<path d="M709.718 454.322C711.137 455.911 712.706 456.872 712.714 459.059L714.833 461.456L715.184 462.248L713.964 466.247C710.917 481.088 711.35 500.021 711.648 515.223L709.247 514.807C707.035 507.434 708.213 500.138 708.377 492.585C708.627 481.136 708.694 469.685 709.122 458.241L709.718 454.322Z" fill="#3A3743"/>
<path d="M682.447 406.681C691.162 419.697 701.462 433.744 707.968 447.96L706.673 448.914C707.277 450.548 708.407 453.117 709.718 454.322L709.122 458.241C703.22 448.146 696.91 438.31 690.734 428.381C687.685 423.476 684.031 418.839 681.803 413.487C681.623 411.411 681.654 410.756 680.511 409.051C681.516 407.237 680.87 408.026 682.447 406.681Z" fill="#3F3A49"/>
<path d="M719.954 831.216L722.222 834.67L723.612 837.345L724.391 835.787H725.165C729.267 840.766 726.885 849.691 730.134 853.306L730.902 853.319L732.984 851.908L733.388 852.573C734.069 853.563 733.795 853.227 734.736 853.852C736.839 855.25 736.861 856.415 737.629 858.547C738.371 860.605 740.014 860.692 740.745 861.651C741.49 862.628 741.293 866.076 741.269 867.345L745.246 872.03C747.006 873.862 747.889 875.036 749.054 877.168C749.546 878.071 750.234 879.077 751.205 879.403C754.071 880.369 757.538 882.123 759.832 884.059C765.299 888.664 774.306 890.306 780.778 893.476C786.898 896.474 792.397 901.291 797.77 905.46L796.313 906.657C797.204 908.055 798.089 909.398 798.809 910.894L835.035 945.158L840.153 951.382L838.943 952.69C840.438 954.197 842.527 955.436 842.535 957.595L843.187 958.154C844.91 959.653 845.388 960.309 846.425 962.251L854.992 973.374C855.042 975.506 854.819 978.289 855.654 980.225C857.964 985.598 853.867 995.124 856.81 1000.01C854.22 1000.07 851.62 1000.49 849.281 999.235C846.936 997.979 844.426 998.334 842.011 997.166C836.505 994.505 827.452 994.187 823.315 989.417C821.385 989.404 820.441 989.044 818.843 990.151C798.801 981.729 780.64 961.17 769.414 943.286C764.232 938.167 760.316 930.039 756.756 923.68C745.813 904.125 737.02 883.63 726.55 863.86C726.749 859.569 727.6 855.626 724.678 852.083C723.506 850.658 722.352 849.199 721.754 847.424L721.525 846.646C719.339 841.103 719.337 837.027 719.954 831.216Z" fill="#0D0715"/>
<path d="M730.903 853.319L732.984 851.908L733.389 852.573C734.069 853.563 733.795 853.227 734.736 853.852C736.84 855.25 736.861 856.415 737.629 858.547C738.371 860.605 740.014 860.692 740.745 861.651C741.49 862.628 741.293 866.076 741.269 867.345L745.247 872.03C746.384 875.939 747.243 879.39 749.937 882.584L750.965 882.817C754.786 883.73 757.421 884.986 760.763 886.99L761.258 888.542L760.255 889.011L756.371 891.116C754.914 890.258 753.848 889.575 752.17 889.215L751.136 889.051C749.33 887.268 748.788 888.773 746.98 886.99L749.059 884.922C748.344 884.795 747.658 884.71 746.98 884.406C744.813 883.426 744.013 881.514 743.135 879.474C742.628 878.293 742.162 878.431 741.008 877.938L740.751 874.061C739.847 872.965 739.19 872.239 738.834 870.828L738.671 869.922C737.528 868.783 737.94 869.069 736.789 868.306L736.076 867.853C735.704 865.692 735.244 863.749 734.008 861.9C733.295 860.838 732.822 859.763 732.301 858.6L730.903 853.319Z" fill="#272331"/>
<path d="M745.246 872.03C747.006 873.863 747.889 875.036 749.054 877.168C749.546 878.071 750.234 879.077 751.205 879.403C754.071 880.37 757.538 882.123 759.832 884.059C765.299 888.664 774.307 890.306 780.778 893.476C786.898 896.474 792.397 901.292 797.77 905.46L796.313 906.657C797.204 908.055 798.089 909.398 798.81 910.894C790.45 903.905 778.103 896.646 767.761 893.36C766.001 892.801 765.66 893.744 764.118 893.648C762.281 893.535 758.548 891.601 756.371 891.117L760.255 889.011L761.257 888.542L760.763 886.991C757.421 884.986 754.786 883.73 750.965 882.817L749.936 882.584C747.243 879.39 746.384 875.939 745.246 872.03Z" fill="#1A1627"/>
<path d="M719.954 831.216L722.222 834.67L723.612 837.345L724.391 835.787H725.165C729.267 840.766 726.885 849.691 730.134 853.306L730.902 853.319L732.301 858.6L730.894 859.109C730.886 861.087 730.437 861.198 731.91 862.681C731.915 863.966 731.649 864.805 732.37 865.886C733.255 867.213 733.721 868.664 734.223 870.16C734.936 872.276 736.042 873.892 736.589 876.135C737.153 878.434 737.972 879.339 739.182 881.302C740.248 883.034 740.333 884.511 740.229 886.474L741.258 887.509L741.455 888.399C741.952 890.367 742.67 891.726 743.893 893.315C745.058 894.827 744.85 895.634 745.414 897.337L746.451 898.887C747.783 901.005 748.737 903.264 750.157 905.391C750.79 906.342 750.535 905.947 750.835 907.134C751.412 909.414 753.568 912.322 754.759 914.406L755.283 915.698C756.139 917.645 757.325 920.113 758.399 921.906L759.144 922.73C760.202 923.961 760.311 924.906 760.991 926.302L762.031 927.854L762.555 929.146C763.278 930.373 763.961 930.86 764.631 932.25C766.886 936.935 769.031 937.523 769.414 943.286C764.232 938.167 760.316 930.039 756.756 923.68C745.813 904.125 737.02 883.63 726.55 863.86C726.749 859.569 727.6 855.626 724.678 852.083C723.506 850.658 722.352 849.199 721.754 847.424L721.525 846.646C719.339 841.103 719.337 837.027 719.954 831.216Z" fill="#3A3743"/>
<path d="M866.637 125.74L865.632 129.469C861.588 129.745 860.607 130.409 857.289 132.748C858.972 134.771 860.74 136.733 862.072 139.008L861.221 144.472L860.902 151.704L861.721 158.699L862.258 159.048L864.42 156.652L864.497 162.925L862.457 225.304L863.308 226.464C862.912 228.816 862.734 230.678 861.173 232.598C860.301 233.445 855.8 237.259 855.664 238.056C844.003 248.329 833.977 261.436 823.852 273.244C790.584 309.606 753.991 340.47 706.798 357.175C697.458 360.483 687.573 362.491 677.855 364.39C672.556 365.425 663.753 365.205 659.808 369.239L657.311 373.142C656.133 372.16 655.567 370.83 654.822 369.511C651.496 362.162 646.764 356.053 643.204 348.936L642.031 347.631C640.51 343.428 638.439 340.631 635.663 337.196L633.401 334.553L632.797 333.881C632.449 331.293 631.686 329.702 630.375 327.453C635.52 312.056 643.738 295.631 652.664 282.082L656.933 274.696L658.702 272.111L659.193 271.118C662.216 269.992 664.926 269.222 668.135 268.832C673.543 263.552 678.501 254.375 683.38 248.173L685.709 245.085C694.084 233.21 706.054 222.489 716.806 212.706C729.315 201.324 741.538 189.954 755.453 180.203C762.488 175.275 770.731 171.167 778.236 166.985L794.891 156.477C798.937 152.308 802.21 149.53 806.895 146.334C809.535 144.53 812.566 142.61 815.687 141.824C817.126 141.458 816.19 141.892 817.78 140.746L817.426 138.971C832.645 131.868 850.185 128.434 866.637 125.74Z" fill="url(#paint1_linear_12_111)"/>
<path d="M858.578 222.015C859.081 221.409 859.613 221.054 859.676 220.251C859.801 223.395 860.248 223.254 862.457 225.304L863.308 226.464C862.912 228.816 862.734 230.678 861.173 232.598C860.301 233.445 855.8 237.259 855.664 238.056C844.003 248.329 833.977 261.435 823.852 273.244L821.079 271.692C829.555 262 838.034 252.267 846.228 242.338C849.634 238.21 854.383 233.498 856.922 228.813C857.996 226.832 858.275 224.205 858.578 222.015Z" fill="#73798A"/>
<path d="M860.902 151.704L861.721 158.699L862.258 159.048L864.42 156.652L864.497 162.925L862.457 225.304C860.248 223.254 859.801 223.395 859.676 220.251C859.613 221.054 859.081 221.409 858.578 222.015C856.925 218.265 858.238 209.308 858.395 204.981C859.041 187.205 859.913 169.464 860.902 151.704Z" fill="#66697B"/>
<path d="M821.079 271.692L823.852 273.244C790.583 309.606 753.991 340.47 706.798 357.175C697.458 360.483 687.573 362.491 677.855 364.389C672.556 365.425 663.753 365.205 659.807 369.238L657.311 373.142C656.133 372.16 655.567 370.83 654.822 369.511C651.496 362.162 646.764 356.052 643.204 348.936L645.868 346.391L645.971 346.381L657.641 363.868C704.544 361.09 749.2 338.761 784.301 308.547C797.326 297.336 809.306 284.2 821.079 271.692Z" fill="#66697B"/>
<path d="M866.637 125.74L865.632 129.469C861.588 129.745 860.607 130.409 857.289 132.748C858.972 134.771 860.74 136.733 862.072 139.008L861.221 144.472C857.642 145.19 854.92 146.029 851.357 145.24C849.94 144.927 848.464 145.171 847.276 145.881C845.744 146.8 844.404 147.152 842.7 147.626C804.047 187.314 763.007 225.5 715.304 254.153C702.999 261.544 689.95 269.195 676.661 274.685L662.272 279.28L662.615 276.436C660.908 276.287 659.701 276.139 658.156 275.345L656.933 274.696L658.701 272.111L659.193 271.118C662.216 269.992 664.926 269.222 668.135 268.832L668.35 271.499L669.956 272.762C675.515 271.775 680.07 270.45 684.877 267.466C738.488 243.448 783.527 202.947 824.53 161.675C828.237 159.708 832.041 154.464 834.939 151.291C839.645 147.536 843.352 142.348 847.151 137.7C843.859 138.232 841.416 138.826 838.374 140.089C834.705 141.614 829.93 141.842 826.08 143.164C815.504 146.794 804.975 151.659 794.891 156.477C798.937 152.308 802.21 149.53 806.895 146.334C809.535 144.53 812.566 142.61 815.687 141.824C817.126 141.458 816.19 141.892 817.78 140.746L817.426 138.971C832.645 131.868 850.185 128.434 866.637 125.74Z" fill="#73798A"/>
<path d="M659.193 271.118C662.216 269.992 664.926 269.222 668.135 268.832L668.35 271.499L669.956 272.763L659.988 274.661L658.701 272.111L659.193 271.118Z" fill="#66697B"/>
<path d="M857.289 132.748C858.972 134.771 860.74 136.733 862.072 139.008L861.221 144.472C857.642 145.19 854.92 146.029 851.357 145.24C849.94 144.927 848.464 145.171 847.276 145.881C845.744 146.8 844.404 147.152 842.7 147.626C846.438 142.247 852.58 137.374 857.289 132.748Z" fill="#5A5A6B"/>
<path d="M652.664 282.082L656.933 274.696L658.156 275.345C659.701 276.139 660.908 276.287 662.615 276.436L662.272 279.28L676.661 274.685C676.047 275.533 674.526 278.242 673.761 278.692C673.439 278.88 671.347 279.044 671.16 279.214C670.895 279.455 670.546 282.612 670.443 283.128C670.105 284.826 669.392 285.09 668.558 286.46C667.622 287.998 667.366 293.269 667.005 293.698C664.899 296.208 664.397 293.608 664.415 297.84L665.441 298.359C663.992 299.317 663.921 299.309 663.376 300.943L664.104 301.979L661.299 305.083L661.618 306.097C658.17 308.753 655.413 319.315 653.349 323.703C650.502 329.763 646.774 335.607 643.704 341.598L645.868 346.391L643.204 348.937L642.031 347.631C640.51 343.428 638.439 340.631 635.663 337.196L633.401 334.553L632.797 333.881C632.449 331.293 631.686 329.702 630.375 327.453C635.52 312.056 643.738 295.631 652.664 282.082Z" fill="#4A4C5F"/>
<path d="M652.664 282.082L656.933 274.696L658.156 275.345C659.701 276.139 660.908 276.287 662.615 276.436L662.272 279.28L661.783 279.902L661.504 280.644C655.115 297.204 645.089 313.049 637.025 328.801C639.38 332.768 641.095 338.004 643.704 341.598L645.868 346.391L643.204 348.936L642.031 347.631C640.51 343.428 638.439 340.631 635.663 337.196L633.401 334.553L632.797 333.881C632.449 331.293 631.686 329.702 630.375 327.453C635.52 312.056 643.738 295.631 652.664 282.082Z" fill="#757D8C"/>
<path d="M652.664 282.082L656.933 274.696L658.156 275.345C659.701 276.139 660.908 276.287 662.615 276.436L662.272 279.28L661.783 279.902L652.664 282.082Z" fill="#898E9D"/>
<path d="M794.891 156.477C804.975 151.659 815.504 146.794 826.08 143.164C829.93 141.842 834.705 141.614 838.375 140.089C841.416 138.826 843.86 138.232 847.151 137.7C843.352 142.348 839.645 147.536 834.939 151.291C832.041 154.464 828.237 159.708 824.53 161.675C783.527 202.947 738.488 243.448 684.877 267.466C680.07 270.45 675.515 271.775 669.956 272.762L668.35 271.499L668.135 268.832C673.543 263.552 678.501 254.375 683.38 248.173L685.709 245.085C694.084 233.21 706.054 222.489 716.806 212.706C729.315 201.324 741.537 189.954 755.453 180.203C762.488 175.275 770.731 171.167 778.236 166.985L794.891 156.477Z" fill="url(#paint2_linear_12_111)"/>
<path d="M794.891 156.477C804.975 151.659 815.504 146.794 826.08 143.164C829.93 141.842 834.705 141.614 838.375 140.089C841.416 138.826 843.86 138.232 847.151 137.7C843.352 142.348 839.645 147.536 834.939 151.291C832.041 154.464 828.237 159.708 824.53 161.675L822.007 160.616C818.224 162.814 813.175 166.57 809.003 167.682C805.313 168.664 801.016 166.951 797.871 169.035L796.302 168.01L795.88 168.691C794.492 170.765 792.663 171.864 790.602 173.172C789.251 173.177 788.483 172.912 787.35 173.662C786.292 174.364 785.558 174.422 784.365 174.729L783.423 175.02C781.703 175.428 779.855 175.224 778.103 175.148C765.99 181.183 757.144 188.405 746.462 196.475C741.997 199.846 737.151 202.801 732.96 206.517C727.978 210.934 724.141 216.427 719.459 221.107C715.535 225.029 711.105 228.437 707.24 232.412C701.808 237.998 697.126 244.37 692.016 250.254C687.456 255.509 682.237 260.607 679.993 267.312C677.145 268.366 674.659 268.414 671.674 268.358L672.203 269.402C674.37 269.396 675.8 269.942 677.395 268.366C679.198 268.358 679.099 268.703 680.511 267.397L684.877 267.466C680.07 270.45 675.515 271.775 669.956 272.762L668.35 271.499L668.135 268.832C673.543 263.552 678.501 254.375 683.38 248.173L685.709 245.085C694.084 233.21 706.054 222.489 716.806 212.706C729.315 201.324 741.537 189.954 755.453 180.203C762.488 175.275 770.731 171.167 778.236 166.985L794.891 156.477Z" fill="#5A5A6B"/>
<path d="M778.103 175.148L781.706 172.56C793.91 164.432 809.41 158.635 823.331 154.154C827.819 152.708 830.111 150.37 834.939 151.291C832.041 154.464 828.237 159.708 824.53 161.675L822.007 160.616C818.224 162.814 813.175 166.57 809.003 167.682C805.313 168.664 801.016 166.951 797.871 169.035L796.302 168.01L795.88 168.691C794.492 170.765 792.663 171.864 790.602 173.172C789.251 173.177 788.483 172.912 787.35 173.662C786.292 174.364 785.558 174.422 784.365 174.729L783.423 175.02C781.703 175.428 779.855 175.224 778.103 175.148Z" fill="#4A4C5F"/>
<path d="M866.637 125.74C878.277 123.14 890.523 122.869 902.408 122.742C953.607 122.189 1001.82 138.389 1044.77 165.534C1055.68 172.433 1065.62 180.103 1075.52 188.36C1080.16 192.227 1085.97 196.681 1089.53 201.504C1103 213.228 1114.23 226.66 1125.36 240.543C1130.7 247.206 1137.7 255.373 1141.19 263.101L1137.46 267.129L1131.72 278.321L1080.91 349.167C1074.98 360.703 1065.19 370.61 1058.04 381.572L1054.96 379.191L1073.91 352.668C1072.13 350.827 1070.88 350.944 1068.41 350.443C1067.33 349.696 1066.31 349.005 1065.13 348.425L1064.26 348.025C1065.39 347.276 1066.84 346.926 1068.12 346.479C1061.63 344.866 1054.23 344.564 1047.55 343.746C1033.05 341.767 1019.13 339.821 1005.12 335.324C988.628 329.752 971.235 323.025 956.253 314.068C946.171 308.041 936.692 300.665 927.44 293.454L914.141 281.82L910.28 283.944L880.205 252.667L865.406 234.883C863.941 233.019 863.524 233.17 861.173 232.598C862.734 230.678 862.912 228.816 863.308 226.464L862.457 225.304L864.497 162.925L864.42 156.652L862.258 159.048L861.721 158.699L860.902 151.704L861.221 144.472L862.072 139.008C860.74 136.733 858.972 134.771 857.289 132.748C860.607 130.409 861.588 129.744 865.632 129.469L866.637 125.74Z" fill="url(#paint3_linear_12_111)"/>
<path d="M863.308 226.464L883.72 250.18C882.353 251.79 882.204 252.076 880.205 252.667L865.406 234.883C863.941 233.019 863.524 233.17 861.173 232.598C862.734 230.678 862.912 228.816 863.308 226.464Z" fill="#5A5A6B"/>
<path d="M883.719 250.18L914.141 281.82L910.28 283.944L880.205 252.667C882.204 252.076 882.353 251.79 883.719 250.18Z" fill="#4A4755"/>
<path d="M865.632 129.469L869.025 128.698L878.817 136.209C883.674 140.878 889.587 145.608 893.554 151.027L891.627 151.813L888.737 149.39C886.075 151.148 883.233 152.817 880.811 154.877C879.702 155.82 879.205 155.809 877.836 156.109L876.703 156.397C874.619 156.808 871.444 156.056 869.793 157.142L867.964 156.63C866.826 158.045 866.746 158.929 866.584 160.709L864.497 162.926L864.42 156.652L862.258 159.048L861.721 158.699L860.902 151.705L861.221 144.472L862.072 139.008C860.74 136.734 858.972 134.771 857.289 132.748C860.607 130.409 861.588 129.745 865.632 129.469Z" fill="url(#paint4_linear_12_111)"/>
<path d="M862.072 139.008L862.782 143.436L863.904 143.166L865.3 140.878L864.42 156.652L862.258 159.048L861.721 158.699L860.902 151.704L861.221 144.472L862.072 139.008Z" fill="#73798A"/>
<path d="M865.632 129.469C865.542 132.684 865.156 136.164 865.507 139.35L865.3 140.878L863.904 143.166L862.782 143.436L862.072 139.008C860.74 136.733 858.972 134.771 857.289 132.748C860.607 130.409 861.588 129.744 865.632 129.469Z" fill="#66697B"/>
<path d="M865.632 129.469L869.025 128.698L878.817 136.209C874.403 136.678 868.554 136.156 865.507 139.35C865.156 136.164 865.542 132.684 865.632 129.469Z" fill="#5A5A6B"/>
<path d="M866.637 125.74C878.277 123.14 890.523 122.869 902.408 122.742C953.607 122.189 1001.82 138.389 1044.77 165.534C1055.68 172.433 1065.62 180.103 1075.52 188.36C1080.16 192.227 1085.97 196.681 1089.53 201.504C1103 213.228 1114.23 226.66 1125.36 240.543C1130.7 247.206 1137.7 255.373 1141.19 263.101L1137.46 267.129L1131.72 278.321L1080.91 349.167C1074.98 360.703 1065.19 370.61 1058.03 381.572L1054.96 379.191L1073.91 352.668C1072.13 350.827 1070.88 350.944 1068.41 350.443C1067.33 349.696 1066.31 349.005 1065.13 348.425L1064.26 348.025C1065.39 347.276 1066.84 346.926 1068.12 346.479L1078.25 346.251L1132.21 270.27L1125.41 268.71C1120.77 267.333 1116.04 266.69 1111.27 265.956C1100.47 264.825 1090.47 261.849 1079.99 259.261C1044.78 250.559 1011.56 237.998 980.647 218.776C976.563 216.236 971.269 214.014 967.879 210.632C941.196 193.132 917.273 172.258 893.554 151.026C889.587 145.608 883.674 140.878 878.817 136.209L869.024 128.698L865.632 129.469L866.637 125.74Z" fill="url(#paint5_linear_12_111)"/>
<path d="M1087.47 256.902C1088.72 255.172 1089.2 253.665 1091.53 253.546C1094.76 253.379 1096.82 255.103 1099.19 256.978C1098.87 258.498 1098.51 258.332 1097.27 259.166L1087.47 256.902Z" fill="#0D0715"/>
<path d="M969.573 208.273C978.749 211.687 987.552 218.71 996.304 223.345C1015.6 233.565 1035.03 241.764 1055.74 248.594C1065.79 251.91 1076.93 255.697 1087.47 256.902L1097.27 259.166L1113.94 262.32L1111.27 265.956C1100.47 264.825 1090.47 261.849 1079.99 259.261C1044.78 250.559 1011.56 237.998 980.647 218.776C976.563 216.236 971.27 214.015 967.88 210.633L969.573 208.273Z" fill="#4A4755"/>
<path d="M866.637 125.74C878.277 123.14 890.523 122.869 902.408 122.742C953.607 122.189 1001.82 138.389 1044.77 165.534C1055.68 172.433 1065.62 180.103 1075.52 188.36C1080.16 192.227 1085.97 196.681 1089.53 201.504C1103 213.228 1114.23 226.66 1125.36 240.543C1130.7 247.206 1137.7 255.373 1141.19 263.101L1137.46 267.129L1131.72 278.321L1080.91 349.167C1074.98 360.703 1065.19 370.61 1058.03 381.572L1054.96 379.191L1073.91 352.668C1072.13 350.827 1070.88 350.944 1068.41 350.443C1067.33 349.696 1066.31 349.005 1065.13 348.425L1064.26 348.025C1065.39 347.276 1066.84 346.926 1068.12 346.479L1078.25 346.251L1132.21 270.27L1125.41 268.71C1120.77 267.333 1116.04 266.69 1111.27 265.956L1113.94 262.32L1117.9 262.272C1119 262.037 1119.36 261.759 1120.25 261.115L1118.79 259.661C1105.81 248.888 1095.03 233.231 1083.52 220.688C1078.89 215.643 1073.62 212.539 1068.56 208.151C1049.3 191.453 1030.35 176.887 1006.1 168C1003.82 167.163 1001.72 165.733 999.367 165.116C989.29 162.473 980.2 157.949 970.403 154.737C961.068 151.675 950.784 150.756 941.199 148.865L940.686 147.319C933.518 147.308 926.828 146.281 919.384 146.275C917.892 144.806 917.743 145.248 915.749 145.24C914.26 146.723 912.748 146.193 910.815 147.578C907.478 148.1 903.123 148.087 899.85 147.115L897.056 146.275C898.377 147.719 898.444 148.564 898.906 150.401L899.105 151.207C920.197 171.31 944.224 193.699 969.573 208.273L967.879 210.632C941.196 193.132 917.273 172.258 893.554 151.026C889.587 145.608 883.674 140.878 878.817 136.209L869.024 128.698L865.632 129.469L866.637 125.74Z" fill="#5A5A6B"/>
<path d="M866.637 125.74C878.277 123.14 890.523 122.869 902.408 122.742C953.607 122.189 1001.82 138.389 1044.77 165.534C1055.68 172.433 1065.62 180.103 1075.52 188.36C1080.16 192.227 1085.97 196.681 1089.53 201.504C1084.01 200.537 1079.98 194.801 1075.53 191.496C1061.94 181.382 1047.87 172.441 1033.47 163.582C1027.08 159.657 1019.99 154.353 1012.61 152.552C1002.46 150.076 992.624 144.782 982.742 141.342C972.668 137.835 961.631 135.73 951.135 133.778C926.626 129.22 902.934 131.807 878.508 128.865C881.63 132.88 884.716 137.531 888.582 140.838L899.105 151.207C920.197 171.31 944.224 193.699 969.573 208.273L967.879 210.632C941.196 193.132 917.273 172.258 893.554 151.026C889.587 145.608 883.674 140.878 878.817 136.209L869.024 128.698L865.632 129.469L866.637 125.74Z" fill="#757D8C"/>
<path d="M888.583 140.838C889.338 140.28 889.946 139.44 890.845 139.167C892.448 138.68 896.74 139.437 898.614 139.432C914.016 139.376 928.908 139.024 944.251 141.254C960.813 143.661 977.433 148.365 993.122 154.04C1000.28 156.628 1007.61 158.701 1014.5 161.988C1019.07 164.173 1023.25 167.11 1027.71 169.491C1035.55 173.664 1043.45 177.383 1050.76 182.483C1070.62 196.329 1088.67 213.781 1106.06 230.537C1112.08 236.34 1116.44 243.835 1122.16 249.931C1125.89 253.906 1130.86 257.209 1135.15 260.599L1135.04 263.702C1133.74 264.092 1133.68 264.312 1132.36 263.88C1128.28 262.561 1122.79 264.092 1118.31 263.252L1117.9 262.272C1119 262.037 1119.36 261.759 1120.25 261.115L1118.79 259.661C1105.81 248.888 1095.03 233.231 1083.52 220.688C1078.89 215.643 1073.62 212.539 1068.56 208.151C1049.3 191.453 1030.35 176.887 1006.1 168C1003.82 167.163 1001.72 165.733 999.367 165.116C989.291 162.473 980.2 157.949 970.403 154.737C961.068 151.675 950.784 150.756 941.199 148.865L940.686 147.319C933.518 147.308 926.829 146.281 919.384 146.275C917.893 144.805 917.744 145.248 915.75 145.24C914.261 146.723 912.748 146.193 910.815 147.578C907.478 148.1 903.123 148.087 899.85 147.115L897.056 146.275C898.377 147.719 898.444 148.563 898.906 150.401L899.106 151.207L888.583 140.838Z" fill="#3F3A49"/>
<path d="M1137.46 267.129C1140.37 269.529 1140.93 271.592 1142.16 275.064L1144.37 281.115C1144.98 282.937 1145.62 283.385 1147.01 284.622C1158.64 294.974 1160.06 311.836 1172.35 321.971L1184.11 353.793C1198.12 398.344 1203.69 444.531 1201.07 491.112C1200.48 501.552 1200.31 512.286 1198.32 522.577C1196.71 542.474 1192.54 562.691 1188.43 582.225C1178.82 627.811 1165.3 672.457 1148.56 715.927C1135.89 750.471 1121.22 787.167 1102.75 819.031C1066.04 887.464 1024.54 973.509 944.209 997.651C908.026 1008.52 854.715 1009.36 820.877 991.276L818.843 990.151C820.441 989.044 821.385 989.404 823.315 989.417C827.452 994.187 836.505 994.505 842.012 997.166C844.426 998.334 846.936 997.979 849.281 999.235C851.62 1000.49 854.221 1000.07 856.81 1000.01C853.867 995.125 857.964 985.598 855.654 980.225C854.819 978.289 855.042 975.506 854.992 973.374L846.425 962.251C845.388 960.31 844.91 959.653 843.187 958.154L842.535 957.595C842.527 955.437 840.438 954.197 838.943 952.69L840.153 951.382C843.82 955.81 847.627 960.169 850.695 965.037C852.027 966.671 856.114 970.585 856.643 972.336C858.491 978.448 857.661 990.066 857.579 996.65L859.666 998.729C860.49 998.379 861.559 998.366 862.136 997.683C863.593 995.953 861.314 976.091 864.635 971.059L865.191 970.27L882.318 948.064C898.452 930.5 919.06 914.88 941.401 906.09C951.861 901.972 963.195 899.787 974.154 897.351L982.354 896.085C988.073 895.862 1000.72 896.228 1004.55 892.523L1006.02 889.44C1007.39 878.958 1006.37 867.636 1006.93 857.017C1008.17 833.597 1011.8 810.56 1017.49 787.802C1021.74 770.848 1028.17 753.753 1035.22 737.783C1037.9 731.708 1045.88 721.213 1045.86 714.875C1048.29 712.804 1051.32 711.337 1054.09 709.759C1066.6 698.972 1077.35 688.254 1088.25 675.908L1089.89 673.307L1105.9 647.131C1119.5 624.747 1126.08 592.731 1122.26 567.019C1120.39 544.733 1117.1 520.231 1108.56 499.51C1105.64 498.011 1101.72 499.304 1098.47 499.73L1094.33 500.448L1016.68 515.678L1014.79 514.529C1015.3 497.084 1014.33 479.15 1014.02 461.647C1013.95 457.944 1012.69 453.495 1013.29 449.92C1013.73 447.341 1015.18 444.748 1016.46 442.494L1022.75 433.296C1028.65 425.439 1033.7 416.755 1039.35 408.685C1045.51 399.904 1052.99 390.997 1058.04 381.572C1065.19 370.61 1074.98 360.703 1080.91 349.167L1131.72 278.321L1137.46 267.129Z" fill="#040207"/>
<path d="M1092.09 488.316C1093.05 485.922 1093.23 485.593 1095.29 484.052L1098.47 499.73L1094.33 500.448L1092.09 488.316Z" fill="#3F3A49"/>
<path d="M1149.38 368.426L1151.42 379.737C1150.98 383.14 1150.91 385.399 1148.42 387.917L1146.08 370.316C1147.88 369.853 1148.11 369.768 1149.38 368.426Z" fill="#4A4755"/>
<path d="M1091.84 466.101L1095.29 484.052C1093.23 485.593 1093.05 485.921 1092.09 488.316L1089.3 474.645C1090.39 471.838 1091.12 469.025 1091.84 466.101Z" fill="#4A4755"/>
<path d="M1135.91 285.62C1136.57 282.887 1137.1 280.249 1138.43 277.749C1140.47 279.945 1140.97 292.569 1141.33 296.047L1141.86 304.696C1141.6 307.813 1141.76 310.692 1140.09 313.359L1138.88 316.203L1135.91 285.62Z" fill="#4A4C5F"/>
<path d="M1007.57 892.555C1013.72 897.819 1017.67 904.65 1022.68 910.926C1026.4 915.579 1031.18 920.026 1033.95 925.267L1033.11 928.381C1027.32 927.023 1012.3 904.345 1008.86 898.37C1007.96 896.813 1007.36 895.169 1007.1 893.397L1007.57 892.555Z" fill="#3A3743"/>
<path d="M1089.89 673.307L1156.7 670.102L1157.48 671.302C1156.7 671.869 1156.03 672.621 1155.14 673.005C1150.62 674.975 1095.14 676.872 1088.25 675.908L1089.89 673.307Z" fill="#3F3A49"/>
<path d="M1141.86 304.696L1149.38 368.426C1148.11 369.768 1147.88 369.853 1146.08 370.316L1138.88 316.203L1140.09 313.359C1141.76 310.692 1141.6 307.813 1141.86 304.696Z" fill="#3F3A49"/>
<path d="M1151.42 379.737C1153.51 393.325 1156.23 406.744 1159.1 420.19C1160.52 426.816 1161.44 434.271 1163.8 440.603L1160.59 445.696C1157.92 437.709 1156.71 429.178 1155.07 420.947C1152.88 409.92 1150.44 398.985 1148.42 387.917C1150.91 385.399 1150.98 383.14 1151.42 379.737Z" fill="#3A3743"/>
<path d="M1126.23 583.881L1126.57 584.074C1128.76 587.663 1129.94 591.699 1131.71 595.502C1135.53 603.714 1139.56 611.874 1143.58 619.993C1148.14 629.21 1153.17 638.172 1157.67 647.422C1159.21 650.582 1161.74 654.295 1162.78 657.597C1163.14 658.765 1163.04 659.824 1162.93 661.016L1161.6 661.456L1161.08 660.91C1157.95 657.083 1156.11 651.072 1153.63 646.665C1145.99 633.113 1137.83 620.076 1131.79 605.687C1128.6 598.081 1125.76 592.345 1126.23 583.881Z" fill="#3A3743"/>
<path d="M1163.8 440.603L1165.07 445.934C1166.41 454.237 1169.39 462.481 1171.58 470.603C1174.74 482.304 1177.45 494.224 1181.12 505.776C1183.82 514.288 1187.51 522.569 1190.32 531.083C1191.68 535.199 1193.25 538.645 1191.19 542.696C1189.26 539.169 1188.26 534.563 1186.68 530.776C1175.36 503.491 1167.75 474.324 1160.59 445.696L1163.8 440.603Z" fill="#3F3A49"/>
<path d="M1045.86 714.875C1048.29 712.804 1051.32 711.337 1054.09 709.759L1053.74 710.709C1048.5 724.669 1040.18 737.511 1034.7 751.528C1026.19 773.313 1018.8 795.837 1015.11 818.987C1012.48 835.552 1011.42 852.52 1010.46 869.252C1010.18 874.059 1009.88 878.871 1009.74 883.685C1009.71 884.697 1009.99 888.275 1009.64 889.061C1008.78 890.955 1007.71 889.832 1007.57 892.555L1007.1 893.397L1004.55 892.523L1006.02 889.44C1007.39 878.958 1006.37 867.636 1006.93 857.017C1008.17 833.597 1011.8 810.56 1017.49 787.802C1021.74 770.848 1028.17 753.753 1035.22 737.783C1037.9 731.708 1045.88 721.213 1045.86 714.875Z" fill="#20212A"/>
<path d="M1102.75 819.032C1102.06 817.829 1100.72 815.994 1100.6 814.577C1100.11 808.547 1103.38 800.305 1105.37 794.556C1112.37 774.41 1121.49 756.806 1130.9 737.82C1134.7 730.14 1138.22 719.269 1144.23 713.194L1148.56 715.927C1135.89 750.471 1121.22 787.167 1102.75 819.032Z" fill="#1F2023"/>
<path d="M1137.46 267.129C1140.37 269.529 1140.93 271.592 1142.16 275.064L1144.37 281.115C1144.98 282.937 1145.62 283.385 1147.01 284.622C1158.64 294.974 1160.06 311.836 1172.35 321.971L1184.11 353.793C1198.12 398.344 1203.69 444.531 1201.07 491.112C1200.48 501.552 1200.31 512.286 1198.32 522.577L1196.51 522.283C1196.38 523.496 1196.34 524.259 1195.63 525.305L1195.14 525.948L1195.19 529.754C1195.17 531.076 1194 541.049 1193.57 541.468C1193.92 539.799 1194.22 538.475 1193.89 536.78L1193.57 535.26L1193.04 532.672L1192.01 531.131C1191.39 529.132 1190.76 526.854 1190.17 524.802L1183.18 505.26C1182.69 504.198 1182.4 503.888 1182.25 502.675C1182.08 501.332 1182.27 502.01 1181.89 500.898L1181.61 500.087C1181.29 498.819 1181.18 497.662 1180.71 496.419C1178.98 491.819 1178.73 486.647 1176.94 482.193C1176.53 481.17 1176.3 480.138 1175.91 479.136C1174.87 476.52 1174.63 473.742 1173.52 471.25L1173.06 470.344C1173.35 468.816 1173.43 468.186 1172.83 466.692C1172.01 464.626 1172.49 466.239 1171.98 464.443L1171.75 463.62C1171.06 461.673 1170.33 459.931 1169.93 457.897L1169.68 456.636L1168.9 454.051C1168.81 451.247 1168.05 452.428 1167.6 450.431C1167.09 448.111 1168.43 448.379 1166.79 445.595L1165.07 445.934L1163.8 440.603C1161.44 434.271 1160.52 426.816 1159.1 420.19C1156.23 406.744 1153.51 393.325 1151.42 379.737L1149.38 368.425L1141.86 304.696L1141.33 296.047C1140.97 292.569 1140.47 279.945 1138.43 277.749C1137.1 280.249 1136.57 282.887 1135.91 285.62C1135.39 283.994 1135.57 282.461 1135.62 280.771L1131.72 278.321L1137.46 267.129Z" fill="url(#paint6_linear_12_111)"/>
<path d="M1144.38 291.221L1152.78 308.767C1154.52 312.31 1163.37 324.914 1162.73 328.007C1161.96 329.474 1162.19 328.883 1161.69 330.411C1161.21 331.913 1161.69 331.201 1160.33 332.31L1144.7 303.263C1143.55 301.227 1144.35 293.862 1144.38 291.221Z" fill="#272331"/>
<path d="M1144.02 284.603C1149.64 292.527 1153.56 301.057 1158.24 309.513C1162.54 317.278 1167.77 325.332 1170.7 333.73L1169.35 333.706L1168.12 334.556C1165.94 332.519 1164.39 330.48 1162.73 328.007C1163.37 324.913 1154.52 312.31 1152.78 308.766L1144.38 291.221C1144.24 289.714 1144.43 290.265 1143.76 288.93C1143.01 287.426 1143.67 286.216 1144.02 284.603Z" fill="#3A3743"/>
<path d="M1137.46 267.129C1140.37 269.529 1140.93 271.592 1142.16 275.064L1144.37 281.115C1144.98 282.937 1145.62 283.385 1147.01 284.622C1158.64 294.974 1160.06 311.836 1172.35 321.971L1184.11 353.793C1183.17 352.829 1182.22 352.056 1181.77 350.748L1181.61 350.083L1179.62 349.048L1179.56 346.463C1178.83 345.623 1178.53 345.08 1178.34 343.979C1177.82 340.96 1176.25 339.633 1175.61 337.085C1175.33 335.949 1175.07 335.496 1174.36 334.567L1172.8 335.083L1174.87 337.668L1174.36 340.761L1173.33 339.739C1172.61 341.142 1172.83 340.475 1172.5 342.21L1172.28 343.521C1170.1 339.479 1170.36 338.142 1170.7 333.73C1167.78 325.332 1162.54 317.278 1158.24 309.513C1153.56 301.057 1149.64 292.527 1144.02 284.603L1142.17 282.323C1141.87 283.782 1141.37 284.378 1142.12 285.702C1143.69 288.454 1143.09 290.652 1142.19 293.565L1141.33 296.047C1140.97 292.569 1140.47 279.945 1138.43 277.749C1137.1 280.249 1136.57 282.887 1135.91 285.62C1135.39 283.994 1135.57 282.461 1135.62 280.771L1131.72 278.321L1137.46 267.129Z" fill="#3F3A49"/>
<path d="M1058.03 381.572C1065.19 370.61 1074.98 360.703 1080.91 349.167C1083.15 353.973 1082.94 356.895 1082.58 362.016C1082.76 385.915 1084.91 410.619 1087.58 434.372C1088.68 444.189 1092.35 456.451 1091.84 466.101C1091.12 469.025 1090.39 471.838 1089.3 474.645L1092.09 488.315L1094.33 500.447L1016.68 515.678L1014.79 514.529C1015.3 497.084 1014.33 479.15 1014.02 461.647C1013.95 457.944 1012.69 453.495 1013.29 449.92C1013.73 447.34 1015.18 444.748 1016.46 442.494L1022.75 433.296C1028.65 425.439 1033.7 416.755 1039.35 408.685C1045.51 399.903 1052.99 390.997 1058.03 381.572Z" fill="#0D0715"/>
<path d="M1089.3 474.645C1084.97 454.292 1071.99 371.066 1080.73 356.291L1082.58 362.017C1082.76 385.915 1084.91 410.619 1087.58 434.372C1088.68 444.189 1092.35 456.451 1091.84 466.101C1091.12 469.025 1090.39 471.838 1089.3 474.645Z" fill="#3F3A49"/>
<path d="M861.173 232.598C863.524 233.17 863.941 233.019 865.406 234.883L880.205 252.667L910.28 283.944L914.141 281.82L927.44 293.454C936.692 300.665 946.171 308.041 956.253 314.068C971.235 323.025 988.628 329.752 1005.12 335.324C1019.13 339.821 1033.05 341.767 1047.55 343.746C1054.23 344.564 1061.63 344.866 1068.12 346.479C1066.84 346.926 1065.39 347.276 1064.26 348.025L1065.13 348.425C1066.31 349.005 1067.33 349.696 1068.41 350.443C1070.88 350.944 1072.13 350.827 1073.91 352.668L1054.96 379.191L1058.04 381.572C1052.99 390.997 1045.51 399.904 1039.35 408.685C1033.7 416.755 1028.65 425.439 1022.75 433.296L1016.46 442.494C1015.18 444.748 1013.73 447.341 1013.29 449.92C1012.69 453.495 1013.95 457.944 1014.02 461.647C1014.33 479.15 1015.3 497.084 1014.79 514.529L1016.68 515.678L1094.33 500.448L1098.47 499.73C1101.72 499.303 1105.64 498.011 1108.56 499.51C1117.1 520.231 1120.39 544.733 1122.26 567.019C1126.08 592.731 1119.5 624.747 1105.9 647.131L1089.89 673.307L1088.25 675.908C1077.35 688.254 1066.6 698.972 1054.09 709.759C1051.32 711.337 1048.29 712.804 1045.86 714.875C1045.88 721.213 1037.9 731.708 1035.22 737.783C1028.17 753.753 1021.74 770.848 1017.49 787.802C1011.8 810.559 1008.17 833.597 1006.93 857.017C1006.37 867.636 1007.39 878.958 1006.02 889.44L1004.55 892.523C1000.72 896.228 988.073 895.862 982.354 896.085L974.154 897.351C963.195 899.787 951.861 901.972 941.401 906.09C919.06 914.88 898.452 930.5 882.318 948.064L865.191 970.27L864.635 971.059C861.314 976.091 863.593 995.953 862.136 997.683C861.559 998.366 860.49 998.379 859.666 998.729L857.579 996.65C857.661 990.066 858.491 978.448 856.643 972.336C856.114 970.585 852.027 966.671 850.695 965.037C847.627 960.169 843.82 955.81 840.153 951.382L835.035 945.158L798.81 910.894C798.089 909.398 797.204 908.055 796.313 906.657L797.77 905.46C792.397 901.291 786.898 896.474 780.778 893.476C774.307 890.306 765.299 888.664 759.832 884.059C757.538 882.123 754.071 880.37 751.205 879.403C750.234 879.077 749.546 878.071 749.054 877.168C747.889 875.036 747.007 873.863 745.246 872.03L741.269 867.345C741.293 866.076 741.49 862.628 740.745 861.651C740.014 860.692 738.371 860.605 737.629 858.547C736.861 856.415 736.84 855.25 734.736 853.852C733.795 853.227 734.069 853.563 733.388 852.573L732.984 851.908L730.903 853.319L730.134 853.306C726.885 849.691 729.267 840.766 725.165 835.787H724.391L723.612 837.345L722.222 834.67L719.954 831.216L719.297 830.946L718.289 826.584C717.383 821.182 715.298 815.517 713.278 810.438C710.991 804.685 710.071 798.637 708.045 792.85C705.732 786.253 702.135 776.912 701.117 770.154C700.76 767.773 700.215 765.186 699.737 762.85C698.795 758.266 698.793 754.629 698.931 749.796C696.878 745.273 694.427 740.715 693.406 735.839C689.644 730.495 686.087 720.363 685.927 713.879L668.611 699.295C664.46 694.292 659.635 685.174 653.195 683.408C641.603 656.726 625.161 634.117 621.397 604.146C616.967 589.148 618.421 569.341 617.991 553.748C616.842 550.562 616.185 547.344 615.489 544.039L610.751 514.372C611.341 509.396 612.49 505.31 613.46 500.604C614.114 497.444 614.221 494.632 614.3 491.364C616.013 499.942 616.201 507.995 616.826 516.639L618.717 517.246L624.813 511.634C625.754 507.381 625.161 500.794 628.365 498.008L635.017 499.184L643.472 500.146C664.974 504.301 688.713 507.164 709.247 514.807L711.648 515.223C711.35 500.021 710.917 481.088 713.964 466.247L715.184 462.248L714.833 461.456L712.714 459.059C712.706 456.872 711.137 455.911 709.718 454.322C708.407 453.117 707.277 450.548 706.673 448.914L707.968 447.96C701.462 433.744 691.162 419.697 682.447 406.681C678.305 399.316 674.298 391.802 669.786 384.657C666.909 380.099 661.086 374.032 659.808 369.239C663.753 365.205 672.556 365.425 677.855 364.389C687.573 362.491 697.458 360.483 706.798 357.175C753.991 340.47 790.583 309.606 823.852 273.244C833.977 261.435 844.003 248.329 855.664 238.056C855.8 237.259 860.301 233.445 861.173 232.598Z" fill="#0D0715"/>
<path d="M971.575 894.154L984.037 892.79L981.535 894.255L982.354 896.085L974.154 897.351C972.272 896.244 972.322 896.214 971.575 894.154Z" fill="#20212A"/>
<path d="M715.184 462.248C719.898 466.207 722.543 471.414 725.824 476.515L723.094 477.844L723.147 480.763C720.501 475.805 717.938 470.28 713.964 466.247L715.184 462.248Z" fill="#3F3A49"/>
<path d="M731.402 838.37L732.827 838.116L734.845 840.563L735.558 841.558L740.229 838.078L743.734 838.96C744.167 841.357 743.84 842.186 742.891 844.318C742.41 846.744 743.005 849.53 741.269 851.302C738.645 850.857 736.962 850.462 735.561 847.938C734.564 846.14 734.218 845.592 732.474 844.35L731.663 843.801L731.402 838.37Z" fill="#272331"/>
<path d="M984.037 892.79L1003.46 891.323L993.255 878.198L993.643 877.163C994.759 878.238 995.991 879.297 996.855 880.59L998.317 882.854L999.354 881.302L997.283 878.974C997.275 877.065 996.756 877.163 995.459 875.87L995.719 873.876L1006.02 889.44L1004.55 892.523C1000.72 896.228 988.073 895.862 982.354 896.085L981.535 894.255L984.037 892.79Z" fill="#1F2023"/>
<path d="M685.927 713.879C695.743 720.238 705.139 726.086 716.003 730.553C713.98 730.315 712.081 730.106 710.045 730.22C708.492 730.307 707.458 730.13 705.969 729.746L705.437 728.702H702.842L701.803 726.634L698.681 726.901L701.792 728.713L699.987 729.74L699.418 729.253C697.121 727.415 693.927 725.37 691.407 723.54C692.255 727.717 693.369 731.56 693.406 735.839C689.644 730.495 686.087 720.363 685.927 713.879Z" fill="#1A1627"/>
<path d="M837.867 941.586L855.896 964.385L856.34 964.128C854.888 942.534 854.38 920.471 854.34 898.834C854.33 892.568 853.362 884.223 854.734 878.203L857.071 963.546C855.263 963.972 854.104 964.118 852.267 963.811L851.878 964.867L850.695 965.037C847.627 960.169 843.82 955.81 840.153 951.382L835.035 945.158L837.867 941.586Z" fill="#20212A"/>
<path d="M798.81 910.894C798.089 909.398 797.204 908.055 796.313 906.657L797.77 905.46C807.78 912.107 815.602 920.222 824.132 928.564C828.63 932.966 833.565 937.01 837.867 941.586L835.035 945.158L798.81 910.894Z" fill="#272331"/>
<path d="M725.824 476.515C730.389 482.863 733.777 489.926 738.153 496.382C743.058 503.62 750.697 509.9 754.169 517.81L751.558 520.029C749.094 513.859 742.795 509.542 738.469 504.614C732.261 497.54 726.813 489.42 723.147 480.763L723.094 477.844L725.824 476.515Z" fill="#272331"/>
<path d="M989.82 482.389C982.418 497.826 966.869 508.3 959.039 523.202C958.473 524.28 957.883 524.198 956.774 524.627L954.788 522.845C956.391 514.124 963.517 509.807 968.481 503.048C974.646 494.656 979.889 485.842 986.496 477.688C983.84 485.657 979.214 490.085 974.939 496.984L974.418 497.728C973.072 499.735 972.36 501.766 970.783 503.708C974.731 501.475 979.565 494.147 981.705 490.265C983.372 487.238 987.116 484.491 989.82 482.389Z" fill="#1A1627"/>
<path d="M851.878 964.867C863.279 974.883 856.319 983.707 859.666 996.131C859.905 994.976 860.067 994.16 860.737 993.157C862.702 990.222 860.615 979.732 861.469 975.484C861.902 973.315 862.213 972.833 861.224 970.786C860.129 968.519 859.711 963.964 859.147 961.475C858.618 959.152 859.147 955.225 859.147 952.764C859.147 945.296 859.147 937.828 859.147 930.359C859.147 927.896 859.674 923.972 859.147 921.646C859.009 921.04 858.249 920.701 858.108 920.094C856.994 915.275 859.222 908.881 858.108 904.061C857.97 903.455 857.215 903.113 857.071 902.51C855.991 898.042 858.148 891.977 857.071 887.509C855.68 881.749 856.015 876.098 856.292 869.927L857.228 870.438L861.599 966.387L879.03 947.87L882.318 948.064L865.191 970.27L864.635 971.059C861.314 976.091 863.593 995.953 862.136 997.683C861.559 998.366 860.49 998.379 859.666 998.729L857.579 996.65C857.661 990.066 858.491 978.448 856.643 972.335C856.114 970.585 852.027 966.671 850.695 965.037L851.878 964.867Z" fill="#272331"/>
<path d="M859.089 329.792C859.323 335.888 859.299 341.858 858.993 347.946C858.868 350.481 858.108 354.511 858.709 356.866C859.506 359.991 865.058 364.376 866.501 368.121L862.792 365.6L862.782 364.048L860.695 362.496L859.868 363.823C858.57 365.846 856.914 367.507 855.247 369.22L856.031 371.808L855.664 372.467C854.598 374.943 855.385 377.737 854.322 380.213C853.295 382.597 853.904 387.43 853.902 390.11C853.894 398.836 853.92 407.565 853.955 416.292H852.958C852.976 400.425 852.152 384.284 854.63 368.579L833.238 394.411C831.3 394.928 830.021 394.904 828.061 394.737C833.73 386.132 840.446 378.264 846.505 369.93C848.863 366.683 851.809 363.55 852.059 359.371L853.7 338.322C854.71 341.805 855.563 344.855 855.502 348.531C853.362 350.684 854.798 356.773 854.463 359.911C854.207 362.321 852.088 366.228 850.602 368.201L847.14 372.711L845.641 374.39C843.838 377.21 837.319 383.508 836.809 386.291C840.961 382.343 847.191 376.267 849.804 371.296C851.158 368.725 856.122 365.121 856.688 363.235C858.126 358.444 856.071 350.316 856.941 344.855L859.089 329.792Z" fill="#1A1627"/>
<path d="M879.029 947.87C882.35 942.799 887.944 937.687 892.451 933.59C898.864 927.764 905.947 921.096 913.279 916.49C921.354 911.421 930.543 907.446 938.95 902.849C948.705 897.512 960.6 895.394 971.575 894.154C972.322 896.215 972.272 896.244 974.154 897.351C963.195 899.787 951.86 901.972 941.401 906.09C919.059 914.88 898.451 930.5 882.318 948.064L879.029 947.87Z" fill="#1F2023"/>
<path d="M698.931 749.796C705.929 762.72 715.306 778.215 716.567 793.11C715.139 795.141 715.296 795.514 715.304 798.033L716.856 798.547V799.317L715.293 800.093L715.304 802.172L716.856 802.683L717.082 803.878L718.935 810.959C719.209 812.668 718.678 812.543 719.709 814.227C721.605 817.318 719.313 822.074 720.914 824.474C722.038 826.158 723.057 828.142 723.602 830.094L722.559 831.156L722.222 834.67L719.954 831.217L719.297 830.946L718.289 826.585C717.383 821.182 715.298 815.517 713.278 810.438C710.991 804.686 710.071 798.637 708.045 792.85C705.732 786.253 702.135 776.912 701.117 770.154C700.76 767.773 700.215 765.186 699.737 762.85C698.795 758.266 698.793 754.629 698.931 749.796Z" fill="#272331"/>
<path d="M866.501 368.121L866.967 368.566C873.257 374.808 877.269 383.534 883.057 390.333C892.328 401.22 903.003 410.15 914.407 418.691C919.482 422.494 924.103 426.525 929.769 429.512C941.228 435.553 953.863 439.443 966.305 442.905C962.924 443.04 957.242 443.434 954.564 441.657C953.488 440.942 952.794 440.937 951.584 440.598C948.056 439.602 944.482 438.421 941.42 436.39C940.125 435.529 938.551 435.421 937.035 435.434C940.202 437.094 943.352 438.498 946.907 439.062L947.944 440.095C948.173 440.27 949.329 440.556 949.497 440.609L956.521 442.899C958.794 443.564 959.677 444.43 961.28 446.157C953.679 445.198 945.184 441.44 938.322 438.132C921.668 430.113 904.928 419.705 892.063 406.302C883.815 397.711 876.395 387.42 868.809 378.195C866.945 375.928 863.401 370.428 860.705 369.546C855.853 379.835 857.852 400.444 857.648 412.152H857.071C857.036 403.942 857.01 395.733 857.018 387.523C857.02 384.933 856.449 380.42 857.443 378.108C858.597 375.428 858.552 371.469 859.408 368.447L862.782 368.187C863.183 370.401 870.053 377.592 871.869 379.308L872.648 378.532C870.349 375.097 868.203 371.906 866.501 368.121Z" fill="#1A1627"/>
<path d="M861.173 232.598C863.523 233.17 863.941 233.019 865.406 234.883L862.782 235.304C862.776 236.594 862.846 237.034 863.364 238.199C864.741 241.29 863.601 246.125 862.771 249.219L859.089 329.792L856.94 344.855C856.071 350.316 858.126 358.444 856.688 363.235C856.122 365.12 851.158 368.725 849.804 371.296C847.191 376.267 840.961 382.342 836.808 386.291C837.319 383.508 843.838 377.21 845.641 374.39L847.14 372.711L850.602 368.2C852.088 366.227 854.207 362.321 854.462 359.911C854.797 356.773 853.362 350.684 855.502 348.531C855.563 344.855 854.71 341.804 853.699 338.322C856.124 329.153 854.811 315.753 854.851 306.176C854.914 290.858 855.444 275.578 855.542 260.27C855.571 255.649 854.521 246.438 856.135 242.42C856.762 240.861 856.082 239.661 855.664 238.056C855.8 237.259 860.301 233.445 861.173 232.598Z" fill="#3F3A49"/>
<path d="M828.061 394.737C830.021 394.904 831.3 394.927 833.238 394.411C821.92 409.183 809.817 419.88 795.289 431.212C789.347 435.844 783.28 441.104 776.58 444.594C764.28 451.001 748.246 455.315 734.5 457.092C728.664 457.847 721.116 457.653 715.729 459.865L714.833 461.456L712.714 459.059C712.706 456.872 711.137 455.911 709.718 454.322C708.407 453.117 707.277 450.548 706.673 448.914L707.968 447.96C709.135 449.981 710.462 453.162 712.576 454.202C732.673 452.041 753.345 449.465 771.946 440.998C793.529 431.17 812.223 411.959 828.061 394.737Z" fill="url(#paint7_linear_12_111)"/>
<path d="M1018.49 432.208C1020.1 432.457 1021.24 432.666 1022.75 433.296L1016.46 442.494C1015.18 444.748 1013.73 447.341 1013.29 449.92C1012.69 453.495 1013.95 457.945 1014.02 461.647C1014.33 479.15 1015.3 497.084 1014.79 514.529L1016.68 515.678L1012.92 516.865C1012.21 515.307 1011.79 513.721 1011.3 512.087C1006.28 495.281 1008.6 472.59 1008.62 455.052C1002.18 463.956 994.874 472.606 989.82 482.389C987.116 484.491 983.372 487.238 981.705 490.265C979.565 494.147 974.731 501.475 970.783 503.708C972.36 501.766 973.072 499.735 974.417 497.728L974.938 496.984C979.214 490.085 983.84 485.657 986.496 477.688L1003.81 451.003C989.87 450.399 975.901 450.158 962.355 446.456L961.281 446.157C959.677 444.43 958.795 443.564 956.521 442.899L949.497 440.609C949.329 440.556 948.173 440.27 947.944 440.095L946.907 439.062C943.353 438.498 940.202 437.094 937.035 435.434C938.551 435.42 940.125 435.529 941.42 436.39C944.483 438.421 948.056 439.602 951.584 440.598C952.794 440.937 953.488 440.942 954.565 441.657C957.242 443.434 962.924 443.04 966.306 442.905L993.534 445.68C1000.43 445.783 1006.57 446.435 1011.92 441.284L1018.49 432.208Z" fill="#272331"/>
<path d="M1018.49 432.208C1020.1 432.457 1021.24 432.666 1022.75 433.296L1016.46 442.494C1016.3 440.781 1016.64 439.692 1017.01 438.016C1015.81 438.016 1014.1 440.54 1011.92 441.284L1018.49 432.208Z" fill="#3F3A49"/>
<path d="M713.964 466.247C717.939 470.28 720.501 475.805 723.147 480.763C726.813 489.42 732.261 497.54 738.469 504.613C742.795 509.542 749.094 513.859 751.558 520.029L754.169 517.81C757.99 523.854 763.6 531.486 765.525 538.239L751.327 530.755L711.648 515.223C711.35 500.021 710.917 481.088 713.964 466.247Z" fill="#1A1627"/>
<path d="M855.664 238.056C856.082 239.661 856.762 240.861 856.135 242.42C854.521 246.438 855.571 255.649 855.542 260.27C855.444 275.578 854.914 290.859 854.851 306.176C854.811 315.753 856.124 329.153 853.699 338.322L852.059 359.371C851.809 363.55 848.863 366.683 846.505 369.93C840.446 378.264 833.73 386.132 828.061 394.737C812.223 411.959 793.529 431.17 771.945 440.998C753.345 449.465 732.673 452.041 712.576 454.202C710.462 453.162 709.135 449.981 707.968 447.96C701.462 433.744 691.162 419.697 682.447 406.681C678.304 399.316 674.298 391.802 669.786 384.657C666.909 380.099 661.086 374.032 659.807 369.239C663.753 365.205 672.556 365.425 677.855 364.389C687.573 362.491 697.458 360.483 706.798 357.175C753.991 340.47 790.583 309.606 823.852 273.244C833.977 261.436 844.003 248.329 855.664 238.056Z" fill="url(#paint8_linear_12_111)"/>
<path d="M859.089 329.792L862.771 249.219C863.601 246.125 864.741 241.29 863.364 238.199C862.845 237.034 862.776 236.594 862.782 235.304L865.406 234.883L880.204 252.667L910.28 283.944L914.141 281.82L927.44 293.454C936.692 300.665 946.171 308.041 956.253 314.068C971.235 323.025 988.628 329.752 1005.12 335.324C1019.13 339.821 1033.05 341.767 1047.55 343.746C1054.23 344.564 1061.63 344.866 1068.12 346.479C1066.84 346.926 1065.39 347.276 1064.26 348.025L1065.13 348.425C1066.31 349.005 1067.33 349.696 1068.41 350.443C1070.88 350.944 1072.13 350.827 1073.91 352.668L1054.96 379.191L1058.03 381.572C1052.99 390.997 1045.51 399.904 1039.35 408.685C1033.7 416.755 1028.65 425.439 1022.75 433.296C1021.24 432.666 1020.1 432.457 1018.49 432.208L1011.92 441.284C1006.57 446.435 1000.43 445.783 993.534 445.68L966.305 442.905C953.862 439.443 941.228 435.553 929.769 429.512C924.103 426.525 919.482 422.494 914.407 418.691C903.003 410.15 892.328 401.22 883.057 390.333C877.269 383.534 873.257 374.808 866.967 368.566L866.501 368.121C865.057 364.376 859.506 359.991 858.708 356.866C858.108 354.511 858.868 350.48 858.993 347.946C859.299 341.857 859.323 335.888 859.089 329.792Z" fill="#0D0715"/>
<path d="M914.141 281.82L927.44 293.454L925.318 296.584L910.28 283.944L914.141 281.82Z" fill="#3F3A49"/>
<path d="M1047.55 343.746C1054.23 344.564 1061.63 344.866 1068.12 346.479C1066.84 346.926 1065.39 347.276 1064.26 348.025L1065.13 348.425C1066.31 349.005 1067.33 349.697 1068.41 350.443L1043.05 347.403L1043.37 345.698L1047.55 343.746Z" fill="#4A4755"/>
<path d="M1005.12 335.324C1019.13 339.821 1033.05 341.767 1047.55 343.746L1043.37 345.697L1043.05 347.403C1029.44 347.729 1014.14 342.956 1001.37 338.693C1002.73 337.702 1003.9 336.481 1005.12 335.324Z" fill="#3F3A49"/>
<path d="M1018.49 432.208L1054.96 379.191L1058.04 381.572C1052.99 390.997 1045.51 399.904 1039.35 408.685C1033.7 416.755 1028.65 425.439 1022.75 433.296C1021.24 432.666 1020.1 432.457 1018.49 432.208Z" fill="#3A3743"/>
<path d="M927.44 293.454C936.693 300.665 946.171 308.041 956.253 314.068C971.235 323.025 988.628 329.752 1005.12 335.324C1003.9 336.481 1002.73 337.702 1001.37 338.693C973.537 331.065 947.226 315.003 925.318 296.584L927.44 293.454Z" fill="#3A3743"/>
<path d="M614.3 491.364C616.013 499.942 616.201 507.995 616.826 516.639L618.717 517.246L624.813 511.634C625.754 507.381 625.161 500.794 628.365 498.008L635.017 499.184L643.472 500.146C664.974 504.301 688.713 507.164 709.247 514.807L711.648 515.223L751.327 530.755L765.525 538.239C776.2 544.627 786.029 551.484 794.806 560.406C816.711 582.673 833.166 616.942 840.416 646.985C840.951 649.204 842.017 652.555 841.959 654.832C841.911 656.588 840.238 659.975 839.616 661.699C836.572 670.118 832.48 678.556 827.771 686.186C813.954 708.577 794.553 726.311 768.433 732.606C751.17 736.766 732.841 736.48 716.003 730.553C705.139 726.086 695.743 720.238 685.927 713.879L668.611 699.295C664.46 694.292 659.635 685.174 653.195 683.408C641.603 656.726 625.161 634.117 621.397 604.146C616.967 589.148 618.421 569.341 617.991 553.748C616.842 550.562 616.185 547.344 615.489 544.039L610.751 514.372C611.341 509.396 612.49 505.31 613.46 500.604C614.114 497.444 614.221 494.632 614.3 491.364Z" fill="url(#paint9_linear_12_111)"/>
<path d="M650.034 584.106L649.064 583.55L648.846 566.296C646.889 566.296 646.939 565.234 644.166 565.782C643.884 566.717 643.834 567.154 643.119 567.85H642.09L641.577 569.397L640.526 568.375C639.753 569.537 639.758 569.786 638.45 570.443C638.492 569.826 638.588 568.955 638.439 568.364C635.081 554.963 637.862 538.438 639.686 524.976C640.133 521.674 640.473 515.058 642.595 512.5L646.24 512.49C647.37 513.475 648.085 513.594 649.521 513.721C663.868 515.011 678.956 519.9 692.981 523.242C703.201 525.678 715.142 529.749 724.652 534.214L726.728 535.186C729.206 536.115 730.788 536.78 732.961 538.353L732.437 540.943C730.868 541.46 730.012 541.902 728.797 543.019C730.629 543.941 731.549 545.821 732.708 547.477C706.719 536.544 680.559 529.415 652.943 523.872L650.034 584.106Z" fill="#EE3E80"/>
<path d="M614.3 491.364C616.013 499.942 616.201 507.995 616.826 516.639L618.717 517.246L624.813 511.634C625.754 507.381 625.161 500.794 628.365 498.008L635.017 499.184L643.472 500.146C664.974 504.301 688.713 507.164 709.247 514.807L711.648 515.223L751.327 530.755L745.64 532.331C744.255 532.794 742.88 534.301 741.787 535.26L750.612 539.656L750.617 540.678C745.22 539.351 740.594 535.768 735.287 534.015C724.692 530.517 714.211 526.539 703.491 523.287C696.536 521.176 689.282 519.733 682.388 517.564C674.8 515.175 666.991 514.01 659.223 512.511C653.427 511.393 647.471 509.592 641.582 509.444C640.109 509.407 640.678 509.439 638.974 508.994C636.684 512.484 637.578 518.52 636.387 522.844C635.895 524.635 636.77 526.102 635.911 528.001C634.818 530.416 635.889 532.829 635.334 535.27C633.212 544.611 633.603 553.676 633.31 563.451C633.17 568.16 631.253 573.674 632.385 578.708C633.925 585.549 633.393 592.792 633.372 599.911C632.688 598.64 632.702 597.792 632.648 596.389C632.59 594.858 632.454 594.016 631.803 592.639C631.104 591.164 631.152 590.337 631.327 588.698L631.699 579.744C630.176 578.226 628.852 576.751 627.025 575.594L626.406 575.824C625.244 576.211 624.063 576.412 622.862 576.64C620.961 581.081 621.992 584.943 621.567 589.572C621.125 594.379 621.984 599.32 621.397 604.146C616.967 589.148 618.421 569.341 617.991 553.748C616.842 550.562 616.185 547.344 615.489 544.039L610.751 514.372C611.341 509.396 612.49 505.31 613.46 500.604C614.114 497.444 614.221 494.632 614.3 491.364Z" fill="url(#paint10_linear_12_111)"/>
<path d="M615.489 544.039L616.579 542.643C618.57 539.889 618.99 536.579 618.358 533.255C618.089 531.849 618.211 531.425 618.716 530.098L620.812 529.73L621.88 532.434C621.202 539.394 621.21 547.442 617.991 553.748C616.842 550.562 616.185 547.344 615.489 544.039Z" fill="#66697B"/>
<path d="M614.3 491.364C616.013 499.942 616.201 507.995 616.826 516.639L618.717 517.246L624.813 511.634L621.881 532.434L620.812 529.73L618.717 530.098C618.211 531.425 618.089 531.849 618.358 533.255C618.99 536.579 618.57 539.889 616.579 542.643L615.489 544.039L610.751 514.372C611.341 509.396 612.49 505.31 613.46 500.604C614.114 497.444 614.221 494.632 614.3 491.364Z" fill="url(#paint11_linear_12_111)"/>
<path d="M650.034 584.106L652.943 523.872C680.559 529.415 706.718 536.544 732.708 547.477C740.235 551.417 753.526 557.172 758.721 563.849C766.043 568.692 771.289 575.462 776.598 582.315C792.229 602.496 805.052 627.79 809.966 653.002C811.17 659.189 799.663 676.662 796.084 681.774C786.271 695.783 772.456 709.682 754.895 712.881C738.756 715.823 724.963 709.883 711.996 700.646C694.618 688.265 681.939 671.302 670.964 653.278C666.446 645.857 661.413 637.48 659.473 628.95C653.158 614.472 650.741 599.76 650.034 584.106Z" fill="white"/>
<path d="M650.034 584.106L652.943 523.872C680.559 529.415 706.718 536.544 732.708 547.477C740.235 551.417 753.526 557.172 758.721 563.849L757.596 565.506L757.043 564.916C755.703 563.504 754.85 562.514 752.952 561.897C750.439 561.084 747.44 558.131 744.903 556.719L743.864 555.949C742.213 554.842 740.376 553.875 738.671 552.845C736.441 551.497 730.865 548.194 728.547 548.186L728.06 547.736C727.007 546.899 725.877 546.621 724.652 546.121L723.758 545.718C722.472 545.167 723.064 545.435 721.488 545.006C716.92 543.766 712.998 541.15 708.261 540.204C706.745 539.902 706.673 539.45 705.437 538.88L703.361 538.364C699.84 537.368 696.137 536.2 692.715 535L685.964 533.515C684.348 533.192 683.423 532.524 682.069 531.64L680.511 531.891C678.735 531.928 677.424 531.094 675.84 530.604L673.242 530.088L671.913 529.765C670.525 529.489 669.871 529.651 668.568 530.077L667.01 528.536L663.376 529.042C662.11 527.792 662.349 527.588 660.504 527.421C659.074 527.291 658.382 527.098 657.143 526.467L654.548 526.984L654.62 527.892C654.817 530.527 655.096 533.059 653.879 535.493C652.889 537.469 653.847 539.728 652.847 541.722C651.656 544.103 652.267 552.765 652.741 555.469C653.517 559.897 651.868 562.395 651.565 566.338C651.175 571.436 651.406 576.701 651.432 581.812L651.962 581.296C651.962 579.066 651.358 577.241 652.99 575.615L654.038 576.64L655.067 575.615C656.769 577.217 657.864 578.099 658.696 580.266L659.504 581.749C660.323 583.282 660.406 584.206 660.26 585.96C662.161 588.809 661.288 593.875 661.288 597.329L660.866 597.912C658.709 601.135 658.396 603.134 654.548 605.088C654.634 607.393 654.902 608.632 655.585 610.777L657.372 617.729C657.869 620.205 659.052 622.766 659.741 625.261L660.52 627.072L661.304 629.154L659.473 628.95C653.158 614.472 650.741 599.76 650.034 584.106Z" fill="white"/>
<path d="M1098.47 499.73C1101.72 499.304 1105.64 498.011 1108.56 499.51C1117.1 520.231 1120.39 544.733 1122.26 567.019C1126.08 592.731 1119.5 624.747 1105.9 647.131L1089.89 673.307L1088.25 675.908C1077.35 688.254 1066.6 698.972 1054.09 709.759C1051.32 711.337 1048.29 712.804 1045.86 714.875L1039.8 718.366C1010.56 733.644 978.722 740.813 946.381 730.439C917.818 721.279 895.229 698.479 881.864 672.25C874.358 657.526 874.624 652.115 879.819 636.432C892.416 598.407 918.4 559.108 954.921 540.763C973.436 529.953 992.808 523.877 1012.92 516.865L1016.68 515.678L1094.33 500.448L1098.47 499.73Z" fill="#C3043F"/>
<path d="M958.055 567.638C959.262 564.498 960.464 562.821 963.009 560.61L964.561 560.605C966.127 558.155 973.553 553.981 976.348 553.033C980.264 551.706 983.308 548.642 987.35 547.842C988.884 547.54 988.554 547.554 989.492 546.38C988.216 544.773 986.959 543.737 985.345 542.501C983.68 542.501 982.38 542.463 981.032 543.533C980.174 544.214 979.655 544.325 978.584 544.569C975.64 545.239 971.466 546.915 969.283 549.074C967.696 550.647 966.308 550.671 964.561 552.837L962.985 551.812C971.886 545.027 981.375 541.653 991.739 537.662C1025 524.849 1059.72 518.041 1094.71 511.785C1096.18 513.168 1096.63 515.723 1097.2 517.667C1099.63 525.893 1100.59 534.407 1102.33 542.773L1102.05 547.156L1101.14 547.932L1101.14 546.64C1101.08 543.229 1099.99 539.759 1099.58 536.285C1099.35 534.352 1098.74 532.604 1098.54 530.604C1098.37 528.986 1097.64 527.744 1097.5 525.938L1096.74 521.422C1096.44 519.945 1096.62 520.466 1095.69 519.224L1095.62 518.319C1095.45 517.008 1095.01 516.218 1094.38 515.088C1092.49 513.83 1090.17 513.702 1087.89 514.312C1084.75 515.151 1082 515.376 1078.81 516.12C1075.32 516.933 1071.89 517.159 1068.42 518.189L1067.11 518.432C1065.77 518.697 1065.3 518.928 1064.25 519.741L1064.05 520.853L1062.97 525.172C1064.97 524.992 1065.38 525.353 1066.86 523.891C1069.03 523.885 1070.46 524.431 1072.05 522.855C1072.8 522.908 1075.11 523.321 1075.69 523.104C1076.97 522.627 1076.33 521.751 1078.02 521.957C1080.63 522.275 1083.46 521.941 1086.07 521.822L1086.29 523.271C1086.49 524.608 1086.91 525.262 1087.37 526.47L1087.89 528.536L1088.28 529.667C1089.08 532.304 1088.88 534.963 1089.76 537.62C1090.46 539.712 1090.11 541.42 1089.71 543.536L1090.47 544.619C1091.41 546.044 1091.39 547.034 1091.47 548.671C1091.53 549.818 1091.89 550.753 1092.3 551.812L1090.61 558.798L1084.52 523.496C1041.69 530.583 993.449 541.481 958.055 567.638Z" fill="#EE3E80"/>
<path d="M1108.97 569.005C1109.39 566.826 1109.33 564.384 1109.44 562.156L1112.03 560.088L1113.08 561.113L1113.86 559.829L1117.23 560.078C1121.54 561.01 1118.68 561.653 1119.32 564.225C1119.42 564.612 1120.72 564.852 1120.87 565.26C1121.78 567.797 1119.62 570.448 1121.39 573.187L1122.26 567.019C1126.08 592.731 1119.5 624.747 1105.89 647.131C1100.47 651.082 1099.88 655.338 1096.02 660.11C1093.55 663.175 1091.63 666.623 1089.2 669.745L1086.49 668.945L1085.56 668.72C1085.02 667.987 1084.56 667.277 1084.17 666.458C1083.48 665.02 1082.85 663.81 1081.82 662.573L1080.88 661.48C1080.4 657.142 1083.48 655.002 1085.18 651.27L1088.2 645.584L1088.67 644.917C1089.18 644.141 1089.62 643.455 1090.26 642.764C1091.17 641.773 1092.02 640.963 1092.63 639.739L1093.09 638.704C1094.08 636.662 1094.6 634.279 1095.94 632.504H1096.98C1096.62 634.541 1095.95 636.238 1095.42 638.193C1095.11 639.355 1095.15 639.967 1094.39 640.923C1093.68 641.816 1093.94 641.281 1093.59 642.475L1093.35 643.365C1091.73 646.411 1093.22 642.66 1092.21 645.322L1089.71 651.125L1091.01 652.417L1092.82 651.382L1093.34 650.089L1094.37 649.056C1094.22 647.335 1094.28 646.448 1095.09 644.946C1101.6 632.737 1103.38 618.235 1106.84 605.089C1107.99 600.714 1106.96 596.362 1107.88 592.157C1109.48 584.81 1108.51 576.627 1108.97 569.005Z" fill="#E11B58"/>
<path d="M1090.61 558.798L1092.3 551.812C1091.89 550.753 1091.53 549.818 1091.47 548.671C1091.39 547.034 1091.41 546.044 1090.47 544.619L1089.71 543.536C1090.11 541.42 1090.46 539.712 1089.76 537.62C1088.88 534.963 1089.08 532.304 1088.28 529.667L1087.89 528.536L1087.37 526.47C1086.91 525.262 1086.49 524.608 1086.29 523.271L1086.07 521.822C1083.46 521.941 1080.63 522.275 1078.02 521.957C1076.33 521.751 1076.97 522.627 1075.69 523.104C1075.11 523.321 1072.8 522.908 1072.05 522.855C1070.46 524.431 1069.03 523.885 1066.86 523.891C1065.38 525.353 1064.97 524.992 1062.97 525.172L1064.05 520.853L1064.25 519.741C1065.3 518.928 1065.77 518.697 1067.11 518.432L1068.42 518.189C1071.89 517.159 1075.33 516.934 1078.81 516.12C1082 515.376 1084.75 515.151 1087.89 514.312C1090.17 513.702 1092.49 513.83 1094.38 515.088C1095.01 516.218 1095.45 517.008 1095.62 518.319L1095.69 519.224C1096.62 520.466 1096.44 519.945 1096.74 521.422L1097.5 525.938C1097.64 527.744 1098.37 528.986 1098.54 530.604C1098.74 532.604 1099.35 534.352 1099.58 536.285C1099.99 539.759 1101.08 543.229 1101.14 546.64L1101.14 547.932L1102.05 547.156L1102.33 542.773C1103.31 549.18 1104.42 555.612 1104.92 562.074C1105.19 565.589 1104.75 569.336 1105.53 572.76C1106.92 578.814 1106.33 588.714 1105.05 594.744C1104.29 598.288 1104.86 601.365 1103.82 605.089L1103.46 607.401C1103.15 609.36 1102.34 611.124 1102.04 613.129C1101.44 617.072 1097.03 623.741 1094.39 626.813C1091.31 630.412 1090.28 636.373 1087.12 640.261L1086.37 641.752C1081.34 652.385 1075.42 660.807 1067.06 669.144C1065.64 670.558 1063.22 673.596 1061.4 674.197L1060.64 674.406L1058.55 675.963L1056.98 676.986L1055.44 675.963C1055.43 674.975 1055.67 674.303 1055.96 673.365L1061.14 668.71L1061.15 667.158C1063.95 664.684 1065.61 661.808 1068.41 659.401L1068.42 658.355C1069.95 656.832 1070.48 657.004 1070.5 654.745C1071.34 653.587 1072.21 652.565 1073.16 651.495C1074.38 650.105 1073.95 649.896 1074.65 648.537L1075.43 647.504L1075.28 646.124L1073.81 646.336C1076.67 639.12 1081 632.255 1084.02 624.991C1092.94 603.473 1092.22 581.555 1090.61 558.798Z" fill="#E11B58"/>
<path d="M1098.47 499.73C1101.72 499.304 1105.64 498.011 1108.56 499.51C1117.1 520.231 1120.39 544.733 1122.26 567.019L1121.39 573.187C1119.63 570.448 1121.78 567.797 1120.87 565.26C1120.72 564.852 1119.42 564.611 1119.32 564.225C1118.68 561.653 1121.54 561.01 1117.23 560.077L1113.86 559.829L1113.08 561.113L1112.03 560.088L1109.44 562.156C1109.33 564.384 1109.39 566.825 1108.97 569.005C1108.84 566.878 1108.76 564.842 1108.23 562.768C1107.45 559.667 1108.04 556.481 1107.25 553.377C1105.25 545.501 1104.9 536.348 1103.52 528.226C1102.43 521.796 1100.16 515.262 1098.54 508.938C1061.78 511.886 1022.13 523.34 987.669 536.235C981.806 538.427 974.803 540.268 969.517 543.515C967.832 544.548 967.063 544.871 965.088 544.889L966.12 544.052C967.353 542.967 968.132 542.193 969.677 541.595C970.562 541.253 971.331 540.949 972.163 540.477C973.591 539.664 974.63 538.97 976.326 538.896L977.544 538.88L977.805 537.839L971.312 534.995C969.704 536.338 968.138 536.87 966.12 537.328C964.687 537.654 964.165 537.688 962.94 538.605C961.209 539.9 959.683 540.392 957.936 541.491L957.285 541.936L954.921 540.763C973.436 529.953 992.808 523.877 1012.92 516.865L1016.68 515.678L1094.33 500.448L1098.47 499.73Z" fill="#EE3E80"/>
<path d="M958.056 567.639C993.449 541.481 1041.69 530.583 1084.52 523.496L1090.61 558.798C1092.22 581.555 1092.94 603.473 1084.02 624.991C1081 632.255 1076.67 639.12 1073.81 646.336C1060.44 666.22 1045.03 687.205 1023.47 698.903L1022.63 699.597C1010.05 709.663 985.866 715.339 969.836 713.101C955.197 711.059 938.266 701.7 929.306 689.872C918.972 681.353 911.328 666.077 906.157 653.987C913.601 621.781 933.797 589.829 958.056 567.639Z" fill="url(#paint12_linear_12_111)"/>
<path d="M929.306 689.872L930.569 688.077C932.156 689.464 933.539 690.555 934.443 692.515L935.74 693.026L938.604 695.865C942.002 693.058 955.458 694.584 960.408 694.584C963.051 696.339 965.611 694.594 967.677 696.652C973.721 696.652 981.317 697.889 986.892 699.756C987.4 699.925 994.911 699.909 995.201 699.745C995.424 699.618 997.115 697.751 997.277 697.687C998.742 697.105 1004.29 697.886 1005.85 698.395C1010.75 699.997 1017.66 697.102 1023.47 698.903L1022.63 699.597C1010.05 709.663 985.866 715.339 969.836 713.101C955.197 711.059 938.266 701.7 929.306 689.872Z" fill="url(#paint13_linear_12_111)"/>
<path d="M393.97 496.075C396.58 494.879 399.553 493.624 402.37 493.005C413.687 490.514 423.216 497.126 431.626 502.096C434.044 502.125 437.902 502.592 440.216 501.958C445.1 500.616 451.069 493.463 456.232 490.923C463.398 487.396 473.032 487.409 479.639 490.776C483.468 492.727 487.342 496.043 491.432 497.426C494.514 498.465 498.254 497.301 501.326 498.328C503.301 498.99 504.435 500.16 504.997 502.022C505.615 504.078 504.625 505.965 503.396 507.759C501.895 508.594 500.424 509.293 498.717 509.637C489.143 511.559 481.301 506.734 474.186 502.285C461.848 495.432 454.41 509.631 442.97 512.973C432.334 516.08 426.094 514.066 417.641 508.964C414.141 506.85 410.333 504.328 405.734 504.635C399.97 505.02 394.223 510.918 389.63 514.011C385.663 516.682 381.138 518.202 376.378 518.634C372.891 518.95 367.408 519.003 364.93 516.755C362.78 514.804 363.023 513.118 363.35 510.522C364.247 509.302 365.244 507.677 366.639 506.887C369.064 505.515 374.607 507.14 377.317 507.539L393.97 496.075Z" fill="#B10028"/>
<path d="M433.632 256.079C436.503 256.048 439.73 256.111 442.554 256.692C453.906 259.021 459.921 268.938 465.581 276.9C467.778 277.91 471.112 279.906 473.484 280.269C478.492 281.03 486.854 276.925 492.604 276.705C500.585 276.399 509.38 280.33 514.045 286.094C516.75 289.434 518.94 294.039 522.114 296.966C524.505 299.17 528.396 299.628 530.784 301.816C532.318 303.224 532.879 304.755 532.635 306.684C532.363 308.814 530.69 310.135 528.838 311.273C527.127 311.426 525.499 311.466 523.8 311.085C514.272 308.945 509.071 301.347 504.382 294.388C495.9 283.108 483.328 293.052 471.519 291.451C460.538 289.962 455.658 285.584 450.012 277.483C447.674 274.128 445.222 270.275 440.896 268.685C435.474 266.692 427.825 269.74 422.37 270.697C417.659 271.523 412.907 271.071 408.384 269.529C405.07 268.399 400.04 266.216 398.691 263.154C397.52 260.498 398.428 259.056 399.783 256.817C401.099 256.069 402.671 254.989 404.267 254.836C407.041 254.569 411.443 258.308 413.756 259.775L433.632 256.079Z" fill="#B10028"/>
<path d="M551.245 61.618C553.544 63.3367 556.069 65.3469 557.96 67.5236C565.565 76.2682 564.321 87.7995 563.983 97.5623C565.115 99.6993 566.551 103.309 568.216 105.038C571.732 108.684 580.869 110.501 585.571 113.818C592.097 118.422 596.697 126.886 596.904 134.299C597.024 138.595 595.967 143.583 596.711 147.836C597.273 151.039 600.086 153.765 600.654 156.954C601.018 159.005 600.534 160.561 599.168 161.946C597.659 163.473 595.528 163.507 593.365 163.287C591.913 162.369 590.595 161.412 589.476 160.078C583.206 152.591 583.689 143.396 584.189 135.02C584.3 120.907 568.273 121.173 559.863 112.729C552.044 104.877 550.826 98.435 551.259 88.5705C551.439 84.4856 551.831 79.9352 549.36 76.0445C546.263 71.1682 538.334 68.9451 533.419 66.3929C529.176 64.188 525.675 60.9429 523.017 56.9707C521.07 54.0611 518.4 49.2718 519.187 46.0199C519.871 43.1987 521.468 42.6046 523.904 41.649C525.404 41.853 527.308 41.9503 528.669 42.7976C531.035 44.2697 532.261 49.914 533.208 52.484L551.245 61.618Z" fill="#B10028"/>
</g>
<defs>
<filter id="filter0_d_12_111" x="0" y="0" width="1928" height="1088" filterUnits="userSpaceOnUse" color-interpolation-filters="sRGB">
<feFlood flood-opacity="0" result="BackgroundImageFix"/>
<feColorMatrix in="SourceAlpha" type="matrix" values="0 0 0 0 0 0 0 0 0 0 0 0 0 0 0 0 0 0 127 0" result="hardAlpha"/>
<feOffset dy="4"/>
<feGaussianBlur stdDeviation="2"/>
<feComposite in2="hardAlpha" operator="out"/>
<feColorMatrix type="matrix" values="0 0 0 0 0 0 0 0 0 0 0 0 0 0 0 0 0 0 0.25 0"/>
<feBlend mode="normal" in2="BackgroundImageFix" result="effect1_dropShadow_12_111"/>
<feBlend mode="normal" in="SourceGraphic" in2="effect1_dropShadow_12_111" result="shape"/>
</filter>
<linearGradient id="paint0_linear_12_111" x1="640.526" y1="483.535" x2="612.085" y2="477.497" gradientUnits="userSpaceOnUse">
<stop stop-color="#171327"/>
<stop offset="1" stop-color="#333648"/>
</linearGradient>
<linearGradient id="paint1_linear_12_111" x1="762.039" y1="323.187" x2="706.818" y2="244.483" gradientUnits="userSpaceOnUse">
<stop stop-color="#1D1D31"/>
<stop offset="1" stop-color="#31374C"/>
</linearGradient>
<linearGradient id="paint2_linear_12_111" x1="764.118" y1="214.563" x2="751.045" y2="198.037" gradientUnits="userSpaceOnUse">
<stop stop-color="#2A2D43"/>
<stop offset="1" stop-color="#3E4559"/>
</linearGradient>
<linearGradient id="paint3_linear_12_111" x1="1076.73" y1="343.875" x2="996.716" y2="112.113" gradientUnits="userSpaceOnUse">
<stop stop-color="#08000C"/>
<stop offset="1" stop-color="#2A2E43"/>
</linearGradient>
<linearGradient id="paint4_linear_12_111" x1="877.323" y1="155.595" x2="872.138" y2="139.41" gradientUnits="userSpaceOnUse">
<stop stop-color="#2D2F46"/>
<stop offset="1" stop-color="#484F63"/>
</linearGradient>
<linearGradient id="paint5_linear_12_111" x1="1112.04" y1="260.082" x2="1107.26" y2="137.765" gradientUnits="userSpaceOnUse">
<stop stop-color="#0F0516"/>
<stop offset="1" stop-color="#292D40"/>
</linearGradient>
<linearGradient id="paint6_linear_12_111" x1="1194.09" y1="541.468" x2="1249.46" y2="519.119" gradientUnits="userSpaceOnUse">
<stop/>
<stop offset="1" stop-color="#26232D"/>
</linearGradient>
<linearGradient id="paint7_linear_12_111" x1="806.698" y1="420.428" x2="784.764" y2="394.98" gradientUnits="userSpaceOnUse">
<stop stop-color="#1A1424"/>
<stop offset="1" stop-color="#343346"/>
</linearGradient>
<linearGradient id="paint8_linear_12_111" x1="845.125" y1="369.739" x2="728.911" y2="283.343" gradientUnits="userSpaceOnUse">
<stop stop-color="#0E0413"/>
<stop offset="1" stop-color="#23253A"/>
</linearGradient>
<linearGradient id="paint9_linear_12_111" x1="777.619" y1="727.677" x2="705.322" y2="542.607" gradientUnits="userSpaceOnUse">
<stop stop-color="#C5002B"/>
<stop offset="1" stop-color="#E61D69"/>
</linearGradient>
<linearGradient id="paint10_linear_12_111" x1="631.181" y1="578.708" x2="614.68" y2="504.321" gradientUnits="userSpaceOnUse">
<stop stop-color="#ED276E"/>
<stop offset="1" stop-color="#F6599E"/>
</linearGradient>
<linearGradient id="paint11_linear_12_111" x1="621.833" y1="517.672" x2="611.259" y2="520.532" gradientUnits="userSpaceOnUse">
<stop stop-color="#6A5E72"/>
<stop offset="1" stop-color="#5E687A"/>
</linearGradient>
<linearGradient id="paint12_linear_12_111" x1="938.599" y1="695.609" x2="1019.75" y2="500.137" gradientUnits="userSpaceOnUse">
<stop stop-color="white"/>
<stop offset="1" stop-color="white"/>
</linearGradient>
<linearGradient id="paint13_linear_12_111" x1="1002.99" y1="706.988" x2="995.035" y2="679.548" gradientUnits="userSpaceOnUse">
<stop stop-color="white"/>
<stop offset="1" stop-color="white"/>
</linearGradient>
<clipPath id="clip0_12_111">
<rect width="1920" height="1080" fill="white" transform="translate(4)"/>
</clipPath>
</defs>
</svg>
