<svg width="1920" height="1080" viewBox="0 0 1920 1080" fill="none" xmlns="http://www.w3.org/2000/svg">
<g clip-path="url(#clip0_14_116)">
<path d="M910.496 129.614C914.442 128.418 918.153 127.728 922.233 127.188L918.736 131.436C915.938 133.356 913.261 135.239 910.782 137.553C910.337 134.975 910.499 132.233 910.496 129.614Z" fill="#9199AB"/>
<path d="M967.94 119.502C966.272 120.682 964.96 121.394 963.133 122.234C962.06 122.726 961.595 123.175 960.99 124.138L949.344 126.412L947 128.576C945.066 126.661 945.005 124.403 944.604 121.872L967.94 119.502Z" fill="#7A8192"/>
<path d="M1220.63 247.105C1228.18 257.8 1236.39 268.591 1242.16 280.339C1236.55 277.643 1232.11 275.779 1227.51 271.547L1227.61 271.252C1225.62 267.681 1223.79 263.599 1220.41 261.087C1218.87 259.943 1218.34 259.549 1217.7 257.73C1216.96 255.66 1216.36 255.202 1214.54 253.935C1215.8 251.177 1218.42 249.17 1220.63 247.105Z" fill="#434253"/>
<path d="M1227.51 271.547C1232.11 275.779 1236.56 277.643 1242.16 280.339C1254.32 300.999 1263.29 321.778 1271.68 344.047C1268.65 342.012 1266.63 339.623 1265.91 336.084C1265.65 334.805 1265.87 335.038 1265.18 334.032L1263.53 331.745C1263.69 330.006 1263.62 329.11 1262.79 327.596C1261.92 326.028 1261.31 324.595 1260.84 322.859C1260.27 320.764 1258.9 319.592 1258.42 317.701C1257.92 315.751 1256.74 314.261 1256.24 312.314C1255.96 311.217 1256.16 311.527 1255.54 310.618C1254.49 309.096 1253.41 307.796 1252.95 305.979L1252.78 305.099C1251.63 304.281 1250.89 304.393 1249.51 304.222C1247.12 302.735 1245.68 299.035 1244.18 296.74L1243.11 295.172C1240.21 289.285 1236.49 283.999 1232.27 278.876C1230.35 276.546 1228.95 274.184 1227.51 271.547Z" fill="#46424D"/>
<path d="M765.392 223.501V233.276C760.605 240.263 755.144 248.132 748.926 253.985C747.041 256.762 744.78 259.48 744.078 262.781L747.127 263.96L746.01 264.239L735.871 266.627L734.218 264.426L735.497 262.08C743.883 248.459 755.058 235.782 765.392 223.501Z" fill="#7A8192"/>
<path d="M735.497 262.08C740.469 260.143 744.524 256.89 748.926 253.985C747.041 256.762 744.78 259.48 744.078 262.781L747.127 263.96L746.01 264.239L735.871 266.627L734.218 264.426L735.497 262.08Z" fill="#676975"/>
<path d="M836.664 163.549C851.319 152.975 869.962 144.292 887.099 138.359C885.471 140.967 884.079 142.483 881.465 144.187L880.023 148.355C871.01 150.348 862.085 156.947 854.357 161.957L844.425 167.524L842.238 166.671L841.696 165.079C840.089 164.113 838.49 163.926 836.664 163.549Z" fill="#7A8192"/>
<path d="M836.664 163.549C838.491 163.926 840.089 164.113 841.696 165.079L842.238 166.671L844.425 167.524C840.983 170.809 836.647 172.754 832.644 175.308C827.681 178.475 822.742 182.22 818.021 185.746C811.886 190.326 806.65 195.981 800.32 200.095C797.164 202.147 793.871 206.352 791.144 209.024C787.832 212.277 784.076 214.917 780.833 217.972C778.601 220.072 776.546 222.899 773.66 224.119L773.236 224.948C771.379 227.99 767.954 230.742 765.393 233.275V223.501C785.067 200.063 810.835 180.134 836.664 163.549Z" fill="#727B8C"/>
<path d="M724.765 684.47C729.227 686.635 731.973 689.596 735.269 693.135L758.236 751.008C762.691 766.152 772.568 783.577 772.361 799.033C772.347 800.049 772.768 800.555 772.909 801.443C773.055 802.35 772.829 802.754 772.614 803.642C772.243 805.169 772.138 806.493 772.039 808.055C766.903 798.864 763.345 787.8 759.301 778.069C746.486 747.218 734.801 716.268 724.765 684.47Z" fill="#676975"/>
<path d="M727.912 274.471L732.377 267.098L738.986 268.297L739.423 270.18L740.273 270.37C740.221 271.849 740.505 273.681 739.671 274.901C738.733 276.274 738.293 277.731 737.759 279.272C737.371 280.396 736.568 281.174 735.849 282.11C728.03 292.281 723.229 304.826 717.375 316.008C714.456 321.577 709.693 328.12 707.833 333.874C706.895 336.774 706.67 338.708 707.256 341.672L707.847 344.232L705.531 344.676L702.521 345.877C699.076 355.705 695.516 366.113 692.9 376.155C689.059 390.889 687.342 407.699 685.182 422.829L683.705 429.281C682.338 431.405 680.97 433.221 680.494 435.72L679.121 442.081C678.282 446.195 678.846 451.256 678.855 455.469C678.863 458.928 678.678 460.364 677.815 463.406C676.56 467.82 678.103 474.05 677.163 478.83C675.528 468.028 676.029 456.598 676.307 445.711C677.281 407.207 685.133 370.896 698.201 334.642L698.276 334.436C705.126 313.796 715.383 292.447 727.912 274.471Z" fill="#676975"/>
<path d="M727.912 274.471L732.378 267.098L738.986 268.297L739.424 270.18L738.703 271.376C735.643 277.603 731.712 284.957 727.783 290.705C719.975 302.13 717.26 317.238 708.981 328.088C707.982 329.396 705.017 332.962 704.681 334.359C703.919 337.547 706.931 339.922 704.673 343.229C702.108 340.468 699.965 337.994 698.202 334.642L698.276 334.436C705.127 313.796 715.383 292.447 727.912 274.471Z" fill="#727B8C"/>
<path d="M727.912 274.471L732.377 267.098L738.986 268.297L739.423 270.18L738.703 271.376C735.134 272.587 731.657 273.885 727.912 274.471Z" fill="#9199AB"/>
<path d="M887.1 138.358L887.141 138.19L910.496 129.614C910.499 132.233 910.337 134.975 910.782 137.553L910.361 139.977L899.013 150.704L881.113 168.353L880.598 164.202L879.19 162.072C875.492 162.808 871.362 165.577 868.028 166.007C865.568 166.326 865.921 164.71 863.587 166.609C862.245 167.703 861.596 167.743 859.961 168.209C854.902 169.653 849.163 175.795 844.681 178.692C841.809 180.546 838.562 181.907 835.635 183.801C833.007 185.5 830.716 187.672 827.549 187.95L826.985 188.635C823.958 189.823 821.656 191.396 818.896 193.006L812.912 196.957C805.137 201.836 800.636 209.695 794.151 215.65C792.358 217.298 790.5 217.391 788.674 218.737C782.252 223.461 771.737 232.018 768.078 238.89C764.672 245.289 760.35 250.829 755.849 256.511L756.795 258.225C758.182 258.027 760.047 257.508 761.406 257.752C757.574 260.812 751.823 262.602 747.127 263.96L744.079 262.781C744.78 259.48 747.042 256.762 748.926 253.985C755.144 248.132 760.605 240.263 765.393 233.275C767.954 230.742 771.379 227.99 773.236 224.948L773.66 224.119C776.546 222.899 778.601 220.072 780.833 217.972C784.076 214.917 787.832 212.277 791.144 209.024C793.871 206.352 797.164 202.147 800.32 200.095C806.65 195.981 811.886 190.326 818.021 185.746C822.742 182.22 827.681 178.475 832.644 175.308C836.647 172.754 840.983 170.809 844.425 167.524L854.357 161.957C862.085 156.947 871.01 150.348 880.023 148.355L881.465 144.187C884.079 142.483 885.471 140.967 887.1 138.358Z" fill="#5B6578"/>
<path d="M827.549 187.95C828.781 185.337 831.871 183.253 834.317 181.822L840.628 177.625C845.963 175.006 850.747 171.103 855.667 167.703C860.952 164.052 867.524 162.746 873.209 159.772C879.118 156.677 884.406 152.841 890.574 150.021L893.086 151.779L880.598 164.202L879.19 162.072C875.492 162.808 871.362 165.577 868.028 166.007C865.568 166.326 865.921 164.71 863.587 166.609C862.245 167.703 861.596 167.743 859.961 168.209C854.902 169.653 849.163 175.795 844.681 178.692C841.809 180.546 838.562 181.907 835.635 183.801C833.007 185.5 830.716 187.672 827.549 187.95Z" fill="#4F5266"/>
<path d="M887.1 138.358L887.141 138.19L910.496 129.614C910.499 132.233 910.337 134.975 910.782 137.553L910.361 139.977L899.013 150.704L881.113 168.353L880.598 164.202L893.086 151.779C894.927 151.297 902.446 141.063 904.02 139.204L880.023 148.355L881.465 144.187C884.079 142.483 885.471 140.967 887.1 138.358Z" fill="#727B8C"/>
<path d="M827.549 187.95C830.716 187.672 833.007 185.5 835.635 183.801C838.562 181.908 841.809 180.546 844.681 178.692C849.163 175.795 854.902 169.653 859.961 168.209C861.596 167.743 862.245 167.703 863.588 166.609C865.921 164.71 865.568 166.326 868.028 166.007C871.363 165.577 875.492 162.808 879.19 162.072L880.599 164.202L881.113 168.353C872.053 177.234 862.779 185.69 853.512 194.333C848.318 199.177 843.344 205.049 837.393 208.962C835.665 210.097 834.449 211.292 832.331 211.71L830.845 212.403C829.973 212.416 827.659 212.172 826.957 212.459C823.199 213.991 816.28 221.468 812.835 224.151C806.078 229.421 799.002 234.051 791.766 238.668C785.072 242.94 778.489 247.488 771.704 251.607C768.548 253.525 764.102 255.36 761.406 257.752C760.047 257.508 758.182 258.027 756.795 258.225L755.849 256.511C760.35 250.829 764.672 245.289 768.078 238.89C771.737 232.018 782.252 223.461 788.674 218.737C790.501 217.391 792.358 217.298 794.152 215.65C800.636 209.695 805.137 201.836 812.912 196.957L818.896 193.006C821.656 191.396 823.959 189.823 826.985 188.635L827.549 187.95Z" fill="url(#paint0_linear_14_116)"/>
<path d="M802.46 214.714L804.383 214.909C803.002 218.402 798.303 220.403 796.154 223.611L795.488 224.646C792.85 225.117 790.8 226.409 788.498 227.685L786.464 228.808L786.88 226.724C789.934 226.181 792.842 221.612 795.381 219.735L796.559 218.884L802.46 214.714Z" fill="#434253"/>
<path d="M827.549 187.95C830.715 187.672 833.007 185.5 835.635 183.801C838.562 181.908 841.808 180.546 844.681 178.692C849.162 175.795 854.902 169.653 859.961 168.209C861.595 167.743 862.245 167.703 863.587 166.609C865.92 164.71 865.568 166.326 868.028 166.007C871.362 165.577 875.492 162.808 879.19 162.072L880.598 164.202L881.113 168.353C872.053 177.234 862.778 185.69 853.512 194.333C848.318 199.177 843.344 205.049 837.393 208.962C835.665 210.097 834.449 211.292 832.33 211.71C833.621 207.489 834.941 205.439 838.738 202.837C846.568 197.473 853.584 189.101 860.434 182.499C863.48 179.567 866.98 177.652 869.101 173.973L868.028 172.984C864.701 173.374 862.396 175.228 859.43 176.507C851.193 180.059 842.848 183.355 835.249 188.178C830.11 191.439 826.104 195.879 820.203 197.984L819.655 196.427C820.17 195.74 821.053 194.346 821.804 193.817C824.156 192.15 824.968 191.853 826.533 189.368L826.985 188.635L827.549 187.95Z" fill="#434253"/>
<path d="M683.705 429.281L685.183 422.829C687.342 407.699 689.059 390.889 692.9 376.155C695.516 366.113 699.076 355.705 702.521 345.877L705.531 344.676L705.93 348.073L711.352 357.334L715.779 364.021L715.793 371.268L712.373 411.706L715.807 416.837L702.65 504.716L690.71 503.558L685.964 503.881C684.748 508.75 684.745 511.037 680.86 514.322L677.163 478.83C678.104 474.05 676.56 467.82 677.815 463.406C678.679 460.364 678.863 458.928 678.855 455.469C678.846 451.256 678.282 446.195 679.122 442.081L680.494 435.719C680.97 433.221 682.338 431.405 683.705 429.281Z" fill="url(#paint1_linear_14_116)"/>
<path d="M712.373 411.706L715.807 416.837L702.65 504.716L690.71 503.558C690.71 497.402 689.736 492.51 690.011 486.237L692.272 490.656L692.839 491.619C692.729 493.43 692.47 495.586 692.839 497.365C693.376 499.96 694.746 501.006 696.994 502.068L699.296 500.46L712.373 411.706Z" fill="#434253"/>
<path d="M683.705 429.281L685.183 422.829C687.342 407.699 689.059 390.889 692.9 376.155C695.516 366.113 699.076 355.705 702.521 345.877L705.531 344.676L705.93 348.073L704.474 348.985L704.645 350.237C706.706 366.4 698.991 382.292 694.839 397.595C692.652 405.65 692.281 412.894 691.111 421.085C689.689 431.041 688.283 440.596 688.333 450.697C688.346 453.904 690.38 485.582 690.011 486.237C689.736 492.51 690.71 497.402 690.71 503.558L685.964 503.881C684.748 508.75 684.745 511.037 680.86 514.322L677.163 478.83C678.104 474.05 676.56 467.82 677.815 463.406C678.679 460.364 678.863 458.928 678.855 455.469C678.846 451.256 678.282 446.195 679.122 442.081L680.494 435.719C680.97 433.221 682.338 431.405 683.705 429.281Z" fill="#4F5266"/>
<path d="M677.163 478.83C678.104 474.05 676.56 467.819 677.815 463.406C678.679 460.364 678.863 458.928 678.855 455.469C678.846 451.256 678.282 446.195 679.122 442.081L680.494 435.719C680.97 433.221 682.338 431.405 683.705 429.281C681.999 445.788 681.746 463.753 683.067 480.322C683.499 485.761 683.455 491.472 684.308 496.843C684.66 499.061 686.167 501.787 685.964 503.881C684.748 508.75 684.745 511.037 680.86 514.322L677.163 478.83Z" fill="#6D6D7C"/>
<path d="M925.141 125.799C926.902 129.534 926.844 133.688 927.136 137.732L929.642 137.069L930.225 139.129L929.997 142.759L928.718 153.066L929.21 158.349C927.658 164.153 927.672 170.509 927.309 176.475C926.456 190.427 926.764 204.428 925.328 218.341L925.799 219.665L925.356 224.614C923.41 226.444 918.566 229.958 917.652 232.222L913.751 236.247C874.529 280.848 834.011 326.737 776.761 349.627C759.073 356.7 741.107 360.64 722.3 363.524L721.053 364.653L720.517 364.586L715.779 364.021L711.352 357.334L705.93 348.073L705.531 344.676L707.847 344.232L707.256 341.672C706.67 338.708 706.895 336.774 707.834 333.874C709.693 328.12 714.456 321.577 717.375 316.008C723.23 304.826 728.03 292.281 735.85 282.11C736.568 281.174 737.371 280.396 737.759 279.272C738.293 277.731 738.733 276.273 739.671 274.901C740.505 273.681 740.221 271.849 740.274 270.37L739.423 270.18L738.986 268.297L732.377 267.098L734.218 264.426L735.872 266.627L746.01 264.239L747.127 263.96C751.823 262.602 757.573 260.812 761.406 257.752C764.102 255.36 768.548 253.525 771.704 251.607C778.488 247.488 785.072 242.94 791.766 238.668C799.002 234.051 806.078 229.421 812.835 224.151C816.28 221.468 823.199 213.991 826.957 212.459C827.659 212.172 829.973 212.416 830.845 212.402L832.33 211.71C834.449 211.292 835.665 210.097 837.393 208.962C843.344 205.049 848.318 199.177 853.512 194.333C862.778 185.69 872.053 177.234 881.113 168.353L899.012 150.704L910.361 139.977L910.782 137.553C913.261 135.239 915.938 133.356 918.736 131.436L922.233 127.188L925.141 125.799Z" fill="#282B3F"/>
<path d="M714.591 354.172C716.753 357.272 717.361 358.976 721.15 360.405L722.3 363.524L721.053 364.653L720.517 364.586L715.779 364.021L711.353 357.334C712.604 356.336 713.532 355.349 714.591 354.172Z" fill="#676975"/>
<path d="M921.35 216.102C922.808 216.798 924.021 217.389 925.328 218.341L925.799 219.665L925.356 224.614C923.411 226.444 918.566 229.959 917.652 232.222L913.751 236.247L909.806 234.87C914.953 228.685 919.801 224.13 921.35 216.102Z" fill="#6D6D7C"/>
<path d="M924.552 151.886L925.697 151.923L927.072 154.13L928.717 153.066L929.21 158.349C927.658 164.154 927.672 170.509 927.309 176.475C926.456 190.427 926.764 204.428 925.328 218.341C924.021 217.389 922.808 216.798 921.35 216.102L924.552 151.886Z" fill="#5B6578"/>
<path d="M761.406 257.752C764.102 255.36 768.548 253.525 771.704 251.607C778.488 247.488 785.072 242.94 791.766 238.668C799.002 234.051 806.078 229.421 812.835 224.151C816.28 221.468 823.199 213.991 826.957 212.459C827.659 212.172 829.973 212.416 830.845 212.402C823.733 220.243 813.803 226.698 805.107 232.856C786.203 246.244 767.181 258.835 745.87 268.334C744.032 268.939 741.946 269.42 740.274 270.37L739.423 270.18L738.986 268.297L732.377 267.098L734.218 264.426L735.871 266.627L746.01 264.239L747.127 263.96C751.823 262.602 757.573 260.812 761.406 257.752Z" fill="#7A8192"/>
<path d="M925.141 125.799C926.902 129.534 926.844 133.688 927.136 137.732L929.642 137.069L930.226 139.129L929.997 142.759L928.718 153.066L927.073 154.13L925.697 151.923L924.553 151.886C923.947 150.57 924.239 151.105 923.449 149.807C922.514 148.261 922.858 146.482 922.847 144.704C921.647 145.923 919.928 148.165 918.285 148.695C916.684 149.211 915.24 149.575 913.803 150.506L913.165 150.963L910.477 149.917C908.265 148.489 907.316 148.879 904.567 148.874L904.031 149.928L905.64 150.452L905.91 152.317C903.767 151.399 902.102 151.006 899.772 150.773L899.013 150.704L910.362 139.977L910.782 137.553C913.261 135.239 915.938 133.356 918.736 131.436L922.233 127.188L925.141 125.799Z" fill="#4F5266"/>
<path d="M910.782 137.553C913.261 135.239 915.938 133.356 918.736 131.436L924.448 132.583C925.394 134.71 925.501 136.705 925.686 138.979C920.533 139.584 915.564 140.127 910.361 139.977L910.782 137.553Z" fill="#5B6578"/>
<path d="M925.141 125.799C926.902 129.534 926.844 133.688 927.136 137.732L929.642 137.069L930.226 139.129L929.997 142.759L928.718 153.066L927.073 154.13L925.697 151.923L925.686 138.979C925.502 136.705 925.394 134.71 924.448 132.583L918.736 131.436L922.233 127.188L925.141 125.799Z" fill="#676975"/>
<path d="M740.274 270.37C741.946 269.42 744.032 268.939 745.87 268.334C745.878 270.822 745.76 273.475 744.893 275.843C741.126 286.141 733.156 296.079 727.918 305.792C724.041 312.982 721.678 320.772 717.785 327.896C716.068 331.036 709.55 339.794 709.9 342.983C710.252 346.193 713.149 351.275 714.591 354.172C713.531 355.349 712.604 356.336 711.352 357.334L705.93 348.073L705.531 344.676L707.847 344.232L707.256 341.672C706.67 338.708 706.895 336.774 707.834 333.874C709.693 328.12 714.456 321.577 717.375 316.008C723.23 304.826 728.03 292.281 735.85 282.11C736.568 281.174 737.371 280.396 737.759 279.272C738.293 277.731 738.733 276.273 739.671 274.901C740.505 273.681 740.221 271.849 740.274 270.37Z" fill="#6D6D7C"/>
<path d="M909.805 234.87L913.751 236.247C874.529 280.848 834.011 326.737 776.76 349.627C759.073 356.7 741.107 360.64 722.299 363.524L721.149 360.405C727.89 357.374 738.719 356.885 746.048 355.352C756.057 353.255 765.876 349.996 775.412 346.409C832.77 324.83 870.809 278.555 909.805 234.87Z" fill="#4F5266"/>
<path d="M917.652 232.222C918.192 233.578 918.761 234.897 919.132 236.306C917.179 265.073 916.78 293.886 915.649 322.685C915.292 331.793 916.384 344.497 913.908 353.174C912.59 357.797 907.143 363.537 904.378 367.566C889.097 386.088 874.945 405.278 855.46 420.041L855.392 420.119L855.226 424.889C842.785 437.705 818.467 447.768 800.873 450.887C793.067 452.273 783.548 452.278 776.095 454.354C775.597 455.75 775.259 456.948 774.901 458.374C774.491 460.003 773.575 460.688 772.389 461.838L772.54 466.878C774.997 484.102 768.584 501.18 773.003 518.16L773.102 519.022L768.675 517.786L702.65 504.716L715.807 416.837L712.373 411.706L715.793 371.268L715.779 364.022L720.517 364.586L721.053 364.653L722.3 363.524C741.107 360.64 759.073 356.7 776.761 349.627C834.012 326.737 874.529 280.848 913.751 236.248L917.652 232.222Z" fill="url(#paint2_linear_14_116)"/>
<path d="M730.38 388.618C730.611 386.994 730.699 387.604 730.259 386.074L729.926 385.036C730.947 383.233 730.295 384.004 731.866 382.709L751.733 416.302L749.185 420.298C743.168 409.975 735.192 399.468 730.38 388.618Z" fill="#434253"/>
<path d="M751.732 416.302L772.24 448.434C783.33 447.781 795.07 446.925 805.852 444.111C824.038 439.368 839.662 429.752 855.391 420.119L855.226 424.889C842.785 437.704 818.467 447.768 800.872 450.887C793.067 452.273 783.548 452.278 776.095 454.354C775.597 455.75 775.258 456.948 774.9 458.374C774.491 460.003 773.574 460.688 772.389 461.838L772.54 466.878C774.997 484.102 768.584 501.18 773.002 518.16L773.101 519.022L768.674 517.786L769.087 515.956C765.813 507.198 767.167 500.206 767.5 491.17C767.954 478.916 768.548 466.669 769.128 454.418L749.185 420.298L751.732 416.302Z" fill="url(#paint3_linear_14_116)"/>
<path d="M715.779 364.021L720.517 364.586L721.053 364.653C721.452 371.605 728.674 376.733 731.866 382.709C730.295 384.004 730.947 383.233 729.926 385.036L730.259 386.074C730.699 387.604 730.611 386.994 730.38 388.618C735.192 399.468 743.168 409.975 749.185 420.298L769.129 454.418C768.548 466.669 767.954 478.915 767.5 491.17C767.167 500.206 765.814 507.198 769.088 515.956L768.675 517.786L702.65 504.716L715.807 416.837L712.373 411.706L715.793 371.268L715.779 364.021Z" fill="#0D0813"/>
<path d="M715.779 364.021L720.517 364.586L721.053 364.653C721.452 371.605 728.674 376.733 731.866 382.709C730.295 384.004 730.947 383.233 729.926 385.036L730.259 386.074C730.699 387.604 730.611 386.994 730.38 388.618C726.636 383.134 724.289 377.354 719.661 372.483L715.807 416.837L712.373 411.706L715.793 371.268L715.779 364.021Z" fill="#4F5266"/>
<path d="M715.779 364.021L720.517 364.586L720.019 369.858C718.511 370.819 717.579 371.07 715.793 371.268L715.779 364.021Z" fill="#5B6578"/>
<path d="M967.94 119.502C1003.18 117.823 1034.32 121.934 1067.8 132.629C1078.97 136.197 1091.93 140.646 1101.9 146.713C1148.71 169.734 1190.64 205.132 1220.63 247.105C1218.42 249.17 1215.81 251.177 1214.54 253.935C1212.19 256.599 1206.01 262.291 1205.5 265.608L1151.05 337.758L1146.13 344.708C1144.63 343.413 1143.77 342.089 1142.67 340.49C1138.62 339.104 1134.56 338.866 1130.33 338.51L1128.26 335.15C1127.73 334.589 1126.71 334.875 1125.94 334.776C1114.33 333.297 1102.66 332.197 1091.04 330.774C1090.18 329.672 1072.06 325.964 1069.22 325.207C1045.02 318.223 1024.1 307.172 1002.98 294.046C990.098 285.422 979.082 274.861 967.343 264.905L963.62 266.906L927.15 226.856L925.356 224.614L925.799 219.665L925.328 218.341C926.764 204.428 926.456 190.427 927.309 176.475C927.672 170.509 927.659 164.154 929.21 158.349L928.718 153.066L929.997 142.759L930.225 139.129L929.642 137.069L927.136 137.733C926.844 133.688 926.902 129.534 925.141 125.799C931.395 123.847 938.144 123.012 944.603 121.873C945.005 124.403 945.066 126.661 947 128.576L949.344 126.412L960.99 124.138C961.595 123.175 962.06 122.726 963.133 122.234C964.96 121.394 966.272 120.682 967.94 119.502Z" fill="url(#paint4_linear_14_116)"/>
<path d="M925.798 219.665L967.342 264.905L963.62 266.906L927.149 226.856L925.355 224.614L925.798 219.665Z" fill="#4F5266"/>
<path d="M925.141 125.799C931.395 123.847 938.144 123.012 944.603 121.873C945.005 124.403 945.066 126.661 947 128.576L951.96 133.996C951.771 134.996 951.677 135.566 951.14 136.457C953.504 140.472 957.771 143.647 961.221 146.801C958.756 146.782 955.79 146.231 953.897 147.769C952.323 149.045 950.835 149.529 948.917 150.155C947.063 150.76 945.476 151.932 943.685 152.627C940.493 153.871 934.911 153.122 931.425 153.063C931.133 155.915 931.092 156.158 929.21 158.349L928.718 153.066L929.997 142.759L930.225 139.129L929.642 137.069L927.136 137.733C926.844 133.688 926.902 129.534 925.141 125.799Z" fill="url(#paint5_linear_14_116)"/>
<path d="M930.225 139.129C933.224 138.565 935.901 138.329 938.958 138.425C941.445 136.812 944.581 137.385 947.545 137.39C943.162 140.918 935.445 140.49 929.997 142.759L930.225 139.129Z" fill="#4F5266"/>
<path d="M925.141 125.799C931.395 123.847 938.144 123.012 944.603 121.873C945.005 124.403 945.066 126.661 947 128.576L951.96 133.996C951.771 134.996 951.677 135.566 951.14 136.457L946.529 132.166C941.412 128.041 938.834 127.105 932.253 127.832C929.846 130.537 929.97 133.659 929.642 137.069L927.136 137.733C926.844 133.688 926.902 129.534 925.141 125.799Z" fill="#9199AB"/>
<path d="M967.94 119.502C1003.18 117.823 1034.32 121.934 1067.8 132.629C1078.97 136.197 1091.93 140.646 1101.9 146.713C1148.71 169.734 1190.64 205.132 1220.63 247.105C1218.42 249.17 1215.81 251.177 1214.54 253.935C1212.19 256.599 1206.01 262.291 1205.5 265.608L1151.05 337.758L1146.13 344.708C1144.63 343.413 1143.77 342.089 1142.67 340.49C1138.62 339.104 1134.56 338.866 1130.33 338.51L1128.26 335.15L1147.24 335.712L1204.9 259.333L1205.83 258.287C1200.83 255.106 1191.43 254.726 1185.59 253.913C1175.23 252.477 1164.9 250.676 1154.61 248.82C1146.36 247.33 1138.51 245.206 1130.49 242.857C1111.6 237.181 1092.82 231.411 1074.81 223.37C1033.24 204.814 994.222 177.419 961.221 146.801C957.771 143.647 953.504 140.472 951.141 136.457C951.677 135.566 951.771 134.996 951.961 133.996L947 128.576L949.344 126.412L960.99 124.138C961.595 123.175 962.06 122.726 963.133 122.234C964.96 121.394 966.272 120.682 967.94 119.502Z" fill="url(#paint6_linear_14_116)"/>
<path d="M960.813 135.788C963.438 134.111 964.885 134.086 967.986 134.255C972.088 131.604 1002.75 133.22 1009.89 133.22C1013.22 135.381 1016.33 133.172 1019.56 134.266C1024.77 136.026 1030.83 136.058 1036.22 137.401C1037.94 137.829 1040.41 136.973 1042.13 137.401C1043.93 137.85 1046.24 139.051 1048.04 139.49C1049.49 139.843 1049.99 139.065 1051.4 139.979C1052.51 140.702 1053.23 140.707 1054.48 141.052C1058.14 142.061 1062.46 143.299 1065.8 145.038C1067.36 145.851 1068.28 145.913 1070.07 145.76L1070.74 146.25C1071.83 146.951 1071.46 146.742 1072.65 147.031C1073.82 147.312 1074.38 147.601 1075.41 148.141C1077 148.97 1077.91 149.05 1079.74 148.895L1080.38 149.35C1084.15 151.798 1094.08 155.374 1098.62 156.468C1100.74 156.982 1104.18 159.159 1106.07 160.387C1108.68 162.078 1112.01 163.851 1114.94 164.793C1116.49 165.293 1117.86 166.307 1119.21 167.182C1121.75 168.827 1124.73 169.715 1127.3 171.328C1131.27 173.818 1134.81 176.894 1138.85 179.198C1141.08 180.466 1142.8 182.298 1145.03 183.603C1147.44 185.013 1148.66 186.824 1151.21 188.073C1159.27 192.035 1164.02 200.525 1171.09 205.319C1176.88 209.246 1181.78 214.532 1186.88 219.497C1191.32 223.814 1196.27 227.968 1199.57 233.005C1201.9 236.563 1205.97 238.502 1208.16 242.411C1209.41 244.634 1211.03 245.481 1211.92 248.151C1211.68 249.946 1211.46 251.58 1210.94 253.327C1212.22 253.662 1213.19 253.862 1214.54 253.934C1212.19 256.599 1206 262.291 1205.5 265.608L1151.05 337.758L1146.13 344.708C1144.63 343.413 1143.77 342.089 1142.67 340.489C1138.62 339.104 1134.56 338.866 1130.33 338.51L1128.26 335.15L1147.24 335.712L1204.9 259.333L1205.83 258.287C1200.83 255.106 1191.43 254.726 1185.59 253.913C1175.23 252.477 1164.9 250.676 1154.61 248.82C1146.36 247.33 1138.51 245.206 1130.49 242.857L1130.04 239.709C1149.13 244.604 1168.41 249.004 1188.03 251.417C1195.61 252.348 1203.58 252.075 1211.25 252.517C1202.34 243.216 1193.25 235.6 1185.35 225.379C1179.41 217.699 1171.03 211.37 1163.72 204.912C1142.54 186.206 1118.55 169.059 1092.3 157.634C1076.87 150.923 1059.96 146.271 1043.9 141.199C1038.24 139.412 1031.88 139.996 1026.55 138.399C1019 136.141 1011.03 137.04 1003.45 135.301C1000.83 134.699 996.679 135.231 993.925 135.229C988.455 135.221 973.156 133.672 969.048 136.333C966.704 136.499 963.889 137.002 961.647 136.205L960.813 135.788Z" fill="#676975"/>
<path d="M967.94 119.502C1003.18 117.823 1034.32 121.934 1067.8 132.629C1078.97 136.197 1091.93 140.646 1101.9 146.713C1148.71 169.734 1190.64 205.132 1220.63 247.105C1218.42 249.17 1215.81 251.177 1214.54 253.935C1213.19 253.862 1212.22 253.662 1210.94 253.327C1211.46 251.581 1211.68 249.946 1211.92 248.151C1211.03 245.482 1209.41 244.634 1208.17 242.411C1205.97 238.503 1201.9 236.563 1199.57 233.005C1196.27 227.968 1191.32 223.814 1186.88 219.497C1181.78 214.532 1176.88 209.246 1171.09 205.319C1164.02 200.526 1159.27 192.035 1151.21 188.073C1148.66 186.824 1147.45 185.013 1145.03 183.604C1142.8 182.298 1141.08 180.466 1138.85 179.198C1134.81 176.895 1131.27 173.818 1127.3 171.328C1124.73 169.715 1121.75 168.827 1119.21 167.182C1117.86 166.307 1116.49 165.293 1114.94 164.793C1112.01 163.851 1108.68 162.078 1106.07 160.387C1104.18 159.159 1100.75 156.982 1098.62 156.468C1094.08 155.374 1084.16 151.798 1080.38 149.35L1079.75 148.895C1077.92 149.051 1077 148.97 1075.41 148.141C1074.38 147.601 1073.82 147.312 1072.66 147.031C1071.46 146.742 1071.83 146.951 1070.74 146.25L1070.07 145.76C1068.28 145.913 1067.36 145.851 1065.8 145.038C1062.46 143.299 1058.14 142.061 1054.48 141.052C1053.23 140.707 1052.51 140.702 1051.4 139.98C1049.99 139.065 1049.5 139.843 1048.04 139.49C1046.24 139.051 1043.93 137.85 1042.13 137.401C1040.41 136.973 1037.94 137.829 1036.22 137.401C1030.83 136.058 1024.77 136.026 1019.56 134.266C1016.33 133.172 1013.22 135.381 1009.89 133.22C1002.75 133.22 972.089 131.604 967.987 134.255C964.886 134.087 963.439 134.111 960.814 135.788L958.03 136.392C959.389 145.001 1005.26 178.845 1014.51 185.439C1049.2 210.174 1089.07 227.583 1130.04 239.709L1130.49 242.857C1111.6 237.181 1092.82 231.411 1074.81 223.37C1033.24 204.814 994.222 177.419 961.221 146.801C957.771 143.647 953.504 140.472 951.141 136.457C951.677 135.566 951.771 134.996 951.961 133.996L947 128.576L949.344 126.412L960.99 124.138C961.595 123.175 962.06 122.726 963.133 122.234C964.96 121.394 966.272 120.682 967.94 119.502Z" fill="#6D6D7C"/>
<path d="M967.939 119.502C1003.18 117.823 1034.32 121.934 1067.8 132.629C1078.97 136.197 1091.93 140.646 1101.9 146.713C1097.29 145.843 1092.88 144.752 1088.34 143.668C1086.33 143.187 1084.42 142.606 1082.42 142.098C1078.41 141.068 1074.69 139.041 1070.6 137.917C1069.35 137.572 1068.64 137.569 1067.52 136.845C1065.96 135.831 1064.63 136.853 1063.09 136.355C1060.77 135.611 1058.44 134.921 1056.1 134.266C1054.73 133.881 1052.63 134.648 1051.26 134.266C1042.31 131.757 1032.6 130.949 1023.86 127.996C1018.49 126.179 1008.22 129.001 1003.44 125.906C994.847 125.906 982.139 124.35 974.432 126.942C971.205 128.025 968.083 125.84 964.762 127.985C960.164 128.095 953.099 129.138 949.344 126.412L960.99 124.138C961.595 123.175 962.06 122.726 963.133 122.234C964.96 121.394 966.272 120.682 967.939 119.502Z" fill="#727B8C"/>
<path d="M917.652 232.222C918.566 229.959 923.411 226.444 925.356 224.614L927.149 226.856L963.62 266.906L967.343 264.905C979.082 274.861 990.098 285.422 1002.98 294.046C1024.1 307.172 1045.02 318.223 1069.22 325.207C1072.06 325.964 1090.18 329.672 1091.04 330.774C1102.66 332.197 1114.33 333.296 1125.94 334.776C1126.71 334.875 1127.73 334.588 1128.26 335.15L1130.33 338.51C1134.56 338.866 1138.62 339.104 1142.67 340.49C1143.77 342.089 1144.63 343.413 1146.13 344.708L1151.05 337.758L1205.5 265.608C1206.01 262.291 1212.19 256.599 1214.54 253.935C1216.36 255.203 1216.96 255.66 1217.7 257.73C1218.34 259.549 1218.87 259.943 1220.41 261.088C1223.79 263.599 1225.62 267.681 1227.61 271.253L1227.51 271.547C1228.95 274.184 1230.35 276.546 1232.27 278.876C1236.49 283.999 1240.21 289.285 1243.11 295.172L1244.18 296.74C1245.68 299.035 1247.12 302.735 1249.51 304.222C1250.89 304.393 1251.63 304.281 1252.78 305.099L1252.95 305.979C1253.41 307.796 1254.49 309.096 1255.54 310.618C1256.16 311.527 1255.96 311.217 1256.24 312.314C1256.74 314.261 1257.92 315.751 1258.42 317.701C1258.9 319.592 1260.27 320.764 1260.84 322.859C1261.31 324.595 1261.92 326.029 1262.79 327.596C1263.62 329.11 1263.69 330.006 1263.53 331.745L1265.18 334.032C1265.87 335.038 1265.65 334.805 1265.91 336.084C1266.63 339.623 1268.65 342.012 1271.68 344.047C1292.44 405.045 1299.25 474.199 1287.12 537.696L1286.94 537.787C1285.35 556.504 1280.95 575.569 1276.6 593.847C1270.79 618.326 1264.24 642.409 1256.51 666.385L1256.31 666.422C1239.1 720.877 1216.29 773.642 1189.41 824.226C1181.12 839.818 1172.78 856.307 1162.65 870.83L1154.9 883.491C1118.95 938.737 1079.49 987.141 1010.42 1002.12C981.5 1008.39 951.869 1007.84 922.662 1003.83L919.083 1002.72L914.359 1001.54C876.535 990.434 851.053 967.761 832.413 934.171C827.1 927.211 823.108 918.247 819.141 910.495C810.884 894.354 803.181 877.731 795.808 861.189L772.04 808.055C772.139 806.493 772.243 805.169 772.615 803.642C772.829 802.754 773.055 802.35 772.909 801.443C772.769 800.555 772.348 800.049 772.361 799.033C772.568 783.577 762.691 766.152 758.237 751.008L735.269 693.135C731.973 689.596 729.227 686.635 724.765 684.47C720.985 678.227 715.422 673.123 711.174 667.169C704.868 658.328 702.158 643.484 699.431 633.065C693.951 615.894 689.483 598.285 685.268 580.79C682.976 571.278 679.815 560.875 679.328 551.122C678.72 539.036 680.803 526.522 680.86 514.322C684.745 511.037 684.748 508.75 685.964 503.881L690.71 503.558L702.65 504.716L768.675 517.786L773.101 519.022L773.002 518.16C768.584 501.179 774.997 484.102 772.54 466.878L772.389 461.838C773.575 460.688 774.491 460.003 774.901 458.374C775.258 456.948 775.597 455.75 776.095 454.354C783.548 452.278 793.067 452.272 800.873 450.887C818.467 447.768 842.785 437.704 855.226 424.888L855.391 420.119L855.46 420.041C874.945 405.278 889.097 386.088 904.377 367.566C907.142 363.537 912.59 357.797 913.908 353.174C916.384 344.497 915.292 331.793 915.649 322.685C916.78 293.886 917.179 265.073 919.132 236.306C918.761 234.897 918.191 233.578 917.652 232.222Z" fill="#0D0716"/>
<path d="M924.973 356.713C933.821 368.366 941.877 379.978 952.236 390.475L949.534 392.804C942.436 385.408 935.456 377.857 929.015 369.909C926.302 366.563 922.907 363.018 922.131 358.72L924.973 356.713Z" fill="#0D0813"/>
<path d="M855.391 420.119L855.46 420.041C874.944 405.278 889.097 386.088 904.377 367.566L905.612 372.881C890.439 392.369 874.598 409.293 855.226 424.889L855.391 420.119Z" fill="#0D0813"/>
<path d="M904.141 944.785L916.986 961.197L915.982 894.958L916.926 895.48L918.001 959.744L915.038 962.355C915.745 964.235 917.294 965.276 918.808 966.541C919 968.264 919.091 969.799 919.798 971.399C920.324 972.592 920.299 974.43 919.881 975.679L919.462 976.556C917.952 979.978 919.036 988.163 919.074 992.136L919.594 992.756C920.409 993.944 920.343 994.95 920.42 996.322L921.226 995.792C921.226 990.688 919.696 979.844 921.226 975.417C922.164 972.696 922.945 969.941 921.617 966.926C919.903 963.042 922.307 957.411 921.226 953.474C919.019 945.46 920.15 935.137 920.15 926.51C920.15 924.167 920.717 920.13 920.15 917.947C918.307 910.84 919.074 902.59 919.074 894.958L919.63 894.482C920.068 908.183 920.94 921.839 921.408 935.535C921.782 946.449 920.698 959.479 924.632 969.794C919.894 979.692 924.203 993.428 922.662 1003.83L919.083 1002.72L919.655 1000.75C916.609 993.468 917.784 984.095 917.806 976.361C917.812 974.275 918.384 970.12 917.377 968.28C913.787 961.724 905.912 954.215 901.092 948.065L904.141 944.785Z" fill="#2F2F35"/>
<path d="M1072.03 444.336C1070.17 447.736 1068.21 451.943 1064.71 454L1064.7 455.568L1062.46 458.104L1063.89 458.941C1052.36 475.652 1041.26 492.761 1029.46 509.274C1027.26 512.342 1024.18 514.678 1022.07 517.692C1019.93 520.75 1017.95 521.739 1014.63 523.43C1024.03 506.746 1034.62 492.101 1045.35 476.358C1051.44 467.432 1056.9 457.77 1064.72 450.084L1065.81 451.02C1068.01 448.688 1069.07 445.518 1072.03 444.336Z" fill="#0D0813"/>
<path d="M1077.06 437.825L1079.16 438.322C1079.58 453.31 1078.68 468.33 1079.23 483.302C1079.54 491.903 1082.25 502.437 1081.21 510.772C1080.89 513.257 1079.18 515.309 1077.59 517.171L1075.35 516.922C1074.39 510.023 1074.93 502.915 1074.56 495.963C1073.64 478.966 1072.34 462.119 1074.73 445.127L1063.89 458.941L1062.46 458.104L1064.7 455.568L1064.71 454C1068.21 451.943 1070.16 447.736 1072.03 444.336C1075.2 441.925 1075.69 441.481 1077.06 437.825Z" fill="#282B3F"/>
<path d="M797.343 846.008L798.184 847.525C798.179 849.221 797.681 852.407 798.603 853.752C801.216 857.58 802.482 862.382 803.814 866.75L804.416 866.263C805.379 865.52 805.005 865.787 806.232 865.177L805.156 864.134L804.35 863.094L804.62 862.042L803.88 861.162C802.881 859.868 802.54 858.808 801.932 857.34L801.513 856.443C800.894 855.042 801.271 855.866 800.773 854.092C800.322 852.487 799.791 851.789 798.707 850.548C799.934 848.772 800.386 848.75 802.468 847.948C804.207 849.911 804.1 850.505 805.151 852.645L806.757 854.729C806.766 856.7 806.389 856.88 807.737 858.455C808.928 859.849 810.524 862.048 810.524 863.872L808.906 865.699C809.399 867.376 810.24 868.861 811.058 870.402L808.906 873.015C809.542 874.853 809.982 874.976 811.605 876.161L812.142 875.626L811.605 873.015C813.022 871.651 812.21 872.165 814.023 871.453L814.978 871.969L815.272 873.031C816.048 875.741 816.505 877.523 818.59 879.51L826.555 882.557L826.764 885.087C824.032 883.552 821.917 882.766 818.791 882.158C816.808 881.773 818.197 882.126 816.626 881.471C815.154 880.858 813.707 881.067 812.136 881.112C812.139 884.175 812.312 890.202 814.279 892.345C816.384 894.637 817.295 897.727 819.127 900.193L820.203 899.661L819.966 898.778C819.512 897.007 818.802 895.579 819.675 893.912C821.171 897.261 822.874 902.031 825.048 904.885L824.77 906.712C823.565 904.607 823.477 904.388 821.276 903.318L822.082 902.012H819.658C821.223 904.687 820.75 909.037 822.244 911.225C824.544 914.587 827.612 919.991 828.74 923.736C829.268 925.488 830.369 927.125 830.955 928.912C831.549 930.72 832.179 932.269 832.413 934.171C827.1 927.211 823.108 918.247 819.141 910.495C810.884 894.354 803.181 877.731 795.807 861.189C796.008 857.781 796.088 854.761 795.519 851.369C795.246 849.74 796.671 847.557 797.343 846.008Z" fill="#2F2F35"/>
<path d="M952.235 390.475C982.26 419.79 1017.05 436.511 1060.25 436.661C1064.5 436.675 1069.91 435.84 1074 436.578L1077.06 437.825C1075.7 441.482 1075.21 441.926 1072.03 444.336C1069.07 445.518 1068.01 448.688 1065.81 451.021L1064.72 450.084C1066.64 447.34 1068.92 444.791 1069.16 441.463C1059.77 439.796 1049.13 441.051 1039.44 440.117C1013.34 437.6 982.004 424.196 962.462 407.116C957.71 402.967 953.586 397.606 949.534 392.805L952.235 390.475Z" fill="url(#paint7_linear_14_116)"/>
<path d="M919.132 236.306L921.763 234.164L922.932 235.089C922.951 241.787 922.654 248.657 923.499 255.307C923.556 281.356 921.413 307.726 920.767 333.834C920.665 337.897 919.32 345.43 920.216 349.234C920.695 351.259 923.735 354.841 924.973 356.713L922.131 358.72L920.448 359.586C920.12 370.821 919.102 381.826 918.403 393.021C918.054 398.574 918.816 403.737 917.451 409.068L917.259 413.771L916.12 415.601C915.933 411.85 915.041 406.062 916.535 402.67C918.45 398.326 915.792 391.66 916.926 387.125C918.976 378.932 919.075 369.81 919.075 361.004C917.933 361.443 917.795 361.207 917.344 362.087C915.707 365.281 916.604 370.404 915.165 373.673C913.542 377.354 915.836 382.423 914.777 386.082C912.185 395.022 913.701 407.726 913.701 417.428H912.48C910.419 399.912 912.755 378.517 915.927 361.108L905.613 372.881L904.377 367.566C907.142 363.537 912.59 357.797 913.908 353.174C916.384 344.497 915.292 331.793 915.649 322.685C916.78 293.886 917.179 265.073 919.132 236.306Z" fill="url(#paint8_linear_14_116)"/>
<path d="M1118.6 701.451L1125.18 698.175C1120.56 710.742 1112.25 721.303 1107.03 733.517C1089.92 773.564 1079.84 813.285 1077.45 856.599C1076.83 867.713 1076 880.021 1077.95 890.989C1078.17 892.2 1078.15 893.276 1078.03 894.495C1089.82 907.905 1105.75 925.063 1111.32 941.88C1104.57 937.314 1101.3 931.373 1096.49 925.052C1091.08 917.958 1085.35 911.059 1080.14 903.839C1078.74 901.913 1072.98 892.417 1071.47 892.085C1069.18 891.582 1062.62 893.209 1059.97 893.516C1049.85 894.685 1039.73 894.878 1029.66 896.603L1005.57 903.098C1003.87 902.678 1001.96 902.678 1000.21 902.534L999.832 900.509C1022.52 891.7 1044.06 891.283 1067.91 889.06L1050.74 865.699L1052.07 865.44L1061.2 876.41C1061.77 877.448 1061.69 877.993 1062.67 878.823C1064.1 880.037 1065.03 880.647 1065.71 882.439C1066.15 883.614 1066.5 884.379 1067.33 885.358C1068.95 887.26 1067.66 888.434 1069.53 890.256L1071.68 888.166L1065.23 878.761L1063.89 876.934C1062.85 874.955 1062.31 874.297 1060.54 872.796L1059.87 872.231C1059.86 869.401 1056.62 867.807 1055.29 865.44C1054.36 863.773 1054.09 863.136 1052.61 861.732C1051.7 860.876 1050.55 859.996 1049.93 858.907C1048.72 856.802 1050 858.292 1048.88 856.957L1043.74 850.222L1042.94 849.243L1043.2 846.931L1071.6 884.341C1072.86 837.224 1077.06 791.016 1095.86 747.009C1099.2 739.19 1102.51 730.906 1106.5 723.394C1110.24 716.343 1116.66 709.008 1118.6 701.451Z" fill="#252530"/>
<path d="M772.54 466.878L772.389 461.838C773.574 460.688 774.491 460.003 774.901 458.374C775.258 456.948 775.597 455.75 776.095 454.354C782.398 468.528 793.304 482.492 801.395 496.001C802.358 496.851 803.291 497.346 803.703 498.545C804.127 499.767 804.897 500.524 805.682 501.546C807.745 504.229 808.986 507.23 811.057 509.905C813.03 512.455 814.276 515.293 815.944 518.013C820.277 525.099 827.216 533.258 830.049 540.737L830.503 541.845C811.96 532.338 793.155 524.928 773.101 519.022L773.002 518.16C768.584 501.179 774.997 484.102 772.54 466.878Z" fill="#0D0813"/>
<path d="M772.54 466.878L772.389 461.838C773.574 460.688 774.491 460.003 774.901 458.374C775.258 456.948 775.597 455.75 776.095 454.354C782.398 468.528 793.304 482.492 801.395 496.001L801.004 496.391L799.783 496.322C797.706 494.254 797.505 492.355 795.92 490.198L784.736 472.287L778.287 462.36H777.214C779.148 467.164 781.363 471.417 784.552 475.553C786.31 477.829 786.684 478.247 786.349 481.106C782.021 475.36 779.286 467.862 774.526 462.641L772.54 466.878Z" fill="#252530"/>
<path d="M735.269 693.135L752.324 705.681L759.067 709.693L759.084 709.781C757.912 714.347 762.627 718.138 760.556 721.511L761.307 721.953C762.517 722.736 762.096 722.453 763.043 723.852L761.632 724.646C762.804 726.364 762.694 726.722 762.694 728.817L761.632 729.871L762.061 730.454C763.601 732.706 764.317 734.52 764.845 737.176C765.368 739.808 767.962 742.095 770.218 743.444L768.072 744.227L769.69 745.535L770.579 745.016C773.154 752.672 780.901 765.14 780.169 772.708L780.976 771.667C782.035 773.032 782.095 773.708 782.508 775.319C786.308 790.09 797.494 807.494 796.011 822.859L794.935 823.902C794.941 826.229 794.275 828.484 796.011 830.172L793.865 830.956L793.871 837.497C796.3 836.817 797.981 835.413 799.145 833.15C799.753 831.967 799.513 832.261 799.247 830.697C798.196 830.354 797.703 830.512 797.23 829.437C796.627 828.07 796.773 826.925 796.828 825.475L798.333 825.51L799.247 829.137L802.468 829.118L806.769 824.483C807.002 826.034 807.148 825.989 806.493 827.562C808.392 827.562 807.451 827.776 809.275 826.778L807.996 830.221C807.057 832.7 806.568 834.324 806.769 836.964L805.682 836.443L805.151 837.748L803.808 839.037C802.537 840.204 802.705 840.656 801.926 841.929L800.309 843.756L799.778 845.064L798.185 847.525L797.343 846.008C796.671 847.557 795.246 849.74 795.519 851.369C796.088 854.761 796.008 857.781 795.808 861.189L772.04 808.055C772.139 806.493 772.243 805.169 772.615 803.642C772.829 802.754 773.055 802.35 772.909 801.443C772.769 800.555 772.348 800.049 772.361 799.033C772.568 783.577 762.691 766.152 758.237 751.008L735.269 693.135Z" fill="#282B3F"/>
<path d="M735.269 693.135L752.324 705.681C749.488 719.248 759.964 738.168 765.227 750.342C767.211 754.93 767.902 759.93 769.668 764.603C774.133 776.426 779.633 787.065 782.58 799.445C783.364 802.74 784.764 806.983 784.2 810.329L784.659 810.886C787.273 814.708 788.665 822.177 789.546 826.748L785.955 820.27C782.577 815.331 780.634 808.368 780.057 802.475C778.588 787.458 769.431 771.678 764.864 757.027L764.383 755.489C763.307 752.841 760.718 752.094 758.237 751.008L735.269 693.135Z" fill="#252530"/>
<path d="M758.236 751.009C760.718 752.095 763.307 752.841 764.383 755.489L764.864 757.027C769.431 771.678 778.587 787.458 780.056 802.476C780.634 808.369 782.577 815.332 785.955 820.27L789.545 826.748L792.448 837.638C792.698 838.869 792.588 838.417 793.334 839.714C795.664 839.476 797.243 838.575 799.246 837.497L800.308 839.053L797.343 846.008C796.671 847.557 795.246 849.74 795.519 851.369C796.088 854.761 796.008 857.781 795.807 861.189L772.039 808.056C772.138 806.493 772.243 805.169 772.614 803.642C772.829 802.754 773.054 802.35 772.909 801.443C772.768 800.555 772.347 800.049 772.361 799.033C772.568 783.577 762.691 766.152 758.236 751.009Z" fill="#434253"/>
<path d="M832.413 934.171C832.179 932.269 831.549 930.72 830.955 928.912C830.369 927.125 829.268 925.488 828.74 923.736C827.612 919.991 824.544 914.587 822.244 911.225C820.75 909.037 821.224 904.687 819.658 902.012H822.082L821.276 903.318C823.477 904.388 823.565 904.607 824.77 906.712L825.048 904.885C822.874 902.031 821.171 897.261 819.675 893.912C818.803 895.579 819.512 897.007 819.966 898.778L820.203 899.661L819.127 900.193C817.295 897.727 816.384 894.637 814.28 892.345C812.312 890.202 812.139 884.175 812.136 881.112C813.707 881.067 815.154 880.858 816.626 881.471C818.197 882.126 816.808 881.773 818.792 882.158C821.917 882.766 824.033 883.552 826.765 885.087L826.556 882.557C841.495 887.875 856.822 899.225 868.694 909.435C881.184 920.234 894.41 931.469 904.141 944.785L901.092 948.065C905.913 954.215 913.787 961.724 917.377 968.28C918.384 970.12 917.812 974.275 917.806 976.361C917.784 984.095 916.609 993.468 919.655 1000.75L919.083 1002.72L914.359 1001.54C876.535 990.434 851.053 967.761 832.413 934.171Z" fill="url(#paint9_linear_14_116)"/>
<path d="M826.556 882.557C841.495 887.875 856.822 899.225 868.694 909.435C867.227 910.62 866.955 910.706 866.465 912.466C857.821 906.207 849.435 899.685 840.152 894.281C835.75 891.721 830.187 890.587 826.124 887.645C829.706 886.767 834.355 889.555 837.69 891.17L840.083 892.345V891.301C835.69 888.91 831.527 886.724 826.765 885.087L826.556 882.557Z" fill="#282B3F"/>
<path d="M868.693 909.435C881.184 920.234 894.409 931.469 904.14 944.785L901.092 948.065L866.465 912.466C866.955 910.706 867.227 910.62 868.693 909.435Z" fill="#252530"/>
<path d="M917.652 232.222C918.566 229.959 923.411 226.444 925.356 224.614L927.15 226.856L963.62 266.906L967.343 264.905C979.082 274.861 990.098 285.422 1002.98 294.046C1024.1 307.172 1045.02 318.223 1069.22 325.207C1072.06 325.964 1090.18 329.672 1091.04 330.774C1102.66 332.197 1114.33 333.296 1125.94 334.776C1126.71 334.875 1127.73 334.588 1128.26 335.15L1130.33 338.51C1134.56 338.866 1138.62 339.104 1142.67 340.49C1143.77 342.089 1144.63 343.413 1146.13 344.708L1093.72 415.817C1089.11 423.048 1082.37 430.469 1079.16 438.322L1077.06 437.825L1074 436.578C1069.91 435.84 1064.5 436.675 1060.25 436.661C1017.05 436.511 982.26 419.79 952.236 390.475C941.877 379.978 933.821 368.366 924.973 356.713C923.735 354.841 920.695 351.259 920.217 349.234C919.32 345.43 920.665 337.897 920.767 333.834C921.413 307.726 923.557 281.356 923.499 255.307C922.654 248.657 922.951 241.787 922.932 235.089L921.763 234.164L919.133 236.306C918.761 234.897 918.192 233.578 917.652 232.222Z" fill="#0D0716"/>
<path d="M917.652 232.222C918.566 229.959 923.411 226.444 925.356 224.614L927.15 226.856C921.735 233.498 925.832 246.966 923.499 255.307C922.654 248.657 922.951 241.787 922.932 235.089L921.763 234.164L919.133 236.306C918.761 234.897 918.192 233.578 917.652 232.222Z" fill="#434253"/>
<path d="M1074 436.578C1079.04 429.401 1084.06 420.635 1090.29 414.48L1093.72 415.817C1089.11 423.048 1082.37 430.469 1079.16 438.322L1077.06 437.825L1074 436.578Z" fill="#252530"/>
<path d="M1091.04 330.774C1102.66 332.197 1114.33 333.296 1125.94 334.776C1126.71 334.875 1127.73 334.588 1128.26 335.15L1130.33 338.51C1117.68 339.58 1102.75 336.341 1090.21 334.452C1090.18 332.681 1090.17 332.312 1091.04 330.774Z" fill="#46424D"/>
<path d="M967.343 264.905C979.082 274.861 990.098 285.422 1002.98 294.046L1005.33 298.356L1004.56 299.527C990.109 292.647 974.669 278.202 963.62 266.906L967.343 264.905Z" fill="#46424D"/>
<path d="M1142.67 340.49C1143.77 342.089 1144.63 343.413 1146.13 344.708L1093.72 415.817L1090.29 414.48C1102.26 395.434 1116.53 377.415 1129.85 359.217C1133.44 354.303 1138.88 349.071 1141.79 343.922C1142.45 342.747 1142.51 341.795 1142.67 340.49Z" fill="#46424D"/>
<path d="M1002.98 294.046C1024.1 307.172 1045.02 318.223 1069.22 325.207C1072.06 325.964 1090.18 329.672 1091.04 330.774C1090.17 332.312 1090.18 332.681 1090.21 334.452L1064.71 328.618C1049.16 323.284 1034.73 317.212 1020.36 309.24C1015.03 306.284 1009.14 303.5 1004.56 299.527L1005.33 298.356L1002.98 294.046Z" fill="#434253"/>
<path d="M690.71 503.558L702.65 504.716L768.675 517.786L773.101 519.022C793.155 524.928 811.96 532.338 830.504 541.845C837.25 545.935 848.274 551.89 852.725 558.267C878.871 579.116 897.469 616.905 903.591 648.489C892.165 676.242 874.105 702.206 844.92 714.463C822.594 723.839 793.978 723.836 771.437 715.161L759.084 709.781L759.067 709.693L752.324 705.681L735.269 693.135C731.973 689.596 729.227 686.635 724.765 684.471C720.985 678.227 715.422 673.123 711.174 667.169C704.868 658.328 702.158 643.484 699.431 633.065C693.951 615.894 689.483 598.285 685.268 580.79C682.976 571.278 679.815 560.875 679.328 551.122C678.72 539.036 680.803 526.522 680.86 514.322C684.745 511.037 684.748 508.75 685.964 503.881L690.71 503.558Z" fill="url(#paint10_linear_14_116)"/>
<path d="M690.71 503.558L702.65 504.716L768.675 517.786L773.101 519.022C793.155 524.928 811.96 532.338 830.504 541.845C837.25 545.935 848.274 551.89 852.725 558.267L851.606 559.797C849.837 558.162 848.538 556.935 846.331 555.854C845.041 555.223 838.529 549.736 837.935 548.567L836.592 548.562C834.84 547.029 832.487 544.391 830.143 544.381L828.801 543.597L827.741 543.252C826.437 542.773 825.945 542.235 825.04 541.251L823.694 541.246C821.969 540.24 822.77 540.767 821.276 539.684C819.259 539.673 820.145 539.437 818.58 540.208C818.079 542.169 817.914 542.423 816.442 543.854L815.641 542.297C814.519 542.289 813.952 542.634 812.948 543.081C815.487 544.167 818.538 546.392 821.27 546.481L822.352 547.521C824.99 549.827 828.264 550.378 830.949 552.746L837.613 557.758C840.744 559.813 843.357 563.039 845.902 565.727L844.34 566.538C853.43 577.553 862.704 586.116 869.918 598.723C868.853 600.085 869.208 599.448 868.512 601.134L868.028 602.369C857.05 583.556 839.53 560.637 819.402 550.91L803.219 543.49C781.449 534.459 759.92 527.831 736.777 522.868C725.221 520.394 712.976 519.196 701.676 515.796C699.731 527.839 697.34 540.275 697.588 552.486C695.406 568.919 696.201 588.986 700.419 605.036C700.807 606.518 701.448 607.037 700.523 608.182C699.484 609.469 699.305 610.919 698.928 612.478L697.668 613.933L695.805 613.612C696.163 614.709 696.509 615.654 697.035 616.681C698.182 618.92 697.904 621.466 699.184 623.962C699.907 625.374 699.929 627.21 700.103 628.764L701.437 629.547L699.431 633.065C693.951 615.894 689.483 598.285 685.268 580.79C682.976 571.278 679.815 560.875 679.328 551.122C678.72 539.036 680.803 526.522 680.86 514.322C684.745 511.037 684.748 508.75 685.964 503.881L690.71 503.558Z" fill="url(#paint11_linear_14_116)"/>
<path d="M698.928 612.478C697.349 603.937 695.233 595.43 694.413 586.777C691.984 561.132 694.487 536.934 698.325 511.62C708.488 516.355 721.048 517.029 732.078 519.327C764.41 526.06 801.065 535.24 828.685 553.371C834.317 557.068 839.36 562.046 844.34 566.538C853.43 577.553 862.704 586.116 869.918 598.723C868.853 600.085 869.208 599.448 868.512 601.133L868.028 602.369C857.05 583.556 839.531 560.637 819.402 550.91L803.219 543.49C781.449 534.459 759.92 527.83 736.777 522.868C725.222 520.394 712.976 519.196 701.676 515.796C699.731 527.838 697.34 540.275 697.588 552.486C695.406 568.918 696.201 588.986 700.419 605.036C700.807 606.518 701.448 607.037 700.524 608.182C699.484 609.469 699.305 610.919 698.928 612.478Z" fill="#AE0036"/>
<path d="M697.588 552.486C697.34 540.275 699.731 527.839 701.676 515.796C712.975 519.196 725.221 520.394 736.776 522.868C759.92 527.831 781.448 534.459 803.219 543.49L797.29 545.122C796.011 545.539 794.806 546.596 793.87 547.521C795.557 548.532 796.622 549.268 798.616 549.616L801.681 553.529C835.557 572.856 858.173 605.357 867.975 642.2C869.923 649.519 865.48 656.062 861.568 662.396C851.828 678.171 837.169 695.425 817.68 699.742C801.136 703.404 784.709 696.318 771.412 687.389C743.561 668.683 719.741 630.508 713.952 598.336L712.331 581.713L711.264 580.809L711.129 560.583L709.506 559.537L707.352 560.056L705.745 560.062C704.57 562.121 702.556 562.761 701.277 564.625L700.903 565.281L699.296 565.286L698.49 567.196L697.588 552.486Z" fill="url(#paint12_linear_14_116)"/>
<path d="M697.588 552.486C697.34 540.275 699.731 527.839 701.676 515.796C712.975 519.196 725.221 520.394 736.776 522.868C759.92 527.831 781.448 534.459 803.219 543.49L797.29 545.122C796.011 545.539 794.806 546.596 793.87 547.521C795.557 548.532 796.622 549.268 798.616 549.616L801.681 553.529C773.393 541.366 744.733 533.542 714.293 528.259L712.331 581.713L711.264 580.809L711.129 560.583L709.506 559.537L707.352 560.056L705.745 560.062C704.57 562.121 702.556 562.761 701.277 564.625L700.903 565.281L699.296 565.286L698.49 567.196L697.588 552.486Z" fill="#EE3D83"/>
<path d="M1172.47 503.948L1180.77 503.328C1183.76 507.11 1185.06 513.131 1186.45 517.74C1191.24 533.662 1194.02 549.688 1195.82 566.158L1197.21 575.395L1196.35 586.646C1192.93 618.048 1179.32 641.269 1161.05 666.42L1158.02 670.24C1151.49 676.288 1144.93 682.293 1137.96 687.876C1135.19 690.099 1126.58 695.363 1125.18 698.174L1118.6 701.451L1084.49 715.61C1054.93 724.641 1019.98 723.932 992.37 709.827C971.48 699.159 956.186 684.109 943.852 664.753C941.299 660.746 937.466 655.257 936.347 650.645C933.466 638.779 944.953 618.882 950.959 608.463C962.646 588.195 978.499 568.49 997.735 554.514C1015.56 541.556 1039.69 531.854 1061 526.009C1095.41 515.092 1131.31 509.132 1167.16 504.799L1172.47 503.948Z" fill="url(#paint13_linear_14_116)"/>
<path d="M1157.39 515.432L1168.81 513.337C1176.04 530.8 1178.62 548.482 1180.44 567.1C1181.16 590.69 1177.56 619.291 1163.57 639.308C1161.67 634.932 1164.27 637.503 1164.92 633.723C1163.37 634.582 1163.37 634.772 1161.48 634.772C1175.98 613.257 1179.09 585.34 1176.13 560.257C1175.09 545.568 1171.15 530.578 1166.96 516.472L1156.58 517.674L1157.39 515.432Z" fill="#AE0036"/>
<path d="M1061.38 535.31L1157.39 515.432L1156.58 517.674C1137.92 520.3 1119.74 524.316 1101.33 528.21C1092.66 530.043 1082.33 531.273 1074.18 534.703L1069.82 535.623C1063.88 537.054 1057.99 539.694 1052.25 541.794C1025.61 551.547 1002.71 565.195 986.158 588.363C976.914 601.299 969.571 616.202 961.257 629.737C961.205 628.491 961.072 627.466 961.592 626.287L962.063 625.369L963.139 622.756C963.909 621.461 964.641 621.14 965.037 619.604C965.375 618.286 965.076 618.831 965.876 617.743L972.812 607.083C975.398 603.568 980.939 595.939 981.14 591.669C978.499 594.136 977.467 597.07 975.076 599.553L973.885 600.813C972.955 602.086 972.496 603.035 971.249 604.076L970.124 604.991L970.113 606.558L965.824 610.218L965.816 611.785C963.273 613.155 963.007 615.134 961.513 617.315C960.506 618.783 959.521 620.038 959.075 621.777C958.783 622.908 958.478 623.398 957.765 624.323H956.206C960.052 613.618 967.373 607.016 973.995 598.199C977.228 593.892 979.445 588.893 982.821 584.696C986.566 580.047 991.697 575.97 996.178 571.995C1008.52 561.051 1020.48 552.449 1035.77 545.678C1043.91 542.075 1052.95 539.948 1060.73 535.684L1061.38 535.31Z" fill="#B3002E"/>
<path d="M1156.58 517.674L1166.96 516.472C1171.15 530.578 1175.09 545.568 1176.13 560.257L1175.62 559.428C1174.23 557.071 1173.6 555.704 1173.54 553.002C1173.52 551.857 1173.59 552.467 1173.11 551.226C1172.34 549.255 1172.5 546.994 1172.44 544.905L1170.56 545.943L1168.93 544.91C1166.62 546.406 1164.75 545.863 1162.22 547.521L1162.5 555.88L1163.56 556.926C1163.33 559.403 1162.84 560.979 1161.81 563.258L1154.74 527.416C1128.9 530.492 1102.27 536.219 1077.5 543.958C1065.73 547.636 1054.47 552.384 1042.83 556.375L1042.29 555.511C1043.13 554.361 1043.56 553.807 1044.93 553.216L1046.17 552.751C1048.44 551.839 1051.24 551.376 1053.24 550.078L1053.95 549.61C1056.08 548.934 1057.64 547.85 1059.59 547.219L1060.4 547.01C1061.73 546.521 1062.76 545.999 1064.2 545.785C1066.38 545.461 1067.98 545.269 1069.94 544.242C1071.14 543.618 1071.65 543.337 1073.03 543.073C1074.35 542.818 1075.11 542.554 1076.32 542.011L1078.14 541.256C1080.37 540.962 1080.07 541.018 1081.89 539.694L1084.04 540.208L1080.28 535.237C1077.91 535.05 1077.43 534.753 1075.46 535.978L1074.18 534.703C1082.33 531.273 1092.66 530.043 1101.33 528.21C1119.74 524.316 1137.92 520.3 1156.58 517.674Z" fill="url(#paint14_linear_14_116)"/>
<path d="M1172.47 503.948L1180.77 503.328C1183.76 507.11 1185.06 513.131 1186.45 517.74C1191.24 533.662 1194.02 549.688 1195.82 566.158L1193.97 566.508C1192.63 562.878 1193.87 557.641 1191.53 554.835L1191.66 553.976C1191.92 552.216 1192.36 550.745 1191.51 549.078C1189.27 547.626 1187.71 548.037 1185.05 548.043C1183.29 549.479 1182.61 550.656 1180.23 550.656L1180.77 551.611C1182.49 554.955 1180.27 559.47 1181.3 562.672C1182.01 564.866 1182.34 564.647 1182.1 567.418L1180.44 567.1C1178.62 548.482 1176.04 530.8 1168.81 513.337L1157.39 515.432L1061.38 535.31L1062.03 533.416C1063.99 533.087 1065.56 532.608 1067.38 531.848V530.27L1061 526.009C1095.41 515.092 1131.31 509.132 1167.16 504.799L1172.47 503.948Z" fill="url(#paint15_linear_14_116)"/>
<path d="M1042.83 556.375C1054.47 552.384 1065.73 547.636 1077.5 543.958C1102.27 536.219 1128.9 530.492 1154.74 527.416L1161.81 563.258C1162.44 575.47 1163.06 588.735 1160.47 600.724C1153.48 633.105 1127.2 666.149 1098.64 683.885C1078.07 696.66 1053.29 704.825 1028.76 699.188C1007.27 694.253 987.471 676.044 976.265 658.189C973.926 654.462 969.271 648.401 970.512 644.268C979.038 615.916 999.562 585.677 1023.63 567.752C1029.56 563.333 1036.31 559.893 1042.83 556.375Z" fill="url(#paint16_linear_14_116)"/>
<path d="M1253.42 665.716L1254.46 664.483L1256.31 666.422C1239.1 720.877 1216.29 773.642 1189.41 824.226C1181.12 839.818 1172.78 856.307 1162.65 870.83L1154.9 883.491C1118.95 938.737 1079.49 987.141 1010.42 1002.12C981.5 1008.39 951.869 1007.84 922.662 1003.83C924.203 993.428 919.894 979.692 924.632 969.794L925.966 966.809L925.213 962.355C927.625 957.286 933.142 952.57 937.002 948.405C956.018 927.896 974.157 912.803 999.832 900.509L1000.21 902.534C1001.96 902.678 1003.87 902.678 1005.57 903.098L1029.66 896.603C1039.73 894.878 1049.85 894.685 1059.97 893.516C1062.62 893.209 1069.18 891.582 1071.47 892.085C1072.98 892.417 1078.74 901.913 1080.14 903.839C1085.35 911.059 1091.08 917.958 1096.49 925.052C1101.3 931.373 1104.57 937.314 1111.32 941.88C1105.75 925.063 1089.82 907.905 1078.03 894.495C1078.15 893.276 1078.17 892.2 1077.95 890.989C1076 880.021 1076.83 867.713 1077.45 856.599C1079.84 813.285 1089.92 773.564 1107.03 733.517C1112.25 721.303 1120.56 710.742 1125.18 698.175C1126.58 695.363 1135.19 690.099 1137.96 687.876C1144.93 682.293 1151.49 676.288 1158.02 670.24C1179.39 670.625 1200.84 669.897 1222.19 669.132C1232.29 668.771 1244.53 671.304 1253.42 665.716Z" fill="#000001"/>
<path d="M999.832 900.509L1000.21 902.534C1001.96 902.678 1003.87 902.678 1005.57 903.098C970.388 914.571 949.187 940.754 925.966 966.809L925.212 962.355C927.625 957.286 933.142 952.57 937.002 948.405C956.018 927.895 974.157 912.803 999.832 900.509Z" fill="#282B3F"/>
<path d="M1154.9 883.491C1144.22 859.177 1195.5 748.807 1208.94 724.258C1213.41 716.094 1218.63 708.144 1223.33 700.084C1225.9 695.684 1227.82 690.754 1230.55 686.495C1233.36 682.119 1237.43 679.326 1239.06 674.223L1239.29 673.433L1241.49 672.401L1243.09 673.433C1240.8 679.088 1235.33 682.13 1232.65 687.293C1229.5 693.357 1227.58 699.959 1224.24 706.138C1220.21 713.609 1214.86 720.136 1210.7 727.377C1207.25 733.412 1205.09 740.747 1201.93 747.047C1197.99 754.917 1192.74 762.506 1189.11 770.378C1186.7 775.616 1185.57 781.399 1183.58 786.808C1174.86 810.621 1165.88 833.513 1162.35 858.773C1161.94 861.74 1160.66 866.999 1162.02 869.714L1162.65 870.83L1154.9 883.491Z" fill="#2F2F35"/>
<path d="M1214.54 253.935C1216.36 255.203 1216.96 255.66 1217.7 257.73C1218.34 259.549 1218.87 259.943 1220.41 261.088C1223.79 263.599 1225.62 267.681 1227.61 271.253L1227.51 271.547C1228.95 274.184 1230.35 276.546 1232.27 278.876C1236.49 283.999 1240.21 289.285 1243.11 295.172L1244.18 296.74C1245.68 299.035 1247.12 302.735 1249.5 304.222C1250.89 304.393 1251.63 304.281 1252.78 305.099L1252.95 305.979C1253.41 307.796 1254.49 309.096 1255.54 310.618C1256.16 311.527 1255.96 311.217 1256.24 312.314C1256.74 314.261 1257.92 315.751 1258.42 317.701C1258.9 319.592 1260.27 320.764 1260.84 322.859C1261.3 324.595 1261.92 326.029 1262.79 327.596C1263.62 329.11 1263.69 330.006 1263.53 331.745L1265.18 334.032C1265.87 335.038 1265.65 334.805 1265.91 336.084C1266.63 339.623 1268.65 342.012 1271.68 344.047C1292.44 405.045 1299.25 474.199 1287.12 537.696L1286.94 537.787C1285.35 556.504 1280.95 575.569 1276.6 593.847C1270.79 618.326 1264.24 642.409 1256.51 666.385L1256.31 666.422L1254.46 664.483L1253.42 665.716C1244.53 671.304 1232.28 668.771 1222.19 669.132C1200.84 669.897 1179.39 670.625 1158.02 670.24L1161.05 666.42C1179.31 641.269 1192.93 618.048 1196.35 586.646L1197.21 575.395L1195.82 566.158C1194.02 549.688 1191.24 533.662 1186.45 517.74C1185.06 513.131 1183.76 507.11 1180.76 503.328L1172.47 503.948L1167.16 504.799L1154.89 442.744C1153.69 440.716 1153.47 433.127 1153.11 430.485C1149.83 406.749 1147.39 383.049 1147.8 359.073C1147.88 354.87 1147.45 348.499 1150.67 345.478L1152.39 349.614L1152.49 349.189C1152.99 345.107 1153.46 341.354 1151.05 337.758L1205.5 265.608C1206 262.291 1212.19 256.599 1214.54 253.935Z" fill="#0D0813"/>
<path d="M1219.39 355.584L1223.02 351.987L1224.85 364.602C1222.68 366.119 1222.43 366.402 1221.39 368.786L1219.39 355.584Z" fill="#434253"/>
<path d="M1234.79 414.932C1235.43 417.505 1237.61 429.95 1239.01 431.14L1243.48 449.41C1242.45 449.884 1240.34 450.491 1239.77 451.408L1231.51 419.073L1232.4 418.824L1233.96 418.99C1234.52 417.618 1234.65 416.395 1234.79 414.932Z" fill="#434253"/>
<path d="M1221.39 368.786C1222.43 366.402 1222.68 366.119 1224.85 364.602L1234.79 414.932C1234.65 416.395 1234.52 417.618 1233.96 418.99L1232.4 418.824L1231.51 419.073L1221.39 368.786Z" fill="#46424D"/>
<path d="M1158.48 436.573C1159.85 446.398 1168.2 499.617 1172.47 503.948L1167.16 504.799L1154.89 442.744C1155.73 441.733 1155.45 442.23 1155.96 440.896L1156.32 439.901C1156.4 441.936 1156.28 443.049 1157.39 444.857L1158.48 436.573Z" fill="#46424D"/>
<path d="M1210.22 279.101L1210.56 270.616L1213.01 267.751C1215.1 269.356 1215.13 270.129 1215.4 272.743C1216.17 280.061 1214.45 288.156 1216.61 295.229L1223.02 351.987L1219.39 355.585L1210.22 279.101Z" fill="#46424D"/>
<path d="M1243.48 449.41C1248.63 466.407 1253.42 483.658 1259.14 500.473C1265.48 519.097 1274.29 536.061 1276.77 555.757C1265.85 532.191 1256.97 507.396 1249.08 482.735C1245.8 472.503 1241.69 461.961 1239.77 451.408C1240.34 450.491 1242.45 449.884 1243.48 449.41Z" fill="#46424D"/>
<path d="M1154.89 442.744C1153.69 440.717 1153.47 433.128 1153.11 430.485C1149.83 406.749 1147.39 383.049 1147.8 359.073C1147.88 354.87 1147.45 348.499 1150.67 345.479L1152.39 349.614C1152.45 372.413 1154.79 395.584 1156.54 418.332C1156.92 423.31 1159.16 431.948 1158.48 436.573L1157.39 444.857C1156.28 443.049 1156.4 441.936 1156.32 439.901L1155.96 440.896C1155.45 442.231 1155.73 441.733 1154.89 442.744Z" fill="#434253"/>
<path d="M1197.22 575.395C1203.08 583.77 1206.91 594.133 1211.75 603.199C1218.44 615.763 1226.2 627.916 1232.52 640.643C1237.52 648.288 1244.22 663.319 1253.42 665.716C1244.53 671.304 1232.29 668.771 1222.19 669.132C1200.84 669.897 1179.39 670.625 1158.02 670.239L1161.05 666.419C1179.32 641.269 1192.93 618.047 1196.35 586.646L1197.22 575.395Z" fill="#000001"/>
<path d="M1197.21 575.395C1203.08 583.77 1206.91 594.133 1211.75 603.199C1218.44 615.763 1226.2 627.916 1232.52 640.643L1229.21 643.647C1217.87 624.636 1203.77 603.289 1198.06 582.004L1196.35 586.646L1197.21 575.395Z" fill="#46424D"/>
<path d="M1232.52 640.643C1237.52 648.288 1244.22 663.319 1253.42 665.716C1244.53 671.304 1232.29 668.771 1222.19 669.132C1200.84 669.897 1179.39 670.625 1158.02 670.239L1161.05 666.42L1242.52 664.852L1229.21 643.647L1232.52 640.643Z" fill="#2F2F35"/>
<path d="M1214.54 253.935C1216.36 255.203 1216.96 255.66 1217.7 257.73C1218.34 259.549 1218.87 259.943 1220.41 261.088C1223.79 263.599 1225.62 267.681 1227.61 271.253L1227.51 271.547C1228.95 274.184 1230.35 276.546 1232.27 278.876C1236.49 283.999 1240.21 289.285 1243.11 295.172L1244.18 296.74C1245.68 299.035 1247.12 302.735 1249.51 304.222C1250.89 304.393 1251.63 304.281 1252.78 305.099L1252.95 305.979C1253.41 307.796 1254.49 309.096 1255.54 310.618C1256.16 311.527 1255.96 311.217 1256.24 312.314C1256.74 314.261 1257.92 315.751 1258.42 317.701C1258.9 319.592 1260.27 320.764 1260.84 322.859C1261.31 324.595 1261.92 326.029 1262.79 327.596C1263.62 329.11 1263.69 330.006 1263.53 331.745L1265.18 334.032C1265.87 335.038 1265.65 334.805 1265.91 336.084C1266.63 339.623 1268.65 342.012 1271.68 344.047C1292.44 405.045 1299.25 474.199 1287.12 537.696L1286.94 537.787L1285.05 541.74C1282.43 545.049 1282.99 551.494 1281.78 555.881C1278.61 552.36 1278.95 550.993 1277.64 546.77L1276.4 541.775C1276.18 540.638 1276.01 539.515 1275.63 538.418C1273.71 532.865 1271.7 527.138 1269.47 521.707L1267.28 516.178L1264.58 508.859L1263.52 507.814C1263.58 505.74 1263.31 504.595 1262.44 502.707L1261.63 500.781L1260 496.434L1259.75 495.538C1259.12 493.577 1258.86 490.742 1257.87 489.006C1256.83 487.189 1255.72 483.792 1255.98 481.692C1254.53 480.264 1254.92 480.424 1254.91 478.557L1253.85 477.511C1253.83 474.989 1252.82 473.121 1252.23 470.719C1251.84 469.122 1251.9 468.33 1250.98 466.899L1250.35 466.017L1250.61 464.449L1249.24 460.875L1249 460.009C1248 456.566 1247.32 454.881 1245.79 451.911C1245.14 450.657 1245.44 447.749 1244.98 446.173L1244.16 443.552C1243.6 440.995 1242.23 438.756 1242.03 436.188C1241.85 433.871 1240.48 432.914 1239.01 431.14C1237.61 429.95 1235.43 417.505 1234.79 414.932L1224.85 364.602L1223.02 351.987L1216.61 295.229C1214.45 288.156 1216.17 280.061 1215.4 272.742C1215.13 270.129 1215.1 269.356 1213.01 267.751L1210.56 270.616L1210.22 279.101C1209.3 274.107 1209.17 269.385 1205.5 265.608C1206.01 262.291 1212.19 256.599 1214.54 253.935Z" fill="url(#paint17_linear_14_116)"/>
<path d="M1214.54 253.935C1216.36 255.203 1216.96 255.66 1217.7 257.73C1218.34 259.549 1218.87 259.943 1220.41 261.088C1223.79 263.599 1225.62 267.681 1227.61 271.253L1227.51 271.547C1228.95 274.184 1230.35 276.546 1232.27 278.876C1236.49 283.999 1240.21 289.285 1243.11 295.172L1244.18 296.74C1245.68 299.035 1247.12 302.735 1249.51 304.222L1249.01 309.28C1250.25 311.514 1250.32 312.437 1252.77 313.459L1253.75 316.037L1254.12 316.856C1253.04 318.6 1254.1 320.098 1253.85 322.332H1251.7L1250.62 323.375L1250.04 321.842L1249.23 319.724C1247.25 313.362 1242.93 311.313 1239.28 306.102C1235.9 301.274 1233.04 295.715 1229.86 290.718C1227.37 286.818 1224.17 283.421 1221.92 279.366C1221.17 278.026 1220.45 276.798 1219.53 275.559C1217.41 272.702 1218.36 267.962 1216.24 264.87C1216.33 262.928 1216.57 260.935 1215.71 259.124C1215.02 257.682 1215.46 258.19 1213.81 257.551C1212.44 259.771 1211 261.449 1209.07 263.244L1208.44 263.819L1210.32 265.916L1213.01 265.927L1214.08 264.881C1214.88 265.763 1216.68 267.433 1217.03 268.527C1217.9 271.228 1216.85 274.644 1216.72 277.41C1216.46 283.322 1216.61 289.309 1216.61 295.229C1214.45 288.156 1216.17 280.061 1215.4 272.742C1215.13 270.129 1215.1 269.356 1213.01 267.751L1210.56 270.616L1210.22 279.101C1209.3 274.107 1209.17 269.385 1205.5 265.608C1206.01 262.291 1212.19 256.599 1214.54 253.935Z" fill="#2F2F35"/>
<path d="M386.875 494.418C389.503 493.263 392.496 492.056 395.322 491.483C406.678 489.172 416.101 495.934 424.431 501.037C426.848 501.105 430.697 501.633 433.021 501.036C437.926 499.772 444.008 492.715 449.211 490.257C456.432 486.845 466.064 487.011 472.617 490.482C476.415 492.494 480.236 495.871 484.303 497.318C487.368 498.407 491.126 497.302 494.181 498.378C496.145 499.071 497.261 500.259 497.793 502.129C498.379 504.195 497.358 506.067 496.101 507.841C494.587 508.652 493.105 509.327 491.393 509.644C481.789 511.413 474.025 506.464 466.982 501.902C454.754 494.854 447.091 508.933 435.6 512.093C424.915 515.031 418.709 512.918 410.338 507.682C406.872 505.513 403.105 502.93 398.501 503.164C392.732 503.458 386.892 509.263 382.25 512.283C378.241 514.89 373.692 516.338 368.926 516.695C365.435 516.956 359.952 516.921 357.51 514.634C355.391 512.649 355.661 510.967 356.029 508.376C356.945 507.171 357.968 505.562 359.376 504.795C361.822 503.461 367.338 505.174 370.042 505.616L386.875 494.418Z" fill="#B10028"/>
<path d="M430.348 255.083C433.219 255.098 436.444 255.213 439.259 255.838C450.573 258.348 456.429 268.359 461.962 276.41C464.142 277.455 467.444 279.503 469.81 279.903C474.805 280.744 483.232 276.773 488.984 276.644C496.969 276.465 505.7 280.536 510.274 286.373C512.925 289.756 515.041 294.395 518.168 297.372C520.524 299.613 524.407 300.133 526.76 302.359C528.272 303.792 528.808 305.331 528.533 307.256C528.228 309.381 526.534 310.676 524.664 311.784C522.951 311.91 521.322 311.924 519.63 311.516C510.136 309.225 505.057 301.545 500.48 294.512C492.178 283.099 479.449 292.842 467.667 291.053C456.711 289.39 451.901 284.934 446.385 276.745C444.101 273.354 441.711 269.462 437.41 267.803C432.02 265.724 424.324 268.651 418.854 269.521C414.132 270.271 409.387 269.743 404.889 268.13C401.593 266.948 396.598 264.685 395.298 261.602C394.17 258.927 395.101 257.5 396.492 255.283C397.819 254.556 399.408 253.502 401.006 253.374C403.784 253.15 408.126 256.96 410.415 258.463L430.348 255.083Z" fill="#B10028"/>
<path d="M551.037 62.5168C553.309 64.2718 555.802 66.3219 557.658 68.5285C565.123 77.3929 563.696 88.9029 563.202 98.6591C564.3 100.814 565.679 104.446 567.316 106.201C570.774 109.903 579.881 111.865 584.529 115.256C590.982 119.963 595.446 128.499 595.535 135.914C595.587 140.212 594.451 145.183 595.127 149.447C595.638 152.659 598.407 155.429 598.925 158.627C599.256 160.683 598.747 162.231 597.36 163.594C595.827 165.097 593.695 165.097 591.536 164.842C590.098 163.901 588.796 162.924 587.699 161.572C581.548 153.987 582.177 144.8 582.811 136.433C583.146 122.324 567.117 122.335 558.842 113.758C551.148 105.783 550.033 99.3225 550.623 89.4661C550.868 85.3846 551.333 80.841 548.923 76.9115C545.904 71.9866 538.012 69.6377 533.138 67.0076C528.93 64.7356 525.481 61.4353 522.887 57.4213C520.987 54.4811 518.393 49.6499 519.232 46.411C519.96 43.601 521.566 43.0324 524.017 42.1157C525.514 42.3435 527.416 42.471 528.764 43.3398C531.106 44.8494 532.242 50.5125 533.148 53.0972L551.037 62.5168Z" fill="#B10028"/>
</g>
<defs>
<linearGradient id="paint0_linear_14_116" x1="830.413" y1="209.489" x2="820.615" y2="197.843" gradientUnits="userSpaceOnUse">
<stop stop-color="#2B3045"/>
<stop offset="1" stop-color="#43495C"/>
</linearGradient>
<linearGradient id="paint1_linear_14_116" x1="706.821" y1="446.687" x2="693.613" y2="444.641" gradientUnits="userSpaceOnUse">
<stop stop-color="#211F33"/>
<stop offset="1" stop-color="#36384A"/>
</linearGradient>
<linearGradient id="paint2_linear_14_116" x1="889.521" y1="383.991" x2="781.527" y2="295.073" gradientUnits="userSpaceOnUse">
<stop stop-color="#100617"/>
<stop offset="1" stop-color="#25293E"/>
</linearGradient>
<linearGradient id="paint3_linear_14_116" x1="855.13" y1="422.652" x2="768.827" y2="381.155" gradientUnits="userSpaceOnUse">
<stop stop-color="#1A1325"/>
<stop offset="1" stop-color="#444357"/>
</linearGradient>
<linearGradient id="paint4_linear_14_116" x1="1144.23" y1="333.834" x2="1059.88" y2="105.596" gradientUnits="userSpaceOnUse">
<stop stop-color="#09000D"/>
<stop offset="1" stop-color="#2C3146"/>
</linearGradient>
<linearGradient id="paint5_linear_14_116" x1="943.255" y1="152.02" x2="940.102" y2="139.877" gradientUnits="userSpaceOnUse">
<stop stop-color="#2F3248"/>
<stop offset="1" stop-color="#464C60"/>
</linearGradient>
<linearGradient id="paint6_linear_14_116" x1="1197.96" y1="250.24" x2="1189.98" y2="127.864" gradientUnits="userSpaceOnUse">
<stop stop-color="#100617"/>
<stop offset="1" stop-color="#2A2E42"/>
</linearGradient>
<linearGradient id="paint7_linear_14_116" x1="963.675" y1="405.933" x2="993.35" y2="370.491" gradientUnits="userSpaceOnUse">
<stop stop-color="#1B1523"/>
<stop offset="1" stop-color="#342F3E"/>
</linearGradient>
<linearGradient id="paint8_linear_14_116" x1="905.64" y1="369.363" x2="847.336" y2="290.972" gradientUnits="userSpaceOnUse">
<stop stop-color="#241D2C"/>
<stop offset="1" stop-color="#504F63"/>
</linearGradient>
<linearGradient id="paint9_linear_14_116" x1="916.389" y1="970.193" x2="845.802" y2="992.749" gradientUnits="userSpaceOnUse">
<stop/>
<stop offset="1" stop-color="#262434"/>
</linearGradient>
<linearGradient id="paint10_linear_14_116" x1="832.562" y1="716.276" x2="784.798" y2="538.838" gradientUnits="userSpaceOnUse">
<stop stop-color="#C7002D"/>
<stop offset="1" stop-color="#E81B6B"/>
</linearGradient>
<linearGradient id="paint11_linear_14_116" x1="696.075" y1="611.785" x2="675.359" y2="508.904" gradientUnits="userSpaceOnUse">
<stop stop-color="#DC115C"/>
<stop offset="1" stop-color="#F65A9F"/>
</linearGradient>
<linearGradient id="paint12_linear_14_116" x1="820.739" y1="696.422" x2="756.357" y2="517.019" gradientUnits="userSpaceOnUse">
<stop stop-color="white"/>
<stop offset="1" stop-color="white"/>
</linearGradient>
<linearGradient id="paint13_linear_14_116" x1="1007.74" y1="714.187" x2="1083.45" y2="508.637" gradientUnits="userSpaceOnUse">
<stop stop-color="#CC0036"/>
<stop offset="1" stop-color="#EB2767"/>
</linearGradient>
<linearGradient id="paint14_linear_14_116" x1="1161.42" y1="546.999" x2="1161.78" y2="518.749" gradientUnits="userSpaceOnUse">
<stop stop-color="#EA3A74"/>
<stop offset="1" stop-color="#F459A9"/>
</linearGradient>
<linearGradient id="paint15_linear_14_116" x1="1171.09" y1="506.246" x2="1171.34" y2="550.194" gradientUnits="userSpaceOnUse">
<stop stop-color="#FA5BA4"/>
<stop offset="1" stop-color="#EC3973"/>
</linearGradient>
<linearGradient id="paint16_linear_14_116" x1="1010.96" y1="689.109" x2="1116.89" y2="509.7" gradientUnits="userSpaceOnUse">
<stop stop-color="white"/>
<stop offset="1" stop-color="white"/>
</linearGradient>
<linearGradient id="paint17_linear_14_116" x1="1278.56" y1="552.224" x2="1350.24" y2="519.935" gradientUnits="userSpaceOnUse">
<stop/>
<stop offset="1" stop-color="#24222B"/>
</linearGradient>
<clipPath id="clip0_14_116">
<rect width="1920" height="1080" fill="white"/>
</clipPath>
</defs>
</svg>
