<svg width="1920" height="1080" viewBox="0 0 1920 1080" fill="none" xmlns="http://www.w3.org/2000/svg">
<g clip-path="url(#clip0_14_455)">
<path d="M687.551 859.008L689.619 856.021L691.238 856.47L691.917 859.279L689.649 863.379L688.998 865.429L686.529 874.624L677.864 855.535C679.79 857.104 682.07 858.301 682.817 860.602L684.446 860.11L687.551 859.008Z" fill="#484859"/>
<path d="M1153.39 240.249C1170.74 262.867 1187.67 285.697 1198.88 311.596C1189.23 306.09 1189.36 300.859 1183.74 292.869C1177.75 284.349 1170.58 276.273 1164.05 268.074C1157.83 260.279 1154.79 254.129 1146.67 247.491C1147.97 244.766 1151.15 242.376 1153.39 240.249Z" fill="#555262"/>
<path d="M564.057 497.61C561.156 487.828 561.922 473.819 562.217 463.616C563.457 420.912 569.333 378.718 586.537 338.747C588.119 342.12 590.266 344.763 592.319 347.862L589.033 347.96C588.484 349.261 588.376 349.869 588.37 351.282C588.364 353.339 587.025 355.19 586.54 357.287C584.408 366.463 580.672 375.078 578.327 384.159C578.263 392.83 575.257 400.217 573.593 408.592C571.181 420.739 568.95 433.597 567.62 445.889C565.932 461.503 569.541 478.878 564.859 494.187L564.057 497.61Z" fill="#717786"/>
<path d="M564.858 494.187C562.911 484.483 561.454 464.079 564.78 455.168C565.597 452.985 563.975 449.166 564.792 446.98C565.965 443.842 566.082 440.9 567.135 437.72C567.756 435.85 567.144 431.704 567.144 429.619C567.147 426.609 568.968 418.285 570.668 415.912L569.501 414.809L570.668 413.731C570.635 412.095 570.59 410.666 570.936 409.053L571.859 404.996C572.519 401.783 573.65 398.818 574.796 395.731C575.338 394.268 575.679 392.9 575.984 391.37C576.487 388.816 577.346 386.58 578.326 384.159C578.263 392.83 575.257 400.217 573.593 408.592C571.181 420.738 568.95 433.597 567.62 445.889C565.932 461.502 569.541 478.878 564.858 494.187Z" fill="#686D7D"/>
<path d="M614.066 699.28C617.826 701.614 621.254 703.816 624.423 706.856C626.745 711.901 631.164 718.45 632.199 723.696C634.623 735.114 641.681 747.537 646.044 758.72C649.948 768.728 652.948 778.996 656.904 789.001C662.092 805.492 671.354 820.095 669.223 837.632L614.066 699.28Z" fill="#626575"/>
<path d="M578.327 384.159C580.672 375.078 584.408 366.463 586.539 357.287C587.025 355.19 588.364 353.339 588.37 351.282C588.376 349.869 588.484 349.261 589.033 347.96L592.319 347.862C593.507 349.827 595.129 351.779 595.271 354.048C596.543 356.016 597.695 358.219 599.414 359.875L599.043 360.698C599.884 361.639 601.204 363.607 602.314 364.149L597.834 425.47L589.603 475.528L587.154 489.721L585.707 497.484L584.118 503.157C583.928 505.851 583.98 508.662 583.012 511.214C579.946 513.092 576.765 512.612 573.261 512.478L572.3 512.353C568.878 511.755 568.685 511.471 565.471 513.084L564.057 497.61L564.859 494.187C569.541 478.878 565.932 461.502 567.62 445.889C568.95 433.597 571.181 420.738 573.593 408.592C575.257 400.217 578.263 392.83 578.327 384.159Z" fill="#484859"/>
<path d="M578.327 384.159C580.672 375.078 584.408 366.463 586.539 357.287C587.025 355.19 588.364 353.339 588.37 351.282C588.376 349.869 588.484 349.261 589.033 347.96L592.319 347.862C593.507 349.827 595.129 351.779 595.271 354.048C584.957 363.038 584.152 387.777 579.849 400.089C576.593 409.404 575.637 420.063 574.449 429.761C572.173 448.309 570.91 466.91 571.22 485.586C571.365 494.464 572.673 503.511 572.3 512.353C568.878 511.755 568.685 511.471 565.471 513.084L564.057 497.61L564.859 494.187C569.541 478.878 565.932 461.502 567.62 445.889C568.95 433.597 571.181 420.738 573.593 408.592C575.257 400.217 578.263 392.83 578.327 384.159Z" fill="#626575"/>
<path d="M579.288 483.467C576.792 473.132 577.769 460.612 578.067 450.115C578.338 440.517 580.217 431.364 581.809 421.922C582.837 415.831 583.376 409.441 585.146 403.503C589.542 388.749 595.222 376.968 596.323 361.424L599.042 360.698C599.884 361.639 601.204 363.607 602.314 364.149L597.833 425.47L589.602 475.528L587.154 489.721L585.707 497.484L584.118 503.157C583.928 505.851 583.979 508.662 583.012 511.214L580.235 510.683C577.214 503.866 579.204 491.125 579.288 483.467Z" fill="url(#paint0_linear_14_455)"/>
<path d="M579.288 483.467L580.078 474.788C582.306 472.691 580.467 471.206 583.111 468.794C584.172 470.787 585.264 472.672 585.978 474.799C583.98 477.658 585.158 482.278 585.342 485.692L586.253 486.231L586.862 481.058L588.324 480.24C588.007 478.456 587.377 477.566 588.375 475.949L589.602 475.528L587.154 489.721L585.707 497.484L584.118 503.157C583.928 505.851 583.979 508.662 583.012 511.214L580.235 510.683C577.214 503.866 579.204 491.125 579.288 483.467Z" fill="#433F4F"/>
<path d="M583.111 468.794C584.172 470.787 585.264 472.672 585.978 474.799C583.979 477.658 585.158 482.278 585.342 485.692L586.253 486.231L586.862 481.058L588.324 480.24C588.007 478.456 587.377 477.566 588.375 475.949L589.602 475.528L587.154 489.721L585.707 497.484L584.118 503.157C579.927 493.799 583.28 479.031 583.111 468.794Z" fill="#26273A"/>
<path d="M689.649 863.38L691.929 864.706L699.029 869.546L699.336 872.824L700.22 871.738C702.379 874.747 700.325 876.62 704.335 878.82L705.18 882.874C705.843 885.925 706.416 887.324 708.991 889.409L711.876 890.311C715.087 899.629 715.37 900.344 724.952 904.827C734.175 909.143 742.207 914.188 750.579 919.78C752.886 921.318 757.571 923.844 759.07 926.061L759.495 927.311L760.523 929.835L759.691 932.049L776.43 946.652C776.915 948.791 777.304 950.809 778.266 952.808C780.766 958.003 778.302 964.77 781.471 969.326C784.212 973.265 786.009 978.033 788.608 982.129C790.359 984.89 793.19 986.975 793.706 990.23C794.11 992.787 793.392 989.077 794.74 992.226C795.509 994.027 795.934 995.769 796.787 997.675L797.384 1000.41L797.96 1002.59L797.445 1003.23C795.985 1005.26 795.497 1007.32 795.021 1009.67C794.089 1014.27 794.207 1014.86 790.323 1017.73L789.159 1017.59C787.712 1017.47 786.889 1017.62 785.526 1017.99L782.912 1016.92C763.264 1007.24 747.962 987.662 736.385 970.493C732.248 964.363 727.409 957.735 724.913 950.873C719.923 944.681 716.516 936.144 712.958 929.157C703.781 911.134 695.191 892.862 686.529 874.624L688.998 865.429L689.649 863.38Z" fill="url(#paint1_linear_14_455)"/>
<path d="M689.649 863.38L691.929 864.706L699.029 869.546L699.336 872.824L700.22 871.738C702.379 874.747 700.325 876.62 704.335 878.82L705.18 882.874C705.843 885.925 706.416 887.324 708.991 889.409L711.876 890.311C715.087 899.629 715.37 900.344 724.952 904.827C734.175 909.143 742.207 914.188 750.579 919.78C752.886 921.318 757.571 923.844 759.07 926.061L759.495 927.311L760.523 929.835L759.691 932.049C746.509 923.515 734.057 912.047 717.592 909.894L715.997 911.53C716.227 914.808 716.854 916.321 718.72 919.068C723.224 925.701 727.867 936.234 730.677 943.701H729.073L724.952 935.522L723.185 934.977C722.033 932.487 720.993 932.415 718.476 931.158L717.885 932.806L718.431 933.534C719.193 934.595 719.498 935.477 719.866 936.68C720.423 938.509 721.828 940.162 722.585 942.065L723.481 943.668C724.849 946.099 724.843 948.207 724.913 950.873C719.923 944.681 716.516 936.144 712.958 929.157C703.781 911.134 695.191 892.862 686.529 874.624L688.998 865.429L689.649 863.38Z" fill="url(#paint2_linear_14_455)"/>
<path d="M689.649 863.38L691.929 864.706L699.029 869.546L699.336 872.824L700.22 871.738C702.379 874.747 700.325 876.62 704.335 878.82L705.179 882.874C705.843 885.925 706.416 887.324 708.99 889.409L708.469 899.529H706.702C704.739 899.278 703.44 898.147 702.255 896.81L700.829 895.174C699.243 893.691 698.583 893.504 697.82 891.43C696.665 888.29 694.211 882.422 691.965 879.906C690.186 877.916 690.792 875.42 690.786 872.818L691.965 871.727L690.798 870.649L691.727 869.546L688.998 865.429L689.649 863.38Z" fill="#26273A"/>
<path d="M846.903 119.872L851.856 117.843C857.624 115.481 866.347 115.484 872.621 114.861C912.533 110.908 955.521 114.769 993.179 128.253L996.959 129.989C1006.54 131.463 1020.09 137.398 1028.29 142.189C1077.6 163.126 1115.96 198.435 1150.37 236.279L1153.39 240.249C1151.15 242.376 1147.97 244.766 1146.67 247.49C1145.04 249.774 1143.35 252.859 1141.12 254.637C1139.61 253.571 1138.05 252.772 1136.4 251.912L1134.41 251.67C1129.62 250.291 1124.66 250.103 1119.69 249.715C1111.48 249.615 1102.93 247.666 1094.8 246.424C1056.6 240.587 1021.22 229.638 986.006 215.079C977.051 211.377 965.682 207.399 958.34 201.336C927.358 184.552 900.657 163.902 872.895 143.091C872.027 141.365 868.107 138.688 866.531 137.289C859.991 131.483 853.451 125.671 846.903 119.872Z" fill="url(#paint3_linear_14_455)"/>
<path d="M1058.81 235.101C1059.83 230.107 1064.25 227.98 1068.26 225.076C1072.88 224.97 1074.59 224.998 1078.86 226.55C1080.82 227.265 1083.25 226.958 1085.36 227.65C1087.25 228.276 1089.25 228.245 1091.24 228.337L1091.9 228.77C1093.36 229.666 1092.77 229.289 1094.59 230.062C1097.92 231.469 1100.6 234.428 1103.89 236.243C1106.28 237.563 1107.21 238.903 1110.07 239.786C1111.73 239.023 1111.1 239.621 1111.84 237.879L1113.93 238.401L1114.11 238.808L1121.56 243.797L1121.4 245.282C1101.14 245.394 1078.52 239.093 1058.81 235.101Z" fill="#140F20"/>
<path d="M958.943 197.802C967.449 200.685 975.188 206.04 983.422 209.647C1007.54 220.207 1032.86 229.375 1058.82 235.101C1078.52 239.093 1101.14 245.394 1121.4 245.282L1121.13 246.203L1119.69 249.715C1111.48 249.615 1102.93 247.666 1094.8 246.424C1056.6 240.587 1021.22 229.638 986.006 215.079C977.051 211.377 965.682 207.399 958.34 201.336L958.943 197.802Z" fill="#433F4F"/>
<path d="M846.903 119.872L851.856 117.843C857.624 115.481 866.347 115.484 872.621 114.861C912.533 110.908 955.521 114.769 993.179 128.253L996.959 129.989C1006.54 131.463 1020.09 137.398 1028.29 142.189C1077.6 163.126 1115.96 198.435 1150.37 236.279L1153.39 240.249C1151.15 242.376 1147.97 244.766 1146.67 247.49C1145.04 249.774 1143.35 252.859 1141.12 254.637C1139.61 253.571 1138.05 252.772 1136.4 251.912L1134.41 251.67C1129.62 250.291 1124.66 250.103 1119.69 249.715L1121.13 246.204L1121.4 245.282L1121.56 243.797L1114.11 238.808C1118.18 239.531 1119.22 239.163 1123.03 237.332L1119.49 237.05C1117.89 235.47 1116.35 233.831 1114.28 232.764L1113.02 232.147C1112.33 228.546 1105.2 223.756 1103.09 220.222L1102.42 219.06L1099.91 217.966C1097.56 216.802 1095.6 215.392 1094.77 213.069C1093.33 212.329 1092.12 211.894 1091.19 210.607C1090.42 209.541 1089.56 208.748 1088.29 208.156C1081.92 205.18 1077.7 198.421 1071.95 194.351C1069.98 192.964 1068.16 191.459 1066.03 190.303L1064.73 189.616C1063.93 185.859 1061.99 186.336 1060.68 183.612C1060.22 182.668 1060.37 180.024 1060.28 178.882C1057.92 174.293 1019.48 156.689 1012.32 153.322C1008.84 151.681 1004.4 151.6 1002.19 148.582C985.795 143.297 969.547 138.194 952.416 135.383C931.175 131.896 909.488 132.309 887.988 132.739C882.549 132.848 873.89 131.622 869.365 134.554C896.886 157.191 926.01 182.085 958.943 197.802L958.34 201.336C927.358 184.552 900.657 163.902 872.895 143.091C872.027 141.365 868.107 138.688 866.531 137.289C859.991 131.483 853.451 125.671 846.903 119.872Z" fill="#545E75"/>
<path d="M862.825 122.963C872.889 119.733 882.314 119.618 892.779 118.934C908.912 117.879 926.333 117.644 942.243 120.389L950.598 121.229C952.075 121.466 953.209 121.491 954.683 121.5C956.812 121.508 957.397 121.832 959.32 122.569C961.325 123.337 963.795 123.669 965.947 123.797C967.69 123.901 968.353 124.146 969.921 124.749C972.903 125.894 974.965 125.975 978.164 125.841L978.903 126.349C981.17 127.748 984.354 127.915 986.992 128.136C989.175 128.317 988.288 128.166 990.191 128.8C992.434 129.545 994.605 129.738 996.959 129.989C1006.54 131.463 1020.09 137.398 1028.29 142.189C1023.97 142.348 1020.4 141.184 1016.2 140.556C1014.59 140.316 1013.16 140.29 1011.76 139.428C1010.24 138.487 1006.31 138.928 1004.31 138.931C991.756 133.752 979.699 131.226 966.387 128.582C942.804 123.901 921.503 121.438 897.356 122.019C885.73 122.301 874.279 125.179 862.825 122.963Z" fill="#717786"/>
<path d="M1002.19 148.582C1004.54 148.124 1006 148.607 1008.19 149.28C1011.92 150.43 1016.15 151.359 1019.68 152.928C1025.29 155.421 1030.97 159.198 1036.75 160.971C1038.45 161.493 1039.95 162.551 1041.43 163.464C1044.05 165.08 1047.01 166.178 1049.68 167.825C1051.94 169.223 1054.24 170.094 1056.48 171.641C1060.64 174.497 1065.32 176.479 1069.44 179.273L1071.13 180.298C1075.27 182.805 1078.2 186.428 1082.39 188.539L1083.46 189.29C1084.59 190.077 1085.24 190.398 1086.48 190.926C1088.32 191.716 1089.2 192.645 1090.59 193.966C1095.47 198.603 1102.71 203.204 1107.83 207.659C1115.8 214.591 1122.25 222.226 1129.81 229.211C1133.76 232.851 1142.92 239.495 1144.11 244.219L1148.11 239.085L1150.37 236.279L1153.39 240.249C1151.15 242.376 1147.97 244.766 1146.67 247.49C1145.04 249.774 1143.35 252.859 1141.12 254.637C1139.61 253.571 1138.05 252.772 1136.4 251.912L1134.41 251.67C1129.62 250.291 1124.66 250.103 1119.69 249.715L1121.13 246.204L1145.21 246.039C1139.04 241.011 1132.47 236.533 1126.5 231.235C1115.87 221.813 1106.3 211.802 1095.25 202.665C1091.68 199.717 1087.72 195.56 1083.29 193.96C1080.18 192.835 1079.14 190.691 1076.6 188.812C1071.46 185.007 1066.24 181.495 1060.28 178.882C1057.92 174.293 1019.48 156.689 1012.32 153.322C1008.84 151.68 1004.4 151.6 1002.19 148.582Z" fill="#555262"/>
<path d="M1150.37 236.279L1153.39 240.249C1151.15 242.376 1147.97 244.766 1146.67 247.49C1145.04 249.774 1143.35 252.859 1141.12 254.637C1139.61 253.571 1138.05 252.772 1136.4 251.912L1134.41 251.67C1133.03 250.022 1132.75 250.011 1132.84 247.965L1141.87 247.423L1144.11 244.219L1148.11 239.085L1150.37 236.279Z" fill="#717786"/>
<path d="M1060.28 178.882C1066.23 181.495 1071.46 185.007 1076.6 188.812C1079.14 190.691 1080.18 192.835 1083.29 193.96C1087.72 195.56 1091.68 199.717 1095.25 202.665C1106.3 211.802 1115.87 221.813 1126.5 231.235C1132.47 236.533 1139.04 241.011 1145.21 246.039L1121.13 246.203L1121.4 245.282L1121.56 243.797L1114.11 238.808C1118.18 239.531 1119.22 239.163 1123.03 237.332L1119.49 237.05C1117.88 235.47 1116.35 233.831 1114.28 232.764L1113.02 232.147C1112.33 228.546 1105.2 223.756 1103.09 220.221L1102.42 219.06L1099.91 217.966C1097.56 216.802 1095.6 215.392 1094.77 213.069C1093.33 212.329 1092.12 211.894 1091.19 210.607C1090.42 209.541 1089.56 208.748 1088.29 208.156C1081.92 205.18 1077.7 198.421 1071.95 194.351C1069.98 192.964 1068.16 191.459 1066.03 190.303L1064.73 189.616C1063.93 185.859 1061.99 186.336 1060.68 183.612C1060.22 182.668 1060.37 180.024 1060.28 178.882Z" fill="#26273A"/>
<path d="M1004.31 138.931C1006.31 138.928 1010.24 138.487 1011.76 139.428C1013.16 140.29 1014.59 140.316 1016.2 140.556C1020.4 141.184 1023.97 142.348 1028.29 142.189C1077.6 163.126 1115.96 198.435 1150.37 236.279L1148.11 239.085L1145.99 236.519C1143.1 230.872 1134.49 226.863 1130.08 221.246C1123.48 212.851 1114.66 206.472 1106.86 199.242C1104.56 197.104 1099.7 191.3 1096.84 190.426C1094.62 189.748 1093.2 187.989 1091.23 186.908C1082.08 181.892 1073.87 173.592 1064.54 168.185C1044.89 156.795 1024.8 148.618 1004.31 138.931Z" fill="#686D7D"/>
<path d="M846.903 119.872L851.856 117.843C857.624 115.481 866.347 115.484 872.621 114.861C912.533 110.908 955.521 114.769 993.179 128.253L996.959 129.989C994.605 129.738 992.434 129.545 990.191 128.8C988.288 128.166 989.175 128.317 986.992 128.136C984.354 127.915 981.17 127.748 978.903 126.349L978.164 125.841C974.965 125.975 972.903 125.894 969.921 124.749C968.353 124.146 967.69 123.901 965.947 123.797C963.794 123.669 961.325 123.337 959.32 122.569C957.397 121.832 956.812 121.508 954.683 121.5C953.209 121.491 952.075 121.466 950.598 121.229L942.243 120.389C926.333 117.645 908.912 117.879 892.779 118.934C882.314 119.618 872.889 119.733 862.825 122.963L858.625 123.264L858.384 124.21C860.482 126.234 867.022 133.886 869.365 134.554C896.886 157.191 926.01 182.085 958.943 197.802L958.34 201.336C927.358 184.552 900.657 163.902 872.895 143.091C872.027 141.365 868.107 138.688 866.531 137.289C859.991 131.483 853.451 125.671 846.903 119.872Z" fill="#757E8D"/>
<path d="M821.845 124.493L829.681 122.237L830.392 133.939L830.947 147.719L833.682 147.219L833.836 155.38C832.446 169.218 831.375 183.023 830.7 196.906C830.398 203.064 829.47 210.476 830.817 216.52C830.314 218.312 830.26 219.764 828.816 221.095C827.628 222.296 823.325 225.858 823.078 227.19L814.175 235.827C764.605 293.193 697.262 357.052 613.897 364.978L611.268 365.143C610.707 363.507 610.005 363.311 608.621 362.239C605.506 361.153 604.873 359.702 602.911 357.27L599.413 359.875C597.695 358.219 596.543 356.017 595.271 354.048C595.129 351.779 593.507 349.827 592.319 347.862C590.266 344.763 588.119 342.12 586.536 338.747C595.557 315.222 606.731 293.338 621.272 272.258L626.88 263.749C629.717 259.525 632.364 255.134 636.169 251.58L637.312 249.713C647.744 234.727 660.853 221.559 674.327 208.921C704.796 180.345 737.886 157.295 777.22 140.023C791.077 133.937 806.866 127.48 821.845 124.493Z" fill="#26273A"/>
<path d="M636.791 265.941L639.736 266.918C638.594 281.281 624.722 295.058 617.443 307.414C611.636 317.271 608.263 327.661 601.988 337.538C600.99 339.11 596.896 344.878 596.977 346.502C597.095 348.78 601.78 354.618 602.911 357.27L599.414 359.875C597.695 358.219 596.543 356.016 595.271 354.048C595.129 351.779 593.507 349.827 592.319 347.862L594.825 346.078L593.254 342.293C595.53 337.703 596.736 333.323 600.125 329.205C601.093 328.03 601.786 327.458 602.181 326.006C603.855 319.853 608.833 314.384 610.464 308.388C610.774 307.243 610.557 307.559 611.232 306.618C616.786 298.877 623.754 288.106 626.947 279.296C628.318 275.505 630.706 272.649 632.781 269.187L636.791 265.941Z" fill="#6E7387"/>
<path d="M747.432 189.946L750.202 191.914C726.8 211.112 703.277 229.185 677.254 245.279C669.201 250.26 661.371 255.494 652.706 259.55L639.736 266.918L636.79 265.941L632.78 269.187L621.272 272.258L626.88 263.749C629.717 259.525 632.364 255.134 636.169 251.58C642.829 249.805 646.981 244.478 651.398 239.975L657.808 232.862L659.861 232.974L635.24 262.923C639.139 261.499 653.355 257.113 655.01 253.696C664.715 249.593 673.079 244.185 681.901 238.716C688.473 234.643 695.522 230.676 701.176 225.512C705.378 223.144 708.906 220.288 712.596 217.299L744.112 192.193L747.432 189.946Z" fill="#717786"/>
<path d="M626.88 263.749C630.368 264.908 632.412 264.977 636.027 264.252L636.79 265.941L632.78 269.187L621.272 272.258L626.88 263.749Z" fill="#8B8F9F"/>
<path d="M621.272 272.258L632.78 269.187C630.706 272.649 628.318 275.505 626.946 279.296C623.753 288.106 616.786 298.877 611.232 306.618C610.557 307.559 610.774 307.243 610.463 308.388C608.832 314.384 603.854 319.853 602.181 326.006C601.786 327.458 601.093 328.03 600.125 329.205C596.736 333.323 595.53 337.703 593.254 342.293L594.824 346.078L592.319 347.862C590.266 344.763 588.119 342.12 586.536 338.747C595.557 315.222 606.731 293.338 621.272 272.258Z" fill="#757E8D"/>
<path d="M821.845 124.493L829.681 122.237L830.393 133.939L830.947 147.719L833.682 147.219L833.836 155.38C832.446 169.218 831.376 183.023 830.7 196.906C830.399 203.064 829.47 210.476 830.818 216.52C830.314 218.312 830.26 219.764 828.816 221.095C827.628 222.296 823.325 225.858 823.078 227.19L814.175 235.827L810.641 234.01C814.874 229.007 822.15 222.153 824.32 216.288C826.651 209.979 825.626 200.032 826.027 193.251C827.037 176.158 829.374 158.819 828.707 141.725C824.287 143.213 818.857 145.754 814.166 145.879C815.007 144.662 815.64 143.526 816.228 142.186L813.283 142.175L812.104 143.266L809.454 143.272L808.278 143.816L806.803 143.278L805.04 146.538L799.742 147.965C801.994 144.009 805.805 140.983 809.182 137.837C811.401 134.998 814.184 132.524 817.244 130.464C819.867 128.697 820.675 127.284 821.845 124.493Z" fill="#626575"/>
<path d="M821.845 124.493L829.681 122.237L830.393 133.939C827.893 134.163 825.249 134.032 823.292 135.654C820.778 135.645 820.443 134.908 818.583 134.565C816.593 134.196 811.06 136.918 809.182 137.837C811.401 134.998 814.184 132.524 817.244 130.464C819.867 128.697 820.675 127.284 821.845 124.493Z" fill="#686D7D"/>
<path d="M810.641 234.01L814.175 235.827C764.605 293.193 697.262 357.052 613.897 364.978L611.268 365.142C610.708 363.507 610.005 363.311 608.621 362.239C618.839 360.14 629.307 359.054 639.383 356.371C698.806 340.553 741.881 306.383 782.309 264.707C792.03 254.685 800.876 243.956 810.641 234.01Z" fill="#555262"/>
<path d="M636.169 251.58L637.312 249.713C647.744 234.727 660.853 221.559 674.327 208.921C704.797 180.345 737.886 157.294 777.22 140.022C791.077 133.937 806.867 127.48 821.845 124.492C820.675 127.284 819.867 128.697 817.244 130.464C814.184 132.524 811.401 134.997 809.182 137.837C805.805 140.983 801.994 144.009 799.742 147.965L750.203 191.914L747.432 189.946L744.112 192.193L712.597 217.299C708.906 220.288 705.379 223.144 701.176 225.512C695.523 230.676 688.474 234.643 681.901 238.716C673.079 244.185 664.715 249.593 655.01 253.696C653.355 257.113 639.139 261.499 635.241 262.923L659.861 232.974L657.808 232.862L651.398 239.975C646.981 244.478 642.83 249.805 636.169 251.58Z" fill="#626575"/>
<path d="M721.174 187.732C728.112 184.044 732.878 178.321 739.403 174.259C745.288 170.6 752.274 166.465 758.518 163.456C764.611 160.519 771.187 158.833 777.208 155.617C783.057 152.493 787.782 146.164 794.583 145.435C791.354 149.333 788.388 153.336 784.115 156.315L781.917 155.592C774.045 159.726 754.351 177.107 746.138 175.993L745.557 177.436L725.6 190.337C719.519 192.665 714.318 197.109 708.562 200.155L721.174 187.732Z" fill="#545E75"/>
<path d="M725.6 190.337L745.556 177.436L746.138 175.993C754.351 177.107 774.045 159.726 781.917 155.592L784.115 156.315C781.688 158.693 771.283 170.039 768.769 170.348L747.432 189.946L744.112 192.193L742.029 190.2L737.319 192.009L736.716 191.258L741.025 186.512C737.479 187.802 729.336 192.132 726.203 191.783L725.6 190.337Z" fill="#484859"/>
<path d="M741.025 186.512C748.402 182.671 760.93 170.158 768.769 170.348L747.432 189.946L744.112 192.193L742.029 190.2L737.319 192.009L736.716 191.258L741.025 186.512Z" fill="#433F4F"/>
<path d="M725.6 190.337L726.203 191.783C729.336 192.132 737.479 187.802 741.025 186.512L736.716 191.258L737.319 192.009L742.029 190.2L744.112 192.193L712.596 217.299C708.906 220.288 705.379 223.144 701.176 225.512C695.522 230.676 688.473 234.643 681.901 238.716C673.079 244.185 664.715 249.593 655.01 253.696L652.917 251.781C655.287 246.547 658.637 242.435 661.64 237.552C665.366 231.489 670.302 227.714 675.298 222.692C677.975 220.004 680.098 216.972 683.218 214.663C687.991 211.135 693.861 208.312 698.046 204.222C705.568 196.864 711.197 192.003 721.174 187.732L708.562 200.155C714.318 197.109 719.519 192.665 725.6 190.337Z" fill="url(#paint4_linear_14_455)"/>
<path d="M701.176 225.512C701.785 222.452 704.145 218.103 707.287 216.447C709.175 215.453 710.748 216.626 712.597 217.299C708.906 220.288 705.379 223.144 701.176 225.512Z" fill="#26273A"/>
<path d="M636.169 251.58L637.312 249.713C647.744 234.727 660.853 221.559 674.327 208.921C704.797 180.345 737.886 157.294 777.22 140.022C791.077 133.937 806.867 127.48 821.845 124.492C820.675 127.284 819.867 128.697 817.244 130.464C814.184 132.524 811.401 134.997 809.182 137.837C805.805 140.983 801.994 144.009 799.742 147.965L750.203 191.914L747.432 189.946L768.769 170.348C771.284 170.038 781.688 158.693 784.115 156.315C788.388 153.336 791.354 149.333 794.584 145.436C796.974 143.727 798.398 142.448 799.89 140.006C797.997 139.802 798.009 139.514 796.29 140.478C791.21 143.319 786.739 143.752 781.483 145.765C774.148 148.573 766.698 153.121 759.727 156.703C722.26 175.948 688.278 203.603 659.861 232.974L657.808 232.862L651.398 239.975C646.981 244.478 642.83 249.805 636.169 251.58Z" fill="#757E8D"/>
<path d="M823.078 227.189C824.133 230.341 822.764 232.572 822.324 235.673C821.649 240.447 821.064 249.101 822.198 253.721C820.853 274.288 819.433 295.007 818.637 315.59C818.263 325.224 818.251 334.867 817.717 344.495C817.585 346.913 817.94 351.307 817.162 353.406C815.981 356.606 811.241 361.597 809.046 364.475C794.306 383.827 779.116 400.331 760.351 416.403L745.354 427.564L749.578 429.7C732.746 443.99 713.92 451.039 691.717 455.319C685.078 456.6 677.689 458.317 670.881 458.111L669.171 458.03L666.47 459.121L667.233 463.884L664.887 465.263C664.591 466.72 664.124 468.18 664.323 469.657L659.376 527.936L652.755 526.25L588.71 514.229C586.859 510.965 588.972 504.195 589.572 500.39C588.273 498.391 588.053 498.394 585.707 497.484L587.154 489.721L589.602 475.528L597.833 425.47L602.314 364.149C601.204 363.607 599.884 361.639 599.042 360.698L599.413 359.875L602.911 357.27C604.873 359.702 605.506 361.153 608.621 362.239C610.005 363.311 610.707 363.507 611.268 365.142L613.897 364.978C697.262 357.052 764.605 293.193 814.175 235.827L823.078 227.189Z" fill="url(#paint5_linear_14_455)"/>
<path d="M642.95 422.411C646.04 427.109 649.845 431.994 652.233 437.008C650.807 438.493 650.662 438.798 648.615 439.278L640.236 427.12L642.95 422.411Z" fill="#433F4F"/>
<path d="M652.233 437.008C656.744 441.478 660.03 447.65 663.488 452.879C693.065 452.159 721.421 443.627 745.355 427.564L749.579 429.7C732.746 443.99 713.92 451.039 691.718 455.319C685.079 456.6 677.689 458.317 670.881 458.111L669.171 458.03L666.47 459.121L667.233 463.884L664.887 465.263C664.592 466.72 664.124 468.18 664.323 469.657L659.376 527.936L652.755 526.25L654.808 524.91C657.078 508.813 657.748 492.604 658.93 476.424C659.273 471.7 661.043 464.378 660.295 459.858C660.066 458.471 658.158 455.997 657.389 454.613C654.528 449.468 651.697 444.311 648.615 439.278C650.662 438.798 650.807 438.494 652.233 437.008Z" fill="url(#paint6_linear_14_455)"/>
<path d="M602.911 357.27C604.873 359.701 605.506 361.153 608.621 362.239C610.005 363.311 610.707 363.506 611.268 365.142C609.438 366.985 609.046 367.342 608.476 369.76C622.529 385.527 632.147 404.619 642.95 422.411L640.236 427.12L648.615 439.278C651.696 444.311 654.527 449.467 657.389 454.613C658.157 455.997 660.066 458.471 660.295 459.858C661.043 464.378 659.273 471.7 658.929 476.424C657.747 492.604 657.078 508.813 654.808 524.91L652.755 526.249L588.71 514.229C586.859 510.965 588.972 504.195 589.572 500.39C588.273 498.391 588.053 498.394 585.707 497.484L587.154 489.721L589.602 475.528L597.833 425.47L602.314 364.149C601.204 363.607 599.884 361.639 599.042 360.698L599.413 359.875L602.911 357.27Z" fill="#26273A"/>
<path d="M597.833 425.47L598.934 427.908L601.843 427.299C601.096 450.643 595.078 475.517 590.513 498.467L589.572 500.39C588.273 498.392 588.053 498.394 585.707 497.484L587.154 489.721L589.602 475.528L597.833 425.47Z" fill="#433F4F"/>
<path d="M587.154 489.72C589.31 490.192 589.31 490.575 590.679 492.236C590.501 494.304 590.172 496.406 590.513 498.467L589.572 500.39C588.273 498.391 588.053 498.394 585.707 497.484L587.154 489.72Z" fill="#555262"/>
<path d="M602.911 357.27C604.873 359.701 605.507 361.153 608.621 362.239C610.005 363.311 610.708 363.506 611.268 365.142C609.438 366.985 609.046 367.342 608.476 369.76C622.529 385.527 632.147 404.619 642.95 422.411L640.236 427.12C633.016 414.708 624.857 402.777 617.277 390.558C614.166 385.541 613.201 380.019 608.106 376.354L601.843 427.299L598.934 427.907L597.833 425.47L602.314 364.149C601.204 363.607 599.884 361.639 599.043 360.698L599.413 359.875L602.911 357.27Z" fill="#484859"/>
<path d="M602.911 357.27C604.873 359.701 605.507 361.153 608.621 362.239C610.005 363.311 610.707 363.506 611.268 365.142C609.438 366.985 609.046 367.342 608.476 369.76L607.789 375.34L603.722 373.4L602.314 364.149C601.204 363.607 599.884 361.639 599.042 360.698L599.413 359.875L602.911 357.27Z" fill="#626575"/>
<path d="M843.743 119.465L846.315 119.174L846.903 119.872C853.451 125.671 859.991 131.483 866.531 137.289C868.107 138.688 872.027 141.365 872.895 143.091C900.657 163.902 927.358 184.552 958.34 201.336C965.682 207.399 977.051 211.377 986.006 215.079C1021.22 229.638 1056.6 240.587 1094.8 246.424C1102.93 247.666 1111.48 249.615 1119.69 249.715C1124.66 250.103 1129.62 250.291 1134.41 251.67L1136.4 251.912C1138.05 252.772 1139.61 253.571 1141.12 254.637L1137.43 259.436L1137.47 259.581L1075.31 337.212L1030.12 394.837L1026.46 395.181L1027.44 391.448C1035.74 383.545 1042.4 372.524 1049.27 363.498C1055.32 355.545 1062.12 348.099 1068.1 340.112C1066.06 337.441 1062.04 337.34 1058.65 336.545C1056.96 337.301 1051.87 336.841 1049.78 336.891C1027.79 337.385 1001.98 332.145 980.874 326.665C969.821 324.206 958.925 319.214 948.725 314.666C934.911 308.511 920.387 302.076 908.535 292.975C909.003 290.672 907.755 288.762 906.787 286.699L875.144 260.977C859.307 247.518 847.648 228.479 830.818 216.52C829.47 210.476 830.399 203.064 830.7 196.906C831.376 183.023 832.446 169.218 833.836 155.379L833.682 147.219L830.947 147.719L830.393 133.939L829.681 122.237L843.743 119.465Z" fill="url(#paint7_linear_14_455)"/>
<path d="M985.264 322.98C1002.54 327.547 1020.04 329.822 1037.85 331.704C1044.05 332.357 1050.86 332.137 1056.9 333.385L1071.66 333.549C1067.58 335.473 1061.9 334.099 1058.65 336.545C1056.96 337.301 1051.87 336.841 1049.78 336.891C1027.79 337.385 1001.98 332.145 980.874 326.665C982.216 325.258 983.702 324.169 985.264 322.98Z" fill="#433F4F"/>
<path d="M1056.9 333.385L1071.66 333.549C1067.58 335.473 1061.9 334.099 1058.65 336.545C1056.96 337.301 1051.87 336.841 1049.78 336.891C1048.06 336.062 1048.86 336.383 1046.82 335.699L1045.3 335.194C1048.4 333.34 1053.26 333.613 1056.9 333.385Z" fill="#484859"/>
<path d="M906.787 286.699C929.441 302.146 957.719 316.807 985.264 322.98C983.702 324.169 982.216 325.258 980.874 326.665C969.821 324.205 958.925 319.214 948.725 314.666C934.911 308.511 920.387 302.076 908.535 292.975C909.003 290.672 907.754 288.762 906.787 286.699Z" fill="#39373F"/>
<path d="M1136.4 251.912C1138.05 252.772 1139.6 253.571 1141.12 254.637L1137.43 259.436L1137.47 259.581L1075.31 337.212L1030.12 394.837L1026.46 395.181L1027.44 391.448C1035.74 383.545 1042.4 372.524 1049.27 363.498C1055.32 355.545 1062.12 348.099 1068.1 340.112C1066.06 337.441 1062.03 337.34 1058.65 336.545C1061.9 334.099 1067.58 335.473 1071.66 333.549C1078.09 328.516 1083.46 320.314 1088.37 313.994C1098.31 301.224 1108.51 288.651 1118.54 275.943C1123.81 269.257 1128.53 261.904 1134.8 255.966C1136.04 254.791 1136.02 253.495 1136.4 251.912Z" fill="#626575"/>
<path d="M843.743 119.465L846.315 119.174L846.903 119.872C853.451 125.671 859.991 131.483 866.531 137.289C868.107 138.688 872.027 141.365 872.895 143.091L870.453 143.666L868.623 142.186C867.565 142.744 866.72 143.294 865.765 143.998C864.399 145 863.024 145.701 861.559 146.549L860.718 147.088C857.95 148.791 853.94 150.79 850.675 151.184C847.762 151.535 849.906 151.245 848.037 151.736C844.557 152.646 840.107 150.904 837.427 153.082L833.836 155.379L833.682 147.219L830.947 147.719L830.393 133.939L829.681 122.237L843.743 119.465Z" fill="url(#paint8_linear_14_455)"/>
<path d="M829.681 122.237L843.743 119.465C841.316 122.471 838.904 125.151 835.952 127.728L833.682 147.219L830.947 147.719L830.393 133.939L829.681 122.237Z" fill="#6E7387"/>
<path d="M1194.35 676.687L1196.08 675.47L1200.95 676.921C1175.57 750.63 1143.53 821.541 1101.34 888.457C1069.73 938.587 1033.06 989.962 975.637 1017.26C942.626 1032.95 906.681 1038.23 869.859 1037.77C850.819 1037.54 831.921 1035.9 813.711 1030.51C803.74 1027.56 794.179 1023.44 785.526 1017.99C786.889 1017.62 787.712 1017.47 789.159 1017.59L790.323 1017.73C794.207 1014.86 794.089 1014.27 795.021 1009.67C795.497 1007.32 795.985 1005.26 797.445 1003.23L797.96 1002.59L797.384 1000.41L796.787 997.675C795.934 995.769 795.509 994.027 794.74 992.226C793.393 989.077 794.11 992.787 793.706 990.23C793.191 986.975 790.359 984.89 788.608 982.129C786.009 978.033 784.212 973.265 781.471 969.326C778.302 964.77 780.766 958.003 778.266 952.808C777.304 950.809 776.916 948.791 776.43 946.652L808.247 979.435C811.675 982.949 818.927 990.205 820.766 994.521C821.411 996.04 821.037 999.912 821.134 1001.79C821.504 1009.04 821.357 1016.61 822.331 1023.79C822.774 1027.06 822.858 1027.45 825.647 1029.51C828.484 1026.77 826.962 1000.89 827.281 995.674C833.583 991.012 836.938 984.217 841.982 978.522C850.931 968.416 860.829 958.975 871.725 950.675C895.266 933.096 924.445 920.547 954.828 917.552C964.048 916.645 973.735 917.901 982.789 916.067L983.69 915.868C986.217 915.475 988.412 914.576 990.757 913.669C989.533 911.399 988.599 909.417 987.993 906.941C991.418 902.323 990.055 870.646 990.812 861.936C991.84 850.119 993.604 838.355 995.726 826.666C999.808 804.188 1006.54 782.552 1015.98 761.489C1020.04 752.447 1025.19 743.868 1029.61 734.974C1032.71 728.989 1038.58 721.998 1039.77 715.527C1040.33 714.603 1046.51 712.359 1047.91 711.725L1084.56 682.39L1088.01 678.8L1131.83 677.999L1152.48 679.529L1146.68 680.185L1146.39 681.304L1146.61 681.363C1153.84 681.65 1161.09 681.223 1168.35 681.583C1171.11 681.72 1176.54 682.926 1178.97 682.51C1179.83 682.365 1181.02 680.69 1181.91 680.45C1187 679.082 1190.72 682.153 1195.58 678.719L1194.35 676.687Z" fill="#0B0513"/>
<path d="M1017.95 950.996L1018.57 949.282C1019.99 948.536 1020.37 948.492 1021.94 948.394L1034.45 967.69L1033.88 970.152C1032.27 969.48 1032.13 969.68 1031.2 968.187L1017.95 950.996Z" fill="#39373F"/>
<path d="M1047.91 711.725L1033.39 738.265L1031.47 737.989C1030.01 736.842 1030.16 736.59 1029.61 734.974C1032.71 728.989 1038.58 721.998 1039.77 715.527C1040.33 714.603 1046.51 712.359 1047.91 711.725Z" fill="#26273A"/>
<path d="M1017.95 950.996C1013.56 947.171 1009.83 941.49 1006.21 936.996C1000.92 930.433 992.367 922.253 990.583 914.138C1003.47 923.25 1012.24 936.518 1021.94 948.394C1020.37 948.492 1019.99 948.537 1018.57 949.282L1017.95 950.996Z" fill="#26273A"/>
<path d="M1084.56 682.39L1088.01 678.8L1131.83 677.999L1152.48 679.529L1146.68 680.185L1146.39 681.304L1084.56 682.39Z" fill="#484859"/>
<path d="M1124.16 770.749C1133.11 752.095 1144.06 734.265 1155.01 716.56C1161.79 705.572 1169.52 691.692 1179.43 682.946C1176.04 692.496 1169.79 701.061 1164.47 709.771C1151.8 730.513 1136.97 752.084 1128.08 774.454L1124.16 770.749Z" fill="#26273A"/>
<path d="M1124.16 770.749L1128.08 774.454C1108.92 806.767 1097.87 843.93 1088.17 879.502C1084.1 894.426 1082.55 908.331 1075.79 922.641C1077.16 895.548 1085.96 868.86 1094.58 843.16C1103 818.088 1111.72 794.481 1124.16 770.749Z" fill="#39373F"/>
<path d="M1029.61 734.974C1030.16 736.59 1030.01 736.842 1031.47 737.989L1033.39 738.265C1010.68 782.893 997.746 828.277 995.41 877.67C994.834 889.828 993.941 901.38 996.206 913.454L995.042 913.261C993.399 913.068 992.331 913.3 990.757 913.669C989.533 911.399 988.599 909.417 987.993 906.941C991.418 902.323 990.055 870.646 990.812 861.936C991.84 850.119 993.604 838.355 995.726 826.666C999.808 804.188 1006.54 782.552 1015.98 761.489C1020.04 752.447 1025.19 743.868 1029.61 734.974Z" fill="#24212F"/>
<path d="M1146.67 247.49C1154.79 254.129 1157.83 260.279 1164.05 268.073C1170.58 276.273 1177.75 284.349 1183.74 292.869C1189.36 300.859 1189.23 306.09 1198.88 311.596C1207.1 328.404 1215.88 346.29 1220.2 364.383C1237.92 419.929 1242.05 477.912 1234.16 535.325C1232.83 544.984 1232.14 555.425 1229.35 564.808C1224.67 602.624 1212.05 640.381 1200.95 676.921L1196.08 675.47L1194.35 676.687L1195.58 678.719C1190.72 682.153 1187 679.082 1181.91 680.45C1181.02 680.69 1179.83 682.365 1178.97 682.51C1176.54 682.926 1171.11 681.72 1168.35 681.584C1161.09 681.223 1153.84 681.651 1146.61 681.363L1146.39 681.304L1146.68 680.185L1152.48 679.529L1131.83 677.999L1088.01 678.8C1102.95 660.652 1117.72 641.25 1123.61 618.673C1126.22 608.634 1126.67 597.906 1127.36 587.633L1127.33 582.359L1124.17 558.479C1121.79 546.799 1118.97 535.484 1115.14 524.125C1113.86 520.323 1112.88 515.714 1110.07 512.674L1099.56 513.531L1094.4 514.162C1078.11 516.068 1062.03 518.232 1045.9 521.074C1038.95 522.299 1031.03 523.064 1024.39 525.295L1001.88 529.491C999.26 518.254 998.979 506.284 998.307 494.829C997.463 480.427 996.447 466.067 996.869 451.639C996.962 448.345 996.193 443.544 996.872 440.417C997.574 437.156 1002.62 431.559 1004.7 428.806C1012.81 418.07 1022.34 407.311 1029.4 396.002L1030.12 394.837L1075.31 337.212L1137.47 259.581L1137.43 259.436L1141.12 254.637C1143.35 252.859 1145.03 249.774 1146.67 247.49Z" fill="url(#paint9_linear_14_455)"/>
<path d="M1158.53 365.112L1178.45 451.201C1177.7 453.426 1177.17 456.098 1175.53 457.91C1171.45 447.039 1168.89 435.185 1166.2 423.952C1161.78 405.513 1157.8 387.205 1154.59 368.545L1158.53 365.112Z" fill="#484859"/>
<path d="M1140.99 261.678C1144.86 262.183 1144.58 262.189 1146.78 264.869C1148.44 273.754 1146.38 284.427 1149.27 292.743L1158.53 365.112L1154.59 368.546L1140.99 261.678Z" fill="#433F4F"/>
<path d="M1178.45 451.201C1188.14 481.583 1196.92 513.936 1211.66 542.542C1215.47 552.165 1224.59 567.343 1222.39 577.541C1219.73 575.12 1218.05 568.543 1216.48 565.218C1208.23 547.704 1201.02 529.837 1194.05 511.864C1187.25 494.335 1179.59 476.195 1175.53 457.91C1177.17 456.098 1177.7 453.426 1178.45 451.201Z" fill="#39373F"/>
<path d="M1127.33 582.359C1132.05 587.633 1134.35 594.953 1137.72 601.069C1147.73 619.223 1158.16 636.719 1169.05 654.435C1174.15 662.74 1176.97 670.942 1184.75 677.619C1188.23 677.806 1190.96 677.418 1194.35 676.687L1195.58 678.719C1190.72 682.153 1187 679.082 1181.91 680.45C1181.02 680.69 1179.83 682.365 1178.97 682.51C1176.54 682.926 1171.11 681.72 1168.35 681.584C1161.09 681.223 1153.84 681.651 1146.61 681.363L1146.39 681.304L1146.68 680.185L1152.48 679.529L1131.83 677.999L1088.01 678.8C1102.95 660.652 1117.72 641.25 1123.61 618.673C1126.22 608.634 1126.67 597.906 1127.36 587.633L1127.33 582.359Z" fill="#0B0513"/>
<path d="M1127.33 582.359C1132.05 587.633 1134.35 594.953 1137.72 601.069C1147.73 619.223 1158.16 636.719 1169.05 654.435C1174.15 662.74 1176.97 670.942 1184.75 677.619C1188.23 677.806 1190.96 677.418 1194.35 676.687L1195.58 678.719C1190.72 682.153 1187 679.082 1181.91 680.45C1181.02 680.69 1179.83 682.365 1178.97 682.51C1176.54 682.926 1171.11 681.72 1168.35 681.584C1161.09 681.223 1153.84 681.651 1146.61 681.363L1146.39 681.304L1146.68 680.185L1152.48 679.529L1131.83 677.999C1146.47 675.729 1163.55 676.972 1178.5 676.687C1164.36 657.187 1151.31 637.478 1140.15 616.356C1136.43 609.324 1131.73 601.834 1129.89 594.171C1129.3 591.737 1128.61 589.844 1127.36 587.633L1127.33 582.359Z" fill="#39373F"/>
<path d="M1030.12 394.837L1075.31 337.212C1076.31 339.61 1077.18 340.445 1076.25 342.926C1080.65 373.308 1079.76 404.162 1084.23 434.736C1086.47 450.065 1089.26 465.19 1092.64 480.335C1095.04 491.038 1099.32 502.652 1099.56 513.531L1094.4 514.162C1078.11 516.068 1062.03 518.232 1045.9 521.074C1038.95 522.299 1031.03 523.064 1024.39 525.295L1001.88 529.491C999.26 518.254 998.979 506.284 998.307 494.829C997.463 480.427 996.447 466.067 996.869 451.64C996.962 448.345 996.193 443.544 996.872 440.417C997.574 437.156 1002.62 431.559 1004.7 428.806C1012.81 418.07 1022.34 407.311 1029.4 396.002L1030.12 394.837Z" fill="#0B0513"/>
<path d="M1094.4 514.162C1094.67 508.628 1092.34 502.646 1091.07 497.261C1088.38 485.77 1085.71 474.221 1083.42 462.658C1080 445.383 1077.88 427.949 1075.94 410.485C1074.53 397.707 1069.21 350.933 1076.25 342.926C1080.65 373.308 1079.76 404.162 1084.23 434.736C1086.47 450.065 1089.26 465.19 1092.64 480.335C1095.04 491.038 1099.32 502.651 1099.56 513.531L1094.4 514.162Z" fill="#433F4F"/>
<path d="M1146.67 247.49C1154.79 254.129 1157.83 260.279 1164.05 268.073C1170.58 276.273 1177.75 284.349 1183.74 292.869C1189.36 300.859 1189.23 306.09 1198.88 311.596C1207.1 328.404 1215.88 346.29 1220.2 364.383C1237.92 419.929 1242.05 477.912 1234.16 535.325C1232.83 544.984 1232.14 555.425 1229.35 564.808L1227.05 564.677C1226.94 566.254 1227.05 567.692 1226.07 569.051C1225.07 570.436 1225.32 572.329 1225.19 574.029C1224.09 569.853 1224.4 566.413 1221.94 562.572C1220.39 560.14 1220.52 557.293 1219.03 555.213C1218.29 554.189 1218.5 554.711 1218.17 553.622C1216.79 549.071 1215.31 545.95 1211.66 542.542C1196.92 513.936 1188.14 481.583 1178.45 451.201L1158.53 365.112L1149.27 292.743C1146.38 284.427 1148.44 273.754 1146.78 264.869C1144.58 262.189 1144.86 262.183 1140.99 261.678L1137.47 259.581L1137.43 259.436L1141.12 254.637C1143.35 252.859 1145.03 249.774 1146.67 247.49Z" fill="url(#paint10_linear_14_455)"/>
<path d="M1146.67 247.49C1154.79 254.129 1157.83 260.279 1164.05 268.073C1170.58 276.273 1177.75 284.349 1183.74 292.869C1189.36 300.859 1189.23 306.09 1198.88 311.596C1207.1 328.404 1215.88 346.29 1220.2 364.383L1216.66 361.915C1216.39 360.698 1216.21 359.841 1215.45 358.786L1214.9 358.105C1215.08 356.251 1214.99 355.291 1214.05 353.672L1213.13 352.103C1211.31 347.689 1205.59 344.705 1202.48 340.833C1200.12 337.882 1198.44 333.608 1196.64 330.291L1194.57 330.023L1195.46 331.933C1196.54 334.015 1196.43 335.375 1196.34 337.642L1195.29 336.846C1193.57 331.754 1191.6 325.738 1188.65 321.185C1185.95 317.028 1181.97 313.72 1179.25 309.544C1173.27 300.376 1167.76 290.92 1161.41 281.962C1158.62 278.031 1153.57 273.305 1152.08 268.908L1151.89 268.132C1151.2 265.994 1150.94 263.663 1150.13 261.597C1149.28 259.439 1147.2 255.279 1145.11 254.503C1143.78 255.734 1142.33 256.608 1141.87 258.325L1144.23 258.88C1146.4 260.966 1148.33 262.376 1149.22 265.243L1149.52 266.231C1150.11 267.819 1150.17 267.909 1149.78 269.681C1148.23 276.736 1149.26 285.485 1149.27 292.743C1146.38 284.427 1148.44 273.754 1146.78 264.869C1144.58 262.189 1144.86 262.183 1140.99 261.678L1137.47 259.581L1137.43 259.436L1141.12 254.637C1143.35 252.859 1145.03 249.774 1146.67 247.49Z" fill="#26273A"/>
<path d="M830.818 216.52C847.647 228.479 859.306 247.518 875.144 260.977L906.786 286.699C907.754 288.763 909.002 290.672 908.535 292.975C920.387 302.076 934.91 308.511 948.725 314.666C958.925 319.214 969.821 324.206 980.874 326.665C1001.98 332.145 1027.79 337.385 1049.78 336.891C1051.87 336.841 1056.96 337.301 1058.65 336.545C1062.03 337.34 1066.06 337.441 1068.1 340.112C1062.12 348.099 1055.32 355.545 1049.27 363.498C1042.4 372.524 1035.74 383.545 1027.44 391.448L1026.46 395.181L1030.12 394.837L1029.4 396.002C1022.34 407.311 1012.81 418.07 1004.7 428.806C1002.62 431.559 997.574 437.156 996.872 440.417C996.193 443.544 996.962 448.345 996.869 451.64C996.447 466.067 997.463 480.427 998.307 494.829C998.979 506.284 999.26 518.254 1001.88 529.491L1024.39 525.295C1031.03 523.064 1038.95 522.299 1045.9 521.074C1062.03 518.232 1078.11 516.068 1094.4 514.162L1099.56 513.531L1110.07 512.674C1112.88 515.714 1113.86 520.323 1115.14 524.125C1118.97 535.484 1121.79 546.799 1124.17 558.479L1127.33 582.359L1127.36 587.633C1126.67 597.906 1126.22 608.635 1123.61 618.673C1117.72 641.25 1102.95 660.652 1088.01 678.8L1084.56 682.39L1047.91 711.725C1046.51 712.359 1040.33 714.603 1039.77 715.527C1038.58 721.999 1032.71 728.989 1029.61 734.974C1025.19 743.868 1020.04 752.447 1015.98 761.489C1006.54 782.553 999.808 804.188 995.726 826.666C993.603 838.355 991.84 850.119 990.811 861.936C990.055 870.646 991.417 902.323 987.992 906.941C988.598 909.417 989.533 911.399 990.757 913.669C988.412 914.576 986.217 915.475 983.69 915.869L982.789 916.067C973.735 917.901 964.047 916.645 954.827 917.552C924.445 920.547 895.266 933.096 871.725 950.675C860.829 958.975 850.931 968.416 841.982 978.522C836.938 984.217 833.582 991.012 827.281 995.674C826.961 1000.89 828.484 1026.77 825.647 1029.51C822.858 1027.45 822.774 1027.06 822.33 1023.79C821.356 1016.61 821.504 1009.04 821.133 1001.79C821.037 999.912 821.411 996.04 820.766 994.521C818.926 990.205 811.675 982.95 808.247 979.435L776.43 946.652L759.691 932.049L760.523 929.835L759.495 927.312L759.07 926.061C757.571 923.844 752.886 921.318 750.579 919.78C742.207 914.188 734.175 909.143 724.952 904.828C715.37 900.344 715.087 899.629 711.876 890.311L708.99 889.409C706.416 887.324 705.843 885.925 705.179 882.874L704.335 878.82C700.325 876.62 702.379 874.747 700.22 871.738L699.336 872.824L699.029 869.546L691.929 864.706L689.649 863.38L691.917 859.279L691.238 856.47L689.619 856.021L687.551 859.008L684.445 860.111L682.817 860.602C682.069 858.302 679.79 857.104 677.864 855.535L669.223 837.632C671.354 820.095 662.092 805.492 656.903 789.001C652.948 778.996 649.948 768.728 646.043 758.72C641.681 747.537 634.622 735.114 632.198 723.696C631.164 718.45 626.744 711.901 624.423 706.856C621.254 703.816 617.826 701.614 614.066 699.28C608.892 692.426 601.762 686.41 597.604 678.959C593.251 671.162 591.062 661.333 588.496 652.88C582.915 634.502 577.992 615.929 572.703 597.476C568.615 580.896 562.223 562.248 562.727 545.227C563.04 534.636 567.083 523.567 565.47 513.084C568.684 511.471 568.877 511.755 572.299 512.353L573.261 512.478C576.765 512.612 579.945 513.092 583.012 511.214C583.979 508.662 583.928 505.851 584.118 503.157L585.707 497.484C588.053 498.394 588.273 498.392 589.572 500.39C588.972 504.195 586.859 510.965 588.71 514.229L652.755 526.25L659.376 527.936L664.323 469.657C664.124 468.18 664.592 466.72 664.887 465.263L667.233 463.884L666.47 459.121L669.171 458.03L670.881 458.111C677.689 458.317 685.078 456.6 691.717 455.319C713.92 451.039 732.746 443.99 749.578 429.7L745.354 427.564L760.351 416.403C779.116 400.331 794.306 383.827 809.046 364.475C811.241 361.597 815.981 356.606 817.163 353.406C817.94 351.307 817.585 346.913 817.717 344.495C818.251 334.867 818.263 325.224 818.637 315.59C819.433 295.007 820.853 274.288 822.198 253.722C821.064 249.101 821.649 240.447 822.324 235.673C822.764 232.572 824.133 230.341 823.078 227.19C823.325 225.858 827.628 222.296 828.816 221.095C830.26 219.764 830.314 218.312 830.818 216.52Z" fill="#0B0513"/>
<path d="M760.351 416.403L764.792 418.486L749.579 429.7L745.354 427.564L760.351 416.403Z" fill="#26273A"/>
<path d="M982.24 912.862L983.573 911.795C984.538 906.388 964.238 885.121 959.944 878.815L960.499 877.726L963.445 881.542C966.282 885.735 969.882 890.124 973.195 894.024C974.878 896.006 977.522 897.901 978.478 900.255L978.755 901.17C980.504 902.362 981.495 902.985 982.638 904.738C983.543 906.128 984.242 906.893 985.527 907.987L985.231 906.078L984.354 904.986C982.982 902.703 984.486 904.414 983.163 902.893L971.688 888.289L970.804 887.268L971.1 884.912L987.993 906.941C988.599 909.417 989.534 911.399 990.758 913.669C988.412 914.576 986.217 915.475 983.69 915.868L971.772 915.374L971.272 914.258C974.374 914.188 977.657 914.283 980.633 913.384L982.24 912.862Z" fill="#26273A"/>
<path d="M643.441 719.106L648.085 721.836C648.229 723.185 647.985 724.609 648.98 725.63C651.374 728.09 654.202 731.286 655.049 734.555L653.129 733.316C653.738 735.002 654.289 735.686 655.453 737.051C653.816 738.07 653.726 738.067 653.111 739.79L654.277 740.867L653.111 741.97L653.807 742.137C655.272 742.587 656.505 743.391 657.811 744.139L657.998 744.823C658.462 746.104 659.3 746.894 660.166 747.955L662.222 750.683L661.341 752.319L661.893 753.511C662.532 754.99 662.81 756.224 663.114 757.776C663.877 761.635 664.863 763.385 667.233 766.495C668.104 767.639 668.382 769.292 668.671 770.621C669.057 772.394 669.627 772.717 670.763 774.127C671.993 775.651 673.944 777.695 673.721 779.579C671.981 779.247 671.014 778.929 669.587 777.946L669.003 779.309L665.373 778.845L663.114 773.044L662.52 771.403C661.996 769.334 661.35 767.441 660.76 765.409C660.135 763.262 658.643 761.986 658.109 760.024C656.044 752.433 651.377 744.84 648.983 737.057C648.594 735.795 648.576 735.047 647.768 733.922L647.222 733.246C647.12 731.325 647.008 730.237 647.786 728.394L648.362 727.236L647.222 725.896C645.057 723.503 644.162 722.219 643.441 719.106Z" fill="#26273A"/>
<path d="M759.07 926.061C777.678 939.307 798.696 957.872 811.573 976.149L808.247 979.435L776.43 946.652L759.691 932.049L760.523 929.835L759.495 927.312L759.07 926.061Z" fill="#24212F"/>
<path d="M870.154 947.445L870.314 947.149C889.52 929.048 924.94 916.134 951.84 913.28C961.795 912.222 972.224 912.764 982.24 912.862L980.633 913.384C977.657 914.283 974.374 914.188 971.271 914.258L971.772 915.374L983.69 915.868L982.789 916.067C973.735 917.901 964.047 916.644 954.828 917.552C924.445 920.547 895.266 933.096 871.725 950.675L870.154 947.445Z" fill="#24212F"/>
<path d="M664.323 469.657C664.124 468.18 664.592 466.72 664.887 465.263L667.233 463.884L666.47 459.121L669.171 458.03L668.421 460.673L714.583 535.035C712.554 536.031 713.612 535.588 711.409 536.355L666.654 468.872L664.323 469.657Z" fill="#24212F"/>
<path d="M811.573 976.149L820.762 986.847L818.688 932.794H819.758C819.758 944.425 818.408 957.808 820.937 968.782C821.567 971.515 820.105 974.644 821.368 977.369C822.357 979.51 822.059 982.771 822.116 985.138C819.677 985.59 819.36 985.761 817.108 984.867L816.228 985.685C817.85 987.941 820.823 991.121 821.821 993.591C822.523 995.333 822.632 998.346 823.292 1000.41C824.405 1003.86 822.08 1008.72 823.723 1012.26C825.297 1015.67 824.609 1022.89 824.766 1026.85C826.862 1016.36 824.48 1005.92 825.36 995.498C825.767 990.655 825.734 987.402 824.471 982.958C823.15 978.318 826.31 971.881 823.292 967.69C823.256 958.07 821.591 945.379 823.883 936.161L827.082 992.441C839.941 975.334 852.426 960.538 870.154 947.445L871.725 950.675C860.829 958.975 850.93 968.416 841.982 978.522C836.938 984.217 833.582 991.012 827.281 995.674C826.961 1000.89 828.484 1026.77 825.647 1029.51C822.858 1027.45 822.773 1027.06 822.33 1023.79C821.356 1016.61 821.504 1009.04 821.133 1001.79C821.037 999.912 821.411 996.04 820.765 994.521C818.926 990.205 811.675 982.95 808.247 979.435L811.573 976.149Z" fill="#26273A"/>
<path d="M979.089 454.199C980.597 453.705 981.616 453.711 982.563 452.483C984.447 450.043 986.47 447.932 988.176 445.344L989.352 445.889C988.662 449.468 982.644 455.936 979.931 458.976L979.406 462.279C979.337 463.482 975.872 467.39 975.025 468.61C965.422 482.465 954.614 495.39 945.056 509.234C942.056 513.578 937.425 519.226 936.216 524.295C935.761 526.202 935.158 527.545 934.229 529.312C931.181 530.041 929.107 531.266 926.27 529.856C929.411 515.46 945.288 498.579 954.297 486.493C962.244 475.835 969.984 463.987 979.089 454.199Z" fill="#26273A"/>
<path d="M832.012 360.411C845.67 377.928 859.451 392.936 877.164 407.165C884.352 412.939 892.004 419.047 900.455 423.156C914.792 430.127 931.474 433.762 947.076 437.285C938.668 437.519 932.098 435.864 923.99 434.429L922.812 433.337L921.563 433.136C918.732 432.617 916.8 431.824 914.273 430.618C912.995 430.007 908.726 427.863 907.501 427.908C912.169 431.029 919.088 433.564 924.572 434.99L936.849 438.496C939.301 439.127 941.55 440.45 943.751 441.601C937.172 441.157 929.689 439.004 923.454 436.98C892.809 427.037 872.377 410.658 850.391 389.371C842.224 381.463 832.6 372.13 827.417 362.245C829.06 362.049 830.547 361.114 832.012 360.411Z" fill="#26273A"/>
<path d="M822.198 253.721L822.915 255.215C824.622 259.073 823.898 265.527 823.892 269.774C826.003 267.537 825.156 264.64 827.034 262.124C826.931 286.68 824.923 311.593 823.823 336.168C823.702 338.904 822.141 347.879 822.967 349.975C824.079 352.806 829.777 357.837 832.012 360.411C830.546 361.114 829.06 362.049 827.417 362.245L825.059 358.819L823.603 359.741C823.31 372.108 822.665 384.469 822.361 396.833C822.183 403.927 823.79 411.671 820.931 418.354L819.759 417.536C819.816 415.007 819.436 411.537 820.506 409.223C823.696 402.333 818.583 390.287 820.938 383.185C823.108 376.647 822.116 368.501 822.116 361.376L820.338 361.921C820.066 364.165 819.798 366.276 819.171 368.464C818.269 371.619 819.27 376.432 817.835 379.092C815.529 383.38 817.368 397.439 817.404 402.816H815.649C815.89 393.483 815.963 383.975 816.909 374.679C817.142 372.417 819.122 363.844 818.296 362.61C800.722 380.913 786.364 403.824 764.792 418.486L760.351 416.403C779.116 400.331 794.306 383.827 809.046 364.475C811.241 361.597 815.981 356.605 817.163 353.406C817.941 351.307 817.585 346.913 817.718 344.495C818.251 334.867 818.263 325.224 818.637 315.59C819.433 295.007 820.853 274.288 822.198 253.721Z" fill="url(#paint11_linear_14_455)"/>
<path d="M947.076 437.285C955.388 438.064 964.12 439.172 972.471 438.912C975.999 438.803 988.478 438.99 991.152 437.547C993.552 436.252 997.845 429.488 999.651 427.109C1008.6 415.334 1016.82 401.914 1027.44 391.448L1026.46 395.181L1030.11 394.837L1029.4 396.002C1022.34 407.311 1012.81 418.07 1004.7 428.806C1002.62 431.559 997.574 437.156 996.872 440.417C996.193 443.544 996.962 448.345 996.869 451.64C996.446 466.067 997.463 480.427 998.307 494.829C998.979 506.284 999.259 518.254 1001.88 529.491L998.593 530.083C993.453 522.316 993.956 514.167 993.103 505.365C991.225 485.997 990.519 467.329 991.577 447.874L979.406 462.279L979.93 458.976C982.644 455.936 988.662 449.468 989.352 445.889L988.176 445.344C986.47 447.932 984.447 450.043 982.562 452.483C981.616 453.711 980.597 453.705 979.089 454.199L986.919 443.661C972.345 443.736 958.195 443.753 943.75 441.601C941.549 440.45 939.3 439.127 936.849 438.496L924.572 434.99C919.088 433.563 912.168 431.029 907.501 427.908C908.725 427.863 912.994 430.007 914.273 430.618C916.799 431.824 918.732 432.617 921.563 433.136L922.811 433.337L923.99 434.429C932.097 435.864 938.667 437.519 947.076 437.285Z" fill="#24212F"/>
<path d="M664.323 469.657L666.654 468.872L711.408 536.355C713.612 535.588 712.554 536.031 714.583 535.035C718.611 539.474 720.206 544.934 722.944 550.079C703.006 540.495 681.159 533.008 659.375 527.936L664.323 469.657Z" fill="#140F20"/>
<path d="M624.423 706.856L640.14 716.443L643.441 719.106C644.162 722.219 645.057 723.503 647.222 725.896L648.362 727.236L647.786 728.394C647.008 730.237 647.12 731.325 647.222 733.246L647.768 733.922C648.576 735.047 648.594 735.795 648.983 737.057C651.377 744.84 656.044 752.433 658.109 760.024C658.643 761.986 660.135 763.262 660.76 765.409C661.35 767.441 661.996 769.334 662.52 771.402L663.114 773.044L665.373 778.845C665.692 781.559 666.054 782.664 667.233 785.034L667.492 786.022C668.237 788.764 670.034 791.332 671.026 794.068C671.448 795.232 672.31 796.081 673.121 797.027H674.309L674.017 794.852L675.488 794.314C676.344 795.428 676.839 796.271 677.255 797.585C680.824 800.338 681.726 801.432 682.419 805.81C683.761 814.274 691.434 822.289 691.965 830.29L690.786 831.379C690.786 834.201 691.709 839.248 689.607 841.194C690.313 842.484 690.864 842.922 691.965 843.919L693.741 845.566C697.6 844.818 701.323 840.331 704.046 837.755C703.506 841.613 699.635 843.232 699.626 845.828L696.098 848.827L697.274 849.929C698.869 849.287 699.11 849.555 699.852 848.011L700.515 846.652L701.049 845.51C701.73 844.245 702.575 843.67 703.753 842.83L704.703 843.919L704.221 844.74C702.629 847.559 702.252 848.941 702.563 852.098C700.377 853.919 698.375 855.242 697.268 857.824C696.11 858.466 694.564 858.885 694.133 860.082C693.554 861.69 692.462 863.111 691.929 864.706L689.649 863.379L691.917 859.279L691.238 856.47L689.619 856.021L687.551 859.008L684.445 860.11L682.817 860.602C682.07 858.301 679.79 857.104 677.864 855.535L669.223 837.632C671.354 820.095 662.092 805.492 656.903 789.001C652.948 778.996 649.948 768.728 646.043 758.72C641.681 747.536 634.623 735.114 632.198 723.696C631.164 718.45 626.744 711.901 624.423 706.856Z" fill="#24212F"/>
<path d="M624.423 706.856L640.14 716.443C640.146 719.031 639.459 722.693 641.298 724.586C642.748 726.08 643.797 727.685 644.867 729.419L643.701 730.507C643.695 732.068 643.315 733.721 644.24 735.013C645.082 736.186 644.949 736.853 645.35 738.148L651.238 753.279C652.387 756.718 654.712 759.797 656.05 763.228L656.903 764.998C658.764 768.887 659.297 773.223 660.636 777.284C662.101 781.734 664.739 785.567 666.12 790.196L669.853 799.461C671.84 804.942 675.518 809.911 677.249 815.572C678.21 818.721 679.338 821.641 680.185 824.835C680.93 827.629 681.436 829.561 681.376 832.481C683.562 835.53 681.256 839.385 682.998 841.811L683.719 842.83L684.277 843.55C686.83 846.925 686.68 850.831 687.252 854.826C689.2 853.818 690.846 852.512 692.565 851.211C694.151 851.892 694.621 852.336 695.498 853.734C694.519 856.127 693.813 857.428 691.917 859.279L691.238 856.47L689.619 856.021L687.551 859.008L685.1 857.95L685.13 852.098C684.644 847.367 682.474 847.336 680.197 843.718C678.66 841.272 678.645 835.957 678.274 833.098C677.638 828.205 676.317 823.394 674.819 818.671C667.598 795.924 656.129 773.84 646.779 751.774C642.6 741.906 641.554 730.893 632.198 723.696C631.164 718.45 626.744 711.901 624.423 706.856Z" fill="#39373F"/>
<path d="M632.199 723.696C641.554 730.893 642.6 741.906 646.779 751.774C656.129 773.84 667.598 795.924 674.819 818.671C676.317 823.394 677.638 828.204 678.274 833.098C678.645 835.957 678.66 841.272 680.198 843.718C682.474 847.336 684.645 847.367 685.13 852.098L685.1 857.95L687.551 859.008L684.446 860.11L682.818 860.602C682.07 858.301 679.791 857.104 677.864 855.535L669.223 837.632C671.355 820.095 662.092 805.492 656.904 789.001C652.948 778.996 649.948 768.728 646.044 758.72C641.681 747.536 634.623 735.114 632.199 723.696Z" fill="#26273A"/>
<path d="M656.903 789.001C658.758 790.726 660.714 792.206 661.58 794.554C662.011 795.724 661.824 795.294 662.873 796.265C664.908 798.144 665.921 801.815 666.964 804.269C669.593 810.447 672.856 817.049 674.243 823.579C675.379 828.922 675.123 843.079 679.456 846.322C683.607 849.43 683.951 855.507 684.445 860.111L682.817 860.602C682.07 858.302 679.79 857.104 677.864 855.535L669.223 837.632C671.354 820.095 662.092 805.492 656.903 789.001Z" fill="#433F4F"/>
<path d="M830.817 216.52C847.647 228.479 859.306 247.518 875.144 260.977L906.786 286.699C907.754 288.763 909.002 290.672 908.535 292.975C920.387 302.076 934.91 308.511 948.725 314.666C958.925 319.214 969.821 324.206 980.874 326.665C1001.98 332.145 1027.79 337.385 1049.78 336.891C1051.87 336.841 1056.96 337.301 1058.65 336.545C1062.03 337.34 1066.06 337.441 1068.1 340.112C1062.12 348.099 1055.32 355.545 1049.27 363.498C1042.4 372.524 1035.73 383.545 1027.44 391.448C1016.82 401.914 1008.6 415.334 999.651 427.109C997.845 429.488 993.552 436.252 991.152 437.547C988.478 438.99 975.999 438.803 972.471 438.912C964.12 439.172 955.388 438.064 947.076 437.285C931.473 433.762 914.791 430.127 900.455 423.156C892.004 419.047 884.352 412.939 877.164 407.166C859.451 392.936 845.669 377.928 832.011 360.411C829.777 357.837 824.079 352.806 822.966 349.975C822.14 347.879 823.702 338.904 823.823 336.168C824.923 311.593 826.931 286.68 827.034 262.124C825.155 264.64 826.003 267.538 823.892 269.774C823.898 265.528 824.622 259.073 822.915 255.215L822.198 253.722C821.064 249.101 821.649 240.447 822.324 235.673C822.764 232.572 824.133 230.341 823.078 227.19C823.325 225.858 827.628 222.296 828.815 221.095C830.26 219.764 830.314 218.312 830.817 216.52Z" fill="#0B0513"/>
<path d="M875.144 260.977L906.787 286.699C907.754 288.762 909.003 290.672 908.535 292.975C894.718 285.552 882.012 273.165 870.721 262.797C873.034 262.786 873.64 263.258 875.69 264.321L875.144 260.977Z" fill="#433F4F"/>
<path d="M828.815 221.095L830.763 222.703C825.279 233.387 829.889 250.271 827.034 262.124C825.155 264.64 826.003 267.537 823.892 269.774C823.898 265.527 824.622 259.073 822.915 255.215L822.198 253.721C821.064 249.101 821.649 240.447 822.324 235.673C822.764 232.572 824.133 230.341 823.078 227.189C823.325 225.858 827.628 222.296 828.815 221.095Z" fill="#484859"/>
<path d="M830.818 216.52C847.648 228.479 859.307 247.518 875.144 260.977L875.69 264.321C873.64 263.258 873.034 262.786 870.721 262.797L830.764 222.703L828.816 221.095C830.26 219.764 830.314 218.312 830.818 216.52Z" fill="#555262"/>
<path d="M585.707 497.484C588.053 498.394 588.273 498.391 589.572 500.39C588.972 504.195 586.859 510.965 588.71 514.229L652.755 526.249L659.376 527.936C681.159 533.008 703.006 540.495 722.944 550.079C729.643 553.756 741.42 559.286 746.09 564.875C775.155 586.181 799.308 625.842 806.342 659.317C796.652 685.254 775.239 712.024 747.944 724.142C727.228 733.341 703.82 734.996 681.274 732.654C675.632 734.248 674.237 733.531 669.009 731.867L666.949 731.593L664.887 731.043C662.514 731.677 660.943 732.944 658.999 734.315L655.049 734.555C654.202 731.286 651.374 728.09 648.98 725.63C647.985 724.609 648.229 723.185 648.084 721.836L643.441 719.106L640.14 716.443L624.423 706.856C621.254 703.816 617.826 701.614 614.066 699.28C608.892 692.426 601.762 686.41 597.604 678.959C593.251 671.162 591.062 661.333 588.496 652.879C582.915 634.502 577.992 615.929 572.703 597.476C568.615 580.896 562.223 562.248 562.727 545.227C563.04 534.636 567.083 523.567 565.47 513.084C568.684 511.47 568.877 511.755 572.299 512.353L573.261 512.478C576.765 512.612 579.945 513.092 583.012 511.214C583.979 508.662 583.928 505.851 584.118 503.157L585.707 497.484Z" fill="url(#paint12_linear_14_455)"/>
<path d="M648.084 721.837C658.981 726.825 669.524 729.871 681.274 732.654C675.633 734.248 674.237 733.531 669.009 731.867L666.949 731.593L664.887 731.043C662.514 731.677 660.943 732.945 658.999 734.315L655.049 734.555C654.202 731.286 651.374 728.09 648.98 725.63C647.985 724.609 648.229 723.185 648.084 721.837Z" fill="#140F20"/>
<path d="M585.707 497.484C588.053 498.394 588.273 498.391 589.572 500.39C588.972 504.195 586.859 510.965 588.71 514.229L652.755 526.249L659.376 527.936C681.159 533.008 703.006 540.495 722.944 550.079C729.643 553.756 741.42 559.286 746.09 564.875L744.658 566.698C741.996 564.64 738.574 560.908 735.257 560.386L733.195 558.211L731.724 558.206L729.664 556.028L728.19 556.023L727.105 555.054C725.042 553.273 722.718 552.098 719.947 551.662L717.297 549.487L715.53 550.021L714.342 548.94C713.543 551.173 712.156 551.807 710.23 553.292L708.17 553.574L709.548 554.138C712.645 555.414 715.889 556.989 718.702 558.725C720.924 560.096 723.297 561.187 725.54 562.572C726.791 563.342 728.036 563.943 729.369 564.557C733.282 566.363 737.871 571.952 739.517 575.575C739.508 576.324 745.409 581.781 746.618 583.026C755.539 592.231 762.757 601.672 769.694 612.191L767.352 614.36C763.233 611.172 760.191 603.724 757.01 599.444C741.399 578.431 724.717 565.375 699.493 555.149C698.556 557.885 698.556 558.13 696.098 559.836L693.141 559.847C693.867 561.5 693.273 560.93 694.41 561.586C696.786 562.96 697.636 563.884 698.899 566.184C666.53 552.72 635.439 544.647 600.836 537.96L598.563 598.947C596.094 596.496 596.392 593.478 593.634 591.46C589.964 593.735 589.132 596.172 585.978 599.092L584.815 598.012L583.919 599.369C583.343 597.35 582.508 595.447 581.712 593.498C581.631 596.438 582.146 599.453 582.472 602.375L581.269 603.02C577.946 599.349 577.883 592.295 577.145 587.596L576.557 595.843L572.703 597.476C568.615 580.896 562.223 562.248 562.727 545.227C563.04 534.636 567.083 523.567 565.47 513.084C568.684 511.47 568.877 511.755 572.299 512.353L573.261 512.478C576.765 512.612 579.945 513.092 583.012 511.214C583.979 508.662 583.928 505.851 584.118 503.157L585.707 497.484Z" fill="url(#paint13_linear_14_455)"/>
<path d="M585.707 497.484C588.053 498.394 588.273 498.391 589.572 500.39C588.972 504.195 586.859 510.965 588.71 514.229C583.461 513.81 578.366 513.863 573.261 512.478C576.765 512.612 579.946 513.092 583.012 511.214C583.98 508.662 583.928 505.851 584.118 503.157L585.707 497.484Z" fill="#545E75"/>
<path d="M577.145 587.596C577.042 565.378 578.474 544.1 582.457 522.191C595.88 524.965 609.607 526.367 623.03 529.039C638.455 532.107 654.302 536.852 669.232 541.556C677.861 544.275 687.102 546.52 695.508 549.739C712.012 556.062 726.152 564.766 739.518 575.576C739.508 576.324 745.409 581.781 746.618 583.027C755.539 592.231 762.757 601.672 769.695 612.191L767.352 614.36C763.233 611.172 760.191 603.724 757.011 599.444C741.399 578.431 724.717 565.375 699.493 555.149C663.196 540.822 624.866 531.543 585.921 525.884C581.917 547.843 580.332 571.246 581.712 593.498C581.631 596.438 582.147 599.453 582.472 602.376L581.269 603.02C577.947 599.349 577.883 592.295 577.145 587.596Z" fill="#AC003B"/>
<path d="M581.712 593.498C580.331 571.246 581.917 547.843 585.921 525.884C624.866 531.543 663.196 540.822 699.493 555.149C698.556 557.885 698.556 558.13 696.098 559.836L693.141 559.847C693.867 561.5 693.273 560.931 694.41 561.587C696.786 562.96 697.636 563.884 698.899 566.184C666.53 552.72 635.44 544.647 600.836 537.961L598.563 598.947C596.094 596.496 596.392 593.479 593.634 591.46C589.964 593.735 589.132 596.172 585.979 599.093L584.815 598.012L583.919 599.369C583.343 597.351 582.508 595.447 581.712 593.498Z" fill="#EF3C82"/>
<path d="M598.563 598.947L600.836 537.961C635.439 544.647 666.53 552.72 698.899 566.184C706.817 570.891 716.278 576.089 722.075 583.021C719.256 582.178 717.438 581.418 714.942 580.02L712.88 579.202L711.96 580.09C710.995 580.98 710.199 581.552 709.054 582.2C708.532 583.417 707.863 585.863 706.991 586.837C704.905 589.165 704.13 587.864 702.587 591.471L704.341 593.107L702.587 595.287L703.753 597.468L703.171 598.464C701.378 601.817 704.04 608.02 702.575 610.555C701.706 612.057 700.28 611.635 700.22 613.643C700.129 616.666 699.837 618.014 697.853 620.368L697.15 621.219C694.16 624.77 688.479 628.299 684.322 630.717L684.316 631.546C680.245 633.517 673.995 633.419 669.446 633.731C658.263 634.499 647.083 634.907 635.889 635.465C633.003 635.61 628.035 635.211 625.43 636.023C621.088 637.375 617.72 641.191 612.842 642.517C605.094 627.749 601.804 614.868 598.563 598.947Z" fill="white"/>
<path d="M612.842 642.517C617.721 641.191 621.088 637.375 625.43 636.023C628.035 635.211 633.004 635.61 635.889 635.465C647.084 634.907 658.263 634.499 669.446 633.732C673.995 633.419 680.246 633.517 684.316 631.546L684.322 630.717C688.48 628.299 694.16 624.77 697.151 621.219L697.853 620.368C699.837 618.014 700.13 616.666 700.22 613.643C700.28 611.636 701.706 612.057 702.575 610.555C704.04 608.02 701.378 601.817 703.172 598.464L703.754 597.468L702.587 595.287L704.341 593.107L702.587 591.471C704.13 587.864 704.905 589.165 706.992 586.837C707.863 585.863 708.532 583.417 709.054 582.2C710.2 581.553 710.996 580.98 711.96 580.09L712.88 579.202L714.942 580.02C717.439 581.418 719.257 582.178 722.076 583.021C729.348 587.711 735.046 595.262 739.958 602.032C751.677 618.185 763.508 637.763 767.328 657.128C768.474 662.944 755.805 680.171 751.644 685.419C741.553 698.16 724.645 709.813 707.423 712.027C688.359 714.478 671.276 705.723 656.858 695.098C638.4 681.5 623.015 662.22 612.842 642.517Z" fill="url(#paint14_linear_14_455)"/>
<path d="M1099.56 513.531L1110.07 512.674C1112.88 515.714 1113.86 520.323 1115.14 524.125C1118.97 535.485 1121.79 546.799 1124.17 558.479L1127.33 582.359L1127.36 587.633C1126.67 597.906 1126.22 608.635 1123.61 618.673C1117.72 641.25 1102.95 660.652 1088.01 678.8L1084.56 682.39L1047.91 711.725C1046.51 712.359 1040.33 714.603 1039.77 715.528C1002.12 731.853 962.73 740.454 921.672 729.246C881.626 718.311 858.121 692.527 839.009 659.976C842.024 646.21 850.457 630.354 857.998 618.193C887.49 570.632 931.398 547.511 987.278 533.533L998.593 530.083L1001.88 529.491L1024.39 525.295C1031.03 523.064 1038.95 522.3 1045.9 521.074C1062.03 518.232 1078.11 516.068 1094.4 514.162L1099.56 513.531Z" fill="url(#paint15_linear_14_455)"/>
<path d="M1089.62 524.46L1095.94 523.491C1103.22 529.795 1106.22 553.368 1108.26 562.725C1109.32 575.486 1110.87 588.615 1109.59 601.404C1107.49 622.434 1097.26 641.439 1087.61 660.171L1085.93 661.252L1085.05 659.898L1087.7 656.112C1089.57 653.505 1089.82 649.418 1091.82 648.176L1090.64 647.087L1088.97 649.488C1088.36 650.334 1087.74 650.844 1086.96 651.534C1085.89 652.478 1085.74 652.701 1085.12 653.982C1084.16 655.976 1082.38 657.145 1080.63 658.536L1080.07 657.444C1091.96 642.414 1107.67 619.86 1105.63 600.248C1107.29 580.682 1104.33 560.707 1099.58 541.685C1098.35 536.757 1097.49 530.147 1094.22 526.04L1090.45 526.272L1089.62 524.46Z" fill="#AC003B"/>
<path d="M1029.54 533.55L1089.62 524.46L1090.45 526.272L985.967 546.567L961.313 554.741C951.222 558.496 940.145 562.569 931.03 568.144C899.111 587.666 880.041 618.537 865.349 650.356H864.513C864.746 649.139 864.972 647.955 865.403 646.78L866.28 644.359L866.292 642.723C867.944 641.403 869.144 639.759 869.814 637.816C871.436 633.103 873.905 628.02 876.896 623.866C878.192 622.065 879.236 620.993 879.236 618.721C875.82 621.593 871.568 627.752 869.648 631.666C868.665 633.667 867.688 635.675 866.31 637.478C865.34 638.751 864.176 640.016 863.925 641.624L863.913 642.723C862.379 643.675 862.56 643.815 860.573 643.815C866.316 633.441 872.859 624.206 879.483 614.366C885.26 605.781 890.87 596.778 898.321 589.288C911.912 575.623 931.202 563.898 949.437 556.321C963.728 550.386 978.541 546.531 993.178 541.554C1005.17 538.552 1017.84 537.313 1029.54 533.55Z" fill="#BA0033"/>
<path d="M1090.45 526.272L1094.22 526.04C1097.49 530.147 1098.35 536.757 1099.58 541.685C1104.33 560.707 1107.29 580.681 1105.63 600.248C1104.29 596.926 1104.83 592.295 1104.77 588.744C1103.17 587.987 1102.04 587.06 1100.65 586.008C1099 586.279 1097.45 586.6 1095.86 587.102C1094.71 587.468 1092.87 587.147 1092.41 588.188C1091.77 589.62 1092.81 592.607 1092.34 594.196C1092.03 595.22 1090.18 597.133 1089.47 598.096C1089.59 577.111 1087.1 557.209 1081.25 536.85C1071.7 537.734 1062.03 539.929 1052.59 541.609C1020.8 547.274 990.917 555.515 960.725 566.304C961.841 564.551 962.917 563.582 964.62 562.304L966.387 562.572C968.492 560.517 970.81 561.087 973.123 559.646C974.362 558.876 974.956 558.245 976.475 557.896C977.908 557.566 977.32 557.89 978.607 557.097L979.343 556.587L981.109 557.12L982.294 556.034C983.606 555.785 984.532 555.621 985.674 554.917L986.41 554.404L988.765 554.939C986.045 551.774 986.298 550.677 985.967 546.567L1090.45 526.272Z" fill="url(#paint16_linear_14_455)"/>
<path d="M1099.56 513.531L1110.07 512.674C1112.88 515.714 1113.86 520.323 1115.14 524.125C1118.97 535.485 1121.79 546.799 1124.17 558.479C1123.73 560.643 1123.61 563.136 1121.86 564.752C1122.29 566.313 1122.89 567.656 1123.62 569.116L1123.44 569.95C1122.97 573.457 1124.07 578.01 1124.2 581.667L1123.51 581.809C1122.32 582.172 1121.75 582.711 1120.79 583.412C1119.49 584.367 1118.72 584.788 1117.11 585.118C1115.02 585.545 1114.17 586.047 1112.42 587.108C1112.42 579.403 1113.09 568.901 1108.26 562.726C1106.22 553.368 1103.22 529.795 1095.94 523.492L1089.62 524.46L1029.54 533.55C1017.84 537.313 1005.17 538.553 993.179 541.554C990.233 540.979 987.634 541.129 984.643 541.319C983.47 542.176 982.919 542.436 981.408 542.712C979.59 543.047 980.398 542.782 978.866 543.259L978.164 543.499C976.017 542.801 974.941 542.369 973.442 540.764C975.185 539.552 976.904 539.585 978.601 538.541C979.976 537.696 981.236 538.031 982.876 538.025L987.278 533.533L998.594 530.083L1001.88 529.491L1024.39 525.295C1031.03 523.064 1038.95 522.3 1045.9 521.074C1062.03 518.232 1078.11 516.068 1094.4 514.162L1099.56 513.531Z" fill="#F64B98"/>
<path d="M1024.39 525.295L1024.5 527.369L1025.24 526.995C1027.32 526.157 1030.03 526.194 1032.34 525.496C1035.35 524.588 1038.65 524.636 1041.77 524.678L1044.12 528.494C1043.09 529.284 1042.83 529.831 1041.46 529.887C1039.12 529.985 1038.02 530.415 1035.87 530.948C1032.83 531.707 1031.79 530.892 1028.85 532.762L1029.54 533.55C1017.84 537.313 1005.17 538.552 993.179 541.553C990.233 540.978 987.634 541.129 984.643 541.319C983.47 542.176 982.919 542.436 981.408 542.712C979.59 543.047 980.398 542.782 978.866 543.259L978.164 543.499C976.017 542.801 974.941 542.369 973.442 540.763C975.185 539.552 976.904 539.585 978.601 538.541C979.976 537.695 981.236 538.03 982.876 538.025L987.278 533.533L998.594 530.082L1001.88 529.491L1024.39 525.295Z" fill="#EF3C82"/>
<path d="M960.725 566.304C990.917 555.515 1020.8 547.274 1052.59 541.609C1062.03 539.929 1071.7 537.735 1081.25 536.85C1087.1 557.209 1089.59 577.111 1089.47 598.096C1087.28 616.194 1081.28 638.003 1067.6 651.743C1067.43 650.348 1067.59 649.027 1067.69 647.631C1069.96 645.794 1070.41 644.873 1071.22 642.179C1068.41 640.864 1068.78 638.215 1064.73 637.81H1063.26L1062.37 637.271C1060 637.336 1058.7 637.19 1056.65 636.007L1055.6 635.362C1050.87 636.051 1045.37 634.756 1040.88 635.63C1039.64 635.873 1039.45 636.721 1037.94 636.721L1036.46 635.904L1034.7 637.26L1030.57 636.727L1029.1 637.81L1027.63 637.816L1026.45 639.441L1024.69 637.816L1022.92 639.441L1021.15 637.816L1019.68 638.902C1017.93 637.693 1016.77 638.207 1014.68 638.352L1006.55 630.387L1005.85 629.91C1004.94 627.797 1004.5 627.043 1002.31 626.088C998.808 624.561 996.757 622.071 992.778 621.144C991.469 620.837 991.864 621.055 990.685 620.329C988.786 619.162 986.648 620.346 984.643 619.812C980.567 618.729 976.105 617.643 971.688 617.632C970.515 616.775 969.963 616.515 968.453 616.236L960.499 614.36C955.964 613.327 950.978 612.328 946.956 609.997C945.071 608.908 943.217 607.911 941.073 607.278C937.923 606.345 936.964 603.367 934.133 602.487L933.412 602.364L930.762 599.643C929.176 598.155 924.259 593.652 922.223 593.652L920.782 595.971L920.381 593.233C929.182 581.41 947.088 572.34 960.725 566.304Z" fill="white"/>
<path d="M920.381 593.233L920.782 595.971L922.223 593.651C924.259 593.651 929.176 598.154 930.762 599.642L933.412 602.364L934.133 602.487C936.964 603.366 937.923 606.345 941.073 607.278C943.217 607.911 945.071 608.908 946.955 609.997C950.977 612.328 955.964 613.327 960.499 614.36L968.452 616.236C969.963 616.515 970.515 616.775 971.688 617.632C976.104 617.643 980.567 618.729 984.643 619.812C986.648 620.345 988.786 619.162 990.685 620.329C991.864 621.054 991.469 620.837 992.777 621.144C996.757 622.071 998.807 624.561 1002.31 626.088C1004.5 627.042 1004.94 627.796 1005.85 629.91L1006.55 630.387L1014.68 638.352C1016.77 638.206 1017.93 637.693 1019.68 638.902L1021.15 637.816L1022.92 639.44L1024.69 637.816L1026.45 639.44L1027.63 637.816L1029.1 637.81L1030.57 636.727L1034.7 637.26L1036.46 635.903L1037.94 636.721C1039.45 636.721 1039.64 635.873 1040.88 635.63C1045.37 634.756 1050.87 636.051 1055.6 635.362L1056.65 636.007C1058.7 637.19 1060 637.335 1062.37 637.271L1063.26 637.81H1064.73C1068.78 638.215 1068.41 640.864 1071.22 642.179C1070.41 644.873 1069.96 645.794 1067.69 647.631C1067.59 649.027 1067.43 650.347 1067.6 651.743C1055.73 670.405 1034.23 688.409 1013.99 699.238C991.638 711.2 964.15 716.454 938.812 710.008C911.02 702.94 891.7 681.17 878.09 658.954C885.775 635.317 900.603 610.066 920.381 593.233Z" fill="white"/>
<path d="M365.542 481.153C368.285 480.305 371.396 479.445 374.269 479.196C385.814 478.19 394.407 485.979 402.103 491.995C404.498 492.337 408.262 493.299 410.639 492.969C415.656 492.271 422.5 485.951 427.948 484.099C435.51 481.529 445.061 482.789 451.177 486.982C454.722 489.412 458.134 493.201 462.011 495.101C464.932 496.531 468.791 495.86 471.705 497.276C473.577 498.188 474.551 499.495 474.867 501.413C475.215 503.532 473.988 505.276 472.538 506.895C470.941 507.53 469.392 508.032 467.655 508.152C457.912 508.819 450.76 503.02 444.281 497.688C432.933 489.296 423.721 502.414 411.945 504.248C400.996 505.953 395.07 503.149 387.347 496.996C384.15 494.447 380.701 491.453 376.1 491.164C370.335 490.8 363.873 495.904 358.918 498.377C354.639 500.512 349.956 501.434 345.18 501.247C341.682 501.11 336.238 500.452 334.071 497.902C332.192 495.69 332.651 494.049 333.311 491.517C334.358 490.424 335.557 488.941 337.043 488.339C339.625 487.292 344.911 489.62 347.546 490.366L365.542 481.153Z" fill="#B10028"/>
<path d="M435.919 248.305C438.77 248.646 441.961 249.126 444.687 250.068C455.642 253.846 460.324 264.457 464.906 273.084C466.954 274.371 470.001 276.781 472.307 277.447C477.174 278.85 485.997 275.861 491.727 276.387C499.681 277.116 507.893 282.152 511.774 288.471C514.024 292.133 515.599 296.983 518.368 300.296C520.454 302.79 524.252 303.747 526.338 306.226C527.677 307.821 528.035 309.411 527.543 311.293C526.998 313.369 525.168 314.463 523.184 315.353C521.468 315.282 519.849 315.111 518.213 314.514C509.042 311.16 504.868 302.952 501.119 295.445C494.167 283.163 480.414 291.397 468.911 288.281C458.215 285.384 453.943 280.411 449.392 271.649C447.508 268.02 445.575 263.881 441.491 261.745C436.372 259.067 428.393 261.101 422.86 261.344C418.083 261.553 413.429 260.49 409.143 258.376C406.003 256.827 401.298 254.011 400.356 250.801C399.539 248.015 400.626 246.703 402.259 244.659C403.661 244.086 405.359 243.219 406.961 243.274C409.746 243.368 413.628 247.645 415.732 249.399L435.919 248.305Z" fill="#B10028"/>
<path d="M577.7 70.6938C579.758 72.6955 582.002 75.0154 583.596 77.4186C590.005 87.0735 587.28 98.3469 585.681 107.984C586.528 110.249 587.485 114.015 588.912 115.944C591.927 120.015 600.752 122.998 604.985 126.896C610.861 132.305 614.327 141.294 613.573 148.67C613.136 152.946 611.443 157.756 611.631 162.069C611.774 165.318 614.21 168.385 614.361 171.621C614.457 173.702 613.775 175.182 612.242 176.378C610.548 177.698 608.43 177.455 606.314 176.957C604.993 175.859 603.81 174.74 602.873 173.272C597.624 165.037 599.292 155.982 600.872 147.741C602.808 133.761 586.881 131.951 579.635 122.49C572.896 113.693 572.522 107.147 574.228 97.4216C574.935 93.3943 575.912 88.933 573.965 84.7552C571.525 79.5192 563.95 76.2891 559.407 73.1224C555.484 70.3872 552.433 66.7164 550.311 62.4338C548.757 59.2967 546.729 54.2022 547.93 51.0796C548.973 48.3705 550.633 47.988 553.173 47.3556C554.633 47.7519 556.509 48.0947 557.749 49.1109C559.905 50.8768 560.391 56.6323 560.997 59.3032L577.7 70.6938Z" fill="#B10028"/>
</g>
<defs>
<linearGradient id="paint0_linear_14_455" x1="593.046" y1="449.705" x2="584.733" y2="448.294" gradientUnits="userSpaceOnUse">
<stop stop-color="#212034"/>
<stop offset="1" stop-color="#323747"/>
</linearGradient>
<linearGradient id="paint1_linear_14_455" x1="776.774" y1="949.153" x2="733.5" y2="968.264" gradientUnits="userSpaceOnUse">
<stop stop-color="#000005"/>
<stop offset="1" stop-color="#2B2936"/>
</linearGradient>
<linearGradient id="paint2_linear_14_455" x1="760.285" y1="929.523" x2="710.099" y2="940.365" gradientUnits="userSpaceOnUse">
<stop stop-color="#161522"/>
<stop offset="1" stop-color="#3A3944"/>
</linearGradient>
<linearGradient id="paint3_linear_14_455" x1="1118.32" y1="239.241" x2="1111.4" y2="124.811" gradientUnits="userSpaceOnUse">
<stop stop-color="#12091A"/>
<stop offset="1" stop-color="#292E43"/>
</linearGradient>
<linearGradient id="paint4_linear_14_455" x1="737.907" y1="194.53" x2="729.295" y2="184.497" gradientUnits="userSpaceOnUse">
<stop stop-color="#2D3146"/>
<stop offset="1" stop-color="#484E60"/>
</linearGradient>
<linearGradient id="paint5_linear_14_455" x1="790.905" y1="384.277" x2="680.045" y2="288.792" gradientUnits="userSpaceOnUse">
<stop stop-color="#110718"/>
<stop offset="1" stop-color="#262B3F"/>
</linearGradient>
<linearGradient id="paint6_linear_14_455" x1="747.329" y1="428.988" x2="677.368" y2="391.906" gradientUnits="userSpaceOnUse">
<stop stop-color="#1C1728"/>
<stop offset="1" stop-color="#3D3A4F"/>
</linearGradient>
<linearGradient id="paint7_linear_14_455" x1="1071.21" y1="330.841" x2="981.867" y2="97.4004" gradientUnits="userSpaceOnUse">
<stop stop-color="#09000E"/>
<stop offset="1" stop-color="#2C3146"/>
</linearGradient>
<linearGradient id="paint8_linear_14_455" x1="850.97" y1="150.91" x2="844.84" y2="130.996" gradientUnits="userSpaceOnUse">
<stop stop-color="#2C2E44"/>
<stop offset="1" stop-color="#4F5669"/>
</linearGradient>
<linearGradient id="paint9_linear_14_455" x1="1198.4" y1="676.528" x2="959.393" y2="526.64" gradientUnits="userSpaceOnUse">
<stop/>
<stop offset="1" stop-color="#0D0515"/>
</linearGradient>
<linearGradient id="paint10_linear_14_455" x1="1225.49" y1="574.023" x2="1302.02" y2="537.517" gradientUnits="userSpaceOnUse">
<stop/>
<stop offset="1" stop-color="#1E1D24"/>
</linearGradient>
<linearGradient id="paint11_linear_14_455" x1="763.818" y1="416.992" x2="716.739" y2="326.773" gradientUnits="userSpaceOnUse">
<stop stop-color="#1A1325"/>
<stop offset="1" stop-color="#464354"/>
</linearGradient>
<linearGradient id="paint12_linear_14_455" x1="726.131" y1="728.871" x2="690.209" y2="553.898" gradientUnits="userSpaceOnUse">
<stop stop-color="#C7002E"/>
<stop offset="1" stop-color="#E91969"/>
</linearGradient>
<linearGradient id="paint13_linear_14_455" x1="710.821" y1="552.212" x2="683.968" y2="475.758" gradientUnits="userSpaceOnUse">
<stop stop-color="#E72E73"/>
<stop offset="1" stop-color="#F25DA1"/>
</linearGradient>
<linearGradient id="paint14_linear_14_455" x1="717.885" y1="707.063" x2="679.068" y2="590.871" gradientUnits="userSpaceOnUse">
<stop stop-color="white"/>
<stop offset="1" stop-color="white"/>
</linearGradient>
<linearGradient id="paint15_linear_14_455" x1="905.146" y1="721.239" x2="990.572" y2="524.671" gradientUnits="userSpaceOnUse">
<stop stop-color="#CC0036"/>
<stop offset="1" stop-color="#E91D62"/>
</linearGradient>
<linearGradient id="paint16_linear_14_455" x1="1092.41" y1="587.108" x2="1106.7" y2="531.926" gradientUnits="userSpaceOnUse">
<stop stop-color="#E72963"/>
<stop offset="1" stop-color="#F65CB8"/>
</linearGradient>
<clipPath id="clip0_14_455">
<rect width="1920" height="1080" fill="white"/>
</clipPath>
</defs>
</svg>
