<svg width="1920" height="1080" viewBox="0 0 1920 1080" fill="none" xmlns="http://www.w3.org/2000/svg">
<g clip-path="url(#clip0_14_669)">
<path d="M711.917 843.84L713.999 840.815L715.628 841.27L716.311 844.114L714.029 848.266L713.373 850.341L710.888 859.652L702.165 840.323C704.104 841.912 706.399 843.124 707.152 845.454L708.79 844.956L711.917 843.84Z" fill="#484859"/>
<path d="M1180.84 217.323C1198.31 240.225 1215.35 263.341 1226.64 289.564C1216.93 283.99 1217.06 278.693 1211.4 270.603C1205.36 261.976 1198.15 253.798 1191.57 245.496C1185.32 237.604 1182.25 231.377 1174.08 224.655C1175.39 221.897 1178.59 219.477 1180.84 217.323Z" fill="#555262"/>
<path d="M587.603 477.911C584.683 468.006 585.454 453.822 585.751 443.49C586.999 400.251 592.914 357.528 610.232 317.056C611.825 320.471 613.986 323.148 616.053 326.285L612.745 326.384C612.192 327.702 612.083 328.318 612.077 329.748C612.071 331.831 610.723 333.705 610.235 335.828C608.089 345.119 604.329 353.843 601.967 363.038C601.904 371.817 598.878 379.297 597.202 387.777C594.774 400.075 592.528 413.095 591.19 425.541C589.49 441.35 593.123 458.944 588.41 474.445L587.603 477.911Z" fill="#717786"/>
<path d="M588.41 474.445C586.449 464.62 584.983 443.96 588.331 434.937C589.153 432.726 587.52 428.86 588.343 426.646C589.523 423.469 589.642 420.49 590.701 417.27C591.326 415.376 590.71 411.179 590.71 409.067C590.713 406.02 592.546 397.591 594.258 395.188L593.083 394.072L594.258 392.981C594.225 391.324 594.179 389.877 594.528 388.243L595.457 384.136C596.121 380.883 597.26 377.881 598.413 374.754C598.959 373.273 599.302 371.888 599.609 370.339C600.116 367.753 600.981 365.489 601.967 363.038C601.903 371.817 598.877 379.297 597.202 387.777C594.774 400.076 592.528 413.095 591.19 425.541C589.49 441.351 593.123 458.944 588.41 474.445Z" fill="#686D7D"/>
<path d="M637.944 682.109C641.729 684.472 645.18 686.702 648.37 689.781C650.707 694.888 655.156 701.52 656.197 706.831C658.637 718.392 665.742 730.971 670.134 742.294C674.064 752.428 677.084 762.825 681.066 772.955C686.289 789.653 695.612 804.439 693.467 822.196L637.944 682.109Z" fill="#626575"/>
<path d="M601.967 363.038C604.328 353.843 608.089 345.119 610.235 335.828C610.723 333.705 612.071 331.831 612.077 329.748C612.083 328.318 612.192 327.702 612.744 326.384L616.053 326.285C617.248 328.275 618.881 330.251 619.024 332.549C620.305 334.542 621.464 336.772 623.194 338.449L622.821 339.282C623.667 340.235 624.997 342.228 626.114 342.776L621.604 404.867L613.318 455.552L610.854 469.922L609.397 477.783L607.797 483.527C607.606 486.255 607.658 489.101 606.684 491.685C603.597 493.587 600.395 493.101 596.868 492.965L595.9 492.838C592.455 492.233 592.261 491.945 589.026 493.579L587.603 477.911L588.41 474.445C593.123 458.944 589.49 441.351 591.19 425.541C592.528 413.095 594.774 400.075 597.202 387.777C598.878 379.297 601.903 371.817 601.967 363.038Z" fill="#484859"/>
<path d="M601.967 363.038C604.328 353.843 608.089 345.119 610.235 335.828C610.723 333.705 612.071 331.831 612.077 329.748C612.083 328.318 612.192 327.702 612.744 326.384L616.053 326.285C617.248 328.275 618.881 330.251 619.024 332.549C608.641 341.651 607.831 366.701 603.5 379.167C600.222 388.599 599.26 399.391 598.064 409.211C595.773 427.992 594.501 446.826 594.814 465.736C594.959 474.725 596.277 483.886 595.9 492.838C592.455 492.233 592.261 491.945 589.026 493.579L587.603 477.911L588.41 474.445C593.123 458.944 589.49 441.351 591.19 425.541C592.528 413.095 594.774 400.075 597.202 387.777C598.878 379.297 601.903 371.817 601.967 363.038Z" fill="#626575"/>
<path d="M602.935 463.591C600.422 453.126 601.406 440.449 601.706 429.821C601.979 420.102 603.87 410.834 605.473 401.274C606.508 395.106 607.051 388.636 608.832 382.624C613.257 367.685 618.975 355.756 620.083 340.017L622.821 339.282C623.667 340.235 624.997 342.228 626.114 342.776L621.604 404.867L613.318 455.552L610.854 469.922L609.397 477.783L607.797 483.527C607.606 486.255 607.658 489.101 606.684 491.685L603.888 491.148C600.847 484.245 602.85 471.344 602.935 463.591Z" fill="url(#paint0_linear_14_669)"/>
<path d="M602.936 463.591L603.731 454.803C605.974 452.68 604.122 451.176 606.784 448.734C607.852 450.752 608.951 452.66 609.67 454.814C607.658 457.708 608.845 462.386 609.03 465.843L609.946 466.389L610.559 461.151L612.031 460.323C611.713 458.517 611.078 457.615 612.083 455.978L613.318 455.552L610.854 469.922L609.397 477.783L607.798 483.527C607.606 486.255 607.658 489.101 606.684 491.685L603.889 491.148C600.847 484.245 602.851 471.344 602.936 463.591Z" fill="#433F4F"/>
<path d="M606.783 448.734C607.852 450.752 608.95 452.66 609.67 454.814C607.658 457.708 608.844 462.386 609.029 465.843L609.946 466.389L610.559 461.151L612.031 460.323C611.712 458.517 611.078 457.615 612.083 455.978L613.318 455.552L610.853 469.922L609.397 477.783L607.797 483.527C603.579 474.052 606.953 459.099 606.783 448.734Z" fill="#26273A"/>
<path d="M714.029 848.266L716.323 849.609L723.471 854.51L723.78 857.829L724.67 856.729C726.843 859.776 724.776 861.673 728.812 863.9L729.662 868.005C730.33 871.094 730.907 872.51 733.498 874.622L736.403 875.535C739.635 884.97 739.92 885.694 749.566 890.234C758.85 894.604 766.935 899.711 775.363 905.373C777.685 906.931 782.401 909.489 783.91 911.733L784.338 912.999L785.373 915.555L784.535 917.796L801.385 932.583C801.874 934.748 802.265 936.792 803.234 938.816C805.75 944.076 803.27 950.928 806.46 955.541C809.219 959.529 811.028 964.357 813.644 968.504C815.407 971.3 818.257 973.411 818.776 976.707C819.182 979.296 818.46 975.54 819.817 978.728C820.591 980.551 821.019 982.315 821.878 984.246L822.479 987.01L823.058 989.218L822.539 989.874C821.07 991.929 820.579 994.012 820.099 996.389C819.161 1001.05 819.28 1001.64 815.371 1004.55L814.199 1004.41C812.742 1004.28 811.914 1004.44 810.542 1004.81L807.911 1003.73C788.131 993.93 772.729 974.106 761.074 956.722C756.91 950.515 752.039 943.805 749.526 936.857C744.503 930.587 741.074 921.943 737.492 914.868C728.254 896.619 719.607 878.118 710.888 859.652L713.373 850.341L714.029 848.266Z" fill="url(#paint1_linear_14_669)"/>
<path d="M714.029 848.266L716.323 849.609L723.471 854.51L723.78 857.829L724.67 856.729C726.843 859.776 724.776 861.673 728.812 863.9L729.662 868.005C730.33 871.094 730.906 872.51 733.498 874.622L736.403 875.535C739.635 884.97 739.92 885.694 749.566 890.234C758.85 894.604 766.935 899.711 775.363 905.373C777.685 906.931 782.401 909.489 783.91 911.733L784.338 912.999L785.373 915.555L784.535 917.796C771.266 909.155 758.731 897.543 742.157 895.364L740.552 897.02C740.782 900.339 741.414 901.871 743.292 904.652C747.827 911.369 752.5 922.034 755.329 929.595H753.715L749.566 921.313L747.787 920.762C746.628 918.24 745.581 918.167 743.046 916.895L742.452 918.562L743.001 919.3C743.769 920.374 744.075 921.268 744.446 922.486C745.007 924.337 746.421 926.011 747.183 927.938L748.085 929.561C749.462 932.023 749.456 934.157 749.526 936.857C744.503 930.587 741.074 921.943 737.492 914.868C728.254 896.619 719.607 878.118 710.888 859.652L713.373 850.341L714.029 848.266Z" fill="url(#paint2_linear_14_669)"/>
<path d="M714.029 848.266L716.323 849.609L723.47 854.51L723.78 857.829L724.669 856.729C726.842 859.776 724.775 861.673 728.812 863.9L729.662 868.005C730.33 871.094 730.906 872.51 733.498 874.622L732.973 884.869H731.195C729.219 884.614 727.911 883.469 726.718 882.115L725.282 880.459C723.686 878.958 723.021 878.769 722.253 876.668C721.091 873.488 718.62 867.547 716.359 865C714.569 862.984 715.179 860.457 715.173 857.823L716.359 856.718L715.185 855.627L716.12 854.51L713.373 850.341L714.029 848.266Z" fill="#26273A"/>
<path d="M872.325 95.4371L877.312 93.3822C883.118 90.9908 891.898 90.9936 898.214 90.3633C938.391 86.3607 981.664 90.27 1019.57 103.923L1023.38 105.681C1033.02 107.173 1046.66 113.183 1054.92 118.034C1104.56 139.234 1143.17 174.985 1177.8 213.304L1180.84 217.323C1178.59 219.477 1175.39 221.897 1174.08 224.655C1172.44 226.968 1170.74 230.091 1168.49 231.892C1166.97 230.812 1165.41 230.003 1163.74 229.133L1161.74 228.887C1156.92 227.491 1151.92 227.301 1146.92 226.908C1138.66 226.806 1130.05 224.833 1121.87 223.576C1083.41 217.665 1047.8 206.579 1012.35 191.838C1003.34 188.09 991.892 184.062 984.502 177.922C953.314 160.928 926.436 140.019 898.49 118.947C897.616 117.2 893.67 114.489 892.083 113.073C885.5 107.193 878.917 101.308 872.325 95.4371Z" fill="url(#paint3_linear_14_669)"/>
<path d="M1085.64 212.111C1086.67 207.054 1091.12 204.9 1095.15 201.96C1099.8 201.853 1101.52 201.881 1105.82 203.453C1107.8 204.176 1110.24 203.865 1112.36 204.566C1114.27 205.199 1116.27 205.168 1118.28 205.262L1118.94 205.7C1120.42 206.607 1119.82 206.226 1121.66 207.009C1125 208.433 1127.71 211.429 1131.02 213.267C1133.43 214.604 1134.36 215.961 1137.24 216.854C1138.91 216.082 1138.27 216.687 1139.02 214.923L1141.12 215.452L1141.3 215.864L1148.8 220.916L1148.64 222.42C1128.25 222.533 1105.48 216.153 1085.64 212.111Z" fill="#140F20"/>
<path d="M985.109 174.344C993.671 177.263 1001.46 182.685 1009.75 186.337C1034.03 197.03 1059.52 206.313 1085.64 212.111C1105.48 216.153 1128.25 222.533 1148.64 222.419L1148.37 223.352L1146.92 226.908C1138.66 226.806 1130.05 224.833 1121.87 223.576C1083.41 217.665 1047.8 206.579 1012.35 191.838C1003.34 188.09 991.892 184.062 984.502 177.922L985.109 174.344Z" fill="#433F4F"/>
<path d="M872.325 95.4371L877.312 93.3822C883.118 90.9908 891.898 90.9936 898.214 90.3633C938.391 86.3607 981.664 90.27 1019.57 103.923L1023.38 105.681C1033.02 107.173 1046.66 113.183 1054.92 118.034C1104.56 139.234 1143.17 174.985 1177.8 213.304L1180.84 217.323C1178.59 219.477 1175.39 221.897 1174.08 224.655C1172.44 226.968 1170.74 230.091 1168.49 231.892C1166.97 230.812 1165.41 230.003 1163.74 229.133L1161.74 228.887C1156.92 227.491 1151.92 227.301 1146.92 226.908L1148.37 223.352L1148.64 222.419L1148.8 220.916L1141.31 215.864C1145.41 216.597 1146.45 216.223 1150.29 214.369L1146.72 214.084C1145.1 212.484 1143.56 210.825 1141.47 209.745L1140.21 209.12C1139.51 205.474 1132.34 200.623 1130.21 197.045L1129.54 195.869L1127.01 194.761C1124.65 193.582 1122.68 192.154 1121.84 189.803C1120.39 189.054 1119.17 188.613 1118.24 187.309C1117.46 186.23 1116.59 185.427 1115.31 184.828C1108.9 181.814 1104.65 174.971 1098.86 170.85C1096.88 169.445 1095.05 167.921 1092.9 166.751L1091.6 166.056C1090.79 162.251 1088.84 162.734 1087.52 159.976C1087.06 159.02 1087.21 156.343 1087.12 155.187C1084.74 150.54 1046.05 132.715 1038.84 129.306C1035.33 127.644 1030.87 127.562 1028.64 124.507C1012.14 119.156 995.783 113.989 978.538 111.142C957.156 107.612 935.326 108.03 913.683 108.465C908.208 108.576 899.492 107.335 894.936 110.303C922.639 133.224 951.958 158.429 985.109 174.344L984.502 177.922C953.314 160.928 926.436 140.019 898.49 118.947C897.616 117.2 893.67 114.489 892.083 113.073C885.5 107.193 878.917 101.308 872.325 95.4371Z" fill="#545E75"/>
<path d="M888.353 98.5663C898.483 95.2958 907.971 95.1799 918.505 94.4874C934.746 93.4189 952.282 93.1815 968.297 95.9601L976.707 96.8109C978.195 97.0512 979.336 97.0766 980.82 97.0851C982.963 97.0936 983.551 97.4215 985.488 98.1677C987.506 98.945 989.992 99.2814 992.159 99.4114C993.913 99.516 994.581 99.7648 996.159 100.375C999.16 101.534 1001.24 101.616 1004.46 101.481L1005.2 101.995C1007.48 103.411 1010.69 103.581 1013.34 103.804C1015.54 103.988 1014.65 103.835 1016.56 104.477C1018.82 105.232 1021.01 105.427 1023.38 105.681C1033.02 107.173 1046.66 113.183 1054.92 118.034C1050.57 118.195 1046.97 117.016 1042.75 116.38C1041.13 116.137 1039.68 116.111 1038.28 115.238C1036.74 114.285 1032.79 114.732 1030.78 114.735C1018.14 109.491 1006 106.933 992.602 104.256C968.862 99.516 947.42 97.0229 923.112 97.6109C911.409 97.8964 899.883 100.811 888.353 98.5663Z" fill="#717786"/>
<path d="M1028.64 124.507C1031.01 124.043 1032.48 124.532 1034.68 125.213C1038.44 126.378 1042.69 127.319 1046.25 128.908C1051.89 131.432 1057.61 135.256 1063.44 137.051C1065.15 137.58 1066.66 138.651 1068.15 139.576C1070.78 141.212 1073.76 142.323 1076.44 143.991C1078.73 145.407 1081.04 146.289 1083.3 147.855C1087.48 150.747 1092.19 152.753 1096.34 155.583L1098.04 156.62C1102.2 159.159 1105.15 162.828 1109.37 164.965L1110.45 165.725C1111.59 166.522 1112.25 166.847 1113.49 167.381C1115.35 168.181 1116.23 169.123 1117.63 170.46C1122.54 175.155 1129.83 179.813 1134.99 184.325C1143.01 191.343 1149.5 199.074 1157.11 206.146C1161.08 209.832 1170.3 216.56 1171.5 221.343L1175.53 216.144L1177.8 213.304L1180.84 217.323C1178.59 219.477 1175.39 221.897 1174.08 224.655C1172.43 226.968 1170.74 230.091 1168.49 231.892C1166.97 230.812 1165.41 230.003 1163.74 229.133L1161.74 228.887C1156.92 227.491 1151.92 227.301 1146.92 226.908L1148.37 223.352L1172.61 223.186C1166.4 218.095 1159.79 213.561 1153.78 208.196C1143.08 198.656 1133.44 188.519 1122.32 179.268C1118.73 176.283 1114.74 172.074 1110.28 170.454C1107.15 169.315 1106.1 167.144 1103.55 165.242C1098.37 161.389 1093.11 157.833 1087.11 155.187C1084.74 150.54 1046.05 132.715 1038.84 129.306C1035.33 127.644 1030.87 127.562 1028.64 124.507Z" fill="#555262"/>
<path d="M1177.8 213.303L1180.84 217.323C1178.59 219.477 1175.39 221.897 1174.08 224.655C1172.43 226.968 1170.74 230.091 1168.49 231.892C1166.97 230.812 1165.41 230.003 1163.74 229.133L1161.74 228.887C1160.35 227.219 1160.07 227.208 1160.16 225.136L1169.25 224.587L1171.5 221.342L1175.53 216.144L1177.8 213.303Z" fill="#717786"/>
<path d="M1087.12 155.187C1093.11 157.833 1098.38 161.389 1103.55 165.242C1106.1 167.144 1107.15 169.315 1110.28 170.454C1114.74 172.074 1118.73 176.283 1122.32 179.268C1133.44 188.519 1143.08 198.656 1153.78 208.196C1159.79 213.561 1166.4 218.095 1172.61 223.186L1148.37 223.352L1148.64 222.42L1148.8 220.916L1141.31 215.864C1145.41 216.597 1146.45 216.224 1150.29 214.369L1146.72 214.084C1145.11 212.484 1143.56 210.825 1141.47 209.745L1140.21 209.12C1139.51 205.474 1132.34 200.623 1130.21 197.045L1129.54 195.869L1127.01 194.761C1124.65 193.582 1122.68 192.154 1121.84 189.803C1120.39 189.054 1119.17 188.613 1118.24 187.31C1117.46 186.23 1116.59 185.427 1115.31 184.828C1108.9 181.814 1104.65 174.971 1098.86 170.85C1096.88 169.445 1095.05 167.921 1092.9 166.751L1091.6 166.056C1090.79 162.251 1088.84 162.734 1087.52 159.976C1087.06 159.02 1087.21 156.343 1087.12 155.187Z" fill="#26273A"/>
<path d="M1030.78 114.735C1032.79 114.732 1036.74 114.285 1038.28 115.238C1039.68 116.111 1041.13 116.137 1042.75 116.38C1046.97 117.016 1050.57 118.195 1054.92 118.034C1104.56 139.234 1143.17 174.985 1177.8 213.304L1175.53 216.144L1173.39 213.547C1170.49 207.828 1161.82 203.769 1157.38 198.082C1150.74 189.582 1141.86 183.123 1134.01 175.802C1131.69 173.637 1126.79 167.76 1123.92 166.876C1121.69 166.189 1120.26 164.408 1118.27 163.314C1109.06 158.234 1100.8 149.831 1091.41 144.355C1071.63 132.823 1051.4 124.543 1030.78 114.735Z" fill="#686D7D"/>
<path d="M872.325 95.4371L877.312 93.3822C883.118 90.9908 891.898 90.9936 898.214 90.3633C938.391 86.3607 981.664 90.27 1019.57 103.923L1023.38 105.681C1021.01 105.427 1018.82 105.232 1016.56 104.477C1014.65 103.835 1015.54 103.988 1013.34 103.804C1010.69 103.581 1007.48 103.411 1005.2 101.995L1004.46 101.481C1001.24 101.616 999.161 101.534 996.159 100.375C994.581 99.7648 993.913 99.516 992.159 99.4115C989.992 99.2814 987.507 98.945 985.488 98.1677C983.552 97.4215 982.963 97.0936 980.82 97.0851C979.336 97.0766 978.195 97.0512 976.708 96.8109L968.298 95.9601C952.282 93.1815 934.746 93.4189 918.506 94.4874C907.971 95.1799 898.484 95.2958 888.353 98.5663L884.125 98.8716L883.883 99.8298C885.995 101.879 892.578 109.627 894.936 110.303C922.639 133.224 951.958 158.429 985.109 174.344L984.502 177.922C953.314 160.928 926.436 140.019 898.49 118.947C897.616 117.2 893.67 114.489 892.083 113.073C885.5 107.193 878.917 101.308 872.325 95.4371Z" fill="#757E8D"/>
<path d="M847.101 100.115L854.989 97.8313L855.705 109.681L856.264 123.633L859.016 123.127L859.171 131.39C857.772 145.401 856.695 159.379 856.015 173.436C855.711 179.672 854.777 187.177 856.133 193.296C855.626 195.111 855.572 196.581 854.118 197.929C852.922 199.145 848.591 202.752 848.342 204.1L839.38 212.846C789.482 270.931 721.692 335.591 637.774 343.616L635.128 343.782C634.563 342.126 633.856 341.928 632.463 340.843C629.328 339.743 628.69 338.273 626.715 335.811L623.194 338.448C621.464 336.772 620.305 334.542 619.024 332.549C618.881 330.251 617.248 328.275 616.053 326.285C613.986 323.148 611.825 320.471 610.231 317.056C619.312 293.236 630.56 271.078 645.198 249.734L650.843 241.118C653.699 236.841 656.363 232.395 660.194 228.796L661.344 226.905C671.845 211.732 685.041 198.398 698.605 185.602C729.276 156.668 762.585 133.329 802.18 115.84C816.129 109.678 832.023 103.14 847.101 100.115Z" fill="#26273A"/>
<path d="M660.819 243.337L663.784 244.326C662.634 258.869 648.67 272.819 641.343 285.33C635.498 295.311 632.102 305.832 625.786 315.832C624.781 317.424 620.66 323.264 620.742 324.909C620.86 327.215 625.577 333.126 626.715 335.811L623.194 338.449C621.464 336.772 620.305 334.542 619.024 332.549C618.881 330.251 617.249 328.275 616.053 326.285L618.575 324.479L616.994 320.646C619.285 315.999 620.499 311.564 623.91 307.395C624.885 306.205 625.583 305.625 625.98 304.155C627.665 297.925 632.675 292.388 634.317 286.316C634.63 285.157 634.411 285.477 635.091 284.524C640.682 276.686 647.696 265.781 650.91 256.86C652.291 253.021 654.694 250.129 656.782 246.624L660.819 243.337Z" fill="#6E7387"/>
<path d="M772.194 166.389L774.983 168.382C751.425 187.821 727.746 206.121 701.551 222.417C693.445 227.46 685.563 232.76 676.84 236.867L663.784 244.326L660.818 243.337L656.782 246.624L645.197 249.734L650.842 241.118C653.698 236.841 656.363 232.395 660.193 228.797C666.898 226.999 671.077 221.605 675.523 217.046L681.975 209.844L684.042 209.957L659.258 240.281C663.183 238.84 677.493 234.399 679.159 230.939C688.929 226.784 697.348 221.309 706.228 215.771C712.844 211.647 719.94 207.63 725.631 202.401C729.862 200.004 733.413 197.112 737.127 194.085L768.852 168.665L772.194 166.389Z" fill="#717786"/>
<path d="M650.842 241.118C654.354 242.291 656.412 242.362 660.051 241.627L660.818 243.337L656.782 246.624L645.197 249.734L650.842 241.118Z" fill="#8B8F9F"/>
<path d="M645.198 249.734L656.782 246.624C654.694 250.129 652.29 253.021 650.91 256.86C647.695 265.781 640.682 276.686 635.091 284.524C634.411 285.477 634.63 285.157 634.317 286.316C632.675 292.388 627.664 297.925 625.98 304.155C625.582 305.625 624.884 306.205 623.91 307.395C620.499 311.564 619.285 315.999 616.993 320.646L618.575 324.479L616.053 326.285C613.986 323.148 611.825 320.471 610.231 317.056C619.312 293.236 630.56 271.078 645.198 249.734Z" fill="#757E8D"/>
<path d="M847.101 100.115L854.989 97.8313L855.705 109.681L856.264 123.633L859.017 123.127L859.171 131.39C857.772 145.401 856.695 159.379 856.015 173.436C855.711 179.672 854.777 187.177 856.133 193.296C855.626 195.111 855.572 196.581 854.118 197.929C852.922 199.145 848.591 202.752 848.342 204.1L839.38 212.846L835.823 211.005C840.084 205.94 847.408 199.001 849.593 193.062C851.939 186.673 850.907 176.602 851.311 169.736C852.327 152.428 854.68 134.872 854.009 117.564C849.559 119.071 844.093 121.643 839.371 121.77C840.218 120.538 840.855 119.387 841.447 118.031L838.482 118.019L837.295 119.125L834.627 119.13L833.444 119.681L831.96 119.136L830.184 122.437L824.852 123.882C827.119 119.876 830.955 116.812 834.354 113.627C836.588 110.752 839.389 108.248 842.47 106.162C845.11 104.372 845.924 102.942 847.101 100.115Z" fill="#626575"/>
<path d="M847.101 100.115L854.989 97.8313L855.706 109.681C853.19 109.907 850.528 109.774 848.558 111.416C846.027 111.408 845.69 110.662 843.818 110.314C841.814 109.941 836.245 112.697 834.354 113.627C836.588 110.752 839.389 108.248 842.47 106.162C845.11 104.372 845.924 102.942 847.101 100.115Z" fill="#686D7D"/>
<path d="M835.823 211.005L839.38 212.846C789.482 270.931 721.692 335.591 637.774 343.616L635.128 343.782C634.563 342.126 633.856 341.928 632.463 340.843C642.749 338.717 653.286 337.617 663.429 334.901C723.246 318.885 766.607 284.287 807.303 242.087C817.088 231.94 825.993 221.077 835.823 211.005Z" fill="#555262"/>
<path d="M660.194 228.796L661.344 226.905C671.845 211.732 685.041 198.398 698.604 185.602C729.276 156.668 762.585 133.329 802.18 115.84C816.129 109.678 832.023 103.14 847.101 100.115C845.923 102.942 845.11 104.372 842.47 106.161C839.389 108.248 836.588 110.752 834.354 113.627C830.955 116.812 827.119 119.876 824.851 123.882L774.983 168.382L772.194 166.389L768.853 168.665L737.128 194.085C733.413 197.112 729.862 200.004 725.631 202.401C719.941 207.63 712.845 211.647 706.228 215.771C697.348 221.309 688.929 226.784 679.159 230.939C677.493 234.399 663.183 238.84 659.259 240.281L684.043 209.957L681.976 209.844L675.523 217.046C671.077 221.605 666.898 226.999 660.194 228.796Z" fill="#626575"/>
<path d="M745.763 164.148C752.746 160.414 757.545 154.619 764.112 150.506C770.037 146.801 777.069 142.614 783.354 139.567C789.488 136.593 796.107 134.886 802.168 131.63C808.056 128.467 812.812 122.059 819.659 121.321C816.408 125.267 813.422 129.32 809.121 132.337L806.909 131.604C798.985 135.791 779.16 153.39 770.893 152.262L770.307 153.723L750.218 166.785C744.097 169.143 738.861 173.643 733.067 176.727L745.763 164.148Z" fill="#545E75"/>
<path d="M750.218 166.785L770.306 153.723L770.892 152.262C779.16 153.389 798.984 135.791 806.909 131.604L809.121 132.336C806.678 134.745 796.204 146.232 793.673 146.546L772.194 166.389L768.853 168.665L766.756 166.647L762.015 168.478L761.408 167.718L765.745 162.912C762.176 164.218 753.978 168.603 750.825 168.249L750.218 166.785Z" fill="#484859"/>
<path d="M765.745 162.912C773.172 159.023 785.782 146.354 793.673 146.546L772.195 166.389L768.853 168.665L766.756 166.647L762.015 168.478L761.408 167.718L765.745 162.912Z" fill="#433F4F"/>
<path d="M750.217 166.785L750.825 168.249C753.978 168.603 762.175 164.218 765.745 162.912L761.408 167.718L762.014 168.478L766.755 166.647L768.852 168.665L737.128 194.085C733.413 197.112 729.862 200.004 725.631 202.401C719.94 207.63 712.845 211.647 706.228 215.771C697.348 221.309 688.929 226.784 679.159 230.939L677.053 229C679.438 223.7 682.81 219.536 685.833 214.592C689.584 208.453 694.553 204.631 699.582 199.546C702.277 196.824 704.413 193.754 707.554 191.417C712.359 187.844 718.268 184.986 722.481 180.845C730.053 173.394 735.719 168.473 745.762 164.148L733.067 176.726C738.86 173.643 744.096 169.142 750.217 166.785Z" fill="url(#paint4_linear_14_669)"/>
<path d="M725.631 202.401C726.244 199.303 728.62 194.899 731.783 193.223C733.683 192.217 735.267 193.404 737.127 194.085C733.413 197.112 729.862 200.004 725.631 202.401Z" fill="#26273A"/>
<path d="M660.193 228.796L661.344 226.905C671.845 211.732 685.041 198.398 698.604 185.602C729.276 156.668 762.585 133.329 802.18 115.84C816.129 109.678 832.023 103.14 847.101 100.115C845.923 102.942 845.11 104.372 842.469 106.161C839.389 108.248 836.588 110.752 834.354 113.627C830.955 116.812 827.118 119.876 824.851 123.882L774.983 168.382L772.194 166.389L793.673 146.546C796.204 146.232 806.678 134.745 809.121 132.336C813.421 129.32 816.408 125.267 819.658 121.321C822.065 119.591 823.498 118.296 825 115.823C823.094 115.617 823.106 115.326 821.376 116.301C816.262 119.178 811.761 119.616 806.471 121.654C799.087 124.498 791.588 129.103 784.571 132.729C746.855 152.216 712.647 180.217 684.042 209.957L681.976 209.844L675.523 217.046C671.077 221.605 666.898 226.999 660.193 228.796Z" fill="#757E8D"/>
<path d="M848.342 204.1C849.405 207.291 848.027 209.55 847.584 212.69C846.904 217.524 846.315 226.286 847.456 230.965C846.103 251.789 844.673 272.768 843.872 293.609C843.496 303.364 843.483 313.127 842.946 322.876C842.813 325.324 843.171 329.773 842.388 331.899C841.198 335.138 836.427 340.193 834.218 343.107C819.379 362.701 804.089 379.413 785.199 395.686L770.103 406.987L774.355 409.149C757.411 423.619 738.46 430.756 716.111 435.089C709.427 436.387 701.989 438.125 695.136 437.916L693.415 437.834L690.695 438.939L691.463 443.762L689.102 445.158C688.805 446.634 688.334 448.112 688.535 449.607L683.554 508.617L676.889 506.909L612.42 494.738C610.556 491.433 612.684 484.579 613.288 480.726C611.98 478.702 611.758 478.705 609.397 477.783L610.854 469.922L613.318 455.552L621.604 404.867L626.114 342.776C624.997 342.228 623.668 340.235 622.821 339.282L623.194 338.449L626.715 335.811C628.69 338.273 629.328 339.743 632.463 340.843C633.856 341.928 634.563 342.126 635.128 343.782L637.774 343.616C721.692 335.591 789.482 270.931 839.38 212.846L848.342 204.1Z" fill="url(#paint5_linear_14_669)"/>
<path d="M667.02 401.769C670.13 406.526 673.961 411.473 676.364 416.549C674.929 418.053 674.783 418.361 672.722 418.847L664.288 406.537L667.02 401.769Z" fill="#433F4F"/>
<path d="M676.364 416.549C680.904 421.075 684.212 427.325 687.693 432.619C717.467 431.89 746.011 423.251 770.103 406.987L774.355 409.149C757.41 423.619 738.46 430.756 716.11 435.089C709.427 436.387 701.988 438.125 695.135 437.916L693.414 437.834L690.695 438.939L691.463 443.762L689.102 445.158C688.804 446.634 688.334 448.112 688.534 449.607L683.554 508.617L676.889 506.909L678.956 505.553C681.241 489.254 681.915 472.842 683.104 456.459C683.45 451.676 685.232 444.262 684.479 439.686C684.249 438.281 682.327 435.776 681.554 434.374C678.673 429.165 675.823 423.944 672.722 418.847C674.782 418.361 674.928 418.053 676.364 416.549Z" fill="url(#paint6_linear_14_669)"/>
<path d="M626.715 335.811C628.69 338.273 629.328 339.743 632.463 340.843C633.856 341.928 634.563 342.126 635.128 343.782C633.285 345.648 632.891 346.01 632.317 348.458C646.463 364.423 656.145 383.754 667.019 401.769L664.288 406.537L672.722 418.847C675.824 423.944 678.674 429.165 681.554 434.374C682.328 435.776 684.249 438.281 684.48 439.686C685.232 444.262 683.451 451.676 683.105 456.459C681.915 472.842 681.241 489.254 678.956 505.553L676.889 506.909L612.42 494.738C610.556 491.433 612.684 484.579 613.288 480.726C611.98 478.702 611.758 478.705 609.397 477.783L610.854 469.922L613.318 455.552L621.604 404.867L626.114 342.776C624.997 342.228 623.668 340.235 622.821 339.282L623.194 338.449L626.715 335.811Z" fill="#26273A"/>
<path d="M621.604 404.867L622.711 407.334L625.64 406.718C624.888 430.355 618.83 455.54 614.235 478.778L613.288 480.726C611.98 478.702 611.758 478.705 609.397 477.783L610.854 469.922L613.318 455.552L621.604 404.867Z" fill="#433F4F"/>
<path d="M610.854 469.922C613.024 470.4 613.024 470.787 614.402 472.469C614.223 474.564 613.892 476.692 614.235 478.778L613.288 480.726C611.98 478.702 611.758 478.705 609.397 477.783L610.854 469.922Z" fill="#555262"/>
<path d="M626.714 335.811C628.69 338.273 629.328 339.743 632.463 340.843C633.856 341.928 634.563 342.126 635.127 343.782C633.285 345.648 632.891 346.01 632.317 348.458C646.463 364.423 656.145 383.754 667.019 401.769L664.288 406.537C657.019 393.97 648.806 381.889 641.176 369.516C638.044 364.437 637.073 358.846 631.944 355.134L625.64 406.718L622.711 407.334L621.604 404.867L626.114 342.776C624.997 342.228 623.667 340.235 622.821 339.282L623.194 338.449L626.714 335.811Z" fill="#484859"/>
<path d="M626.715 335.811C628.69 338.273 629.328 339.743 632.463 340.843C633.856 341.928 634.563 342.126 635.128 343.782C633.285 345.648 632.891 346.01 632.317 348.458L631.625 354.108L627.531 352.144L626.114 342.776C624.997 342.228 623.668 340.235 622.821 339.282L623.194 338.449L626.715 335.811Z" fill="#626575"/>
<path d="M869.145 95.0245L871.733 94.7305L872.325 95.4371C878.917 101.308 885.5 107.193 892.083 113.073C893.67 114.489 897.616 117.2 898.49 118.947C926.436 140.019 953.314 160.928 984.502 177.922C991.892 184.062 1003.34 188.09 1012.35 191.838C1047.8 206.579 1083.41 217.665 1121.87 223.576C1130.05 224.833 1138.66 226.806 1146.92 226.908C1151.92 227.301 1156.92 227.491 1161.74 228.887L1163.74 229.133C1165.41 230.003 1166.97 230.812 1168.49 231.892L1164.78 236.751L1164.82 236.898L1102.25 315.502L1056.75 373.85L1053.08 374.197L1054.06 370.418C1062.41 362.416 1069.12 351.256 1076.03 342.118C1082.12 334.064 1088.97 326.526 1094.99 318.439C1092.93 315.733 1088.88 315.632 1085.48 314.826C1083.78 315.592 1078.65 315.126 1076.55 315.177C1054.42 315.677 1028.43 310.371 1007.19 304.823C996.059 302.332 985.091 297.278 974.823 292.673C960.917 286.441 946.297 279.925 934.367 270.71C934.837 268.378 933.581 266.445 932.606 264.356L900.754 238.311C884.811 224.684 873.075 205.406 856.133 193.296C854.777 187.177 855.712 179.672 856.015 173.436C856.695 159.379 857.772 145.401 859.172 131.39L859.017 123.127L856.264 123.633L855.705 109.681L854.989 97.8313L869.145 95.0245Z" fill="url(#paint7_linear_14_669)"/>
<path d="M1011.6 301.091C1028.99 305.716 1046.61 308.019 1064.54 309.925C1070.78 310.586 1077.63 310.363 1083.71 311.626L1098.58 311.793C1094.47 313.741 1088.75 312.35 1085.48 314.826C1083.78 315.592 1078.65 315.126 1076.55 315.177C1054.42 315.677 1028.43 310.371 1007.19 304.823C1008.54 303.398 1010.03 302.295 1011.6 301.091Z" fill="#433F4F"/>
<path d="M1083.71 311.626L1098.58 311.793C1094.47 313.741 1088.74 312.35 1085.48 314.826C1083.78 315.592 1078.65 315.126 1076.55 315.177C1074.81 314.337 1075.62 314.662 1073.57 313.97L1072.03 313.458C1075.16 311.581 1080.06 311.858 1083.71 311.626Z" fill="#484859"/>
<path d="M932.606 264.356C955.411 279.996 983.877 294.842 1011.6 301.091C1010.03 302.295 1008.54 303.398 1007.19 304.823C996.059 302.332 985.091 297.278 974.823 292.674C960.917 286.441 946.297 279.925 934.367 270.71C934.837 268.378 933.581 266.445 932.606 264.356Z" fill="#39373F"/>
<path d="M1163.74 229.133C1165.41 230.003 1166.97 230.812 1168.49 231.892L1164.78 236.751L1164.82 236.898L1102.25 315.502L1056.75 373.85L1053.08 374.197L1054.06 370.418C1062.41 362.416 1069.12 351.256 1076.03 342.118C1082.12 334.064 1088.97 326.526 1094.99 318.439C1092.93 315.733 1088.88 315.632 1085.48 314.826C1088.74 312.35 1094.47 313.741 1098.57 311.793C1105.05 306.697 1110.45 298.392 1115.4 291.992C1125.4 279.063 1135.67 266.332 1145.76 253.465C1151.07 246.695 1155.82 239.249 1162.13 233.237C1163.38 232.047 1163.36 230.736 1163.74 229.133Z" fill="#626575"/>
<path d="M869.145 95.0245L871.733 94.7305L872.325 95.4371C878.917 101.308 885.5 107.193 892.083 113.073C893.67 114.489 897.616 117.2 898.49 118.947L896.032 119.529L894.189 118.031C893.124 118.596 892.274 119.153 891.312 119.865C889.937 120.88 888.553 121.589 887.078 122.449L886.232 122.994C883.445 124.719 879.409 126.742 876.122 127.141C873.19 127.497 875.348 127.203 873.466 127.701C869.964 128.622 865.484 126.858 862.786 129.063L859.172 131.39L859.017 123.127L856.264 123.633L855.705 109.681L854.989 97.8313L869.145 95.0245Z" fill="url(#paint8_linear_14_669)"/>
<path d="M854.989 97.8313L869.145 95.0244C866.701 98.0687 864.273 100.782 861.302 103.391L859.017 123.127L856.264 123.633L855.705 109.681L854.989 97.8313Z" fill="#6E7387"/>
<path d="M1222.07 659.233L1223.82 658L1228.72 659.47C1203.17 734.103 1170.92 805.903 1128.45 873.658C1096.63 924.417 1059.72 976.436 1001.91 1004.07C968.683 1019.96 932.5 1025.31 895.433 1024.85C876.267 1024.61 857.244 1022.95 838.913 1017.49C828.876 1014.5 819.252 1010.34 810.541 1004.81C811.913 1004.44 812.742 1004.28 814.198 1004.41L815.37 1004.55C819.279 1001.64 819.161 1001.05 820.099 996.389C820.578 994.012 821.07 991.929 822.539 989.874L823.058 989.218L822.478 987.01L821.877 984.246C821.018 982.315 820.59 980.551 819.816 978.728C818.46 975.54 819.182 979.296 818.775 976.707C818.256 973.411 815.406 971.3 813.643 968.504C811.027 964.357 809.218 959.53 806.459 955.541C803.269 950.928 805.749 944.076 803.233 938.816C802.265 936.792 801.873 934.748 801.385 932.583L833.413 965.776C836.864 969.335 844.163 976.682 846.014 981.052C846.664 982.589 846.288 986.51 846.385 988.41C846.758 995.75 846.609 1003.41 847.59 1010.69C848.036 1014 848.121 1014.4 850.928 1016.48C853.784 1013.71 852.251 987.497 852.573 982.219C858.916 977.499 862.294 970.619 867.372 964.852C876.38 954.62 886.344 945.06 897.312 936.656C921.009 918.857 950.382 906.151 980.966 903.118C990.247 902.199 999.998 903.471 1009.11 901.614L1010.02 901.413C1012.56 901.015 1014.77 900.104 1017.13 899.186C1015.9 896.888 1014.96 894.881 1014.35 892.374C1017.8 887.698 1016.43 855.624 1017.19 846.805C1018.22 834.84 1020 822.928 1022.14 811.093C1026.24 788.332 1033.02 766.426 1042.53 745.099C1046.61 735.943 1051.79 727.257 1056.24 718.251C1059.36 712.191 1065.27 705.113 1066.47 698.56C1067.03 697.625 1073.25 695.352 1074.67 694.71L1111.56 665.008L1115.03 661.373L1159.14 660.561L1179.93 662.11L1174.09 662.775L1173.8 663.908L1174.02 663.968C1181.3 664.259 1188.6 663.826 1195.91 664.191C1198.68 664.329 1204.15 665.55 1206.59 665.129C1207.46 664.982 1208.66 663.286 1209.56 663.043C1214.68 661.658 1218.42 664.768 1223.32 661.291L1222.07 659.233Z" fill="#0B0513"/>
<path d="M1044.5 936.981L1045.13 935.246C1046.56 934.491 1046.95 934.446 1048.52 934.347L1061.11 953.885L1060.54 956.378C1058.93 955.697 1058.78 955.9 1057.85 954.388L1044.5 936.981Z" fill="#39373F"/>
<path d="M1074.67 694.71L1060.05 721.583L1058.11 721.304C1056.64 720.142 1056.8 719.887 1056.24 718.251C1059.36 712.19 1065.28 705.112 1066.47 698.56C1067.03 697.625 1073.25 695.352 1074.67 694.71Z" fill="#26273A"/>
<path d="M1044.5 936.981C1040.08 933.109 1036.33 927.356 1032.69 922.805C1027.36 916.16 1018.75 907.878 1016.96 899.661C1029.93 908.887 1038.76 922.322 1048.52 934.347C1046.95 934.446 1046.56 934.491 1045.13 935.246L1044.5 936.981Z" fill="#26273A"/>
<path d="M1111.56 665.008L1115.03 661.373L1159.14 660.561L1179.93 662.11L1174.09 662.775L1173.8 663.908L1111.56 665.008Z" fill="#484859"/>
<path d="M1151.42 754.475C1160.43 735.587 1171.46 717.533 1182.47 699.606C1189.3 688.48 1197.08 674.426 1207.06 665.57C1203.64 675.24 1197.36 683.912 1192 692.732C1179.25 713.734 1164.31 735.575 1155.37 758.226L1151.42 754.475Z" fill="#26273A"/>
<path d="M1151.42 754.474L1155.37 758.225C1136.08 790.944 1124.95 828.573 1115.19 864.59C1111.1 879.701 1109.54 893.781 1102.73 908.271C1104.11 880.838 1112.97 853.815 1121.65 827.793C1130.12 802.406 1138.9 778.504 1151.42 754.474Z" fill="#39373F"/>
<path d="M1056.24 718.251C1056.8 719.887 1056.64 720.142 1058.11 721.304L1060.05 721.583C1037.19 766.771 1024.17 812.724 1021.82 862.736C1021.24 875.046 1020.34 886.743 1022.62 898.968L1021.45 898.773C1019.79 898.578 1018.72 898.813 1017.13 899.186C1015.9 896.888 1014.96 894.881 1014.35 892.373C1017.8 887.698 1016.43 855.624 1017.19 846.805C1018.22 834.839 1020 822.928 1022.14 811.093C1026.24 788.332 1033.02 766.426 1042.53 745.098C1046.61 735.943 1051.79 727.257 1056.24 718.251Z" fill="#24212F"/>
<path d="M1174.08 224.655C1182.25 231.377 1185.32 237.604 1191.57 245.496C1198.15 253.798 1205.37 261.976 1211.4 270.603C1217.06 278.693 1216.93 283.99 1226.64 289.564C1234.91 306.583 1243.75 324.694 1248.09 343.014C1265.94 399.256 1270.1 457.966 1262.15 516.099C1260.81 525.879 1260.11 536.451 1257.31 545.951C1252.6 584.241 1239.89 622.472 1228.72 659.47L1223.82 658L1222.07 659.233L1223.32 661.291C1218.42 664.767 1214.68 661.658 1209.56 663.043C1208.66 663.286 1207.46 664.982 1206.59 665.129C1204.15 665.55 1198.68 664.329 1195.91 664.191C1188.6 663.826 1181.3 664.259 1174.02 663.967L1173.8 663.908L1174.09 662.775L1179.93 662.11L1159.14 660.561L1115.03 661.373C1130.07 642.996 1144.94 623.351 1150.87 600.492C1153.5 590.327 1153.95 579.464 1154.64 569.062L1154.61 563.723L1151.44 539.543C1149.04 527.716 1146.2 516.26 1142.34 504.758C1141.06 500.908 1140.07 496.242 1137.24 493.163L1126.66 494.031L1121.46 494.67C1105.07 496.601 1088.88 498.791 1072.64 501.669C1065.65 502.91 1057.67 503.684 1050.99 505.943L1028.33 510.191C1025.69 498.814 1025.41 486.693 1024.73 475.095C1023.88 460.513 1022.86 445.972 1023.29 431.364C1023.38 428.028 1022.61 423.167 1023.29 420.001C1024 416.699 1029.08 411.032 1031.17 408.245C1039.33 397.373 1048.93 386.479 1056.03 375.028L1056.75 373.85L1102.25 315.502L1164.82 236.898L1164.78 236.751L1168.49 231.892C1170.74 230.091 1172.44 226.968 1174.08 224.655Z" fill="url(#paint9_linear_14_669)"/>
<path d="M1186.02 343.751L1206.07 430.92C1205.32 433.173 1204.78 435.878 1203.13 437.712C1199.03 426.705 1196.45 414.703 1193.74 403.329C1189.29 384.659 1185.29 366.121 1182.05 347.228L1186.02 343.751Z" fill="#484859"/>
<path d="M1168.36 239.021C1172.26 239.532 1171.97 239.538 1174.2 242.251C1175.86 251.249 1173.79 262.055 1176.7 270.476L1186.02 343.751L1182.05 347.228L1168.36 239.021Z" fill="#433F4F"/>
<path d="M1206.07 430.92C1215.83 461.683 1224.66 494.441 1239.51 523.406C1243.34 533.149 1252.52 548.518 1250.3 558.844C1247.62 556.393 1245.93 549.733 1244.36 546.367C1236.05 528.632 1228.79 510.542 1221.77 492.344C1214.93 474.595 1207.22 456.227 1203.13 437.713C1204.78 435.878 1205.32 433.173 1206.07 430.92Z" fill="#39373F"/>
<path d="M1154.61 563.723C1159.37 569.062 1161.68 576.474 1165.07 582.667C1175.15 601.049 1185.64 618.764 1196.61 636.702C1201.74 645.111 1204.58 653.416 1212.41 660.177C1215.92 660.366 1218.66 659.973 1222.07 659.233L1223.32 661.291C1218.42 664.768 1214.68 661.658 1209.56 663.043C1208.66 663.286 1207.46 664.982 1206.59 665.129C1204.15 665.55 1198.68 664.329 1195.91 664.191C1188.6 663.826 1181.3 664.259 1174.02 663.968L1173.8 663.908L1174.09 662.775L1179.93 662.11L1159.14 660.561L1115.03 661.373C1130.07 642.997 1144.94 623.351 1150.87 600.492C1153.5 590.327 1153.95 579.464 1154.64 569.062L1154.61 563.723Z" fill="#0B0513"/>
<path d="M1154.61 563.723C1159.37 569.062 1161.68 576.474 1165.07 582.667C1175.15 601.049 1185.64 618.764 1196.61 636.702C1201.74 645.111 1204.58 653.416 1212.41 660.177C1215.92 660.366 1218.66 659.973 1222.07 659.233L1223.32 661.291C1218.42 664.768 1214.68 661.658 1209.56 663.043C1208.66 663.286 1207.46 664.982 1206.59 665.129C1204.15 665.55 1198.68 664.329 1195.91 664.191C1188.6 663.826 1181.3 664.259 1174.02 663.968L1173.8 663.908L1174.09 662.775L1179.93 662.11L1159.14 660.561C1173.88 658.263 1191.07 659.521 1206.12 659.233C1191.89 639.489 1178.75 619.532 1167.52 598.146C1163.78 591.025 1159.04 583.442 1157.19 575.682C1156.6 573.217 1155.9 571.301 1154.64 569.062L1154.61 563.723Z" fill="#39373F"/>
<path d="M1056.75 373.85L1102.25 315.502C1103.25 317.93 1104.13 318.775 1103.2 321.288C1107.62 352.05 1106.73 383.291 1111.23 414.248C1113.48 429.77 1116.29 445.085 1119.7 460.419C1122.11 471.257 1126.41 483.016 1126.66 494.031L1121.46 494.67C1105.07 496.601 1088.88 498.791 1072.64 501.669C1065.65 502.91 1057.67 503.684 1050.99 505.943L1028.33 510.191C1025.69 498.814 1025.41 486.693 1024.73 475.095C1023.88 460.513 1022.86 445.972 1023.29 431.364C1023.38 428.028 1022.61 423.167 1023.29 420.001C1024 416.699 1029.08 411.032 1031.17 408.245C1039.33 397.373 1048.93 386.479 1056.03 375.028L1056.75 373.85Z" fill="#0B0513"/>
<path d="M1121.46 494.67C1121.73 489.067 1119.39 483.01 1118.11 477.557C1115.4 465.923 1112.72 454.229 1110.41 442.521C1106.97 425.029 1104.83 407.377 1102.88 389.693C1101.46 376.756 1096.11 329.395 1103.2 321.288C1107.62 352.05 1106.73 383.291 1111.23 414.248C1113.48 429.77 1116.29 445.085 1119.7 460.419C1122.11 471.257 1126.41 483.016 1126.66 494.031L1121.46 494.67Z" fill="#433F4F"/>
<path d="M1174.08 224.655C1182.25 231.377 1185.31 237.604 1191.57 245.496C1198.15 253.798 1205.36 261.976 1211.4 270.603C1217.06 278.693 1216.93 283.99 1226.64 289.564C1234.91 306.583 1243.74 324.694 1248.09 343.014C1265.94 399.256 1270.09 457.966 1262.15 516.099C1260.81 525.879 1260.11 536.451 1257.31 545.951L1255 545.818C1254.88 547.416 1254.99 548.871 1254 550.248C1253 551.65 1253.25 553.566 1253.13 555.288C1252.02 551.059 1252.33 547.577 1249.85 543.687C1248.29 541.225 1248.42 538.342 1246.92 536.236C1246.18 535.199 1246.38 535.727 1246.05 534.625C1244.67 530.017 1243.18 526.857 1239.5 523.406C1224.66 494.441 1215.83 461.683 1206.07 430.92L1186.02 343.751L1176.7 270.476C1173.79 262.055 1175.86 251.249 1174.19 242.251C1171.97 239.538 1172.26 239.532 1168.36 239.021L1164.82 236.898L1164.78 236.751L1168.49 231.892C1170.74 230.091 1172.43 226.968 1174.08 224.655Z" fill="url(#paint10_linear_14_669)"/>
<path d="M1174.08 224.655C1182.25 231.377 1185.31 237.604 1191.57 245.496C1198.15 253.798 1205.36 261.976 1211.4 270.603C1217.06 278.693 1216.93 283.99 1226.64 289.564C1234.91 306.583 1243.74 324.694 1248.09 343.014L1244.54 340.515C1244.27 339.282 1244.08 338.415 1243.32 337.346L1242.76 336.656C1242.94 334.779 1242.85 333.807 1241.91 332.168L1240.98 330.579C1239.15 326.11 1233.4 323.088 1230.26 319.168C1227.88 316.18 1226.19 311.852 1224.38 308.494L1222.3 308.223L1223.19 310.156C1224.28 312.265 1224.17 313.642 1224.08 315.937L1223.02 315.131C1221.29 309.975 1219.3 303.884 1216.34 299.274C1213.62 295.065 1209.62 291.715 1206.88 287.487C1200.85 278.204 1195.31 268.63 1188.91 259.559C1186.11 255.579 1181.02 250.794 1179.53 246.342L1179.33 245.556C1178.64 243.391 1178.38 241.03 1177.56 238.939C1176.71 236.754 1174.62 232.542 1172.51 231.756C1171.17 233.003 1169.71 233.887 1169.25 235.626L1171.62 236.188C1173.81 238.3 1175.75 239.727 1176.65 242.63L1176.95 243.631C1177.54 245.239 1177.6 245.33 1177.21 247.125C1175.65 254.268 1176.69 263.126 1176.7 270.476C1173.79 262.055 1175.86 251.249 1174.19 242.251C1171.97 239.538 1172.26 239.532 1168.36 239.021L1164.82 236.898L1164.78 236.751L1168.49 231.892C1170.74 230.091 1172.43 226.968 1174.08 224.655Z" fill="#26273A"/>
<path d="M856.133 193.296C873.075 205.406 884.811 224.684 900.754 238.311L932.606 264.356C933.58 266.445 934.837 268.378 934.366 270.71C946.297 279.925 960.917 286.441 974.823 292.674C985.09 297.278 996.059 302.332 1007.19 304.823C1028.43 310.371 1054.42 315.677 1076.55 315.177C1078.65 315.126 1083.78 315.592 1085.48 314.826C1088.88 315.632 1092.93 315.733 1094.99 318.439C1088.97 326.526 1082.12 334.064 1076.03 342.118C1069.12 351.256 1062.41 362.416 1054.06 370.418L1053.08 374.197L1056.75 373.85L1056.03 375.028C1048.93 386.479 1039.33 397.373 1031.17 408.245C1029.08 411.032 1024 416.699 1023.29 420.001C1022.61 423.167 1023.38 428.028 1023.29 431.364C1022.86 445.972 1023.88 460.513 1024.73 475.095C1025.41 486.693 1025.69 498.814 1028.33 510.191L1050.99 505.943C1057.67 503.684 1065.65 502.91 1072.64 501.669C1088.88 498.791 1105.07 496.601 1121.46 494.67L1126.66 494.031L1137.24 493.163C1140.07 496.242 1141.06 500.908 1142.34 504.758C1146.2 516.26 1149.04 527.717 1151.44 539.543L1154.61 563.723L1154.64 569.062C1153.95 579.464 1153.5 590.327 1150.87 600.492C1144.94 623.351 1130.07 642.996 1115.03 661.373L1111.56 665.008L1074.67 694.71C1073.25 695.352 1067.03 697.625 1066.47 698.56C1065.27 705.112 1059.36 712.19 1056.24 718.251C1051.79 727.257 1046.61 735.943 1042.53 745.098C1033.02 766.426 1026.24 788.332 1022.14 811.093C1020 822.928 1018.22 834.839 1017.19 846.805C1016.43 855.624 1017.8 887.698 1014.35 892.373C1014.96 894.881 1015.9 896.888 1017.13 899.186C1014.77 900.104 1012.56 901.015 1010.02 901.413L1009.11 901.614C999.998 903.471 990.247 902.199 980.966 903.118C950.382 906.151 921.009 918.857 897.312 936.656C886.344 945.06 876.38 954.62 867.372 964.852C862.294 970.618 858.916 977.498 852.573 982.219C852.251 987.496 853.784 1013.71 850.928 1016.48C848.121 1014.4 848.036 1014 847.59 1010.69C846.609 1003.41 846.758 995.75 846.385 988.409C846.288 986.51 846.664 982.589 846.015 981.052C844.163 976.682 836.864 969.335 833.413 965.776L801.385 932.583L784.535 917.797L785.372 915.555L784.337 913L783.909 911.733C782.401 909.489 777.685 906.931 775.363 905.373C766.935 899.711 758.849 894.604 749.565 890.234C739.92 885.694 739.635 884.97 736.402 875.535L733.498 874.622C730.906 872.51 730.329 871.094 729.662 868.005L728.812 863.9C724.775 861.673 726.842 859.776 724.669 856.729L723.78 857.829L723.47 854.51L716.323 849.609L714.028 848.266L716.311 844.114L715.628 841.27L713.998 840.815L711.916 843.84L708.79 844.956L707.151 845.454C706.398 843.124 704.104 841.912 702.165 840.323L693.466 822.196C695.612 804.439 686.289 789.652 681.065 772.955C677.083 762.825 674.064 752.428 670.133 742.294C665.742 730.971 658.637 718.392 656.197 706.831C655.156 701.52 650.706 694.888 648.369 689.781C645.18 686.702 641.729 684.472 637.944 682.109C632.736 675.17 625.558 669.078 621.373 661.534C616.99 653.639 614.787 643.686 612.204 635.127C606.586 616.519 601.63 597.713 596.307 579.029C592.191 562.241 585.757 543.359 586.264 526.125C586.58 515.401 590.65 504.193 589.026 493.579C592.261 491.945 592.455 492.233 595.9 492.838L596.868 492.965C600.395 493.101 603.597 493.587 606.684 491.685C607.658 489.101 607.606 486.255 607.797 483.527L609.397 477.783C611.758 478.705 611.98 478.702 613.288 480.726C612.684 484.579 610.556 491.433 612.42 494.738L676.889 506.909L683.554 508.617L688.534 449.607C688.334 448.112 688.805 446.634 689.102 445.158L691.463 443.762L690.695 438.939L693.415 437.834L695.136 437.916C701.989 438.125 709.427 436.387 716.11 435.089C738.46 430.756 757.411 423.619 774.355 409.149L770.103 406.987L785.199 395.686C804.089 379.413 819.379 362.701 834.217 343.107C836.427 340.193 841.198 335.139 842.388 331.899C843.171 329.774 842.813 325.324 842.946 322.876C843.483 313.127 843.495 303.364 843.872 293.609C844.673 272.768 846.103 251.789 847.456 230.965C846.315 226.286 846.904 217.524 847.584 212.69C848.027 209.55 849.405 207.291 848.342 204.1C848.591 202.752 852.922 199.145 854.118 197.929C855.572 196.581 855.626 195.111 856.133 193.296Z" fill="#0B0513"/>
<path d="M785.2 395.686L789.67 397.794L774.356 409.149L770.104 406.987L785.2 395.686Z" fill="#26273A"/>
<path d="M1008.56 898.369L1009.9 897.289C1010.87 891.814 990.438 870.28 986.116 863.895L986.675 862.792L989.64 866.656C992.496 870.902 996.12 875.346 999.455 879.294C1001.15 881.301 1003.81 883.221 1004.77 885.604L1005.05 886.531C1006.81 887.738 1007.81 888.368 1008.96 890.143C1009.87 891.551 1010.58 892.325 1011.87 893.433L1011.57 891.5L1010.69 890.395C1009.31 888.083 1010.82 889.815 1009.49 888.275L997.938 873.488L997.048 872.454L997.346 870.068L1014.35 892.373C1014.96 894.881 1015.9 896.888 1017.13 899.186C1014.77 900.104 1012.56 901.015 1010.02 901.413L998.023 900.913L997.519 899.782C1000.64 899.711 1003.95 899.808 1006.94 898.897L1008.56 898.369Z" fill="#26273A"/>
<path d="M667.514 702.184L672.188 704.948C672.333 706.314 672.087 707.755 673.089 708.79C675.499 711.28 678.346 714.517 679.198 717.827L677.265 716.572C677.878 718.279 678.434 718.972 679.605 720.354C677.957 721.386 677.866 721.383 677.247 723.127L678.421 724.218L677.247 725.334L677.948 725.504C679.423 725.959 680.664 726.773 681.978 727.531L682.167 728.223C682.634 729.521 683.478 730.321 684.349 731.395L686.419 734.156L685.533 735.813L686.088 737.02C686.731 738.518 687.01 739.767 687.317 741.339C688.085 745.245 689.077 747.018 691.463 750.167C692.34 751.326 692.619 752.999 692.911 754.344C693.299 756.139 693.873 756.467 695.017 757.895C696.255 759.438 698.219 761.507 697.994 763.415C696.243 763.079 695.269 762.757 693.833 761.762L693.244 763.141L689.59 762.672L687.317 756.798L686.719 755.136C686.191 753.041 685.542 751.125 684.947 749.067C684.318 746.893 682.816 745.602 682.279 743.614C680.2 735.929 675.502 728.24 673.092 720.359C672.701 719.082 672.682 718.324 671.869 717.185L671.32 716.501C671.216 714.556 671.104 713.454 671.887 711.588L672.467 710.415L671.32 709.058C669.14 706.636 668.239 705.336 667.514 702.184Z" fill="#26273A"/>
<path d="M783.909 911.733C802.641 925.146 823.798 943.943 836.761 962.449L833.413 965.776L801.385 932.583L784.534 917.797L785.372 915.555L784.337 913L783.909 911.733Z" fill="#24212F"/>
<path d="M895.73 933.385L895.891 933.086C915.224 914.758 950.879 901.682 977.958 898.793C987.979 897.721 998.477 898.27 1008.56 898.369L1006.94 898.897C1003.95 899.807 1000.64 899.711 997.518 899.782L998.022 900.913L1010.02 901.413L1009.11 901.614C999.998 903.471 990.246 902.199 980.965 903.117C950.382 906.15 921.009 918.856 897.312 936.656L895.73 933.385Z" fill="#24212F"/>
<path d="M688.534 449.607C688.334 448.112 688.805 446.634 689.102 445.158L691.463 443.762L690.695 438.939L693.415 437.834L692.659 440.511L739.128 515.805C737.085 516.814 738.151 516.365 735.932 517.142L690.881 448.813L688.534 449.607Z" fill="#24212F"/>
<path d="M836.761 962.449L846.011 973.281L843.923 918.551H845.001C845.001 930.327 843.641 943.878 846.187 954.99C846.822 957.757 845.35 960.926 846.621 963.685C847.617 965.853 847.316 969.154 847.374 971.551C844.919 972.009 844.6 972.182 842.333 971.277L841.447 972.105C843.08 974.389 846.072 977.609 847.077 980.11C847.784 981.874 847.893 984.924 848.558 987.01C849.678 990.513 847.338 995.425 848.992 999.018C850.576 1002.47 849.884 1009.77 850.042 1013.79C852.151 1003.17 849.754 992.599 850.64 982.041C851.05 977.137 851.016 973.844 849.744 969.344C848.415 964.646 851.596 958.127 848.558 953.885C848.521 944.144 846.846 931.294 849.153 921.96L852.373 978.946C865.317 961.624 877.885 946.643 895.731 933.386L897.312 936.656C886.344 945.06 876.38 954.62 867.372 964.852C862.294 970.618 858.916 977.499 852.573 982.219C852.251 987.496 853.784 1013.71 850.928 1016.48C848.121 1014.4 848.036 1014 847.59 1010.69C846.609 1003.41 846.758 995.75 846.385 988.409C846.288 986.51 846.664 982.589 846.014 981.052C844.163 976.682 836.864 969.335 833.413 965.776L836.761 962.449Z" fill="#26273A"/>
<path d="M1005.39 433.956C1006.91 433.456 1007.93 433.461 1008.89 432.218C1010.78 429.747 1012.82 427.61 1014.54 424.99L1015.72 425.541C1015.03 429.165 1008.97 435.714 1006.24 438.792L1005.71 442.136C1005.64 443.355 1002.15 447.312 1001.3 448.547C991.631 462.576 980.751 475.663 971.13 489.681C968.11 494.079 963.448 499.797 962.231 504.931C961.773 506.861 961.166 508.221 960.231 510.01C957.163 510.748 955.075 511.989 952.219 510.561C955.381 495.984 971.363 478.891 980.432 466.655C988.432 455.863 996.223 443.866 1005.39 433.956Z" fill="#26273A"/>
<path d="M857.335 338.991C871.084 356.729 884.957 371.925 902.787 386.332C910.023 392.178 917.726 398.363 926.233 402.523C940.664 409.582 957.457 413.262 973.163 416.829C964.698 417.067 958.085 415.39 949.924 413.937L948.737 412.832L947.481 412.629C944.631 412.103 942.686 411.3 940.142 410.079C938.855 409.46 934.558 407.289 933.326 407.334C938.024 410.495 944.989 413.061 950.51 414.506L962.868 418.056C965.336 418.695 967.6 420.035 969.815 421.199C963.193 420.75 955.66 418.57 949.384 416.521C918.536 406.452 897.968 389.868 875.837 368.315C867.615 360.307 857.927 350.858 852.71 340.848C854.364 340.65 855.86 339.704 857.335 338.991Z" fill="#26273A"/>
<path d="M847.456 230.965L848.179 232.477C849.896 236.383 849.168 242.919 849.162 247.218C851.286 244.954 850.434 242.02 852.324 239.473C852.221 264.336 850.2 289.561 849.092 314.445C848.971 317.215 847.399 326.302 848.23 328.425C849.35 331.291 855.086 336.385 857.335 338.991C855.86 339.704 854.364 340.651 852.71 340.848L850.336 337.38L848.87 338.313C848.576 350.835 847.927 363.352 847.62 375.871C847.441 383.053 849.059 390.895 846.181 397.662L845.001 396.833C845.059 394.272 844.676 390.759 845.754 388.416C848.965 381.439 843.817 369.242 846.188 362.051C848.373 355.431 847.374 347.183 847.374 339.969L845.584 340.521C845.31 342.793 845.04 344.93 844.409 347.146C843.502 350.34 844.509 355.214 843.065 357.907C840.743 362.249 842.594 376.484 842.631 381.928H840.864C841.107 372.479 841.18 362.851 842.133 353.438C842.366 351.149 844.36 342.468 843.529 341.219C825.838 359.75 811.385 382.949 789.67 397.794L785.199 395.686C804.089 379.413 819.379 362.701 834.218 343.107C836.427 340.193 841.198 335.139 842.388 331.899C843.171 329.774 842.813 325.324 842.946 322.876C843.483 313.127 843.495 303.364 843.872 293.609C844.673 272.768 846.103 251.789 847.456 230.965Z" fill="url(#paint11_linear_14_669)"/>
<path d="M973.163 416.829C981.53 417.618 990.319 418.74 998.726 418.477C1002.28 418.367 1014.84 418.556 1017.53 417.095C1019.95 415.783 1024.27 408.934 1026.09 406.526C1035.09 394.603 1043.37 381.015 1054.06 370.418L1053.08 374.197L1056.75 373.85L1056.03 375.029C1048.93 386.479 1039.33 397.373 1031.17 408.245C1029.08 411.032 1024 416.699 1023.29 420.001C1022.61 423.167 1023.38 428.029 1023.29 431.364C1022.86 445.972 1023.88 460.513 1024.73 475.095C1025.41 486.693 1025.69 498.814 1028.33 510.191L1025.02 510.79C1019.85 502.927 1020.35 494.676 1019.49 485.763C1017.6 466.152 1016.89 447.25 1017.96 427.551L1005.71 442.136L1006.24 438.792C1008.97 435.714 1015.02 429.165 1015.72 425.541L1014.54 424.99C1012.82 427.61 1010.78 429.747 1008.88 432.218C1007.93 433.461 1006.91 433.456 1005.39 433.956L1013.27 423.285C998.599 423.362 984.356 423.379 969.815 421.199C967.599 420.035 965.335 418.695 962.868 418.056L950.509 414.506C944.989 413.061 938.023 410.495 933.325 407.334C934.557 407.289 938.855 409.46 940.142 410.079C942.685 411.3 944.631 412.103 947.48 412.629L948.737 412.832L949.924 413.938C958.085 415.39 964.698 417.067 973.163 416.829Z" fill="#24212F"/>
<path d="M688.534 449.607L690.88 448.813L735.932 517.142C738.15 516.365 737.085 516.814 739.128 515.805C743.182 520.299 744.788 525.828 747.544 531.038C727.473 521.334 705.482 513.753 683.554 508.617L688.534 449.607Z" fill="#140F20"/>
<path d="M648.369 689.781L664.191 699.487L667.514 702.184C668.239 705.336 669.141 706.636 671.32 709.058L672.467 710.415L671.887 711.588C671.104 713.454 671.217 714.556 671.32 716.501L671.869 717.185C672.682 718.324 672.701 719.082 673.092 720.359C675.502 728.24 680.2 735.929 682.279 743.614C682.816 745.602 684.319 746.893 684.947 749.067C685.542 751.125 686.191 753.041 686.719 755.136L687.317 756.798L689.591 762.672C689.912 765.419 690.276 766.539 691.463 768.938L691.724 769.939C692.474 772.715 694.283 775.316 695.281 778.086C695.706 779.264 696.574 780.124 697.39 781.082H698.586L698.292 778.88L699.773 778.334C700.635 779.462 701.133 780.316 701.551 781.647C705.145 784.434 706.052 785.542 706.75 789.975C708.101 798.545 715.825 806.66 716.359 814.762L715.172 815.864C715.172 818.722 716.101 823.832 713.986 825.803C714.696 827.108 715.251 827.552 716.359 828.561L718.147 830.229C722.032 829.472 725.78 824.929 728.52 822.32C727.977 826.227 724.08 827.866 724.071 830.495L720.52 833.531L721.704 834.647C723.309 833.997 723.552 834.268 724.299 832.705L724.966 831.329L725.504 830.173C726.19 828.892 727.039 828.31 728.226 827.459L729.182 828.561L728.696 829.392C727.094 832.247 726.715 833.647 727.027 836.844C724.827 838.687 722.812 840.026 721.698 842.641C720.532 843.291 718.975 843.715 718.541 844.928C717.959 846.556 716.86 847.995 716.323 849.609L714.028 848.266L716.311 844.114L715.628 841.27L713.998 840.815L711.916 843.84L708.79 844.956L707.151 845.454C706.398 843.124 704.104 841.912 702.164 840.323L693.466 822.196C695.612 804.439 686.288 789.652 681.065 772.955C677.083 762.824 674.063 752.428 670.133 742.294C665.741 730.971 658.636 718.392 656.196 706.831C655.155 701.52 650.706 694.888 648.369 689.781Z" fill="#24212F"/>
<path d="M648.369 689.781L664.191 699.487C664.197 702.108 663.505 705.816 665.356 707.733C666.816 709.245 667.872 710.87 668.949 712.626L667.775 713.728C667.769 715.308 667.386 716.982 668.318 718.29C669.165 719.477 669.031 720.153 669.435 721.465L675.362 736.785C676.519 740.268 678.859 743.385 680.206 746.859L681.065 748.651C682.938 752.589 683.475 756.979 684.822 761.092C686.297 765.597 688.953 769.478 690.343 774.165L694.101 783.547C696.101 789.095 699.803 794.127 701.545 799.859C702.514 803.048 703.649 806.005 704.501 809.238C705.251 812.068 705.761 814.024 705.7 816.981C707.901 820.067 705.579 823.971 707.333 826.427L708.058 827.459L708.62 828.188C711.191 831.606 711.039 835.56 711.615 839.605C713.576 838.585 715.233 837.262 716.963 835.945C718.56 836.634 719.033 837.084 719.916 838.5C718.93 840.922 718.22 842.24 716.311 844.114L715.628 841.27L713.998 840.815L711.916 843.84L709.449 842.768L709.479 836.844C708.99 832.052 706.805 832.021 704.514 828.358C702.966 825.882 702.951 820.5 702.577 817.605C701.937 812.65 700.608 807.78 699.099 802.997C691.83 779.965 680.285 757.604 670.874 735.262C666.667 725.269 665.614 714.118 656.196 706.831C655.155 701.52 650.706 694.888 648.369 689.781Z" fill="#39373F"/>
<path d="M656.196 706.831C665.614 714.118 666.667 725.269 670.874 735.262C680.285 757.604 691.83 779.965 699.099 802.997C700.607 807.78 701.937 812.65 702.577 817.605C702.951 820.5 702.966 825.882 704.514 828.358C706.805 832.021 708.99 832.052 709.479 836.844L709.448 842.768L711.916 843.84L708.79 844.956L707.151 845.454C706.398 843.124 704.104 841.912 702.164 840.323L693.466 822.196C695.612 804.439 686.288 789.652 681.065 772.955C677.083 762.825 674.063 752.428 670.133 742.294C665.741 730.971 658.636 718.392 656.196 706.831Z" fill="#26273A"/>
<path d="M681.065 772.955C682.932 774.702 684.902 776.2 685.773 778.578C686.207 779.762 686.019 779.327 687.075 780.31C689.123 782.213 690.143 785.93 691.193 788.414C693.84 794.67 697.124 801.355 698.52 807.966C699.664 813.377 699.406 827.711 703.767 830.995C707.946 834.141 708.292 840.295 708.79 844.956L707.151 845.454C706.399 843.124 704.104 841.912 702.165 840.323L693.466 822.196C695.612 804.439 686.289 789.652 681.065 772.955Z" fill="#433F4F"/>
<path d="M856.133 193.296C873.074 205.406 884.81 224.684 900.753 238.311L932.606 264.356C933.58 266.445 934.836 268.378 934.366 270.71C946.296 279.925 960.916 286.441 974.823 292.674C985.09 297.278 996.058 302.332 1007.18 304.823C1028.43 310.371 1054.42 315.677 1076.55 315.177C1078.65 315.126 1083.78 315.592 1085.48 314.826C1088.88 315.632 1092.93 315.733 1094.99 318.439C1088.97 326.526 1082.12 334.064 1076.03 342.118C1069.12 351.256 1062.41 362.416 1054.06 370.418C1043.37 381.015 1035.09 394.603 1026.09 406.526C1024.27 408.934 1019.95 415.783 1017.53 417.095C1014.84 418.556 1002.28 418.367 998.726 418.477C990.319 418.74 981.53 417.618 973.162 416.829C957.456 413.262 940.664 409.582 926.232 402.523C917.725 398.363 910.022 392.178 902.787 386.332C884.956 371.925 871.083 356.729 857.335 338.991C855.086 336.385 849.35 331.291 848.23 328.425C847.398 326.302 848.97 317.215 849.092 314.444C850.199 289.561 852.221 264.336 852.324 239.473C850.433 242.02 851.286 244.954 849.161 247.218C849.167 242.919 849.896 236.383 848.178 232.477L847.456 230.965C846.315 226.286 846.903 217.524 847.583 212.69C848.026 209.55 849.404 207.291 848.342 204.1C848.591 202.752 852.922 199.145 854.118 197.929C855.571 196.581 855.626 195.111 856.133 193.296Z" fill="#0B0513"/>
<path d="M900.754 238.311L932.606 264.356C933.581 266.445 934.837 268.378 934.367 270.71C920.457 263.194 907.668 250.652 896.302 240.154C898.63 240.143 899.24 240.62 901.303 241.697L900.754 238.311Z" fill="#433F4F"/>
<path d="M854.118 197.929L856.078 199.557C850.557 210.375 855.198 227.471 852.324 239.473C850.433 242.02 851.286 244.954 849.161 247.218C849.167 242.919 849.896 236.383 848.178 232.477L847.456 230.965C846.315 226.286 846.903 217.524 847.583 212.69C848.026 209.55 849.404 207.291 848.342 204.1C848.591 202.752 852.922 199.145 854.118 197.929Z" fill="#484859"/>
<path d="M856.133 193.296C873.075 205.406 884.811 224.684 900.754 238.311L901.303 241.697C899.239 240.62 898.629 240.143 896.302 240.154L856.079 199.557L854.118 197.929C855.572 196.581 855.627 195.111 856.133 193.296Z" fill="#555262"/>
<path d="M609.397 477.783C611.758 478.705 611.98 478.702 613.288 480.726C612.684 484.579 610.556 491.433 612.42 494.738L676.889 506.909L683.554 508.617C705.482 513.753 727.473 521.334 747.544 531.038C754.288 534.761 766.142 540.36 770.844 546.019C800.101 567.592 824.414 607.751 831.495 641.645C821.741 667.908 800.186 695.013 772.71 707.283C751.857 716.597 728.293 718.273 705.597 715.902C699.919 717.516 698.514 716.789 693.251 715.105L691.178 714.828L689.102 714.271C686.713 714.912 685.132 716.196 683.175 717.584L679.199 717.827C678.346 714.517 675.499 711.28 673.089 708.79C672.088 707.755 672.334 706.314 672.188 704.948L667.514 702.184L664.191 699.487L648.369 689.781C645.18 686.702 641.729 684.472 637.944 682.109C632.736 675.17 625.558 669.078 621.373 661.534C616.99 653.639 614.787 643.686 612.204 635.127C606.586 616.519 601.63 597.713 596.307 579.029C592.191 562.241 585.757 543.359 586.264 526.125C586.58 515.401 590.65 504.193 589.026 493.579C592.261 491.945 592.455 492.233 595.9 492.838L596.868 492.965C600.395 493.101 603.597 493.587 606.684 491.685C607.658 489.101 607.606 486.255 607.797 483.527L609.397 477.783Z" fill="url(#paint12_linear_14_669)"/>
<path d="M672.188 704.948C683.156 710 693.769 713.084 705.597 715.902C699.918 717.516 698.513 716.789 693.25 715.105L691.177 714.828L689.102 714.271C686.713 714.912 685.132 716.196 683.174 717.584L679.198 717.827C678.346 714.517 675.499 711.28 673.089 708.79C672.087 707.755 672.333 706.314 672.188 704.948Z" fill="#140F20"/>
<path d="M609.397 477.783C611.758 478.705 611.98 478.702 613.288 480.726C612.684 484.579 610.556 491.433 612.42 494.738L676.889 506.909L683.554 508.617C705.482 513.753 727.473 521.334 747.544 531.038C754.288 534.761 766.142 540.36 770.844 546.019L769.402 547.865C766.722 545.782 763.277 542.003 759.939 541.474L757.863 539.272L756.382 539.266L754.309 537.061L752.825 537.056L751.732 536.075C749.656 534.272 747.316 533.082 744.527 532.641L741.859 530.439L740.081 530.978L738.885 529.885C738.081 532.146 736.685 532.788 734.745 534.291L732.672 534.577L734.059 535.148C737.176 536.44 740.442 538.034 743.274 539.792C745.511 541.18 747.899 542.285 750.157 543.687C751.417 544.467 752.67 545.075 754.012 545.697C757.951 547.526 762.57 553.185 764.227 556.854C764.218 557.611 770.158 563.137 771.375 564.398C780.355 573.718 787.621 583.277 794.605 593.928L792.246 596.125C788.101 592.897 785.038 585.355 781.836 581.022C766.121 559.746 749.329 546.525 723.938 536.171C722.994 538.941 722.994 539.19 720.52 540.917L717.543 540.928C718.274 542.602 717.677 542.025 718.821 542.689C721.212 544.08 722.068 545.016 723.34 547.345C690.756 533.712 659.459 525.537 624.626 518.767L622.338 580.519C619.852 578.037 620.153 574.981 617.376 572.938C613.682 575.241 612.845 577.709 609.67 580.666L608.498 579.572L607.597 580.945C607.017 578.902 606.177 576.974 605.375 575.001C605.294 577.977 605.813 581.03 606.14 583.99L604.929 584.643C601.585 580.926 601.521 573.783 600.777 569.025L600.186 577.375L596.307 579.029C592.191 562.241 585.757 543.359 586.264 526.125C586.58 515.401 590.65 504.193 589.026 493.579C592.261 491.945 592.455 492.233 595.9 492.838L596.868 492.965C600.395 493.101 603.597 493.587 606.684 491.685C607.658 489.101 607.606 486.255 607.797 483.527L609.397 477.783Z" fill="url(#paint13_linear_14_669)"/>
<path d="M609.397 477.783C611.758 478.705 611.979 478.702 613.288 480.726C612.684 484.579 610.556 491.433 612.42 494.738C607.136 494.314 602.006 494.368 596.868 492.965C600.395 493.101 603.597 493.587 606.683 491.685C607.658 489.101 607.606 486.255 607.797 483.527L609.397 477.783Z" fill="#545E75"/>
<path d="M600.778 569.025C600.674 546.528 602.116 524.983 606.125 502.799C619.637 505.609 633.455 507.028 646.967 509.733C662.494 512.84 678.446 517.645 693.476 522.408C702.162 525.161 711.464 527.434 719.926 530.693C736.539 537.095 750.773 545.909 764.227 556.854C764.218 557.611 770.158 563.137 771.375 564.398C780.355 573.718 787.621 583.277 794.605 593.928L792.247 596.125C788.101 592.897 785.038 585.355 781.837 581.022C766.121 559.745 749.329 546.525 723.938 536.171C687.399 521.665 648.816 512.269 609.612 506.539C605.582 528.774 603.986 552.47 605.376 575.001C605.294 577.977 605.813 581.03 606.14 583.99L604.929 584.643C601.585 580.926 601.521 573.783 600.778 569.025Z" fill="#AC003B"/>
<path d="M605.375 575.001C603.985 552.47 605.582 528.774 609.612 506.539C648.815 512.269 687.399 521.665 723.938 536.171C722.994 538.941 722.994 539.19 720.52 540.917L717.543 540.928C718.274 542.602 717.676 542.025 718.821 542.689C721.212 544.08 722.068 545.016 723.34 547.345C690.756 533.712 659.459 525.537 624.626 518.767L622.338 580.519C619.852 578.037 620.153 574.981 617.376 572.937C613.682 575.241 612.844 577.709 609.67 580.666L608.498 579.572L607.597 580.945C607.017 578.902 606.176 576.974 605.375 575.001Z" fill="#EF3C82"/>
<path d="M622.338 580.519L624.626 518.767C659.459 525.537 690.756 533.712 723.34 547.345C731.31 552.111 740.833 557.374 746.67 564.393C743.832 563.539 742.002 562.77 739.489 561.354L737.413 560.526L736.487 561.424C735.516 562.326 734.715 562.906 733.562 563.561C733.036 564.794 732.363 567.27 731.486 568.256C729.385 570.614 728.605 569.297 727.051 572.949L728.818 574.605L727.051 576.813L728.226 579.02L727.64 580.03C725.834 583.424 728.514 589.705 727.039 592.272C726.165 593.793 724.73 593.366 724.669 595.398C724.578 598.459 724.284 599.825 722.287 602.208L721.579 603.07C718.569 606.665 712.851 610.238 708.665 612.686L708.659 613.526C704.562 615.521 698.271 615.422 693.691 615.739C682.434 616.516 671.18 616.929 659.911 617.494C657.007 617.641 652.005 617.237 649.383 618.06C645.012 619.428 641.622 623.292 636.712 624.634C628.912 609.681 625.601 596.639 622.338 580.519Z" fill="white"/>
<path d="M636.712 624.634C641.623 623.292 645.013 619.428 649.383 618.06C652.005 617.237 657.007 617.641 659.911 617.494C671.18 616.929 682.434 616.516 693.691 615.739C698.271 615.422 704.562 615.521 708.66 613.526L708.666 612.686C712.851 610.238 718.569 606.665 721.58 603.07L722.287 602.208C724.284 599.825 724.578 598.46 724.669 595.398C724.73 593.366 726.165 593.793 727.04 592.272C728.515 589.705 725.835 583.424 727.64 580.03L728.226 579.021L727.052 576.813L728.818 574.605L727.052 572.949C728.606 569.297 729.386 570.614 731.486 568.257C732.363 567.27 733.037 564.794 733.562 563.561C734.715 562.906 735.516 562.326 736.488 561.424L737.413 560.526L739.489 561.354C742.002 562.77 743.832 563.539 746.67 564.393C753.99 569.141 759.726 576.787 764.67 583.642C776.468 599.997 788.377 619.821 792.222 639.429C793.376 645.317 780.622 662.761 776.434 668.075C766.276 680.976 749.256 692.774 731.92 695.016C712.73 697.497 695.533 688.633 681.02 677.875C662.44 664.106 646.952 644.585 636.712 624.634Z" fill="url(#paint14_linear_14_669)"/>
<path d="M1126.66 494.031L1137.24 493.163C1140.07 496.242 1141.06 500.908 1142.34 504.758C1146.2 516.26 1149.04 527.716 1151.44 539.543L1154.61 563.723L1154.64 569.062C1153.95 579.464 1153.5 590.327 1150.86 600.492C1144.94 623.351 1130.07 642.996 1115.03 661.373L1111.56 665.008L1074.67 694.71C1073.25 695.352 1067.03 697.625 1066.47 698.56C1028.58 715.091 988.92 723.8 947.59 712.45C907.279 701.378 883.618 675.271 864.379 642.312C867.414 628.374 875.903 612.319 883.493 600.006C913.182 551.848 957.38 528.437 1013.63 514.284L1025.02 510.79L1028.33 510.191L1050.99 505.943C1057.67 503.684 1065.64 502.91 1072.64 501.669C1088.87 498.791 1105.07 496.601 1121.46 494.67L1126.66 494.031Z" fill="url(#paint15_linear_14_669)"/>
<path d="M1116.65 505.098L1123.01 504.117C1130.34 510.499 1133.36 534.368 1135.42 543.843C1136.49 556.763 1138.04 570.057 1136.76 583.006C1134.64 604.299 1124.35 623.543 1114.62 642.51L1112.94 643.604L1112.05 642.233L1114.72 638.4C1116.61 635.76 1116.85 631.622 1118.86 630.364L1117.68 629.262L1115.99 631.693C1115.38 632.549 1114.76 633.066 1113.97 633.765C1112.9 634.72 1112.74 634.946 1112.12 636.244C1111.16 638.262 1109.37 639.446 1107.6 640.854L1107.04 639.749C1119.01 624.53 1134.82 601.693 1132.77 581.836C1134.44 562.024 1131.46 541.799 1126.68 522.538C1125.44 517.549 1124.57 510.855 1121.28 506.697L1117.48 506.932L1116.65 505.098Z" fill="#AC003B"/>
<path d="M1056.18 514.301L1116.65 505.097L1117.48 506.932L1012.31 527.482L987.494 535.758C977.336 539.56 966.186 543.684 957.011 549.329C924.879 569.096 905.683 600.353 890.893 632.572H890.053C890.286 631.339 890.514 630.141 890.948 628.951L891.831 626.5L891.843 624.843C893.507 623.506 894.714 621.842 895.388 619.874C897.021 615.103 899.507 609.955 902.517 605.749C903.822 603.926 904.873 602.841 904.873 600.54C901.434 603.448 897.155 609.684 895.221 613.647C894.232 615.674 893.249 617.706 891.862 619.532C890.884 620.821 889.713 622.102 889.461 623.73L889.449 624.843C887.904 625.807 888.086 625.949 886.086 625.949C891.868 615.445 898.454 606.094 905.121 596.13C910.937 587.438 916.585 578.322 924.084 570.738C937.766 556.902 957.184 545.03 975.54 537.358C989.925 531.349 1004.84 527.445 1019.57 522.405C1031.64 519.366 1044.4 518.111 1056.18 514.301Z" fill="#BA0033"/>
<path d="M1117.48 506.932L1121.28 506.698C1124.57 510.856 1125.44 517.549 1126.68 522.538C1131.46 541.799 1134.44 562.024 1132.77 581.836C1131.42 578.472 1131.96 573.783 1131.91 570.187C1130.29 569.421 1129.16 568.483 1127.75 567.417C1126.09 567.691 1124.53 568.016 1122.93 568.525C1121.77 568.895 1119.92 568.57 1119.46 569.625C1118.81 571.075 1119.86 574.099 1119.39 575.708C1119.08 576.745 1117.22 578.681 1116.5 579.657C1116.62 558.409 1114.12 538.257 1108.23 517.642C1098.61 518.538 1088.88 520.76 1079.38 522.462C1047.38 528.197 1017.29 536.541 986.902 547.467C988.025 545.691 989.109 544.71 990.824 543.416L992.602 543.687C994.72 541.607 997.054 542.183 999.382 540.725C1000.63 539.945 1001.23 539.306 1002.76 538.953C1004.2 538.619 1003.61 538.947 1004.9 538.144L1005.64 537.627L1007.42 538.167L1008.61 537.067C1009.93 536.816 1010.87 536.649 1012.02 535.937L1012.76 535.416L1015.13 535.959C1012.39 532.754 1012.65 531.643 1012.31 527.482L1117.48 506.932Z" fill="url(#paint16_linear_14_669)"/>
<path d="M1126.66 494.031L1137.24 493.163C1140.07 496.242 1141.06 500.908 1142.34 504.758C1146.2 516.26 1149.04 527.716 1151.44 539.543C1150.98 541.734 1150.87 544.258 1149.11 545.895C1149.54 547.475 1150.14 548.834 1150.87 550.313L1150.69 551.158C1150.22 554.708 1151.34 559.319 1151.47 563.022L1150.77 563.166C1149.57 563.533 1148.99 564.079 1148.03 564.788C1146.72 565.755 1145.95 566.182 1144.32 566.515C1142.22 566.948 1141.36 567.457 1139.6 568.531C1139.6 560.729 1140.27 550.095 1135.42 543.843C1133.36 534.368 1130.34 510.499 1123.01 504.117L1116.65 505.097L1056.18 514.301C1044.4 518.111 1031.64 519.367 1019.57 522.405C1016.61 521.823 1013.99 521.976 1010.98 522.168C1009.8 523.036 1009.24 523.298 1007.72 523.578C1005.89 523.917 1006.71 523.649 1005.16 524.132L1004.46 524.375C1002.3 523.669 1001.21 523.231 999.704 521.605C1001.46 520.378 1003.19 520.412 1004.9 519.355C1006.28 518.499 1007.55 518.838 1009.2 518.832L1013.63 514.284L1025.02 510.79L1028.33 510.191L1050.99 505.943C1057.67 503.684 1065.65 502.91 1072.64 501.669C1088.88 498.791 1105.07 496.601 1121.46 494.67L1126.66 494.031Z" fill="#F64B98"/>
<path d="M1050.99 505.943L1051.1 508.043L1051.84 507.664C1053.94 506.816 1056.66 506.853 1058.99 506.146C1062.02 505.228 1065.35 505.276 1068.48 505.318L1070.85 509.182C1069.82 509.982 1069.55 510.536 1068.17 510.593C1065.82 510.692 1064.71 511.127 1062.55 511.667C1059.48 512.436 1058.44 511.61 1055.48 513.504L1056.18 514.301C1044.4 518.112 1031.64 519.367 1019.57 522.405C1016.61 521.823 1013.99 521.976 1010.98 522.168C1009.8 523.036 1009.24 523.298 1007.72 523.578C1005.89 523.917 1006.71 523.649 1005.16 524.132L1004.46 524.375C1002.3 523.669 1001.21 523.231 999.704 521.605C1001.46 520.378 1003.19 520.412 1004.9 519.355C1006.28 518.499 1007.55 518.838 1009.2 518.832L1013.63 514.284L1025.02 510.79L1028.33 510.191L1050.99 505.943Z" fill="#EF3C82"/>
<path d="M986.902 547.466C1017.29 536.541 1047.38 528.197 1079.38 522.462C1088.88 520.76 1098.61 518.538 1108.23 517.642C1114.12 538.257 1116.62 558.409 1116.5 579.657C1114.3 597.982 1108.25 620.064 1094.49 633.977C1094.32 632.563 1094.47 631.226 1094.57 629.813C1096.86 627.953 1097.32 627.02 1098.13 624.292C1095.3 622.961 1095.67 620.279 1091.6 619.869H1090.11L1089.22 619.323C1086.83 619.388 1085.53 619.241 1083.46 618.043L1082.41 617.39C1077.65 618.088 1072.11 616.776 1067.59 617.661C1066.34 617.907 1066.15 618.766 1064.63 618.766L1063.14 617.938L1061.36 619.312L1057.21 618.772L1055.73 619.869L1054.25 619.874L1053.07 621.519L1051.29 619.874L1049.51 621.519L1047.73 619.874L1046.25 620.974C1044.49 619.75 1043.32 620.27 1041.21 620.417L1033.03 612.353L1032.32 611.869C1031.41 609.729 1030.97 608.966 1028.76 607.999C1025.24 606.453 1023.17 603.932 1019.17 602.993C1017.85 602.683 1018.25 602.903 1017.06 602.168C1015.15 600.987 1013 602.185 1010.98 601.645C1006.88 600.548 1002.38 599.449 997.938 599.438C996.757 598.57 996.202 598.307 994.681 598.024L986.675 596.125C982.11 595.079 977.09 594.067 973.041 591.707C971.145 590.604 969.278 589.595 967.12 588.953C963.949 588.009 962.984 584.993 960.134 584.103L959.408 583.979L956.741 581.222C955.144 579.716 950.194 575.156 948.145 575.156L946.695 577.505L946.291 574.732C955.15 562.762 973.175 553.578 986.902 547.466Z" fill="white"/>
<path d="M946.291 574.732L946.694 577.505L948.145 575.156C950.194 575.156 955.144 579.716 956.74 581.222L959.408 583.978L960.133 584.103C962.983 584.993 963.948 588.009 967.12 588.953C969.278 589.595 971.144 590.604 973.041 591.707C977.09 594.067 982.11 595.079 986.674 596.125L994.681 598.024C996.201 598.307 996.757 598.57 997.937 599.437C1002.38 599.449 1006.88 600.548 1010.98 601.645C1013 602.185 1015.15 600.986 1017.06 602.168C1018.25 602.903 1017.85 602.682 1019.17 602.993C1023.17 603.932 1025.24 606.453 1028.76 607.999C1030.97 608.966 1031.41 609.729 1032.32 611.869L1033.03 612.353L1041.21 620.417C1043.32 620.27 1044.49 619.75 1046.25 620.974L1047.73 619.874L1049.51 621.519L1051.29 619.874L1053.07 621.519L1054.25 619.874L1055.73 619.869L1057.21 618.772L1061.36 619.312L1063.14 617.938L1064.63 618.766C1066.15 618.766 1066.34 617.907 1067.59 617.661C1072.11 616.776 1077.65 618.088 1082.41 617.39L1083.46 618.043C1085.53 619.241 1086.83 619.388 1089.22 619.323L1090.11 619.869H1091.6C1095.67 620.278 1095.3 622.961 1098.13 624.292C1097.32 627.02 1096.86 627.953 1094.57 629.813C1094.47 631.226 1094.32 632.563 1094.49 633.976C1082.54 652.873 1060.9 671.102 1040.52 682.067C1018.02 694.179 990.35 699.499 964.844 692.972C936.867 685.815 917.419 663.772 903.719 641.278C911.455 617.344 926.381 591.777 946.291 574.732Z" fill="white"/>
<path d="M496.613 470.735C498.235 470.087 500.083 469.453 501.835 469.405C508.875 469.205 514.821 477.466 520.067 483.919C521.573 484.42 523.975 485.625 525.415 485.463C528.452 485.119 532.153 479.362 535.361 477.912C539.815 475.898 545.812 477.793 549.932 482.342C552.32 484.979 554.739 488.945 557.288 491.082C559.209 492.69 561.534 492.294 563.449 493.888C564.68 494.915 565.389 496.269 565.742 498.18C566.132 500.291 565.519 501.925 564.758 503.421C563.826 503.936 562.911 504.325 561.85 504.325C555.893 504.315 551.001 498.112 546.562 492.416C538.867 483.372 534.267 495.663 527.153 496.663C520.538 497.592 516.65 494.424 511.376 487.834C509.192 485.105 506.817 481.919 503.954 481.319C500.367 480.566 496.802 485.151 493.949 487.248C491.485 489.057 488.672 489.645 485.71 489.133C483.54 488.759 480.127 487.738 478.579 485.078C477.236 482.77 477.384 481.185 477.582 478.736C478.138 477.731 478.755 476.353 479.622 475.861C481.129 475.006 484.583 477.662 486.27 478.577L496.613 470.735Z" fill="#B10028"/>
<path d="M526.189 300.62C528.101 300.725 530.235 300.94 532.022 301.646C539.206 304.478 541.682 314.534 544.223 322.647C545.527 323.747 547.436 325.871 548.956 326.34C552.166 327.327 558.35 323.677 562.203 323.732C567.551 323.807 572.791 328.097 575.008 333.997C576.293 337.416 577.042 342.058 578.702 345.092C579.953 347.376 582.467 348.011 583.719 350.28C584.522 351.741 584.66 353.275 584.202 355.165C583.696 357.251 582.382 358.474 580.977 359.508C579.817 359.578 578.73 359.54 577.66 359.085C571.658 356.526 569.367 348.793 567.318 341.714C563.412 330.197 553.537 339.403 545.938 337.267C538.872 335.281 536.301 330.736 533.791 322.487C532.752 319.07 531.714 315.157 529.083 313.386C525.787 311.166 520.239 313.809 516.469 314.494C513.214 315.085 510.126 314.415 507.357 312.682C505.329 311.412 502.322 309.023 501.895 305.942C501.525 303.269 502.349 301.891 503.591 299.749C504.58 299.073 505.79 298.084 506.873 298.009C508.757 297.876 511.108 301.769 512.42 303.324L526.189 300.62Z" fill="#B10028"/>
<path d="M633.972 137.076C635.506 138.414 637.16 139.987 638.23 141.728C642.538 148.721 638.592 158.445 635.861 166.646C636.293 168.387 636.617 171.35 637.607 172.725C639.698 175.625 647.047 176.742 650.233 179.314C654.656 182.883 656.467 189.775 654.79 195.981C653.818 199.578 651.668 203.807 651.239 207.34C650.918 210.001 652.639 212.161 652.327 214.809C652.124 216.513 651.322 217.839 649.809 219.061C648.138 220.408 646.309 220.532 644.517 220.443C643.507 219.738 642.621 218.994 641.999 217.926C638.516 211.928 641.228 204.197 643.75 197.152C647.375 185.314 633.62 186.25 628.549 179.545C623.835 173.31 624.405 167.963 627.243 159.673C628.418 156.24 629.891 152.407 628.754 149.255C627.328 145.305 621.112 143.794 617.553 141.872C614.48 140.213 612.302 137.648 611.025 134.436C610.091 132.083 609.008 128.186 610.494 125.424C611.783 123.029 613.295 122.46 615.615 121.55C616.845 121.654 618.447 121.651 619.398 122.301C621.05 123.43 620.686 128.108 620.852 130.22L633.972 137.076Z" fill="#B10028"/>
</g>
<defs>
<linearGradient id="paint0_linear_14_669" x1="616.784" y1="429.405" x2="608.414" y2="427.993" gradientUnits="userSpaceOnUse">
<stop stop-color="#212034"/>
<stop offset="1" stop-color="#323747"/>
</linearGradient>
<linearGradient id="paint1_linear_14_669" x1="801.731" y1="935.115" x2="758.088" y2="954.277" gradientUnits="userSpaceOnUse">
<stop stop-color="#000005"/>
<stop offset="1" stop-color="#2B2936"/>
</linearGradient>
<linearGradient id="paint2_linear_14_669" x1="785.133" y1="915.238" x2="734.588" y2="926.094" gradientUnits="userSpaceOnUse">
<stop stop-color="#161522"/>
<stop offset="1" stop-color="#3A3944"/>
</linearGradient>
<linearGradient id="paint3_linear_14_669" x1="1145.54" y1="216.303" x2="1138.49" y2="100.443" gradientUnits="userSpaceOnUse">
<stop stop-color="#12091A"/>
<stop offset="1" stop-color="#292E43"/>
</linearGradient>
<linearGradient id="paint4_linear_14_669" x1="762.606" y1="171.031" x2="753.879" y2="160.922" gradientUnits="userSpaceOnUse">
<stop stop-color="#2D3146"/>
<stop offset="1" stop-color="#484E60"/>
</linearGradient>
<linearGradient id="paint5_linear_14_669" x1="815.956" y1="363.156" x2="703.805" y2="267.123" gradientUnits="userSpaceOnUse">
<stop stop-color="#110718"/>
<stop offset="1" stop-color="#262B3F"/>
</linearGradient>
<linearGradient id="paint6_linear_14_669" x1="772.091" y1="408.428" x2="701.485" y2="371.223" gradientUnits="userSpaceOnUse">
<stop stop-color="#1C1728"/>
<stop offset="1" stop-color="#3D3A4F"/>
</linearGradient>
<linearGradient id="paint7_linear_14_669" x1="1098.12" y1="309.051" x2="1007.26" y2="73.0382" gradientUnits="userSpaceOnUse">
<stop stop-color="#09000E"/>
<stop offset="1" stop-color="#2C3146"/>
</linearGradient>
<linearGradient id="paint8_linear_14_669" x1="876.419" y1="126.864" x2="870.182" y2="106.721" gradientUnits="userSpaceOnUse">
<stop stop-color="#2C2E44"/>
<stop offset="1" stop-color="#4F5669"/>
</linearGradient>
<linearGradient id="paint9_linear_14_669" x1="1226.15" y1="659.072" x2="984.77" y2="508.575" gradientUnits="userSpaceOnUse">
<stop/>
<stop offset="1" stop-color="#0D0515"/>
</linearGradient>
<linearGradient id="paint10_linear_14_669" x1="1253.42" y1="555.282" x2="1330.63" y2="518.669" gradientUnits="userSpaceOnUse">
<stop/>
<stop offset="1" stop-color="#1E1D24"/>
</linearGradient>
<linearGradient id="paint11_linear_14_669" x1="788.689" y1="396.282" x2="740.861" y2="305.161" gradientUnits="userSpaceOnUse">
<stop stop-color="#1A1325"/>
<stop offset="1" stop-color="#464354"/>
</linearGradient>
<linearGradient id="paint12_linear_14_669" x1="750.752" y1="712.072" x2="714.184" y2="534.989" gradientUnits="userSpaceOnUse">
<stop stop-color="#C7002E"/>
<stop offset="1" stop-color="#E91969"/>
</linearGradient>
<linearGradient id="paint13_linear_14_669" x1="735.34" y1="533.197" x2="708.027" y2="455.885" gradientUnits="userSpaceOnUse">
<stop stop-color="#E72E73"/>
<stop offset="1" stop-color="#F25DA1"/>
</linearGradient>
<linearGradient id="paint14_linear_14_669" x1="742.451" y1="689.99" x2="702.964" y2="572.48" gradientUnits="userSpaceOnUse">
<stop stop-color="white"/>
<stop offset="1" stop-color="#F1FFFF"/>
</linearGradient>
<linearGradient id="paint15_linear_14_669" x1="930.955" y1="704.344" x2="1017.8" y2="505.683" gradientUnits="userSpaceOnUse">
<stop stop-color="#CC0036"/>
<stop offset="1" stop-color="#E91D62"/>
</linearGradient>
<linearGradient id="paint16_linear_14_669" x1="1119.46" y1="568.531" x2="1134.01" y2="512.698" gradientUnits="userSpaceOnUse">
<stop stop-color="#E72963"/>
<stop offset="1" stop-color="#F65CB8"/>
</linearGradient>
<clipPath id="clip0_14_669">
<rect width="1920" height="1080" fill="white"/>
</clipPath>
</defs>
</svg>
