<svg width="1920" height="1080" viewBox="0 0 1920 1080" fill="none" xmlns="http://www.w3.org/2000/svg">
<g clip-path="url(#clip0_14_3673)">
<path d="M774.546 814.829C775.772 815.734 778.197 816.982 778.65 818.405C779.011 819.534 778.954 819.259 779.679 820.278C781.056 822.213 781.921 825.679 783.501 827.228C784.906 828.611 785.021 827.646 786.125 830.072C787.384 832.831 786.944 835.715 788.744 838.24C789.747 839.655 789.345 838.841 789.691 840.286C790.193 842.39 791.734 843.781 792.727 845.641C795.036 849.961 796.28 854.359 799.009 858.566C800.402 860.711 801.39 863.317 802.501 865.643L803.702 864.689L807.24 873.644L806.51 876.695L808.499 878.113L809.999 881.433C811 882.788 811.587 882.945 812.088 884.697L812.49 886.171L813.499 886.696L814.625 883.95L814.999 883.012C816.182 880.314 815.805 877.253 815.749 874.329C814.052 875.013 813.394 875.563 812.314 877.156L811.75 878.013L809.51 877.749C811.287 875.711 813.512 872.507 815.88 871.292L816.806 870.85L817.083 873.93L817.377 875.701L817.29 877.018C816.822 883.705 814.049 887.696 815.657 894.533L816.069 897.517L774.546 814.829Z" fill="#423F4C"/>
<path d="M701.071 623.427L707.863 624.739C711.521 630.218 712.794 636.996 714.637 643.33L715.558 652.196C716.191 658.004 719.281 662.292 721.541 667.428C722.109 668.719 722.04 669.584 722.069 670.945C722.122 673.686 721.884 677.187 722.788 679.771C723.794 682.644 725.484 684.641 726.303 687.73C730.24 702.574 737.705 716.421 741.399 731.418C742.331 735.205 742.661 737.695 742.293 741.63C724.982 704.409 713.423 662.725 701.071 623.427Z" fill="#5B5E6E"/>
<path d="M739.254 230.741L748.759 228.599C744.607 235.01 740.024 241.098 735.718 247.396C732.915 251.496 730.524 256.163 727.211 259.793L728.499 261.087L733.857 260.103L735.012 263.744L728.863 265.472C725.371 266.399 722.601 266.375 720.509 269.795C718.477 273.123 715.121 279.672 714.304 283.439C713.572 286.832 711.168 290.651 709.783 293.885C704.315 297.726 702.443 305.997 699.51 311.904C699.819 315.526 700.431 317.943 698.995 321.374H698.25L697.5 319.79L694.49 319.8L694.331 320.401C693.391 323.382 692.508 325.347 689.879 326.931C693.317 313.594 699.82 299.593 705.782 287.318C715.592 267.124 726.008 248.674 739.254 230.741Z" fill="#73798A"/>
<path d="M714.637 643.33L715.154 644.203C719.67 652.059 720.351 663.3 728.499 668.078L731.883 667.841L731.873 669.657L728.42 671.414C726.61 677.607 731.085 686.008 733.276 691.942C735.741 698.615 737.477 705.554 740.022 712.238L749.499 738.797L752.996 747.742C756.017 757.145 759.944 767.235 764.419 775.961C765.399 777.872 765.74 779.268 766.013 781.424C764.767 785.173 765.312 786.13 766.497 789.959C767.444 793.015 767.539 795.29 767.278 798.478C757.148 781.152 749.88 760.36 742.292 741.63C742.661 737.695 742.331 735.205 741.399 731.418C737.705 716.421 730.24 702.574 726.303 687.73C725.484 684.641 723.794 682.644 722.788 679.771C721.884 677.187 722.122 673.686 722.068 670.945C722.04 669.584 722.109 668.719 721.541 667.428C719.281 662.292 716.191 658.004 715.558 652.196L714.637 643.33Z" fill="#505462"/>
<path d="M739.254 230.741L753.152 211.833C795.863 158.297 864.343 113.803 931.42 107.583C925.617 112.733 920.771 111.614 914.086 113.299C911.301 113.999 908.7 115.568 905.93 116.409C891.889 120.667 878.387 124.715 865.006 130.967C860.319 133.155 854.815 134.861 850.501 137.753C848.287 139.238 847.355 141.367 845.499 142.952L844.767 143.243C843.438 143.79 842.563 145.151 841.641 146.267C836.316 149.455 831.721 153.581 826.534 156.89C816.801 163.105 807.498 168.53 798.5 176.098C791.345 182.115 784.788 189.214 777.981 195.693C767.921 205.274 756.242 216.657 748.759 228.599L739.254 230.741Z" fill="#717988"/>
<path d="M767.278 798.478C767.539 795.29 767.444 793.015 766.497 789.959C765.312 786.13 764.767 785.173 766.013 781.424C765.739 779.268 765.399 777.872 764.419 775.961C759.944 767.235 756.017 757.145 752.996 747.742L749.499 738.797L740.022 712.238C737.477 705.555 735.741 698.615 733.276 691.942C731.085 686.008 726.61 677.607 728.42 671.414L731.873 669.657C733.768 673.967 735.741 678.2 738.171 682.205C741.565 687.797 745.116 693.295 748.58 698.841C749.686 700.609 752.156 703.655 752.389 705.673L750.49 707.732L750.712 708.624C751.306 711.114 751.547 713.087 751.501 715.639C752.893 717.849 751.816 719.752 752.932 721.522C753.923 723.088 754.437 724.91 754.977 726.686L759.99 741.616C763.162 749.965 764.483 759.624 767.419 768.27C768.891 772.603 772.872 777.368 772.49 781.95C771.389 783.877 770.527 784.303 768.494 784.844C768.499 787.353 769.034 791.873 770.432 793.633C771.502 794.983 771.96 796.109 772.5 797.751C774.072 798.3 774.067 798.387 774.999 799.847L775.749 798.532L775.375 797.885C774.2 795.791 773.78 794.643 773.75 792.215L771.999 791.425L772.5 788.278C776.535 793.686 778.683 800.478 781.14 806.781C785.116 816.979 789.563 828.754 794.509 838.273C796.119 841.369 795.761 842.986 798.505 845.377L797.568 846.166L798.221 846.589C802.831 849.947 806.139 860.49 806.876 866.233C807.196 868.729 807.324 871.13 807.24 873.644L803.702 864.689L802.501 865.643C801.39 863.317 800.402 860.711 799.009 858.566C796.28 854.359 795.036 849.961 792.727 845.641C791.734 843.781 790.193 842.391 789.691 840.286C789.345 838.841 789.747 839.655 788.744 838.24C786.944 835.715 787.384 832.831 786.125 830.072C785.021 827.646 784.906 828.611 783.501 827.228C781.921 825.679 781.056 822.213 779.679 820.278C778.954 819.259 779.01 819.534 778.65 818.405C778.196 816.982 775.772 815.734 774.546 814.829C771.868 812.541 768.694 802.335 767.278 798.478Z" fill="#2D2D37"/>
<path d="M689.879 326.931C692.508 325.347 693.391 323.382 694.331 320.401L694.49 319.8L697.5 319.79L698.25 321.374H698.995C700.431 317.944 699.82 315.526 699.51 311.904C702.444 305.997 704.315 297.726 709.783 293.885L711.086 296.119C709.906 302.097 707.292 305.498 704.325 310.559C703.631 311.74 701.663 314.37 701.384 315.588C701.041 317.095 702.106 319.631 702.804 320.851L701.696 321.97C698.145 326.029 697.623 340.959 696.837 346.742L693.192 366.658L690.371 364.052C689.62 372.736 688.901 381.57 686.374 389.897C684.687 395.449 684.124 401.777 683.021 407.528L683.502 408.366L681.311 420.046L683.169 431.077L681.006 440.795C679.429 446.538 678.664 452.036 678.093 457.976C675.999 465.6 675.72 474.72 672.502 481.727C667.4 428.689 673.347 377.199 689.879 326.931Z" fill="#717988"/>
<path d="M681.311 420.046C680.346 425.927 678.577 431.066 676.462 436.588C675.438 425.619 678.129 414.276 680.11 403.558L683.021 407.528L683.502 408.366L681.311 420.046Z" fill="#4A4E5F"/>
<path d="M680.11 403.558C682.88 390.17 684.677 376.562 687.478 363.139C689.032 355.687 690.378 348.265 693.821 341.495L690.371 364.052C689.62 372.736 688.901 381.57 686.374 389.897C684.687 395.449 684.124 401.777 683.021 407.528L680.11 403.558Z" fill="#505462"/>
<path d="M678.093 457.976C678.664 452.036 679.429 446.538 681.006 440.795C680.412 449.721 682.731 457.337 683.548 466.074C685.253 484.335 686.431 502.71 689.055 520.871C690.985 534.214 694.438 547.285 696.924 560.515C698.122 566.886 698.181 575.275 700.928 580.878C702.257 583.584 702.661 586.325 703.147 589.3H704.003C705.411 586.678 706.243 584.347 706.913 581.42L708.805 582.458L708.864 585.298L709.123 605.457L709.97 606.23C710.671 609.806 712.069 615.078 710.049 618.409L709.281 619.57L707.863 624.739L701.071 623.427L695.186 599.733C692.204 592.575 690.783 583.603 688.945 576.017C681.426 544.943 675.866 513.6 672.502 481.727C675.72 474.72 675.999 465.6 678.093 457.976Z" fill="#505462"/>
<path d="M695.186 599.733C695.258 597.887 695.977 593.499 695.491 591.931C694.367 588.325 693.222 585.94 693.491 581.929C694.18 582.889 694.528 583.463 694.812 584.662C695.15 586.077 694.676 585.325 695.877 586.406L696.558 583.856C697.91 588.106 699.274 592.205 699.825 596.668L701 597.364L704.499 593.566L706.586 596.167C707.973 593.456 708.27 588.422 708.864 585.298L709.123 605.457L709.97 606.23C710.671 609.807 712.069 615.078 710.049 618.409L709.281 619.57L707.863 624.739L701.071 623.427L695.186 599.733Z" fill="#4A4E5F"/>
<path d="M708.864 585.298L709.123 605.457L709.97 606.23C710.671 609.807 712.069 615.078 710.049 618.409L709.281 619.571L708.529 618.239C704.346 610.51 704.527 604.562 706.586 596.167C707.973 593.456 708.27 588.422 708.864 585.298Z" fill="#423F4C"/>
<path d="M678.093 457.976C678.257 465.519 677.801 473.55 678.5 481.012C679.56 492.329 682.596 503.303 684.086 514.549C684.736 519.47 684.564 524.467 685.217 529.293C686.187 536.446 688.087 543.561 689.426 550.654C691.517 561.725 693.312 573.082 696.558 583.856L695.877 586.406C694.676 585.325 695.15 586.077 694.812 584.662C694.528 583.463 694.18 582.889 693.491 581.929C693.222 585.94 694.367 588.325 695.491 591.931C695.977 593.499 695.258 597.887 695.186 599.733C692.204 592.575 690.783 583.603 688.945 576.017C681.426 544.943 675.866 513.6 672.502 481.727C675.72 474.72 675.999 465.6 678.093 457.976Z" fill="#5B5E6E"/>
<path d="M711.086 296.119L712.499 293.087L713.559 293.481L713.925 294.758C714.721 297.262 716.777 299.453 718.377 301.458L724.401 311.015L723.917 311.872C722.465 310.656 721.38 309.619 719.491 309.274L719.337 309.893C717.778 314.847 713.475 318.062 712.499 323.484L713.49 324.538L713.021 325.689C712.474 327.131 712.282 328.295 711.995 329.796L711.736 330.982C710.269 338.644 708.774 346.861 706.458 354.409C702.28 368.022 696.42 378.7 696.499 393.5C694.321 396.953 694.38 404.946 693.852 409.323C692.736 418.594 689.485 428.409 689.623 437.706C689.841 452.51 690.97 467.694 691.83 482.497C692.027 485.915 693.714 491.666 692.5 494.563C693.821 496.657 692.974 497.139 693.499 499.29C693.527 499.398 694.582 500.713 694.646 500.869C695.823 503.761 695.613 510.083 696.12 513.468C696.771 517.823 695.445 524.356 696.499 528.25C697.193 530.816 698.486 529.832 698.501 533.516L699.702 534.037L700.705 538.952C701.678 548.668 703.598 558.248 704.389 567.983C704.612 570.745 703.892 578.278 704.768 580.353C704.97 580.827 705.51 581.04 705.882 581.385L706.913 581.42C706.243 584.347 705.411 586.678 704.003 589.3H703.148C702.661 586.325 702.257 583.584 700.928 580.878C698.181 575.275 698.122 566.886 696.924 560.515C694.438 547.285 690.985 534.214 689.055 520.872C686.431 502.71 685.253 484.335 683.548 466.074C682.731 457.337 680.412 449.721 681.006 440.795L683.169 431.077L681.311 420.046L683.502 408.366L683.021 407.528C684.124 401.777 684.687 395.449 686.374 389.897C688.901 381.57 689.62 372.735 690.371 364.052L693.192 366.658L696.837 346.742C697.623 340.959 698.145 326.028 701.696 321.97L702.804 320.851C702.106 319.63 701.041 317.095 701.384 315.588C701.663 314.37 703.631 311.74 704.325 310.559C707.292 305.498 709.906 302.097 711.086 296.119Z" fill="#39394E"/>
<path d="M683.502 408.366L684.951 408.288L684.746 409.808L686.293 414.152L683.169 431.077L681.311 420.046L683.502 408.366Z" fill="#6B6F7F"/>
<path d="M683.021 407.528C684.124 401.777 684.687 395.449 686.374 389.897C688.901 381.57 689.62 372.736 690.371 364.052L693.192 366.658L686.293 414.152L684.746 409.808L684.951 408.288L683.502 408.366L683.021 407.528Z" fill="#73798A"/>
<path d="M711.086 296.119L712.499 293.087L713.559 293.481L713.925 294.758C714.721 297.262 716.777 299.453 718.377 301.458L705.5 332.354L704.75 327.163C703.373 327.912 702.546 328.608 701.491 329.801L700.994 331.901L700.71 333.014C700.221 335.574 700.974 338.463 700.49 340.854C700.214 342.22 697.677 345.368 696.837 346.742C697.623 340.959 698.145 326.028 701.696 321.97L702.804 320.851C702.106 319.63 701.041 317.095 701.384 315.588C701.663 314.37 703.631 311.74 704.325 310.559C707.292 305.498 709.906 302.097 711.086 296.119Z" fill="#4A4E5F"/>
<path d="M952.064 105.135L947.146 112.878L948.956 114.029C947.036 117.252 944.509 119.745 941.97 122.416C937.446 127.113 931.868 131.97 927.89 137.141L925.402 135.241L931.244 129.153L930.501 127.051C918.333 128.52 906.749 131.902 894.996 135.319C875.978 140.847 856.763 148.088 839.565 158.413C827.4 165.716 816.963 174.303 805.855 183.175C791.69 194.488 778.412 205.875 767.24 220.643C764.211 224.645 761.08 230.731 757 233.466L754.491 233.477C753.308 235.344 754.015 236.829 753.078 238.312C752.276 239.576 752.648 238.972 751.964 240.392C750.019 244.437 743.844 252.474 740.654 255.614L747.397 255.999C742.707 257.867 738.711 258.616 733.827 259.508L733.857 260.103L728.499 261.087L727.211 259.793C730.524 256.163 732.915 251.496 735.718 247.396C740.024 241.098 744.607 235.01 748.759 228.599C756.242 216.657 767.921 205.274 777.981 195.693C784.788 189.214 791.345 182.116 798.5 176.098C807.498 168.53 816.801 163.105 826.534 156.89C831.721 153.581 836.316 149.455 841.641 146.267C842.563 145.151 843.438 143.79 844.767 143.243L845.499 142.952C847.355 141.367 848.287 139.238 850.501 137.753C854.815 134.861 860.319 133.155 865.006 130.967C878.387 124.715 891.889 120.667 905.93 116.409C908.7 115.568 911.301 113.999 914.086 113.299C920.771 111.614 925.617 112.733 931.42 107.583L952.064 105.135Z" fill="#5B5E6E"/>
<path d="M952.064 105.135L947.146 112.878L948.956 114.029C947.036 117.252 944.509 119.745 941.97 122.416C937.446 127.113 931.868 131.97 927.89 137.141L925.402 135.241L931.244 129.153C934.659 126.952 936.525 123.82 938.757 120.44L944.671 112.738C921.206 116.43 898.509 120.387 876.383 129.921C869.217 133.01 862.031 136.174 855.022 139.642C850.675 141.796 846.187 144.717 841.641 146.267C842.563 145.151 843.438 143.79 844.767 143.243L845.499 142.952C847.355 141.367 848.287 139.238 850.501 137.753C854.815 134.861 860.319 133.155 865.006 130.967C878.387 124.715 891.889 120.667 905.93 116.409C908.7 115.568 911.301 113.999 914.086 113.299C920.771 111.614 925.617 112.733 931.42 107.583L952.064 105.135Z" fill="#73798A"/>
<path d="M733.827 259.508L731.656 258.098C731.771 257.438 731.707 256.71 732.004 256.115C732.879 254.363 736.635 252.485 738.066 250.719C741.814 246.098 745.574 240.311 748.511 235.053L749.691 232.949C764.91 210.863 784.256 193.4 805.007 177.502C814.077 170.551 822.671 162.984 832.202 156.702C850.714 144.499 872.051 136.071 892.733 129.126C899.292 126.925 905.797 124.135 912.512 122.51C920.53 120.57 928.888 119.972 937.001 118.408L938.757 120.44C936.525 123.82 934.659 126.952 931.244 129.153L930.501 127.051C918.333 128.52 906.749 131.902 894.996 135.32C875.978 140.847 856.763 148.088 839.565 158.413C827.4 165.716 816.963 174.303 805.855 183.175C791.69 194.488 778.412 205.875 767.24 220.643C764.211 224.645 761.08 230.731 757 233.466L754.491 233.477C753.308 235.345 754.015 236.829 753.078 238.312C752.276 239.576 752.648 238.972 751.964 240.392C750.019 244.437 743.844 252.474 740.654 255.614L747.397 255.999C742.707 257.867 738.711 258.616 733.827 259.508Z" fill="#505462"/>
<path d="M752.389 705.673C761.001 719.816 769.69 730.933 781.404 742.368C782.5 743.438 790.075 750.151 790.159 751.065C790.63 755.358 791.352 756.331 793.5 759.832L794.25 756.423C795.272 756.576 795.85 756.336 796.47 757.309C797.233 758.517 797.215 759.517 797.499 760.886C797.865 762.635 798.741 764.33 799.406 765.963C800.146 767.777 799.895 769.701 800.643 771.534C801.623 773.946 800.689 776.355 801.999 778.791L801.51 781.95L803 783.003V784.583L803.651 785.437C810.575 795.223 811.84 814.007 813.857 825.784C814.828 831.441 816.676 837.504 816.143 843.272C816.364 852.316 817.882 861.873 816.806 870.85L815.88 871.292C813.512 872.507 811.287 875.711 809.51 877.749L811.75 878.013L812.314 877.156C813.394 875.563 814.052 875.013 815.749 874.329C815.806 877.253 816.182 880.315 814.999 883.012L814.625 883.95L813.499 886.696L812.49 886.171L812.088 884.697C811.587 882.945 811 882.789 809.999 881.433L808.499 878.113L806.51 876.695L807.24 873.644C807.324 871.13 807.196 868.729 806.876 866.233C806.139 860.49 802.831 849.947 798.221 846.589L797.568 846.166L798.505 845.377C795.761 842.986 796.119 841.369 794.509 838.272C789.563 828.754 785.116 816.979 781.141 806.781C778.683 800.478 776.535 793.686 772.501 788.278L771.999 791.425L773.75 792.215C773.781 794.643 774.2 795.791 775.375 797.885L775.749 798.532L774.999 799.847C774.067 798.386 774.072 798.3 772.501 797.751C771.96 796.109 771.502 794.983 770.432 793.633C769.034 791.873 768.499 787.353 768.494 784.844C770.527 784.302 771.39 783.877 772.49 781.95C772.872 777.368 768.891 772.603 767.419 768.27C764.483 759.624 763.162 749.965 759.99 741.616L754.977 726.686C754.437 724.91 753.923 723.088 752.932 721.522C751.816 719.752 752.893 717.849 751.501 715.639C751.547 713.087 751.306 711.114 750.712 708.624L750.49 707.732L752.389 705.673Z" fill="url(#paint0_linear_14_3673)"/>
<path d="M782.51 788.267L785.999 788.792C787.561 790.436 788.572 792.366 789.75 794.32C788.861 795.877 788.521 797.074 787.999 798.793L786.501 801.685C784.778 797.249 783.596 792.913 782.51 788.267Z" fill="#0A070F"/>
<path d="M963.676 105.181C988.749 107.348 1011.48 111.148 1035.48 119.502C1045.01 122.82 1055.56 126.666 1064.07 132.341C1092.14 144.663 1119 167.352 1140.51 189.61C1148.74 198.124 1157.17 206.92 1163.68 217.013C1172.57 227.13 1182.9 240.764 1188.7 253.077L1180.21 249.463L1183.88 257.689L1182.99 258.877C1179.81 258.961 1177.19 259.125 1174.17 257.861C1174.8 256.697 1174.93 256.311 1175.11 255.055L1168.76 246.588C1164.09 243.297 1164.09 240.936 1157.87 240.578C1156.92 239.15 1155.97 237.551 1154.8 236.314L1154 235.571C1152.73 234.369 1151.61 233.029 1149.91 232.579C1148.81 232.288 1148.43 232.091 1147.51 231.369L1148.51 230.579C1146.62 228.388 1146.28 227.766 1143.5 226.917C1140.35 223.365 1135.93 219.902 1135.51 215.054C1131 213.666 1126.58 206.125 1123.06 202.651C1116.39 196.07 1108.32 192.917 1102.44 185.107L1102.01 184.519C1100.07 184.037 1098.52 182.573 1096.93 181.366L1096.51 178.208C1092.36 177.138 1089.55 172.801 1086.01 170.831C1082.14 168.683 1080.04 165.722 1077.78 161.741C1071.57 157.448 1063.48 152.651 1056.65 149.7C1051.74 147.579 1046.17 147.126 1041.1 145.318C1031.32 141.825 1021.01 136.047 1011.1 133.624C1003.87 131.856 996.838 132.829 989.837 129.574C987.604 128.617 985.743 128.66 983.388 128.676L981.737 127.835L979.94 130.336L971.694 121.303L968.148 117.61C966.707 116.301 965.806 115.196 964.723 113.573L965.422 112.512C965.21 109.9 964.472 107.652 963.676 105.181Z" fill="#5B5E6E"/>
<path d="M975.355 120.419C979.963 118.597 986.634 120.831 991.555 121.659C999.644 123.019 1008.26 123.785 1016.17 125.984C1024.31 128.253 1032.09 132.156 1040.11 134.902C1046.63 137.139 1053.69 138.807 1059.89 141.887C1065.2 144.523 1070.16 147.913 1075.35 150.794C1081.84 154.397 1088.64 157.561 1094.73 161.889C1108.16 171.422 1119.81 182.959 1131.8 194.316C1143.06 204.985 1159.54 218.115 1165.98 232.706L1160.01 227.68C1159.35 223.823 1153.34 220.832 1151.5 217.148L1151 216.099C1147.13 215.353 1136.23 201.571 1132.71 198.151C1125.53 191.173 1117.49 185.026 1109.9 178.558C1104.18 173.688 1098.4 168.425 1092.18 164.275C1086.86 160.728 1080.87 158.181 1075.25 155.201C1067.78 151.239 1060.14 146.59 1052.27 143.588C1046.69 141.459 1040.84 140.305 1035.17 138.473C1019.48 133.403 1006.61 128.892 989.837 129.574C987.604 128.617 985.743 128.66 983.388 128.676L981.737 127.835L975.355 120.419Z" fill="#4A4E5F"/>
<path d="M963.676 105.181C988.749 107.348 1011.48 111.148 1035.48 119.502C1045.01 122.82 1055.56 126.666 1064.07 132.341C1092.14 144.663 1119 167.352 1140.51 189.61C1148.74 198.124 1157.17 206.92 1163.68 217.013C1161.66 216.52 1159.17 215.784 1157.5 214.445C1151.91 209.949 1147.69 202.931 1142.5 197.822C1130.31 185.824 1117.57 174.868 1104.01 164.638C1098.8 160.712 1093.86 156.421 1088.25 153.141C1078.41 147.39 1068.21 141.035 1057.89 136.387C1052.64 134.023 1046.97 132.535 1041.63 130.352C1036.69 128.337 1032.2 125.55 1027.06 124.011C1013.14 119.842 997.181 117.945 982.807 116.115C978.532 115.573 973.547 112.63 969.528 113.848L975.355 120.419L981.737 127.835L979.94 130.336L971.694 121.303L968.148 117.61C966.707 116.301 965.806 115.196 964.723 113.573L965.422 112.512C965.21 109.9 964.472 107.652 963.676 105.181Z" fill="#6B6F7F"/>
<path d="M963.676 105.181C988.749 107.348 1011.48 111.148 1035.48 119.502C1045.01 122.82 1055.56 126.666 1064.07 132.341C1058.77 131.727 1052.53 130.87 1047.5 128.911C1042.73 127.054 1038.6 124.006 1033.6 122.75C1022.19 119.885 1010.55 116.336 999.012 114.185C994.783 113.396 990.285 114.182 986.115 113.096C980.851 111.727 975.043 112.652 970.163 110.14C969.083 109.582 968.65 110.003 967.511 110.304L967.491 112.412L969.528 113.848L975.355 120.419L981.737 127.835L979.94 130.336L971.694 121.303L968.148 117.61C966.707 116.301 965.806 115.196 964.723 113.573L965.422 112.512C965.21 109.9 964.472 107.652 963.676 105.181Z" fill="#717988"/>
<path d="M989.837 129.574C1006.61 128.892 1019.48 133.403 1035.17 138.473C1040.84 140.305 1046.69 141.459 1052.27 143.588C1060.14 146.59 1067.78 151.239 1075.25 155.201C1080.87 158.181 1086.86 160.728 1092.18 164.275C1098.4 168.425 1104.18 173.688 1109.9 178.558C1117.49 185.026 1125.53 191.173 1132.71 198.151C1136.23 201.571 1147.13 215.353 1151 216.1L1151.5 217.148C1153.34 220.832 1159.35 223.823 1160.01 227.68L1165.98 232.706C1171.21 238.064 1175.75 243.37 1180.21 249.464L1183.88 257.689L1182.99 258.877C1179.81 258.961 1177.19 259.125 1174.17 257.861C1174.8 256.697 1174.93 256.312 1175.11 255.056L1168.76 246.588C1164.09 243.297 1164.09 240.937 1157.87 240.578C1156.92 239.15 1155.97 237.552 1154.8 236.315L1154 235.571C1152.73 234.369 1151.61 233.03 1149.91 232.579C1148.81 232.288 1148.43 232.092 1147.51 231.369L1148.51 230.58C1146.62 228.389 1146.28 227.766 1143.5 226.917C1140.35 223.365 1135.93 219.902 1135.51 215.054C1131 213.666 1126.58 206.125 1123.06 202.651C1116.39 196.07 1108.32 192.917 1102.44 185.107L1102.01 184.52C1100.07 184.037 1098.52 182.574 1096.93 181.366L1096.51 178.208C1092.36 177.138 1089.55 172.802 1086.01 170.832C1082.14 168.684 1080.04 165.722 1077.78 161.741C1071.57 157.448 1063.48 152.651 1056.65 149.7C1051.74 147.579 1046.17 147.126 1041.1 145.318C1031.32 141.825 1021.01 136.047 1011.1 133.624C1003.87 131.857 996.838 132.829 989.837 129.574Z" fill="#423F4C"/>
<path d="M1077.78 161.741C1104.52 175.079 1126.3 197.946 1146.71 219.977C1154.79 228.704 1162.69 235.956 1168.76 246.588C1164.09 243.297 1164.09 240.937 1157.87 240.578C1156.92 239.15 1155.97 237.552 1154.8 236.315L1154 235.571C1152.73 234.369 1151.61 233.029 1149.91 232.579C1148.81 232.288 1148.43 232.092 1147.51 231.369L1148.51 230.58C1146.62 228.389 1146.28 227.766 1143.5 226.917C1140.35 223.365 1135.93 219.902 1135.51 215.054C1131 213.666 1126.58 206.125 1123.06 202.651C1116.39 196.07 1108.32 192.917 1102.44 185.107L1102.01 184.519C1100.07 184.037 1098.52 182.574 1096.93 181.366L1096.51 178.208C1092.36 177.138 1089.55 172.801 1086.01 170.831C1082.14 168.684 1080.04 165.722 1077.78 161.741Z" fill="#332F3B"/>
<path d="M747.397 255.999L740.654 255.614C743.844 252.474 750.019 244.437 751.964 240.392C752.648 238.972 752.276 239.576 753.078 238.312C754.015 236.829 753.308 235.344 754.491 233.477L757 233.466C761.08 230.731 764.211 224.645 767.24 220.643C778.412 205.875 791.69 194.488 805.855 183.175C816.963 174.303 827.4 165.716 839.565 158.413C856.763 148.088 875.978 140.847 894.996 135.32C906.749 131.902 918.333 128.52 930.501 127.051L931.244 129.153L925.402 135.241C888.371 174.602 845.235 213.353 797.266 236.921C789.174 240.896 780.385 245.09 771.96 248.086C766.218 250.127 760.315 251.779 754.501 253.584C752.458 254.218 749.158 254.819 747.397 255.999Z" fill="url(#paint1_linear_14_3673)"/>
<path d="M727.47 308.387C735.805 320.372 742.075 334.326 751.163 345.589L783.583 341.713C784.904 342.942 786.058 343.958 787.077 345.492C781.873 346.626 776.655 347.866 771.366 348.459C765.949 349.065 758.63 349.028 753.889 351.857L753.672 354.183C757.384 358.422 767.398 368.405 768.34 374.067C768.404 375.414 768.228 377.487 768.561 378.737C769.07 380.635 770.778 380.788 770.243 383.028L768.712 383.408L772.913 391.366L805.77 445.773C808.392 450.575 807.181 457.032 807.314 462.371C807.332 463.131 807.201 465.753 807.501 466.309C808.015 467.273 810.944 469.235 811.853 469.939L812.541 472.674L744.2 451.376L740.183 450.551L723.149 446.778L712.466 521.57L710.881 548.126C708.895 553.074 710.904 558.615 708.232 562.981C705.994 559.755 706.084 555.718 705.229 551.929C704.302 547.816 702.753 543.771 701.12 539.92L700.705 538.952L699.702 534.037L698.501 533.516C698.486 529.832 697.193 530.816 696.499 528.25C695.444 524.356 696.77 517.823 696.12 513.468C695.613 510.083 695.823 503.761 694.646 500.869C694.582 500.713 693.527 499.398 693.499 499.29C692.974 497.139 693.821 496.657 692.5 494.563C693.714 491.666 692.027 485.915 691.83 482.497C690.97 467.694 689.841 452.51 689.623 437.707C689.485 428.409 692.736 418.594 693.852 409.323C694.379 404.946 694.321 396.953 696.499 393.5C696.42 378.7 702.28 368.022 706.458 354.41C708.774 346.861 710.269 338.644 711.736 330.982L711.995 329.796C712.282 328.295 712.474 327.131 713.021 325.689L713.49 324.538L712.499 323.484C713.475 318.062 717.778 314.847 719.337 309.893L719.49 309.274C721.38 309.619 722.465 310.656 723.917 311.872L724.401 311.015C725.842 310.648 726.472 309.503 727.47 308.387Z" fill="url(#paint2_linear_14_3673)"/>
<path d="M742.008 437.052L745.81 438.052L744.2 451.376L740.183 450.551C741.307 446.137 741.583 441.587 742.008 437.052Z" fill="#423F4C"/>
<path d="M727.47 308.387C735.805 320.372 742.075 334.326 751.163 345.589L783.583 341.713C784.904 342.942 786.058 343.958 787.077 345.492C781.873 346.626 776.655 347.866 771.366 348.459C765.949 349.065 758.63 349.028 753.889 351.857L753.672 354.183C757.384 358.422 767.398 368.405 768.34 374.067C768.404 375.414 768.228 377.487 768.561 378.737C769.07 380.635 770.778 380.788 770.243 383.028L768.712 383.408C763.254 374.856 758.472 365.54 752.22 357.646L745.81 438.051L742.008 437.052C742.912 426.204 750.461 355.94 746.491 348.896L723.917 311.872L724.401 311.015C725.842 310.648 726.472 309.503 727.47 308.387Z" fill="#4A4E5F"/>
<path d="M745.81 438.052L752.22 357.646C758.472 365.54 763.254 374.856 768.712 383.408L772.913 391.366L805.77 445.773C808.392 450.575 807.181 457.032 807.314 462.371C807.332 463.131 807.201 465.753 807.501 466.309C808.015 467.273 810.944 469.235 811.853 469.939L812.541 472.674L744.2 451.376L745.81 438.052Z" fill="#0A070F"/>
<path d="M1205.69 284.609L1216 308.441C1228.33 340.013 1236.97 372.156 1241.21 406.051C1242.69 417.836 1244.29 430.57 1243.92 442.439C1244.14 458.372 1244.42 474.437 1243.34 490.343C1240.07 538.233 1229.67 586.142 1216.29 631.935C1203 677.421 1187.15 721.808 1168.16 765.02C1149.45 807.606 1127.83 848.775 1105.82 889.553L1105.51 886.774C1104.46 883.54 1103.9 883.64 1101.2 881.961C1099.98 847.244 1105.84 811.171 1114.67 777.799C1117.04 768.828 1118.98 759.479 1122.75 751.027C1126.51 745.756 1132.95 741.19 1137.52 736.507C1145.05 728.785 1151.86 719.924 1158.35 711.233C1163.37 704.514 1166.42 695.842 1170.1 688.25C1172.97 682.326 1177.3 677.101 1179.97 671.193C1182.68 665.232 1183.95 657.6 1185.95 651.242C1188.38 643.548 1191.74 636.164 1194 628.442C1198.45 613.243 1201.1 597.062 1202.27 581.231L1201.7 580.555L1203.37 570.597C1201.54 560.531 1202.43 548.468 1201.87 538.119C1200.26 507.981 1198.03 476.366 1190.3 447.206L1173.12 450.416C1173.78 439.267 1170.94 425.999 1170.11 414.74C1168.84 397.678 1169.34 379.492 1166.63 362.705L1165.62 353.827C1165.88 353.447 1165.14 349.24 1165.04 348.459C1166.89 342.883 1170.89 337.498 1173.95 332.537C1179.44 323.649 1184.93 314.788 1190.31 305.824C1192.59 300.038 1196.11 294.874 1199.66 289.888C1200.97 287.169 1203.26 286.118 1205.69 284.609Z" fill="#0A070F"/>
<path d="M1214.71 599.735C1216.97 603.034 1218.77 604.869 1218.16 609.303C1218 610.408 1217.39 611.491 1216.91 612.461L1215 612.706C1213.12 609.882 1212.19 607.071 1211.19 603.81L1214.71 599.735Z" fill="#1D1D24"/>
<path d="M1199.66 289.888L1201.51 290.322C1201.94 293.953 1202.31 297.127 1203.68 300.531H1201.76L1200 299.798L1199.5 302.946C1198.41 301.216 1198.51 300.854 1198.51 298.744L1199.51 297.693L1199 296.108H1197.75L1197.19 297.098C1195.19 300.606 1194.07 304.078 1190.31 305.824C1192.59 300.038 1196.11 294.874 1199.66 289.888Z" fill="#2D2D37"/>
<path d="M1203.37 570.597C1204.31 575.464 1206.28 579.084 1208.16 583.509C1210.45 588.899 1211.71 594.599 1214.71 599.735L1211.19 603.81C1207.84 595.229 1205.91 587.109 1203.59 578.251L1202.27 581.231L1201.7 580.555L1203.37 570.597Z" fill="#2D2D37"/>
<path d="M1220.99 362.632L1224.19 366.769C1227.6 380.104 1229.97 394.02 1232.18 407.63C1233.97 418.688 1234.01 433.597 1239.41 443.245C1241.02 450.898 1241.07 457.852 1240.9 465.616C1238.68 458.224 1237.62 450.777 1235.78 443.323C1231.33 425.285 1227.37 407.291 1224.21 388.94C1222.75 380.465 1220.72 371.25 1220.99 362.632Z" fill="#332F3B"/>
<path d="M1205.69 284.609L1216 308.441C1214.91 314.534 1214.25 328.36 1217.5 333.685C1218.58 343.026 1220.87 353.339 1220.99 362.632C1220.21 361.292 1218.31 359.069 1217.81 357.697C1216.82 354.954 1216.51 347.976 1216.51 345.066L1214.75 346.64L1213.5 346.322C1211.6 342.239 1209.48 338.183 1208.63 333.693L1208.51 332.96C1206.15 331.437 1204.29 324.161 1203.51 321.379L1204.5 320.326L1205.5 322.431C1206.08 324.139 1206.11 324.861 1207.25 326.379L1207.51 325.064L1210 324.538C1210.01 323.285 1209.78 323.058 1209.51 321.905C1208.2 316.407 1206.45 314.098 1204.23 309.236L1203.51 307.694C1202.07 305.358 1202.06 303.283 1201.76 300.531H1203.68C1202.31 297.127 1201.94 293.952 1201.51 290.322L1199.66 289.888C1200.97 287.169 1203.26 286.118 1205.69 284.609Z" fill="#332F3B"/>
<path d="M1216 308.441C1228.33 340.013 1236.97 372.156 1241.21 406.051C1242.69 417.836 1244.29 430.57 1243.92 442.439L1241.26 441.73L1239.41 443.245C1234.01 433.597 1233.97 418.688 1232.18 407.63C1229.97 394.021 1227.6 380.104 1224.19 366.769L1220.99 362.632C1220.87 353.34 1218.58 343.026 1217.5 333.685C1214.25 328.36 1214.91 314.534 1216 308.441Z" fill="url(#paint3_linear_14_3673)"/>
<path d="M1217.5 333.685L1218.5 330.338L1219.25 332.437L1221.66 332.171L1221.39 333.451C1220.76 336.868 1221.67 341.123 1221.97 344.578C1222.62 352.068 1222.75 359.347 1224.19 366.769L1220.99 362.632C1220.87 353.34 1218.58 343.026 1217.5 333.685Z" fill="#505462"/>
<path d="M952.064 105.135C955.901 104.618 959.846 104.343 963.676 105.181C964.472 107.653 965.21 109.9 965.422 112.512L964.723 113.574C965.806 115.196 966.707 116.301 968.148 117.611L971.694 121.303L979.94 130.336L979.407 130.851C974.968 131.234 971.996 132.342 968 133.455C965.947 134.029 962.337 133.446 960.036 133.465L958.003 138.125C958.008 154.117 958.075 170.112 958.034 186.101C958.016 193.588 957.192 201.905 958.123 209.262C958.461 211.936 959.964 214.544 961.526 216.633L960.87 216.954C959.918 217.361 959.26 217.363 958.254 217.355L957.448 218.706L957.888 219.924C958.953 248.943 958.054 278.125 958.039 307.172C958.031 319.838 957.348 333.488 958.784 346.052C959.055 348.419 960.64 349.984 961.623 351.987L961.836 352.679L961.623 353.72L960.246 354.013L959.859 354.647C958.38 356.978 957.44 357.681 955 358.751L954.501 360.476L953.344 359.805L938.074 378.934C925.944 396.177 911.544 409.943 895.043 422.318C889.539 426.444 883.919 431.034 877.88 434.241C872.374 437.165 866.084 439.208 860.28 441.393L815.073 447.996L814.175 450.853C814.029 453.922 814.113 457.178 813.427 460.164L811.853 469.939C810.944 469.235 808.015 467.273 807.501 466.309C807.201 465.753 807.332 463.131 807.314 462.371C807.181 457.032 808.392 450.575 805.77 445.773L772.913 391.366L768.712 383.408L770.243 383.028C770.778 380.788 769.07 380.635 768.561 378.737C768.228 377.487 768.404 375.414 768.34 374.067C767.398 368.405 757.384 358.422 753.672 354.183L753.889 351.857C758.63 349.028 765.949 349.065 771.366 348.459C776.655 347.866 781.873 346.626 787.077 345.492C786.058 343.958 784.904 342.942 783.583 341.713L751.163 345.589C742.075 334.326 735.805 320.372 727.47 308.387C726.472 309.503 725.842 310.648 724.401 311.015L718.377 301.458C716.777 299.453 714.721 297.262 713.925 294.758L713.559 293.481L712.499 293.087L711.086 296.119L709.783 293.885C711.168 290.651 713.572 286.832 714.304 283.439C715.121 279.672 718.477 273.123 720.509 269.795C722.601 266.375 725.371 266.399 728.863 265.472L735.012 263.744L733.857 260.103L733.827 259.508C738.711 258.616 742.707 257.867 747.397 255.999C749.158 254.819 752.458 254.218 754.501 253.584C760.315 251.779 766.218 250.126 771.96 248.086C780.385 245.09 789.174 240.896 797.266 236.921C845.235 213.353 888.371 174.602 925.402 135.241L927.89 137.141C931.868 131.97 937.446 127.113 941.97 122.416C944.509 119.745 947.036 117.252 948.956 114.029L947.146 112.878L952.064 105.135Z" fill="url(#paint4_linear_14_3673)"/>
<path d="M709.783 293.885C711.168 290.651 713.572 286.832 714.304 283.439C715.121 279.672 718.477 273.123 720.509 269.794C722.601 266.375 725.371 266.399 728.863 265.472C726.042 274.926 724.311 282.779 717.786 290.395L727.47 308.387C726.472 309.503 725.842 310.648 724.401 311.014L718.377 301.458C716.777 299.453 714.721 297.262 713.925 294.758L713.559 293.481L712.499 293.087L711.086 296.119L709.783 293.885Z" fill="#6B6F7F"/>
<path d="M925.402 135.241L927.89 137.141C877.77 187.875 825.157 234.412 757.476 255.98C750.582 258.177 744.018 261.826 737.001 263.251L735.012 263.744L733.857 260.103L733.827 259.508C738.711 258.616 742.707 257.867 747.397 255.999C749.158 254.819 752.458 254.218 754.501 253.584C760.315 251.779 766.218 250.127 771.96 248.086C780.385 245.09 789.174 240.896 797.266 236.921C845.235 213.353 888.371 174.602 925.402 135.241Z" fill="#6B6F7F"/>
<path d="M952.064 105.135C955.901 104.618 959.846 104.343 963.676 105.181C964.472 107.653 965.21 109.9 965.422 112.512L964.723 113.574C965.806 115.196 966.707 116.301 968.149 117.611L971.694 121.303L979.94 130.336L979.407 130.851C974.968 131.234 971.996 132.342 968 133.455C965.947 134.029 962.337 133.446 960.036 133.465L958.003 138.125C958.008 154.117 958.075 170.112 958.034 186.101C958.016 193.588 957.192 201.905 958.124 209.262C958.461 211.936 959.964 214.544 961.526 216.633L960.87 216.954C959.918 217.361 959.26 217.363 958.254 217.355L957.448 218.706C955.656 219.735 953.69 220.533 952.645 222.468C948.378 226.871 944.484 231.251 940.849 236.247L936.617 238.94L935.386 238.541L937.395 233.752C941.962 228.561 946.089 222.972 950.3 217.46C950.874 216.711 953.275 214.14 953.449 213.334C954.867 206.818 953.244 195.396 953.231 188.486C953.198 168.638 953.928 148.821 953.695 128.962C953.183 127.04 952.727 125.696 951.685 123.992L941.97 122.416C944.509 119.745 947.036 117.252 948.956 114.029L947.146 112.878L952.064 105.135Z" fill="#5B5E6E"/>
<path d="M952.064 105.135C955.901 104.618 959.846 104.343 963.676 105.181C964.472 107.653 965.21 109.9 965.422 112.512L964.723 113.574L961.037 109.792L958.436 111.21L957.765 113.846C956.511 118.328 958.203 129.819 956.001 132.8L954.453 127.679L953.695 128.962C953.183 127.04 952.727 125.696 951.685 123.992L941.97 122.416C944.509 119.745 947.036 117.252 948.956 114.029L947.146 112.878L952.064 105.135Z" fill="#73798A"/>
<path d="M950.024 113.724L952.781 115.042L954.453 127.679L953.695 128.962C953.183 127.04 952.727 125.696 951.685 123.992L941.97 122.416C944.509 119.745 947.036 117.252 948.956 114.029L950.024 113.724Z" fill="#505462"/>
<path d="M952.064 105.135C955.901 104.618 959.846 104.343 963.676 105.181C964.472 107.653 965.21 109.9 965.422 112.512L964.723 113.574L961.037 109.792C957.962 109.019 955.914 109.321 953.001 110.884C952.02 111.409 950.577 112.692 950.024 113.724L948.956 114.029L947.146 112.878L952.064 105.135Z" fill="#B0B9C1"/>
<path d="M961.037 109.792L964.723 113.574C965.806 115.196 966.707 116.301 968.148 117.611L971.694 121.303L979.94 130.336L979.407 130.851C974.968 131.234 971.996 132.342 968 133.455C965.947 134.029 962.337 133.447 960.036 133.465L958.003 138.125L957.931 123.842L957.765 113.846L958.436 111.21L961.037 109.792Z" fill="#39394E"/>
<path d="M961.037 109.792L964.723 113.574C965.806 115.196 966.707 116.301 968.148 117.611L971.694 121.303L970.606 121.475C967.401 121.952 964.741 122.084 961.5 121.61L957.931 123.842L957.765 113.846L958.436 111.21L961.037 109.792Z" fill="#505462"/>
<path d="M952.645 222.468C953.69 220.533 955.656 219.735 957.448 218.706L957.888 219.924C958.953 248.943 958.054 278.125 958.039 307.172C958.031 319.838 957.348 333.488 958.784 346.052C959.055 348.419 960.64 349.984 961.623 351.987L961.836 352.679L961.623 353.72L960.246 354.013L959.859 354.647C958.38 356.978 957.44 357.681 955 358.751L954.501 360.476L953.344 359.805L938.074 378.934C925.944 396.177 911.544 409.943 895.043 422.318C889.539 426.444 883.919 431.034 877.88 434.241C872.374 437.165 866.084 439.208 860.28 441.393L815.073 447.996L814.175 450.853C814.029 453.922 814.113 457.178 813.427 460.164L811.853 469.939C810.944 469.235 808.015 467.273 807.501 466.309C807.201 465.754 807.332 463.131 807.314 462.371C807.181 457.032 808.392 450.575 805.77 445.773L772.913 391.366L768.712 383.408L770.243 383.028C770.778 380.788 769.07 380.635 768.561 378.737C768.228 377.487 768.405 375.414 768.341 374.067C767.398 368.405 757.384 358.422 753.672 354.183L753.889 351.857C758.63 349.028 765.949 349.065 771.366 348.459C776.655 347.866 781.873 346.626 787.077 345.492C786.058 343.958 784.904 342.942 783.583 341.713L813.589 333.281C864.604 315.893 904.123 276.589 937.395 233.752L935.386 238.541L936.617 238.94L940.849 236.247C944.484 231.251 948.378 226.871 952.645 222.468Z" fill="#100919"/>
<path d="M768.341 374.067C770.202 376.829 775.662 384.391 775.626 387.488C774.892 388.674 774.029 390.62 772.913 391.366L768.712 383.408L770.243 383.028C770.778 380.788 769.07 380.635 768.561 378.737C768.228 377.487 768.405 375.414 768.341 374.067Z" fill="#423F4C"/>
<path d="M783.583 341.713L813.588 333.281L817.073 336.698C807.452 340.107 797.148 344.058 787.077 345.492C786.058 343.958 784.904 342.942 783.583 341.713Z" fill="#423F4C"/>
<path d="M936.312 374.994L938.074 378.934C925.944 396.177 911.544 409.943 895.043 422.318C889.539 426.444 883.919 431.034 877.88 434.241C872.374 437.165 866.084 439.208 860.28 441.393L855.352 438.714C861.535 436.389 868.035 434.322 873.951 431.311C897.572 419.289 921.149 397.513 936.312 374.994Z" fill="#0A070F"/>
<path d="M813.589 333.281C864.604 315.893 904.123 276.589 937.395 233.752L935.386 238.541L936.617 238.94L940.849 236.247C912.236 271.829 882.47 302.059 843.331 324.465C835.446 328.977 825.859 334.798 817.073 336.698L813.589 333.281Z" fill="#39394E"/>
<path d="M775.626 387.488C781.604 396.007 806.805 440.674 813.499 442.075C824.855 444.452 843.942 441.121 855.352 438.714L860.28 441.393L815.073 447.996L814.175 450.853C814.029 453.922 814.113 457.178 813.427 460.164L811.853 469.939C810.944 469.235 808.015 467.273 807.501 466.308C807.201 465.753 807.332 463.131 807.314 462.371C807.181 457.032 808.392 450.575 805.77 445.773L772.913 391.366C774.029 390.619 774.892 388.674 775.626 387.488Z" fill="url(#paint5_linear_14_3673)"/>
<path d="M952.645 222.468C953.69 220.533 955.656 219.735 957.448 218.706L957.888 219.924C958.953 248.943 958.054 278.125 958.039 307.172C958.031 319.838 957.348 333.488 958.784 346.052C959.055 348.419 960.64 349.984 961.623 351.987L961.836 352.679L961.623 353.72L960.246 354.013L959.859 354.647C958.38 356.978 957.44 357.681 955 358.751L954.501 360.476L953.344 359.805L938.074 378.934L936.312 374.994C940.626 368.448 949.32 359.735 951.501 352.413C953.129 346.953 952.829 339.355 952.952 333.628C953.237 320.528 953.06 307.39 953.055 294.284C953.042 274.648 953.111 255.026 952.515 235.396C952.381 231.038 952.963 226.809 952.645 222.468Z" fill="url(#paint6_linear_14_3673)"/>
<path d="M712.466 521.57L723.149 446.778L740.183 450.551L744.2 451.375L812.541 472.674L821.164 476.873L832.1 483.236L837.284 485.165C850.811 494.574 863.949 503.219 875.62 515.25C890.345 530.428 900.949 549.263 909.919 568.627C921.05 592.645 929.907 618.336 935.002 644.569C935.997 649.701 939.064 659.532 938.391 664.275C937.961 667.285 935.701 671.541 934.687 674.5C928.568 692.352 921.349 710.815 911.263 726.621C898.301 746.925 878.41 763.572 855.219 768.132C836.7 771.771 819.822 767.531 803.264 758.705C798.828 756.339 794.709 753.11 790.159 751.065C790.075 750.151 782.5 743.438 781.404 742.368C769.69 730.933 761.001 719.816 752.389 705.673C752.156 703.654 749.686 700.609 748.58 698.841C745.116 693.295 741.565 687.797 738.171 682.205C735.741 678.2 733.768 673.966 731.873 669.657L731.884 667.841L728.499 668.078C720.351 663.3 719.67 652.059 715.154 644.203L714.637 643.33C712.794 636.996 711.521 630.218 707.863 624.739L709.281 619.57L710.049 618.409C712.069 615.078 710.671 609.807 709.97 606.23L709.123 605.457L708.864 585.298L708.805 582.458L706.913 581.42L705.882 581.385C705.51 581.04 704.97 580.827 704.768 580.353C703.892 578.278 704.612 570.745 704.389 567.983C703.598 558.248 701.678 548.668 700.705 538.952L701.12 539.92C702.753 543.771 704.302 547.816 705.229 551.929C706.084 555.718 705.994 559.755 708.232 562.981C710.904 558.615 708.895 553.074 710.881 548.126L712.466 521.57Z" fill="url(#paint7_linear_14_3673)"/>
<path d="M723.876 510.118C725.443 503.384 725.448 496.261 726.216 489.383C727.391 478.886 729.024 468.419 730.547 457.973C740.447 460.741 750.605 462.42 760.494 465.303C783.222 471.933 804.636 480.271 825.818 491.224L826.598 491.978C830.479 495.592 837.11 498.145 841.731 500.778C853.023 507.208 865.07 517.78 872.909 528.504C876.764 533.781 883.284 539.904 885.491 546.137L884.995 547.711H884.004C881.746 545.264 880.143 543.35 878.518 540.348C876.134 535.939 871.378 531.428 868.001 527.722C857.193 515.875 843.604 501.54 828.193 496.7C797.514 481.646 766.879 469.006 733.307 462.91C730.555 484.19 725.768 506.944 725.919 528.369C724.539 536.721 724.877 545.369 724.854 553.823C724.792 574.863 726.188 597.418 731.302 617.819C732.552 622.804 737.196 634.412 736.251 639.042L734.999 637.198L734.267 637.204C733.32 637.201 733.699 637.236 732.908 637.107C726.423 612.574 721.178 587.071 720.865 561.461C720.655 544.232 722.639 527.253 723.876 510.118Z" fill="#B8023C"/>
<path d="M725.919 528.369C725.768 506.944 730.555 484.19 733.307 462.91C766.879 469.006 797.514 481.646 828.193 496.7L824.53 497.63L823.89 496.929C822.932 495.994 822.21 495.746 821 495.339C819.251 496.444 817.428 497.282 816.499 499.29C820.173 502.106 824.809 503.575 828.749 505.912C830.298 506.831 831.211 508.97 832.066 510.552C822.725 505.144 812.851 499.33 802.808 495.56C784.699 486.61 762.102 479.005 742.292 475.488L735.122 563.075C731.589 554.502 734.592 544.178 733.509 535.085L732.5 535.6L731.51 534.557C730.109 534.996 729.518 535.247 728.082 534.815L727.25 534.551L726.751 546.493L725.919 528.369Z" fill="#ED3876"/>
<path d="M712.466 521.57L723.149 446.778L740.183 450.551L744.2 451.375L812.541 472.674L821.163 476.873L832.1 483.236L832.146 485.306C830.699 484.319 830.024 483.503 828.25 483.494L827 482.446L823.995 483.494L822.49 486.658C823.565 488.874 826.283 488.634 825.818 491.224C804.636 480.271 783.222 471.933 760.494 465.303C750.605 462.42 740.447 460.741 730.547 457.973C729.024 468.419 727.391 478.886 726.216 489.383C725.448 496.261 725.443 503.384 723.876 510.118L721.659 510.035C721.554 515.104 722.294 518.117 718.5 521.936L714.501 525.073L713.912 523.906C713.088 522.313 713.459 522.928 712.466 521.57Z" fill="#ED3876"/>
<path d="M712.466 521.57C713.459 522.928 713.088 522.313 713.912 523.906L714.501 525.073L718.5 521.936C722.294 518.117 721.554 515.104 721.659 510.035L723.876 510.118C722.639 527.253 720.655 544.232 720.865 561.461C721.178 587.071 726.423 612.574 732.908 637.107L733.005 638.107C733.256 640.543 733.427 641.446 734.51 643.516L735.731 646.914C736.727 650.072 737.789 650.889 737.51 654.57C738.435 656.249 739.356 657.764 740.49 659.306C739.901 663.289 740.219 663.901 737.321 666.412C737.592 662.61 734.758 659.575 732.5 656.686L731.489 657.726L731.072 656.576L729.249 652.468L729.49 650.358C727.887 649.073 726.653 648.113 724.744 647.359C727.155 654.013 730.24 660.955 731.884 667.841L728.499 668.078C720.351 663.3 719.67 652.059 715.154 644.203L714.637 643.33C712.794 636.996 711.521 630.218 707.863 624.739L709.281 619.57L710.049 618.409C712.069 615.078 710.671 609.807 709.97 606.23L709.123 605.457L708.864 585.298L708.805 582.458L706.913 581.42L705.882 581.385C705.51 581.04 704.97 580.827 704.768 580.353C703.892 578.278 704.612 570.745 704.389 567.983C703.598 558.248 701.678 548.668 700.705 538.952L701.12 539.92C702.753 543.771 704.302 547.816 705.229 551.929C706.084 555.718 705.994 559.755 708.232 562.981C710.904 558.615 708.895 553.074 710.881 548.126L712.466 521.57Z" fill="url(#paint8_linear_14_3673)"/>
<path d="M700.705 538.952L701.12 539.92C702.753 543.771 704.302 547.816 705.229 551.929C706.084 555.718 705.994 559.755 708.232 562.981C710.904 558.615 708.895 553.074 710.881 548.126C710.641 569.093 710.93 589.982 715.661 610.504C713.9 608.825 711.964 607.564 709.97 606.23L709.123 605.457L708.864 585.298L708.805 582.458L706.913 581.42L705.882 581.385C705.51 581.04 704.97 580.827 704.768 580.353C703.892 578.278 704.612 570.745 704.389 567.983C703.598 558.248 701.678 548.668 700.705 538.952Z" fill="#351930"/>
<path d="M709.97 606.23C711.964 607.564 713.9 608.826 715.661 610.504C717.885 619.926 719.468 629.679 722.168 638.934C722.849 641.262 723.581 645.397 724.744 647.359C727.155 654.013 730.24 660.955 731.884 667.841L728.499 668.078C720.351 663.3 719.67 652.059 715.154 644.203L714.637 643.33C712.794 636.996 711.521 630.218 707.863 624.739L709.281 619.57L710.049 618.409C712.069 615.078 710.671 609.806 709.97 606.23Z" fill="#332F3B"/>
<path d="M735.122 563.075L742.292 475.488C762.102 479.005 784.699 486.61 802.808 495.56C812.851 499.33 822.725 505.144 832.067 510.552L836.237 513.84C845.199 520.562 853.914 527.296 861.427 535.848C883.323 560.763 896.742 596.534 905.556 628.664C908.096 637.924 912.384 649.798 913.073 659.287C913.354 663.192 910.228 669.908 908.833 673.64C901.576 693.074 893.053 713.416 878.549 728.182C866.629 740.312 855.276 745.861 838.689 745.279C820.89 744.656 804.797 731.804 793.221 718.606C755.574 675.678 737.493 620.826 735.122 563.075Z" fill="url(#paint9_linear_14_3673)"/>
<path d="M802.808 495.56C812.851 499.33 822.725 505.143 832.067 510.552L836.237 513.84L834.25 522.303L833.999 515.083C832.755 513.77 831.467 512.924 830.001 511.924L828.5 513.493L827.75 512.188C826.683 513.309 827.128 512.722 826.204 514.336L825.5 515.597L824 515.083C823.158 516.258 823.368 515.84 822.825 516.985L822.5 517.702L821.75 516.398C820.813 517.26 820.285 518.236 819.005 518.236L818.749 516.398L816.499 516.651L814.999 513.503L813.499 513.493C811.658 510.574 811.51 510.159 811.51 506.661C812.736 505.356 812.6 505.187 813 503.502C812.009 501.939 811.395 501.308 809.51 500.869C807.557 500.416 806.623 499.12 804.759 498.471C803.528 498.042 802.476 497.487 801.306 496.886L802.808 495.56Z" fill="white"/>
<path d="M981.737 127.835L983.388 128.676C985.743 128.66 987.604 128.617 989.837 129.574C996.838 132.829 1003.87 131.856 1011.1 133.624C1021.01 136.047 1031.32 141.825 1041.1 145.318C1046.17 147.126 1051.74 147.579 1056.65 149.7C1063.48 152.651 1071.57 157.448 1077.78 161.741C1080.04 165.722 1082.14 168.684 1086.01 170.831C1089.55 172.802 1092.36 177.138 1096.51 178.208L1096.93 181.366C1098.52 182.574 1100.07 184.037 1102.01 184.519L1102.44 185.107C1108.32 192.917 1116.39 196.07 1123.06 202.651C1126.58 206.125 1131 213.666 1135.51 215.054C1135.93 219.902 1140.35 223.365 1143.5 226.917C1146.28 227.766 1146.62 228.389 1148.51 230.58L1147.51 231.369C1148.43 232.092 1148.81 232.288 1149.91 232.579C1151.61 233.029 1152.73 234.369 1154 235.571L1154.8 236.315C1155.97 237.552 1156.92 239.15 1157.87 240.578C1164.09 240.937 1164.09 243.297 1168.76 246.588L1175.11 255.056C1174.93 256.311 1174.8 256.697 1174.17 257.861C1177.19 259.125 1179.81 258.961 1182.99 258.877L1183.88 257.689L1180.21 249.463L1188.7 253.077L1196.74 267.471L1202.43 278.23L1205.69 284.609C1203.26 286.118 1200.97 287.169 1199.66 289.888C1196.11 294.874 1192.59 300.038 1190.31 305.824C1184.93 314.788 1179.44 323.649 1173.95 332.537C1170.89 337.498 1166.89 342.883 1165.04 348.459C1165.14 349.24 1165.88 353.447 1165.62 353.827L1166.63 362.705C1169.34 379.492 1168.84 397.678 1170.11 414.74C1170.94 425.999 1173.78 439.267 1173.12 450.416L1170.18 450.688L1126.32 463.333L1106.89 470.669C1104.53 466.546 1104.61 460.153 1105.18 455.485C1105.46 453.181 1106.01 450.513 1105.41 448.247C1104.8 445.956 1108 440.614 1109.04 438.254L1108.75 434.284C1107.42 434.987 1108.02 434.734 1106.47 435.243L1105.31 435.61L1099.93 442.474C1086.26 442.442 1074.13 439.895 1060.72 437.876C1060.68 437.372 1057.67 436.577 1057.13 436.391C1048.16 433.292 1039.87 429.613 1031.37 425.326C1028.46 423.86 1025.01 422.846 1022.36 420.933C1006.31 409.339 991.391 392.978 979.108 377.107C973.03 369.254 967.987 360.565 961.836 352.679L961.623 351.987C960.64 349.984 959.055 348.418 958.784 346.052C957.348 333.488 958.031 319.838 958.039 307.172C958.054 278.125 958.953 248.943 957.888 219.924L957.448 218.705L958.254 217.355C959.26 217.363 959.918 217.361 960.87 216.954L961.526 216.633C959.964 214.544 958.461 211.936 958.123 209.262C957.192 201.905 958.016 193.588 958.034 186.101C958.075 170.112 958.008 154.117 958.003 138.125L960.036 133.465C962.337 133.446 965.947 134.029 968 133.455C971.996 132.342 974.968 131.234 979.407 130.851L979.94 130.336L981.737 127.835Z" fill="url(#paint10_linear_14_3673)"/>
<path d="M1180.29 263.836C1183.73 264.361 1186.28 264.871 1189.5 266.1L1192.01 266.596L1196.74 267.471L1202.43 278.23L1194.61 290.069C1191.35 280.645 1183.83 273.411 1180.29 263.836Z" fill="#4A4E5F"/>
<path d="M1088.26 327.713C1104.2 334.914 1119.72 338.595 1136.75 341.557C1145.04 343.002 1153.61 344.67 1162.03 344.484C1158.77 346.349 1155.59 345.589 1152.04 345.22L1149.59 347.233C1146.68 348.451 1141.39 347.028 1138.29 346.61C1120.48 344.209 1103.24 339.25 1086.62 332.168L1088.26 327.713Z" fill="#332F3B"/>
<path d="M1202.43 278.23L1205.69 284.609C1203.26 286.118 1200.97 287.169 1199.66 289.889C1196.11 294.874 1192.59 300.038 1190.31 305.824C1184.93 314.788 1179.44 323.649 1173.95 332.537C1170.89 337.498 1166.89 342.883 1165.04 348.459L1162.67 352.76L1159.62 350.591C1157.03 348.381 1152.81 347.971 1149.59 347.233L1152.04 345.22C1155.59 345.589 1158.77 346.349 1162.03 344.484C1166.75 339.506 1169.53 332.577 1173.03 326.643C1180.18 314.515 1187.25 302.04 1194.61 290.069L1202.43 278.23Z" fill="#5B5E6E"/>
<path d="M961.526 216.633C965.512 218.776 968.635 224.117 971.479 227.72C977.748 235.66 984.09 243.551 990.51 251.353C1016.57 283.003 1050.86 312.637 1088.26 327.713L1086.62 332.168C1073.21 325.5 1059.96 319.11 1047.57 310.376C1031.1 298.766 1015.34 284.013 1001.15 269.471C990.008 258.052 979.873 245.839 969.613 233.566C966.098 229.356 962.706 222.355 957.888 219.924L957.448 218.706L958.254 217.355C959.26 217.363 959.918 217.361 960.87 216.954L961.526 216.633Z" fill="#39394E"/>
<path d="M981.737 127.835L983.388 128.676C989.957 135.484 995.958 142.882 1002.5 149.651C1011.55 159.011 1021.98 167.902 1031.74 176.421C1068.59 208.599 1108.79 235.522 1154.68 251.059L1161.5 250.329L1158.51 246.108L1159.5 245.583C1159.13 243.764 1158.56 242.276 1157.87 240.578C1164.09 240.937 1164.09 243.297 1168.76 246.588L1175.11 255.056C1174.93 256.311 1174.8 256.697 1174.17 257.861C1177.19 259.125 1179.81 258.961 1182.99 258.877L1183.88 257.689L1180.21 249.463L1188.7 253.077L1196.74 267.472L1192.01 266.596L1189.5 266.1C1186.28 264.871 1183.73 264.361 1180.29 263.836C1159.08 255.7 1137.87 248.978 1117.16 239.298C1064.77 214.806 1019.8 172.783 979.407 130.851L979.94 130.336L981.737 127.835Z" fill="#505462"/>
<path d="M1157.87 240.578C1164.09 240.937 1164.09 243.297 1168.76 246.588L1175.11 255.056C1174.93 256.312 1174.8 256.697 1174.17 257.861L1154.68 251.059L1161.5 250.329L1158.51 246.108L1159.5 245.583C1159.13 243.764 1158.56 242.276 1157.87 240.578Z" fill="#2D2D37"/>
<path d="M983.388 128.676C985.743 128.66 987.604 128.617 989.837 129.574C996.838 132.829 1003.87 131.856 1011.1 133.624C1021.01 136.047 1031.32 141.825 1041.1 145.318C1046.17 147.126 1051.74 147.579 1056.65 149.7C1063.48 152.651 1071.57 157.448 1077.78 161.741C1080.04 165.722 1082.14 168.684 1086.01 170.831C1089.55 172.802 1092.36 177.138 1096.51 178.208L1096.93 181.366C1098.52 182.574 1100.07 184.037 1102.01 184.519L1102.44 185.107C1108.32 192.917 1116.39 196.07 1123.06 202.651C1126.58 206.125 1131 213.666 1135.51 215.054C1135.93 219.902 1140.35 223.365 1143.5 226.917C1146.28 227.766 1146.62 228.389 1148.51 230.58L1147.51 231.369C1148.43 232.092 1148.81 232.288 1149.91 232.579C1151.61 233.029 1152.73 234.369 1154 235.571L1154.8 236.315C1155.97 237.552 1156.92 239.15 1157.87 240.578C1158.56 242.276 1159.13 243.764 1159.5 245.583L1158.51 246.108L1161.5 250.329L1154.68 251.059C1108.79 235.522 1068.59 208.599 1031.74 176.421C1021.98 167.902 1011.55 159.011 1002.5 149.651C995.958 142.882 989.957 135.484 983.388 128.676Z" fill="url(#paint11_linear_14_3673)"/>
<path d="M957.888 219.924C962.706 222.354 966.098 229.356 969.613 233.566C979.873 245.839 990.008 258.052 1001.15 269.471C1015.34 284.013 1031.1 298.766 1047.57 310.376C1059.96 319.11 1073.21 325.5 1086.62 332.168C1103.24 339.25 1120.48 344.209 1138.29 346.61C1141.39 347.028 1146.68 348.451 1149.59 347.233C1152.81 347.971 1157.03 348.381 1159.62 350.591L1162.67 352.76L1165.04 348.459C1165.14 349.24 1165.88 353.447 1165.62 353.827L1166.63 362.705C1169.34 379.492 1168.84 397.678 1170.11 414.74C1170.94 425.999 1173.78 439.267 1173.12 450.416L1170.18 450.688L1126.32 463.333L1106.89 470.669C1104.53 466.546 1104.61 460.153 1105.18 455.485C1105.46 453.181 1106.01 450.513 1105.41 448.247C1104.8 445.956 1108 440.614 1109.04 438.254L1108.75 434.284C1107.42 434.987 1108.02 434.734 1106.47 435.243L1105.31 435.61L1099.93 442.474C1086.26 442.442 1074.13 439.895 1060.72 437.876C1060.68 437.372 1057.67 436.577 1057.13 436.391C1048.16 433.292 1039.87 429.613 1031.37 425.326C1028.46 423.86 1025.01 422.846 1022.36 420.933C1006.31 409.339 991.391 392.978 979.108 377.107C973.03 369.254 967.987 360.565 961.836 352.679L961.623 351.987C960.64 349.984 959.055 348.418 958.784 346.052C957.348 333.488 958.031 319.838 958.039 307.172C958.054 278.125 958.953 248.943 957.888 219.924Z" fill="#100919"/>
<path d="M1127.37 401.418L1129.35 404.38L1109.04 438.254L1108.75 434.284C1107.42 434.987 1108.02 434.734 1106.47 435.243L1105.31 435.61L1127.37 401.418Z" fill="#39394E"/>
<path d="M1159.62 350.591L1162.67 352.76C1160.54 359.363 1153.16 366.367 1149.31 372.296C1142.45 382.847 1136.34 393.902 1129.35 404.38L1127.37 401.419C1131.24 393.84 1136.27 387.229 1140.66 380.018C1146.67 370.143 1152.01 359.228 1159.62 350.591Z" fill="#423F4C"/>
<path d="M1165.04 348.459C1165.14 349.241 1165.88 353.447 1165.62 353.827L1166.63 362.705C1169.34 379.492 1168.84 397.678 1170.11 414.74C1170.94 426 1173.78 439.267 1173.12 450.416L1170.18 450.688L1126.32 463.333L1106.89 470.669C1104.53 466.546 1104.61 460.153 1105.18 455.486C1105.46 453.181 1106.01 450.513 1105.41 448.247C1104.8 445.956 1108 440.615 1109.04 438.254L1129.35 404.38C1136.34 393.902 1142.45 382.847 1149.31 372.296C1153.16 366.367 1160.54 359.363 1162.67 352.76L1165.04 348.459Z" fill="#100919"/>
<path d="M1170.18 450.688C1168.3 432.309 1157.97 368.235 1165.62 353.827L1166.63 362.705C1169.34 379.492 1168.84 397.678 1170.11 414.74C1170.94 425.999 1173.78 439.267 1173.12 450.416L1170.18 450.688Z" fill="#332F3B"/>
<path d="M961.836 352.679C967.987 360.565 973.03 369.253 979.108 377.107C991.391 392.978 1006.31 409.339 1022.36 420.933C1025.01 422.846 1028.46 423.86 1031.37 425.326C1039.87 429.613 1048.16 433.292 1057.13 436.391C1057.67 436.577 1060.68 437.372 1060.72 437.876C1074.13 439.895 1086.26 442.442 1099.93 442.474L1105.31 435.61L1106.47 435.243C1108.02 434.734 1107.42 434.987 1108.75 434.284L1109.04 438.254C1108 440.614 1104.8 445.956 1105.41 448.247C1106.01 450.513 1105.46 453.181 1105.18 455.485C1104.61 460.153 1104.53 466.546 1106.89 470.669L1126.32 463.333L1170.18 450.688L1173.12 450.416L1190.3 447.206C1198.03 476.366 1200.26 507.981 1201.87 538.119C1202.43 548.468 1201.54 560.531 1203.37 570.597L1201.7 580.555L1202.27 581.231C1201.1 597.062 1198.45 613.243 1194 628.442C1191.74 636.164 1188.38 643.548 1185.95 651.242C1183.95 657.6 1182.68 665.232 1179.97 671.193C1177.3 677.101 1172.97 682.326 1170.1 688.25C1166.42 695.842 1163.37 704.514 1158.35 711.233C1151.86 719.924 1145.05 728.785 1137.52 736.507C1132.95 741.19 1126.51 745.756 1122.75 751.027C1118.98 759.479 1117.04 768.828 1114.67 777.799C1105.84 811.172 1099.98 847.244 1101.2 881.961C1103.9 883.64 1104.46 883.54 1105.51 886.774L1105.82 889.553C1087 931.633 1057.37 979.453 1014.27 995.863C978.532 1009.47 928.714 1009.91 893.957 992.267C879.941 985.153 866.98 973.448 856.494 961.526C854.525 959.283 850.573 955.483 849.528 952.726C845.658 948.805 842.573 943.361 839.483 938.726C830.692 925.539 823.478 911.593 816.069 897.517L815.657 894.533C814.049 887.696 816.822 883.705 817.29 877.018L817.377 875.701L817.083 873.93L816.806 870.85C817.882 861.873 816.364 852.316 816.143 843.272C816.676 837.504 814.827 831.441 813.857 825.784C811.84 814.007 810.575 795.223 803.651 785.437L803 784.583V783.003L801.51 781.95L801.999 778.791C800.689 776.355 801.623 773.946 800.643 771.533C799.895 769.701 800.146 767.777 799.406 765.963C798.74 764.33 797.865 762.635 797.499 760.885C797.215 759.516 797.233 758.517 796.47 757.309C795.85 756.336 795.272 756.576 794.25 756.423L793.5 759.832C791.352 756.331 790.63 755.358 790.159 751.065C794.708 753.11 798.827 756.339 803.264 758.705C819.822 767.531 836.7 771.771 855.219 768.132C878.41 763.572 898.301 746.925 911.263 726.621C921.349 710.815 928.568 692.352 934.687 674.5C935.7 671.541 937.961 667.285 938.391 664.275C939.064 659.532 935.997 649.701 935.002 644.569C929.907 618.336 921.05 592.645 909.919 568.627C900.948 549.263 890.345 530.428 875.62 515.25C863.949 503.219 850.811 494.574 837.284 485.165L832.1 483.236L821.164 476.873L812.541 472.674L811.853 469.939L813.427 460.164C814.113 457.178 814.029 453.922 814.175 450.853L815.073 447.996L860.28 441.393C866.084 439.208 872.374 437.165 877.88 434.241C883.919 431.034 889.539 426.444 895.043 422.318C911.544 409.943 925.944 396.177 938.074 378.934L953.344 359.805L954.501 360.476L955 358.751C957.44 357.681 958.38 356.978 959.859 354.647L960.246 354.013L961.623 353.719L961.836 352.679Z" fill="url(#paint12_linear_14_3673)"/>
<path d="M814.175 450.853C815.206 456.413 817.298 458.1 820.501 462.223C825.979 469.287 833.705 477 837.284 485.166L832.1 483.236L821.164 476.873L812.541 472.674L811.853 469.939L813.427 460.164C814.113 457.178 814.029 453.922 814.175 450.853Z" fill="#351930"/>
<path d="M813.427 460.164C817.347 464.32 818.084 469.939 822.351 473.825L822.354 475.698L821.164 476.873L812.541 472.674L811.853 469.939L813.427 460.164Z" fill="#100919"/>
<path d="M816.143 843.272C819.899 851.874 818.534 864.034 818.511 873.536L826.509 865.117C826.189 863.794 825.759 863.298 826.539 861.959L828.132 860.458C830.817 857.951 832.256 854.849 834.501 852.001C840.43 844.471 845.445 837.469 850.875 829.549C856.922 820.725 863.57 812.368 869.499 803.456L870.999 805.11H872.292L829.007 869.963L828.273 870.418C826.214 873.423 825.528 876.116 824.776 879.703C823.258 879.409 822.761 879.099 821.499 878.247L820.918 874.164C819.295 874.746 818.714 874.323 817.083 873.93L816.806 870.849C817.882 861.872 816.363 852.316 816.143 843.272Z" fill="#0A070F"/>
<path d="M820.918 874.164C822.689 872.006 824.069 870.426 826.473 869.071L828.273 870.418C826.214 873.423 825.528 876.116 824.776 879.703C823.258 879.409 822.761 879.099 821.499 878.247L820.918 874.164Z" fill="#2D2D37"/>
<path d="M961.836 352.679C967.987 360.565 973.03 369.253 979.108 377.107C991.391 392.978 1006.31 409.339 1022.36 420.933C1025.01 422.846 1028.46 423.86 1031.37 425.326C1039.87 429.613 1048.16 433.292 1057.13 436.391C1057.67 436.577 1060.68 437.372 1060.72 437.876L1059.66 437.971C1052.39 438.407 1044.46 433.475 1037.77 431.144C1035.3 430.284 1032.51 427.684 1030 427.711C1034.76 430.225 1040.9 434.526 1045.96 435.847C1049.76 436.841 1053.47 439.712 1057.36 441.064L1057.74 442.075C1053.91 442.016 1050 439.989 1046.5 438.475C1036.73 434.243 1025.41 428.632 1017.11 421.728C1012.34 417.758 1006.91 414.632 1002.34 410.406C991.706 400.564 982.244 387.48 973.005 376.12L973.499 375.069C974.753 376.387 976.225 378.753 977.999 378.753C977.267 376.436 975.708 375.182 974.469 373.226C970.309 366.655 965.443 360.503 961.623 353.719L961.836 352.679Z" fill="#0A070F"/>
<path d="M914.135 924.836C929.403 937.885 941.409 952.837 953.802 968.802L953.5 889.989C954.155 891.31 955.131 892.431 954.78 893.902L953.999 897.751C955.11 899.505 955.307 901.136 954.749 903.278L954.36 904.195C953.032 907.456 953.963 915.034 953.999 918.804C956.301 922.44 955 961.304 955 968.284L952.494 969.074C953.254 970.416 953.902 971.438 955 972.494V998.813H956.001V881.961H956.536L958.31 969.516L983.787 940.316L985.738 943.299C978.609 950.503 972.762 958.453 966.216 966.185C963.2 969.745 958.641 973.418 958.239 978.286C957.652 985.357 959.327 994.235 957.271 1000.92L955 1001.47L953.05 999.867L953.587 972.925C945.431 967.023 939.384 957.065 932.836 949.336C926.262 941.577 919.004 934.627 911.411 928L914.135 924.836Z" fill="#1D1D24"/>
<path d="M1057.74 442.075L1057.36 441.065C1053.47 439.712 1049.76 436.842 1045.96 435.847C1040.9 434.527 1034.76 430.225 1030 427.711C1032.51 427.684 1035.3 430.285 1037.77 431.144C1044.46 433.475 1052.39 438.407 1059.66 437.971L1060.72 437.876C1074.13 439.895 1086.26 442.442 1099.93 442.474L1105.31 435.61L1106.47 435.243C1108.02 434.734 1107.42 434.987 1108.75 434.284L1109.04 438.254C1108 440.615 1104.8 445.956 1105.41 448.247C1106.01 450.513 1105.46 453.181 1105.18 455.486C1104.61 460.153 1104.53 466.546 1106.89 470.669L1102.37 472.69L1094.32 476.515L1089.45 470.874L1084.43 474.183L1083.94 470.343C1086.23 463.042 1092.83 455.488 1097.26 449.392C1094.4 447.697 1089.05 447.95 1085.68 447.438C1076.23 446.005 1066.99 444.617 1057.74 442.075Z" fill="#332F3B"/>
<path d="M1089.45 470.874C1093.59 465.263 1096.71 459.563 1100.23 453.556L1102.06 454.195L1105.18 455.486C1104.61 460.153 1104.53 466.546 1106.89 470.669L1102.37 472.69L1094.32 476.515L1089.45 470.874Z" fill="#100919"/>
<path d="M1102.06 454.195L1105.18 455.485C1104.61 460.153 1104.53 466.546 1106.89 470.669L1102.37 472.69C1101.1 467.058 1100.53 459.779 1102.06 454.195Z" fill="#351930"/>
<path d="M1117.09 754.415C1117.25 754.016 1122.08 751.424 1122.75 751.027C1118.98 759.479 1117.04 768.828 1114.67 777.799C1105.84 811.172 1099.98 847.244 1101.2 881.961C1103.9 883.64 1104.46 883.54 1105.51 886.774C1104.68 887.529 1103.43 889.038 1102.5 889.515C1101.29 890.132 1097.68 890.035 1096.23 890.2C1090.46 890.855 1084.61 892.105 1078.81 892.105L1078.76 891.647L1076.5 890.909C1075.84 891.316 1075.59 891.531 1074.75 891.698C1073.3 891.981 1070.46 892.024 1069.25 891.173L1073.62 890.645L1071.04 889.866C1076.17 887.788 1088.99 886.888 1092.61 883.179C1084.92 880.137 1076.52 863.061 1071.67 855.642C1064.59 844.8 1056.97 834.37 1050.05 823.393C1044.72 814.942 1040.14 806.019 1034.5 797.788L1035 796.201C1041.52 798.769 1051.55 817.521 1055.76 823.854C1064.25 836.626 1072.94 849.155 1081.75 861.679C1086.77 868.815 1091 876.224 1096.66 882.859C1096.76 855.615 1099.09 829.993 1104.2 803.248C1106.16 793.056 1108.79 782.92 1111.76 773.008C1113.32 767.774 1117.89 759.495 1117.09 754.415Z" fill="#1D1D24"/>
<path d="M828.273 870.418L829.007 869.963L832.568 872.485C833.103 877.045 832.62 883.007 834.271 887.208C852.749 889.467 876.293 897.716 892.242 907.782C900.014 912.687 907.005 918.969 914.135 924.836L911.411 928C919.004 934.627 926.262 941.577 932.836 949.336C939.384 957.065 945.431 967.023 953.587 972.925L953.05 999.867L955 1001.47L957.271 1000.92C959.327 994.235 957.653 985.357 958.239 978.286C958.641 973.419 963.2 969.745 966.216 966.185C972.762 958.453 978.609 950.503 985.738 943.299L983.788 940.316C989.015 933.64 995.981 927.949 1002.44 922.656C1022.79 905.992 1045.19 893.345 1071.04 889.865L1073.62 890.644L1069.25 891.173C1070.46 892.024 1073.3 891.981 1074.75 891.698C1075.59 891.531 1075.84 891.315 1076.5 890.908L1078.76 891.647L1078.81 892.105C1084.61 892.105 1090.46 890.855 1096.23 890.2C1097.68 890.035 1101.29 890.132 1102.5 889.515C1103.43 889.038 1104.68 887.529 1105.51 886.774L1105.82 889.553C1087 931.633 1057.37 979.453 1014.27 995.863C978.532 1009.47 928.714 1009.91 893.957 992.267C879.941 985.153 866.98 973.448 856.494 961.526C854.525 959.283 850.573 955.483 849.528 952.726C845.658 948.805 842.573 943.361 839.483 938.726C830.692 925.539 823.478 911.593 816.069 897.517L815.657 894.533C814.049 887.696 816.822 883.705 817.29 877.018L817.377 875.701L817.083 873.93C818.714 874.323 819.295 874.747 820.918 874.164L821.499 878.247C822.761 879.099 823.258 879.409 824.776 879.703C825.528 876.116 826.214 873.423 828.273 870.418Z" fill="url(#paint13_linear_14_3673)"/>
<path d="M817.083 873.93C818.714 874.324 819.295 874.747 820.918 874.165L821.499 878.248C822.761 879.099 823.258 879.409 824.776 879.703C824.11 880.897 822.3 883.233 822.651 884.53C823.365 887.165 824.899 889.593 825.743 892.243C826.424 894.382 827.456 896.312 828.49 898.277L829.151 898.447C830.254 898.84 830.733 899.508 831.491 900.384L831.501 904.079L832.996 904.599C833.454 906.666 833.539 908.297 833.5 910.394L834.371 911.507L836.521 914.692C837.261 915.905 837.732 916.565 838.994 917.231C840.031 919.416 840.645 919.81 839.995 922.227C836.306 920.37 834.596 917.217 831.749 914.331L828.731 906.938C827.671 903.567 825.935 900.67 825.062 897.22C823.145 889.626 818.783 883.794 817.377 875.701L817.083 873.93Z" fill="#332F3B"/>
<path d="M817.377 875.701C818.783 883.794 823.145 889.626 825.062 897.22C825.935 900.67 827.671 903.567 828.731 906.938L831.749 914.331C831.852 915.382 831.985 916.239 832.259 917.25C833.052 920.209 831.834 921.971 833.49 924.596L833.994 925.911C837.087 931.573 841.569 937.233 844.995 942.755L846.49 944.598L847.995 946.967C849.387 949.166 849.303 950.12 849.528 952.726C845.658 948.805 842.573 943.361 839.483 938.726C830.692 925.539 823.478 911.593 816.069 897.517L815.657 894.533C814.049 887.696 816.822 883.705 817.29 877.019L817.377 875.701Z" fill="#2D2D37"/>
<path d="M983.787 940.316C989.015 933.64 995.981 927.949 1002.44 922.656C1022.79 905.992 1045.19 893.345 1071.04 889.865L1073.62 890.644L1069.25 891.173C1070.46 892.024 1073.3 891.981 1074.75 891.698C1075.59 891.531 1075.84 891.315 1076.5 890.908L1078.76 891.647L1078.81 892.105C1041.22 898.037 1012.08 914.886 985.738 943.299L983.787 940.316Z" fill="#2D2D37"/>
<path d="M911.411 928C904.612 922.702 897.795 916.471 890.44 912.137L889.226 911.436C880.727 906.413 870.845 901.95 861.507 899.012C854.566 896.827 837.678 891.065 831.501 894.582L829 893.531C826.604 891.979 825.39 888.944 825.001 886.171L826.501 884.303L834.271 887.208C852.749 889.467 876.293 897.716 892.242 907.782C900.014 912.687 907.005 918.969 914.135 924.836L911.411 928Z" fill="#2D2D37"/>
<path d="M1173.12 450.416L1190.3 447.207C1198.03 476.366 1200.26 507.982 1201.87 538.12C1202.43 548.468 1201.54 560.531 1203.37 570.597L1201.7 580.555L1202.27 581.232C1201.1 597.062 1198.45 613.243 1194 628.443C1191.74 636.164 1188.37 643.548 1185.95 651.242C1183.95 657.6 1182.68 665.232 1179.97 671.193C1177.3 677.101 1172.97 682.326 1170.1 688.25C1166.42 695.842 1163.37 704.514 1158.35 711.233C1151.86 719.924 1145.05 728.786 1137.52 736.507C1132.95 741.191 1126.51 745.756 1122.75 751.027C1122.08 751.424 1117.25 754.016 1117.09 754.415C1109.54 758.638 1101.56 763.653 1093.5 766.596C1081.42 771.008 1063.7 770.747 1051.5 767.534C1025.38 760.654 1008.39 736.641 995.074 713.642C985.969 699.235 980.326 682.895 975.501 666.461C971.653 653.363 987.533 606.109 992.921 591.146C1000.87 569.077 1012.68 544.674 1026.9 526.329C1040.55 508.712 1063.29 491.073 1083.02 481.754C1083.97 479.274 1084.15 476.827 1084.43 474.184L1089.45 470.874L1094.32 476.515L1102.37 472.691L1106.89 470.669L1126.32 463.333L1170.18 450.689L1173.12 450.416Z" fill="url(#paint14_linear_14_3673)"/>
<path d="M1173.12 450.416L1190.3 447.207C1198.03 476.366 1200.26 507.982 1201.87 538.12C1202.43 548.469 1201.54 560.531 1203.37 570.597L1201.7 580.555C1201.15 581.234 1200.65 581.835 1200.01 582.426L1199.51 580.353L1200.75 579.035L1199 577.189C1198.41 574.653 1198.71 574.739 1200 572.457L1198.5 573.5L1196 570.872C1195.7 569.107 1195.47 566.371 1194.25 565.08C1194.13 566.66 1193.98 567.999 1193.5 569.503C1193.38 559.238 1194.18 547.579 1192.31 537.548L1192.12 536.605L1191.75 567.819C1191.69 579.499 1189.23 590.198 1188.66 601.622L1185.42 601.606C1183.95 607.082 1182.11 613.512 1181.52 619.131C1180.32 619.296 1179.89 620.056 1179 620.883L1177.5 619.84L1177 622.988L1173.25 622.993L1173 619.304L1174.41 617.711L1172.6 615.073C1174.63 603.155 1176.69 591.362 1177.5 579.267C1179.4 550.994 1176.99 522.629 1173.76 494.579L1170.51 475.165C1134.13 484.098 1090.28 499.269 1061.47 525.448C1051.38 534.608 1042.66 546.164 1035.66 558.087C1023.5 578.803 1014.67 601.299 1008.01 624.567C1004.78 635.84 1001.48 647.93 1000.23 659.643C999.849 663.184 1001.65 667.159 1002.79 670.444C1006.44 680.992 1010.9 690.773 1016.05 700.607L1016.05 701.569L1015.45 704.452C1013.46 705.587 1012.36 706.784 1010 706.107C1007.94 705.517 1005.82 703.886 1004 702.693C1001.47 704.849 1002.58 706.441 1001.04 708.786C999.831 710.624 996.838 712.403 995.074 713.642C985.969 699.235 980.326 682.895 975.501 666.461C971.653 653.363 987.533 606.109 992.921 591.147C1000.87 569.077 1012.68 544.674 1026.9 526.329C1040.55 508.712 1063.29 491.073 1083.02 481.754C1083.97 479.274 1084.15 476.827 1084.43 474.184L1089.45 470.874L1094.32 476.515L1102.37 472.691L1106.89 470.669L1126.32 463.333L1170.18 450.689L1173.12 450.416Z" fill="url(#paint15_linear_14_3673)"/>
<path d="M1089.45 470.874L1094.32 476.515L1083.02 481.754C1083.97 479.274 1084.15 476.827 1084.43 474.183L1089.45 470.874Z" fill="#351930"/>
<path d="M1135.37 470.591C1150.99 466.575 1167.08 460.843 1182.96 458.504L1192.12 536.605L1191.75 567.818C1187.93 562.383 1190.58 546.323 1189.14 538.721C1186.96 513.476 1185.93 487.416 1179.73 462.781L1176.83 463.387C1139.59 470.222 1100.68 485.106 1069.02 506.817C1062.46 511.315 1055.76 515.323 1049.88 520.839C1041.28 528.911 1034.14 539.386 1026.93 548.843C1030.91 539.898 1035.74 534.417 1041.85 527.189C1065 499.775 1096.49 485.203 1128.75 473.019L1135.37 470.591Z" fill="#970125"/>
<path d="M1173.12 450.416L1190.3 447.207C1198.03 476.366 1200.26 507.982 1201.87 538.12C1202.43 548.469 1201.54 560.531 1203.37 570.597L1201.7 580.555C1201.15 581.234 1200.65 581.835 1200.01 582.426L1199.51 580.353L1200.75 579.035L1199 577.189C1198.41 574.653 1198.71 574.739 1200 572.457L1198.5 573.5L1196 570.872C1195.7 569.107 1195.47 566.371 1194.25 565.08C1194.13 566.66 1193.98 567.999 1193.5 569.503C1193.38 559.238 1194.18 547.579 1192.31 537.548L1192.12 536.605L1182.96 458.504C1167.08 460.843 1150.99 466.576 1135.37 470.591L1129 470.351L1128 471.394C1124.21 471.402 1123.61 471.483 1120.5 469.298C1121.37 466.503 1121.55 468.325 1123.5 467.171C1124.25 466.732 1125.71 464.164 1126.32 463.333L1170.18 450.689L1173.12 450.416Z" fill="#ED3876"/>
<path d="M1176.83 463.387L1179.73 462.781C1185.93 487.416 1186.96 513.476 1189.14 538.72C1190.58 546.323 1187.93 562.383 1191.75 567.818C1191.69 579.498 1189.23 590.198 1188.66 601.622L1185.42 601.606C1183.95 607.082 1182.11 613.512 1181.52 619.131C1180.32 619.296 1179.89 620.056 1179 620.883L1177.5 619.84L1177 622.988L1173.25 622.993L1173 619.304L1174.41 617.711L1172.6 615.073C1174.63 603.155 1176.69 591.362 1177.5 579.267C1179.4 550.993 1176.99 522.629 1173.76 494.579L1175.49 489.817C1174.87 486.968 1174.6 484.311 1174.49 481.395L1173.5 480.341C1173.6 478.848 1173.75 477.673 1173.16 476.272C1172.17 473.935 1171.91 474 1169.75 473.235C1168.13 473.922 1167.41 473.744 1165.72 473.582L1165 473.51C1164.02 474.323 1163.57 474.553 1162.32 474.817C1160.98 475.102 1159.75 475.9 1158.5 476.132C1156.62 476.477 1155.76 475.924 1154.13 477.353C1153.38 478.007 1148.61 479.067 1147 479.816C1143.09 479.228 1143.11 478.813 1140.5 475.614L1141 474.552C1142.85 473.873 1144.67 473.574 1146.5 472.973C1150.76 471.572 1156.38 471.232 1160.36 469.435C1162.11 468.645 1163.94 468.893 1165.69 468.103C1167.03 467.494 1168.39 467.411 1169.77 466.918L1172 466.131C1174.41 465.716 1174.87 464.993 1176.83 463.387Z" fill="#ED3876"/>
<path d="M1189.14 538.72C1190.58 546.323 1187.93 562.383 1191.75 567.818C1191.69 579.498 1189.23 590.198 1188.66 601.622L1185.42 601.606C1187.94 580.302 1189.08 560.17 1189.14 538.72Z" fill="#B8023C"/>
<path d="M1192.12 536.605L1192.31 537.548C1194.18 547.579 1193.38 559.238 1193.5 569.503C1193.98 567.999 1194.13 566.66 1194.25 565.08C1195.47 566.371 1195.7 569.107 1196 570.872L1198.5 573.5L1200 572.457C1198.71 574.739 1198.41 574.653 1199 577.189L1200.75 579.035L1199.51 580.353L1200.01 582.425C1200.65 581.835 1201.15 581.234 1201.7 580.555L1202.27 581.232C1201.1 597.062 1198.45 613.243 1194 628.443C1191.74 636.164 1188.37 643.548 1185.95 651.242C1183.95 657.6 1182.68 665.232 1179.97 671.193C1177.3 677.101 1172.97 682.326 1170.1 688.25C1166.42 695.842 1163.37 704.514 1158.35 711.233C1151.86 719.924 1145.05 728.785 1137.52 736.507C1132.95 741.191 1126.51 745.756 1122.75 751.027C1122.08 751.423 1117.25 754.016 1117.09 754.415C1109.54 758.638 1101.56 763.653 1093.5 766.596C1081.42 771.008 1063.7 770.747 1051.5 767.534C1025.38 760.654 1008.39 736.641 995.074 713.642C996.838 712.403 999.831 710.624 1001.04 708.786C1002.58 706.441 1001.47 704.848 1004 702.692C1005.82 703.886 1007.94 705.517 1010 706.107C1012.36 706.783 1013.46 705.587 1015.45 704.452L1016.05 701.569L1016.05 700.607C1022.39 698.981 1027.79 696.119 1033.87 693.842C1069.92 680.337 1103.99 660.901 1138.02 642.642C1144.14 639.36 1150.1 635.773 1156.1 632.242C1157.87 631.199 1161.36 628.44 1163.23 628.052C1164.76 627.731 1167.13 628.027 1168.73 628.017L1172.6 615.073L1174.41 617.711L1173 619.304L1173.25 622.993L1177 622.988L1177.5 619.84L1179 620.883C1179.89 620.056 1180.32 619.296 1181.52 619.131C1182.11 613.512 1183.95 607.082 1185.42 601.606L1188.66 601.622C1189.23 590.198 1191.69 579.499 1191.75 567.818L1192.12 536.605Z" fill="url(#paint16_linear_14_3673)"/>
<path d="M1192.12 536.605L1192.31 537.548C1194.18 547.579 1193.38 559.238 1193.5 569.503C1193.98 567.999 1194.13 566.66 1194.25 565.08C1195.47 566.371 1195.7 569.107 1196 570.872L1198.5 573.5L1200 572.457C1198.71 574.739 1198.41 574.653 1199 577.189L1200.75 579.035L1199.51 580.353L1200.01 582.425C1200.65 581.835 1201.15 581.234 1201.7 580.555L1202.27 581.232C1201.1 597.062 1198.45 613.243 1194 628.443C1191.74 636.164 1188.37 643.548 1185.95 651.242C1183.95 657.6 1182.68 665.232 1179.97 671.193C1177.3 677.101 1172.97 682.326 1170.1 688.25C1166.42 695.842 1163.37 704.514 1158.35 711.233C1151.86 719.924 1145.05 728.785 1137.52 736.507C1132.95 741.191 1126.51 745.756 1122.75 751.027C1122.08 751.423 1117.25 754.016 1117.09 754.415C1109.54 758.638 1101.56 763.653 1093.5 766.596C1081.42 771.008 1063.7 770.747 1051.5 767.534C1025.38 760.654 1008.39 736.641 995.074 713.642C996.838 712.403 999.831 710.624 1001.04 708.786C1002.58 706.441 1001.47 704.848 1004 702.692C1005.82 703.886 1007.94 705.517 1010 706.107C1012.36 706.783 1013.46 705.587 1015.45 704.452L1016.05 701.569C1025.38 717.434 1033.02 731.553 1049.31 740.425C1058.66 745.516 1074.12 747.551 1084.26 744.034C1125.24 729.82 1144.69 684.148 1162.69 647.108C1165.36 641.066 1166.92 634.396 1168.73 628.017L1172.6 615.073L1174.41 617.711L1173 619.304L1173.25 622.993L1177 622.988L1177.5 619.84L1179 620.883C1179.89 620.056 1180.32 619.296 1181.52 619.131C1182.11 613.512 1183.95 607.082 1185.42 601.606L1188.66 601.622C1189.23 590.198 1191.69 579.499 1191.75 567.818L1192.12 536.605Z" fill="url(#paint17_linear_14_3673)"/>
<path d="M1181.52 619.131C1182.11 613.512 1183.95 607.082 1185.42 601.606L1188.66 601.622L1187.45 616.671L1185.5 617.714L1184.5 615.091L1184.49 616.671C1184.34 617.549 1183.66 618.573 1183.24 619.304C1184.88 622.072 1184.49 624.052 1184.49 627.197C1181.87 631.342 1185.45 636.005 1181.49 639.832L1181.34 640.98C1181 642.742 1180.41 643.618 1179.5 645.084C1178.66 645.399 1178.15 645.615 1177.25 645.615C1177.45 642.931 1178.52 639.282 1179.41 636.792C1180.18 634.636 1179.79 631.375 1179.75 629.041L1178.59 630.739C1177.43 627.561 1180.32 622.279 1181.52 619.131Z" fill="#970125"/>
<path d="M1172.6 615.073L1174.41 617.711L1173 619.304L1173.25 622.993L1177 622.988L1177.5 619.84L1179 620.883C1179.89 620.056 1180.32 619.296 1181.52 619.131C1180.32 622.279 1177.43 627.561 1178.59 630.739C1177.87 633.679 1176.69 635.148 1175.56 637.727C1173.35 642.742 1173.91 646.785 1169 650.199C1165.76 649.639 1165.21 649.337 1162.69 647.108C1165.36 641.066 1166.92 634.396 1168.73 628.017L1172.6 615.073Z" fill="#B8023C"/>
</g>
<defs>
<linearGradient id="paint0_linear_14_3673" x1="796.501" y1="757.738" x2="751.814" y2="784.376" gradientUnits="userSpaceOnUse">
<stop stop-color="#070010"/>
<stop offset="1" stop-color="#30313F"/>
</linearGradient>
<linearGradient id="paint1_linear_14_3673" x1="841.5" y1="208.211" x2="818.214" y2="175.964" gradientUnits="userSpaceOnUse">
<stop stop-color="#28293F"/>
<stop offset="1" stop-color="#3A4154"/>
</linearGradient>
<linearGradient id="paint2_linear_14_3673" x1="708.5" y1="562.981" x2="621.947" y2="524.246" gradientUnits="userSpaceOnUse">
<stop stop-color="#160F20"/>
<stop offset="1" stop-color="#272B3F"/>
</linearGradient>
<linearGradient id="paint3_linear_14_3673" x1="1241.5" y1="437.707" x2="1195.03" y2="427.955" gradientUnits="userSpaceOnUse">
<stop stop-color="#141417"/>
<stop offset="1" stop-color="#43424A"/>
</linearGradient>
<linearGradient id="paint4_linear_14_3673" x1="868.5" y1="301.903" x2="807.083" y2="214.66" gradientUnits="userSpaceOnUse">
<stop stop-color="#181427"/>
<stop offset="1" stop-color="#2F374B"/>
</linearGradient>
<linearGradient id="paint5_linear_14_3673" x1="850.501" y1="441.916" x2="768.059" y2="402.884" gradientUnits="userSpaceOnUse">
<stop stop-color="#241E2C"/>
<stop offset="1" stop-color="#47445A"/>
</linearGradient>
<linearGradient id="paint6_linear_14_3673" x1="959.501" y1="352.434" x2="894.584" y2="295.627" gradientUnits="userSpaceOnUse">
<stop stop-color="#211B28"/>
<stop offset="1" stop-color="#4A475B"/>
</linearGradient>
<linearGradient id="paint7_linear_14_3673" x1="862.5" y1="764.055" x2="772.645" y2="500.663" gradientUnits="userSpaceOnUse">
<stop stop-color="#C60039"/>
<stop offset="1" stop-color="#E21B5C"/>
</linearGradient>
<linearGradient id="paint8_linear_14_3673" x1="731.5" y1="657.726" x2="792.527" y2="606.236" gradientUnits="userSpaceOnUse">
<stop stop-color="#D20449"/>
<stop offset="1" stop-color="#F2397F"/>
</linearGradient>
<linearGradient id="paint9_linear_14_3673" x1="859.5" y1="739.84" x2="741.096" y2="479.257" gradientUnits="userSpaceOnUse">
<stop stop-color="white"/>
<stop offset="1" stop-color="#FDFFFE"/>
</linearGradient>
<linearGradient id="paint10_linear_14_3673" x1="1160.5" y1="342.961" x2="1076.02" y2="95.1389" gradientUnits="userSpaceOnUse">
<stop stop-color="#07000A"/>
<stop offset="1" stop-color="#282A3F"/>
</linearGradient>
<linearGradient id="paint11_linear_14_3673" x1="1158.5" y1="250.321" x2="1173.31" y2="161.989" gradientUnits="userSpaceOnUse">
<stop stop-color="#0F0617"/>
<stop offset="1" stop-color="#26273A"/>
</linearGradient>
<linearGradient id="paint12_linear_14_3673" x1="1094.5" y1="877.749" x2="700.159" y2="659.421" gradientUnits="userSpaceOnUse">
<stop stop-color="#020106"/>
<stop offset="1" stop-color="#140A21"/>
</linearGradient>
<linearGradient id="paint13_linear_14_3673" x1="1040.5" y1="978.811" x2="911.792" y2="810.37" gradientUnits="userSpaceOnUse">
<stop/>
<stop offset="1" stop-color="#100D1C"/>
</linearGradient>
<linearGradient id="paint14_linear_14_3673" x1="1017.5" y1="697.731" x2="1072.49" y2="455.879" gradientUnits="userSpaceOnUse">
<stop stop-color="white"/>
<stop offset="1" stop-color="#F2FFFD"/>
</linearGradient>
<linearGradient id="paint15_linear_14_3673" x1="977.5" y1="666.148" x2="1181.2" y2="610.501" gradientUnits="userSpaceOnUse">
<stop stop-color="#CA003A"/>
<stop offset="1" stop-color="#EC3B6C"/>
</linearGradient>
<linearGradient id="paint16_linear_14_3673" x1="1055.5" y1="740.894" x2="1122.38" y2="609.903" gradientUnits="userSpaceOnUse">
<stop stop-color="white"/>
<stop offset="1" stop-color="white"/>
</linearGradient>
<linearGradient id="paint17_linear_14_3673" x1="1094.5" y1="764.055" x2="1038.16" y2="631.559" gradientUnits="userSpaceOnUse">
<stop stop-color="#940031"/>
<stop offset="1" stop-color="#C2134F"/>
</linearGradient>
<clipPath id="clip0_14_3673">
<rect width="1920" height="1080" fill="white"/>
</clipPath>
</defs>
</svg>
