<svg width="1920" height="1080" viewBox="0 0 1920 1080" fill="none" xmlns="http://www.w3.org/2000/svg">
<g clip-path="url(#clip0_14_3783)">
<path d="M1262.87 220.387L1274.76 243.095C1270.68 243.006 1267.71 242.746 1264.51 240.121L1262.69 233.37C1261.7 229.502 1261.29 227.22 1258.33 224.327L1262.87 220.387Z" fill="#4A4755"/>
<path d="M750.343 153.502C752.044 153.842 753.759 154.033 755.448 154.345L758.812 155.607C752.78 161.767 746.352 171.119 739.832 176.23C736.247 176.308 733.175 176.849 729.72 177.74C735.418 169.165 742.997 160.784 750.343 153.502Z" fill="#757D8C"/>
<path d="M1264.51 240.121C1267.71 242.746 1270.68 243.006 1274.76 243.095C1280.67 257.38 1287.37 272.145 1291.17 287.087C1278.65 274.868 1278.83 256.561 1267.06 244.177C1265.65 242.698 1264.99 242.148 1264.51 240.121Z" fill="#3A3743"/>
<path d="M680.331 621.018C687.259 623.605 691.643 633.936 695.707 639.764L695.614 642.768C695.491 647.053 695.127 651.444 695.674 655.71C694.582 660.054 694.275 660.169 690.677 663.068L680.331 621.018Z" fill="#5A5A6B"/>
<path d="M863.991 71.4753C881.029 63.2596 899.432 55.8489 918.179 52.2903L918.385 54.2384C916.51 55.304 917.589 54.9359 915.962 55.1764C912.433 55.6912 908.887 57.436 905.784 59.097C900.279 62.0404 896.376 64.6834 891.475 68.7411L871.992 78.284L860.986 77.2238L863.991 71.4753Z" fill="#757D8C"/>
<path d="M655.674 342.771C660.775 314.854 668.268 289.162 679.075 262.837C682.866 253.601 686.561 243.732 692.05 235.33C693.265 237.891 693.942 239.686 694.058 242.509L694.655 243.297C691.541 246.304 690.346 248.287 689.052 252.327L688.681 253.416L677.644 282.027C676.223 291.025 671.959 298.595 669.313 307.195C663.823 325.059 662.217 346.495 653.387 363.157L655.674 342.771Z" fill="#66697B"/>
<path d="M677.644 282.027L688.681 253.416L689.052 252.326C690.345 248.287 691.541 246.304 694.655 243.297L696.88 246.384C692.957 256.432 687.999 266.246 684.25 276.269C677.079 295.43 672.045 314.397 667.425 334.242C665.908 340.758 663.741 347.16 662.73 353.78C659.886 372.443 660.012 391.472 657.295 410.104C656.868 413.614 656.459 416.631 655.409 419.964C653.849 424.927 652.157 429.205 650.989 434.5C650.095 428.391 650.469 421.718 650.305 415.538C649.85 398.177 650.192 380.255 653.387 363.157C662.217 346.495 663.823 325.059 669.313 307.195C671.958 298.595 676.223 291.025 677.644 282.027Z" fill="#73798A"/>
<path d="M750.343 153.502C780.477 118.98 822.04 90.6851 863.991 71.4754L860.986 77.2239L871.991 78.284C863.269 81.988 853.74 85.5338 845.459 90.0919C829.079 99.1106 814.402 110.052 799.406 120.977C786.517 130.366 772.185 140.635 761.704 152.53L758.812 155.607L755.448 154.345C753.759 154.033 752.044 153.842 750.343 153.502Z" fill="#73798A"/>
<path d="M695.707 639.763L713.319 657.309C712.823 664.306 715.7 675.595 719.301 681.749C719.923 687.107 722.157 692.275 723.955 697.364C723.301 702.553 722.927 706.469 723.49 711.505C723.777 714.071 724.11 716.915 724.257 719.516C724.68 726.901 727.684 737.341 729.555 744.69C731.192 751.136 731.58 757.747 733.509 764.184C735.214 769.868 736.928 776.189 737.369 782.102L738.029 786.906L738.727 787.267C737.443 793.457 737.023 797.846 738.862 804.047L739.033 804.909C739.51 806.884 740.633 808.577 741.78 810.236C744.64 814.362 743.291 818.518 742.626 823.116L720.397 761.093L717.593 752.762L690.677 663.068C694.275 660.168 694.583 660.054 695.674 655.71C695.128 651.444 695.491 647.053 695.614 642.768L695.707 639.763Z" fill="#4A4755"/>
<path d="M722.774 728.663C726.57 736.512 727.486 743.493 727.363 752.063C727.336 753.934 727.738 754.844 728.727 756.413C729.678 757.924 730.149 759.5 729.687 761.286L729.106 762.635L729.439 763.331C732.387 769.65 733.271 776.191 737.369 782.103L738.029 786.906C735.721 783.979 733.533 781.411 730.336 779.365L729.699 778.995C728.679 776.425 727.305 773.728 726.665 771.053C726.354 769.76 726.197 768.622 725.539 767.428L725.102 766.759L725.579 764.824C723.029 757.942 724.917 750.103 725.084 742.953C725.196 738.126 723.97 733.326 722.774 728.663Z" fill="#3F3A49"/>
<path d="M695.614 642.768L698.042 648.783C698.662 660.93 702.627 677.449 707.863 688.562C710.055 693.213 709.928 699.426 711.377 704.447C714.539 715.423 721.768 727.97 722.826 738.986C723.508 746.085 721.711 754.097 720.397 761.093L717.593 752.762L719.038 746.489L720.206 745.476C720.447 743.931 720.545 742.789 720.248 741.229C719.403 736.825 718.781 732.028 717.276 727.805C715.651 723.231 712.738 719.111 711.251 714.484C709.265 708.307 708.642 701.789 706.456 695.658C704.954 691.441 702.096 687.051 701.205 682.731L700.915 681.227C700.494 679.595 699.977 678.287 699.853 676.595C699.767 675.481 699.833 673.726 699.426 672.651C697.556 667.676 696.705 661.096 695.674 655.71C695.127 651.444 695.491 647.053 695.614 642.768Z" fill="#4A4C5F"/>
<path d="M695.674 655.71C696.705 661.096 697.556 667.677 699.426 672.651C699.833 673.727 699.767 675.482 699.853 676.595C699.977 678.288 700.494 679.595 700.915 681.227L701.206 682.732C702.096 687.051 704.954 691.442 706.456 695.659C708.643 701.789 709.265 708.307 711.251 714.485C712.738 719.112 715.651 723.232 717.276 727.806C718.781 732.029 719.403 736.826 720.248 741.23C720.545 742.789 720.447 743.931 720.206 745.477L719.038 746.489L717.593 752.762L690.677 663.068C694.275 660.169 694.582 660.054 695.674 655.71Z" fill="#4A4755"/>
<path d="M695.707 639.764L713.319 657.309C712.822 664.307 715.7 675.595 719.301 681.749C719.923 687.107 722.157 692.276 723.955 697.364C723.301 702.554 722.926 706.469 723.49 711.505C723.777 714.071 724.11 716.915 724.257 719.516C724.68 726.902 727.684 737.341 729.554 744.691C731.192 751.137 731.58 757.747 733.509 764.184C735.214 769.868 736.928 776.189 737.369 782.103C733.271 776.191 732.387 769.65 729.439 763.331L729.106 762.635L729.687 761.286C730.149 759.5 729.678 757.924 728.727 756.413C727.738 754.844 727.336 753.934 727.363 752.063C727.486 743.493 726.57 736.512 722.774 728.663C722.501 725.563 720.221 721.174 719.158 718.142C716.478 710.493 713.945 702.769 711.585 695.024C710.52 691.526 710.579 688.058 709.745 684.564C707.048 673.299 703.253 659.137 698.042 648.784L695.613 642.768L695.707 639.764Z" fill="#3A3743"/>
<path d="M696.88 246.383C699.589 250.377 701.586 253.609 702.83 258.296L703.989 259.826C707.183 267.867 711.776 274.949 714.687 283.216C715.372 284.715 715.86 286.206 717.059 287.39L718.971 290.213C715.921 298.734 714.677 307.588 713.083 316.445L708.916 338.017C707.052 358.656 699.951 381.333 694.471 401.391C692.805 407.487 688.597 416.59 688.602 422.663L679.364 420.729L672.139 418.755C668.312 421.414 668.284 428.568 666.803 433.048L659.488 438.441L657.463 437.587C657.67 428.214 658.297 419.522 657.295 410.104C660.012 391.472 659.886 372.442 662.73 353.78C663.741 347.16 665.908 340.758 667.425 334.242C672.045 314.397 677.079 295.43 684.251 276.269C687.999 266.246 692.957 256.432 696.88 246.383Z" fill="url(#paint0_linear_14_3783)"/>
<path d="M711.267 302.75C711.089 306.756 710.148 312.116 711.242 315.96L713.083 316.445L708.916 338.017C708.274 337.509 707.091 337.697 706.276 337.668L706.139 328.753L711.267 302.75Z" fill="#4A4C5F"/>
<path d="M714.687 283.216C715.372 284.715 715.86 286.207 717.059 287.39L718.971 290.213C715.921 298.734 714.677 307.588 713.083 316.445L711.242 315.96C710.148 312.116 711.089 306.756 711.267 302.75C711.689 296.183 713.347 289.651 714.687 283.216Z" fill="#5A5A6B"/>
<path d="M679.364 420.729L683.219 420.424C688.507 410.144 691.14 396.989 693.804 385.797C698.312 366.843 702.262 347.837 706.139 328.753L706.276 337.668C707.091 337.697 708.274 337.509 708.916 338.017C707.052 358.657 699.951 381.333 694.471 401.391C692.805 407.487 688.597 416.59 688.602 422.663L679.364 420.729Z" fill="#4A4755"/>
<path d="M696.88 246.383C699.589 250.377 701.586 253.609 702.83 258.296L699.851 259.289L699.721 260.572C699.023 266.894 694.172 275.63 690.644 281.029C687.822 285.342 687.042 291.687 685.439 296.607C683.55 302.402 680.778 307.828 679.233 313.774C671.938 341.874 668.274 370.773 668.076 399.743C668.034 406.059 666.97 411.56 668.418 417.85L669.457 417.866C671.098 417.964 670.498 417.886 672.139 418.755C668.312 421.414 668.284 428.568 666.803 433.048L659.488 438.441L657.463 437.587C657.67 428.214 658.297 419.522 657.295 410.104C660.012 391.472 659.886 372.442 662.73 353.78C663.741 347.16 665.908 340.758 667.425 334.242C672.045 314.397 677.079 295.43 684.251 276.269C687.999 266.246 692.957 256.432 696.88 246.383Z" fill="#4A4C5F"/>
<path d="M720.221 283.452C721.136 288.75 726.937 295.902 729.641 301.115C733.883 309.288 737.529 317.804 741.34 326.175C749.615 341.117 759.533 357.337 765.244 373.336L763.715 374.225C764.212 376.049 765.193 378.935 766.516 380.372C767.919 382.234 769.552 383.436 769.334 385.792L771.425 388.598L771.731 389.488L769.968 393.664C765.064 409.319 763.578 429.751 762.331 446.15L759.722 445.447C737.838 435.033 711.917 429.425 688.602 422.663C688.597 416.59 692.805 407.487 694.471 401.391C699.951 381.333 707.052 358.657 708.916 338.017L713.083 316.445C714.677 307.588 715.921 298.734 718.971 290.213L717.059 287.39L720.221 283.452Z" fill="#1A1627"/>
<path d="M720.221 283.452C721.136 288.749 726.937 295.902 729.641 301.115C733.883 309.288 737.529 317.804 741.34 326.175C739.459 327.456 740.254 326.675 738.956 328.521C740.042 330.479 739.939 331.18 739.923 333.435C731.015 320.415 726.132 304.133 718.971 290.213L717.058 287.39L720.221 283.452Z" fill="#4A4C5F"/>
<path d="M766.516 380.372C767.919 382.234 769.552 383.436 769.334 385.792L771.425 388.598L771.731 389.488L769.968 393.664C765.064 409.319 763.578 429.751 762.331 446.15L759.722 445.447C758.044 437.273 760.102 429.543 761.067 421.428C762.531 409.127 763.792 396.804 765.452 384.529L766.516 380.372Z" fill="#3A3743"/>
<path d="M741.34 326.175C749.615 341.117 759.533 357.338 765.244 373.336L763.715 374.225C764.212 376.049 765.193 378.935 766.516 380.372L765.452 384.529C759.98 373.031 754.033 361.769 748.241 350.422C745.382 344.817 741.829 339.435 739.923 333.435C739.939 331.18 740.042 330.479 738.956 328.521C740.254 326.675 739.459 327.456 741.34 326.175Z" fill="#3F3A49"/>
<path d="M738.727 787.267L740.873 791.226L742.132 794.254L743.153 792.661L744.008 792.743C748.022 798.54 744.465 807.896 747.679 812.134L748.526 812.23L750.971 810.932L751.349 811.69C751.998 812.829 751.73 812.438 752.705 813.211C754.882 814.94 754.785 816.197 755.412 818.575C756.018 820.869 757.824 821.138 758.532 822.248C759.253 823.379 758.678 827.071 758.52 828.434L762.426 833.902C764.18 836.062 765.033 837.419 766.098 839.839C766.548 840.863 767.204 842.02 768.242 842.474C771.307 843.82 774.954 846.077 777.287 848.405C782.847 853.945 792.625 856.672 799.443 860.773C805.891 864.652 811.464 870.424 816.966 875.484L815.232 876.618C816.071 878.218 816.91 879.758 817.55 881.446L854.003 922.192L859.01 929.438L857.538 930.718C859.032 932.499 861.212 934.056 860.997 936.381L861.658 937.052C863.405 938.849 863.866 939.607 864.809 941.808L873.116 954.695C872.951 956.996 872.416 959.969 873.137 962.142C875.131 968.174 869.618 977.995 872.362 983.569C869.496 983.359 866.581 983.53 864.127 981.932C861.667 980.331 858.858 980.446 856.313 978.932C850.508 975.48 840.543 974.175 836.469 968.6C834.339 968.38 833.334 967.892 831.454 968.914C810.194 957.714 792.268 933.645 781.726 913.195C776.535 907.132 773.052 897.964 769.78 890.739C759.723 868.519 752.138 845.516 742.626 823.116C743.291 818.518 744.64 814.362 741.78 810.236C740.633 808.577 739.51 806.884 739.034 804.909L738.862 804.047C737.023 797.846 737.443 793.457 738.727 787.267Z" fill="#0D0715"/>
<path d="M748.526 812.23L750.971 810.932L751.349 811.69C751.998 812.829 751.73 812.438 752.705 813.211C754.882 814.94 754.785 816.197 755.413 818.574C756.018 820.869 757.824 821.138 758.532 822.248C759.253 823.379 758.678 827.071 758.52 828.434L762.427 833.902C763.278 838.232 763.868 842.039 766.512 845.764L767.624 846.124C771.748 847.515 774.528 849.147 778.011 851.661L778.396 853.384L777.241 853.782L772.732 855.636C771.212 854.557 770.106 853.708 768.29 853.142L767.165 852.855C765.356 850.744 764.601 852.306 762.789 850.194L765.3 848.188C764.523 847.976 763.775 847.811 763.057 847.411C760.766 846.126 760.08 843.982 759.323 841.693C758.885 840.367 758.356 840.466 757.133 839.813L757.251 835.611C756.366 834.334 755.716 833.483 755.469 831.925L755.384 830.933C754.239 829.585 754.665 829.937 753.472 828.993L752.732 828.429C752.545 826.063 752.239 823.921 751.066 821.799C750.389 820.58 749.978 819.372 749.523 818.065L748.526 812.23Z" fill="#272331"/>
<path d="M762.426 833.902C764.18 836.063 765.033 837.42 766.098 839.839C766.548 840.864 767.204 842.021 768.242 842.475C771.307 843.82 774.954 846.077 777.287 848.405C782.846 853.946 792.624 856.672 799.443 860.774C805.891 864.653 811.464 870.424 816.965 875.484L815.232 876.618C816.071 878.219 816.909 879.758 817.55 881.446C809.043 873.032 796.16 863.902 785.078 859.263C783.193 858.474 782.719 859.453 781.026 859.187C779.009 858.869 775.087 856.39 772.732 855.636L777.24 853.783L778.396 853.385L778.011 851.661C774.528 849.147 771.748 847.515 767.623 846.125L766.511 845.764C763.868 842.039 763.278 838.232 762.426 833.902Z" fill="#1A1627"/>
<path d="M738.727 787.267L740.873 791.226L742.132 794.254L743.153 792.661L744.008 792.743C748.022 798.54 744.465 807.896 747.679 812.134L748.526 812.23L749.523 818.065L747.917 818.463C747.703 820.592 747.195 820.664 748.668 822.417C748.54 823.801 748.16 824.676 748.843 825.917C749.683 827.439 750.047 829.051 750.446 830.716C751.014 833.07 752.068 834.927 752.44 837.401C752.824 839.936 753.635 840.998 754.767 843.24C755.765 845.218 755.706 846.818 755.387 848.92L756.416 850.144L756.541 851.123C756.886 853.295 757.538 854.834 758.724 856.675C759.853 858.427 759.541 859.275 759.986 861.168L760.971 862.947C762.222 865.37 763.042 867.904 764.389 870.344C764.99 871.435 764.749 870.983 764.957 872.293C765.358 874.809 767.438 878.17 768.537 880.54L768.981 881.988C769.725 884.175 770.779 886.958 771.779 889.003L772.516 889.969C773.557 891.408 773.579 892.437 774.186 894.012L775.173 895.794L775.617 897.241C776.289 898.638 776.993 899.236 777.589 900.804C779.593 906.088 781.901 906.949 781.726 913.195C776.535 907.132 773.052 897.964 769.78 890.739C759.723 868.519 752.138 845.516 742.626 823.116C743.291 818.518 744.64 814.362 741.78 810.236C740.633 808.577 739.51 806.884 739.034 804.909L738.862 804.047C737.023 797.846 737.443 793.457 738.727 787.267Z" fill="#3A3743"/>
<path d="M973.899 43.2798L972.402 47.1878C967.908 47.0541 966.755 47.6655 962.848 49.8303C964.497 52.1879 966.246 54.4889 967.481 57.0801L965.975 62.8722L964.872 70.6257L965.051 78.2436L965.608 78.6771L968.244 76.3264L967.678 83.0898L958.956 150.037L959.775 151.376C959.094 153.866 958.704 155.852 956.781 157.753C955.73 158.573 950.363 162.2 950.131 163.044C936.187 172.864 923.754 185.91 911.348 197.547C870.834 233.159 827.221 262.497 773.368 275.463C762.71 278.031 751.584 279.141 740.655 280.151C734.696 280.703 724.996 279.529 720.221 283.452L717.059 287.39C715.86 286.207 715.372 284.715 714.687 283.216C711.776 274.949 707.183 267.867 703.989 259.826L702.83 258.296C701.586 253.609 699.589 250.377 696.88 246.384L694.655 243.297L694.058 242.509C693.942 239.686 693.264 237.891 692.05 235.33C699.329 219.299 710.109 202.489 721.371 188.85L726.853 181.351L729.074 178.757L729.72 177.74C733.175 176.849 736.247 176.308 739.832 176.23C746.352 171.12 752.78 161.767 758.812 155.607L761.704 152.53C772.185 140.635 786.517 130.366 799.406 120.977C814.402 110.052 829.079 99.1106 845.459 90.092C853.74 85.5338 863.269 81.988 871.992 78.284L891.475 68.7412C896.376 64.6835 900.279 62.0404 905.784 59.0971C908.887 57.4361 912.433 55.6912 915.962 55.1764C917.589 54.936 916.51 55.304 918.385 54.2385L918.179 52.2904C935.723 46.2618 955.45 44.4295 973.899 43.2798Z" fill="url(#paint1_linear_14_3783)"/>
<path d="M955.013 146.082C955.631 145.483 956.255 145.157 956.409 144.3C956.221 147.698 956.728 147.595 958.956 150.037L959.775 151.376C959.094 153.866 958.704 155.852 956.781 157.753C955.73 158.573 950.363 162.2 950.131 163.044C936.187 172.864 923.754 185.909 911.348 197.547L908.446 195.581C918.813 186.046 929.186 176.469 939.266 166.651C943.455 162.568 949.188 158 952.478 153.226C953.87 151.207 954.451 148.408 955.013 146.082Z" fill="#73798A"/>
<path d="M964.872 70.6256L965.051 78.2436L965.608 78.6771L968.244 76.3264L967.678 83.0898L958.956 150.037C956.728 147.595 956.221 147.698 956.409 144.3C956.255 145.157 955.631 145.483 955.013 146.082C953.576 141.869 955.955 132.365 956.577 127.722C959.135 108.652 961.938 89.6425 964.872 70.6256Z" fill="#66697B"/>
<path d="M908.446 195.581L911.348 197.547C870.834 233.158 827.221 262.497 773.368 275.463C762.71 278.031 751.584 279.141 740.655 280.151C734.696 280.702 724.996 279.529 720.221 283.452L717.059 287.39C715.86 286.206 715.372 284.715 714.687 283.215C711.776 274.949 707.183 267.867 703.989 259.826L707.195 257.369L707.311 257.369L718.385 277.439C770.472 279.438 822.106 260.148 864.006 231.349C879.553 220.665 894.147 207.796 908.446 195.581Z" fill="#66697B"/>
<path d="M973.899 43.2798L972.402 47.1878C967.908 47.0541 966.755 47.6654 962.848 49.8303C964.497 52.1878 966.246 54.4889 967.481 57.08L965.975 62.8721C961.948 63.2642 958.854 63.8785 955.002 62.6497C953.469 62.1624 951.814 62.2678 950.428 62.9055C948.641 63.732 947.125 63.9688 945.193 64.2979C898.389 102.918 849.103 139.667 793.448 165.442C779.092 172.092 763.887 178.941 748.642 183.439L732.274 186.855L732.948 183.829C731.078 183.488 729.76 183.2 728.137 182.18L726.853 181.351L729.074 178.756L729.72 177.739C733.175 176.849 736.248 176.308 739.832 176.23L739.793 179.124L741.436 180.655C747.678 180.183 752.845 179.242 758.464 176.54C820.163 156.383 874.105 117.567 923.669 77.4919C927.967 75.7676 932.712 70.5264 936.242 67.4186C941.829 63.8759 946.46 58.6842 951.138 54.084C947.448 54.307 944.688 54.6857 941.198 55.7223C936.988 56.9744 931.69 56.7116 927.301 57.7249C915.244 60.5091 903.112 64.6272 891.475 68.7411C896.376 64.6834 900.279 62.0404 905.784 59.097C908.887 57.4361 912.434 55.6912 915.962 55.1764C917.589 54.9359 916.51 55.304 918.385 54.2384L918.179 52.2903C935.723 46.2618 955.45 44.4294 973.899 43.2798Z" fill="#73798A"/>
<path d="M729.72 177.739C733.176 176.849 736.248 176.308 739.832 176.23L739.793 179.124L741.436 180.655L730.231 181.639L729.074 178.756L729.72 177.739Z" fill="#66697B"/>
<path d="M962.848 49.8304C964.497 52.188 966.246 54.489 967.481 57.0801L965.975 62.8723C961.948 63.2643 958.854 63.8786 955.002 62.6498C953.469 62.1626 951.814 62.2679 950.428 62.9056C948.641 63.7322 947.125 63.9689 945.194 64.298C949.88 58.9043 957.168 54.311 962.848 49.8304Z" fill="#5A5A6B"/>
<path d="M721.371 188.85L726.853 181.352L728.136 182.18C729.76 183.2 731.078 183.488 732.947 183.829L732.274 186.855L748.642 183.439C747.875 184.286 745.915 187.041 745.022 187.445C744.648 187.613 742.32 187.567 742.097 187.73C741.778 187.961 741.066 191.323 740.898 191.868C740.349 193.66 739.534 193.869 738.47 195.255C737.277 196.812 736.449 202.459 736.005 202.882C733.419 205.362 733.134 202.508 732.715 207.067L733.795 207.735C732.095 208.613 732.017 208.597 731.245 210.298L731.942 211.49L728.523 214.534L728.77 215.66C724.686 218.153 720.545 229.232 717.812 233.737C714.038 239.958 709.315 245.855 705.303 251.978L707.195 257.37L703.989 259.827L702.83 258.296C701.586 253.609 699.589 250.377 696.88 246.384L694.655 243.297L694.058 242.509C693.942 239.686 693.264 237.891 692.05 235.33C699.329 219.299 710.109 202.489 721.371 188.85Z" fill="#4A4C5F"/>
<path d="M721.371 188.85L726.853 181.351L728.137 182.18C729.76 183.2 731.078 183.488 732.948 183.829L732.274 186.855L731.669 187.473L731.284 188.242C722.51 205.393 709.794 221.386 699.254 237.489C701.444 242.011 702.795 247.831 705.303 251.978L707.196 257.369L703.989 259.826L702.83 258.296C701.586 253.609 699.589 250.377 696.88 246.384L694.655 243.297L694.058 242.509C693.942 239.686 693.265 237.891 692.05 235.33C699.329 219.299 710.109 202.489 721.371 188.85Z" fill="#757D8C"/>
<path d="M721.371 188.85L726.853 181.351L728.136 182.18C729.76 183.2 731.078 183.488 732.948 183.829L732.274 186.855L731.669 187.473L721.371 188.85Z" fill="#898E9D"/>
<path d="M891.475 68.7412C903.112 64.6272 915.244 60.5092 927.301 57.725C931.69 56.7117 936.988 56.9745 941.198 55.7224C944.688 54.6858 947.448 54.3071 951.138 54.0841C946.46 58.6842 941.829 63.876 936.242 67.4187C932.712 70.5265 927.967 75.7676 923.669 77.492C874.105 117.567 820.163 156.383 758.464 176.54C752.845 179.242 747.678 180.183 741.436 180.655L739.793 179.124L739.832 176.23C746.352 171.12 752.78 161.767 758.812 155.608L761.704 152.53C772.185 140.635 786.517 130.366 799.406 120.977C814.402 110.052 829.079 99.1106 845.459 90.092C853.74 85.5338 863.269 81.988 871.992 78.2841L891.475 68.7412Z" fill="url(#paint2_linear_14_3783)"/>
<path d="M891.475 68.7412C903.112 64.6272 915.244 60.5092 927.301 57.725C931.69 56.7117 936.988 56.9745 941.198 55.7224C944.688 54.6858 947.448 54.3071 951.138 54.0841C946.46 58.6842 941.829 63.876 936.242 67.4187C932.712 70.5265 927.967 75.7676 923.669 77.492L920.993 76.083C916.586 78.0472 910.621 81.5534 905.898 82.3073C901.721 82.9726 897.153 80.6705 893.464 82.58L891.838 81.3096L891.3 81.9975C889.552 84.0825 887.418 85.0713 885.007 86.2607C883.514 86.1227 882.693 85.7558 881.365 86.4423C880.123 87.0853 879.307 87.07 877.957 87.2738L876.887 87.4873C874.945 87.7434 872.925 87.3273 870.998 87.0582C856.994 92.268 846.476 99.1029 833.841 106.655C828.561 109.81 822.902 112.476 817.889 116.031C811.928 120.258 807.121 125.763 801.465 130.304C796.724 134.109 791.479 137.308 786.797 141.177C780.219 146.613 774.387 152.975 768.133 158.768C762.552 163.94 756.259 168.874 753.086 175.855C749.831 176.687 747.081 176.474 743.789 176.096L744.265 177.276C746.659 177.501 748.182 178.24 750.108 176.713C752.099 176.897 751.955 177.257 753.649 176.001L758.464 176.54C752.845 179.242 747.678 180.183 741.436 180.655L739.793 179.124L739.832 176.23C746.352 171.12 752.78 161.767 758.812 155.608L761.704 152.53C772.185 140.635 786.517 130.366 799.406 120.977C814.402 110.052 829.079 99.1106 845.459 90.092C853.74 85.5338 863.269 81.988 871.992 78.2841L891.475 68.7412Z" fill="#5A5A6B"/>
<path d="M870.998 87.058L875.245 84.6554C889.566 77.2025 907.286 72.6097 923.125 69.2661C928.232 68.1866 931.005 65.9126 936.242 67.4185C932.712 70.5263 927.967 75.7675 923.669 77.4918L920.993 76.0828C916.586 78.047 910.621 81.5533 905.898 82.3071C901.721 82.9724 897.153 80.6704 893.464 82.5799L891.838 81.3095L891.3 81.9973C889.552 84.0824 887.418 85.0711 885.007 86.2606C883.514 86.1226 882.693 85.7557 881.365 86.4421C880.123 87.0852 879.307 87.0699 877.957 87.2736L876.887 87.4872C874.945 87.7433 872.925 87.3271 870.998 87.058Z" fill="#4A4C5F"/>
<path d="M973.899 43.2797C987.024 41.7179 1000.58 42.7299 1013.72 43.8574C1070.32 48.7085 1121.88 71.2804 1166.5 105.077C1177.84 113.667 1188.02 122.982 1198.1 132.926C1202.82 137.583 1208.77 142.997 1212.2 148.568C1225.87 162.625 1236.87 178.283 1247.72 194.414C1252.93 202.156 1259.81 211.695 1262.87 220.387L1258.33 224.327L1250.83 235.767L1187.36 306.641C1179.62 318.431 1167.78 328.057 1158.74 339.099L1155.6 336.208L1179.27 309.666C1177.5 307.495 1176.11 307.488 1173.43 306.686C1172.31 305.767 1171.26 304.914 1170.01 304.164L1169.1 303.641C1170.42 302.954 1172.06 302.732 1173.52 302.386C1166.52 299.96 1158.38 298.847 1151.08 297.255C1135.28 293.583 1120.11 290.006 1105.1 283.674C1087.46 275.919 1068.95 266.826 1053.34 255.589C1042.83 248.026 1033.12 239.076 1023.65 230.327L1010.17 216.386L1005.69 218.262L975.718 181.386L961.219 160.664C959.794 158.501 959.317 158.619 956.781 157.753C958.704 155.852 959.094 153.866 959.775 151.376L958.956 150.037L967.678 83.0897L968.244 76.3263L965.608 78.6769L965.051 78.2434L964.872 70.6255L965.975 62.8721L967.481 57.08C966.246 54.4888 964.497 52.1878 962.848 49.8302C966.755 47.6653 967.908 47.054 972.402 47.1877L973.899 43.2797Z" fill="url(#paint3_linear_14_3783)"/>
<path d="M959.775 151.376L979.857 179.083C978.181 180.671 977.987 180.963 975.718 181.386L961.219 160.664C959.794 158.501 959.318 158.619 956.781 157.753C958.704 155.852 959.094 153.866 959.775 151.376Z" fill="#5A5A6B"/>
<path d="M979.857 179.083L1010.17 216.386L1005.69 218.262L975.717 181.386C977.987 180.963 978.181 180.671 979.857 179.083Z" fill="#4A4755"/>
<path d="M972.402 47.1879L976.229 46.719L986.264 55.8476C991.145 61.3915 997.184 67.1134 1001 73.3695L998.793 74.0113L995.852 71.0947C992.731 72.705 989.419 74.1991 986.53 76.1598C985.208 77.057 984.66 76.9927 983.117 77.1692L981.836 77.3596C979.491 77.5798 976.063 76.4322 974.127 77.4257L972.16 76.6807C970.757 78.0824 970.577 79.0263 970.213 80.9252L967.678 83.0899L968.244 76.3265L965.608 78.6771L965.051 78.2436L964.872 70.6257L965.975 62.8722L967.481 57.0801C966.246 54.489 964.497 52.1879 962.848 49.8304C966.755 47.6655 967.908 47.0542 972.402 47.1879Z" fill="url(#paint4_linear_14_3783)"/>
<path d="M967.481 57.08L967.806 61.9233L969.073 61.7518L970.852 59.4366L968.244 76.3264L965.608 78.677L965.051 78.2435L964.872 70.6256L965.975 62.8721L967.481 57.08Z" fill="#73798A"/>
<path d="M972.402 47.1877C971.969 50.6397 971.182 54.3456 971.239 57.8133L970.852 59.4365L969.073 61.7517L967.806 61.9232L967.481 57.0799C966.246 54.4888 964.497 52.1877 962.848 49.8302C966.755 47.6653 967.908 47.054 972.402 47.1877Z" fill="#66697B"/>
<path d="M972.402 47.1878L976.229 46.719L986.264 55.8476C981.342 55.8827 974.936 54.6987 971.239 57.8134C971.182 54.3458 971.969 50.6399 972.402 47.1878Z" fill="#5A5A6B"/>
<path d="M973.899 43.2798C987.024 41.718 1000.58 42.73 1013.72 43.8575C1070.32 48.7086 1121.88 71.2805 1166.5 105.078C1177.84 113.667 1188.02 122.982 1198.1 132.926C1202.82 137.583 1208.77 142.997 1212.2 148.568C1225.87 162.625 1236.87 178.283 1247.72 194.414C1252.93 202.156 1259.81 211.695 1262.87 220.387L1258.33 224.327L1250.83 235.767L1187.36 306.641C1179.62 318.431 1167.78 328.057 1158.74 339.099L1155.6 336.208L1179.27 309.666C1177.5 307.495 1176.11 307.488 1173.43 306.686C1172.31 305.767 1171.26 304.914 1170.01 304.164L1169.1 303.642C1170.42 302.955 1172.06 302.732 1173.52 302.386L1184.73 303.219L1252.2 227.15L1244.85 224.747C1239.87 222.771 1234.72 221.575 1229.52 220.277C1217.72 217.912 1206.98 213.642 1195.68 209.742C1157.69 196.625 1122.31 179.567 1090.16 155.582C1085.91 152.413 1080.3 149.457 1076.91 145.455C1049.25 123.774 1025 98.7532 1001 73.3694C997.185 67.1133 991.145 61.3914 986.264 55.8475L976.229 46.7189L972.402 47.1878L973.899 43.2798Z" fill="url(#paint5_linear_14_3783)"/>
<path d="M1204.18 207.997C1205.74 206.268 1206.43 204.696 1209.01 204.815C1212.6 204.98 1214.69 207.054 1217.11 209.326C1216.6 210.928 1216.22 210.71 1214.77 211.477L1204.18 207.997Z" fill="#0D0715"/>
<path d="M1079.02 143.095C1088.8 147.746 1097.79 156.245 1106.98 162.166C1127.23 175.224 1147.83 186.118 1170 195.675C1180.75 200.315 1192.66 205.578 1204.18 207.997L1214.77 211.477L1232.85 216.647L1229.52 220.277C1217.72 217.912 1206.98 213.642 1195.68 209.742C1157.69 196.625 1122.31 179.567 1090.16 155.582C1085.91 152.413 1080.3 149.457 1076.91 145.455L1079.02 143.095Z" fill="#4A4755"/>
<path d="M973.899 43.2798C987.024 41.718 1000.58 42.73 1013.72 43.8575C1070.32 48.7086 1121.88 71.2805 1166.5 105.078C1177.84 113.667 1188.02 122.982 1198.1 132.926C1202.82 137.583 1208.77 142.997 1212.2 148.568C1225.87 162.625 1236.87 178.283 1247.72 194.414C1252.93 202.156 1259.81 211.695 1262.87 220.387L1258.33 224.327L1250.83 235.767L1187.36 306.641C1179.62 318.431 1167.78 328.057 1158.74 339.099L1155.6 336.208L1179.27 309.666C1177.5 307.495 1176.11 307.488 1173.43 306.686C1172.31 305.767 1171.26 304.914 1170.01 304.164L1169.1 303.642C1170.42 302.955 1172.06 302.732 1173.52 302.386L1184.73 303.219L1252.2 227.15L1244.85 224.747C1239.87 222.771 1234.72 221.575 1229.52 220.277L1232.85 216.647L1237.23 217.017C1238.47 216.88 1238.9 216.619 1239.95 216.021L1238.48 214.3C1225.27 201.319 1214.99 183.315 1203.58 168.586C1198.99 162.661 1193.48 158.758 1188.35 153.494C1168.82 133.467 1149.4 115.768 1123.54 103.619C1121.11 102.475 1118.93 100.711 1116.4 99.7966C1105.55 95.8788 1095.98 90.0414 1085.49 85.5402C1075.5 81.2507 1064.24 79.1671 1053.85 76.1115L1053.44 74.3916C1045.52 73.6176 1038.24 71.7996 1030.02 71.0019C1028.53 69.2606 1028.32 69.721 1026.12 69.5003C1024.32 70.9387 1022.7 70.2075 1020.42 71.4931C1016.68 71.6999 1011.88 71.2223 1008.36 69.8276L1005.36 68.6264C1006.67 70.321 1006.66 71.2377 1006.98 73.2659L1007.12 74.1539C1028.32 98.0435 1052.54 124.706 1079.02 143.095L1076.91 145.455C1049.25 123.774 1025 98.7532 1001 73.3694C997.185 67.1133 991.145 61.3914 986.264 55.8475L976.229 46.7189L972.402 47.1878L973.899 43.2798Z" fill="#5A5A6B"/>
<path d="M973.899 43.2798C987.024 41.718 1000.58 42.73 1013.72 43.8575C1070.32 48.7086 1121.88 71.2805 1166.5 105.078C1177.84 113.667 1188.02 122.982 1198.1 132.926C1202.82 137.583 1208.77 142.997 1212.2 148.568C1206.21 146.94 1202.35 140.335 1197.78 136.304C1183.82 123.967 1169.21 112.844 1154.22 101.773C1147.58 96.8682 1140.29 90.402 1132.33 87.6778C1121.38 83.9325 1111.06 77.1856 1100.51 72.4301C1089.74 67.583 1077.77 64.1419 1066.38 60.9236C1039.79 53.4088 1013.36 53.6741 986.686 47.9075C989.716 52.5624 992.643 57.8981 996.569 61.8708L1007.12 74.1539C1028.32 98.0435 1052.54 124.706 1079.02 143.095L1076.91 145.455C1049.25 123.774 1025 98.7532 1001 73.3694C997.185 67.1133 991.145 61.3914 986.264 55.8475L976.229 46.7189L972.402 47.1878L973.899 43.2798Z" fill="#757D8C"/>
<path d="M996.569 61.8709C997.461 61.3495 998.221 60.5104 999.242 60.3123C1001.06 59.9582 1005.72 61.2302 1007.79 61.424C1024.81 63.0027 1041.29 64.2077 1058.01 68.2411C1076.05 72.595 1093.91 79.4274 1110.65 87.2073C1118.29 90.7544 1126.17 93.7669 1133.43 98.0385C1138.26 100.878 1142.57 104.484 1147.25 107.523C1155.47 112.851 1163.82 117.695 1171.36 123.965C1191.85 140.985 1209.98 161.696 1227.45 181.588C1233.5 188.476 1237.53 197.009 1243.22 204.182C1246.93 208.859 1252.06 212.943 1256.46 217.05L1256.01 220.379C1254.53 220.661 1254.45 220.892 1253.03 220.285C1248.67 218.432 1242.44 219.496 1237.58 218.115L1237.23 217.017C1238.47 216.88 1238.9 216.619 1239.95 216.021L1238.48 214.3C1225.27 201.319 1214.99 183.315 1203.58 168.586C1198.99 162.661 1193.48 158.758 1188.35 153.494C1168.82 133.467 1149.4 115.768 1123.54 103.619C1121.11 102.475 1118.93 100.711 1116.4 99.7966C1105.55 95.8788 1095.98 90.0414 1085.49 85.5402C1075.5 81.2508 1064.24 79.1672 1053.85 76.1115L1053.44 74.3916C1045.52 73.6176 1038.24 71.7996 1030.02 71.0019C1028.53 69.2606 1028.32 69.721 1026.12 69.5003C1024.32 70.9387 1022.7 70.2075 1020.42 71.4932C1016.68 71.6999 1011.88 71.2223 1008.36 69.8276L1005.36 68.6264C1006.67 70.3211 1006.66 71.2378 1006.98 73.2659L1007.12 74.154L996.569 61.8709Z" fill="#3F3A49"/>
<path d="M1258.33 224.327C1261.29 227.22 1261.7 229.502 1262.69 233.37L1264.51 240.121C1264.99 242.148 1265.65 242.698 1267.06 244.177C1278.83 256.561 1278.65 274.868 1291.17 287.088L1300.86 322.602C1311.71 372.061 1313.07 422.383 1305.34 472.259C1303.61 483.437 1302.31 494.976 1299.05 505.845C1295.2 527.097 1288.51 548.422 1281.93 569.016C1266.6 617.077 1247.03 663.708 1224.04 708.732C1206.46 744.579 1186.46 782.529 1162.75 814.872C1115.1 884.649 1060.35 972.879 969.129 990.327C928.041 998.183 869.079 993.409 833.584 970.342L831.454 968.914C833.334 967.892 834.339 968.38 836.469 968.6C840.543 974.175 850.508 975.481 856.313 978.932C858.858 980.447 861.667 980.332 864.127 981.933C866.581 983.53 869.495 983.359 872.362 983.569C869.618 977.995 875.131 968.174 873.137 962.143C872.416 959.969 872.951 956.996 873.116 954.695L864.809 941.808C863.865 939.607 863.405 938.849 861.658 937.052L860.996 936.381C861.211 934.056 859.032 932.499 857.538 930.718L859.01 929.438C862.6 934.596 866.352 939.694 869.236 945.262C870.538 947.163 874.645 951.812 875.047 953.753C876.454 960.531 874.333 972.952 873.559 980.032L875.648 982.493C876.595 982.204 877.777 982.304 878.485 981.629C880.273 979.922 879.817 958.294 884.006 953.229L884.702 952.439L905.921 930.351C925.56 913.156 949.94 898.531 975.525 891.444C987.504 888.122 1000.25 886.976 1012.6 885.518L1021.79 885.028C1028.13 885.396 1042.06 887.136 1046.68 883.554L1048.62 880.392C1051.22 869.25 1051.27 856.952 1052.99 845.577C1056.78 820.493 1063.18 796.074 1071.83 772.178C1078.28 754.374 1087.15 736.651 1096.59 720.207C1100.19 713.951 1110.08 703.499 1110.72 696.674C1113.62 694.702 1117.12 693.445 1120.34 692.04C1135.28 681.757 1148.26 671.361 1161.58 659.227L1163.66 656.602L1184.05 630.12C1201.4 607.466 1211.99 573.695 1210.44 545.604C1210.68 521.41 1209.59 494.678 1202.31 471.459C1199.24 469.535 1194.78 470.509 1191.15 470.623L1186.49 470.955L1099.16 479.093L1097.19 477.654C1099.57 458.926 1100.35 439.511 1101.82 420.633C1102.13 416.64 1101.21 411.715 1102.24 407.93C1102.99 405.198 1104.86 402.561 1106.51 400.271L1114.41 391.037C1121.73 383.204 1128.21 374.391 1135.3 366.304C1143.01 357.504 1152.19 348.71 1158.74 339.099C1167.78 328.058 1179.62 318.431 1187.36 306.641L1250.83 235.767L1258.33 224.327Z" fill="#040207"/>
<path d="M1185.28 457.654C1186.59 455.178 1186.82 454.843 1189.25 453.403L1191.15 470.623L1186.49 470.954L1185.28 457.654Z" fill="#3F3A49"/>
<path d="M1260.99 334.662L1262.06 347.057C1261.23 350.675 1260.92 353.1 1257.91 355.547L1257.14 336.346C1259.18 336.039 1259.44 335.972 1260.99 334.662Z" fill="#4A4755"/>
<path d="M1187.31 433.709L1189.25 453.403C1186.82 454.843 1186.59 455.178 1185.28 457.654L1183.61 442.637C1185.12 439.731 1186.21 436.78 1187.31 433.709Z" fill="#4A4755"/>
<path d="M1254.7 244.071C1255.71 241.199 1256.57 238.416 1258.3 235.865C1260.33 238.446 1259.57 252.092 1259.6 255.874L1259.29 265.243C1258.68 268.572 1258.56 271.689 1256.44 274.383L1254.81 277.317L1254.7 244.071Z" fill="#4A4C5F"/>
<path d="M1050 883.909C1056.26 890.233 1059.91 898.007 1064.79 905.298C1068.41 910.703 1073.23 915.999 1075.75 921.938L1074.5 925.201C1068.24 923.123 1054 897.107 1050.83 890.308C1050 888.536 1049.51 886.702 1049.4 884.766L1050 883.909Z" fill="#3A3743"/>
<path d="M1163.66 656.601L1237.78 660.259L1238.52 661.634C1237.6 662.161 1236.77 662.899 1235.76 663.218C1230.55 664.858 1169.09 660.998 1161.58 659.227L1163.66 656.601Z" fill="#3F3A49"/>
<path d="M1259.29 265.243L1260.99 334.662C1259.44 335.972 1259.18 336.039 1257.14 336.346L1254.81 277.316L1256.44 274.383C1258.56 271.689 1258.68 268.572 1259.29 265.243Z" fill="#3F3A49"/>
<path d="M1262.06 347.057C1262.97 361.911 1264.58 376.649 1266.36 391.431C1267.23 398.716 1267.48 406.841 1269.42 413.91L1265.36 419.052C1263.23 410.168 1262.78 400.854 1261.82 391.818C1260.55 379.711 1258.98 367.677 1257.91 355.547C1260.92 353.1 1261.23 350.675 1262.06 347.057Z" fill="#3A3743"/>
<path d="M1213.07 564.181L1213.43 564.426C1215.48 568.523 1216.36 572.994 1217.92 577.277C1221.28 586.525 1224.89 595.74 1228.48 604.91C1232.56 615.318 1237.2 625.503 1241.21 635.942C1242.58 639.508 1244.99 643.775 1245.79 647.441C1246.07 648.737 1245.84 649.866 1245.6 651.138L1244.09 651.47L1243.57 650.827C1240.51 646.374 1239.1 639.706 1236.82 634.697C1229.79 619.293 1222.13 604.387 1216.95 588.252C1214.21 579.723 1211.67 573.244 1213.07 564.181Z" fill="#3A3743"/>
<path d="M1269.42 413.91L1270.27 419.785C1270.89 428.867 1273.32 438.061 1274.9 447.039C1277.18 459.974 1278.93 473.096 1281.79 485.925C1283.89 495.377 1287.11 504.687 1289.33 514.153C1290.4 518.728 1291.77 522.605 1289.09 526.749C1287.32 522.745 1286.69 517.68 1285.34 513.435C1275.67 482.851 1270.28 450.638 1265.36 419.053L1269.42 413.91Z" fill="#3F3A49"/>
<path d="M1110.72 696.674C1113.62 694.702 1117.12 693.445 1120.34 692.04L1119.86 693.027C1112.63 707.5 1102.11 720.442 1094.6 734.952C1082.94 757.502 1072.44 780.968 1065.97 805.5C1061.34 823.056 1058.41 841.213 1055.61 859.126C1054.81 864.272 1053.98 869.421 1053.32 874.59C1053.18 875.676 1053.13 879.559 1052.66 880.368C1051.51 882.316 1050.44 880.992 1050 883.909L1049.4 884.766L1046.68 883.554L1048.62 880.391C1051.22 869.25 1051.27 856.952 1052.99 845.577C1056.78 820.493 1063.18 796.074 1071.83 772.177C1078.28 754.374 1087.15 736.651 1096.59 720.207C1100.19 713.951 1110.08 703.499 1110.72 696.674Z" fill="#20212A"/>
<path d="M1162.75 814.872C1162.11 813.504 1160.82 811.386 1160.84 809.848C1160.92 803.303 1165.39 794.777 1168.19 788.798C1178 767.851 1189.9 749.868 1202.26 730.426C1207.25 722.561 1212.27 711.23 1219.53 705.328L1224.04 708.732C1206.46 744.579 1186.46 782.529 1162.75 814.872Z" fill="#1F2023"/>
<path d="M1258.33 224.327C1261.29 227.22 1261.7 229.502 1262.69 233.37L1264.51 240.121C1264.99 242.148 1265.65 242.698 1267.06 244.177C1278.83 256.561 1278.65 274.868 1291.17 287.087L1300.86 322.602C1311.71 372.061 1313.07 422.383 1305.34 472.259C1303.61 483.437 1302.31 494.976 1299.05 505.845L1297.08 505.336C1296.81 506.628 1296.68 507.444 1295.8 508.496L1295.18 509.136L1294.84 513.239C1294.68 514.66 1292.35 525.274 1291.84 525.679C1292.4 523.92 1292.87 522.526 1292.68 520.666L1292.48 518.995L1292.17 516.153L1291.19 514.384C1290.72 512.165 1290.26 509.646 1289.81 507.373L1284.12 485.588C1283.69 484.392 1283.41 484.029 1283.36 482.706C1283.32 481.243 1283.45 481.992 1283.15 480.755L1282.93 479.853C1282.71 478.453 1282.7 477.194 1282.31 475.807C1280.88 470.67 1281.14 465.074 1279.62 460.088C1279.28 458.944 1279.13 457.808 1278.8 456.688C1277.92 453.76 1277.95 450.743 1276.98 447.942L1276.56 446.917C1277.04 445.303 1277.2 444.633 1276.7 442.961C1275.99 440.649 1276.36 442.437 1275.98 440.449L1275.82 439.539C1275.26 437.369 1274.63 435.415 1274.4 433.182L1274.26 431.799L1273.66 428.932C1273.85 425.903 1272.89 427.094 1272.61 424.897C1272.28 422.344 1273.73 422.774 1272.21 419.604L1270.27 419.785L1269.42 413.91C1267.48 406.841 1267.23 398.716 1266.36 391.432C1264.58 376.649 1262.97 361.911 1262.06 347.057L1260.99 334.662L1259.29 265.243L1259.6 255.874C1259.57 252.092 1260.33 238.446 1258.3 235.865C1256.57 238.416 1255.71 241.199 1254.7 244.071C1254.29 242.265 1254.66 240.634 1254.88 238.82L1250.83 235.767L1258.33 224.327Z" fill="url(#paint6_linear_14_3783)"/>
<path d="M1263.47 251.003L1270.93 270.789C1272.48 274.788 1280.96 289.301 1279.92 292.563C1278.92 294.06 1279.23 293.449 1278.53 295.042C1277.84 296.607 1278.44 295.891 1276.83 296.941L1262.58 264.003C1261.51 261.688 1263.16 253.843 1263.47 251.003Z" fill="#272331"/>
<path d="M1263.76 243.839C1269.15 252.969 1272.59 262.57 1276.89 272.173C1280.82 280.991 1285.77 290.219 1288.14 299.573L1286.65 299.404L1285.2 300.188C1282.99 297.763 1281.5 295.403 1279.92 292.562C1280.95 289.301 1272.48 274.788 1270.93 270.789L1263.47 251.003C1263.47 249.366 1263.62 249.979 1263.03 248.471C1262.36 246.772 1263.2 245.538 1263.76 243.839Z" fill="#3A3743"/>
<path d="M1258.33 224.327C1261.29 227.22 1261.7 229.502 1262.69 233.37L1264.51 240.121C1264.99 242.148 1265.65 242.698 1267.06 244.177C1278.83 256.561 1278.65 274.868 1291.17 287.087L1300.86 322.602C1299.92 321.464 1298.95 320.531 1298.59 319.074L1298.49 318.342L1296.4 317.015L1296.59 314.225C1295.87 313.243 1295.6 312.627 1295.5 311.421C1295.24 308.114 1293.64 306.519 1293.21 303.708C1293.01 302.455 1292.77 301.939 1292.09 300.864L1290.31 301.253L1292.33 304.257L1291.44 307.532L1290.41 306.322C1289.47 307.757 1289.79 307.062 1289.24 308.895L1288.86 310.282C1286.88 305.7 1287.3 304.288 1288.14 299.573C1285.77 290.219 1280.83 280.991 1276.89 272.174C1272.59 262.571 1269.15 252.969 1263.76 243.839L1261.95 241.187C1261.47 242.727 1260.86 243.315 1261.55 244.821C1263 247.951 1262.11 250.253 1260.81 253.294L1259.6 255.874C1259.57 252.092 1260.33 238.446 1258.3 235.865C1256.57 238.416 1255.71 241.199 1254.7 244.071C1254.29 242.265 1254.66 240.634 1254.88 238.819L1250.83 235.767L1258.33 224.327Z" fill="#3F3A49"/>
<path d="M1158.74 339.098C1167.78 328.057 1179.62 318.431 1187.36 306.641C1189.34 312.055 1188.81 315.178 1187.87 320.654C1185.59 346.405 1185.41 373.233 1185.89 399.092C1186.09 409.779 1188.87 423.372 1187.31 433.709C1186.21 436.78 1185.12 439.731 1183.61 442.637L1185.28 457.654L1186.49 470.954L1099.16 479.093L1097.19 477.654C1099.57 458.925 1100.35 439.511 1101.82 420.633C1102.13 416.639 1101.21 411.715 1102.24 407.93C1102.99 405.198 1104.86 402.561 1106.51 400.271L1114.41 391.037C1121.73 383.204 1128.21 374.391 1135.3 366.304C1143.01 357.504 1152.19 348.71 1158.74 339.098Z" fill="#0D0715"/>
<path d="M1183.61 442.637C1180.94 420.262 1175.24 329.271 1186.43 314.293L1187.87 320.654C1185.59 346.405 1185.41 373.233 1185.89 399.092C1186.09 409.779 1188.87 423.372 1187.31 433.709C1186.21 436.78 1185.12 439.731 1183.61 442.637Z" fill="#3F3A49"/>
<path d="M956.781 157.753C959.317 158.619 959.794 158.501 961.219 160.664L975.717 181.386L1005.69 218.262L1010.17 216.386L1023.65 230.327C1033.12 239.076 1042.83 248.026 1053.34 255.588C1068.95 266.826 1087.46 275.919 1105.1 283.674C1120.11 290.006 1135.28 293.583 1151.08 297.255C1158.38 298.847 1166.52 299.96 1173.52 302.386C1172.06 302.732 1170.42 302.954 1169.1 303.641L1170.01 304.164C1171.26 304.914 1172.31 305.767 1173.43 306.686C1176.11 307.488 1177.5 307.495 1179.27 309.666L1155.6 336.208L1158.74 339.098C1152.19 348.71 1143.01 357.504 1135.3 366.304C1128.21 374.391 1121.73 383.204 1114.41 391.037L1106.51 400.271C1104.86 402.561 1102.99 405.198 1102.24 407.93C1101.21 411.715 1102.13 416.639 1101.82 420.633C1100.35 439.511 1099.57 458.925 1097.19 477.654L1099.16 479.093L1186.49 470.954L1191.15 470.623C1194.78 470.509 1199.24 469.535 1202.31 471.459C1209.59 494.678 1210.68 521.409 1210.44 545.604C1211.99 573.695 1201.4 607.466 1184.05 630.12L1163.66 656.601L1161.58 659.227C1148.26 671.361 1135.28 681.757 1120.34 692.04C1117.12 693.445 1113.62 694.702 1110.72 696.674C1110.08 703.499 1100.19 713.951 1096.59 720.207C1087.15 736.651 1078.28 754.374 1071.83 772.177C1063.18 796.074 1056.78 820.493 1052.99 845.577C1051.27 856.952 1051.22 869.25 1048.62 880.391L1046.68 883.554C1042.06 887.136 1028.13 885.396 1021.79 885.027L1012.6 885.518C1000.25 886.975 987.504 888.122 975.525 891.443C949.94 898.531 925.56 913.156 905.921 930.351L884.702 952.438L884.006 953.229C879.817 958.293 880.273 979.922 878.485 981.629C877.777 982.303 876.595 982.204 875.648 982.493L873.559 980.032C874.333 972.952 876.454 960.531 875.047 953.753C874.645 951.812 870.538 947.163 869.236 945.262C866.352 939.694 862.6 934.596 859.01 929.438L854.003 922.192L817.55 881.446C816.909 879.758 816.071 878.218 815.232 876.618L816.966 875.484C811.464 870.424 805.891 864.652 799.443 860.773C792.625 856.672 782.847 853.945 777.287 848.405C774.954 846.077 771.307 843.82 768.242 842.474C767.204 842.02 766.548 840.863 766.098 839.839C765.033 837.419 764.18 836.062 762.426 833.902L758.52 828.434C758.678 827.071 759.253 823.379 758.532 822.248C757.824 821.138 756.018 820.869 755.412 818.574C754.785 816.197 754.882 814.94 752.705 813.211C751.73 812.438 751.998 812.829 751.349 811.69L750.971 810.932L748.526 812.23L747.679 812.134C744.465 807.896 748.022 798.54 744.008 792.743L743.153 792.66L742.131 794.254L740.873 791.226L738.727 787.267L738.029 786.906L737.369 782.102C736.928 776.189 735.214 769.868 733.509 764.184C731.58 757.747 731.192 751.136 729.555 744.69C727.684 737.341 724.68 726.901 724.257 719.516C724.11 716.915 723.777 714.071 723.49 711.505C722.926 706.469 723.301 702.553 723.955 697.364C722.157 692.275 719.923 687.107 719.301 681.749C715.7 675.595 712.822 664.306 713.319 657.309L695.707 639.763C691.643 633.935 687.259 623.604 680.331 621.017C670.296 591.055 654.483 564.963 653.434 532.292C650.098 515.673 653.758 494.502 654.9 477.666C653.962 474.114 653.571 470.579 653.144 466.947L650.989 434.5C652.157 429.205 653.849 424.927 655.409 419.964C656.459 416.631 656.868 413.614 657.295 410.104C658.296 419.522 657.67 428.214 657.463 437.587L659.488 438.441L666.803 433.048C668.283 428.568 668.312 421.414 672.139 418.755L679.364 420.729L688.602 422.663C711.916 429.425 737.838 435.033 759.722 445.447L762.33 446.15C763.578 429.751 765.064 409.319 769.968 393.664L771.731 389.488L771.425 388.598L769.334 385.792C769.552 383.436 767.919 382.234 766.516 380.372C765.193 378.935 764.212 376.049 763.715 374.225L765.243 373.336C759.533 357.337 749.615 341.117 741.34 326.175C737.529 317.804 733.883 309.288 729.641 301.115C726.937 295.902 721.136 288.749 720.221 283.452C724.996 279.529 734.696 280.702 740.655 280.151C751.584 279.141 762.71 278.031 773.368 275.463C827.221 262.497 870.834 233.158 911.348 197.547C923.754 185.909 936.187 172.864 950.131 163.044C950.363 162.2 955.73 158.573 956.781 157.753Z" fill="#0D0715"/>
<path d="M1010.09 881.802L1023.99 881.659L1021.08 882.97L1021.79 885.027L1012.6 885.518C1010.64 884.126 1010.7 884.1 1010.09 881.802Z" fill="#20212A"/>
<path d="M771.731 389.488C776.526 394.252 778.908 400.14 782.002 405.981L778.848 407.122L778.604 410.27C776.197 404.65 773.939 398.429 769.968 393.664L771.731 389.488Z" fill="#3F3A49"/>
<path d="M750.628 796.187L752.229 796.065L754.204 798.914L754.887 800.062L760.407 796.812L764.186 798.135C764.416 800.761 763.969 801.619 762.699 803.814C761.916 806.374 762.285 809.437 760.184 811.16C757.332 810.402 755.514 809.798 754.228 806.932C753.314 804.89 752.989 804.262 751.192 802.74L750.353 802.063L750.628 796.187Z" fill="#272331"/>
<path d="M1023.99 881.659L1045.6 882.146L1035.69 866.928L1036.22 865.855C1037.34 867.131 1038.59 868.403 1039.41 869.886L1040.79 872.48L1042.1 870.919L1040.05 868.192C1040.24 866.136 1039.66 866.186 1038.36 864.656L1038.86 862.537L1048.62 880.391L1046.68 883.554C1042.06 887.136 1028.13 885.396 1021.79 885.027L1021.08 882.97L1023.99 881.659Z" fill="#1F2023"/>
<path d="M713.319 657.309C723.5 665.2 733.271 672.495 744.805 678.462C742.595 677.99 740.52 677.563 738.259 677.469C736.535 677.397 735.411 677.096 733.807 676.525L733.328 675.344L730.462 675.068L729.529 672.731L726.054 672.687L729.301 674.968L727.201 675.882L726.623 675.297C724.277 673.074 720.962 670.533 718.368 668.294C718.872 672.881 719.704 677.137 719.301 681.749C715.7 675.595 712.823 664.306 713.319 657.309Z" fill="#1A1627"/>
<path d="M857.501 918.647L875.047 945.114L875.564 944.884C876.201 921.479 877.929 897.669 880.129 874.368C880.767 867.62 880.564 858.532 882.703 852.197L876.432 944.335C874.391 944.601 873.096 944.635 871.099 944.109L870.56 945.205L869.236 945.262C866.353 939.694 862.6 934.596 859.01 929.438L854.003 922.192L857.501 918.647Z" fill="#20212A"/>
<path d="M817.55 881.446C816.909 879.758 816.071 878.219 815.232 876.618L816.966 875.484C827.331 883.707 835.128 893.276 843.683 903.165C848.194 908.383 853.225 913.262 857.501 918.647L854.003 922.193L817.55 881.446Z" fill="#272331"/>
<path d="M782.002 405.981C786.385 413.301 789.393 421.267 793.557 428.684C798.223 436.999 806.008 444.573 809.022 453.459L805.909 455.571C803.827 448.665 797.319 443.347 793.052 437.58C786.93 429.303 781.756 419.981 778.604 410.27L778.848 407.122L782.002 405.981Z" fill="#272331"/>
<path d="M1072.95 440.392C1063.17 456.225 1044.91 465.849 1034.72 481.061C1033.98 482.161 1033.34 482.01 1032.07 482.354L1030.06 480.224C1032.74 471.005 1041.05 467.115 1047.24 460.366C1054.92 451.985 1061.62 443.053 1069.76 434.977C1066 443.274 1060.44 447.55 1055 454.523L1054.35 455.269C1052.65 457.287 1051.65 459.398 1049.71 461.321C1054.3 459.337 1060.4 451.961 1063.17 448.009C1065.32 444.927 1069.74 442.368 1072.95 440.392Z" fill="#1A1627"/>
<path d="M870.56 945.205C882.112 957.202 873.51 965.963 875.918 979.695C876.302 978.478 876.566 977.617 877.41 976.607C879.884 973.657 878.667 962.14 880.05 957.657C880.754 955.368 881.148 954.882 880.268 952.572C879.293 950.015 879.304 945.066 878.94 942.326C878.597 939.769 879.588 935.596 879.844 932.947C880.618 924.906 881.393 916.865 882.168 908.824C882.423 906.172 883.412 902.002 883.071 899.442C882.982 898.775 882.177 898.329 882.084 897.661C881.354 892.352 884.478 885.706 883.747 880.398C883.658 879.73 882.859 879.282 882.763 878.616C882.034 873.691 885.045 867.391 884.319 862.466C883.381 856.116 884.337 850.066 885.282 843.452L886.263 844.102L881.138 947.876L902.309 929.793L905.921 930.351L884.702 952.438L884.007 953.229C879.817 958.294 880.273 979.922 878.485 981.629C877.777 982.303 876.595 982.204 875.649 982.493L873.559 980.032C874.333 972.952 876.454 960.531 875.048 953.753C874.645 951.812 870.538 947.163 869.236 945.262L870.56 945.205Z" fill="#272331"/>
<path d="M944.398 262.181C944.024 268.77 943.378 275.195 942.409 281.718C942.008 284.433 940.75 288.692 941.169 291.291C941.726 294.741 947.402 300.053 948.608 304.239L944.774 301.13L944.923 299.458L942.779 297.565L941.728 298.905C940.085 300.946 938.084 302.557 936.065 304.225L936.663 307.094L936.189 307.765C934.755 310.318 935.334 313.41 933.903 315.963C932.522 318.42 932.693 323.689 932.412 326.574C931.498 335.969 930.622 345.371 929.755 354.77L928.654 354.664C930.32 337.583 931.084 320.115 935.45 303.469L909.145 329.007C906.951 329.357 905.541 329.195 903.394 328.807C910.547 320.145 918.78 312.388 926.337 304.059C929.278 300.814 932.856 297.754 933.566 293.281L937.561 270.792C938.315 274.649 938.941 278.025 938.493 281.976C935.906 284.067 936.86 290.775 936.164 294.119C935.632 296.686 932.887 300.667 931.041 302.633L926.75 307.121L924.92 308.769C922.636 311.614 914.783 317.701 913.931 320.644C918.927 316.834 926.437 310.956 929.839 305.882C931.6 303.257 937.456 299.904 938.277 297.934C940.363 292.929 938.936 283.959 940.463 278.172L944.398 262.181Z" fill="#1A1627"/>
<path d="M902.309 929.793C906.502 924.686 913.211 919.777 918.613 915.846C926.299 910.255 934.813 903.828 943.389 899.65C952.833 895.051 963.393 891.748 973.154 887.693C984.481 882.985 997.838 881.969 1010.09 881.802C1010.7 884.1 1010.64 884.126 1012.6 885.518C1000.25 886.976 987.504 888.122 975.525 891.444C949.94 898.531 925.56 913.156 905.921 930.351L902.309 929.793Z" fill="#1F2023"/>
<path d="M723.955 697.364C730.343 712.024 739.092 729.706 738.939 745.877C737.151 747.912 737.286 748.331 737.033 751.043L738.695 751.762L738.615 752.591L736.808 753.261L736.604 755.5L738.266 756.216L738.391 757.526L739.704 765.348C739.829 767.216 739.254 767.025 740.219 768.949C741.992 772.478 738.968 777.355 740.486 780.109C741.554 782.042 742.473 784.287 742.872 786.446L741.611 787.479L740.873 791.227L738.727 787.267L738.03 786.906L737.369 782.103C736.928 776.189 735.214 769.868 733.509 764.184C731.581 757.747 731.192 751.137 729.555 744.691C727.684 737.342 724.681 726.902 724.257 719.516C724.11 716.915 723.777 714.071 723.491 711.505C722.927 706.469 723.301 702.554 723.955 697.364Z" fill="#272331"/>
<path d="M948.608 304.239L949.076 304.768C955.376 312.158 958.901 321.98 964.589 329.916C973.698 342.625 984.561 353.375 996.269 363.785C1001.48 368.419 1006.17 373.251 1012.11 377.07C1024.14 384.794 1037.69 390.327 1051.07 395.377C1047.33 395.163 1041.01 394.983 1038.24 392.785C1037.12 391.901 1036.36 391.821 1035.06 391.327C1031.26 389.88 1027.44 388.228 1024.27 385.715C1022.93 384.65 1021.2 384.366 1019.52 384.219C1022.85 386.344 1026.18 388.19 1030.05 389.176L1031.09 390.398C1031.32 390.611 1032.57 391.042 1032.75 391.117L1040.27 394.331C1042.71 395.288 1043.6 396.315 1045.19 398.344C1036.89 396.503 1027.9 391.553 1020.66 387.262C1003.1 376.856 985.696 363.868 972.877 348.068C964.66 337.941 957.532 326.07 950.112 315.332C948.289 312.692 944.945 306.393 942.059 305.156C935.633 315.718 935.703 338.121 934.263 350.706L933.626 350.644C934.439 341.801 935.261 332.959 936.122 324.12C936.393 321.332 936.23 316.412 937.568 314.028C939.121 311.265 939.481 306.998 940.74 303.835L944.493 303.915C944.707 306.341 951.549 314.814 953.376 316.855L954.317 316.102C952.133 312.159 950.095 308.495 948.608 304.239Z" fill="#1A1627"/>
<path d="M956.781 157.753C959.317 158.619 959.794 158.501 961.218 160.664L958.277 160.838C958.137 162.226 958.168 162.707 958.619 164.017C959.82 167.491 958.059 172.577 956.822 175.819L944.397 262.181L940.462 278.171C938.936 283.959 940.362 292.929 938.277 297.934C937.456 299.904 931.6 303.257 929.839 305.881C926.437 310.956 918.927 316.834 913.931 320.644C914.783 317.701 922.636 311.614 924.92 308.769L926.75 307.121L931.041 302.633C932.887 300.667 935.632 296.686 936.164 294.118C936.859 290.775 935.905 284.067 938.492 281.976C938.941 278.025 938.315 274.649 937.561 270.792C941.189 261.178 941.129 246.61 942.166 236.303C943.826 219.817 945.995 203.42 947.691 186.949C948.203 181.976 947.999 171.947 950.198 167.793C951.053 166.18 950.425 164.816 950.131 163.044C950.363 162.2 955.73 158.573 956.781 157.753Z" fill="#3F3A49"/>
<path d="M903.394 328.807C905.541 329.195 906.951 329.357 909.145 329.007C895.113 343.708 880.637 353.938 863.418 364.594C856.375 368.949 849.129 373.966 841.367 377.012C827.119 382.601 808.963 385.54 793.598 385.991C787.074 386.183 778.758 385.172 772.58 386.98L771.425 388.598L769.334 385.792C769.552 383.436 767.919 382.234 766.516 380.372C765.193 378.935 764.212 376.049 763.715 374.225L765.244 373.337C766.323 375.636 767.458 379.202 769.685 380.548C792.105 380.359 815.202 379.784 836.622 372.646C861.479 364.361 884.117 345.665 903.394 328.807Z" fill="url(#paint7_linear_14_3783)"/>
<path d="M1109.82 389.412C1111.57 389.851 1112.8 390.197 1114.41 391.037L1106.51 400.271C1104.86 402.561 1102.99 405.198 1102.24 407.93C1101.21 411.715 1102.13 416.639 1101.82 420.633C1100.35 439.511 1099.57 458.925 1097.19 477.654L1099.16 479.093L1094.88 479.97C1094.27 478.218 1093.96 476.464 1093.59 474.653C1089.79 456.023 1094.71 431.839 1096.55 412.959C1088.51 421.86 1079.54 430.396 1072.95 440.391C1069.74 442.368 1065.32 444.927 1063.17 448.008C1060.4 451.961 1054.3 459.337 1049.71 461.321C1051.65 459.398 1052.65 457.287 1054.35 455.269L1055 454.523C1060.44 447.549 1066 443.274 1069.76 434.976L1091.65 408.087C1076.32 405.954 1060.92 404.208 1046.34 398.781L1045.19 398.344C1043.6 396.314 1042.71 395.288 1040.27 394.33L1032.75 391.117C1032.57 391.042 1031.32 390.611 1031.09 390.398L1030.05 389.176C1026.18 388.19 1022.85 386.344 1019.52 384.219C1021.2 384.366 1022.93 384.65 1024.27 385.715C1027.44 388.228 1031.26 389.88 1035.06 391.327C1036.36 391.821 1037.12 391.9 1038.24 392.785C1041.01 394.983 1047.33 395.163 1051.07 395.377L1080.86 401.262C1088.47 402.107 1095.18 403.462 1101.61 398.484L1109.82 389.412Z" fill="#272331"/>
<path d="M1109.82 389.412C1111.57 389.851 1112.8 390.197 1114.41 391.037L1106.51 400.271C1106.51 398.409 1106.99 397.273 1107.58 395.508C1106.25 395.38 1104.1 397.915 1101.61 398.484L1109.82 389.412Z" fill="#3F3A49"/>
<path d="M769.968 393.664C773.94 398.43 776.197 404.65 778.605 410.27C781.756 419.981 786.93 429.304 793.053 437.58C797.319 443.347 803.827 448.665 805.909 455.571L809.023 453.46C812.615 460.373 818.019 469.188 819.445 476.664L804.541 467.095L762.331 446.15C763.579 429.751 765.064 409.319 769.968 393.664Z" fill="#1A1627"/>
<path d="M950.131 163.044C950.425 164.816 951.053 166.18 950.198 167.793C947.999 171.947 948.203 181.976 947.692 186.949C945.995 203.42 943.826 219.817 942.166 236.303C941.129 246.61 941.19 261.178 937.561 270.792L933.566 293.281C932.856 297.754 929.278 300.814 926.336 304.059C918.78 312.388 910.547 320.145 903.394 328.807C884.116 345.665 861.478 364.361 836.622 372.646C815.201 379.784 792.104 380.359 769.685 380.548C767.458 379.202 766.323 375.636 765.243 373.337C759.533 357.338 749.615 341.118 741.34 326.175C737.529 317.805 733.883 309.289 729.641 301.115C726.937 295.902 721.136 288.75 720.221 283.452C724.996 279.529 734.696 280.703 740.655 280.151C751.584 279.141 762.71 278.031 773.368 275.463C827.22 262.497 870.834 233.159 911.348 197.547C923.754 185.91 936.187 172.864 950.131 163.044Z" fill="url(#paint8_linear_14_3783)"/>
<path d="M944.398 262.181L956.822 175.819C958.059 172.577 959.82 167.491 958.62 164.017C958.168 162.707 958.137 162.226 958.277 160.838L961.219 160.664L975.718 181.386L1005.69 218.262L1010.17 216.386L1023.65 230.327C1033.12 239.076 1042.83 248.026 1053.34 255.588C1068.95 266.826 1087.46 275.919 1105.1 283.674C1120.11 290.006 1135.28 293.583 1151.08 297.255C1158.38 298.847 1166.52 299.96 1173.52 302.386C1172.06 302.732 1170.42 302.954 1169.1 303.641L1170.01 304.164C1171.26 304.914 1172.31 305.767 1173.43 306.686C1176.11 307.488 1177.5 307.495 1179.27 309.666L1155.6 336.208L1158.74 339.098C1152.19 348.71 1143.01 357.504 1135.3 366.304C1128.21 374.391 1121.73 383.204 1114.41 391.037C1112.8 390.197 1111.57 389.851 1109.82 389.412L1101.61 398.484C1095.18 403.462 1088.47 402.107 1080.86 401.262L1051.07 395.377C1037.69 390.326 1024.14 384.793 1012.11 377.07C1006.17 373.251 1001.48 368.419 996.269 363.784C984.561 353.375 973.698 342.624 964.589 329.916C958.902 321.98 955.376 312.157 949.076 304.767L948.608 304.239C947.402 300.053 941.726 294.74 941.169 291.291C940.75 288.692 942.008 284.433 942.409 281.717C943.378 275.194 944.024 268.77 944.398 262.181Z" fill="#0D0715"/>
<path d="M1010.17 216.386L1023.65 230.327L1020.99 233.472L1005.69 218.262L1010.17 216.386Z" fill="#3F3A49"/>
<path d="M1151.08 297.255C1158.38 298.847 1166.52 299.96 1173.52 302.386C1172.06 302.732 1170.42 302.955 1169.1 303.642L1170.01 304.164C1171.26 304.914 1172.31 305.767 1173.43 306.686L1145.73 300.714L1146.27 298.912L1151.08 297.255Z" fill="#4A4755"/>
<path d="M1105.1 283.674C1120.11 290.006 1135.28 293.583 1151.08 297.255L1146.27 298.912L1145.73 300.714C1130.67 299.617 1114.27 292.852 1100.6 286.901C1102.21 285.98 1103.64 284.79 1105.1 283.674Z" fill="#3F3A49"/>
<path d="M1109.82 389.412L1155.6 336.208L1158.74 339.099C1152.19 348.71 1143.01 357.504 1135.3 366.304C1128.21 374.391 1121.73 383.204 1114.41 391.037C1112.8 390.197 1111.57 389.851 1109.82 389.412Z" fill="#3A3743"/>
<path d="M1023.65 230.327C1033.12 239.076 1042.83 248.026 1053.34 255.589C1068.95 266.826 1087.46 275.919 1105.1 283.674C1103.64 284.79 1102.21 285.98 1100.6 286.901C1070.66 275.728 1043.27 255.635 1020.99 233.472L1023.65 230.327Z" fill="#3A3743"/>
<path d="M657.295 410.104C658.296 419.522 657.67 428.214 657.463 437.587L659.488 438.442L666.803 433.048C668.283 428.568 668.312 421.414 672.139 418.755L679.364 420.729L688.602 422.663C711.916 429.425 737.838 435.033 759.722 445.447L762.33 446.15L804.541 467.095L819.444 476.664C830.571 484.677 840.715 493.106 849.483 503.646C871.365 529.952 885.983 568.601 890.874 601.719C891.234 604.166 892.064 607.886 891.764 610.332C891.529 612.218 889.33 615.687 888.464 617.477C884.229 626.218 878.835 634.867 872.843 642.582C855.261 665.221 831.995 682.25 802.496 686.249C782.999 688.893 762.786 686.635 744.805 678.462C733.27 672.495 723.5 665.2 713.319 657.309L695.707 639.764C691.643 633.936 687.259 623.604 680.33 621.017C670.296 591.055 654.483 564.963 653.434 532.292C650.098 515.673 653.758 494.502 654.9 477.666C653.962 474.114 653.57 470.579 653.144 466.947L650.989 434.5C652.157 429.205 653.849 424.927 655.409 419.964C656.459 416.631 656.868 413.614 657.295 410.104Z" fill="url(#paint9_linear_14_3783)"/>
<path d="M687.14 513.762L686.126 513.06L687.675 494.459C685.513 494.251 685.679 493.113 682.56 493.408C682.152 494.385 682.051 494.85 681.188 495.524L680.052 495.414L679.325 497.025L678.271 495.813C677.296 496.982 677.276 497.251 675.763 497.819C675.874 497.159 676.07 496.231 675.967 495.579C673.649 480.793 678.434 463.296 681.845 448.996C682.681 445.488 683.743 438.401 686.351 435.872L690.378 436.248C691.524 437.429 692.301 437.634 693.874 437.923C709.584 440.838 725.741 447.708 740.883 452.798C751.918 456.509 764.682 462.162 774.722 467.981L776.915 469.249C779.555 470.513 781.233 471.397 783.469 473.322L782.622 476.055C780.836 476.444 779.844 476.829 778.387 477.903C780.314 479.091 781.135 481.213 782.244 483.119C754.675 468.583 726.524 458.123 696.6 449.217L687.14 513.762Z" fill="#EE3E80"/>
<path d="M657.295 410.104C658.296 419.522 657.67 428.214 657.463 437.587L659.488 438.442L666.803 433.048C668.283 428.568 668.312 421.414 672.139 418.755L679.364 420.729L688.602 422.663C711.916 429.425 737.838 435.033 759.722 445.447L762.33 446.15L804.541 467.095L798.097 468.187C796.519 468.538 794.844 470.015 793.538 470.931L802.828 476.603L802.727 477.704C796.904 475.701 792.167 471.351 786.488 468.899C775.15 464.005 763.987 458.607 752.485 453.965C745.023 450.952 737.162 448.626 729.774 445.558C721.641 442.178 713.138 440.093 704.714 437.652C698.428 435.832 692.038 433.26 685.549 432.474C683.926 432.277 684.551 432.372 682.715 431.711C679.825 435.226 680.186 441.82 678.422 446.349C677.693 448.225 678.507 449.898 677.361 451.851C675.904 454.335 676.837 457.047 675.97 459.617C672.658 469.448 672.149 479.25 670.812 489.744C670.168 494.799 667.479 500.532 668.208 506.073C669.199 513.602 667.86 521.344 667.098 529.007C666.475 527.565 666.578 526.654 666.665 525.137C666.759 523.483 666.697 522.562 666.12 521.01C665.501 519.347 665.639 518.463 666.003 516.716L667.343 507.115C665.818 505.319 664.509 503.59 662.612 502.149L661.903 502.332C660.58 502.624 659.256 502.715 657.905 502.833C655.345 507.412 656.083 511.68 655.133 516.619C654.147 521.747 654.583 527.16 653.434 532.292C650.098 515.673 653.758 494.502 654.9 477.666C653.962 474.114 653.57 470.579 653.144 466.947L650.989 434.5C652.157 429.205 653.849 424.927 655.409 419.964C656.459 416.631 656.868 413.614 657.295 410.104Z" fill="url(#paint10_linear_14_3783)"/>
<path d="M653.144 466.947L654.493 465.56C656.978 462.806 657.785 459.286 657.431 455.641C657.28 454.098 657.459 453.655 658.155 452.28L660.507 452.106L661.407 455.131C659.936 462.553 659.11 471.219 654.9 477.666C653.962 474.114 653.571 470.579 653.144 466.947Z" fill="#66697B"/>
<path d="M657.295 410.104C658.296 419.522 657.67 428.214 657.463 437.587L659.488 438.442L666.803 433.048L661.407 455.131L660.507 452.106L658.155 452.28C657.459 453.655 657.28 454.098 657.431 455.641C657.785 459.287 656.978 462.806 654.493 465.56L653.144 466.947L650.989 434.5C652.157 429.205 653.849 424.927 655.409 419.964C656.459 416.631 656.868 413.614 657.295 410.104Z" fill="url(#paint11_linear_14_3783)"/>
<path d="M687.139 513.762L696.6 449.217C726.524 458.123 754.675 468.583 782.243 483.119C790.147 488.162 804.229 495.773 809.274 503.514C816.858 509.508 821.949 517.355 827.102 525.299C842.271 548.691 853.81 577.289 856.621 604.958C857.309 611.747 842.788 629.337 838.306 634.46C826.015 648.5 809.316 661.995 789.59 663.571C771.461 665.022 756.844 657.159 743.482 645.833C725.574 630.654 713.331 611.041 703.079 590.466C698.86 581.996 694.171 572.441 692.912 563.05C687.44 546.789 686.297 530.692 687.139 513.762Z" fill="white"/>
<path d="M687.139 513.762L696.6 449.217C726.524 458.123 754.675 468.583 782.243 483.119C790.147 488.162 804.229 495.773 809.274 503.514L807.86 505.179L807.31 504.485C805.977 502.822 805.137 501.665 803.105 500.799C800.414 499.656 797.408 496.157 794.753 494.368L793.685 493.427C791.977 492.06 790.048 490.824 788.273 489.533C785.949 487.844 780.134 483.695 777.574 483.44L777.084 482.904C776.008 481.89 774.789 481.471 773.487 480.802L772.542 480.273C771.178 479.543 771.805 479.894 770.108 479.264C765.192 477.444 761.133 474.209 755.998 472.687C754.356 472.201 754.324 471.706 753.017 470.961L750.778 470.184C746.993 468.738 743.024 467.086 739.369 465.43L732.068 463.113C730.317 462.593 729.364 461.776 727.961 460.679L726.214 460.784C724.249 460.635 722.888 459.598 721.189 458.902L718.374 458.069L716.939 457.58C715.435 457.136 714.696 457.24 713.213 457.561L711.652 455.735L707.585 455.893C706.317 454.413 706.603 454.219 704.582 453.843C703.016 453.551 702.273 453.269 700.97 452.458L698.05 452.738L698.035 453.724C697.979 456.582 698.025 459.338 696.428 461.829C695.131 463.851 695.953 466.385 694.642 468.426C693.08 470.863 692.857 480.255 693.099 483.217C693.497 488.067 691.417 490.581 690.674 494.794C689.713 500.242 689.423 505.935 688.922 511.441L689.56 510.941C689.791 508.541 689.314 506.512 691.285 504.935L692.336 506.149L693.579 505.155C695.292 507.062 696.41 508.128 697.104 510.549L697.843 512.232C698.588 513.97 698.584 514.974 698.24 516.846C700.044 520.116 698.555 525.478 698.197 529.197L697.67 529.779C694.954 533.02 694.4 535.139 689.949 536.834C689.804 539.324 689.972 540.687 690.504 543.07L691.756 550.745C692.048 553.464 693.089 556.347 693.591 559.107L694.263 561.14L694.914 563.465L692.912 563.05C687.44 546.789 686.297 530.692 687.139 513.762Z" fill="white"/>
<path d="M1191.15 470.623C1194.78 470.509 1199.24 469.535 1202.31 471.459C1209.59 494.678 1210.68 521.41 1210.44 545.604C1211.99 573.695 1201.4 607.466 1184.05 630.12L1163.66 656.602L1161.58 659.227C1148.26 671.361 1135.28 681.757 1120.34 692.04C1117.12 693.445 1113.62 694.702 1110.72 696.674L1103.66 699.787C1069.79 713.127 1033.89 717.459 999.245 702.849C968.65 689.947 946.068 662.995 934.028 633.332C927.266 616.679 928.121 610.882 935.485 594.548C953.342 554.947 986.114 515.398 1028.35 499.531C1049.92 489.861 1071.94 485.381 1094.88 479.97L1099.16 479.093L1186.49 470.954L1191.15 470.623Z" fill="#C3043F"/>
<path d="M1029.02 528.801C1030.68 525.548 1032.18 523.871 1035.22 521.76L1036.94 521.92C1038.92 519.449 1047.56 515.745 1050.74 515.021C1055.2 514.01 1058.88 511.034 1063.43 510.603C1065.16 510.441 1064.79 510.42 1065.95 509.257C1064.71 507.39 1063.42 506.142 1061.77 504.638C1059.93 504.461 1058.5 504.283 1056.9 505.292C1055.88 505.933 1055.3 505.998 1054.09 506.146C1050.77 506.554 1045.99 507.915 1043.35 510.007C1041.43 511.532 1039.9 511.41 1037.75 513.557L1036.11 512.285C1046.64 505.927 1057.47 503.304 1069.33 500.109C1107.4 489.852 1146.45 486.215 1185.74 483.202C1187.22 484.847 1187.45 487.647 1187.88 489.8C1189.71 498.915 1189.88 508.185 1190.94 517.378L1190.17 522.067L1189.09 522.806L1189.22 521.414C1189.51 517.735 1188.67 513.884 1188.57 510.099C1188.52 507.993 1188.03 506.046 1188.01 503.872C1188 502.112 1187.32 500.697 1187.35 498.737L1186.98 493.794C1186.8 492.172 1186.94 492.752 1186.05 491.316L1186.07 490.333C1186.02 488.904 1185.61 488.008 1185.03 486.723C1183.08 485.167 1180.53 484.784 1177.95 485.197C1174.39 485.767 1171.33 485.716 1167.72 486.178C1163.8 486.683 1159.98 486.56 1156.04 487.3L1154.56 487.423C1153.06 487.566 1152.52 487.763 1151.28 488.528L1150.93 489.703L1149.29 494.239C1151.52 494.258 1151.94 494.69 1153.73 493.273C1156.12 493.498 1157.64 494.238 1159.57 492.711C1160.39 492.848 1162.9 493.538 1163.56 493.366C1165.02 492.988 1164.4 491.976 1166.26 492.379C1169.1 492.998 1172.26 492.94 1175.16 493.09L1175.24 494.673C1175.33 496.135 1175.73 496.883 1176.11 498.233L1176.47 500.512L1176.78 501.771C1177.39 504.696 1176.9 507.538 1177.6 510.492C1178.15 512.819 1177.59 514.621 1176.92 516.857L1177.65 518.103C1178.54 519.738 1178.41 520.802 1178.34 522.573C1178.28 523.814 1178.58 524.859 1178.92 526.042L1176.33 533.385L1173.27 494.727C1125.24 497.801 1070.83 504.403 1029.02 528.801Z" fill="#EE3E80"/>
<path d="M1195.56 546.329C1196.24 544.026 1196.43 541.391 1196.78 539.005L1199.86 537.053L1200.91 538.268L1201.9 536.968L1205.6 537.595C1210.27 539.058 1207.03 539.445 1207.48 542.282C1207.55 542.709 1208.96 543.107 1209.08 543.562C1209.83 546.391 1207.17 549.016 1208.83 552.152L1210.44 545.604C1211.99 573.695 1201.4 607.466 1184.05 630.12C1177.65 633.797 1176.55 638.316 1171.8 643.045C1168.75 646.081 1166.27 649.589 1163.27 652.693L1160.36 651.544L1159.35 651.201C1158.84 650.355 1158.4 649.542 1158.05 648.619C1157.44 646.997 1156.87 645.627 1155.86 644.185L1154.94 642.908C1154.86 638.186 1158.48 636.21 1160.75 632.373L1164.67 626.572L1165.26 625.904C1165.91 625.123 1166.46 624.431 1167.24 623.754C1168.35 622.785 1169.36 622.002 1170.17 620.75L1170.78 619.684C1172.1 617.592 1172.92 615.08 1174.58 613.312L1175.72 613.423C1175.11 615.577 1174.19 617.333 1173.41 619.382C1172.95 620.601 1172.93 621.264 1171.99 622.212C1171.11 623.097 1171.45 622.549 1170.95 623.798L1170.58 624.73C1168.49 627.838 1170.52 623.958 1169.13 626.717L1165.76 632.698L1167.06 634.228L1169.17 633.306L1169.87 631.969L1171.13 630.967C1171.14 629.098 1171.3 628.149 1172.34 626.618C1180.81 614.166 1184.27 598.74 1189.45 584.953C1191.18 580.365 1190.49 575.57 1191.94 571.14C1194.47 563.4 1194.25 554.486 1195.56 546.329Z" fill="#E11B58"/>
<path d="M1176.33 533.385L1178.92 526.043C1178.58 524.859 1178.28 523.814 1178.34 522.573C1178.41 520.802 1178.54 519.738 1177.65 518.103L1176.92 516.857C1177.59 514.621 1178.15 512.819 1177.6 510.492C1176.9 507.538 1177.39 504.696 1176.78 501.771L1176.47 500.512L1176.11 498.233C1175.73 496.883 1175.33 496.135 1175.24 494.673L1175.16 493.09C1172.26 492.94 1169.1 492.998 1166.26 492.379C1164.4 491.977 1165.02 492.989 1163.56 493.366C1162.9 493.538 1160.39 492.848 1159.57 492.711C1157.64 494.238 1156.12 493.498 1153.73 493.274C1151.94 494.69 1151.52 494.258 1149.29 494.239L1150.93 489.703L1151.28 488.528C1152.52 487.764 1153.06 487.566 1154.56 487.423L1156.04 487.3C1159.98 486.56 1163.8 486.683 1167.72 486.178C1171.33 485.716 1174.39 485.767 1177.95 485.197C1180.53 484.784 1183.08 485.168 1185.03 486.723C1185.61 488.008 1186.02 488.904 1186.07 490.333L1186.05 491.316C1186.94 492.752 1186.8 492.172 1186.98 493.794L1187.35 498.737C1187.32 500.697 1188 502.112 1188.01 503.872C1188.03 506.046 1188.52 507.993 1188.57 510.099C1188.67 513.884 1189.51 517.735 1189.22 521.414L1189.09 522.806L1190.17 522.067L1190.94 517.378C1191.36 524.38 1191.91 531.424 1191.79 538.435C1191.73 542.248 1190.86 546.236 1191.37 550.006C1192.27 556.672 1190.59 567.268 1188.55 573.625C1187.35 577.359 1187.65 580.733 1186.12 584.632L1185.49 587.083C1184.94 589.16 1183.86 590.973 1183.32 593.099C1182.25 597.281 1176.68 603.992 1173.46 607.02C1169.68 610.567 1167.93 616.876 1164.03 620.726L1163.05 622.252C1156.39 633.165 1148.98 641.603 1138.88 649.69C1137.16 651.061 1134.17 654.074 1132.1 654.528L1131.24 654.672L1128.78 656.128L1126.94 657.061L1125.34 655.796C1125.43 654.732 1125.76 654.033 1126.18 653.054L1132.39 648.593L1132.56 646.922C1135.91 644.558 1138.04 641.637 1141.38 639.343L1141.5 638.218C1143.35 636.741 1143.92 636.983 1144.17 634.552C1145.22 633.396 1146.29 632.388 1147.44 631.336C1148.94 629.969 1148.49 629.699 1149.4 628.31L1150.36 627.281L1150.35 625.78L1148.7 625.851C1152.6 618.385 1158.11 611.455 1162.19 603.954C1174.27 581.735 1175.75 558.059 1176.33 533.385Z" fill="#E11B58"/>
<path d="M1191.15 470.623C1194.78 470.509 1199.24 469.535 1202.31 471.459C1209.59 494.678 1210.68 521.41 1210.44 545.604L1208.83 552.152C1207.17 549.016 1209.83 546.391 1209.08 543.562C1208.96 543.107 1207.55 542.709 1207.48 542.282C1207.03 539.445 1210.27 539.057 1205.6 537.595L1201.9 536.968L1200.91 538.268L1199.86 537.053L1196.78 539.005C1196.43 541.391 1196.24 544.026 1195.56 546.329C1195.63 544.025 1195.75 541.823 1195.38 539.535C1194.84 536.112 1195.83 532.745 1195.27 529.319C1193.88 520.625 1194.45 510.734 1193.77 501.842C1193.23 494.802 1191.39 487.526 1190.27 480.545C1149.36 479.807 1104.38 487.922 1064.99 498.139C1058.28 499.876 1050.36 501.113 1044.19 504.047C1042.22 504.979 1041.33 505.246 1039.15 505.055L1040.38 504.264C1041.85 503.226 1042.79 502.476 1044.56 501.996C1045.57 501.723 1046.45 501.476 1047.42 501.057C1049.08 500.334 1050.3 499.697 1052.18 499.798L1053.53 499.91L1053.93 498.818L1047.05 495.064C1045.14 496.339 1043.35 496.745 1041.07 497.024C1039.46 497.222 1038.88 497.204 1037.43 498.06C1035.38 499.27 1033.65 499.638 1031.6 500.636L1030.84 501.046L1028.35 499.531C1049.92 489.861 1071.94 485.381 1094.88 479.97L1099.16 479.093L1186.49 470.954L1191.15 470.623Z" fill="#EE3E80"/>
<path d="M1029.02 528.801C1070.83 504.403 1125.24 497.801 1173.27 494.727L1176.33 533.385C1175.75 558.059 1174.27 581.735 1162.19 603.954C1158.11 611.455 1152.6 618.385 1148.7 625.851C1131.88 645.838 1112.67 666.793 1087.65 677.094L1086.65 677.752C1071.71 687.252 1044.42 690.79 1026.95 686.675C1010.99 682.919 993.264 671.041 984.596 657.353C974.066 647.08 967.209 629.82 962.752 616.253C974.314 582.368 999.932 550.113 1029.02 528.801Z" fill="url(#paint12_linear_14_3783)"/>
<path d="M984.595 657.353L986.177 655.554C987.786 657.217 989.199 658.539 989.994 660.745L991.374 661.434L994.242 664.795C998.286 662.134 1012.99 665.208 1018.46 665.735C1021.19 667.906 1024.2 666.3 1026.27 668.735C1032.94 669.378 1041.2 671.518 1047.17 674.121C1047.71 674.358 1056.01 675.14 1056.34 674.994C1056.6 674.881 1058.67 673.05 1058.85 672.999C1060.53 672.528 1066.58 673.959 1068.24 674.672C1073.49 676.919 1081.42 674.537 1087.65 677.094L1086.65 677.752C1071.71 687.252 1044.42 690.79 1026.95 686.675C1010.99 682.919 993.264 671.041 984.595 657.353Z" fill="url(#paint13_linear_14_3783)"/>
<path d="M418.395 508.536C420.811 506.986 423.579 505.326 426.281 504.319C437.138 500.266 447.5 505.476 456.524 509.218C458.922 508.907 462.807 508.829 465.009 507.876C469.657 505.863 474.564 497.944 479.32 494.705C485.92 490.208 495.461 488.87 502.474 491.278C506.54 492.672 510.84 495.412 515.084 496.207C518.281 496.805 521.82 495.127 525.006 495.713C527.054 496.092 528.342 497.092 529.159 498.856C530.06 500.805 529.344 502.813 528.378 504.761C527.009 505.799 525.651 506.697 524.009 507.277C514.799 510.522 506.357 506.844 498.689 503.437C485.512 498.381 480.138 513.483 469.281 518.396C459.185 522.964 452.725 521.845 443.639 517.978C439.877 516.376 435.754 514.413 431.243 515.362C425.59 516.552 420.727 523.197 416.613 526.904C413.059 530.104 408.792 532.244 404.14 533.339C400.732 534.141 395.311 534.962 392.542 533.083C390.14 531.454 390.144 529.75 390.103 527.133C390.821 525.8 391.58 524.051 392.851 523.074C395.059 521.375 400.775 522.207 403.514 522.221L418.395 508.536Z" fill="#B10028"/>
<path d="M424.014 265.349C426.852 264.916 430.056 264.527 432.934 264.706C444.5 265.42 451.846 274.396 458.566 281.485C460.884 282.178 464.464 283.686 466.864 283.712C471.929 283.764 479.633 278.527 485.295 277.503C493.154 276.081 502.414 278.74 507.841 283.793C510.988 286.721 513.801 290.973 517.354 293.427C520.031 295.273 523.947 295.181 526.619 297.012C528.336 298.192 529.105 299.628 529.134 301.573C529.164 303.72 527.693 305.263 526.018 306.65C524.345 307.04 522.739 307.308 521.004 307.17C511.269 306.387 505.055 299.593 499.436 293.36C489.456 283.381 478.403 294.99 466.486 295.06C455.405 295.125 449.959 291.475 443.233 284.246C440.448 281.252 437.48 277.78 432.973 276.813C427.325 275.599 420.179 279.691 414.912 281.403C410.364 282.881 405.596 283.099 400.901 282.207C397.461 281.553 392.175 280.097 390.41 277.255C388.878 274.788 389.575 273.234 390.603 270.827C391.801 269.901 393.206 268.612 394.764 268.237C397.473 267.583 402.356 270.669 404.852 271.796L424.014 265.349Z" fill="#B10028"/>
<path d="M513.198 56.3187C515.715 57.6979 518.497 59.3342 520.675 61.2243C529.431 68.8162 529.816 80.4079 530.85 90.1218C532.271 92.0789 534.199 95.452 536.09 96.93C540.082 100.047 549.384 100.565 554.504 103.19C561.612 106.833 567.353 114.569 568.597 121.879C569.318 126.116 568.971 131.203 570.304 135.31C571.31 138.402 574.477 140.707 575.487 143.785C576.135 145.765 575.874 147.373 574.716 148.936C573.436 150.659 571.33 150.992 569.157 151.077C567.591 150.371 566.152 149.609 564.857 148.445C557.599 141.911 556.788 132.74 556.109 124.376C554.24 110.387 538.409 112.897 528.898 105.716C520.055 99.0381 517.945 92.8307 516.991 83.0029C516.597 78.933 516.347 74.3726 513.354 70.8669C509.604 66.4731 501.442 65.3837 496.218 63.5458C491.707 61.9578 487.786 59.2356 484.597 55.6753C482.262 53.0673 478.946 48.6998 479.27 45.3697C479.551 42.4805 481.049 41.6684 483.327 40.3806C484.841 40.3723 486.74 40.2015 488.206 40.8497C490.755 41.9755 492.761 47.3921 494.059 49.8039L513.198 56.3187Z" fill="#B10028"/>
</g>
<defs>
<linearGradient id="paint0_linear_14_3783" x1="687.071" y1="404.465" x2="656.388" y2="394.621" gradientUnits="userSpaceOnUse">
<stop stop-color="#171327"/>
<stop offset="1" stop-color="#333648"/>
</linearGradient>
<linearGradient id="paint1_linear_14_3783" x1="837.901" y1="244.744" x2="787.271" y2="152.92" gradientUnits="userSpaceOnUse">
<stop stop-color="#1D1D31"/>
<stop offset="1" stop-color="#31374C"/>
</linearGradient>
<linearGradient id="paint2_linear_14_3783" x1="851.465" y1="128.009" x2="839.222" y2="108.523" gradientUnits="userSpaceOnUse">
<stop stop-color="#2A2D43"/>
<stop offset="1" stop-color="#3E4559"/>
</linearGradient>
<linearGradient id="paint3_linear_14_3783" x1="1183.3" y1="300.499" x2="1123.03" y2="41.5027" gradientUnits="userSpaceOnUse">
<stop stop-color="#08000C"/>
<stop offset="1" stop-color="#2A2E43"/>
</linearGradient>
<linearGradient id="paint4_linear_14_3783" x1="982.603" y1="76.5614" x2="978.822" y2="58.5273" gradientUnits="userSpaceOnUse">
<stop stop-color="#2D2F46"/>
<stop offset="1" stop-color="#484F63"/>
</linearGradient>
<linearGradient id="paint5_linear_14_3783" x1="1230.99" y1="214.035" x2="1238.66" y2="81.8414" gradientUnits="userSpaceOnUse">
<stop stop-color="#0F0516"/>
<stop offset="1" stop-color="#292D40"/>
</linearGradient>
<linearGradient id="paint6_linear_14_3783" x1="1292.41" y1="525.734" x2="1355.54" y2="506.45" gradientUnits="userSpaceOnUse">
<stop/>
<stop offset="1" stop-color="#26232D"/>
</linearGradient>
<linearGradient id="paint7_linear_14_3783" x1="877.136" y1="354.196" x2="856.312" y2="323.939" gradientUnits="userSpaceOnUse">
<stop stop-color="#1A1424"/>
<stop offset="1" stop-color="#343346"/>
</linearGradient>
<linearGradient id="paint8_linear_14_3783" x1="924.832" y1="303.707" x2="808.079" y2="195.481" gradientUnits="userSpaceOnUse">
<stop stop-color="#0E0413"/>
<stop offset="1" stop-color="#23253A"/>
</linearGradient>
<linearGradient id="paint9_linear_14_3783" x1="813.152" y1="681.92" x2="756.082" y2="473.98" gradientUnits="userSpaceOnUse">
<stop stop-color="#C5002B"/>
<stop offset="1" stop-color="#E61D69"/>
</linearGradient>
<linearGradient id="paint10_linear_14_3783" x1="666.878" y1="505.945" x2="657.249" y2="423.992" gradientUnits="userSpaceOnUse">
<stop stop-color="#ED276E"/>
<stop offset="1" stop-color="#F6599E"/>
</linearGradient>
<linearGradient id="paint11_linear_14_3783" x1="662.885" y1="439.232" x2="650.938" y2="441.339" gradientUnits="userSpaceOnUse">
<stop stop-color="#6A5E72"/>
<stop offset="1" stop-color="#5E687A"/>
</linearGradient>
<linearGradient id="paint12_linear_14_3783" x1="994.263" y1="664.518" x2="1100.5" y2="460.774" gradientUnits="userSpaceOnUse">
<stop stop-color="white"/>
<stop offset="1" stop-color="white"/>
</linearGradient>
<linearGradient id="paint13_linear_14_3783" x1="1064.19" y1="683.621" x2="1058.67" y2="653.155" gradientUnits="userSpaceOnUse">
<stop stop-color="white"/>
<stop offset="1" stop-color="white"/>
</linearGradient>
<clipPath id="clip0_14_3783">
<rect width="1920" height="1080" fill="white"/>
</clipPath>
</defs>
</svg>
