<svg width="1920" height="1080" viewBox="0 0 1920 1080" fill="none" xmlns="http://www.w3.org/2000/svg">
<g clip-path="url(#clip0_14_3899)">
<path d="M1011.09 28.8508C1015.39 27.9353 1019.39 27.5415 1023.77 27.3432L1019.66 31.5815C1016.51 33.3838 1013.49 35.1571 1010.64 37.412C1010.41 34.5982 1010.84 31.6661 1011.09 28.8508Z" fill="#9199AB"/>
<path d="M1072.99 23.3672C1071.11 24.4789 1069.65 25.1207 1067.63 25.8524C1066.44 26.2808 1065.91 26.7203 1065.17 27.6987L1052.6 29.051L1049.91 31.1574C1048.04 28.9173 1048.19 26.4847 1048.01 23.7269L1072.99 23.3672Z" fill="#7A8192"/>
<path d="M1328.92 184.224C1335.92 196.428 1343.61 208.798 1348.61 221.967C1342.92 218.543 1338.38 216.122 1333.91 211.143L1334.04 210.836C1332.26 206.81 1330.71 202.25 1327.37 199.234C1325.84 197.859 1325.32 197.386 1324.81 195.371C1324.22 193.076 1323.63 192.528 1321.81 190.994C1323.42 188.148 1326.39 186.237 1328.92 184.224Z" fill="#434253"/>
<path d="M1333.91 211.143C1338.38 216.123 1342.92 218.544 1348.61 221.967C1359.55 245.315 1367.08 268.492 1373.87 293.217C1370.86 290.745 1368.94 287.988 1368.51 284.116C1368.35 282.717 1368.56 282.988 1367.92 281.842L1366.39 279.229C1366.73 277.375 1366.74 276.405 1366 274.7C1365.23 272.934 1364.71 271.334 1364.38 269.424C1363.98 267.12 1362.64 265.732 1362.31 263.654C1361.97 261.511 1360.85 259.798 1360.5 257.658C1360.31 256.453 1360.5 256.805 1359.92 255.769C1358.96 254.035 1357.94 252.536 1357.62 250.54L1357.52 249.579C1356.38 248.591 1355.59 248.642 1354.13 248.328C1351.74 246.506 1350.56 242.394 1349.2 239.787L1348.21 238.001C1345.69 231.4 1342.24 225.369 1338.26 219.468C1336.44 216.783 1335.18 214.113 1333.91 211.143Z" fill="#46424D"/>
<path d="M848.237 116.169L847.308 126.676C841.566 133.737 835.025 141.685 827.873 147.394C825.61 150.202 822.952 152.911 821.895 156.394L825.016 157.947L823.805 158.142L812.823 159.759L811.278 157.237L812.858 154.836C823.048 140.98 836.108 128.401 848.237 116.169Z" fill="#7A8192"/>
<path d="M812.858 154.836C818.316 153.22 822.927 150.104 827.873 147.394C825.609 150.202 822.952 152.911 821.894 156.394L825.016 157.948L823.805 158.142L812.823 159.759L811.278 157.238L812.858 154.836Z" fill="#676975"/>
<path d="M929.539 58.4063C946.092 48.4138 966.693 40.8279 985.437 36.0569C983.461 38.7078 981.84 40.2077 978.906 41.7943L976.98 46.1391C967.23 47.4362 957.135 53.6932 948.46 58.3543L937.395 63.4069L935.156 62.2846L934.732 60.5229C933.119 59.3342 931.442 58.9831 929.539 58.4063Z" fill="#7A8192"/>
<path d="M929.54 58.4062C931.442 58.9829 933.12 59.334 934.732 60.5227L935.156 62.2844L937.395 63.4068C933.432 66.6151 928.648 68.2991 924.158 70.6698C918.592 73.609 912.997 77.1716 907.654 80.5188C900.71 84.8664 894.619 90.4542 887.513 94.2831C883.97 96.1927 880.077 100.404 876.931 103.021C873.108 106.207 868.873 108.693 865.141 111.673C862.575 113.721 860.126 116.567 856.949 117.608L856.42 118.46C854.161 121.555 850.266 124.193 847.308 126.676L848.237 116.169C871.335 92.8185 900.564 73.8123 929.54 58.4062Z" fill="#727B8C"/>
<path d="M761.343 607.873C765.871 610.617 768.503 614.058 771.663 618.171L790.529 682.535C793.816 699.231 802.638 718.888 800.951 735.483C800.84 736.574 801.238 737.157 801.303 738.125C801.371 739.113 801.094 739.526 800.782 740.461C800.242 742.068 800.006 743.481 799.752 745.151C795.176 734.79 792.454 722.563 789.088 711.723C778.424 677.359 768.969 642.994 761.343 607.873Z" fill="#676975"/>
<path d="M803.634 167.444L809.072 159.938L815.968 161.846L816.253 163.911L817.137 164.195C816.941 165.78 817.068 167.776 816.068 169.009C814.942 170.396 814.336 171.922 813.624 173.528C813.106 174.7 812.179 175.461 811.329 176.4C802.068 186.6 795.783 199.635 788.51 211.106C784.884 216.819 779.21 223.406 776.69 229.417C775.42 232.446 774.997 234.503 775.337 237.744L775.721 240.552L773.221 240.812L769.914 241.821C765.326 252.062 760.561 262.917 756.831 273.466C751.357 288.944 747.939 306.852 744.21 322.913L742.03 329.71C740.378 331.865 738.755 333.689 738.012 336.331L735.952 343.04C734.671 347.383 734.788 352.877 734.396 357.406C734.077 361.125 733.745 362.652 732.539 365.84C730.789 370.467 731.834 377.309 730.382 382.359C729.675 370.595 731.292 358.355 732.621 346.678C737.312 305.38 749.092 267.084 766.399 229.339L766.498 229.124C775.726 207.58 788.635 185.592 803.634 167.444Z" fill="#676975"/>
<path d="M803.634 167.444L809.072 159.937L815.968 161.845L816.253 163.911L815.375 165.128C811.538 171.536 806.669 179.072 801.955 184.883C792.586 196.432 788.27 212.418 778.457 223.304C777.273 224.617 773.788 228.172 773.3 229.641C772.188 232.997 775.158 235.833 772.448 239.175C769.99 235.968 767.952 233.107 766.399 229.338L766.498 229.124C775.726 207.579 788.635 185.592 803.634 167.444Z" fill="#727B8C"/>
<path d="M803.634 167.444L809.071 159.937L815.968 161.845L816.253 163.911L815.375 165.128C811.474 166.096 807.662 167.165 803.634 167.444Z" fill="#9199AB"/>
<path d="M985.437 36.0569L985.497 35.8796L1011.09 28.8507C1010.84 31.666 1010.41 34.5981 1010.64 37.4119L1009.96 39.9776L996.902 50.4441L976.236 67.7381L976.085 63.2272L974.793 60.8062C970.8 61.2503 966.156 63.8392 962.578 63.9895C959.939 64.1011 960.466 62.3973 957.81 64.2201C956.282 65.2703 955.59 65.2526 953.812 65.5997C948.307 66.6781 941.635 72.742 936.606 75.4359C933.382 77.1593 929.809 78.3186 926.524 80.0799C923.575 81.6595 920.938 83.7795 917.552 83.7816L916.888 84.4648C913.565 85.4578 910.973 86.9327 907.892 88.405L901.169 92.091C892.457 96.6068 886.936 104.633 879.491 110.426C877.432 112.029 875.453 111.955 873.387 113.23C866.126 117.706 854.158 125.919 849.623 132.963C845.402 139.522 840.291 145.072 834.976 150.757L835.817 152.689C837.307 152.606 839.335 152.223 840.754 152.612C836.397 155.543 830.127 156.927 825.016 157.948L821.894 156.394C822.952 152.911 825.61 150.202 827.873 147.394C835.025 141.685 841.566 133.738 847.308 126.676C850.266 124.193 854.161 121.555 856.42 118.46L856.949 117.608C860.126 116.568 862.575 113.721 865.141 111.673C868.873 108.693 873.107 106.207 876.93 103.021C880.077 100.404 883.97 96.1928 887.512 94.2832C894.619 90.4543 900.71 84.8665 907.654 80.519C912.997 77.1718 918.592 73.6091 924.158 70.6699C928.647 68.2992 933.432 66.6153 937.395 63.4069L948.46 58.3543C957.135 53.6932 967.23 47.4362 976.98 46.139L978.906 41.7942C981.84 40.2076 983.461 38.7078 985.437 36.0569Z" fill="#5B6578"/>
<path d="M917.552 83.7816C919.108 81.0879 922.583 79.1376 925.314 77.8285L932.408 73.9087C938.316 71.5938 943.762 67.847 949.304 64.6536C955.257 61.2241 962.354 60.4371 968.666 57.7725C975.23 54.9997 981.204 51.3721 988.015 48.9197L990.513 51.0444L976.085 63.2272L974.793 60.8062C970.8 61.2503 966.156 63.8392 962.578 63.9895C959.939 64.1011 960.466 62.3973 957.81 64.2202C956.282 65.2703 955.59 65.2526 953.812 65.5997C948.307 66.6781 941.635 72.742 936.606 75.4359C933.382 77.1593 929.809 78.3186 926.524 80.0799C923.575 81.6595 920.938 83.7795 917.552 83.7816Z" fill="#4F5266"/>
<path d="M985.437 36.057L985.497 35.8797L1011.09 28.8507C1010.84 31.6661 1010.41 34.5982 1010.64 37.4119L1009.96 39.9777L996.902 50.4442L976.237 67.7382L976.085 63.2273L990.513 51.0444C992.511 50.6994 1001.46 40.403 1003.31 38.5521L976.981 46.1391L978.906 41.7943C981.841 40.2077 983.462 38.7078 985.437 36.057Z" fill="#727B8C"/>
<path d="M917.552 83.7816C920.938 83.7795 923.575 81.6595 926.524 80.0799C929.809 78.3186 933.383 77.1594 936.606 75.436C941.635 72.7421 948.307 66.6781 953.812 65.5997C955.59 65.2526 956.282 65.2704 957.811 64.2202C960.466 62.3974 959.939 64.1011 962.578 63.9895C966.157 63.8392 970.8 61.2503 974.793 60.8063L976.085 63.2272L976.236 67.7381C965.782 76.4352 955.14 84.655 944.489 93.0768C938.518 97.7972 932.683 103.643 925.999 107.291C924.058 108.349 922.654 109.52 920.367 109.77L918.725 110.375C917.799 110.308 915.367 109.829 914.596 110.071C910.464 111.366 902.413 118.755 898.504 121.316C890.835 126.347 882.888 130.661 874.774 134.945C867.267 138.91 859.851 143.181 852.262 146.973C848.732 148.739 843.841 150.295 840.754 152.612C839.335 152.223 837.307 152.606 835.817 152.689L834.976 150.757C840.291 145.072 845.402 139.522 849.623 132.963C854.158 125.919 866.126 117.706 873.387 113.23C875.453 111.955 877.432 112.029 879.491 110.426C886.936 104.633 892.458 96.6069 901.169 92.091L907.892 88.405C910.973 86.9327 913.565 85.4578 916.889 84.4649L917.552 83.7816Z" fill="url(#paint0_linear_14_3899)"/>
<path d="M888.394 110.198L890.416 110.588C888.619 114.214 883.444 115.925 880.859 119.171L880.055 120.221C877.211 120.48 874.914 121.677 872.35 122.832L870.086 123.849L870.725 121.648C874.016 121.351 877.535 116.712 880.408 114.932L881.738 114.128L888.394 110.198Z" fill="#434253"/>
<path d="M917.552 83.7816C920.938 83.7795 923.575 81.6595 926.524 80.0799C929.809 78.3186 933.382 77.1593 936.606 75.4359C941.635 72.742 948.307 66.6781 953.812 65.5997C955.59 65.2526 956.282 65.2703 957.81 64.2201C960.466 62.3973 959.939 64.1011 962.578 63.9895C966.156 63.8392 970.8 61.2503 974.793 60.8062L976.085 63.2272L976.236 67.7381C965.781 76.4352 955.139 84.6549 944.488 93.0768C938.518 97.7972 932.683 103.642 925.998 107.291C924.058 108.349 922.654 109.52 920.367 109.77C922.137 105.353 923.733 103.274 928.007 100.833C936.823 95.8015 945.061 87.4591 952.956 81.0048C956.465 78.1388 960.36 76.4081 962.96 72.6532L961.915 71.4887C958.35 71.5966 955.728 73.3732 952.46 74.4696C943.384 77.5159 934.219 80.2761 925.699 84.748C919.938 87.7714 915.266 92.1691 908.806 93.8787L908.373 92.1539C908.984 91.4631 910.053 90.0478 910.9 89.5489C913.554 87.978 914.443 87.7349 916.34 85.2104L916.888 84.4648L917.552 83.7816Z" fill="#434253"/>
<path d="M742.03 329.71L744.21 322.913C747.939 306.852 751.357 288.944 756.831 273.466C760.561 262.917 765.326 252.062 769.914 241.821L773.221 240.812L773.322 244.501L778.195 254.964L782.255 262.568L781.581 270.359L774.112 313.506L777.267 319.343L754.961 412.574L742.404 410.21L737.339 410.113C735.586 415.232 735.366 417.69 730.933 420.857L730.382 382.359C731.834 377.309 730.789 370.467 732.539 365.84C733.745 362.652 734.077 361.125 734.396 357.406C734.788 352.877 734.671 347.383 735.952 343.04L738.012 336.33C738.755 333.689 740.378 331.865 742.03 329.71Z" fill="url(#paint1_linear_14_3899)"/>
<path d="M774.112 313.506L777.267 319.343L754.961 412.574L742.404 410.21C742.989 403.593 742.421 398.243 743.309 391.526L745.288 396.488L745.798 397.576C745.509 399.513 745.03 401.806 745.252 403.753C745.574 406.592 746.928 407.845 749.212 409.197L751.808 407.685L774.112 313.506Z" fill="#434253"/>
<path d="M742.03 329.71L744.21 322.913C747.939 306.852 751.357 288.944 756.831 273.466C760.561 262.917 765.326 252.062 769.914 241.821L773.221 240.812L773.322 244.501L771.691 245.345L771.753 246.707C772.404 264.273 762.71 280.633 756.852 296.694C753.767 305.147 752.684 312.899 750.666 321.594C748.211 332.163 745.812 342.303 744.905 353.165C744.614 356.614 743.762 390.856 743.308 391.526C742.421 398.243 742.989 403.593 742.404 410.21L737.339 410.113C735.586 415.232 735.366 417.69 730.933 420.857L730.382 382.359C731.834 377.309 730.789 370.467 732.539 365.84C733.745 362.652 734.077 361.125 734.396 357.406C734.788 352.877 734.671 347.383 735.952 343.04L738.012 336.33C738.755 333.689 740.378 331.865 742.03 329.71Z" fill="#4F5266"/>
<path d="M730.382 382.359C731.834 377.308 730.789 370.467 732.539 365.84C733.744 362.652 734.076 361.125 734.396 357.406C734.788 352.876 734.67 347.383 735.951 343.039L738.012 336.33C738.754 333.689 740.377 331.865 742.03 329.71C738.652 347.295 736.677 366.582 736.503 384.517C736.445 390.403 735.856 396.538 736.25 402.392C736.413 404.809 737.754 407.88 737.339 410.113C735.586 415.232 735.366 417.69 730.933 420.857L730.382 382.359Z" fill="#6D6D7C"/>
<path d="M1026.99 26.1233C1028.5 30.3026 1028.04 34.7627 1027.97 39.1378L1030.69 38.6597L1031.11 40.9285L1030.53 44.809L1028.19 55.7682L1028.21 61.4934C1026.01 67.5877 1025.42 74.4211 1024.47 80.7993C1022.24 95.7177 1021.24 110.797 1018.39 125.617L1018.77 127.085L1017.83 132.363C1015.59 134.147 1010.11 137.471 1008.93 139.818L1004.41 143.78C958.565 188.045 911.222 233.575 848.314 252.812C828.878 258.757 809.445 261.308 789.22 262.644L787.79 263.741L787.227 263.619L782.255 262.568L778.194 254.964L773.322 244.501L773.221 240.812L775.721 240.551L775.337 237.744C774.996 234.503 775.42 232.445 776.69 229.416C779.21 223.406 784.884 216.819 788.509 211.106C795.783 199.635 802.068 186.599 811.328 176.4C812.179 175.461 813.105 174.7 813.624 173.528C814.336 171.922 814.942 170.396 816.067 169.009C817.068 167.776 816.941 165.78 817.137 164.195L816.253 163.911L815.968 161.845L809.071 159.937L811.278 157.238L812.823 159.759L823.805 158.142L825.016 157.947C830.127 156.927 836.397 155.543 840.754 152.612C843.841 150.294 848.732 148.739 852.262 146.973C859.851 143.181 867.267 138.91 874.774 134.945C882.888 130.661 890.835 126.347 898.504 121.316C902.413 118.755 910.464 111.366 914.596 110.071C915.367 109.829 917.799 110.308 918.725 110.375L920.367 109.77C922.654 109.52 924.058 108.348 925.999 107.291C932.683 103.642 938.518 97.7972 944.489 93.0767C955.14 84.6549 965.782 76.4351 976.236 67.7381L996.902 50.4441L1009.96 39.9776L1010.64 37.4118C1013.49 35.157 1016.51 33.3836 1019.66 31.5814L1023.77 27.343L1026.99 26.1233Z" fill="#282B3F"/>
<path d="M781.93 251.869C783.929 255.404 784.412 257.293 788.296 259.184L789.219 262.644L787.79 263.741L787.227 263.619L782.255 262.568L778.194 254.964C779.617 254.009 780.694 253.035 781.93 251.869Z" fill="#676975"/>
<path d="M1014.38 122.838C1015.87 123.722 1017.1 124.471 1018.39 125.617L1018.77 127.085L1017.83 132.363C1015.59 134.147 1010.11 137.471 1008.93 139.818L1004.41 143.78L1000.36 141.929C1006.4 135.764 1011.98 131.322 1014.38 122.838Z" fill="#6D6D7C"/>
<path d="M1023.88 54.1096L1025.09 54.2571L1026.34 56.7584L1028.19 55.7682L1028.21 61.4934C1026.01 67.5877 1025.42 74.421 1024.47 80.7993C1022.24 95.7177 1021.24 110.797 1018.39 125.617C1017.1 124.471 1015.87 123.722 1014.38 122.838L1023.88 54.1096Z" fill="#5B6578"/>
<path d="M840.754 152.612C843.841 150.294 848.732 148.739 852.262 146.973C859.851 143.181 867.267 138.91 874.774 134.945C882.889 130.661 890.835 126.347 898.504 121.315C902.413 118.754 910.464 111.366 914.596 110.071C915.368 109.829 917.799 110.308 918.725 110.375C910.436 118.136 899.289 124.144 889.479 129.948C868.153 142.567 846.777 154.318 823.267 162.531C821.26 163.008 819.002 163.33 817.137 164.194L816.253 163.911L815.968 161.845L809.072 159.937L811.278 157.237L812.823 159.759L823.805 158.142L825.016 157.947C830.128 156.927 836.397 155.542 840.754 152.612Z" fill="#7A8192"/>
<path d="M1026.99 26.1234C1028.5 30.3026 1028.04 34.7628 1027.97 39.1378L1030.69 38.6597L1031.11 40.9285L1030.53 44.809L1028.19 55.7682L1026.34 56.7584L1025.09 54.2572L1023.88 54.1096C1023.37 52.6382 1023.62 53.2406 1022.91 51.7719C1022.06 50.0222 1022.6 48.1423 1022.76 46.2291C1021.37 47.4278 1019.33 49.6762 1017.54 50.0916C1015.79 50.4964 1014.22 50.752 1012.61 51.618L1011.89 52.0499L1009.14 50.6736C1006.93 48.9307 1005.88 49.2615 1002.97 48.9981L1002.3 50.0807L1003.96 50.7952L1004.07 52.8247C1001.88 51.6374 1000.15 51.0587 997.7 50.59L996.902 50.4441L1009.96 39.9776L1010.64 37.4119C1013.49 35.157 1016.5 33.3837 1019.66 31.5814L1023.77 27.3431L1026.99 26.1234Z" fill="#4F5266"/>
<path d="M1010.64 37.4118C1013.49 35.1569 1016.5 33.3836 1019.66 31.5813L1025.61 33.3504C1026.41 35.7252 1026.33 37.8803 1026.31 40.3418C1020.79 40.5085 1015.46 40.6263 1009.96 39.9775L1010.64 37.4118Z" fill="#5B6578"/>
<path d="M1026.99 26.1235C1028.5 30.3027 1028.04 34.7629 1027.97 39.1379L1030.69 38.6598L1031.11 40.9286L1030.53 44.8091L1028.19 55.7683L1026.34 56.7585L1025.09 54.2573L1026.31 40.3419C1026.33 37.8805 1026.41 35.7253 1025.61 33.3506L1019.66 31.5815L1023.77 27.3432L1026.99 26.1235Z" fill="#676975"/>
<path d="M817.137 164.194C819.002 163.33 821.26 163.008 823.267 162.531C823.039 165.206 822.662 168.047 821.518 170.511C816.543 181.228 807.144 191.163 800.664 201.113C795.869 208.479 792.622 216.63 787.815 223.923C785.695 227.137 777.949 235.941 778.017 239.401C778.086 242.885 780.676 248.62 781.93 251.869C780.695 253.035 779.617 254.009 778.194 254.964L773.322 244.501L773.221 240.811L775.721 240.551L775.337 237.744C774.997 234.503 775.42 232.445 776.69 229.416C779.21 223.406 784.884 216.819 788.51 211.106C795.783 199.635 802.068 186.599 811.329 176.4C812.179 175.461 813.105 174.7 813.624 173.528C814.336 171.922 814.942 170.396 816.067 169.009C817.068 167.776 816.941 165.78 817.137 164.194Z" fill="#6D6D7C"/>
<path d="M1000.35 141.929L1004.41 143.78C958.564 188.045 911.222 233.575 848.314 252.812C828.878 258.757 809.445 261.308 789.219 262.644L788.296 259.184C795.734 256.558 807.268 257.047 815.189 256.086C826.006 254.77 836.733 252.189 847.189 249.227C910.087 231.408 954.836 185.232 1000.35 141.929Z" fill="#4F5266"/>
<path d="M1008.93 139.818C1009.37 141.327 1009.85 142.798 1010.11 144.348C1005.31 175.088 1002.15 206.022 998.212 236.873C996.967 246.63 996.919 260.388 993.467 269.484C991.63 274.329 985.306 279.989 981.99 284.06C964.02 302.537 947.184 321.839 925.111 335.882L925.031 335.959L924.403 341.07C909.987 353.68 883.233 362.218 864.273 363.921C855.861 364.678 845.762 363.792 837.658 365.324C836.997 366.779 836.524 368.035 836.009 369.534C835.42 371.247 834.383 371.897 833.016 373.022L832.697 378.454C833.667 397.199 825.241 414.955 828.316 433.623L828.339 434.558L823.76 432.814L754.961 412.574L777.267 319.343L774.112 313.506L781.581 270.359L782.255 262.568L787.227 263.619L787.79 263.741L789.22 262.644C809.445 261.308 828.878 258.757 848.314 252.812C911.222 233.575 958.565 188.045 1004.41 143.78L1008.93 139.818Z" fill="url(#paint2_linear_14_3899)"/>
<path d="M795.408 290.377C795.807 288.653 795.842 289.317 795.521 287.631L795.266 286.484C796.52 284.641 795.755 285.408 797.545 284.164L815.429 322.137L812.347 326.194C806.944 314.533 799.481 302.491 795.408 290.377Z" fill="#434253"/>
<path d="M815.429 322.137L834.131 358.599C845.958 358.938 858.493 359.118 870.199 357.104C889.942 353.711 907.43 344.839 925.031 335.959L924.403 341.07C909.987 353.68 883.233 362.218 864.272 363.921C855.861 364.678 845.762 363.792 837.658 365.324C836.997 366.778 836.524 368.035 836.009 369.534C835.42 371.247 834.383 371.897 833.016 373.022L832.697 378.454C833.667 397.199 825.241 414.955 828.315 433.622L828.339 434.558L823.76 432.814L824.372 430.886C821.731 421.165 823.831 413.775 825.042 404.093C826.688 390.963 828.482 377.855 830.262 364.74L812.346 326.194L815.429 322.137Z" fill="url(#paint3_linear_14_3899)"/>
<path d="M782.255 262.568L787.228 263.619L787.79 263.741C787.553 271.251 794.727 277.441 797.545 284.164C795.756 285.408 796.52 284.641 795.266 286.484L795.521 287.631C795.843 289.317 795.807 288.653 795.408 290.376C799.482 302.49 806.944 314.533 812.347 326.194L830.262 364.74C828.482 377.855 826.689 390.963 825.043 404.093C823.831 413.775 821.731 421.165 824.372 430.886L823.76 432.814L754.961 412.574L777.267 319.343L774.112 313.506L781.581 270.359L782.255 262.568Z" fill="#0D0813"/>
<path d="M782.255 262.568L787.227 263.619L787.79 263.741C787.553 271.251 794.727 277.441 797.545 284.164C795.755 285.408 796.52 284.641 795.266 286.484L795.52 287.631C795.842 289.317 795.807 288.653 795.407 290.376C791.956 284.131 790.015 277.697 785.569 272.027L777.266 319.343L774.111 313.506L781.581 270.359L782.255 262.568Z" fill="#4F5266"/>
<path d="M782.255 262.568L787.227 263.619L786.198 269.239C784.507 270.13 783.494 270.313 781.581 270.359L782.255 262.568Z" fill="#5B6578"/>
<path d="M1072.99 23.3674C1110.53 24.8655 1143.17 32.2046 1177.67 46.8399C1189.18 51.7231 1202.51 57.7204 1212.51 65.1763C1259.98 94.3113 1301.1 136.294 1328.92 184.224C1326.39 186.237 1323.42 188.149 1321.81 190.994C1319.07 193.638 1311.97 199.177 1311.12 202.696L1246.5 275.147L1240.62 282.156C1239.16 280.624 1238.37 279.12 1237.35 277.297C1233.19 275.428 1228.9 274.791 1224.45 274.012L1222.57 270.207C1222.06 269.553 1220.96 269.766 1220.14 269.586C1207.97 266.908 1195.69 264.632 1183.5 262.013C1182.7 260.748 1163.82 255.063 1160.88 253.983C1135.87 244.206 1114.73 230.366 1093.58 214.277C1080.73 203.798 1070.05 191.413 1058.54 179.61L1054.4 181.412L1019.52 134.941L1017.83 132.363L1018.77 127.085L1018.39 125.618C1021.24 110.797 1022.24 95.7179 1024.47 80.7994C1025.42 74.4212 1026.01 67.5878 1028.21 61.4936L1028.19 55.7684L1030.53 44.8092L1031.11 40.9286L1030.69 38.6598L1027.97 39.1379C1028.04 34.7629 1028.5 30.3027 1026.99 26.1235C1033.81 24.6107 1041.04 24.3463 1048.01 23.7271C1048.19 26.4849 1048.04 28.9175 1049.91 31.1576L1052.6 29.0512L1065.17 27.699C1065.91 26.7205 1066.44 26.2811 1067.63 25.8526C1069.65 25.121 1071.11 24.4791 1072.99 23.3674Z" fill="url(#paint4_linear_14_3899)"/>
<path d="M1018.77 127.085L1058.54 179.61L1054.4 181.412L1019.52 134.941L1017.83 132.363L1018.77 127.085Z" fill="#4F5266"/>
<path d="M1026.99 26.1233C1033.81 24.6105 1041.04 24.3461 1048.01 23.7269C1048.19 26.4847 1048.04 28.9173 1049.91 31.1574L1054.66 37.4482C1054.36 38.5058 1054.21 39.1095 1053.55 40.0168C1055.68 44.5544 1059.91 48.3677 1063.27 52.0813C1060.65 51.83 1057.56 50.9596 1055.4 52.4355C1053.61 53.6596 1051.99 54.0405 1049.89 54.5336C1047.87 55.0095 1046.07 56.1202 1044.11 56.6998C1040.6 57.7377 1034.75 56.4092 1031.06 56.0191C1030.48 59.057 1030.41 59.3148 1028.21 61.4934L1028.19 55.7682L1030.53 44.809L1031.11 40.9284L1030.69 38.6596L1027.97 39.1377C1028.04 34.7627 1028.5 30.3025 1026.99 26.1233Z" fill="url(#paint5_linear_14_3899)"/>
<path d="M1031.11 40.9284C1034.35 40.6028 1037.21 40.6008 1040.44 40.9909C1043.24 39.4902 1046.51 40.3995 1049.65 40.6831C1044.67 44.0649 1036.52 42.8813 1030.53 44.8089L1031.11 40.9284Z" fill="#4F5266"/>
<path d="M1026.99 26.1233C1033.81 24.6105 1041.04 24.3461 1048.01 23.7269C1048.19 26.4847 1048.04 28.9173 1049.91 31.1574L1054.66 37.4482C1054.36 38.5058 1054.21 39.1095 1053.55 40.0167L1049.07 34.9722C1044.03 30.0584 1041.39 28.8103 1034.34 28.9754C1031.53 31.6568 1031.36 35.0241 1030.69 38.6596L1027.97 39.1377C1028.04 34.7627 1028.5 30.3025 1026.99 26.1233Z" fill="#9199AB"/>
<path d="M1072.99 23.3673C1110.53 24.8653 1143.17 32.2044 1177.67 46.8398C1189.18 51.723 1202.51 57.7203 1212.51 65.1762C1259.98 94.3112 1301.1 136.294 1328.92 184.224C1326.39 186.237 1323.42 188.148 1321.81 190.994C1319.07 193.638 1311.97 199.177 1311.12 202.695L1246.5 275.147L1240.62 282.156C1239.16 280.624 1238.37 279.12 1237.35 277.297C1233.19 275.428 1228.9 274.791 1224.45 274.012L1222.57 270.206L1242.66 272.59L1311.08 195.894L1312.16 194.856C1307.16 190.969 1297.23 189.679 1291.11 188.257C1280.25 185.741 1269.47 182.838 1258.73 179.878C1250.12 177.502 1241.99 174.483 1233.7 171.206C1214.21 163.334 1194.83 155.371 1176.49 145.038C1134.16 121.194 1095.37 88.088 1063.27 52.0814C1059.91 48.3677 1055.68 44.5545 1053.55 40.0168C1054.21 39.1096 1054.36 38.5059 1054.66 37.4483L1049.91 31.1575L1052.6 29.0511L1065.17 27.6988C1065.91 26.7204 1066.44 26.2809 1067.63 25.8524C1069.65 25.1208 1071.11 24.479 1072.99 23.3673Z" fill="url(#paint6_linear_14_3899)"/>
<path d="M1063.88 40.205C1066.82 38.6481 1068.36 38.7579 1071.63 39.2298C1076.24 36.7648 1108.62 41.3768 1116.18 42.0457C1119.51 44.6814 1123.02 42.5977 1126.35 44.0769C1131.7 46.457 1138.13 47.06 1143.72 49.0086C1145.5 49.6299 1148.21 48.9416 1149.99 49.5629C1151.86 50.215 1154.19 51.7222 1156.06 52.3628C1157.57 52.8788 1158.17 52.0882 1159.58 53.2039C1160.69 54.0848 1161.45 54.1578 1162.75 54.6462C1166.54 56.0735 1171 57.8099 1174.38 59.9921C1175.95 61.0122 1176.92 61.1647 1178.84 61.1685L1179.5 61.7577C1180.59 62.6127 1180.21 62.3538 1181.46 62.7766C1182.67 63.1879 1183.23 63.5505 1184.27 64.2281C1185.88 65.2686 1186.84 65.4408 1188.8 65.4455L1189.43 65.9942C1193.2 68.9789 1203.39 73.7541 1208.1 75.3553C1210.31 76.107 1213.75 78.7698 1215.64 80.2671C1218.24 82.3284 1221.6 84.547 1224.63 85.8341C1226.22 86.5173 1227.58 87.7353 1228.93 88.802C1231.46 90.8085 1234.55 92.0433 1237.12 94.0179C1241.09 97.0669 1244.56 100.706 1248.63 103.561C1250.87 105.132 1252.52 107.263 1254.76 108.876C1257.19 110.617 1258.31 112.678 1260.89 114.26C1269.07 119.274 1273.3 128.847 1280.35 134.662C1286.11 139.426 1290.8 145.567 1295.75 151.383C1300.05 156.44 1304.9 161.369 1307.92 167.093C1310.06 171.136 1314.19 173.602 1316.15 178.009C1317.26 180.516 1318.9 181.579 1319.59 184.532C1319.16 186.439 1318.77 188.175 1318.05 190.004C1319.38 190.484 1320.39 190.79 1321.81 190.994C1319.07 193.638 1311.97 199.177 1311.12 202.695L1246.5 275.147L1240.62 282.156C1239.16 280.624 1238.37 279.12 1237.35 277.297C1233.19 275.428 1228.9 274.791 1224.45 274.012L1222.57 270.206L1242.66 272.59L1311.08 195.894L1312.16 194.856C1307.16 190.969 1297.23 189.679 1291.11 188.257C1280.25 185.741 1269.47 182.838 1258.73 179.878C1250.12 177.502 1241.99 174.483 1233.7 171.206L1233.53 167.78C1253.32 174.832 1273.35 181.37 1293.93 185.803C1301.88 187.514 1310.37 187.969 1318.46 189.162C1309.89 178.328 1300.97 169.29 1293.56 157.562C1287.99 148.75 1279.71 141.161 1272.57 133.534C1251.88 111.44 1228.06 90.7594 1201.29 76.0165C1185.56 67.3556 1168.06 60.7698 1151.5 53.8117C1145.67 51.3603 1138.87 51.391 1133.36 49.1744C1125.57 46.0397 1117.03 46.2589 1109.16 43.6792C1106.43 42.7866 1101.98 42.9695 1099.06 42.7085C1093.26 42.187 1077.17 39.0877 1072.56 41.5636C1070.06 41.5221 1067.03 41.7988 1064.72 40.7317L1063.88 40.205Z" fill="#676975"/>
<path d="M1072.99 23.3673C1110.53 24.8653 1143.17 32.2044 1177.67 46.8398C1189.18 51.723 1202.51 57.7203 1212.51 65.1762C1259.98 94.3112 1301.1 136.294 1328.92 184.224C1326.39 186.237 1323.42 188.148 1321.81 190.994C1320.39 190.79 1319.39 190.484 1318.05 190.004C1318.77 188.175 1319.16 186.439 1319.59 184.532C1318.9 181.579 1317.26 180.516 1316.15 178.009C1314.19 173.602 1310.06 171.136 1307.92 167.093C1304.9 161.369 1300.05 156.44 1295.75 151.383C1290.81 145.567 1286.11 139.426 1280.35 134.662C1273.3 128.847 1269.07 119.274 1260.89 114.26C1258.31 112.678 1257.19 110.617 1254.76 108.876C1252.52 107.263 1250.87 105.132 1248.63 103.561C1244.56 100.706 1241.09 97.0669 1237.12 94.0179C1234.55 92.0433 1231.46 90.8085 1228.93 88.802C1227.58 87.7353 1226.22 86.5173 1224.63 85.8341C1221.6 84.547 1218.24 82.3284 1215.64 80.2671C1213.75 78.7698 1210.31 76.107 1208.1 75.3552C1203.39 73.7541 1193.2 68.9789 1189.43 65.9942L1188.8 65.4455C1186.85 65.4408 1185.88 65.2686 1184.27 64.2281C1183.23 63.5505 1182.67 63.1879 1181.46 62.7766C1180.21 62.3538 1180.59 62.6127 1179.5 61.7577L1178.84 61.1685C1176.93 61.1647 1175.95 61.0122 1174.38 59.9921C1171 57.8099 1166.54 56.0735 1162.75 54.6461C1161.45 54.1578 1160.69 54.0848 1159.58 53.2039C1158.17 52.0882 1157.57 52.8788 1156.06 52.3627C1154.19 51.7222 1151.86 50.2149 1149.99 49.5629C1148.21 48.9416 1145.5 49.6299 1143.72 49.0086C1138.13 47.06 1131.7 46.457 1126.35 44.0769C1123.02 42.5977 1119.51 44.6814 1116.18 42.0456C1108.62 41.3768 1076.24 36.7648 1071.63 39.2298C1068.36 38.7579 1066.82 38.6481 1063.88 40.2049L1060.87 40.5937C1061.49 49.9744 1106.94 90.6556 1116.12 98.6105C1150.58 128.453 1191.22 150.904 1233.53 167.78L1233.7 171.206C1214.21 163.334 1194.83 155.371 1176.49 145.038C1134.16 121.194 1095.37 88.088 1063.27 52.0814C1059.91 48.3677 1055.68 44.5545 1053.55 40.0168C1054.21 39.1096 1054.36 38.5059 1054.66 37.4483L1049.91 31.1575L1052.6 29.0511L1065.17 27.6988C1065.91 26.7204 1066.44 26.2809 1067.63 25.8524C1069.65 25.1208 1071.11 24.479 1072.99 23.3673Z" fill="#6D6D7C"/>
<path d="M1072.99 23.3672C1110.53 24.8653 1143.17 32.2044 1177.67 46.8398C1189.18 51.7229 1202.51 57.7203 1212.51 65.1761C1207.7 63.8095 1203.13 62.2226 1198.42 60.6329C1196.32 59.9262 1194.35 59.1233 1192.29 58.3902C1188.13 56.9068 1184.37 54.3779 1180.15 52.7874C1178.85 52.2994 1178.09 52.2292 1176.98 51.3452C1175.41 50.1089 1173.92 51.0835 1172.32 50.4034C1169.93 49.3866 1167.52 48.4262 1165.11 47.5027C1163.69 46.9605 1161.39 47.5886 1159.98 47.0492C1150.72 43.5129 1140.49 41.7337 1131.5 37.7397C1125.97 35.2835 1114.81 37.3541 1110.04 33.5794C1100.92 32.7738 1087.59 29.9089 1079.17 31.9726C1075.64 32.8346 1072.54 30.1926 1068.81 32.1874C1063.92 31.8742 1056.33 32.3332 1052.6 29.051L1065.17 27.6988C1065.91 26.7204 1066.44 26.2809 1067.63 25.8524C1069.65 25.1208 1071.11 24.479 1072.99 23.3672Z" fill="#727B8C"/>
<path d="M1008.93 139.818C1010.11 137.471 1015.59 134.147 1017.83 132.363L1019.52 134.941L1054.4 181.411L1058.54 179.61C1070.05 191.413 1080.73 203.798 1093.58 214.276C1114.73 230.366 1135.87 244.206 1160.88 253.983C1163.82 255.063 1182.7 260.748 1183.5 262.012C1195.69 264.632 1207.97 266.908 1220.14 269.586C1220.96 269.765 1222.06 269.553 1222.57 270.206L1224.45 274.012C1228.9 274.791 1233.19 275.428 1237.35 277.297C1238.37 279.12 1239.16 280.624 1240.62 282.156L1246.5 275.147L1311.12 202.695C1311.97 199.177 1319.07 193.638 1321.81 190.994C1323.63 192.528 1324.22 193.076 1324.81 195.371C1325.32 197.386 1325.84 197.859 1327.37 199.234C1330.71 202.25 1332.26 206.81 1334.04 210.836L1333.91 211.143C1335.18 214.113 1336.44 216.783 1338.26 219.467C1342.24 225.369 1345.69 231.4 1348.21 238.001L1349.2 239.787C1350.56 242.394 1351.74 246.506 1354.13 248.328C1355.59 248.642 1356.38 248.591 1357.52 249.579L1357.62 250.54C1357.94 252.536 1358.96 254.035 1359.92 255.769C1360.5 256.805 1360.31 256.453 1360.5 257.658C1360.85 259.798 1361.97 261.511 1362.31 263.654C1362.64 265.732 1363.98 267.12 1364.38 269.424C1364.71 271.334 1365.23 272.933 1366 274.699C1366.74 276.405 1366.73 277.375 1366.39 279.229L1367.92 281.842C1368.56 282.988 1368.35 282.717 1368.51 284.116C1368.94 287.988 1370.86 290.745 1373.87 293.217C1390.1 360.733 1390.75 435.708 1371.86 502.825L1371.66 502.906C1368.19 522.876 1361.71 542.957 1355.36 562.198C1346.87 587.966 1337.63 613.24 1327.16 638.288L1326.94 638.309C1303.51 695.231 1274.3 749.811 1240.97 801.665C1230.7 817.649 1220.29 834.592 1208.17 849.253L1198.74 862.136C1155.36 918.152 1108.89 966.484 1034.2 976.108C1002.92 980.139 971.542 976.763 940.938 969.723L937.248 968.185L932.348 966.477C893.278 950.994 868.4 924.233 851.817 886.378C846.843 878.398 843.459 868.388 839.987 859.683C832.762 841.559 826.169 822.968 819.919 804.495L799.753 745.151C800.006 743.481 800.243 742.068 800.782 740.461C801.094 739.526 801.372 739.113 801.303 738.125C801.239 737.157 800.84 736.574 800.951 735.483C802.639 718.888 793.816 699.231 790.53 682.535L771.663 618.171C768.503 614.058 765.871 610.617 761.343 607.873C757.926 600.807 752.509 594.799 748.569 588C742.719 577.905 741.255 561.695 739.352 550.24C735.17 531.268 732.103 511.92 729.293 492.72C727.766 482.28 725.401 470.801 725.811 460.271C726.314 447.223 729.712 433.967 730.933 420.857C735.366 417.69 735.586 415.232 737.339 410.113L742.404 410.21L754.961 412.574L823.76 432.814L828.339 434.558L828.316 433.622C825.242 414.955 833.667 397.199 832.697 378.454L833.016 373.022C834.383 371.897 835.42 371.247 836.009 369.534C836.524 368.035 836.997 366.778 837.658 365.324C845.762 363.792 855.861 364.678 864.273 363.921C883.233 362.218 909.987 353.68 924.403 341.07L925.031 335.959L925.111 335.882C947.184 321.839 964.02 302.537 981.99 284.06C985.306 279.989 991.63 274.329 993.467 269.484C996.919 260.388 996.967 246.63 998.212 236.873C1002.15 206.022 1005.31 175.087 1010.11 144.348C1009.85 142.798 1009.37 141.327 1008.93 139.818Z" fill="#0D0716"/>
<path d="M1004.87 274.326C1013.15 287.681 1020.59 300.918 1030.58 313.173L1027.5 315.424C1020.67 306.808 1013.98 298.036 1007.9 288.889C1005.34 285.038 1002.08 280.91 1001.66 276.216L1004.87 274.326Z" fill="#0D0813"/>
<path d="M925.031 335.959L925.111 335.882C947.184 321.839 964.02 302.537 981.99 284.06L982.795 289.89C964.848 309.415 946.434 326.123 924.403 341.07L925.031 335.959Z" fill="#0D0813"/>
<path d="M926.9 904.513L938.968 923.359L944.196 852.062L945.147 852.712L940.183 921.892L936.792 924.421C937.363 926.509 938.907 927.773 940.392 929.275C940.433 931.144 940.383 932.803 940.982 934.589C941.426 935.921 941.225 937.894 940.662 939.198L940.135 940.102C938.208 943.638 938.58 952.538 938.244 956.812L938.737 957.528C939.488 958.881 939.322 959.956 939.273 961.438L940.179 960.945C940.664 955.458 940.071 943.658 942.115 939.042C943.368 936.206 944.459 933.317 943.336 929.952C941.886 925.616 944.972 919.789 944.199 915.455C942.62 906.633 944.8 895.643 945.62 886.369C945.842 883.85 946.827 879.564 946.433 877.165C945.153 869.352 946.751 860.556 947.476 852.352L948.111 851.893C947.273 866.662 946.901 881.423 946.096 896.189C945.456 907.956 943.068 921.861 946.262 933.317C940.296 943.512 943.561 958.682 940.938 969.723L937.247 968.185L938.041 966.128C935.502 958.013 937.639 948.047 938.397 939.737C938.601 937.494 939.603 933.082 938.709 931.01C935.524 923.625 927.884 914.815 923.355 907.753L926.9 904.513Z" fill="#2F2F35"/>
<path d="M1152.55 382.302C1150.25 385.782 1147.77 390.122 1143.86 392.005L1143.7 393.689L1141.09 396.205L1142.53 397.239C1128.7 414.12 1115.3 431.471 1101.22 448.115C1098.6 451.207 1095.11 453.429 1092.58 456.472C1090.02 459.558 1087.83 460.436 1084.14 461.941C1095.7 444.889 1108.33 430.139 1121.21 414.223C1128.51 405.198 1135.22 395.324 1144.25 387.796L1145.32 388.905C1147.87 386.604 1149.3 383.296 1152.55 382.302Z" fill="#0D0813"/>
<path d="M1158.51 375.775L1160.68 376.506C1159.71 392.657 1157.33 408.719 1156.48 424.864C1156 434.138 1157.87 445.715 1155.97 454.577C1155.4 457.219 1153.39 459.264 1151.53 461.117L1149.17 460.639C1148.81 453.133 1150.06 445.544 1150.32 438.035C1150.97 419.679 1151.19 401.447 1155.34 383.407L1142.53 397.239L1141.09 396.205L1143.7 393.689L1143.86 392.005C1147.77 390.122 1150.25 385.782 1152.55 382.302C1156.15 380.009 1156.71 379.578 1158.51 375.775Z" fill="#282B3F"/>
<path d="M822.989 788.321L823.738 790.03C823.571 791.853 822.74 795.231 823.59 796.763C825.999 801.123 826.886 806.403 827.883 811.224L828.569 810.757C829.661 810.048 829.239 810.3 830.598 809.76L829.556 808.537L828.8 807.343L829.186 806.239L828.484 805.223C827.548 803.738 827.287 802.567 826.781 800.931L826.423 799.929C825.899 798.364 826.221 799.285 825.861 797.332C825.535 795.564 825.038 794.764 824.006 793.328C825.476 791.534 825.957 791.553 828.243 790.886C829.901 793.16 829.73 793.788 830.642 796.187L832.148 798.577C831.97 800.697 831.553 800.855 832.833 802.675C833.965 804.285 835.449 806.798 835.275 808.759L833.386 810.571C833.749 812.42 834.501 814.095 835.221 815.828L832.691 818.436C833.19 820.471 833.645 820.644 835.255 822.07L835.875 821.545L835.554 818.689C837.186 817.355 836.277 817.831 838.268 817.236L839.231 817.881L839.443 819.05C840.008 822.035 840.324 823.993 842.347 826.325L850.507 830.347L850.488 833.087C847.736 831.18 845.566 830.136 842.308 829.191C840.241 828.591 841.681 829.1 840.077 828.249C838.574 827.452 837.019 827.541 835.348 827.442C835.06 830.735 834.671 837.23 836.554 839.717C838.569 842.379 839.242 845.786 840.951 848.609L842.143 848.137L841.976 847.166C841.662 845.22 841.045 843.618 842.129 841.908C843.398 845.649 844.752 850.935 846.786 854.207L846.318 856.145C845.24 853.769 845.167 853.525 842.934 852.169L843.913 850.841L841.342 850.614C842.748 853.636 841.833 858.267 843.21 860.759C845.33 864.589 848.071 870.685 848.912 874.817C849.306 876.75 850.318 878.613 850.77 880.588C851.229 882.588 851.75 884.312 851.817 886.378C846.843 878.398 843.459 868.388 839.987 859.683C832.762 841.559 826.169 822.968 819.918 804.495C820.455 800.851 820.827 797.612 820.545 793.912C820.411 792.135 822.13 789.923 822.989 788.321Z" fill="#2F2F35"/>
<path d="M1030.58 313.173C1059.65 347.5 1094.97 368.737 1140.78 372.948C1145.29 373.361 1151.11 372.971 1155.38 374.148L1158.51 375.775C1156.71 379.578 1156.15 380.009 1152.55 382.302C1149.3 383.296 1147.87 386.604 1145.32 388.905L1144.25 387.796C1146.54 385.026 1149.21 382.5 1149.78 378.945C1139.97 376.273 1128.56 376.624 1118.38 374.712C1090.93 369.559 1058.96 352.212 1039.85 332.02C1035.2 327.115 1031.34 320.966 1027.5 315.424L1030.58 313.173Z" fill="url(#paint7_linear_14_3899)"/>
<path d="M1010.11 144.348L1013.11 142.291L1014.26 143.396C1013.64 150.598 1012.68 157.954 1012.94 165.182C1010.53 193.188 1005.75 221.334 1002.58 249.338C1002.09 253.696 999.944 261.667 1000.53 265.84C1000.85 268.062 1003.73 272.197 1004.87 274.326L1001.66 276.216L999.796 276.99C998.381 289.036 996.256 300.77 994.451 312.738C993.553 318.675 993.871 324.296 991.917 329.899L991.265 334.936L989.883 336.796C990.041 332.747 989.645 326.441 991.553 322.935C993.997 318.445 991.811 311.03 993.444 306.262C996.397 297.647 997.368 287.851 998.205 278.385C996.952 278.749 996.828 278.484 996.266 279.387C994.226 282.667 994.691 288.258 992.854 291.637C990.782 295.441 992.735 301.105 991.263 304.939C987.665 314.306 988.066 328.104 987.144 338.533L985.848 338.419C985.326 319.397 989.837 296.618 994.856 278.202L982.796 289.89L981.99 284.06C985.306 279.989 991.63 274.329 993.468 269.484C996.919 260.388 996.967 246.63 998.212 236.873C1002.15 206.022 1005.31 175.088 1010.11 144.348Z" fill="url(#paint8_linear_14_3899)"/>
<path d="M1177.53 663.052L1184.82 660.147C1178.72 673.222 1168.9 683.795 1162.2 696.435C1140.25 737.88 1125.78 779.632 1119.13 825.967C1117.42 837.857 1115.37 851.009 1116.4 862.981C1116.51 864.304 1116.39 865.458 1116.14 866.758C1127.38 882.279 1142.64 902.215 1146.96 920.815C1140.23 915.274 1137.33 908.581 1132.82 901.335C1127.76 893.203 1122.34 885.25 1117.49 877C1116.2 874.799 1110.99 864.051 1109.41 863.552C1107.03 862.797 1099.92 863.93 1097.08 864.012C1086.23 864.32 1075.48 863.579 1064.63 864.489L1038.46 869.212C1036.69 868.601 1034.68 868.422 1032.83 868.103L1032.62 865.891C1057.52 858.549 1080.41 860.12 1105.92 859.966L1089.93 833.245L1091.37 833.091L1100.01 845.74C1100.52 846.909 1100.38 847.488 1101.34 848.47C1102.74 849.91 1103.67 850.653 1104.22 852.643C1104.58 853.947 1104.88 854.803 1105.67 855.933C1107.2 858.129 1105.72 859.27 1107.54 861.404L1110.01 859.36L1104.07 848.645L1102.82 846.555C1101.9 844.33 1101.39 843.572 1099.66 841.793L1098.99 841.123C1099.25 838.08 1095.96 836.062 1094.79 833.393C1093.96 831.515 1093.73 830.804 1092.29 829.156C1091.41 828.151 1090.27 827.097 1089.71 825.868C1088.64 823.492 1089.85 825.214 1088.78 823.674L1083.98 815.952L1083.22 814.824L1083.72 812.364L1110.29 855.24C1116.1 804.71 1124.94 755.433 1149.07 709.892C1153.36 701.8 1157.66 693.205 1162.6 685.505C1167.24 678.276 1174.74 670.993 1177.53 663.052Z" fill="#252530"/>
<path d="M832.698 378.454L833.016 373.022C834.383 371.897 835.42 371.247 836.01 369.534C836.524 368.035 836.997 366.779 837.658 365.324C842.998 381.152 853.241 397.185 860.541 412.464C861.482 413.469 862.424 414.089 862.748 415.415C863.082 416.769 863.827 417.655 864.562 418.827C866.496 421.905 867.527 425.247 869.47 428.317C871.321 431.242 872.373 434.41 873.884 437.491C877.807 445.514 884.393 454.935 886.689 463.24L887.065 464.473C868.297 452.515 849.052 442.787 828.339 434.558L828.316 433.623C825.242 414.955 833.667 397.199 832.698 378.454Z" fill="#0D0813"/>
<path d="M832.697 378.454L833.015 373.022C834.383 371.897 835.42 371.247 836.009 369.534C836.524 368.035 836.997 366.779 837.658 365.324C842.998 381.152 853.241 397.185 860.541 412.464L860.089 412.848L858.8 412.658C856.793 410.241 856.76 408.18 855.284 405.714L845.122 385.412L839.223 374.136L838.085 374.036C839.681 379.381 841.626 384.161 844.616 388.905C846.264 391.517 846.622 392.001 845.994 395.043C841.949 388.461 839.76 380.145 835.207 374.085L832.697 378.454Z" fill="#252530"/>
<path d="M771.663 618.171L788.564 633.256L795.336 638.202L795.345 638.298C793.668 643.097 798.31 647.613 795.792 651.045L796.547 651.59C797.757 652.546 797.337 652.202 798.208 653.794L796.636 654.516C797.716 656.472 797.565 656.847 797.366 659.098L796.139 660.132L796.539 660.799C797.96 663.364 798.546 665.381 798.854 668.286C799.159 671.164 801.694 673.866 803.959 675.527L801.608 676.168L803.2 677.726L804.192 677.251C806.196 685.722 813.23 699.851 811.735 707.917L812.689 706.874C813.683 708.44 813.683 709.173 813.968 710.943C816.595 727.178 826.809 746.934 823.776 763.312L822.536 764.332C822.32 766.835 821.4 769.196 823.081 771.173L820.73 771.815L820.115 778.846C822.756 778.343 824.673 776.991 826.123 774.668C826.88 773.454 826.598 773.747 826.464 772.04C825.381 771.574 824.844 771.697 824.444 770.497C823.935 768.971 824.198 767.754 824.394 766.201L825.987 766.379L826.612 770.364L830.031 770.646L835.034 766.066C835.134 767.755 835.293 767.72 834.449 769.35C836.463 769.528 835.445 769.669 837.474 768.768L835.79 772.349C834.559 774.926 833.886 776.626 833.848 779.483L832.744 778.82L832.057 780.174L830.51 781.434C829.051 782.568 829.186 783.07 828.239 784.366L826.35 786.178L825.662 787.534L823.738 790.03L822.989 788.321C822.13 789.923 820.411 792.136 820.545 793.912C820.827 797.612 820.455 800.851 819.918 804.495L799.752 745.151C800.006 743.481 800.243 742.068 800.782 740.461C801.094 739.526 801.371 739.113 801.303 738.125C801.238 737.157 800.84 736.574 800.951 735.483C802.638 718.888 793.816 699.231 790.53 682.535L771.663 618.171Z" fill="#282B3F"/>
<path d="M771.663 618.171L788.564 633.256C784.266 647.575 793.582 668.895 798.009 682.475C799.677 687.592 799.935 693.031 801.365 698.22C804.978 711.348 809.802 723.3 811.752 736.884C812.27 740.5 813.353 745.191 812.437 748.736L812.871 749.377C815.281 753.731 816.048 761.89 816.548 766.887L813.354 759.586C810.24 753.961 808.841 746.294 808.787 739.905C808.656 723.624 800.442 705.804 796.989 689.627L796.624 687.928C795.734 684.98 793.059 683.935 790.53 682.535L771.663 618.171Z" fill="#252530"/>
<path d="M790.53 682.535C793.059 683.936 795.735 684.98 796.624 687.928L796.989 689.627C800.442 705.804 808.656 723.624 808.788 739.905C808.841 746.294 810.24 753.961 813.355 759.586L816.548 766.887L818.593 778.865C818.741 780.211 818.667 779.715 819.335 781.179C821.83 781.142 823.591 780.321 825.818 779.35L826.797 781.123L822.99 788.321C822.13 789.923 820.411 792.136 820.545 793.912C820.827 797.612 820.456 800.851 819.919 804.495L799.753 745.152C800.006 743.482 800.243 742.068 800.782 740.461C801.094 739.526 801.372 739.113 801.303 738.125C801.239 737.157 800.84 736.574 800.951 735.483C802.639 718.888 793.816 699.231 790.53 682.535Z" fill="#434253"/>
<path d="M851.817 886.378C851.75 884.312 851.229 882.588 850.77 880.588C850.318 878.613 849.306 876.75 848.912 874.817C848.071 870.685 845.33 864.589 843.21 860.759C841.833 858.267 842.748 853.636 841.342 850.614L843.913 850.841L842.934 852.169C845.167 853.525 845.24 853.769 846.318 856.145L846.786 854.207C844.752 850.935 843.398 845.649 842.129 841.908C841.045 843.618 841.663 845.22 841.976 847.166L842.143 848.137L840.951 848.609C839.242 845.786 838.569 842.379 836.554 839.717C834.671 837.23 835.06 830.735 835.348 827.442C837.019 827.541 838.574 827.452 840.077 828.249C841.681 829.101 840.241 828.591 842.309 829.191C845.566 830.137 847.736 831.18 850.488 833.087L850.507 830.347C865.85 837.464 881.031 851.102 892.655 863.191C904.88 875.97 917.842 889.287 926.9 904.513L923.355 907.753C927.884 914.815 935.524 923.625 938.71 931.009C939.603 933.082 938.601 937.494 938.397 939.736C937.639 948.047 935.502 958.013 938.041 966.128L937.248 968.185L932.348 966.477C893.278 950.995 868.4 924.233 851.817 886.378Z" fill="url(#paint9_linear_14_3899)"/>
<path d="M850.507 830.347C865.85 837.464 881.031 851.102 892.655 863.19C890.987 864.327 890.69 864.393 890.003 866.24C881.427 858.7 873.151 850.904 863.817 844.225C859.39 841.061 853.597 839.32 849.565 835.776C853.449 835.168 858.117 838.601 861.5 840.65L863.928 842.137L864.027 841.015C859.593 838.033 855.385 835.293 850.488 833.087L850.507 830.347Z" fill="#282B3F"/>
<path d="M892.655 863.191C904.88 875.97 917.842 889.287 926.9 904.513L923.355 907.753L890.003 866.24C890.69 864.394 890.987 864.327 892.655 863.191Z" fill="#252530"/>
<path d="M1008.93 139.818C1010.11 137.471 1015.59 134.147 1017.83 132.363L1019.52 134.941L1054.4 181.411L1058.54 179.61C1070.05 191.413 1080.73 203.798 1093.58 214.276C1114.73 230.366 1135.87 244.206 1160.88 253.983C1163.82 255.063 1182.7 260.748 1183.5 262.013C1195.69 264.632 1207.97 266.908 1220.14 269.586C1220.96 269.765 1222.06 269.553 1222.57 270.206L1224.45 274.012C1228.9 274.791 1233.19 275.428 1237.35 277.297C1238.37 279.12 1239.16 280.624 1240.62 282.156L1178.26 353.68C1172.69 361.021 1164.83 368.365 1160.68 376.506L1158.51 375.775L1155.38 374.148C1151.11 372.971 1145.29 373.361 1140.78 372.948C1094.97 368.736 1059.65 347.5 1030.58 313.173C1020.59 300.918 1013.15 287.681 1004.87 274.326C1003.73 272.197 1000.85 268.062 1000.53 265.84C999.944 261.667 1002.09 253.696 1002.58 249.338C1005.75 221.334 1010.53 193.188 1012.94 165.182C1012.68 157.954 1013.64 150.598 1014.26 143.396L1013.11 142.291L1010.11 144.348C1009.85 142.798 1009.37 141.327 1008.93 139.818Z" fill="#0D0716"/>
<path d="M1008.93 139.818C1010.11 137.471 1015.59 134.147 1017.83 132.363L1019.52 134.941C1013.14 141.573 1016.21 156.435 1012.94 165.182C1012.68 157.954 1013.64 150.598 1014.26 143.396L1013.11 142.291L1010.11 144.348C1009.85 142.798 1009.37 141.327 1008.93 139.818Z" fill="#434253"/>
<path d="M1155.38 374.148C1161.4 366.906 1167.56 357.954 1174.76 351.921L1178.26 353.68C1172.69 361.021 1164.83 368.365 1160.68 376.506L1158.51 375.775L1155.38 374.148Z" fill="#252530"/>
<path d="M1183.5 262.012C1195.69 264.631 1207.97 266.908 1220.14 269.586C1220.96 269.765 1222.06 269.553 1222.57 270.206L1224.45 274.012C1210.93 273.977 1195.4 269.094 1182.28 265.889C1182.41 263.982 1182.44 263.585 1183.5 262.012Z" fill="#46424D"/>
<path d="M1058.54 179.61C1070.05 191.413 1080.73 203.798 1093.58 214.277L1095.66 219.129L1094.73 220.316C1080.05 211.566 1065.05 194.591 1054.4 181.412L1058.54 179.61Z" fill="#46424D"/>
<path d="M1237.35 277.297C1238.37 279.12 1239.16 280.624 1240.62 282.156L1178.26 353.68L1174.76 351.921C1189.27 332.57 1206.11 314.539 1221.97 296.226C1226.25 291.281 1232.52 286.166 1236.09 280.903C1236.9 279.703 1237.06 278.686 1237.35 277.297Z" fill="#46424D"/>
<path d="M1093.58 214.276C1114.73 230.366 1135.87 244.206 1160.88 253.983C1163.82 255.063 1182.7 260.748 1183.5 262.012C1182.44 263.585 1182.41 263.982 1182.28 265.889L1155.78 257.226C1139.79 250.035 1125.05 242.154 1110.57 232.238C1105.2 228.561 1099.21 225.015 1094.73 220.316L1095.66 219.129L1093.58 214.276Z" fill="#434253"/>
<path d="M742.404 410.21L754.961 412.574L823.76 432.814L828.339 434.558C849.052 442.787 868.296 452.515 887.065 464.473C893.833 469.502 904.962 476.937 909.078 484.209C934.833 509.072 950.973 551.437 954.466 585.962C939.709 614.723 918.084 640.939 885.959 651.378C861.383 659.363 831.027 656.678 807.939 645.239L795.345 638.298L795.336 638.202L788.564 633.256L771.663 618.171C768.503 614.058 765.872 610.618 761.343 607.873C757.926 600.807 752.51 594.799 748.569 588C742.719 577.906 741.255 561.696 739.352 550.24C735.17 531.269 732.103 511.921 729.294 492.72C727.766 482.28 725.401 470.801 725.811 460.271C726.314 447.223 729.712 433.967 730.933 420.857C735.366 417.69 735.586 415.232 737.339 410.113L742.404 410.21Z" fill="url(#paint10_linear_14_3899)"/>
<path d="M742.404 410.21L754.961 412.574L823.76 432.814L828.339 434.558C849.052 442.787 868.296 452.515 887.065 464.473C893.833 469.502 904.962 476.937 909.078 484.209L907.745 485.749C906.024 483.826 904.763 482.385 902.525 481.016C901.216 480.216 894.829 473.708 894.309 472.396L892.886 472.264C891.172 470.452 888.927 467.397 886.441 467.165L885.092 466.197L884.001 465.727C882.663 465.09 882.191 464.466 881.325 463.323L879.898 463.191C878.164 461.948 878.963 462.589 877.481 461.285C875.343 461.084 876.305 460.914 874.571 461.595C873.854 463.656 873.654 463.914 871.957 465.314L871.255 463.566C870.065 463.452 869.431 463.77 868.324 464.156C870.914 465.561 873.94 468.24 876.829 468.591L877.878 469.811C880.457 472.537 883.878 473.436 886.502 476.232L893.095 482.246C896.221 484.748 898.687 488.461 901.131 491.589L899.397 492.314C907.993 505.007 917.018 515.081 923.473 529.309C922.214 530.673 922.651 530.022 921.753 531.768L921.122 533.052C911.264 511.799 894.855 485.52 874.427 473.177L857.964 463.684C835.727 451.935 813.519 442.791 789.439 435.287C777.416 431.544 764.539 429.107 752.875 424.393C749.667 437.156 745.95 450.3 745.052 463.45C741.177 480.909 740.113 502.555 743.063 520.204C743.334 521.833 743.964 522.451 742.875 523.595C741.649 524.881 741.322 526.422 740.774 528.063L739.299 529.509L737.354 528.99C737.629 530.202 737.907 531.25 738.367 532.403C739.371 534.918 738.834 537.629 739.954 540.432C740.588 542.018 740.437 543.992 740.473 545.679L741.814 546.647L739.352 550.24C735.17 531.269 732.103 511.921 729.294 492.72C727.766 482.28 725.401 470.801 725.811 460.271C726.314 447.223 729.712 433.967 730.933 420.857C735.366 417.69 735.586 415.232 737.339 410.113L742.404 410.21Z" fill="url(#paint11_linear_14_3899)"/>
<path d="M740.774 528.063C739.91 518.734 738.473 509.391 738.426 500.012C738.285 472.218 743.24 446.441 749.717 419.59C760.048 425.633 773.307 427.535 784.79 431.039C818.45 441.308 856.463 454.613 884.04 476.693C889.663 481.195 894.54 487.019 899.396 492.314C907.993 505.007 917.018 515.081 923.473 529.309C922.214 530.673 922.651 530.022 921.752 531.768L921.121 533.051C911.263 511.799 894.855 485.519 874.426 473.177L857.964 463.683C835.727 451.935 813.519 442.791 789.438 435.287C777.415 431.544 764.538 429.107 752.875 424.393C749.667 437.156 745.949 450.3 745.052 463.45C741.176 480.909 740.113 502.555 743.063 520.203C743.333 521.833 743.964 522.451 742.875 523.595C741.649 524.88 741.322 526.422 740.774 528.063Z" fill="#AE0036"/>
<path d="M745.052 463.45C745.95 450.3 749.667 437.156 752.875 424.393C764.539 429.107 777.416 431.544 789.439 435.287C813.519 442.791 835.727 451.935 857.964 463.683L851.52 464.881C850.123 465.21 848.744 466.233 847.664 467.14C849.357 468.385 850.417 469.276 852.5 469.836L855.379 474.331C889.48 498.282 910.383 535.339 917.282 575.862C918.653 583.912 913.318 590.529 908.566 596.971C896.735 613.014 879.546 630.187 858.46 633C840.562 635.386 823.808 626.228 810.551 615.383C782.783 592.664 761.14 549.395 758.056 514.269L757.916 496.249L756.87 495.177L758.648 473.423L757.026 472.147L754.691 472.503L752.986 472.358C751.544 474.462 749.347 474.96 747.813 476.844L747.353 477.514L745.649 477.369L744.612 479.346L745.052 463.45Z" fill="url(#paint12_linear_14_3899)"/>
<path d="M745.052 463.45C745.95 450.3 749.667 437.156 752.875 424.393C764.539 429.107 777.416 431.544 789.439 435.287C813.519 442.791 835.727 451.935 857.964 463.683L851.52 464.881C850.123 465.21 848.744 466.233 847.664 467.14C849.357 468.385 850.417 469.276 852.499 469.836L855.379 474.331C826.525 458.604 796.865 447.506 765.076 438.973L757.916 496.249L756.87 495.177L758.648 473.423L757.026 472.147L754.691 472.503L752.986 472.358C751.544 474.462 749.347 474.96 747.813 476.844L747.353 477.514L745.649 477.369L744.612 479.346L745.052 463.45Z" fill="#EE3D83"/>
<path d="M1253.44 455.799L1262.29 455.91C1265.11 460.256 1265.92 466.85 1266.95 471.935C1270.52 489.499 1271.95 506.987 1272.3 524.86L1272.9 534.919L1270.91 546.933C1264.3 580.367 1247.65 604.052 1225.89 629.375L1222.31 633.197C1214.8 639.086 1207.28 644.926 1199.35 650.274C1196.2 652.403 1186.57 657.256 1184.82 660.147L1177.52 663.052L1139.99 675.074C1107.78 682.01 1070.77 677.971 1042.82 660.22C1021.67 646.794 1006.88 629.182 995.632 607.219C993.304 602.672 989.76 596.413 989.01 591.35C987.082 578.325 1001.16 558.014 1008.52 547.377C1022.84 526.686 1041.53 506.991 1063.27 493.771C1083.41 481.514 1109.93 473.346 1133.09 469.061C1170.63 460.553 1209.28 457.512 1247.72 456.215L1253.44 455.799Z" fill="url(#paint13_linear_14_3899)"/>
<path d="M1236.34 466.729L1248.66 465.548C1254.67 484.997 1255.73 504.246 1255.89 524.43C1254.41 549.856 1247.88 580.263 1231.13 600.468C1229.53 595.586 1232.05 598.593 1233.09 594.591C1231.38 595.369 1231.35 595.573 1229.35 595.396C1246.78 573.628 1252.72 543.911 1251.96 516.67C1252.27 500.784 1249.5 484.3 1246.4 468.745L1235.28 469.063L1236.34 466.729Z" fill="#AE0036"/>
<path d="M1132.61 479.095L1236.34 466.729L1235.28 469.063C1215.23 470.137 1195.56 472.748 1175.66 475.209C1166.3 476.366 1155.22 476.721 1146.25 479.643L1141.53 480.223C1135.09 481.204 1128.59 483.49 1122.31 485.209C1093.12 493.195 1067.53 505.719 1047.77 529.071C1036.73 542.11 1027.53 557.441 1017.42 571.211C1017.48 569.866 1017.44 568.753 1018.11 567.533L1018.69 566.591L1020.08 563.883C1021.02 562.563 1021.83 562.287 1022.39 560.673C1022.88 559.288 1022.51 559.846 1023.46 558.751L1031.83 547.942C1034.91 544.406 1041.51 536.725 1042.13 532.155C1039.1 534.558 1037.72 537.616 1034.95 540.06L1033.57 541.303C1032.46 542.584 1031.88 543.562 1030.46 544.564L1029.18 545.442L1029.02 547.126L1024.12 550.657L1023.96 552.341C1021.14 553.575 1020.67 555.678 1018.87 557.882C1017.67 559.366 1016.5 560.622 1015.86 562.449C1015.45 563.638 1015.08 564.136 1014.23 565.064L1012.58 564.918C1017.67 553.771 1026.07 547.361 1033.93 538.504C1037.77 534.178 1040.6 529.011 1044.58 524.816C1048.99 520.17 1054.82 516.269 1059.95 512.416C1074.08 501.809 1087.59 493.684 1104.46 487.84C1113.43 484.729 1123.22 483.29 1131.88 479.436L1132.61 479.095Z" fill="#B3002E"/>
<path d="M1235.28 469.063L1246.4 468.745C1249.5 484.3 1252.27 500.784 1251.96 516.67L1251.51 515.731C1250.26 513.068 1249.72 511.54 1249.91 508.63C1249.99 507.396 1250.01 508.059 1249.62 506.679C1249 504.489 1249.37 502.073 1249.51 499.822L1247.41 500.761L1245.79 499.499C1243.19 500.889 1241.26 500.13 1238.42 501.676L1237.92 510.688L1238.95 511.912C1238.47 514.553 1237.8 516.201 1236.5 518.554L1232.39 479.363C1204.69 480.247 1175.9 483.907 1148.89 489.903C1136.05 492.753 1123.66 496.801 1110.93 500L1110.43 499.02C1111.44 497.863 1111.94 497.308 1113.46 496.801L1114.82 496.417C1117.31 495.649 1120.32 495.414 1122.57 494.207L1123.37 493.771C1125.69 493.242 1127.45 492.224 1129.58 491.729L1130.45 491.58C1131.92 491.179 1133.05 490.715 1134.61 490.62C1136.95 490.476 1138.66 490.419 1140.84 489.499C1142.17 488.941 1142.74 488.688 1144.23 488.532C1145.65 488.382 1146.49 488.169 1147.82 487.699L1149.82 487.058C1152.21 486.951 1151.89 486.983 1153.95 485.731L1156.18 486.485L1152.67 480.79C1150.16 480.366 1149.68 480.001 1147.48 481.134L1146.25 479.643C1155.22 476.721 1166.3 476.366 1175.66 475.209C1195.56 472.748 1215.23 470.137 1235.28 469.063Z" fill="url(#paint14_linear_14_3899)"/>
<path d="M1253.44 455.799L1262.29 455.909C1265.11 460.256 1265.92 466.85 1266.95 471.935C1270.52 489.499 1271.95 506.987 1272.3 524.86L1270.3 525.063C1269.22 521.035 1271.04 515.522 1268.82 512.285L1269.04 511.375C1269.48 509.507 1270.09 507.967 1269.35 506.096C1267.11 504.325 1265.41 504.621 1262.6 504.378C1260.59 505.756 1259.76 506.958 1257.23 506.735L1257.71 507.811C1259.22 511.567 1256.43 516.213 1257.23 519.752C1257.77 522.176 1258.14 521.972 1257.63 524.928L1255.89 524.43C1255.73 504.246 1254.67 484.997 1248.66 465.548L1236.34 466.729L1132.61 479.095L1133.48 477.12C1135.59 476.95 1137.3 476.583 1139.3 475.937L1139.45 474.24L1133.09 469.061C1170.63 460.553 1209.28 457.512 1247.72 456.215L1253.44 455.799Z" fill="url(#paint15_linear_14_3899)"/>
<path d="M1110.93 500C1123.66 496.801 1136.05 492.753 1148.89 489.903C1175.9 483.907 1204.69 480.247 1232.39 479.363L1236.5 518.554C1236 531.739 1235.39 546.057 1231.51 558.702C1221.02 592.854 1190 625.91 1158.02 642.297C1134.98 654.102 1107.93 660.555 1082.44 652.196C1060.11 644.876 1040.83 623.446 1030.64 603.202C1028.51 598.977 1024.15 592.025 1025.86 587.699C1037.6 558.021 1062.24 527.441 1089.48 510.429C1096.19 506.235 1103.67 503.17 1110.93 500Z" fill="url(#paint16_linear_14_3899)"/>
<path d="M1323.94 637.279L1325.16 636.051L1326.94 638.309C1303.51 695.232 1274.3 749.811 1240.97 801.665C1230.7 817.65 1220.29 834.592 1208.17 849.253L1198.74 862.136C1155.35 918.152 1108.89 966.484 1034.2 976.108C1002.92 980.139 971.542 976.763 940.938 969.723C943.561 958.682 940.296 943.512 946.262 933.317L947.961 930.233L947.584 925.375C950.626 920.152 956.926 915.6 961.416 911.485C983.538 891.222 1004.21 876.699 1032.62 865.891L1032.83 868.103C1034.67 868.422 1036.69 868.601 1038.46 869.212L1064.63 864.489C1075.48 863.579 1086.23 864.32 1097.08 864.012C1099.92 863.93 1107.03 862.797 1109.41 863.552C1110.99 864.051 1116.2 874.799 1117.49 877C1122.34 885.25 1127.76 893.203 1132.82 901.335C1137.33 908.581 1140.23 915.274 1146.96 920.815C1142.64 902.215 1127.38 882.279 1116.14 866.758C1116.38 865.458 1116.51 864.304 1116.4 862.981C1115.37 851.009 1117.42 837.857 1119.13 825.967C1125.78 779.632 1140.25 737.88 1162.2 696.435C1168.9 683.795 1178.72 673.222 1184.82 660.147C1186.57 657.256 1196.2 652.403 1199.35 650.274C1207.28 644.926 1214.8 639.086 1222.31 633.197C1244.94 635.615 1267.76 636.843 1290.49 638.023C1301.23 638.581 1313.98 642.452 1323.94 637.279Z" fill="#000001"/>
<path d="M1032.62 865.891L1032.83 868.103C1034.68 868.422 1036.69 868.601 1038.46 869.212C1000.05 878.246 975.07 904.403 947.961 930.233L947.585 925.375C950.626 920.152 956.926 915.6 961.416 911.485C983.538 891.222 1004.21 876.699 1032.62 865.891Z" fill="#282B3F"/>
<path d="M1198.74 862.136C1189.72 835 1254.6 721.166 1271.2 696.038C1276.72 687.682 1283 679.625 1288.76 671.402C1291.9 666.912 1294.41 661.793 1297.71 657.471C1301.1 653.03 1305.69 650.41 1307.89 645.076L1308.22 644.25L1310.65 643.346L1312.25 644.606C1309.28 650.47 1303.19 653.227 1299.86 658.525C1295.94 664.749 1293.27 671.665 1289.15 677.994C1284.16 685.648 1277.86 692.162 1272.77 699.556C1268.53 705.719 1265.54 713.402 1261.6 719.877C1256.66 727.967 1250.37 735.632 1245.78 743.755C1242.72 749.159 1240.97 755.269 1238.35 760.897C1226.83 785.677 1215.13 809.443 1208.99 836.265C1208.27 839.415 1206.42 844.949 1207.6 847.995L1208.17 849.253L1198.74 862.136Z" fill="#2F2F35"/>
<path d="M1321.81 190.994C1323.63 192.528 1324.22 193.076 1324.81 195.371C1325.32 197.386 1325.84 197.859 1327.37 199.234C1330.71 202.25 1332.26 206.81 1334.04 210.836L1333.91 211.143C1335.18 214.113 1336.44 216.783 1338.26 219.467C1342.24 225.369 1345.69 231.4 1348.21 238.001L1349.2 239.787C1350.56 242.394 1351.74 246.506 1354.13 248.328C1355.59 248.642 1356.38 248.591 1357.52 249.579L1357.62 250.54C1357.94 252.536 1358.96 254.035 1359.92 255.769C1360.5 256.805 1360.31 256.453 1360.5 257.658C1360.85 259.798 1361.97 261.511 1362.31 263.654C1362.64 265.732 1363.98 267.12 1364.38 269.424C1364.71 271.334 1365.23 272.933 1366 274.699C1366.74 276.405 1366.73 277.375 1366.39 279.229L1367.92 281.842C1368.56 282.988 1368.35 282.717 1368.51 284.116C1368.94 287.988 1370.86 290.745 1373.87 293.217C1390.1 360.733 1390.75 435.708 1371.86 502.825L1371.66 502.906C1368.19 522.876 1361.71 542.957 1355.36 562.197C1346.87 587.966 1337.63 613.24 1327.16 638.288L1326.94 638.309L1325.16 636.051L1323.94 637.279C1313.98 642.452 1301.23 638.581 1290.49 638.023C1267.76 636.843 1244.94 635.614 1222.31 633.197L1225.89 629.375C1247.65 604.052 1264.3 580.367 1270.91 546.933L1272.9 534.919L1272.3 524.86C1271.95 506.987 1270.52 489.499 1266.95 471.935C1265.92 466.85 1265.11 460.256 1262.29 455.909L1253.44 455.799L1247.72 456.215L1240.6 388.36C1239.52 386.068 1240.01 377.89 1239.88 375.015C1238.66 349.194 1238.32 323.488 1241.03 297.754C1241.51 293.244 1241.66 286.354 1245.37 283.41L1246.79 288.016L1246.94 287.568C1247.86 283.228 1248.72 279.238 1246.5 275.146L1311.12 202.695C1311.97 199.177 1319.07 193.638 1321.81 190.994Z" fill="#0D0813"/>
<path d="M1317.3 300.716L1321.5 297.189L1322.24 310.921C1319.8 312.349 1319.5 312.629 1318.17 315.094L1317.3 300.716Z" fill="#434253"/>
<path d="M1328.01 365.956C1328.44 368.782 1329.57 382.363 1330.95 383.774L1333.95 403.832C1332.8 404.244 1330.51 404.699 1329.82 405.632L1324.14 370.099L1325.1 369.915L1326.74 370.239C1327.46 368.817 1327.71 367.515 1328.01 365.956Z" fill="#434253"/>
<path d="M1318.17 315.094C1319.5 312.63 1319.8 312.349 1322.24 310.921L1328.01 365.956C1327.71 367.515 1327.46 368.817 1326.73 370.239L1325.1 369.915L1324.14 370.099L1318.17 315.094Z" fill="#46424D"/>
<path d="M1244.99 382.063C1245.52 392.753 1249.32 450.743 1253.44 455.799L1247.72 456.215L1240.6 388.36C1241.59 387.352 1241.24 387.86 1241.91 386.473L1242.38 385.437C1242.28 387.633 1242.04 388.818 1243.05 390.866L1244.99 382.063Z" fill="#46424D"/>
<path d="M1314.85 217.642L1316.01 208.552L1318.88 205.702C1320.94 207.623 1320.9 208.457 1320.95 211.292C1321.07 219.232 1318.47 227.771 1320.09 235.577L1321.5 297.189L1317.31 300.716L1314.85 217.642Z" fill="#46424D"/>
<path d="M1333.95 403.832C1337.79 422.585 1341.23 441.578 1345.71 460.19C1350.67 480.803 1358.4 499.865 1359.15 521.27C1349.81 494.913 1342.75 467.428 1336.72 440.179C1334.21 428.873 1330.86 417.156 1329.82 405.632C1330.51 404.699 1332.8 404.244 1333.95 403.832Z" fill="#46424D"/>
<path d="M1240.6 388.36C1239.52 386.068 1240.01 377.89 1239.88 375.015C1238.66 349.194 1238.32 323.488 1241.03 297.754C1241.51 293.244 1241.66 286.354 1245.37 283.41L1246.79 288.016C1244.7 312.53 1244.98 337.657 1244.67 362.273C1244.6 367.66 1246.16 377.155 1244.99 382.063L1243.05 390.866C1242.04 388.818 1242.28 387.633 1242.38 385.437L1241.91 386.473C1241.24 387.86 1241.59 387.352 1240.6 388.36Z" fill="#434253"/>
<path d="M1272.9 534.919C1278.32 544.472 1281.41 555.971 1285.67 566.169C1291.58 580.303 1298.65 594.094 1304.15 608.367C1308.73 617.054 1314.41 633.84 1323.94 637.279C1313.98 642.452 1301.23 638.581 1290.49 638.023C1267.76 636.843 1244.94 635.614 1222.31 633.197L1225.89 629.375C1247.65 604.052 1264.3 580.367 1270.91 546.933L1272.9 534.919Z" fill="#000001"/>
<path d="M1272.9 534.919C1278.32 544.472 1281.41 555.971 1285.67 566.169C1291.58 580.303 1298.65 594.093 1304.15 608.367L1300.36 611.287C1290.14 589.788 1277.21 565.52 1273.17 542.104L1270.91 546.933L1272.9 534.919Z" fill="#46424D"/>
<path d="M1304.15 608.367C1308.73 617.054 1314.41 633.84 1323.94 637.279C1313.98 642.452 1301.23 638.581 1290.49 638.023C1267.76 636.843 1244.94 635.614 1222.31 633.197L1225.89 629.375L1312.46 635.328L1300.36 611.287L1304.15 608.367Z" fill="#2F2F35"/>
<path d="M1321.81 190.994C1323.63 192.528 1324.22 193.076 1324.81 195.37C1325.32 197.386 1325.84 197.859 1327.37 199.234C1330.71 202.25 1332.26 206.81 1334.04 210.836L1333.91 211.143C1335.18 214.112 1336.44 216.783 1338.26 219.467C1342.24 225.369 1345.69 231.4 1348.21 238.001L1349.2 239.787C1350.56 242.394 1351.74 246.506 1354.13 248.328C1355.59 248.642 1356.38 248.591 1357.52 249.579L1357.62 250.54C1357.94 252.536 1358.96 254.035 1359.92 255.769C1360.5 256.805 1360.31 256.453 1360.5 257.658C1360.85 259.798 1361.97 261.511 1362.31 263.654C1362.64 265.732 1363.98 267.12 1364.38 269.424C1364.71 271.334 1365.23 272.933 1366 274.699C1366.74 276.405 1366.73 277.374 1366.39 279.229L1367.92 281.842C1368.56 282.987 1368.35 282.717 1368.51 284.116C1368.94 287.988 1370.86 290.745 1373.87 293.217C1390.1 360.733 1390.75 435.707 1371.86 502.825L1371.66 502.906L1369.28 506.979C1366.18 510.29 1366.16 517.269 1364.46 521.871C1361.43 517.79 1361.93 516.353 1360.93 511.69L1360.1 506.205C1359.96 504.962 1359.89 503.738 1359.59 502.523C1358.09 496.374 1356.5 490.03 1354.65 483.983L1352.85 477.834L1350.68 469.714L1349.66 468.49C1349.92 466.268 1349.74 465.011 1349 462.9L1348.32 460.754L1347.01 455.928L1346.82 454.942C1346.34 452.775 1346.33 449.702 1345.45 447.744C1344.52 445.694 1343.67 441.937 1344.14 439.705C1342.74 438.033 1343.14 438.242 1343.3 436.234L1342.27 435.01C1342.5 432.297 1341.6 430.195 1341.21 427.558C1340.95 425.805 1341.08 424.959 1340.24 423.335L1339.65 422.326L1340.08 420.666L1338.97 416.696L1338.8 415.742C1338.06 411.948 1337.5 410.072 1336.15 406.736C1335.59 405.327 1336.18 402.229 1335.84 400.493L1335.23 397.598C1334.87 394.796 1333.63 392.262 1333.67 389.483C1333.69 386.975 1332.34 385.818 1330.95 383.774C1329.57 382.363 1328.44 368.781 1328.01 365.955L1322.24 310.921L1321.5 297.189L1320.09 235.577C1318.47 227.771 1321.07 219.232 1320.95 211.292C1320.9 208.457 1320.94 207.623 1318.88 205.702L1316.01 208.552L1314.85 217.642C1314.35 212.187 1314.66 207.1 1311.12 202.695C1311.97 199.177 1319.07 193.638 1321.81 190.994Z" fill="url(#paint17_linear_14_3899)"/>
<path d="M1321.81 190.994C1323.63 192.528 1324.22 193.076 1324.81 195.37C1325.32 197.386 1325.84 197.859 1327.37 199.234C1330.71 202.25 1332.26 206.81 1334.04 210.836L1333.91 211.143C1335.18 214.112 1336.44 216.783 1338.26 219.467C1342.24 225.369 1345.69 231.4 1348.21 238.001L1349.2 239.787C1350.56 242.394 1351.74 246.506 1354.13 248.328L1353.13 253.719C1354.23 256.236 1354.21 257.235 1356.72 258.563L1357.51 261.427L1357.82 262.341C1356.51 264.115 1357.5 265.825 1357.02 268.202L1354.74 268.001L1353.5 269.021L1353.02 267.319L1352.37 264.966C1350.88 257.943 1346.48 255.334 1343.1 249.391C1339.98 243.884 1337.47 237.64 1334.57 231.971C1332.31 227.545 1329.24 223.594 1327.23 219.023C1326.56 217.512 1325.92 216.125 1325.06 214.707C1323.08 211.437 1324.54 206.432 1322.58 202.909C1322.86 200.829 1323.31 198.71 1322.56 196.682C1321.97 195.068 1322.38 195.655 1320.7 194.814C1319.03 197.071 1317.35 198.74 1315.13 200.488L1314.41 201.047L1316.2 203.478L1319.05 203.741L1320.29 202.718C1321.06 203.742 1322.81 205.705 1323.07 206.913C1323.74 209.899 1322.29 213.472 1321.9 216.434C1321.06 222.764 1320.66 229.214 1320.09 235.577C1318.47 227.771 1321.07 219.232 1320.95 211.292C1320.9 208.457 1320.94 207.623 1318.88 205.702L1316.01 208.552L1314.85 217.642C1314.35 212.187 1314.66 207.1 1311.12 202.695C1311.97 199.177 1319.07 193.638 1321.81 190.994Z" fill="#2F2F35"/>
<path d="M418.395 508.536C420.811 506.986 423.579 505.326 426.281 504.319C437.138 500.266 447.5 505.476 456.524 509.218C458.922 508.907 462.807 508.829 465.009 507.876C469.657 505.863 474.564 497.944 479.32 494.705C485.92 490.208 495.461 488.87 502.474 491.278C506.54 492.672 510.84 495.412 515.084 496.207C518.281 496.805 521.82 495.127 525.006 495.713C527.054 496.092 528.342 497.092 529.159 498.856C530.06 500.805 529.344 502.813 528.378 504.761C527.009 505.799 525.651 506.697 524.009 507.277C514.799 510.522 506.357 506.844 498.689 503.437C485.512 498.381 480.138 513.483 469.281 518.396C459.185 522.964 452.725 521.845 443.639 517.978C439.877 516.376 435.754 514.413 431.243 515.362C425.59 516.552 420.727 523.197 416.613 526.904C413.059 530.104 408.792 532.244 404.14 533.339C400.732 534.141 395.311 534.962 392.542 533.083C390.14 531.454 390.144 529.75 390.103 527.133C390.821 525.8 391.58 524.051 392.851 523.074C395.059 521.375 400.775 522.207 403.514 522.221L418.395 508.536Z" fill="#B10028"/>
<path d="M424.014 265.349C426.852 264.916 430.056 264.527 432.934 264.706C444.5 265.42 451.846 274.396 458.566 281.485C460.884 282.178 464.464 283.686 466.864 283.712C471.929 283.764 479.633 278.527 485.295 277.503C493.154 276.081 502.414 278.74 507.841 283.793C510.988 286.721 513.801 290.973 517.354 293.427C520.031 295.273 523.947 295.181 526.619 297.012C528.336 298.192 529.105 299.628 529.134 301.573C529.164 303.72 527.693 305.263 526.018 306.65C524.345 307.04 522.739 307.308 521.004 307.17C511.269 306.387 505.055 299.593 499.436 293.36C489.456 283.381 478.403 294.99 466.486 295.06C455.405 295.125 449.959 291.475 443.233 284.246C440.448 281.252 437.48 277.78 432.973 276.813C427.325 275.599 420.179 279.691 414.912 281.403C410.364 282.881 405.596 283.099 400.901 282.207C397.461 281.553 392.175 280.097 390.41 277.255C388.878 274.788 389.575 273.234 390.603 270.827C391.801 269.901 393.206 268.612 394.764 268.237C397.473 267.583 402.356 270.669 404.852 271.796L424.014 265.349Z" fill="#B10028"/>
<path d="M513.198 56.3187C515.715 57.6979 518.497 59.3342 520.675 61.2243C529.431 68.8162 529.816 80.4079 530.85 90.1218C532.271 92.0789 534.199 95.452 536.09 96.93C540.082 100.047 549.384 100.565 554.504 103.19C561.612 106.833 567.353 114.569 568.597 121.879C569.318 126.116 568.971 131.203 570.304 135.31C571.31 138.402 574.477 140.707 575.487 143.785C576.135 145.765 575.874 147.373 574.716 148.936C573.436 150.659 571.33 150.992 569.157 151.077C567.591 150.371 566.152 149.609 564.857 148.445C557.599 141.911 556.788 132.74 556.109 124.376C554.24 110.387 538.409 112.897 528.898 105.716C520.055 99.0381 517.945 92.8307 516.991 83.0029C516.597 78.933 516.347 74.3726 513.354 70.8669C509.604 66.4731 501.442 65.3837 496.218 63.5458C491.707 61.9578 487.786 59.2356 484.597 55.6753C482.262 53.0673 478.946 48.6998 479.27 45.3697C479.551 42.4805 481.049 41.6684 483.327 40.3806C484.841 40.3723 486.74 40.2015 488.206 40.8497C490.755 41.9755 492.761 47.3921 494.059 49.8039L513.198 56.3187Z" fill="#B10028"/>
</g>
<defs>
<linearGradient id="paint0_linear_14_3899" x1="918.544" y1="107.203" x2="909.083" y2="93.8884" gradientUnits="userSpaceOnUse">
<stop stop-color="#2B3045"/>
<stop offset="1" stop-color="#43495C"/>
</linearGradient>
<linearGradient id="paint1_linear_14_3899" x1="764.899" y1="350.588" x2="751.068" y2="347.206" gradientUnits="userSpaceOnUse">
<stop stop-color="#211F33"/>
<stop offset="1" stop-color="#36384A"/>
</linearGradient>
<linearGradient id="paint2_linear_14_3899" x1="964.669" y1="300.323" x2="857.201" y2="196.009" gradientUnits="userSpaceOnUse">
<stop stop-color="#100617"/>
<stop offset="1" stop-color="#25293E"/>
</linearGradient>
<linearGradient id="paint3_linear_14_3899" x1="924.513" y1="338.657" x2="836.368" y2="286.868" gradientUnits="userSpaceOnUse">
<stop stop-color="#1A1325"/>
<stop offset="1" stop-color="#444357"/>
</linearGradient>
<linearGradient id="paint4_linear_14_3899" x1="1239.63" y1="270.289" x2="1169.67" y2="17.6392" gradientUnits="userSpaceOnUse">
<stop stop-color="#09000D"/>
<stop offset="1" stop-color="#2C3146"/>
</linearGradient>
<linearGradient id="paint5_linear_14_3899" x1="1043.71" y1="56.0069" x2="1041.43" y2="42.6726" gradientUnits="userSpaceOnUse">
<stop stop-color="#2F3248"/>
<stop offset="1" stop-color="#464C60"/>
</linearGradient>
<linearGradient id="paint6_linear_14_3899" x1="1304.58" y1="185.469" x2="1307.52" y2="53.1687" gradientUnits="userSpaceOnUse">
<stop stop-color="#100617"/>
<stop offset="1" stop-color="#2A2E42"/>
</linearGradient>
<linearGradient id="paint7_linear_14_3899" x1="1041.25" y1="330.863" x2="1076.55" y2="296.006" gradientUnits="userSpaceOnUse">
<stop stop-color="#1B1523"/>
<stop offset="1" stop-color="#342F3E"/>
</linearGradient>
<linearGradient id="paint8_linear_14_3899" x1="983.159" y1="286.111" x2="927.629" y2="197.081" gradientUnits="userSpaceOnUse">
<stop stop-color="#241D2C"/>
<stop offset="1" stop-color="#504F63"/>
</linearGradient>
<linearGradient id="paint9_linear_14_3899" x1="937.48" y1="932.973" x2="860.325" y2="950.011" gradientUnits="userSpaceOnUse">
<stop/>
<stop offset="1" stop-color="#262434"/>
</linearGradient>
<linearGradient id="paint10_linear_14_3899" x1="872.676" y1="652.169" x2="837.572" y2="457.188" gradientUnits="userSpaceOnUse">
<stop stop-color="#C7002D"/>
<stop offset="1" stop-color="#E81B6B"/>
</linearGradient>
<linearGradient id="paint11_linear_14_3899" x1="737.813" y1="527.051" x2="725.037" y2="414.583" gradientUnits="userSpaceOnUse">
<stop stop-color="#DC115C"/>
<stop offset="1" stop-color="#F65A9F"/>
</linearGradient>
<linearGradient id="paint12_linear_14_3899" x1="862.021" y1="629.719" x2="809.1" y2="431.28" gradientUnits="userSpaceOnUse">
<stop stop-color="white"/>
<stop offset="1" stop-color="white"/>
</linearGradient>
<linearGradient id="paint13_linear_14_3899" x1="1058.71" y1="666.348" x2="1160.38" y2="453.364" gradientUnits="userSpaceOnUse">
<stop stop-color="#CC0036"/>
<stop offset="1" stop-color="#EB2767"/>
</linearGradient>
<linearGradient id="paint14_linear_14_3899" x1="1237.62" y1="501.041" x2="1240.7" y2="470.707" gradientUnits="userSpaceOnUse">
<stop stop-color="#EA3A74"/>
<stop offset="1" stop-color="#F459A9"/>
</linearGradient>
<linearGradient id="paint15_linear_14_3899" x1="1251.76" y1="458.14" x2="1247.85" y2="505.405" gradientUnits="userSpaceOnUse">
<stop stop-color="#FA5BA4"/>
<stop offset="1" stop-color="#EC3973"/>
</linearGradient>
<linearGradient id="paint16_linear_14_3899" x1="1064.51" y1="639.693" x2="1196.03" y2="458.292" gradientUnits="userSpaceOnUse">
<stop stop-color="white"/>
<stop offset="1" stop-color="white"/>
</linearGradient>
<linearGradient id="paint17_linear_14_3899" x1="1361.4" y1="517.639" x2="1440.77" y2="490.436" gradientUnits="userSpaceOnUse">
<stop/>
<stop offset="1" stop-color="#24222B"/>
</linearGradient>
<clipPath id="clip0_14_3899">
<rect width="1920" height="1080" fill="white"/>
</clipPath>
</defs>
</svg>
