<svg width="1920" height="1080" viewBox="0 0 1920 1080" fill="none" xmlns="http://www.w3.org/2000/svg">
<g clip-path="url(#clip0_14_4002)">
<path d="M719.515 791L722.072 788.049L723.748 788.718L724.144 791.799L721.244 795.918L720.309 798.032L716.597 807.572L709.581 786.156C711.454 788.058 713.747 789.605 714.276 792.151L716.071 791.816L719.515 791Z" fill="#484859"/>
<path d="M1289.15 184.069C1305.02 210.272 1320.42 236.652 1329.36 265.643C1319.71 258.631 1320.46 253.055 1315.39 243.859C1309.99 234.051 1303.28 224.582 1297.27 215.055C1291.55 205.998 1289.01 199.068 1281.13 191.025C1282.84 188.265 1286.51 186.082 1289.15 184.069Z" fill="#555262"/>
<path d="M629.973 390.295C628.021 379.501 630.477 364.617 631.986 353.746C638.305 308.247 649.513 263.836 672.553 223.123C673.848 226.912 675.83 229.989 677.659 233.541L674.14 233.261C673.402 234.587 673.215 235.225 673.043 236.734C672.796 238.933 671.151 240.755 670.387 242.939C667.038 252.498 662.043 261.269 658.477 270.702C657.395 279.962 653.322 287.506 650.566 296.263C646.57 308.964 642.685 322.447 639.827 335.43C636.198 351.921 638.018 370.914 631.229 386.731L629.973 390.295Z" fill="#717786"/>
<path d="M631.229 386.731C630.285 376.131 631.118 354.152 635.71 345.016C636.838 342.778 635.553 338.507 636.681 336.266C638.3 333.049 638.77 329.918 640.265 326.642C641.147 324.716 640.978 320.213 641.222 317.984C641.578 314.768 644.495 306.083 646.588 303.745L645.472 302.43L646.843 301.415C646.999 299.662 647.118 298.129 647.677 296.445L649.136 292.218C650.217 288.86 651.771 285.824 653.355 282.657C654.105 281.157 654.629 279.735 655.133 278.135C655.969 275.464 657.148 273.174 658.477 270.702C657.395 279.962 653.322 287.506 650.566 296.263C646.57 308.964 642.685 322.447 639.827 335.43C636.199 351.921 638.018 370.914 631.229 386.731Z" fill="#686D7D"/>
<path d="M659.762 611.691C663.502 614.625 666.903 617.379 669.93 620.999C671.818 626.662 675.77 634.179 676.26 639.906C677.512 652.393 683.593 666.496 686.941 678.959C689.938 690.112 691.939 701.437 694.991 712.594C698.6 730.825 706.779 747.516 702.452 766.011L659.762 611.691Z" fill="#626575"/>
<path d="M658.477 270.702C662.043 261.269 667.039 252.498 670.387 242.939C671.151 240.755 672.796 238.933 673.043 236.734C673.215 235.225 673.402 234.587 674.14 233.261L677.659 233.54C678.697 235.78 680.201 238.055 680.086 240.497C681.214 242.75 682.186 245.239 683.827 247.209L683.335 248.046C684.122 249.15 685.302 251.407 686.423 252.116L674.467 317.136L659.825 369.677L655.551 384.561L653.098 392.69L650.738 398.568C650.22 401.425 649.946 404.436 648.615 407.05C645.122 408.7 641.783 407.815 638.059 407.262L637.047 407.016C633.464 405.977 633.291 405.651 629.672 407L629.973 390.295L631.229 386.731C638.018 370.914 636.199 351.921 639.827 335.43C642.685 322.447 646.57 308.964 650.566 296.263C653.322 287.506 657.395 279.962 658.477 270.702Z" fill="#484859"/>
<path d="M658.477 270.702C662.043 261.269 667.039 252.498 670.387 242.939C671.151 240.755 672.796 238.933 673.043 236.734C673.215 235.225 673.402 234.587 674.14 233.261L677.659 233.54C678.697 235.78 680.201 238.055 680.086 240.497C668.025 248.9 664.271 275.249 658.239 287.905C653.673 297.482 651.406 308.763 649.004 318.99C644.404 338.549 640.879 358.282 639.026 378.281C638.142 387.786 638.48 397.61 637.047 407.016C633.464 405.977 633.291 405.651 629.672 407L629.973 390.295L631.229 386.731C638.018 370.914 636.199 351.921 639.827 335.43C642.685 322.447 646.57 308.964 650.566 296.263C653.322 287.506 657.395 279.962 658.477 270.702Z" fill="#626575"/>
<path d="M647.886 376.958C646.43 365.621 648.938 352.352 650.484 341.168C651.897 330.941 654.973 321.376 657.776 311.471C659.586 305.08 660.91 298.313 663.494 292.173C669.912 276.917 677.353 264.989 680.347 248.504L683.334 248.046C684.122 249.149 685.302 251.407 686.423 252.116L674.466 317.136L659.824 369.677L655.551 384.561L653.098 392.69L650.738 398.568C650.22 401.425 649.946 404.436 648.615 407.05L645.713 406.158C643.285 398.519 646.9 385.133 647.886 376.958Z" fill="url(#paint0_linear_14_4002)"/>
<path d="M647.886 376.959L649.744 367.774C652.368 365.793 650.579 363.991 653.683 361.722C654.583 363.976 655.527 366.118 656.041 368.475C653.573 371.297 654.291 376.373 654.088 380.044L654.997 380.726L656.252 375.268L657.909 374.565C657.779 372.621 657.211 371.596 658.465 369.985L659.824 369.677L655.551 384.561L653.098 392.69L650.738 398.568C650.22 401.425 649.946 404.436 648.614 407.05L645.713 406.159C643.285 398.519 646.9 385.133 647.886 376.959Z" fill="#433F4F"/>
<path d="M653.683 361.722C654.583 363.976 655.527 366.118 656.041 368.475C653.573 371.297 654.291 376.373 654.088 380.044L654.997 380.726L656.252 375.268L657.908 374.565C657.779 372.621 657.211 371.596 658.465 369.985L659.824 369.678L655.551 384.561L653.098 392.69L650.738 398.568C647.359 388.076 652.666 372.684 653.683 361.722Z" fill="#26273A"/>
<path d="M721.243 795.918L723.521 797.601L730.534 803.605L730.479 807.144L731.549 806.086C733.501 809.555 731.09 811.317 735.113 814.137L735.54 818.568C735.891 821.907 736.339 823.469 738.844 825.999L741.818 827.3C744.155 837.635 744.374 838.432 754.078 844.343C763.417 850.034 771.401 856.364 779.684 863.319C781.966 865.233 786.671 868.48 788.012 871.025L788.319 872.411L789.121 875.229L787.974 877.498L804.134 895.062C804.402 897.404 804.58 899.607 805.373 901.856C807.433 907.701 804.013 914.646 806.862 919.885C809.327 924.416 810.687 929.722 812.982 934.403C814.529 937.559 817.307 940.119 817.476 943.658C817.608 946.438 817.276 942.389 818.347 945.912C818.957 947.927 819.207 949.838 819.894 951.976L820.212 954.964L820.572 957.361L819.946 957.993C818.151 959.992 817.389 962.134 816.605 964.588C815.073 969.397 815.13 970.037 810.649 972.654L809.423 972.368C807.892 972.068 806.996 972.133 805.498 972.371L802.833 970.922C782.991 958.282 768.949 935.569 758.599 915.865C754.901 908.829 750.511 901.18 748.649 893.554C744.047 886.353 741.409 876.831 738.429 868.946C730.741 848.61 723.71 828.078 716.597 807.572L720.309 798.032L721.243 795.918Z" fill="url(#paint1_linear_14_4002)"/>
<path d="M721.243 795.918L723.521 797.601L730.534 803.605L730.479 807.144L731.549 806.086C733.501 809.555 731.09 811.317 735.113 814.137L735.54 818.568C735.891 821.907 736.339 823.469 738.844 825.999L741.818 827.3C744.155 837.635 744.374 838.432 754.078 844.343C763.417 850.034 771.401 856.364 779.684 863.319C781.966 865.233 786.671 868.48 788.012 871.025L788.319 872.411L789.121 875.229L787.974 877.498C774.902 866.836 762.952 853.123 745.629 848.899L743.735 850.462C743.596 853.991 744.089 855.682 745.759 858.836C749.791 866.452 753.515 878.252 755.641 886.562L753.929 886.375L750.487 877.151L748.664 876.363C747.726 873.566 746.625 873.367 744.084 871.73L743.261 873.422L743.758 874.264C744.448 875.487 744.67 876.466 744.922 877.795C745.303 879.815 746.61 881.745 747.195 883.868L747.963 885.686C749.14 888.445 748.887 890.697 748.649 893.554C744.047 886.353 741.409 876.831 738.429 868.946C730.741 848.61 723.71 828.078 716.597 807.572L720.309 798.032L721.243 795.918Z" fill="url(#paint2_linear_14_4002)"/>
<path d="M721.243 795.918L723.521 797.602L730.534 803.605L730.479 807.144L731.549 806.087C733.501 809.555 731.09 811.318 735.113 814.137L735.54 818.568C735.891 821.907 736.339 823.469 738.844 825.999L737.103 836.754L735.217 836.548C733.151 836.05 731.897 834.69 730.788 833.122L729.457 831.207C727.938 829.437 727.255 829.16 726.683 826.854C725.818 823.362 723.885 816.804 721.782 813.853C720.116 811.518 721.055 808.921 721.353 806.139L722.739 805.11L721.619 803.822L722.739 802.752L720.309 798.032L721.243 795.918Z" fill="#26273A"/>
<path d="M976.079 19.5988L981.605 18.0083C988.037 16.1578 997.348 17.1798 1004.12 17.2474C1047.18 17.6853 1092.62 26.8343 1131.24 45.6458L1135.07 47.9435C1145.12 50.6381 1158.89 58.565 1167.09 64.6438C1217.28 92.7836 1254.09 135.005 1286.38 179.473L1289.15 184.069C1286.51 186.081 1282.84 188.265 1281.13 191.024C1279.12 193.274 1276.96 196.374 1274.37 198.015C1272.88 196.698 1271.31 195.663 1269.65 194.551L1267.55 194.059C1262.6 192.025 1257.33 191.246 1252.07 190.25C1243.32 189.184 1234.42 186.102 1225.88 183.824C1185.79 173.122 1149.31 157.286 1113.42 137.611C1104.3 132.609 1092.63 127.028 1085.5 119.69C1054.39 98.1312 1028.31 72.9402 1001.11 47.4521C1000.38 45.5067 996.512 42.1873 994.993 40.5082C988.692 33.5377 982.391 26.5613 976.079 19.5988Z" fill="url(#paint3_linear_14_4002)"/>
<path d="M1188.8 167.518C1190.47 162.299 1195.44 160.542 1200.05 157.907C1204.99 158.333 1206.82 158.563 1211.2 160.721C1213.21 161.714 1215.84 161.67 1218 162.655C1219.95 163.545 1222.08 163.745 1224.2 164.076L1224.85 164.616C1226.31 165.745 1225.72 165.273 1227.58 166.312C1230.96 168.204 1233.48 171.681 1236.78 174.005C1239.18 175.696 1240.02 177.237 1242.96 178.513C1244.83 177.893 1244.08 178.457 1245.08 176.682L1247.24 177.484L1247.39 177.941L1254.76 184.143L1254.41 185.712C1232.78 183.465 1209.36 174.087 1188.8 167.518Z" fill="#140F20"/>
<path d="M1086.56 115.983C1095.3 120.059 1102.93 126.686 1111.3 131.503C1135.81 145.609 1161.77 158.366 1188.8 167.518C1209.36 174.087 1232.78 183.465 1254.41 185.712L1254.02 186.665L1252.07 190.25C1243.32 189.184 1234.42 186.102 1225.88 183.825C1185.79 173.122 1149.31 157.286 1113.42 137.612C1104.3 132.609 1092.63 127.029 1085.5 119.69L1086.56 115.983Z" fill="#433F4F"/>
<path d="M976.079 19.5988L981.605 18.0083C988.037 16.1578 997.348 17.1798 1004.12 17.2474C1047.18 17.6853 1092.62 26.8343 1131.24 45.6458L1135.07 47.9435C1145.12 50.6381 1158.89 58.565 1167.09 64.6438C1217.28 92.7836 1254.09 135.005 1286.38 179.473L1289.15 184.069C1286.51 186.081 1282.84 188.265 1281.13 191.024C1279.12 193.274 1276.96 196.374 1274.37 198.015C1272.88 196.698 1271.31 195.663 1269.65 194.551L1267.55 194.059C1262.6 192.025 1257.33 191.246 1252.07 190.25L1254.02 186.665L1254.41 185.712L1254.76 184.143L1247.39 177.941C1251.65 179.189 1252.8 178.916 1257.08 177.405L1253.34 176.69C1251.81 174.813 1250.36 172.882 1248.27 171.5L1247.01 170.694C1246.69 166.764 1239.64 160.811 1237.8 156.786L1237.22 155.467L1234.67 154.004C1232.3 152.486 1230.37 150.75 1229.76 148.17C1228.31 147.211 1227.07 146.605 1226.23 145.12C1225.53 143.891 1224.7 142.942 1223.41 142.161C1216.96 138.236 1213.25 130.52 1207.58 125.497C1205.65 123.784 1203.88 121.964 1201.74 120.479L1200.44 119.594C1200.02 115.483 1197.9 115.767 1196.81 112.701C1196.43 111.639 1196.91 108.832 1196.94 107.6C1194.95 102.419 1155.99 79.1123 1148.74 74.6772C1145.21 72.5155 1140.48 71.9108 1138.48 68.4271C1121.6 60.8632 1104.85 53.5104 1086.89 48.5042C1064.63 42.2958 1041.43 40.2038 1018.43 38.1514C1012.61 37.6323 1003.51 35.3108 998.338 37.9151C1025.07 65.3264 1053.24 95.336 1086.56 115.983L1085.5 119.69C1054.39 98.1312 1028.31 72.9402 1001.11 47.4521C1000.38 45.5067 996.512 42.1873 994.993 40.5082C988.692 33.5377 982.391 26.5613 976.079 19.5988Z" fill="#545E75"/>
<path d="M992.714 24.7622C1003.83 22.4857 1013.91 23.4645 1025.16 23.9561C1042.5 24.713 1061.13 26.4977 1077.79 31.2896L1086.61 33.1638C1088.16 33.59 1089.36 33.7493 1090.94 33.9305C1093.21 34.1882 1093.79 34.6026 1095.76 35.6151C1097.81 36.6699 1100.41 37.3135 1102.69 37.7022C1104.54 38.0162 1105.22 38.3563 1106.82 39.184C1109.87 40.7557 1112.06 41.0832 1115.49 41.3137L1116.22 41.9431C1118.48 43.7029 1121.86 44.2539 1124.65 44.7978C1126.96 45.2468 1126.03 44.9821 1127.98 45.8817C1130.29 46.9405 1132.59 47.3999 1135.07 47.9436C1145.12 50.6382 1158.89 58.5651 1167.09 64.6439C1162.46 64.3088 1158.78 62.6475 1154.37 61.4855C1152.69 61.0411 1151.16 60.8466 1149.77 59.7615C1148.25 58.5777 1144.01 58.5906 1141.87 58.3596C1129.07 51.3579 1116.5 47.2489 1102.6 42.868C1077.98 35.1088 1055.53 29.9885 1029.68 27.788C1017.24 26.7311 1004.68 28.4696 992.714 24.7622Z" fill="#717786"/>
<path d="M1138.48 68.4271C1141.04 68.2122 1142.54 68.8992 1144.8 69.8741C1148.65 71.5395 1153.05 73.0269 1156.64 75.116C1162.33 78.4357 1167.96 83.1372 1173.92 85.7076C1175.68 86.4642 1177.15 87.7702 1178.63 88.9188C1181.23 90.9526 1184.26 92.4704 1186.91 94.5426C1189.17 96.3024 1191.52 97.5015 1193.74 99.4169C1197.83 102.954 1202.6 105.62 1206.67 109.088L1208.36 110.381C1212.48 113.544 1215.18 117.759 1219.41 120.505L1220.46 121.432C1221.58 122.406 1222.24 122.825 1223.49 123.533C1225.37 124.594 1226.2 125.69 1227.53 127.263C1232.19 132.789 1239.39 138.553 1244.33 143.914C1252.03 152.254 1258.02 161.168 1265.27 169.517C1269.06 173.868 1278.06 182.04 1278.78 187.228L1283.65 182.208L1286.38 179.473L1289.14 184.069C1286.51 186.081 1282.84 188.265 1281.13 191.024C1279.12 193.274 1276.96 196.375 1274.37 198.015C1272.88 196.698 1271.31 195.663 1269.65 194.551L1267.55 194.059C1262.6 192.025 1257.33 191.246 1252.07 190.25L1254.02 186.665L1279.74 189.302C1273.74 183.207 1267.26 177.654 1261.5 171.293C1251.26 159.981 1242.21 148.163 1231.49 137.106C1228.02 133.538 1224.28 128.632 1219.74 126.405C1216.55 124.839 1215.69 122.425 1213.2 120.121C1208.16 115.454 1202.99 111.089 1196.94 107.6C1194.95 102.419 1155.99 79.1124 1148.74 74.6772C1145.21 72.5156 1140.48 71.9109 1138.48 68.4271Z" fill="#555262"/>
<path d="M1286.38 179.473L1289.14 184.069C1286.51 186.081 1282.84 188.265 1281.13 191.024C1279.12 193.274 1276.96 196.374 1274.37 198.014C1272.88 196.698 1271.31 195.663 1269.65 194.551L1267.55 194.059C1266.27 192.137 1265.97 192.092 1266.31 189.916L1276.01 190.392L1278.78 187.228L1283.65 182.208L1286.38 179.473Z" fill="#717786"/>
<path d="M1196.94 107.6C1202.99 111.089 1208.16 115.454 1213.2 120.121C1215.69 122.425 1216.55 124.839 1219.74 126.405C1224.28 128.632 1228.02 133.538 1231.49 137.106C1242.21 148.163 1251.26 159.981 1261.5 171.293C1267.26 177.654 1273.74 183.207 1279.74 189.302L1254.02 186.665L1254.41 185.712L1254.76 184.143L1247.39 177.941C1251.65 179.189 1252.8 178.916 1257.08 177.405L1253.34 176.69C1251.81 174.813 1250.36 172.882 1248.27 171.5L1247.01 170.694C1246.69 166.764 1239.64 160.811 1237.8 156.786L1237.22 155.467L1234.67 154.004C1232.3 152.486 1230.37 150.75 1229.76 148.17C1228.31 147.211 1227.07 146.605 1226.23 145.12C1225.53 143.891 1224.7 142.942 1223.41 142.161C1216.96 138.236 1213.25 130.52 1207.58 125.497C1205.65 123.784 1203.88 121.964 1201.74 120.479L1200.44 119.594C1200.02 115.483 1197.9 115.767 1196.81 112.701C1196.43 111.64 1196.91 108.832 1196.94 107.6Z" fill="#26273A"/>
<path d="M1141.87 58.3596C1144.01 58.5905 1148.25 58.5776 1149.77 59.7614C1151.16 60.8465 1152.69 61.0411 1154.37 61.4854C1158.78 62.6475 1162.46 64.3088 1167.09 64.6438C1217.28 92.7836 1254.09 135.005 1286.38 179.473L1283.65 182.208L1281.68 179.218C1279.26 172.845 1270.54 167.554 1266.49 161.035C1260.43 151.292 1251.76 143.444 1244.28 134.804C1242.07 132.249 1237.56 125.478 1234.61 124.21C1232.33 123.226 1231.02 121.18 1229.03 119.794C1219.85 113.363 1212.07 103.534 1202.74 96.6644C1183.1 82.1944 1162.6 71.107 1141.87 58.3596Z" fill="#686D7D"/>
<path d="M976.079 19.5988L981.605 18.0083C988.037 16.1578 997.348 17.1798 1004.12 17.2474C1047.18 17.6853 1092.62 26.8343 1131.24 45.6458L1135.07 47.9435C1132.59 47.3998 1130.29 46.9404 1127.98 45.8816C1126.03 44.982 1126.96 45.2467 1124.65 44.7977C1121.86 44.2538 1118.48 43.7028 1116.22 41.943L1115.49 41.3136C1112.06 41.0831 1109.87 40.7556 1106.82 39.1839C1105.22 38.3562 1104.54 38.0161 1102.69 37.7021C1100.41 37.3134 1097.81 36.6698 1095.76 35.615C1093.79 34.6025 1093.21 34.1881 1090.94 33.9304C1089.36 33.7492 1088.16 33.5899 1086.61 33.1637L1077.79 31.2895C1061.13 26.4976 1042.5 24.7129 1025.16 23.956C1013.91 23.4644 1003.83 22.4856 992.714 24.7621L988.195 24.5937L987.827 25.577C989.83 27.9855 995.916 36.9282 998.338 37.9151C1025.07 65.3264 1053.24 95.336 1086.56 115.983L1085.5 119.69C1054.39 98.1312 1028.31 72.9402 1001.11 47.4521C1000.38 45.5067 996.512 42.1873 994.993 40.5082C988.692 33.5377 982.391 26.5613 976.079 19.5988Z" fill="#757E8D"/>
<path d="M948.792 21.6096L957.42 20.1141L956.81 32.7055L955.791 47.4986L958.768 47.284L957.978 56.0237C954.875 70.6523 952.118 85.2823 949.773 100.042C948.73 106.589 946.872 114.403 947.604 121.02C946.856 122.877 946.629 124.422 944.931 125.677C943.523 126.821 938.514 130.126 938.094 131.52L927.58 139.712C867.957 195.236 788.603 255.624 698.69 254.355L695.865 254.224C695.458 252.41 694.731 252.119 693.379 250.812C690.181 249.287 689.675 247.662 687.865 244.833L683.827 247.209C682.186 245.238 681.214 242.75 680.086 240.497C680.201 238.055 678.698 235.78 677.659 233.54C675.83 229.988 673.848 226.912 672.553 223.122C684.934 199.032 699.421 176.947 717.409 156.114L724.391 147.675C727.913 143.492 731.253 139.107 735.73 135.754L737.168 133.891C750.056 119.092 765.59 106.549 781.451 94.6154C817.318 67.6325 855.335 46.8608 899.341 32.9951C914.844 28.1092 932.454 23.0523 948.792 21.6096Z" fill="#26273A"/>
<path d="M734.712 151.175L737.742 152.564C734.842 167.782 718.423 180.887 709.209 193.243C701.857 203.1 697.04 213.812 689.188 223.636C687.939 225.199 682.893 230.885 682.79 232.632C682.649 235.08 686.968 241.867 687.864 244.833L683.826 247.209C682.186 245.239 681.214 242.75 680.086 240.498C680.2 238.055 678.697 235.78 677.659 233.54L680.542 231.927L679.308 227.697C682.275 223.057 684.075 218.517 688.174 214.511C689.344 213.368 690.151 212.838 690.743 211.332C693.249 204.951 699.202 199.687 701.645 193.469C702.11 192.282 701.841 192.593 702.672 191.667C709.506 184.041 718.203 173.344 722.642 164.3C724.55 160.408 727.433 157.634 730.052 154.177L734.712 151.175Z" fill="#6E7387"/>
<path d="M861.704 82.8751L864.432 85.3024C837.205 103.088 809.982 119.657 780.322 133.819C771.144 138.201 762.173 142.881 752.45 146.205L737.743 152.563L734.713 151.175L730.053 154.177L717.409 156.114L724.391 147.675C727.913 143.492 731.253 139.107 735.73 135.754C743.047 134.634 748.101 129.426 753.343 125.129L761.017 118.275L763.196 118.634L733.412 147.768C737.739 146.702 753.427 143.675 755.593 140.216C766.433 136.964 775.993 132.162 786.05 127.347C793.542 123.761 801.53 120.345 808.169 115.485C812.932 113.446 817.031 110.805 821.32 108.041L857.898 84.8892L861.704 82.8751Z" fill="#717786"/>
<path d="M724.39 147.675C727.978 149.321 730.152 149.634 734.096 149.281L734.712 151.175L730.052 154.177L717.409 156.115L724.39 147.675Z" fill="#8B8F9F"/>
<path d="M717.409 156.115L730.052 154.177C727.433 157.635 724.55 160.408 722.642 164.3C718.204 173.344 709.506 184.041 702.673 191.667C701.842 192.594 702.11 192.282 701.645 193.469C699.202 199.687 693.249 204.951 690.743 211.332C690.152 212.838 689.344 213.368 688.174 214.511C684.075 218.517 682.275 223.057 679.308 227.697L680.542 231.927L677.659 233.541C675.83 229.989 673.848 226.912 672.553 223.123C684.934 199.032 699.421 176.947 717.409 156.115Z" fill="#757E8D"/>
<path d="M948.792 21.6095L957.42 20.114L956.81 32.7054L955.791 47.4985L958.768 47.2839L957.978 56.0237C954.875 70.6522 952.118 85.2823 949.773 100.042C948.73 106.589 946.872 114.403 947.603 121.02C946.856 122.877 946.629 124.422 944.931 125.677C943.523 126.821 938.514 130.126 938.094 131.52L927.58 139.712L924.021 137.357C929.124 132.504 937.692 126.029 940.695 120.014C943.921 113.542 943.99 102.791 945.212 95.5902C948.289 77.4381 952.812 59.1784 954.101 40.8305C949.208 41.9045 943.115 43.9854 938.093 43.5716C939.133 42.3689 939.942 41.2285 940.726 39.8649L937.583 39.5088L936.197 40.5378L933.368 40.2341L932.049 40.6786L930.538 39.9304L928.274 43.2095L922.453 44.1154C925.319 40.1504 929.741 37.3612 933.714 34.3929C936.415 31.6176 939.674 29.299 943.182 27.4544C946.189 25.8721 947.216 24.4567 948.792 21.6095Z" fill="#626575"/>
<path d="M948.791 21.6097L957.42 20.1141L956.81 32.7056C954.116 32.6523 951.309 32.2031 949.031 33.7081C946.347 33.4054 946.076 32.5786 944.131 31.9942C942.05 31.3679 935.826 33.6308 933.714 34.393C936.414 31.6177 939.674 29.2991 943.182 27.4546C946.188 25.8722 947.216 24.4568 948.791 21.6097Z" fill="#686D7D"/>
<path d="M924.02 137.357L927.58 139.712C867.957 195.236 788.603 255.624 698.69 254.356L695.864 254.224C695.457 252.41 694.73 252.119 693.378 250.812C704.531 249.762 715.832 249.824 726.901 248.134C792.18 238.17 842.157 206.68 890.187 166.857C901.735 157.281 912.433 146.848 924.02 137.357Z" fill="#555262"/>
<path d="M735.73 135.754L737.168 133.891C750.056 119.093 765.59 106.549 781.451 94.6156C817.318 67.6327 855.335 46.8609 899.341 32.9953C914.844 28.1094 932.454 23.0525 948.792 21.6097C947.216 24.4569 946.189 25.8723 943.182 27.4546C939.675 29.2992 936.415 31.6178 933.714 34.3931C929.741 37.3614 925.319 40.1506 922.453 44.1156L864.432 85.3025L861.704 82.8753L857.898 84.8894L821.32 108.041C817.031 110.806 812.932 113.446 808.169 115.485C801.53 120.345 793.542 123.761 786.05 127.347C775.993 132.162 766.433 136.964 755.593 140.217C753.427 143.676 737.739 146.702 733.412 147.769L763.196 118.634L761.017 118.275L753.343 125.129C748.101 129.426 743.047 134.634 735.73 135.754Z" fill="#626575"/>
<path d="M833.935 77.4412C841.772 74.3101 847.53 68.7501 854.969 65.1709C861.679 61.9466 869.62 58.3437 876.637 55.8566C883.485 53.4294 890.701 52.3955 897.504 49.6615C904.113 47.0059 909.896 40.7935 917.242 40.8094C913.339 44.5976 909.704 48.5298 904.796 51.2144L902.534 50.1849C893.647 53.6843 870.592 69.9608 861.956 67.8107L861.166 69.2854L838.355 80.7423C831.591 82.5203 825.52 86.663 819.02 89.2459L833.935 77.4412Z" fill="#545E75"/>
<path d="M838.355 80.7424L861.166 69.2856L861.956 67.8109C870.592 69.961 893.647 53.6844 902.534 50.1851L904.795 51.2146C901.926 53.4733 889.493 64.3841 886.772 64.4215L861.704 82.8753L857.898 84.8895L855.907 82.5156L850.669 83.8989L850.113 83.0258L855.267 78.4566C851.331 79.4209 842.132 83.0974 838.829 82.3585L838.355 80.7424Z" fill="#484859"/>
<path d="M855.267 78.4564C863.591 75.2126 878.427 63.3026 886.772 64.4213L861.704 82.8751L857.898 84.8893L855.907 82.5154L850.668 83.8987L850.113 83.0256L855.267 78.4564Z" fill="#433F4F"/>
<path d="M838.355 80.7423L838.829 82.3584C842.132 83.0973 851.331 79.4208 855.267 78.4565L850.113 83.0257L850.669 83.8988L855.907 82.5155L857.898 84.8893L821.32 108.041C817.031 110.806 812.932 113.446 808.169 115.485C801.53 120.345 793.542 123.761 786.049 127.347C775.993 132.162 766.433 136.964 755.593 140.217L753.584 137.925C756.726 132.607 760.782 128.603 764.559 123.736C769.246 117.69 774.956 114.233 780.876 109.448C784.048 106.888 786.669 103.895 790.27 101.792C795.777 98.578 802.373 96.2472 807.319 92.3648C816.209 85.3782 822.786 80.841 833.935 77.4413L819.02 89.246C825.52 86.663 831.591 82.5204 838.355 80.7423Z" fill="url(#paint4_linear_14_4002)"/>
<path d="M808.169 115.485C809.177 112.286 812.205 107.913 815.752 106.511C817.883 105.669 819.426 107.106 821.32 108.041C817.031 110.805 812.932 113.446 808.169 115.485Z" fill="#26273A"/>
<path d="M735.73 135.754L737.168 133.891C750.056 119.092 765.59 106.549 781.451 94.6155C817.318 67.6326 855.335 46.8608 899.341 32.9952C914.844 28.1093 932.454 23.0524 948.792 21.6096C947.216 24.4568 946.189 25.8722 943.182 27.4545C939.674 29.2991 936.415 31.6177 933.714 34.393C929.741 37.3613 925.319 40.1505 922.453 44.1155L864.432 85.3024L861.704 82.8752L886.773 64.4214C889.493 64.3839 901.926 53.4732 904.795 51.2145C909.704 48.5298 913.339 44.5977 917.242 40.8095C919.994 39.2627 921.663 38.0623 923.541 35.6258C921.544 35.1868 921.591 34.8809 919.644 35.7095C913.888 38.1535 909.065 38.0937 903.22 39.631C895.061 41.7758 886.577 45.7661 878.717 48.78C836.472 64.9732 796.964 90.5611 763.196 118.634L761.017 118.275L753.343 125.129C748.101 129.426 743.047 134.634 735.73 135.754Z" fill="#757E8D"/>
<path d="M938.094 131.52C938.852 135.012 937.13 137.237 936.297 140.5C935.017 145.524 933.381 154.705 934.05 159.776C930.209 181.601 926.269 203.581 923.012 225.488C921.486 235.742 920.345 246.046 918.649 256.275C918.224 258.844 918.09 263.582 917.014 265.735C915.378 269.016 909.735 273.798 907.056 276.618C889.057 295.58 870.913 311.445 849.002 326.431L831.689 336.608L835.948 339.385C816.308 352.692 795.389 358.027 771.189 360.007C763.952 360.601 755.863 361.573 748.621 360.557L746.805 360.271L743.794 361.122L744.051 366.301L741.386 367.501C740.9 369.024 740.23 370.53 740.27 372.132L728.171 433.845L721.301 431.269L654.345 410.938C652.75 407.234 655.798 400.245 656.884 396.248C655.731 393.96 655.495 393.937 653.098 392.69L655.551 384.561L659.825 369.677L674.467 317.136L686.423 252.116C685.302 251.407 684.122 249.149 683.335 248.046L683.827 247.209L687.865 244.833C689.675 247.662 690.181 249.287 693.379 250.812C694.73 252.119 695.458 252.41 695.865 254.224L698.69 254.355C788.603 255.624 867.957 195.236 927.58 139.712L938.094 131.52Z" fill="url(#paint5_linear_14_4002)"/>
<path d="M722.983 319.136C725.732 324.519 729.222 330.186 731.184 335.823C729.488 337.244 729.298 337.553 727.057 337.827L719.535 323.853L722.983 319.136Z" fill="#433F4F"/>
<path d="M731.184 335.823C735.476 341.128 738.262 348.109 741.342 354.102C772.997 356.787 804.263 350.981 831.689 336.609L835.948 339.385C816.309 352.692 795.389 358.027 771.189 360.007C763.952 360.601 755.863 361.573 748.621 360.557L746.805 360.271L743.794 361.122L744.051 366.301L741.386 367.501C740.9 369.024 740.231 370.53 740.27 372.132L728.171 433.845L721.301 431.269L723.649 430.077C727.956 413.137 730.567 395.891 733.721 378.735C734.641 373.726 737.386 366.106 737.117 361.188C737.035 359.678 735.287 356.812 734.628 355.242C732.176 349.408 729.757 343.566 727.057 337.827C729.298 337.553 729.488 337.244 731.184 335.823Z" fill="url(#paint6_linear_14_4002)"/>
<path d="M687.864 244.833C689.675 247.662 690.181 249.287 693.379 250.812C694.73 252.119 695.457 252.41 695.865 254.224C693.696 255.98 693.235 256.316 692.344 258.833C705.5 277.328 713.533 298.858 722.983 319.136L719.535 323.853L727.057 337.827C729.757 343.566 732.176 349.408 734.628 355.242C735.287 356.812 737.034 359.678 737.117 361.188C737.386 366.106 734.64 373.726 733.721 378.735C730.566 395.891 727.956 413.137 723.649 430.077L721.301 431.269L654.344 410.938C652.75 407.234 655.798 400.245 656.884 396.248C655.73 393.96 655.495 393.937 653.098 392.69L655.551 384.561L659.824 369.677L674.466 317.136L686.423 252.116C685.302 251.407 684.122 249.149 683.334 248.046L683.827 247.209L687.864 244.833Z" fill="#26273A"/>
<path d="M674.466 317.136L675.356 319.869L678.533 319.559C675.004 344.422 665.67 370.305 658.113 394.302L656.884 396.248C655.73 393.96 655.495 393.937 653.098 392.69L655.551 384.561L659.824 369.677L674.466 317.136Z" fill="#433F4F"/>
<path d="M655.551 384.561C657.797 385.317 657.752 385.726 659.019 387.661C658.587 389.852 657.99 392.06 658.113 394.302L656.884 396.248C655.731 393.96 655.495 393.937 653.098 392.69L655.551 384.561Z" fill="#555262"/>
<path d="M687.864 244.833C689.675 247.662 690.181 249.287 693.378 250.812C694.73 252.119 695.457 252.41 695.864 254.224C693.695 255.98 693.235 256.316 692.344 258.833C705.5 277.328 713.533 298.858 722.983 319.136L719.535 323.853C713.279 309.743 705.967 296.037 699.305 282.091C696.571 276.366 696.187 270.351 691.177 265.838L678.533 319.559L675.356 319.869L674.466 317.136L686.422 252.116C685.301 251.407 684.122 249.149 683.334 248.046L683.826 247.209L687.864 244.833Z" fill="#484859"/>
<path d="M687.864 244.833C689.675 247.662 690.181 249.287 693.378 250.812C694.73 252.119 695.457 252.41 695.864 254.224C693.695 255.98 693.235 256.316 692.344 258.833L690.958 264.718L686.843 262.169L686.422 252.116C685.301 251.407 684.122 249.149 683.334 248.046L683.826 247.209L687.864 244.833Z" fill="#626575"/>
<path d="M972.754 18.794L975.534 18.7842L976.08 19.5988C982.391 26.5613 988.692 33.5378 994.993 40.5082C996.513 42.1873 1000.38 45.5067 1001.11 47.4522C1028.31 72.9402 1054.39 98.1312 1085.5 119.69C1092.63 127.028 1104.3 132.609 1113.42 137.611C1149.31 157.286 1185.79 173.122 1225.88 183.825C1234.42 186.102 1243.32 189.184 1252.07 190.25C1257.33 191.246 1262.6 192.025 1267.55 194.059L1269.65 194.551C1271.31 195.663 1272.88 196.698 1274.37 198.015L1269.87 202.713L1269.89 202.873L1194.46 278.586L1139.48 334.898L1135.54 334.838L1137.02 330.963C1146.8 323.485 1155.21 312.484 1163.59 303.639C1170.98 295.845 1179.11 288.681 1186.42 280.843C1184.56 277.749 1180.28 277.172 1176.76 275.926C1174.86 276.537 1169.48 275.45 1167.25 275.259C1143.72 273.219 1116.78 264.602 1094.89 256.279C1083.38 252.359 1072.33 245.751 1061.98 239.699C1047.95 231.505 1033.2 222.931 1021.62 211.819C1022.39 209.412 1021.28 207.225 1020.48 204.907L989.718 173.717C974.387 157.481 964.169 135.769 947.604 121.02C946.872 114.403 948.73 106.589 949.773 100.042C952.118 85.2824 954.875 70.6523 957.978 56.0238L958.768 47.284L955.791 47.4986L956.81 32.7055L957.42 20.1141L972.754 18.794Z" fill="url(#paint7_linear_14_4002)"/>
<path d="M1100.01 252.853C1117.91 259.753 1136.33 264.23 1155.12 268.322C1161.66 269.744 1168.95 270.304 1175.25 272.343L1191 274.244C1186.42 275.823 1180.51 273.691 1176.76 275.926C1174.86 276.537 1169.48 275.45 1167.25 275.259C1143.72 273.219 1116.78 264.602 1094.89 256.279C1096.49 254.932 1098.2 253.942 1100.01 252.853Z" fill="#433F4F"/>
<path d="M1175.25 272.343L1191 274.244C1186.42 275.823 1180.51 273.691 1176.76 275.926C1174.86 276.537 1169.48 275.45 1167.25 275.259C1165.51 274.172 1166.32 274.608 1164.23 273.64L1162.66 272.921C1166.19 271.302 1171.35 272.163 1175.25 272.343Z" fill="#484859"/>
<path d="M1020.48 204.907C1042.86 224.063 1071.33 243.038 1100.01 252.853C1098.2 253.942 1096.49 254.932 1094.89 256.279C1083.38 252.359 1072.33 245.751 1061.98 239.699C1047.95 231.505 1033.2 222.931 1021.62 211.819C1022.39 209.412 1021.28 207.225 1020.48 204.907Z" fill="#39373F"/>
<path d="M1269.65 194.551C1271.31 195.663 1272.88 196.698 1274.37 198.015L1269.87 202.713L1269.89 202.873L1194.46 278.586L1139.48 334.898L1135.54 334.838L1137.02 330.963C1146.8 323.485 1155.21 312.484 1163.59 303.639C1170.98 295.845 1179.11 288.681 1186.42 280.843C1184.56 277.749 1180.28 277.172 1176.76 275.926C1180.51 273.691 1186.42 275.824 1191 274.244C1198.45 269.616 1205.13 261.476 1211.12 255.295C1223.22 242.808 1235.58 230.56 1247.77 218.149C1254.18 211.619 1260.08 204.311 1267.47 198.697C1268.93 197.585 1269.06 196.199 1269.65 194.551Z" fill="#626575"/>
<path d="M972.754 18.794L975.534 18.7842L976.08 19.5988C982.391 26.5613 988.692 33.5378 994.993 40.5082C996.513 42.1873 1000.38 45.5067 1001.11 47.4522L998.434 47.7816L996.654 45.9863C995.459 46.4594 994.493 46.9486 993.391 47.5889C991.816 48.5005 990.266 49.0888 988.603 49.8247L987.642 50.3023C984.488 51.7991 979.974 53.4671 976.443 53.5063C973.293 53.542 975.615 53.4821 973.562 53.7889C969.742 54.3551 965.195 51.9733 962.079 53.9876L957.978 56.0238L958.768 47.284L955.791 47.4986L956.81 32.7055L957.42 20.1141L972.754 18.794Z" fill="url(#paint8_linear_14_4002)"/>
<path d="M957.42 20.1141L972.754 18.794C969.812 21.724 966.924 24.3068 963.472 26.716L958.768 47.284L955.79 47.4986L956.81 32.7055L957.42 20.1141Z" fill="#6E7387"/>
<path d="M1281.81 655.337L1283.81 654.239L1288.83 656.359C1253.12 732.177 1210.62 804.226 1157.76 870.82C1118.15 920.708 1073 971.336 1008.51 993.8C971.439 1006.72 932.453 1008.16 893.202 1003.37C872.906 1000.89 852.924 996.941 834.117 989.049C823.82 984.727 814.096 979.212 805.498 972.371C806.996 972.133 807.892 972.068 809.422 972.368L810.648 972.653C815.13 970.037 815.073 969.396 816.605 964.588C817.388 962.134 818.15 959.992 819.946 957.993L820.572 957.361L820.212 954.964L819.894 951.976C819.206 949.838 818.956 947.926 818.346 945.912C817.276 942.389 817.608 946.438 817.476 943.658C817.306 940.118 814.529 937.559 812.982 934.403C810.687 929.722 809.326 924.416 806.862 919.885C804.012 914.646 807.433 907.7 805.373 901.856C804.58 899.607 804.401 897.404 804.133 895.062L834.261 933.818C837.509 937.975 844.4 946.577 845.858 951.405C846.369 953.104 845.517 957.199 845.401 959.215C844.948 967.008 843.905 975.08 844.104 982.874C844.195 986.417 844.239 986.85 846.975 989.378C850.324 986.777 851.727 958.932 852.678 953.399C859.95 949.152 864.326 942.281 870.377 936.784C881.111 927.028 892.781 918.093 905.383 910.495C932.568 894.456 965.182 884.452 997.963 884.8C1007.91 884.908 1018.1 887.382 1027.98 886.48L1028.97 886.373C1031.71 886.248 1034.16 885.543 1036.77 884.847C1035.73 882.279 1034.96 880.051 1034.61 877.333C1038.8 872.798 1041.05 838.781 1042.88 829.56C1045.36 817.05 1048.62 804.682 1052.25 792.436C1059.24 768.887 1068.96 746.549 1081.5 725.139C1086.88 715.948 1093.38 707.38 1099.14 698.39C1103.15 692.355 1110.24 685.57 1112.26 678.792C1112.97 677.87 1119.83 676.193 1121.4 675.679L1163.95 648.606L1168.06 645.173L1214.93 649.436L1236.78 653.483L1230.52 653.507L1230.08 654.67L1230.31 654.758C1238 655.911 1245.78 656.301 1253.49 657.534C1256.41 658.002 1262.07 659.926 1264.71 659.765C1265.65 659.71 1267.11 658.059 1268.1 657.907C1273.69 657.039 1277.3 660.756 1282.89 657.654L1281.81 655.337Z" fill="#0B0513"/>
<path d="M1061.43 927.921L1062.29 926.162C1063.9 925.531 1064.31 925.528 1065.99 925.607L1077.09 947.692L1076.19 950.258C1074.56 949.351 1074.38 949.549 1073.57 947.844L1061.43 927.921Z" fill="#39373F"/>
<path d="M1121.4 675.68L1102.8 702.35L1100.77 701.83C1099.35 700.433 1099.54 700.182 1099.14 698.39C1103.15 692.355 1110.24 685.57 1112.26 678.792C1112.97 677.87 1119.83 676.193 1121.4 675.68Z" fill="#26273A"/>
<path d="M1061.43 927.921C1057.19 923.32 1053.87 916.813 1050.53 911.586C1045.65 903.953 1037.48 894.211 1036.53 885.328C1049.22 896.573 1057.03 911.78 1065.99 925.606C1064.31 925.528 1063.9 925.531 1062.29 926.162L1061.43 927.921Z" fill="#26273A"/>
<path d="M1163.95 648.606L1168.06 645.173L1214.93 649.436L1236.78 653.483L1230.52 653.507L1230.08 654.67L1163.95 648.606Z" fill="#484859"/>
<path d="M1195.88 747.675C1207.63 728.783 1221.4 711.005 1235.15 693.359C1243.68 682.408 1253.55 668.475 1265.16 660.285C1260.42 670.096 1252.75 678.52 1246.05 687.208C1230.1 707.898 1211.74 729.221 1199.64 752.093L1195.88 747.675Z" fill="#26273A"/>
<path d="M1195.88 747.675L1199.64 752.093C1175.41 784.392 1159.26 822.822 1144.75 859.709C1138.66 875.186 1135.38 889.867 1126.48 904.372C1131.12 875.574 1143.64 848.077 1155.85 821.615C1167.76 795.8 1179.84 771.588 1195.88 747.675Z" fill="#39373F"/>
<path d="M1099.14 698.39C1099.54 700.182 1099.35 700.433 1100.78 701.83L1102.8 702.35C1073.33 747.397 1054.22 794.394 1045.95 846.914C1043.91 859.842 1041.61 872.085 1042.61 885.254L1041.39 884.912C1039.66 884.515 1038.49 884.638 1036.77 884.848C1035.73 882.279 1034.96 880.051 1034.61 877.333C1038.8 872.798 1041.05 838.781 1042.88 829.56C1045.36 817.05 1048.62 804.682 1052.25 792.436C1059.24 768.887 1068.96 746.549 1081.5 725.139C1086.88 715.948 1093.38 707.38 1099.14 698.39Z" fill="#24212F"/>
<path d="M1281.13 191.024C1289.01 199.068 1291.55 205.997 1297.27 215.055C1303.28 224.582 1309.99 234.051 1315.39 243.858C1320.46 253.055 1319.71 258.631 1329.36 265.643C1336.17 284.568 1343.44 304.711 1345.94 324.554C1358.36 385.995 1355.98 448.452 1340.84 508.895C1338.29 519.064 1336.33 530.143 1332.26 539.846C1322.84 579.718 1304.95 618.601 1288.83 656.36L1283.81 654.239L1281.81 655.337L1282.89 657.654C1277.3 660.756 1273.69 657.039 1268.1 657.907C1267.11 658.059 1265.65 659.71 1264.71 659.765C1262.07 659.926 1256.41 658.002 1253.49 657.534C1245.78 656.301 1238 655.911 1230.31 654.758L1230.08 654.67L1230.52 653.507L1236.78 653.483L1214.93 649.436L1168.06 645.173C1186.12 627.52 1204.16 608.508 1213.09 585.065C1217.05 574.641 1218.78 563.226 1220.72 552.326L1221.31 546.687L1220.73 520.794C1219.56 508.031 1217.87 495.608 1215.11 483.019C1214.19 478.806 1213.68 473.765 1211.04 470.187L1199.72 469.876L1194.14 469.947C1176.53 470.082 1159.1 470.515 1141.56 471.668C1134 472.166 1125.45 472.058 1118.1 473.667L1093.58 475.522C1092.1 463.206 1093.2 450.378 1093.83 438.057C1094.61 422.565 1095.21 407.097 1097.34 391.726C1097.83 388.216 1097.57 382.994 1098.66 379.731C1099.79 376.328 1105.84 370.936 1108.38 368.236C1118.29 357.707 1129.72 347.321 1138.58 336.059L1139.48 334.898L1194.46 278.586L1269.89 202.873L1269.87 202.713L1274.37 198.015C1276.96 196.375 1279.12 193.274 1281.13 191.024Z" fill="url(#paint9_linear_14_4002)"/>
<path d="M1280.02 318.128L1291.22 412.472C1290.16 414.762 1289.28 417.556 1287.32 419.301C1284.24 407.205 1282.89 394.237 1281.33 381.916C1278.77 361.691 1276.66 341.657 1275.42 321.338L1280.02 318.128Z" fill="#484859"/>
<path d="M1273.4 205.525C1277.48 206.517 1277.17 206.49 1279.22 209.612C1279.94 219.303 1276.5 230.47 1278.61 239.697L1280.02 318.128L1275.42 321.338L1273.4 205.525Z" fill="#433F4F"/>
<path d="M1291.22 412.472C1298.01 446.077 1303.59 481.682 1315.99 513.981C1318.93 524.711 1326.88 541.999 1323.34 552.642C1320.78 549.744 1319.76 542.518 1318.48 538.782C1311.72 519.097 1306.12 499.158 1300.77 479.133C1295.57 459.603 1289.51 439.319 1287.32 419.301C1289.28 417.556 1290.16 414.762 1291.22 412.472Z" fill="#39373F"/>
<path d="M1221.31 546.687C1225.73 552.875 1227.33 560.967 1230.21 567.898C1238.77 588.471 1247.85 608.39 1257.41 628.597C1261.88 638.071 1263.93 647.167 1271.46 655.213C1275.15 655.819 1278.11 655.723 1281.81 655.337L1282.89 657.654C1277.3 660.756 1273.69 657.039 1268.1 657.907C1267.11 658.059 1265.65 659.71 1264.71 659.765C1262.07 659.926 1256.41 658.002 1253.49 657.534C1245.78 656.301 1238 655.911 1230.31 654.758L1230.08 654.67L1230.52 653.507L1236.78 653.483L1214.93 649.436L1168.06 645.173C1186.12 627.52 1204.16 608.508 1213.09 585.066C1217.05 574.641 1218.78 563.226 1220.72 552.326L1221.31 546.687Z" fill="#0B0513"/>
<path d="M1221.31 546.687C1225.73 552.875 1227.33 560.967 1230.21 567.898C1238.77 588.471 1247.85 608.389 1257.41 628.597C1261.88 638.071 1263.93 647.166 1271.45 655.213C1275.15 655.819 1278.1 655.723 1281.81 655.337L1282.89 657.654C1277.3 660.756 1273.69 657.039 1268.1 657.907C1267.11 658.059 1265.65 659.71 1264.71 659.765C1262.07 659.926 1256.41 658.002 1253.49 657.534C1245.78 656.301 1238 655.911 1230.31 654.758L1230.08 654.67L1230.52 653.507L1236.78 653.483L1214.93 649.436C1230.82 648.721 1248.9 652.044 1264.89 653.486C1252.08 630.991 1240.45 608.401 1231.01 584.521C1227.87 576.571 1223.73 568.016 1222.66 559.61C1222.31 556.939 1221.8 554.835 1220.72 552.326L1221.31 546.687Z" fill="#39373F"/>
<path d="M1139.48 334.898L1194.46 278.586C1195.25 281.265 1196.07 282.259 1194.8 284.803C1195.94 317.79 1191.38 350.664 1192.57 383.865C1193.17 400.511 1194.38 417.003 1196.22 433.586C1197.52 445.306 1200.73 458.218 1199.72 469.875L1194.14 469.946C1176.53 470.082 1159.1 470.515 1141.56 471.668C1134 472.166 1125.45 472.058 1118.1 473.667L1093.58 475.521C1092.1 463.206 1093.2 450.378 1093.83 438.057C1094.61 422.565 1095.21 407.097 1097.34 391.726C1097.83 388.216 1097.57 382.994 1098.66 379.731C1099.79 376.328 1105.84 370.935 1108.38 368.236C1118.29 357.707 1129.72 347.321 1138.58 336.058L1139.48 334.898Z" fill="#0B0513"/>
<path d="M1194.14 469.947C1195.07 464.064 1193.28 457.397 1192.56 451.494C1191.03 438.898 1189.53 426.241 1188.44 413.615C1186.81 394.751 1186.59 375.869 1186.56 356.976C1186.55 343.154 1186.35 292.538 1194.8 284.804C1195.94 317.79 1191.38 350.664 1192.57 383.865C1193.17 400.511 1194.38 417.003 1196.22 433.586C1197.52 445.306 1200.73 458.219 1199.72 469.876L1194.14 469.947Z" fill="#433F4F"/>
<path d="M1281.13 191.024C1289.01 199.068 1291.55 205.998 1297.27 215.055C1303.28 224.582 1309.99 234.051 1315.39 243.858C1320.46 253.055 1319.71 258.631 1329.36 265.643C1336.17 284.568 1343.44 304.711 1345.94 324.554C1358.36 385.995 1355.98 448.452 1340.84 508.895C1338.29 519.064 1336.33 530.143 1332.26 539.846L1329.83 539.438C1329.52 541.11 1329.46 542.659 1328.26 543.998C1327.03 545.361 1327.07 547.413 1326.75 549.216C1326.06 544.624 1326.79 540.984 1324.62 536.591C1323.24 533.81 1323.71 530.782 1322.36 528.384C1321.7 527.204 1321.86 527.785 1321.63 526.583C1320.7 521.559 1319.48 518.05 1315.99 513.981C1303.59 481.682 1298.01 446.077 1291.22 412.472L1280.02 318.128L1278.61 239.697C1276.5 230.47 1279.94 219.303 1279.22 209.612C1277.17 206.49 1277.48 206.517 1273.4 205.525L1269.89 202.873L1269.87 202.713L1274.37 198.015C1276.96 196.375 1279.12 193.274 1281.13 191.024Z" fill="url(#paint10_linear_14_4002)"/>
<path d="M1281.13 191.024C1289.01 199.068 1291.55 205.998 1297.27 215.055C1303.28 224.582 1309.99 234.051 1315.39 243.858C1320.46 253.055 1319.71 258.631 1329.36 265.643C1336.17 284.568 1343.44 304.711 1345.94 324.554L1342.45 321.504C1342.31 320.172 1342.22 319.234 1341.53 318.018L1341.02 317.225C1341.43 315.265 1341.44 314.227 1340.63 312.387L1339.83 310.603C1338.41 305.673 1332.65 301.815 1329.78 297.313C1327.6 293.883 1326.31 289.118 1324.78 285.364L1322.61 284.836L1323.33 286.98C1324.24 289.332 1323.96 290.773 1323.6 293.185L1322.57 292.211C1321.33 286.568 1319.93 279.908 1317.31 274.696C1314.92 269.939 1311.06 265.938 1308.64 261.156C1303.33 250.658 1298.56 239.908 1292.83 229.591C1290.31 225.064 1285.47 219.422 1284.4 214.549L1284.28 213.697C1283.8 211.331 1283.79 208.809 1283.17 206.506C1282.52 204.1 1280.79 199.412 1278.64 198.338C1277.08 199.498 1275.43 200.263 1274.74 202.044L1277.19 202.913C1279.26 205.396 1281.16 207.128 1281.78 210.297L1281.98 211.388C1282.42 213.154 1282.47 213.257 1281.85 215.106C1279.37 222.466 1279.45 231.938 1278.61 239.697C1276.5 230.47 1279.94 219.303 1279.22 209.612C1277.17 206.49 1277.48 206.517 1273.4 205.525L1269.89 202.873L1269.87 202.713L1274.37 198.015C1276.96 196.375 1279.12 193.274 1281.13 191.024Z" fill="#26273A"/>
<path d="M947.603 121.02C964.169 135.769 974.387 157.481 989.718 173.717L1020.48 204.907C1021.28 207.225 1022.39 209.412 1021.62 211.819C1033.2 222.931 1047.95 231.505 1061.98 239.699C1072.33 245.751 1083.38 252.359 1094.89 256.279C1116.78 264.602 1143.72 273.219 1167.25 275.259C1169.48 275.45 1174.86 276.537 1176.76 275.926C1180.28 277.172 1184.56 277.749 1186.42 280.843C1179.11 288.681 1170.98 295.844 1163.59 303.639C1155.21 312.484 1146.8 323.485 1137.02 330.963L1135.54 334.838L1139.48 334.898L1138.58 336.059C1129.72 347.321 1118.29 357.707 1108.38 368.236C1105.84 370.935 1099.79 376.328 1098.66 379.731C1097.57 382.994 1097.83 388.216 1097.34 391.726C1095.21 407.097 1094.61 422.565 1093.83 438.057C1093.2 450.378 1092.1 463.206 1093.58 475.521L1118.1 473.667C1125.45 472.058 1134 472.166 1141.56 471.668C1159.1 470.515 1176.53 470.082 1194.14 469.947L1199.72 469.875L1211.04 470.187C1213.68 473.765 1214.19 478.806 1215.11 483.019C1217.87 495.608 1219.56 508.031 1220.73 520.794L1221.31 546.686L1220.72 552.326C1218.78 563.226 1217.05 574.641 1213.09 585.065C1204.16 608.508 1186.12 627.52 1168.06 645.173L1163.95 648.606L1121.4 675.679C1119.83 676.193 1112.97 677.87 1112.26 678.792C1110.24 685.57 1103.15 692.355 1099.14 698.39C1093.38 707.38 1086.88 715.948 1081.5 725.139C1068.96 746.549 1059.24 768.887 1052.25 792.436C1048.62 804.682 1045.36 817.05 1042.88 829.56C1041.05 838.781 1038.8 872.798 1034.61 877.333C1034.96 880.051 1035.73 882.279 1036.77 884.847C1034.16 885.543 1031.71 886.248 1028.97 886.373L1027.98 886.48C1018.1 887.382 1007.91 884.908 997.964 884.8C965.182 884.452 932.568 894.456 905.383 910.495C892.781 918.093 881.111 927.028 870.377 936.784C864.327 942.281 859.95 949.152 852.678 953.399C851.727 958.932 850.325 986.777 846.975 989.378C844.239 986.85 844.195 986.417 844.104 982.874C843.906 975.08 844.949 967.008 845.401 959.215C845.517 957.199 846.369 953.104 845.858 951.405C844.4 946.578 837.509 937.975 834.261 933.818L804.134 895.062L787.974 877.498L789.121 875.229L788.319 872.411L788.012 871.025C786.671 868.48 781.966 865.232 779.684 863.319C771.401 856.364 763.417 850.034 754.078 844.343C744.374 838.432 744.155 837.635 741.818 827.3L738.844 825.999C736.339 823.469 735.891 821.907 735.54 818.568L735.113 814.137C731.09 811.317 733.501 809.555 731.549 806.086L730.479 807.144L730.534 803.605L723.521 797.601L721.244 795.918L724.143 791.799L723.748 788.718L722.072 788.049L719.515 791L716.071 791.816L714.276 792.151C713.747 789.605 711.454 788.058 709.581 786.156L702.452 766.011C706.779 747.516 698.601 730.825 694.991 712.593C691.939 701.437 689.938 690.112 686.941 678.959C683.593 666.496 677.512 652.393 676.26 639.906C675.77 634.179 671.818 626.662 669.93 620.999C666.904 617.379 663.502 614.625 659.762 611.691C655.041 603.761 648.134 596.498 644.567 588.048C640.832 579.206 639.646 568.444 637.896 559.109C634.089 538.814 631.006 518.387 627.52 498.046C625.095 479.848 620.454 459.169 622.983 441.035C624.557 429.751 630.167 418.393 629.672 407C633.291 405.651 633.464 405.977 637.047 407.016L638.059 407.262C641.783 407.815 645.122 408.7 648.615 407.05C649.946 404.436 650.22 401.425 650.738 398.568L653.098 392.69C655.495 393.937 655.731 393.96 656.884 396.248C655.798 400.245 652.75 407.234 654.345 410.938L721.301 431.269L728.171 433.845L740.27 372.132C740.23 370.53 740.9 369.024 741.386 367.501L744.051 366.301L743.794 361.122L746.805 360.271L748.621 360.557C755.863 361.573 763.952 360.601 771.189 360.007C795.389 358.027 816.308 352.692 835.948 339.385L831.689 336.609L849.002 326.431C870.913 311.445 889.057 295.58 907.056 276.618C909.735 273.798 915.378 269.016 917.014 265.735C918.09 263.582 918.224 258.844 918.649 256.275C920.345 246.046 921.486 235.742 923.012 225.488C926.269 203.581 930.209 181.601 934.05 159.776C933.381 154.705 935.017 145.524 936.297 140.5C937.13 137.237 938.852 135.012 938.094 131.52C938.514 130.126 943.523 126.821 944.931 125.677C946.629 124.422 946.856 122.877 947.603 121.02Z" fill="#0B0513"/>
<path d="M849.002 326.431L853.499 329.176L835.948 339.385L831.689 336.608L849.002 326.431Z" fill="#26273A"/>
<path d="M1027.77 882.99L1029.32 882.006C1030.98 876.339 1011.8 851.236 1007.96 843.994L1008.68 842.895L1011.37 847.318C1013.91 852.131 1017.24 857.243 1020.32 861.798C1021.89 864.113 1024.49 866.448 1025.23 869.075L1025.42 870.086C1027.15 871.565 1028.13 872.346 1029.15 874.353C1029.95 875.945 1030.61 876.844 1031.85 878.164L1031.76 876.089L1030.95 874.819C1029.75 872.218 1031.16 874.223 1029.92 872.442L1019.38 855.493L1018.56 854.298L1019.15 851.814L1034.61 877.333C1034.96 880.051 1035.73 882.278 1036.77 884.847C1034.16 885.543 1031.71 886.247 1028.97 886.373L1016.3 884.452L1015.9 883.2C1019.22 883.488 1022.71 883.973 1026 883.36L1027.77 882.99Z" fill="#26273A"/>
<path d="M688.798 636.314L693.435 639.775C693.431 641.233 693.004 642.726 693.947 643.934C696.214 646.843 698.859 650.59 699.381 654.183L697.476 652.634C697.929 654.507 698.438 655.302 699.52 656.898C697.653 657.795 697.557 657.782 696.699 659.551L697.819 660.839L696.444 661.881L697.168 662.142C698.679 662.793 699.902 663.797 701.208 664.749L701.327 665.502C701.673 666.926 702.475 667.868 703.275 669.103L705.151 672.258L704.019 673.904L704.469 675.243C704.978 676.899 705.13 678.25 705.273 679.945C705.636 684.157 706.484 686.143 708.649 689.744C709.446 691.07 709.548 692.868 709.702 694.322C709.907 696.262 710.477 696.675 711.525 698.315C712.66 700.088 714.503 702.5 714.045 704.488C712.226 703.929 711.231 703.476 709.823 702.259L709.04 703.647L705.219 702.728L703.487 696.263L703.045 694.439C702.727 692.167 702.26 690.069 701.867 687.827C701.452 685.46 700.008 683.922 699.668 681.762C698.351 673.408 694.258 664.746 692.613 656.148C692.346 654.753 692.414 653.952 691.683 652.655L691.179 651.869C691.295 649.804 691.303 648.627 692.349 646.749L693.099 645.578L692.039 644.012C690.008 641.202 689.203 639.725 688.798 636.314Z" fill="#26273A"/>
<path d="M788.012 871.025C806.325 887.357 826.588 909.655 838.195 930.695L834.261 933.818L804.134 895.062L787.974 877.498L789.121 875.229L788.319 872.411L788.012 871.025Z" fill="#24212F"/>
<path d="M904.084 906.859L904.289 906.561C926.907 889.458 966.226 879.792 995.274 879.886C1006.02 879.918 1017.09 881.715 1027.77 882.99L1026 883.36C1022.71 883.973 1019.22 883.488 1015.9 883.2L1016.3 884.452L1028.97 886.373L1027.98 886.479C1018.1 887.382 1007.91 884.907 997.963 884.8C965.182 884.452 932.568 894.456 905.383 910.495L904.084 906.859Z" fill="#24212F"/>
<path d="M740.27 372.132C740.23 370.53 740.9 369.024 741.386 367.501L744.051 366.301L743.794 361.122L746.805 360.271L745.695 363.009L786.27 447.883C783.988 448.711 785.169 448.36 782.727 448.923L742.849 371.566L740.27 372.132Z" fill="#24212F"/>
<path d="M838.195 930.695L846.753 943.202L850.862 885.187L852.005 885.312C850.644 897.743 847.637 911.889 849.053 923.914C849.406 926.909 847.479 930.083 848.509 933.143C849.314 935.547 848.614 938.998 848.398 941.535C845.741 941.733 845.384 941.878 843.084 940.66L842.049 941.431C843.516 944.032 846.317 947.778 847.094 950.535C847.64 952.479 847.403 955.711 847.867 957.991C848.65 961.817 845.601 966.732 846.94 970.716C848.221 974.54 846.643 982.173 846.347 986.429C849.811 975.463 848.489 964.028 850.649 952.987C851.65 947.857 851.995 944.377 851.166 939.479C850.3 934.366 854.426 927.854 851.694 923.023C852.781 912.736 852.489 898.977 856.013 889.392L852.844 949.92C868.571 933.138 883.629 918.782 904.084 906.859L905.383 910.495C892.781 918.093 881.111 927.028 870.377 936.784C864.327 942.281 859.95 949.152 852.678 953.399C851.727 958.932 850.325 986.777 846.975 989.378C844.239 986.85 844.196 986.417 844.105 982.874C843.906 975.08 844.949 967.008 845.401 959.215C845.518 957.199 846.37 953.104 845.858 951.405C844.4 946.577 837.509 937.975 834.261 933.818L838.195 930.695Z" fill="#26273A"/>
<path d="M1078.07 392.385C1079.73 392.033 1080.82 392.158 1081.98 390.956C1084.27 388.568 1086.68 386.549 1088.8 383.982L1089.99 384.701C1088.84 388.446 1081.66 394.656 1078.41 397.589L1077.46 401.057C1077.24 402.335 1073.09 406.108 1072.04 407.313C1060.17 421 1047.12 433.552 1035.3 447.232C1031.59 451.525 1025.99 457.02 1024.1 462.298C1023.39 464.282 1022.59 465.647 1021.39 467.427C1018.06 467.85 1015.7 468.918 1012.83 467.079C1017.87 452.059 1036.79 435.87 1047.82 424.006C1057.56 413.542 1067.2 401.783 1078.07 392.385Z" fill="#26273A"/>
<path d="M932.045 274.956C944.574 295.276 957.529 312.927 974.772 330.205C981.769 337.215 989.223 344.638 997.763 350.018C1012.25 359.143 1029.63 364.977 1045.87 370.566C1036.87 369.834 1030.05 367.297 1021.57 364.816L1020.44 363.512L1019.13 363.151C1016.17 362.265 1014.19 361.192 1011.64 359.608C1010.35 358.805 1006.04 356.014 1004.73 355.919C1009.34 359.8 1016.43 363.318 1022.12 365.484L1034.82 370.666C1037.36 371.626 1039.6 373.304 1041.82 374.79C1034.85 373.547 1027.11 370.372 1020.69 367.48C989.147 353.272 969.253 333.378 948.276 308.058C940.482 298.65 931.301 287.551 926.926 276.38C928.702 276.363 930.398 275.537 932.045 274.956Z" fill="#26273A"/>
<path d="M934.05 159.776L934.642 161.456C936.012 165.779 934.484 172.593 933.981 177.131C936.496 174.988 935.93 171.792 938.229 169.323C935.247 195.556 930.189 221.95 926.14 248.088C925.691 250.998 922.974 260.409 923.611 262.746C924.467 265.902 929.961 271.944 932.045 274.956C930.398 275.537 928.702 276.363 926.925 276.38L924.809 272.443L923.147 273.258C921.388 286.442 919.253 299.579 917.482 312.759C916.462 320.32 917.272 328.785 913.439 335.595L912.283 334.583C912.64 331.887 912.64 328.133 914.053 325.785C918.264 318.793 914.215 305.321 917.56 298.005C920.642 291.27 920.536 282.447 921.369 274.833L919.407 275.207C918.855 277.574 918.321 279.798 917.396 282.065C916.064 285.331 916.57 290.592 914.727 293.268C911.763 297.582 912.082 312.823 911.491 318.574L909.618 318.369C910.967 308.423 912.157 298.268 914.255 288.442C914.767 286.053 917.885 277.121 917.147 275.705C896.247 293.214 878.241 316.025 853.499 329.176L849.002 326.431C870.913 311.446 889.057 295.58 907.056 276.618C909.735 273.798 915.378 269.016 917.014 265.735C918.09 263.582 918.224 258.844 918.649 256.275C920.345 246.047 921.486 235.742 923.012 225.488C926.269 203.581 930.209 181.601 934.05 159.776Z" fill="url(#paint11_linear_14_4002)"/>
<path d="M1045.87 370.566C1054.66 372.369 1063.85 374.574 1072.79 375.272C1076.57 375.568 1089.87 377.226 1092.89 375.996C1095.6 374.891 1100.98 368.163 1103.18 365.832C1114.11 354.291 1124.46 340.908 1137.02 330.963L1135.54 334.838L1139.48 334.898L1138.58 336.059C1129.72 347.321 1118.29 357.707 1108.38 368.236C1105.84 370.935 1099.79 376.328 1098.66 379.731C1097.57 382.994 1097.83 388.216 1097.34 391.726C1095.21 407.097 1094.61 422.565 1093.83 438.057C1093.2 450.378 1092.1 463.206 1093.58 475.521L1090.01 475.77C1085.43 466.869 1086.92 458.218 1087.04 448.71C1087.3 427.789 1088.73 407.753 1092.14 387.082L1077.46 401.057L1078.41 397.588C1081.66 394.656 1088.84 388.446 1089.99 384.701L1088.8 383.982C1086.68 386.548 1084.27 388.568 1081.97 390.956C1080.82 392.158 1079.73 392.033 1078.07 392.385L1087.66 382.036C1072.09 380.413 1056.99 378.778 1041.82 374.79C1039.6 373.304 1037.36 371.626 1034.82 370.666L1022.12 365.484C1016.43 363.318 1009.34 359.8 1004.73 355.919C1006.04 356.015 1010.35 358.805 1011.64 359.608C1014.19 361.192 1016.16 362.265 1019.13 363.151L1020.43 363.512L1021.57 364.816C1030.05 367.297 1036.87 369.834 1045.87 370.566Z" fill="#24212F"/>
<path d="M740.27 372.132L742.85 371.566L782.727 448.923C785.169 448.36 783.988 448.711 786.27 447.883C790.051 453.098 791.114 459.12 793.435 464.939C773.273 452.366 750.83 441.811 728.171 433.845L740.27 372.132Z" fill="#140F20"/>
<path d="M669.93 620.999L685.586 633.082L688.798 636.314C689.203 639.725 690.009 641.202 692.039 644.013L693.099 645.578L692.349 646.749C691.303 648.627 691.295 649.804 691.18 651.869L691.683 652.655C692.414 653.952 692.346 654.754 692.613 656.148C694.258 664.746 698.352 673.408 699.668 681.762C700.008 683.922 701.452 685.46 701.867 687.827C702.26 690.069 702.727 692.167 703.045 694.44L703.487 696.263L705.219 702.728C705.243 705.665 705.5 706.889 706.481 709.56L706.642 710.647C707.116 713.664 708.734 716.619 709.473 719.659C709.787 720.953 710.608 721.96 711.363 723.067L712.631 723.206L712.573 720.847L714.207 720.443C714.991 721.734 715.42 722.692 715.71 724.146C719.198 727.506 720.033 728.781 720.261 733.54C720.703 742.744 727.956 752.207 727.586 760.821L726.2 761.847C725.87 764.863 726.265 770.366 723.794 772.2C724.396 773.661 724.934 774.194 725.992 775.388L727.695 777.356C731.902 777.007 736.401 772.647 739.608 770.211C738.581 774.272 734.259 775.55 733.946 778.324L729.83 781.116L730.956 782.432C732.734 781.933 732.96 782.247 733.932 780.684L734.799 779.308L735.502 778.15C736.377 776.878 737.346 776.362 738.702 775.602L739.589 776.876L738.978 777.697C736.949 780.525 736.385 781.958 736.347 785.369C733.801 787.059 731.509 788.239 730.026 790.87C728.715 791.421 727.015 791.688 726.415 792.918C725.609 794.569 724.277 795.96 723.521 797.601L721.243 795.918L724.143 791.799L723.748 788.718L722.072 788.049L719.515 791L716.071 791.816L714.276 792.151C713.747 789.605 711.454 788.058 709.581 786.156L702.452 766.011C706.779 747.516 698.6 730.825 694.991 712.593C691.939 701.437 689.938 690.112 686.941 678.959C683.593 666.496 677.512 652.393 676.26 639.906C675.77 634.179 671.818 626.662 669.93 620.999Z" fill="#24212F"/>
<path d="M669.93 620.999L685.586 633.082C685.289 635.849 684.127 639.683 685.869 641.921C687.242 643.687 688.174 645.525 689.114 647.503L687.741 648.53C687.552 650.198 686.953 651.92 687.79 653.409C688.551 654.761 688.331 655.459 688.607 656.89L693.123 673.75C693.947 677.561 696.068 681.123 697.095 684.947L697.799 686.938C699.33 691.312 699.392 696.008 700.346 700.506C701.389 705.434 703.757 709.839 704.689 714.947L707.59 725.287C709.069 731.376 712.414 737.117 713.599 743.371C714.258 746.849 715.12 750.102 715.65 753.614C716.118 756.688 716.433 758.812 716.027 761.926C718.004 765.44 715.091 769.291 716.667 772.088L717.317 773.261L717.828 774.096C720.159 778.002 719.541 782.158 719.686 786.495C721.882 785.646 723.792 784.442 725.779 783.252C727.392 784.165 727.842 784.695 728.615 786.292C727.289 788.735 726.384 790.043 724.143 791.799L723.748 788.718L722.072 788.049L719.515 791L717.022 789.583L717.739 783.332C717.774 778.218 715.461 777.931 713.454 773.798C712.099 771.005 712.705 765.322 712.643 762.223C712.537 756.918 711.69 751.623 710.643 746.399C705.596 721.243 695.937 696.298 688.539 671.621C685.233 660.585 685.404 648.691 676.26 639.906C675.77 634.179 671.818 626.662 669.93 620.999Z" fill="#39373F"/>
<path d="M676.26 639.906C685.405 648.691 685.233 660.585 688.539 671.621C695.938 696.298 705.596 721.243 710.643 746.399C711.69 751.623 712.537 756.918 712.643 762.223C712.705 765.322 712.099 771.005 713.454 773.798C715.461 777.931 717.774 778.218 717.739 783.332L717.022 789.583L719.515 791L716.071 791.816L714.276 792.151C713.747 789.605 711.454 788.058 709.581 786.156L702.452 766.011C706.779 747.516 698.601 730.825 694.991 712.593C691.939 701.437 689.938 690.112 686.941 678.959C683.593 666.496 677.512 652.393 676.26 639.906Z" fill="#26273A"/>
<path d="M694.991 712.594C696.768 714.654 698.684 716.464 699.333 719.075C699.656 720.375 699.507 719.894 700.513 721.055C702.466 723.301 703.118 727.343 703.944 730.088C706.028 736.998 708.737 744.436 709.454 751.577C710.042 757.421 708.113 772.522 712.358 776.496C716.426 780.302 716.082 786.838 716.071 791.816L714.276 792.151C713.747 789.605 711.454 788.058 709.581 786.156L702.451 766.011C706.778 747.516 698.6 730.825 694.991 712.594Z" fill="#433F4F"/>
<path d="M947.603 121.02C964.169 135.769 974.387 157.481 989.718 173.717L1020.48 204.907C1021.28 207.225 1022.39 209.412 1021.62 211.819C1033.2 222.931 1047.95 231.505 1061.98 239.699C1072.33 245.751 1083.38 252.359 1094.89 256.279C1116.78 264.602 1143.72 273.219 1167.25 275.259C1169.48 275.45 1174.86 276.537 1176.76 275.926C1180.28 277.172 1184.56 277.749 1186.42 280.843C1179.11 288.681 1170.98 295.844 1163.59 303.639C1155.21 312.484 1146.8 323.485 1137.02 330.963C1124.46 340.908 1114.11 354.291 1103.18 365.832C1100.98 368.163 1095.6 374.891 1092.89 375.995C1089.87 377.226 1076.57 375.568 1072.79 375.272C1063.85 374.574 1054.66 372.369 1045.87 370.566C1029.63 364.977 1012.25 359.143 997.762 350.017C989.222 344.638 981.769 337.215 974.772 330.205C957.529 312.927 944.574 295.276 932.045 274.956C929.961 271.944 924.467 265.901 923.611 262.746C922.974 260.408 925.691 250.998 926.14 248.088C930.189 221.95 935.247 195.556 938.229 169.322C935.93 171.791 936.495 174.988 933.981 177.131C934.484 172.593 936.012 165.779 934.641 161.456L934.05 159.776C933.381 154.705 935.017 145.524 936.297 140.5C937.129 137.237 938.852 135.012 938.094 131.52C938.514 130.126 943.523 126.821 944.931 125.677C946.629 124.422 946.856 122.877 947.603 121.02Z" fill="#0B0513"/>
<path d="M989.718 173.717L1020.48 204.907C1021.28 207.225 1022.39 209.412 1021.62 211.819C1007.74 202.27 995.623 187.547 984.784 175.146C987.253 175.404 987.845 175.979 989.909 177.355L989.718 173.717Z" fill="#433F4F"/>
<path d="M944.931 125.677L946.822 127.623C939.718 138.402 942.664 156.987 938.229 169.322C935.93 171.791 936.496 174.988 933.981 177.131C934.484 172.593 936.012 165.779 934.642 161.456L934.05 159.776C933.381 154.705 935.018 145.524 936.297 140.5C937.13 137.237 938.852 135.013 938.094 131.52C938.514 130.126 943.523 126.821 944.931 125.677Z" fill="#484859"/>
<path d="M947.603 121.021C964.169 135.77 974.386 157.482 989.718 173.717L989.909 177.355C987.845 175.979 987.253 175.404 984.783 175.146L946.822 127.623L944.931 125.677C946.628 124.423 946.856 122.877 947.603 121.021Z" fill="#555262"/>
<path d="M653.098 392.69C655.495 393.937 655.73 393.96 656.884 396.248C655.798 400.245 652.75 407.234 654.344 410.938L721.301 431.269L728.171 433.845C750.829 441.811 773.273 452.366 793.435 464.939C800.155 469.652 812.079 476.939 816.41 483.458C844.942 509.626 866.084 554.84 869.676 591.441C856.298 618.032 830.31 644.142 799.758 653.906C776.569 661.318 751.388 660.352 727.596 655.215C721.388 656.259 719.982 655.33 714.596 652.94L712.43 652.407L710.293 651.579C707.686 651.979 705.861 653.15 703.625 654.388L699.381 654.183C698.859 650.59 696.214 646.843 693.947 643.934C693.004 642.726 693.431 641.233 693.435 639.775L688.798 636.314L685.585 633.082L669.93 620.999C666.903 617.379 663.502 614.625 659.762 611.691C655.041 603.761 648.133 596.498 644.567 588.048C640.832 579.206 639.645 568.444 637.896 559.109C634.088 538.814 631.006 518.388 627.52 498.046C625.095 479.848 620.454 459.169 622.983 441.035C624.557 429.751 630.167 418.393 629.672 407C633.291 405.651 633.464 405.977 637.047 407.016L638.059 407.262C641.783 407.815 645.122 408.7 648.614 407.05C649.946 404.436 650.22 401.425 650.738 398.568L653.098 392.69Z" fill="url(#paint12_linear_14_4002)"/>
<path d="M693.435 639.775C704.482 646.38 715.38 650.867 727.596 655.215C721.388 656.26 719.982 655.33 714.597 652.94L712.43 652.407L710.293 651.579C707.687 651.979 705.862 653.15 703.625 654.388L699.381 654.183C698.859 650.59 696.215 646.843 693.947 643.935C693.005 642.726 693.432 641.233 693.435 639.775Z" fill="#140F20"/>
<path d="M653.098 392.69C655.495 393.937 655.73 393.96 656.884 396.248C655.798 400.245 652.75 407.234 654.344 410.938L721.301 431.269L728.171 433.845C750.829 441.811 773.273 452.366 793.435 464.939C800.155 469.652 812.079 476.939 816.41 483.458L814.668 485.239C812.067 482.729 808.851 478.34 805.372 477.394L803.425 474.829L801.856 474.651L799.912 472.083L798.339 471.905L797.294 470.743C795.301 468.598 792.957 467.07 790.05 466.281L787.476 463.647L785.528 464.011L784.386 462.717C783.272 465.011 781.717 465.526 779.487 466.888L777.256 466.949L778.661 467.713C781.817 469.438 785.095 471.5 787.895 473.685C790.107 475.41 792.512 476.853 794.744 478.595C795.99 479.565 797.248 480.352 798.599 481.164C802.565 483.552 806.809 490.062 808.143 494.127C808.046 494.926 813.705 501.449 814.85 502.921C823.296 513.801 829.896 524.735 836.071 536.789L833.317 538.834C829.293 534.945 826.918 526.629 824.023 521.683C809.817 497.4 793.538 481.495 767.81 467.618C766.489 470.433 766.46 470.696 763.638 472.232L760.479 471.898C761.061 473.749 760.494 473.071 761.631 473.905C764.006 475.651 764.805 476.738 765.885 479.344C732.908 461.171 700.666 448.91 664.512 437.721L654.951 502.64C652.602 499.732 653.273 496.541 650.565 494.062C646.382 496.065 645.209 498.572 641.501 501.325L640.385 500.034L639.27 501.38C638.892 499.155 638.223 497.023 637.601 494.847C637.17 497.98 637.368 501.262 637.374 504.424L636.014 504.973C632.897 500.661 633.655 493.114 633.416 488.005L631.824 496.751L627.52 498.046C625.095 479.848 620.454 459.169 622.983 441.035C624.557 429.751 630.167 418.393 629.672 407C633.291 405.651 633.464 405.977 637.047 407.016L638.059 407.262C641.783 407.815 645.122 408.7 648.614 407.05C649.946 404.436 650.22 401.425 650.738 398.568L653.098 392.69Z" fill="url(#paint13_linear_14_4002)"/>
<path d="M653.098 392.69C655.495 393.937 655.731 393.96 656.884 396.248C655.798 400.245 652.75 407.234 654.345 410.938C648.791 409.877 643.345 409.339 638.059 407.262C641.783 407.815 645.122 408.7 648.615 407.05C649.946 404.436 650.221 401.425 650.738 398.568L653.098 392.69Z" fill="#545E75"/>
<path d="M633.416 488.006C635.906 464.245 639.924 441.67 646.739 418.718C660.742 423.252 675.231 426.353 689.246 430.777C705.352 435.859 721.712 442.782 737.098 449.555C745.991 453.469 755.592 456.948 764.188 461.37C781.066 470.057 795.141 481.012 808.143 494.127C808.046 494.926 813.706 501.449 814.851 502.921C823.297 513.801 829.897 524.735 836.071 536.789L833.317 538.834C829.294 534.945 826.918 526.629 824.023 521.683C809.817 497.4 793.538 481.495 767.81 467.618C730.741 448.065 690.913 433.668 650.004 423.07C643.161 446.073 638.731 470.902 637.602 494.847C637.171 497.98 637.368 501.262 637.374 504.424L636.015 504.973C632.897 500.661 633.655 493.114 633.416 488.006Z" fill="#AC003B"/>
<path d="M637.602 494.847C638.731 470.902 643.161 446.073 650.004 423.07C690.913 433.668 730.741 448.065 767.81 467.619C766.489 470.433 766.46 470.696 763.638 472.232L760.479 471.898C761.062 473.749 760.494 473.071 761.631 473.905C764.006 475.651 764.806 476.738 765.885 479.344C732.909 461.171 700.666 448.91 664.512 437.721L654.951 502.64C652.602 499.732 653.274 496.541 650.565 494.062C646.382 496.065 645.209 498.573 641.501 501.325L640.385 500.035L639.27 501.38C638.892 499.155 638.223 497.023 637.602 494.847Z" fill="#EF3C82"/>
<path d="M654.951 502.64L664.512 437.721C700.666 448.91 732.909 461.171 765.885 479.344C773.785 485.3 783.276 491.961 788.654 500.047C785.744 498.817 783.892 497.793 781.391 496.006L779.285 494.891L778.2 495.733C777.066 496.572 776.149 497.09 774.85 497.649C774.151 498.889 773.151 501.424 772.107 502.364C769.607 504.609 768.932 503.128 766.863 506.803L768.544 508.756L766.416 510.882L767.407 513.348L766.669 514.346C764.362 517.72 766.478 524.661 764.617 527.199C763.515 528.703 762.042 528.086 761.742 530.224C761.292 533.445 760.822 534.852 758.429 537.135L757.58 537.963C753.972 541.409 747.496 544.517 742.775 546.616L742.672 547.501C738.096 549.132 731.436 548.298 726.543 548.1C714.517 547.614 702.536 546.744 690.521 546.033C687.424 545.851 682.167 544.844 679.292 545.408C674.499 546.345 670.458 550.03 665.096 550.877C658.552 534.188 656.548 520.036 654.951 502.64Z" fill="white"/>
<path d="M665.095 550.877C670.458 550.03 674.499 546.344 679.291 545.407C682.167 544.844 687.424 545.851 690.521 546.033C702.536 546.744 714.517 547.614 726.543 548.1C731.436 548.297 738.096 549.132 742.671 547.501L742.775 546.616C747.496 544.517 753.972 541.409 757.58 537.963L758.429 537.135C760.822 534.852 761.292 533.445 761.742 530.224C762.041 528.085 763.514 528.703 764.617 527.199C766.478 524.661 764.362 517.719 766.669 514.345L767.406 513.348L766.416 510.881L768.544 508.756L766.862 506.803C768.932 503.128 769.607 504.609 772.106 502.364C773.151 501.424 774.151 498.889 774.85 497.649C776.149 497.09 777.066 496.572 778.2 495.733L779.285 494.891L781.391 496.006C783.892 497.793 785.743 498.817 788.654 500.047C795.868 505.91 801.067 514.647 805.517 522.457C816.137 541.09 826.476 563.398 828.288 584.543C828.83 590.893 813.292 607.826 808.236 612.949C795.974 625.389 776.563 635.868 757.921 636.222C737.285 636.615 720.075 625.261 705.928 612.22C687.816 595.53 673.649 573.126 665.095 550.877Z" fill="url(#paint14_linear_14_4002)"/>
<path d="M1199.72 469.876L1211.04 470.187C1213.68 473.765 1214.19 478.806 1215.11 483.019C1217.87 495.608 1219.56 508.031 1220.73 520.794L1221.31 546.687L1220.72 552.326C1218.78 563.226 1217.05 574.641 1213.09 585.066C1204.16 608.508 1186.12 627.52 1168.06 645.173L1163.95 648.607L1121.4 675.68C1119.83 676.193 1112.97 677.87 1112.26 678.792C1070.17 691.844 1027.12 696.434 984.601 679.657C943.135 663.291 921.062 632.986 904.469 595.962C909.298 581.601 920.154 565.638 929.626 553.521C966.671 506.131 1016.24 486.548 1077.53 478.137L1090.01 475.771L1093.58 475.522L1118.1 473.667C1125.45 472.058 1134 472.166 1141.56 471.669C1159.1 470.515 1176.53 470.082 1194.13 469.947L1199.72 469.876Z" fill="url(#paint15_linear_14_4002)"/>
<path d="M1187.83 480.395L1194.69 480.099C1201.72 487.687 1202.17 513.233 1203.25 523.474C1202.89 537.236 1203.01 551.45 1200.15 564.97C1195.44 587.201 1182.3 606.321 1169.8 625.214L1167.89 626.173L1167.1 624.623L1170.38 620.887C1172.68 618.319 1173.42 613.979 1175.7 612.885L1174.57 611.583L1172.5 613.954C1171.76 614.787 1171.04 615.261 1170.12 615.907C1168.87 616.79 1168.68 617.011 1167.87 618.308C1166.62 620.327 1164.58 621.37 1162.55 622.651L1162.08 621.419C1176.53 606.743 1195.94 584.472 1196.05 563.272C1200.11 542.552 1199.29 520.856 1196.44 499.97C1195.71 494.559 1195.56 487.393 1192.56 482.622L1188.5 482.429L1187.83 480.395Z" fill="#AC003B"/>
<path d="M1122.64 483.092L1187.83 480.395L1188.5 482.429L1074.6 491.915L1047.33 497.771C1036.12 500.606 1023.82 503.665 1013.44 508.559C977.082 525.696 953.115 556.463 933.71 588.757L932.818 588.659C933.208 587.385 933.588 586.146 934.186 584.941L935.406 582.456L935.61 580.709C937.528 579.491 939.001 577.873 939.943 575.875C942.226 571.028 945.456 565.882 949.135 561.792C950.729 560.019 951.968 558.995 952.234 556.566C948.251 559.237 942.993 565.323 940.485 569.282C939.202 571.307 937.924 573.338 936.243 575.104C935.058 576.352 933.667 577.567 933.212 579.257L933.071 580.431C931.321 581.269 931.498 581.44 929.377 581.207C936.721 570.79 944.785 561.684 953.007 551.94C960.178 543.44 967.22 534.472 976.049 527.337C992.155 514.319 1014.12 504.04 1034.47 498.073C1050.42 493.399 1066.68 491.009 1082.89 487.399C1096.04 485.592 1109.71 485.747 1122.64 483.092Z" fill="#BA0033"/>
<path d="M1188.5 482.429L1192.56 482.622C1195.56 487.393 1195.71 494.559 1196.44 499.969C1199.29 520.856 1200.11 542.551 1196.05 563.272C1195.02 559.565 1196.13 554.677 1196.48 550.875C1194.86 549.879 1193.77 548.757 1192.4 547.469C1190.61 547.565 1188.91 547.727 1187.16 548.079C1185.89 548.336 1183.97 547.778 1183.35 548.836C1182.5 550.292 1183.26 553.607 1182.57 555.249C1182.13 556.309 1179.93 558.137 1179.06 559.083C1181.64 536.668 1181.31 515.105 1177.45 492.66C1167.15 492.49 1156.57 493.705 1146.3 494.399C1111.7 496.74 1078.84 502.056 1045.35 510.062C1046.75 508.318 1048.01 507.408 1049.98 506.241L1051.83 506.734C1054.32 504.784 1056.73 505.663 1059.36 504.394C1060.78 503.715 1061.48 503.11 1063.15 502.914C1064.71 502.73 1064.05 503.007 1065.51 502.31L1066.36 501.85L1068.18 502.626L1069.57 501.604C1071 501.492 1072.01 501.424 1073.31 500.805L1074.16 500.342L1076.61 501.19C1074.08 497.489 1074.48 496.346 1074.6 491.915L1188.5 482.429Z" fill="url(#paint16_linear_14_4002)"/>
<path d="M1199.72 469.876L1211.04 470.187C1213.68 473.765 1214.19 478.806 1215.11 483.019C1217.87 495.608 1219.56 508.031 1220.73 520.794C1220 523.054 1219.58 525.705 1217.53 527.228C1217.8 528.946 1218.29 530.452 1218.89 532.097L1218.6 532.968C1217.7 536.662 1218.34 541.657 1218.05 545.581L1217.3 545.652C1215.98 545.901 1215.31 546.41 1214.2 547.047C1212.7 547.915 1211.83 548.276 1210.07 548.44C1207.8 548.653 1206.83 549.09 1204.83 550.02C1205.74 541.784 1207.68 530.637 1203.25 523.474C1202.17 513.233 1201.72 487.686 1194.69 480.099L1187.83 480.395L1122.64 483.092C1109.71 485.747 1096.04 485.592 1082.89 487.399C1079.81 486.44 1077.02 486.297 1073.8 486.151C1072.45 486.93 1071.83 487.143 1070.19 487.262C1068.21 487.407 1069.1 487.218 1067.41 487.55L1066.63 487.724C1064.42 486.727 1063.32 486.139 1061.91 484.248C1063.91 483.157 1065.74 483.393 1067.68 482.476C1069.25 481.732 1070.55 482.238 1072.3 482.423L1077.53 478.137L1090.01 475.771L1093.58 475.522L1118.1 473.667C1125.45 472.058 1134 472.166 1141.56 471.668C1159.1 470.515 1176.53 470.082 1194.14 469.947L1199.72 469.876Z" fill="#F64B98"/>
<path d="M1118.1 473.667L1117.98 475.897L1118.81 475.583C1121.13 474.931 1124.02 475.287 1126.57 474.811C1129.88 474.192 1133.4 474.629 1136.73 475.038L1138.79 479.392C1137.6 480.116 1137.25 480.67 1135.79 480.57C1133.28 480.401 1132.06 480.732 1129.7 481.051C1126.36 481.507 1125.35 480.514 1121.99 482.169L1122.64 483.092C1109.71 485.747 1096.04 485.592 1082.89 487.399C1079.81 486.44 1077.02 486.297 1073.8 486.151C1072.45 486.93 1071.83 487.143 1070.19 487.262C1068.21 487.407 1069.1 487.218 1067.41 487.55L1066.63 487.724C1064.42 486.727 1063.32 486.139 1061.91 484.248C1063.91 483.157 1065.74 483.394 1067.68 482.476C1069.25 481.732 1070.55 482.238 1072.3 482.423L1077.53 478.137L1090.01 475.771L1093.58 475.522L1118.1 473.667Z" fill="#EF3C82"/>
<path d="M1045.35 510.062C1078.84 502.057 1111.7 496.74 1146.3 494.4C1156.57 493.706 1167.15 492.491 1177.45 492.661C1181.31 515.105 1181.64 536.668 1179.06 559.084C1174.6 578.172 1165.64 600.78 1149.44 613.869C1149.42 612.358 1149.74 610.964 1150.01 609.484C1152.65 607.786 1153.24 606.854 1154.42 604.069C1151.57 602.335 1152.28 599.547 1148.01 598.642L1146.43 598.469L1145.55 597.79C1143 597.581 1141.64 597.274 1139.59 595.77L1138.54 594.958C1133.41 595.142 1127.69 593.115 1122.8 593.524C1121.44 593.639 1121.15 594.524 1119.53 594.347L1118.05 593.301L1116.01 594.544L1111.67 593.493L1109.97 594.479L1108.4 594.313L1106.95 595.912L1105.26 593.969L1103.18 595.499L1101.48 593.556L1099.79 594.545C1098.06 593.048 1096.77 593.462 1094.51 593.372L1086.77 583.91L1086.07 583.318C1085.35 580.953 1084.97 580.096 1082.74 578.819C1079.18 576.778 1077.29 573.877 1073.15 572.421C1071.79 571.94 1072.18 572.219 1071.01 571.306C1069.12 569.836 1066.7 570.852 1064.62 570.048C1060.4 568.414 1055.76 566.732 1051.05 566.204C1049.89 565.151 1049.34 564.809 1047.76 564.334L1039.49 561.399C1034.77 559.766 1029.56 558.115 1025.54 555.153C1023.66 553.77 1021.79 552.488 1019.58 551.56C1016.33 550.195 1015.65 546.899 1012.73 545.629L1011.98 545.413L1009.47 542.194C1007.95 540.419 1003.23 535.031 1001.05 534.793L999.243 537.105L999.135 534.131C1009.91 522.522 1030.09 514.92 1045.35 510.062Z" fill="white"/>
<path d="M999.136 534.13L999.243 537.104L1001.05 534.793C1003.23 535.031 1007.95 540.418 1009.47 542.194L1011.98 545.413L1012.73 545.628C1015.65 546.899 1016.33 550.195 1019.58 551.56C1021.79 552.487 1023.66 553.769 1025.54 555.153C1029.56 558.115 1034.77 559.765 1039.49 561.399L1047.76 564.333C1049.34 564.808 1049.89 565.15 1051.05 566.203C1055.76 566.731 1060.4 568.413 1064.62 570.047C1066.7 570.852 1069.12 569.836 1071.01 571.305C1072.18 572.219 1071.79 571.94 1073.15 572.421C1077.29 573.877 1079.18 576.778 1082.74 578.819C1084.97 580.095 1085.36 580.953 1086.07 583.317L1086.77 583.91L1094.51 593.372C1096.77 593.462 1098.06 593.048 1099.79 594.544L1101.48 593.556L1103.18 595.499L1105.26 593.968L1106.95 595.911L1108.4 594.313L1109.97 594.478L1111.67 593.493L1116.01 594.544L1118.05 593.3L1119.53 594.347C1121.15 594.524 1121.44 593.638 1122.8 593.524C1127.69 593.114 1133.41 595.142 1138.54 594.957L1139.59 595.769C1141.64 597.274 1143.01 597.581 1145.55 597.79L1146.43 598.469L1148.01 598.641C1152.28 599.547 1151.57 602.335 1154.42 604.069C1153.24 606.854 1152.65 607.786 1150.01 609.483C1149.74 610.964 1149.42 612.357 1149.44 613.869C1134.58 632.429 1109.53 649.16 1086.66 658.37C1061.4 668.544 1031.44 670.948 1005.15 661.098C976.309 650.296 958.233 624.771 946.304 599.435C957.273 575.069 976.054 549.812 999.136 534.13Z" fill="white"/>
<path d="M418.395 508.536C420.811 506.986 423.579 505.326 426.281 504.319C437.138 500.266 447.5 505.476 456.524 509.218C458.922 508.907 462.807 508.829 465.009 507.876C469.657 505.863 474.564 497.944 479.32 494.705C485.92 490.208 495.461 488.87 502.474 491.278C506.54 492.672 510.84 495.412 515.084 496.207C518.281 496.805 521.82 495.127 525.006 495.713C527.054 496.092 528.342 497.092 529.159 498.856C530.06 500.805 529.344 502.813 528.378 504.761C527.009 505.799 525.651 506.697 524.009 507.277C514.799 510.522 506.357 506.844 498.689 503.437C485.512 498.381 480.138 513.483 469.281 518.396C459.185 522.964 452.725 521.845 443.639 517.978C439.877 516.376 435.754 514.413 431.243 515.362C425.59 516.552 420.727 523.197 416.613 526.904C413.059 530.104 408.792 532.244 404.14 533.339C400.732 534.141 395.311 534.962 392.542 533.083C390.14 531.454 390.144 529.75 390.103 527.133C390.821 525.8 391.58 524.051 392.851 523.074C395.059 521.375 400.775 522.207 403.514 522.221L418.395 508.536Z" fill="#B10028"/>
<path d="M424.014 265.349C426.852 264.916 430.056 264.527 432.934 264.706C444.5 265.42 451.846 274.396 458.566 281.485C460.884 282.178 464.464 283.686 466.864 283.712C471.929 283.764 479.633 278.527 485.295 277.503C493.154 276.081 502.414 278.74 507.841 283.793C510.988 286.721 513.801 290.973 517.354 293.427C520.031 295.273 523.947 295.181 526.619 297.012C528.336 298.192 529.105 299.628 529.134 301.573C529.164 303.72 527.693 305.263 526.018 306.65C524.345 307.04 522.739 307.308 521.004 307.17C511.269 306.387 505.055 299.593 499.436 293.36C489.456 283.381 478.403 294.99 466.486 295.06C455.405 295.125 449.959 291.475 443.233 284.246C440.448 281.252 437.48 277.78 432.973 276.813C427.325 275.599 420.179 279.691 414.912 281.403C410.364 282.881 405.596 283.099 400.901 282.207C397.461 281.553 392.175 280.097 390.41 277.255C388.878 274.788 389.575 273.234 390.603 270.827C391.801 269.901 393.206 268.612 394.764 268.237C397.473 267.583 402.356 270.669 404.852 271.796L424.014 265.349Z" fill="#B10028"/>
<path d="M513.198 56.3187C515.715 57.6979 518.497 59.3342 520.675 61.2243C529.431 68.8162 529.816 80.4079 530.85 90.1218C532.271 92.0789 534.199 95.452 536.09 96.93C540.082 100.047 549.384 100.565 554.504 103.19C561.612 106.833 567.353 114.569 568.597 121.879C569.318 126.116 568.971 131.203 570.304 135.31C571.31 138.402 574.477 140.707 575.487 143.785C576.135 145.765 575.874 147.373 574.716 148.936C573.436 150.659 571.33 150.992 569.157 151.077C567.591 150.371 566.152 149.609 564.857 148.445C557.599 141.911 556.788 132.74 556.109 124.376C554.24 110.387 538.409 112.897 528.898 105.716C520.055 99.0381 517.945 92.8307 516.991 83.0029C516.597 78.933 516.347 74.3726 513.354 70.8669C509.604 66.4731 501.442 65.3837 496.218 63.5458C491.707 61.9578 487.786 59.2356 484.597 55.6753C482.262 53.0673 478.946 48.6998 479.27 45.3697C479.551 42.4805 481.049 41.6684 483.327 40.3806C484.841 40.3723 486.74 40.2015 488.206 40.8497C490.755 41.9755 492.761 47.3921 494.059 49.8039L513.198 56.3187Z" fill="#B10028"/>
</g>
<defs>
<linearGradient id="paint0_linear_14_4002" x1="666.521" y1="342.479" x2="657.812" y2="340.004" gradientUnits="userSpaceOnUse">
<stop stop-color="#212034"/>
<stop offset="1" stop-color="#323747"/>
</linearGradient>
<linearGradient id="paint1_linear_14_4002" x1="804.208" y1="897.775" x2="755.766" y2="913.099" gradientUnits="userSpaceOnUse">
<stop stop-color="#000005"/>
<stop offset="1" stop-color="#2B2936"/>
</linearGradient>
<linearGradient id="paint2_linear_14_4002" x1="788.904" y1="874.867" x2="734.062" y2="880.562" gradientUnits="userSpaceOnUse">
<stop stop-color="#161522"/>
<stop offset="1" stop-color="#3A3944"/>
</linearGradient>
<linearGradient id="paint3_linear_14_4002" x1="1251.83" y1="178.895" x2="1257.81" y2="55.7779" gradientUnits="userSpaceOnUse">
<stop stop-color="#12091A"/>
<stop offset="1" stop-color="#292E43"/>
</linearGradient>
<linearGradient id="paint4_linear_14_4002" x1="851.001" y1="86.6619" x2="842.967" y2="74.9424" gradientUnits="userSpaceOnUse">
<stop stop-color="#2D3146"/>
<stop offset="1" stop-color="#484E60"/>
</linearGradient>
<linearGradient id="paint5_linear_14_4002" x1="885.375" y1="295.663" x2="778.06" y2="180.794" gradientUnits="userSpaceOnUse">
<stop stop-color="#110718"/>
<stop offset="1" stop-color="#262B3F"/>
</linearGradient>
<linearGradient id="paint6_linear_14_4002" x1="833.63" y1="338.361" x2="763.237" y2="290.63" gradientUnits="userSpaceOnUse">
<stop stop-color="#1C1728"/>
<stop offset="1" stop-color="#3D3A4F"/>
</linearGradient>
<linearGradient id="paint7_linear_14_4002" x1="1190.83" y1="271.297" x2="1122.54" y2="11.4085" gradientUnits="userSpaceOnUse">
<stop stop-color="#09000E"/>
<stop offset="1" stop-color="#2C3146"/>
</linearGradient>
<linearGradient id="paint8_linear_14_4002" x1="976.79" y1="53.2484" x2="972.559" y2="31.2507" gradientUnits="userSpaceOnUse">
<stop stop-color="#2C2E44"/>
<stop offset="1" stop-color="#4F5669"/>
</linearGradient>
<linearGradient id="paint9_linear_14_4002" x1="1286.16" y1="655.641" x2="1048.34" y2="467.795" gradientUnits="userSpaceOnUse">
<stop/>
<stop offset="1" stop-color="#0D0515"/>
</linearGradient>
<linearGradient id="paint10_linear_14_4002" x1="1327.06" y1="549.245" x2="1413.06" y2="519.255" gradientUnits="userSpaceOnUse">
<stop/>
<stop offset="1" stop-color="#1E1D24"/>
</linearGradient>
<linearGradient id="paint11_linear_14_4002" x1="852.634" y1="327.466" x2="812.824" y2="225.579" gradientUnits="userSpaceOnUse">
<stop stop-color="#1A1325"/>
<stop offset="1" stop-color="#464354"/>
</linearGradient>
<linearGradient id="paint12_linear_14_4002" x1="775.92" y1="656.412" x2="757.946" y2="465.206" gradientUnits="userSpaceOnUse">
<stop stop-color="#C7002E"/>
<stop offset="1" stop-color="#E91969"/>
</linearGradient>
<linearGradient id="paint13_linear_14_4002" x1="780.244" y1="465.803" x2="760.455" y2="380.965" gradientUnits="userSpaceOnUse">
<stop stop-color="#E72E73"/>
<stop offset="1" stop-color="#F25DA1"/>
</linearGradient>
<linearGradient id="paint14_linear_14_4002" x1="769.669" y1="632.139" x2="741.726" y2="503.436" gradientUnits="userSpaceOnUse">
<stop stop-color="white"/>
<stop offset="1" stop-color="white"/>
</linearGradient>
<linearGradient id="paint15_linear_14_4002" x1="967.898" y1="669.169" x2="1082.27" y2="469.161" gradientUnits="userSpaceOnUse">
<stop stop-color="#CC0036"/>
<stop offset="1" stop-color="#E91D62"/>
</linearGradient>
<linearGradient id="paint16_linear_14_4002" x1="1183.47" y1="547.682" x2="1205.23" y2="490.385" gradientUnits="userSpaceOnUse">
<stop stop-color="#E72963"/>
<stop offset="1" stop-color="#F65CB8"/>
</linearGradient>
<clipPath id="clip0_14_4002">
<rect width="1920" height="1080" fill="white"/>
</clipPath>
</defs>
</svg>
