<svg width="1920" height="1080" viewBox="0 0 1920 1080" fill="none" xmlns="http://www.w3.org/2000/svg">
<g clip-path="url(#clip0_14_4114)">
<path d="M714.41 771.352L717.12 768.601L718.747 769.361L718.964 772.416L715.847 776.295L714.797 778.319L710.562 787.484L704.814 765.99C706.567 767.973 708.757 769.633 709.137 772.17L710.941 771.948L714.41 771.352Z" fill="#484859"/>
<path d="M1315.24 208.294C1329.52 235.03 1343.32 261.913 1350.55 290.977C1341.35 283.498 1342.42 278.056 1337.91 268.703C1333.1 258.728 1326.98 249.007 1321.55 239.272C1316.37 230.016 1314.26 223.045 1306.88 214.657C1308.74 212.044 1312.51 210.116 1315.24 208.294Z" fill="#555262"/>
<path d="M648.345 371.677C647.022 360.938 650.315 346.439 652.437 335.832C661.319 291.439 674.999 248.41 700.225 209.73C701.296 213.536 703.09 216.682 704.704 220.287L701.223 219.801C700.413 221.062 700.191 221.678 699.934 223.153C699.563 225.302 697.823 226.996 696.939 229.099C693.065 238.304 687.598 246.636 683.514 255.704C681.909 264.752 677.43 271.931 674.19 280.383C669.492 292.641 664.859 305.675 661.277 318.279C656.727 334.289 657.449 353.088 649.797 368.244L648.345 371.677Z" fill="#717786"/>
<path d="M649.797 368.244C649.465 357.758 651.55 336.18 656.637 327.465C657.885 325.331 656.853 321.051 658.102 318.913C659.895 315.845 660.541 312.792 662.214 309.658C663.201 307.815 663.291 303.375 663.661 301.196C664.198 298.052 667.595 289.681 669.808 287.506L668.774 286.146L670.195 285.229C670.45 283.514 670.656 282.012 671.308 280.388L673 276.316C674.266 273.077 675.984 270.182 677.739 267.161C678.571 265.73 679.173 264.362 679.765 262.818C680.749 260.24 682.052 258.057 683.514 255.704C681.909 264.752 677.43 271.931 674.19 280.383C669.492 292.641 664.859 305.675 661.277 318.279C656.727 334.289 657.449 353.088 649.797 368.244Z" fill="#686D7D"/>
<path d="M665.284 591.323C668.833 594.434 672.056 597.349 674.857 601.092C676.41 606.778 679.907 614.412 680.067 620.077C680.596 632.44 685.833 646.682 688.447 659.147C690.788 670.302 692.129 681.566 694.523 692.727C697.068 710.884 704.24 727.799 698.882 745.739L665.284 591.323Z" fill="#626575"/>
<path d="M683.514 255.704C687.598 246.636 693.064 238.304 696.939 229.099C697.823 226.996 699.562 225.302 699.934 223.153C700.191 221.679 700.413 221.062 701.222 219.801L704.704 220.287C705.608 222.553 706.971 224.882 706.718 227.279C707.71 229.563 708.533 232.07 710.051 234.107L709.514 234.901C710.234 236.035 711.277 238.327 712.351 239.092L696.749 302.356L679.191 353.179L674.093 367.569L671.19 375.421L668.508 381.063C667.83 383.844 667.385 386.79 665.913 389.282C662.347 390.696 659.079 389.625 655.41 388.858L654.418 388.555C650.917 387.318 650.764 386.986 647.09 388.096L648.344 371.677L649.797 368.244C657.449 353.088 656.727 334.289 661.277 318.279C664.859 305.675 669.492 292.641 674.19 280.383C677.43 271.931 681.909 264.752 683.514 255.704Z" fill="#484859"/>
<path d="M683.514 255.704C687.598 246.636 693.064 238.304 696.939 229.099C697.823 226.996 699.562 225.302 699.934 223.153C700.191 221.679 700.413 221.062 701.222 219.801L704.704 220.287C705.608 222.553 706.971 224.882 706.718 227.279C694.25 234.824 689.013 260.527 682.293 272.619C677.208 281.768 674.31 292.733 671.337 302.652C665.647 321.623 661.015 340.83 658.029 360.397C656.607 369.698 656.381 379.385 654.418 388.555C650.917 387.318 650.764 386.986 647.09 388.096L648.344 371.677L649.797 368.244C657.449 353.088 656.727 334.289 661.277 318.279C664.859 305.675 669.492 292.641 674.19 280.383C677.43 271.931 681.909 264.752 683.514 255.704Z" fill="#626575"/>
<path d="M666.911 359.628C666.112 348.384 669.363 335.478 671.54 324.565C673.529 314.586 677.133 305.359 680.486 295.78C682.651 289.6 684.353 283.021 687.272 277.134C694.524 262.507 702.602 251.216 706.519 235.173L709.515 234.902C710.235 236.035 711.278 238.328 712.351 239.092L696.749 302.356L679.192 353.179L674.093 367.569L671.19 375.421L668.509 381.063C667.831 383.844 667.386 386.79 665.913 389.282L663.08 388.231C661.105 380.568 665.463 367.613 666.911 359.628Z" fill="url(#paint0_linear_14_4114)"/>
<path d="M666.911 359.628L669.283 350.702C672.004 348.91 670.328 347.029 673.544 344.983C674.309 347.255 675.125 349.419 675.501 351.769C672.887 354.398 673.31 359.436 672.898 363.036L673.762 363.762L675.322 358.467L677.008 357.874C676.991 355.953 676.485 354.91 677.824 353.4L679.192 353.179L674.093 367.569L671.19 375.421L668.509 381.063C667.831 383.844 667.386 386.79 665.913 389.282L663.08 388.231C661.105 380.568 665.463 367.613 666.911 359.628Z" fill="#433F4F"/>
<path d="M673.543 344.982C674.308 347.255 675.124 349.419 675.5 351.769C672.886 354.398 673.309 359.436 672.897 363.036L673.761 363.762L675.321 358.466L677.007 357.874C676.99 355.953 676.484 354.91 677.823 353.4L679.191 353.179L674.092 367.569L671.189 375.421L668.508 381.063C665.75 370.536 671.905 355.708 673.543 344.982Z" fill="#26273A"/>
<path d="M715.846 776.295L718.014 778.088L724.64 784.416L724.382 787.896L725.506 786.919C727.248 790.45 724.751 792.039 728.588 795.055L728.759 799.441C728.917 802.748 729.272 804.311 731.617 806.951L734.498 808.41C736.23 818.72 736.402 819.517 745.707 825.917C754.664 832.077 762.235 838.785 770.069 846.125C772.228 848.145 776.719 851.623 777.905 854.207L778.131 855.59L778.767 858.411L777.497 860.575L792.552 878.828C792.685 881.149 792.736 883.327 793.396 885.587C795.109 891.463 791.312 898.091 793.844 903.419C796.034 908.024 797.082 913.328 799.095 918.072C800.452 921.27 803.066 923.955 803.032 927.448C803.005 930.192 802.907 926.187 803.769 929.719C804.26 931.737 804.399 933.633 804.96 935.778L805.105 938.737L805.325 941.118L804.667 941.703C802.768 943.562 801.888 945.624 800.97 947.991C799.171 952.631 799.191 953.265 794.588 955.571L793.386 955.217C791.882 954.829 790.988 954.839 789.485 954.983L786.92 953.398C767.924 939.769 755.268 916.576 746.109 896.567C742.836 889.422 738.911 881.631 737.497 874.016C733.335 866.653 731.258 857.125 728.748 849.188C722.27 828.715 716.457 808.089 710.562 787.484L714.796 778.319L715.846 776.295Z" fill="url(#paint1_linear_14_4114)"/>
<path d="M715.846 776.295L718.014 778.088L724.64 784.416L724.382 787.896L725.506 786.919C727.248 790.45 724.751 792.039 728.588 795.055L728.759 799.441C728.917 802.748 729.272 804.311 731.617 806.951L734.498 808.41C736.23 818.72 736.402 819.517 745.707 825.917C754.664 832.077 762.235 838.785 770.069 846.125C772.228 848.145 776.719 851.623 777.905 854.207L778.131 855.59L778.767 858.411L777.497 860.575C765.116 849.299 754.024 835.089 737.05 829.893L735.078 831.316C734.739 834.781 735.131 836.475 736.611 839.679C740.183 847.415 743.209 859.25 744.846 867.555L743.155 867.268L740.261 857.984L738.496 857.099C737.723 854.292 736.64 854.03 734.209 852.267L733.294 853.882L733.74 854.74C734.355 855.985 734.52 856.961 734.694 858.284C734.958 860.295 736.146 862.273 736.606 864.397L737.265 866.232C738.277 869.017 737.897 871.218 737.497 874.016C733.335 866.653 731.258 857.125 728.748 849.188C722.27 828.715 716.457 808.089 710.562 787.484L714.796 778.319L715.846 776.295Z" fill="url(#paint2_linear_14_4114)"/>
<path d="M715.847 776.295L718.014 778.088L724.64 784.417L724.383 787.896L725.507 786.919C727.248 790.45 724.752 792.039 728.589 795.055L728.759 799.441C728.917 802.748 729.273 804.312 731.617 806.951L729.272 817.43L727.41 817.114C725.385 816.5 724.216 815.087 723.204 813.477L721.991 811.513C720.582 809.68 719.919 809.367 719.483 807.063C718.823 803.575 717.277 797.005 715.355 793.975C713.833 791.578 714.915 789.079 715.37 786.359L716.807 785.43L715.768 784.095L716.942 783.109L714.797 778.319L715.847 776.295Z" fill="#26273A"/>
<path d="M1013.52 27.6682L1019.1 26.4346C1025.6 24.9996 1034.79 26.5639 1041.52 27.0366C1084.29 30.0513 1128.92 41.7801 1166.23 62.6081L1169.91 65.099C1179.74 68.3536 1192.98 76.9802 1200.77 83.4536C1249.04 114.155 1283.21 157.91 1312.76 203.606L1315.24 208.294C1312.51 210.116 1308.74 212.044 1306.88 214.657C1304.75 216.75 1302.43 219.671 1299.76 221.13C1298.35 219.745 1296.86 218.633 1295.27 217.439L1293.21 216.828C1288.41 214.53 1283.21 213.447 1278.04 212.152C1269.41 210.577 1260.74 207.011 1252.39 204.258C1213.15 191.32 1177.8 173.549 1143.26 152.036C1134.48 146.565 1123.2 140.374 1116.54 132.725C1086.86 109.644 1062.37 83.2909 1036.8 56.5782C1036.19 54.6203 1032.53 51.1217 1031.12 49.3782C1025.26 42.1411 1019.39 34.8981 1013.52 27.6682Z" fill="url(#paint3_linear_14_4114)"/>
<path d="M1216.46 185.987C1218.42 180.951 1223.46 179.52 1228.2 177.204C1233.08 177.92 1234.88 178.256 1239.11 180.642C1241.06 181.74 1243.67 181.854 1245.76 182.954C1247.65 183.946 1249.76 184.271 1251.84 184.724L1252.46 185.294C1253.84 186.492 1253.29 185.993 1255.07 187.127C1258.33 189.192 1260.63 192.764 1263.78 195.248C1266.07 197.056 1266.81 198.623 1269.66 200.056C1271.55 199.558 1270.78 200.068 1271.87 198.381L1273.97 199.3L1274.1 199.758L1281.06 206.304L1280.63 207.826C1259.26 204.317 1236.53 193.685 1216.46 185.987Z" fill="#140F20"/>
<path d="M1117.8 129.141C1126.26 133.676 1133.46 140.655 1141.5 145.898C1165.06 161.249 1190.12 175.359 1216.46 185.987C1236.53 193.684 1259.26 204.317 1280.63 207.826L1280.19 208.741L1278.04 212.152C1269.41 210.578 1260.74 207.011 1252.39 204.258C1213.15 191.321 1177.8 173.549 1143.26 152.036C1134.48 146.565 1123.2 140.374 1116.54 132.725L1117.8 129.141Z" fill="#433F4F"/>
<path d="M1013.52 27.6682L1019.1 26.4346C1025.6 24.9996 1034.79 26.5639 1041.52 27.0366C1084.29 30.0513 1128.92 41.7801 1166.23 62.6081L1169.91 65.099C1179.74 68.3536 1192.98 76.9802 1200.77 83.4536C1249.04 114.155 1283.21 157.91 1312.76 203.606L1315.24 208.294C1312.51 210.116 1308.74 212.044 1306.88 214.657C1304.75 216.75 1302.43 219.671 1299.76 221.13C1298.35 219.745 1296.86 218.633 1295.27 217.439L1293.21 216.828C1288.41 214.53 1283.21 213.447 1278.04 212.152L1280.19 208.741L1280.63 207.826L1281.06 206.304L1274.1 199.758C1278.26 201.243 1279.42 201.043 1283.76 199.812L1280.08 198.884C1278.67 196.946 1277.34 194.959 1275.34 193.473L1274.13 192.604C1274.04 188.718 1267.38 182.438 1265.77 178.366L1265.28 177.034L1262.82 175.44C1260.56 173.805 1258.74 171.981 1258.28 169.405C1256.89 168.375 1255.69 167.703 1254.94 166.192C1254.32 164.941 1253.55 163.957 1252.31 163.112C1246.12 158.862 1242.88 151.046 1237.53 145.764C1235.71 143.963 1234.06 142.065 1232.01 140.475L1230.77 139.526C1230.59 135.456 1228.46 135.609 1227.56 132.526C1227.25 131.459 1227.88 128.724 1227.98 127.514C1226.3 122.297 1188.91 97.0247 1181.96 92.2255C1178.58 89.8867 1173.92 89.0082 1172.12 85.4598C1155.78 77.0038 1139.55 68.7638 1121.99 62.7602C1100.22 55.3152 1077.29 51.8647 1054.55 48.4653C1048.79 47.6054 1039.88 44.775 1034.59 47.0273C1059.59 75.6042 1085.87 106.825 1117.8 129.141L1116.54 132.725C1086.86 109.644 1062.37 83.2909 1036.8 56.5782C1036.19 54.6203 1032.53 51.1217 1031.12 49.3782C1025.26 42.1411 1019.39 34.8981 1013.52 27.6682Z" fill="#545E75"/>
<path d="M1029.76 33.7471C1040.94 32.1741 1050.89 33.7416 1062.05 34.9004C1079.24 36.6859 1097.65 39.5593 1113.93 45.2743L1122.59 47.6477C1124.1 48.1601 1125.29 48.3893 1126.85 48.6619C1129.09 49.0517 1129.65 49.4947 1131.55 50.609C1133.52 51.77 1136.07 52.5591 1138.31 53.0786C1140.13 53.4985 1140.79 53.8739 1142.33 54.7845C1145.27 56.5141 1147.43 56.9678 1150.83 57.4004L1151.52 58.0635C1153.66 59.9306 1156.99 60.6755 1159.73 61.3781C1162 61.9584 1161.09 61.6423 1162.98 62.6449C1165.22 63.8252 1167.47 64.415 1169.91 65.099C1179.74 68.3536 1192.98 76.9802 1200.77 83.4536C1196.19 82.8459 1192.63 80.9907 1188.32 79.5827C1186.66 79.0442 1185.16 78.761 1183.84 77.6099C1182.4 76.3539 1178.18 76.1121 1176.07 75.7566C1163.75 68.099 1151.49 63.3012 1137.93 58.1564C1113.9 49.0438 1091.88 42.6583 1066.32 38.9425C1054.02 37.156 1041.44 38.1132 1029.76 33.7471Z" fill="#717786"/>
<path d="M1172.12 85.4599C1174.68 85.402 1176.14 86.1683 1178.32 87.2631C1182.05 89.1329 1186.34 90.8607 1189.79 93.1313C1195.25 96.7396 1200.58 101.704 1206.36 104.591C1208.06 105.441 1209.45 106.814 1210.85 108.033C1213.33 110.191 1216.25 111.866 1218.77 114.064C1220.91 115.931 1223.17 117.252 1225.27 119.27C1229.14 122.997 1233.72 125.906 1237.57 129.563L1239.17 130.937C1243.09 134.296 1245.53 138.605 1249.58 141.561L1250.57 142.537C1251.62 143.562 1252.26 144.015 1253.46 144.787C1255.27 145.942 1256.03 147.071 1257.26 148.699C1261.58 154.417 1268.39 160.519 1273 166.091C1280.17 174.76 1285.62 183.891 1292.35 192.542C1295.86 197.051 1304.34 205.632 1304.76 210.781L1309.88 206.133L1312.76 203.606L1315.24 208.294C1312.51 210.116 1308.74 212.044 1306.88 214.657C1304.75 216.75 1302.43 219.671 1299.76 221.13C1298.35 219.745 1296.86 218.633 1295.27 217.439L1293.21 216.828C1288.41 214.53 1283.21 213.447 1278.04 212.152L1280.19 208.741L1305.6 212.879C1299.98 206.521 1293.86 200.668 1288.5 194.063C1278.97 182.318 1270.65 170.145 1260.63 158.621C1257.39 154.903 1253.95 149.85 1249.56 147.386C1246.49 145.655 1245.76 143.227 1243.42 140.811C1238.68 135.916 1233.8 131.311 1227.98 127.514C1226.3 122.297 1188.91 97.0249 1181.96 92.2257C1178.58 89.8868 1173.92 89.0083 1172.12 85.4599Z" fill="#555262"/>
<path d="M1312.76 203.606L1315.24 208.294C1312.51 210.116 1308.74 212.044 1306.88 214.657C1304.75 216.75 1302.43 219.671 1299.76 221.13C1298.35 219.745 1296.86 218.633 1295.27 217.439L1293.21 216.828C1292.05 214.86 1291.76 214.799 1292.22 212.678L1301.83 213.728L1304.76 210.781L1309.88 206.133L1312.76 203.606Z" fill="#717786"/>
<path d="M1227.98 127.514C1233.8 131.311 1238.68 135.916 1243.42 140.811C1245.76 143.227 1246.49 145.655 1249.56 147.386C1253.95 149.85 1257.39 154.903 1260.63 158.621C1270.66 170.145 1278.97 182.318 1288.5 194.063C1293.86 200.668 1299.98 206.521 1305.6 212.879L1280.19 208.741L1280.63 207.826L1281.06 206.304L1274.1 199.758C1278.26 201.243 1279.42 201.043 1283.76 199.812L1280.08 198.884C1278.67 196.946 1277.34 194.959 1275.34 193.473L1274.13 192.604C1274.04 188.718 1267.38 182.438 1265.77 178.366L1265.28 177.034L1262.82 175.44C1260.56 173.805 1258.74 171.981 1258.28 169.406C1256.89 168.375 1255.69 167.703 1254.94 166.193C1254.32 164.941 1253.55 163.958 1252.32 163.112C1246.12 158.862 1242.88 151.047 1237.54 145.764C1235.71 143.963 1234.06 142.065 1232.01 140.475L1230.77 139.526C1230.59 135.457 1228.47 135.609 1227.56 132.526C1227.25 131.459 1227.88 128.725 1227.98 127.514Z" fill="#26273A"/>
<path d="M1176.07 75.7567C1178.18 76.1121 1182.4 76.354 1183.84 77.61C1185.16 78.7611 1186.66 79.0442 1188.32 79.5827C1192.63 80.9908 1196.19 82.846 1200.77 83.4536C1249.04 114.155 1283.21 157.91 1312.76 203.606L1309.88 206.133L1308.11 203.073C1306.07 196.656 1297.7 190.927 1294.05 184.269C1288.58 174.318 1280.42 166.075 1273.48 157.125C1271.43 154.478 1267.33 147.543 1264.47 146.119C1262.26 145.014 1261.07 142.922 1259.18 141.44C1250.42 134.561 1243.25 124.421 1234.37 117.102C1215.68 101.684 1195.95 89.5445 1176.07 75.7567Z" fill="#686D7D"/>
<path d="M1013.52 27.6682L1019.1 26.4346C1025.6 24.9996 1034.79 26.5639 1041.52 27.0366C1084.29 30.0513 1128.92 41.7801 1166.23 62.6081L1169.91 65.099C1167.47 64.415 1165.21 63.8251 1162.98 62.6449C1161.09 61.6423 1162 61.9584 1159.73 61.3781C1156.99 60.6754 1153.66 59.9305 1151.52 58.0635L1150.83 57.4004C1147.43 56.9678 1145.27 56.514 1142.33 54.7845C1140.79 53.8738 1140.13 53.4984 1138.31 53.0786C1136.07 52.5591 1133.52 51.77 1131.55 50.609C1129.65 49.4947 1129.09 49.0517 1126.85 48.6619C1125.29 48.3892 1124.1 48.1601 1122.59 47.6477L1113.93 45.2743C1097.65 39.5593 1079.24 36.6858 1062.05 34.9003C1050.89 33.7416 1040.94 32.1741 1029.76 33.747L1025.28 33.3102L1024.85 34.2557C1026.71 36.7459 1032.24 45.9109 1034.59 47.0273C1059.59 75.6042 1085.87 106.825 1117.8 129.141L1116.54 132.725C1086.86 109.644 1062.37 83.2909 1036.8 56.5782C1036.19 54.6203 1032.53 51.1217 1031.12 49.3782C1025.26 42.1411 1019.39 34.8981 1013.52 27.6682Z" fill="#757E8D"/>
<path d="M986.286 28.0097L994.947 27.0557L993.621 39.4094L991.761 53.905L994.732 53.8724L993.447 62.4251C989.526 76.6338 985.949 90.8647 982.774 105.248C981.364 111.628 979.07 119.205 979.418 125.761C978.57 127.543 978.255 129.05 976.496 130.183C975.031 131.224 969.864 134.176 969.367 135.523L958.449 142.953C896.018 194.012 813.699 248.674 724.415 242.032L721.614 241.733C721.313 239.924 720.607 239.594 719.339 238.226C716.248 236.534 715.838 234.904 714.201 232.012L710.052 234.107C708.534 232.07 707.71 229.563 706.718 227.279C706.972 224.882 705.608 222.553 704.704 220.287C703.09 216.682 701.296 213.536 700.226 209.73C713.909 186.766 729.57 165.903 748.638 146.483L756.059 138.597C759.799 134.693 763.369 130.579 768.01 127.547L769.546 125.8C783.202 112.011 799.357 100.601 815.802 89.8091C852.991 65.4093 891.962 47.2503 936.49 36.2464C952.177 32.3687 969.967 28.4491 986.286 28.0097Z" fill="#26273A"/>
<path d="M766.117 142.661L769.049 144.209C765.297 159.01 748.229 170.921 738.365 182.526C730.495 191.785 725.095 202.037 716.729 211.233C715.398 212.696 710.059 217.989 709.856 219.701C709.576 222.102 713.479 229.039 714.201 232.012L710.052 234.107C708.534 232.07 707.711 229.563 706.719 227.279C706.972 224.882 705.608 222.553 704.705 220.288L707.662 218.872L706.678 214.636C709.892 210.249 711.94 205.889 716.243 202.193C717.472 201.139 718.304 200.665 718.978 199.219C721.834 193.09 728.051 188.268 730.834 182.295C731.365 181.155 731.08 181.446 731.959 180.584C739.187 173.49 748.442 163.485 753.371 154.852C755.49 151.137 758.514 148.58 761.314 145.335L766.117 142.661Z" fill="#6E7387"/>
<path d="M896.232 83.0714L898.804 85.6236C870.728 101.492 842.725 116.163 812.438 128.319C803.066 132.08 793.883 136.147 784.029 138.834L769.049 144.209L766.117 142.661L761.314 145.335L748.638 146.483L756.059 138.598C759.799 134.693 763.369 130.579 768.01 127.547C775.346 126.884 780.668 122.063 786.123 118.149L794.142 111.865L796.286 112.349L765.019 139.231C769.381 138.441 785.145 136.404 787.496 133.13C798.455 130.58 808.231 126.428 818.5 122.294C826.152 119.215 834.286 116.332 841.162 111.949C846.012 110.228 850.237 107.875 854.658 105.412L892.334 84.825L896.232 83.0714Z" fill="#717786"/>
<path d="M756.059 138.598C759.531 140.432 761.673 140.871 765.613 140.76L766.117 142.661L761.314 145.335L748.638 146.484L756.059 138.598Z" fill="#8B8F9F"/>
<path d="M748.638 146.484L761.314 145.335C758.514 148.581 755.49 151.137 753.371 154.852C748.442 163.485 739.187 173.49 731.959 180.584C731.08 181.446 731.365 181.155 730.834 182.295C728.051 188.268 721.834 193.09 718.978 199.219C718.304 200.665 717.472 201.139 716.243 202.193C711.94 205.889 709.892 210.249 706.678 214.636L707.662 218.872L704.705 220.288C703.09 216.683 701.296 213.536 700.226 209.73C713.909 186.767 729.57 165.904 748.638 146.484Z" fill="#757E8D"/>
<path d="M986.286 28.0097L994.947 27.0558L993.621 39.4095L991.761 53.905L994.732 53.8725L993.447 62.4252C989.526 76.6339 985.949 90.8648 982.774 105.248C981.364 111.628 979.07 119.205 979.418 125.761C978.57 127.543 978.255 129.05 976.496 130.183C975.031 131.224 969.864 134.176 969.367 135.523L958.449 142.953L955.046 140.422C960.396 135.953 969.281 130.095 972.61 124.356C976.186 118.182 976.87 107.606 978.496 100.594C982.593 82.9162 988.133 65.2196 990.463 47.2421C985.539 48.0055 979.365 49.6876 974.397 48.979C975.5 47.858 976.369 46.7843 977.226 45.4896L974.123 44.9506L972.687 45.8799L969.892 45.4114L968.556 45.7696L967.097 44.9428L964.66 48.0336L958.822 48.5758C961.898 44.8461 966.452 42.3668 970.57 39.6842C973.413 37.1153 976.785 35.0293 980.377 33.4247C983.455 32.048 984.558 30.7169 986.286 28.0097Z" fill="#626575"/>
<path d="M986.286 28.0096L994.947 27.0557L993.621 39.4093C990.946 39.1953 988.182 38.5849 985.832 39.9291C983.183 39.4703 982.961 38.6404 981.061 37.9486C979.028 37.2074 972.713 39.0608 970.57 39.6841C973.413 37.1152 976.785 35.0292 980.377 33.4246C983.455 32.0479 984.558 30.7168 986.286 28.0096Z" fill="#686D7D"/>
<path d="M955.047 140.422L958.449 142.953C896.018 194.012 813.699 248.674 724.415 242.032L721.614 241.733C721.313 239.924 720.607 239.594 719.339 238.226C730.482 237.862 741.71 238.601 752.807 237.602C818.254 231.714 869.724 203.726 919.735 167.421C931.759 158.69 942.988 149.065 955.047 140.422Z" fill="#555262"/>
<path d="M768.01 127.547L769.546 125.8C783.202 112.011 799.357 100.6 815.803 89.8091C852.992 65.4092 891.962 47.2502 936.49 36.2463C952.177 32.3687 969.967 28.4491 986.286 28.0096C984.558 30.7168 983.456 32.0479 980.377 33.4245C976.786 35.0292 973.413 37.1152 970.57 39.6841C966.453 42.3666 961.898 44.846 958.823 48.5756L898.804 85.6234L896.232 83.0713L892.334 84.8249L854.658 105.412C850.237 107.875 846.012 110.227 841.162 111.948C834.286 116.332 826.152 119.215 818.5 122.294C808.231 126.428 798.455 130.58 787.496 133.13C785.145 136.404 769.381 138.441 765.019 139.231L796.286 112.349L794.142 111.865L786.123 118.149C780.668 122.062 775.346 126.884 768.01 127.547Z" fill="#626575"/>
<path d="M868.945 76.0583C876.913 73.4473 882.953 68.3216 890.551 65.2459C897.404 62.4758 905.502 59.4068 912.618 57.3804C919.562 55.4029 926.793 54.8184 933.71 52.5363C940.431 50.3197 946.534 44.5535 953.833 45.0099C949.738 48.5034 945.9 52.1547 940.868 54.5019L938.679 53.3531C929.648 56.2634 905.804 70.8967 897.344 68.2628L896.474 69.6665L873.149 79.5717C866.325 80.9156 860.054 84.6278 853.447 86.7795L868.945 76.0583Z" fill="#545E75"/>
<path d="M873.148 79.5717L896.474 69.6665L897.343 68.2628C905.803 70.8967 929.647 56.2634 938.679 53.3531L940.868 54.5019C937.887 56.5524 924.906 66.5429 922.201 66.4165L896.231 83.0714L892.334 84.825L890.491 82.3696L885.206 83.4166L884.703 82.5241L890.087 78.3371C886.12 79.0499 876.768 82.1158 873.528 81.1904L873.148 79.5717Z" fill="#484859"/>
<path d="M890.087 78.3372C898.545 75.6446 913.971 64.815 922.201 66.4166L896.231 83.0715L892.333 84.8251L890.491 82.3697L885.206 83.4167L884.703 82.5242L890.087 78.3372Z" fill="#433F4F"/>
<path d="M873.149 79.5718L873.528 81.1905C876.768 82.1159 886.121 79.05 890.087 78.3372L884.703 82.5242L885.206 83.4167L890.491 82.3697L892.334 84.8251L854.657 105.412C850.237 107.875 846.012 110.228 841.161 111.949C834.286 116.332 826.151 119.215 818.5 122.294C808.23 126.428 798.454 130.58 787.496 133.13L785.63 130.755C789.056 125.711 793.317 122.014 797.349 117.451C802.353 111.783 808.225 108.723 814.382 104.371C817.682 102.041 820.457 99.2537 824.156 97.4003C829.813 94.568 836.502 92.6702 841.639 89.1465C850.874 82.805 857.67 78.7349 868.945 76.0584L853.446 86.7796C860.054 84.6279 866.325 80.9157 873.149 79.5718Z" fill="url(#paint4_linear_14_4114)"/>
<path d="M841.162 111.949C842.346 108.861 845.607 104.74 849.212 103.572C851.378 102.872 852.829 104.379 854.658 105.412C850.237 107.875 846.012 110.228 841.162 111.949Z" fill="#26273A"/>
<path d="M768.01 127.547L769.546 125.8C783.201 112.011 799.356 100.601 815.802 89.8091C852.991 65.4092 891.962 47.2503 936.49 36.2464C952.177 32.3687 969.967 28.4491 986.286 28.0096C984.558 30.7168 983.455 32.0479 980.377 33.4246C976.785 35.0292 973.413 37.1152 970.57 39.6841C966.452 42.3666 961.898 44.846 958.822 48.5756L898.803 85.6235L896.232 83.0713L922.201 66.4164C924.906 66.5428 937.887 56.5523 940.868 54.5018C945.9 52.1546 949.737 48.5033 953.833 45.0098C956.656 43.6528 958.383 42.5718 960.39 40.2869C958.43 39.7351 958.494 39.4368 956.511 40.1354C950.652 42.1951 945.862 41.8468 939.965 43.0089C931.734 44.6299 923.074 48.0474 915.09 50.5416C872.18 63.9416 831.451 86.7502 796.286 112.349L794.141 111.865L786.122 118.149C780.667 122.062 775.346 126.884 768.01 127.547Z" fill="#757E8D"/>
<path d="M969.366 135.523C969.919 139.004 968.081 141.09 967.067 144.251C965.508 149.118 963.356 158.054 963.731 163.084C958.665 184.33 953.492 205.723 949.002 227.084C946.898 237.082 945.175 247.154 942.904 257.118C942.335 259.62 941.931 264.274 940.738 266.328C938.925 269.459 933.043 273.825 930.219 276.44C911.247 294.019 892.307 308.543 869.674 321.974L851.886 330.95L855.96 333.937C835.68 345.854 814.584 349.849 790.421 350.345C783.195 350.496 775.1 350.967 767.96 349.532L766.173 349.142L763.131 349.798L763.09 354.911L760.373 355.932C759.803 357.401 759.051 358.843 758.999 360.421L743.445 420.422L736.764 417.475L671.384 393.452C670.012 389.711 673.441 383.017 674.748 379.149C673.733 376.828 673.501 376.792 671.19 375.421L674.092 367.569L679.191 353.179L696.748 302.356L712.35 239.092C711.277 238.328 710.234 236.035 709.514 234.901L710.051 234.107L714.2 232.012C715.838 234.904 716.248 236.534 719.338 238.226C720.607 239.594 721.313 239.924 721.614 241.733L724.414 242.032C813.699 248.674 896.018 194.012 958.449 142.953L969.366 135.523Z" fill="url(#paint5_linear_14_4114)"/>
<path d="M744.851 307.235C747.275 312.697 750.419 318.482 752.047 324.148C750.28 325.444 750.073 325.736 747.83 325.871L741.155 311.67L744.851 307.235Z" fill="#433F4F"/>
<path d="M752.047 324.148C756.008 329.625 758.378 336.661 761.095 342.743C792.402 347.285 823.807 343.448 851.886 330.95L855.959 333.938C835.68 345.854 814.584 349.849 790.42 350.346C783.195 350.496 775.1 350.967 767.96 349.532L766.173 349.142L763.131 349.798L763.09 354.911L760.373 355.932C759.803 357.401 759.051 358.843 758.999 360.421L743.444 420.422L736.764 417.475L739.166 416.443C744.415 400.032 747.996 383.219 752.113 366.526C753.313 361.652 756.478 354.319 756.491 349.463C756.496 347.973 754.923 345.047 754.358 343.463C752.255 337.575 750.185 331.681 747.83 325.871C750.073 325.736 750.28 325.444 752.047 324.148Z" fill="url(#paint6_linear_14_4114)"/>
<path d="M714.201 232.012C715.838 234.904 716.248 236.534 719.338 238.226C720.607 239.594 721.313 239.924 721.614 241.733C719.358 243.331 718.881 243.634 717.852 246.057C729.868 265.046 736.62 286.714 744.851 307.235L741.155 311.67L747.831 325.871C750.186 331.681 752.255 337.575 754.359 343.463C754.924 345.047 756.497 347.973 756.492 349.463C756.478 354.319 753.314 361.652 752.113 366.526C747.997 383.219 744.416 400.032 739.167 416.443L736.765 417.475L671.385 393.452C670.012 389.711 673.441 383.017 674.749 379.149C673.734 376.828 673.501 376.792 671.19 375.421L674.093 367.569L679.192 353.179L696.749 302.356L712.351 239.092C711.277 238.328 710.234 236.035 709.515 234.902L710.052 234.108L714.201 232.012Z" fill="#26273A"/>
<path d="M696.749 302.356L697.476 305.099L700.651 304.984C695.722 329.238 684.965 354.148 676.082 377.308L674.749 379.149C673.734 376.828 673.501 376.792 671.19 375.421L674.093 367.569L679.191 353.179L696.749 302.356Z" fill="#433F4F"/>
<path d="M674.093 367.569C676.282 368.448 676.214 368.847 677.362 370.828C676.808 372.957 676.088 375.095 676.082 377.308L674.749 379.149C673.734 376.828 673.501 376.792 671.19 375.421L674.093 367.569Z" fill="#555262"/>
<path d="M714.201 232.012C715.838 234.904 716.248 236.534 719.339 238.226C720.607 239.594 721.313 239.924 721.614 241.733C719.358 243.331 718.882 243.634 717.852 246.057C729.869 265.046 736.62 286.714 744.851 307.235L741.155 311.67C735.745 297.41 729.262 283.484 723.44 269.361C721.05 263.563 721.012 257.622 716.291 252.88L700.652 304.984L697.477 305.099L696.749 302.356L712.351 239.092C711.278 238.328 710.235 236.035 709.515 234.901L710.052 234.107L714.201 232.012Z" fill="#484859"/>
<path d="M714.201 232.013C715.838 234.904 716.248 236.534 719.339 238.226C720.607 239.594 721.313 239.924 721.614 241.733C719.358 243.331 718.882 243.634 717.852 246.058L716.137 251.765L712.194 249.01L712.351 239.092C711.278 238.328 710.235 236.035 709.515 234.902L710.052 234.108L714.201 232.013Z" fill="#626575"/>
<path d="M1010.26 26.6767L1013.02 26.8337L1013.52 27.6681C1019.4 34.8981 1025.26 42.1411 1031.12 49.3782C1032.54 51.1217 1036.19 54.6203 1036.8 56.5781C1062.37 83.2909 1086.86 109.644 1116.54 132.725C1123.2 140.374 1134.48 146.565 1143.26 152.036C1177.8 173.549 1213.15 191.32 1252.39 204.258C1260.74 207.011 1269.41 210.577 1278.04 212.152C1283.21 213.447 1288.41 214.53 1293.21 216.828L1295.27 217.438C1296.86 218.633 1298.35 219.745 1299.76 221.13L1295.02 225.484L1295.04 225.642L1215.74 295.62L1157.87 347.733L1153.96 347.438L1155.66 343.714C1165.8 336.941 1174.79 326.621 1183.62 318.42C1191.41 311.194 1199.9 304.633 1207.62 297.358C1205.94 294.202 1201.72 293.377 1198.3 291.94C1196.38 292.428 1191.09 291.035 1188.88 290.713C1165.62 287.294 1139.33 277.199 1118.06 267.696C1106.84 263.148 1096.24 255.982 1086.3 249.405C1072.83 240.501 1058.66 231.179 1047.78 219.549C1048.68 217.227 1047.7 215.008 1047.05 212.68L1018.26 180.142C1003.95 163.246 995.038 141.268 979.418 125.761C979.07 119.205 981.364 111.628 982.774 105.248C985.949 90.8647 989.527 76.6338 993.447 62.4251L994.732 53.8724L991.761 53.9049L993.621 39.4094L994.947 27.0557L1010.26 26.6767Z" fill="url(#paint7_linear_14_4114)"/>
<path d="M1123.34 264.632C1140.74 272.495 1158.78 278.005 1177.23 283.16C1183.65 284.952 1190.86 285.94 1197.01 288.325L1212.54 291.14C1207.9 292.419 1202.15 289.966 1198.29 291.94C1196.38 292.428 1191.09 291.035 1188.88 290.714C1165.62 287.294 1139.33 277.199 1118.06 267.696C1119.72 266.466 1121.48 265.595 1123.34 264.632Z" fill="#433F4F"/>
<path d="M1197.01 288.325L1212.54 291.14C1207.9 292.419 1202.15 289.966 1198.3 291.94C1196.38 292.428 1191.09 291.035 1188.88 290.714C1187.21 289.539 1188 290.018 1185.98 288.939L1184.46 288.138C1188.05 286.756 1193.14 287.913 1197.01 288.325Z" fill="#484859"/>
<path d="M1047.05 212.68C1068.19 232.873 1095.4 253.252 1123.34 264.632C1121.48 265.595 1119.72 266.466 1118.06 267.696C1106.84 263.148 1096.24 255.982 1086.3 249.406C1072.83 240.502 1058.66 231.179 1047.78 219.549C1048.68 217.227 1047.7 215.009 1047.05 212.68Z" fill="#39373F"/>
<path d="M1295.27 217.439C1296.86 218.633 1298.35 219.745 1299.76 221.13L1295.02 225.484L1295.04 225.642L1215.74 295.62L1157.87 347.733L1153.96 347.438L1155.66 343.714C1165.8 336.942 1174.78 326.621 1183.62 318.42C1191.41 311.194 1199.9 304.633 1207.62 297.359C1205.94 294.202 1201.72 293.377 1198.3 291.94C1202.15 289.966 1207.9 292.419 1212.54 291.14C1220.21 287.032 1227.32 279.423 1233.63 273.701C1246.37 262.139 1259.35 250.828 1272.17 239.347C1278.92 233.306 1285.2 226.468 1292.86 221.387C1294.38 220.381 1294.59 219.025 1295.27 217.439Z" fill="#626575"/>
<path d="M1010.26 26.6767L1013.02 26.8337L1013.52 27.6681C1019.4 34.8981 1025.26 42.1411 1031.12 49.3782C1032.54 51.1217 1036.19 54.6203 1036.8 56.5781L1034.12 56.7418L1032.46 54.8684C1031.24 55.2623 1030.26 55.6858 1029.12 56.2497C1027.51 57.0522 1025.93 57.5381 1024.24 58.1625L1023.25 58.5748C1020.04 59.8585 1015.45 61.229 1011.94 61.0557C1008.81 60.9018 1011.12 60.9822 1009.06 61.1609C1005.23 61.4889 1000.85 58.8724 997.64 60.6675L993.447 62.4251L994.732 53.8724L991.761 53.9049L993.621 39.4094L994.947 27.0557L1010.26 26.6767Z" fill="url(#paint8_linear_14_4114)"/>
<path d="M994.947 27.0558L1010.26 26.6769C1007.17 29.3835 1004.15 31.7517 1000.58 33.9154L994.732 53.8725L991.761 53.9051L993.621 39.4095L994.947 27.0558Z" fill="#6E7387"/>
<path d="M1280.99 671.592L1283.04 670.632L1287.91 673.02C1248.08 745.483 1201.73 813.832 1145.38 876.19C1103.16 922.904 1055.4 970.015 990.02 988.251C952.438 998.735 913.61 997.816 874.875 990.749C854.846 987.096 835.214 982.007 816.974 973.112C806.988 968.242 797.64 962.232 789.486 954.984C790.988 954.84 791.883 954.829 793.386 955.217L794.588 955.571C799.192 953.265 799.172 952.631 800.97 947.992C801.889 945.624 802.769 943.562 804.667 941.703L805.325 941.119L805.105 938.738L804.96 935.778C804.399 933.634 804.26 931.738 803.769 929.719C802.907 926.188 803.005 930.192 803.033 927.448C803.067 923.955 800.452 921.27 799.096 918.072C797.083 913.328 796.034 908.025 793.844 903.419C791.312 898.092 795.109 891.463 793.396 885.588C792.737 883.327 792.685 881.149 792.553 878.828L820.277 918.773C823.267 923.058 829.623 931.937 830.796 936.775C831.207 938.477 830.126 942.455 829.895 944.433C829 952.073 827.501 959.954 827.253 967.635C827.141 971.127 827.159 971.556 829.734 974.208C833.211 971.849 836.198 944.534 837.46 939.146C844.93 935.403 849.673 928.905 856 923.858C867.226 914.902 879.335 906.81 892.294 900.089C920.228 885.937 953.214 878.051 985.772 880.36C995.652 881.062 1005.64 884.109 1015.51 883.813L1016.5 883.768C1019.23 883.809 1021.7 883.262 1024.34 882.734C1023.45 880.144 1022.82 877.906 1022.62 875.211C1027.05 871 1031.23 837.661 1033.57 828.697C1036.75 816.535 1040.7 804.56 1045.01 792.729C1053.3 769.975 1064.24 748.577 1077.93 728.261C1083.8 719.54 1090.75 711.499 1096.99 702.998C1101.32 697.3 1108.75 691.049 1111.15 684.5C1111.91 683.635 1118.82 682.397 1120.41 681.986L1164.25 657.898L1168.53 654.766L1214.86 661.773L1236.35 667.067L1230.13 666.715L1229.62 667.833L1229.84 667.933C1237.42 669.528 1245.13 670.379 1252.72 672.055C1255.6 672.691 1261.12 674.924 1263.75 674.924C1264.68 674.926 1266.23 673.389 1267.22 673.299C1272.82 672.78 1276.2 676.654 1281.93 673.937L1280.99 671.592Z" fill="#0B0513"/>
<path d="M1046.38 926.599L1047.33 924.92C1048.97 924.396 1049.38 924.417 1051.04 924.595L1060.81 946.994L1059.77 949.465C1058.2 948.474 1058.01 948.659 1057.3 946.932L1046.38 926.599Z" fill="#39373F"/>
<path d="M1120.41 681.986L1100.4 707.114L1098.42 706.481C1097.08 705.021 1097.29 704.786 1096.99 702.998C1101.32 697.3 1108.75 691.049 1111.15 684.5C1111.91 683.635 1118.82 682.397 1120.41 681.986Z" fill="#26273A"/>
<path d="M1046.38 926.599C1042.43 921.818 1039.5 915.215 1036.48 909.871C1032.07 902.067 1024.51 891.991 1024.07 883.193C1036.04 895.02 1042.93 910.452 1051.05 924.595C1049.38 924.417 1048.97 924.396 1047.33 924.92L1046.38 926.599Z" fill="#26273A"/>
<path d="M1164.25 657.898L1168.53 654.766L1214.86 661.773L1236.35 667.067L1230.13 666.715L1229.62 667.833L1164.25 657.898Z" fill="#484859"/>
<path d="M1190.31 757.299C1203.07 739.414 1217.77 722.746 1232.45 706.208C1241.55 695.943 1252.16 682.825 1264.16 675.462C1258.89 684.832 1250.78 692.662 1243.63 700.809C1226.59 720.211 1207.13 740.092 1193.79 761.872L1190.31 757.299Z" fill="#26273A"/>
<path d="M1190.31 757.299L1193.79 761.872C1167.86 792.202 1149.62 829.049 1133.09 864.476C1126.15 879.34 1122.05 893.59 1112.38 907.329C1118.64 879.27 1132.65 852.962 1146.3 827.656C1159.61 802.968 1173 779.868 1190.31 757.299Z" fill="#39373F"/>
<path d="M1096.99 702.998C1097.29 704.786 1097.08 705.021 1098.42 706.481L1100.4 707.114C1068.54 749.673 1046.85 794.773 1035.63 845.958C1032.86 858.557 1029.87 870.466 1030.12 883.485L1028.92 883.076C1027.23 882.58 1026.06 882.631 1024.34 882.735C1023.45 880.144 1022.81 877.906 1022.62 875.211C1027.05 871 1031.23 837.661 1033.57 828.697C1036.75 816.535 1040.7 804.56 1045.01 792.729C1053.3 769.975 1064.24 748.577 1077.93 728.262C1083.8 719.54 1090.75 711.499 1096.99 702.998Z" fill="#24212F"/>
<path d="M1306.88 214.657C1314.25 223.045 1316.37 230.016 1321.54 239.272C1326.98 249.007 1333.1 258.728 1337.91 268.703C1342.42 278.056 1341.35 283.498 1350.55 290.977C1356.22 310.008 1362.3 330.266 1363.65 349.942C1372.48 411.146 1366.55 472.463 1348.04 531.032C1344.92 540.885 1342.34 551.669 1337.74 560.973C1326.09 599.643 1306.09 636.831 1287.91 673.02L1283.04 670.632L1280.99 671.592L1281.93 673.937C1276.2 676.654 1272.82 672.78 1267.22 673.299C1266.23 673.389 1264.68 674.926 1263.75 674.924C1261.12 674.924 1255.6 672.691 1252.72 672.055C1245.13 670.379 1237.42 669.528 1229.84 667.933L1229.62 667.833L1230.13 666.715L1236.35 667.067L1214.86 661.773L1168.53 654.766C1187.49 638.478 1206.51 620.853 1216.71 598.32C1221.25 588.3 1223.63 577.172 1226.18 566.562L1227.08 561.048L1227.99 535.534C1227.55 522.905 1226.59 510.58 1224.56 498.026C1223.89 493.825 1223.68 488.834 1221.25 485.155L1210.02 484.169L1204.47 483.904C1186.96 482.98 1169.62 482.361 1152.11 482.443C1144.57 482.48 1136.08 481.861 1128.69 483.003L1104.21 483.357C1103.45 471.149 1105.28 458.593 1106.6 446.505C1108.27 431.308 1109.74 416.123 1112.75 401.126C1113.43 397.701 1113.47 392.547 1114.74 389.401C1116.06 386.121 1122.38 381.177 1125.06 378.673C1135.51 368.907 1147.46 359.373 1156.91 348.822L1157.87 347.733L1215.74 295.62L1295.04 225.642L1295.02 225.484L1299.76 221.13C1302.43 219.671 1304.75 216.75 1306.88 214.657Z" fill="url(#paint9_linear_14_4114)"/>
<path d="M1298.51 339.664L1304.24 433.172C1303.06 435.362 1302.02 438.058 1299.97 439.657C1297.6 427.571 1297.01 414.729 1296.16 402.511C1294.78 382.456 1293.82 362.616 1293.75 342.546L1298.51 339.664Z" fill="#484859"/>
<path d="M1298.37 228.462C1302.37 229.684 1302.06 229.638 1303.91 232.833C1304.08 242.413 1300.02 253.194 1301.59 262.4L1298.51 339.664L1293.75 342.546L1298.37 228.462Z" fill="#433F4F"/>
<path d="M1304.24 433.172C1309.06 466.647 1312.58 502.019 1323.05 534.545C1325.35 545.28 1332.27 562.769 1328.14 573.03C1325.77 570.025 1325.16 562.853 1324.1 559.099C1318.51 539.323 1314.08 519.367 1309.92 499.341C1305.86 479.811 1301 459.487 1299.97 439.657C1302.02 438.058 1303.06 435.362 1304.24 433.172Z" fill="#39373F"/>
<path d="M1227.08 561.048C1231.12 567.403 1232.25 575.461 1234.72 582.455C1242.04 603.213 1249.93 623.358 1258.27 643.816C1262.18 653.406 1263.69 662.48 1270.71 670.849C1274.35 671.667 1277.29 671.75 1280.99 671.592L1281.93 673.937C1276.2 676.654 1272.82 672.78 1267.22 673.299C1266.23 673.389 1264.68 674.926 1263.75 674.924C1261.12 674.924 1255.6 672.691 1252.72 672.055C1245.13 670.38 1237.42 669.528 1229.84 667.933L1229.62 667.833L1230.13 666.715L1236.35 667.067L1214.86 661.773L1168.53 654.766C1187.49 638.478 1206.51 620.853 1216.71 598.32C1221.25 588.3 1223.62 577.172 1226.18 566.562L1227.08 561.048Z" fill="#0B0513"/>
<path d="M1227.08 561.048C1231.12 567.403 1232.25 575.461 1234.72 582.455C1242.04 603.213 1249.93 623.358 1258.27 643.816C1262.18 653.406 1263.69 662.48 1270.71 670.849C1274.35 671.668 1277.29 671.75 1280.99 671.592L1281.93 673.937C1276.2 676.654 1272.82 672.78 1267.22 673.299C1266.23 673.389 1264.68 674.926 1263.75 674.924C1261.12 674.924 1255.6 672.691 1252.72 672.055C1245.13 670.38 1237.42 669.528 1229.84 667.933L1229.63 667.833L1230.13 666.715L1236.35 667.067L1214.86 661.773C1230.7 662.023 1248.48 666.377 1264.29 668.756C1252.84 645.852 1242.58 622.925 1234.56 598.861C1231.89 590.849 1228.27 582.182 1227.68 573.846C1227.49 571.197 1227.1 569.096 1226.18 566.562L1227.08 561.048Z" fill="#39373F"/>
<path d="M1157.87 347.733L1215.74 295.62C1216.36 298.303 1217.13 299.331 1215.72 301.758C1214.96 334.286 1208.55 366.362 1207.84 399.103C1207.48 415.519 1207.74 431.821 1208.62 448.249C1209.24 459.86 1211.69 472.759 1210.02 484.169L1204.47 483.903C1186.96 482.98 1169.62 482.361 1152.11 482.443C1144.57 482.48 1136.08 481.86 1128.69 483.002L1104.22 483.356C1103.45 471.149 1105.28 458.592 1106.6 446.505C1108.27 431.307 1109.74 416.123 1112.75 401.125C1113.43 397.7 1113.47 392.546 1114.74 389.401C1116.06 386.12 1122.38 381.177 1125.06 378.673C1135.51 368.907 1147.46 359.372 1156.91 348.821L1157.87 347.733Z" fill="#0B0513"/>
<path d="M1204.47 483.904C1205.73 478.171 1204.33 471.504 1203.96 465.651C1203.16 453.165 1202.39 440.621 1202.03 428.131C1201.49 409.47 1202.35 390.877 1203.4 372.284C1204.18 358.681 1206.87 308.862 1215.72 301.758C1214.96 334.287 1208.55 366.362 1207.84 399.104C1207.48 415.52 1207.73 431.821 1208.62 448.249C1209.24 459.86 1211.69 472.759 1210.02 484.169L1204.47 483.904Z" fill="#433F4F"/>
<path d="M1306.88 214.657C1314.26 223.046 1316.37 230.016 1321.55 239.272C1326.98 249.007 1333.1 258.728 1337.91 268.703C1342.42 278.056 1341.35 283.499 1350.55 290.977C1356.22 310.008 1362.3 330.266 1363.65 349.942C1372.48 411.146 1366.55 472.463 1348.04 531.032C1344.92 540.885 1342.34 551.669 1337.74 560.973L1335.34 560.426C1334.94 562.053 1334.8 563.574 1333.53 564.819C1332.23 566.087 1332.15 568.109 1331.72 569.863C1331.3 565.302 1332.24 561.765 1330.33 557.312C1329.12 554.492 1329.76 551.541 1328.56 549.101C1327.97 547.9 1328.09 548.481 1327.94 547.285C1327.29 542.285 1326.29 538.759 1323.05 534.545C1312.58 502.019 1309.06 466.648 1304.24 433.172L1298.51 339.664L1301.59 262.401C1300.02 253.195 1304.08 242.413 1303.92 232.833C1302.06 229.638 1302.37 229.684 1298.37 228.462L1295.04 225.642L1295.02 225.484L1299.76 221.13C1302.43 219.671 1304.75 216.75 1306.88 214.657Z" fill="url(#paint10_linear_14_4114)"/>
<path d="M1306.88 214.657C1314.26 223.046 1316.37 230.016 1321.55 239.272C1326.98 249.007 1333.1 258.728 1337.91 268.703C1342.42 278.056 1341.35 283.499 1350.55 290.977C1356.22 310.008 1362.3 330.266 1363.65 349.942L1360.36 346.731C1360.29 345.411 1360.26 344.484 1359.64 343.245L1359.18 342.435C1359.7 340.53 1359.77 339.51 1359.07 337.651L1358.38 335.847C1357.24 330.91 1351.75 326.769 1349.15 322.167C1347.18 318.66 1346.17 313.894 1344.86 310.108L1342.73 309.458L1343.33 311.611C1344.1 313.981 1343.74 315.382 1343.25 317.734L1342.27 316.714C1341.37 311.086 1340.35 304.448 1338.05 299.163C1335.95 294.338 1332.34 290.169 1330.21 285.319C1325.53 274.67 1321.4 263.805 1316.3 253.309C1314.06 248.704 1309.57 242.861 1308.79 238.002L1308.72 237.156C1308.38 234.8 1308.51 232.317 1308.02 230.014C1307.51 227.607 1306.06 222.89 1303.99 221.704C1302.37 222.752 1300.69 223.406 1299.9 225.117L1302.28 226.12C1304.2 228.687 1305.99 230.506 1306.42 233.661L1306.56 234.746C1306.89 236.511 1306.94 236.615 1306.22 238.397C1303.34 245.491 1302.87 254.816 1301.59 262.401C1300.02 253.195 1304.08 242.413 1303.92 232.833C1302.06 229.638 1302.37 229.684 1298.37 228.462L1295.04 225.642L1295.02 225.484L1299.76 221.13C1302.43 219.671 1304.75 216.75 1306.88 214.657Z" fill="#26273A"/>
<path d="M979.418 125.761C995.037 141.268 1003.95 163.246 1018.26 180.142L1047.05 212.68C1047.7 215.008 1048.68 217.227 1047.78 219.549C1058.66 231.179 1072.83 240.501 1086.3 249.405C1096.24 255.982 1106.84 263.148 1118.06 267.696C1139.33 277.199 1165.62 287.294 1188.88 290.713C1191.09 291.035 1196.38 292.428 1198.3 291.94C1201.72 293.377 1205.94 294.202 1207.62 297.358C1199.9 304.633 1191.41 311.194 1183.62 318.42C1174.78 326.621 1165.8 336.941 1155.66 343.714L1153.96 347.438L1157.87 347.733L1156.91 348.821C1147.46 359.372 1135.51 368.907 1125.06 378.673C1122.38 381.177 1116.06 386.12 1114.74 389.401C1113.47 392.546 1113.43 397.701 1112.75 401.125C1109.74 416.123 1108.27 431.308 1106.6 446.505C1105.28 458.592 1103.45 471.149 1104.21 483.356L1128.69 483.002C1136.08 481.86 1144.57 482.48 1152.11 482.443C1169.62 482.361 1186.96 482.98 1204.47 483.903L1210.02 484.169L1221.25 485.154C1223.68 488.834 1223.89 493.825 1224.56 498.026C1226.59 510.579 1227.55 522.905 1227.99 535.534L1227.08 561.048L1226.18 566.562C1223.63 577.171 1221.25 588.3 1216.71 598.32C1206.51 620.853 1187.49 638.478 1168.53 654.766L1164.25 657.898L1120.41 681.986C1118.82 682.396 1111.91 683.635 1111.15 684.5C1108.75 691.048 1101.32 697.3 1096.99 702.998C1090.75 711.499 1083.8 719.54 1077.93 728.261C1064.24 748.577 1053.3 769.975 1045.01 792.728C1040.7 804.56 1036.75 816.535 1033.57 828.697C1031.23 837.661 1027.05 870.999 1022.62 875.21C1022.82 877.906 1023.45 880.144 1024.34 882.734C1021.7 883.262 1019.23 883.808 1016.5 883.767L1015.51 883.813C1005.64 884.109 995.652 881.062 985.772 880.36C953.214 878.05 920.228 885.937 892.294 900.089C879.335 906.81 867.226 914.902 856 923.858C849.672 928.905 844.93 935.403 837.46 939.146C836.198 944.534 833.211 971.849 829.734 974.208C827.159 971.556 827.141 971.127 827.253 967.635C827.501 959.954 829 952.073 829.895 944.432C830.126 942.455 831.207 938.477 830.796 936.775C829.623 931.937 823.267 923.058 820.277 918.773L792.552 878.828L777.498 860.575L778.768 858.411L778.131 855.59L777.905 854.207C776.719 851.623 772.228 848.145 770.07 846.125C762.236 838.785 754.664 832.077 745.707 825.917C736.402 819.517 736.23 818.72 734.498 808.41L731.617 806.951C729.273 804.312 728.917 802.748 728.759 799.441L728.588 795.055C724.751 792.039 727.248 790.45 725.506 786.919L724.382 787.896L724.64 784.416L718.014 778.088L715.846 776.295L718.964 772.416L718.747 769.361L717.12 768.601L714.41 771.352L710.941 771.948L709.137 772.17C708.757 769.633 706.567 767.973 704.814 765.989L698.881 745.739C704.24 727.798 697.067 710.884 694.523 692.727C692.128 681.565 690.787 670.301 688.447 659.146C685.832 646.682 680.596 632.439 680.066 620.077C679.906 614.411 676.409 606.778 674.857 601.092C672.056 597.349 668.833 594.434 665.284 591.322C661.046 583.236 654.596 575.674 651.535 567.146C648.329 558.221 647.766 547.559 646.561 538.269C643.938 518.07 642.043 497.784 639.742 477.559C638.374 459.506 634.944 438.879 638.495 421.187C640.704 410.177 646.93 399.337 647.09 388.096C650.764 386.986 650.917 387.318 654.418 388.555L655.41 388.858C659.079 389.625 662.347 390.696 665.912 389.282C667.385 386.79 667.83 383.844 668.508 381.063L671.19 375.421C673.501 376.792 673.733 376.828 674.748 379.149C673.441 383.017 670.012 389.711 671.384 393.452L736.764 417.475L743.445 420.422L758.999 360.421C759.051 358.843 759.803 357.401 760.373 355.931L763.09 354.91L763.131 349.798L766.173 349.142L767.96 349.532C775.1 350.967 783.195 350.496 790.421 350.345C814.584 349.849 835.68 345.854 855.959 333.937L851.886 330.95L869.674 321.974C892.307 308.542 911.247 294.019 930.219 276.44C933.043 273.825 938.925 269.459 940.738 266.328C941.931 264.274 942.335 259.62 942.904 257.118C945.175 247.154 946.898 237.082 949.001 227.084C953.492 205.723 958.665 184.33 963.731 163.084C963.356 158.054 965.508 149.118 967.067 144.251C968.081 141.09 969.919 139.004 969.366 135.523C969.863 134.176 975.03 131.224 976.496 130.183C978.254 129.05 978.569 127.543 979.418 125.761Z" fill="#0B0513"/>
<path d="M869.675 321.974L873.987 324.945L855.96 333.937L851.886 330.95L869.675 321.974Z" fill="#26273A"/>
<path d="M1015.5 880.367L1017.1 879.491C1019.07 874.015 1001.45 848.162 998.038 840.805L998.816 839.767L1001.24 844.281C1003.49 849.17 1006.51 854.399 1009.31 859.067C1010.73 861.439 1013.18 863.892 1013.77 866.522L1013.9 867.528C1015.53 869.087 1016.47 869.915 1017.36 871.951C1018.07 873.565 1018.67 874.49 1019.83 875.863L1019.86 873.815L1019.13 872.518C1018.09 869.886 1019.37 871.943 1018.24 870.117L1008.74 852.806L1007.99 851.581L1008.72 849.172L1022.62 875.211C1022.82 877.906 1023.45 880.144 1024.34 882.734C1021.7 883.262 1019.23 883.809 1016.5 883.768L1004.02 881.118L1003.69 879.862C1006.97 880.344 1010.42 881.031 1013.71 880.625L1015.5 880.367Z" fill="#26273A"/>
<path d="M692.732 617.294L697.143 620.978C697.056 622.413 696.546 623.856 697.413 625.102C699.501 628.1 701.915 631.946 702.228 635.513L700.423 633.874C700.766 635.745 701.226 636.558 702.211 638.192C700.304 638.964 700.21 638.945 699.256 640.634L700.294 641.969L698.869 642.912L699.573 643.212C701.038 643.944 702.195 645.004 703.439 646.02L703.515 646.768C703.777 648.19 704.52 649.165 705.244 650.428L706.928 653.646L705.71 655.197L706.08 656.541C706.491 658.202 706.564 659.54 706.61 661.217C706.73 665.384 707.458 667.389 709.405 671.062C710.12 672.414 710.119 674.19 710.189 675.63C710.281 677.551 710.824 677.992 711.772 679.668C712.799 681.481 714.493 683.965 713.923 685.894C712.148 685.235 711.184 684.729 709.855 683.448L708.997 684.766L705.253 683.632L703.901 677.167L703.567 675.346C703.38 673.091 703.036 670.998 702.774 668.769C702.497 666.414 701.15 664.814 700.935 662.668C700.105 654.369 696.532 645.6 695.39 637.04C695.203 635.652 695.317 634.867 694.665 633.547L694.209 632.744C694.442 630.719 694.518 629.561 695.665 627.776L696.477 626.668L695.513 625.064C693.656 622.177 692.94 620.675 692.732 617.294Z" fill="#26273A"/>
<path d="M777.905 854.208C795.171 871.378 814.033 894.535 824.365 915.935L820.277 918.773L792.553 878.828L777.498 860.575L778.768 858.411L778.131 855.59L777.905 854.208Z" fill="#24212F"/>
<path d="M891.211 896.433L891.432 896.153C914.889 880.68 954.518 873.528 983.381 875.362C994.063 876.039 1004.96 878.472 1015.5 880.367L1013.71 880.625C1010.42 881.031 1006.97 880.344 1003.69 879.862L1004.02 881.118L1016.5 883.767L1015.51 883.813C1005.64 884.109 995.653 881.062 985.773 880.36C953.214 878.05 920.229 885.937 892.294 900.089L891.211 896.433Z" fill="#24212F"/>
<path d="M758.999 360.422C759.052 358.843 759.803 357.401 760.373 355.932L763.091 354.911L763.131 349.799L766.173 349.142L764.912 351.769L800.382 437.722C798.066 438.4 799.261 438.126 796.801 438.533L761.595 360.019L758.999 360.422Z" fill="#24212F"/>
<path d="M824.365 915.935L832.154 928.757L839.557 871.914L840.685 872.106C838.622 884.256 834.824 897.997 835.544 909.915C835.723 912.883 833.626 915.89 834.475 918.963C835.137 921.377 834.244 924.73 833.884 927.214C831.233 927.25 830.869 927.371 828.653 926.035L827.58 926.732C828.89 929.378 831.46 933.233 832.073 935.992C832.505 937.938 832.085 941.105 832.415 943.375C832.975 947.188 829.663 951.841 830.766 955.842C831.821 959.682 829.816 967.098 829.278 971.268C833.347 960.685 832.688 949.354 835.466 938.618C836.755 933.631 837.297 930.227 836.753 925.358C836.185 920.274 840.657 914.114 838.219 909.196C839.888 899.139 840.385 885.582 844.436 876.362L837.823 935.733C854.414 920.162 870.2 906.939 891.211 896.433L892.294 900.089C879.335 906.81 867.226 914.902 856 923.858C849.672 928.905 844.929 935.403 837.46 939.146C836.198 944.534 833.211 971.849 829.733 974.208C827.159 971.556 827.14 971.127 827.253 967.635C827.501 959.954 828.999 952.073 829.895 944.432C830.126 942.455 831.207 938.477 830.796 936.775C829.623 931.937 823.266 923.058 820.276 918.773L824.365 915.935Z" fill="#26273A"/>
<path d="M1093.55 400.617C1095.23 400.371 1096.3 400.559 1097.52 399.445C1099.94 397.234 1102.44 395.391 1104.7 392.993L1105.84 393.772C1104.48 397.387 1096.99 403.068 1093.59 405.758L1092.45 409.115C1092.16 410.359 1087.82 413.822 1086.71 414.945C1074.13 427.701 1060.44 439.27 1047.91 452.023C1043.98 456.024 1038.09 461.095 1035.92 466.175C1035.1 468.086 1034.23 469.381 1032.94 471.061C1029.59 471.276 1027.19 472.185 1024.45 470.205C1030.31 455.726 1050.05 440.932 1061.69 429.918C1071.96 420.206 1082.22 409.213 1093.55 400.617Z" fill="#26273A"/>
<path d="M955.148 276.304C966.438 297.05 978.303 315.197 994.451 333.233C1001 340.552 1007.99 348.303 1016.17 354.109C1030.04 363.958 1046.98 370.741 1062.8 377.215C1053.9 375.955 1047.27 373.049 1038.98 370.099L1037.93 368.748L1036.65 368.314C1033.75 367.265 1031.86 366.091 1029.41 364.378C1028.17 363.511 1024.05 360.507 1022.75 360.334C1027.12 364.43 1033.96 368.317 1039.49 370.789L1051.81 376.65C1054.28 377.748 1056.42 379.533 1058.53 381.129C1051.68 379.487 1044.17 375.899 1037.96 372.669C1007.42 356.794 988.784 336.025 969.385 309.851C962.178 300.126 953.689 288.653 949.979 277.398C951.746 277.488 953.479 276.777 955.148 276.304Z" fill="#26273A"/>
<path d="M963.732 163.084L964.223 164.773C965.338 169.109 963.43 175.723 962.67 180.158C965.292 178.2 964.912 175.021 967.339 172.729C962.874 198.365 956.338 224.033 950.818 249.511C950.205 252.347 946.967 261.445 947.466 263.783C948.136 266.939 953.251 273.215 955.149 276.304C953.48 276.777 951.747 277.488 949.98 277.398L948.102 273.397L946.404 274.099C943.902 286.967 941.028 299.766 938.514 312.629C937.068 320.008 937.388 328.387 933.189 334.857L932.098 333.793C932.607 331.161 932.822 327.467 934.361 325.241C938.946 318.614 935.693 305.113 939.435 298.115C942.883 291.673 943.283 282.985 944.547 275.542L942.575 275.792C941.891 278.089 941.233 280.245 940.184 282.42C938.674 285.554 938.875 290.762 936.891 293.284C933.699 297.351 933.143 312.368 932.227 317.992L930.378 317.678C932.288 307.971 934.051 298.05 936.698 288.507C937.344 286.186 940.953 277.584 940.301 276.147C918.528 292.122 899.328 313.489 873.987 324.945L869.675 321.974C892.308 308.543 911.248 294.019 930.219 276.44C933.044 273.826 938.925 269.459 940.739 266.328C941.931 264.274 942.336 259.62 942.905 257.118C945.175 247.154 946.899 237.082 949.002 227.084C953.493 205.723 958.665 184.33 963.732 163.084Z" fill="url(#paint11_linear_14_4114)"/>
<path d="M1062.81 377.215C1071.43 379.517 1080.44 382.238 1089.29 383.461C1093.03 383.979 1106.15 386.408 1109.22 385.379C1111.98 384.456 1117.71 378.157 1120.03 375.996C1131.55 365.295 1142.6 352.747 1155.66 343.714L1153.96 347.438L1157.87 347.733L1156.91 348.821C1147.46 359.373 1135.51 368.907 1125.06 378.673C1122.38 381.177 1116.06 386.121 1114.74 389.401C1113.47 392.546 1113.43 397.701 1112.75 401.125C1109.74 416.123 1108.27 431.308 1106.6 446.505C1105.28 458.592 1103.45 471.149 1104.22 483.357L1100.65 483.387C1096.61 474.353 1098.58 465.93 1099.25 456.581C1100.7 436.009 1103.27 416.38 1107.84 396.244L1092.45 409.115L1093.59 405.758C1096.99 403.068 1104.48 397.387 1105.84 393.772L1104.7 392.993C1102.44 395.391 1099.94 397.234 1097.52 399.445C1096.3 400.559 1095.23 400.371 1093.55 400.617L1103.68 391.009C1088.3 388.479 1073.38 385.963 1058.53 381.129C1056.42 379.533 1054.28 377.748 1051.81 376.65L1039.49 370.789C1033.96 368.317 1027.12 364.43 1022.75 360.334C1024.05 360.507 1028.17 363.511 1029.41 364.378C1031.86 366.091 1033.75 367.265 1036.65 368.314L1037.93 368.748L1038.98 370.099C1047.27 373.049 1053.9 375.955 1062.81 377.215Z" fill="#24212F"/>
<path d="M758.999 360.421L761.595 360.019L796.801 438.533C799.26 438.125 798.066 438.4 800.382 437.722C803.841 443.08 804.553 449.07 806.526 454.936C787.209 441.354 765.507 429.621 743.444 420.422L758.999 360.421Z" fill="#140F20"/>
<path d="M674.856 601.092L689.724 613.921L692.732 617.294C692.939 620.675 693.655 622.177 695.513 625.064L696.476 626.668L695.664 627.776C694.517 629.561 694.441 630.719 694.209 632.744L694.664 633.547C695.316 634.867 695.203 635.652 695.389 637.04C696.531 645.6 700.104 654.369 700.935 662.668C701.149 664.814 702.496 666.414 702.773 668.769C703.035 670.998 703.38 673.091 703.566 675.346L703.901 677.167L705.252 683.632C705.107 686.524 705.293 687.744 706.115 690.431L706.213 691.51C706.511 694.507 707.95 697.512 708.51 700.548C708.749 701.84 709.507 702.881 710.194 704.015L711.447 704.228L711.524 701.903L713.171 701.604C713.876 702.921 714.247 703.89 714.453 705.338C717.727 708.853 718.484 710.158 718.438 714.855C718.351 723.938 725.017 733.685 724.157 742.139L722.721 743.066C722.221 746.014 722.298 751.453 719.737 753.109C720.252 754.583 720.756 755.14 721.739 756.378L723.319 758.417C727.52 758.326 732.241 754.305 735.568 752.101C734.315 756.035 729.947 757.033 729.477 759.744L725.226 762.245L726.27 763.608C728.065 763.222 728.272 763.546 729.328 762.065L730.268 760.764L731.033 759.666C731.976 758.467 732.968 758.017 734.359 757.351L735.167 758.658L734.513 759.429C732.335 762.09 731.693 763.466 731.46 766.821C728.833 768.331 726.487 769.355 724.863 771.855C723.529 772.318 721.824 772.479 721.157 773.653C720.261 775.229 718.859 776.518 718.013 778.088L715.846 776.295L718.964 772.416L718.747 769.361L717.12 768.601L714.409 771.352L710.94 771.948L709.137 772.17C708.757 769.633 706.566 767.974 704.814 765.99L698.881 745.739C704.239 727.798 697.067 710.884 694.522 692.727C692.128 681.566 690.787 670.301 688.447 659.146C685.832 646.682 680.595 632.44 680.066 620.077C679.906 614.411 676.409 606.778 674.856 601.092Z" fill="#24212F"/>
<path d="M674.856 601.092L689.724 613.921C689.271 616.626 687.897 620.329 689.5 622.636C690.763 624.456 691.585 626.321 692.405 628.324L690.982 629.252C690.699 630.882 690.005 632.54 690.752 634.056C691.431 635.432 691.172 636.105 691.365 637.53L694.888 654.392C695.489 658.191 697.393 661.824 698.195 665.648L698.781 667.65C700.052 672.046 699.845 676.671 700.536 681.154C701.291 686.065 703.392 690.542 704.026 695.625L706.317 705.973C707.439 712.054 710.435 717.904 711.255 724.129C711.71 727.591 712.381 730.843 712.708 734.332C712.997 737.384 713.188 739.493 712.606 742.533C714.37 746.109 711.254 749.724 712.661 752.571L713.24 753.764L713.7 754.617C715.793 758.6 714.942 762.653 714.837 766.929C717.069 766.225 719.036 765.155 721.078 764.103C722.629 765.099 723.046 765.647 723.723 767.265C722.265 769.589 721.291 770.822 718.964 772.416L718.747 769.361L717.12 768.601L714.409 771.352L712.013 769.808L713.083 763.7C713.411 758.669 711.128 758.249 709.37 754.061C708.183 751.231 709.11 745.675 709.227 742.622C709.424 737.396 708.885 732.134 708.144 726.931C704.567 701.874 696.395 676.748 690.454 652.022C687.8 640.964 688.651 629.27 680.066 620.077C679.906 614.411 676.409 606.778 674.856 601.092Z" fill="#39373F"/>
<path d="M680.066 620.077C688.652 629.27 687.801 640.963 690.455 652.022C696.396 676.748 704.568 701.874 708.145 726.931C708.886 732.134 709.425 737.396 709.227 742.622C709.111 745.675 708.184 751.231 709.371 754.061C711.129 758.249 713.412 758.669 713.084 763.7L712.014 769.808L714.41 771.352L710.941 771.948L709.138 772.17C708.757 769.633 706.567 767.973 704.815 765.989L698.882 745.739C704.24 727.798 697.067 710.884 694.523 692.727C692.128 681.565 690.788 670.301 688.447 659.146C685.832 646.682 680.596 632.439 680.066 620.077Z" fill="#26273A"/>
<path d="M694.522 692.727C696.171 694.861 697.971 696.757 698.467 699.365C698.714 700.664 698.593 700.181 699.527 701.384C701.339 703.711 701.755 707.728 702.42 710.478C704.095 717.403 706.363 724.885 706.666 731.955C706.916 737.741 704.135 752.485 708.126 756.65C711.952 760.639 711.236 767.05 710.94 771.948L709.137 772.17C708.757 769.633 706.566 767.973 704.814 765.989L698.881 745.739C704.24 727.798 697.067 710.884 694.522 692.727Z" fill="#433F4F"/>
<path d="M979.417 125.761C995.037 141.268 1003.95 163.246 1018.26 180.142L1047.05 212.68C1047.7 215.008 1048.68 217.227 1047.78 219.549C1058.66 231.179 1072.83 240.501 1086.3 249.405C1096.24 255.982 1106.84 263.148 1118.06 267.696C1139.33 277.199 1165.62 287.294 1188.88 290.713C1191.09 291.035 1196.38 292.428 1198.29 291.94C1201.72 293.377 1205.94 294.202 1207.62 297.358C1199.9 304.633 1191.41 311.194 1183.62 318.42C1174.78 326.621 1165.8 336.941 1155.66 343.714C1142.6 352.746 1131.55 365.295 1120.03 375.995C1117.71 378.157 1111.98 384.455 1109.22 385.379C1106.15 386.408 1093.02 383.979 1089.29 383.461C1080.44 382.238 1071.43 379.517 1062.8 377.215C1046.98 370.741 1030.04 363.958 1016.17 354.109C1007.99 348.303 1001 340.552 994.451 333.233C978.303 315.197 966.438 297.05 955.148 276.304C953.25 273.215 948.136 266.939 947.465 263.783C946.966 261.444 950.205 252.347 950.817 249.51C956.337 224.033 962.874 198.365 967.338 172.729C964.912 175.02 965.291 178.199 962.669 180.158C963.429 175.723 965.337 169.109 964.222 164.773L963.731 163.084C963.356 158.054 965.507 149.118 967.066 144.251C968.081 141.09 969.919 139.004 969.366 135.523C969.863 134.176 975.03 131.224 976.495 130.183C978.254 129.05 978.569 127.543 979.417 125.761Z" fill="#0B0513"/>
<path d="M1018.26 180.142L1047.05 212.68C1047.7 215.008 1048.68 217.227 1047.78 219.549C1034.53 209.321 1023.33 194.106 1013.27 181.252C1015.71 181.654 1016.27 182.256 1018.24 183.734L1018.26 180.142Z" fill="#433F4F"/>
<path d="M976.496 130.183L978.263 132.212C970.587 142.392 972.451 160.856 967.338 172.729C964.912 175.021 965.291 178.2 962.67 180.158C963.429 175.723 965.337 169.109 964.223 164.773L963.731 163.084C963.356 158.055 965.508 149.118 967.066 144.251C968.081 141.09 969.919 139.005 969.366 135.523C969.863 134.176 975.03 131.224 976.496 130.183Z" fill="#484859"/>
<path d="M979.418 125.761C995.037 141.268 1003.95 163.246 1018.26 180.142L1018.24 183.734C1016.27 182.256 1015.71 181.654 1013.27 181.252L978.264 132.211L976.496 130.183C978.255 129.05 978.569 127.543 979.418 125.761Z" fill="#555262"/>
<path d="M671.19 375.421C673.501 376.792 673.733 376.828 674.749 379.149C673.441 383.017 670.012 389.711 671.385 393.452L736.764 417.475L743.445 420.422C765.508 429.621 787.209 441.354 806.526 454.936C812.936 459.976 824.369 467.862 828.301 474.537C855.159 501.999 873.584 547.759 875.06 583.99C860.244 609.354 832.923 633.488 802 641.263C778.53 647.165 753.561 644.704 730.209 638.221C723.98 638.876 722.636 637.877 717.42 635.203L715.298 634.548L713.221 633.605C710.608 633.842 708.727 634.885 706.434 635.969L702.228 635.513C701.914 631.946 699.5 628.1 697.413 625.102C696.546 623.856 697.056 622.413 697.142 620.978L692.732 617.295L689.724 613.921L674.857 601.092C672.056 597.349 668.833 594.434 665.284 591.323C661.046 583.236 654.597 575.675 651.536 567.146C648.329 558.221 647.766 547.56 646.561 538.269C643.938 518.07 642.043 497.785 639.742 477.559C638.374 459.506 634.945 438.879 638.495 421.187C640.705 410.177 646.93 399.337 647.09 388.097C650.764 386.986 650.917 387.318 654.418 388.555L655.41 388.858C659.079 389.625 662.347 390.696 665.913 389.282C667.386 386.79 667.83 383.844 668.508 381.063L671.19 375.421Z" fill="url(#paint12_linear_14_4114)"/>
<path d="M697.143 620.978C707.744 628.14 718.318 633.21 730.21 638.221C723.98 638.876 722.636 637.877 717.42 635.203L715.298 634.548L713.222 633.605C710.608 633.842 708.727 634.885 706.434 635.969L702.228 635.513C701.915 631.946 699.501 628.1 697.413 625.102C696.546 623.856 697.056 622.413 697.143 620.978Z" fill="#140F20"/>
<path d="M671.19 375.421C673.501 376.792 673.733 376.828 674.749 379.149C673.441 383.017 670.012 389.711 671.385 393.452L736.764 417.475L743.445 420.422C765.508 429.621 787.209 441.354 806.526 454.936C812.936 459.976 824.369 467.862 828.301 474.537L826.468 476.185C824.027 473.559 821.081 469.047 817.678 467.908L815.89 465.267L814.34 464.998L812.555 462.354L811.002 462.084L810.03 460.878C808.172 458.648 805.93 457.004 803.087 456.053L800.679 453.307L798.722 453.547L797.661 452.206C796.423 454.396 794.848 454.81 792.554 456.017L790.333 455.943L791.685 456.779C794.723 458.666 797.864 460.891 800.521 463.209C802.62 465.039 804.928 466.604 807.047 468.452C808.229 469.481 809.435 470.331 810.731 471.211C814.536 473.799 818.382 480.459 819.474 484.54C819.332 485.32 824.583 492.078 825.637 493.595C833.409 504.808 839.342 515.964 844.789 528.195L841.935 530.042C838.159 525.974 836.274 517.648 833.68 512.608C820.951 487.86 805.682 471.233 780.907 456.034C779.433 458.725 779.389 458.982 776.496 460.324L773.377 459.806C773.849 461.663 773.324 460.961 774.406 461.85C776.667 463.71 777.399 464.828 778.323 467.457C746.59 447.596 715.248 433.596 679.957 420.417L666.741 483.726C664.573 480.723 665.423 477.623 662.873 475.021C658.602 476.741 657.292 479.138 653.449 481.625L652.414 480.287L651.23 481.545C650.981 479.333 650.438 477.194 649.945 475.016C649.337 478.073 649.346 481.315 649.171 484.427L647.788 484.885C644.937 480.455 646.122 473.074 646.177 468.033L644.094 476.543L639.742 477.559C638.374 459.506 634.945 438.879 638.495 421.187C640.705 410.177 646.93 399.337 647.09 388.097C650.764 386.986 650.917 387.318 654.418 388.555L655.41 388.858C659.079 389.625 662.347 390.696 665.913 389.282C667.386 386.79 667.83 383.844 668.508 381.063L671.19 375.421Z" fill="url(#paint13_linear_14_4114)"/>
<path d="M671.19 375.421C673.501 376.792 673.734 376.828 674.749 379.149C673.442 383.017 670.013 389.711 671.385 393.452C665.926 392.075 660.545 391.218 655.41 388.858C659.08 389.625 662.347 390.696 665.913 389.282C667.386 386.79 667.831 383.844 668.509 381.063L671.19 375.421Z" fill="#545E75"/>
<path d="M646.177 468.033C650.011 444.801 655.295 422.827 663.381 400.651C677.038 405.953 691.26 409.874 704.936 415.068C720.651 421.035 736.514 428.83 751.418 436.417C760.032 440.802 769.375 444.801 777.665 449.669C793.941 459.229 807.303 470.854 819.474 484.54C819.332 485.32 824.584 492.078 825.637 493.595C833.409 504.808 839.343 515.964 844.79 528.195L841.935 530.042C838.159 525.974 836.274 517.648 833.68 512.608C820.951 487.86 805.682 471.233 780.907 456.034C745.186 434.569 706.427 418.013 666.377 405.13C658.261 427.355 652.437 451.521 649.945 475.016C649.338 478.073 649.346 481.315 649.171 484.427L647.789 484.885C644.937 480.455 646.122 473.074 646.177 468.033Z" fill="#AC003B"/>
<path d="M649.945 475.016C652.437 451.52 658.261 427.355 666.377 405.13C706.427 418.013 745.186 434.569 780.907 456.034C779.433 458.725 779.39 458.981 776.497 460.323L773.377 459.806C773.85 461.662 773.325 460.961 774.406 461.85C776.667 463.71 777.4 464.828 778.323 467.457C746.59 447.596 715.248 433.596 679.958 420.417L666.742 483.725C664.573 480.723 665.423 477.623 662.873 475.021C658.602 476.741 657.292 479.138 653.45 481.624L652.415 480.287L651.23 481.544C650.981 479.333 650.438 477.194 649.945 475.016Z" fill="#EF3C82"/>
<path d="M666.741 483.725L679.957 420.417C715.248 433.596 746.589 447.596 778.322 467.457C785.834 473.792 794.885 480.916 799.767 489.196C796.945 487.81 795.163 486.692 792.779 484.784L790.751 483.56L789.624 484.323C788.449 485.08 787.508 485.536 786.185 486.007C785.42 487.186 784.28 489.621 783.189 490.483C780.576 492.542 779.99 491.044 777.723 494.536L779.283 496.559L777.046 498.523L777.889 501.009L777.099 501.946C774.613 505.128 776.319 512.085 774.325 514.471C773.143 515.885 771.715 515.189 771.295 517.276C770.663 520.418 770.116 521.774 767.607 523.878L766.715 524.642C762.932 527.816 756.319 530.486 751.507 532.267L751.353 533.133C746.713 534.463 740.142 533.242 735.291 532.754C723.366 531.555 711.509 529.979 699.609 528.559C696.542 528.194 691.375 526.887 688.485 527.27C683.668 527.904 679.441 531.288 674.063 531.801C668.515 514.985 667.333 500.939 666.741 483.725Z" fill="white"/>
<path d="M674.064 531.801C679.442 531.288 683.669 527.904 688.485 527.27C691.375 526.888 696.542 528.194 699.61 528.559C711.51 529.979 723.367 531.555 735.291 532.755C740.143 533.242 746.714 534.463 751.354 533.133L751.508 532.268C756.319 530.486 762.933 527.816 766.716 524.642L767.608 523.878C770.116 521.774 770.664 520.418 771.296 517.276C771.715 515.189 773.144 515.885 774.326 514.471C776.32 512.085 774.614 505.128 777.1 501.947L777.89 501.009L777.047 498.523L779.283 496.559L777.724 494.536C779.991 491.044 780.577 492.542 783.19 490.483C784.281 489.621 785.42 487.186 786.186 486.008C787.509 485.536 788.449 485.081 789.624 484.323L790.751 483.56L792.78 484.784C795.163 486.692 796.945 487.811 799.767 489.196C806.601 495.398 811.268 504.307 815.245 512.259C824.733 531.232 833.731 553.804 834.322 574.72C834.498 581 818.087 596.731 812.77 601.469C799.872 612.974 779.981 622.121 761.434 621.351C740.903 620.499 724.448 608.295 711.135 594.614C694.09 577.103 681.292 554.207 674.064 531.801Z" fill="url(#paint14_linear_14_4114)"/>
<path d="M1210.02 484.169L1221.25 485.154C1223.68 488.834 1223.89 493.825 1224.56 498.026C1226.59 510.579 1227.55 522.905 1227.99 535.534L1227.08 561.048L1226.18 566.562C1223.63 577.172 1221.25 588.3 1216.72 598.32C1206.51 620.853 1187.49 638.478 1168.53 654.766L1164.25 657.898L1120.41 681.986C1118.82 682.396 1111.91 683.635 1111.15 684.5C1068.57 694.818 1025.52 696.752 984.229 677.692C943.955 659.1 923.752 627.955 909.38 590.526C915 576.684 926.703 561.628 936.809 550.273C976.337 505.862 1026.72 489.567 1088.11 484.967L1100.65 483.387L1104.22 483.357L1128.69 483.002C1136.08 481.86 1144.57 482.48 1152.11 482.443C1169.62 482.361 1186.96 482.98 1204.47 483.904L1210.02 484.169Z" fill="url(#paint15_linear_14_4114)"/>
<path d="M1197.6 493.807L1204.43 493.927C1210.99 501.815 1209.97 526.98 1210.47 537.123C1209.32 550.644 1208.62 564.637 1205 577.769C1199.05 599.363 1184.9 617.389 1171.4 635.231L1169.44 636.059L1168.75 634.487L1172.22 631.007C1174.66 628.618 1175.64 624.392 1177.97 623.452L1176.92 622.104L1174.73 624.312C1173.94 625.087 1173.2 625.51 1172.25 626.091C1170.96 626.886 1170.76 627.091 1169.88 628.319C1168.51 630.23 1166.43 631.134 1164.34 632.273L1163.94 631.033C1179.14 617.458 1199.7 596.707 1201.03 575.853C1206.25 555.707 1206.67 534.309 1205.04 513.585C1204.62 508.217 1204.88 501.157 1202.17 496.282L1198.15 495.848L1197.6 493.807Z" fill="#AC003B"/>
<path d="M1132.66 492.55L1197.6 493.807L1198.15 495.848L1084.41 498.349L1056.98 502.476C1045.67 504.592 1033.27 506.865 1022.67 511.058C985.563 525.739 959.984 554.577 938.852 585.191L937.971 585.041C938.432 583.811 938.88 582.615 939.543 581.464L940.897 579.093L941.2 577.386C943.176 576.302 944.733 574.799 945.783 572.889C948.329 568.256 951.834 563.387 955.724 559.582C957.41 557.933 958.7 557 959.103 554.626C954.992 557.015 949.418 562.688 946.7 566.434C945.308 568.349 943.923 570.271 942.15 571.909C940.901 573.065 939.45 574.178 938.901 575.813L938.693 576.96C936.906 577.68 937.072 577.858 934.978 577.502C942.873 567.692 951.408 559.215 960.136 550.12C967.749 542.186 975.261 533.784 984.443 527.293C1001.19 515.449 1023.61 506.652 1044.18 502.001C1060.29 498.358 1076.59 496.982 1092.91 494.402C1106.08 493.413 1119.66 494.387 1132.66 492.55Z" fill="#BA0033"/>
<path d="M1198.15 495.848L1202.17 496.282C1204.88 501.157 1204.62 508.217 1205.04 513.585C1206.67 534.309 1206.25 555.707 1201.03 575.853C1200.21 572.143 1201.6 567.4 1202.17 563.68C1200.61 562.602 1199.59 561.433 1198.31 560.083C1196.52 560.071 1194.83 560.129 1193.06 560.369C1191.79 560.546 1189.91 559.881 1189.23 560.886C1188.3 562.268 1188.87 565.574 1188.09 567.15C1187.59 568.166 1185.3 569.832 1184.38 570.712C1188.23 548.809 1189.14 527.571 1186.58 505.253C1176.36 504.468 1165.77 505.029 1155.53 505.096C1121.01 505.323 1088.05 508.583 1054.3 514.451C1055.79 512.819 1057.1 512 1059.12 510.969L1060.93 511.565C1063.52 509.795 1065.86 510.805 1068.55 509.714C1070 509.131 1070.74 508.578 1072.4 508.486C1073.97 508.398 1073.29 508.631 1074.79 508.033L1075.65 507.631L1077.42 508.504L1078.86 507.582C1080.29 507.557 1081.29 507.551 1082.62 507.02L1083.49 506.615L1085.88 507.597C1083.57 503.803 1084.03 502.702 1084.41 498.349L1198.15 495.848Z" fill="url(#paint16_linear_14_4114)"/>
<path d="M1210.02 484.169L1221.25 485.155C1223.68 488.834 1223.89 493.825 1224.56 498.026C1226.59 510.58 1227.55 522.905 1227.99 535.534C1227.13 537.714 1226.57 540.298 1224.44 541.674C1224.61 543.381 1225.01 544.891 1225.52 546.547L1225.18 547.386C1224.07 550.967 1224.42 555.921 1223.91 559.765L1223.15 559.79C1221.83 559.956 1221.13 560.416 1220 560.976C1218.46 561.741 1217.57 562.044 1215.82 562.099C1213.54 562.172 1212.55 562.544 1210.52 563.339C1211.88 555.289 1214.45 544.437 1210.47 537.123C1209.97 526.98 1210.99 501.815 1204.43 493.927L1197.6 493.807L1132.66 492.55C1119.66 494.387 1106.08 493.413 1092.91 494.402C1089.9 493.274 1087.14 492.966 1083.95 492.629C1082.56 493.315 1081.93 493.487 1080.29 493.506C1078.32 493.53 1079.22 493.398 1077.52 493.622L1076.73 493.747C1074.59 492.634 1073.54 491.989 1072.24 490.044C1074.29 489.09 1076.1 489.433 1078.07 488.646C1079.67 488.008 1080.94 488.584 1082.67 488.871L1088.11 484.967L1100.65 483.387L1104.22 483.357L1128.69 483.003C1136.08 481.861 1144.57 482.48 1152.11 482.443C1169.62 482.361 1186.96 482.98 1204.47 483.904L1210.02 484.169Z" fill="#F64B98"/>
<path d="M1128.69 483.003L1128.44 485.19L1129.28 484.931C1131.63 484.429 1134.47 484.951 1137.04 484.636C1140.37 484.226 1143.84 484.868 1147.12 485.469L1148.93 489.878C1147.7 490.519 1147.32 491.043 1145.87 490.856C1143.38 490.539 1142.15 490.792 1139.79 490.965C1136.45 491.213 1135.5 490.175 1132.06 491.603L1132.66 492.55C1119.66 494.387 1106.08 493.413 1092.91 494.402C1089.9 493.274 1087.14 492.966 1083.95 492.629C1082.56 493.315 1081.93 493.487 1080.29 493.506C1078.32 493.53 1079.21 493.398 1077.52 493.622L1076.73 493.747C1074.59 492.634 1073.54 491.989 1072.24 490.044C1074.29 489.09 1076.1 489.433 1078.07 488.646C1079.67 488.008 1080.94 488.584 1082.67 488.871L1088.11 484.967L1100.65 483.387L1104.21 483.357L1128.69 483.003Z" fill="#EF3C82"/>
<path d="M1054.3 514.451C1088.04 508.583 1121.01 505.323 1155.53 505.096C1165.77 505.029 1176.36 504.468 1186.58 505.254C1189.14 527.571 1188.23 548.809 1184.38 570.712C1178.86 589.228 1168.66 610.937 1151.81 622.845C1151.88 621.357 1152.28 620.005 1152.63 618.564C1155.35 617.052 1155.99 616.17 1157.32 613.5C1154.59 611.623 1155.45 608.922 1151.26 607.775L1149.7 607.51L1148.86 606.789C1146.35 606.431 1145.01 606.047 1143.06 604.444L1142.07 603.582C1136.96 603.456 1131.39 601.117 1126.5 601.227C1125.15 601.258 1124.8 602.112 1123.2 601.84L1121.79 600.722L1119.69 601.823L1115.44 600.528L1113.7 601.396L1112.15 601.139L1110.61 602.625L1109.04 600.612L1106.89 601.993L1105.32 599.979L1103.57 600.85C1101.94 599.274 1100.63 599.604 1098.39 599.38L1091.24 589.604L1090.59 588.98C1090.01 586.61 1089.67 585.743 1087.53 584.353C1084.11 582.131 1082.39 579.163 1078.36 577.482C1077.04 576.927 1077.42 577.225 1076.3 576.256C1074.51 574.697 1072.04 575.551 1070.02 574.635C1065.92 572.773 1061.41 570.84 1056.75 570.038C1055.67 568.932 1055.13 568.562 1053.59 568L1045.54 564.617C1040.94 562.726 1035.86 560.789 1032.04 557.634C1030.24 556.159 1028.47 554.786 1026.32 553.74C1023.16 552.202 1022.68 548.918 1019.85 547.493L1019.11 547.235L1016.8 543.917C1015.4 542.079 1011.01 536.494 1008.87 536.13L1006.93 538.296L1007 535.363C1018.37 524.586 1038.86 518.316 1054.3 514.451Z" fill="white"/>
<path d="M1007 535.363L1006.94 538.296L1008.87 536.13C1011.01 536.494 1015.4 542.079 1016.8 543.918L1019.11 547.236L1019.85 547.493C1022.68 548.918 1023.16 552.202 1026.32 553.74C1028.47 554.786 1030.24 556.159 1032.04 557.634C1035.86 560.789 1040.94 562.726 1045.54 564.617L1053.59 568.001C1055.13 568.563 1055.67 568.933 1056.75 570.038C1061.41 570.84 1065.92 572.774 1070.02 574.635C1072.04 575.551 1074.51 574.697 1076.3 576.256C1077.42 577.225 1077.04 576.927 1078.36 577.482C1082.39 579.163 1084.11 582.132 1087.53 584.353C1089.67 585.743 1090.01 586.61 1090.59 588.98L1091.24 589.604L1098.39 599.38C1100.63 599.604 1101.94 599.274 1103.57 600.85L1105.32 599.979L1106.89 601.993L1109.04 600.612L1110.61 602.626L1112.15 601.139L1113.7 601.397L1115.44 600.528L1119.69 601.823L1121.79 600.722L1123.2 601.84C1124.8 602.112 1125.15 601.258 1126.5 601.227C1131.39 601.118 1136.96 603.456 1142.07 603.582L1143.06 604.444C1145.01 606.047 1146.35 606.431 1148.87 606.789L1149.7 607.51L1151.26 607.775C1155.45 608.922 1154.59 611.623 1157.32 613.5C1155.99 616.17 1155.35 617.052 1152.63 618.564C1152.28 620.005 1151.88 621.357 1151.81 622.845C1135.99 640.217 1110.13 655.178 1086.87 662.868C1061.18 671.364 1031.28 671.933 1005.71 660.663C977.667 648.303 961.163 622.101 950.757 596.455C963.052 573.136 983.163 549.409 1007 535.363Z" fill="white"/>
<path d="M521.488 447.441C523.185 446.247 525.142 444.991 527.121 444.342C535.072 441.731 543.679 447.813 551.085 452.358C552.907 452.334 555.906 452.695 557.504 452.043C560.877 450.663 563.788 443.735 567.107 441.209C571.714 437.702 578.95 437.508 584.65 440.568C587.954 442.341 591.591 445.41 594.966 446.637C597.507 447.559 600.06 446.372 602.592 447.283C604.221 447.87 605.329 448.958 606.16 450.716C607.076 452.657 606.746 454.473 606.217 456.205C605.274 457.031 604.323 457.727 603.117 458.09C596.349 460.123 589.402 455.703 583.083 451.626C572.314 445.375 569.846 459.033 561.991 462.456C554.686 465.638 549.559 463.857 542.091 459.187C538.999 457.253 535.586 454.936 532.201 455.327C527.957 455.817 524.937 461.547 522.167 464.586C519.775 467.21 516.711 468.752 513.232 469.265C510.683 469.641 506.578 469.808 504.223 467.724C502.181 465.915 501.993 464.307 501.668 461.831C502.074 460.653 502.466 459.086 503.34 458.306C504.86 456.949 509.379 458.375 511.501 458.696L521.488 447.441Z" fill="#B10028"/>
<path d="M560.214 302.419C562.187 302.022 564.416 301.673 566.425 301.889C574.498 302.75 579.732 311.813 584.508 318.984C586.132 319.706 588.647 321.259 590.32 321.316C593.852 321.432 599.157 316.295 603.091 315.343C608.552 314.021 615.041 316.797 618.889 321.915C621.12 324.882 623.135 329.168 625.644 331.665C627.533 333.544 630.262 333.501 632.148 335.366C633.36 336.567 633.914 338.012 633.959 339.956C634.007 342.102 633.001 343.625 631.851 344.99C630.69 345.36 629.574 345.607 628.362 345.447C621.566 344.541 617.147 337.672 613.151 331.371C606.067 321.271 598.508 332.733 590.201 332.652C582.476 332.577 578.633 328.859 573.852 321.549C571.873 318.522 569.76 315.014 566.606 313.99C562.653 312.706 557.723 316.704 554.073 318.349C550.921 319.768 547.599 319.926 544.314 318.975C541.908 318.278 538.204 316.755 536.938 313.892C535.839 311.408 536.305 309.863 536.991 307.47C537.814 306.56 538.778 305.29 539.859 304.934C541.74 304.315 545.183 307.461 546.937 308.62L560.214 302.419Z" fill="#B10028"/>
<path d="M626.984 161.688C628.7 162.505 630.578 163.509 631.949 164.834C637.465 170.158 635.894 180.379 635.124 188.83C635.902 190.338 636.842 193.019 638.059 194.026C640.63 196.147 647.707 195.108 651.225 196.611C656.109 198.697 659.281 204.634 659.061 210.919C658.933 214.562 657.846 219.131 658.21 222.559C658.485 225.141 660.552 226.675 660.833 229.242C661.013 230.894 660.553 232.363 659.409 233.936C658.146 235.672 656.472 236.306 654.786 236.732C653.694 236.358 652.709 235.914 651.9 235.09C647.366 230.464 648.22 222.458 649.046 215.147C649.862 203.038 637.271 207.817 631.107 202.979C625.376 198.481 624.753 193.314 625.603 184.749C625.956 181.202 626.498 177.196 624.76 174.569C622.581 171.275 616.474 171.625 612.749 170.836C609.533 170.154 606.953 168.372 605.073 165.727C603.695 163.79 601.847 160.45 602.633 157.443C603.315 154.835 604.599 153.873 606.56 152.363C607.727 152.112 609.216 151.654 610.24 151.993C612.021 152.581 612.692 157.063 613.302 158.993L626.984 161.688Z" fill="#B10028"/>
</g>
<defs>
<linearGradient id="paint0_linear_14_4114" x1="687.403" y1="326.817" x2="678.9" y2="323.83" gradientUnits="userSpaceOnUse">
<stop stop-color="#212034"/>
<stop offset="1" stop-color="#323747"/>
</linearGradient>
<linearGradient id="paint1_linear_14_4114" x1="792.471" y1="881.502" x2="743.546" y2="894.046" gradientUnits="userSpaceOnUse">
<stop stop-color="#000005"/>
<stop offset="1" stop-color="#2B2936"/>
</linearGradient>
<linearGradient id="paint2_linear_14_4114" x1="778.572" y1="858.041" x2="723.754" y2="860.588" gradientUnits="userSpaceOnUse">
<stop stop-color="#161522"/>
<stop offset="1" stop-color="#3A3944"/>
</linearGradient>
<linearGradient id="paint3_linear_14_4114" x1="1278.45" y1="200.963" x2="1291.59" y2="80.1885" gradientUnits="userSpaceOnUse">
<stop stop-color="#12091A"/>
<stop offset="1" stop-color="#292E43"/>
</linearGradient>
<linearGradient id="paint4_linear_14_4114" x1="885.378" y1="86.1556" x2="878.187" y2="74.0682" gradientUnits="userSpaceOnUse">
<stop stop-color="#2D3146"/>
<stop offset="1" stop-color="#484E60"/>
</linearGradient>
<linearGradient id="paint5_linear_14_4114" x1="907.582" y1="293.879" x2="808.727" y2="173.402" gradientUnits="userSpaceOnUse">
<stop stop-color="#110718"/>
<stop offset="1" stop-color="#262B3F"/>
</linearGradient>
<linearGradient id="paint6_linear_14_4114" x1="853.715" y1="332.791" x2="786.927" y2="281.031" gradientUnits="userSpaceOnUse">
<stop stop-color="#1C1728"/>
<stop offset="1" stop-color="#3D3A4F"/>
</linearGradient>
<linearGradient id="paint7_linear_14_4114" x1="1212.54" y1="288.229" x2="1161.34" y2="28.044" gradientUnits="userSpaceOnUse">
<stop stop-color="#09000E"/>
<stop offset="1" stop-color="#2C3146"/>
</linearGradient>
<linearGradient id="paint8_linear_14_4114" x1="1012.3" y1="60.8228" x2="1009.48" y2="38.9063" gradientUnits="userSpaceOnUse">
<stop stop-color="#2C2E44"/>
<stop offset="1" stop-color="#4F5669"/>
</linearGradient>
<linearGradient id="paint9_linear_14_4114" x1="1285.29" y1="672.152" x2="1061.56" y2="470.969" gradientUnits="userSpaceOnUse">
<stop/>
<stop offset="1" stop-color="#0D0515"/>
</linearGradient>
<linearGradient id="paint10_linear_14_4114" x1="1332.04" y1="569.91" x2="1419.02" y2="544.864" gradientUnits="userSpaceOnUse">
<stop/>
<stop offset="1" stop-color="#1E1D24"/>
</linearGradient>
<linearGradient id="paint11_linear_14_4114" x1="873.225" y1="323.21" x2="840.359" y2="220.285" gradientUnits="userSpaceOnUse">
<stop stop-color="#1A1325"/>
<stop offset="1" stop-color="#464354"/>
</linearGradient>
<linearGradient id="paint12_linear_14_4114" x1="778.166" y1="642.299" x2="772.01" y2="453.044" gradientUnits="userSpaceOnUse">
<stop stop-color="#C7002E"/>
<stop offset="1" stop-color="#E91969"/>
</linearGradient>
<linearGradient id="paint13_linear_14_4114" x1="793.368" y1="454.994" x2="779.1" y2="370.232" gradientUnits="userSpaceOnUse">
<stop stop-color="#E72E73"/>
<stop offset="1" stop-color="#F25DA1"/>
</linearGradient>
<linearGradient id="paint14_linear_14_4114" x1="773.343" y1="618.038" x2="753.73" y2="489.593" gradientUnits="userSpaceOnUse">
<stop stop-color="white"/>
<stop offset="1" stop-color="#F1FFFF"/>
</linearGradient>
<linearGradient id="paint15_linear_14_4114" x1="968.229" y1="666.37" x2="1091.9" y2="475.488" gradientUnits="userSpaceOnUse">
<stop stop-color="#CC0036"/>
<stop offset="1" stop-color="#E91D62"/>
</linearGradient>
<linearGradient id="paint16_linear_14_4114" x1="1189.42" y1="559.757" x2="1214.04" y2="504.558" gradientUnits="userSpaceOnUse">
<stop stop-color="#E72963"/>
<stop offset="1" stop-color="#F65CB8"/>
</linearGradient>
<clipPath id="clip0_14_4114">
<rect width="1920" height="1080" fill="white"/>
</clipPath>
</defs>
</svg>
