<svg width="1920" height="1080" viewBox="0 0 1920 1080" fill="none" xmlns="http://www.w3.org/2000/svg">
<g clip-path="url(#clip0_14_892)">
<path d="M1226.24 298.64C1226.14 297.947 1227.41 295.851 1227.76 295.105C1232.66 303.574 1238.24 312.764 1241.7 321.822C1239.98 320.436 1238.6 318.325 1236.56 317.404C1230.87 314.843 1230.36 308.791 1224.43 306.195L1228.47 301.333L1226.24 298.64Z" fill="#555260"/>
<path d="M650.058 534.4L652.386 534.546L658.069 551.027C658.705 558.458 658.812 564.718 657.315 572.07C654.688 559.773 651.112 546.892 650.058 534.4Z" fill="#5E6775"/>
<path d="M936.138 133.365C942.96 132.297 951.782 131.418 958.692 132.281L965.062 132.76C964.65 135.17 964.285 137.519 963.458 139.844C961.833 140.249 961.302 140.178 959.698 139.934C956.367 137.318 954.59 137.86 950.497 137.781L944.847 141.503C942.988 137.646 939.539 136.016 936.138 133.365Z" fill="#838B9A"/>
<path d="M658.391 521.896C658.824 524.515 659.318 527.041 659.185 529.697L660.29 530.731C660.29 537.85 662.318 543.401 662.674 550.07L663.756 550.845C663.64 559.549 663.459 568.271 663.572 576.977C663.654 583.091 665.787 586.239 662.821 592.25L657.315 572.07C658.812 564.718 658.705 558.459 658.069 551.028L658.391 521.896Z" fill="#4E586A"/>
<path d="M651.072 458.88C652.188 461.486 652.914 463.52 653.078 466.332L652.778 467.383L652.933 468.3C653.272 470.218 653.36 471.856 654.77 473.377C654.77 477.904 654.4 481.663 655.874 485.779C657.617 490.647 653.329 503.546 656.979 506.964C656.979 509.533 656.165 515.991 657.51 517.882C658.414 519.152 658.301 520.419 658.391 521.895L658.069 551.028L652.385 534.546L650.058 534.401C646.504 525.065 645.899 512.059 645.063 502.083L644.608 501.74L643.204 475.684C643.888 474.914 644.264 474.308 644.597 473.353C646.363 468.29 649.391 464.015 651.072 458.88Z" fill="#626477"/>
<path d="M651.072 458.88C652.188 461.486 652.914 463.52 653.078 466.332L652.778 467.383C650.162 475.068 648.979 484.401 645.591 491.578C644.348 494.213 645.301 497.435 645.512 500.21C645.591 501.245 645.549 500.919 645.063 502.083L644.608 501.74L643.204 475.684C643.888 474.914 644.264 474.308 644.597 473.353C646.363 468.29 649.391 464.015 651.072 458.88Z" fill="#777D8C"/>
<path d="M643.204 475.684C639.947 432.92 649.046 380.616 667.298 341.291L668.002 347.304L669.106 345.238L669.77 346.269L669.502 347.142C668.137 351.759 668.047 356.251 667.558 360.978C664.598 371.515 661.007 382.005 658.589 392.653C656.233 403.012 656.013 413.885 654.258 424.38C653.21 430.637 651.702 436.806 650.696 443.06C650.541 444.036 649.665 447.211 649.919 448.049C650.157 448.835 650.772 449.472 651.208 450.179L651.775 451.086C651.764 453.777 651.391 456.007 651.004 458.637L651.072 458.88C649.391 464.015 646.363 468.29 644.597 473.353C644.264 474.308 643.888 474.914 643.204 475.684Z" fill="url(#paint0_linear_14_892)"/>
<path d="M993.778 133.918C1051.28 142.67 1099.65 163.588 1144.03 198.773C1153.34 206.156 1164.02 214.042 1171.39 223.188C1166.17 221.735 1161.61 216.386 1157.64 212.995C1152.36 208.49 1145.96 203.524 1140.3 199.431C1135.39 195.876 1129.42 193.495 1124.3 190.143C1117.62 185.773 1111.33 180.707 1104.43 176.656C1073.7 158.609 1037.82 148.109 1002.18 143.011C999.456 139.41 999.058 139.4 994.637 138.13C993.947 136.551 993.882 135.596 993.778 133.918Z" fill="#777D8C"/>
<path d="M1248.71 337.735C1269.9 381.327 1277.65 433.74 1277.48 481.237C1275.5 471.755 1270.9 463.152 1268.47 453.806C1266.08 444.66 1264.91 435.316 1262.81 426.129C1258.91 409.131 1254.33 392.47 1251.44 375.264C1251.94 367.412 1249.09 358.55 1247.99 350.655C1247.65 346.079 1247.31 342.2 1248.71 337.735Z" fill="url(#paint1_linear_14_892)"/>
<path d="M994.453 142.736L1002.18 143.011C1037.82 148.109 1073.7 158.609 1104.43 176.656C1111.33 180.707 1117.62 185.773 1124.3 190.143C1129.42 193.495 1135.39 195.876 1140.3 199.431C1145.96 203.524 1152.37 208.489 1157.64 212.995C1161.61 216.386 1166.17 221.735 1171.39 223.188L1211.34 269.439L1203.5 271.74L1202.88 273.561L1193.91 272.64L1192.74 271.989L1194.41 269.722L1203.64 269.357L1204.1 268.248C1198.04 263.894 1193.37 257.283 1188.58 251.748C1182.76 245.026 1176.35 238.476 1169.81 232.368C1137.27 202.003 1097.47 175.418 1053.76 161.26C1038.7 156.381 1022.6 153.191 1007.1 149.67C1003.21 146.847 998.558 145.32 994.453 142.736Z" fill="#555260"/>
<path d="M663.756 550.845C664.134 553.027 664.205 555.353 665.807 557.083C665.807 561.368 667.694 567.511 669.118 571.551C669.94 573.89 669.194 577.776 670.736 579.948C672.697 582.699 673.615 589.408 673.53 592.733C674.748 594.445 674.632 594.789 674.623 596.879L673.53 597.903L674.047 598.548C674.759 599.548 674.929 600.36 675.18 601.514L676.83 602.024L679.036 598.945L680.686 599.456C681.909 603.077 678.793 608.596 680.152 611.336C680.796 612.635 683.338 614.786 684.409 615.942C684.488 617.278 684.285 618.045 685.073 619.151C685.827 620.209 685.937 621.175 686.194 622.387C687.217 627.231 689.664 631.834 691.042 636.585C693.712 645.783 694.313 657.601 701.119 665.072C704.602 665.998 707.622 666.627 711.24 666.945C712.676 667.069 712.122 666.995 713.684 667.614L713.899 668.749L706.257 669.923L701.766 669.839L696.692 669.593C695.056 671.336 695.602 672.839 695.754 675.056C695.856 676.558 696.051 677.167 696.703 678.505L699.203 683.638C704.071 692.373 709.037 705.73 708.842 715.709L709.325 716.323C712.308 720.51 713.187 726.661 715.772 731.174C716.647 732.704 716.732 733.584 716.566 735.344L717.085 735.989C717.825 737.032 717.93 737.756 718.215 738.955L718.543 740.238L719.568 745.42L662.821 592.249C665.787 586.239 663.654 583.091 663.572 576.977C663.459 568.271 663.64 559.548 663.756 550.845Z" fill="#5E6775"/>
<path d="M1007.1 149.67C1022.6 153.191 1038.7 156.382 1053.76 161.26C1097.47 175.418 1137.27 202.003 1169.81 232.368C1176.35 238.476 1182.76 245.027 1188.58 251.749C1193.37 257.283 1198.04 263.894 1204.1 268.249L1203.64 269.357L1194.41 269.722L1192.74 271.989C1191.63 271.862 1190.87 271.659 1189.87 271.177C1186.42 269.516 1183.68 268.939 1179.89 268.357C1176.05 266.106 1172.71 265.114 1168.39 264.148L1167.75 262.299L1170.52 260.706L1180.78 263.381L1182.8 262.013C1182.76 261.037 1182.82 260.788 1182.37 259.751C1179.22 252.577 1169.59 244.537 1164.07 238.807C1142.96 216.921 1117.64 196.63 1089.54 182.937C1072.32 174.548 1053.63 168.254 1035.22 162.625C1027.56 159.527 1016.11 159.392 1009.65 154.699C1007.3 152.993 1007.53 152.186 1007.1 149.67Z" fill="#464758"/>
<path d="M1170.52 260.706L1180.78 263.381C1183.39 263.971 1186.1 264.473 1188.47 265.666C1185.92 268.087 1183.36 267.865 1179.89 268.357C1176.05 266.105 1172.71 265.113 1168.39 264.148L1167.75 262.299L1170.52 260.706Z" fill="#5E5163"/>
<path d="M698.602 282.029L736.625 233.704C785.232 181.223 861.096 138.387 936.138 133.366C939.539 136.017 942.988 137.646 944.847 141.503L939.042 147.509L937.691 148.138L935.909 147.159C937.618 143.733 940.149 140.654 942.426 137.54L928.225 139.411C911.23 144.728 893.342 147.789 876.212 153.096C870.435 154.887 865.649 158.141 860.002 160.061C852.304 162.68 845.587 163.575 838.036 167.321C822.798 174.884 809.715 186.651 794.608 194.818C791.574 196.458 788.599 199.667 786.785 202.445C781.706 206.879 776.025 210.482 770.966 214.828C758.058 225.91 744.34 238.513 732.614 250.728C729.611 253.855 727.998 257.905 725.385 261.283C723.201 264.103 720.422 266.685 717.837 269.188L728.645 269.812L729.365 271.569L722.105 272.492C719.439 273.206 709.718 275.164 708.435 277.122C707.082 279.182 705.955 280.262 703.865 281.672L698.602 282.029Z" fill="#777D8C"/>
<path d="M722.105 272.492C719.176 270.195 718.074 270.616 714.348 270.481L713.503 269.283C720.543 260.032 727.597 250.082 735.645 241.616C740.905 236.082 747.394 231.28 753.143 226.14C764.669 215.836 776.353 205.225 788.859 195.91C795.41 191.034 802.848 187.119 809.583 182.373L811.577 180.926C815.572 177.41 820.247 175.442 824.699 172.511C827.676 170.553 830.369 167.979 833.643 166.463C837.688 164.59 842.12 163.511 846.217 161.723C849.123 160.453 851.971 158.09 855.045 157.352C860.155 156.127 864.971 154.223 869.941 152.519L878.783 150.056C883.249 148.402 889.314 146.405 893.981 145.516C896.472 145.04 898.778 144.508 901.083 143.469L902.501 142.815C904.846 143.654 908.193 141.905 910.606 141.244L912.431 140.749C918.182 138.91 922.213 139.022 928.225 139.41C911.23 144.728 893.342 147.789 876.212 153.096C870.435 154.887 865.649 158.141 860.002 160.061C852.304 162.68 845.587 163.574 838.036 167.32C822.798 174.884 809.715 186.651 794.608 194.818C791.574 196.458 788.599 199.667 786.785 202.444C781.706 206.878 776.025 210.481 770.966 214.828C758.058 225.91 744.34 238.513 732.614 250.727C729.611 253.854 727.998 257.905 725.385 261.283C723.201 264.103 720.422 266.685 717.837 269.188L728.645 269.812L729.365 271.568L722.105 272.492Z" fill="#6C7585"/>
<path d="M719.568 745.42L718.543 740.238L718.215 738.955C717.93 737.757 717.825 737.032 717.085 735.989L716.565 735.344C716.732 733.585 716.647 732.704 715.772 731.175C713.187 726.661 712.308 720.51 709.325 716.323L708.842 715.709C709.037 705.73 704.071 692.373 699.203 683.638L696.703 678.505C696.051 677.167 695.856 676.558 695.754 675.056C695.601 672.839 695.056 671.336 696.692 669.593L701.765 669.839L706.257 669.923C706.144 679.788 711.935 690.064 715.591 699.138C721.272 713.238 726.461 727.45 732.524 741.468C736.866 751.508 741.337 761.96 746.061 771.846C750.637 781.431 759.798 795.685 759.044 806.428C758.666 811.835 766.708 820.354 769.576 825.163C772.347 829.812 774.429 834.809 777.158 839.497C780.319 849.796 791.706 856.7 795.218 866.944C796.904 871.867 794.986 881.309 797.11 885.277C797.43 885.872 799.856 887.29 800.543 887.793L799.709 889.75L801.995 891.192L802.178 891.875L798.995 894.941L761.637 828.957C754.807 819.648 749.965 807.859 744.917 797.619C736.351 780.243 727.724 762.971 719.568 745.42Z" fill="#3A3947"/>
<path d="M719.568 745.42L718.543 740.238L718.215 738.955C717.93 737.756 717.825 737.032 717.085 735.989L716.565 735.344C716.732 733.585 716.647 732.704 715.772 731.174C713.187 726.661 712.308 720.51 709.325 716.323L708.842 715.709C709.037 705.73 704.071 692.373 699.203 683.638L696.703 678.505C696.051 677.167 695.856 676.558 695.754 675.056C695.601 672.839 695.056 671.336 696.692 669.593L701.765 669.839C699.87 678.781 704.633 684.143 708.187 691.939C709.178 694.114 709.506 696.439 710.492 698.654L733.12 752.91C734.388 755.891 736.125 758.603 737.041 761.69C741.755 777.6 754.886 792.15 757.386 808.724L756.838 809.664C755.756 811.74 756.216 814.727 756.293 816.981L757.363 818.145C758.544 819.465 758.499 820.058 759.047 821.626L759.883 823.137C760.948 825.034 761.284 826.864 761.637 828.957C754.807 819.648 749.965 807.859 744.917 797.619C736.351 780.243 727.724 762.971 719.568 745.42Z" fill="#555260"/>
<path d="M713.899 668.749L714.825 669.733C718.371 675.283 721.885 681.032 724.475 687.04C726.351 691.389 727.201 695.688 729.549 699.897C742.784 723.648 763.559 744.024 784.802 761.632C786.74 762.68 791.946 764.738 793.156 766.211C791.619 770.135 802.218 815.447 803.517 824.05C805.95 840.164 807.862 857.211 807.955 873.478C808.083 876.306 807.905 877.407 806.998 880.018L806.775 881.274C806.447 882.777 805.907 883.266 805.009 884.465C803.907 885.933 803.356 887.875 802.817 889.584L801.995 891.192L799.709 889.751L800.543 887.793C799.856 887.29 797.43 885.872 797.11 885.277C794.986 881.309 796.904 871.867 795.218 866.944C791.706 856.7 780.319 849.796 777.158 839.497C774.429 834.809 772.347 829.812 769.576 825.164C766.708 820.354 758.666 811.836 759.044 806.428C759.798 795.685 750.637 781.431 746.061 771.846C741.337 761.96 736.866 751.508 732.524 741.468C726.461 727.45 721.272 713.238 715.591 699.138C711.935 690.064 706.144 679.789 706.257 669.924L713.899 668.749Z" fill="url(#paint2_linear_14_892)"/>
<path d="M784.802 761.632C786.74 762.68 791.946 764.738 793.156 766.212C791.619 770.135 802.218 815.447 803.517 824.05C805.95 840.164 807.862 857.211 807.955 873.478C808.083 876.306 807.905 877.407 806.998 880.018L806.775 881.275C806.447 882.777 805.907 883.267 805.009 884.465C803.907 885.933 803.356 887.875 802.817 889.584L801.995 891.192L799.709 889.751L800.543 887.793C802.306 882.6 803.455 880.116 801.515 874.851C804.325 868.457 802.023 859.849 801.337 853.15C800.325 843.291 799.817 833.497 798.255 823.685C794.938 802.878 789.585 782.188 784.802 761.632Z" fill="url(#paint3_linear_14_892)"/>
<path d="M713.899 668.749L714.825 669.733L709.862 671.273C709.664 673.117 709.277 673.384 710.365 675.011C714.173 680.707 715.831 687.299 720.006 692.633C722.693 696.066 723.396 702.193 724.351 706.363C725.617 711.892 727.292 717.188 729.371 722.5C732.936 731.609 738.046 740.362 741.874 749.434C744.967 756.77 747.021 764.513 750.408 771.738C752.801 776.833 756.157 781.489 758.27 786.69C761.073 793.587 761.282 801.127 764.129 807.899C768.739 818.865 777.079 827.224 777.158 839.497C774.429 834.809 772.347 829.812 769.576 825.164C766.708 820.354 758.666 811.836 759.044 806.428C759.798 795.685 750.637 781.431 746.061 771.846C741.337 761.96 736.866 751.508 732.524 741.468C726.461 727.45 721.272 713.238 715.591 699.138C711.935 690.064 706.144 679.789 706.257 669.924L713.899 668.749Z" fill="#292933"/>
<path d="M692.308 292.706C693.85 293.381 695.169 293.584 695.977 295.002C696.76 296.373 697.672 297.235 698.802 298.349L701.28 304.328L702.63 304.783L706.399 309.156L725.529 336.981L723.125 341.076C726.911 346.965 733.182 353.285 733.885 360.224C731.351 367.359 732.563 377.195 732.261 384.743C731.922 393.19 730.716 401.597 730.289 410.057C730.702 414.79 729.682 425.467 732.351 428.787C732.035 434.062 731.769 438.578 728.586 443.147L722.817 442.044L704.944 438.674L691.638 537.808C691.644 543.046 690.189 552.855 691.717 557.546C691.644 561.543 691.158 566.019 691.57 569.969L691.463 578.694C690.045 584.369 689.099 590.932 685.11 595.548C683.861 598.826 681.531 603.548 681.723 607.017C681.895 610.099 683.686 612.982 684.409 615.942C683.338 614.786 680.796 612.636 680.152 611.337C678.793 608.596 681.909 603.077 680.686 599.456L679.036 598.945L676.83 602.025L675.18 601.514C674.929 600.361 674.759 599.548 674.047 598.548L673.53 597.903L674.624 596.879C674.632 594.789 674.748 594.445 673.53 592.734C673.615 589.408 672.697 582.699 670.736 579.948C669.194 577.776 669.94 573.89 669.118 571.551C667.694 567.511 665.807 561.369 665.807 557.083C664.205 555.353 664.135 553.027 663.756 550.845L662.674 550.07C662.318 543.401 660.29 537.85 660.29 530.731L659.185 529.697C659.318 527.041 658.824 524.514 658.391 521.895C658.301 520.419 658.414 519.152 657.51 517.882C656.165 515.991 656.979 509.533 656.979 506.964C653.329 503.546 657.617 490.647 655.874 485.779C654.4 481.663 654.77 477.904 654.77 473.377C653.36 471.856 653.273 470.218 652.934 468.3L652.778 467.382L653.078 466.332C652.914 463.52 652.188 461.486 651.072 458.88L651.004 458.636C651.391 456.007 651.764 453.777 651.775 451.086L651.208 450.179C650.772 449.472 650.157 448.835 649.919 448.049C649.665 447.211 650.541 444.036 650.696 443.06C651.702 436.806 653.21 430.637 654.258 424.38C656.013 413.885 656.233 403.012 658.589 392.653C661.007 382.005 664.598 371.515 667.558 360.978C668.047 356.251 668.137 351.759 669.502 347.142L669.77 346.269L669.106 345.238L668.002 347.304L667.298 341.29C671.494 331.256 675.33 320.859 681.059 311.494C684.757 305.225 686.895 297.931 692.308 292.706Z" fill="url(#paint4_linear_14_892)"/>
<path d="M730.289 410.057C730.702 414.79 729.682 425.467 732.351 428.787C732.035 434.062 731.769 438.578 728.586 443.147L722.817 442.044L724.86 441.47C729.721 437.052 728.877 417.853 730.108 411.015L730.289 410.057Z" fill="#5E5163"/>
<path d="M678.417 345.417C680.064 339.195 683.322 335.391 685.937 329.756C688.517 324.206 690.429 317.917 693.664 312.685C695.195 310.211 697.113 308.859 700.003 308.259L701.901 312.158C699.472 315.404 699.325 318.185 699.023 321.986C697.876 320.23 697.424 319.944 697.797 317.841L696.681 316.82C692.98 321.523 693.96 326.812 692.268 331.804C691.658 333.603 692.853 335.597 691.33 337.1C686.731 341.632 688.601 348.412 684.002 351.944L682.898 350.404L684.002 347.819L681.234 345.237C680.482 347.97 680.059 350.169 680.129 352.986C677.835 356.208 679.338 362.306 677.406 365.023C676.734 365.965 676.626 366.565 676.273 367.613L673.948 372.438L673.804 373.258C672.957 374.131 672.496 374.703 672.027 375.827L671.683 376.756H670.219C671.68 372.584 670.666 365.862 670.573 361.372C671.132 356.409 672.564 351.563 674.047 346.788C675.785 345.602 676.465 346.155 678.528 346.375L678.417 345.417Z" fill="#464758"/>
<path d="M670.573 361.372C671.132 356.409 672.564 351.563 674.047 346.788C675.785 345.602 676.465 346.155 678.528 346.375C676.624 354.719 674.299 363.907 673.948 372.438L673.804 373.258C672.957 374.131 672.496 374.703 672.027 375.827L671.683 376.756H670.219C671.68 372.584 670.666 365.862 670.573 361.372Z" fill="#6C7585"/>
<path d="M667.558 360.978L669.539 361.401L670.573 361.372C670.666 365.862 671.68 372.584 670.219 376.756H671.683L672.027 375.827C672.496 374.703 672.957 374.131 673.804 373.258C670.307 394.623 665.858 415.441 660.795 436.52C658.773 444.941 657.51 453.631 654.685 461.853L653.078 466.332C652.914 463.52 652.188 461.485 651.072 458.88L651.004 458.636C651.391 456.007 651.764 453.776 651.775 451.086L651.208 450.179C650.772 449.472 650.157 448.835 649.919 448.049C649.665 447.21 650.541 444.036 650.696 443.06C651.702 436.806 653.21 430.636 654.258 424.38C656.013 413.885 656.233 403.012 658.589 392.652C661.007 382.004 664.598 371.515 667.558 360.978Z" fill="#4E586A"/>
<path d="M669.539 361.401L670.573 361.372C670.666 365.861 671.68 372.584 670.219 376.756H671.683L672.027 375.827C672.496 374.703 672.957 374.131 673.804 373.258C670.307 394.623 665.858 415.441 660.795 436.52C658.773 444.94 657.51 453.631 654.685 461.853L653.078 466.332C652.914 463.52 652.188 461.485 651.072 458.879L651.004 458.636C651.391 456.007 651.764 453.776 651.775 451.086C654.874 440.552 656.849 429.948 659.708 419.433C662.312 409.84 665.846 399.949 667.677 390.237C669.482 380.668 669.573 371.086 669.539 361.401Z" fill="#626477"/>
<path d="M692.308 292.706C693.85 293.381 695.169 293.584 695.977 295.002C696.76 296.373 697.672 297.235 698.802 298.349L701.28 304.328L702.63 304.783L706.399 309.156L725.529 336.981L723.125 341.076L701.901 312.158L700.003 308.259C697.113 308.859 695.195 310.211 693.664 312.685C690.429 317.918 688.517 324.206 685.938 329.756C683.322 335.391 680.064 339.195 678.418 345.417L678.528 346.375C676.466 346.156 675.785 345.603 674.047 346.788C672.564 351.563 671.132 356.409 670.573 361.372L669.539 361.401L667.558 360.978C668.047 356.251 668.138 351.759 669.502 347.142L669.77 346.269L669.106 345.238L668.002 347.304L667.299 341.29C671.494 331.256 675.33 320.859 681.059 311.494C684.757 305.225 686.895 297.931 692.308 292.706Z" fill="#626477"/>
<path d="M692.308 292.706C693.85 293.381 695.169 293.584 695.977 295.002C696.76 296.373 697.672 297.235 698.802 298.349L701.28 304.328C699.215 303.555 697.212 302.783 695.042 302.296C690.709 305.206 689.745 308.09 687.305 312.235C686.039 314.383 685.146 317.32 684.316 319.64L679.282 330.899C678.932 323.679 683.16 318.677 681.059 311.494C684.757 305.225 686.895 297.931 692.308 292.706Z" fill="#6C7585"/>
<path d="M667.299 341.29C671.494 331.256 675.33 320.859 681.059 311.494C683.161 318.677 678.932 323.679 679.282 330.899L678.418 345.417L678.528 346.375C676.466 346.155 675.785 345.602 674.047 346.788C672.564 351.563 671.132 356.409 670.573 361.372L669.539 361.401L667.558 360.978C668.047 356.251 668.138 351.758 669.502 347.142L669.77 346.269L669.106 345.237L668.002 347.303L667.299 341.29Z" fill="url(#paint5_linear_14_892)"/>
<path d="M653.078 466.332L654.685 461.854C658.055 467.306 657.465 472.547 658.256 478.549C659.699 489.528 660.089 500.515 661.502 511.422C663.019 523.152 665.205 534.851 667.072 546.541L670.762 546.242C673.609 547.895 673.581 549.483 675.268 551.85C676.056 552.962 675.717 554.21 675.717 555.533C677.333 557.046 676.915 557.612 677.107 559.67L677.934 557.61C679.271 558.861 679.488 562.009 680.692 564.065L682.895 562.509C683.584 564.795 685.081 565.557 685.935 567.938C686.418 565.213 686.819 562.644 688.491 560.284C689.217 559.26 689.367 557.303 689.251 556.049C688.596 549.104 688.652 544.298 691.638 537.808C691.644 543.046 690.189 552.856 691.717 557.546C691.644 561.543 691.158 566.02 691.57 569.969L691.463 578.694C690.045 584.369 689.099 590.932 685.11 595.549C683.861 598.826 681.53 603.549 681.723 607.017C681.895 610.099 683.686 612.982 684.409 615.943C683.338 614.787 680.796 612.636 680.152 611.337C678.793 608.596 681.909 603.078 680.686 599.456L679.036 598.945L676.83 602.025L675.18 601.514C674.929 600.361 674.759 599.549 674.047 598.549L673.53 597.903L674.623 596.879C674.632 594.789 674.748 594.445 673.53 592.734C673.615 589.408 672.697 582.699 670.736 579.948C669.194 577.776 669.94 573.89 669.118 571.551C667.694 567.512 665.807 561.369 665.807 557.083C664.205 555.353 664.134 553.028 663.756 550.845L662.674 550.07C662.318 543.401 660.29 537.851 660.29 530.731L659.185 529.697C659.318 527.041 658.824 524.515 658.391 521.896C658.301 520.419 658.414 519.152 657.51 517.882C656.165 515.991 656.979 509.533 656.979 506.964C653.329 503.546 657.617 490.647 655.874 485.779C654.4 481.663 654.77 477.904 654.77 473.377C653.36 471.856 653.272 470.219 652.933 468.301L652.778 467.383L653.078 466.332Z" fill="#5E5163"/>
<path d="M667.072 546.54L670.762 546.241C673.609 547.895 673.581 549.482 675.268 551.85C676.056 552.961 675.717 554.21 675.717 555.532C677.333 557.046 676.914 557.612 677.107 559.67L677.934 557.609C679.27 558.86 679.488 562.009 680.691 564.064L682.895 562.509C683.584 564.794 685.081 565.556 685.935 567.937C686.418 565.212 686.819 562.643 688.491 560.284C689.217 559.26 689.367 557.302 689.251 556.048C688.596 549.104 688.652 544.297 691.638 537.808C691.644 543.046 690.189 552.855 691.717 557.546C691.644 561.543 691.158 566.019 691.57 569.969C691.285 572.024 691.24 574.477 689.969 576.218C688.918 577.659 689.339 576.707 688.782 578.075C685.935 585.053 681.83 592.429 677.409 598.651C676.782 580.625 671.058 564.064 667.072 546.54Z" fill="#120B1B"/>
<path d="M965.062 132.76C974.715 132.281 984.247 132.307 993.778 133.918C993.882 135.596 993.947 136.551 994.637 138.13C999.058 139.4 999.456 139.41 1002.18 143.011L994.453 142.736C998.558 145.32 1003.21 146.847 1007.1 149.67C1007.53 152.185 1007.3 152.992 1009.65 154.699C1016.11 159.392 1027.56 159.527 1035.22 162.625C1053.63 168.254 1072.32 174.548 1089.54 182.937C1117.64 196.63 1142.96 216.921 1164.07 238.807C1169.59 244.537 1179.22 252.576 1182.37 259.751C1182.82 260.788 1182.76 261.037 1182.8 262.013L1180.78 263.381L1170.52 260.706L1167.75 262.299L1168.39 264.148C1172.71 265.113 1176.05 266.106 1179.89 268.357C1183.68 268.939 1186.42 269.516 1189.87 271.177C1190.87 271.658 1191.63 271.862 1192.74 271.989L1193.91 272.64L1202.88 273.56L1203.5 271.74L1211.34 269.439C1213.62 272.822 1216.23 276.224 1218.07 279.828L1227.76 295.105C1227.41 295.851 1226.14 297.947 1226.24 298.64L1228.47 301.333L1224.43 306.195L1223.3 308.714L1216.66 318.198L1216.69 318.29C1211.21 327.031 1205.02 335.087 1198.99 343.475C1197.39 345.698 1195.02 350.203 1192.99 351.753L1189.8 349.669L1188.34 352.43L1184.85 352.044L1174.55 351.28C1168.52 350.19 1162.39 349.975 1156.34 348.954C1143.97 346.862 1131.73 343.708 1119.72 340.251C1085.05 328.513 1052.86 309.663 1026.1 285.92C1016.08 276.867 1006.23 267.632 996.843 257.992C987.905 248.812 978.532 232.984 966.839 227.27C960.816 219.119 964.175 176.786 964.602 164.923L963.989 153.389L964.192 146.312L964.398 142.36L964.175 139.76L963.458 139.844C964.285 137.519 964.65 135.17 965.062 132.76Z" fill="url(#paint6_linear_14_892)"/>
<path d="M1226.24 298.64L1228.47 301.333L1224.43 306.195L1223.3 308.714L1216.66 318.198L1216.69 318.29C1211.21 327.031 1205.02 335.087 1198.99 343.475C1197.39 345.698 1195.02 350.203 1192.99 351.753L1189.8 349.668L1214.49 313.476C1217.11 311.134 1219.94 308.087 1221.41 304.939C1222.59 302.407 1224.31 300.727 1226.24 298.64Z" fill="#464758"/>
<path d="M964.192 146.312C974.176 144.998 980.246 147.199 989.591 149.648L991.47 151.733L1002.11 160.746C998.597 160.715 992.366 161.405 989.12 160.625C988.25 160.416 987.233 158.916 986.36 158.699C985.105 158.389 982.755 158.707 981.385 158.709C980.196 160.326 979.823 161.294 979.546 163.238L977.532 164.344C973.017 161.662 973.224 158.159 968.153 155.929L965.947 156.9L965.729 159.225L969.246 161.81C968.387 163.923 966.721 164.021 964.602 164.923L963.989 153.389L964.192 146.312Z" fill="#3A3947"/>
<path d="M964.192 146.312C974.176 144.998 980.246 147.199 989.591 149.648L991.47 151.733C987.628 152.037 984.145 152.244 980.292 151.797L978.636 151.614C977.032 151.426 977.769 151.699 976.43 150.432C973.317 150.432 969.447 149.117 967.048 150.432L966.497 150.958L969.803 151.217C967.966 152.172 965.966 152.744 963.989 153.389L964.192 146.312Z" fill="#464758"/>
<path d="M1211.34 269.439C1213.62 272.823 1216.23 276.225 1218.07 279.828L1227.76 295.105C1227.41 295.852 1226.14 297.947 1226.24 298.64C1224.31 300.727 1222.59 302.407 1221.41 304.939C1219.94 308.087 1217.11 311.135 1214.49 313.476C1214.03 309.844 1213.3 307.354 1211.34 304.177L1196.66 281.682C1196.59 278.278 1196.52 278.14 1198.78 275.492C1196.3 275.463 1195.66 274.18 1193.91 272.64L1202.88 273.561L1203.5 271.741L1211.34 269.439Z" fill="#3A3947"/>
<path d="M1211.34 269.439C1213.62 272.823 1216.23 276.225 1218.07 279.828C1213.04 277.225 1208.36 275.209 1202.88 273.561L1203.5 271.741L1211.34 269.439Z" fill="#6C7585"/>
<path d="M965.062 132.76C974.715 132.281 984.246 132.307 993.778 133.918C993.882 135.596 993.947 136.551 994.637 138.13C999.058 139.4 999.456 139.41 1002.18 143.011L994.453 142.736C998.558 145.32 1003.21 146.847 1007.1 149.67C1007.53 152.185 1007.3 152.992 1009.65 154.699C1016.11 159.392 1027.56 159.527 1035.22 162.625C1032.65 163.632 1030.47 164.355 1027.74 164.9L1024.97 165.722C1022.04 166.392 1018.91 164.323 1015.58 164.923L1014.95 166.976L1027.56 177.439C1027.69 178.947 1027.93 180.463 1027.78 181.971L1002.11 160.746L991.47 151.733L989.591 149.648C980.246 147.199 974.176 144.998 964.192 146.312L964.398 142.36L964.175 139.76L963.458 139.844C964.285 137.519 964.65 135.17 965.062 132.76Z" fill="#6C7585"/>
<path d="M964.175 139.76C968.116 139.537 977.235 138.408 980.292 140.865L984.874 145.199C978.235 143.99 970.735 140.239 964.398 142.36L964.175 139.76Z" fill="#5E6775"/>
<path d="M964.398 142.36C970.735 140.239 978.235 143.99 984.874 145.199L989.591 149.649C980.246 147.199 974.176 144.998 964.192 146.313L964.398 142.36Z" fill="#4E586A"/>
<path d="M1014.95 166.977C1002.85 161.884 997.801 148.223 986.343 142.27C984.925 141.532 985.057 141.392 984.317 140.109C985.218 139.977 985.309 139.924 986.36 140.006C989.052 140.218 992.038 141.686 994.453 142.736C998.558 145.321 1003.21 146.847 1007.1 149.67C1007.53 152.186 1007.3 152.993 1009.65 154.699C1016.11 159.392 1027.56 159.527 1035.22 162.625C1032.65 163.633 1030.47 164.355 1027.74 164.9L1024.97 165.723C1022.04 166.392 1018.91 164.323 1015.58 164.924L1014.95 166.977Z" fill="url(#paint7_linear_14_892)"/>
<path d="M1035.22 162.625C1053.63 168.254 1072.32 174.548 1089.54 182.937C1117.64 196.63 1142.96 216.921 1164.07 238.807C1169.59 244.537 1179.22 252.576 1182.37 259.751C1182.82 260.788 1182.76 261.037 1182.8 262.013L1180.78 263.381L1170.52 260.706L1167.75 262.299L1168.39 264.148L1168.23 264.174C1162.92 263.111 1157.79 260.254 1152.8 258.314C1127.76 248.561 1103.69 235.674 1081.26 221.436C1068.51 213.341 1056.62 204.122 1044.08 195.894C1039.96 193.193 1037.05 189.153 1033.01 186.474C1030.91 185.087 1029.48 183.757 1027.78 181.971C1027.93 180.463 1027.69 178.947 1027.56 177.439L1014.95 166.976L1015.58 164.923C1018.91 164.323 1022.04 166.392 1024.97 165.722L1027.74 164.9C1030.47 164.355 1032.65 163.632 1035.22 162.625Z" fill="url(#paint8_linear_14_892)"/>
<path d="M1027.56 177.439C1054.51 200.077 1086.44 222.458 1118.23 238.608C1135.15 247.201 1152.82 253.807 1170.57 260.661L1170.52 260.706L1167.75 262.299L1168.39 264.148L1168.23 264.174C1162.92 263.111 1157.79 260.254 1152.8 258.315C1127.76 248.561 1103.69 235.675 1081.26 221.437C1068.51 213.341 1056.62 204.122 1044.08 195.894C1039.96 193.193 1037.05 189.154 1033.01 186.474C1030.91 185.088 1029.48 183.757 1027.78 181.971C1027.93 180.463 1027.69 178.947 1027.56 177.439Z" fill="#373241"/>
<path d="M1224.43 306.195C1230.36 308.791 1230.87 314.843 1236.56 317.404C1238.6 318.325 1239.98 320.436 1241.7 321.822C1244.04 326.952 1247.1 332.391 1248.71 337.735C1247.31 342.2 1247.65 346.079 1247.99 350.655C1249.09 358.55 1251.94 367.412 1251.44 375.264C1254.33 392.47 1258.91 409.131 1262.81 426.129C1264.91 435.316 1266.08 444.66 1268.47 453.806C1270.9 463.152 1275.5 471.755 1277.48 481.237C1277.43 520.774 1270.56 559.297 1260.77 597.654C1235.18 697.818 1187.54 788.598 1135.32 878.468C1116.85 910.242 1099.36 947.094 1071.73 972.927C1042.85 999.935 1004.02 1010.89 963.74 1010.61C961.839 1010.6 959.977 1010.36 958.113 1010.02L959.814 1007.89L962.085 1007.7C966.376 1002.54 964.427 979.861 964.494 972.374C973.235 965.745 979.746 957.676 986.964 949.713C1004.35 930.531 1022.64 914.904 1047.14 903.951C1057.39 899.822 1068.49 895.34 1079.43 893.235C1088.15 891.555 1096.74 891.409 1105.54 890.608C1111.12 890.1 1116.89 888.29 1122.46 889.467L1123.19 889.647C1127.76 883.407 1124.77 852.608 1125.83 842.899C1128.71 816.777 1134.46 791.415 1139.71 765.682L1138.57 762.883C1167.49 743.561 1186 715.762 1201.05 686.294C1203.9 680.704 1208.57 673.667 1210.08 667.67L1217.3 646.821C1221.65 636.053 1224.68 624.834 1227.01 613.54C1230.05 601.532 1232.65 588.533 1233.22 576.199C1233.74 564.752 1232.76 552.797 1232.4 541.321C1231.32 506.879 1227.25 472.763 1219.91 438.983L1202.29 441.925L1199.75 441.025C1198.06 423.708 1196.21 406.494 1194.69 389.155C1193.92 380.528 1192.54 372.105 1192.81 363.42C1193.15 359.78 1193.35 358.851 1191.69 355.605L1192.99 351.753C1195.02 350.203 1197.39 345.698 1198.99 343.476C1205.02 335.087 1211.21 327.031 1216.69 318.291L1216.66 318.198L1223.3 308.714L1224.43 306.195Z" fill="#030205"/>
<path d="M1224.43 306.195C1230.36 308.791 1230.87 314.843 1236.56 317.404C1238.6 318.325 1239.98 320.436 1241.7 321.822C1244.04 326.952 1247.1 332.391 1248.71 337.735C1247.31 342.2 1247.65 346.079 1247.99 350.655C1249.09 358.55 1251.94 367.412 1251.44 375.264L1248.93 372.608C1248.79 371.047 1248.83 369.346 1247.87 368.005L1247.35 367.454C1247.51 363.772 1248.02 360.819 1245.69 357.632C1243.34 357.298 1242.47 356.457 1240.73 355.055L1241.82 354.536C1240.88 353.454 1240.23 352.788 1239.86 351.401C1239.53 350.147 1239.83 350.605 1239.04 349.499L1238.52 348.854L1240.16 348.338C1240.18 344.436 1234.77 337.185 1233.55 332.83C1233.14 331.357 1233.2 330.984 1232.17 329.7C1231.3 328.613 1231.38 328.96 1230.97 327.796C1230.43 326.285 1229.42 327.462 1228.03 327.142C1227.46 327.01 1225.84 325.502 1225.28 325.087L1224.71 326.637C1226 327.841 1225.5 327.473 1226.85 328.38L1227.75 328.96L1227.47 331.275C1226.25 330.563 1225.09 329.806 1223.72 329.372L1223.06 329.208C1221.13 326.981 1220.66 324.973 1219.96 322.203C1219.51 320.428 1218.05 319.56 1216.69 318.291L1216.66 318.198L1223.3 308.714L1224.43 306.195Z" fill="#292933"/>
<path d="M1224.43 306.195C1230.36 308.791 1230.87 314.843 1236.56 317.404C1238.6 318.325 1239.98 320.436 1241.7 321.822C1244.04 326.952 1247.1 332.391 1248.71 337.735C1247.31 342.2 1247.65 346.079 1247.99 350.655C1245.77 343.923 1237.97 321.846 1232.32 318.338C1228.94 316.238 1226.11 311.589 1223.3 308.714L1224.43 306.195Z" fill="#3A3947"/>
<path d="M944.847 141.503L950.497 137.781C954.59 137.86 956.367 137.318 959.698 139.934C961.302 140.178 961.834 140.249 963.458 139.844L964.175 139.76L964.398 142.36L964.192 146.312L963.989 153.389L964.602 164.923C964.175 176.786 960.816 219.119 966.839 227.27L964.379 231.653C962.037 232.508 959.562 233.196 957.621 234.733L957.138 236.034L940.999 252.28C900.007 296.843 841.581 342.245 777.373 351.179C764.855 353.121 750.609 353.2 738.832 357.43L738.349 359.407L737.532 356.087C739.281 355.036 740.403 354.383 742.487 354.02C740.287 353.531 738.323 353.465 736.077 353.335C734.73 353.256 735.233 353.335 733.936 352.729C734.428 356.258 735.888 358.991 734.295 362.343L733.885 360.224C733.182 353.285 726.911 346.965 723.125 341.076L725.529 336.981L706.399 309.156L702.63 304.783L701.28 304.328L698.802 298.349C697.672 297.235 696.76 296.373 695.977 295.002C695.169 293.584 693.85 293.38 692.308 292.706C692.466 289.259 696.514 284.783 698.602 282.029L703.865 281.672C705.955 280.261 707.082 279.182 708.435 277.121C709.718 275.164 719.439 273.206 722.105 272.492L729.365 271.568L728.645 269.812L717.837 269.187C720.422 266.685 723.201 264.103 725.385 261.283C727.998 257.904 729.611 253.854 732.614 250.727C744.341 238.513 758.058 225.91 770.966 214.828C776.025 210.481 781.706 206.878 786.785 202.444C788.599 199.667 791.574 196.458 794.608 194.818C809.715 186.651 822.798 174.884 838.036 167.32C845.587 163.574 852.304 162.68 860.002 160.061C865.65 158.14 870.435 154.887 876.212 153.096C893.343 147.789 911.23 144.728 928.225 139.41L942.426 137.54C940.149 140.654 937.618 143.733 935.909 147.159L937.691 148.138L939.042 147.508L944.847 141.503Z" fill="url(#paint9_linear_14_892)"/>
<path d="M952.438 233.426L955.257 235.185L957.621 234.733L957.138 236.034L940.999 252.28C939.635 251.918 938.443 251.463 937.163 250.894L952.438 233.426Z" fill="#555260"/>
<path d="M939.042 147.508C943.387 148.313 946.059 148.765 949.392 151.58C952.907 150.075 954.367 146.68 958.235 147.342C958.511 148.839 958.74 152.344 959.469 153.564C959.449 156.366 959.655 159.355 958.955 162.08L957.353 161.937L958.212 159.744C955.768 156.373 958.356 152.68 956.025 149.408C952.828 151.53 952.217 153.63 948.045 154.91L947.186 155.157C945.839 157.315 945.096 158.04 942.773 159.273L941.016 158.194C941.073 155.545 941.206 153.49 940.014 151.048L936.29 150.04L937.691 148.138L939.042 147.508Z" fill="#464758"/>
<path d="M944.847 141.503L950.497 137.781C954.59 137.86 956.367 137.318 959.698 139.934C959.099 144.36 959.605 148.315 960.192 152.709L959.469 153.564C958.74 152.344 958.511 148.839 958.234 147.342C954.367 146.68 952.907 150.074 949.392 151.58C946.059 148.765 943.387 148.312 939.042 147.508L944.847 141.503Z" fill="#4E586A"/>
<path d="M725.529 336.981L735.964 351.658C749.575 351.005 762.499 350.203 775.912 347.748L777.373 351.179C764.855 353.121 750.609 353.2 738.832 357.431L738.349 359.407L737.532 356.087C739.281 355.036 740.402 354.383 742.487 354.021C740.287 353.531 738.323 353.465 736.077 353.335C734.73 353.256 735.233 353.335 733.936 352.73C734.428 356.259 735.888 358.991 734.295 362.343L733.885 360.224C733.182 353.285 726.91 346.965 723.125 341.076L725.529 336.981Z" fill="#5E5163"/>
<path d="M963.458 139.844L964.175 139.76L964.398 142.36L964.192 146.313L963.989 153.389L964.602 164.924C964.175 176.786 960.816 219.119 966.839 227.27L964.379 231.653C962.037 232.508 959.562 233.196 957.621 234.733L955.257 235.185L952.438 233.426C954.118 231.556 958.811 227.524 959.579 225.471C960.554 222.876 959.294 214.484 959.26 211.452C959.071 194.992 959.469 178.54 958.955 162.08C959.655 159.355 959.449 156.366 959.469 153.564L960.192 152.709C959.605 148.315 959.099 144.36 959.698 139.934C961.302 140.178 961.833 140.249 963.458 139.844Z" fill="#626477"/>
<path d="M963.458 139.844L962.548 151.68L960.192 152.709C959.605 148.315 959.099 144.36 959.698 139.934C961.302 140.178 961.833 140.249 963.458 139.844Z" fill="#777D8C"/>
<path d="M729.365 271.568L735.679 270.201C734.154 271.56 732.781 273.039 730.891 273.933C730.549 275.217 730.778 275.865 729.447 276.568C727.812 277.431 726.713 277.288 724.896 277.267L724.281 278.687L725.591 278.854C727.396 279.135 726.727 278.899 728.137 279.875V282.195C726.346 283.809 723.054 286.105 722.619 288.394L721.891 288.817C720.865 289.46 720.17 290.156 719.314 290.973L716.792 293.304C715.967 294.076 715.566 294.769 714.896 295.629L714.159 296.476C711.291 300.052 708.647 305.177 706.399 309.156L702.63 304.783L701.28 304.328L698.802 298.349C697.672 297.235 696.76 296.373 695.977 295.002C695.169 293.584 693.85 293.38 692.308 292.706C692.466 289.259 696.514 284.783 698.602 282.029L703.865 281.672C705.955 280.261 707.082 279.182 708.435 277.121C709.718 275.164 719.439 273.206 722.105 272.492L729.365 271.568Z" fill="url(#paint10_linear_14_892)"/>
<path d="M698.802 298.349C700.5 294.378 701.319 292.46 705.644 290.537C705.579 291.854 705.791 292.597 705.009 293.701C703.11 296.381 702.853 301.563 702.63 304.783L701.28 304.328L698.802 298.349Z" fill="#5E6775"/>
<path d="M937.163 250.894C938.443 251.463 939.635 251.918 940.999 252.28C900.007 296.844 841.581 342.245 777.373 351.179L775.912 347.748C785.862 345.068 796.184 343.259 805.961 340.087C827.027 333.251 848.253 323.82 866.633 311.907C892.698 295.008 915.713 272.6 937.163 250.894Z" fill="#464758"/>
<path d="M928.225 139.41L942.426 137.54C940.149 140.654 937.618 143.733 935.909 147.159L937.691 148.138L936.29 150.04C878.514 202.976 814.199 246.307 736.659 269.508L735.222 267.902C737.015 266.28 740.259 265.275 742.527 264.262C754.194 260.516 766.449 256.799 777.799 252.309C833.68 230.211 883.772 192.905 926.832 153.458C929.691 151.947 931.768 149.392 933.946 147.133L934.236 145.064C926.875 143.617 922.584 145.614 915.736 146.934C895.682 150.797 877.978 156.233 858.906 163.397C850.666 166.492 841.451 168.95 833.863 173.4L786.785 202.444C788.599 199.667 791.574 196.458 794.608 194.818C809.715 186.651 822.798 174.884 838.036 167.32C845.587 163.574 852.304 162.68 860.002 160.061C865.65 158.14 870.435 154.887 876.212 153.096C893.343 147.789 911.23 144.728 928.225 139.41Z" fill="#5E6775"/>
<path d="M786.785 202.445L833.863 173.4C841.451 168.95 850.666 166.493 858.906 163.397C877.978 156.233 895.682 150.797 915.736 146.934C922.584 145.614 926.875 143.617 934.236 145.064L933.945 147.133C931.767 149.392 929.691 151.948 926.832 153.458C883.771 192.905 833.68 230.212 777.799 252.31C766.449 256.799 754.194 260.516 742.527 264.262C740.258 265.275 737.015 266.28 735.222 267.902L736.659 269.508L735.679 270.201L729.365 271.569L728.645 269.812L717.837 269.188C720.422 266.685 723.201 264.103 725.385 261.283C727.998 257.905 729.611 253.854 732.614 250.728C744.34 238.513 758.058 225.91 770.966 214.828C776.025 210.482 781.706 206.879 786.785 202.445Z" fill="url(#paint11_linear_14_892)"/>
<path d="M786.785 202.445L833.863 173.4C841.451 168.95 850.666 166.493 858.906 163.397C877.978 156.233 895.682 150.797 915.736 146.934C922.584 145.614 926.875 143.617 934.236 145.064L933.945 147.133C931.767 149.392 929.691 151.948 926.832 153.458C921.179 152.217 914.761 155.556 909.258 156.831C895.515 160.016 881.534 161.918 868.056 166.117C862.658 167.799 857.395 170.487 852.285 172.834V171.627L851.734 171.101C848.316 171.847 846.971 172.601 844.01 174.199L843.14 174.469C841.965 174.839 842.578 174.543 841.555 175.463C840.344 176.553 839.892 176.233 838.488 176.789C836.462 177.588 836.795 178.593 835.733 180.077C834.728 181.482 831.072 183.556 829.51 184.559C826.092 186.757 822.038 186.884 818.422 188.551C815.176 190.048 812.252 192.402 809.054 193.76C809.586 195.027 809.922 196.114 810.131 197.461C795.503 209.254 781.412 219.095 768.42 232.714L766.214 232.069L766.039 232.685C765.576 233.974 764.765 235.056 764.005 236.204L763.33 236.32C760.646 237.164 757.68 241.249 755.168 242.931L754.084 244.191C752.527 246.082 751.617 246.566 749.103 247.058L749.109 248.614H750.68C746.615 252.775 743.391 256.061 741.592 261.532L742.527 264.262C740.258 265.275 737.015 266.28 735.222 267.902L736.659 269.508L735.679 270.201L729.365 271.569L728.645 269.812L717.837 269.188C720.422 266.685 723.201 264.103 725.385 261.283C727.998 257.905 729.611 253.854 732.614 250.728C744.34 238.513 758.058 225.91 770.966 214.828C776.025 210.482 781.706 206.879 786.785 202.445Z" fill="#4E586A"/>
<path d="M735.222 267.902C732.651 269.037 729.82 268.526 727.063 268.351L726.552 267.217C732.722 261.304 737.224 253.994 743.242 247.772C751.005 239.741 759.83 233.114 768.214 225.719C780.192 215.156 794.715 201.394 809.054 193.759C809.586 195.026 809.922 196.114 810.131 197.46C795.503 209.254 781.412 219.095 768.42 232.714L766.214 232.069L766.039 232.685C765.576 233.973 764.765 235.055 764.005 236.203L763.33 236.32C760.646 237.164 757.68 241.248 755.168 242.931L754.084 244.19C752.527 246.082 751.618 246.566 749.103 247.058L749.109 248.613H750.68C746.615 252.775 743.391 256.061 741.592 261.531L742.527 264.262C740.258 265.275 737.015 266.28 735.222 267.902Z" fill="#464758"/>
<path d="M966.839 227.27C978.532 232.984 987.905 248.812 996.843 257.992C1006.23 267.632 1016.08 276.868 1026.1 285.921C1052.86 309.664 1085.05 328.513 1119.72 340.251C1131.73 343.709 1143.97 346.862 1156.34 348.955C1162.39 349.976 1168.52 350.19 1174.55 351.28L1184.85 352.045L1188.34 352.431L1189.8 349.669L1192.99 351.754L1191.69 355.605C1193.35 358.851 1193.15 359.78 1192.81 363.42C1192.54 372.105 1193.92 380.528 1194.69 389.155C1196.21 406.494 1198.06 423.708 1199.75 441.026L1202.29 441.925L1219.91 438.983C1227.25 472.763 1231.32 506.88 1232.4 541.321C1232.76 552.797 1233.74 564.752 1233.22 576.199C1232.65 588.533 1230.05 601.533 1227.01 613.54C1224.68 624.834 1221.65 636.054 1217.3 646.821L1210.08 667.67C1208.57 673.667 1203.9 680.704 1201.05 686.294C1186 715.762 1167.49 743.561 1138.57 762.884L1139.71 765.683C1134.46 791.415 1128.71 816.778 1125.83 842.899C1124.77 852.608 1127.76 883.407 1123.19 889.647L1122.46 889.468C1116.89 888.29 1111.12 890.1 1105.54 890.608C1096.74 891.409 1088.15 891.555 1079.43 893.235C1068.49 895.341 1057.39 899.822 1047.14 903.952C1022.64 914.904 1004.35 930.531 986.964 949.713C979.746 957.676 973.235 965.745 964.494 972.375C964.427 979.861 966.376 1002.54 962.085 1007.7L959.814 1007.89L958.113 1010.02L919.417 1006.46C888.006 1000.96 858.443 982.597 840.352 957.928C835.891 954.242 832.024 948.055 828.739 943.414C817.758 927.912 808.198 911.409 798.995 894.941L802.178 891.875L801.995 891.192L802.817 889.584C803.356 887.875 803.907 885.933 805.009 884.465C805.907 883.267 806.447 882.777 806.775 881.275L806.998 880.018C807.905 877.407 808.083 876.306 807.955 873.478C807.862 857.211 805.95 840.164 803.517 824.05C802.218 815.447 791.619 770.135 793.156 766.212C791.946 764.738 786.74 762.68 784.802 761.632C763.559 744.024 742.784 723.648 729.549 699.897C727.201 695.688 726.351 691.389 724.475 687.04C721.885 681.032 718.371 675.284 714.825 669.733L713.899 668.749L713.684 667.614C712.122 666.995 712.675 667.069 711.24 666.945C707.622 666.628 704.602 665.998 701.119 665.072C694.313 657.601 693.712 645.784 691.042 636.585C689.663 631.834 687.217 627.231 686.194 622.387C685.937 621.175 685.827 620.21 685.073 619.152C684.285 618.046 684.488 617.279 684.409 615.943C683.686 612.982 681.895 610.099 681.722 607.017C681.53 603.548 683.861 598.826 685.11 595.549C689.098 590.932 690.045 584.369 691.463 578.694L691.57 569.969C691.158 566.02 691.644 561.543 691.717 557.546C690.189 552.856 691.644 543.046 691.638 537.808L704.944 438.674L722.817 442.044L728.586 443.147C731.769 438.578 732.035 434.063 732.351 428.787C729.682 425.467 730.702 414.79 730.289 410.057C730.716 401.597 731.922 393.19 732.261 384.743C732.563 377.195 731.351 367.359 733.885 360.224L734.295 362.343C735.888 358.992 734.428 356.259 733.936 352.73C735.233 353.335 734.73 353.256 736.077 353.335C738.323 353.465 740.287 353.531 742.487 354.021C740.402 354.383 739.281 355.037 737.532 356.087L738.349 359.407L738.832 357.431C750.609 353.201 764.855 353.121 777.373 351.179C841.581 342.246 900.006 296.844 940.999 252.28L957.138 236.035L957.621 234.733C959.562 233.196 962.037 232.508 964.379 231.654L966.839 227.27Z" fill="url(#paint12_linear_14_892)"/>
<path d="M849.149 822.782L856.7 812.952L857.528 814.92C858.935 814.134 860.005 813.465 861.113 812.33L861.76 813.364L851.446 825.957L849.149 822.782Z" fill="#120B1B"/>
<path d="M849.149 822.782L851.446 825.957L828.516 857.713L825.979 854.705C830.154 843.806 841.454 831.893 849.149 822.782Z" fill="#373241"/>
<path d="M805.574 448.666L807.498 449.377C812.478 459.374 824.34 466.647 826.083 477.795L808.495 469.049L803.458 467.062L804.303 458.552L803.283 457.726C803.427 453.861 802.933 451.888 805.574 448.666Z" fill="#221224"/>
<path d="M804.303 458.552C807.899 459.472 807.769 459.507 809.676 462.528C809.569 464.867 809.577 466.88 808.495 469.049L803.458 467.062L804.303 458.552Z" fill="#120B1B"/>
<path d="M842.64 888.346C870.438 892.396 899.091 905.97 918.369 924.978L916.335 927.755C901.111 913.06 880.319 903.973 860.327 896.679C863.226 896.547 865.364 896.491 868.15 897.367L868.839 897.597C867.395 896.192 860.641 894.573 858.361 893.965C857.081 893.623 856.327 893.608 855.189 892.899C853.254 891.695 849.005 891.957 846.768 891.375C845.81 891.126 843.547 889.012 842.64 888.346Z" fill="#373241"/>
<path d="M825.979 854.706L828.516 857.713C822.01 866.192 816.493 874.134 811.427 883.483C821.535 885.309 832.925 885.38 842.64 888.346C843.547 889.012 845.81 891.126 846.768 891.375C849.005 891.957 853.254 891.695 855.189 892.898C856.327 893.607 857.081 893.623 858.361 893.965C860.641 894.573 867.395 896.192 868.839 897.597L868.15 897.367C865.364 896.491 863.226 896.547 860.327 896.679C855.271 895.758 850.44 893.795 845.366 892.782C836.544 891.023 828.34 890.38 819.419 889.637C813.685 889.155 808.523 888.539 802.817 889.584C803.357 887.875 803.907 885.933 805.009 884.465C805.907 883.266 806.447 882.777 806.775 881.274L806.998 880.018C807.905 877.406 808.083 876.306 807.956 873.478C814.716 869.094 821.82 861.317 825.979 854.706Z" fill="#292933"/>
<path d="M918.369 924.978C933.697 934.89 948.042 951.634 959.147 965.52L960.367 886.74L960.98 887.253V963.723L957.946 965.015L956.014 964.239V965.274L956.836 966.306C957.675 967.718 960.687 970.726 960.98 971.991C961.932 976.073 959.647 981.509 961.531 985.435C965.834 985.409 960.816 971.559 964.291 969.406C966.899 967.79 967.517 968.205 969.531 965.53L964.842 966.306C964.291 965.79 963.526 965.414 963.187 964.755C962.43 963.279 963.187 956.118 963.187 953.906C963.187 939.61 963.187 925.316 963.187 911.02H964.596L964.732 966.528C972.065 960.737 976.701 953.943 983.091 947.427C992.284 938.052 1002.85 926.959 1013.53 919.176C1023.39 911.999 1034.82 905.943 1045.9 900.647L1047.14 903.951C1022.64 914.904 1004.35 930.531 986.964 949.713C979.746 957.676 973.235 965.745 964.495 972.374C964.427 979.861 966.376 1002.54 962.085 1007.7L959.814 1007.89C959.718 999.75 959.636 991.61 959.446 983.475C959.37 980.186 959.653 975.149 958.61 972.065C957.525 968.856 951.768 963.61 949.387 961.025C938.759 949.485 927.759 938.597 916.335 927.755L918.369 924.978Z" fill="#292933"/>
<path d="M1045.9 900.648C1065.81 887.285 1091.93 887.642 1114.96 883.87L1075.74 829.899L1076.29 828.865C1083.5 835.119 1088.96 844.976 1094.5 852.634L1096.99 856.508C1097.93 858.515 1098.57 859.034 1100.43 860.404L1101.12 860.907L1101.12 862.452L1114.99 880.859L1116.57 883.118C1118.2 883.433 1119.1 883.732 1120.43 884.669V886.208H1117.68L1116.57 885.185C1114.51 884.891 1113.51 884.82 1111.61 885.703C1108.56 887.116 1105.9 886.158 1102.78 886.735C1099.11 887.415 1095.23 888.105 1091.74 888.804C1089 889.351 1085.78 888.068 1083.05 889.163C1080.77 890.081 1078.28 889.552 1076.02 890.46C1075.11 890.825 1074.25 891.468 1073.26 891.645C1071.37 891.978 1070.29 891.777 1068.52 892.661C1067.51 893.161 1066.92 893.462 1065.79 893.727C1064.17 894.108 1065.04 893.804 1063.18 894.6L1059.74 896.036L1053.67 898.618L1055.88 899.137C1061.09 896.579 1066.64 895.481 1072.16 893.711C1074.65 892.909 1077.17 892.655 1079.61 891.902C1082.57 890.986 1085.53 890.629 1088.43 889.835C1091.72 888.939 1096.74 890.732 1100.02 889.835C1103.62 888.851 1107.94 889.756 1111.06 888.804C1115.15 887.55 1118.42 887.476 1122.92 887.51C1123.05 884.952 1123.38 882.227 1123.11 879.679L1122.37 874.592L1121.82 881.309H1119.06C1113.53 875.222 1108.58 868.185 1103.61 861.677C1101.66 859.129 1099.22 857.148 1097.66 854.328C1096.72 852.64 1095.7 851.076 1094.5 849.534C1093.01 847.603 1092.04 845.523 1090.64 843.563L1090.09 842.817L1084.3 835.325C1082.34 831.677 1078.12 827.338 1074.92 824.473L1075.19 822.59L1120.02 880.216L1120.59 881.081C1121.15 870.613 1119.71 860.148 1120.2 849.804C1121.45 823.619 1127.84 797.839 1134.66 772.545C1135.72 768.616 1136.1 767.64 1139.71 765.683C1134.46 791.415 1128.71 816.778 1125.83 842.899C1124.77 852.608 1127.76 883.407 1123.19 889.648L1122.46 889.468C1116.9 888.29 1111.12 890.1 1105.54 890.608C1096.74 891.409 1088.15 891.555 1079.43 893.235C1068.49 895.341 1057.39 899.822 1047.14 903.952L1045.9 900.648Z" fill="#0F0D15"/>
<path d="M964.48 323.304C964.952 330.962 965.025 338.603 965.09 346.274C965.102 347.481 964.658 351.679 965.138 352.616C966.811 355.886 970.78 359.571 973.184 362.576C986.179 378.801 1000.54 395.729 1016.67 409.322C1044.66 432.914 1082.45 447.044 1120.2 445.121C1122.27 445.015 1123.6 444.655 1125.48 443.914L1127.2 446.113L1125.8 448.954C1124.15 450.996 1121.55 453.48 1120.95 456.007C1122.18 459.279 1122.58 462.66 1124.05 465.827L1108.6 473.044L1098.82 478.245L1100.56 473.972C1101.13 471.512 1101.05 470.872 1102.55 468.726C1110.03 465.525 1115.24 456.033 1119.52 449.7C1110.92 449.697 1102.5 449.692 1093.95 448.689L1086.89 447.576C1074.34 444.835 1060.75 441.166 1049.21 435.673C1028.62 425.872 1013.18 412.809 997.411 397.317C985.416 385.534 973.879 372.975 964.735 359.081L965.935 392.256H964.291C964.311 384.457 966.362 369.758 962.508 363.02L962.099 362.351C966.865 351.603 962.661 335.142 964.48 323.304Z" fill="url(#paint13_linear_14_892)"/>
<path d="M1120.95 456.007C1122.18 459.279 1122.58 462.66 1124.05 465.827L1108.6 473.044L1107.8 470.277L1120.95 456.007Z" fill="#221224"/>
<path d="M958.847 272.481L959.11 272.597L960.704 271.87L961.52 276L962.913 276.521L963.187 270.833L965.108 269.764C964.884 282.346 964.585 294.933 964.565 307.518C964.56 312.068 965.585 318.986 964.48 323.304C962.661 335.142 966.865 351.602 962.099 362.351L961.853 362.946C959.17 370.192 960.915 383.277 960.98 391.224C963.356 394.56 962.085 404.433 962.085 408.79H960.441L960.161 364.354C938.737 389.443 916.987 413.613 887.164 430.205C881.947 433.107 877.362 436.295 871.596 438.21C859.336 442.287 846.321 446.999 833.301 448.187C825.112 448.935 817.86 446.388 809.735 448.758L808.331 449.128L807.498 449.377L805.574 448.665L804.693 446.694C801.147 445.345 799.06 443.956 797.122 440.827C793.952 435.708 790.314 433.192 789.187 426.98L802.054 442.689L833.052 442.459C872.121 441.105 902.922 418.745 928.445 393.031C937.319 384.092 946.392 374.176 953.839 364.187C955.395 362.097 958.54 358.891 959.325 356.637C961.212 351.224 959.921 341.266 959.904 335.571C959.842 314.531 959.684 293.51 958.847 272.481Z" fill="url(#paint14_linear_14_892)"/>
<path d="M802.817 889.584C808.523 888.539 813.684 889.155 819.419 889.637C828.34 890.38 836.544 891.023 845.366 892.782C850.44 893.795 855.271 895.758 860.327 896.679C880.319 903.973 901.111 913.06 916.335 927.755C927.759 938.597 938.759 949.486 949.387 961.025C951.768 963.61 957.525 968.856 958.61 972.065C959.653 975.149 959.37 980.186 959.446 983.475C959.636 991.61 959.717 999.75 959.814 1007.89L958.113 1010.02L919.417 1006.46C888.006 1000.96 858.443 982.596 840.352 957.927C835.891 954.242 832.024 948.054 828.739 943.414C817.758 927.912 808.198 911.409 798.995 894.941L802.178 891.875L801.995 891.192L802.817 889.584Z" fill="url(#paint15_linear_14_892)"/>
<path d="M802.178 891.875C806.162 892.798 809.617 893.449 811.975 896.907L812.348 897.587H810.905L810.368 897.047C809.032 895.727 808.139 894.777 806.215 894.227C804.314 894.581 805.156 894.169 803.732 895.528C805.071 897.417 804.376 898.542 805.927 900.169C808.003 902.346 808.95 905.219 810.523 907.671C811.975 909.936 813.913 911.266 815.314 913.608L816.139 914.608C817.19 915.925 816.99 916.293 817.521 917.743L818.379 919.29C819.142 920.639 819.363 921.338 819.182 922.904L820.272 923.938C820.284 925.782 819.885 925.626 821.377 927.039L821.552 927.946C821.95 929.422 822.642 929.989 823.583 931.171C824.439 932.245 825.125 933.306 825.761 934.496C827.168 937.129 829.38 940.274 831.309 942.539C833.572 945.195 835.346 948.314 837.383 951.065L838.219 951.906C839.736 953.568 839.993 955.819 840.352 957.928C835.891 954.242 832.024 948.055 828.739 943.414C817.758 927.912 808.198 911.409 798.995 894.941L802.178 891.875Z" fill="#292933"/>
<path d="M957.138 236.034C958.785 239.571 957.729 242.838 957.808 246.574C957.994 255.206 958.503 263.854 958.847 272.481C959.684 293.51 959.842 314.531 959.904 335.571C959.921 341.266 961.212 351.224 959.325 356.637C958.54 358.891 955.395 362.097 953.839 364.187C946.392 374.176 937.319 384.092 928.445 393.031C902.922 418.745 872.121 441.105 833.052 442.459L802.054 442.689L789.187 426.98C790.314 433.192 793.952 435.708 797.122 440.827C799.06 443.956 801.147 445.345 804.693 446.694L805.574 448.665C802.933 451.888 803.427 453.861 803.283 457.726L804.303 458.552L803.458 467.062C800.865 465.7 797.995 464.805 795.218 463.821L795.305 463.327L728.586 443.147C731.769 438.578 732.035 434.062 732.351 428.787C729.682 425.467 730.702 414.79 730.289 410.057C730.716 401.597 731.922 393.189 732.261 384.742C732.563 377.195 731.351 367.359 733.885 360.224L734.295 362.343C735.888 358.991 734.428 356.258 733.936 352.729C735.233 353.335 734.73 353.256 736.077 353.335C738.323 353.465 740.287 353.531 742.487 354.02C740.403 354.383 739.281 355.036 737.532 356.086L738.349 359.407L738.832 357.43C750.609 353.2 764.855 353.121 777.373 351.179C841.581 342.245 900.007 296.843 940.999 252.28L957.138 236.034Z" fill="#120B1B"/>
<path d="M733.885 360.224L734.295 362.343C735.888 358.991 734.428 356.259 733.936 352.729C735.233 353.335 734.73 353.256 736.077 353.335C738.323 353.465 740.287 353.531 742.487 354.021C740.403 354.383 739.281 355.036 737.532 356.087L738.349 359.407L738.832 357.431L748.77 368.801C751.344 371.909 759.397 381.454 759.818 385.206L769.562 399.092C775.223 405.742 780.206 412.653 784.915 419.922C786.124 421.787 788.785 424.896 789.187 426.98C790.314 433.192 793.952 435.708 797.122 440.827C799.06 443.957 801.147 445.345 804.693 446.695L805.574 448.666C802.933 451.888 803.427 453.861 803.283 457.726L804.303 458.552L803.458 467.062C800.865 465.7 797.995 464.806 795.218 463.822L795.305 463.327L728.586 443.147C731.769 438.578 732.035 434.062 732.351 428.787C729.682 425.467 730.702 414.79 730.289 410.057C730.716 401.597 731.922 393.19 732.261 384.743C732.563 377.195 731.351 367.359 733.885 360.224Z" fill="#120B1B"/>
<path d="M759.818 385.206L769.562 399.092L769.217 401.499C768.053 399.862 767.773 399.229 765.937 398.198C766.369 401.034 768.341 400.356 768.392 403.123L768.539 405.912L756.505 389.277L760.686 391.224L759.818 385.206Z" fill="#464758"/>
<path d="M748.77 368.801C751.344 371.909 759.397 381.454 759.818 385.205L760.686 391.224L756.505 389.277L747.462 375.769L748.352 374.766C748.151 372.774 748.524 370.78 748.77 368.801Z" fill="#5E5163"/>
<path d="M785.912 431.893C791.141 435.441 795.269 440.004 799.116 444.816C801.246 447.48 801.992 448.099 805.574 448.665C802.933 451.888 803.427 453.861 803.283 457.726L804.303 458.552L803.458 467.062C800.865 465.7 797.995 464.806 795.218 463.821L795.305 463.327C797.043 462.493 797.483 462.409 797.947 460.459C798.472 458.25 799.526 450.287 799.026 448.203C798 443.949 789.427 437.099 786.636 432.97L785.912 431.893Z" fill="#292933"/>
<path d="M768.539 405.911L768.392 403.123C768.341 400.356 766.369 401.033 765.937 398.197C767.773 399.229 768.053 399.861 769.217 401.499L769.562 399.091C775.223 405.742 780.206 412.652 784.915 419.922C786.124 421.787 788.785 424.896 789.187 426.98C790.314 433.192 793.952 435.708 797.122 440.827C799.06 443.956 801.147 445.345 804.693 446.694L805.574 448.665C801.992 448.099 801.246 447.48 799.116 444.816C795.269 440.004 791.142 435.44 785.913 431.893C779.915 425.663 772.542 413.544 768.539 405.911Z" fill="#373241"/>
<path d="M733.885 360.224L734.295 362.343C735.888 358.991 734.428 356.259 733.936 352.729C735.233 353.335 734.73 353.256 736.077 353.335C738.323 353.465 740.287 353.531 742.487 354.021C740.402 354.383 739.281 355.036 737.532 356.087L738.349 359.407L738.832 357.431L748.77 368.801C748.524 370.78 748.151 372.774 748.352 374.766L747.462 375.769L738.996 361.859L732.351 428.787C729.682 425.467 730.702 414.79 730.289 410.057C730.716 401.597 731.922 393.19 732.261 384.743C732.563 377.195 731.351 367.359 733.885 360.224Z" fill="#555260"/>
<path d="M966.839 227.27C978.532 232.984 987.905 248.812 996.843 257.992C1006.23 267.632 1016.08 276.868 1026.1 285.921C1052.86 309.664 1085.05 328.513 1119.72 340.251C1131.73 343.709 1143.97 346.862 1156.34 348.955C1162.39 349.976 1168.52 350.19 1174.55 351.28L1184.85 352.045L1188.34 352.431L1189.8 349.669L1192.99 351.754L1191.69 355.605C1193.35 358.851 1193.15 359.78 1192.81 363.42C1192.54 372.105 1193.92 380.529 1194.69 389.155C1196.21 406.494 1198.06 423.708 1199.75 441.026L1202.29 441.925L1196.63 442.93L1129.67 463.835L1124.05 465.827C1122.58 462.66 1122.18 459.279 1120.95 456.007C1121.55 453.48 1124.15 450.996 1125.8 448.954L1127.2 446.113L1125.48 443.914C1123.6 444.655 1122.27 445.015 1120.2 445.121C1082.45 447.044 1044.66 432.914 1016.67 409.322C1000.54 395.729 986.179 378.801 973.184 362.576C970.78 359.571 966.811 355.886 965.139 352.616C964.658 351.679 965.102 347.481 965.091 346.275C965.026 338.603 964.952 330.963 964.48 323.304C965.585 318.986 964.56 312.069 964.565 307.518C964.585 294.934 964.884 282.346 965.108 269.765L963.187 270.833L962.913 276.521L961.52 276L960.703 271.87L959.11 272.598L958.847 272.481C958.503 263.854 957.994 255.206 957.808 246.574C957.729 242.839 958.785 239.572 957.138 236.035L957.621 234.733C959.562 233.196 962.037 232.508 964.379 231.654L966.839 227.27Z" fill="#120B1B"/>
<path d="M1164.71 385.626C1164.26 387.83 1163.22 390.441 1164.51 392.446L1158.34 401.433L1153.76 399.592L1164.71 385.626Z" fill="#3A3947"/>
<path d="M1189.8 349.668L1192.99 351.753L1191.69 355.605L1188.77 358.737L1183.67 356.994L1180.91 355.692L1179.36 355.518C1174.21 355.835 1168.95 354.787 1163.86 354.113C1167.19 351.229 1170.16 351.708 1174.55 351.28L1184.85 352.044L1188.34 352.43L1189.8 349.668Z" fill="#555260"/>
<path d="M1184.85 352.044L1188.34 352.431C1186.4 353.346 1184.77 353.732 1182.67 354.15L1180.91 355.693L1179.36 355.518C1178.13 354.203 1178.59 354.954 1177.99 353.251L1184.85 352.044Z" fill="#5E5163"/>
<path d="M1189.8 349.668L1192.99 351.753L1191.69 355.605L1188.77 358.737L1183.67 356.994L1180.91 355.692L1182.67 354.15C1184.77 353.732 1186.4 353.346 1188.34 352.43L1189.8 349.668Z" fill="#555260"/>
<path d="M1183.67 356.994L1188.77 358.738C1187.56 363.19 1182.57 367.346 1179.7 371.166C1174.46 378.153 1169.94 385.573 1164.51 392.446C1163.22 390.441 1164.26 387.83 1164.71 385.626C1168.14 379.433 1172.39 373.222 1176.57 367.454C1179.13 363.936 1182.69 361.259 1183.67 356.994Z" fill="#464758"/>
<path d="M1119.72 340.251C1131.73 343.709 1143.97 346.862 1156.34 348.955C1162.39 349.976 1168.52 350.19 1174.55 351.28C1170.16 351.709 1167.19 351.23 1163.86 354.113C1161.86 354.51 1156.84 353.103 1154.72 352.738C1141.26 350.426 1128.25 346.994 1115.29 342.899C1116.73 341.886 1118.16 341.09 1119.72 340.251Z" fill="#373241"/>
<path d="M1125.48 443.914C1124.91 438.414 1148.95 406.023 1153.76 399.592L1158.34 401.433L1127.2 446.113L1125.48 443.914Z" fill="#373241"/>
<path d="M957.621 234.733C959.562 233.196 962.037 232.508 964.379 231.653L965.108 269.764L963.187 270.833L962.913 276.521L961.52 276L960.703 271.87L959.11 272.598L958.847 272.481C958.503 263.854 957.994 255.206 957.808 246.574C957.729 242.838 958.785 239.571 957.138 236.034L957.621 234.733Z" fill="#464758"/>
<path d="M966.839 227.27C978.532 232.984 987.905 248.812 996.843 257.992C1006.23 267.632 1016.08 276.868 1026.1 285.921C1025.66 287.243 1025.44 288.249 1024.52 289.349C1011.56 279.566 998.264 267.048 987.569 255.09C982.814 249.778 978.133 244.407 973.424 239.061C971.76 237.172 969.681 234.08 967.698 232.564C967.195 232.18 965.102 231.852 964.379 231.654L966.839 227.27Z" fill="#464758"/>
<path d="M1026.1 285.92C1052.86 309.664 1085.05 328.513 1119.72 340.251C1118.16 341.089 1116.73 341.886 1115.29 342.899C1095.5 338.121 1075.24 325.87 1058.64 315.034C1046.38 307.026 1034.74 299.759 1024.52 289.349C1025.44 288.248 1025.66 287.243 1026.1 285.92Z" fill="#3A3947"/>
<path d="M1188.77 358.737L1191.69 355.605C1193.35 358.851 1193.15 359.78 1192.81 363.42C1192.54 372.105 1193.92 380.528 1194.69 389.155C1196.21 406.494 1198.06 423.708 1199.74 441.025L1202.29 441.925L1196.63 442.93L1129.67 463.835L1124.05 465.827C1122.58 462.66 1122.18 459.279 1120.95 456.007C1121.55 453.48 1124.15 450.996 1125.8 448.954L1127.2 446.112L1158.34 401.433L1164.51 392.446C1169.94 385.573 1174.46 378.152 1179.7 371.166C1182.57 367.346 1187.56 363.19 1188.77 358.737Z" fill="#0F0D15"/>
<path d="M1120.95 456.007C1121.55 453.48 1124.15 450.996 1125.8 448.954L1129.67 463.835L1124.05 465.827C1122.58 462.66 1122.18 459.279 1120.95 456.007Z" fill="#373241"/>
<path d="M1196.64 442.93L1196 441.583C1193.45 435.856 1193.2 426.98 1192.52 420.761C1191.09 407.655 1185.88 373.938 1190.91 362.288L1192.81 363.42C1192.54 372.105 1193.92 380.528 1194.69 389.155C1196.21 406.494 1198.06 423.708 1199.75 441.025L1202.29 441.925L1196.64 442.93Z" fill="#373241"/>
<path d="M1202.29 441.925L1219.91 438.983C1227.25 472.763 1231.32 506.879 1232.4 541.321C1232.76 552.797 1233.74 564.752 1233.22 576.199C1232.65 588.532 1230.05 601.532 1227.01 613.54C1224.68 624.834 1221.65 636.053 1217.3 646.82L1210.08 667.67C1208.57 673.667 1203.9 680.704 1201.05 686.294C1186 715.762 1167.49 743.561 1138.57 762.883C1133.47 764.666 1128.45 767.875 1123.46 770.061C1103.63 778.733 1083.25 780.574 1062.65 773.426C1039.84 765.516 1018.63 742.764 1008.5 722.405C1000.33 708.524 993.767 694.127 989.12 678.884C987.761 674.426 985.902 669.696 985.413 665.072C984.857 659.815 986.927 652.995 987.967 647.834C994.459 615.659 1006.01 584.117 1021.88 554.993C1025.65 548.067 1029.12 540.586 1034.23 534.445C1036.04 529.398 1041.29 523.715 1044.99 519.633C1060.6 502.44 1078.53 490.184 1098.82 478.245L1108.6 473.044L1124.05 465.827L1129.67 463.835L1196.63 442.93L1202.29 441.925Z" fill="url(#paint16_linear_14_892)"/>
<path d="M1200.26 647.85L1202.38 646.844L1204.39 641.998C1205.1 639.842 1205.9 638.704 1207.34 636.945L1209.82 638.112C1210.21 640.559 1210.54 642.572 1212.04 644.67C1213.48 646.667 1214.87 646.384 1217.3 646.82L1210.08 667.67C1208.57 673.667 1203.9 680.704 1201.05 686.294C1186 715.762 1167.49 743.561 1138.57 762.883C1133.47 764.666 1128.45 767.875 1123.46 770.061C1103.63 778.733 1083.25 780.574 1062.65 773.426C1039.84 765.516 1018.63 742.764 1008.5 722.405L1009.06 722.042C1010.49 723.857 1011.85 725.331 1013.67 726.817C1016.49 727.153 1018.47 727.14 1020.84 725.5C1023.72 723.513 1027.52 722.992 1029.95 720.868C1031.64 719.389 1032.11 719.796 1034.36 719.68L1034 718.563C1058.35 714.839 1080.71 703.341 1102.65 693.468C1118.59 686.299 1134.51 680.077 1150.16 672.183C1162.33 666.048 1176.62 656.006 1190.13 653.323L1195.25 641.318L1197.13 646.471L1196.58 647.514L1198.25 648.503L1200.26 647.85Z" fill="white"/>
<path d="M1200.26 647.85L1202.38 646.844L1204.39 641.998C1205.1 639.842 1205.9 638.704 1207.34 636.945L1209.82 638.112C1210.21 640.559 1210.54 642.572 1212.04 644.67C1213.48 646.667 1214.87 646.384 1217.3 646.82L1210.08 667.67C1208.57 673.667 1203.9 680.704 1201.05 686.294C1186 715.762 1167.49 743.561 1138.57 762.883C1133.47 764.666 1128.45 767.875 1123.46 770.061C1103.63 778.733 1083.25 780.574 1062.65 773.426C1039.84 765.516 1018.63 742.764 1008.5 722.405L1009.06 722.042C1010.49 723.857 1011.85 725.331 1013.67 726.817C1016.49 727.153 1018.47 727.14 1020.84 725.5C1023.72 723.513 1027.52 722.992 1029.95 720.868C1031.64 719.389 1032.11 719.796 1034.36 719.68C1042.56 732.182 1054.04 745.479 1068.75 751.495C1082.56 757.14 1095.78 757.262 1109.72 751.875C1119.04 748.275 1126.83 742.537 1134.31 736.339C1161.49 713.804 1176.21 683.923 1190.13 653.323L1195.25 641.318L1197.13 646.471L1196.58 647.514L1198.25 648.503L1200.26 647.85Z" fill="#9C0138"/>
<path d="M1202.29 441.925L1219.91 438.983C1227.25 472.763 1231.32 506.879 1232.4 541.321C1232.76 552.797 1233.74 564.752 1233.22 576.199C1232.65 588.532 1230.05 601.532 1227.01 613.54C1224.68 624.834 1221.65 636.053 1217.3 646.82C1214.87 646.384 1213.48 646.667 1212.04 644.67C1210.54 642.572 1210.21 640.559 1209.82 638.111L1207.34 636.945C1205.9 638.704 1205.1 639.842 1204.39 641.998L1202.38 646.844L1200.26 647.85L1198.25 648.503L1196.58 647.514L1197.13 646.471L1195.25 641.318C1197.31 631.739 1201.07 622.493 1203.3 612.905C1207.17 596.236 1208.22 579.435 1209.24 562.469L1201.45 465.512C1168.49 472.168 1135.83 484.723 1106.32 499.782C1094.26 507.559 1081.71 514.919 1071.51 524.845C1062.1 534.009 1054.64 544.977 1047.99 556.027C1030.35 585.363 1018.05 619.993 1011.53 653.058C1010.84 656.54 1009.48 660.852 1009.8 664.384C1010.24 669.344 1012.77 674.847 1014.53 679.54C1019.57 692.955 1025.49 706.698 1034 718.563L1034.36 719.68C1032.11 719.796 1031.64 719.389 1029.95 720.868C1027.52 722.992 1023.72 723.513 1020.84 725.5C1018.47 727.14 1016.49 727.153 1013.67 726.817C1011.85 725.331 1010.49 723.857 1009.06 722.042L1008.5 722.405C1000.33 708.524 993.767 694.127 989.12 678.884C987.761 674.426 985.902 669.696 985.413 665.072C984.857 659.815 986.927 652.995 987.967 647.834C994.459 615.659 1006.01 584.117 1021.88 554.993C1025.65 548.067 1029.12 540.586 1034.23 534.445C1036.04 529.398 1041.29 523.715 1044.99 519.633C1060.6 502.44 1078.53 490.184 1098.82 478.245L1108.6 473.044L1124.05 465.827L1129.67 463.835L1196.63 442.93L1202.29 441.925Z" fill="#D30E4B"/>
<path d="M1115 484.046C1130.35 479.02 1144.2 471.29 1159.38 466.356C1175.72 461.046 1193.61 459.126 1209.45 452.901C1210.36 461.607 1211.15 470.361 1212.49 479.022C1213.75 487.197 1215.75 495.954 1215.92 504.194L1215.69 514.707L1214.79 514.197V501.795L1214.33 502.504C1213.64 503.461 1213.05 503.805 1212.01 504.379L1210.36 507.475H1209.27L1208.7 507.996L1209.26 509.139C1210.96 512.98 1208.21 521.456 1210.91 524.014C1210.91 526.906 1210.01 533.207 1211.75 535.382L1211.27 536.527C1208.38 544.152 1211.87 554.231 1209.24 562.469L1201.45 465.512C1168.49 472.168 1135.83 484.723 1106.32 499.782C1108.15 497.02 1109.56 495.377 1112.75 494.107L1115.47 493.012C1118.99 490.694 1122.87 489.451 1126.51 487.34C1127.7 486.641 1128.08 486.303 1129.51 485.901C1131.33 485.385 1132.69 485.229 1134.09 483.927L1134.78 483.205C1136.08 482.983 1137.3 482.782 1138.55 482.343L1144.16 480.612C1146.16 479.292 1144.42 479.84 1146.04 479.258L1146.89 479.001L1148.58 478.549C1150.86 478.372 1152.25 478.295 1153.99 476.676C1155.23 475.523 1156.77 475.681 1158.51 475.446L1159.61 474.417C1160.84 474.314 1161.79 474.194 1162.96 473.787L1167.61 472.351L1168.99 472.345L1170.09 470.806C1172.42 470.927 1174.07 470.377 1176.23 469.62C1178.62 468.782 1181.77 468.422 1183.85 467.123L1184.44 466.671L1186.65 467.176C1188.31 466.541 1190.06 465.97 1191.56 465.031C1193.08 464.083 1193.09 465.409 1194.37 465.11C1197.09 464.475 1196.97 463.57 1200.44 463.57L1201 462.528L1198.24 462.004C1197.87 460.753 1197.5 460.139 1196.58 459.168C1195.29 459.105 1194.53 459.091 1193.3 459.523C1191.72 460.078 1192.57 459.89 1190.82 460.218L1183.89 461.493L1181.13 462.009C1178.94 462.663 1176.33 462.877 1174.3 463.689C1172.29 464.496 1169.52 465.083 1167.33 465.628C1164.88 466.237 1162.83 467.531 1160.4 467.986C1158.24 468.39 1151.67 470.575 1149.96 471.858L1149.4 472.34C1146.8 472.348 1144.33 474.382 1141.95 475.446C1136.46 477.903 1130.76 481.102 1124.9 482.597C1123.25 483.02 1123.82 482.766 1122.43 483.324C1119.33 484.573 1118.38 484.369 1115 484.046Z" fill="#ED3B76"/>
<path d="M1202.29 441.925L1219.91 438.983C1227.25 472.763 1231.32 506.879 1232.4 541.321C1232.76 552.797 1233.74 564.752 1233.22 576.199C1232.65 588.532 1230.05 601.532 1227.01 613.54C1224.68 624.834 1221.65 636.053 1217.3 646.82C1214.87 646.384 1213.48 646.667 1212.04 644.67C1210.54 642.572 1210.21 640.559 1209.82 638.111L1207.34 636.945C1205.9 638.704 1205.1 639.842 1204.39 641.998L1202.38 646.844L1200.26 647.85L1198.25 648.503L1196.58 647.514L1197.13 646.471L1195.25 641.318C1197.31 631.739 1201.07 622.493 1203.3 612.905C1207.17 596.236 1208.22 579.435 1209.24 562.469C1211.87 554.231 1208.38 544.152 1211.27 536.527L1211.75 535.382C1210.01 533.207 1210.91 526.906 1210.91 524.014C1208.21 521.456 1210.96 512.98 1209.26 509.139L1208.7 507.996L1209.27 507.475H1210.36L1212.01 504.379C1213.05 503.805 1213.64 503.461 1214.33 502.504L1214.79 501.795V514.197L1215.69 514.707L1215.92 504.194C1215.75 495.953 1213.75 487.197 1212.49 479.022C1211.15 470.361 1210.36 461.607 1209.45 452.901C1193.61 459.126 1175.72 461.046 1159.38 466.356C1144.2 471.29 1130.35 479.02 1115 484.046C1104.55 485.808 1096.35 494.655 1087.8 499.948C1082.05 503.512 1076.91 505.274 1071.6 509.734L1070.64 508.797C1061.61 516.842 1051.45 525.094 1044.57 534.863H1043.74C1045.12 531.673 1046.97 529.543 1049.19 526.89C1053.54 521.689 1064.77 514.977 1066.37 509.041L1068.02 509.03L1068.42 507.869C1069.22 506.02 1070.61 504.567 1072.73 503.993L1073.54 503.864L1075.19 501.805L1076.85 501.795C1078.52 500.673 1079.84 499.559 1081.27 498.184L1082.3 497.972C1084.28 497.504 1082.73 497.938 1084.57 496.893L1085.31 496.615C1086.34 496.133 1086.68 495.647 1087.4 494.856C1088.37 493.789 1088.59 493.628 1089.97 492.98C1093.17 491.477 1094.82 488.652 1098.09 487.07L1100.02 485.779C1102.04 484.406 1103.75 483.522 1106.09 482.678L1109.52 481.242C1111.39 480.446 1110.52 480.75 1112.14 480.369C1119.54 478.636 1131.29 473.046 1137.54 469.245C1139.06 468.316 1140.83 467.784 1142.51 467.176L1153.66 462.639C1155.03 462.057 1156 461.853 1157.4 461.493C1161.31 460.496 1165.17 459.911 1168.99 458.911C1172.46 457.999 1176 457.462 1179.47 456.327L1174.51 456.316C1172.82 453.943 1174.47 453.496 1171.75 451.676L1168.04 453.112L1153.78 457.47C1151.95 457.988 1152.94 457.607 1151.63 458.427C1150.44 459.165 1151.03 458.85 1149.38 458.991C1147.39 459.16 1146.66 459.671 1144.99 460.552C1143.98 461.089 1142.88 461.06 1141.95 461.493L1140.85 462.263L1139.95 462.298C1133.79 463.036 1125.51 467.906 1119.88 470.53C1118.31 471.263 1117.04 471.406 1115.47 472.345C1113.34 473.62 1110.97 474.419 1108.85 475.697C1108.09 476.157 1107.25 476.451 1106.48 476.932C1104.56 478.134 1102.52 479.057 1100.42 479.948C1095.87 481.885 1091.44 485.284 1087.33 487.845C1085.68 488.872 1083.85 489.819 1082.09 490.686C1079.77 491.832 1077.9 493.882 1075.59 495.176C1073.4 496.401 1072.44 498.461 1070.15 499.419C1067.3 500.604 1064.88 503.935 1062.67 506.041C1057.85 510.639 1051.38 515.226 1047.6 520.541C1044.18 525.358 1038.98 532.17 1034.91 536.414L1034.22 536.437L1034.23 534.445C1036.04 529.398 1041.29 523.715 1044.99 519.633C1060.6 502.44 1078.53 490.184 1098.82 478.245L1108.6 473.044L1124.05 465.827L1129.67 463.835L1196.63 442.93L1202.29 441.925Z" fill="#E4275D"/>
<path d="M1221.52 531.115C1222.9 538.869 1222.57 546.832 1222.53 554.67C1222.43 570.062 1221.4 585.223 1219.44 600.498C1219.5 596.374 1220.15 592.001 1217.11 588.652C1216.98 587.509 1216.97 587.948 1217.08 586.85L1218.35 543.057C1219.94 547.096 1219.52 552.276 1219.71 556.567H1220.61C1222.32 548.559 1220.92 539.361 1221.52 531.115Z" fill="#D30E4B"/>
<path d="M1200.26 647.85C1200.94 644.932 1201.24 640.003 1203.23 637.662C1209.07 630.768 1210.8 619.432 1212.77 610.979L1215.31 614.241L1216.27 612.847L1216.91 612.95L1218.62 617.019C1216.25 620.392 1219.17 625.302 1216.43 627.871C1216.43 632.183 1216.01 630.725 1214.22 634.069C1213.37 635.665 1215.22 635.202 1213.12 637.17L1213.67 639.76L1216.45 641.305C1218.09 637.905 1219.64 634.236 1220.14 630.522C1220.45 628.191 1221.56 625.9 1222.51 623.736L1221.97 621.67L1222.49 621.024C1223.36 619.802 1222.9 620.514 1223.25 619.21C1223.8 617.122 1225.66 615.252 1227.01 613.54C1224.68 624.834 1221.65 636.053 1217.3 646.821C1214.87 646.384 1213.48 646.667 1212.04 644.67C1210.54 642.572 1210.21 640.559 1209.82 638.112L1207.34 636.945C1205.9 638.704 1205.1 639.842 1204.39 641.998L1202.38 646.844L1200.26 647.85Z" fill="#D30E4B"/>
<path d="M1070.64 508.798C1075.26 504.404 1080.55 501.964 1085.82 498.425C1091.67 494.499 1096.69 489.48 1102.94 486.054C1109.28 482.581 1116.85 480.488 1123.59 477.695C1133.86 473.441 1143.76 468.163 1154.2 464.324C1162.1 461.422 1170.91 460.401 1179.09 458.303C1189.93 455.528 1200.71 451.787 1211.74 449.79C1215.27 471.24 1218.92 492.562 1220.47 514.242C1220.84 519.515 1222.05 525.911 1221.52 531.115C1220.92 539.361 1222.32 548.559 1220.61 556.567H1219.71C1219.52 552.276 1219.94 547.096 1218.35 543.057C1218.11 530.348 1218.3 516.689 1215.92 504.195C1215.75 495.954 1213.75 487.197 1212.49 479.023C1211.15 470.361 1210.36 461.607 1209.45 452.901C1193.61 459.126 1175.72 461.047 1159.38 466.356C1144.2 471.29 1130.35 479.02 1115 484.046C1104.55 485.808 1096.35 494.655 1087.8 499.949C1082.05 503.512 1076.91 505.274 1071.6 509.734L1070.64 508.798Z" fill="#A70022"/>
<path d="M1209.24 562.469C1211.87 554.231 1208.38 544.152 1211.27 536.528L1211.75 535.382C1210.01 533.207 1210.91 526.906 1210.91 524.014C1208.21 521.456 1210.96 512.98 1209.26 509.139L1208.7 507.996L1209.27 507.475H1210.36L1212.01 504.38C1213.05 503.805 1213.64 503.462 1214.33 502.504L1214.79 501.795V514.197L1215.69 514.708L1215.92 504.194C1218.3 516.689 1218.11 530.348 1218.35 543.057L1217.08 586.85C1216.97 587.948 1216.98 587.509 1217.11 588.652C1220.15 592.001 1219.5 596.374 1219.44 600.498L1219.16 606.12L1216.91 612.95L1216.27 612.847L1215.31 614.241L1212.77 610.98C1210.8 619.432 1209.07 630.768 1203.23 637.662C1201.24 640.003 1200.94 644.932 1200.26 647.85L1198.25 648.503L1196.58 647.514L1197.13 646.471L1195.25 641.318C1197.31 631.739 1201.07 622.493 1203.3 612.905C1207.17 596.236 1208.22 579.435 1209.24 562.469Z" fill="#E4275D"/>
<path d="M1217.11 588.651C1220.15 592.001 1219.5 596.374 1219.44 600.498L1219.16 606.12L1216.91 612.95L1216.27 612.847L1215.31 614.241L1212.77 610.979L1214.99 601.366L1217.11 588.651Z" fill="#A70022"/>
<path d="M691.638 537.808L704.944 438.673L722.817 442.044L728.586 443.147L795.305 463.327L795.218 463.821C797.995 464.806 800.865 465.7 803.458 467.062L808.495 469.049L826.083 477.795C841.945 486.763 858.531 497.475 871.472 509.998C903.105 540.609 922.434 588.128 933.225 628.926C936.154 640 940.118 653.63 939.881 665.053C939.77 670.294 937.686 676.275 936.14 681.312C931.228 697.339 923.075 715.645 913.979 729.973C901.063 750.322 878.816 770.386 853.94 776.111C832.561 781.031 812.213 775.539 793.156 766.211C791.946 764.738 786.74 762.68 784.802 761.632C763.559 744.024 742.784 723.648 729.549 699.897C727.201 695.688 726.351 691.389 724.475 687.04C721.885 681.032 718.371 675.283 714.825 669.733L713.899 668.749L713.684 667.614C712.122 666.995 712.675 667.069 711.24 666.945C707.622 666.627 704.602 665.998 701.119 665.072C694.313 657.601 693.712 645.783 691.042 636.585C689.663 631.834 687.217 627.231 686.194 622.387C685.937 621.175 685.827 620.209 685.073 619.151C684.285 618.045 684.488 617.278 684.409 615.942C683.686 612.982 681.895 610.098 681.722 607.016C681.53 603.548 683.861 598.826 685.11 595.548C689.098 590.932 690.045 584.368 691.463 578.694L691.57 569.969C691.158 566.019 691.644 561.543 691.717 557.546C690.189 552.855 691.644 543.046 691.638 537.808Z" fill="url(#paint17_linear_14_892)"/>
<path d="M691.463 578.694C693.135 586.144 693.014 593.146 694.246 600.485C695.441 607.606 698.607 614.257 699.684 621.516C696.893 619.913 689.743 612.966 688.429 610.088C687.692 608.471 688.135 609.101 687.203 607.789C686.22 606.4 687.24 604.982 686.751 603.585C685.717 600.643 685.381 598.773 685.11 595.548C689.099 590.932 690.045 584.368 691.463 578.694Z" fill="#120B1B"/>
<path d="M702.537 524.795L703.591 532.567L705.955 533.144L706.206 543.808C705.201 547.837 705.944 553.734 705.952 557.961C705.983 575.594 707.012 593.096 710.724 610.435C711.828 615.591 718.566 633.39 716.557 637.159C716.221 635.739 716.001 635.099 715.176 633.813C714.958 636.069 714.684 636.353 716.003 638.204L714.348 639.755C713.998 633.805 711.452 628.212 709.735 622.519C708.116 617.162 707.074 611.601 706.119 606.112C701.924 582.012 701.684 558.255 701.534 533.909L702.537 524.795Z" fill="#D30E4B"/>
<path d="M685.11 595.548C685.381 598.773 685.717 600.644 686.751 603.585C687.24 604.982 686.22 606.4 687.203 607.789C688.135 609.101 687.692 608.472 688.429 610.088C689.742 612.966 696.892 619.913 699.684 621.516L713.684 667.614C712.122 666.995 712.675 667.069 711.24 666.945C707.622 666.627 704.602 665.998 701.119 665.072C694.313 657.601 693.712 645.784 691.042 636.585C689.663 631.834 687.217 627.231 686.194 622.387C685.937 621.175 685.827 620.21 685.073 619.151C684.285 618.046 684.488 617.278 684.409 615.942C683.686 612.982 681.895 610.099 681.722 607.017C681.53 603.548 683.861 598.826 685.11 595.548Z" fill="#221224"/>
<path d="M703.319 515.213L712.554 449.922C731.532 455.274 751.425 458.065 770.262 463.893C776.228 465.739 781.791 468.715 787.684 470.813L810.354 481.062C821.185 485.657 828.75 491.012 838.214 497.448C843.962 501.361 850.488 504.493 855.912 508.789C863.669 514.935 868.554 521.906 874.492 529.376C879.591 535.792 885.921 542.043 890.402 548.786C894.698 555.252 897.591 562.384 900.433 569.482L899.461 570.511L898.08 567.416L896.984 566.379C896.975 564.035 896.331 562.673 894.752 560.892C894.128 560.186 893.611 559.659 893.167 558.823L892.012 556.556L891.461 558.117C893.362 561.514 893.941 564.81 895.512 568.239C896.111 569.551 895.571 570.665 895.323 572.056C891.902 566.051 891.116 558.932 887.407 553.017C884.424 548.263 880.608 543.921 877.432 539.263C869.118 527.062 862.257 517.223 849.881 508.001C845.171 504.493 839.595 502.03 834.696 498.744C828.289 494.443 821.538 489.035 814.47 485.747C807.198 482.363 799.023 480.467 791.517 477.475C780.754 473.186 771.463 468.276 760.033 465.274L715.662 454.485C709.865 475.398 708.842 499.345 706.735 520.884L704.72 519.855L703.319 515.213Z" fill="#9C0138"/>
<path d="M706.735 520.885C708.842 499.345 709.865 475.398 715.662 454.486L760.033 465.274L759.592 472.872L760.279 473.078L762.33 473.779C763.378 474.147 764.313 474.351 765.409 474.528L768.248 477.803L722.975 465.47L715.845 566.972C713.741 560.845 714.848 553.663 714.379 547.266C714.176 544.464 712.921 541.276 713.492 538.546L713.797 537.448L712.153 534.864L712.13 534.348L711.037 535.887L707.452 533.827C707.367 536.967 707.102 539.856 706.407 542.938L706.206 543.808L705.955 533.144L703.59 532.567L702.537 524.795L703.319 515.213L704.72 519.856L706.735 520.885Z" fill="#ED3B76"/>
<path d="M703.319 515.213L704.72 519.856L706.735 520.885L705.955 533.144L703.59 532.567L702.537 524.795L703.319 515.213Z" fill="#A70022"/>
<path d="M691.638 537.808L704.944 438.673L722.817 442.044L728.586 443.147L795.305 463.327L795.218 463.821C793.749 464.015 790.726 464.811 789.387 464.583C787.958 464.34 787.051 462.427 785.147 462.205C782.983 461.951 781.548 461.372 780.008 459.943C778.274 459.708 776.731 459.866 775.488 458.71C774.291 457.597 773.257 457.398 771.731 456.843L769.799 456.067L768.409 456.843C767.988 458.438 768.265 458.612 766.796 459.644C765.494 460.559 765.971 460.155 765.109 460.977L766.655 461.202C767.886 461.387 768.892 461.708 770.076 462.009L771.076 462.205C776.825 463.549 782.514 466.999 787.876 469.403L787.684 470.813C781.791 468.716 776.229 465.739 770.262 463.893C751.425 458.065 731.532 455.274 712.554 449.922L703.319 515.213L702.537 524.795L701.534 533.908L701.345 534.89C699.517 545.287 700.274 556.845 700.138 567.411C698.847 565.292 699.407 561.871 699.407 559.421C699.407 551.924 699.421 544.427 699.452 536.932C697.799 538.469 697.847 539.908 696.443 541.223C695.313 542.284 695.748 542.689 695.031 543.644L693.935 544.681C693.918 551.85 693.46 559.271 694.203 566.382L693.935 574.133H693.344C693.017 568.773 693.209 562.71 691.717 557.546C690.189 552.855 691.644 543.046 691.638 537.808Z" fill="url(#paint18_linear_14_892)"/>
<path d="M715.845 566.972L722.975 465.47L768.248 477.803C802.554 490.038 837.225 505.47 860.971 532.655C873.195 546.647 882.5 564.146 890.356 580.58C899.913 600.57 906.908 622.109 911.908 643.487C913.388 649.813 915.609 657.059 915.795 663.503C915.953 668.916 912.939 676.503 910.851 681.635C900.399 707.341 884.167 740.04 855.516 751.754C842.168 757.209 827.945 755.931 814.696 750.865C778.599 737.064 752.462 694.786 738.411 662.707C724.761 631.551 717.687 600.641 715.845 566.972Z" fill="white"/>
</g>
<defs>
<linearGradient id="paint0_linear_14_892" x1="648.14" y1="462.528" x2="627.342" y2="454.906" gradientUnits="userSpaceOnUse">
<stop stop-color="#626474"/>
<stop offset="1" stop-color="#6B7985"/>
</linearGradient>
<linearGradient id="paint1_linear_14_892" x1="1274.93" y1="451.16" x2="1258.66" y2="452.526" gradientUnits="userSpaceOnUse">
<stop stop-color="#333235"/>
<stop offset="1" stop-color="#53535B"/>
</linearGradient>
<linearGradient id="paint2_linear_14_892" x1="783.87" y1="765.312" x2="749.207" y2="781.929" gradientUnits="userSpaceOnUse">
<stop stop-color="#020009"/>
<stop offset="1" stop-color="#22242F"/>
</linearGradient>
<linearGradient id="paint3_linear_14_892" x1="792.698" y1="777.712" x2="784.289" y2="779.586" gradientUnits="userSpaceOnUse">
<stop stop-color="#201A2A"/>
<stop offset="1" stop-color="#383443"/>
</linearGradient>
<linearGradient id="paint4_linear_14_892" x1="685.658" y1="567.932" x2="590.186" y2="517.664" gradientUnits="userSpaceOnUse">
<stop stop-color="#110B1C"/>
<stop offset="1" stop-color="#2D3246"/>
</linearGradient>
<linearGradient id="paint5_linear_14_892" x1="670.208" y1="354.02" x2="686.307" y2="333.587" gradientUnits="userSpaceOnUse">
<stop stop-color="#606D7E"/>
<stop offset="1" stop-color="#858A99"/>
</linearGradient>
<linearGradient id="paint6_linear_14_892" x1="1186.65" y1="349.888" x2="1102.7" y2="114.06" gradientUnits="userSpaceOnUse">
<stop stop-color="#08000C"/>
<stop offset="1" stop-color="#26283D"/>
</linearGradient>
<linearGradient id="paint7_linear_14_892" x1="1012.29" y1="162.842" x2="1010.85" y2="146.044" gradientUnits="userSpaceOnUse">
<stop stop-color="#2C2E42"/>
<stop offset="1" stop-color="#424A60"/>
</linearGradient>
<linearGradient id="paint8_linear_14_892" x1="1151.33" y1="251.714" x2="1166.53" y2="211.871" gradientUnits="userSpaceOnUse">
<stop stop-color="#0F0818"/>
<stop offset="1" stop-color="#2B2C3D"/>
</linearGradient>
<linearGradient id="paint9_linear_14_892" x1="866.633" y1="309.584" x2="812.042" y2="222.534" gradientUnits="userSpaceOnUse">
<stop stop-color="#19182A"/>
<stop offset="1" stop-color="#30354A"/>
</linearGradient>
<linearGradient id="paint10_linear_14_892" x1="724.281" y1="281.682" x2="712.278" y2="277.187" gradientUnits="userSpaceOnUse">
<stop stop-color="#3C445B"/>
<stop offset="1" stop-color="#555F71"/>
</linearGradient>
<linearGradient id="paint11_linear_14_892" x1="820.284" y1="230.013" x2="801.55" y2="197.786" gradientUnits="userSpaceOnUse">
<stop stop-color="#282A40"/>
<stop offset="1" stop-color="#3F4A5C"/>
</linearGradient>
<linearGradient id="paint12_linear_14_892" x1="1122.64" y1="887.253" x2="706.908" y2="599.667" gradientUnits="userSpaceOnUse">
<stop stop-color="#020206"/>
<stop offset="1" stop-color="#140920"/>
</linearGradient>
<linearGradient id="paint13_linear_14_892" x1="1013.4" y1="410.856" x2="1041.46" y2="375.965" gradientUnits="userSpaceOnUse">
<stop stop-color="#1C1423"/>
<stop offset="1" stop-color="#383141"/>
</linearGradient>
<linearGradient id="paint14_linear_14_892" x1="895.323" y1="424.292" x2="848.094" y2="345.833" gradientUnits="userSpaceOnUse">
<stop stop-color="#1A1424"/>
<stop offset="1" stop-color="#474151"/>
</linearGradient>
<linearGradient id="paint15_linear_14_892" x1="957.118" y1="973.022" x2="826.933" y2="1001.52" gradientUnits="userSpaceOnUse">
<stop/>
<stop offset="1" stop-color="#181628"/>
</linearGradient>
<linearGradient id="paint16_linear_14_892" x1="1035.47" y1="716.741" x2="1114.4" y2="443.989" gradientUnits="userSpaceOnUse">
<stop stop-color="white"/>
<stop offset="1" stop-color="#F2FFFD"/>
</linearGradient>
<linearGradient id="paint17_linear_14_892" x1="862.217" y1="771.513" x2="731.354" y2="472.552" gradientUnits="userSpaceOnUse">
<stop stop-color="#C30033"/>
<stop offset="1" stop-color="#E6296A"/>
</linearGradient>
<linearGradient id="paint18_linear_14_892" x1="767.316" y1="458.393" x2="723.341" y2="421.78" gradientUnits="userSpaceOnUse">
<stop stop-color="#E43973"/>
<stop offset="1" stop-color="#F5559E"/>
</linearGradient>
<clipPath id="clip0_14_892">
<rect width="1920" height="1080" fill="white"/>
</clipPath>
</defs>
</svg>
