<svg width="1920" height="1080" viewBox="0 0 1920 1080" fill="none" xmlns="http://www.w3.org/2000/svg">
<g clip-path="url(#clip0_14_1119)">
<path d="M732.083 283.352L748.594 265.005C747.267 268.923 744.472 272.625 743.334 276.383L743.319 280.451L741.522 282.575L736.025 282.274L735.337 283.594L732.083 283.352Z" fill="#878C9C"/>
<path d="M707.218 692.432L708.911 694.518L709.469 694.55L713.422 699.456L716.249 717.827C716.83 720.392 715.856 722.466 714.87 724.84L702.897 694.997L707.218 692.432Z" fill="#696C7B"/>
<path d="M713.422 699.456C716.937 703.778 725.179 713.892 724.711 719.248L721.827 721.398L722.407 722.695C723.159 724.105 725.407 727.43 725.399 728.854C726.586 730.866 732.41 738.558 732.546 740.107C731.762 743.538 731.184 746.463 731.632 749.993L733.563 753.501C733.652 756.157 734.759 758.696 734.811 760.871C734.852 762.59 734.777 764.028 735.482 765.638C736.456 767.866 735.979 771.022 735.924 773.423L714.87 724.84C715.856 722.466 716.83 720.392 716.249 717.826L713.422 699.456Z" fill="#5B5E6D"/>
<path d="M722.407 722.694C723.159 724.105 725.407 727.429 725.399 728.853L721.864 732.33L720.754 731.286C720.312 727.717 720.543 725.867 722.407 722.694Z" fill="#4F5365"/>
<path d="M721.864 732.33L725.398 728.854C726.586 730.866 732.41 738.558 732.545 740.107C731.762 743.538 731.184 746.463 731.632 749.993C731.115 748.694 730.681 747.435 729.797 746.301C726.358 741.898 725.659 736.865 721.864 732.33Z" fill="#4D4758"/>
<path d="M732.083 283.352L735.337 283.594C736.531 285.511 738.242 287.603 738.496 289.833L737.667 293.607L735.1 294.342C725.173 301.51 721.315 309.708 715.177 319.601C713.821 321.786 713.235 324.485 711.235 326.218C709.061 327.818 707.856 328.749 706.562 331.049C704.218 335.207 701.342 339.018 699.085 343.33C696.961 347.386 694.059 353.341 690.745 356.511L689.519 358.081C688.271 359.705 687.025 360.804 685.378 362.073C696.308 335.398 711.223 311.784 728.367 288.164L732.083 283.352Z" fill="#6E7A89"/>
<path d="M732.083 283.352L735.337 283.594C736.531 285.511 738.242 287.603 738.496 289.833C734.724 290.291 731.86 289.258 728.366 288.164L732.083 283.352Z" fill="#91929D"/>
<path d="M685.378 362.073C687.025 360.803 688.271 359.704 689.519 358.081L690.745 356.51C694.059 353.34 696.961 347.386 699.085 343.33C701.342 339.018 704.218 335.206 706.561 331.049C707.856 328.749 709.061 327.817 711.235 326.218C707.197 336.167 699.86 345.406 696.319 355.273L678.164 403.345C674.506 416.281 670.806 429.757 668.902 443.014C667.989 449.389 668.347 455.862 667.425 462.264C666.645 467.699 664.275 473.097 663.876 478.502C663.743 480.294 664.486 481.156 664.801 482.836C665.417 486.096 664.888 490.349 664.867 493.698C664.839 498.377 663.862 503.889 665.362 508.302C666.099 510.474 665.708 511.606 665.486 513.767C663.928 528.992 667.494 543.62 666.94 558.8L666.57 566.606C663.804 559.164 663.003 549.79 661.925 541.962C658.171 514.637 657.359 487.448 659.824 460.001L667.341 414.511L685.378 362.073Z" fill="#696C7B"/>
<path d="M667.341 414.511L671.769 416.829C670.246 425.44 667.694 434.308 667.049 442.953C666.2 440.031 665.951 434.558 667.613 431.889L665.908 433.449C665.908 435.743 665.214 435.873 664.781 437.609C663.911 441.087 665.081 450.326 662.521 452.684C662.483 456.626 662.434 456.89 659.824 460.001L667.341 414.511Z" fill="#6E7A89"/>
<path d="M685.378 362.073C687.025 360.803 688.271 359.704 689.519 358.081L690.745 356.51C694.059 353.34 696.961 347.386 699.085 343.33C701.342 339.018 704.218 335.206 706.561 331.049C707.856 328.749 709.061 327.817 711.235 326.218C707.197 336.167 699.86 345.406 696.319 355.273C692.86 360.117 691.398 365.618 688.135 370.327C685.427 374.234 684.167 380.311 682.583 384.764C678.748 395.546 674.734 405.762 671.769 416.829L667.341 414.511L685.378 362.073Z" fill="#727C89"/>
<path d="M1209.3 783.878C1209.94 781.257 1223.99 770.89 1226.92 768.137C1236.54 759.074 1243.95 746.908 1252.25 736.727L1254.13 737.278C1244.42 764.443 1232.92 791.113 1220.85 817.455C1215.65 828.805 1210.93 840.742 1204.77 851.679L1200.74 848.099C1198.72 843.612 1199.95 838.592 1200.55 833.878C1201.57 825.84 1202.88 817.551 1204.97 809.683C1207.04 801.839 1210.22 793.868 1211.45 785.912L1209.3 783.878Z" fill="#1A181F"/>
<path d="M678.164 403.345L682.71 397.998C679.505 407.08 675.699 417.862 673.841 427.21C669.916 446.97 668.122 467.997 667.541 488.034C667.367 494.103 665.934 499.687 667.549 505.724C669.332 510.028 668.104 511.79 668.65 515.833C670.595 530.24 668.012 552.646 675.956 565.313L675.566 566.287C674.208 569.622 669.815 573.617 671.006 576.926L672.693 577.44C674.364 575.51 676.404 573.54 677.878 571.504C679.358 569.463 679.621 566.564 681.424 564.139C681.803 568.954 681.577 573.868 682.863 578.488C683.667 581.363 683.436 585.281 683.993 588.366L684.066 590.218C684.115 591.9 684.464 592.537 685.123 594.086C686.346 596.96 687.016 600.034 687.485 603.077C687.672 604.312 688.149 605.371 688.51 606.561C689.256 609.02 688.82 612.55 690.242 614.62C691.406 616.316 691.019 619.041 691.895 621.118L693.678 626.832C694.542 630.151 695.634 633.353 696.175 636.744C698.021 648.291 706.154 661.633 705.443 673.103L707.689 675.147C710.099 673.425 711.755 671.785 713.581 669.541L717.072 671.719C715.535 675.099 713.948 680.819 711.671 683.539L710.518 680.896L709.937 681.42L708.645 682.389C706.983 683.661 705.865 685.139 704.671 686.773L700.102 687.361L696.149 674.119C690.424 663.204 686.623 648.812 683.959 636.923C680.427 633.779 667.896 575.334 666.57 566.607L666.94 558.8C667.494 543.621 663.928 528.992 665.486 513.767C665.708 511.606 666.099 510.475 665.362 508.303C663.862 503.89 664.838 498.377 664.867 493.698C664.888 490.35 665.417 486.097 664.801 482.836C664.486 481.156 663.743 480.294 663.876 478.503C664.275 473.097 666.645 467.699 667.425 462.264C668.347 455.863 667.989 449.389 668.902 443.015C670.806 429.757 674.506 416.281 678.164 403.345Z" fill="#5B5E6D"/>
<path d="M683.959 636.922C687.037 638.022 688.432 638.24 689.638 641.391C690.351 643.252 690.244 645.158 691.4 646.848C692.444 648.373 692.028 650.635 692.727 652.451C694.062 655.913 692.241 658.628 694.143 662.187C696.25 666.132 696.354 669.855 696.149 674.119C690.424 663.204 686.623 648.812 683.959 636.922Z" fill="#5E6275"/>
<path d="M1271.07 371.043L1271.34 370.447C1272.85 367.615 1274.49 365.946 1277.64 364.892C1285.37 385.52 1293.39 405.876 1297.39 427.494C1304.94 462.666 1307.6 498.601 1304.99 534.403C1303.61 553.272 1300.24 571.914 1297.13 590.585C1294.77 575.968 1297.4 559.638 1297.29 544.791C1297.09 519.735 1294.69 493.861 1291.12 469.04C1290.65 465.815 1290.86 464.462 1287.62 462.535C1284.13 460.451 1272.47 464.218 1268.07 465.298L1264.61 465.86L1263.07 455.477L1258.01 397.83L1256.94 394.998C1260.94 390.138 1263.4 382.882 1266.77 377.405L1271.07 371.043Z" fill="#100918"/>
<path d="M1266.53 451.386L1268.07 465.298L1264.61 465.86L1263.07 455.477L1266.53 451.386Z" fill="#313547"/>
<path d="M1271.07 371.043C1273.88 373.457 1274.29 375.224 1275.17 378.599C1275.6 380.266 1276.27 381.061 1277.21 382.504L1280.17 388.448L1280.16 389.789L1278.63 390.295L1277.79 393.409C1276.75 391.865 1275.67 390.691 1274.02 389.677L1273.28 389.262V385.102L1271.3 386.361L1268.9 378.344L1266.77 377.404L1271.07 371.043Z" fill="#1A181F"/>
<path d="M1258.01 397.83L1259.64 397.114L1260.95 397.58L1266.53 451.386L1263.07 455.477L1258.01 397.83Z" fill="#383740"/>
<path d="M1271.07 371.043L1271.34 370.447C1272.85 367.615 1274.49 365.946 1277.64 364.892C1285.37 385.52 1293.39 405.876 1297.39 427.494C1296.69 426.882 1294.41 425.304 1294.09 424.612C1293.44 423.188 1293.49 420.492 1293.03 418.889C1291.8 414.588 1290.18 410.207 1289.09 405.898L1286.51 397.221L1286.26 396.015L1283.99 395.499C1285.13 397.934 1283.85 397.351 1283.99 399.14C1284.01 399.268 1285.05 400.481 1285.12 400.699C1285.78 402.501 1285.12 406.933 1285.12 409.017L1283.99 409.824C1281.28 405.49 1283.93 401.032 1281.74 396.971L1281.19 396.02L1282.3 394.98C1282.4 392.345 1281.89 390.231 1281.19 387.703L1280.17 388.448L1277.21 382.504C1276.27 381.062 1275.6 380.266 1275.17 378.6C1274.29 375.225 1273.88 373.457 1271.07 371.043Z" fill="#383740"/>
<path d="M735.1 294.342C735.987 295.311 736.912 296.101 737.383 297.31L737.565 312.388C737.1 317.583 737.47 325.305 735.453 330.077C730.057 401.57 711.604 472.013 686.227 539.564C684.771 545.678 681.768 551.009 679.678 556.899L675.956 565.313C668.012 552.646 670.595 530.24 668.65 515.832C668.104 511.789 669.332 510.027 667.549 505.723C665.934 499.687 667.367 494.103 667.541 488.034C668.121 467.997 669.916 446.97 673.841 427.21C675.699 417.862 679.505 407.079 682.71 397.998L678.164 403.345L696.319 355.273C699.859 345.406 707.197 336.167 711.234 326.218C713.234 324.485 713.821 321.786 715.176 319.601C721.315 309.708 725.173 301.51 735.1 294.342Z" fill="url(#paint0_linear_14_1119)"/>
<path d="M678.086 461.295C679.895 464.752 680.534 466.964 679.144 470.677L678.326 472.439C679.014 476.677 680.577 477.31 679.456 481.795C678.303 482.551 677.43 482.99 676.069 483.355C676.072 485.215 675.517 489.628 676.835 490.834C677.618 491.55 678.364 492.12 679.251 492.713C679.291 498.689 679.141 504.526 680.124 510.387C680.274 511.286 679.855 512.591 679.684 513.458C679.283 515.526 679.421 517.656 679.468 519.745L680.583 520.786C680.583 522.079 679.606 524.829 679.988 525.268C680.45 525.806 680.693 526.487 681.161 527.022L682.777 528.063L683.97 538.981L682.843 540.019L683.135 544.185L683.346 543.429C683.863 541.621 683.993 540.841 685.349 539.364L686.227 539.564C684.771 545.678 681.768 551.009 679.679 556.899L676.829 557.972C678.231 548.752 676.063 537.972 675.477 528.664C674.503 513.189 674.095 497.339 674.11 481.795C675.76 480.637 676.803 479.849 677.794 478.157C677.407 477.568 676.893 476.876 676.633 476.206C674.91 471.742 676.133 465.474 678.086 461.295Z" fill="#383740"/>
<path d="M676.829 557.972L674.919 555.843C674.049 542.508 674.092 529.261 673.491 515.95C673.289 511.473 671.454 507.238 671.069 502.724C670.315 493.895 671.948 485.822 672.682 477.116C673.011 473.201 672.667 469.2 673.19 465.304C673.696 461.535 676.612 459.176 677.208 455.815C677.919 451.817 676.722 447.603 677.523 443.603C682.398 419.278 689.568 396.225 699.238 373.151C700.955 369.05 703.501 362.978 706.703 359.84C706.596 362.105 706.154 367.391 704.926 369.084C701.986 373.149 701.833 378.722 699.793 383.204C698.874 385.219 696.423 385.166 696.397 387.024C696.328 392.118 693.9 396.007 692.363 400.763C691.765 402.613 692.198 401.86 690.756 403.297L691.895 404.857C690.678 409.27 687.912 412.807 686.817 417.125C684.967 424.423 685.987 431.45 682.863 438.647C680.762 443.497 681.126 448.719 680.063 453.723C679.566 456.07 677.682 458.995 678.086 461.295C676.133 465.474 674.91 471.742 676.633 476.206C676.893 476.876 677.407 477.568 677.794 478.157C676.803 479.85 675.76 480.637 674.109 481.795C674.095 497.339 674.503 513.19 675.477 528.664C676.063 537.972 678.231 548.752 676.829 557.972Z" fill="#434251"/>
<path d="M667.549 505.723L677.002 431.327C677.497 425.277 680.375 419.349 682.057 413.488C687.551 394.367 693.551 375.267 703.342 357.551C707.665 349.728 713.084 341.884 716.593 333.718C718.309 329.728 721.035 325.355 723.494 321.69H726.317C728.881 319.907 731.034 317.911 733.271 315.792L733.577 319.598C731.728 321.382 728.991 324.866 726.312 325.313C724.864 326.934 724.728 327.596 724.052 329.473C723.329 331.477 722.02 334.291 720.942 336.135C719.907 337.908 719.734 339.457 719.581 341.434L717.561 343.143C715.33 345.214 715.838 348.68 713.324 350.271L713.078 351.557C712.307 355.02 709.515 357.633 706.703 359.84C703.501 362.978 700.955 369.049 699.238 373.151C689.568 396.225 682.398 419.278 677.523 443.603C676.722 447.603 677.919 451.816 677.208 455.814C676.612 459.176 673.696 461.534 673.191 465.303C672.667 469.2 673.011 473.2 672.682 477.116C671.948 485.822 670.315 493.895 671.069 502.724C671.454 507.238 673.289 511.472 673.491 515.949C674.092 529.26 674.049 542.507 674.919 555.842L676.829 557.972L679.679 556.899L675.956 565.313C668.012 552.646 670.595 530.24 668.65 515.832C668.104 511.789 669.332 510.027 667.549 505.723Z" fill="#4A4C5B"/>
<path d="M735.1 294.342C735.987 295.311 736.912 296.101 737.383 297.31L737.565 312.388C737.1 317.583 737.47 325.305 735.453 330.077L735.065 308.158C735.031 310.283 735.32 313.053 733.99 314.893L733.271 315.792C731.034 317.911 728.881 319.907 726.317 321.69H723.494C721.034 325.356 718.309 329.729 716.592 333.718C713.084 341.884 707.665 349.728 703.342 357.551C693.551 375.267 687.551 394.367 682.057 413.489C680.375 419.35 677.497 425.277 677.002 431.327L667.549 505.723C665.934 499.687 667.367 494.103 667.541 488.034C668.121 467.997 669.916 446.97 673.841 427.21C675.699 417.862 679.505 407.079 682.71 397.998L678.164 403.345L696.319 355.273C699.859 345.406 707.197 336.167 711.234 326.218C713.234 324.485 713.821 321.786 715.176 319.601C721.315 309.708 725.173 301.51 735.1 294.342Z" fill="#4F5365"/>
<path d="M735.1 294.342C735.987 295.311 736.912 296.101 737.383 297.31C732.048 301.134 727.953 309.894 725.8 315.707L724.607 318.56L720.653 319.601L720.338 320.179C717.304 325.534 713.266 329.473 710.636 335.196C706.709 343.75 701.666 351.749 697.626 360.149C691.791 372.275 688.086 385.6 682.71 397.998L678.164 403.345L696.319 355.273C699.859 345.406 707.197 336.167 711.235 326.218C713.234 324.485 713.821 321.786 715.177 319.601C721.315 309.708 725.173 301.51 735.1 294.342Z" fill="#5E6275"/>
<path d="M961.419 157.875C981.661 155.719 1009.72 155.089 1029.37 160.963L1027.13 161.602C1029.12 162.946 1030.94 163.875 1031.47 166.265C1032.23 169.754 1032.52 175.001 1032.18 178.541C1024.24 175.599 1015.06 175.815 1006.63 174.372C965.396 209.083 919.011 240.632 867.133 260.472C836.77 272.085 804.33 278.933 772.014 283.903L776.19 280.565L773.109 280.783L757.79 283.309C754.027 283.879 750.527 284.009 746.727 283.631L743.319 280.45L743.334 276.383C744.472 272.625 747.267 268.923 748.594 265.005C750.481 261.108 756.301 256.469 759.515 253.272C784.779 228.151 817.465 202.788 851.449 188.402C884.357 171.362 923.589 159.542 961.419 157.875Z" fill="#313547"/>
<path d="M757.79 283.309L757.056 280.61C764.968 271.031 775.214 262.072 785.204 254.332C785.84 257.616 784.17 259.208 782.199 261.896C783.751 261.364 784.479 260.959 785.583 259.817L786.701 260.855C785.791 261.904 785.112 263.147 783.765 263.562C782.193 264.047 781.043 265.476 779.939 266.565L778.812 265.524C777.017 266.36 776.806 267.882 776.19 269.594L775.982 270.208L773.156 271.773L773.032 272.407C772.439 274.054 767.35 278.864 765.561 279.418L764.694 279.567C762.98 279.873 760.876 279.939 759.619 281.143L762.564 280.328C763.703 280.03 764.665 280.059 765.827 280.091L766.957 279.317L767.737 279.7C769.442 280.395 771.28 280.546 773.11 280.783L757.79 283.309Z" fill="#4A4C5B"/>
<path d="M961.419 157.875C981.661 155.719 1009.72 155.089 1029.37 160.963L1027.13 161.602C1029.12 162.946 1030.94 163.875 1031.47 166.265C1032.23 169.754 1032.52 175.001 1032.18 178.541C1024.24 175.599 1015.06 175.815 1006.63 174.372C965.396 209.083 919.011 240.632 867.133 260.472C836.77 272.085 804.33 278.933 772.014 283.903L776.19 280.565C805.365 275.361 833.909 269.232 861.743 259.426C911.829 241.779 959.613 210.997 998.067 176.925C993.853 173.731 985.972 175.219 980.533 175.727C971.207 176.6 962.066 178.839 952.651 178.2C950.579 180.518 935.484 182.059 931.169 182.48L928.95 182.618L928.956 183.505C923.3 184.511 917.76 186.619 912.012 186.518C910.413 187.359 909.7 188.216 908.636 189.581L907.506 188.586L906.833 188.799L902.983 189.895L902.989 191.141L902.107 191.226C899.483 191.495 897.848 191.971 895.403 192.9C884.785 196.93 874.566 201.641 864.038 205.745C856.726 208.599 847.854 216.895 839.762 217.71L839.201 219.064L837.649 219.586C835.395 220.371 834.198 221.33 832.525 222.903C831.25 224.103 830.331 224.444 828.742 225.13C827.216 225.793 826.092 226.501 825.156 227.792C823.381 230.238 818.812 232.604 816.182 234.326C810.919 237.771 805.96 241.13 801.388 245.375L800.249 244.742C798.365 245.894 796.255 245.287 795.053 246.442C793.446 247.989 792.761 248.641 790.658 249.415L787.831 250.981L789.53 251.76V252.535C787.366 252.95 786.834 253.001 785.204 254.332C775.213 262.072 764.968 271.031 757.056 280.61L757.79 283.309C754.027 283.879 750.527 284.009 746.727 283.631L743.319 280.45L743.334 276.383C744.472 272.625 747.267 268.923 748.594 265.005C750.481 261.108 756.301 256.469 759.515 253.272C784.779 228.151 817.465 202.788 851.449 188.402C884.357 171.362 923.589 159.542 961.419 157.875Z" fill="#6E7A89"/>
<path d="M1006.63 174.373L1017 164.684C1020.78 161.392 1022.09 161.567 1027.13 161.602C1029.12 162.946 1030.94 163.875 1031.47 166.265C1032.23 169.754 1032.52 175.001 1032.18 178.541C1024.24 175.6 1015.06 175.815 1006.63 174.373Z" fill="#4F5365"/>
<path d="M851.449 188.402C884.357 171.362 923.589 159.542 961.419 157.875C959.058 159.063 957.726 159.736 954.919 159.494L954.266 159.989C952.922 160.795 951.665 160.708 950.122 160.785L952.668 161.304C947.868 162.416 942.354 162.049 937.987 163.654L888.886 176.733C880.328 179.02 869.82 183.526 862.535 188.211C843.646 197.042 827.089 207.649 809.856 218.958C800.192 225.301 790.004 231.492 781.6 239.011C768.295 250.906 757.344 265.308 743.334 276.384C744.472 272.625 747.267 268.923 748.594 265.005C750.481 261.108 756.301 256.469 759.515 253.272C784.779 228.151 817.465 202.788 851.449 188.402Z" fill="#727C89"/>
<path d="M746.727 283.631C747.362 279.995 750.278 277.621 752.801 274.803C759.298 267.542 766.315 260.281 773.453 253.557C793.816 234.367 818.595 217.952 843.648 204.588C858.931 196.438 874.048 188.152 890.573 182.248C895.879 180.353 901.573 179.371 907.023 177.835C918.774 174.524 930.435 171.248 942.57 169.31C965.228 165.693 987.654 165.56 1010.54 165.363C1006.6 169.366 1002.77 173.654 998.067 176.925C993.853 173.731 985.972 175.219 980.533 175.727C971.207 176.6 962.066 178.839 952.651 178.2C950.578 180.518 935.484 182.059 931.169 182.48L928.95 182.618L928.955 183.505C923.3 184.511 917.76 186.619 912.011 186.518C910.413 187.359 909.699 188.216 908.636 189.581L907.506 188.586L906.833 188.799L902.983 189.895L902.989 191.141L902.107 191.226C899.483 191.495 897.848 191.971 895.403 192.9C884.785 196.93 874.566 201.641 864.037 205.746C856.726 208.599 847.853 216.895 839.761 217.71L839.201 219.065L837.649 219.586C835.395 220.371 834.198 221.33 832.525 222.903C831.25 224.103 830.331 224.444 828.742 225.131C827.216 225.793 826.092 226.501 825.155 227.792C823.381 230.238 818.812 232.604 816.182 234.327C810.919 237.771 805.96 241.13 801.388 245.375L800.249 244.742C798.365 245.894 796.255 245.287 795.053 246.442C793.446 247.989 792.761 248.641 790.657 249.416L787.831 250.981L789.53 251.761V252.535C787.366 252.95 786.834 253.001 785.204 254.332C775.213 262.072 764.968 271.031 757.055 280.61L757.789 283.309C754.027 283.879 750.527 284.009 746.727 283.631Z" fill="#4F5365"/>
<path d="M709.469 694.55L710.084 693.895C712.876 691.338 724.375 692.389 728.56 692.392L784.851 693.77C803.608 730.059 824.207 761.994 861.162 784.994L861.249 785.779C862.069 792.05 865.35 798.022 866.985 804.2C871.176 820.029 874.722 836.239 876.592 852.454C878.505 869.028 878.817 885.772 878.791 902.426C878.785 905.386 879.571 911.117 878.759 913.733C878.17 915.631 873.56 919.214 873.554 920.88L876.132 921.079L875.754 921.865L873.398 927.167C865.806 936.727 855.726 947.118 849.911 957.464C851.336 958.798 852.55 959.341 854.411 960.065L852.876 960.275C851.405 960.488 850.177 960.829 848.796 961.364C851.57 963.709 853.865 966.495 856.235 969.237C857.365 970.544 857.708 973.464 858.133 975.095C853.376 971.228 849.46 965.955 845.651 961.284C837.363 951.119 829.722 940.563 822.543 929.708L769.182 840.093L767.853 837.005C764.017 832.56 761.411 825.52 758.717 820.351C750.663 804.879 743.288 789.18 735.924 773.423C735.979 771.022 736.456 767.866 735.482 765.638C734.777 764.028 734.852 762.59 734.811 760.871C734.759 758.696 733.652 756.157 733.563 753.501L731.632 749.993C731.184 746.463 731.762 743.538 732.545 740.107C732.41 738.558 726.586 730.866 725.398 728.854C725.407 727.43 723.159 724.105 722.407 722.695L721.826 721.398L724.711 719.248C725.179 713.893 716.936 703.778 713.422 699.456L709.469 694.55Z" fill="#100918"/>
<path d="M873.554 920.879L876.132 921.079L875.754 921.864L873.398 927.166C865.806 936.727 855.726 947.118 849.911 957.464C851.336 958.797 852.55 959.34 854.411 960.064L852.876 960.275C851.405 960.488 850.177 960.828 848.796 961.363C851.57 963.708 853.865 966.495 856.235 969.237C857.365 970.543 857.708 973.463 858.133 975.095C853.376 971.227 849.46 965.955 845.651 961.283C837.363 951.119 829.722 940.562 822.543 929.708L824.343 928.353C828.025 932.104 833.828 939.995 836.184 944.566C836.643 945.455 836.924 946.04 837.62 946.809C840.597 950.11 842.472 954.675 845.981 957.464L848.802 955.385C848.825 952.295 851.966 952.665 852.472 949.407C851.113 950.081 850.408 950.796 849.472 951.893C848.643 952.865 848.221 953.32 847.114 954.086L846.556 952.785L845.426 951.747L847.111 947.068C845.648 945.723 846.302 946.418 845.134 944.994L847.111 943.482L850.411 946.205L852.189 946.112L873.554 920.879Z" fill="#383740"/>
<path d="M709.469 694.55L710.084 693.895C712.876 691.338 724.375 692.389 728.56 692.392C725.615 699.911 732.855 708.857 734.459 716.466C735.878 723.19 743.305 724.55 742.686 733.416L744.374 733.932C745.715 738.233 746.888 742.974 749.183 746.924C747.186 746.924 747.047 746.429 745.507 745.364C745.027 746.668 744.689 747.177 745.501 748.489L747.189 750.562C747.201 752.785 747.036 751.901 748.319 753.682L748.888 754.981L750.605 758.047C751.333 759.458 751.368 760.887 751.429 762.423L749.212 762.069L747.227 762.58C741.111 756.104 737.184 747.528 732.545 740.107C732.41 738.558 726.586 730.866 725.398 728.854C725.407 727.43 723.159 724.105 722.407 722.695L721.826 721.398L724.711 719.248C725.179 713.893 716.936 703.778 713.422 699.456L709.469 694.55Z" fill="#262533"/>
<path d="M722.407 722.694L721.826 721.398L724.711 719.248C729.384 726.218 733.352 733.53 737.669 740.685C741.866 747.645 746.623 754.403 749.212 762.068L747.227 762.579C741.111 756.104 737.184 747.528 732.545 740.107C732.41 738.558 726.586 730.866 725.398 728.853C725.407 727.429 723.159 724.105 722.407 722.694Z" fill="#696C7B"/>
<path d="M769.182 840.093L770.04 831.139C770.731 828.554 771.919 827.247 774.295 825.986C776.02 827.271 777.312 827.418 779.433 827.671L780.228 827.758C784.973 838.53 786.785 852.15 793.444 861.812C793.461 863.175 793.126 864.915 793.938 866.039C794.88 867.345 796.172 870.923 797.438 871.7C797.617 871.809 799.169 872.123 799.273 872.214C801.264 873.989 802.877 883.196 804.567 886.243C809.333 894.846 814.847 903.259 819.945 911.718L819.451 912.756C817.474 912.224 815.532 910.693 814.37 909.118C813.706 908.215 813.94 908.271 813.523 907.3L809.449 899.616C807.85 896.374 805.457 893.555 803.822 890.241C802.66 887.883 800.963 886.046 798.568 884.686C798.55 887.468 799.776 888.78 801.377 890.923L811.05 906.866C812.07 908.279 810.992 906.746 812.107 908.859L813.168 910.321C815.52 913.48 816.948 916.959 819.439 920.036C820.604 921.473 821.491 922.815 822.269 924.454L824.344 928.354L822.543 929.708L769.182 840.093Z" fill="#434251"/>
<path d="M732.545 740.107C737.184 747.528 741.111 756.104 747.227 762.579L749.212 762.068L751.429 762.422L753.053 768.243C758.489 778.219 764.708 788.145 769.546 798.344C773.919 807.564 777.106 818.112 780.228 827.758L779.433 827.67C777.311 827.418 776.02 827.271 774.294 825.986C771.919 827.247 770.731 828.554 770.04 831.139L769.182 840.092L767.853 837.005C764.017 832.56 761.411 825.52 758.717 820.351C750.663 804.879 743.288 789.18 735.924 773.423C735.979 771.022 736.456 767.865 735.482 765.638C734.777 764.027 734.852 762.59 734.811 760.871C734.759 758.696 733.652 756.157 733.563 753.5L731.632 749.992C731.184 746.463 731.762 743.538 732.545 740.107Z" fill="#4F5365"/>
<path d="M758.651 805.35L766.364 806.598L765.275 808.267C766.491 811.083 768.104 813.455 766.541 816.492C766.055 817.437 765.645 817.793 764.951 818.533C763.286 813.987 760.87 809.683 758.651 805.35Z" fill="#383740"/>
<path d="M732.545 740.107C737.184 747.528 741.111 756.104 747.227 762.579L749.212 762.068L751.429 762.422L753.053 768.243C752.038 770.045 751.171 771.523 750.906 773.58L749.348 775.031C750.365 778.776 751.466 782.337 751.501 786.226C750.417 784.371 749.299 782.587 748.937 780.479C747.836 774.038 743.617 772.217 739.788 767.277C737.112 763.822 735.982 757.589 733.563 753.5L731.632 749.992C731.184 746.463 731.762 743.538 732.545 740.107Z" fill="#434251"/>
<path d="M753.053 768.244C758.489 778.22 764.708 788.145 769.546 798.344C773.919 807.564 777.106 818.113 780.228 827.758L779.433 827.671C777.312 827.418 776.02 827.271 774.294 825.986C771.919 827.247 770.731 828.554 770.04 831.139L769.182 840.093L767.853 837.005C768.023 835.757 768.439 834.176 767.933 832.949L767.512 832.18L766.382 829.579C765.023 827.751 765.263 828.259 765.252 825.941C767.006 826.904 766.139 826.598 767.801 826.981C765.954 824.035 764.364 822.055 764.951 818.533C765.645 817.793 766.055 817.437 766.541 816.492C768.104 813.455 766.491 811.083 765.275 808.267L766.364 806.598L758.651 805.35L751.501 786.226C751.466 782.337 750.365 778.776 749.348 775.031L750.906 773.58C751.171 771.523 752.039 770.046 753.053 768.244Z" fill="#4D4758"/>
<path d="M750.906 773.58C753.83 780.889 757.269 788.006 760.847 795.062C762.703 798.714 765.682 802.648 766.364 806.598L758.651 805.35L751.501 786.226C751.466 782.337 750.365 778.776 749.348 775.031L750.906 773.58Z" fill="#313547"/>
<path d="M1172.3 905.293L1176.63 906.69C1152.54 953.203 1129.16 1007.7 1072.04 1026.58C1026.85 1041.52 964.41 1039.81 920.858 1020.71C897.206 1010.33 874.32 994.318 858.136 975.196L858.133 975.095C857.708 973.464 857.365 970.544 856.235 969.237C853.865 966.495 851.57 963.709 848.796 961.364C850.177 960.829 851.405 960.488 852.876 960.275L854.411 960.065C852.55 959.341 851.336 958.798 849.911 957.464C855.726 947.118 865.806 936.727 873.398 927.167L883.84 916.145L884.837 916.435C897.651 919.884 913.722 918.122 927.271 919.969C958.864 924.276 989.498 941.566 1011.35 962.612C1018.95 969.937 1025.02 978.42 1032.51 985.784C1034.27 987.589 1038.19 990.621 1039.23 992.665C1039.9 993.977 1039.57 998.356 1039.63 999.905C1039.95 1009.46 1038.39 1019.19 1039.33 1028.69L1041.28 1029.25C1045.45 1026.11 1044.54 1005.34 1044.71 1000.01C1044.76 998.68 1044.41 995.374 1044.9 994.225C1045.87 991.949 1052.23 987.592 1054.26 985.51C1062.98 976.546 1070.77 966.911 1079.6 958.005C1094.75 942.351 1110.56 930.454 1130.27 919.927C1134.96 917.422 1140.25 914.026 1145.32 912.357C1149.16 911.095 1153.52 910.981 1157.51 910.177C1162.73 909.121 1167.45 907.321 1172.3 905.293Z" fill="#020206"/>
<path d="M738.496 289.833C741.614 289.239 744.496 289.17 747.672 289.162C749.516 294.962 753.804 299.652 757.651 304.437C757.807 305.547 757.957 306.388 757.769 307.506L755.524 308.608C765.064 320.969 775.237 332.931 784.707 345.307C788.909 350.801 793.322 356.188 797.467 361.708C799.036 363.798 800.434 366.651 802.241 368.501L798.507 434.21C798.848 438.295 798.149 447.946 800.565 450.914L799.429 463.597L798.024 465.905L794.649 465.354L772.141 460.608C764.405 491.808 759.686 524.688 758.862 556.684L757.712 586.071L758.668 602.871L757.304 602.403C750.03 615.698 742.793 628.956 735.427 642.203C731.135 649.919 727.193 658.42 721.644 665.437L717.072 671.718L713.581 669.541C711.755 671.785 710.099 673.424 707.689 675.146L705.443 673.102C706.154 661.633 698.022 648.29 696.175 636.744C695.634 633.353 694.542 630.151 693.678 626.832L691.895 621.117C691.019 619.041 691.406 616.316 690.242 614.62C688.82 612.549 689.256 609.02 688.511 606.561C688.149 605.371 687.673 604.311 687.485 603.076C687.016 600.034 686.346 596.96 685.123 594.085C684.465 592.536 684.115 591.9 684.066 590.218L683.994 588.365C683.436 585.281 683.667 581.363 682.864 578.488C681.578 573.867 681.803 568.954 681.424 564.139C679.621 566.564 679.358 569.462 677.878 571.504C676.404 573.54 674.364 575.51 672.694 577.439L671.006 576.926C669.815 573.617 674.208 569.622 675.566 566.287L675.956 565.313L679.679 556.899C681.768 551.009 684.771 545.678 686.228 539.564C711.605 472.013 730.057 401.57 735.453 330.077C737.47 325.305 737.1 317.583 737.565 312.388L737.383 297.309C736.912 296.101 735.987 295.311 735.1 294.342L737.667 293.607L738.496 289.833Z" fill="url(#paint1_linear_14_1119)"/>
<path d="M795.732 457.348C797.816 459.448 798.594 460.869 799.429 463.597L798.024 465.905L794.649 465.354L795.732 457.348Z" fill="#4F5365"/>
<path d="M798.507 434.21C798.848 438.296 798.149 447.947 800.565 450.915L799.429 463.597C798.594 460.869 797.816 459.448 795.733 457.348C794.588 451.764 797.533 440.137 798.507 434.21Z" fill="#4D4758"/>
<path d="M738.496 289.833C741.614 289.239 744.496 289.17 747.672 289.162C749.515 294.962 753.804 299.652 757.651 304.437C757.807 305.547 757.957 306.388 757.769 307.506L755.524 308.608C752.969 305.409 749.53 301.906 747.819 298.278C747.305 297.184 746.932 296.631 746.073 295.744C742.623 298.393 743.027 301.903 742.316 305.891L741.834 306.796C739.73 310.98 739.522 314.552 739.311 319.082L739.224 318.23C738.978 316.005 738.733 314.405 737.565 312.388L737.383 297.309C736.912 296.101 735.987 295.311 735.1 294.342L737.666 293.607L738.496 289.833Z" fill="#696C7B"/>
<path d="M757.711 586.071L758.668 602.872L757.304 602.403C750.03 615.698 742.793 628.956 735.427 642.203C731.135 649.919 727.193 658.421 721.644 665.437L717.072 671.718L713.581 669.541L713.521 669.413L719.864 659.022C729.421 644.351 738.308 629.148 746.296 613.694C751.012 604.567 755.827 596.106 757.711 586.071Z" fill="#4D4758"/>
<path d="M737.565 312.388C738.733 314.405 738.979 316.005 739.224 318.23L739.311 319.082C739.522 314.552 739.73 310.98 741.834 306.796L742.317 305.891C741.99 317.437 739.993 328.917 738.742 340.407C731.008 411.442 712.755 481.116 686.701 548.275L681.424 564.139C679.621 566.564 679.358 569.462 677.878 571.504C676.404 573.54 674.364 575.509 672.694 577.439L671.006 576.926C669.815 573.617 674.208 569.622 675.566 566.287L675.956 565.313L679.679 556.899C681.768 551.009 684.771 545.678 686.228 539.564C711.605 472.013 730.057 401.57 735.453 330.077C737.47 325.305 737.1 317.583 737.565 312.388Z" fill="#5E6275"/>
<path d="M681.424 564.139L686.702 548.275C687.199 554.586 686.791 558.483 691.51 563.412L691.886 565.494L689.62 565.752L690.146 566.564C690.69 567.445 691.008 568.174 691.32 569.132L693.013 567.639L692.996 568.419L693.296 573.295L694.366 573.811L694.143 579.01L695.262 580.048C695.265 583.558 694.195 592.882 696.36 595.259C697.51 596.523 697.672 597.186 698.088 598.77L698.646 600.324L697.53 601.373C698.614 602.414 699.576 603.196 700.906 603.963L699.224 605.001V606.042L700.906 607.082L699.224 608.12V609.161L700.906 610.199C700.92 616.161 704.293 618.28 704.293 624.237L703.163 625.277L703.94 627.923C704.55 629.906 705.822 631.945 707.125 633.603L708.535 633.079L709.949 633.159C711.98 636.683 712.717 640.656 713.706 644.516L713.333 645.551L712.194 646.07C712.891 647.124 713.344 647.601 714.365 648.423C717.717 651.125 716.101 656.251 719.864 659.022L713.521 669.413L713.581 669.541C711.755 671.785 710.099 673.424 707.689 675.146L705.443 673.102C706.154 661.633 698.022 648.29 696.175 636.744C695.634 633.353 694.542 630.151 693.678 626.832L691.895 621.117C691.019 619.041 691.406 616.316 690.242 614.62C688.82 612.549 689.256 609.02 688.511 606.561C688.149 605.371 687.673 604.311 687.485 603.076C687.017 600.034 686.346 596.96 685.124 594.085C684.465 592.536 684.115 591.9 684.066 590.218L683.994 588.365C683.436 585.281 683.667 581.363 682.864 578.488C681.578 573.867 681.803 568.954 681.424 564.139Z" fill="#262533"/>
<path d="M1006.63 174.373C1015.06 175.815 1024.24 175.6 1032.18 178.541L1033.26 186.563L1036.82 250.451C1037.8 248.745 1037.89 246.15 1038.24 244.225C1040.01 243.658 1039.05 243.869 1041.13 243.656L1042.72 249.36L1043.66 252.735C1041.15 254.252 1037.4 255.91 1035.62 258.098L1009.06 284.51C1005.75 290.057 998.46 294.903 993.374 299.202C963.968 324.059 930.227 346.25 891.493 356.84C886.666 358.161 878.395 360.876 873.537 360.676C861.006 363.095 847.235 366.268 834.398 366.154C833.698 365.696 830.568 365.738 829.612 365.733L827.072 365.754C823.69 365.257 820.878 364.849 817.396 364.716C811.755 364.793 807.211 366.46 802.518 363.787L801.108 363.007C801.325 364.408 801.09 364.487 802.2 365.509C803.374 366.59 802.975 366.827 803.645 367.948L804.486 368.988L803.928 372.632L802.241 368.501C800.434 366.651 799.036 363.798 797.466 361.709C793.322 356.188 788.909 350.801 784.707 345.307C775.237 332.931 765.064 320.969 755.524 308.608L757.769 307.506C757.957 306.389 757.807 305.547 757.651 304.438C753.804 299.652 749.516 294.962 747.672 289.162C744.496 289.17 741.614 289.239 738.496 289.833C738.242 287.603 736.531 285.51 735.337 283.594L736.025 282.274L741.522 282.575L743.319 280.451L746.727 283.631C750.527 284.009 754.027 283.879 757.79 283.309L773.109 280.783L776.19 280.565L772.014 283.903C804.33 278.933 836.77 272.085 867.133 260.472C919.011 240.632 965.396 209.083 1006.63 174.373Z" fill="url(#paint2_linear_14_1119)"/>
<path d="M743.319 280.451L746.727 283.631C750.527 284.009 754.027 283.879 757.79 283.309L773.109 280.783L776.19 280.565L772.014 283.903C765.133 285.074 753.443 285.819 747.672 289.162C744.496 289.17 741.614 289.24 738.496 289.833C738.242 287.603 736.531 285.511 735.337 283.594L736.025 282.274L741.522 282.575L743.319 280.451Z" fill="#727C89"/>
<path d="M868.751 357.78L873.537 360.676C861.006 363.096 847.235 366.268 834.398 366.154C833.698 365.696 830.569 365.739 829.612 365.733L827.072 365.755C823.69 365.257 820.878 364.85 817.396 364.717L817.251 363.694C823.479 362.851 830.083 363.101 836.386 362.601C847.235 361.741 858.165 360.091 868.751 357.78Z" fill="#4F5365"/>
<path d="M1036.82 250.451C1037.8 248.745 1037.89 246.15 1038.24 244.225C1040.01 243.658 1039.05 243.869 1041.13 243.656L1042.72 249.36L1043.66 252.735C1041.15 254.252 1037.4 255.91 1035.62 258.098L1009.06 284.51L1007.67 283.163L1010.29 278.372C1014.03 277.014 1032.75 254.747 1036.82 250.451Z" fill="#696C7B"/>
<path d="M757.651 304.438C768.945 318.358 780.051 332.39 791.267 346.356C795.906 352.135 799.992 358.727 805.538 363.793L817.251 363.694L817.396 364.716C811.755 364.793 807.212 366.46 802.518 363.787L801.108 363.007C801.325 364.407 801.091 364.487 802.2 365.509C803.374 366.59 802.975 366.827 803.645 367.948L804.486 368.988L803.929 372.632L802.241 368.501C800.434 366.651 799.036 363.798 797.466 361.709C793.322 356.188 788.909 350.801 784.707 345.307C775.237 332.931 765.064 320.969 755.524 308.608L757.769 307.506C757.957 306.389 757.807 305.547 757.651 304.438Z" fill="#5E6275"/>
<path d="M868.751 357.78C926.589 347.011 970.152 316.62 1010.29 278.372L1007.67 283.163L1009.06 284.51C1005.75 290.057 998.46 294.904 993.374 299.202C963.968 324.06 930.227 346.25 891.492 356.841C886.666 358.161 878.395 360.876 873.537 360.676L868.751 357.78Z" fill="#313547"/>
<path d="M1043.66 252.735L1043.99 253.949C1043.02 255.724 1042.69 256.735 1042.71 258.766C1042.84 267.938 1044.54 277.142 1044.76 286.33C1045.08 299.572 1044.88 312.803 1045.47 326.045C1045.65 330.019 1045.1 335.066 1045.92 338.904L1046.09 339.188L1045.23 347.341C1043.89 342.412 1046.52 330.525 1044.14 327.238C1043.53 326.391 1043.27 325.75 1042.97 324.789L1041.28 323.759C1041.28 332.042 1042.34 339.244 1042.18 347.581L1041.48 347.82L1041.31 348.877C1040.08 357.285 1043.3 373.95 1039.6 380.945L1039.35 381.693C1038.7 383.481 1037.34 385.097 1036.21 386.662C1032.97 391.158 1027.78 395.36 1024.92 399.659C1019.6 407.649 1008.86 418.352 1000.08 423.582C994.51 426.898 990.053 432.65 984.27 436.06L982.285 437.556C977.953 440.896 973.314 443.129 968.705 445.993C967.563 446.701 968.121 446.363 966.598 446.93C965.254 447.428 964.54 447.832 963.39 448.567C961.746 449.616 960.705 449.64 958.876 450.223L956.503 451.247L948.009 454.159C946.614 454.726 945.504 454.984 944.033 455.266C938.735 456.288 933.753 458.093 928.389 458.966C925.372 459.459 921.557 459.602 918.797 460.616C914.685 462.128 910.058 460.057 906.234 462.703L906.931 463.475C901.489 463.544 889.64 465.064 884.993 463.23C883.427 462.61 884.661 462.831 882.406 462.642L880.976 462.562C875.664 458.857 872.499 453.39 868.558 448.524C867.951 447.774 867.534 447.063 866.826 446.366C865.74 445.293 864.887 444.58 864.306 443.161C863.691 441.655 862.72 441.556 861.22 440.728V441.766L862.061 442.807C863.87 445.804 866.994 448.296 868.303 451.471L868.795 452.725L867.497 452.879C870.349 457.561 874.338 462.392 876.465 467.353C878.505 472.117 879.008 483.307 877.999 488.348L876.782 489.296C851.348 478.947 825.028 471.779 798.024 465.905L799.429 463.597L800.564 450.915C798.148 447.947 798.848 438.296 798.507 434.21L802.241 368.501L803.928 372.632L804.486 368.988L803.645 367.948C802.975 366.827 803.374 366.59 802.2 365.51C801.09 364.488 801.325 364.408 801.108 363.008L802.518 363.788C807.211 366.46 811.755 364.794 817.396 364.716C820.878 364.85 823.69 365.257 827.072 365.755L829.612 365.733C830.568 365.739 833.698 365.696 834.398 366.154C847.235 366.268 861.006 363.096 873.537 360.676C878.395 360.876 886.666 358.161 891.493 356.841C930.227 346.25 963.968 324.06 993.374 299.202C998.46 294.904 1005.75 290.057 1009.06 284.51L1035.62 258.098C1037.4 255.91 1041.15 254.252 1043.66 252.735Z" fill="#100918"/>
<path d="M820.425 390.955L822.161 390.21C820.685 388.839 820.583 389.283 820.569 387.181L824.121 388.142C828.184 391.972 831.146 396.864 834.444 401.277C839.022 407.399 843.94 413.348 848.004 419.778C846.481 421.282 846.429 421.487 844.261 421.846L820.425 390.955Z" fill="#434251"/>
<path d="M848.004 419.778L848.865 420.635C861.044 433.015 869.173 449.102 881.016 461.785L906.234 462.703L906.931 463.475C901.489 463.544 889.64 465.064 884.993 463.23C883.426 462.61 884.661 462.831 882.406 462.642L880.976 462.562C875.664 458.857 872.499 453.39 868.557 448.524C867.951 447.774 867.534 447.063 866.826 446.366C865.74 445.293 864.887 444.58 864.306 443.161C863.691 441.655 862.72 441.556 861.22 440.728V441.766L862.061 442.807C863.87 445.804 866.994 448.295 868.303 451.471L868.794 452.724L867.497 452.879L844.261 421.846C846.429 421.487 846.481 421.282 848.004 419.778Z" fill="#313547"/>
<path d="M1043.66 252.735L1043.99 253.949C1043.02 255.724 1042.69 256.735 1042.71 258.766C1042.84 267.938 1044.54 277.142 1044.76 286.33C1045.08 299.572 1044.88 312.803 1045.47 326.045C1045.65 330.019 1045.1 335.066 1045.92 338.904L1046.09 339.188L1045.23 347.341C1043.89 342.412 1046.52 330.525 1044.14 327.238C1043.53 326.391 1043.27 325.75 1042.97 324.789L1041.28 323.759C1041.28 332.042 1042.34 339.244 1042.18 347.581L1041.48 347.82C1043.07 341.994 1040.32 329.721 1039.91 323.352C1038.78 305.939 1038.58 288.452 1036.84 271.098C1036.39 266.618 1037.58 262.362 1035.62 258.098C1037.4 255.91 1041.15 254.252 1043.66 252.735Z" fill="#434251"/>
<path d="M802.241 368.501L803.928 372.632L804.486 368.988L803.645 367.947C802.975 366.827 803.374 366.59 802.2 365.509C801.09 364.487 801.325 364.407 801.108 363.007L802.518 363.787C807.211 366.46 811.755 364.793 817.396 364.716C820.878 364.849 823.69 365.256 827.072 365.754L829.612 365.733C830.568 365.738 833.698 365.696 834.398 366.153L833.253 366.539C825.601 368.94 814.619 367.862 806.365 368.935C812.604 374.075 820.188 381.256 824.121 388.141L820.569 387.181C820.583 389.283 820.685 388.839 822.161 390.21L820.425 390.955L844.261 421.846L867.497 452.878C870.349 457.56 874.338 462.391 876.465 467.353C878.505 472.117 879.008 483.307 877.999 488.348L876.782 489.295C851.348 478.947 825.028 471.779 798.024 465.905L799.429 463.597L800.564 450.914C798.148 447.946 798.848 438.295 798.507 434.21L802.241 368.501Z" fill="#100918"/>
<path d="M802.241 368.501L803.928 372.632L804.486 368.988L803.645 367.947C802.975 366.827 803.374 366.59 802.2 365.509C801.091 364.487 801.325 364.407 801.108 363.007L802.518 363.787C807.212 366.46 811.755 364.793 817.396 364.716C820.878 364.849 823.69 365.256 827.072 365.754L829.612 365.733C830.568 365.738 833.698 365.696 834.398 366.153L833.253 366.539C825.601 368.94 814.619 367.862 806.365 368.935C812.604 374.075 820.188 381.256 824.121 388.141L820.569 387.181C820.584 389.283 820.685 388.839 822.161 390.21L820.425 390.955L807.301 374.426C806.428 390.939 805.636 407.484 804.148 423.96C803.348 432.788 802.848 442.298 800.565 450.914C798.148 447.946 798.848 438.295 798.507 434.21L802.241 368.501Z" fill="#4A4C5B"/>
<path d="M1029.37 160.963C1038.43 161.857 1046.71 163.997 1055.42 166.276C1069.03 168.644 1082.03 174.106 1094.52 179.454C1131.38 195.237 1164.4 216.592 1192.73 243.459C1200.23 250.568 1208.44 257.909 1214.59 266.088L1234.07 289.764L1241.21 299.119L1274.48 356.907L1277.64 364.892C1274.49 365.946 1272.85 367.615 1271.34 370.447L1271.07 371.043L1266.77 377.404C1263.4 382.882 1260.94 390.138 1256.94 394.998L1258.01 397.83L1263.07 455.476L1264.61 465.86L1204.12 485.085L1191.42 490.469C1191.98 485.612 1193.2 483.248 1196.55 479.485L1197.54 478.383C1182.67 474.505 1168.38 475.966 1153.43 470.225C1150.92 467.797 1148.54 467.036 1145.71 465.17L1146.83 465.149C1148.69 466.701 1150.69 466.147 1153.13 466.158C1144.01 462.493 1135.99 458.391 1127.38 453.866C1124.91 452.367 1121.77 448.455 1119.46 447.749C1116.31 446.789 1112.92 442.421 1110.14 440.733C1106.34 438.423 1103.63 434.553 1099.98 432.416C1093.89 428.849 1086.14 422.043 1082.48 416.294C1081.11 414.146 1077.64 412.727 1076.27 410.579C1073.17 405.719 1067.94 401.5 1064.42 396.55C1062.8 394.266 1060.93 392.27 1059.32 390.031L1055.39 385.113C1053.72 382.512 1049.67 379.228 1048.69 376.699C1048.03 374.988 1048.67 370.189 1048.65 368.187C1048.62 365.421 1047.5 362.821 1047.43 360.449C1047.25 353.912 1048.79 346.106 1046.4 339.896L1046.09 339.188L1045.92 338.903C1045.1 335.065 1045.65 330.019 1045.47 326.045C1044.88 312.803 1045.08 299.572 1044.76 286.33C1044.54 277.142 1042.84 267.938 1042.71 258.766C1042.69 256.735 1043.02 255.724 1043.99 253.948L1043.66 252.735L1042.72 249.36L1041.13 243.656C1039.05 243.869 1040.01 243.658 1038.24 244.225C1037.89 246.15 1037.8 248.745 1036.82 250.451L1033.26 186.563L1032.18 178.541C1032.52 175.001 1032.23 169.754 1031.47 166.265C1030.94 163.875 1029.12 162.946 1027.13 161.602L1029.37 160.963Z" fill="url(#paint3_linear_14_1119)"/>
<path d="M1106.45 211.465C1122.87 221.646 1135.19 237.249 1153.14 245.857L1156 248.899C1155.01 249.863 1153.8 250.815 1153.1 251.976C1147.52 250.233 1142.32 244.68 1137.84 241.172C1126.54 232.338 1115.19 223.642 1104.38 214.297L1106.45 211.465Z" fill="#313547"/>
<path d="M1042.72 249.36C1050.8 255.982 1056.66 263.938 1063.51 271.577C1073.27 282.484 1083.42 293.062 1094.04 303.267L1091.42 306.463C1074.07 290.174 1057.14 273.379 1043.99 253.949L1043.66 252.735L1042.72 249.36Z" fill="#4D4758"/>
<path d="M1155.22 253.746L1158.14 252.187C1165.72 256.035 1171.93 262.04 1179.95 265.806C1183.26 268.22 1186.3 270.177 1190.1 271.931C1191.98 273.24 1193.62 274.292 1195.82 275.13C1201.71 279.737 1211.35 283.179 1218.37 286.325C1221.47 289.242 1227.17 289.884 1231.48 290.794L1234.07 289.764L1241.21 299.12C1236.02 299.841 1235.15 299.066 1230.74 296.831L1218.18 290.44L1205.61 284.22C1201.71 282.7 1197.66 279.852 1194 277.805C1180.58 270.286 1168.51 261.239 1155.22 253.746Z" fill="#696C7B"/>
<path d="M1038.96 197.468C1037.89 190.353 1037.99 183.518 1038.19 176.369L1069.16 183.55L1070.39 183.717L1083.76 195.559C1078.21 194.931 1072.25 193.784 1066.68 193.784L1065.55 192.746C1063.19 192.746 1064.05 192.961 1062.17 191.705C1061.88 191.514 1060.85 191.282 1060.48 191.191V190.417L1064.43 189.895C1058.88 189.632 1054.42 187.54 1049.18 187.556C1050.14 189.608 1050.42 189.576 1052.57 190.675L1051.44 191.255C1047.6 190.01 1044.62 188.49 1041.28 186.339L1039.51 187.111L1038.96 197.468Z" fill="#313547"/>
<path d="M1205.61 284.22L1218.18 290.44C1225.79 302.862 1235.24 314.483 1243.29 326.719C1246.15 331.068 1247.24 335.872 1250.1 340.243C1254.33 346.721 1263.5 354.828 1264.24 362.332C1266.3 363.607 1267.91 363.833 1270.29 364.134C1267.34 368.741 1264.5 374.37 1260.83 378.461C1260.98 376.534 1260.9 373.822 1261.99 372.105C1262.67 371.043 1263.67 370.404 1264.32 369.215C1265.28 367.426 1265.47 367.149 1264.81 365.337C1263.19 364.253 1261.95 363.474 1260.97 361.837L1260.29 360.665C1258.26 360.301 1257.11 358.959 1255.67 357.687L1254.93 357.024L1254.08 360.138C1251.79 357.213 1250.85 353.631 1248.34 350.857C1246.85 349.204 1247.32 348.19 1247.32 346.114L1245.62 344.03C1244.92 342.83 1245.4 342.752 1244.13 341.627C1238.42 336.543 1237.09 330.844 1232.86 325.124C1231.3 323 1229.63 319.442 1228.69 316.996C1227.81 314.746 1224.46 310.895 1222.51 309.194L1221.91 308.678C1221.65 307.323 1221.46 306.66 1220.54 305.529L1219.65 304.52L1218.52 302.955C1217.18 301.542 1216.18 299.269 1214.58 298.287L1213.44 297.757C1208.85 294.928 1207.19 288.75 1205.61 284.22Z" fill="#262533"/>
<path d="M1029.37 160.963C1038.43 161.857 1046.71 163.997 1055.42 166.276L1055.4 169.531C1060.85 173.276 1066.57 178.543 1070.39 183.717L1069.16 183.55L1038.19 176.369C1037.99 183.518 1037.89 190.353 1038.96 197.468C1039.58 208.279 1040.17 219.094 1040.78 229.905C1041.01 233.994 1042.08 239.756 1041.13 243.656C1039.05 243.869 1040.01 243.658 1038.24 244.225C1037.89 246.15 1037.8 248.745 1036.82 250.451L1033.26 186.563L1032.18 178.541C1032.52 175.001 1032.23 169.754 1031.47 166.265C1030.94 163.875 1029.12 162.946 1027.13 161.602L1029.37 160.963Z" fill="#5B5E6D"/>
<path d="M1029.37 160.963C1038.43 161.857 1046.71 163.997 1055.42 166.276L1055.4 169.531C1051.89 169.706 1046.18 170.05 1043.4 168.344C1041.65 167.274 1039.35 167.117 1037.32 166.757L1036.54 185.993L1035.15 186.166C1033.57 186.371 1034.13 186.172 1033.26 186.563L1032.18 178.541C1032.52 175.001 1032.23 169.754 1031.47 166.265C1030.94 163.875 1029.12 162.946 1027.13 161.602L1029.37 160.963Z" fill="#696C7B"/>
<path d="M1218.18 290.44L1230.74 296.831C1235.15 299.066 1236.02 299.841 1241.21 299.12L1274.48 356.907L1272.52 360.572L1270.29 364.133C1267.91 363.833 1266.3 363.606 1264.24 362.332C1263.5 354.828 1254.33 346.721 1250.1 340.242C1247.24 335.872 1246.15 331.068 1243.29 326.718C1235.24 314.483 1225.79 302.862 1218.18 290.44Z" fill="#383740"/>
<path d="M1230.74 296.831C1235.15 299.066 1236.02 299.841 1241.21 299.12L1274.48 356.907L1272.52 360.572C1271.75 356.992 1266.26 351.653 1264.23 348.193L1230.74 296.831Z" fill="#4A4C5B"/>
<path d="M1055.42 166.276C1069.03 168.645 1082.03 174.107 1094.52 179.454C1131.38 195.237 1164.4 216.592 1192.73 243.459C1200.23 250.568 1208.44 257.909 1214.59 266.088L1234.07 289.764L1231.48 290.794C1227.17 289.884 1221.47 289.242 1218.37 286.325C1211.35 283.179 1201.71 279.737 1195.82 275.13C1193.62 274.292 1191.98 273.24 1190.1 271.931C1186.3 270.177 1183.26 268.22 1179.95 265.806C1171.93 262.04 1165.72 256.035 1158.14 252.186L1155.22 253.746L1153.64 253.871L1153.1 251.976C1153.8 250.816 1155.01 249.863 1156 248.899L1153.14 245.857C1135.19 237.249 1122.87 221.647 1106.45 211.466L1104.38 214.298C1099.02 207.721 1090.23 201.386 1083.76 195.56L1070.39 183.718C1066.57 178.543 1060.85 173.276 1055.4 169.531L1055.42 166.276Z" fill="#4F5365"/>
<path d="M1083.48 190.364L1085.31 188.575C1094.59 193.566 1104.38 197.234 1113.75 201.918C1130.14 210.124 1144.54 219.296 1157.87 231.383C1155.05 230.811 1153.3 230.217 1150.79 229.136L1148.53 228.62L1146.27 228.101L1145.72 229.666L1148.14 231.915L1146.5 232.807L1156.92 244.441C1156.12 244.699 1153.49 245.263 1153.14 245.857C1135.19 237.249 1122.87 221.646 1106.45 211.466C1098.19 206.398 1090.8 196.935 1083.48 190.364Z" fill="url(#paint4_linear_14_1119)"/>
<path d="M1112.4 211.471C1119.36 210.366 1135.31 222.314 1141.06 226.027C1137.99 226.046 1135.59 224.627 1133.22 222.791C1131.74 221.633 1130.9 221.013 1129 220.425C1127.68 220.009 1127.07 219.834 1125.91 219.03C1123.78 217.555 1120.56 215.953 1118.04 215.115C1115.63 214.316 1114.31 213.046 1112.4 211.471Z" fill="#313547"/>
<path d="M1148.14 231.915L1145.72 229.666L1146.28 228.101L1148.53 228.62L1150.79 229.136C1153.3 230.217 1155.05 230.811 1157.87 231.383C1174.37 242.112 1186.32 255.133 1200.48 268.047C1206.7 273.711 1213.39 278.106 1219.19 284.276L1218.55 285.723L1218.37 286.325C1211.35 283.179 1201.71 279.737 1195.82 275.13C1193.62 274.292 1191.98 273.24 1190.1 271.931C1186.3 270.177 1183.26 268.22 1179.95 265.806C1171.93 262.04 1165.72 256.035 1158.14 252.186L1155.22 253.746L1153.64 253.871L1153.1 251.976C1153.8 250.816 1155.01 249.863 1156 248.899L1153.14 245.857C1153.49 245.264 1156.12 244.699 1156.92 244.441L1146.5 232.807L1148.14 231.915Z" fill="#313547"/>
<path d="M1148.14 231.915C1166.38 244.925 1181.96 256.386 1196.67 272.838L1195.82 275.13C1193.62 274.291 1191.98 273.24 1190.1 271.931C1186.3 270.177 1183.26 268.22 1179.95 265.806C1171.93 262.04 1165.72 256.035 1158.14 252.186L1155.22 253.746L1153.64 253.871L1153.1 251.976C1153.8 250.816 1155.01 249.863 1156 248.899L1153.14 245.857C1153.49 245.263 1156.12 244.699 1156.92 244.441L1146.5 232.807L1148.14 231.915Z" fill="#262533"/>
<path d="M1179.01 258.984C1183.41 262.149 1186.71 265.157 1190.04 269.285L1190.1 271.931C1186.3 270.177 1183.26 268.22 1179.95 265.806C1180.96 263.626 1179.72 261.156 1179.01 258.984Z" fill="#231929"/>
<path d="M1156.92 244.441C1164.92 248.668 1171.65 253.94 1179.01 258.984C1179.72 261.156 1180.96 263.626 1179.95 265.806C1171.93 262.04 1165.72 256.035 1158.14 252.186L1155.22 253.746L1153.64 253.871L1153.1 251.976C1153.8 250.816 1155.01 249.863 1156 248.899L1153.14 245.857C1153.49 245.263 1156.12 244.699 1156.92 244.441Z" fill="#100918"/>
<path d="M1055.42 166.276C1069.03 168.645 1082.03 174.107 1094.52 179.454C1131.38 195.237 1164.4 216.592 1192.73 243.459C1200.23 250.568 1208.44 257.909 1214.59 266.088C1207.29 264.662 1199.88 255.774 1194.58 251.021C1185.64 243.001 1176.85 235.16 1166.97 228.104C1151.93 217.359 1135.18 205.581 1118.38 197.391C1101.86 189.331 1085.55 184.503 1070 174.407C1073.05 180.803 1077.94 185.677 1083.48 190.364C1090.8 196.936 1098.19 206.398 1106.45 211.466L1104.38 214.298C1099.02 207.721 1090.23 201.386 1083.76 195.56L1070.39 183.718C1066.57 178.543 1060.85 173.276 1055.4 169.531L1055.42 166.276Z" fill="#727C89"/>
<path d="M1043.99 253.948C1057.14 273.378 1074.07 290.174 1091.42 306.463L1094.04 303.266C1136.36 342.792 1193.48 384.266 1256.87 384.737L1258.2 384.745L1260.83 378.461C1264.5 374.37 1267.34 368.741 1270.29 364.133L1272.52 360.572L1274.48 356.907L1277.64 364.892C1274.49 365.946 1272.85 367.615 1271.34 370.447L1271.07 371.043L1266.77 377.404C1263.39 382.882 1260.94 390.138 1256.94 394.998L1258.01 397.83L1263.07 455.476L1264.61 465.86L1204.12 485.085L1191.42 490.469C1191.98 485.612 1193.2 483.248 1196.55 479.485L1197.54 478.383C1182.67 474.505 1168.38 475.966 1153.43 470.225C1150.92 467.797 1148.54 467.036 1145.71 465.17L1146.83 465.149C1148.69 466.701 1150.69 466.147 1153.13 466.158C1144.01 462.493 1135.99 458.391 1127.38 453.866C1124.91 452.368 1121.77 448.455 1119.46 447.749C1116.31 446.789 1112.92 442.421 1110.14 440.733C1106.34 438.423 1103.63 434.553 1099.98 432.416C1093.89 428.849 1086.14 422.043 1082.48 416.294C1081.11 414.146 1077.64 412.727 1076.27 410.579C1073.17 405.719 1067.94 401.5 1064.42 396.55C1062.8 394.266 1060.93 392.27 1059.32 390.031L1055.39 385.113C1053.72 382.512 1049.67 379.228 1048.69 376.699C1048.03 374.988 1048.67 370.189 1048.65 368.187C1048.62 365.422 1047.5 362.821 1047.43 360.45C1047.25 353.912 1048.79 346.106 1046.4 339.896L1046.09 339.188L1045.92 338.903C1045.1 335.065 1045.65 330.019 1045.47 326.045C1044.88 312.803 1045.08 299.572 1044.76 286.33C1044.54 277.142 1042.84 267.938 1042.71 258.766C1042.69 256.735 1043.02 255.724 1043.99 253.948Z" fill="#100918"/>
<path d="M1274.48 356.907L1277.64 364.892C1274.49 365.946 1272.85 367.615 1271.34 370.447L1271.07 371.043L1266.77 377.405C1263.4 382.882 1260.94 390.138 1256.94 394.998C1249.52 404.043 1243.18 413.116 1237.23 423.036L1234.93 424.506L1233.73 422.057L1253.56 391.86L1251.38 389.608C1251.22 388.147 1251.38 387.58 1251.81 386.207C1253.72 386.127 1255.16 386.071 1256.91 385.321L1258.2 384.746L1260.83 378.461C1264.5 374.37 1267.34 368.741 1270.29 364.134L1272.52 360.572L1274.48 356.907Z" fill="#4F5365"/>
<path d="M1233.73 422.057L1234.93 424.505L1237.23 423.036C1232.7 434.316 1223.27 446.496 1216.21 456.741C1210.28 465.349 1203.97 474.507 1204.12 485.085L1191.42 490.469C1191.98 485.612 1193.2 483.248 1196.55 479.485L1197.54 478.383C1182.67 474.505 1168.38 475.966 1153.43 470.225C1150.92 467.797 1148.54 467.036 1145.71 465.17L1146.83 465.149C1148.69 466.701 1150.69 466.147 1153.13 466.158C1168.23 470.046 1183.33 471.91 1198.88 473.664C1212.74 458.899 1219.24 438.091 1232.86 422.996L1233.73 422.057Z" fill="#1A181F"/>
<path d="M1094.04 303.267C1136.36 342.792 1193.48 384.266 1256.87 384.738L1258.2 384.746L1256.91 385.32C1255.16 386.071 1253.72 386.127 1251.81 386.207C1251.38 387.58 1251.22 388.147 1251.38 389.608C1237.43 385.925 1223.38 384.173 1209.38 380.024C1162.85 366.239 1125.65 337.666 1091.42 306.463L1094.04 303.267Z" fill="#313547"/>
<path d="M1237.23 423.036C1243.18 413.116 1249.52 404.042 1256.94 394.998L1258.01 397.83L1263.07 455.476L1264.61 465.86L1204.12 485.085C1203.97 474.507 1210.28 465.349 1216.21 456.741C1223.27 446.496 1232.7 434.316 1237.23 423.036Z" fill="#020206"/>
<path d="M1268.07 465.298C1272.47 464.217 1284.13 460.451 1287.62 462.535C1290.86 464.462 1290.65 465.814 1291.12 469.04C1294.69 493.86 1297.09 519.734 1297.29 544.791C1297.4 559.638 1294.77 575.967 1297.13 590.585C1295.63 604.045 1294.99 618.674 1291.43 631.777C1284.62 663.065 1272.98 690.456 1261.01 720.198C1259.34 724.353 1256.88 734.174 1254.13 737.278L1252.25 736.727C1243.95 746.907 1236.54 759.074 1226.92 768.137C1223.99 770.889 1209.94 781.256 1209.3 783.878C1190.91 795.853 1173.98 800.969 1151.51 797.676L1149.09 797.258C1143.82 795.954 1138.95 794.211 1134.04 791.988C1103.35 778.065 1082.99 738.733 1072.42 709.918C1069.75 702.649 1066.08 693.922 1065.83 686.293C1065.66 680.858 1067.56 675.37 1068.53 670.044C1072.25 649.695 1077.21 625.275 1087.15 606.736L1087.47 605.586C1090.36 596.513 1095.11 587.631 1099.3 579.015C1110.2 556.582 1125.1 535.302 1145.34 519.05C1159.33 507.815 1175.45 499.05 1191.42 490.469L1204.12 485.085L1264.61 465.859L1268.07 465.298Z" fill="#AE0138"/>
<path d="M1264.25 642.003L1273.89 639.648C1272.44 645.224 1269.8 650.103 1267.63 655.44C1265.21 655.764 1262.82 656.158 1260.36 656.129L1263.46 644.516L1264.25 642.003Z" fill="#B00335"/>
<path d="M1268.07 465.298C1272.47 464.217 1284.13 460.451 1287.62 462.535C1290.86 464.462 1290.65 465.814 1291.12 469.04C1294.69 493.86 1297.09 519.734 1297.29 544.791C1297.4 559.638 1294.77 575.967 1297.13 590.585C1295.63 604.045 1294.99 618.674 1291.43 631.777C1289.07 629.712 1287.67 629.938 1284.61 629.435C1280.4 622.711 1285.13 608.833 1284.96 600.926L1284.93 600.031L1282.39 596.39L1282.77 529.143C1283.06 523.958 1283.89 519.415 1285.35 514.4L1282.53 478.414L1280.94 480.552L1279.38 480.147L1276.66 477.108C1269.24 477.967 1261.87 480.195 1254.67 482.034C1234.44 487.206 1215.09 494.156 1196.35 502.851L1192.15 501.473C1163.2 514.155 1139.41 534.184 1122.52 559.146C1118.26 565.443 1113.99 571.637 1111.31 578.669C1110.22 581.538 1108.08 592.017 1105.91 593.305L1104.5 592.006L1106.07 588.772C1106.71 587.479 1106.91 586.569 1107.32 585.248C1108.72 580.761 1113.52 572.954 1113.54 568.871L1114.54 567.913C1116.48 565.999 1117.5 563.465 1119.18 561.333L1124.82 553.016L1131.31 543.918L1129.34 543.128L1127.64 544.168L1125.1 541.839L1124.54 542.587C1123.11 544.426 1121.44 545.459 1121.43 547.812L1120.42 548.643C1118.41 550.386 1117.42 553.021 1115.79 555.094C1113.34 558.198 1110.88 561.993 1109.29 565.494C1108.92 566.316 1108.56 566.939 1108.25 567.791C1107.77 569.121 1106.51 569.63 1105.63 570.692C1104.01 572.645 1103.62 574.671 1102.81 576.928L1099.99 582.648C1098.34 586.428 1096.3 589.696 1094.91 593.564L1092.08 599.283L1090.51 602.517C1089.91 603.739 1089.56 604.727 1089.26 606.023L1087.15 606.736L1087.47 605.586C1090.36 596.513 1095.11 587.631 1099.3 579.015C1110.2 556.582 1125.1 535.302 1145.34 519.05C1159.33 507.815 1175.45 499.05 1191.42 490.469L1204.12 485.085L1264.61 465.859L1268.07 465.298Z" fill="url(#paint5_linear_14_1119)"/>
<path d="M1285.35 514.4C1287.4 533.019 1287.39 551.403 1286.82 570.074C1286.52 580.005 1286.65 590.207 1284.93 600.032L1282.39 596.39L1282.77 529.143C1283.06 523.958 1283.89 519.415 1285.35 514.4Z" fill="#AE0024"/>
<path d="M1192.15 501.473C1209.95 492.49 1229.16 485.396 1248.46 479.668C1257.62 476.953 1268.36 475.45 1276.94 471.588C1278.4 470.93 1278.91 470.677 1280.58 470.358L1282.53 478.415L1280.94 480.552L1279.38 480.147L1276.66 477.108C1269.24 477.968 1261.87 480.195 1254.67 482.035C1234.44 487.206 1215.09 494.156 1196.35 502.851L1192.15 501.473Z" fill="#AE0024"/>
<path d="M1104.11 723.804C1111.66 719.961 1118.86 715.407 1126.51 711.798C1146.3 702.469 1167.01 694.718 1186.5 684.862C1193.49 681.33 1199.97 676.975 1206.87 673.281C1216.96 667.878 1227.4 663.031 1237.5 657.633C1245.96 653.111 1254.06 647.228 1263.46 644.516L1260.36 656.129C1248.2 693.666 1223.85 752.484 1184.57 771.8C1176.01 776.005 1165.1 778.566 1155.51 776.12C1133.73 770.565 1119.82 752.13 1110 734.715L1104.11 723.804Z" fill="url(#paint6_linear_14_1119)"/>
<path d="M1196.35 502.852C1215.09 494.156 1234.44 487.206 1254.67 482.035C1261.87 480.195 1269.24 477.968 1276.66 477.108L1279.38 480.148L1280.94 480.552L1282.53 478.415L1285.35 514.401C1283.89 519.415 1283.06 523.959 1282.77 529.144L1282.39 596.391C1280.26 611.187 1278.35 625.259 1273.89 639.648L1264.25 642.003L1263.46 644.516C1254.06 647.228 1245.96 653.111 1237.5 657.633C1227.4 663.031 1216.96 667.878 1206.87 673.281C1199.97 676.975 1193.49 681.33 1186.5 684.862C1167.01 694.718 1146.3 702.469 1126.51 711.798C1118.86 715.407 1111.66 719.961 1104.11 723.804C1099.36 713.195 1091.41 697.193 1090.8 685.796C1090.52 680.773 1092.5 674.638 1093.6 669.709C1095.77 659.919 1098.06 650.215 1100.57 640.494C1099.98 638.748 1099.73 636.957 1099.43 635.155C1100.29 634.152 1100.56 633.675 1100.84 632.395C1101.41 629.755 1102.32 626.385 1103.38 623.928L1106.21 616.438C1106.6 615.376 1106.76 614.586 1107.33 613.548L1107.89 612.539C1108.71 610.881 1109.78 608.9 1110.06 607.098L1110.15 606.303L1110.72 605.001C1111.25 603.617 1111.92 602.222 1112.41 600.849C1113.46 597.918 1115.45 594.008 1117.08 591.275C1118.53 588.853 1120.37 585.848 1121.2 583.215C1121.57 582.018 1121.27 582.656 1121.97 581.365L1123.7 578.23C1124.34 577.022 1124.93 575.978 1125.74 574.85L1126.51 573.812L1126.52 572.252C1128.58 570.631 1129.13 568.882 1130.37 566.779L1131.6 564.714L1132.17 563.412C1133.05 562.015 1133.79 561.818 1134.18 560.069C1134.61 558.113 1134.15 559.314 1134.99 557.386C1136.21 554.568 1136.25 553.431 1135.56 550.418C1134.81 551.089 1135.07 550.748 1134.58 551.627C1132.41 555.494 1129.13 559.548 1126.48 563.213C1124.15 566.441 1119.83 572.252 1118.61 575.89C1117.95 577.855 1116.54 579.244 1116.05 581.041C1115.59 582.747 1116.05 581.642 1115.1 583.575L1112.68 588.882C1111.78 592.057 1110.16 594.471 1108.73 597.463L1106.21 597.205L1107.33 594.605L1107.89 592.973C1113.26 585.667 1115.63 576.545 1120.49 568.733C1130.57 552.529 1142.96 536.966 1158.76 525.013C1170.06 516.458 1183.7 509.538 1196.35 502.852Z" fill="url(#paint7_linear_14_1119)"/>
<path d="M1271.54 599.257L1267.63 600.207C1265.18 598.653 1262.43 596.718 1259.49 596.063C1254.51 594.953 1248.86 595.962 1244.16 593.925L1243.36 593.561C1237.78 591.181 1235.11 587.165 1230.39 583.689L1231.5 583.167C1230.72 582.126 1229.9 581.184 1229.46 579.968L1229.25 579.268L1228.69 578.23C1228.24 576.372 1228.53 575.028 1227.57 573.127L1227.07 572.252C1227.46 568.576 1227.55 561.69 1230.16 558.935L1230.93 558.209L1230.94 556.654C1232.28 556.002 1232.6 555.683 1233.4 554.442C1234.77 552.316 1236.56 550.628 1238.16 548.661C1239.37 547.179 1241.24 547.384 1243.07 546.771L1244.49 546.247L1246.18 547.067C1250.56 546.684 1254.93 546.817 1258.49 544.107C1261.07 542.135 1263.91 544.009 1266.78 542.614L1269.89 541.049C1271.19 542.651 1272.08 544.371 1273.03 546.157L1271.54 599.257Z" fill="white"/>
<path d="M1196.35 502.852C1215.09 494.156 1234.44 487.206 1254.67 482.035C1261.87 480.195 1269.24 477.968 1276.66 477.108L1279.38 480.148L1280.94 480.552L1282.53 478.415L1285.35 514.401C1283.89 519.415 1283.06 523.959 1282.77 529.144L1282.39 596.391C1280.26 611.187 1278.35 625.259 1273.89 639.648L1264.25 642.003C1268.44 627.934 1269.98 613.729 1271.54 599.257L1273.03 546.157C1272.13 527.278 1272.61 506.66 1269.25 488.093C1223.06 497.246 1164.16 522.287 1137.93 559.886C1120.1 585.432 1111.14 612.1 1100.57 640.494C1099.98 638.748 1099.73 636.957 1099.43 635.155C1100.29 634.152 1100.56 633.675 1100.84 632.395C1101.41 629.755 1102.32 626.385 1103.38 623.928L1106.21 616.438C1106.6 615.376 1106.76 614.586 1107.33 613.548L1107.89 612.539C1108.71 610.881 1109.78 608.9 1110.06 607.098L1110.15 606.303L1110.72 605.001C1111.25 603.617 1111.92 602.222 1112.41 600.849C1113.46 597.918 1115.45 594.008 1117.08 591.275C1118.53 588.853 1120.37 585.848 1121.2 583.215C1121.57 582.018 1121.27 582.656 1121.97 581.365L1123.7 578.23C1124.34 577.022 1124.93 575.978 1125.74 574.85L1126.51 573.812L1126.52 572.252C1128.58 570.631 1129.13 568.882 1130.37 566.779L1131.6 564.714L1132.17 563.413C1133.05 562.015 1133.79 561.818 1134.18 560.069C1134.61 558.113 1134.15 559.314 1134.99 557.386C1136.21 554.568 1136.25 553.431 1135.56 550.418C1134.81 551.089 1135.07 550.748 1134.58 551.627C1132.41 555.494 1129.13 559.548 1126.48 563.213C1124.15 566.441 1119.83 572.252 1118.61 575.89C1117.95 577.855 1116.54 579.244 1116.05 581.041C1115.59 582.747 1116.05 581.642 1115.1 583.575L1112.68 588.882C1111.78 592.057 1110.16 594.471 1108.73 597.463L1106.21 597.205L1107.33 594.605L1107.89 592.973C1113.26 585.667 1115.63 576.545 1120.49 568.733C1130.57 552.529 1142.96 536.966 1158.76 525.013C1170.06 516.458 1183.7 509.538 1196.35 502.852Z" fill="url(#paint8_linear_14_1119)"/>
<path d="M1282.53 478.415L1285.35 514.4C1283.89 519.415 1283.06 523.958 1282.77 529.143C1281.02 522.622 1281.3 514.536 1280.67 507.789C1279.87 499.277 1277.26 488.489 1279.38 480.147L1280.94 480.552L1282.53 478.415Z" fill="#B00335"/>
<path d="M758.862 556.684C759.685 524.688 764.405 491.808 772.141 460.608L794.649 465.354L798.024 465.905C825.028 471.779 851.348 478.947 876.782 489.296L883.403 492.045L898.122 498.692L899.278 494.622L902.922 495.303L904.344 493.786C908.075 497.957 910.26 500.166 911.329 505.58C929.112 516.408 948.521 528.931 960.549 545.486C971.294 556.801 979.664 571.193 986.718 584.695C1000.37 610.825 1010.34 638.096 1017.09 666.419C1018.65 672.967 1021.42 681.436 1021.17 688.104C1021.12 689.387 1020.67 690.595 1020.3 691.819C1009.27 728.66 989.088 767.342 952.258 787.466C932.588 798.214 908.939 800.035 887.036 794.698C879.571 792.88 872.618 790.011 865.52 787.272L861.162 784.994C824.208 761.994 803.608 730.06 784.851 693.77L728.56 692.392C724.375 692.389 712.876 691.338 710.084 693.896L709.469 694.55L708.911 694.518L707.217 692.432L702.897 694.997L700.102 687.361L704.671 686.773C705.865 685.139 706.983 683.661 708.645 682.389L709.937 681.42L710.518 680.896L711.671 683.539C713.948 680.819 715.535 675.099 717.072 671.718L721.644 665.437C727.193 658.421 731.135 649.919 735.427 642.203C742.793 628.956 750.03 615.698 757.304 602.403L758.668 602.872L757.712 586.071L758.862 556.684Z" fill="url(#paint9_linear_14_1119)"/>
<path d="M770.309 611.631L774.251 611.945C776.26 624.365 778.835 635.687 783.071 647.63L782.198 648.671C780.389 645.434 780.019 641.807 778.245 638.794C777.476 637.481 777.387 637.287 777.239 635.671C777.086 633.968 777.288 634.543 776.852 633.329L776.551 632.544L775.988 629.435C775.58 628.147 775.052 627.689 774.947 626.215L774.861 624.756L774.014 624.232C773.812 625.733 773.468 626.805 774.124 628.213C775.112 630.34 774.349 632.464 774.861 634.633C776.413 641.237 779.467 650.622 777.681 657.321L770.309 611.631Z" fill="#B00335"/>
<path d="M721.644 665.437C727.193 658.421 731.135 649.919 735.427 642.203C742.793 628.956 750.03 615.698 757.304 602.403L758.668 602.872C762.052 633.18 770.419 661.088 783.161 689.19L784.851 693.77L728.56 692.392C724.375 692.389 712.876 691.338 710.084 693.895L709.469 694.55L708.911 694.518L707.217 692.432L702.897 694.997L700.102 687.361L704.671 686.773C705.865 685.139 706.983 683.661 708.645 682.389L709.937 681.42L710.518 680.896L711.671 683.539C713.948 680.819 715.535 675.099 717.072 671.718L721.644 665.437Z" fill="#100918"/>
<path d="M721.644 665.437C725.867 670.215 725.066 673.829 725.202 679.9C725.271 683.015 728.118 686.06 729.973 688.543L712.896 687.851L711.483 684.891L711.671 683.539C713.948 680.819 715.535 675.099 717.072 671.719L721.644 665.437Z" fill="#1A181F"/>
<path d="M700.102 687.361L704.671 686.772C705.865 685.138 706.983 683.661 708.645 682.389L709.937 681.42L710.518 680.896L711.671 683.539L711.483 684.891L712.896 687.85L729.973 688.543L783.161 689.189L784.851 693.77L728.56 692.391C724.375 692.389 712.876 691.337 710.084 693.895L709.469 694.55L708.911 694.518L707.217 692.431L702.897 694.997L700.102 687.361Z" fill="#4D4758"/>
<path d="M700.102 687.361L704.671 686.772C705.865 685.138 706.983 683.661 708.645 682.389L709.937 681.42L710.518 680.896L711.671 683.539L711.483 684.891L710.047 688.7C713.208 690.525 719.315 689.748 723.034 689.738C719.561 692.767 711.87 689.354 707.217 692.431L702.897 694.997L700.102 687.361Z" fill="#91929D"/>
<path d="M758.862 556.684C759.685 524.688 764.405 491.808 772.141 460.608L794.649 465.354L798.024 465.905C825.028 471.779 851.347 478.947 876.782 489.296L883.403 492.045L898.122 498.692L899.278 494.622L902.922 495.303L904.344 493.786C908.075 497.957 910.26 500.166 911.329 505.58C929.112 516.408 948.521 528.931 960.549 545.486L959.393 546.415L955.489 543.655C955.48 541.028 948.399 535.931 946.171 533.522C941.163 535.614 941.218 533.706 936.576 532.737C938.007 534.225 939.513 536.25 941.507 537.036C943.946 537.999 946.252 540.844 948.099 542.617L947.082 544.371L970.144 576.41L968.248 577.45C964.008 572.255 960.243 564.445 954.882 560.378L954.547 563.123C950.318 557.432 946.501 551.246 941.654 545.997L939.961 545.734C939.16 544.249 938.929 544.057 937.423 543.139C934.082 544.358 933.224 544.02 929.802 543.133C932.637 545.752 941.787 552.588 942.634 555.292C943.382 557.677 945.417 559.425 947.006 561.334C951.099 566.253 954.278 570.626 954.968 576.865C948.174 567.65 941.596 557.671 933.285 549.556C897.007 514.135 840.108 499.442 790.883 486.951C784.979 524.395 781.392 560.493 782.635 598.387L781.08 593.564C777.944 586.399 779.889 572.484 779.95 564.453L778.811 563.924L777.118 564.962L775.436 563.413L773.731 563.934C773.812 570.868 774.855 579.212 772.855 585.901L772.609 586.641C771.925 594.517 772.815 604.152 774.251 611.945L770.309 611.631C767.766 592.96 768.592 572.308 769.113 553.474L768.861 554.403C766.263 565.05 767.604 578.18 767.52 589.156C765.697 584.52 767.312 579.178 766.673 574.326L766.069 574.783C764.636 575.835 765.887 574.938 764.393 575.853C763.278 576.535 763.243 577.072 762.437 577.964L760.182 580.048L760.321 581.35L760.46 590.447L759.483 591.469C756.954 580.391 760.015 568.079 758.862 556.684Z" fill="#EC3676"/>
<path d="M769.113 553.474C770.309 526.833 772.601 496.953 780.681 471.343C792.241 474.665 804.316 476.472 815.997 479.482C847.489 487.603 880.675 498.417 908.177 514.928C922.182 523.333 934.903 533.873 947.082 544.371L970.144 576.409L968.248 577.45C964.009 572.255 960.243 564.445 954.882 560.378C950.689 554.421 946.507 548.047 941.258 542.824C930.415 532.037 917.552 524.302 903.951 516.871C866.584 496.45 824.991 485.167 783.097 475.764C776.554 511.726 769.425 550.064 772.61 586.641C771.925 594.517 772.815 604.152 774.251 611.945L770.309 611.631C767.766 592.96 768.592 572.308 769.113 553.474Z" fill="#AE0138"/>
<path d="M758.862 556.684C759.685 524.688 764.405 491.808 772.141 460.608L794.649 465.354L798.024 465.905C825.028 471.779 851.347 478.947 876.782 489.296L883.403 492.045L898.122 498.692L899.278 494.622L902.922 495.303L904.344 493.786C908.075 497.957 910.26 500.166 911.329 505.58C929.112 516.408 948.521 528.931 960.549 545.486L959.393 546.415L955.489 543.655C955.48 541.028 948.399 535.931 946.171 533.522C941.163 535.614 941.218 533.706 936.576 532.737C938.007 534.225 939.513 536.25 941.507 537.036C943.946 537.999 946.252 540.844 948.099 542.617L947.082 544.371C934.903 533.873 922.181 523.333 908.176 514.928C880.675 498.417 847.489 487.603 815.997 479.482C804.316 476.472 792.241 474.665 780.681 471.343C772.601 496.954 770.309 526.833 769.113 553.474L768.861 554.403C766.263 565.05 767.604 578.18 767.52 589.156C765.697 584.52 767.312 579.178 766.673 574.326L766.069 574.783C764.636 575.835 765.887 574.938 764.393 575.853C763.278 576.535 763.243 577.072 762.437 577.964L760.182 580.048L760.321 581.35L760.46 590.447L759.483 591.469C756.954 580.391 760.015 568.079 758.862 556.684Z" fill="#EC3676"/>
<path d="M904.344 493.786C908.075 497.957 910.26 500.166 911.329 505.58L898.122 498.692L899.278 494.622L902.922 495.303L904.344 493.786Z" fill="#231929"/>
<path d="M782.635 598.387C781.392 560.493 784.979 524.395 790.883 486.951C840.108 499.442 897.007 514.134 933.285 549.556C941.596 557.671 948.174 567.65 954.968 576.864C970.707 603.798 982.461 631.28 990.518 660.994C993.602 672.365 997.628 683.217 993.775 694.763C988.351 711.031 979.325 731.555 967 744.134C956.648 758.587 941.568 771.054 922.745 774.594C908.983 777.187 894.738 774.842 882.071 769.633C875.453 766.543 868.757 762.329 863.003 757.988C849.842 748.063 839.019 735.415 829.612 722.45C803.009 685.79 787.146 642.118 782.635 598.387Z" fill="url(#paint10_linear_14_1119)"/>
<path d="M882.071 769.633L885.149 768.827L886.34 768.241L888.597 769.282C890.721 770.152 889.319 769.394 891.224 770.488L892.264 771.103L893.958 770.847C895.319 771.382 896.481 771.866 897.963 772.042L899.038 772.141C903.347 772.926 907.136 772.843 911.457 773.181C913.896 773.37 912.338 773.565 914.185 773.33C916.115 773.088 917.691 772.79 919.641 773.149L921.052 773.437L922.182 771.888L925.005 772.396L926.699 770.847L930.089 771.097C932.947 768.305 934.597 767.664 934.611 763.559L936.293 762.785C937.516 761.116 939.062 760.057 940.813 758.885L942.501 758.88L943.244 758.169C946.021 755.628 948.478 756.29 952.099 756.29C954.214 754.954 957.214 753.115 958.59 751.087C960.283 748.59 963.023 746.876 964.347 744.547L964.881 743.536L967 744.134C956.648 758.587 941.568 771.055 922.745 774.595C908.983 777.187 894.738 774.842 882.071 769.633Z" fill="white"/>
<path d="M1041.48 347.82L1042.18 347.581C1042.34 339.244 1041.28 332.042 1041.28 323.759L1042.97 324.789C1043.27 325.75 1043.53 326.391 1044.14 327.238C1046.52 330.525 1043.89 342.412 1045.23 347.341L1046.09 339.188L1046.4 339.896C1048.79 346.106 1047.26 353.913 1047.43 360.45C1047.5 362.821 1048.62 365.422 1048.65 368.187C1048.67 370.189 1048.03 374.988 1048.69 376.699C1049.67 379.228 1053.72 382.512 1055.39 385.113L1059.32 390.032C1060.93 392.27 1062.8 394.266 1064.42 396.55C1067.94 401.501 1073.17 405.719 1076.27 410.58C1077.64 412.728 1081.11 414.146 1082.48 416.294C1086.14 422.043 1093.89 428.849 1099.98 432.416C1103.63 434.553 1106.34 438.423 1110.14 440.734C1112.92 442.421 1116.31 446.789 1119.46 447.75C1121.77 448.455 1124.91 452.368 1127.38 453.866C1135.99 458.391 1144.01 462.493 1153.13 466.158C1150.69 466.147 1148.69 466.701 1146.83 465.149L1145.71 465.17C1148.54 467.036 1150.92 467.798 1153.43 470.225C1168.38 475.966 1182.67 474.505 1197.54 478.383L1196.55 479.485C1193.2 483.249 1191.98 485.612 1191.42 490.47C1175.45 499.051 1159.33 507.816 1145.34 519.051C1125.1 535.303 1110.2 556.583 1099.3 579.015C1095.11 587.631 1090.36 596.513 1087.47 605.587L1087.15 606.737C1077.21 625.275 1072.25 649.696 1068.53 670.044C1067.56 675.37 1065.66 680.859 1065.83 686.294C1066.08 693.922 1069.75 702.65 1072.42 709.919C1082.99 738.734 1103.35 778.065 1134.04 791.989C1138.95 794.211 1143.82 795.954 1149.09 797.259L1151.51 797.677C1173.98 800.969 1190.91 795.853 1209.3 783.878L1211.45 785.912C1210.22 793.868 1207.04 801.839 1204.97 809.683C1202.88 817.551 1201.57 825.84 1200.55 833.878C1199.95 838.592 1198.72 843.612 1200.74 848.099L1204.77 851.679L1187.69 885.663C1184.18 892.453 1180.94 900.361 1176.63 906.69L1172.3 905.293C1167.45 907.321 1162.73 909.121 1157.51 910.177C1153.52 910.981 1149.17 911.096 1145.32 912.357C1140.25 914.026 1134.96 917.422 1130.27 919.927C1110.56 930.454 1094.75 942.351 1079.6 958.005C1070.77 966.911 1062.98 976.546 1054.26 985.51C1052.23 987.592 1045.87 991.949 1044.9 994.225C1044.41 995.375 1044.76 998.68 1044.71 1000.01C1044.54 1005.34 1045.45 1026.11 1041.28 1029.25L1039.33 1028.69C1038.39 1019.19 1039.95 1009.46 1039.63 999.905C1039.57 998.356 1039.9 993.977 1039.23 992.665C1038.19 990.621 1034.27 987.589 1032.51 985.784C1025.02 978.42 1018.95 969.937 1011.35 962.612C989.498 941.566 958.864 924.276 927.271 919.969C913.723 918.122 897.651 919.884 884.837 916.435L883.84 916.145L873.398 927.167L875.754 921.865L876.132 921.079L873.555 920.88C873.56 919.214 878.17 915.631 878.759 913.733C879.571 911.117 878.785 905.386 878.791 902.426C878.817 885.772 878.505 869.028 876.592 852.454C874.722 836.239 871.176 820.029 866.986 804.2C865.35 798.023 862.07 792.05 861.249 785.779L861.162 784.994L865.52 787.272C872.618 790.011 879.571 792.88 887.036 794.698C908.94 800.035 932.589 798.214 952.258 787.466C989.088 767.341 1009.27 728.659 1020.3 691.819C1020.67 690.595 1021.12 689.387 1021.17 688.104C1021.42 681.436 1018.65 672.967 1017.09 666.419C1010.34 638.096 1000.37 610.825 986.718 584.695C979.664 571.193 971.294 556.801 960.549 545.486C948.521 528.931 929.112 516.408 911.33 505.58C910.26 500.166 908.076 497.957 904.345 493.786L902.923 495.303L899.278 494.622L898.122 498.691L883.404 492.045L876.783 489.296L877.999 488.348C879.008 483.307 878.505 472.117 876.465 467.353C874.338 462.392 870.349 457.561 867.497 452.879L868.795 452.725L868.303 451.471C866.994 448.296 863.87 445.804 862.061 442.807L861.22 441.766V440.728C862.72 441.556 863.691 441.655 864.306 443.161C864.887 444.58 865.74 445.293 866.827 446.366C867.535 447.063 867.951 447.774 868.558 448.524C872.5 453.39 875.664 458.857 880.976 462.562L882.407 462.642C884.661 462.831 883.427 462.61 884.993 463.23C889.64 465.064 901.489 463.544 906.931 463.475L906.235 462.703C910.058 460.057 914.685 462.128 918.797 460.616C921.557 459.602 925.372 459.459 928.389 458.966C933.753 458.093 938.736 456.288 944.033 455.266C945.504 454.984 946.614 454.726 948.01 454.159L956.503 451.247L958.876 450.223C960.705 449.64 961.746 449.616 963.39 448.567C964.54 447.832 965.254 447.428 966.598 446.93C968.121 446.363 967.563 446.701 968.705 445.993C973.314 443.129 977.953 440.896 982.285 437.556L984.27 436.06C990.053 432.65 994.51 426.898 1000.08 423.582C1008.86 418.352 1019.6 407.649 1024.92 399.659C1027.79 395.36 1032.97 391.158 1036.21 386.662C1037.34 385.097 1038.7 383.481 1039.35 381.693L1039.6 380.945C1043.3 373.95 1040.08 357.285 1041.31 348.877L1041.48 347.82Z" fill="url(#paint11_linear_14_1119)"/>
<path d="M930.132 849.321C933.438 843.292 938.443 837.862 942.501 832.23L942.784 834.519L941.937 835.493L938.55 839.978L939.397 840.758L941.374 838.937L942.091 839.978C940.042 842.77 935.36 851.045 932.646 852.586L930.132 849.321Z" fill="#100918"/>
<path d="M1159.96 851.57L1150.26 837.378H1153.04C1152.53 836.114 1152.12 835.025 1151.26 833.918C1149.78 832.012 1148.92 829.888 1147.28 828.07C1145.84 826.486 1146.1 825.408 1145.88 823.417L1163.96 849.249L1159.96 851.57Z" fill="#100918"/>
<path d="M1127.38 453.866C1135.99 458.391 1144.01 462.493 1153.13 466.158C1150.69 466.147 1148.69 466.701 1146.83 465.149L1145.71 465.17C1148.54 467.036 1150.92 467.797 1153.43 470.225C1143.75 467.332 1135.27 462.618 1126.54 457.883C1128.66 457.662 1129.09 457.635 1131.03 458.402C1131.03 456.712 1128.33 456.089 1127.38 453.866Z" fill="#231929"/>
<path d="M930.132 849.321L932.646 852.587C928.143 858.434 923.597 864.247 919.025 870.047C917.757 871.657 915.364 875.626 913.708 876.667L910.957 873.164C911.786 870.854 914.586 868.107 916.15 866.097C920.635 860.34 925.057 854.657 930.132 849.321Z" fill="#1A181F"/>
<path d="M1159.96 851.57L1163.96 849.249C1169.55 857.175 1175.19 865.08 1180.19 873.339C1182.56 877.257 1185.12 880.797 1185 885.431C1184.05 885.093 1183.01 884.915 1182.14 884.42C1180.21 883.318 1177.57 877.35 1176.26 875.224C1171.26 867.074 1165.76 859.248 1159.96 851.57Z" fill="#1A181F"/>
<path d="M1075.27 957.738C1080.39 951.526 1086.63 946.075 1092.65 940.608C1105.85 928.612 1125.63 916.216 1142.83 909.631C1147.6 907.803 1152.67 906.983 1157.56 905.5C1162.96 903.861 1168.13 901.337 1173.93 901.377L1174.82 902.879L1172.3 905.293C1167.45 907.321 1162.73 909.12 1157.51 910.177C1153.52 910.981 1149.17 911.095 1145.32 912.357C1140.25 914.026 1134.96 917.422 1130.27 919.927C1110.56 930.453 1094.75 942.351 1079.6 958.004L1075.27 957.738Z" fill="#1A181F"/>
<path d="M867.497 452.879L868.795 452.725C872.312 457.106 875.196 461.215 877.589 466.201L878.057 466.994C879.378 469.831 877.982 473.307 879.297 476.336C881.08 480.446 877.817 485.657 881.823 488.295C881.979 484.353 881.245 476.682 883.236 473.478C882.696 470.997 881.496 468.551 882.953 466.206L884.363 464.641C900.333 464.641 917.228 465.493 932.343 461.521C933.976 461.093 935.314 461.511 937.013 460.84C938.548 460.233 939.805 460.561 941.438 460.742C923.442 465.591 904.102 466.956 885.438 466.073L904.345 493.786L902.923 495.303L899.278 494.622L898.122 498.692L883.404 492.045L876.783 489.296L877.999 488.348C879.008 483.307 878.505 472.118 876.465 467.353C874.338 462.392 870.35 457.561 867.497 452.879Z" fill="#1A181F"/>
<path d="M883.403 492.045L884.525 473.983C888.689 482.378 893.388 487.449 899.278 494.622L898.122 498.692L883.403 492.045Z" fill="#100918"/>
<path d="M883.84 916.145C885.106 914.29 885.441 913.893 885.53 911.734L886.973 912.304C891.478 913.941 899.307 912.999 904.206 913.052C910.526 913.121 916.494 913.834 922.733 914.689C958.179 919.541 987.686 934.036 1012.81 957.552C1021.36 965.559 1028.7 974.563 1036.73 983.003C1034.92 983.929 1033.94 984.377 1032.51 985.785C1025.02 978.42 1018.95 969.937 1011.35 962.612C989.498 941.566 958.864 924.276 927.271 919.97C913.722 918.122 897.651 919.884 884.837 916.435L883.84 916.145Z" fill="#1A181F"/>
<path d="M861.162 784.994L865.52 787.272C871.101 797.831 873.468 809.148 875.959 820.607C880.294 840.551 882.834 859.661 884.334 879.943C884.846 886.84 883.701 897.579 885.684 904.053L910.957 873.164L913.708 876.667L885.531 911.734C885.441 913.893 885.106 914.289 883.84 916.145L873.398 927.167L875.754 921.865L876.132 921.079L873.555 920.88C873.56 919.214 878.17 915.631 878.759 913.733C879.571 911.117 878.785 905.386 878.791 902.426C878.817 885.772 878.505 869.028 876.592 852.454C874.722 836.239 871.176 820.029 866.986 804.2C865.35 798.023 862.07 792.05 861.249 785.779L861.162 784.994Z" fill="#262533"/>
<path d="M1036.73 983.003L1039.56 984.648C1042.03 975.955 1041.24 964.504 1041.69 955.372C1042.89 930.903 1044.03 906.2 1044.48 881.721C1044.58 876.174 1042.61 865.905 1044.67 861.032C1049.99 863.151 1044.41 876.712 1048.06 880.007C1048.02 872.506 1046.85 863.369 1048.62 856.103L1049.74 857.133L1045.77 988.504L1075.27 957.738L1079.6 958.004C1070.77 966.91 1062.98 976.546 1054.26 985.51C1052.23 987.592 1045.87 991.949 1044.9 994.224C1044.41 995.374 1044.76 998.68 1044.71 1000.01C1044.54 1005.34 1045.45 1026.11 1041.28 1029.25L1039.33 1028.68C1038.39 1019.19 1039.95 1009.46 1039.63 999.904C1039.57 998.355 1039.9 993.977 1039.23 992.665C1038.19 990.621 1034.27 987.589 1032.51 985.784C1033.94 984.376 1034.92 983.929 1036.73 983.003Z" fill="url(#paint12_linear_14_1119)"/>
<path d="M1209.3 783.878L1211.45 785.912C1210.22 793.868 1207.04 801.839 1204.96 809.683C1202.88 817.551 1201.57 825.84 1200.55 833.878C1199.95 838.592 1198.72 843.612 1200.74 848.099L1204.77 851.679L1187.69 885.663L1185 885.432C1185.12 880.798 1182.56 877.258 1180.19 873.34C1175.19 865.081 1169.55 857.175 1163.96 849.249L1145.88 823.418C1143.53 815.621 1137.29 806.234 1132.87 799.239L1149.09 797.259L1151.51 797.676C1173.98 800.969 1190.91 795.853 1209.3 783.878Z" fill="#020206"/>
<path d="M1604.23 462.624C1601.23 461.96 1597.83 461.31 1594.69 461.259C1582.1 461.048 1572.86 469.491 1564.57 476.085C1561.97 476.596 1557.88 477.826 1555.29 477.66C1549.81 477.305 1542.26 471.415 1536.29 469.929C1528.01 467.866 1517.63 469.798 1511.03 474.447C1507.21 477.141 1503.55 481.194 1499.35 483.378C1496.19 485.02 1491.98 484.613 1488.83 486.241C1486.8 487.29 1485.76 488.674 1485.45 490.629C1485.1 492.787 1486.46 494.458 1488.07 495.989C1489.82 496.516 1491.51 496.915 1493.41 496.915C1504.03 496.91 1511.73 490.572 1518.71 484.751C1530.94 475.51 1541.18 488.082 1554.04 489.111C1565.99 490.067 1572.41 486.831 1580.72 480.096C1584.17 477.307 1587.88 474.052 1592.88 473.44C1599.16 472.673 1606.28 477.365 1611.71 479.512C1616.41 481.365 1621.53 481.968 1626.73 481.447C1630.53 481.066 1636.45 480.025 1638.78 477.306C1640.79 474.948 1640.26 473.327 1639.5 470.822C1638.35 469.794 1637.02 468.384 1635.39 467.881C1632.56 467.005 1626.84 469.718 1623.98 470.652L1604.23 462.624Z" fill="#B10028"/>
<path d="M1523.95 232.987C1520.85 233.528 1517.38 234.234 1514.43 235.372C1502.55 239.939 1497.62 250.952 1492.76 259.96C1490.55 261.398 1487.27 264.037 1484.76 264.868C1479.48 266.62 1469.82 264.223 1463.59 265.15C1454.94 266.437 1446.07 272.081 1441.94 278.715C1439.55 282.56 1437.9 287.554 1434.94 291.084C1432.71 293.741 1428.58 294.969 1426.35 297.611C1424.91 299.31 1424.55 300.937 1425.11 302.797C1425.74 304.851 1427.75 305.826 1429.93 306.584C1431.79 306.394 1433.56 306.109 1435.33 305.394C1445.27 301.378 1449.69 292.821 1453.66 284.999C1461.04 272.145 1476.15 279.483 1488.63 275.545C1500.24 271.883 1504.82 266.578 1509.64 257.435C1511.63 253.649 1513.67 249.347 1518.09 246.911C1523.63 243.858 1532.35 245.352 1538.38 245.212C1543.59 245.091 1548.64 243.696 1553.28 241.269C1556.68 239.491 1561.76 236.328 1562.73 233.029C1563.58 230.166 1562.38 228.92 1560.57 226.975C1559.03 226.496 1557.17 225.74 1555.42 225.907C1552.39 226.195 1548.23 230.773 1545.96 232.686L1523.95 232.987Z" fill="#B10028"/>
<path d="M1366.74 63.9489C1364.53 66.108 1362.12 68.6007 1360.42 71.1319C1353.59 81.302 1356.73 92.4674 1358.63 102.063C1357.74 104.404 1356.75 108.263 1355.23 110.305C1352.01 114.614 1342.44 118.233 1337.89 122.453C1331.57 128.31 1327.94 137.604 1328.87 144.982C1329.41 149.258 1331.33 153.985 1331.19 158.342C1331.09 161.624 1328.48 164.883 1328.37 168.153C1328.3 170.255 1329.06 171.699 1330.75 172.797C1332.62 174.008 1334.92 173.617 1337.22 172.968C1338.64 171.77 1339.91 170.56 1340.91 169.017C1346.5 160.358 1344.54 151.353 1342.69 143.162C1340.37 129.216 1357.69 126.286 1365.44 116.253C1372.64 106.924 1372.95 100.305 1370.94 90.6282C1370.11 86.621 1368.97 82.1954 1371.03 77.8521C1373.61 72.4087 1381.81 68.6288 1386.71 65.1235C1390.94 62.0959 1394.21 58.1866 1396.45 53.7256C1398.1 50.4579 1400.23 45.1856 1398.87 42.1239C1397.69 39.4678 1395.88 39.1979 1393.1 38.7374C1391.52 39.2382 1389.48 39.7138 1388.14 40.8236C1385.82 42.752 1385.38 48.5828 1384.76 51.3152L1366.74 63.9489Z" fill="#B10028"/>
</g>
<defs>
<linearGradient id="paint0_linear_14_1119" x1="682.855" y1="544.179" x2="641.921" y2="528.514" gradientUnits="userSpaceOnUse">
<stop stop-color="#1B1628"/>
<stop offset="1" stop-color="#33384B"/>
</linearGradient>
<linearGradient id="paint1_linear_14_1119" x1="718.98" y1="656.467" x2="553.575" y2="466.248" gradientUnits="userSpaceOnUse">
<stop stop-color="#0F0717"/>
<stop offset="1" stop-color="#292D41"/>
</linearGradient>
<linearGradient id="paint2_linear_14_1119" x1="939.114" y1="331.038" x2="882.28" y2="221.989" gradientUnits="userSpaceOnUse">
<stop stop-color="#161022"/>
<stop offset="1" stop-color="#2F364B"/>
</linearGradient>
<linearGradient id="paint3_linear_14_1119" x1="1255.21" y1="383.023" x2="1203.34" y2="150.276" gradientUnits="userSpaceOnUse">
<stop stop-color="#08000B"/>
<stop offset="1" stop-color="#222135"/>
</linearGradient>
<linearGradient id="paint4_linear_14_1119" x1="1153.61" y1="244.742" x2="1161.12" y2="228.423" gradientUnits="userSpaceOnUse">
<stop stop-color="#171225"/>
<stop offset="1" stop-color="#38374B"/>
</linearGradient>
<linearGradient id="paint5_linear_14_1119" x1="1127.64" y1="543.138" x2="1194.96" y2="416.495" gradientUnits="userSpaceOnUse">
<stop stop-color="#E0144C"/>
<stop offset="1" stop-color="#EF4C7D"/>
</linearGradient>
<linearGradient id="paint6_linear_14_1119" x1="1142.32" y1="767.717" x2="1226.71" y2="628.183" gradientUnits="userSpaceOnUse">
<stop stop-color="white"/>
<stop offset="1" stop-color="white"/>
</linearGradient>
<linearGradient id="paint7_linear_14_1119" x1="1105.06" y1="719.889" x2="1296.55" y2="518.676" gradientUnits="userSpaceOnUse">
<stop stop-color="white"/>
<stop offset="1" stop-color="white"/>
</linearGradient>
<linearGradient id="paint8_linear_14_1119" x1="1135.54" y1="558.736" x2="1228.8" y2="442.293" gradientUnits="userSpaceOnUse">
<stop stop-color="#DF0D4D"/>
<stop offset="1" stop-color="#EC4173"/>
</linearGradient>
<linearGradient id="paint9_linear_14_1119" x1="934.6" y1="792.67" x2="852.676" y2="538.038" gradientUnits="userSpaceOnUse">
<stop stop-color="#C40033"/>
<stop offset="1" stop-color="#DE165F"/>
</linearGradient>
<linearGradient id="paint10_linear_14_1119" x1="930.083" y1="770.836" x2="854.638" y2="474.543" gradientUnits="userSpaceOnUse">
<stop stop-color="white"/>
<stop offset="1" stop-color="white"/>
</linearGradient>
<linearGradient id="paint11_linear_14_1119" x1="1177.31" y1="900.8" x2="745.286" y2="618.969" gradientUnits="userSpaceOnUse">
<stop stop-color="#010004"/>
<stop offset="1" stop-color="#170C25"/>
</linearGradient>
<linearGradient id="paint12_linear_14_1119" x1="1046.36" y1="881.045" x2="973.176" y2="945.443" gradientUnits="userSpaceOnUse">
<stop stop-color="#0E0F1A"/>
<stop offset="1" stop-color="#333235"/>
</linearGradient>
<clipPath id="clip0_14_1119">
<rect width="1920" height="1080" fill="white"/>
</clipPath>
</defs>
</svg>
