<svg width="1920" height="1080" viewBox="0 0 1920 1080" fill="none" xmlns="http://www.w3.org/2000/svg">
<g clip-path="url(#clip0_14_1357)">
<path d="M1101.13 156.985C1113.3 161.546 1129.01 167.18 1139.27 174.872C1129.01 174.192 1119.36 166.343 1108.46 166.573L1106.15 166.595C1105.48 163.313 1102.87 159.909 1101.13 156.985Z" fill="#757E8D"/>
<path d="M1078.73 149.333C1086.5 151.394 1093.73 153.778 1101.1 156.879L1101.13 156.985C1102.87 159.909 1105.48 163.312 1106.15 166.595L1104.14 166.727C1105.35 170.901 1121.5 185.88 1125.89 188.683L1126.66 188.905L1130.54 192.513C1128.93 193.12 1127.5 193.589 1125.78 193.864L1116.47 185.083C1112.3 180.042 1106.27 175.487 1101.37 171.021C1099.3 168.401 1094.42 161.807 1091.19 160.723C1088.37 159.78 1086.63 156.412 1083.81 155L1082.63 154.447C1082.22 152.526 1080.81 151.425 1079.44 150.035L1078.73 149.333Z" fill="#6B7081"/>
<path d="M1108.46 166.573C1119.36 166.343 1129.01 174.192 1139.27 174.871C1167.46 189.121 1193.41 209.858 1215.5 231.358C1221.9 237.596 1229.65 244.712 1234.55 252.047C1229.32 250.244 1225.14 246.262 1220.97 242.945C1207.24 232.055 1195.76 218.797 1180.39 209.714C1174.05 206.384 1168.58 201.376 1162.72 197.347C1154.67 191.817 1146.01 186.796 1137.52 181.87C1131.77 178.534 1125.86 175.239 1119.81 172.389C1115.82 170.513 1111.75 169.494 1108.46 166.573Z" fill="#6B7081"/>
<path d="M738.565 258.973C742.446 260.391 744.886 260.711 746.896 264.44L747.204 265.204L747.104 266.196C744.707 267.695 744.06 268.445 742.87 270.886C740.754 275.205 736.791 277.561 733.66 281.156C725.602 290.412 718.284 301.466 711.695 311.722C709.549 315.058 706.53 318.29 705.562 322.09C703.743 324 702.204 325.384 701.267 327.782L691.024 345.666L684.74 358.5C681.612 364.035 680.324 369.767 676.87 375.229L677.897 370.75C679.034 366.462 678.151 363.429 677.148 359.194L681.793 349.005C693.046 317.063 716.12 284.983 738.565 258.973Z" fill="#757E8D"/>
<path d="M681.793 349.005C685.197 346.424 686.623 343.355 689.05 340.103L700.684 321.197C705.774 314.14 710.994 307.428 716.033 300.354C719.094 296.057 722.189 291.277 725.478 287.188L727.243 285C730.541 279.154 738.339 275 741.262 268.982C741.842 267.785 742.084 267.277 743.054 266.193C744.281 264.82 745.393 265.286 747.204 265.205L747.104 266.196C744.707 267.696 744.06 268.445 742.87 270.886C740.754 275.205 736.791 277.561 733.66 281.156C725.602 290.412 718.284 301.466 711.695 311.722C709.549 315.058 706.53 318.29 705.562 322.09C703.743 324 702.204 325.384 701.267 327.783L691.024 345.666L684.74 358.5C681.612 364.035 680.324 369.767 676.87 375.229L677.897 370.75C679.034 366.462 678.151 363.429 677.148 359.194L681.793 349.005Z" fill="#787F8C"/>
<path d="M676.87 375.229C680.324 369.767 681.612 364.035 684.74 358.5L691.024 345.666L701.267 327.782C702.204 325.384 703.743 324 705.562 322.09L705.245 323.174C702.525 332.068 697.226 338.645 693.436 346.778C687.149 360.258 681.733 375.03 676.377 388.906C666.143 415.402 663.039 445.519 661.004 473.465C660.593 479.121 661.63 484.892 661.08 490.503L659.037 495.928C657.045 501.236 660.2 515.654 656.999 518.656L655.101 534.105C652.98 525.003 652.877 515.253 652.487 505.977C651.456 481.305 653.321 457.85 656.522 433.348C660.128 407.772 667.769 383.41 677.148 359.194C678.151 363.429 679.034 366.461 677.897 370.75L676.87 375.229Z" fill="#6B7081"/>
<path d="M677.148 359.194C678.151 363.429 679.034 366.462 677.897 370.75L676.87 375.229C674.95 379.762 672.417 385.005 671.49 389.796C671.163 391.481 670.51 392.565 669.987 394.146C668.715 397.994 667.252 402.268 666.445 406.214L665.556 410.398L664.084 416.088L663.48 416.635L663.187 410.598C663.023 413.493 662.579 419.657 660.518 421.573L660.599 422.55C660.841 427.198 659.088 429.627 656.522 433.348C660.128 407.772 667.769 383.41 677.148 359.194Z" fill="#757E8D"/>
<path d="M1289.62 388.063C1291.73 382.629 1294.95 376.912 1298.63 372.253C1299.7 370.902 1303.91 370.854 1305.82 370.604C1316.25 400.678 1324.21 431.402 1327.31 462.953C1326.51 463.63 1326.99 463.29 1325.82 463.902C1325.17 461.723 1324.16 459.8 1323.11 457.772C1316.86 456.514 1307.71 459.631 1301.44 460.951L1297.62 461.81C1294.91 455.817 1294.56 447.266 1293.79 440.753C1291.94 425.111 1290.53 409.55 1290.33 393.806L1287.13 393.863L1289.62 388.063Z" fill="url(#paint0_linear_14_1357)"/>
<path d="M1290.33 393.806L1292.21 391.801C1297.67 414.369 1295.71 438.299 1301.44 460.951L1297.62 461.81C1294.91 455.817 1294.56 447.266 1293.79 440.753C1291.94 425.111 1290.53 409.55 1290.33 393.806Z" fill="#3B3D4D"/>
<path d="M747.104 266.196L748.621 268.1L749.963 273.169C749.785 274.537 749.498 279.923 748.645 280.667L746.708 280.058L746.345 281.052C742.887 288.432 735.382 294.599 731.792 302.51C731.32 303.549 730.852 303.867 730.178 304.74C727.645 308.029 726.832 312.553 724.287 316.249L723.543 316.423C722.186 316.847 721.258 317.63 720.152 318.442C721.047 319.287 720.493 318.883 721.899 319.551L718.973 321.733L717.19 320.647L716.996 321.349C716.579 322.517 715.869 323.244 715.047 324.177C707.333 338.331 698.65 352.018 692.181 366.723C686.07 380.616 682.089 395.323 678.239 409.859C674.962 422.23 670.891 434.766 668.829 447.356C665.239 469.294 665.801 492.18 666.608 514.273C667.143 528.904 668.654 542.578 670.885 557.03C671.831 563.157 672.257 570.029 674.073 575.969C674.602 577.699 674.944 578.249 676.355 579.37L677.967 577.112C679.242 578.266 679.877 578.892 680.705 580.395L679.511 583.411C677.374 586.52 671.577 594.793 671.296 598.121C671.096 600.449 672.39 604.521 672.846 606.903C673.829 612.039 673.399 617.016 673.046 622.191C668.974 611.486 666.81 599.781 664.417 588.663C660.548 570.687 656.954 552.362 655.101 534.105L656.999 518.657C660.2 515.654 657.045 501.236 659.036 495.929L661.08 490.503C661.63 484.892 660.593 479.121 661.004 473.465C663.038 445.519 666.142 415.403 676.377 388.906C681.733 375.03 687.149 360.258 693.436 346.778C697.226 338.645 702.525 332.068 705.245 323.174L705.562 322.09C706.529 318.29 709.549 315.058 711.695 311.722C718.284 301.466 725.602 290.412 733.66 281.156C736.791 277.561 740.753 275.205 742.869 270.886C744.06 268.445 744.707 267.695 747.104 266.196Z" fill="#565769"/>
<path d="M655.101 534.105L656.999 518.656C660.2 515.654 657.045 501.236 659.036 495.929L661.08 490.503C661.046 504.008 660.209 517.963 661.246 531.429C661.983 540.974 664.329 550.312 665.55 559.796C666.934 570.535 667.69 580.313 671.235 590.713L676.355 579.37L677.967 577.112C679.242 578.266 679.877 578.892 680.705 580.395L679.511 583.411C677.374 586.52 671.577 594.793 671.296 598.121C671.096 600.449 672.39 604.521 672.846 606.903C673.829 612.039 673.399 617.016 673.046 622.191C668.974 611.486 666.81 599.781 664.417 588.663C660.548 570.686 656.954 552.362 655.101 534.105Z" fill="#5A5B6D"/>
<path d="M1106.15 166.596L1108.46 166.573C1111.75 169.494 1115.83 170.513 1119.81 172.389C1125.86 175.24 1131.77 178.534 1137.52 181.87C1146.01 186.796 1154.67 191.817 1162.72 197.347C1168.58 201.377 1174.05 206.384 1180.39 209.715C1195.76 218.797 1207.24 232.055 1220.97 242.946C1225.14 246.262 1229.32 250.245 1234.55 252.048L1259.38 282.591L1255 284.436C1251.3 284.11 1249.55 282.386 1246.83 280.173C1243.43 279.384 1240.06 277.368 1236.92 275.882L1230.36 272.054L1222.09 266.8C1210.87 261.065 1200.81 253.309 1190.68 246.052C1167.97 229.778 1146.49 212.31 1125.78 193.865C1127.5 193.589 1128.93 193.12 1130.54 192.514L1126.66 188.905L1125.89 188.683C1121.5 185.881 1105.35 170.901 1104.14 166.728L1106.15 166.596Z" fill="#5A5B6D"/>
<path d="M1126.66 188.905C1127.45 188.829 1129.81 188.34 1130.44 188.531C1133.97 189.61 1138.43 192.744 1141.73 194.51C1150.35 199.138 1159.61 203.854 1167.41 209.641C1179.21 218.398 1193.12 228.101 1203.55 238.163C1209.25 243.67 1213.47 251.165 1219.7 256.086C1224.34 259.742 1229.97 262.34 1234.76 265.993L1238.06 269.636L1237.29 270.318C1234.06 269.001 1231.46 267.628 1228.69 265.589C1200.89 250.604 1174.92 231.499 1151.75 210.815C1149.71 209.934 1147.49 207.291 1145.84 205.808C1140.83 201.289 1135.9 196.681 1130.54 192.513L1126.66 188.905Z" fill="#2F2C3F"/>
<path d="M1151.75 210.815L1153.69 209.987C1176.71 223.076 1195.66 242.027 1217.22 256.878L1218.16 257.538C1222 260.191 1225.7 261.553 1229.24 264.786L1228.69 265.589C1200.89 250.604 1174.92 231.499 1151.75 210.815Z" fill="#252132"/>
<path d="M1106.15 166.596L1108.46 166.573C1111.75 169.494 1115.83 170.513 1119.81 172.389C1125.86 175.24 1131.77 178.534 1137.52 181.87C1146.01 186.796 1154.67 191.817 1162.72 197.347C1168.58 201.377 1174.05 206.384 1180.39 209.715C1191.09 222.411 1205.2 233.327 1217.56 244.69C1222.29 249.04 1228.08 253.432 1231.38 258.673L1232.23 259.63C1233.54 261.256 1233.79 262.776 1234.35 264.674L1234.76 265.994C1229.97 262.34 1224.34 259.742 1219.7 256.086C1213.47 251.166 1209.25 243.67 1203.55 238.163C1193.12 228.101 1179.21 218.398 1167.41 209.642C1159.61 203.854 1150.35 199.139 1141.73 194.511C1138.43 192.744 1133.97 189.61 1130.44 188.532C1129.81 188.341 1127.45 188.829 1126.66 188.905L1125.89 188.683C1121.5 185.881 1105.35 170.901 1104.14 166.728L1106.15 166.596Z" fill="#565769"/>
<path d="M963.487 137.187C977.726 135.74 996.511 133.786 1010.39 136.49C1011.73 138.917 1012.81 139.189 1014.14 140.739C1014.58 141.245 1014.04 143.64 1014.44 144.303C1015.02 145.283 1017.91 147.05 1018.95 147.864C1010.41 147.162 1001.9 147.285 993.34 147.305C991.373 147.308 986.957 146.78 985.216 147.33C981.982 148.358 978.497 148.774 975.181 149.526C972.884 150.046 969.84 149.136 967.504 149.734C961.864 151.181 953.307 151.869 947.434 151.742C944.569 153.481 943.179 152.085 940.349 152.835C936.659 153.815 932.832 155.247 929.133 156.106C927.534 156.48 926.996 155.66 925.442 156.623C924.218 157.381 923.429 157.387 922.054 157.746C916.266 159.271 910.813 161.414 904.928 162.689L903.163 163.234L888.722 168.418C881.543 170.625 874.546 174.332 867.745 177.495C856.804 182.578 845.778 187.652 835.601 193.954C834.259 194.786 834.893 194.387 833.059 195.151C830.311 196.296 829.302 198.582 827.005 199.987C820.494 203.977 814.307 210.512 807.531 213.694C802.477 216.067 798.46 221.291 793.947 224.121C783.441 230.71 769.837 242.123 762.664 252.09C759.252 256.83 752.128 259.36 750.84 265.376L750.19 264.769C749.83 266.426 750.13 267.05 748.621 268.1L747.104 266.196L747.204 265.205L746.896 264.441C744.886 260.711 742.446 260.391 738.565 258.973L747.996 247.799C763.93 228.952 787.219 209.083 808.652 195.583C816.77 189.02 826.412 183.679 835.504 178.365C873.077 156.41 918.968 140.18 963.487 137.187Z" fill="#757E8D"/>
<path d="M747.996 247.798C746.938 255.092 745.859 258.346 750.19 264.769C749.83 266.426 750.13 267.049 748.621 268.1L747.104 266.196L747.204 265.204L746.896 264.441C744.886 260.711 742.446 260.391 738.565 258.973L747.996 247.798Z" fill="#9094A4"/>
<path d="M808.652 195.583C816.77 189.02 826.412 183.679 835.504 178.365C873.077 156.41 918.968 140.18 963.487 137.187L962.193 138.554L956.88 138.799L956.293 139.916L958.058 140.75C952.66 140.75 948.256 141.792 943.302 142.944C941.7 143.314 941.163 142.497 939.612 143.458C937.481 144.777 934.307 144.918 931.829 145.376C929.296 145.842 927.22 146.552 924.968 147.673C923.254 148.524 922.245 148.591 920.277 148.428C918.161 149.74 916.547 148.97 914.818 150.04C913.591 150.799 912.802 150.804 911.43 151.166C888.298 157.252 867.198 166.98 846.195 177.568C842.664 179.345 840.591 182.35 837.045 184.074L834.679 185.726C830.728 188.472 826.14 190.11 822.123 192.825C817.626 195.869 814.108 195.737 808.652 195.583Z" fill="#787F8C"/>
<path d="M715.047 324.177C715.869 323.244 716.579 322.517 716.996 321.349L717.19 320.646L718.973 321.733L721.899 319.551C720.493 318.883 721.047 319.287 720.152 318.442C721.258 317.63 722.186 316.847 723.543 316.423L724.287 316.249C726.832 312.553 727.645 308.029 730.178 304.74C730.852 303.867 731.32 303.549 731.792 302.51C735.382 294.599 742.887 288.432 746.345 281.052L746.708 280.058L748.645 280.667L746.726 310.416C739.977 379.259 727.222 445.69 704.033 511.529C699.07 525.624 694.355 540.466 687.648 553.904C685.934 559.821 682.881 565.589 680.309 571.24L677.966 577.112L676.355 579.37C674.944 578.249 674.602 577.699 674.073 575.969C672.257 570.029 671.831 563.157 670.885 557.03C668.654 542.578 667.143 528.904 666.608 514.273C665.801 492.179 665.239 469.294 668.829 447.356C670.891 434.766 674.962 422.229 678.238 409.859C682.089 395.323 686.07 380.616 692.181 366.723C698.65 352.018 707.333 338.331 715.047 324.177Z" fill="url(#paint1_linear_14_1357)"/>
<path d="M717.477 327.654C718.163 326.758 719.886 323.862 720.745 323.391C722.752 322.284 723.417 323.101 725.466 321.197L726.636 322.293C726.388 326.645 719.421 333.534 717.202 338.188L715.425 338.744L714.684 340.184C713.348 342.746 711.169 344.647 710.704 347.52H709.824C709.824 344.102 709.824 343.408 711.701 340.51C713.763 336.845 717.774 331.684 717.477 327.654Z" fill="#33354A"/>
<path d="M679.568 443.907C680.031 444.831 681.128 446.404 681.288 447.353C681.687 449.673 680.663 453.868 680.454 456.399C679.919 462.883 679.574 469.387 679.351 475.889C678.686 495.232 679.42 516.497 682.307 535.661L681.745 536.827C681.037 538.382 681.182 537.728 681.191 539.23L682.905 540.598C681.3 541.626 681.21 541.643 680.602 543.35L681.739 544.109C682.899 544.915 683.809 545.791 684.141 547.178L684.132 553.213L682.951 554.308C682.951 556.547 683.546 557.047 681.769 558.698L682.083 562.537C683.295 559.821 684.374 556.915 685.94 554.365C686.499 554.176 687.079 553.75 687.648 553.904C685.934 559.821 682.881 565.59 680.309 571.24L678.105 569.634C675.887 552.407 672.792 535.619 671.813 518.247C671.181 507.008 672.68 495.03 671.362 483.974C671.145 482.16 671.193 481.323 671.921 479.596C673.427 479.374 674.451 479.174 675.878 478.627C676.168 467.017 677.214 455.323 679.568 443.907Z" fill="#2F2C3F"/>
<path d="M715.047 324.177L717.477 327.653C717.773 331.683 713.762 336.845 711.701 340.51L711.287 339.844C708.382 342.748 707.944 345.804 705.396 348.621L706.563 349.171C705.925 349.764 703.223 351.85 703.023 352.459C702.527 353.968 703.616 354.875 702.543 356.369C700.91 358.643 699.919 360.702 699.481 363.432C700.907 366.296 698.263 370.45 697.129 373.435L693.587 374.949L694.757 376.047C694.382 378.035 693.768 378.886 692.396 380.433C692.396 383.579 689.957 384.772 690.129 386.921C690.576 392.495 690.226 398.381 686.091 402.701L685.311 403.47C685.311 406.433 684.09 408.477 683.882 411.572C683.945 414.119 684.855 419.329 684.132 421.573C683.984 422.025 682.899 423.008 682.963 423.218C683.114 423.713 683.742 423.948 684.132 424.314C683.6 429.981 682.552 435.929 680.59 441.318L680.121 442.66C679.735 443.758 679.988 443.407 679.568 443.907C677.214 455.323 676.168 467.017 675.878 478.627C674.451 479.174 673.427 479.374 671.921 479.596C671.193 481.323 671.145 482.16 671.362 483.974C672.68 495.03 671.181 507.008 671.813 518.247C672.792 535.619 675.887 552.407 678.105 569.634L680.309 571.24L677.966 577.112L676.355 579.37C674.944 578.249 674.602 577.699 674.073 575.969C672.257 570.029 671.831 563.158 670.885 557.03C668.654 542.578 667.143 528.904 666.608 514.273C665.801 492.18 665.239 469.295 668.829 447.356C670.891 434.766 674.962 422.23 678.238 409.859C682.089 395.323 686.07 380.616 692.181 366.723C698.65 352.019 707.333 338.331 715.047 324.177Z" fill="#3B3D4D"/>
<path d="M671.921 479.596C673.801 456.416 675.624 433.814 683.882 411.572C683.945 414.119 684.855 419.329 684.132 421.573C683.984 422.025 682.899 423.008 682.963 423.218C683.114 423.713 683.742 423.949 684.132 424.314C683.6 429.981 682.552 435.929 680.59 441.318L680.121 442.66C679.735 443.759 679.989 443.408 679.568 443.907C677.214 455.323 676.168 467.017 675.878 478.627C674.451 479.174 673.427 479.374 671.921 479.596Z" fill="#33354A"/>
<path d="M1064.77 182.131C1063.47 175.054 1063.78 167.994 1063.92 160.844L1101.37 171.021C1106.27 175.486 1112.3 180.042 1116.47 185.082L1125.78 193.864C1146.49 212.309 1167.97 229.777 1190.68 246.051C1200.81 253.308 1210.87 261.065 1222.09 266.799L1230.36 272.054L1236.92 275.882C1240.06 277.367 1243.43 279.383 1246.83 280.173C1249.55 282.386 1251.3 284.11 1255 284.436L1259.38 282.591C1276.29 306.675 1290.41 332.59 1301.45 359.446L1305.82 370.604C1303.91 370.854 1299.7 370.901 1298.63 372.252C1294.95 376.911 1291.73 382.629 1289.62 388.063L1285.44 386.342L1282.35 384.592L1282.91 381.191L1281.94 379.568L1274.69 378.77C1232.03 369.795 1196.99 354.082 1163.11 328.22C1155.29 322.253 1148.52 315.17 1140.67 309.329L1140.02 308.854C1129.55 299.154 1118.93 289.364 1109.47 278.799C1096.79 264.629 1084.48 247.776 1069.82 235.531C1067.1 229.434 1067.79 220.566 1067.37 213.947C1066.68 203.337 1065.62 192.732 1064.77 182.131Z" fill="url(#paint2_linear_14_1357)"/>
<path d="M1064.77 182.131C1063.47 175.054 1063.78 167.994 1063.92 160.844L1101.37 171.021C1106.27 175.486 1112.3 180.042 1116.47 185.082C1113.46 184.563 1112.2 183.819 1109.9 181.926C1108.51 180.774 1104.89 181.451 1102.88 181.078L1092.66 179.123L1091.48 180.159C1087.88 179.657 1084.24 179.356 1080.86 178.036L1083.8 176.391L1083.21 175.832C1080.02 175.245 1076.4 174.183 1073.17 174.197L1072 175.832L1066.69 172.552C1064.96 174.925 1065.11 179.252 1064.77 182.131Z" fill="#33354A"/>
<path d="M1222.09 266.8L1230.36 272.054L1236.92 275.882C1243.62 287.326 1252.32 296.812 1259.76 307.703C1264.43 314.53 1267.53 321.967 1272.03 328.811C1275.32 333.807 1280.76 337.199 1281.77 343.316L1279.79 345.79C1280.31 346.879 1280.61 348.031 1280.97 349.171C1280.03 351.137 1279.92 352.544 1279.79 354.656L1281.86 355.479C1281.49 359.278 1280.2 360.882 1277.86 363.974L1268.39 340.232C1267.66 338.162 1266.9 336.73 1265.51 334.944L1265.05 334.36L1266.22 333.262C1265.41 332.307 1264.54 331.45 1264.12 330.277C1262.95 326.982 1262.21 325.952 1259.32 323.829L1257.96 322.843L1258.55 321.47C1259.29 317.99 1256.66 318.644 1255.01 316.802C1254.63 316.392 1255.24 314.016 1254.42 312.969C1252.75 310.829 1250.38 309.838 1249.14 307.24C1248.3 305.485 1248.35 305.735 1246.74 304.735C1246.11 302.848 1245.49 300.885 1244.2 299.287C1242.82 297.579 1241.11 295.313 1239.19 294.125L1238.48 293.765L1238.33 292.878C1237.63 290.235 1235.16 287.464 1232.75 285.984L1231.99 285.543V282.251L1228.44 281.647C1224.81 276.921 1223.55 272.38 1222.09 266.8Z" fill="#252132"/>
<path d="M1230.36 272.054L1236.92 275.881C1243.62 287.325 1252.32 296.812 1259.76 307.703C1264.43 314.53 1267.53 321.966 1272.03 328.81C1275.31 333.806 1280.76 337.199 1281.77 343.315L1279.79 345.789L1230.36 272.054Z" fill="#25212E"/>
<path d="M1236.92 275.882C1240.06 277.367 1243.43 279.384 1246.83 280.173C1249.55 282.386 1251.3 284.11 1255 284.436L1259.38 282.591C1276.29 306.675 1290.41 332.591 1301.45 359.447L1305.82 370.604C1303.91 370.854 1299.7 370.902 1298.63 372.253C1294.95 376.912 1291.73 382.629 1289.62 388.064L1285.44 386.342L1282.35 384.592L1282.91 381.192L1281.94 379.568C1284.75 379.24 1285.88 379.358 1288.15 377.692L1287.47 375.642C1284.83 374.21 1283.11 373.104 1281.25 370.834L1285.11 370.562L1288.06 373.303L1288.66 372.755L1287.48 371.11L1290.42 370.562L1291.02 369.464L1289.25 368.363C1289.25 367.245 1289.17 367.742 1289.54 366.535L1289.84 365.625L1286.3 362.334C1286.39 360.399 1286.63 358.385 1285.84 356.548L1283.08 351.229C1282.62 349.912 1282.88 350.485 1282.14 349.104L1281.58 348.073L1282.74 347.525L1281.77 343.316C1280.76 337.199 1275.31 333.807 1272.03 328.81C1267.53 321.967 1264.43 314.53 1259.76 307.703C1252.32 296.812 1243.62 287.326 1236.92 275.882Z" fill="url(#paint3_linear_14_1357)"/>
<path d="M1301.45 359.446L1305.82 370.604C1303.91 370.854 1299.7 370.901 1298.63 372.252C1294.95 376.911 1291.73 382.629 1289.62 388.063L1285.44 386.342L1282.35 384.592L1282.91 381.191C1284.41 380.913 1286.71 380.787 1288.06 380.234C1292.26 378.512 1297.31 364.76 1300.57 360.561L1301.45 359.446Z" fill="#565769"/>
<path d="M1236.92 275.882C1240.06 277.367 1243.43 279.384 1246.83 280.173C1248.55 284.15 1249.94 287.258 1253.33 290.258C1256.43 292.996 1259.01 299.067 1261.31 302.589C1267.18 311.581 1272.85 320.411 1278.35 329.619C1282.67 336.862 1286.95 343.043 1288.64 351.364L1288.05 352.465C1286.48 352.002 1284.73 351.266 1283.08 351.229C1282.62 349.912 1282.88 350.485 1282.14 349.104L1281.58 348.073L1282.74 347.525L1281.77 343.316C1280.76 337.199 1275.31 333.807 1272.03 328.81C1267.53 321.967 1264.43 314.53 1259.76 307.703C1252.32 296.812 1243.62 287.326 1236.92 275.882Z" fill="#3B3D4D"/>
<path d="M1069.82 235.532C1084.48 247.776 1096.79 264.629 1109.47 278.8C1118.93 289.365 1129.55 299.155 1140.02 308.855L1140.67 309.329C1148.52 315.17 1155.29 322.253 1163.11 328.221C1196.99 354.083 1232.03 369.795 1274.69 378.771L1281.94 379.568L1282.91 381.192L1282.35 384.592L1285.44 386.342L1289.62 388.064L1287.13 393.863L1290.33 393.807C1290.53 409.55 1291.94 425.111 1293.79 440.754C1294.56 447.266 1294.91 455.817 1297.62 461.81L1235.26 482.162L1220.55 488.726C1220.93 486.875 1221.29 484.667 1222.29 483.005C1223.73 480.643 1227.03 479.306 1227.25 476.49L1223.16 473.94C1218.62 476.338 1208.85 474.527 1203.86 473.737C1178.58 469.733 1149.73 453.318 1131.17 437.044C1123.47 430.29 1116.96 422.629 1109.93 415.299C1097.99 402.841 1086.56 390.237 1076.38 376.479C1076.38 376.434 1079.41 373.648 1079.92 372.859C1078.94 371.61 1076.47 369.175 1075.95 367.818C1075.16 365.796 1075.54 361.157 1075.41 358.882C1074.94 350.864 1074.78 342.855 1074.46 334.832C1073.49 311.174 1072.29 287.309 1070.67 263.685L1070.34 264.317C1068.98 267.21 1069.66 276.5 1067.85 277.317V276.469C1067.82 272.978 1067.22 270.875 1064.9 268.035C1064.12 261.613 1065.54 249.792 1062.19 244.676C1062.72 243.345 1067.16 241.466 1068.3 240.017C1068.98 239.163 1069.45 236.641 1069.82 235.532Z" fill="#0E0717"/>
<path d="M1274.69 378.771L1281.94 379.568L1282.91 381.191L1282.35 384.592L1271.28 382.472C1272.03 380.169 1272.53 380.163 1274.69 378.771Z" fill="#494451"/>
<path d="M1285.44 386.342L1289.62 388.063L1287.13 393.863L1241.22 463.568L1237.94 465.424C1237.84 464.121 1237.92 464.641 1237.66 463.352L1237.48 462.45L1285.44 386.342Z" fill="#3B3D4D"/>
<path d="M1069.82 235.532C1084.48 247.776 1096.79 264.629 1109.47 278.8C1118.93 289.365 1129.55 299.155 1140.02 308.855L1138.61 310.239C1136.5 308.602 1136.07 308.068 1133.27 307.692C1125 302.297 1117.48 293.302 1110.76 286.312C1095.6 270.543 1082.06 256.336 1069.45 238.674L1070.67 263.685L1070.34 264.317C1068.98 267.21 1069.66 276.5 1067.85 277.317V276.469C1067.82 272.978 1067.22 270.875 1064.9 268.035C1064.12 261.613 1065.54 249.792 1062.19 244.676C1062.72 243.345 1067.16 241.466 1068.3 240.017C1068.98 239.163 1069.45 236.641 1069.82 235.532Z" fill="#33354A"/>
<path d="M1133.27 307.692C1136.07 308.068 1136.5 308.602 1138.61 310.239L1140.02 308.855L1140.67 309.329C1148.52 315.17 1155.29 322.253 1163.11 328.221C1196.99 354.083 1232.03 369.795 1274.69 378.771C1272.53 380.164 1272.03 380.169 1271.28 382.472C1260.68 381.442 1249.84 377.673 1239.86 374.261C1197.68 359.857 1164.85 336.941 1133.27 307.692Z" fill="#3B3D4D"/>
<path d="M1079.92 372.859C1111.29 412.109 1149.55 460.418 1205.43 468.334C1213.43 469.466 1222.16 471.207 1230.2 470.342L1235.51 466.248C1235.67 464.161 1236.15 464.049 1237.48 462.451L1237.66 463.352C1237.92 464.641 1237.84 464.122 1237.94 465.425L1241.22 463.569C1238.48 468.927 1234.76 476.139 1235.26 482.163L1220.55 488.726C1220.93 486.875 1221.29 484.668 1222.29 483.005C1223.73 480.643 1227.03 479.306 1227.25 476.49L1223.16 473.94C1218.62 476.338 1208.85 474.527 1203.86 473.738C1178.58 469.733 1149.73 453.318 1131.17 437.044C1123.47 430.29 1116.96 422.629 1109.93 415.299C1097.99 402.841 1086.56 390.237 1076.38 376.479C1076.38 376.434 1079.41 373.649 1079.92 372.859Z" fill="#25212E"/>
<path d="M1235.51 466.248C1235.67 464.161 1236.16 464.049 1237.48 462.451L1237.66 463.352C1237.92 464.641 1237.84 464.122 1237.94 465.425L1241.22 463.568C1238.48 468.927 1234.76 476.139 1235.26 482.162L1220.55 488.726C1220.93 486.875 1221.29 484.667 1222.29 483.005C1223.73 480.643 1227.03 479.306 1227.25 476.49L1223.16 473.94C1225.56 473.145 1226.56 473.08 1229.02 473.684C1229.03 476.124 1229.52 477.433 1231.39 479.166L1233.75 476.97C1235.48 475.088 1234.69 473.763 1234.35 471.485L1235.81 470.115L1235.51 466.248Z" fill="#2F2C3F"/>
<path d="M1287.13 393.863L1290.33 393.807C1290.53 409.55 1291.94 425.111 1293.79 440.754C1294.56 447.266 1294.91 455.817 1297.62 461.81L1235.26 482.162C1234.76 476.139 1238.48 468.927 1241.22 463.568L1287.13 393.863Z" fill="#010103"/>
<path d="M702.365 699.822C707.318 699.676 712.224 699.44 717.166 699.901C728.458 702.369 742.12 699.974 753.784 700.653L753.602 701.53L798.514 702.024C812.965 728.956 827.929 755.759 851.324 777.079C860.289 785.249 870.58 791.983 880.715 798.822L886.603 802.034C888.226 809.496 892.427 817.345 894.537 825.001L890.813 829.107C892.82 841.73 895.676 854.109 897.136 866.825C899.149 884.332 899.452 902.064 899.642 919.659C899.684 923.627 900.724 931.212 899.403 934.742C898.512 937.124 895.147 940.659 893.521 942.704C885.237 953.123 875.815 962.873 867.718 973.365C864.366 977.71 862.447 982.989 858.895 987.078C858.947 990.341 859.563 990.513 861.715 992.948L860.292 996.685L832.227 962.949L805.149 922.34L767.718 856.769L764.133 850.13C758.432 842.213 754.691 831.687 750.359 822.942C730.84 783.524 712.686 742.981 698.079 701.723L698.792 700.35L702.365 699.822Z" fill="#0E0717"/>
<path d="M731.33 721.432L738.723 733.705C737.985 735.244 737.405 736.662 736.265 737.987L729.117 727.841C730.263 725.838 730.707 723.617 731.33 721.432Z" fill="#5A5B6D"/>
<path d="M720.246 706.304C724.42 711.182 727.996 716.023 731.329 721.432C730.707 723.617 730.262 725.838 729.117 727.841C724.269 721.814 720.729 715.529 717.761 708.542L720.246 706.304Z" fill="#565769"/>
<path d="M880.715 798.821L886.603 802.034C888.226 809.496 892.427 817.345 894.537 825.001L890.813 829.106C889.532 824.034 888.247 818.819 886.264 813.941C884.278 809.044 881.259 804.064 880.715 798.821Z" fill="#25212E"/>
<path d="M770.903 790.023C775.083 798.198 779.194 806.432 782.788 814.849C783.287 816.011 784.94 819.252 784.728 820.305L783.921 822.973L782.434 819.51L781.549 820.881C781.923 822.021 782.214 822.639 782.909 823.684L782.138 827.02L769.235 798.06C771.157 795.876 770.807 792.722 770.903 790.023Z" fill="#494451"/>
<path d="M809.655 893.656C812.01 903.44 814.428 913.261 817.015 922.992C818.121 927.151 819.838 929.322 819.92 933.886L821.089 935.52C820.491 937.489 819.466 939.056 820.506 941.01C822.192 944.181 824.701 946.869 826.409 950.053L827.515 951.48L830.547 955.824L832.14 958.006L832.227 962.949L805.148 922.341L806.339 921.565L807.524 922.355L808.742 924.407C809.83 925.972 812.133 926.837 814.017 927.303L813.723 926.469L814.313 925.371C815.117 922.725 814.76 920.358 813.131 918.24C811.245 918.76 809.803 918.841 807.841 918.791C809.238 911.938 807.198 904.536 805.801 897.793L806.947 895.586C807.255 897.068 807.557 898.456 808.113 899.877C809.144 897.945 809.286 895.774 809.655 893.656Z" fill="#494451"/>
<path d="M738.722 733.705C751.018 750.639 762.223 771.232 770.903 790.023C770.807 792.722 771.157 795.875 769.235 798.06L745.472 755.941L736.265 737.987C737.405 736.662 737.985 735.244 738.722 733.705Z" fill="#33354A"/>
<path d="M782.138 827.02L782.909 823.684C782.214 822.639 781.924 822.021 781.549 820.881L782.434 819.511L783.922 822.973L784.729 820.305C790.033 828.888 791.566 837.47 794.866 846.687C800.573 862.619 806.506 876.952 809.655 893.656C809.287 895.774 809.145 897.945 808.114 899.877C807.558 898.456 807.255 897.068 806.947 895.586L805.802 897.793L805.539 897.745L782.138 827.02Z" fill="#3B3D4D"/>
<path d="M769.498 829.202C770.737 830.646 771.961 831.999 772.777 833.701L774.458 837.063C775.588 838.964 776.51 840.806 777.417 842.811L778.447 841.724C778.375 837.105 778.069 832.791 776.401 828.396C773.203 819.974 766.977 812.144 763.144 803.804C759.39 795.64 757.713 784.097 751.909 776.987C746.248 770.05 746.294 762.221 742.038 755.444C741.328 754.318 741.086 753.599 740.805 752.318L745.471 755.941L769.235 798.06L782.138 827.02L805.538 897.745L805.801 897.793C807.198 904.536 809.238 911.938 807.841 918.791C809.803 918.841 811.245 918.76 813.131 918.24C814.76 920.358 815.117 922.725 814.313 925.371L813.723 926.469L814.016 927.303C812.133 926.837 809.83 925.972 808.742 924.407L807.524 922.354L806.339 921.565L805.148 922.34L767.717 856.769C767.787 852.579 767.155 847.746 769.767 844.109L770.32 843.37C771.097 838.169 770.664 834.31 769.498 829.202Z" fill="url(#paint4_linear_14_1357)"/>
<path d="M702.365 699.822C707.318 699.676 712.224 699.44 717.166 699.901C728.458 702.369 742.12 699.974 753.784 700.653L753.602 701.53C743.534 701.426 729.882 699.929 720.282 702.451L720.246 706.304L717.761 708.542C720.729 715.529 724.269 721.814 729.117 727.841L736.265 737.987L745.472 755.941L740.805 752.318C741.086 753.599 741.328 754.318 742.038 755.444C746.294 762.221 746.249 770.05 751.91 776.987C757.713 784.097 759.391 795.64 763.145 803.804C766.977 812.144 773.204 819.974 776.401 828.396C778.07 832.791 778.375 837.105 778.448 841.724L777.417 842.811C776.51 840.806 775.588 838.964 774.458 837.063L772.777 833.701C771.961 831.999 770.737 830.646 769.498 829.202C770.665 834.31 771.097 838.169 770.32 843.37L769.767 844.109C767.155 847.745 767.787 852.579 767.718 856.769L764.133 850.13C758.432 842.213 754.691 831.687 750.359 822.942C730.84 783.524 712.686 742.981 698.079 701.723L698.792 700.35L702.365 699.822Z" fill="#3B3D4D"/>
<path d="M717.761 708.542C720.729 715.529 724.269 721.814 729.117 727.841L736.265 737.987L745.472 755.941L740.805 752.318C741.086 753.599 741.328 754.318 742.038 755.444C746.294 762.221 746.249 770.05 751.91 776.987C757.713 784.097 759.391 795.64 763.145 803.804C766.977 812.144 773.204 819.974 776.401 828.396C778.07 832.791 778.375 837.105 778.448 841.724L777.417 842.811C776.51 840.806 775.588 838.964 774.458 837.063L772.777 833.701C771.961 831.999 770.737 830.646 769.498 829.202L717.828 715.568C716.679 712.505 716.135 711.367 717.761 708.542Z" fill="#25212E"/>
<path d="M698.079 701.724L698.792 700.35L702.365 699.822L703.274 700.909C704.326 702.136 705.435 702.939 706.717 703.939C708.512 705.335 709.607 706.551 710.408 708.612C712.324 713.538 713.019 718.821 714.978 723.775C721.098 739.257 728.425 754.399 734.482 769.871C736.011 773.78 736.492 778.149 738.033 781.938C739.324 785.114 741.615 787.605 742.815 790.888C743.912 793.893 745.218 796.378 746.067 799.496L750.538 809.645C753.031 816.551 758.209 821.364 759.539 828.868C759.747 830.047 760.382 830.342 760.875 831.303C761.398 832.319 761.464 833.92 761.633 835.01C761.872 836.56 762.416 837.285 763.205 838.627C765.127 841.901 764.357 846.504 764.133 850.13C758.432 842.213 754.691 831.687 750.359 822.942C730.84 783.525 712.686 742.981 698.079 701.724Z" fill="#5A5B6D"/>
<path d="M749.963 273.169L754.222 274.006L754.373 278.025C763.26 282.922 770.795 296.877 777.069 304.718L780.216 301.241L820.938 351.232L824.714 352.384C826.902 353.661 827.219 353.782 828.274 355.945L824.925 357.45L823.855 357.433C823.686 360.269 823.728 363.257 822.791 365.976L816.257 456.708C816.163 458.468 816.247 460.358 815.709 462.049L811.118 461.229L785.245 456.152L771.614 550.688C770.332 559.431 770.641 568.49 770.495 577.306C770.375 584.813 769.728 592.755 770.562 600.211C772.282 609.894 772.635 619.743 774.482 629.384C778.983 652.878 787.425 675.339 797.184 697.326L798.514 702.024L753.603 701.53L753.784 700.653C742.12 699.974 728.458 702.369 717.166 699.901C712.224 699.44 707.319 699.676 702.365 699.822L698.792 700.35L698.079 701.723L698.006 701.737L695.655 695.054C685.943 672.345 678.677 646.093 673.046 622.191C673.4 617.016 673.829 612.039 672.847 606.903C672.39 604.521 671.097 600.449 671.296 598.121C671.577 594.793 677.374 586.52 679.511 583.411L680.705 580.395C679.877 578.893 679.242 578.266 677.967 577.112L680.309 571.24C682.881 565.589 685.934 559.821 687.648 553.904C694.355 540.466 699.07 525.624 704.033 511.529C727.222 445.691 739.977 379.259 746.726 310.416L748.646 280.667C749.498 279.923 749.785 274.537 749.963 273.169Z" fill="url(#paint5_linear_14_1357)"/>
<path d="M818.031 356.688C819.941 356.952 821.933 357.36 823.855 357.433C823.686 360.269 823.728 363.257 822.791 365.976C821.095 366.613 819.762 366.886 817.943 367.034L818.031 356.688Z" fill="#5A5B6D"/>
<path d="M815.398 353.656L817.311 350.999C818.614 350.721 819.642 351.024 820.938 351.232L824.713 352.383C826.902 353.661 827.219 353.782 828.274 355.944L824.925 357.45L823.855 357.433C821.933 357.36 819.941 356.953 818.031 356.689L815.398 353.656Z" fill="#565769"/>
<path d="M812.708 447.39C816.287 450.313 815.731 452.546 816.257 456.708C816.163 458.469 816.248 460.359 815.71 462.049L811.118 461.229C810.743 457.084 812.179 451.605 812.708 447.39Z" fill="#494451"/>
<path d="M749.963 273.169L754.222 274.006L754.373 278.025L750.592 314.8L746.726 310.416L748.645 280.667C749.498 279.923 749.785 274.537 749.963 273.169Z" fill="#5A5B6D"/>
<path d="M780.216 301.241L820.938 351.232C819.642 351.025 818.614 350.721 817.311 350.999L815.398 353.656C810.74 345.419 804.085 338.176 797.988 330.835C790.858 322.245 783.991 313.452 777.069 304.718L780.216 301.241Z" fill="#5A5B6D"/>
<path d="M817.943 367.035C819.763 366.886 821.096 366.614 822.791 365.976L816.256 456.708C815.731 452.546 816.287 450.313 812.708 447.39L817.943 367.035Z" fill="#33354A"/>
<path d="M687.648 553.904C694.355 540.466 699.07 525.624 704.033 511.529C727.222 445.691 739.977 379.259 746.726 310.416L750.592 314.8C742.809 393.818 725.164 471.157 695.117 545.504C690.489 556.951 686.684 569.516 680.705 580.395C679.877 578.893 679.242 578.266 677.967 577.112L680.309 571.24C682.881 565.59 685.934 559.821 687.648 553.904Z" fill="#565769"/>
<path d="M673.046 622.191C673.4 617.016 673.829 612.039 672.847 606.903C672.39 604.521 671.097 600.449 671.296 598.121C671.577 594.793 677.374 586.52 679.511 583.411C682.026 596.231 705.635 687.657 713.494 692.602L714.488 693.164L712.478 695.604L695.655 695.054C685.943 672.346 678.677 646.093 673.046 622.191Z" fill="#565769"/>
<path d="M770.562 600.21C772.281 609.894 772.635 619.742 774.482 629.383C778.982 652.878 787.424 675.339 797.184 697.325L798.514 702.024L753.602 701.53L753.784 700.653C742.12 699.974 728.458 702.369 717.166 699.901C712.224 699.44 707.318 699.676 702.364 699.822L698.792 700.35L698.078 701.723L698.006 701.737L695.654 695.053L712.478 695.604L714.488 693.163C723.697 680.144 732.565 665.951 740.572 652.263C747.642 640.176 754.379 627.99 760.974 615.673C763.395 611.154 765.254 603.915 769.597 600.898L770.562 600.21Z" fill="#0E0717"/>
<path d="M719.421 694.489L721.334 696.663L779.672 697.823L797.184 697.326L798.514 702.024L753.603 701.53L753.784 700.654C742.12 699.974 728.458 702.369 717.166 699.901L719.421 694.489Z" fill="#33354A"/>
<path d="M779.672 697.823L797.184 697.326L798.514 702.024L753.603 701.53L753.784 700.654C764.574 698.783 776.804 701.651 788.041 700.35L789.042 699.115C785.792 699.103 782.833 698.469 779.672 697.823Z" fill="#494451"/>
<path d="M714.488 693.163C723.697 680.144 732.565 665.951 740.572 652.263C747.642 640.176 754.379 627.99 760.974 615.673C763.395 611.154 765.254 603.915 769.597 600.898C769.434 607.849 765.65 613.539 762.603 619.728C756.262 632.613 748.733 646.09 740.796 658.18C733.303 669.593 724.435 681.944 719.42 694.489L717.166 699.901C712.224 699.44 707.318 699.676 702.364 699.822L698.792 700.35L698.078 701.723L698.006 701.737L695.654 695.053L712.478 695.604L714.488 693.163Z" fill="#787F8C"/>
<path d="M1010.39 136.49L1038.79 139.085C1042.86 139.793 1047.81 140.133 1051.64 141.455L1065.47 144.898L1078.73 149.333L1079.44 150.035C1080.81 151.425 1082.22 152.526 1082.63 154.447L1083.81 155C1086.63 156.413 1088.37 159.78 1091.19 160.723C1094.42 161.807 1099.3 168.401 1101.37 171.022L1063.92 160.844C1063.78 167.994 1063.47 175.054 1064.77 182.131C1065.62 192.733 1066.68 203.337 1067.37 213.947C1067.79 220.566 1067.1 229.435 1069.82 235.532C1069.45 236.641 1068.98 239.163 1068.3 240.017C1067.16 241.466 1062.72 243.345 1062.19 244.676C1065.54 249.792 1064.12 261.613 1064.9 268.035C1067.22 270.875 1067.82 272.978 1067.85 276.469V277.317C1069.66 276.5 1068.98 267.21 1070.34 264.317L1070.67 263.685C1072.29 287.309 1073.49 311.174 1074.46 334.832C1074.78 342.855 1074.94 350.864 1075.41 358.882C1075.54 361.157 1075.16 365.796 1075.95 367.818C1076.47 369.175 1078.94 371.61 1079.92 372.859C1079.41 373.648 1076.38 376.434 1076.38 376.479C1074.3 379.046 1073.03 380.088 1070.19 381.835C1067.54 383.461 1065.92 387.199 1063.89 389.524C1060.39 393.543 1056.3 397.275 1052.48 401.038C1042.74 410.623 1033.04 421.421 1022.24 429.95C998.624 448.611 968.658 458.387 938.103 460.811L907.969 461.457L905.533 461.117C904.299 465.627 904.293 470.075 904.269 474.689C904.251 479.59 904.605 484.679 903.39 489.467L896.32 486.532L815.709 462.049C816.247 460.358 816.163 458.469 816.256 456.708L822.791 365.976C823.728 363.258 823.686 360.27 823.855 357.433L824.925 357.45L828.274 355.945C827.219 353.782 826.902 353.661 824.713 352.384L820.938 351.232L780.216 301.241L777.069 304.718C770.794 296.877 763.259 282.922 754.373 278.025L754.222 274.006L749.963 273.169L748.621 268.1C750.129 267.05 749.83 266.426 750.19 264.769L750.84 265.376C752.127 259.36 759.251 256.83 762.664 252.09C769.836 242.123 783.441 230.71 793.947 224.121C798.46 221.291 802.477 216.067 807.53 213.694C814.307 210.512 820.494 203.977 827.004 199.987C829.301 198.582 830.311 196.297 833.058 195.151C834.893 194.387 834.258 194.786 835.6 193.954C845.777 187.652 856.803 182.578 867.745 177.495C874.546 174.333 881.543 170.626 888.721 168.418L903.163 163.234L904.928 162.689C910.813 161.414 916.266 159.271 922.054 157.747C923.429 157.387 924.218 157.381 925.442 156.623C926.996 155.66 927.534 156.48 929.133 156.106C932.832 155.247 936.659 153.815 940.349 152.835C943.178 152.085 944.569 153.481 947.434 151.742C953.307 151.869 961.864 151.181 967.504 149.734C969.84 149.136 972.884 150.046 975.181 149.527C978.496 148.774 981.981 148.358 985.216 147.33C986.957 146.78 991.373 147.308 993.34 147.305C1001.9 147.285 1010.41 147.162 1018.95 147.864C1017.91 147.05 1015.02 145.283 1014.44 144.303C1014.04 143.64 1014.58 141.245 1014.14 140.739C1012.81 139.189 1011.73 138.917 1010.39 136.49Z" fill="url(#paint6_linear_14_1357)"/>
<path d="M750.19 264.769L750.84 265.376C755.485 266.651 758.991 266.325 763.667 265.752L775.398 264.817L780.143 267.288C772.974 268.215 761.071 268.108 755.673 272.871L754.222 274.006L749.963 273.169L748.621 268.1C750.129 267.049 749.83 266.426 750.19 264.769Z" fill="#787F8C"/>
<path d="M754.222 274.006L755.673 272.871C758.006 275.587 761.165 277.1 763.583 279.681C769.377 285.862 775.546 294.307 780.216 301.241L777.069 304.718C770.795 296.877 763.259 282.922 754.373 278.024L754.222 274.006Z" fill="#565769"/>
<path d="M1036.51 150.043C1039.95 151.762 1039.01 151.79 1041.25 154.545C1042.9 156.581 1054.55 157.288 1057.56 157.859L1058.82 170.204C1058.03 168.409 1057.48 166.98 1056.05 165.522L1045.43 165.051C1048.38 163.234 1050.49 163.225 1053.99 162.953C1050.88 162.658 1048.21 161.852 1045.21 161.299C1039.71 160.285 1038.55 157.008 1033.62 156.087C1031.78 157.684 1030.47 158.033 1028.1 158.516L1027.27 158.673L1036.51 150.043Z" fill="#3B3D4D"/>
<path d="M888.177 347.163L888.806 349.185L887.978 349.328C885.941 349.693 884.417 349.963 882.664 351.078L828.274 355.945C827.219 353.782 826.902 353.662 824.713 352.384C833.757 350.806 844.638 351.522 853.944 350.999C865.424 350.353 876.798 348.643 888.177 347.163Z" fill="#5A5B6D"/>
<path d="M1045.57 143.286L1051.64 141.455L1065.47 144.898C1064.64 146.336 1063.06 148.316 1062.92 149.914C1061.49 152.947 1061.33 154.674 1058.15 156.311L1057.56 157.859C1054.55 157.288 1042.9 156.581 1041.25 154.545C1039.01 151.79 1039.95 151.762 1036.51 150.043C1038.75 147.577 1042.79 145.325 1045.57 143.286Z" fill="#565769"/>
<path d="M1045.57 143.286L1051.64 141.455L1065.47 144.898C1064.64 146.336 1063.06 148.316 1062.92 149.914C1061.49 152.947 1061.33 154.674 1058.15 156.311C1057.95 153.778 1058.04 150.36 1056.8 148.111C1055.85 146.375 1047.85 144.145 1045.57 143.286Z" fill="#757E8D"/>
<path d="M888.177 347.163C888.386 346.593 907.663 342.133 914.63 340.106C941.053 332.411 966.947 321.366 988.791 305.316C998.106 298.472 1006.57 290.505 1016.04 283.911L1016.7 283.453L1019.86 285.837C990.484 314.378 945.282 339.044 903.761 347.629C897.629 348.898 890.565 350.935 884.299 351.069L882.664 351.078C884.417 349.963 885.94 349.693 887.978 349.328L888.806 349.185L888.177 347.163Z" fill="#33354A"/>
<path d="M1065.47 144.898L1078.73 149.333L1079.44 150.035C1080.81 151.425 1082.22 152.526 1082.63 154.447L1083.81 155C1086.63 156.413 1088.37 159.78 1091.19 160.723C1094.42 161.807 1099.3 168.401 1101.37 171.022L1063.92 160.844C1063.78 167.994 1063.47 175.054 1064.77 182.131C1065.62 192.733 1066.68 203.337 1067.37 213.947C1067.79 220.566 1067.1 229.435 1069.82 235.532C1069.45 236.641 1068.98 239.163 1068.3 240.017C1067.16 241.466 1062.72 243.345 1062.19 244.676L1019.86 285.837L1016.7 283.453L1025.9 274.759C1035.9 265.216 1045.22 255.193 1054.69 245.198C1056.96 242.794 1061.8 239.121 1063.16 236.515C1065.09 232.813 1059.18 179.868 1059.06 171.033L1058.82 170.204L1057.56 157.859L1058.15 156.311C1061.33 154.674 1061.49 152.947 1062.92 149.914C1063.06 148.316 1064.64 146.336 1065.47 144.898Z" fill="#5A5B6D"/>
<path d="M1062.92 149.914L1062.05 170.741C1060.73 171.17 1060.48 171.294 1059.06 171.033L1058.82 170.204L1057.56 157.859L1058.15 156.311C1061.33 154.674 1061.49 152.947 1062.92 149.914Z" fill="#6B7081"/>
<path d="M1010.39 136.49L1038.79 139.085C1042.86 139.793 1047.81 140.133 1051.64 141.455L1045.57 143.286C1042.79 145.325 1038.75 147.578 1036.51 150.043L1027.27 158.673C1011.22 169.996 996.275 182.746 980.078 194.053C935.087 225.458 885.914 245.316 831.729 258.49C820.128 261.309 808.401 263.427 796.592 265.345C791.584 266.157 785.167 267.682 780.143 267.288L775.398 264.817C852.796 256.496 924.581 230.614 986.092 185.993C996.807 178.219 1008.44 170.583 1017.64 161.288C1021.86 158.145 1025.43 154.287 1029.1 150.611L1028.31 148.816C1025.65 148.69 1022.93 148.653 1020.31 148.145L1018.95 147.864C1017.91 147.05 1015.02 145.283 1014.44 144.303C1014.04 143.64 1014.58 141.245 1014.14 140.739C1012.81 139.189 1011.73 138.917 1010.39 136.49Z" fill="#6B7081"/>
<path d="M1038.79 139.085C1042.86 139.793 1047.81 140.132 1051.64 141.455L1045.57 143.286C1042.79 145.325 1038.75 147.577 1036.51 150.043L1034.14 148.383C1037.25 145.218 1038.38 143.387 1038.79 139.085Z" fill="#9094A4"/>
<path d="M750.84 265.376C752.127 259.36 759.252 256.83 762.664 252.09C769.836 242.123 783.441 230.71 793.947 224.121C798.46 221.291 802.477 216.067 807.53 213.694C814.307 210.512 820.494 203.977 827.005 199.987C829.302 198.582 830.311 196.296 833.059 195.151C834.893 194.387 834.259 194.786 835.601 193.954C845.777 187.652 856.804 182.578 867.745 177.495C874.546 174.332 881.543 170.625 888.722 168.418L903.163 163.234L904.928 162.689C910.813 161.414 916.266 159.271 922.054 157.746C923.429 157.387 924.218 157.381 925.442 156.623C926.996 155.66 927.534 156.48 929.133 156.106C932.832 155.247 936.659 153.815 940.349 152.835C943.178 152.085 944.569 153.481 947.434 151.742C953.307 151.869 961.864 151.181 967.504 149.734C969.84 149.136 972.884 150.046 975.181 149.526C978.497 148.774 981.982 148.358 985.216 147.33C986.957 146.78 991.373 147.308 993.34 147.305C1001.9 147.285 1010.41 147.162 1018.95 147.864L1020.31 148.145C1022.93 148.653 1025.65 148.69 1028.31 148.816L1029.1 150.61C1025.43 154.287 1021.86 158.145 1017.64 161.288C1008.44 170.583 996.807 178.219 986.092 185.993C924.581 230.614 852.796 256.496 775.398 264.817L763.668 265.752C758.992 266.325 755.485 266.651 750.84 265.376Z" fill="#33354A"/>
<path d="M750.84 265.376C752.127 259.36 759.252 256.83 762.664 252.09C769.836 242.123 783.441 230.71 793.947 224.121C798.46 221.291 802.477 216.067 807.53 213.694C814.307 210.512 820.494 203.977 827.005 199.987C829.302 198.582 830.311 196.296 833.059 195.151C834.893 194.387 834.259 194.786 835.601 193.954C845.777 187.652 856.804 182.578 867.745 177.495C874.546 174.332 881.543 170.625 888.722 168.418L903.163 163.234L904.928 162.689C910.813 161.414 916.266 159.271 922.054 157.746C923.429 157.387 924.218 157.381 925.442 156.623C926.996 155.66 927.534 156.48 929.133 156.106C932.832 155.247 936.659 153.815 940.349 152.835C943.178 152.085 944.569 153.481 947.434 151.742C953.307 151.869 961.864 151.181 967.504 149.734C969.84 149.136 972.884 150.046 975.181 149.526C978.497 148.774 981.982 148.358 985.216 147.33C986.957 146.78 991.373 147.308 993.34 147.305C1001.9 147.285 1010.41 147.162 1018.95 147.864L1020.31 148.145C1022.93 148.653 1025.65 148.69 1028.31 148.816L1029.1 150.61C1025.43 154.287 1021.86 158.145 1017.64 161.288C1013.62 159.319 1013.59 161.004 1010.01 160.4C1008.12 160.08 1005.9 158.746 1003.81 158.286L1002.34 159.378L1001.15 157.741C999.893 157.735 999.358 157.89 998.204 158.28L997.022 157.182C994.347 157.182 990.638 157.831 988.758 156.087L988.054 156.328C984.632 157.395 977.257 156.368 975.181 158.28C973.071 158.288 973.25 157.892 971.639 159.378C968.55 159.389 967.05 160.473 963.964 160.473L962.783 159.378C961.431 160.01 960.86 160.572 959.83 161.571C957.248 161.574 953.99 160.965 952.155 162.667L950.977 161.571C947.894 161.574 940.769 160.631 938.578 162.667L937.393 164.318C934.528 165.026 928.634 164.138 926.618 165.382C925.412 166.127 924.587 166.171 923.224 166.514C921.035 167.062 918.95 167.643 916.737 168.154L914.96 168.707C912.364 169.092 912.08 168.997 909.64 170.359L909.057 171.999H908.178L907.28 170.359C904.611 172.339 902.773 171.735 900.682 173.027C899.164 173.962 897.508 174.45 895.8 174.984C892.379 176.051 888.235 178.129 885.448 180.219L882.489 180.505L883.665 181.328C880.824 183.226 877.475 184.471 874.522 186.293C873.325 187.032 872.022 187.43 870.689 187.899L869.498 186.813L868.839 187.254C865.853 189.096 862.637 190.112 859.799 192.292C856.783 194.611 853.684 195.01 850.317 196.504C845.3 198.734 840.784 201.087 836.45 204.354L835.259 203.267C833.464 204.935 827.422 208.892 827.183 209.673C826.6 211.599 825.602 212.315 824.106 213.635C823.278 214.365 823.063 214.845 822.867 215.879L821.352 216.188C818.956 216.766 817.734 218.39 816.093 219.973C815.625 220.426 809.296 225.197 809.296 225.197C808.174 225.551 806.874 224.888 805.741 225.208C803.949 225.717 803.474 228.191 800.953 228.662C795.921 229.606 792.638 232.895 789.211 236.178L789.03 237.41C788.637 239.25 788.086 239.713 786.85 241.115L786.306 241.769C782.815 245.928 776.825 249.475 773.862 253.73C771.925 256.516 771.088 258.495 767.376 259.759C765.659 260.34 764.426 261.245 762.582 261.674C761.065 262.031 760.3 262.688 759.116 263.592C760.829 265.176 761.413 265.151 763.668 265.752C758.992 266.325 755.485 266.651 750.84 265.376Z" fill="#3B3D4D"/>
<path d="M1062.19 244.676C1065.54 249.793 1064.13 261.613 1064.9 268.035C1067.22 270.875 1067.82 272.978 1067.85 276.469V277.317C1069.66 276.5 1068.99 267.21 1070.34 264.317L1070.67 263.685C1072.29 287.309 1073.49 311.174 1074.46 334.832C1074.78 342.855 1074.94 350.864 1075.41 358.882C1075.54 361.157 1075.16 365.796 1075.95 367.818C1076.47 369.175 1078.94 371.61 1079.92 372.859C1079.41 373.648 1076.38 376.434 1076.38 376.479C1074.3 379.046 1073.03 380.088 1070.19 381.835C1067.54 383.461 1065.92 387.199 1063.89 389.524C1060.39 393.543 1056.3 397.275 1052.48 401.038C1042.74 410.623 1033.04 421.421 1022.24 429.95C998.624 448.611 968.658 458.387 938.104 460.811L907.969 461.457L905.533 461.117C904.3 465.627 904.294 470.075 904.27 474.689C904.251 479.59 904.605 484.679 903.39 489.467L896.32 486.532L815.709 462.049C816.247 460.359 816.163 458.469 816.257 456.708L822.791 365.976C823.728 363.258 823.686 360.27 823.855 357.433L824.925 357.45L828.274 355.945L882.665 351.078L884.3 351.069C890.565 350.935 897.629 348.899 903.762 347.629C945.282 339.044 990.484 314.379 1019.86 285.838L1062.19 244.676Z" fill="#0E0717"/>
<path d="M823.855 357.433L824.925 357.45C827.328 364.892 837.142 370.298 841.488 377.591C838.98 376.844 838.433 377.016 835.981 377.412L834.993 377.437L825.823 366.013L822.791 365.976C823.728 363.258 823.686 360.27 823.855 357.433Z" fill="#33354A"/>
<path d="M1064.9 268.035C1067.22 270.874 1067.82 272.978 1067.85 276.469V277.317C1069.66 276.499 1068.99 267.209 1070.34 264.317L1070.67 263.685C1072.29 287.309 1073.49 311.174 1074.46 334.831C1074.78 342.855 1074.94 350.864 1075.41 358.882C1075.54 361.157 1075.16 365.796 1075.95 367.818C1076.47 369.174 1078.94 371.609 1079.92 372.859C1079.41 373.648 1076.38 376.434 1076.38 376.479C1074.3 379.046 1073.03 380.088 1070.19 381.834C1067.54 383.46 1065.92 387.198 1063.89 389.524C1060.39 393.542 1056.3 397.275 1052.48 401.038C1042.74 410.623 1033.04 421.421 1022.24 429.95C998.624 448.611 968.658 458.387 938.104 460.81L940.875 459.002C934.023 456.985 926.421 459.055 918.995 457.404C949.523 457.109 980.733 450.462 1006.3 434.449C1016.59 428.003 1026.09 419.595 1034.88 411.479C1039.99 406.77 1044.19 401.552 1048.97 396.606C1054.62 390.762 1065.53 382.674 1068.08 375.123C1069.69 370.379 1068.69 361.626 1068.68 356.54C1068.56 326.957 1064.8 297.627 1064.9 268.035Z" fill="url(#paint7_linear_14_1357)"/>
<path d="M822.791 365.976L825.823 366.013L834.993 377.437L835.982 377.412C838.433 377.016 838.98 376.844 841.489 377.591C844.499 380.796 850.701 387.432 851.684 391.431L865.974 409.747C869.39 413.74 887.247 434.64 888.096 438.706C892.056 443.405 897.699 453.043 902.831 455.829L918.995 457.404C926.422 459.055 934.023 456.986 940.875 459.002L938.104 460.811L907.969 461.457L905.533 461.117C904.3 465.627 904.294 470.075 904.27 474.689C904.251 479.59 904.605 484.679 903.39 489.467L896.32 486.532L815.709 462.049C816.247 460.359 816.163 458.469 816.257 456.708L822.791 365.976Z" fill="#0E0717"/>
<path d="M865.974 409.747C869.39 413.74 887.247 434.64 888.096 438.706C888.57 440.548 889.13 442.158 888.985 444.067C887.262 442.877 885.614 441.644 883.725 440.692L860.905 411.35C862.761 411.005 864.284 410.547 865.974 409.747Z" fill="#2F2C3F"/>
<path d="M834.993 377.437L835.982 377.412C838.433 377.016 838.98 376.844 841.489 377.591C844.499 380.796 850.701 387.432 851.684 391.431L865.974 409.747C864.284 410.547 862.761 411.005 860.905 411.35L848.038 394.584C843.248 390.035 838.454 382.921 834.993 377.437Z" fill="#494451"/>
<path d="M851.683 391.431L865.974 409.747C864.284 410.547 862.761 411.005 860.905 411.35L848.038 394.584C851.668 396.177 853.192 397.682 855.307 400.858L855.93 401.827L856.534 401.277C854.289 398.221 852.557 395.918 851.825 392.2L851.683 391.431Z" fill="#33354A"/>
<path d="M888.096 438.706C892.055 443.404 897.698 453.043 902.831 455.828L918.995 457.404C926.421 459.055 934.023 456.985 940.875 459.002L938.103 460.81L907.969 461.456L905.533 461.117C904.299 465.627 904.293 470.075 904.269 474.689C904.251 479.59 904.605 484.678 903.39 489.467L896.32 486.532L897.846 485.069C899.627 479.5 899.76 470.864 897.88 465.326C897.354 463.779 897.027 462.681 897.024 461.03C897.012 456.115 887.041 445.151 883.725 440.692C885.614 441.644 887.262 442.876 888.984 444.067C889.129 442.157 888.57 440.548 888.096 438.706Z" fill="#25212E"/>
<path d="M1076.38 376.479C1086.56 390.237 1097.99 402.841 1109.93 415.299C1116.96 422.628 1123.47 430.289 1131.17 437.043C1149.73 453.318 1178.58 469.733 1203.86 473.737C1208.85 474.526 1218.62 476.338 1223.16 473.939L1227.25 476.489C1227.03 479.306 1223.73 480.643 1222.29 483.005C1221.29 484.667 1220.93 486.875 1220.55 488.725L1235.26 482.162L1297.62 461.81L1301.44 460.951C1307.71 459.631 1316.86 456.514 1323.11 457.772C1324.16 459.799 1325.17 461.723 1325.82 463.902C1326.99 463.29 1326.51 463.63 1327.31 462.953C1330.47 471.207 1329.35 484.369 1329.67 493.157C1330.74 522.414 1332.36 552.379 1330.2 581.6C1329.21 594.993 1326.89 608.672 1323.84 621.776C1322.75 626.443 1322.18 632.057 1320.04 636.331C1316.43 653.639 1311.14 670.666 1306.21 687.679C1301.4 704.301 1296.79 722.008 1288.79 737.586C1282.61 749.619 1273.3 760.072 1267.33 772.134C1252.92 812.535 1235.22 851.994 1216.42 890.789C1210.48 903.058 1205.11 916.314 1198.14 928.067C1174.2 977.17 1150.13 1032.6 1091.62 1052.99L1074.14 1058.09L1069.21 1059.17C1047.94 1063.92 1023.55 1063.88 1001.81 1062.8C944.209 1059.95 898.333 1036.08 860.291 996.685L861.715 992.947C859.563 990.513 858.946 990.341 858.895 987.078C862.447 982.989 864.366 977.709 867.718 973.365C875.815 962.873 885.236 953.122 893.521 942.704C895.147 940.659 898.511 937.123 899.403 934.742C900.724 931.212 899.684 923.627 899.642 919.658C899.451 902.064 899.149 884.332 897.136 866.825C895.676 854.109 892.82 841.73 890.813 829.106L894.537 825.001C892.427 817.345 888.226 809.496 886.603 802.034L880.715 798.821C870.58 791.983 860.288 785.249 851.324 777.079C827.929 755.758 812.965 728.956 798.514 702.024L797.184 697.325C787.424 675.339 778.982 652.878 774.482 629.383C772.635 619.742 772.281 609.894 770.562 600.21C769.727 592.754 770.374 584.812 770.495 577.306C770.64 568.49 770.332 559.431 771.614 550.688L785.245 456.151L811.118 461.229L815.709 462.049L896.32 486.532L903.39 489.467C904.605 484.678 904.251 479.59 904.269 474.689C904.293 470.075 904.299 465.627 905.533 461.117L907.969 461.456L938.103 460.81C968.658 458.387 998.624 448.611 1022.24 429.95C1033.03 421.421 1042.74 410.623 1052.48 401.038C1056.3 397.275 1060.39 393.542 1063.89 389.524C1065.92 387.198 1067.54 383.461 1070.19 381.834C1073.03 380.088 1074.3 379.046 1076.38 376.479Z" fill="url(#paint8_linear_14_1357)"/>
<path d="M927.539 491.329L932.705 497.563C930.133 497.706 928.032 497.094 925.554 496.538L923.71 493.811C925.279 493.168 926.276 492.393 927.539 491.329Z" fill="#2F2C3F"/>
<path d="M925.554 496.538C928.033 497.094 930.133 497.706 932.706 497.563C935.583 500.478 936.81 502.348 937.545 506.266L924.475 499.723L925.554 496.538Z" fill="#252132"/>
<path d="M1185.72 857.597C1181.05 851.913 1175.64 844.749 1172.65 838.161C1173.73 838.818 1174.61 839.295 1175.34 840.32L1177.37 843.095L1177.97 842.272C1177.24 840.598 1177.43 840.441 1177.67 838.739L1190.76 856.864L1187.3 856.331L1185.72 857.597Z" fill="#0E0717"/>
<path d="M943.121 879.713L963.964 852.832L964.258 855.163L963.372 856.193L959.83 860.922L960.715 861.745L963.964 858.729L964.623 859.824C961.803 863.267 952.376 877.39 948.946 878.741L947.38 877.368L943.121 879.713Z" fill="#25212E"/>
<path d="M1185.72 857.597L1187.3 856.331L1190.76 856.864C1195.2 864.202 1206.8 876.41 1204.82 884.824C1202.05 883.364 1200.58 879.853 1198.83 877.348C1194.25 870.824 1189.89 864.354 1185.72 857.597Z" fill="#252528"/>
<path d="M1163.1 932.653L1163.11 932.386C1169.03 928.991 1175.14 927.699 1181.49 925.289C1186.56 923.368 1191.59 920.142 1197.04 920.709L1197.57 922.902L1194.82 926.736C1185.61 931.15 1175.55 931.532 1166.1 935.217C1165.61 933.512 1164.67 933.523 1163.1 932.653Z" fill="#0E0717"/>
<path d="M904.27 474.689C904.294 470.075 904.3 465.627 905.533 461.117L907.969 461.457L907.325 463.759L927.54 491.329C926.277 492.393 925.279 493.168 923.71 493.811C919.476 489.537 915.471 485.117 911.883 480.348C910.145 478.04 908.74 473.844 906.11 472.614L904.27 474.689Z" fill="#252132"/>
<path d="M904.269 474.69L906.11 472.614C908.74 473.844 910.145 478.04 911.883 480.348C915.471 485.117 919.476 489.537 923.71 493.811L925.554 496.538L924.475 499.723L903.39 489.467C904.605 484.679 904.251 479.59 904.269 474.69Z" fill="#0E0717"/>
<path d="M1163.1 932.652C1164.67 933.523 1165.61 933.512 1166.1 935.216C1139.31 949.09 1117.31 967.874 1097.91 989.853C1089.8 999.036 1083.19 1008.21 1073.92 1016.6C1070.98 1030.04 1073.91 1043.56 1071.45 1056.77L1074.14 1058.09L1069.21 1059.16C1065.23 1053.83 1066.78 1044.58 1066.91 1038.28L1068.33 1038.21L1068.75 1051.53C1069.78 1047.63 1070.15 1040.15 1069.36 1036.2C1068.82 1033.48 1070.01 1034.65 1070.81 1032.6C1071.28 1031.41 1070.81 1027.81 1070.81 1026.3C1070.81 1023 1071.03 1021.34 1072 1018.34C1073.13 1014.82 1070.91 1010.01 1072.42 1006.28C1073.25 1004.23 1073.68 999.418 1072.74 997.376L1072.29 996.677C1076.49 990.167 1070.8 974.929 1073.17 967.332C1075.5 959.91 1074.36 949.634 1074.36 941.552L1075.33 941.01C1076.8 951.536 1075.06 963.96 1074.56 974.609C1074 986.617 1074.21 998.606 1074.42 1010.62C1080.33 1005.8 1083.19 999.836 1088.32 994.579C1111.66 970.66 1132.69 949.017 1163.1 932.652Z" fill="#252528"/>
<path d="M906.331 933.175L907.077 933.411C919.204 936.876 935.129 933.355 948.18 935.607C984.95 941.951 1013.34 954.881 1039.66 979.706C1049.6 989.08 1058.36 999.488 1068.27 1008.96L1072.58 929.496C1073.61 933.762 1073.22 938.297 1073.17 942.65C1070.05 947 1073.32 954.193 1072 959.104C1070.71 963.856 1070.81 967.934 1070.81 973.124C1070.81 974.736 1071.35 978.541 1070.81 979.948C1068.05 987.199 1069.63 998.904 1069.63 1007C1069.63 1007.85 1070.29 1008.97 1069.63 1009.57C1068.92 1010.22 1067.66 1009.93 1066.68 1010.11C1064.34 1007.91 1061.96 1005.69 1059.3 1003.81C1060.04 1008.58 1067.73 1010.88 1069.63 1015.11C1069.98 1015.88 1069.63 1019.16 1069.63 1020.16C1069.63 1026.61 1068.44 1031.89 1068.33 1038.21L1066.91 1038.28L1067.4 1016.24C1060.3 1009.72 1054.43 1001.97 1047.73 995.065C1021.64 968.209 992.823 947.312 953.391 941.392C937.765 939.044 920.866 941.836 905.783 938.233L904.614 937.938L906.331 933.175Z" fill="#25212E"/>
<path d="M894.537 825.001C902.885 858.701 905.306 891.036 906.488 925.475C915.377 915.446 923.311 905.067 931.448 894.524C935.205 889.652 939.905 884.878 943.121 879.713L947.38 877.368L948.945 878.741L906.331 933.175L904.614 937.938C895.023 947.178 886.548 958.08 878.442 968.49C872.058 976.685 866.098 983.562 861.715 992.948C859.563 990.513 858.946 990.342 858.895 987.078C862.446 982.989 864.366 977.71 867.718 973.365C875.815 962.873 885.236 953.123 893.521 942.704C895.147 940.659 898.511 937.124 899.403 934.742C900.724 931.212 899.684 923.627 899.642 919.659C899.451 902.065 899.149 884.333 897.136 866.826C895.676 854.109 892.82 841.73 890.813 829.107L894.537 825.001Z" fill="#252132"/>
<path d="M1166.1 935.216C1175.55 931.532 1185.61 931.15 1194.82 926.735L1198.14 928.066C1174.2 977.17 1150.13 1032.6 1091.62 1052.99L1074.14 1058.09L1071.45 1056.77C1073.91 1043.56 1070.98 1030.04 1073.92 1016.6C1083.19 1008.21 1089.8 999.036 1097.91 989.853C1117.31 967.875 1139.31 949.09 1166.1 935.216Z" fill="#010103"/>
<path d="M904.614 937.938L905.784 938.233C920.866 941.836 937.765 939.044 953.391 941.392C992.823 947.312 1021.64 968.209 1047.73 995.065C1054.43 1001.97 1060.3 1009.72 1067.4 1016.24L1066.91 1038.28C1066.78 1044.58 1065.23 1053.83 1069.21 1059.17C1047.94 1063.92 1023.55 1063.88 1001.81 1062.8C944.209 1059.95 898.333 1036.08 860.292 996.685L861.715 992.948C866.098 983.562 872.058 976.685 878.442 968.49C886.548 958.079 895.023 947.177 904.614 937.938Z" fill="#010103"/>
<path d="M1301.44 460.951C1307.71 459.631 1316.86 456.514 1323.11 457.772C1324.16 459.799 1325.17 461.723 1325.82 463.902C1326.99 463.29 1326.51 463.63 1327.31 462.953C1330.47 471.207 1329.35 484.369 1329.67 493.157C1330.74 522.414 1332.36 552.379 1330.2 581.6C1329.21 594.992 1326.89 608.672 1323.84 621.776C1322.75 626.443 1322.18 632.057 1320.04 636.331C1316.43 653.639 1311.14 670.666 1306.21 687.679C1301.4 704.301 1296.79 722.008 1288.79 737.586C1282.61 749.619 1273.3 760.072 1267.33 772.134C1263.23 772.985 1260.78 777.804 1258.25 780.943C1248.67 792.854 1237.02 801.826 1222.24 807.786C1204.78 814.826 1187.02 814.865 1169.4 808.153C1136.53 795.634 1119.88 762.1 1107.09 733.668C1101.92 721.179 1094.82 705.992 1095.29 692.489C1095.67 681.534 1098.73 670.371 1101.21 659.68C1109.08 625.699 1120.61 592.841 1138.81 562.374C1147.2 548.335 1155.78 535.841 1168.5 524.748C1180.54 510.327 1203.74 498.167 1220.55 488.725L1235.26 482.162L1297.62 461.81L1301.44 460.951Z" fill="url(#paint9_linear_14_1357)"/>
<path d="M1254.55 543.339C1260.29 542.073 1267.84 542.241 1273.52 543.64C1278.23 544.8 1283.88 546.56 1286.26 550.773C1288.58 554.879 1292.37 558.541 1293.81 563.012C1294.21 564.219 1294.58 565.233 1295.14 566.376L1296.91 566.387C1297.58 569.844 1298.65 573.119 1297.33 576.525L1294.85 576.245L1293.95 578.988L1293.67 580.364C1292.8 582.805 1293.5 583.206 1291.59 585.568L1291.6 587.22C1288.97 587.747 1287.86 589.278 1286.16 591.07L1285.4 591.881L1283.34 591.609L1281.79 592.845C1280.39 593.401 1279.03 593.979 1277.55 594.313C1276.21 594.619 1275.15 594.754 1273.97 595.487C1271.15 597.237 1269.49 594.895 1267.69 594.895C1266.9 594.895 1266.42 595.984 1265.62 595.984C1265.43 595.984 1264.18 594.982 1263.87 594.9C1262.57 594.555 1259.97 594.892 1258.54 594.889C1257.08 593.665 1255.77 592.294 1253.82 591.839C1249.92 590.926 1247.97 587.335 1244.49 586.251L1243.78 586.113C1242.29 584.392 1240.07 582.37 1239.33 580.291L1239.07 579.542C1237.1 577.003 1236.71 567.373 1236.71 563.635L1237.88 562.537C1237.71 559.541 1238.57 557.903 1240.02 555.325L1240.84 553.767L1240.98 552.391C1244.01 548.903 1250.22 545.311 1254.55 543.339Z" fill="white"/>
<path d="M1301.44 460.951C1307.71 459.631 1316.86 456.514 1323.11 457.772C1324.16 459.799 1325.17 461.723 1325.82 463.902C1326.99 463.29 1326.51 463.63 1327.31 462.953C1330.47 471.207 1329.35 484.369 1329.67 493.157C1330.74 522.414 1332.36 552.379 1330.2 581.6C1329.21 594.992 1326.89 608.672 1323.84 621.776C1322.75 626.443 1322.18 632.057 1320.04 636.331L1319.66 635.309C1320.03 632.282 1320.42 631.476 1318.49 628.824C1316.3 625.822 1317.1 618.891 1317.37 615.406C1318.34 602.69 1319.6 590.157 1319.94 577.393C1319.1 579.325 1318.56 580.751 1316.96 582.271L1315.92 576.609C1314.53 593.122 1315 615.915 1306.37 630.552L1305.18 633.304L1303.7 633.02L1304.29 631.652L1303.07 631.405C1301.24 631.012 1301.94 631.195 1300.07 630.504C1299.54 626.544 1301.41 620.478 1301.92 616.282C1303.2 605.824 1304.3 595.318 1304.92 584.807C1306.85 552.185 1305.94 517.603 1302.12 485.119C1288.35 487.692 1275.11 492.401 1262.13 497.274C1230.31 509.22 1202.22 524.798 1178.59 548.102C1150.83 583.894 1134.07 626.362 1124.97 669.447C1123.25 677.552 1120.38 687.637 1121.76 695.823L1129.8 721.783L1129.87 722.555C1123.44 724.409 1121.42 728.776 1116.08 731.559C1113.63 732.837 1109.83 733.177 1107.09 733.668C1101.92 721.179 1094.82 705.992 1095.29 692.489C1095.67 681.534 1098.73 670.371 1101.21 659.68C1109.08 625.699 1120.61 592.841 1138.81 562.374C1147.2 548.335 1155.78 535.841 1168.5 524.748C1180.54 510.327 1203.74 498.167 1220.55 488.725L1235.26 482.162L1297.62 461.81L1301.44 460.951Z" fill="#EA3473"/>
<path d="M1317.79 491.778L1319.47 521.501L1319.32 522.462C1318.42 528.62 1318.67 534.911 1318.71 541.115L1317.38 541.808C1315.84 542.628 1316.29 542.171 1315.64 543.047L1314.54 507.752C1318.32 502.924 1317.33 497.636 1317.79 491.778Z" fill="#CF083D"/>
<path d="M1315.64 543.047C1316.29 542.171 1315.84 542.629 1317.38 541.808L1318.71 541.115C1318.67 534.911 1318.42 528.621 1319.32 522.462L1319.47 521.501L1319.94 577.393C1319.1 579.325 1318.56 580.752 1316.96 582.271L1315.92 576.609L1315.64 543.047Z" fill="#9C0139"/>
<path d="M1176.46 530.696C1202.88 505.314 1241.86 488.911 1277.3 477.599C1289.28 473.779 1302.11 471.201 1313.69 466.472L1314.64 466.07L1317.79 491.778C1317.33 497.636 1318.32 502.924 1314.54 507.752L1310.91 472.319C1267.37 484.968 1228.72 496.305 1192.15 522.647L1191.35 523.116C1170.09 536.34 1155.05 561.416 1144.32 582.33C1141.54 587.75 1138.23 592.805 1136.34 598.584L1135.02 598.188C1138.8 581.333 1151.08 561.09 1161.86 547.119C1163.86 544.53 1176 532.911 1176.46 530.696Z" fill="#B10028"/>
<path d="M1301.44 460.951C1307.71 459.631 1316.86 456.514 1323.11 457.772C1324.16 459.799 1325.17 461.723 1325.82 463.902C1326.99 463.29 1326.51 463.63 1327.31 462.953C1330.47 471.207 1329.35 484.369 1329.67 493.157C1330.74 522.414 1332.36 552.379 1330.2 581.6C1329.21 594.992 1326.89 608.672 1323.84 621.776C1322.75 626.443 1322.18 632.057 1320.04 636.331L1319.66 635.309C1320.03 632.282 1320.42 631.476 1318.49 628.824C1316.3 625.822 1317.1 618.891 1317.37 615.406C1318.34 602.69 1319.6 590.157 1319.94 577.393L1319.47 521.501L1317.79 491.778L1314.64 466.07L1313.69 466.472C1302.11 471.201 1289.28 473.779 1277.3 477.599C1241.86 488.911 1202.88 505.314 1176.46 530.696L1176.69 528.643C1178.89 526.438 1181.99 522.414 1184.89 521.257C1187.33 520.291 1188.75 517.862 1191.11 516.547L1206.59 506.589C1208.87 505.075 1211.39 504.073 1213.64 502.579L1216.63 500.545C1214.79 499.958 1213.53 499.461 1212.02 498.288L1210.74 497.265C1208.27 497.807 1206.08 499.526 1204.08 500.916L1201.87 502.469C1199.49 503.699 1201.17 502.399 1199.66 503.542L1190.36 510.156C1183.12 513.843 1174.74 521.195 1168.84 526.82L1168.5 524.748C1180.54 510.327 1203.74 498.167 1220.55 488.725L1235.26 482.162L1297.62 461.81L1301.44 460.951Z" fill="url(#paint10_linear_14_1357)"/>
<path d="M1168.5 524.748L1168.84 526.82C1174.74 521.195 1183.12 513.843 1190.36 510.156L1199.66 503.542C1201.17 502.399 1199.49 503.7 1201.87 502.469L1204.08 500.916C1206.08 499.526 1208.27 497.808 1210.74 497.266L1212.02 498.288C1213.53 499.462 1214.79 499.959 1216.63 500.546L1213.64 502.579C1211.39 504.073 1208.87 505.076 1206.59 506.589L1191.11 516.548C1188.75 517.862 1187.33 520.291 1184.89 521.257C1181.99 522.414 1178.89 526.439 1176.69 528.643L1176.46 530.696C1176 532.912 1163.86 544.53 1161.86 547.119C1151.08 561.091 1138.8 581.333 1135.02 598.189L1136.34 598.585C1138.23 592.805 1141.54 587.75 1144.32 582.33C1155.05 561.416 1170.09 536.341 1191.35 523.116L1192.15 522.647L1192.24 524.717L1206 515.365L1207.77 515.36L1208.73 514.402C1213.46 509.833 1223.35 504.941 1229.62 502.475C1231.78 504.143 1231.95 504.809 1232.27 507.412C1230.79 508.791 1231.36 508.783 1229.03 508.788L1228.26 509.37C1226.34 510.805 1225.35 511.276 1223.13 512.08L1221.05 513.178L1219.75 513.658C1218.06 514.357 1218.63 514.079 1217.31 515.301C1214.32 518.067 1209.82 519.648 1206.31 521.912C1201.89 524.759 1196.37 528.455 1192.43 531.828C1190.59 533.398 1189.1 535.79 1186.52 536.214L1185.53 537.293C1184.61 538.278 1183.68 539.034 1182.62 539.879C1180.96 541.199 1180.68 542.177 1180.03 544.114L1178.59 548.102C1150.83 583.894 1134.07 626.362 1124.97 669.447C1123.25 677.552 1120.38 687.637 1121.76 695.823L1129.8 721.783L1129.87 722.556C1123.44 724.409 1121.42 728.776 1116.08 731.559C1113.63 732.837 1109.83 733.177 1107.09 733.668C1101.92 721.18 1094.82 705.992 1095.29 692.49C1095.67 681.534 1098.73 670.371 1101.21 659.68C1109.08 625.699 1120.61 592.842 1138.81 562.374C1147.2 548.335 1155.78 535.841 1168.5 524.748Z" fill="#CF083D"/>
<path d="M1300.07 630.504C1301.94 631.195 1301.24 631.012 1303.07 631.406L1304.29 631.653L1303.7 633.02L1305.18 633.304L1306.37 630.552C1315 615.915 1314.53 593.122 1315.92 576.609L1316.96 582.271C1318.56 580.752 1319.1 579.325 1319.94 577.393C1319.6 590.157 1318.34 602.69 1317.37 615.407C1317.1 618.892 1316.3 625.823 1318.49 628.825C1320.42 631.476 1320.03 632.282 1319.66 635.309L1320.04 636.331C1316.43 653.639 1311.14 670.666 1306.21 687.679C1301.4 704.302 1296.79 722.008 1288.79 737.586C1282.61 749.62 1273.3 760.072 1267.33 772.134C1263.23 772.985 1260.78 777.804 1258.25 780.944C1248.67 792.854 1237.02 801.827 1222.24 807.786C1204.78 814.826 1187.02 814.866 1169.4 808.154C1136.53 795.634 1119.88 762.1 1107.09 733.668C1109.83 733.177 1113.63 732.837 1116.08 731.559C1121.42 728.776 1123.44 724.409 1129.87 722.556L1129.8 721.783L1130.86 721.483C1136.58 719.992 1141.65 717.473 1147.12 715.372C1164.37 708.756 1180.54 700.873 1196.87 692.546C1219.76 680.872 1242.61 669.189 1265.41 657.38C1271.54 654.204 1277.64 651.008 1283.67 647.674C1286.62 646.045 1290.21 643.507 1293.55 642.954C1295.21 642.681 1296.03 642.378 1297.46 641.603L1300.07 630.504Z" fill="white"/>
<path d="M1300.07 630.504C1301.94 631.195 1301.24 631.012 1303.07 631.406L1304.29 631.653L1303.7 633.02L1305.18 633.304L1306.37 630.552C1315 615.915 1314.53 593.122 1315.92 576.609L1316.96 582.271C1318.56 580.752 1319.1 579.325 1319.94 577.393C1319.6 590.157 1318.34 602.69 1317.37 615.407C1317.1 618.892 1316.3 625.823 1318.49 628.825C1320.42 631.476 1320.03 632.282 1319.66 635.309L1320.04 636.331C1316.43 653.639 1311.14 670.666 1306.21 687.679C1301.4 704.302 1296.79 722.008 1288.79 737.586C1282.61 749.62 1273.3 760.072 1267.33 772.134C1263.23 772.985 1260.78 777.804 1258.25 780.944C1248.67 792.854 1237.02 801.827 1222.24 807.786C1204.78 814.826 1187.02 814.866 1169.4 808.154C1136.53 795.634 1119.88 762.1 1107.09 733.668C1109.83 733.177 1113.63 732.837 1116.08 731.559C1121.42 728.776 1123.44 724.409 1129.87 722.556C1133.44 732.396 1138.81 742.158 1144.02 751.33C1152.76 766.686 1167.34 783.634 1185.97 788.72C1196.35 791.548 1207.75 789.001 1216.98 784.083C1230.7 776.776 1241.58 764.021 1250.14 751.922C1272.16 720.795 1285.08 686.258 1295.82 650.643L1297.46 641.603L1300.07 630.504Z" fill="#9C0139"/>
<path d="M1300.07 630.504C1301.94 631.195 1301.24 631.012 1303.07 631.406L1304.29 631.653L1303.7 633.02L1305.18 633.304L1306.37 630.552C1315 615.915 1314.53 593.122 1315.92 576.609L1316.96 582.271C1318.56 580.752 1319.1 579.325 1319.94 577.393C1319.6 590.157 1318.34 602.69 1317.37 615.407C1317.1 618.892 1316.3 625.823 1318.49 628.825C1320.42 631.476 1320.03 632.282 1319.66 635.309L1314.62 633.284L1313.45 628.906L1314.63 627.808L1315.79 601.48C1315.25 605.847 1315.67 609.324 1314.03 613.547L1314.61 615.741C1311.94 618.74 1311.6 627.446 1311.08 631.647L1312.25 632.745L1311.13 633.868C1307.81 637.239 1305.47 641.254 1301.64 644.167L1300.44 643.167L1300.23 643.785L1299.86 644.807L1299.33 646.371C1298.62 648.32 1297.41 649.278 1295.82 650.643L1297.46 641.603L1300.07 630.504Z" fill="#B10028"/>
<path d="M771.614 550.688L785.245 456.151L811.118 461.229L815.709 462.049L896.32 486.532L903.39 489.467L924.475 499.723L937.544 506.266C954.531 517.749 975.537 530.811 986.364 548.009C994.383 556.895 1000.97 567.85 1006.89 578.033C1023.54 606.675 1034.74 637.272 1042.87 668.863C1045.01 677.145 1048.45 688.226 1047.75 696.668C1047.15 704.088 1043.47 711.774 1040.71 718.736C1029.6 746.704 1014.08 773.701 988.546 792.691C969.828 806.609 947.624 814.267 923.417 811.661C910.831 810.305 898.236 806.662 886.603 802.034L880.715 798.821C870.58 791.983 860.288 785.249 851.324 777.079C827.929 755.758 812.965 728.956 798.514 702.024L797.184 697.325C787.424 675.339 778.982 652.878 774.482 629.383C772.635 619.742 772.281 609.894 770.562 600.21C769.727 592.754 770.374 584.812 770.495 577.306C770.64 568.49 770.332 559.431 771.614 550.688Z" fill="url(#paint11_linear_14_1357)"/>
<path d="M882.93 770.373C886.899 771.129 888.422 771.002 891.351 773.709L893.122 773.721L894.597 775.361C897.478 777.122 900.79 778.422 903.749 780.303L904.345 779.739V778.652C905.968 776.97 907.11 776.15 909.317 775.209C914.467 773.01 919.581 769.907 924.411 767.141C925.708 766.396 926.56 765.607 928.044 765.217C930.964 764.45 938.647 762.4 940.79 761.072C942.344 760.111 942.882 760.929 944.481 760.558C946.482 760.095 948.975 758.865 950.976 758.365C955.519 757.224 961.682 759.364 966.446 758.087L967.21 757.809C970.686 759.94 976.456 756.966 980.479 759.449C987.619 759.46 987.676 753.509 993.984 750.574L994.845 750.181C985.158 765.933 967.627 781.716 948.543 786.715C930.133 791.539 911.919 787.636 895.721 779.042C891.405 776.751 886.334 773.774 882.93 770.373Z" fill="white"/>
<path d="M787.146 538.68L796.758 472.01C822.855 477.116 847.679 484.448 872.615 493.135C905.781 504.688 938.85 518.643 963.892 542.64C967.682 549.602 974.238 555.623 978.24 562.683C978.714 563.517 979.799 565.458 979.89 566.376C979.938 566.839 979.192 568.35 979.325 568.572C979.893 569.532 981.241 568.361 981.864 570.097C982.35 571.456 983.327 571.83 984.046 572.959C984.681 573.956 984.802 575.104 984.983 576.219L984.267 577.486L981.374 583.841L969.973 566.64C962.181 557.982 955.643 549.45 946.464 541.84C908.903 510.701 852.968 494.982 805.025 483.853L797.021 543.746C794.875 539.531 794.948 536.327 795.138 531.822C797.465 529.637 796.311 525.93 796.755 523.029C796.952 521.754 796.906 522.692 796.897 521.389C794.721 522.501 793.373 524.338 792.022 526.228L791.584 526.874L790.704 525.239L790.417 523.594H789.812C789.867 526.531 790.498 530.747 789.401 533.465C788.516 535.653 788.528 538.04 788.337 540.362L787.146 538.68Z" fill="#EA3473"/>
<path d="M969.973 566.64L971.367 564.958C972.715 566.143 972.878 566.85 973.703 568.297C974.501 569.69 975.746 570.79 976.961 571.86L978.72 570.776L979.159 571.391C980.661 573.472 982.13 575.932 984.267 577.485L981.374 583.841L969.973 566.64Z" fill="#D91A68"/>
<path d="M771.614 550.688L785.245 456.151L811.118 461.229L815.709 462.049L896.32 486.532L903.39 489.467L924.475 499.723L937.544 506.266C954.531 517.749 975.538 530.811 986.364 548.009L984.898 549.13L982.263 546.63C980.486 544.153 978.748 542.606 976.366 540.592C976.357 538.003 973.307 536.113 971.342 534.29L969.269 535.108C967.467 535.852 966.748 536.534 964.796 535.928L963.964 535.65L965.439 537.579C968.308 538.382 970.689 541.131 972.811 543.066C972.82 545.251 974.507 545.563 974.885 547.922C972.201 544.853 969.202 542.35 966.02 539.755L963.892 542.64C938.85 518.642 905.781 504.688 872.615 493.134C847.679 484.448 822.855 477.115 796.758 472.01L787.146 538.68C785.427 543.462 785.614 549.489 785.36 554.519C784.614 569.265 784.632 584.526 785.684 599.244C784.949 601.603 784.571 603.78 782.861 605.701C779.675 585.248 780.557 561.256 782.537 540.707C782.15 538.61 781.981 536.47 780.959 534.552C778.145 535.164 776.652 537.068 774.76 538.947C774.422 540.716 774.144 542.449 773.536 544.153C772.66 546.611 773.249 550.573 773.285 553.213C772.647 552.37 772.14 551.59 771.614 550.688Z" fill="#EA3473"/>
<path d="M782.537 540.708L793.956 467.534C840.681 479.16 887.029 488.863 928.622 513.279C941.872 521.055 953.08 531.791 966.019 539.756L963.892 542.64C938.85 518.643 905.78 504.688 872.614 493.134C847.678 484.448 822.854 477.116 796.758 472.01L787.146 538.68C785.426 543.463 785.614 549.489 785.36 554.519C784.613 569.266 784.632 584.526 785.683 599.245C784.949 601.604 784.571 603.78 782.86 605.701C779.674 585.248 780.557 561.256 782.537 540.708Z" fill="#B10028"/>
<path d="M787.146 538.68L788.337 540.362C788.528 538.04 788.515 535.653 789.401 533.465C790.498 530.747 789.867 526.531 789.812 523.594H790.417L790.704 525.239L791.583 526.874L792.022 526.228C793.373 524.338 794.721 522.501 796.897 521.389C796.906 522.692 796.951 521.754 796.755 523.029C796.311 525.93 797.465 529.637 795.138 531.822C794.947 536.327 794.875 539.531 797.021 543.746C795.643 567.193 794.947 590.508 797.973 613.882C804.375 663.331 828.631 718.096 864.723 755.337C869.985 760.769 876.093 766.658 882.93 770.373C886.334 773.774 891.405 776.751 895.722 779.043C911.919 787.636 930.133 791.54 948.543 786.715C967.627 781.716 985.158 765.933 994.845 750.181C1006.18 737.204 1015.05 717.518 1019.91 701.434C1023.09 690.92 1019.37 680.377 1016.73 670.043C1009.03 639.912 997.656 610.916 981.374 583.841L984.267 577.486L984.983 576.219C984.801 575.104 984.681 573.956 984.046 572.959C983.327 571.83 982.35 571.456 981.864 570.097C981.241 568.361 979.893 569.532 979.325 568.572C979.192 568.35 979.938 566.839 979.89 566.376C979.799 565.458 978.714 563.517 978.24 562.683C974.238 555.623 967.682 549.602 963.892 542.64L966.02 539.756C969.202 542.351 972.201 544.853 974.885 547.922C974.507 545.563 972.82 545.252 972.811 543.067C970.689 541.132 968.308 538.382 965.439 537.579L963.964 535.65L964.795 535.928C966.748 536.535 967.467 535.852 969.269 535.108L971.342 534.291C973.307 536.113 976.357 538.003 976.366 540.593C978.747 542.606 980.485 544.154 982.263 546.63L984.898 549.13L986.364 548.009C994.383 556.895 1000.97 567.85 1006.89 578.033C1023.54 606.675 1034.74 637.272 1042.87 668.863C1045.01 677.145 1048.45 688.227 1047.75 696.668C1047.15 704.088 1043.47 711.775 1040.71 718.736C1029.6 746.705 1014.08 773.701 988.546 792.691C969.828 806.609 947.624 814.267 923.417 811.661C910.831 810.305 898.236 806.663 886.603 802.034L880.715 798.822C870.58 791.983 860.288 785.249 851.324 777.079C827.929 755.759 812.965 728.956 798.514 702.024L797.184 697.326C787.424 675.339 778.982 652.878 774.482 629.384C772.635 619.743 772.281 609.894 770.562 600.211C769.727 592.755 770.374 584.813 770.495 577.306C770.64 568.491 770.332 559.431 771.614 550.689C772.139 551.59 772.647 552.371 773.285 553.213C773.249 550.573 772.659 546.611 773.536 544.154C774.143 542.449 774.421 540.716 774.76 538.947C776.652 537.068 778.145 535.164 780.959 534.552C781.981 536.47 782.15 538.61 782.537 540.708C780.557 561.256 779.675 585.248 782.86 605.701C784.571 603.78 784.949 601.604 785.683 599.245C784.632 584.526 784.613 569.266 785.36 554.519C785.614 549.489 785.426 543.463 787.146 538.68Z" fill="url(#paint12_linear_14_1357)"/>
<path d="M785.683 599.244L791.689 636.255L787.935 639.356C784.997 628.81 782.516 616.622 782.86 605.701C784.571 603.78 784.949 601.603 785.683 599.244Z" fill="#CF083D"/>
<path d="M791.69 636.255C794.921 648.856 799.004 660.154 803.592 672.34C804.705 675.291 804.789 679.768 806.923 682.11L805.457 682.933C802.114 678.965 803.489 675.822 801.622 671.688L801.325 670.815C800.917 669.677 801.12 670.155 800.15 668.947L800.11 668.054C799.905 666.554 799.27 665.6 798.539 664.291L796.897 660.719L796.438 659.775C794.766 656.152 793.527 651.46 793.062 647.55L792.176 648.104C792.315 652.642 793.21 657.509 794.537 661.817L794.739 664.535C794.83 665.743 794.812 665.336 795.422 666.748L793.69 667.574L787.936 639.356L791.69 636.255Z" fill="#B10028"/>
<path d="M1603.18 463.481C1600.18 462.798 1596.78 462.128 1593.65 462.058C1581.06 461.771 1571.76 470.156 1563.43 476.701C1560.83 477.195 1556.73 478.401 1554.14 478.219C1548.67 477.83 1541.15 471.894 1535.19 470.372C1526.93 468.259 1516.53 470.128 1509.91 474.736C1506.06 477.407 1502.38 481.438 1498.17 483.596C1495 485.219 1490.79 484.786 1487.63 486.395C1485.6 487.432 1484.55 488.809 1484.22 490.762C1483.86 492.918 1485.22 494.598 1486.81 496.138C1488.56 496.676 1490.25 497.085 1492.15 497.097C1502.77 497.156 1510.51 490.865 1517.52 485.087C1529.81 475.92 1539.97 488.554 1552.82 489.661C1564.77 490.69 1571.2 487.493 1579.56 480.81C1583.02 478.042 1586.75 474.809 1591.76 474.228C1598.04 473.499 1605.13 478.234 1610.56 480.414C1615.24 482.295 1620.35 482.93 1625.55 482.441C1629.37 482.083 1635.29 481.078 1637.63 478.373C1639.66 476.027 1639.14 474.403 1638.4 471.894C1637.25 470.859 1635.93 469.44 1634.3 468.927C1631.48 468.035 1625.74 470.712 1622.87 471.629L1603.18 463.481Z" fill="#B10028"/>
<path d="M1524.3 233.359C1521.19 233.881 1517.72 234.566 1514.76 235.686C1502.85 240.18 1497.85 251.163 1492.94 260.142C1490.72 261.566 1487.42 264.185 1484.91 265.001C1479.62 266.721 1469.98 264.265 1463.74 265.154C1455.08 266.389 1446.18 271.978 1442.01 278.587C1439.59 282.417 1437.92 287.401 1434.93 290.913C1432.68 293.556 1428.55 294.759 1426.3 297.387C1424.86 299.078 1424.48 300.702 1425.03 302.566C1425.65 304.624 1427.65 305.611 1429.82 306.382C1431.69 306.203 1433.46 305.929 1435.23 305.225C1445.2 301.269 1449.67 292.74 1453.68 284.942C1461.14 272.133 1476.21 279.563 1488.72 275.701C1500.35 272.11 1504.96 266.833 1509.83 257.72C1511.85 253.946 1513.92 249.656 1518.35 247.247C1523.9 244.228 1532.62 245.775 1538.65 245.672C1543.86 245.582 1548.92 244.219 1553.57 241.82C1556.98 240.062 1562.08 236.93 1563.08 233.637C1563.94 230.78 1562.74 229.527 1560.94 227.57C1559.41 227.081 1557.55 226.315 1555.81 226.471C1552.77 226.74 1548.58 231.293 1546.31 233.192L1524.3 233.359Z" fill="#B10028"/>
<path d="M1368.12 63.3669C1365.89 65.5126 1363.47 67.9906 1361.76 70.5114C1354.86 80.6397 1357.94 91.824 1359.77 101.431C1358.87 103.766 1357.86 107.619 1356.32 109.652C1353.08 113.942 1343.49 117.502 1338.91 121.694C1332.56 127.512 1328.86 136.784 1329.75 144.168C1330.27 148.447 1332.16 153.185 1332 157.542C1331.87 160.824 1329.24 164.066 1329.11 167.335C1329.03 169.437 1329.78 170.885 1331.46 171.994C1333.32 173.216 1335.63 172.839 1337.93 172.204C1339.36 171.015 1340.64 169.813 1341.65 168.276C1347.29 159.651 1345.39 150.634 1343.59 142.433C1341.35 128.472 1358.69 125.648 1366.49 115.662C1373.76 106.377 1374.1 99.7606 1372.15 90.0713C1371.34 86.0591 1370.24 81.6267 1372.32 77.296C1374.93 71.8684 1383.15 68.1385 1388.08 64.6631C1392.33 61.6613 1395.62 57.7719 1397.89 53.3247C1399.55 50.0671 1401.72 44.8078 1400.38 41.738C1399.22 39.0747 1397.4 38.7938 1394.63 38.3164C1393.04 38.8075 1391 39.2707 1389.66 40.3723C1387.33 42.2866 1386.85 48.1146 1386.21 50.8432L1368.12 63.3669Z" fill="#B10028"/>
</g>
<defs>
<linearGradient id="paint0_linear_14_1357" x1="1302.82" y1="457.772" x2="1339.37" y2="437.676" gradientUnits="userSpaceOnUse">
<stop stop-color="#03040A"/>
<stop offset="1" stop-color="#2B2A2F"/>
</linearGradient>
<linearGradient id="paint1_linear_14_1357" x1="681.781" y1="563.084" x2="599.232" y2="512.463" gradientUnits="userSpaceOnUse">
<stop stop-color="#150F20"/>
<stop offset="1" stop-color="#2F3549"/>
</linearGradient>
<linearGradient id="paint2_linear_14_1357" x1="1286.29" y1="377.692" x2="1265.42" y2="154.012" gradientUnits="userSpaceOnUse">
<stop stop-color="#08000B"/>
<stop offset="1" stop-color="#201E32"/>
</linearGradient>
<linearGradient id="paint3_linear_14_1357" x1="1293.37" y1="361.235" x2="1311" y2="345.552" gradientUnits="userSpaceOnUse">
<stop stop-color="#33323B"/>
<stop offset="1" stop-color="#4F4F54"/>
</linearGradient>
<linearGradient id="paint4_linear_14_1357" x1="764.429" y1="792.36" x2="742.921" y2="803.408" gradientUnits="userSpaceOnUse">
<stop stop-color="#161421"/>
<stop offset="1" stop-color="#3A3B45"/>
</linearGradient>
<linearGradient id="paint5_linear_14_1357" x1="717.202" y1="684.854" x2="534.469" y2="480.35" gradientUnits="userSpaceOnUse">
<stop stop-color="#0F0615"/>
<stop offset="1" stop-color="#262B40"/>
</linearGradient>
<linearGradient id="paint6_linear_14_1357" x1="955.698" y1="322.843" x2="897.053" y2="205.127" gradientUnits="userSpaceOnUse">
<stop stop-color="#140D20"/>
<stop offset="1" stop-color="#2E3549"/>
</linearGradient>
<linearGradient id="paint7_linear_14_1357" x1="1014.73" y1="433.64" x2="959.453" y2="352.872" gradientUnits="userSpaceOnUse">
<stop stop-color="#1B1525"/>
<stop offset="1" stop-color="#433F51"/>
</linearGradient>
<linearGradient id="paint8_linear_14_1357" x1="1200.1" y1="918.515" x2="785.815" y2="695.557" gradientUnits="userSpaceOnUse">
<stop stop-color="#010003"/>
<stop offset="1" stop-color="#150A23"/>
</linearGradient>
<linearGradient id="paint9_linear_14_1357" x1="1131.62" y1="718.86" x2="1344.47" y2="542.793" gradientUnits="userSpaceOnUse">
<stop stop-color="white"/>
<stop offset="1" stop-color="#F5FFFD"/>
</linearGradient>
<linearGradient id="paint10_linear_14_1357" x1="1319.35" y1="628.906" x2="1364.52" y2="473.058" gradientUnits="userSpaceOnUse">
<stop stop-color="#D71054"/>
<stop offset="1" stop-color="#F04979"/>
</linearGradient>
<linearGradient id="paint11_linear_14_1357" x1="984.034" y1="759.449" x2="883.057" y2="461.587" gradientUnits="userSpaceOnUse">
<stop stop-color="white"/>
<stop offset="1" stop-color="#FCFFFE"/>
</linearGradient>
<linearGradient id="paint12_linear_14_1357" x1="963.964" y1="804.427" x2="845.028" y2="502.103" gradientUnits="userSpaceOnUse">
<stop stop-color="#BB0032"/>
<stop offset="1" stop-color="#E81C5E"/>
</linearGradient>
<clipPath id="clip0_14_1357">
<rect width="1920" height="1080" fill="white"/>
</clipPath>
</defs>
</svg>
