<svg width="1920" height="1080" viewBox="0 0 1920 1080" fill="none" xmlns="http://www.w3.org/2000/svg">
<g clip-path="url(#clip0_14_1837)">
<path d="M1258.57 277.903L1272.68 295.693L1262.6 293.865L1251.11 285.597L1245.55 283.37L1238.93 279.297C1243.98 277.065 1250.34 281.573 1256.2 281.463L1258.57 277.903Z" fill="#737A87"/>
<path d="M676.038 359.115C682.572 342.21 692.603 325.812 702.717 310.388L703.459 318.588C701.276 322.868 684.049 350.968 681.121 352.288L680.401 353.697C679.321 355.75 677.756 357.454 676.038 359.115Z" fill="#737A87"/>
<path d="M695.474 703.922L699.931 703.655L701.625 705.91L702.898 707.15C705.661 718.598 708.875 730.893 713.928 741.72C716.268 746.739 717.938 751.619 720.102 756.685C723.254 764.059 726.939 767.953 727.248 776.262C722.2 769.355 718.949 759.601 715.564 751.905C708.586 736.037 701.357 720.138 695.474 703.922Z" fill="#636375"/>
<path d="M1262.6 293.865L1272.68 295.693C1283.54 311.56 1293.17 327.066 1301.49 344.119C1299.96 343.003 1298.18 341.867 1297.11 340.382C1296.33 339.306 1296.14 338.567 1294.86 337.823C1293.82 337.212 1294.1 337.597 1293.39 336.666L1292.79 335.773C1283.19 321.979 1270.41 308.451 1262.6 293.865Z" fill="#494D5D"/>
<path d="M739.382 264.324C740.293 267.265 741.519 268.391 743.659 270.687L743.787 270.883C737.02 279.122 727.177 287.464 721.732 296.211C719.964 297.612 715.893 300.072 715.208 301.905C714.374 304.143 711.624 306.234 710.357 308.589C709.258 310.628 705.315 317.361 703.459 318.587L702.717 310.387C713.235 294.008 725.511 278.622 739.382 264.324Z" fill="#758092"/>
<path d="M1251.11 285.597L1262.6 293.865C1270.41 308.451 1283.19 321.979 1292.79 335.773L1293.39 336.666C1294.1 337.597 1293.82 337.212 1294.86 337.823C1296.14 338.567 1296.33 339.306 1297.11 340.382C1298.18 341.867 1299.96 343.003 1301.49 344.119L1314.94 371.979L1312.17 376.844C1311.33 374.294 1310.48 371.668 1308.57 369.576C1301.98 362.384 1298.7 351.679 1293.13 343.556C1286.35 333.653 1279.06 323.143 1271.62 313.69C1264.17 304.206 1256.56 296.255 1251.11 285.597Z" fill="#3A3C4D"/>
<path d="M1230.18 274.785C1232.94 276.417 1235.77 278.398 1238.93 279.297L1245.55 283.37L1251.11 285.597C1256.56 296.255 1264.17 304.206 1271.62 313.69C1279.06 323.143 1286.35 333.652 1293.13 343.556C1298.7 351.679 1301.98 362.384 1308.57 369.576C1310.48 371.668 1311.33 374.294 1312.17 376.844L1310.61 379.205C1309.32 377.973 1308.31 377.009 1307.38 375.525C1304.45 370.833 1301 367.036 1298.51 362.024L1297.35 362.375C1293.07 358.767 1290.83 352.651 1288 348.062C1284.97 343.165 1280.04 339.042 1277.25 334.428C1275.14 330.915 1274.3 327.19 1271.84 323.687C1265.6 314.806 1258.36 306.25 1251.3 297.863C1248.1 294.068 1243.76 290.355 1241.81 285.943C1240.63 283.85 1239.07 282.666 1236.85 281.461C1233.23 279.501 1231.86 278.275 1230.18 274.785Z" fill="#2E3245"/>
<path d="M1230.18 274.785C1232.94 276.417 1235.77 278.398 1238.93 279.297L1245.55 283.37C1250.47 294.272 1259.8 303.987 1267.24 313.663C1270.05 317.32 1273.66 321.206 1275.21 325.44C1276.62 329.293 1278.08 332.193 1281.23 335.183C1283.53 337.363 1279.84 333.806 1282.51 336.894L1283.51 337.703C1289.81 342.893 1294.84 354.299 1298.65 361.316L1298.51 362.024L1297.35 362.375C1293.07 358.767 1290.83 352.651 1288 348.062C1284.97 343.165 1280.04 339.042 1277.25 334.428C1275.14 330.915 1274.3 327.19 1271.84 323.687C1265.6 314.806 1258.36 306.25 1251.3 297.863C1248.1 294.068 1243.76 290.355 1241.81 285.943C1240.63 283.85 1239.07 282.666 1236.85 281.461C1233.23 279.501 1231.86 278.275 1230.18 274.785Z" fill="#312C3D"/>
<path d="M1314.94 371.979L1318.81 382.298C1324.19 398.73 1329 414.908 1332.92 431.662C1335.05 440.776 1337.66 450.816 1337.77 460.156C1331.95 464.036 1320.47 465.35 1313.29 466.71C1310.86 463.265 1312.69 459.986 1311.07 456.594C1310.16 454.695 1310.84 453.135 1310.34 451.269C1309.37 447.728 1310.08 443.784 1309.07 440.572C1308.68 439.336 1307.99 438.824 1307.94 437.449C1307.85 434.898 1308.5 431.204 1307.8 428.805C1306.58 424.58 1305.18 419.14 1304.62 414.709C1304.06 410.279 1305.85 406.113 1302.88 402.47L1305.78 397.441L1301.1 394.207L1296.07 392.663L1294.38 390.375L1295.77 388.705C1299.25 388.895 1301.54 388.768 1304.85 387.77C1307.31 385.651 1308.96 381.905 1310.61 379.205L1312.17 376.844L1314.94 371.979Z" fill="#1F1C26"/>
<path d="M1314.94 371.979L1318.81 382.298L1314.69 381.675C1310.48 386.607 1307.54 391.445 1305.78 397.441L1301.1 394.207L1296.07 392.663L1294.38 390.375L1295.77 388.705C1299.25 388.895 1301.54 388.768 1304.85 387.77C1307.31 385.651 1308.96 381.905 1310.61 379.205L1312.17 376.844L1314.94 371.979Z" fill="#494D5D"/>
<path d="M1100.31 166.744C1145.68 180.874 1195.89 211.643 1226.25 244.42C1232.45 249.194 1238.3 255.497 1243.19 261.357L1258.57 277.903L1256.2 281.463C1250.34 281.573 1243.98 277.065 1238.93 279.297C1235.77 278.398 1232.94 276.418 1230.18 274.785C1220.23 269.852 1212.38 263.672 1203.56 257.486C1187.95 246.543 1172.82 235.055 1158.18 223.109C1149.51 216.032 1140.93 207.894 1131.32 201.855L1130.38 199.446L1111.91 184.023L1105.95 177.097L1107.43 175.122C1106.18 171.062 1101.54 170.371 1100.31 166.744Z" fill="#525061"/>
<path d="M1163.29 221.811C1169.85 221.586 1176.85 227.698 1181.52 231.36C1189.75 237.806 1198.52 243.759 1206.66 250.148C1211.83 254.207 1216.5 258.88 1222.23 262.27C1227.25 265.239 1230.17 267.203 1236.21 268.742C1239.2 271.119 1241.57 273.704 1244.06 276.486C1214.73 262.103 1186.31 243.578 1163.29 221.811Z" fill="#312C3D"/>
<path d="M1124.56 184.457C1128.26 185.104 1131.17 185.694 1134.45 187.371C1135.57 187.946 1136.51 188.035 1137.73 188.376C1143.42 189.977 1149.27 194.29 1154.25 197.21C1167.66 205.082 1180.06 213.354 1192.98 221.747C1197.27 224.533 1202.05 226.736 1206.23 229.655C1213.39 234.665 1216.46 242.418 1226.25 244.42C1232.45 249.194 1238.3 255.497 1243.19 261.357C1223.19 254.108 1212.39 236.997 1195.85 225.669C1182.45 216.493 1168.97 207.303 1154.4 199.506C1144.89 194.412 1132.93 190.664 1124.56 184.457Z" fill="#616472"/>
<path d="M1163.29 221.811L1130.47 194.592C1137.03 196.488 1141.64 200.393 1147.39 203.534C1155.58 208.002 1164.13 211.575 1172.07 216.475C1179.28 220.929 1185.28 226.255 1191.8 231.409C1197.62 236.004 1204.25 239.773 1209.93 244.515C1215.88 249.482 1220.61 255.434 1226.11 260.768C1229.16 263.725 1233.39 265.715 1236.21 268.742C1230.17 267.203 1227.25 265.239 1222.23 262.27C1216.5 258.88 1211.83 254.207 1206.66 250.149C1198.52 243.759 1189.75 237.806 1181.52 231.36C1176.85 227.699 1169.85 221.586 1163.29 221.811Z" fill="#2E3245"/>
<path d="M1100.31 166.744C1145.68 180.874 1195.89 211.643 1226.25 244.42C1216.46 242.418 1213.39 234.666 1206.23 229.655C1202.05 226.736 1197.27 224.533 1192.98 221.747C1180.06 213.354 1167.66 205.083 1154.25 197.211C1149.27 194.291 1143.42 189.978 1137.73 188.376C1136.51 188.035 1135.57 187.946 1134.45 187.371C1131.17 185.695 1128.26 185.104 1124.56 184.457C1120.53 181.905 1117.01 179.558 1112.14 178.38C1118.91 184.497 1126.15 190.477 1131.76 197.474L1130.38 199.446L1111.91 184.023L1105.95 177.097L1107.43 175.122C1106.18 171.062 1101.54 170.371 1100.31 166.744Z" fill="#737A87"/>
<path d="M975.516 148.872C1001.28 146.901 1030.54 148.214 1055.63 154.133L1057.29 154.511L1048.49 162.025C1044.93 165.203 1041.39 168.811 1037.47 171.606L1034.93 168.737L1030.33 172.038C1025.69 169.464 1011.98 170.027 1006.01 170.039C1003.91 170.041 1000 170.538 998.292 169.7C997.202 169.169 996.315 168.979 995.127 168.706L991.494 167.653C990.367 167.308 989.762 167.029 988.651 167.363C985.802 168.225 983.259 168.295 980.3 168.25L979.097 169.317C976.696 170.981 972.845 170.511 970.013 170.443C967.839 171.736 966.351 171.045 964.59 172.603L960.337 171.564C956.801 173.667 953.373 171.591 950.075 173.746C948.068 175.058 945.744 174.935 943.423 174.851L942.209 173.786C940.689 174.476 940.696 174.734 939.798 175.941L938.572 174.887C935.171 176.908 930.959 174.825 928.186 176.475C924.461 178.689 919.978 179.339 915.6 179.285L915.417 179.922C914.925 181.256 914.039 182.381 913.215 183.569C911.04 183.58 911.243 183.974 909.578 182.516L908.858 182.758C907.286 183.232 908.115 182.971 906.249 183.306C904.451 183.633 904.39 183.968 902.932 184.693C901.059 185.624 899.589 185.916 897.482 185.801L896.889 187.404L895.496 187.644C891.813 188.31 889.413 190.394 886.021 191.743C884.75 192.245 883.684 193.322 882.75 194.195C876.373 200.147 865.117 202.95 856.771 205.475C850.931 207.24 845.545 210.043 839.565 211.715C837.715 212.232 836.886 213.001 835.311 213.94L833.573 214.686C831.419 215.593 829.826 216.851 828.071 218.257L827.916 218.899C827.167 220.893 825.683 221.991 823.848 223.107C822.82 223.732 822.189 224.631 821.528 225.517C820.725 226.592 819.855 226.794 818.687 227.438C816.247 228.78 815.05 230.479 812.402 231.723L809.996 233.336C807.359 235.056 803.364 238.291 800.378 238.972C798.759 239.342 797.985 239.971 796.723 240.895C794.721 240.914 793.412 240.627 791.889 241.992C791.025 242.761 785.601 247.658 785.252 248.457C784.238 250.791 785.333 251.487 783.493 254.113C781.445 257.036 779.036 258.561 776.49 260.999C771.119 266.137 768.62 269.849 761.219 272.994L759.005 276.179L757.656 277.767C753.903 275.797 751.712 273.769 749.087 270.703C746.541 267.233 744.529 263.934 743.028 260.009C771.15 231.105 803.526 205.809 841.03 186.855C852.312 180.498 864.051 175.152 876.486 170.786C883.371 167.337 891.516 165.031 898.974 162.7C923.964 154.888 949.202 150.933 975.516 148.872Z" fill="#737A87"/>
<path d="M841.03 186.855C852.312 180.498 864.051 175.152 876.486 170.786C874.522 173.684 873.146 175.59 869.919 177.456C863.651 180.558 855.988 183.156 850.459 187.136C848.382 188.632 845.604 189.435 843.365 190.855C839.975 193.001 837.596 195.647 834.024 197.372L831.603 198.996L830.996 198.451C834.463 195.477 838.483 192.795 840.135 188.729L841.03 186.855Z" fill="#737B8B"/>
<path d="M876.486 170.786C883.371 167.337 891.517 165.032 898.974 162.7C923.964 154.888 949.202 150.934 975.516 148.872L974.708 150.077L971.133 150.111L969.937 151.981C963.43 153.499 957.548 153.192 951.04 153.985C948.411 154.305 945.922 155.318 943.324 155.608C940.253 155.947 939.036 155.46 936.068 156.714C932.105 158.392 928.043 158.95 923.984 160.125C915.038 162.713 904.101 167.425 894.911 168.486C892.67 168.744 891.48 169.394 889.552 170.327C884.641 172.706 875.381 176.916 869.918 177.457C873.146 175.59 874.521 173.684 876.486 170.786Z" fill="#758092"/>
<path d="M749.088 270.703C755.757 260.218 766.67 251.528 776.334 243.225C783.499 237.064 791.476 229.622 800.012 225.027L806.306 221.625L808.116 220.522C813.595 217.97 817.335 213.178 822.516 210.274C830.31 205.91 838.168 201.913 846.027 197.604C850.368 195.225 855.845 191.607 860.722 190.511C861.997 190.225 861.627 190.432 862.683 189.805C871.356 184.631 881.231 181.278 890.802 177.812C893.82 176.72 896.663 174.659 899.854 174.026L913.149 170.746C917.924 169.683 922.344 168.129 927.053 166.923C928.457 166.563 929.266 166.556 930.52 165.807C933.053 164.298 937.61 164.998 940.345 164.186C948.756 161.685 957.715 161.573 966.34 159.77C969.94 159.017 972.578 160.703 976.016 158.649C984.71 158.73 992.612 157.29 1001.29 157.44C1003.1 157.471 1003.47 158.122 1005.05 158.492C1008.28 159.245 1012.75 157.658 1015.95 158.444C1017.4 158.801 1017.82 159.525 1019.48 159.538C1026.32 159.602 1034.2 159.487 1040.77 160.988L1041.38 162.585L1034.93 168.737L1030.33 172.038C1025.69 169.464 1011.98 170.028 1006.01 170.039C1003.91 170.042 1000 170.538 998.293 169.701C997.202 169.169 996.315 168.979 995.127 168.706L991.494 167.653C990.368 167.308 989.762 167.029 988.652 167.363C985.803 168.225 983.26 168.295 980.301 168.25L979.098 169.317C976.696 170.981 972.846 170.511 970.014 170.443C967.839 171.737 966.352 171.046 964.591 172.603L960.338 171.564C956.801 173.668 953.373 171.592 950.076 173.746C948.069 175.058 945.744 174.935 943.424 174.851L942.21 173.786C940.689 174.476 940.697 174.734 939.798 175.941L938.572 174.887C935.171 176.908 930.96 174.825 928.186 176.475C924.461 178.689 919.978 179.339 915.6 179.285L915.418 179.922C914.926 181.256 914.039 182.381 913.215 183.569C911.04 183.58 911.244 183.974 909.579 182.517L908.858 182.759C907.287 183.233 908.116 182.971 906.249 183.306C904.451 183.633 904.391 183.968 902.932 184.693C901.059 185.624 899.589 185.916 897.482 185.801L896.889 187.404L895.496 187.644C891.813 188.31 889.413 190.394 886.022 191.743C884.751 192.245 883.685 193.322 882.75 194.196C876.374 200.147 865.117 202.95 856.772 205.476C850.931 207.24 845.546 210.044 839.566 211.716C837.716 212.232 836.886 213.001 835.311 213.94L833.574 214.686C831.419 215.594 829.827 216.851 828.071 218.258L827.916 218.9C827.168 220.893 825.683 221.991 823.849 223.107C822.82 223.732 822.19 224.631 821.528 225.517C820.725 226.592 819.855 226.794 818.688 227.439C816.247 228.78 815.051 230.48 812.402 231.723L809.997 233.336C807.36 235.057 803.364 238.291 800.378 238.972C798.76 239.342 797.985 239.971 796.723 240.896C794.722 240.914 793.413 240.628 791.889 241.992C791.026 242.761 785.601 247.658 785.252 248.457C784.239 250.791 785.333 251.487 783.494 254.113C781.445 257.037 779.037 258.561 776.49 260.999C771.12 266.137 768.62 269.849 761.219 272.995L759.005 276.179L757.656 277.767C753.903 275.797 751.712 273.77 749.088 270.703Z" fill="#494D5D"/>
<path d="M721.731 296.211C727.176 287.464 737.02 279.122 743.787 270.883C746.776 273.786 749.202 276.133 750.724 279.926L751.918 281.358L751.928 282.199C746.841 284.037 746.255 288.196 743.121 292.024L741.992 293.57C738.922 297.753 734.265 300.687 731.696 304.92L730.865 305.897C728.506 308.707 726.033 312.698 724.829 315.962C724.438 317.022 724.489 316.704 723.59 317.777C722.573 318.985 722.375 319.578 722.097 321.026C720.106 322.442 718.961 323.799 717.277 325.331L714.872 326.944L714.273 328.563L715.475 329.092L714.284 330.703L715.489 331.768L715.233 332.669L714.085 337.894C713.58 340.201 712.054 342.294 711.326 344.627C710.39 347.621 709.393 350.827 707.128 353.217C707.139 355.272 707.666 355.423 705.949 356.961C705.209 355.246 705.114 354.885 703.5 353.773C701.627 355.717 701.332 356.223 700.504 358.6C699.259 362.187 697.28 363.546 697.521 367.718L696.318 369.33C697.37 370.231 696.649 369.862 698.74 369.851C698.839 373.419 695.79 378.002 694.382 381.385C692.435 386.05 691.221 390.876 689.203 395.578L687.384 396.127L686.902 397.568C686.182 399.63 685.08 401.055 683.744 402.842C681.726 405.549 681.556 408.542 680.465 411.502C679.927 412.962 680.187 413.506 680.82 414.898L679.617 416.509C680.52 418.056 679.814 417.446 681.967 418.103C681.192 419.151 680.626 419.995 679.546 420.82C670.897 441.015 670.334 463.465 668.058 484.729C667.62 488.808 665.09 496.773 667.112 500.292L668.011 501.663C664.799 507.82 667.11 511.833 667.412 518.257C667.544 521.114 666.822 523.94 666.988 526.822C667.495 535.681 669.217 545.715 670.535 554.528C672.011 564.407 674.663 574.036 675.758 584.015L677.734 585.153L679.808 582.249L682.89 579.731L684.177 583.101L682.594 587.359L677.536 598.334C675.297 601.645 673.265 604.683 671.781 608.329C671.301 609.507 670.593 610.388 669.727 611.365L669.755 614.442C670.766 615.182 672.891 616.333 673.577 617.231C677.617 622.529 678.859 633.494 680.59 639.91C683.388 650.286 688.121 660.376 690.842 670.662C693.151 679.391 694.86 690.614 700 698.41C697.674 698.702 696.123 698.888 694.047 699.945C685.113 678.991 678.464 657.326 671.934 635.71C654.657 578.539 643.638 522.728 648.036 463.229C651.615 427.855 660.878 392.082 676.038 359.114C677.755 357.453 679.32 355.749 680.4 353.697L681.121 352.287C684.048 350.968 701.275 322.868 703.459 318.587C705.315 317.361 709.258 310.628 710.357 308.589C711.624 306.234 714.374 304.143 715.208 301.906C715.893 300.072 719.963 297.612 721.731 296.211Z" fill="#616472"/>
<path d="M703.459 318.587C705.315 317.361 709.258 310.628 710.357 308.589C711.624 306.234 714.374 304.143 715.208 301.906C715.893 300.072 719.964 297.612 721.732 296.211L721.115 297.34C718.257 302.52 714.177 306.709 711.085 311.692C701.093 327.806 691.444 343.874 683.551 360.827C681.663 364.886 678.908 368.361 677.582 372.632C676.318 376.71 674.066 380.407 672.804 384.43L668.626 396.766C666.516 402.306 663.861 408.186 662.663 413.922C661.898 417.576 661.123 421.679 659.7 425.169L658.799 425.174L658.175 421.431C655.775 428.247 655.471 435.951 653.127 442.334C652.306 444.574 654.269 445.076 651.941 447.157C651.954 449.746 652.888 456.622 651.457 458.542C650.534 459.78 650.992 459.128 650.339 460.468C649.751 461.666 649.051 462.308 648.036 463.229C651.616 427.855 660.878 392.082 676.038 359.114C677.755 357.453 679.321 355.749 680.401 353.697L681.121 352.287C684.048 350.968 701.275 322.868 703.459 318.587Z" fill="#737B8B"/>
<path d="M677.735 585.153C677.041 588.859 673.062 594 670.938 597.321C668.101 575.166 661.519 553.144 659.513 531.031C658.961 524.965 659.54 518.818 659.341 512.736C658.658 491.945 658.984 470.42 662.299 449.787C668.438 411.561 684.178 373.132 704.336 339.137C706.938 334.747 708.648 329.924 711.445 325.674C718.706 314.635 727.279 304.962 735.746 294.736C738.471 291.448 743.481 282.402 747.19 280.777C748.284 280.295 749.548 280.209 750.724 279.926L751.918 281.358L751.928 282.2C746.841 284.037 746.255 288.197 743.121 292.024L741.992 293.57C738.922 297.753 734.265 300.687 731.697 304.92L730.865 305.897C728.506 308.707 726.033 312.698 724.829 315.963C724.438 317.022 724.489 316.704 723.59 317.777C722.574 318.985 722.375 319.578 722.098 321.027C720.107 322.442 718.961 323.799 717.277 325.331L714.872 326.944L714.273 328.564L715.475 329.092L714.284 330.704L715.489 331.769L715.233 332.669L714.086 337.895C713.58 340.202 712.054 342.295 711.326 344.627C710.39 347.622 709.393 350.827 707.129 353.217C707.139 355.272 707.667 355.423 705.949 356.961C705.209 355.247 705.114 354.885 703.5 353.773C701.627 355.717 701.332 356.223 700.504 358.6C699.259 362.188 697.28 363.546 697.521 367.718L696.318 369.33C697.37 370.231 696.649 369.862 698.741 369.852C698.839 373.419 695.79 378.002 694.382 381.385C692.435 386.051 691.221 390.877 689.203 395.578L687.385 396.127L686.902 397.568C686.182 399.63 685.08 401.055 683.745 402.843C681.726 405.549 681.556 408.542 680.465 411.502C679.927 412.962 680.187 413.506 680.82 414.898L679.617 416.51C680.52 418.056 679.814 417.446 681.967 418.103C681.192 419.151 680.626 419.995 679.546 420.82C670.898 441.015 670.334 463.465 668.058 484.729C667.62 488.809 665.09 496.773 667.112 500.292L668.012 501.663C664.8 507.82 667.11 511.833 667.412 518.257C667.545 521.115 666.822 523.941 666.988 526.822C667.495 535.681 669.217 545.715 670.535 554.529C672.011 564.407 674.663 574.036 675.758 584.015L677.735 585.153Z" fill="#3A3C4D"/>
<path d="M759.004 276.179L761.219 272.995C768.62 269.849 771.119 266.137 776.49 260.999C779.036 258.561 781.445 257.037 783.493 254.113C785.333 251.487 784.238 250.791 785.252 248.457C785.601 247.658 791.025 242.761 791.889 241.992C793.412 240.628 794.721 240.914 796.723 240.896C797.985 239.971 798.759 239.342 800.378 238.972C803.364 238.291 807.359 235.057 809.996 233.336L812.401 231.723C815.05 230.48 816.247 228.78 818.687 227.439C819.855 226.794 820.725 226.592 821.528 225.517C822.189 224.631 822.82 223.732 823.848 223.107C825.683 221.991 827.167 220.893 827.916 218.9L828.071 218.258C829.826 216.851 831.419 215.594 833.573 214.686L835.311 213.94C836.886 213.001 837.715 212.232 839.565 211.716C845.545 210.044 850.931 207.24 856.771 205.476C865.117 202.95 876.373 200.147 882.75 194.196C883.684 193.322 884.75 192.245 886.021 191.743C889.413 190.394 891.813 188.31 895.496 187.644L896.889 187.404L897.482 185.801C899.589 185.916 901.059 185.624 902.932 184.693C904.39 183.968 904.451 183.633 906.249 183.306C908.115 182.971 907.286 183.233 908.858 182.759L909.578 182.517C911.243 183.974 911.04 183.58 913.215 183.569C914.039 182.381 914.925 181.256 915.417 179.922L915.6 179.285C919.978 179.339 924.461 178.689 928.186 176.475C930.959 174.825 935.171 176.908 938.572 174.887L939.798 175.941C940.696 174.734 940.689 174.476 942.209 173.786L943.423 174.851C945.744 174.935 948.068 175.058 950.075 173.746C953.373 171.592 956.801 173.668 960.337 171.564L964.59 172.603C966.351 171.046 967.839 171.737 970.013 170.443C972.845 170.511 976.695 170.981 979.097 169.317L980.3 168.25C983.259 168.295 985.802 168.225 988.651 167.363C989.762 167.029 990.367 167.308 991.494 167.653L995.127 168.706C996.315 168.979 997.202 169.169 998.292 169.701C1000 170.538 1003.91 170.042 1006.01 170.039C1011.98 170.028 1025.69 169.464 1030.33 172.038C1004.69 193.134 977.632 212.223 947.401 228.005C890.412 257.751 824.503 272.278 759.004 276.179Z" fill="#2E3245"/>
<path d="M751.928 282.2C749.384 330.301 744.653 377.387 734.607 424.79C726.882 461.238 715.164 497.212 701.824 532.332L685.295 568.515C683.99 573.109 682.119 576.82 679.622 580.995L679.808 582.249L677.734 585.153L675.758 584.015C674.663 574.036 672.011 564.407 670.535 554.529C669.217 545.715 667.495 535.681 666.988 526.822C666.822 523.941 667.544 521.115 667.412 518.257C667.11 511.833 664.799 507.82 668.011 501.663L667.112 500.292C665.09 496.773 667.62 488.809 668.058 484.729C670.334 463.465 670.897 441.015 679.546 420.82C680.626 419.995 681.192 419.151 681.967 418.103C679.814 417.446 680.52 418.056 679.617 416.51L680.82 414.898C680.187 413.506 679.927 412.962 680.465 411.502C681.555 408.542 681.726 405.549 683.744 402.843C685.08 401.055 686.182 399.63 686.902 397.568L687.384 396.127L689.203 395.578C691.221 390.877 692.435 386.051 694.382 381.385C695.79 378.002 698.839 373.419 698.74 369.852C696.649 369.862 697.37 370.231 696.318 369.33L697.521 367.718C697.28 363.546 699.259 362.188 700.504 358.6C701.332 356.223 701.627 355.717 703.5 353.773C705.114 354.885 705.209 355.247 705.949 356.961C707.666 355.423 707.139 355.272 707.128 353.217C709.393 350.827 710.39 347.622 711.326 344.628C712.054 342.295 713.58 340.202 714.085 337.895L715.233 332.669L715.488 331.769L714.284 330.704L715.475 329.092L714.273 328.564L714.872 326.944L717.277 325.331C718.961 323.799 720.106 322.442 722.097 321.027C722.375 319.578 722.573 318.985 723.589 317.777C724.489 316.704 724.438 317.022 724.829 315.963C726.033 312.698 728.506 308.707 730.865 305.897L731.696 304.92C734.265 300.687 738.922 297.753 741.992 293.57L743.121 292.024C746.255 288.197 746.841 284.037 751.928 282.2Z" fill="url(#paint0_linear_14_1837)"/>
<path d="M674.422 471.412L676.158 472.338C676.268 474.458 675 475.958 675.355 477.559C675.735 479.272 675.651 480.352 675.353 482.066C671.27 505.68 680.807 530.481 680.36 553.982C680.331 555.61 680.613 554.866 679.126 556.194L679.746 558.062L680.578 558.376C681.705 558.866 682.126 559.333 682.867 560.189C683.118 563.183 683.027 566.025 682.823 569.018L680.411 571.173L680.753 574.917L683.977 568.223L685.296 568.515C683.99 573.108 682.119 576.82 679.622 580.995C677.572 578.775 677.708 575.659 677.21 572.845C676.132 566.726 674.78 560.529 674.058 554.382C673.659 550.969 673.912 545.937 672.378 542.882L671.79 541.78L672.739 540.17C670.821 537.045 672.352 533.587 671.446 530.252L671.084 529.21C670.743 527.921 670.841 527.066 669.863 525.988L669.293 525.471L669.886 523.327C673.337 515.426 666.977 502.189 671.348 494.889C671.987 493.822 672.383 493.143 672.768 492.004C670.642 490.144 672.772 476.52 672.697 472.777L674.422 471.412Z" fill="#312C3D"/>
<path d="M679.546 420.82C681.203 423.661 681.941 424.471 680.886 427.743C678.16 436.202 679.03 445.763 676.2 453.455L674.421 471.412L672.697 472.777C672.772 476.52 670.642 490.144 672.767 492.004C672.383 493.143 671.987 493.822 671.348 494.889C666.977 502.189 673.337 515.426 669.886 523.327L669.293 525.47L669.862 525.988C670.841 527.065 670.743 527.921 671.084 529.21L671.446 530.252C672.352 533.587 670.821 537.045 672.739 540.17L671.79 541.78L672.378 542.882C673.912 545.937 673.659 550.969 674.057 554.381C674.78 560.529 676.131 566.726 677.21 572.844C677.708 575.659 677.572 578.775 679.622 580.995L679.808 582.249L677.735 585.153L675.758 584.015C674.663 574.036 672.011 564.407 670.535 554.528C669.217 545.715 667.496 535.681 666.988 526.822C666.822 523.94 667.545 521.114 667.412 518.257C667.11 511.833 664.8 507.82 668.012 501.663L667.112 500.292C665.09 496.773 667.62 488.808 668.058 484.729C670.334 463.465 670.898 441.015 679.546 420.82Z" fill="#2E3245"/>
<path d="M1072.96 158.146L1100.31 166.744C1101.54 170.371 1106.18 171.062 1107.43 175.122L1105.95 177.097L1111.91 184.023L1130.38 199.446L1131.32 201.855C1140.93 207.894 1149.51 216.032 1158.18 223.109C1172.82 235.055 1187.95 246.543 1203.56 257.486C1212.38 263.672 1220.23 269.852 1230.18 274.785C1231.86 278.275 1233.23 279.501 1236.85 281.461C1239.07 282.666 1240.63 283.85 1241.81 285.943C1243.76 290.356 1248.1 294.068 1251.3 297.863C1258.36 306.25 1265.6 314.806 1271.84 323.687C1274.3 327.19 1275.14 330.915 1277.26 334.428C1280.04 339.042 1284.97 343.165 1288 348.063C1290.83 352.651 1293.07 358.767 1297.35 362.375L1298.51 362.024C1301 367.037 1304.45 370.833 1307.38 375.526C1308.31 377.009 1309.32 377.974 1310.61 379.206C1308.96 381.905 1307.31 385.651 1304.85 387.771C1301.54 388.769 1299.25 388.895 1295.77 388.705L1295.62 388.171L1290.41 387.138L1278.4 384.903L1274.14 388.52C1268.36 387.659 1262.69 385.789 1257.11 384.221C1219.71 371.953 1190.06 352.777 1160.02 329.909L1129.28 302.926L1108.23 281.62L1111.32 278.154C1101.41 267.623 1091.94 256.193 1080.56 246.889L1078.59 237.717C1079.54 233.073 1078.28 227.07 1077.91 222.346C1076.94 210.02 1075.39 197.783 1074.83 185.43L1073.99 184.662C1072.36 186.153 1071.97 186.286 1069.7 186.857C1068.96 183.926 1068.89 181.033 1068.76 178.041L1071.47 177.419L1072.73 171.576L1072.65 162.918L1072.96 158.146Z" fill="url(#paint1_linear_14_1837)"/>
<path d="M1261.29 380.643L1278.4 384.903L1274.14 388.52C1268.36 387.659 1262.69 385.789 1257.11 384.221L1261.29 380.643Z" fill="#2E3245"/>
<path d="M1111.32 278.154L1133.12 300.596C1131.6 302.289 1131.63 302.453 1129.28 302.925L1108.23 281.62L1111.32 278.154Z" fill="#3A3C4D"/>
<path d="M1133.12 300.596L1163.9 327.811L1160.02 329.908L1129.28 302.926C1131.63 302.453 1131.6 302.289 1133.12 300.596Z" fill="#2E3245"/>
<path d="M1163.9 327.812C1181.4 340.945 1200.71 355.303 1220.84 365.135C1233.78 371.453 1247.52 376.003 1261.29 380.642L1257.11 384.22C1219.71 371.953 1190.06 352.777 1160.02 329.909L1163.9 327.812Z" fill="#312C3D"/>
<path d="M1072.73 171.576L1073.54 173.772C1076.53 173.891 1077.49 174.051 1079.84 175.685C1087.97 181.34 1102.02 181.66 1111.91 184.023L1130.38 199.446L1131.32 201.855C1127.24 200.193 1123.85 195.555 1119.97 194.427C1115.45 193.11 1111.6 195.133 1106.92 192.587L1106.28 192.212L1104.47 192.975C1102.23 192.787 1098.55 192.819 1096.63 191.733L1095.99 191.246C1093.19 191.405 1092.27 191.068 1089.93 189.899L1092.35 189.618C1091.8 189.231 1091.21 188.771 1090.54 188.55C1088.32 187.824 1087.2 188.112 1085.09 188.699C1081.63 187.182 1078.72 185.862 1074.83 185.43L1073.99 184.662C1072.36 186.153 1071.97 186.286 1069.7 186.857C1068.96 183.926 1068.89 181.033 1068.76 178.041L1071.47 177.419L1072.73 171.576Z" fill="#3A3C4D"/>
<path d="M1072.73 171.576L1073.54 173.772L1073.99 184.662C1072.36 186.153 1071.97 186.286 1069.7 186.857C1068.96 183.926 1068.89 181.033 1068.76 178.041L1071.47 177.419L1072.73 171.576Z" fill="#616472"/>
<path d="M1072.96 158.146L1100.31 166.744C1101.54 170.371 1106.18 171.062 1107.43 175.122L1105.95 177.097L1111.91 184.023C1102.02 181.66 1087.96 181.34 1079.84 175.685C1077.49 174.051 1076.53 173.891 1073.54 173.772L1072.73 171.576L1072.65 162.918L1072.96 158.146Z" fill="#494D5D"/>
<path d="M1072.96 158.146L1100.31 166.744C1101.54 170.371 1106.18 171.062 1107.43 175.122L1105.95 177.097L1100.75 172.983C1093.98 172.706 1083.09 170.959 1078 166.746L1072.65 162.918L1072.96 158.146Z" fill="#616472"/>
<path d="M1287.82 361.838L1285.93 357.981L1284.43 354.536C1283.91 353.259 1284.04 353.064 1282.85 352.029L1281.99 351.337L1283.18 350.26L1281.97 348.126L1280.14 345.99C1279.01 343.957 1278.78 342.61 1277.09 340.66C1275.55 338.878 1274.79 337.101 1273.43 335.327L1271.6 333.188C1270.81 331.735 1271.06 330.971 1269.74 329.592L1268.56 328.395L1269.75 327.852C1268.71 326.536 1267.47 325.2 1266.88 323.671C1266.48 322.629 1265.93 322.594 1264.9 321.991L1264.88 319.314L1263.66 318.775L1263.96 319.587L1263.06 320.918L1260.64 319.33C1259.84 315.274 1258.94 313.722 1255.34 311.23C1252.5 309.261 1254.82 309.367 1253.93 307.062C1253.61 306.249 1250 303.057 1249.06 301.735C1248.21 300.553 1246.42 299.666 1245.41 298.543C1241.94 294.683 1242.53 290.902 1236.39 289.114L1235.67 288.95C1233.33 286.014 1231.02 283.398 1229.9 279.891L1230.77 278.818C1231.6 282.376 1233.75 283.554 1236.56 286.011L1241.81 285.943C1243.76 290.355 1248.1 294.068 1251.3 297.863C1258.36 306.25 1265.6 314.806 1271.84 323.687C1274.3 327.19 1275.14 330.915 1277.26 334.428C1280.04 339.042 1284.97 343.165 1288 348.062C1290.83 352.651 1293.07 358.766 1297.35 362.375L1298.51 362.024C1301 367.036 1304.45 370.833 1307.38 375.525C1308.31 377.009 1309.32 377.973 1310.61 379.205C1308.96 381.904 1307.31 385.65 1304.85 387.77C1301.54 388.768 1299.25 388.895 1295.77 388.705L1295.62 388.171L1290.41 387.137L1292.73 385.539C1291.15 382.053 1293.01 377.915 1291.79 374.835C1291.01 372.88 1290.57 373.003 1290.56 370.559L1288.37 367.627C1286.75 365.268 1287.12 364.496 1287.82 361.838Z" fill="#1F1C26"/>
<path d="M1287.82 361.838C1290.82 365.804 1297.45 375.061 1296.64 379.636L1298.1 380.16C1300.48 381.792 1301.15 383.276 1304.13 384.749L1304.85 387.77C1301.54 388.768 1299.25 388.895 1295.77 388.705L1295.62 388.171L1290.41 387.137L1292.73 385.539C1291.15 382.053 1293.01 377.915 1291.79 374.835C1291.01 372.88 1290.57 373.003 1290.56 370.559L1288.37 367.627C1286.75 365.268 1287.12 364.496 1287.82 361.838Z" fill="#0F0817"/>
<path d="M1080.56 246.889C1091.94 256.193 1101.41 267.623 1111.32 278.154L1108.23 281.62L1129.28 302.926L1160.02 329.908C1190.06 352.777 1219.71 371.953 1257.11 384.22C1262.69 385.789 1268.36 387.659 1274.14 388.52L1278.4 384.903L1290.41 387.137L1295.62 388.171L1295.77 388.705L1294.38 390.375L1296.07 392.663L1301.1 394.207L1305.78 397.441L1302.88 402.47C1305.85 406.113 1304.06 410.279 1304.62 414.709C1305.18 419.14 1306.58 424.58 1307.8 428.804C1308.49 431.204 1307.85 434.898 1307.94 437.449C1307.99 438.824 1308.68 439.336 1309.07 440.572C1310.08 443.784 1309.37 447.728 1310.34 451.269C1310.84 453.135 1310.16 454.695 1311.07 456.594C1312.69 459.986 1310.86 463.265 1313.29 466.71L1250.66 487.032L1241.88 491.006C1241.73 489.119 1241.6 487.522 1242.07 485.662C1242.52 483.826 1242.34 484.082 1241.5 482.495L1221.22 480.741C1212.6 479.678 1204.23 476.302 1196.3 473.268C1151.05 455.972 1122.02 423.53 1093.38 389.47L1091.56 388.819C1090.11 387.818 1090.62 385.867 1090.6 384.376L1095.12 382.975C1093.63 381.278 1090.13 378.277 1089.34 376.409C1087.26 371.457 1088.21 359.251 1087.88 353.638C1086.42 329.124 1085.7 304.201 1082.59 279.822L1080.78 280.355C1079.88 278.45 1079.9 276.54 1079.78 274.507C1078.12 276.979 1077.45 279.051 1076.65 281.828C1076.38 277.158 1075.67 272.509 1075.46 267.841C1075.27 263.893 1076.33 259.887 1073.83 256.426C1078.09 252.869 1079.55 252.193 1080.56 246.889Z" fill="#0F0817"/>
<path d="M1278.4 384.903L1290.41 387.137L1295.62 388.171L1295.77 388.705L1294.38 390.375L1296.07 392.663L1274.14 388.52L1278.4 384.903Z" fill="#3A3C4D"/>
<path d="M1301.1 394.207L1305.78 397.441L1302.88 402.47L1263.31 461.796L1260.51 458.271L1301.1 394.207Z" fill="#3A3C4D"/>
<path d="M1080.56 246.889C1091.94 256.193 1101.41 267.623 1111.32 278.154L1108.23 281.62L1081.46 252.501C1079.64 259.692 1082.27 272.237 1082.59 279.822L1080.78 280.355C1079.88 278.45 1079.9 276.54 1079.78 274.507C1078.12 276.979 1077.45 279.051 1076.65 281.828C1076.38 277.158 1075.67 272.509 1075.46 267.841C1075.27 263.893 1076.33 259.887 1073.83 256.426C1078.09 252.869 1079.55 252.193 1080.56 246.889Z" fill="#525061"/>
<path d="M1095.13 382.975C1102.55 391.801 1108.75 401.718 1116.34 410.267C1141.04 438.084 1181.19 469.97 1222.15 475.393L1246.48 477.499C1247.85 475.661 1259.68 458.453 1260.51 458.27L1263.31 461.796C1261.54 470.404 1254.27 475.617 1250.88 483.685L1250.3 484.97L1249.97 485.745L1250.66 487.032L1241.88 491.006C1241.73 489.119 1241.6 487.522 1242.07 485.662C1242.52 483.827 1242.34 484.082 1241.5 482.495L1221.22 480.741C1212.6 479.678 1204.23 476.302 1196.3 473.268C1151.05 455.972 1122.02 423.53 1093.38 389.47L1091.56 388.819C1090.11 387.818 1090.62 385.867 1090.6 384.376L1095.13 382.975Z" fill="#1F1C26"/>
<path d="M1302.88 402.47C1305.85 406.113 1304.06 410.279 1304.62 414.709C1305.18 419.14 1306.58 424.58 1307.8 428.804C1308.49 431.204 1307.85 434.898 1307.94 437.449C1307.99 438.824 1308.68 439.336 1309.07 440.572C1310.08 443.784 1309.37 447.728 1310.34 451.268C1310.84 453.135 1310.15 454.694 1311.07 456.594C1312.69 459.986 1310.86 463.265 1313.29 466.71L1250.66 487.032L1249.97 485.745L1250.3 484.97L1250.88 483.685C1254.27 475.617 1261.54 470.404 1263.31 461.796L1302.88 402.47Z" fill="#010104"/>
<path d="M710.554 703.53L719.825 702.759L723.959 697.975C724.795 698.519 725.496 699.282 726.467 699.604C729.437 700.583 738.624 699.632 742.15 699.638C762.44 699.674 783.101 700.242 803.354 699.266L805.767 705.211C816.982 725.562 829.003 746.229 845.488 763.695C858.945 777.951 875.531 789.859 893.131 799.888L898.922 802.42L902.206 810.865C910.101 831.021 914.433 853.501 916.289 874.738C917.273 886.006 918.004 897.338 918.396 908.631C918.444 910.033 918.132 918.176 918.672 918.883C918.968 919.27 919.564 919.382 920.008 919.635L921.197 919.459C921.455 921.375 921.533 922.781 922.558 924.524L918.91 929.064L916.725 933.7L886.677 967.527C882.384 974.348 876.534 979.773 871.334 986.022L870.727 986.719C868.808 988.975 868.353 990.877 867.884 993.63C858.185 985.375 848.458 974.694 841.185 964.695C831.861 957.09 822.762 942.663 816.559 932.896L792.48 896.579L768.779 856.112L760.282 841.241C755.215 834.296 751.645 825.579 747.699 818.056C740.716 804.739 731.995 790.275 727.248 776.262C726.939 767.953 723.254 764.059 720.102 756.685C717.939 751.619 716.268 746.739 713.928 741.72C708.875 730.893 705.662 718.598 702.898 707.15L701.625 705.91L699.931 703.655C703.121 703.529 707.514 702.838 710.554 703.53Z" fill="#0F0817"/>
<path d="M893.13 799.888L898.921 802.42L902.205 810.865C901.123 812.531 900.05 813.427 900.277 815.382C900.471 817.036 900.268 818.473 900.013 820.113C898.137 814.311 892.93 805.597 893.13 799.888Z" fill="#312C3D"/>
<path d="M720.209 708.684C722.602 707.817 722.509 707.628 724.877 708.452L741.816 730.59L740.951 730.98C739.671 731.516 740.194 731.368 738.732 731.425C738.778 732.627 738.924 733.876 738.769 735.072L725.658 718.219L720.209 708.684Z" fill="#494D5D"/>
<path d="M741.816 730.589C753.748 744.67 762.124 761.925 770.975 777.621L767.919 782.794L738.769 735.071C738.924 733.876 738.778 732.627 738.732 731.424C740.194 731.367 739.671 731.515 740.951 730.98L741.816 730.589Z" fill="#525061"/>
<path d="M770.975 777.621C774.703 783.88 797.987 825.18 796.902 828.747C797.234 831.288 797.497 833.485 797.03 836.022C797.68 837.158 798.379 838.174 799.202 839.219L798.888 840.827L797.539 838.798L795.603 838.725L767.919 782.794L770.975 777.621Z" fill="#312C3D"/>
<path d="M796.903 828.747C807.655 852.076 818.034 877.98 821.986 903.092C820.076 900.384 817.341 897.548 817.934 894.248C815.925 891.426 817.138 889.348 815.179 886.768C815.181 888.944 814.573 889.44 816.387 891.045C816.409 893.442 816.994 893.44 817.618 895.319C818.338 897.491 817.299 902.71 817.191 905.185L795.603 838.725L797.54 838.798L798.888 840.827L799.202 839.219C798.379 838.174 797.68 837.158 797.03 836.022C797.497 833.485 797.235 831.289 796.903 828.747Z" fill="#2E3245"/>
<path d="M710.554 703.53L719.825 702.759L723.958 697.975C724.795 698.519 725.496 699.282 726.467 699.603C729.437 700.583 738.624 699.631 742.15 699.638C762.44 699.674 783.101 700.242 803.354 699.266L805.767 705.211C795.997 703.088 784.966 703.967 774.938 704.01C757.979 704.086 741.021 704.187 724.062 704.293C720.427 703.501 714.742 704.155 710.554 703.53Z" fill="#525061"/>
<path d="M817.191 905.185C817.299 902.71 818.338 897.491 817.618 895.319C816.995 893.44 816.409 893.443 816.387 891.045C814.573 889.44 815.181 888.944 815.179 886.768C817.138 889.348 815.925 891.426 817.934 894.248C817.341 897.548 820.076 900.384 821.986 903.092C824.496 913.001 827.326 922.815 829.939 932.696C831.234 937.605 831.557 942.53 833.985 947.149C835.123 949.316 834.935 951.24 834.873 953.575L835.932 954.701C839.144 958.173 840.239 960.25 841.185 964.695C831.861 957.09 822.762 942.663 816.559 932.896C818.351 931.419 819.715 929.669 821.193 927.946C822.218 921.247 818.583 911.902 817.191 905.185Z" fill="#3A3C4D"/>
<path d="M902.205 810.865C910.1 831.021 914.432 853.501 916.289 874.738C917.273 886.006 918.003 897.338 918.396 908.63C918.443 910.033 918.132 918.176 918.672 918.882C918.968 919.27 919.563 919.382 920.008 919.635L921.196 919.459C921.454 921.375 921.533 922.781 922.558 924.523L918.91 929.063L916.725 933.7L886.676 967.527C886.593 965.864 886.485 966.465 886.96 964.846L887.414 963.427C887.792 962.203 888.033 961.44 888.864 960.386L910.766 932.371C914.441 926.955 912.852 915.002 912.608 908.537C911.457 878.045 907.641 849.801 900.013 820.113C900.268 818.473 900.471 817.036 900.277 815.382C900.05 813.427 901.123 812.531 902.205 810.865Z" fill="url(#paint2_linear_14_1837)"/>
<path d="M699.931 703.656C703.121 703.53 707.514 702.838 710.553 703.53C714.742 704.155 720.427 703.501 724.062 704.293L724.877 708.451C722.508 707.628 722.602 707.816 720.209 708.684L725.658 718.219L738.769 735.071L767.919 782.794L795.603 838.725L817.191 905.185C818.582 911.902 822.218 921.247 821.193 927.946C819.715 929.669 818.351 931.419 816.559 932.896L792.48 896.579L768.779 856.112L760.282 841.241C755.215 834.296 751.645 825.579 747.699 818.056C740.716 804.739 731.995 790.275 727.248 776.262C726.939 767.953 723.254 764.059 720.102 756.685C717.938 751.619 716.268 746.739 713.928 741.72C708.875 730.893 705.661 718.598 702.898 707.15L701.625 705.91L699.931 703.656Z" fill="url(#paint3_linear_14_1837)"/>
<path d="M699.931 703.656C703.121 703.53 707.514 702.838 710.553 703.53C714.742 704.155 720.427 703.501 724.062 704.293L724.877 708.451C722.508 707.628 722.602 707.816 720.209 708.684L725.658 718.219L723.528 719.194C726.095 723.666 729.967 728.488 731.005 733.338C731.354 734.953 732.223 736.409 733.033 737.877L732.507 739.118L731.41 742.173C729.109 739.927 728.727 739.206 727.857 736.303C727.06 733.63 724.908 730.887 723.933 728.067C723.367 726.434 723.083 725.419 721.507 724.304L720.933 725.436L719.93 725.635L716.285 722.149C715.007 717.731 712.627 712.805 709.801 708.97C707.685 706.101 705.221 706.497 701.625 705.91L699.931 703.656Z" fill="#312C3D"/>
<path d="M766.58 842.357L768.805 841.271L769.069 841.993C771.155 847.03 775.108 851.846 776.601 857.061C777.487 860.166 781.704 862.745 783.605 865.525C787.136 870.694 788.603 876.492 791.719 881.726C792.897 883.704 793.583 885.822 794.783 887.818C795.871 889.629 795.895 890.731 795.822 892.756L795.156 893.417L792.48 896.579L768.779 856.112C768.829 851.251 766.024 846.801 766.58 842.357Z" fill="#2E3245"/>
<path d="M701.624 705.91C705.221 706.497 707.685 706.101 709.8 708.97C712.627 712.805 715.007 717.731 716.284 722.149C719.014 731.345 723.206 739.779 726.452 748.775C727.885 752.741 727.907 757.018 729.551 760.944C731.282 765.076 734.445 768.6 736.183 772.799C738.875 779.299 740.729 785.709 743.965 792.105C748.322 800.722 752.439 809.688 757.049 818.156C760.13 823.812 765.073 830.777 766.987 836.71C767.359 837.867 766.659 841.03 766.579 842.357C766.023 846.802 768.828 851.251 768.778 856.112L760.281 841.241C755.214 834.296 751.644 825.579 747.699 818.056C740.715 804.739 731.994 790.275 727.247 776.262C726.938 767.953 723.253 764.059 720.102 756.685C717.938 751.619 716.268 746.739 713.928 741.72C708.875 730.893 705.661 718.598 702.898 707.15L701.624 705.91Z" fill="#494D5D"/>
<path d="M702.897 707.15C705.166 711.471 708.162 715.774 709.635 720.331L716.649 736.599C717.852 739.766 719.922 742.84 721.27 745.965C723.493 751.116 723.789 757.494 726.195 762.529C732.774 776.3 739.68 790.071 745.493 804.175C747.039 807.924 746.793 812.375 748.775 815.932C751.189 820.266 755.332 823.456 757.779 828.085C759.822 831.952 761.762 834.548 760.768 838.926L760.503 840.319L760.281 841.241C755.214 834.296 751.644 825.579 747.699 818.056C740.715 804.739 731.994 790.275 727.247 776.262C726.938 767.953 723.253 764.059 720.102 756.685C717.938 751.619 716.268 746.739 713.928 741.72C708.875 730.893 705.661 718.598 702.897 707.15Z" fill="#525061"/>
<path d="M1057.29 154.511C1060.49 155.193 1063.79 155.729 1066.73 157.063L1072.96 158.146L1072.65 162.918L1072.73 171.576L1071.47 177.419L1068.76 178.041C1068.89 181.033 1068.96 183.926 1069.7 186.857C1071.97 186.286 1072.36 186.153 1073.99 184.662L1074.83 185.43C1075.39 197.783 1076.94 210.02 1077.91 222.346C1078.28 227.07 1079.54 233.073 1078.59 237.717L1080.56 246.889C1079.55 252.193 1078.09 252.869 1073.83 256.426C1076.34 259.888 1075.27 263.894 1075.46 267.841C1075.67 272.509 1076.38 277.158 1076.65 281.829C1077.45 279.052 1078.12 276.979 1079.78 274.507C1079.9 276.54 1079.88 278.45 1080.78 280.355L1082.59 279.823C1085.7 304.202 1086.42 329.125 1087.88 353.638C1088.21 359.251 1087.26 371.458 1089.34 376.409C1090.13 378.277 1093.63 381.278 1095.13 382.975L1090.6 384.377C1089.66 385.231 1086.23 387.794 1085.81 388.736C1084.45 391.738 1087.08 403.227 1084.82 404.793L1084.98 386.743L1058.68 415.832C1050.63 423.96 1041.52 433.295 1031.88 439.872C1006.33 457.293 976.49 466.516 944.5 468.467L916.643 468.717C914.828 471.751 915.413 474.833 915.607 478.153C915.279 484.156 915.436 490.597 914.31 496.527L909.218 494.323L822.21 469.44L817.811 468.851L790.153 463.916C784.169 490.791 777.706 519.656 777.466 547.121L775.419 600.98L776.453 611.664C780.654 642.518 790.272 670.527 803.354 699.266C783.101 700.242 762.44 699.674 742.15 699.638C738.624 699.632 729.437 700.583 726.467 699.604C725.496 699.283 724.795 698.519 723.959 697.975L719.826 702.759L710.554 703.53C707.514 702.838 703.121 703.53 699.931 703.656L695.474 703.922L694.047 699.945C696.124 698.888 697.675 698.702 700 698.411C694.861 690.614 693.152 679.391 690.842 670.662C688.122 660.376 683.389 650.287 680.591 639.91C678.86 633.494 677.617 622.529 673.578 617.231C672.892 616.333 670.766 615.182 669.756 614.442L669.728 611.365C670.593 610.388 671.301 609.507 671.782 608.329C673.265 604.683 675.298 601.645 677.536 598.334L682.595 587.359L684.178 583.101L682.89 579.732L679.808 582.249L679.622 580.995C682.119 576.82 683.99 573.109 685.296 568.515L701.824 532.332C715.164 497.212 726.882 461.238 734.608 424.79C744.653 377.387 749.384 330.301 751.929 282.2L751.918 281.358L750.724 279.926C749.202 276.133 746.777 273.787 743.787 270.884L743.659 270.687C741.519 268.391 740.293 267.265 739.382 264.325L743.028 260.009C744.529 263.934 746.542 267.233 749.087 270.703C751.712 273.769 753.903 275.797 757.656 277.767L759.005 276.179C824.504 272.278 890.413 257.751 947.401 228.005C977.632 212.223 1004.69 193.134 1030.33 172.038L1034.93 168.737L1037.47 171.606C1041.39 168.811 1044.93 165.203 1048.49 162.025L1057.29 154.511Z" fill="url(#paint4_linear_14_1837)"/>
<path d="M776.12 301.264L786.156 312.929L782.736 316.49L773.258 304.961C773.831 303.627 775.144 302.409 776.12 301.264Z" fill="#616472"/>
<path d="M1074.32 247.685C1076.31 245.357 1075.12 240.763 1076.1 237.886L1076.55 236.793L1076.84 235.189C1076.93 236.703 1077.42 236.684 1078.59 237.717L1080.56 246.889C1079.55 252.193 1078.09 252.869 1073.83 256.426L1048.08 281.625L1045.35 281.557L1045.31 278.301C1055.1 271.121 1068.18 257.485 1074.32 247.685Z" fill="#636375"/>
<path d="M1073.99 184.662L1074.83 185.43C1075.39 197.783 1076.94 210.02 1077.91 222.346C1078.28 227.07 1079.54 233.073 1078.58 237.717C1077.42 236.684 1076.93 236.703 1076.84 235.189L1076.55 236.793L1076.1 237.886C1075.12 240.762 1076.31 245.357 1074.32 247.685C1074.87 240.188 1073.45 232.343 1072.74 224.868C1071.54 212.213 1070.48 199.54 1069.7 186.857C1071.97 186.286 1072.36 186.153 1073.99 184.662Z" fill="#525061"/>
<path d="M786.156 312.93L827.826 360.744L822.749 359.041L822.129 359.584L822.477 360.435L823.578 364.21L782.735 316.49L786.156 312.93Z" fill="#525061"/>
<path d="M1057.29 154.51C1060.49 155.193 1063.79 155.729 1066.73 157.062L1072.96 158.145L1072.65 162.917L1072.73 171.576L1071.47 177.419L1068.76 178.041L1067.6 169.755C1063.28 169.191 1058.06 169.254 1054.01 168.03C1050.16 166.872 1050.15 165.181 1048.49 162.025L1057.29 154.51Z" fill="#616472"/>
<path d="M1066.73 157.062L1072.96 158.146L1072.65 162.918L1072.73 171.576L1071.47 177.419L1068.76 178.041L1067.6 169.756L1066.73 157.062Z" fill="#737B8B"/>
<path d="M917.37 351.384C968.402 339.28 1009.76 312.044 1045.31 278.301L1045.35 281.556L1048.08 281.624C1039.28 291.786 1027.02 301.086 1015.82 309.12C987.924 329.126 956.786 346.255 921.932 354.83C920.818 353.183 919.144 352.395 917.37 351.384Z" fill="#312C3D"/>
<path d="M1030.33 172.038L1034.93 168.737L1037.47 171.607C987.483 214.417 920.796 250.75 853.09 266.347C834.226 270.691 815.342 274.169 796.054 276.693C785.252 278.107 772.265 278.275 761.95 280.975C759.008 281.747 759.438 281.657 758.825 284.181C765.106 289.725 771.478 294.441 776.12 301.264C775.144 302.409 773.83 303.627 773.258 304.962L757.482 286.331C755.442 299.768 755.319 313.304 754.075 326.795C752.39 345.118 749.574 363.787 746.696 381.999C741.64 413.961 734.283 446.77 724.743 477.958C719.039 496.614 711.949 514.897 705.689 533.408L701.824 532.332C715.163 497.212 726.882 461.238 734.607 424.79C744.653 377.387 749.383 330.301 751.928 282.2L751.917 281.358L750.723 279.926C749.201 276.133 746.776 273.787 743.787 270.884L743.659 270.687C741.519 268.391 740.292 267.265 739.382 264.325L743.028 260.009C744.529 263.934 746.541 267.233 749.087 270.703C751.711 273.769 753.903 275.797 757.655 277.767L759.004 276.179C824.503 272.278 890.412 257.751 947.401 228.005C977.632 212.223 1004.69 193.134 1030.33 172.038Z" fill="#636375"/>
<path d="M743.028 260.009C744.529 263.934 746.542 267.234 749.087 270.703C751.712 273.77 753.903 275.797 757.656 277.767L759.286 279.633L755.793 284.295C753.525 283.66 753.364 283.072 751.918 281.359L750.724 279.926C749.202 276.133 746.777 273.787 743.787 270.884L743.659 270.687C741.519 268.391 740.293 267.266 739.382 264.325L743.028 260.009Z" fill="#737B8B"/>
<path d="M705.69 533.408C711.949 514.897 719.04 496.614 724.744 477.958C734.284 446.77 741.641 413.961 746.697 381.999C749.575 363.787 752.391 345.118 754.075 326.795C755.32 313.304 755.442 299.767 757.483 286.33L773.258 304.962L782.736 316.49L823.578 364.21L824.406 365.436C824.881 366.922 825.166 369.235 826.432 370.267L826.724 368.118L828.086 367.787C829.58 367.396 830.749 366.93 832.112 366.287L831.229 368.607L830.135 373.504L823.983 455.656L822.21 469.44L817.811 468.851L790.154 463.916C784.17 490.791 777.706 519.656 777.466 547.121L775.419 600.98L776.453 611.664C780.655 642.518 790.272 670.527 803.355 699.266C783.101 700.242 762.44 699.674 742.15 699.638C738.624 699.632 729.437 700.583 726.467 699.604C725.496 699.283 724.795 698.519 723.959 697.975L719.826 702.759L710.554 703.53C707.514 702.838 703.121 703.53 699.931 703.655L695.474 703.922L694.047 699.945C696.124 698.888 697.675 698.702 700 698.411C694.861 690.614 693.152 679.391 690.842 670.662C688.122 660.376 683.389 650.286 680.591 639.91C678.86 633.494 677.617 622.529 673.578 617.231C672.892 616.333 670.767 615.182 669.756 614.442L669.728 611.365C670.593 610.388 671.301 609.507 671.782 608.329C673.266 604.683 675.298 601.645 677.536 598.334L682.595 587.359L684.178 583.101L682.89 579.732L679.808 582.249L679.622 580.995C682.12 576.82 683.99 573.108 685.296 568.515L701.824 532.332L705.69 533.408Z" fill="url(#paint5_linear_14_1837)"/>
<path d="M820.052 449.908C822.008 451.899 823.003 453.168 823.982 455.656L822.209 469.44L817.81 468.851L820.052 449.908Z" fill="#525061"/>
<path d="M701.823 532.332L705.689 533.408L684.282 583.084L684.177 583.101L682.889 579.732L679.807 582.249L679.621 580.995C682.119 576.82 683.989 573.109 685.295 568.515L701.823 532.332Z" fill="#494D5D"/>
<path d="M824.406 365.436C824.881 366.921 825.166 369.235 826.432 370.267L826.724 368.117L828.086 367.787C829.58 367.396 830.749 366.93 832.112 366.287L831.228 368.607L830.135 373.503L823.983 455.656C823.003 453.167 822.008 451.898 820.053 449.908L824.406 365.436Z" fill="#494D5D"/>
<path d="M720.544 692.543C737.59 668.46 753.08 643.599 766.905 617.985C769.922 612.393 773.938 607.098 775.418 600.98L776.452 611.664L724.301 696.672L723.961 693.059L720.544 692.543Z" fill="#525061"/>
<path d="M682.595 587.359C682.734 589.755 682.249 593.024 684.163 594.7L681.754 595.515C681.765 597.211 681.501 598.231 682.979 599.523L684.806 600.59L685.036 601.822C685.41 603.45 685.701 603.567 686.638 604.855L691.523 613.93L690.325 615.273C691.014 616.089 691.527 616.525 692.414 617.17C694.535 618.71 695.313 620.588 695.47 622.925L695.522 624.618L696.424 623.547C697.623 625.865 697.733 627.432 697.669 629.964C698.383 630.848 699.403 631.593 699.814 632.616C700.843 635.187 698.325 639.005 701.776 640.106C703.517 645.391 702.672 652.226 702.654 657.767C705.788 658.668 704.79 659.879 708.716 659.939L711.926 667.342L711.545 667.98C710.96 669.227 711.133 670.325 711.195 671.637L712.4 672.691L711.194 673.769C711.207 675.161 710.842 676.448 711.731 677.616C712.607 678.776 713.267 680.006 713.968 681.252L714.865 679.112C715.582 679.996 716.543 680.759 717.019 681.765C717.652 683.112 716.891 691.23 717.594 691.76C718.375 692.348 719.561 692.282 720.544 692.543L723.961 693.059L724.302 696.672L723.958 697.975L719.825 702.759L710.553 703.53C707.514 702.838 703.121 703.529 699.931 703.655L695.474 703.922L694.047 699.945C696.123 698.888 697.675 698.702 700 698.41C694.86 690.614 693.151 679.391 690.842 670.662C688.122 660.376 683.389 650.286 680.59 639.91C678.86 633.494 677.617 622.529 673.577 617.231C672.891 616.333 670.766 615.182 669.756 614.442L669.727 611.365C670.593 610.388 671.301 609.507 671.781 608.329C673.265 604.683 675.297 601.645 677.536 598.334L682.595 587.359Z" fill="#312C3D"/>
<path d="M720.544 692.542L723.961 693.059L724.302 696.672L723.959 697.975L719.825 702.759L710.554 703.53C707.514 702.838 703.121 703.529 699.931 703.655L695.474 703.922L694.047 699.945C696.124 698.888 697.675 698.702 700 698.41C703.217 698.671 705.542 699.593 708.107 697.739C709.979 697.762 711.2 697.813 712.975 698.399C714.986 699.062 713.792 698.896 716.174 698.793L720.544 692.542Z" fill="#737A87"/>
<path d="M677.535 598.334L707.606 696.799L708.107 697.739C705.542 699.593 703.216 698.671 699.999 698.411C694.86 690.614 693.151 679.391 690.841 670.662C688.121 660.376 683.388 650.286 680.59 639.91C678.859 633.494 677.616 622.529 673.577 617.231C672.891 616.333 670.766 615.182 669.755 614.442L669.727 611.365C670.592 610.388 671.3 609.507 671.781 608.329C673.265 604.683 675.297 601.645 677.535 598.334Z" fill="#494D5D"/>
<path d="M724.302 696.672L776.453 611.664C780.654 642.518 790.272 670.527 803.354 699.266C783.101 700.242 762.439 699.674 742.15 699.638C738.624 699.632 729.437 700.583 726.467 699.604C725.495 699.283 724.794 698.519 723.958 697.975L724.302 696.672Z" fill="#0F0817"/>
<path d="M1073.83 256.426C1076.34 259.887 1075.27 263.893 1075.46 267.841C1075.67 272.509 1076.38 277.158 1076.65 281.829C1077.45 279.051 1078.12 276.979 1079.78 274.507C1079.9 276.54 1079.88 278.45 1080.78 280.355L1082.59 279.822C1085.7 304.202 1086.42 329.125 1087.88 353.638C1088.21 359.251 1087.26 371.458 1089.34 376.409C1090.13 378.277 1093.63 381.278 1095.13 382.975L1090.6 384.376C1089.66 385.231 1086.23 387.794 1085.81 388.736C1084.45 391.738 1087.08 403.227 1084.82 404.792L1084.98 386.743L1058.68 415.832C1050.63 423.96 1041.52 433.295 1031.88 439.872C1006.33 457.293 976.49 466.516 944.5 468.467L916.643 468.716C914.827 471.751 915.413 474.833 915.607 478.153C915.278 484.156 915.435 490.597 914.31 496.527L909.218 494.322L822.21 469.44L823.983 455.656L830.135 373.504L831.228 368.607L832.112 366.287C830.749 366.93 829.58 367.396 828.086 367.787L826.724 368.118L826.432 370.267C825.165 369.235 824.881 366.921 824.405 365.436L823.578 364.21L822.478 360.434L822.129 359.584L822.749 359.041L827.826 360.744C843.079 362.137 859.878 361.059 875.109 359.405L875.25 359.155L917.37 351.384C919.144 352.395 920.818 353.183 921.932 354.83C956.785 346.255 987.923 329.126 1015.82 309.12C1027.02 301.086 1039.28 291.786 1048.08 281.624L1073.83 256.426Z" fill="#0F0817"/>
<path d="M831.228 368.607C838.164 373.356 844.753 380.545 849.184 387.257L845.26 386.225C845.281 388.025 845.4 388.211 846.377 389.68L845.11 390.163C839.498 386.888 836.368 377.744 830.134 373.504L831.228 368.607Z" fill="#525061"/>
<path d="M875.108 359.405L875.25 359.155L917.369 351.385C919.143 352.395 920.817 353.184 921.932 354.83C906.675 358.084 890.608 361.827 874.963 363.102C875.814 362.202 875.286 362.594 876.915 361.95L878.264 361.439L875.108 359.405Z" fill="#3A3C4D"/>
<path d="M823.578 364.21L822.477 360.435L822.129 359.584L822.749 359.041L827.826 360.744C843.079 362.137 859.877 361.059 875.109 359.405L878.264 361.439L876.916 361.95C875.286 362.594 875.814 362.202 874.963 363.103C865.209 363.901 855.426 364.197 845.645 364.64C841.485 364.828 835.873 364.547 832.111 366.287C830.748 366.93 829.58 367.396 828.085 367.788L826.724 368.118L826.431 370.268C825.165 369.236 824.88 366.922 824.405 365.436L823.578 364.21Z" fill="#636375"/>
<path d="M845.11 390.163L846.378 389.68C845.401 388.211 845.282 388.025 845.26 386.225L849.185 387.257C855.13 393.288 860.221 400.142 865.469 406.664C866.563 408.02 869.216 410.533 869.493 412.143L869.706 413.139C870.28 415.665 870.638 417.272 872.637 419.169C873.848 420.319 874.76 421.681 875.727 422.997L875.046 422.592L869.638 419.727L845.11 390.163Z" fill="#312C3D"/>
<path d="M869.493 412.143C880.549 422.712 891.122 437.095 899.918 449.276L899.906 449.345L897.212 453.124L869.637 419.726L875.046 422.592L875.727 422.997C874.759 421.681 873.848 420.319 872.637 419.169C870.638 417.272 870.28 415.665 869.706 413.139L869.493 412.143Z" fill="#2E3245"/>
<path d="M1076.65 281.829C1077.45 279.051 1078.12 276.979 1079.78 274.507C1079.9 276.54 1079.88 278.45 1080.78 280.355L1082.59 279.822C1085.7 304.202 1086.42 329.125 1087.88 353.638C1088.21 359.251 1087.26 371.458 1089.34 376.409C1090.13 378.277 1093.63 381.278 1095.13 382.975L1090.6 384.376C1089.66 385.231 1086.23 387.794 1085.81 388.736C1084.45 391.738 1087.08 403.227 1084.82 404.792L1084.98 386.743L1058.68 415.832L1056.62 411.749C1063.94 401.968 1076.45 392.42 1081.66 381.833C1082.89 379.333 1081.88 370.86 1081.85 367.729C1081.58 339.189 1079.27 310.285 1076.65 281.829Z" fill="url(#paint6_linear_14_1837)"/>
<path d="M899.907 449.345C904.708 454.014 908.117 459.022 913.41 463.521C940.598 467.497 969.242 462.566 994.474 453.635C1019.88 444.641 1038.02 428.754 1056.62 411.749L1058.68 415.832C1050.63 423.959 1041.52 433.295 1031.88 439.872C1006.33 457.293 976.49 466.516 944.5 468.466L916.643 468.716C914.828 471.751 915.413 474.833 915.607 478.153C915.278 484.156 915.436 490.597 914.31 496.527L909.218 494.322L909.695 492.377C910.329 488.025 910.214 471.67 908.559 467.862C906.477 463.064 900.623 457.348 897.212 453.124L899.907 449.345Z" fill="url(#paint7_linear_14_1837)"/>
<path d="M830.135 373.504C836.369 377.743 839.498 386.888 845.11 390.163L869.638 419.726L897.212 453.124C900.623 457.348 906.477 463.064 908.559 467.862C910.214 471.67 910.329 488.025 909.695 492.377L909.218 494.323L822.21 469.44L823.983 455.656L830.135 373.504Z" fill="#0F0817"/>
<path d="M1090.6 384.376C1090.62 385.867 1090.11 387.818 1091.56 388.819L1093.38 389.47C1122.02 423.53 1151.05 455.972 1196.3 473.268C1204.23 476.302 1212.6 479.678 1221.22 480.741L1241.5 482.495C1242.34 484.082 1242.52 483.826 1242.07 485.662C1241.6 487.522 1241.73 489.119 1241.88 491.006L1250.66 487.032L1313.29 466.71C1320.47 465.35 1331.95 464.036 1337.77 460.156L1342.13 462.531L1344.55 483.185C1347.28 518.806 1350.39 552.247 1342.68 587.584L1335.69 622.866C1327.57 657.827 1317.57 692.505 1305.24 726.505C1302.11 735.125 1299.54 744.797 1295.4 753.022C1289.77 764.203 1279.38 773.173 1273.45 784.257L1211.55 918.902C1186.15 969.314 1163.89 1023.19 1100.73 1044.41C1081.01 1051.04 1059.05 1053.24 1038.07 1053.75C1002.26 1054.63 968.259 1050.83 935.361 1037.72C910.423 1027.79 886.156 1011.61 867.884 993.63C868.353 990.877 868.808 988.975 870.727 986.719L871.334 986.022C876.534 979.773 882.383 974.347 886.677 967.527L916.725 933.7L918.91 929.063L922.558 924.523C921.533 922.781 921.455 921.375 921.197 919.459L920.008 919.634C919.564 919.382 918.968 919.27 918.672 918.882C918.132 918.175 918.444 910.033 918.396 908.63C918.004 897.338 917.273 886.006 916.289 874.738C914.433 853.501 910.101 831.021 902.206 810.865L898.922 802.42L893.131 799.888C875.531 789.859 858.945 777.951 845.488 763.694C829.003 746.229 816.982 725.562 805.767 705.211L803.354 699.266C790.272 670.527 780.654 642.517 776.453 611.664L775.419 600.98L777.466 547.121C777.706 519.656 784.169 490.791 790.153 463.916L817.811 468.851L822.21 469.439L909.218 494.322L914.31 496.527C915.435 490.597 915.278 484.156 915.607 478.153C915.413 474.833 914.827 471.751 916.643 468.716L944.5 468.466C976.49 466.516 1006.33 457.293 1031.88 439.872C1041.52 433.295 1050.63 423.959 1058.68 415.832L1084.98 386.742L1084.82 404.792C1087.08 403.227 1084.45 391.738 1085.81 388.736C1086.23 387.794 1089.66 385.231 1090.6 384.376Z" fill="url(#paint8_linear_14_1837)"/>
<path d="M946.164 889.252C948.017 889.374 947.879 889.024 949.017 890.402L949.667 891.522L922.558 924.523C921.533 922.781 921.454 921.375 921.196 919.459L946.164 889.252Z" fill="#312C3D"/>
<path d="M946.164 889.253L975.94 851.251L976.255 853.565L975.353 854.572L969.343 862.431L970.254 863.227C973.299 860.027 975.701 856.565 978.295 853.086L982.018 848.652C982.701 847.731 983.496 847.058 984.388 846.297L985.075 847.365C981.763 851.572 952.108 890.831 949.667 891.523L949.017 890.403C947.879 889.025 948.017 889.375 946.164 889.253Z" fill="#1F1C26"/>
<path d="M1160.74 937.434L1160.75 937.237C1171.79 928.724 1193.27 915.777 1208.02 915.021L1209.06 917.161C1200.49 924.239 1189.34 926.823 1178.88 931.055C1173.05 933.414 1167.8 936.82 1162.7 940.222L1160.74 937.434Z" fill="#1F1C26"/>
<path d="M915.607 478.153C915.414 474.833 914.828 471.751 916.643 468.716C920.561 476.958 929.02 486.135 935.135 493.293C940.069 499.069 946.636 504.274 946.6 511.779L932.598 504.823L914.311 496.527C915.436 490.597 915.279 484.156 915.607 478.153Z" fill="#1F1C26"/>
<path d="M915.607 478.153C919.516 481.758 921.714 486.147 924.87 490.219C927.708 493.877 931.123 497.016 933.751 500.833C933.417 502.199 933.102 503.497 932.597 504.823L914.31 496.527C915.435 490.597 915.278 484.156 915.607 478.153Z" fill="#0F0817"/>
<path d="M916.725 933.7L918.91 929.063C927.334 932.108 942.713 929.744 952.27 930.106C993.033 931.653 1036.35 951.823 1062.15 979.667L1059 983.349C1031.81 957.31 996.644 937.986 955.802 935.658C943.769 934.972 929.2 937.113 917.749 934.007L916.725 933.7Z" fill="#1F1C26"/>
<path d="M1062.15 979.667L1083.13 1001.15C1083.74 991.484 1085.62 935.143 1088.29 930.857C1088.32 936.847 1088.72 942.421 1087.17 947.989C1085.74 953.126 1087.86 958.672 1086.04 964.049C1085.37 966.047 1086.08 970.652 1086.09 972.989C1086.12 979.229 1086.39 984.979 1084.97 990.814C1084.19 994.027 1085.45 997.533 1084.42 1000.99L1082.61 1001.8C1078.02 1000.3 1072.83 992.857 1068.93 989.559L1068.03 990.901C1070.94 993.174 1072.42 995.841 1074.81 997.966C1078.22 1000.99 1081.89 1003.65 1085.05 1006.91C1085.07 1011.25 1086.44 1020.63 1083.93 1024C1083.95 1027.4 1083.06 1031.89 1085.19 1034.7L1091.01 930.312L1091.95 930.839L1089.81 1002.42C1101.19 993.468 1109.45 981.884 1118.86 971.462C1130.74 958.298 1145.36 947.227 1160.74 937.434L1162.7 940.222C1146.87 950.743 1132.89 961.696 1120.32 975.326C1110.2 986.292 1101.45 998.679 1089.18 1007.89L1085.34 1044.33L1082.83 1045.34L1080.9 1043.56L1082.66 1007.69L1059 983.349L1062.15 979.667Z" fill="#0F0817"/>
<path d="M1209.06 917.162L1211.55 918.903C1186.15 969.314 1163.89 1023.19 1100.73 1044.41C1081.01 1051.04 1059.05 1053.24 1038.06 1053.75C1002.26 1054.63 968.259 1050.83 935.361 1037.72C910.423 1027.79 886.156 1011.61 867.884 993.63C868.353 990.877 868.808 988.975 870.726 986.719L871.333 986.022C876.534 979.773 882.383 974.348 886.676 967.527L916.724 933.7L917.748 934.007C929.199 937.113 943.768 934.972 955.802 935.659C996.644 937.986 1031.81 957.31 1059 983.349L1082.66 1007.69L1080.9 1043.56L1082.83 1045.34L1085.34 1044.33L1089.18 1007.89C1101.45 998.679 1110.2 986.292 1120.32 975.326C1132.89 961.696 1146.87 950.743 1162.7 940.222C1167.8 936.82 1173.05 933.414 1178.88 931.055C1189.34 926.823 1200.49 924.239 1209.06 917.162Z" fill="#010104"/>
<path d="M1337.77 460.156L1342.13 462.531L1344.55 483.185C1347.28 518.806 1350.39 552.247 1342.68 587.584L1335.69 622.866C1327.57 657.827 1317.57 692.505 1305.24 726.505C1302.11 735.125 1299.54 744.797 1295.4 753.022C1289.77 764.203 1279.38 773.173 1273.45 784.257C1267.67 785.114 1259.14 794.17 1254.2 797.439C1249.02 800.864 1243.08 803.884 1237.08 806.044C1220.17 812.131 1202.73 812.029 1185.9 805.646C1150.62 792.261 1132.96 756.812 1119.81 727.109C1115.6 717.444 1110.33 705.042 1110.04 694.65C1109.74 684.19 1113.39 672.016 1115.74 661.715C1128.11 607.316 1154.47 541.79 1208.98 509.695C1218.23 502.151 1231.03 496.531 1241.88 491.006L1250.66 487.032L1313.29 466.71C1320.47 465.35 1331.95 464.036 1337.77 460.156Z" fill="url(#paint9_linear_14_1837)"/>
<path d="M1260.27 543.407C1265.18 542.683 1270.54 542.768 1275.01 544.808L1276.17 545.355C1279.57 546.804 1287.03 551.709 1287.86 555.198C1288.81 559.147 1286.38 559.76 1290.32 563.225C1290.8 565.395 1290.55 567.46 1290.37 569.648C1289.51 570.581 1288.49 571.526 1288.15 572.731C1287.06 576.644 1287.32 587.592 1289.85 590.853C1290.75 592.008 1290.87 592.897 1291.18 594.26C1290.19 595.559 1289.7 596.288 1289.43 597.878L1289.29 599.087L1281.47 605.539C1280.75 606.069 1279.92 606.802 1279.05 607.16C1275.57 608.586 1271.43 606.761 1268.18 605.616C1266 604.043 1263.69 602.318 1260.99 601.529L1260.27 601.365C1255.08 595.265 1246.96 593.161 1239.04 591.045L1239.63 590.242L1237.81 587.843C1236.68 585.928 1236.29 586.029 1234.17 584.913C1233.89 583.72 1233.7 582.88 1232.91 581.848C1231.96 580.601 1232.33 579.47 1232.32 577.971C1230.14 576.059 1231.73 573.999 1229.87 571.561C1229.75 567.994 1228.9 563.71 1231.56 560.724C1237.2 554.398 1240.51 548.306 1250.59 547.095C1254.47 546.629 1255.91 546.062 1259.15 544.097L1260.27 543.407Z" fill="white"/>
<path d="M1337.77 460.156L1342.13 462.531L1344.55 483.185C1347.28 518.806 1350.39 552.247 1342.68 587.584L1335.69 622.866C1332.29 623.514 1329.83 623.31 1327.96 626.183C1325.38 630.153 1323.77 633.83 1318.5 635.676C1317.47 636.038 1316.83 636.11 1315.69 636.335L1316.57 631.357L1319.16 618.841C1318.57 614.824 1319.84 609.559 1320.25 605.469C1321.14 596.356 1321.86 587.22 1322.22 578.08C1323.36 548.779 1322.56 518.453 1319.29 489.291C1272.39 498.922 1229.39 520.759 1195.42 550.568C1166.52 583.386 1151.2 626.564 1141.41 666.702C1139.22 675.687 1135.55 687.143 1136.89 696.244C1137.82 702.575 1140.95 709.387 1142.99 715.536C1137.62 716.032 1133.55 717.568 1130 721.401C1126.53 725.145 1125.67 726.385 1119.81 727.109C1115.6 717.444 1110.33 705.042 1110.04 694.65C1109.74 684.19 1113.39 672.016 1115.74 661.715C1128.11 607.315 1154.47 541.79 1208.98 509.695C1218.23 502.151 1231.03 496.531 1241.88 491.006L1250.66 487.032L1313.29 466.71C1320.47 465.35 1331.95 464.036 1337.77 460.156Z" fill="#D2093F"/>
<path d="M1221.1 513.782C1244.75 499.757 1271.6 488.363 1298.69 480.497C1309.29 477.42 1320.27 475.415 1330.83 472.344L1332.53 471.845L1333.72 484.854C1332.19 485.805 1330.96 486.54 1329.89 487.907L1328.47 476.45C1315.29 480.48 1301.77 483.58 1288.67 487.774C1265.71 495.114 1243.79 504.691 1223.53 516.75C1214.97 521.853 1206.07 527.061 1199.36 534.104C1195.09 536.828 1191.58 540.857 1188.07 544.314C1173.45 558.728 1165.41 574.788 1155.53 591.74L1154.5 591.745C1154.22 588.475 1156.94 584.493 1158.36 581.436C1168.42 559.883 1183.81 541.941 1203.09 526.133C1208.43 521.752 1216.83 518.796 1221.1 513.782Z" fill="#A70020"/>
<path d="M1337.77 460.156L1342.13 462.532L1344.55 483.185L1344.01 482.582C1342.34 480.651 1341.9 479.724 1341.32 477.33L1340.95 476.167C1340.09 472.45 1341.76 468.915 1340.65 465.019C1339.16 464.24 1338.28 463.245 1336.52 463.645C1335.14 463.957 1334.49 464.333 1333.39 465.076L1334.6 466.667L1336.12 466.662C1335.98 467.797 1335.76 468.817 1335.51 469.931C1333.75 477.884 1336.52 485.988 1336.53 493.893L1335.54 493.912L1334.71 494.171L1333.72 484.855L1332.52 471.845L1330.83 472.344C1320.27 475.415 1309.29 477.42 1298.69 480.497C1271.6 488.363 1244.75 499.757 1221.1 513.782L1221.16 512.532C1222.4 511.446 1223.62 510.286 1225.07 509.418C1227.69 507.859 1230.33 506.04 1233.22 504.916L1234.65 504.374C1232.62 503.68 1231.27 503.191 1229.74 501.771L1228.59 500.659C1227.26 501.107 1226.36 501.509 1225.21 502.282C1223.9 503.16 1222.76 503.945 1221.34 504.703L1219.83 504.716C1219.45 505.096 1218.79 505.806 1218.33 506.063C1216.18 507.258 1215.32 507.611 1213.55 509.423L1212.9 510.1C1210.75 510.615 1210.92 510.669 1208.98 509.696C1218.23 502.151 1231.03 496.531 1241.88 491.006L1250.66 487.032L1313.29 466.71C1320.47 465.35 1331.95 464.036 1337.77 460.156Z" fill="#EC3A78"/>
<path d="M1334.71 494.171L1335.54 493.912L1336.53 493.893C1336.52 485.988 1333.75 477.884 1335.51 469.931C1335.76 468.817 1335.98 467.797 1336.12 466.662L1334.61 466.667L1333.39 465.075C1334.49 464.333 1335.14 463.957 1336.52 463.645C1338.28 463.245 1339.16 464.24 1340.65 465.019C1341.76 468.915 1340.09 472.45 1340.95 476.167L1341.32 477.33C1341.9 479.724 1342.34 480.651 1344.01 482.582L1344.55 483.185C1347.28 518.806 1350.39 552.247 1342.68 587.584L1335.69 622.866C1332.29 623.514 1329.83 623.31 1327.96 626.183C1325.38 630.153 1323.77 633.83 1318.5 635.677C1317.47 636.038 1316.83 636.11 1315.69 636.335L1316.57 631.357L1319.16 618.841C1318.57 614.824 1319.84 609.559 1320.25 605.469C1321.14 596.356 1321.86 587.22 1322.22 578.08C1323.36 548.779 1322.56 518.453 1319.29 489.291C1272.39 498.922 1229.39 520.759 1195.43 550.568L1195.84 547.182C1200.75 542.781 1206 536.808 1211.51 533.135C1216.44 529.843 1221.65 526.753 1226.59 523.423C1230.37 520.875 1235.36 519.337 1238.75 516.33C1240.06 515.159 1239.56 515.367 1241.27 514.681C1243.42 513.823 1245.1 513.174 1247.11 512.075L1248.91 512.061L1250.73 509.914C1253.79 509.405 1255.9 508.164 1257.96 506.126L1256.15 505.066L1257.35 501.849C1254.11 502.709 1249.96 504.394 1247.31 506.279L1246.77 506.715C1242.34 506.751 1226.01 516.62 1222.16 519.539L1213.58 525.353C1209.04 527.582 1204.3 531.355 1200.64 534.744L1199.36 534.104C1206.07 527.061 1214.97 521.853 1223.53 516.75C1243.79 504.691 1265.71 495.115 1288.67 487.774C1301.77 483.58 1315.29 480.48 1328.47 476.45L1329.89 487.907C1330.96 486.54 1332.19 485.805 1333.72 484.855L1334.71 494.171Z" fill="#E82D66"/>
<path d="M1329.89 487.908C1330.96 486.54 1332.19 485.805 1333.72 484.855L1334.71 494.172C1334.93 498.094 1336 503.648 1335.37 507.441C1332.13 512.291 1333.81 519.245 1332.83 524.84L1329.89 487.908Z" fill="#9E023B"/>
<path d="M1319.16 618.841L1321.1 619.119L1322.08 621.93C1320.06 623.758 1320.6 625.911 1319.49 628.216L1319.1 628.903C1321.74 628.9 1321.81 628.705 1323.94 627.278C1324.58 625.48 1325.23 623.597 1326.41 622.015L1326.93 621.382C1326.8 618.758 1326.15 615.048 1327.73 612.736C1333.51 604.258 1331.42 586.779 1333.21 576.467C1333.33 580.256 1332.48 586.015 1334.63 589.22C1336.21 588.138 1336.88 583.359 1337.55 581.41L1337.67 581.434L1342.68 587.584L1335.69 622.866C1332.29 623.514 1329.83 623.31 1327.96 626.183C1325.39 630.153 1323.77 633.83 1318.5 635.677C1317.47 636.038 1316.83 636.11 1315.69 636.335L1316.57 631.357L1319.16 618.841Z" fill="#D2093F"/>
<path d="M1334.71 494.171L1335.54 493.912L1336.53 493.893C1336.52 485.988 1333.76 477.884 1335.51 469.931C1335.76 468.817 1335.98 467.797 1336.12 466.662L1334.61 466.667L1333.39 465.075C1334.49 464.333 1335.14 463.957 1336.52 463.645C1338.28 463.245 1339.16 464.24 1340.65 465.019C1341.76 468.915 1340.09 472.45 1340.95 476.167L1341.32 477.33C1341.9 479.724 1342.34 480.651 1344.01 482.582L1344.55 483.185C1347.28 518.806 1350.39 552.247 1342.68 587.584L1337.67 581.434L1337.55 581.41C1336.88 583.359 1336.21 588.138 1334.63 589.22C1332.48 586.014 1333.33 580.256 1333.21 576.467L1333.36 542.072L1332.83 524.84C1333.81 519.245 1332.13 512.291 1335.37 507.441C1336 503.648 1334.93 498.094 1334.71 494.171Z" fill="#E82D66"/>
<path d="M1335.37 507.441L1337.05 548.652C1338.33 558.619 1339.6 571.606 1337.67 581.434L1337.55 581.41C1336.88 583.359 1336.21 588.138 1334.63 589.22C1332.48 586.015 1333.33 580.256 1333.21 576.467L1333.36 542.073L1332.83 524.84C1333.81 519.245 1332.13 512.291 1335.37 507.441Z" fill="#A70020"/>
<path d="M1333.36 542.073L1333.61 543.028C1335.67 551.61 1335 561.185 1335.17 569.952L1336.37 569.946C1336.49 563.002 1335.97 555.513 1337.05 548.652C1338.33 558.619 1339.6 571.606 1337.67 581.434L1337.55 581.41C1336.88 583.359 1336.21 588.138 1334.63 589.22C1332.48 586.015 1333.33 580.256 1333.21 576.467L1333.36 542.073Z" fill="#9E023B"/>
<path d="M1315.69 636.335C1316.83 636.11 1317.47 636.038 1318.5 635.677C1323.77 633.83 1325.38 630.153 1327.96 626.183C1329.83 623.31 1332.29 623.514 1335.69 622.866C1327.57 657.828 1317.57 692.506 1305.24 726.505C1302.11 735.125 1299.54 744.797 1295.4 753.022C1289.77 764.203 1279.38 773.173 1273.45 784.257C1267.67 785.114 1259.14 794.17 1254.2 797.44C1249.02 800.864 1243.08 803.884 1237.08 806.044C1220.17 812.131 1202.73 812.029 1185.9 805.646C1150.62 792.261 1132.96 756.813 1119.81 727.109C1125.67 726.386 1126.53 725.145 1130 721.401C1133.55 717.569 1137.62 716.032 1142.99 715.536L1143.72 716.152C1164.11 708.983 1184 698.219 1203.23 688.782C1227.86 676.693 1252.44 664.959 1276.79 652.408C1285.26 648.046 1293.73 643.682 1302.05 639.107C1305.35 637.289 1309.43 634.096 1313.12 633.189C1314.69 632.803 1315.34 632.29 1316.57 631.357L1315.69 636.335Z" fill="white"/>
<path d="M1315.69 636.335C1316.83 636.11 1317.47 636.038 1318.5 635.677C1323.77 633.83 1325.38 630.153 1327.96 626.183C1329.83 623.31 1332.29 623.514 1335.69 622.866C1327.57 657.828 1317.57 692.506 1305.24 726.505C1302.11 735.125 1299.54 744.797 1295.4 753.022C1289.77 764.203 1279.38 773.173 1273.45 784.257C1267.67 785.114 1259.14 794.17 1254.2 797.44C1249.02 800.864 1243.08 803.884 1237.08 806.044C1220.17 812.131 1202.73 812.029 1185.9 805.646C1150.62 792.261 1132.96 756.813 1119.81 727.109C1125.67 726.386 1126.53 725.145 1130 721.401C1133.55 717.569 1137.62 716.032 1142.99 715.536L1143.72 716.152C1148.1 729.701 1156.47 745.712 1164.96 757.679C1174.93 771.712 1188.12 784.084 1207.08 787.661C1216.13 789.366 1228.25 785.174 1235.77 780.663C1280.29 753.966 1305.3 681.238 1315.69 636.335Z" fill="#9E023B"/>
<path d="M777.466 547.121C777.706 519.656 784.169 490.791 790.153 463.916L817.811 468.851L822.21 469.44L909.218 494.323L914.31 496.527L932.598 504.823L946.6 511.78C961.764 521.3 978.364 531.019 989.944 544.142C1022.53 574.385 1042.26 621.315 1054.29 661.047C1057.67 672.179 1061.9 685.017 1061.8 696.586C1061.75 703.135 1058.14 710.116 1055.69 716.204C1045.07 742.648 1030.46 768.212 1007.03 787.784C988.221 803.499 964.909 811.54 939.048 810.774C924.546 810.345 912.292 807.013 898.922 802.42L893.131 799.888C875.531 789.859 858.945 777.951 845.488 763.695C829.003 746.229 816.982 725.562 805.767 705.211L803.354 699.267C790.272 670.527 780.654 642.518 776.453 611.664L775.419 600.98L777.466 547.121Z" fill="url(#paint10_linear_14_1837)"/>
<path d="M982.602 557.374C987.461 561.894 995.483 570.024 995.739 576.446C995.846 579.128 992.943 583.275 991.803 585.818L987.493 579.562C988.922 576.196 989.494 573.551 989.423 569.946C988.806 568.571 987.947 567.893 987.194 566.653L986.586 565.319C984.39 562.269 983.538 561.158 982.602 557.374Z" fill="#D2093F"/>
<path d="M800.962 570.519C800.675 566.512 798.395 557.634 799.549 554.239C800.291 552.046 799.987 550.836 799.514 548.619L797.389 547.553C794.403 546.327 797.21 547.697 794.719 546.46L793.75 545.966C793.673 548.43 793.948 551.243 792.882 553.552C792.672 540.563 793.295 528.481 796.177 515.991C797.256 511.305 795.841 504.229 797.975 499.9C800.545 494.686 797.998 483.821 802.174 479.566C807.517 479.939 814.304 480.931 819.405 482.396L865.803 494.74C878.357 497.802 891.415 503.043 903.382 507.645C933.487 519.223 962.689 533.527 982.602 557.374C983.538 561.158 984.39 562.269 986.586 565.319L987.194 566.653C987.947 567.893 988.806 568.571 989.423 569.946C989.494 573.552 988.922 576.196 987.493 579.563L976.863 565.117C934.771 521.275 871.739 504.344 810.831 490.624C808.648 496.889 808.209 504.344 807.288 510.859C805.315 524.808 803.767 538.829 802.519 552.843C802.012 558.523 802.303 565.01 800.962 570.519Z" fill="#EC3A78"/>
<path d="M976.864 565.117L978.709 564.302L979.143 564.913C980.955 567.277 983.072 569.283 984.792 571.751C986.254 571.151 987.873 570.294 989.423 569.946C989.494 573.552 988.922 576.196 987.493 579.563L976.864 565.117Z" fill="#E82D66"/>
<path d="M777.466 547.121C777.706 519.656 784.169 490.791 790.153 463.916L817.81 468.851L822.21 469.439L909.218 494.322L914.31 496.527L932.597 504.823L946.599 511.779C961.764 521.3 978.364 531.019 989.944 544.142L988.278 544.932L981.6 539.121L978.581 540.731L977.449 540.472C975.867 540.134 976.512 540.211 974.944 540.219L974.047 541.032L976.173 542.895L974.966 543.312C944.313 520.288 909.119 502.231 870.616 491.531C866.475 490.38 862.262 488.779 857.971 488.212C855.408 487.872 853.598 486.62 851.23 485.871C840.689 482.535 827.073 479.49 816.089 478.075C811.485 477.482 805.264 476.897 800.953 475.423C797.57 478.466 797.474 481.45 796.918 485.487C795.649 494.683 792.995 503.961 791.624 513.238C790.555 520.48 790.964 529.655 788.046 536.369L787.657 537.719L786.73 536.376C784.126 539.091 783.274 540.882 782.542 544.418C782.279 545.693 782.016 548.763 781.361 549.775C779.717 552.31 779.027 551.281 778.669 554.675L777.466 547.121Z" fill="#EC3A78"/>
<path d="M800.962 570.518C802.303 565.009 802.012 558.522 802.519 552.842C803.767 538.828 805.315 524.808 807.288 510.859C808.209 504.343 808.648 496.888 810.831 490.624C871.739 504.343 934.77 521.274 976.863 565.116L987.493 579.562L991.803 585.818C1007.55 609.614 1018.25 634.749 1026.94 661.141C1030.35 671.505 1034.43 683.445 1034.97 694.222C1035.31 701.207 1031.12 709.071 1028.12 715.386C1018.87 734.861 1008.16 753.318 991.631 768.849C980.263 779.533 963.437 787.881 946.572 788.091C918.523 788.441 898.962 777.778 879.373 760.827C840.719 727.38 814.487 674.811 805.542 628.152C801.881 609.07 801.234 589.837 800.962 570.518Z" fill="url(#paint11_linear_14_1837)"/>
<path d="M1450.26 462.354C1448.38 461.733 1446.23 461.13 1444.19 461.116C1436 461.053 1429.05 469.506 1422.92 476.121C1421.16 476.656 1418.36 477.919 1416.69 477.785C1413.16 477.497 1408.87 471.761 1405.15 470.361C1399.97 468.417 1392.99 470.448 1388.17 475.12C1385.38 477.827 1382.55 481.877 1379.58 484.083C1377.34 485.744 1374.63 485.39 1372.4 487.036C1370.96 488.097 1370.13 489.477 1369.71 491.413C1369.25 493.551 1369.96 495.187 1370.84 496.681C1371.92 497.183 1372.98 497.557 1374.22 497.535C1381.15 497.408 1386.87 491.053 1392.05 485.217C1401.04 475.941 1406.35 488.251 1414.62 489.119C1422.32 489.927 1426.85 486.653 1433.02 479.9C1435.57 477.102 1438.34 473.841 1441.68 473.179C1445.85 472.348 1449.98 476.904 1453.3 478.964C1456.16 480.741 1459.43 481.278 1462.88 480.704C1465.4 480.282 1469.38 479.185 1471.19 476.471C1472.76 474.116 1472.6 472.519 1472.37 470.052C1471.73 469.049 1471.02 467.67 1470.01 467.192C1468.26 466.359 1464.23 469.107 1462.27 470.063L1450.26 462.354Z" fill="#B10028"/>
<path d="M1387.37 309.945C1385.53 310.052 1383.47 310.27 1381.76 310.978C1374.86 313.819 1372.58 323.878 1370.21 331.995C1368.97 333.096 1367.15 335.223 1365.69 335.694C1362.6 336.685 1356.61 333.042 1352.9 333.102C1347.74 333.184 1342.74 337.48 1340.66 343.383C1339.46 346.804 1338.78 351.447 1337.21 354.483C1336.03 356.769 1333.61 357.407 1332.43 359.678C1331.67 361.14 1331.55 362.674 1332.02 364.563C1332.52 366.649 1333.8 367.87 1335.17 368.903C1336.28 368.971 1337.33 368.932 1338.36 368.475C1344.12 365.909 1346.25 358.172 1348.15 351.091C1351.8 339.569 1361.4 348.762 1368.71 346.617C1375.5 344.622 1377.93 340.074 1380.26 331.821C1381.23 328.404 1382.19 324.489 1384.71 322.714C1387.86 320.49 1393.23 323.126 1396.87 323.807C1400.02 324.393 1402.98 323.72 1405.63 321.983C1407.58 320.711 1410.45 318.318 1410.83 315.236C1411.16 312.563 1410.35 311.186 1409.13 309.046C1408.17 308.371 1407 307.383 1405.95 307.309C1404.14 307.179 1401.91 311.075 1400.66 312.631L1387.37 309.945Z" fill="#B10028"/>
<path d="M1264.91 176.459C1263.42 177.621 1261.83 178.993 1260.84 180.544C1256.86 186.774 1261.51 195.869 1264.81 203.513C1264.48 205.093 1264.33 207.798 1263.4 209.016C1261.44 211.587 1253.98 212.292 1250.88 214.513C1246.57 217.596 1245.15 223.842 1247.25 229.61C1248.47 232.953 1250.93 236.928 1251.59 240.189C1252.08 242.644 1250.46 244.552 1250.94 246.996C1251.25 248.568 1252.16 249.82 1253.78 251.007C1255.58 252.317 1257.46 252.509 1259.29 252.506C1260.28 251.903 1261.14 251.259 1261.71 250.306C1264.9 244.953 1261.65 237.74 1258.63 231.165C1254.18 220.144 1268.32 221.602 1273.1 215.67C1277.54 210.153 1276.62 205.222 1273.2 197.49C1271.79 194.289 1270.04 190.707 1271.01 187.864C1272.22 184.301 1278.49 183.185 1282.02 181.577C1285.06 180.188 1287.13 177.929 1288.24 175.037C1289.05 172.918 1289.92 169.39 1288.23 166.791C1286.76 164.536 1285.17 163.947 1282.74 163.012C1281.49 163.054 1279.85 162.981 1278.92 163.536C1277.29 164.5 1277.96 168.809 1277.92 170.74L1264.91 176.459Z" fill="#B10028"/>
</g>
<defs>
<linearGradient id="paint0_linear_14_1837" x1="680.445" y1="575.453" x2="582.053" y2="500.487" gradientUnits="userSpaceOnUse">
<stop stop-color="#120E1F"/>
<stop offset="1" stop-color="#2F3447"/>
</linearGradient>
<linearGradient id="paint1_linear_14_1837" x1="1293.04" y1="384.998" x2="1281.05" y2="174.318" gradientUnits="userSpaceOnUse">
<stop stop-color="#08000A"/>
<stop offset="1" stop-color="#1F1D31"/>
</linearGradient>
<linearGradient id="paint2_linear_14_1837" x1="913.073" y1="863.254" x2="900.379" y2="865.161" gradientUnits="userSpaceOnUse">
<stop stop-color="#221C2F"/>
<stop offset="1" stop-color="#353640"/>
</linearGradient>
<linearGradient id="paint3_linear_14_1837" x1="794.353" y1="840.316" x2="773.42" y2="850.263" gradientUnits="userSpaceOnUse">
<stop stop-color="#0D0A19"/>
<stop offset="1" stop-color="#373842"/>
</linearGradient>
<linearGradient id="paint4_linear_14_1837" x1="973.259" y1="328.84" x2="918.419" y2="210.873" gradientUnits="userSpaceOnUse">
<stop stop-color="#130C1E"/>
<stop offset="1" stop-color="#2D3548"/>
</linearGradient>
<linearGradient id="paint5_linear_14_1837" x1="720.965" y1="688.702" x2="541.835" y2="514.246" gradientUnits="userSpaceOnUse">
<stop stop-color="#0E0615"/>
<stop offset="1" stop-color="#262B3F"/>
</linearGradient>
<linearGradient id="paint6_linear_14_1837" x1="1058.41" y1="412.959" x2="1004.28" y2="317.347" gradientUnits="userSpaceOnUse">
<stop stop-color="#1E1728"/>
<stop offset="1" stop-color="#474458"/>
</linearGradient>
<linearGradient id="paint7_linear_14_1837" x1="1030.7" y1="438.79" x2="985.392" y2="382.088" gradientUnits="userSpaceOnUse">
<stop stop-color="#191324"/>
<stop offset="1" stop-color="#383043"/>
</linearGradient>
<linearGradient id="paint8_linear_14_1837" x1="1213.44" y1="909.878" x2="803.074" y2="690.969" gradientUnits="userSpaceOnUse">
<stop stop-color="#000003"/>
<stop offset="1" stop-color="#150A23"/>
</linearGradient>
<linearGradient id="paint9_linear_14_1837" x1="1145.87" y1="713.28" x2="1325.48" y2="500.484" gradientUnits="userSpaceOnUse">
<stop stop-color="white"/>
<stop offset="1" stop-color="#F1FFFD"/>
</linearGradient>
<linearGradient id="paint10_linear_14_1837" x1="986.563" y1="798.655" x2="849.133" y2="506.979" gradientUnits="userSpaceOnUse">
<stop stop-color="#B50031"/>
<stop offset="1" stop-color="#EE1A5F"/>
</linearGradient>
<linearGradient id="paint11_linear_14_1837" x1="957.448" y1="784.89" x2="860.155" y2="478.499" gradientUnits="userSpaceOnUse">
<stop stop-color="white"/>
<stop offset="1" stop-color="#FFFFFE"/>
</linearGradient>
<clipPath id="clip0_14_1837">
<rect width="1920" height="1080" fill="white"/>
</clipPath>
</defs>
</svg>
