<svg width="1920" height="1080" viewBox="0 0 1920 1080" fill="none" xmlns="http://www.w3.org/2000/svg">
<g clip-path="url(#clip0_14_5055)">
<path d="M726.81 238.255L742.691 218.385C741.504 222.553 738.837 226.544 737.832 230.537L737.965 234.815L736.24 237.112L730.721 236.985L730.08 238.397L726.81 238.255Z" fill="#878C9C"/>
<path d="M716.7 669.45L718.472 671.586L719.032 671.601L723.172 676.625L726.669 695.853C727.344 698.532 726.443 700.747 725.541 703.278L712.463 672.298L716.7 669.45Z" fill="#696C7B"/>
<path d="M723.172 676.625C726.85 681.051 735.475 691.406 735.2 697.056L732.388 699.418L733.017 700.761C733.821 702.219 736.194 705.639 736.237 707.137C737.5 709.213 743.614 717.104 743.806 718.729C743.146 722.365 742.672 725.463 743.249 729.16L745.311 732.784C745.497 735.575 746.698 738.208 746.828 740.494C746.931 742.301 746.908 743.816 747.673 745.485C748.73 747.795 748.366 751.133 748.398 753.66L725.541 703.278C726.443 700.746 727.344 698.532 726.669 695.852L723.172 676.625Z" fill="#5B5E6D"/>
<path d="M733.017 700.762C733.821 702.22 736.194 705.639 736.237 707.138L732.821 710.916L731.671 709.857C731.099 706.117 731.264 704.163 733.017 700.762Z" fill="#4F5365"/>
<path d="M732.821 710.916L736.237 707.137C737.5 709.213 743.614 717.104 743.806 718.729C743.146 722.365 742.672 725.463 743.249 729.16C742.684 727.811 742.204 726.502 741.276 725.34C737.671 720.827 736.788 715.556 732.821 710.916Z" fill="#4D4758"/>
<path d="M726.81 238.255L730.08 238.397C731.345 240.372 733.135 242.514 733.471 244.852L732.776 248.851L730.231 249.712C720.543 257.595 716.973 266.351 711.18 276.971C709.901 279.316 709.411 282.176 707.469 284.067C705.349 285.825 704.175 286.847 702.961 289.31C700.763 293.765 698.019 297.874 695.914 302.487C693.932 306.828 691.24 313.191 688.033 316.64L686.862 318.335C685.669 320.086 684.461 321.285 682.856 322.677C692.843 294.239 706.935 268.883 723.26 243.445L726.81 238.255Z" fill="#6E7A89"/>
<path d="M726.81 238.255L730.079 238.397C731.345 240.372 733.135 242.514 733.471 244.851C729.708 245.463 726.801 244.475 723.26 243.445L726.81 238.255Z" fill="#91929D"/>
<path d="M682.856 322.677C684.461 321.285 685.669 320.086 686.862 318.335L688.033 316.64C691.24 313.191 693.932 306.828 695.914 302.487C698.019 297.874 700.763 293.765 702.961 289.311C704.175 286.847 705.349 285.825 707.469 284.067C703.784 294.673 696.765 304.645 693.574 315.146L677.121 366.343C673.923 380.077 670.704 394.381 669.275 408.393C668.591 415.13 669.184 421.928 668.492 428.693C667.907 434.438 665.728 440.198 665.524 445.898C665.455 447.787 666.231 448.669 666.607 450.425C667.342 453.834 666.966 458.326 667.067 461.849C667.207 466.773 666.428 472.605 668.091 477.196C668.908 479.455 668.558 480.659 668.413 482.94C667.403 499.01 671.507 514.275 671.5 530.263L671.412 538.488C668.371 530.754 667.229 520.92 665.866 512.723C661.115 484.108 659.317 455.534 660.794 426.575L666.68 378.462L682.856 322.677Z" fill="#696C7B"/>
<path d="M666.68 378.462L671.2 380.748C669.986 389.858 667.75 399.276 667.417 408.392C666.459 405.347 666.012 399.599 667.581 396.733L665.929 398.433C666.012 400.846 665.321 401.007 664.95 402.848C664.204 406.538 665.711 416.216 663.231 418.785C663.336 422.933 663.296 423.212 660.794 426.575L666.68 378.462Z" fill="#6E7A89"/>
<path d="M682.856 322.677C684.461 321.285 685.669 320.085 686.862 318.334L688.033 316.64C691.24 313.191 693.932 306.828 695.914 302.487C698.019 297.873 700.763 293.765 702.961 289.31C704.175 286.846 705.349 285.825 707.469 284.067C703.784 294.673 696.765 304.644 693.574 315.146C690.283 320.361 689.017 326.199 685.918 331.265C683.345 335.469 682.303 341.904 680.877 346.643C677.424 358.118 673.771 369.003 671.2 380.748L666.68 378.462L682.856 322.677Z" fill="#727C89"/>
<path d="M1223.15 748.336C1223.69 745.556 1237.4 734.165 1240.23 731.169C1249.55 721.303 1256.53 708.249 1264.48 697.253L1266.38 697.768C1257.63 726.68 1247.08 755.132 1235.94 783.259C1231.13 795.378 1226.84 808.098 1221.06 819.816L1216.89 816.189C1214.71 811.538 1215.75 806.215 1216.18 801.235C1216.92 792.744 1217.93 783.98 1219.74 775.631C1221.53 767.308 1224.43 758.812 1225.38 750.401L1223.15 748.336Z" fill="#1A181F"/>
<path d="M677.121 366.342L681.483 360.56C678.6 370.225 675.176 381.699 673.653 391.596C670.435 412.519 669.398 434.7 669.541 455.798C669.587 462.188 668.352 468.112 670.19 474.407C672.132 478.873 670.965 480.769 671.659 485.003C674.13 500.092 672.352 523.752 680.771 536.803L680.416 537.841C679.175 541.396 674.918 545.751 676.231 549.19L677.941 549.672C679.545 547.585 681.518 545.442 682.921 543.249C684.33 541.051 684.489 537.993 686.208 535.38C686.762 540.432 686.714 545.608 688.17 550.425C689.079 553.421 688.989 557.551 689.66 560.776L689.799 562.723C689.909 564.491 690.283 565.148 690.999 566.755C692.328 569.736 693.111 572.947 693.691 576.132C693.924 577.424 694.44 578.522 694.845 579.761C695.681 582.323 695.372 586.051 696.871 588.18C698.1 589.923 697.811 592.804 698.763 594.958L700.757 600.908C701.743 604.37 702.954 607.7 703.618 611.249C705.886 623.332 714.519 637.087 714.222 649.177L716.546 651.25C718.899 649.355 720.499 647.573 722.248 645.15L725.825 647.32C724.407 650.929 723.024 657.001 720.84 659.941L719.589 657.2L719.026 657.772L717.767 658.836C716.147 660.231 715.08 661.824 713.943 663.584L709.386 664.361L704.945 650.567C698.812 639.282 694.483 624.273 691.383 611.858C687.73 608.673 673.057 547.623 671.412 538.487L671.5 530.262C671.507 514.275 667.403 499.009 668.413 482.94C668.558 480.658 668.908 479.455 668.091 477.195C666.428 472.605 667.207 466.772 667.067 461.849C666.966 458.326 667.342 453.833 666.607 450.425C666.231 448.669 665.455 447.787 665.524 445.898C665.728 440.198 667.907 434.438 668.492 428.693C669.184 421.927 668.591 415.13 669.275 408.393C670.704 394.38 673.923 380.076 677.121 366.342Z" fill="#5B5E6D"/>
<path d="M691.383 611.858C694.507 612.908 695.914 613.09 697.235 616.363C698.018 618.296 697.98 620.304 699.199 622.042C700.3 623.611 699.965 626.005 700.732 627.891C702.195 631.487 700.469 634.406 702.503 638.084C704.757 642.161 704.996 646.075 704.945 650.567C698.813 639.282 694.483 624.274 691.383 611.858Z" fill="#5E6275"/>
<path d="M1270.1 311.918L1270.35 311.281C1271.77 308.25 1273.34 306.438 1276.46 305.221C1284.96 326.654 1293.73 347.792 1298.52 370.395C1307.36 407.134 1311.32 444.845 1310 482.597C1309.3 502.494 1306.61 522.221 1304.17 541.97C1301.27 526.674 1303.32 509.405 1302.66 493.791C1301.56 467.439 1298.22 440.303 1293.74 414.316C1293.16 410.939 1293.32 409.509 1290 407.594C1286.42 405.522 1274.88 409.886 1270.51 411.174L1267.06 411.885L1265.14 401.015L1257.98 340.547L1256.81 337.605C1260.65 332.354 1262.84 324.637 1266.02 318.758L1270.1 311.918Z" fill="#100918"/>
<path d="M1268.46 396.592L1270.51 411.174L1267.06 411.884L1265.14 401.015L1268.46 396.592Z" fill="#313547"/>
<path d="M1270.1 311.918C1273.01 314.361 1273.48 316.206 1274.48 319.726C1274.98 321.464 1275.68 322.278 1276.67 323.763L1279.85 329.913L1279.89 331.325L1278.38 331.91L1277.64 335.215C1276.55 333.626 1275.43 332.429 1273.73 331.419L1272.98 331.008L1272.83 326.631L1270.88 328.024L1268.19 319.673L1266.02 318.758L1270.1 311.918Z" fill="#1A181F"/>
<path d="M1257.98 340.547L1259.59 339.738L1260.92 340.183L1268.46 396.592L1265.14 401.015L1257.98 340.547Z" fill="#383740"/>
<path d="M1270.1 311.918L1270.35 311.281C1271.77 308.25 1273.34 306.438 1276.46 305.221C1284.96 326.654 1293.73 347.792 1298.52 370.395C1297.8 369.776 1295.46 368.194 1295.11 367.477C1294.41 366.001 1294.36 363.163 1293.84 361.493C1292.45 357.011 1290.67 352.458 1289.42 347.963L1286.52 338.923L1286.23 337.664L1283.94 337.199C1285.16 339.722 1283.86 339.152 1284.07 341.029C1284.09 341.163 1285.17 342.404 1285.26 342.631C1285.99 344.504 1285.49 349.188 1285.56 351.381L1284.46 352.268C1281.58 347.803 1284.07 343.022 1281.73 338.825L1281.14 337.844L1282.22 336.711C1282.23 333.936 1281.64 331.73 1280.84 329.094L1279.85 329.913L1276.67 323.763C1275.68 322.278 1274.98 321.464 1274.48 319.726C1273.48 316.206 1273.01 314.361 1270.1 311.918Z" fill="#383740"/>
<path d="M730.231 249.712C731.155 250.701 732.11 251.5 732.626 252.755L733.354 268.611C733.076 274.092 733.727 282.202 731.878 287.292C729.059 362.686 713.117 437.426 690.132 509.362C688.894 515.844 686.078 521.556 684.197 527.824L680.771 536.803C672.352 523.752 674.13 500.093 671.659 485.004C670.965 480.769 672.132 478.873 670.19 474.407C668.352 468.113 669.587 462.189 669.541 455.799C669.398 434.701 670.435 412.519 673.652 391.596C675.176 381.699 678.6 370.225 681.483 360.561L677.121 366.343L693.574 315.146C696.765 304.645 703.783 294.673 707.469 284.067C709.41 282.176 709.901 279.316 711.18 276.971C716.973 266.352 720.542 257.595 730.231 249.712Z" fill="url(#paint0_linear_14_5055)"/>
<path d="M679.141 427.307C681.079 430.882 681.799 433.186 680.54 437.14L679.784 439.022C680.627 443.456 682.217 444.068 681.255 448.825C680.127 449.66 679.269 450.152 677.918 450.582C677.988 452.54 677.592 457.201 678.956 458.424C679.767 459.15 680.534 459.724 681.445 460.317C681.702 466.602 681.763 472.748 682.959 478.879C683.143 479.821 682.77 481.207 682.63 482.126C682.303 484.315 682.519 486.55 682.641 488.747L683.796 489.803C683.843 491.164 682.964 494.09 683.362 494.539C683.845 495.088 684.113 495.797 684.601 496.343L686.258 497.382L687.849 508.827L686.757 509.958L687.2 514.33L687.385 513.527C687.837 511.608 687.94 510.783 689.244 509.183L690.132 509.362C688.894 515.844 686.078 521.556 684.197 527.824L681.38 529.051C682.451 519.303 679.889 508.038 678.964 498.267C677.428 482.021 676.446 465.362 675.898 449.009C677.509 447.734 678.526 446.87 679.459 445.055C679.049 444.449 678.509 443.739 678.224 443.042C676.336 438.406 677.334 431.77 679.141 427.307Z" fill="#383740"/>
<path d="M681.38 529.051L679.389 526.876C678.034 512.879 677.598 498.942 676.514 484.96C676.149 480.257 674.157 475.866 673.609 471.13C672.533 461.868 673.877 453.32 674.298 444.136C674.486 440.006 673.997 435.809 674.38 431.692C674.75 427.71 677.587 425.128 678.062 421.571C678.63 417.341 677.278 412.95 677.935 408.714C681.941 382.957 688.291 358.459 697.146 333.853C698.718 329.479 701.05 323.004 704.145 319.593C704.12 321.979 703.868 327.555 702.699 329.378C699.9 333.755 699.949 339.624 698.066 344.409C697.218 346.56 694.76 346.589 694.802 348.544C694.917 353.906 692.625 358.08 691.256 363.137C690.724 365.104 691.131 364.296 689.738 365.858L690.935 367.459C689.876 372.144 687.232 375.96 686.291 380.54C684.701 388.281 685.978 395.638 683.108 403.317C681.178 408.491 681.732 413.972 680.847 419.272C680.434 421.759 678.652 424.901 679.141 427.306C677.334 431.77 676.336 438.406 678.224 443.042C678.509 443.739 679.049 444.449 679.458 445.054C678.526 446.869 677.509 447.734 675.898 449.009C676.446 465.361 677.428 482.021 678.964 498.267C679.889 508.038 682.451 519.303 681.38 529.051Z" fill="#434251"/>
<path d="M670.19 474.407L676.97 395.819C677.246 389.437 679.916 383.103 681.389 376.879C686.203 356.575 691.524 336.275 700.694 317.301C704.744 308.922 709.89 300.484 713.11 291.773C714.686 287.516 717.259 282.822 719.59 278.882L722.42 278.784C724.924 276.82 727.009 274.646 729.174 272.34L729.619 276.333C727.83 278.273 725.214 282.033 722.545 282.595C721.153 284.35 721.041 285.052 720.431 287.05C719.78 289.183 718.57 292.188 717.556 294.165C716.584 296.066 716.466 297.701 716.384 299.787L714.421 301.654C712.261 303.909 712.896 307.537 710.434 309.299L710.234 310.659C709.586 314.329 706.883 317.175 704.145 319.593C701.05 323.004 698.718 329.479 697.147 333.853C688.291 358.459 681.941 382.957 677.936 408.714C677.278 412.95 678.63 417.341 678.062 421.572C677.587 425.128 674.75 427.71 674.38 431.692C673.997 435.809 674.486 440.006 674.298 444.136C673.877 453.32 672.533 461.869 673.609 471.13C674.157 475.866 676.15 480.257 676.514 484.96C677.599 498.942 678.035 512.879 679.389 526.877L681.38 529.051L684.197 527.824L680.772 536.803C672.352 523.752 674.13 500.093 671.659 485.003C670.966 480.769 672.133 478.873 670.19 474.407Z" fill="#4A4C5B"/>
<path d="M730.231 249.712C731.155 250.701 732.11 251.5 732.626 252.755L733.354 268.611C733.076 274.092 733.727 282.202 731.878 287.292L730.696 264.248C730.738 266.483 731.128 269.388 729.863 271.369L729.174 272.34C727.009 274.646 724.924 276.82 722.42 278.785L719.59 278.882C717.258 282.822 714.686 287.517 713.11 291.773C709.89 300.484 704.743 308.923 700.694 317.301C691.523 336.275 686.203 356.575 681.389 376.879C679.916 383.103 677.246 389.438 676.97 395.819L670.19 474.407C668.352 468.113 669.587 462.189 669.541 455.799C669.398 434.701 670.435 412.519 673.652 391.596C675.176 381.699 678.6 370.225 681.483 360.561L677.121 366.343L693.574 315.146C696.765 304.645 703.783 294.673 707.469 284.067C709.41 282.176 709.901 279.316 711.18 276.971C716.973 266.352 720.542 257.595 730.231 249.712Z" fill="#4F5365"/>
<path d="M730.231 249.712C731.155 250.7 732.111 251.5 732.626 252.755C727.419 256.962 723.632 266.318 721.685 272.508L720.592 275.55L716.668 276.782L716.373 277.4C713.526 283.138 709.623 287.421 707.195 293.532C703.569 302.667 698.805 311.254 695.06 320.23C689.652 333.188 686.421 347.333 681.483 360.561L677.121 366.342L693.574 315.146C696.765 304.644 703.784 294.673 707.469 284.067C709.411 282.175 709.901 279.316 711.18 276.97C716.973 266.351 720.543 257.594 730.231 249.712Z" fill="#5E6275"/>
<path d="M952.085 98.3501C972.291 95.3842 1000.39 93.7531 1020.29 99.2551L1018.07 100.004C1020.11 101.35 1021.97 102.264 1022.58 104.76C1023.47 108.405 1023.96 113.914 1023.74 117.649C1015.68 114.829 1006.49 115.372 997.991 114.145C957.924 152.082 912.584 186.869 861.315 209.529C831.309 222.793 799.049 231.115 766.845 237.457L770.909 233.802L767.829 234.138L752.569 237.323C748.819 238.052 745.316 238.31 741.494 238.044L737.965 234.815L737.832 230.536C738.837 226.544 741.503 222.552 742.691 218.385C744.441 214.221 750.106 209.14 753.21 205.666C777.618 178.369 809.455 150.561 842.989 134.255C875.35 115.195 914.236 101.407 952.085 98.3501Z" fill="#313547"/>
<path d="M752.569 237.323L751.735 234.509C759.318 224.159 769.26 214.381 778.992 205.895C779.748 209.328 778.132 211.06 776.254 213.956C777.79 213.342 778.505 212.892 779.57 211.652L780.728 212.706C779.854 213.84 779.218 215.171 777.884 215.655C776.326 216.218 775.225 217.762 774.158 218.945L772.991 217.889C771.223 218.83 771.066 220.439 770.511 222.261L770.325 222.915L767.549 224.658L767.448 225.329C766.914 227.083 761.988 232.318 760.215 232.962L759.352 233.148C757.646 233.53 755.54 233.672 754.323 234.981L757.245 234.023C758.375 233.67 759.341 233.667 760.506 233.661L761.61 232.807L762.406 233.184C764.14 233.856 765.987 233.952 767.829 234.138L752.569 237.323Z" fill="#4A4C5B"/>
<path d="M952.085 98.3501C972.291 95.3842 1000.39 93.7531 1020.29 99.2551L1018.07 100.004C1020.11 101.35 1021.97 102.264 1022.58 104.76C1023.47 108.405 1023.96 113.914 1023.74 117.649C1015.68 114.829 1006.49 115.372 997.991 114.145C957.924 152.082 912.584 186.869 861.315 209.529C831.309 222.793 799.049 231.115 766.845 237.457L770.909 233.802C799.956 227.322 828.339 219.89 855.876 208.615C905.429 188.324 952.198 154.294 989.5 117.126C985.162 113.911 977.318 115.748 971.886 116.471C962.572 117.71 953.493 120.38 944.034 120.033C942.042 122.543 926.971 124.685 922.663 125.276L920.443 125.498L920.481 126.431C914.85 127.684 909.375 130.093 903.611 130.184C902.04 131.124 901.355 132.05 900.339 133.524L899.171 132.515L898.504 132.763L894.686 134.049L894.737 135.359L893.856 135.479C891.236 135.852 889.615 136.41 887.198 137.471C876.704 142.077 866.634 147.385 856.232 152.066C849.008 155.319 840.418 164.353 832.338 165.489L831.825 166.933L830.289 167.535C828.059 168.439 826.894 169.488 825.274 171.201C824.041 172.508 823.132 172.898 821.564 173.675C820.059 174.425 818.958 175.208 818.066 176.599C816.377 179.233 811.884 181.88 809.311 183.782C804.162 187.587 799.314 191.291 794.886 195.915L793.722 195.288C791.875 196.565 789.739 195.999 788.576 197.256C787.022 198.938 786.359 199.648 784.279 200.535L781.503 202.279L783.234 203.041L783.262 203.856C781.108 204.367 780.577 204.439 778.992 205.895C769.26 214.382 759.318 224.16 751.735 234.51L752.569 237.323C748.819 238.052 745.316 238.31 741.494 238.044L737.965 234.815L737.832 230.536C738.837 226.544 741.503 222.552 742.691 218.385C744.441 214.221 750.106 209.14 753.21 205.666C777.618 178.369 809.455 150.561 842.989 134.255C875.35 115.195 914.236 101.407 952.085 98.3501Z" fill="#6E7A89"/>
<path d="M997.991 114.145L1008.03 103.596C1011.7 100.002 1013.02 100.141 1018.07 100.004C1020.11 101.349 1021.97 102.264 1022.58 104.76C1023.47 108.405 1023.96 113.913 1023.74 117.649C1015.68 114.829 1006.49 115.372 997.991 114.145Z" fill="#4F5365"/>
<path d="M842.989 134.255C875.35 115.195 914.236 101.407 952.085 98.3503C949.762 99.6805 948.451 100.435 945.631 100.277L944.994 100.82C943.676 101.715 942.413 101.666 940.87 101.8L943.44 102.258C938.67 103.594 933.131 103.398 928.813 105.237L880.082 120.689C871.59 123.389 861.223 128.492 854.091 133.671C835.482 143.613 819.275 155.342 802.415 167.833C792.96 174.839 782.975 181.703 774.826 189.902C761.923 202.874 751.471 218.403 737.832 230.537C738.837 226.544 741.503 222.553 742.691 218.385C744.441 214.221 750.106 209.14 753.21 205.666C777.618 178.369 809.455 150.561 842.989 134.255Z" fill="#727C89"/>
<path d="M741.494 238.044C742 234.197 744.836 231.599 747.262 228.547C753.51 220.684 760.279 212.804 767.189 205.485C786.9 184.595 811.136 166.473 835.759 151.551C850.778 142.45 865.627 133.213 881.973 126.432C887.222 124.256 892.892 123.026 898.298 121.223C909.954 117.335 921.521 113.486 933.611 111.029C956.185 106.442 978.654 105.529 1001.58 104.533C997.773 108.88 994.09 113.523 989.5 117.126C985.162 113.911 977.318 115.748 971.886 116.471C962.572 117.711 953.493 120.381 944.034 120.033C942.042 122.543 926.971 124.685 922.663 125.276L920.444 125.498L920.481 126.431C914.85 127.684 909.375 130.093 903.611 130.184C902.04 131.124 901.356 132.051 900.339 133.524L899.171 132.515L898.504 132.763L894.686 134.049L894.737 135.359L893.856 135.479C891.237 135.852 889.615 136.41 887.198 137.471C876.704 142.077 866.634 147.385 856.232 152.066C849.008 155.319 840.418 164.353 832.338 165.489L831.826 166.933L830.289 167.536C828.059 168.439 826.894 169.488 825.275 171.201C824.041 172.508 823.132 172.898 821.564 173.675C820.059 174.425 818.958 175.208 818.067 176.599C816.377 179.233 811.884 181.88 809.311 183.782C804.162 187.587 799.314 191.291 794.886 195.915L793.722 195.288C791.875 196.565 789.739 195.999 788.576 197.256C787.022 198.938 786.359 199.648 784.279 200.535L781.503 202.279L783.234 203.041L783.262 203.856C781.108 204.367 780.577 204.439 778.992 205.895C769.26 214.382 759.318 224.16 751.736 234.51L752.569 237.324C748.819 238.052 745.316 238.31 741.494 238.044Z" fill="#4F5365"/>
<path d="M719.032 671.601L719.625 670.891C722.33 668.104 733.892 668.813 738.085 668.672L794.545 668.181C814.654 705.709 836.453 738.593 874.318 761.514L874.433 762.337C875.482 768.905 878.986 775.075 880.848 781.517C885.621 798.024 889.761 814.954 892.222 831.947C894.739 849.317 895.658 866.921 896.234 884.441C896.336 887.555 897.331 893.556 896.612 896.336C896.09 898.353 891.6 902.281 891.655 904.034L894.245 904.155L893.894 904.994L891.726 910.653C884.464 920.972 874.739 932.251 869.286 943.335C870.762 944.688 871.998 945.218 873.889 945.915L872.359 946.189C870.893 946.464 869.674 946.865 868.309 947.475C871.175 949.846 873.575 952.699 876.049 955.501C877.229 956.837 877.679 959.897 878.164 961.598C873.257 957.694 869.142 952.282 865.156 947.5C856.482 937.092 848.443 926.251 840.856 915.08L784.139 822.648L782.695 819.445C778.691 814.902 775.824 807.586 772.938 802.241C764.306 786.242 756.347 769.982 748.398 753.66C748.366 751.133 748.73 747.796 747.673 745.486C746.908 743.816 746.931 742.302 746.828 740.494C746.698 738.208 745.497 735.575 745.311 732.784L743.249 729.16C742.672 725.463 743.146 722.366 743.806 718.73C743.614 717.105 737.5 709.214 736.237 707.138C736.194 705.639 733.821 702.22 733.017 700.762L732.388 699.418L735.2 697.056C735.475 691.407 726.85 681.051 723.172 676.625L719.032 671.601Z" fill="#100918"/>
<path d="M891.655 904.034L894.245 904.155L893.894 904.994L891.726 910.652C884.464 920.972 874.739 932.25 869.286 943.335C870.762 944.688 871.998 945.217 873.89 945.915L872.359 946.189C870.893 946.464 869.675 946.865 868.31 947.475C871.175 949.846 873.575 952.699 876.049 955.501C877.229 956.837 877.679 959.896 878.164 961.598C873.257 957.694 869.142 952.282 865.156 947.499C856.482 937.092 848.443 926.251 840.856 915.08L842.611 913.593C846.436 917.411 852.537 925.513 855.063 930.239C855.556 931.158 855.858 931.765 856.584 932.55C859.686 935.919 861.731 940.657 865.348 943.47L868.099 941.186C868.01 937.934 871.172 938.215 871.561 934.771C870.224 935.526 869.543 936.303 868.645 937.489C867.849 938.54 867.442 939.033 866.361 939.878L865.755 938.528L864.585 937.475L866.104 932.494C864.59 931.131 865.269 931.839 864.048 930.381L865.974 928.723L869.38 931.473L871.158 931.314L891.655 904.034Z" fill="#383740"/>
<path d="M719.032 671.601L719.625 670.891C722.33 668.104 733.892 668.813 738.085 668.672C735.407 676.683 742.985 685.844 744.868 693.794C746.533 700.818 754.025 701.993 753.726 711.341L755.436 711.826C756.936 716.304 758.283 721.251 760.726 725.327C758.725 725.395 758.568 724.879 756.986 723.813C756.552 725.201 756.231 725.748 757.093 727.1L758.859 729.223C758.951 731.561 758.754 730.637 760.104 732.466L760.722 733.812L762.553 736.979C763.334 738.438 763.421 739.94 763.537 741.553L761.303 741.258L759.332 741.864C752.969 735.262 748.723 726.376 743.806 718.73C743.614 717.105 737.5 709.214 736.237 707.138C736.194 705.639 733.821 702.22 733.017 700.762L732.388 699.418L735.2 697.056C735.475 691.407 726.85 681.051 723.172 676.625L719.032 671.601Z" fill="#262533"/>
<path d="M733.017 700.762L732.388 699.418L735.2 697.056C740.135 704.228 744.376 711.783 748.962 719.16C753.419 726.338 758.431 733.283 761.303 741.258L759.332 741.864C752.969 735.262 748.723 726.376 743.806 718.73C743.614 717.105 737.5 709.213 736.237 707.138C736.194 705.639 733.821 702.22 733.017 700.762Z" fill="#696C7B"/>
<path d="M784.139 822.647L784.675 813.199C785.274 810.456 786.417 809.04 788.752 807.631C790.527 808.924 791.827 809.034 793.962 809.227L794.761 809.291C799.907 820.459 802.215 834.724 809.238 844.659C809.304 846.092 809.031 847.935 809.886 849.088C810.877 850.43 812.301 854.149 813.598 854.923C813.782 855.032 815.348 855.309 815.456 855.4C817.515 857.199 819.465 866.829 821.269 869.976C826.356 878.862 832.186 887.522 837.601 896.245L837.143 897.354C835.143 896.862 833.142 895.319 831.92 893.701C831.222 892.775 831.458 892.826 831.006 891.818L826.645 883.875C824.926 880.52 822.426 877.637 820.667 874.208C819.417 871.767 817.65 869.893 815.2 868.545C815.284 871.472 816.559 872.81 818.241 875.009L828.511 891.447C829.585 892.899 828.449 891.323 829.643 893.508L830.759 895.008C833.231 898.251 834.788 901.861 837.395 905.012C838.615 906.484 839.552 907.864 840.391 909.562L842.611 913.593L840.856 915.08L784.139 822.647Z" fill="#434251"/>
<path d="M743.806 718.729C748.723 726.376 752.969 735.262 759.332 741.863L761.303 741.257L763.537 741.553L765.375 747.621C771.184 757.928 777.776 768.154 782.993 778.717C787.708 788.265 791.284 799.252 794.761 809.291L793.962 809.226C791.827 809.033 790.527 808.924 788.752 807.631C786.417 809.04 785.274 810.456 784.675 813.199L784.139 822.647L782.695 819.445C778.691 814.901 775.824 807.585 772.938 802.241C764.306 786.242 756.347 769.982 748.398 753.66C748.366 751.133 748.73 747.795 747.673 745.485C746.908 743.816 746.931 742.301 746.828 740.494C746.698 738.208 745.497 735.575 745.311 732.784L743.249 729.16C742.672 725.463 743.146 722.365 743.806 718.729Z" fill="#4F5365"/>
<path d="M772.328 786.462L780.103 787.51L779.071 789.303C780.393 792.223 782.094 794.662 780.638 797.911C780.185 798.922 779.787 799.311 779.119 800.113C777.286 795.389 774.709 790.944 772.328 786.462Z" fill="#383740"/>
<path d="M743.806 718.729C748.723 726.376 752.969 735.262 759.332 741.863L761.303 741.257L763.537 741.553L765.375 747.621C764.424 749.551 763.609 751.135 763.417 753.309L761.908 754.888C763.063 758.793 764.296 762.501 764.471 766.591C763.318 764.677 762.133 762.839 761.694 760.634C760.358 753.896 756.064 752.126 752.047 747.062C749.241 743.52 747.883 737.001 745.311 732.784L743.249 729.16C742.672 725.463 743.146 722.365 743.806 718.729Z" fill="#434251"/>
<path d="M765.375 747.621C771.184 757.928 777.776 768.154 782.993 778.717C787.708 788.265 791.285 799.252 794.761 809.291L793.962 809.226C791.827 809.033 790.527 808.924 788.752 807.631C786.417 809.04 785.274 810.456 784.675 813.199L784.139 822.647L782.695 819.445C782.821 818.126 783.181 816.449 782.629 815.175L782.179 814.381L780.952 811.684C779.525 809.807 779.784 810.334 779.688 807.895C781.481 808.848 780.601 808.556 782.28 808.902C780.323 805.866 778.658 803.838 779.119 800.113C779.787 799.311 780.185 798.922 780.638 797.911C782.095 794.662 780.393 792.223 779.072 789.303L780.103 787.51L772.328 786.462L764.471 766.591C764.296 762.501 763.063 758.793 761.908 754.888L763.417 753.309C763.609 751.135 764.424 749.551 765.375 747.621Z" fill="#4D4758"/>
<path d="M763.417 753.309C766.612 760.897 770.316 768.266 774.157 775.565C776.148 779.342 779.276 783.378 780.103 787.51L772.328 786.463L764.471 766.591C764.296 762.502 763.063 758.793 761.908 754.889L763.417 753.309Z" fill="#313547"/>
<path d="M1190.47 877.336L1194.85 878.657C1172.4 928.417 1150.94 986.555 1094.38 1008.39C1049.64 1025.65 987.006 1026.02 942.671 1007.42C918.594 997.32 895.08 981.262 878.17 961.705L878.164 961.598C877.679 959.897 877.229 956.837 876.049 955.501C873.575 952.699 871.174 949.846 868.309 947.475C869.674 946.865 870.893 946.464 872.359 946.189L873.889 945.915C871.998 945.218 870.762 944.688 869.286 943.335C874.739 932.251 884.464 920.972 891.726 910.653L901.79 898.698L902.8 898.969C915.766 902.156 931.807 899.748 945.451 901.224C977.266 904.665 1008.59 921.797 1031.25 943.183C1039.13 950.627 1045.52 959.341 1053.29 966.83C1055.13 968.668 1059.16 971.722 1060.28 973.836C1061 975.194 1060.82 979.811 1060.93 981.439C1061.61 991.477 1060.39 1001.77 1061.68 1011.73L1063.66 1012.26C1067.72 1008.8 1066.06 986.987 1066.04 981.373C1066.03 979.974 1065.56 976.508 1066.01 975.282C1066.9 972.854 1073.12 968.051 1075.08 965.792C1083.49 956.061 1090.95 945.656 1099.47 935.983C1114.09 918.994 1129.5 905.933 1148.87 894.179C1153.48 891.383 1158.66 887.628 1163.69 885.697C1167.49 884.238 1171.85 883.967 1175.81 882.984C1181.01 881.692 1185.67 879.637 1190.47 877.336Z" fill="#020206"/>
<path d="M733.471 244.851C736.574 244.12 739.459 243.947 742.641 243.829C744.699 249.867 749.167 254.653 753.195 259.554C753.391 260.717 753.572 261.596 753.424 262.779L751.214 264.015C761.221 276.69 771.848 288.922 781.787 301.615C786.197 307.249 790.814 312.764 795.167 318.429C796.815 320.573 798.32 323.526 800.197 325.41L798.834 394.662C799.323 398.948 798.972 409.125 801.5 412.163L800.821 425.544L799.497 428.02L796.095 427.557L773.368 423.341C766.745 456.429 763.206 491.18 763.539 524.867L763.45 555.821L765.016 573.462L763.632 573.016C756.824 587.253 750.052 601.449 743.15 615.638C739.129 623.903 735.486 632.983 730.18 640.555L725.825 647.32L722.248 645.15C720.499 647.574 718.899 649.356 716.546 651.25L714.222 649.177C714.519 637.088 705.886 623.332 703.618 611.249C702.954 607.701 701.743 604.37 700.757 600.908L698.763 594.958C697.811 592.804 698.1 589.924 696.871 588.18C695.372 586.051 695.681 582.323 694.845 579.762C694.44 578.522 693.924 577.424 693.691 576.132C693.112 572.947 692.328 569.737 690.999 566.755C690.283 565.148 689.909 564.491 689.799 562.723L689.66 560.777C688.989 557.551 689.079 553.421 688.17 550.425C686.714 545.608 686.762 540.432 686.208 535.38C684.489 537.993 684.33 541.051 682.921 543.25C681.518 545.442 679.545 547.585 677.941 549.672L676.231 549.19C674.918 545.751 679.175 541.397 680.416 537.841L680.771 536.803L684.197 527.824C686.078 521.556 688.894 515.844 690.132 509.362C713.117 437.426 729.059 362.686 731.878 287.292C733.727 282.202 733.076 274.092 733.355 268.611L732.626 252.755C732.111 251.5 731.155 250.7 730.231 249.712L732.776 248.85L733.471 244.851Z" fill="url(#paint1_linear_14_5055)"/>
<path d="M796.891 419.097C799.055 421.235 799.886 422.703 800.821 425.544L799.497 428.02L796.095 427.557L796.891 419.097Z" fill="#4F5365"/>
<path d="M798.834 394.661C799.323 398.948 798.972 409.125 801.5 412.163L800.821 425.544C799.885 422.703 799.055 421.235 796.891 419.097C795.542 413.263 798.072 400.931 798.834 394.661Z" fill="#4D4758"/>
<path d="M733.471 244.852C736.574 244.12 739.459 243.948 742.641 243.83C744.699 249.867 749.167 254.653 753.194 259.555C753.391 260.717 753.572 261.597 753.424 262.779L751.214 264.016C748.538 260.738 744.965 257.172 743.119 253.415C742.564 252.281 742.17 251.712 741.278 250.809C737.916 253.714 738.449 257.393 737.88 261.612L737.43 262.581C735.473 267.055 735.393 270.82 735.346 275.593L735.228 274.7C734.902 272.367 734.598 270.693 733.354 268.611L732.626 252.755C732.11 251.5 731.155 250.701 730.231 249.712L732.776 248.851L733.471 244.852Z" fill="#696C7B"/>
<path d="M763.45 555.821L765.016 573.461L763.633 573.016C756.824 587.252 750.053 601.449 743.15 615.638C739.129 623.903 735.486 632.982 730.18 640.554L725.825 647.32L722.248 645.15L722.183 645.018L728.163 633.868C737.21 618.105 745.565 601.805 753.01 585.273C757.406 575.509 761.925 566.442 763.45 555.821Z" fill="#4D4758"/>
<path d="M733.355 268.61C734.598 270.693 734.902 272.367 735.228 274.699L735.346 275.592C735.394 270.819 735.473 267.055 737.43 262.58L737.881 261.612C737.971 273.769 736.386 285.915 735.547 298.045C730.369 373.038 714.599 446.962 690.922 518.51L686.208 535.38C684.489 537.993 684.33 541.051 682.921 543.249C681.518 545.442 679.545 547.585 677.941 549.672L676.231 549.19C674.918 545.751 679.175 541.396 680.416 537.841L680.771 536.803L684.197 527.824C686.078 521.555 688.894 515.844 690.132 509.362C713.117 437.426 729.059 362.685 731.878 287.292C733.727 282.202 733.076 274.092 733.355 268.61Z" fill="#5E6275"/>
<path d="M686.208 535.38L690.922 518.51C691.649 525.132 691.381 529.245 696.289 534.268L696.741 536.444L694.48 536.794L695.036 537.63C695.613 538.538 695.958 539.294 696.305 540.291L697.948 538.662L697.959 539.483L698.437 544.602L699.527 545.109L699.492 550.585L700.65 551.638C700.78 555.331 700.046 565.176 702.302 567.602C703.5 568.893 703.686 569.584 704.16 571.236L704.776 572.852L703.696 573.993C704.819 575.051 705.812 575.841 707.172 576.601L705.524 577.751L705.562 578.846L707.285 579.883L705.637 581.033L705.675 582.128L707.398 583.162C707.628 589.433 711.085 591.546 711.3 597.812L710.205 598.946L711.08 601.702C711.763 603.767 713.111 605.868 714.477 607.568L715.872 606.967L717.291 607.003C719.454 610.64 720.337 614.795 721.467 618.82L721.131 619.923L720.008 620.508C720.744 621.593 721.216 622.078 722.268 622.908C725.726 625.635 724.292 631.083 728.163 633.868L722.183 645.018L722.248 645.15C720.499 647.574 718.899 649.356 716.546 651.25L714.222 649.177C714.519 637.088 705.886 623.332 703.618 611.249C702.954 607.701 701.743 604.37 700.757 600.908L698.763 594.958C697.811 592.804 698.1 589.924 696.871 588.18C695.372 586.051 695.681 582.323 694.845 579.762C694.44 578.522 693.924 577.424 693.691 576.132C693.111 572.947 692.328 569.737 690.999 566.755C690.283 565.148 689.909 564.491 689.799 562.723L689.66 560.777C688.989 557.551 689.079 553.421 688.17 550.425C686.714 545.608 686.762 540.432 686.208 535.38Z" fill="#262533"/>
<path d="M997.991 114.145C1006.49 115.372 1015.68 114.829 1023.74 117.649L1025.12 126.051L1030.99 193.136C1031.91 191.308 1031.91 188.575 1032.19 186.538C1033.94 185.881 1032.99 186.135 1035.06 185.84L1036.87 191.785L1037.93 195.303C1035.47 196.986 1031.77 198.859 1030.07 201.222L1004.41 229.922C1001.29 235.871 994.164 241.222 989.223 245.919C960.655 273.082 927.647 297.589 889.214 310.065C884.425 311.621 876.235 314.762 871.36 314.719C858.89 317.697 845.205 321.509 832.336 321.831C831.619 321.374 828.484 321.527 827.525 321.554L824.98 321.664C821.574 321.257 818.741 320.925 815.247 320.906C809.596 321.181 805.104 323.091 800.304 320.441L798.863 319.67C799.131 321.135 798.899 321.227 800.048 322.264C801.263 323.36 800.872 323.623 801.584 324.779L802.465 325.845L802.038 329.697L800.197 325.41C798.32 323.526 796.815 320.573 795.167 318.429C790.814 312.765 786.197 307.249 781.787 301.615C771.848 288.922 761.221 276.69 751.214 264.015L753.424 262.779C753.572 261.596 753.391 260.717 753.194 259.554C749.167 254.653 744.699 249.867 742.641 243.829C739.459 243.947 736.574 244.12 733.471 244.851C733.135 242.514 731.345 240.372 730.079 238.397L730.721 236.985L736.24 237.112L737.965 234.815L741.494 238.044C745.316 238.31 748.819 238.052 752.569 237.323L767.829 234.138L770.909 233.802L766.845 237.457C799.049 231.115 831.309 222.793 861.315 209.529C912.584 186.869 957.924 152.082 997.991 114.145Z" fill="url(#paint2_linear_14_5055)"/>
<path d="M737.965 234.815L741.494 238.044C745.316 238.31 748.819 238.052 752.569 237.323L767.829 234.138L770.909 233.802L766.845 237.457C759.992 238.926 748.304 240.114 742.642 243.829C739.459 243.947 736.574 244.119 733.471 244.851C733.135 242.514 731.345 240.372 730.08 238.397L730.721 236.985L736.24 237.111L737.965 234.815Z" fill="#727C89"/>
<path d="M866.459 311.838L871.36 314.719C858.89 317.697 845.205 321.509 832.337 321.831C831.619 321.374 828.484 321.526 827.525 321.554L824.981 321.664C821.574 321.257 818.742 320.925 815.247 320.906L815.065 319.835C821.276 318.733 827.902 318.768 834.2 318.025C845.041 316.746 855.934 314.633 866.459 311.838Z" fill="#4F5365"/>
<path d="M1030.99 193.137C1031.91 191.308 1031.91 188.575 1032.19 186.539C1033.94 185.881 1032.99 186.135 1035.06 185.84L1036.87 191.785L1037.93 195.303C1035.47 196.986 1031.77 198.859 1030.07 201.222L1004.41 229.922L1002.97 228.553L1005.43 223.423C1009.12 221.866 1027.07 197.796 1030.99 193.137Z" fill="#696C7B"/>
<path d="M753.194 259.555C765.016 273.809 776.654 288.188 788.399 302.492C793.256 308.411 797.59 315.206 803.331 320.343L815.065 319.835L815.247 320.906C809.596 321.181 805.104 323.091 800.304 320.441L798.863 319.67C799.131 321.135 798.899 321.227 800.048 322.264C801.263 323.36 800.872 323.623 801.584 324.779L802.465 325.845L802.038 329.697L800.197 325.41C798.32 323.526 796.815 320.573 795.167 318.429C790.814 312.765 786.197 307.25 781.787 301.615C771.848 288.922 761.221 276.69 751.214 264.016L753.424 262.779C753.572 261.596 753.391 260.717 753.194 259.555Z" fill="#5E6275"/>
<path d="M866.459 311.838C924.028 298.515 966.583 265.043 1005.43 223.423L1002.97 228.553L1004.41 229.922C1001.29 235.871 994.164 241.221 989.223 245.919C960.655 273.082 927.647 297.589 889.214 310.065C884.425 311.62 876.235 314.762 871.36 314.719L866.459 311.838Z" fill="#313547"/>
<path d="M1037.93 195.303L1038.31 196.568C1037.4 198.47 1037.1 199.545 1037.2 201.68C1037.67 211.325 1039.69 220.949 1040.25 230.607C1041.05 244.525 1041.33 258.451 1042.4 272.361C1042.72 276.535 1042.35 281.863 1043.32 285.872L1043.5 286.165L1042.93 294.771C1041.41 289.632 1043.61 277.037 1041.11 273.661C1040.47 272.792 1040.18 272.126 1039.85 271.125L1038.12 270.1C1038.42 278.813 1039.74 286.354 1039.88 295.129L1039.19 295.405L1039.06 296.522C1038.13 305.41 1041.96 322.829 1038.5 330.315L1038.28 331.111C1037.7 333.015 1036.39 334.761 1035.32 336.447C1032.23 341.288 1027.19 345.887 1024.48 350.508C1019.43 359.097 1009.05 370.726 1000.44 376.531C994.983 380.212 990.726 386.416 985.054 390.202L983.119 391.845C978.898 395.508 974.331 398.017 969.815 401.189C968.697 401.973 969.244 401.598 967.738 402.247C966.409 402.817 965.709 403.267 964.583 404.08C962.973 405.239 961.931 405.301 960.119 405.977L957.778 407.137L949.372 410.493C947.994 411.137 946.891 411.447 945.427 411.795C940.156 413.052 935.228 415.123 929.885 416.226C926.879 416.848 923.062 417.131 920.333 418.293C916.266 420.025 911.555 418.006 907.819 420.921L908.545 421.709C903.094 421.969 891.275 423.977 886.552 422.208C884.96 421.609 886.204 421.799 883.939 421.678L882.502 421.644C877.045 417.929 873.676 412.287 869.55 407.305C868.914 406.536 868.472 405.803 867.737 405.094C866.609 404.003 865.729 403.282 865.095 401.809C864.424 400.246 863.447 400.176 861.914 399.357L861.952 400.449L862.832 401.514C864.754 404.605 867.975 407.118 869.401 410.413L869.939 411.715L868.644 411.922C871.672 416.749 875.844 421.693 878.155 426.839C880.372 431.781 881.281 443.535 880.453 448.872L879.268 449.911C853.405 439.902 826.771 433.269 799.497 428.021L800.821 425.545L801.5 412.164C798.972 409.125 799.323 398.948 798.834 394.662L800.197 325.41L802.038 329.697L802.465 325.845L801.584 324.779C800.872 323.623 801.263 323.36 800.048 322.264C798.899 321.227 799.131 321.135 798.863 319.67L800.304 320.442C805.104 323.091 809.597 321.181 815.247 320.906C818.742 320.926 821.574 321.257 824.981 321.664L827.525 321.554C828.484 321.527 831.619 321.374 832.337 321.832C845.205 321.509 858.89 317.697 871.36 314.72C876.235 314.762 884.426 311.621 889.214 310.066C927.647 297.589 960.655 273.082 989.223 245.919C994.164 241.222 1001.29 235.872 1004.41 229.922L1030.07 201.222C1031.77 198.859 1035.47 196.986 1037.93 195.303Z" fill="#100918"/>
<path d="M819.232 348.403L820.945 347.56C819.416 346.169 819.331 346.64 819.24 344.428L822.834 345.316C827.045 349.206 830.19 354.25 833.654 358.778C838.463 365.061 843.608 371.149 847.912 377.774C846.441 379.408 846.396 379.625 844.237 380.078L819.232 348.403Z" fill="#434251"/>
<path d="M847.912 377.773L848.806 378.645C861.458 391.248 870.187 407.891 882.514 420.824L907.819 420.921L908.544 421.709C903.094 421.969 891.275 423.977 886.552 422.208C884.959 421.609 886.204 421.799 883.938 421.678L882.502 421.643C877.045 417.929 873.676 412.287 869.549 407.304C868.914 406.536 868.471 405.802 867.737 405.093C866.609 404.002 865.729 403.281 865.095 401.809C864.424 400.245 863.447 400.175 861.914 399.356L861.952 400.448L862.832 401.514C864.753 404.604 867.974 407.117 869.401 410.413L869.939 411.715L868.644 411.922L844.236 380.078C846.396 379.625 846.44 379.408 847.912 377.773Z" fill="#313547"/>
<path d="M1037.93 195.303L1038.31 196.568C1037.4 198.469 1037.1 199.545 1037.2 201.68C1037.67 211.324 1039.69 220.948 1040.25 230.606C1041.05 244.525 1041.33 258.451 1042.4 272.36C1042.72 276.535 1042.35 281.862 1043.32 285.871L1043.5 286.165L1042.93 294.771C1041.41 289.632 1043.61 277.037 1041.11 273.661C1040.47 272.791 1040.18 272.125 1039.85 271.125L1038.12 270.1C1038.42 278.813 1039.74 286.353 1039.88 295.129L1039.19 295.405C1040.58 289.22 1037.38 276.405 1036.73 269.718C1034.97 251.44 1034.14 233.051 1031.76 214.855C1031.15 210.158 1032.19 205.64 1030.07 201.222C1031.77 198.859 1035.47 196.986 1037.93 195.303Z" fill="#434251"/>
<path d="M800.197 325.41L802.038 329.697L802.465 325.845L801.584 324.779C800.872 323.623 801.263 323.36 800.048 322.264C798.899 321.227 799.131 321.135 798.863 319.67L800.304 320.441C805.104 323.091 809.597 321.181 815.247 320.906C818.741 320.925 821.574 321.257 824.98 321.664L827.525 321.554C828.484 321.526 831.619 321.374 832.336 321.831L831.204 322.277C823.622 325.066 812.578 324.311 804.345 325.724C810.784 330.915 818.643 338.208 822.834 345.316L819.24 344.428C819.33 346.639 819.416 346.168 820.945 347.559L819.232 348.403L844.237 380.078L868.644 411.922C871.672 416.749 875.844 421.693 878.155 426.839C880.372 431.78 881.281 443.534 880.453 448.872L879.268 449.911C853.405 439.902 826.771 433.269 799.497 428.02L800.821 425.544L801.5 412.163C798.972 409.125 799.323 398.948 798.834 394.662L800.197 325.41Z" fill="#100918"/>
<path d="M800.197 325.41L802.038 329.697L802.465 325.845L801.584 324.779C800.872 323.623 801.263 323.36 800.048 322.264C798.899 321.227 799.131 321.135 798.863 319.67L800.304 320.441C805.104 323.091 809.597 321.181 815.247 320.906C818.741 320.925 821.574 321.257 824.981 321.664L827.525 321.554C828.484 321.527 831.619 321.374 832.336 321.831L831.204 322.277C823.622 325.066 812.578 324.311 804.345 325.724C810.784 330.916 818.643 338.208 822.834 345.316L819.24 344.428C819.331 346.639 819.416 346.168 820.945 347.559L819.232 348.403L805.482 331.468C805.206 348.869 805.011 366.301 804.116 383.684C803.633 392.999 803.476 403.021 801.5 412.163C798.972 409.125 799.323 398.948 798.834 394.662L800.197 325.41Z" fill="#4A4C5B"/>
<path d="M1020.29 99.2553C1029.4 99.8837 1037.78 101.849 1046.59 103.946C1060.31 105.969 1073.54 111.266 1086.25 116.46C1123.76 131.793 1157.61 153.119 1186.98 180.405C1194.76 187.625 1203.24 195.065 1209.7 203.457L1230.08 227.691L1237.57 237.287L1273.01 296.93L1276.46 305.221C1273.34 306.438 1271.77 308.25 1270.35 311.281L1270.1 311.918L1266.02 318.758C1262.84 324.637 1260.65 332.354 1256.81 337.605L1257.98 340.547L1265.14 401.015L1267.06 411.885L1207.14 434.194L1194.61 440.297C1194.99 435.168 1196.13 432.639 1199.35 428.565L1200.31 427.371C1185.27 423.804 1170.99 425.834 1155.81 420.31C1153.2 417.843 1150.79 417.124 1147.88 415.259L1149.01 415.198C1150.93 416.766 1152.91 416.115 1155.35 416.042C1146.08 412.501 1137.9 408.463 1129.11 404C1126.58 402.508 1123.29 398.501 1120.95 397.838C1117.76 396.936 1114.2 392.459 1111.36 390.779C1107.46 388.48 1104.61 384.502 1100.87 382.379C1094.65 378.837 1086.63 371.945 1082.75 366.024C1081.3 363.811 1077.78 362.438 1076.32 360.226C1073.04 355.22 1067.65 350.962 1063.95 345.876C1062.24 343.529 1060.29 341.494 1058.59 339.195L1054.48 334.156C1052.71 331.478 1048.54 328.162 1047.46 325.536C1046.74 323.758 1047.21 318.688 1047.11 316.583C1046.98 313.675 1045.77 310.978 1045.61 308.485C1045.2 301.615 1046.45 293.35 1043.83 286.9L1043.5 286.165L1043.32 285.872C1042.35 281.863 1042.72 276.535 1042.4 272.361C1041.33 258.451 1041.05 244.525 1040.25 230.607C1039.69 220.949 1037.67 211.325 1037.2 201.68C1037.1 199.545 1037.4 198.47 1038.31 196.568L1037.93 195.303L1036.87 191.785L1035.06 185.84C1032.99 186.135 1033.94 185.881 1032.19 186.539C1031.91 188.575 1031.91 191.308 1030.99 193.137L1025.12 126.051L1023.74 117.649C1023.96 113.914 1023.47 108.405 1022.58 104.761C1021.97 102.264 1020.11 101.35 1018.07 100.005L1020.29 99.2553Z" fill="url(#paint3_linear_14_5055)"/>
<path d="M1099.36 149.724C1116.19 159.868 1129.1 175.856 1147.39 184.293L1150.37 187.395C1149.41 188.442 1148.24 189.486 1147.58 190.731C1141.92 189.09 1136.51 183.428 1131.89 179.892C1120.24 170.989 1108.56 162.233 1097.39 152.775L1099.36 149.724Z" fill="#313547"/>
<path d="M1036.87 191.785C1045.2 198.473 1051.37 206.639 1058.5 214.44C1068.68 225.577 1079.23 236.354 1090.25 246.723L1087.73 250.176C1069.76 233.639 1052.19 216.555 1038.31 196.568L1037.93 195.303L1036.87 191.785Z" fill="#4D4758"/>
<path d="M1149.77 192.52L1152.63 190.779C1160.37 194.566 1166.81 200.669 1174.98 204.354C1178.38 206.78 1181.51 208.733 1185.38 210.447C1187.3 211.76 1188.98 212.809 1191.22 213.615C1197.29 218.259 1207.08 221.547 1214.22 224.615C1217.44 227.576 1223.17 228.055 1227.53 228.864L1230.08 227.691L1237.57 237.287C1232.41 238.224 1231.51 237.439 1227.01 235.239L1214.18 228.95L1201.36 222.84C1197.39 221.376 1193.24 218.519 1189.5 216.492C1175.78 209.045 1163.36 199.944 1149.77 192.52Z" fill="#696C7B"/>
<path d="M1031.22 137.326C1029.89 129.879 1029.74 122.685 1029.69 115.157L1060.98 121.644L1062.22 121.778L1076.04 133.774C1070.46 133.304 1064.45 132.303 1058.87 132.495L1057.7 131.442C1055.33 131.524 1056.2 131.721 1054.27 130.464C1053.97 130.272 1052.94 130.064 1052.56 129.982L1052.53 129.167L1056.47 128.482C1050.9 128.396 1046.35 126.349 1041.11 126.546C1042.14 128.672 1042.42 128.629 1044.61 129.711L1043.51 130.361C1039.61 129.183 1036.57 127.687 1033.15 125.539L1031.39 126.413L1031.22 137.326Z" fill="#313547"/>
<path d="M1201.36 222.84L1214.18 228.95C1222.26 241.755 1232.15 253.654 1240.66 266.248C1243.68 270.724 1244.95 275.741 1247.97 280.24C1252.45 286.909 1261.93 295.122 1262.94 302.989C1265.05 304.259 1266.67 304.442 1269.07 304.676C1266.28 309.625 1263.64 315.645 1260.11 320.075C1260.19 318.042 1260.01 315.192 1261.05 313.348C1261.69 312.208 1262.66 311.501 1263.27 310.227C1264.17 308.312 1264.35 308.015 1263.62 306.131C1261.96 305.047 1260.69 304.269 1259.65 302.581L1258.93 301.373C1256.88 301.059 1255.67 299.688 1254.19 298.399L1253.42 297.727L1252.68 301.032C1250.29 298.034 1249.21 294.298 1246.59 291.467C1245.04 289.78 1245.47 288.696 1245.4 286.512L1243.62 284.379C1242.88 283.14 1243.35 283.042 1242.04 281.902C1236.14 276.75 1234.6 270.802 1230.15 264.93C1228.51 262.75 1226.71 259.064 1225.67 256.523C1224.71 254.187 1221.22 250.251 1219.2 248.529L1218.58 248.007C1218.27 246.591 1218.06 245.9 1217.09 244.742L1216.17 243.711L1214.98 242.104C1213.58 240.663 1212.49 238.307 1210.86 237.328L1209.7 236.811C1204.99 233.993 1203.11 227.551 1201.36 222.84Z" fill="#262533"/>
<path d="M1020.29 99.2553C1029.4 99.8837 1037.78 101.849 1046.59 103.946L1046.68 107.371C1052.28 111.123 1058.2 116.466 1062.22 121.778L1060.98 121.644L1029.69 115.157C1029.74 122.685 1029.89 129.879 1031.22 137.326C1032.24 148.678 1033.22 160.035 1034.22 171.387C1034.6 175.68 1035.88 181.705 1035.06 185.84C1032.99 186.135 1033.94 185.881 1032.19 186.539C1031.91 188.575 1031.91 191.308 1030.99 193.137L1025.12 126.051L1023.74 117.649C1023.96 113.914 1023.47 108.405 1022.58 104.761C1021.97 102.264 1020.11 101.35 1018.07 100.005L1020.29 99.2553Z" fill="#5B5E6D"/>
<path d="M1020.29 99.2553C1029.4 99.8837 1037.78 101.849 1046.59 103.946L1046.68 107.371C1043.17 107.677 1037.46 108.235 1034.61 106.536C1032.83 105.47 1030.51 105.385 1028.47 105.077L1028.38 125.339L1026.99 125.569C1025.42 125.839 1025.97 125.61 1025.12 126.051L1023.74 117.649C1023.96 113.914 1023.47 108.405 1022.58 104.761C1021.97 102.264 1020.11 101.35 1018.07 100.005L1020.29 99.2553Z" fill="#696C7B"/>
<path d="M1214.18 228.95L1227.01 235.239C1231.51 237.439 1232.41 238.224 1237.57 237.286L1273.01 296.929L1271.18 300.852L1269.07 304.676C1266.67 304.442 1265.05 304.259 1262.94 302.989C1261.93 295.121 1252.45 286.909 1247.97 280.24C1244.95 275.74 1243.68 270.724 1240.66 266.248C1232.15 253.654 1222.26 241.755 1214.18 228.95Z" fill="#383740"/>
<path d="M1227.01 235.239C1231.51 237.439 1232.41 238.224 1237.57 237.286L1273.01 296.93L1271.18 300.853C1270.27 297.113 1264.58 291.686 1262.42 288.116L1227.01 235.239Z" fill="#4A4C5B"/>
<path d="M1046.59 103.946C1060.31 105.968 1073.54 111.266 1086.25 116.46C1123.76 131.793 1157.61 153.119 1186.98 180.405C1194.76 187.625 1203.24 195.064 1209.7 203.457L1230.08 227.691L1227.53 228.863C1223.17 228.055 1217.44 227.576 1214.22 224.614C1207.08 221.547 1197.29 218.259 1191.22 213.615C1188.98 212.809 1187.3 211.76 1185.38 210.447C1181.51 208.733 1178.38 206.78 1174.98 204.354C1166.81 200.669 1160.37 194.566 1152.63 190.779L1149.77 192.52L1148.19 192.706L1147.58 190.731C1148.24 189.486 1149.41 188.442 1150.37 187.395L1147.39 184.293C1129.1 175.856 1116.19 159.868 1099.36 149.724L1097.39 152.775C1091.78 146.041 1082.75 139.68 1076.04 133.774L1062.22 121.778C1058.2 116.466 1052.28 111.122 1046.68 107.371L1046.59 103.946Z" fill="#4F5365"/>
<path d="M1075.58 128.318L1077.34 126.373C1086.83 131.303 1096.78 134.824 1106.33 139.429C1123.05 147.496 1137.82 156.648 1151.61 168.903C1148.77 168.398 1146.99 167.834 1144.43 166.784L1142.15 166.319L1139.87 165.851L1139.37 167.516L1141.88 169.799L1140.27 170.793L1151.13 182.673C1150.33 182.972 1147.72 183.656 1147.39 184.293C1129.1 175.856 1116.19 159.868 1099.36 149.724C1090.89 144.678 1083.15 134.978 1075.58 128.318Z" fill="url(#paint4_linear_14_5055)"/>
<path d="M1105.32 149.524C1112.26 148.122 1128.67 160.141 1134.57 163.849C1131.5 163.975 1129.04 162.565 1126.6 160.715C1125.07 159.548 1124.2 158.924 1122.29 158.371C1120.94 157.98 1120.33 157.816 1119.14 157.01C1116.95 155.533 1113.67 153.958 1111.11 153.163C1108.67 152.406 1107.29 151.116 1105.32 149.524Z" fill="#313547"/>
<path d="M1141.88 169.799L1139.37 167.516L1139.87 165.851L1142.15 166.319L1144.43 166.785C1146.99 167.835 1148.77 168.399 1151.61 168.903C1168.53 179.621 1180.98 192.907 1195.64 206.004C1202.07 211.748 1208.94 216.14 1214.97 222.43L1214.39 223.975L1214.22 224.615C1207.08 221.547 1197.29 218.259 1191.22 213.615C1188.98 212.809 1187.3 211.76 1185.38 210.447C1181.51 208.733 1178.38 206.78 1174.98 204.354C1166.81 200.669 1160.37 194.566 1152.63 190.779L1149.77 192.52L1148.19 192.706L1147.58 190.731C1148.24 189.486 1149.41 188.443 1150.37 187.395L1147.39 184.293C1147.72 183.656 1150.33 182.972 1151.13 182.673L1140.27 170.793L1141.88 169.799Z" fill="#313547"/>
<path d="M1141.88 169.799C1160.63 182.856 1176.65 194.376 1192 211.175L1191.22 213.616C1188.98 212.809 1187.3 211.76 1185.38 210.447C1181.51 208.733 1178.38 206.78 1174.98 204.354C1166.81 200.669 1160.37 194.566 1152.63 190.779L1149.77 192.52L1148.19 192.706L1147.58 190.731C1148.24 189.486 1149.41 188.443 1150.37 187.395L1147.39 184.293C1147.72 183.657 1150.33 182.972 1151.13 182.673L1140.27 170.793L1141.88 169.799Z" fill="#262533"/>
<path d="M1173.79 197.21C1178.32 200.388 1181.73 203.438 1185.22 207.666L1185.38 210.447C1181.51 208.733 1178.38 206.78 1174.98 204.354C1175.91 202.026 1174.58 199.471 1173.79 197.21Z" fill="#231929"/>
<path d="M1151.13 182.673C1159.3 186.843 1166.24 192.158 1173.79 197.21C1174.58 199.471 1175.91 202.026 1174.98 204.354C1166.81 200.669 1160.37 194.566 1152.63 190.779L1149.77 192.52L1148.19 192.706L1147.58 190.731C1148.24 189.486 1149.41 188.443 1150.37 187.395L1147.39 184.293C1147.72 183.657 1150.33 182.972 1151.13 182.673Z" fill="#100918"/>
<path d="M1046.59 103.946C1060.31 105.968 1073.54 111.266 1086.25 116.46C1123.76 131.793 1157.61 153.119 1186.98 180.405C1194.76 187.625 1203.24 195.064 1209.7 203.457C1202.33 202.208 1194.59 193.114 1189.11 188.296C1179.86 180.168 1170.77 172.222 1160.61 165.14C1145.15 154.355 1127.94 142.543 1110.81 134.506C1093.96 126.598 1077.44 122.081 1061.49 111.997C1064.78 118.62 1069.85 123.578 1075.58 128.318C1083.15 134.979 1090.9 144.678 1099.36 149.724L1097.39 152.775C1091.78 146.041 1082.75 139.68 1076.04 133.774L1062.22 121.778C1058.2 116.466 1052.28 111.122 1046.68 107.371L1046.59 103.946Z" fill="#727C89"/>
<path d="M1038.31 196.568C1052.19 216.555 1069.76 233.639 1087.73 250.177L1090.25 246.723C1134.09 286.844 1192.83 328.504 1256.37 326.813L1257.7 326.776L1260.11 320.074C1263.64 315.644 1266.28 309.624 1269.07 304.676L1271.18 300.853L1273.01 296.93L1276.46 305.221C1273.34 306.438 1271.77 308.25 1270.35 311.281L1270.1 311.918L1266.02 318.758C1262.84 324.637 1260.65 332.354 1256.81 337.605L1257.98 340.547L1265.14 401.015L1267.06 411.884L1207.14 434.194L1194.61 440.297C1194.99 435.167 1196.13 432.639 1199.35 428.564L1200.31 427.371C1185.27 423.804 1170.99 425.834 1155.81 420.31C1153.2 417.843 1150.79 417.124 1147.88 415.259L1149.01 415.198C1150.93 416.766 1152.91 416.115 1155.35 416.042C1146.08 412.501 1137.9 408.463 1129.11 403.999C1126.58 402.508 1123.29 398.501 1120.95 397.838C1117.76 396.936 1114.2 392.458 1111.36 390.779C1107.46 388.48 1104.61 384.502 1100.87 382.379C1094.65 378.837 1086.63 371.945 1082.75 366.023C1081.3 363.811 1077.78 362.438 1076.32 360.226C1073.04 355.22 1067.65 350.962 1063.95 345.875C1062.24 343.529 1060.29 341.493 1058.59 339.194L1054.48 334.155C1052.71 331.477 1048.54 328.162 1047.46 325.536C1046.74 323.758 1047.21 318.688 1047.11 316.583C1046.98 313.675 1045.77 310.978 1045.61 308.485C1045.2 301.615 1046.45 293.349 1043.83 286.899L1043.5 286.165L1043.32 285.872C1042.35 281.862 1042.72 276.535 1042.4 272.36C1041.33 258.451 1041.05 244.525 1040.25 230.606C1039.69 220.949 1037.67 211.324 1037.2 201.68C1037.1 199.545 1037.4 198.469 1038.31 196.568Z" fill="#100918"/>
<path d="M1273.01 296.93L1276.46 305.221C1273.34 306.438 1271.77 308.25 1270.35 311.281L1270.1 311.918L1266.02 318.758C1262.84 324.637 1260.65 332.354 1256.81 337.605C1249.7 347.375 1243.68 357.139 1238.07 367.78L1235.82 369.405L1234.53 366.87L1253.31 334.421L1251.04 332.127C1250.83 330.595 1250.97 329.993 1251.36 328.534C1253.26 328.384 1254.7 328.276 1256.43 327.426L1257.7 326.776L1260.11 320.075C1263.64 315.645 1266.28 309.625 1269.07 304.676L1271.18 300.853L1273.01 296.93Z" fill="#4F5365"/>
<path d="M1234.53 366.87L1235.82 369.404L1238.07 367.779C1233.94 379.802 1224.93 392.94 1218.23 403.96C1212.6 413.22 1206.61 423.072 1207.14 434.194L1194.61 440.296C1194.99 435.167 1196.13 432.639 1199.35 428.564L1200.31 427.371C1185.27 423.804 1170.99 425.834 1155.81 420.31C1153.2 417.843 1150.79 417.124 1147.88 415.259L1149.01 415.198C1150.93 416.766 1152.91 416.115 1155.35 416.042C1170.63 419.612 1185.83 421.051 1201.47 422.36C1214.83 406.351 1220.59 384.236 1233.69 367.888L1234.53 366.87Z" fill="#1A181F"/>
<path d="M1090.25 246.724C1134.09 286.844 1192.83 328.504 1256.37 326.813L1257.7 326.776L1256.43 327.426C1254.7 328.275 1253.26 328.384 1251.36 328.533C1250.97 329.993 1250.83 330.595 1251.04 332.127C1236.93 328.733 1222.79 327.375 1208.61 323.492C1161.48 310.596 1123.17 281.821 1087.73 250.177L1090.25 246.724Z" fill="#313547"/>
<path d="M1238.07 367.78C1243.68 357.139 1249.7 347.375 1256.81 337.605L1257.98 340.547L1265.14 401.015L1267.06 411.885L1207.14 434.194C1206.61 423.072 1212.6 413.22 1218.23 403.961C1224.93 392.94 1233.94 379.802 1238.07 367.78Z" fill="#020206"/>
<path d="M1270.51 411.174C1274.88 409.886 1286.42 405.522 1290 407.594C1293.32 409.509 1293.16 410.939 1293.74 414.316C1298.22 440.303 1301.56 467.439 1302.66 493.791C1303.32 509.405 1301.27 526.674 1304.17 541.97C1303.15 556.181 1303.03 571.592 1299.95 585.499C1294.25 618.648 1283.58 647.864 1272.66 679.563C1271.13 683.992 1269.02 694.409 1266.38 697.768L1264.48 697.253C1256.53 708.249 1249.55 721.303 1240.23 731.169C1237.4 734.165 1223.69 745.556 1223.15 748.336C1205.15 761.567 1188.37 767.532 1165.73 764.844L1163.29 764.488C1157.96 763.297 1153.02 761.631 1148.02 759.462C1116.77 745.874 1094.94 705.201 1083.3 675.253C1080.37 667.698 1076.37 658.643 1075.85 650.627C1075.47 644.916 1077.18 639.076 1077.96 633.44C1080.95 611.906 1085.04 586.045 1094.33 566.201L1094.61 564.98C1097.17 555.335 1101.61 545.828 1105.49 536.62C1115.61 512.646 1129.77 489.746 1149.47 471.951C1163.08 459.65 1178.91 449.874 1194.61 440.297L1207.14 434.194L1267.06 411.884L1270.51 411.174Z" fill="#AE0138"/>
<path d="M1273.07 597.194L1282.65 594.384C1281.4 600.3 1278.93 605.523 1276.95 611.212C1274.53 611.637 1272.15 612.134 1269.69 612.188L1272.38 599.864L1273.07 597.194Z" fill="#B00335"/>
<path d="M1270.51 411.174C1274.88 409.886 1286.42 405.522 1290 407.594C1293.32 409.509 1293.16 410.939 1293.74 414.316C1298.22 440.303 1301.56 467.439 1302.66 493.791C1303.32 509.405 1301.27 526.674 1304.17 541.97C1303.15 556.181 1303.03 571.592 1299.95 585.499C1297.51 583.408 1296.11 583.694 1293.03 583.27C1288.56 576.343 1292.8 561.581 1292.34 553.268L1292.28 552.328L1289.6 548.585L1287.55 477.83C1287.65 472.366 1288.32 467.558 1289.6 462.232L1285.47 424.474L1283.96 426.777L1282.38 426.405L1279.54 423.302C1272.14 424.462 1264.84 427.059 1257.69 429.242C1237.6 435.38 1218.46 443.358 1200 453.152L1195.73 451.847C1167.18 466.187 1144.07 488.077 1128.05 514.917C1124.01 521.689 1119.96 528.352 1117.52 535.842C1116.53 538.898 1114.77 549.995 1112.64 551.425L1111.18 550.107L1112.64 546.651C1113.23 545.268 1113.4 544.304 1113.77 542.901C1115 538.132 1119.53 529.754 1119.4 525.458L1120.37 524.416C1122.25 522.336 1123.17 519.635 1124.78 517.334L1130.13 508.39L1136.31 498.596L1134.3 497.832L1132.64 498.985L1130.01 496.623L1129.47 497.429C1128.11 499.413 1126.47 500.557 1126.54 503.033L1125.57 503.941C1123.61 505.844 1122.72 508.65 1121.16 510.888C1118.82 514.237 1116.49 518.315 1115.02 522.051C1114.68 522.93 1114.35 523.597 1114.07 524.504C1113.63 525.92 1112.38 526.499 1111.54 527.646C1109.99 529.757 1109.67 531.901 1108.94 534.304L1106.32 540.418C1104.81 544.451 1102.88 547.96 1101.62 552.076L1099 558.191L1097.54 561.647C1096.98 562.953 1096.67 564.004 1096.41 565.378L1094.33 566.201L1094.61 564.98C1097.17 555.335 1101.61 545.828 1105.49 536.62C1115.61 512.646 1129.77 489.746 1149.47 471.952C1163.08 459.65 1178.91 449.875 1194.61 440.297L1207.14 434.194L1267.06 411.884L1270.51 411.174Z" fill="url(#paint5_linear_14_5055)"/>
<path d="M1289.6 462.233C1292.33 481.748 1292.98 501.087 1293.09 520.749C1293.15 531.206 1293.65 541.934 1292.28 552.328L1289.6 548.585L1287.55 477.83C1287.65 472.366 1288.32 467.558 1289.6 462.233Z" fill="#AE0024"/>
<path d="M1195.73 451.847C1213.25 441.783 1232.24 433.659 1251.38 426.968C1260.45 423.796 1271.17 421.844 1279.63 417.485C1281.07 416.743 1281.56 416.46 1283.22 416.066L1285.47 424.474L1283.96 426.777L1282.38 426.405L1279.54 423.302C1272.14 424.462 1264.84 427.06 1257.69 429.243C1237.6 435.381 1218.46 443.359 1200 453.152L1195.73 451.847Z" fill="#AE0024"/>
<path d="M1115.56 688.768C1122.98 684.464 1130.04 679.425 1137.58 675.364C1157.07 664.868 1177.54 656.001 1196.72 644.96C1203.59 641.004 1209.93 636.199 1216.71 632.075C1226.62 626.043 1236.91 620.584 1246.83 614.558C1255.15 609.509 1263.06 603.042 1272.38 599.864L1269.69 612.188C1258.86 652.095 1236.59 714.809 1197.92 736.483C1189.5 741.202 1178.66 744.271 1168.97 742.029C1146.94 736.936 1132.33 718.023 1121.86 700.042L1115.56 688.768Z" fill="url(#paint6_linear_14_5055)"/>
<path d="M1200 453.152C1218.46 443.358 1237.6 435.38 1257.69 429.242C1264.84 427.059 1272.14 424.462 1279.54 423.301L1282.38 426.405L1283.96 426.777L1285.47 424.474L1289.6 462.232C1288.32 467.558 1287.65 472.366 1287.55 477.83L1289.6 548.585C1288 564.224 1286.6 579.093 1282.65 594.383L1273.07 597.194L1272.38 599.864C1263.06 603.041 1255.15 609.509 1246.83 614.558C1236.91 620.584 1226.62 626.043 1216.71 632.075C1209.93 636.199 1203.59 641.003 1196.72 644.96C1177.54 656 1157.07 664.868 1137.58 675.364C1130.04 679.425 1122.98 684.464 1115.56 688.767C1110.42 677.77 1101.87 661.211 1100.84 649.243C1100.39 643.968 1102.15 637.446 1103.07 632.223C1104.89 621.85 1106.83 611.562 1109 601.25C1108.35 599.433 1108.03 597.558 1107.66 595.672C1108.49 594.587 1108.74 594.077 1108.97 592.72C1109.45 589.923 1110.24 586.347 1111.22 583.726L1113.77 575.749C1114.13 574.618 1114.27 573.781 1114.79 572.67L1115.32 571.589C1116.08 569.817 1117.09 567.696 1117.3 565.791L1117.36 564.951L1117.88 563.562C1118.36 562.088 1118.98 560.598 1119.42 559.136C1120.37 556.017 1122.22 551.835 1123.76 548.903C1125.13 546.305 1126.87 543.081 1127.6 540.283C1127.93 539.01 1127.65 539.693 1128.3 538.31L1129.92 534.952C1130.52 533.659 1131.07 532.541 1131.85 531.326L1132.58 530.207L1132.54 528.566C1134.54 526.79 1135.02 524.932 1136.2 522.677L1137.35 520.462L1137.87 519.073C1138.7 517.573 1139.44 517.34 1139.76 515.487C1140.12 513.414 1139.71 514.692 1140.48 512.636C1141.61 509.629 1141.6 508.432 1140.8 505.287C1140.07 506.018 1140.32 505.65 1139.86 506.591C1137.83 510.734 1134.69 515.112 1132.17 519.059C1129.94 522.536 1125.83 528.797 1124.74 532.667C1124.15 534.756 1122.78 536.266 1122.36 538.173C1121.96 539.984 1122.38 538.806 1121.5 540.871L1119.27 546.538C1118.47 549.909 1116.95 552.505 1115.62 555.701L1113.08 555.517L1114.11 552.742L1114.62 551.007C1119.73 543.136 1121.77 533.458 1126.36 525.073C1135.88 507.679 1147.73 490.88 1163.13 477.761C1174.15 468.372 1187.56 460.622 1200 453.152Z" fill="url(#paint7_linear_14_5055)"/>
<path d="M1278.84 551.975L1274.95 553.11C1272.43 551.559 1269.62 549.618 1266.64 549.03C1261.61 548.035 1255.99 549.291 1251.2 547.311L1250.39 546.955C1244.71 544.644 1241.89 540.511 1237.03 537.017L1238.13 536.43C1237.3 535.362 1236.46 534.399 1235.97 533.134L1235.73 532.405L1235.13 531.333C1234.61 529.394 1234.85 527.97 1233.82 526.004L1233.3 525.1C1233.55 521.22 1233.4 513.973 1235.91 510.985L1236.65 510.194L1236.6 508.558C1237.93 507.826 1238.23 507.479 1238.99 506.147C1240.29 503.862 1242.02 502.026 1243.55 499.901C1244.71 498.3 1246.59 498.451 1248.41 497.744L1249.8 497.143L1251.53 497.947C1255.91 497.393 1260.29 497.382 1263.76 494.409C1266.28 492.245 1269.19 494.119 1272.01 492.553L1275.07 490.799C1276.43 492.44 1277.39 494.218 1278.41 496.064L1278.84 551.975Z" fill="white"/>
<path d="M1200 453.152C1218.46 443.359 1237.6 435.38 1257.69 429.242C1264.84 427.059 1272.14 424.462 1279.54 423.302L1282.38 426.405L1283.96 426.777L1285.47 424.474L1289.6 462.233C1288.32 467.558 1287.65 472.366 1287.55 477.83L1289.6 548.585C1288 564.224 1286.6 579.093 1282.65 594.384L1273.07 597.194C1276.77 582.249 1277.8 567.252 1278.84 551.975L1278.41 496.064C1276.82 476.235 1276.56 454.529 1272.52 435.113C1226.56 446.335 1168.44 474.708 1143.51 515.165C1126.57 542.654 1118.56 571.016 1109 601.25C1108.35 599.434 1108.03 597.558 1107.66 595.673C1108.49 594.587 1108.74 594.077 1108.97 592.721C1109.45 589.923 1110.24 586.347 1111.22 583.726L1113.77 575.75C1114.14 574.619 1114.27 573.782 1114.79 572.67L1115.32 571.59C1116.08 569.817 1117.09 567.697 1117.3 565.792L1117.36 564.951L1117.88 563.562C1118.36 562.088 1118.98 560.598 1119.42 559.136C1120.37 556.017 1122.22 551.836 1123.76 548.904C1125.13 546.306 1126.87 543.081 1127.6 540.283C1127.93 539.01 1127.65 539.693 1128.3 538.311L1129.92 534.953C1130.52 533.66 1131.07 532.542 1131.85 531.326L1132.58 530.208L1132.54 528.567C1134.54 526.79 1135.02 524.932 1136.2 522.677L1137.35 520.462L1137.87 519.073C1138.7 517.573 1139.44 517.34 1139.76 515.487C1140.12 513.414 1139.71 514.693 1140.48 512.637C1141.61 509.629 1141.6 508.432 1140.8 505.287C1140.07 506.018 1140.32 505.651 1139.86 506.592C1137.83 510.735 1134.69 515.112 1132.17 519.059C1129.94 522.536 1125.83 528.797 1124.74 532.667C1124.15 534.756 1122.78 536.266 1122.36 538.173C1121.96 539.984 1122.38 538.806 1121.5 540.872L1119.27 546.538C1118.47 549.91 1116.95 552.505 1115.62 555.701L1113.08 555.517L1114.11 552.743L1114.62 551.007C1119.73 543.136 1121.77 533.459 1126.36 525.073C1135.88 507.679 1147.73 490.88 1163.13 477.761C1174.15 468.372 1187.56 460.622 1200 453.152Z" fill="url(#paint8_linear_14_5055)"/>
<path d="M1285.47 424.474L1289.6 462.232C1288.32 467.558 1287.65 472.366 1287.55 477.83C1285.56 471.031 1285.55 462.515 1284.67 455.439C1283.56 446.512 1280.56 435.253 1282.38 426.405L1283.96 426.777L1285.47 424.474Z" fill="#B00335"/>
<path d="M763.538 524.867C763.206 491.18 766.745 456.429 773.368 423.341L796.095 427.557L799.497 428.02C826.771 433.269 853.404 439.902 879.267 449.911L886.002 452.575L900.992 459.059L902.003 454.738L905.68 455.329L907.05 453.684C910.939 457.943 913.209 460.192 914.476 465.85C932.688 476.627 952.591 489.132 965.244 506.133C976.421 517.665 985.329 532.516 992.887 546.477C1007.51 573.494 1018.49 601.839 1026.28 631.4C1028.08 638.235 1031.16 647.049 1031.16 654.071C1031.15 655.422 1030.74 656.709 1030.42 658.01C1020.7 697.145 1001.87 738.533 965.694 760.973C946.372 772.958 922.74 775.689 900.597 770.83C893.051 769.175 885.979 766.396 878.767 763.76L874.317 761.513C836.453 738.593 814.654 705.709 794.545 668.181L738.085 668.671C733.892 668.813 722.33 668.103 719.625 670.89L719.032 671.6L718.472 671.586L716.699 669.449L712.463 672.297L709.386 664.361L713.943 663.584C715.08 661.824 716.147 660.231 717.767 658.836L719.026 657.772L719.589 657.2L720.84 659.941C723.024 657.001 724.407 650.929 725.825 647.32L730.179 640.555C735.486 632.982 739.128 623.903 743.15 615.638C750.052 601.449 756.824 587.252 763.632 573.016L765.016 573.461L763.45 555.821L763.538 524.867Z" fill="url(#paint9_linear_14_5055)"/>
<path d="M776.999 582.275L780.96 582.469C783.423 595.465 786.413 607.287 791.091 619.705L790.254 620.829C788.324 617.487 787.822 613.683 785.935 610.575C785.117 609.221 785.02 609.02 784.814 607.325C784.599 605.539 784.822 606.137 784.341 604.875L784.011 604.059L783.334 600.808C782.879 599.467 782.332 599.004 782.175 597.456L782.035 595.925L781.168 595.402C781.019 596.988 780.713 598.129 781.422 599.587C782.489 601.79 781.802 604.051 782.393 606.315C784.187 613.209 787.588 622.976 786.04 630.085L776.999 582.275Z" fill="#B00335"/>
<path d="M730.179 640.555C735.486 632.983 739.128 623.904 743.15 615.638C750.052 601.449 756.824 587.253 763.632 573.016L765.016 573.462C769.505 605.228 778.899 634.298 792.685 663.421L794.545 668.181L738.085 668.672C733.892 668.813 722.33 668.104 719.625 670.891L719.032 671.601L718.472 671.586L716.699 669.45L712.463 672.298L709.386 664.361L713.943 663.585C715.08 661.824 716.147 660.232 717.767 658.836L719.026 657.772L719.589 657.201L720.84 659.941C723.024 657.001 724.407 650.929 725.825 647.32L730.179 640.555Z" fill="#100918"/>
<path d="M730.18 640.555C734.584 645.435 733.912 649.265 734.268 655.647C734.45 658.921 737.413 662.026 739.362 664.574L722.225 664.435L720.701 661.37L720.841 659.941C723.024 657.001 724.407 650.929 725.825 647.32L730.18 640.555Z" fill="#1A181F"/>
<path d="M709.386 664.361L713.943 663.584C715.08 661.824 716.147 660.231 717.767 658.836L719.026 657.772L719.589 657.2L720.84 659.941L720.701 661.37L722.224 664.435L739.362 664.574L792.685 663.42L794.545 668.181L738.085 668.671C733.892 668.813 722.33 668.103 719.625 670.89L719.032 671.601L718.472 671.586L716.7 669.449L712.463 672.298L709.386 664.361Z" fill="#4D4758"/>
<path d="M709.386 664.361L713.943 663.584C715.08 661.824 716.147 660.231 717.767 658.836L719.026 657.772L719.589 657.2L720.84 659.941L720.701 661.37L719.4 665.426C722.634 667.238 728.725 666.21 732.452 666.07C729.081 669.377 721.251 666.052 716.7 669.449L712.463 672.298L709.386 664.361Z" fill="#91929D"/>
<path d="M763.538 524.867C763.206 491.18 766.745 456.429 773.368 423.341L796.095 427.557L799.497 428.02C826.771 433.269 853.404 439.902 879.267 449.911L886.002 452.575L900.992 459.059L902.003 454.738L905.68 455.329L907.05 453.684C910.94 457.943 913.209 460.192 914.476 465.85C932.688 476.627 952.591 489.132 965.244 506.133L964.119 507.15L960.106 504.381C960.003 501.618 952.723 496.5 950.403 494.043C945.46 496.416 945.446 494.407 940.759 493.548C942.247 495.064 943.829 497.142 945.856 497.9C948.335 498.829 950.749 501.743 952.664 503.544L951.708 505.424L975.978 538.332L974.116 539.493C969.679 534.173 965.623 526.088 960.104 521.994L959.867 524.893C955.424 519.052 951.375 512.677 946.328 507.322L944.621 507.103C943.765 505.569 943.527 505.375 941.984 504.461C938.681 505.858 937.808 505.532 934.347 504.718C937.283 507.375 946.7 514.25 947.646 517.066C948.482 519.549 950.585 521.318 952.246 523.271C956.525 528.304 959.869 532.795 960.787 539.334C953.645 529.875 946.693 519.605 938.07 511.354C900.433 475.343 842.884 461.849 793.103 450.406C788.541 490 786.254 528.097 788.871 567.917L787.138 562.897C783.737 555.468 785.182 540.763 784.952 532.313L783.792 531.795L782.133 532.945L780.391 531.374L778.701 531.981C779.033 539.273 780.381 548.015 778.619 555.12L778.399 555.907C777.998 564.215 779.239 574.321 780.96 582.47L776.999 582.275C773.774 562.721 773.855 540.967 773.695 521.137L773.476 522.123C771.258 533.412 773.077 547.178 773.391 558.728C771.395 553.914 772.821 548.238 772.005 543.156L771.416 543.658C770.018 544.814 771.24 543.827 769.775 544.842C768.682 545.597 768.667 546.164 767.891 547.13L765.708 549.4L765.894 550.764L766.362 560.33L765.42 561.438C762.485 549.872 765.106 536.814 763.538 524.867Z" fill="#EC3676"/>
<path d="M773.695 521.137C773.929 493.07 775.144 461.559 782.315 434.339C794.019 437.435 806.184 438.919 817.999 441.683C849.852 449.14 883.499 459.372 911.655 475.792C925.994 484.152 939.124 494.801 951.708 505.424L975.978 538.332L974.116 539.492C969.679 534.173 965.623 526.088 960.104 521.994C955.686 515.873 951.265 509.311 945.816 503.998C934.56 493.024 921.389 485.331 907.491 477.982C869.306 457.789 827.218 447.354 784.896 438.906C779.641 476.962 773.884 517.539 778.399 555.907C777.998 564.215 779.239 574.321 780.96 582.469L776.999 582.275C773.774 562.721 773.855 540.967 773.695 521.137Z" fill="#AE0138"/>
<path d="M763.539 524.867C763.206 491.18 766.745 456.429 773.368 423.341L796.095 427.557L799.497 428.02C826.771 433.269 853.405 439.902 879.267 449.911L886.002 452.575L900.992 459.059L902.003 454.738L905.68 455.329L907.05 453.684C910.94 457.943 913.209 460.192 914.476 465.85C932.688 476.627 952.591 489.132 965.244 506.133L964.119 507.15L960.107 504.381C960.003 501.618 952.723 496.5 950.403 494.043C945.46 496.416 945.446 494.407 940.759 493.548C942.247 495.064 943.829 497.142 945.856 497.9C948.335 498.829 950.749 501.743 952.664 503.544L951.708 505.424C939.124 494.801 925.994 484.152 911.655 475.792C883.499 459.372 849.852 449.14 817.999 441.683C806.184 438.919 794.019 437.435 782.315 434.339C775.144 461.559 773.929 493.07 773.695 521.137L773.476 522.123C771.258 533.412 773.077 547.178 773.391 558.728C771.395 553.914 772.821 548.238 772.005 543.156L771.416 543.658C770.018 544.814 771.24 543.827 769.775 544.842C768.682 545.597 768.667 546.164 767.891 547.13L765.708 549.4L765.894 550.764L766.362 560.33L765.42 561.438C762.485 549.872 765.106 536.814 763.539 524.867Z" fill="#EC3676"/>
<path d="M907.05 453.684C910.94 457.943 913.209 460.192 914.476 465.85L900.992 459.059L902.003 454.738L905.68 455.329L907.05 453.684Z" fill="#231929"/>
<path d="M788.871 567.917C786.254 528.097 788.541 490 793.103 450.406C842.884 461.849 900.433 475.343 938.07 511.354C946.692 519.605 953.645 529.875 960.787 539.334C977.534 567.124 990.307 595.629 999.457 626.61C1002.96 638.465 1007.39 649.742 1003.94 662.021C999.096 679.322 990.795 701.224 978.898 714.881C969.048 730.442 954.387 744.077 935.653 748.45C921.956 751.652 907.597 749.676 894.715 744.634C887.971 741.611 881.108 737.41 875.185 733.041C861.637 723.054 850.333 710.122 840.437 696.807C812.452 659.16 794.975 613.765 788.871 567.917Z" fill="url(#paint10_linear_14_5055)"/>
<path d="M894.715 744.634L897.77 743.679L898.942 743.022L901.241 744.039C903.401 744.882 901.969 744.132 903.917 745.217L904.982 745.828L906.67 745.501C908.054 746.017 909.235 746.486 910.727 746.62L911.808 746.686C916.155 747.364 919.948 747.146 924.29 747.353C926.741 747.468 925.187 747.726 927.03 747.416C928.955 747.094 930.523 746.727 932.491 747.037L933.915 747.291L934.991 745.622L937.839 746.06L939.48 744.372L942.886 744.518C945.649 741.482 947.279 740.751 947.145 736.433L948.803 735.56C949.967 733.762 951.478 732.595 953.191 731.302L954.882 731.238L955.601 730.465C958.292 727.695 960.777 728.308 964.406 728.183C966.478 726.704 969.417 724.666 970.722 722.485C972.329 719.8 975.013 717.903 976.255 715.407L976.754 714.325L978.898 714.882C969.048 730.443 954.387 744.078 935.654 748.451C921.956 751.652 907.597 749.677 894.715 744.634Z" fill="white"/>
<path d="M1039.19 295.405L1039.88 295.129C1039.74 286.354 1038.42 278.813 1038.12 270.1L1039.85 271.125C1040.18 272.126 1040.47 272.792 1041.11 273.661C1043.61 277.037 1041.41 289.632 1042.93 294.771L1043.5 286.165L1043.83 286.9C1046.45 293.35 1045.2 301.615 1045.61 308.485C1045.77 310.978 1046.98 313.675 1047.11 316.583C1047.21 318.688 1046.74 323.758 1047.46 325.536C1048.54 328.162 1052.71 331.478 1054.48 334.156L1058.59 339.195C1060.29 341.494 1062.24 343.529 1063.95 345.876C1067.65 350.962 1073.04 355.22 1076.32 360.226C1077.78 362.438 1081.3 363.811 1082.75 366.024C1086.63 371.945 1094.65 378.837 1100.87 382.379C1104.61 384.502 1107.46 388.48 1111.36 390.779C1114.2 392.459 1117.76 396.936 1120.95 397.838C1123.29 398.501 1126.58 402.508 1129.11 404C1137.9 408.463 1146.08 412.501 1155.35 416.042C1152.91 416.115 1150.93 416.766 1149.01 415.198L1147.88 415.259C1150.79 417.124 1153.2 417.843 1155.81 420.31C1170.99 425.834 1185.27 423.804 1200.31 427.371L1199.35 428.565C1196.13 432.639 1194.99 435.168 1194.61 440.297C1178.91 449.875 1163.08 459.651 1149.47 471.952C1129.77 489.747 1115.61 512.646 1105.49 536.62C1101.61 545.828 1097.17 555.336 1094.61 564.98L1094.33 566.201C1085.04 586.046 1080.95 611.906 1077.96 633.44C1077.18 639.077 1075.47 644.916 1075.85 650.627C1076.37 658.644 1080.37 667.698 1083.3 675.253C1094.94 705.201 1116.77 745.874 1148.02 759.463C1153.02 761.632 1157.96 763.298 1163.29 764.488L1165.73 764.844C1188.37 767.533 1205.15 761.568 1223.15 748.336L1225.38 750.401C1224.43 758.813 1221.53 767.308 1219.74 775.632C1217.93 783.98 1216.92 792.745 1216.18 801.236C1215.75 806.215 1214.71 811.538 1216.89 816.189L1221.06 819.816L1205.18 856.155C1201.9 863.419 1198.95 871.85 1194.85 878.657L1190.47 877.336C1185.67 879.637 1181.01 881.692 1175.81 882.984C1171.85 883.967 1167.49 884.238 1163.69 885.697C1158.66 887.628 1153.48 891.383 1148.87 894.18C1129.5 905.933 1114.09 918.994 1099.47 935.983C1090.95 945.656 1083.49 956.061 1075.08 965.792C1073.12 968.051 1066.9 972.855 1066.01 975.282C1065.56 976.509 1066.03 979.974 1066.04 981.373C1066.06 986.987 1067.72 1008.8 1063.66 1012.26L1061.68 1011.73C1060.39 1001.77 1061.61 991.477 1060.93 981.439C1060.82 979.811 1061 975.194 1060.28 973.837C1059.17 971.722 1055.13 968.668 1053.29 966.83C1045.52 959.341 1039.13 950.627 1031.25 943.183C1008.59 921.797 977.267 904.665 945.451 901.224C931.807 899.748 915.766 902.156 902.8 898.969L901.79 898.698L891.726 910.653L893.894 904.994L894.245 904.155L891.655 904.034C891.6 902.281 896.09 898.353 896.612 896.336C897.331 893.556 896.336 887.555 896.234 884.441C895.658 866.921 894.739 849.317 892.222 831.947C889.761 814.954 885.621 798.025 880.849 781.518C878.986 775.075 875.482 768.905 874.433 762.337L874.318 761.514L878.767 763.76C885.979 766.397 893.051 769.175 900.597 770.83C922.74 775.689 946.373 772.958 965.694 760.974C1001.87 738.533 1020.7 697.145 1030.42 658.01C1030.74 656.709 1031.15 655.423 1031.16 654.071C1031.16 647.049 1028.08 638.235 1026.28 631.401C1018.49 601.839 1007.51 573.494 992.887 546.477C985.329 532.516 976.421 517.665 965.244 506.133C952.591 489.132 932.688 476.627 914.477 465.85C913.209 460.192 910.94 457.943 907.05 453.684L905.68 455.329L902.003 454.738L900.992 459.059L886.002 452.575L879.268 449.911L880.453 448.872C881.281 443.535 880.372 431.781 878.155 426.839C875.844 421.693 871.672 416.749 868.644 411.922L869.939 411.715L869.401 410.413C867.974 407.118 864.754 404.605 862.832 401.514L861.952 400.449L861.914 399.356C863.447 400.176 864.424 400.246 865.095 401.809C865.729 403.282 866.609 404.003 867.737 405.094C868.471 405.803 868.914 406.536 869.55 407.305C873.676 412.287 877.045 417.929 882.502 421.644L883.938 421.678C886.204 421.799 884.96 421.609 886.552 422.208C891.275 423.977 903.094 421.969 908.545 421.709L907.819 420.921C911.554 418.006 916.266 420.025 920.332 418.293C923.062 417.131 926.879 416.848 929.885 416.226C935.228 415.123 940.156 413.052 945.427 411.795C946.891 411.447 947.994 411.137 949.372 410.493L957.778 407.137L960.119 405.977C961.931 405.3 962.973 405.239 964.583 404.079C965.709 403.267 966.409 402.817 967.738 402.247C969.244 401.598 968.697 401.973 969.815 401.189C974.331 398.017 978.898 395.508 983.118 391.844L985.054 390.202C990.726 386.416 994.983 380.212 1000.44 376.531C1009.05 370.726 1019.43 359.097 1024.48 350.508C1027.19 345.887 1032.23 341.288 1035.32 336.447C1036.39 334.761 1037.7 333.015 1038.28 331.111L1038.5 330.315C1041.96 322.829 1038.13 305.41 1039.06 296.522L1039.19 295.405Z" fill="url(#paint11_linear_14_5055)"/>
<path d="M945.761 826.805C948.856 820.349 953.675 814.465 957.537 808.4L957.904 810.798L957.091 811.852L953.859 816.687L954.736 817.478L956.651 815.495L957.406 816.565C955.454 819.573 951.062 828.439 948.398 830.154L945.761 826.805Z" fill="#100918"/>
<path d="M1176.15 821.246L1165.92 806.651L1168.71 806.555C1168.15 805.243 1167.7 804.112 1166.8 802.977C1165.25 801.023 1164.3 798.818 1162.59 796.963C1161.1 795.346 1161.31 794.204 1161.02 792.117L1180.07 818.667L1176.15 821.246Z" fill="#100918"/>
<path d="M1129.11 403.999C1137.9 408.463 1146.09 412.501 1155.35 416.042C1152.91 416.115 1150.93 416.766 1149.01 415.198L1147.88 415.259C1150.79 417.124 1153.2 417.843 1155.81 420.31C1146 417.6 1137.33 412.934 1128.41 408.253C1130.53 407.948 1130.95 407.905 1132.93 408.645C1132.87 406.867 1130.14 406.305 1129.11 403.999Z" fill="#231929"/>
<path d="M945.761 826.805L948.399 830.154C944.098 836.461 939.753 842.733 935.381 848.992C934.168 850.729 931.914 854.987 930.292 856.138L927.408 852.549C928.156 850.09 930.863 847.103 932.357 844.936C936.643 838.725 940.869 832.594 945.761 826.805Z" fill="#1A181F"/>
<path d="M1176.15 821.246L1180.07 818.667C1185.96 826.812 1191.9 834.934 1197.21 843.45C1199.73 847.49 1202.42 851.125 1202.47 856.004C1201.5 855.681 1200.46 855.53 1199.57 855.039C1197.59 853.946 1194.73 847.76 1193.35 845.567C1188.04 837.166 1182.25 829.124 1176.15 821.246Z" fill="#1A181F"/>
<path d="M1095.13 935.852C1100.03 929.141 1106.09 923.191 1111.92 917.232C1124.71 904.158 1144.09 890.436 1161.09 882.916C1165.81 880.828 1170.85 879.791 1175.7 878.062C1181.06 876.151 1186.14 873.319 1191.95 873.161L1192.9 874.709L1190.47 877.336C1185.67 879.637 1181.01 881.692 1175.81 882.984C1171.85 883.967 1167.49 884.237 1163.69 885.697C1158.66 887.627 1153.48 891.383 1148.87 894.179C1129.5 905.933 1114.09 918.994 1099.47 935.983L1095.13 935.852Z" fill="#1A181F"/>
<path d="M868.644 411.922L869.939 411.715C873.622 416.202 876.661 420.426 879.24 425.588L879.737 426.406C881.164 429.345 879.891 433.05 881.318 436.191C883.254 440.453 880.173 446.048 884.282 448.684C884.296 444.532 883.282 436.488 885.162 433.048C884.53 430.457 883.24 427.925 884.615 425.408L885.971 423.713C901.975 423.163 918.936 423.476 933.939 418.777C935.56 418.27 936.916 418.664 938.594 417.899C940.11 417.208 941.382 417.509 943.025 417.643C925.166 423.365 905.835 425.469 887.101 425.183L907.05 453.684L905.68 455.329L902.003 454.738L900.992 459.059L886.002 452.575L879.267 449.911L880.452 448.872C881.281 443.534 880.372 431.78 878.155 426.839C875.844 421.693 871.672 416.748 868.644 411.922Z" fill="#1A181F"/>
<path d="M886.002 452.575L886.472 433.536C890.949 442.223 895.841 447.395 902.003 454.738L900.992 459.059L886.002 452.575Z" fill="#100918"/>
<path d="M901.791 898.698C902.992 896.702 903.313 896.274 903.325 894L904.791 894.549C909.365 896.116 917.176 894.855 922.087 894.742C928.423 894.597 934.43 895.141 940.713 895.825C976.409 899.707 1006.5 913.938 1032.53 937.81C1041.39 945.937 1049.07 955.157 1057.42 963.759C1055.64 964.795 1054.68 965.299 1053.29 966.83C1045.52 959.341 1039.13 950.626 1031.25 943.183C1008.59 921.797 977.267 904.665 945.451 901.224C931.807 899.748 915.766 902.155 902.8 898.968L901.791 898.698Z" fill="#1A181F"/>
<path d="M874.318 761.513L878.767 763.76C884.742 774.675 887.523 786.499 890.435 798.467C895.501 819.298 898.738 839.314 900.975 860.598C901.737 867.835 900.979 879.172 903.2 885.914L927.408 852.548L930.292 856.138L903.325 894C903.313 896.274 902.992 896.702 901.79 898.697L891.726 910.652L893.894 904.993L894.245 904.154L891.655 904.033C891.6 902.28 896.09 898.353 896.612 896.336C897.331 893.556 896.336 887.554 896.234 884.44C895.658 866.92 894.739 849.316 892.222 831.947C889.761 814.954 885.621 798.024 880.848 781.517C878.986 775.075 875.482 768.905 874.433 762.336L874.318 761.513Z" fill="#262533"/>
<path d="M1057.42 963.758L1060.32 965.391C1062.48 956.161 1061.27 944.143 1061.39 934.521C1061.71 908.739 1061.96 882.713 1061.52 856.946C1061.42 851.108 1059.08 840.373 1060.97 835.175C1066.37 837.221 1061.27 851.679 1065.04 855.02C1064.73 847.131 1063.24 837.559 1064.74 829.854L1065.9 830.899L1066.68 969.234L1095.13 935.852L1099.47 935.983C1090.95 945.656 1083.49 956.06 1075.08 965.791C1073.12 968.051 1066.9 972.854 1066.01 975.282C1065.56 976.508 1066.03 979.973 1066.04 981.372C1066.06 986.986 1067.72 1008.8 1063.66 1012.26L1061.68 1011.72C1060.39 1001.77 1061.61 991.476 1060.93 981.438C1060.82 979.811 1061 975.193 1060.28 973.836C1059.17 971.721 1055.13 968.667 1053.29 966.83C1054.68 965.299 1055.64 964.795 1057.42 963.758Z" fill="url(#paint12_linear_14_5055)"/>
<path d="M1223.15 748.336L1225.38 750.401C1224.43 758.813 1221.53 767.308 1219.74 775.631C1217.93 783.98 1216.92 792.744 1216.18 801.236C1215.75 806.215 1214.71 811.538 1216.89 816.189L1221.06 819.816L1205.18 856.155L1202.47 856.004C1202.42 851.126 1199.73 847.49 1197.21 843.45C1191.9 834.934 1185.96 826.813 1180.07 818.667L1161.02 792.117C1158.39 783.996 1151.79 774.336 1147.11 767.13L1163.29 764.488L1165.73 764.844C1188.37 767.533 1205.15 761.568 1223.15 748.336Z" fill="#020206"/>
<path d="M1590.47 472.996C1587.53 472.102 1584.19 471.192 1581.07 470.9C1568.53 469.719 1558.67 477.424 1549.89 483.36C1547.26 483.668 1543.09 484.58 1540.51 484.214C1535.08 483.438 1528 476.983 1522.17 475.042C1514.08 472.347 1503.58 473.473 1496.64 477.599C1492.62 479.991 1488.66 483.75 1484.31 485.603C1481.03 486.998 1476.86 486.267 1473.59 487.647C1471.49 488.537 1470.35 489.837 1469.88 491.761C1469.37 493.886 1470.6 495.658 1472.09 497.307C1473.79 497.968 1475.45 498.496 1477.34 498.643C1487.93 499.456 1496.1 493.731 1503.5 488.465C1516.41 480.194 1525.65 493.518 1538.39 495.535C1550.23 497.41 1556.88 494.677 1565.69 488.604C1569.34 486.089 1573.29 483.129 1578.33 482.905C1584.64 482.624 1591.38 487.851 1596.63 490.41C1601.17 492.619 1606.23 493.615 1611.45 493.497C1615.28 493.41 1621.26 492.829 1623.78 490.297C1625.97 488.101 1625.57 486.444 1625.01 483.889C1623.93 482.775 1622.72 481.266 1621.13 480.639C1618.38 479.548 1612.47 481.811 1609.54 482.523L1590.47 472.996Z" fill="#B10028"/>
<path d="M1528.13 237.853C1525 238.154 1521.49 238.59 1518.45 239.497C1506.26 243.135 1500.49 253.735 1494.95 262.342C1492.64 263.605 1489.16 265.983 1486.6 266.619C1481.2 267.958 1471.76 264.824 1465.47 265.268C1456.75 265.885 1447.47 270.828 1442.84 277.124C1440.16 280.773 1438.14 285.625 1434.91 288.916C1432.47 291.393 1428.27 292.3 1425.84 294.761C1424.28 296.346 1423.79 297.939 1424.21 299.838C1424.67 301.934 1426.6 303.06 1428.71 303.983C1430.59 303.938 1432.37 303.79 1434.19 303.214C1444.41 299.975 1449.48 291.785 1454.04 284.292C1462.39 272.045 1476.89 280.526 1489.64 277.562C1501.49 274.806 1506.46 269.869 1511.98 261.126C1514.26 257.505 1516.63 253.373 1521.22 251.284C1526.97 248.667 1535.55 250.829 1541.58 251.155C1546.78 251.435 1551.92 250.434 1556.73 248.372C1560.26 246.861 1565.57 244.099 1566.8 240.885C1567.86 238.096 1566.76 236.761 1565.1 234.681C1563.61 234.085 1561.81 233.189 1560.06 233.22C1557.01 233.274 1552.51 237.517 1550.1 239.25L1528.13 237.853Z" fill="#B10028"/>
<path d="M1384.42 57.2002C1382.05 59.1825 1379.46 61.4822 1377.57 63.8749C1369.97 73.488 1372.25 84.8625 1373.39 94.5752C1372.33 96.8405 1371.05 100.613 1369.37 102.531C1365.83 106.579 1356.01 109.45 1351.15 113.306C1344.39 118.658 1340.05 127.645 1340.42 135.073C1340.63 139.378 1342.18 144.239 1341.7 148.573C1341.35 151.837 1338.5 154.885 1338.13 158.136C1337.9 160.227 1338.55 161.725 1340.15 162.95C1341.91 164.301 1344.24 164.089 1346.58 163.619C1348.09 162.534 1349.45 161.426 1350.57 159.964C1356.81 151.762 1355.55 142.633 1354.34 134.324C1353.09 120.24 1370.59 118.654 1379.09 109.249C1386.99 100.502 1387.81 93.927 1386.55 84.1237C1386.03 80.0643 1385.24 75.5644 1387.62 71.3926C1390.61 66.1641 1399.08 63.0276 1404.24 59.9105C1408.69 57.218 1412.25 53.5721 1414.83 49.2975C1416.72 46.1662 1419.25 41.0739 1418.14 37.9167C1417.17 35.1776 1415.38 34.7687 1412.65 34.0956C1411.03 34.4726 1408.96 34.7898 1407.54 35.7933C1405.08 37.5371 1404.19 43.3166 1403.36 45.9931L1384.42 57.2002Z" fill="#B10028"/>
</g>
<defs>
<linearGradient id="paint0_linear_14_5055" x1="686.919" y1="514.334" x2="644.888" y2="500.629" gradientUnits="userSpaceOnUse">
<stop stop-color="#1B1628"/>
<stop offset="1" stop-color="#33384B"/>
</linearGradient>
<linearGradient id="paint1_linear_14_5055" x1="727.185" y1="631.211" x2="545.614" y2="445.546" gradientUnits="userSpaceOnUse">
<stop stop-color="#0F0717"/>
<stop offset="1" stop-color="#292D41"/>
</linearGradient>
<linearGradient id="paint2_linear_14_5055" x1="936.001" y1="281.28" x2="870.714" y2="171.124" gradientUnits="userSpaceOnUse">
<stop stop-color="#161022"/>
<stop offset="1" stop-color="#2F364B"/>
</linearGradient>
<linearGradient id="paint3_linear_14_5055" x1="1254.64" y1="325.068" x2="1189.25" y2="83.3634" gradientUnits="userSpaceOnUse">
<stop stop-color="#08000B"/>
<stop offset="1" stop-color="#222135"/>
</linearGradient>
<linearGradient id="paint4_linear_14_5055" x1="1147.82" y1="183.103" x2="1155.39" y2="165.957" gradientUnits="userSpaceOnUse">
<stop stop-color="#171225"/>
<stop offset="1" stop-color="#38374B"/>
</linearGradient>
<linearGradient id="paint5_linear_14_5055" x1="1132.6" y1="497.902" x2="1200.83" y2="365.103" gradientUnits="userSpaceOnUse">
<stop stop-color="#E0144C"/>
<stop offset="1" stop-color="#EF4C7D"/>
</linearGradient>
<linearGradient id="paint6_linear_14_5055" x1="1155.44" y1="733.644" x2="1241.24" y2="587.641" gradientUnits="userSpaceOnUse">
<stop stop-color="white"/>
<stop offset="1" stop-color="white"/>
</linearGradient>
<linearGradient id="paint7_linear_14_5055" x1="1116.37" y1="684.616" x2="1311.11" y2="475.793" gradientUnits="userSpaceOnUse">
<stop stop-color="white"/>
<stop offset="1" stop-color="white"/>
</linearGradient>
<linearGradient id="paint8_linear_14_5055" x1="1141.09" y1="514.037" x2="1236.07" y2="392.831" gradientUnits="userSpaceOnUse">
<stop stop-color="#DF0D4D"/>
<stop offset="1" stop-color="#EC4173"/>
</linearGradient>
<linearGradient id="paint9_linear_14_5055" x1="948.187" y1="767.056" x2="849.445" y2="504.815" gradientUnits="userSpaceOnUse">
<stop stop-color="#C40033"/>
<stop offset="1" stop-color="#DE165F"/>
</linearGradient>
<linearGradient id="paint10_linear_14_5055" x1="942.87" y1="744.244" x2="849.411" y2="437.326" gradientUnits="userSpaceOnUse">
<stop stop-color="white"/>
<stop offset="1" stop-color="white"/>
</linearGradient>
<linearGradient id="paint11_linear_14_5055" x1="1195.32" y1="872.437" x2="740.568" y2="611.077" gradientUnits="userSpaceOnUse">
<stop stop-color="#010004"/>
<stop offset="1" stop-color="#170C25"/>
</linearGradient>
<linearGradient id="paint12_linear_14_5055" x1="1063.38" y1="856.17" x2="989.161" y2="922.861" gradientUnits="userSpaceOnUse">
<stop stop-color="#0E0F1A"/>
<stop offset="1" stop-color="#333235"/>
</linearGradient>
<clipPath id="clip0_14_5055">
<rect width="1920" height="1080" fill="white"/>
</clipPath>
</defs>
</svg>
