<svg width="1928" height="1088" viewBox="0 0 1928 1088" fill="none" xmlns="http://www.w3.org/2000/svg">
<g clip-path="url(#clip0_14_5177)" filter="url(#filter0_d_14_5177)">
<path d="M1064.54 111.997C1076.72 116.106 1092.44 121.148 1102.92 128.587C1092.8 128.393 1082.92 120.762 1072.23 121.539L1069.96 121.677C1069.13 118.319 1066.4 114.931 1064.54 111.997Z" fill="#757E8D"/>
<path d="M1042.15 105.2C1049.89 106.945 1057.11 109.05 1064.5 111.889L1064.54 111.997C1066.4 114.931 1069.13 118.319 1069.96 121.677L1068 121.913C1069.4 126.164 1086.04 140.84 1090.5 143.518L1091.27 143.709L1095.26 147.245C1093.71 147.952 1092.34 148.507 1090.66 148.877L1081.06 140.265C1076.71 135.264 1070.55 130.857 1065.51 126.486C1063.33 123.882 1058.2 117.311 1054.97 116.351C1052.16 115.516 1050.28 112.123 1047.43 110.804L1046.24 110.291C1045.74 108.326 1044.3 107.259 1042.88 105.891L1042.15 105.2Z" fill="#6B7081"/>
<path d="M1072.23 121.539C1082.92 120.762 1092.8 128.393 1102.92 128.587C1131.33 141.912 1157.89 162.051 1180.69 183.17C1187.31 189.296 1195.28 196.265 1200.48 203.6C1195.25 201.996 1190.94 198.089 1186.67 194.869C1172.63 184.298 1160.66 171.169 1145.1 162.547C1138.71 159.42 1133.07 154.518 1127.11 150.645C1118.92 145.331 1110.15 140.572 1101.56 135.904C1095.74 132.742 1089.77 129.631 1083.68 126.986C1079.67 125.245 1075.62 124.393 1072.23 121.539Z" fill="#6B7081"/>
<path d="M713.899 235.315C717.783 236.588 720.195 236.798 722.362 240.551L722.705 241.325L722.659 242.354C720.384 244.022 719.788 244.829 718.746 247.409C716.894 251.976 713.126 254.607 710.239 258.476C702.81 268.437 696.202 280.219 690.268 291.141C688.335 294.694 685.539 298.183 684.787 302.157C683.1 304.22 681.662 305.726 680.867 308.25L671.742 327.233L666.242 340.803C663.459 346.677 662.494 352.662 659.387 358.476L660.162 353.798C661.054 349.311 660.03 346.221 658.824 341.896L662.854 331.14C672.237 297.583 693.219 263.299 713.899 235.315Z" fill="#757E8D"/>
<path d="M662.854 331.14C666.06 328.305 667.301 325.063 669.515 321.583L679.951 301.475C684.58 293.932 689.355 286.74 693.933 279.182C696.715 274.591 699.505 269.5 702.52 265.113L704.139 262.765C707.072 256.561 714.512 251.884 717.067 245.522C717.575 244.257 717.786 243.72 718.682 242.552C719.815 241.072 720.931 241.499 722.705 241.325L722.658 242.354C720.383 244.022 719.787 244.829 718.745 247.409C716.893 251.976 713.126 254.607 710.239 258.475C702.81 268.437 696.202 280.219 690.267 291.141C688.334 294.694 685.538 298.183 684.787 302.156C683.1 304.219 681.662 305.726 680.867 308.25L671.742 327.233L666.242 340.803C663.459 346.677 662.493 352.662 659.386 358.476L660.162 353.798C661.054 349.311 660.03 346.221 658.824 341.896L662.854 331.14Z" fill="#787F8C"/>
<path d="M659.386 358.476C662.494 352.662 663.459 346.677 666.242 340.803L671.742 327.233L680.867 308.25C681.662 305.726 683.1 304.22 684.787 302.157L684.532 303.292C682.325 312.615 677.466 319.673 674.168 328.263C668.698 342.5 664.151 358.029 659.615 372.63C650.949 400.511 649.47 431.778 648.929 460.75C648.821 466.614 650.139 472.525 649.891 478.349L648.168 484.055C646.489 489.637 650.339 504.377 647.352 507.637L646.294 523.691C643.737 514.393 643.128 504.324 642.261 494.761C639.964 469.323 640.573 444.999 642.438 419.527C644.646 392.926 650.878 367.378 658.824 341.896C660.03 346.221 661.054 349.311 660.162 353.798L659.386 358.476Z" fill="#6B7081"/>
<path d="M658.824 341.896C660.03 346.222 661.054 349.311 660.162 353.798L659.386 358.476C657.738 363.254 655.525 368.796 654.863 373.792C654.631 375.549 654.046 376.701 653.615 378.361C652.566 382.398 651.353 386.887 650.766 391.003L650.112 395.37L648.963 401.321L648.398 401.917L647.796 395.693C647.787 398.693 647.672 405.083 645.748 407.164L645.879 408.169C646.358 412.959 644.764 415.556 642.438 419.527C644.646 392.926 650.878 367.379 658.824 341.896Z" fill="#757E8D"/>
<path d="M1261.63 341.393C1263.42 335.675 1266.28 329.608 1269.65 324.612C1270.63 323.164 1274.77 322.906 1276.63 322.553C1288.43 353.107 1297.85 384.453 1302.53 416.896C1301.79 417.635 1302.24 417.26 1301.13 417.95C1300.37 415.731 1299.28 413.794 1298.14 411.751C1291.94 410.761 1283.12 414.434 1277.03 416.109L1273.33 417.186C1270.35 411.128 1269.57 402.311 1268.47 395.621C1265.83 379.553 1263.64 363.546 1262.63 347.291L1259.49 347.507L1261.63 341.393Z" fill="url(#paint0_linear_14_5177)"/>
<path d="M1262.63 347.291L1264.37 345.126C1270.91 368.171 1270.23 392.99 1277.03 416.109L1273.33 417.185C1270.35 411.128 1269.57 402.311 1268.47 395.621C1265.83 379.552 1263.64 363.546 1262.63 347.291Z" fill="#3B3D4D"/>
<path d="M722.658 242.354L724.247 244.246L725.829 249.417C725.725 250.839 725.724 256.417 724.926 257.229L722.992 256.695L722.688 257.74C719.678 265.536 712.631 272.279 709.518 280.63C709.109 281.726 708.666 282.078 708.049 283.013C705.734 286.536 705.172 291.25 702.866 295.195L702.145 295.411C700.834 295.916 699.964 296.772 698.92 297.665C699.843 298.494 699.279 298.104 700.693 298.725L697.935 301.124L696.127 300.089L695.974 300.824C695.625 302.052 694.966 302.839 694.207 303.842C687.372 318.847 679.56 333.418 673.976 348.93C668.7 363.585 665.558 378.977 662.535 394.185C659.963 407.127 656.619 420.28 655.251 433.389C652.869 456.232 654.614 479.847 656.557 502.632C657.845 517.721 660.041 531.773 662.984 546.593C664.232 552.877 665.009 559.955 667.102 566.001C667.711 567.762 668.075 568.314 669.519 569.402L670.983 566.989C672.296 568.119 672.951 568.734 673.843 570.245L672.828 573.421C670.892 576.738 665.631 585.572 665.529 589.024C665.454 591.44 666.937 595.582 667.509 598.02C668.741 603.278 668.579 608.44 668.501 613.805C663.946 602.947 661.212 590.961 658.282 579.594C653.547 561.214 649.064 542.461 646.294 523.691L647.352 507.637C650.338 504.377 646.489 489.637 648.168 484.055L649.891 478.349C650.139 472.525 648.82 466.614 648.929 460.75C649.47 431.778 650.948 400.511 659.615 372.63C664.15 358.029 668.698 342.5 674.168 328.262C677.465 319.673 682.325 312.615 684.532 303.292L684.787 302.156C685.538 298.183 688.334 294.694 690.267 291.141C696.202 280.219 702.81 268.437 710.239 258.475C713.126 254.607 716.893 251.976 718.745 247.409C719.787 244.829 720.383 244.022 722.658 242.354Z" fill="#565769"/>
<path d="M646.294 523.691L647.353 507.637C650.339 504.377 646.489 489.638 648.168 484.055L649.891 478.349C650.563 492.303 650.468 506.761 652.187 520.622C653.409 530.447 656.198 539.978 657.891 549.715C659.81 560.741 661.061 570.806 665.084 581.374L669.519 569.402L670.983 566.99C672.296 568.119 672.952 568.734 673.843 570.246L672.828 573.421C670.892 576.738 665.632 585.573 665.529 589.025C665.455 591.44 666.937 595.583 667.509 598.02C668.741 603.278 668.579 608.441 668.501 613.805C663.947 602.947 661.212 590.962 658.282 579.594C653.547 561.214 649.064 542.461 646.294 523.691Z" fill="#5A5B6D"/>
<path d="M1069.96 121.677L1072.23 121.539C1075.62 124.393 1079.67 125.245 1083.68 126.986C1089.77 129.631 1095.74 132.742 1101.56 135.904C1110.15 140.572 1118.92 145.331 1127.11 150.645C1133.07 154.518 1138.71 159.42 1145.1 162.547C1160.66 171.169 1172.63 184.298 1186.67 194.869C1190.94 198.089 1195.25 201.996 1200.48 203.6L1226.45 233.925L1222.24 236.048C1218.59 235.895 1216.79 234.2 1214 232.048C1210.62 231.402 1207.21 229.485 1204.05 228.106L1197.4 224.477L1189.01 219.458C1177.7 214.089 1167.42 206.573 1157.1 199.578C1133.95 183.89 1111.95 166.907 1090.66 148.876C1092.34 148.507 1093.71 147.952 1095.26 147.245L1091.27 143.709L1090.5 143.518C1086.04 140.84 1069.4 126.164 1068 121.912L1069.96 121.677Z" fill="#5A5B6D"/>
<path d="M1091.27 143.709C1092.03 143.592 1094.33 142.97 1094.95 143.136C1098.48 144.076 1103.02 147.092 1106.35 148.754C1115.06 153.108 1124.39 157.521 1132.35 163.115C1144.39 171.577 1158.56 180.912 1169.32 190.791C1175.2 196.198 1179.74 203.733 1186.11 208.507C1190.85 212.056 1196.52 214.46 1201.41 217.998L1204.84 221.597L1204.12 222.341C1200.88 221.14 1198.25 219.85 1195.43 217.88C1167.35 203.776 1140.87 185.324 1117.04 165.103C1114.99 164.293 1112.67 161.673 1110.98 160.223C1105.82 155.802 1100.74 151.285 1095.26 147.245L1091.27 143.709Z" fill="#2F2C3F"/>
<path d="M1117.04 165.103L1118.9 164.151C1142.18 176.534 1161.77 195.174 1183.71 209.449L1184.67 210.084C1188.58 212.635 1192.29 213.859 1195.93 217.023L1195.43 217.88C1167.35 203.776 1140.87 185.324 1117.04 165.103Z" fill="#252132"/>
<path d="M1069.96 121.677L1072.23 121.539C1075.62 124.393 1079.67 125.245 1083.68 126.986C1089.77 129.631 1095.74 132.742 1101.56 135.904C1110.15 140.572 1118.92 145.331 1127.11 150.645C1133.07 154.518 1138.71 159.42 1145.1 162.547C1156.27 175.134 1170.69 185.713 1183.41 196.84C1188.28 201.1 1194.2 205.351 1197.71 210.601L1198.59 211.549C1199.96 213.164 1200.29 214.721 1200.94 216.654L1201.41 217.998C1196.52 214.46 1190.85 212.055 1186.11 208.507C1179.74 203.733 1175.2 196.198 1169.32 190.791C1158.56 180.912 1144.39 171.577 1132.35 163.115C1124.39 157.521 1115.06 153.108 1106.35 148.754C1103.02 147.092 1098.48 144.075 1094.95 143.136C1094.33 142.97 1092.03 143.592 1091.27 143.709L1090.5 143.518C1086.04 140.84 1069.4 126.164 1068 121.912L1069.96 121.677Z" fill="#565769"/>
<path d="M928.373 98.3584C942.277 96.1591 960.617 93.2096 974.387 95.3161C975.828 97.7566 976.896 97.9849 978.288 99.5203C978.745 100.021 978.345 102.522 978.765 103.187C979.386 104.171 982.315 105.853 983.381 106.643C974.964 106.34 966.612 106.889 958.209 107.334C956.277 107.434 951.914 107.107 950.234 107.762C947.112 108.984 943.712 109.586 940.496 110.528C938.268 111.178 935.233 110.389 932.97 111.123C927.508 112.896 919.143 114.031 913.371 114.191C910.649 116.129 909.211 114.756 906.472 115.67C902.9 116.866 899.218 118.535 895.631 119.606C894.081 120.071 893.51 119.25 892.035 120.322C890.872 121.166 890.098 121.211 888.767 121.651C883.163 123.513 877.922 125.996 872.211 127.605L870.506 128.255L856.598 134.326C849.666 136.962 842.989 141.138 836.477 144.742C826 150.535 815.44 156.324 805.777 163.339C804.502 164.264 805.105 163.82 803.343 164.7C800.706 166.02 799.834 168.432 797.652 169.996C791.468 174.441 785.734 181.499 779.247 185.122C774.409 187.824 770.738 193.419 766.455 196.567C756.483 203.894 743.722 216.359 737.2 227.011C734.096 232.077 727.234 235.044 726.283 241.322L725.614 240.728C725.347 242.457 725.673 243.087 724.247 244.246L722.658 242.354L722.705 241.325L722.362 240.551C720.194 236.798 717.783 236.588 713.899 235.315L722.575 223.304C737.237 203.044 759.066 181.364 779.404 166.356C787.033 159.173 796.22 153.178 804.869 147.238C840.613 122.695 884.822 103.656 928.373 98.3584Z" fill="#757E8D"/>
<path d="M722.575 223.304C721.917 230.891 721.027 234.307 725.614 240.728C725.347 242.457 725.673 243.086 724.247 244.246L722.659 242.354L722.705 241.325L722.362 240.551C720.195 236.798 717.783 236.588 713.899 235.315L722.575 223.304Z" fill="#9094A4"/>
<path d="M779.404 166.356C787.033 159.174 796.22 153.178 804.87 147.238C840.613 122.695 884.822 103.656 928.373 98.3587L927.174 99.8357L921.97 100.351L921.452 101.535L923.229 102.309C917.929 102.577 913.66 103.871 908.856 105.306C907.303 105.768 906.732 104.951 905.26 106.02C903.237 107.489 900.128 107.791 897.719 108.387C895.256 108.994 893.255 109.831 891.102 111.1C889.464 112.064 888.477 112.183 886.536 112.112C884.528 113.572 882.903 112.857 881.261 114.048C880.096 114.892 879.322 114.937 877.993 115.379C855.601 122.812 835.392 133.907 815.324 145.885C811.95 147.896 810.071 151.103 806.68 153.06L804.443 154.884C800.708 157.917 796.288 159.835 792.486 162.84C788.229 166.208 784.768 166.245 779.404 166.356Z" fill="#787F8C"/>
<path d="M694.207 303.843C694.966 302.839 695.625 302.052 695.974 300.825L696.127 300.09L697.935 301.124L700.693 298.725C699.279 298.104 699.843 298.495 698.92 297.666C699.964 296.772 700.834 295.917 702.145 295.412L702.865 295.195C705.171 291.251 705.734 286.536 708.049 283.014C708.665 282.078 709.109 281.727 709.518 280.63C712.631 272.279 719.677 265.536 722.688 257.74L722.992 256.695L724.926 257.229L724.592 288.058C721.553 359.515 712.492 428.777 693.157 497.944C689.019 512.752 685.163 528.319 679.278 542.534C677.904 548.732 675.208 554.842 672.977 560.807L670.983 566.99L669.519 569.402C668.075 568.314 667.711 567.763 667.102 566.002C665.009 559.955 664.232 552.877 662.984 546.593C660.041 531.773 657.845 517.722 656.557 502.632C654.614 479.847 652.869 456.232 655.251 433.389C656.619 420.281 659.963 407.128 662.535 394.185C665.558 378.977 668.7 363.586 673.976 348.93C679.56 333.419 687.372 318.847 694.207 303.843Z" fill="url(#paint1_linear_14_5177)"/>
<path d="M696.774 307.314C697.401 306.355 698.942 303.278 699.76 302.748C701.673 301.506 702.368 302.317 704.281 300.248L705.486 301.322C705.47 305.831 698.989 313.293 697.053 318.211L695.337 318.873L694.685 320.398C693.507 323.11 691.467 325.182 691.159 328.174L690.296 328.217C690.118 324.686 690.082 323.97 691.773 320.882C693.606 316.994 697.275 311.463 696.774 307.314Z" fill="#33354A"/>
<path d="M665.615 429.295C666.117 430.226 667.276 431.797 667.483 432.769C667.995 435.146 667.208 439.531 667.135 442.156C666.948 448.881 666.948 455.618 667.068 462.346C667.423 482.363 669.252 504.295 673.084 523.951L672.593 525.183C671.98 526.825 672.088 526.142 672.175 527.694L673.929 529.022C672.407 530.163 672.319 530.185 671.811 531.979L672.967 532.706C674.148 533.482 675.087 534.342 675.486 535.759L675.791 541.994L674.688 543.184C674.805 545.496 675.415 545.983 673.757 547.777L674.265 551.728C675.314 548.862 676.222 545.806 677.626 543.094C678.165 542.872 678.713 542.402 679.279 542.534C677.904 548.732 675.208 554.842 672.977 560.807L670.73 559.256C667.654 541.57 663.741 524.379 661.874 506.48C660.668 494.9 661.516 482.451 659.646 471.094C659.338 469.231 659.342 468.364 659.967 466.543C661.433 466.24 662.429 465.983 663.801 465.346C663.481 453.338 663.898 441.205 665.615 429.295Z" fill="#2F2C3F"/>
<path d="M694.208 303.843L696.775 307.314C697.275 311.463 693.607 316.994 691.774 320.882L691.333 320.215C688.632 323.359 688.361 326.537 686.006 329.574L687.181 330.085C686.585 330.728 684.041 333.018 683.877 333.657C683.469 335.24 684.584 336.123 683.609 337.72C682.125 340.151 681.259 342.326 680.971 345.168C682.521 348.057 680.141 352.479 679.184 355.619L675.785 357.358L676.99 358.435C676.726 360.508 676.168 361.417 674.901 363.084C675.065 366.333 672.733 367.687 673.014 369.898C673.743 375.635 673.706 381.733 669.872 386.4L669.146 387.234C669.3 390.295 668.208 392.468 668.165 395.675C668.36 398.303 669.524 403.64 668.932 405.994C668.81 406.469 667.796 407.538 667.869 407.752C668.044 408.256 668.673 408.468 669.075 408.826C668.848 414.707 668.128 420.904 666.483 426.569L666.093 427.979C665.771 429.133 666.002 428.757 665.615 429.295C663.898 441.205 663.481 453.338 663.801 465.346C662.429 465.983 661.433 466.24 659.967 466.543C659.342 468.364 659.338 469.231 659.646 471.094C661.516 482.451 660.669 494.9 661.874 506.48C663.741 524.379 667.655 541.57 670.73 559.256L672.977 560.807L670.984 566.99L669.519 569.402C668.075 568.314 667.711 567.762 667.102 566.001C665.009 559.955 664.232 552.877 662.984 546.593C660.041 531.773 657.845 517.721 656.557 502.632C654.614 479.847 652.87 456.232 655.252 433.389C656.619 420.28 659.963 407.127 662.535 394.185C665.558 378.977 668.7 363.585 673.976 348.93C679.56 333.418 687.372 318.847 694.208 303.843Z" fill="#3B3D4D"/>
<path d="M659.967 466.543C660.605 442.503 661.216 419.063 668.164 395.675C668.359 398.304 669.524 403.641 668.932 405.995C668.81 406.469 667.796 407.538 667.869 407.753C668.043 408.256 668.673 408.468 669.075 408.826C668.848 414.707 668.128 420.904 666.483 426.569L666.093 427.979C665.77 429.133 666.001 428.758 665.615 429.295C663.898 441.205 663.481 453.338 663.801 465.347C662.429 465.983 661.433 466.24 659.967 466.543Z" fill="#33354A"/>
<path d="M1030.15 139.776C1028.5 132.529 1028.44 125.219 1028.21 117.826L1065.51 126.486C1070.55 130.856 1076.71 135.263 1081.06 140.265L1090.66 148.876C1111.95 166.907 1133.95 183.889 1157.1 199.578C1167.42 206.573 1177.7 214.089 1189.01 219.457L1197.4 224.476L1204.05 228.106C1207.21 229.485 1210.62 231.402 1214 232.048C1216.79 234.2 1218.59 235.895 1222.24 236.048L1226.45 233.925C1244.3 257.97 1259.52 284.044 1271.75 311.243L1276.63 322.553C1274.77 322.906 1270.63 323.164 1269.65 324.612C1266.28 329.608 1263.42 335.674 1261.63 341.393L1257.44 339.821L1254.31 338.167L1254.68 334.626L1253.65 332.997L1246.49 332.531C1204.14 325.372 1168.92 310.874 1134.31 285.833C1126.32 280.055 1119.3 273.073 1111.29 267.427L1110.63 266.969C1099.85 257.466 1088.91 247.878 1079.08 237.431C1065.89 223.419 1052.92 206.618 1037.89 194.694C1034.9 188.53 1035.12 179.333 1034.36 172.516C1033.13 161.589 1031.54 150.686 1030.15 139.776Z" fill="url(#paint2_linear_14_5177)"/>
<path d="M1030.15 139.776C1028.5 132.529 1028.44 125.219 1028.21 117.826L1065.51 126.486C1070.55 130.856 1076.71 135.263 1081.06 140.265C1078.08 139.877 1076.8 139.171 1074.45 137.329C1073.02 136.208 1069.51 137.087 1067.51 136.801L1057.37 135.287L1056.27 136.417C1052.71 136.075 1049.12 135.945 1045.73 134.749L1048.54 132.903L1047.93 132.355C1044.77 131.906 1041.16 130.989 1037.99 131.163L1036.92 132.91L1031.54 129.784C1029.97 132.321 1030.34 136.785 1030.15 139.776Z" fill="#33354A"/>
<path d="M1189.01 219.458L1197.4 224.477L1204.05 228.106C1211.22 239.597 1220.26 248.967 1228.13 259.85C1233.07 266.672 1236.5 274.201 1241.28 281.049C1244.76 286.048 1250.29 289.283 1251.59 295.552L1249.78 298.206C1250.35 299.306 1250.7 300.48 1251.11 301.641C1250.29 303.718 1250.26 305.177 1250.24 307.365L1252.31 308.113C1252.15 312.057 1250.97 313.777 1248.83 317.088L1238.29 293.029C1237.47 290.927 1236.65 289.485 1235.2 287.708L1234.71 287.128L1235.8 285.935C1234.95 284.989 1234.06 284.147 1233.59 282.955C1232.26 279.61 1231.48 278.582 1228.54 276.531L1227.15 275.58L1227.65 274.132C1228.2 270.501 1225.66 271.307 1223.94 269.486C1223.55 269.081 1224.02 266.596 1223.16 265.554C1221.41 263.426 1219.03 262.519 1217.68 259.897C1216.76 258.125 1216.82 258.381 1215.19 257.428C1214.47 255.51 1213.76 253.512 1212.41 251.925C1210.97 250.23 1209.17 247.973 1207.23 246.841L1206.51 246.505L1206.32 245.595C1205.49 242.9 1202.92 240.158 1200.48 238.748L1199.71 238.331L1199.54 234.931L1196.02 234.483C1192.21 229.779 1190.74 225.15 1189.01 219.458Z" fill="#252132"/>
<path d="M1197.4 224.477L1204.05 228.106C1211.22 239.597 1220.26 248.967 1228.13 259.85C1233.07 266.672 1236.5 274.201 1241.28 281.049C1244.76 286.048 1250.29 289.283 1251.59 295.552L1249.78 298.206L1197.4 224.477Z" fill="#25212E"/>
<path d="M1204.05 228.106C1207.21 229.485 1210.62 231.402 1214 232.048C1216.79 234.2 1218.59 235.895 1222.24 236.048L1226.45 233.925C1244.3 257.97 1259.52 284.044 1271.75 311.243L1276.63 322.553C1274.77 322.906 1270.63 323.164 1269.65 324.612C1266.28 329.608 1263.42 335.674 1261.63 341.393L1257.44 339.821L1254.31 338.167L1254.68 334.626L1253.65 332.997C1256.39 332.518 1257.51 332.584 1259.64 330.751L1258.87 328.667C1256.21 327.318 1254.46 326.26 1252.51 324.008L1256.29 323.535L1259.33 326.221L1259.89 325.625L1258.65 323.983L1261.5 323.272L1262.04 322.108L1260.24 321.059C1260.18 319.904 1260.13 320.421 1260.43 319.155L1260.68 318.2L1257.03 314.975C1257.02 312.972 1257.14 310.88 1256.27 309.021L1253.29 303.663C1252.77 302.325 1253.05 302.904 1252.26 301.513L1251.65 300.476L1252.77 299.853L1251.59 295.552C1250.29 289.282 1244.76 286.048 1241.28 281.049C1236.5 274.201 1233.07 266.672 1228.13 259.85C1220.26 248.967 1211.22 239.597 1204.05 228.106Z" fill="url(#paint3_linear_14_5177)"/>
<path d="M1271.75 311.243L1276.63 322.553C1274.77 322.906 1270.63 323.164 1269.65 324.612C1266.28 329.608 1263.42 335.674 1261.63 341.393L1257.44 339.821L1254.31 338.167L1254.68 334.626C1256.14 334.264 1258.39 334.02 1259.69 333.381C1263.73 331.395 1267.97 316.937 1270.95 312.438L1271.75 311.243Z" fill="#565769"/>
<path d="M1204.05 228.106C1207.21 229.485 1210.62 231.402 1214 232.048C1215.9 236.072 1217.42 239.215 1220.91 242.145C1224.09 244.821 1226.94 250.966 1229.38 254.49C1235.62 263.489 1241.64 272.33 1247.52 281.571C1252.14 288.84 1256.66 295.014 1258.75 303.527L1258.24 304.693C1256.67 304.292 1254.91 303.619 1253.29 303.663C1252.77 302.325 1253.05 302.904 1252.26 301.513L1251.65 300.476L1252.77 299.853L1251.59 295.552C1250.29 289.282 1244.76 286.048 1241.28 281.049C1236.5 274.201 1233.07 266.672 1228.13 259.85C1220.26 248.967 1211.22 239.597 1204.05 228.106Z" fill="#3B3D4D"/>
<path d="M1037.89 194.694C1052.92 206.619 1065.89 223.42 1079.08 237.432C1088.91 247.878 1099.85 257.466 1110.63 266.969L1111.29 267.427C1119.3 273.073 1126.32 280.055 1134.31 285.833C1168.92 310.874 1204.14 325.372 1246.49 332.532L1253.65 332.997L1254.68 334.626L1254.31 338.167L1257.44 339.821L1261.63 341.393L1259.49 347.507L1262.63 347.291C1263.64 363.546 1265.83 379.553 1268.47 395.621C1269.57 402.311 1270.35 411.128 1273.33 417.186L1213.17 441.299L1199.06 448.809C1199.34 446.878 1199.58 444.579 1200.48 442.812C1201.76 440.301 1204.93 438.757 1205.01 435.835L1200.86 433.404C1196.53 436.106 1186.84 434.719 1181.9 434.151C1156.87 431.265 1127.69 415.735 1108.62 399.841C1100.71 393.245 1093.92 385.652 1086.64 378.428C1074.26 366.149 1062.39 353.694 1051.67 339.985C1051.68 339.938 1054.51 336.91 1054.96 336.069C1053.93 334.827 1051.39 332.434 1050.8 331.058C1049.92 329.008 1050.05 324.196 1049.8 321.853C1048.93 313.593 1048.36 305.326 1047.62 297.053C1045.43 272.66 1043.02 248.064 1040.19 223.738L1039.9 224.407C1038.72 227.463 1039.87 237.027 1038.14 237.961L1038.09 237.085C1037.87 233.48 1037.18 231.337 1034.76 228.518C1033.66 221.921 1034.43 209.639 1030.88 204.519C1031.33 203.118 1035.59 200.957 1036.64 199.403C1037.26 198.488 1037.58 195.859 1037.89 194.694Z" fill="#0E0717"/>
<path d="M1246.49 332.532L1253.65 332.997L1254.68 334.626L1254.31 338.167L1243.34 336.525C1243.95 334.108 1244.44 334.078 1246.49 332.532Z" fill="#494451"/>
<path d="M1257.44 339.821L1261.63 341.393L1259.49 347.507L1218.05 421.795L1214.93 423.875C1214.76 422.533 1214.86 423.066 1214.55 421.747L1214.31 420.825L1257.44 339.821Z" fill="#3B3D4D"/>
<path d="M1037.89 194.694C1052.92 206.619 1065.89 223.42 1079.08 237.432C1088.91 247.878 1099.85 257.466 1110.63 266.969L1109.32 268.469C1107.16 266.882 1106.71 266.352 1103.94 266.102C1095.55 260.938 1087.69 252.018 1080.73 245.129C1065.03 229.589 1050.99 215.582 1037.69 197.959L1040.19 223.738L1039.9 224.407C1038.72 227.463 1039.87 237.027 1038.14 237.961L1038.09 237.085C1037.87 233.48 1037.18 231.337 1034.76 228.518C1033.66 221.921 1034.43 209.639 1030.88 204.519C1031.33 203.118 1035.59 200.957 1036.64 199.403C1037.26 198.488 1037.58 195.859 1037.89 194.694Z" fill="#33354A"/>
<path d="M1103.94 266.102C1106.71 266.352 1107.16 266.882 1109.32 268.469L1110.63 266.969L1111.29 267.427C1119.3 273.073 1126.32 280.055 1134.31 285.833C1168.92 310.874 1204.14 325.372 1246.49 332.531C1244.44 334.078 1243.95 334.108 1243.34 336.524C1232.87 335.985 1222.04 332.628 1212.06 329.597C1169.9 316.805 1136.47 294.755 1103.94 266.102Z" fill="#3B3D4D"/>
<path d="M1054.96 336.069C1087.81 375.064 1127.88 423.079 1183.16 428.49C1191.07 429.264 1199.73 430.63 1207.59 429.338L1212.59 424.845C1212.63 422.681 1213.1 422.541 1214.31 420.825L1214.55 421.747C1214.86 423.066 1214.76 422.533 1214.93 423.875L1218.05 421.795C1215.64 427.466 1212.36 435.101 1213.17 441.299L1199.06 448.808C1199.34 446.878 1199.58 444.579 1200.48 442.812C1201.76 440.301 1204.93 438.756 1205.01 435.835L1200.86 433.404C1196.53 436.106 1186.84 434.718 1181.9 434.15C1156.87 431.265 1127.69 415.735 1108.62 399.841C1100.71 393.245 1093.92 385.652 1086.64 378.428C1074.26 366.149 1062.39 353.693 1051.67 339.984C1051.68 339.938 1054.51 336.909 1054.96 336.069Z" fill="#25212E"/>
<path d="M1212.59 424.845C1212.63 422.681 1213.1 422.542 1214.31 420.825L1214.54 421.747C1214.86 423.066 1214.76 422.533 1214.93 423.875L1218.05 421.795C1215.64 427.466 1212.36 435.101 1213.17 441.299L1199.06 448.808C1199.34 446.878 1199.58 444.579 1200.48 442.812C1201.76 440.301 1204.93 438.756 1205.01 435.835L1200.86 433.404C1203.17 432.464 1204.15 432.348 1206.6 432.849C1206.73 435.37 1207.28 436.698 1209.21 438.396L1211.41 436.01C1213.02 433.98 1212.17 432.65 1211.72 430.314L1213.08 428.825L1212.59 424.845Z" fill="#2F2C3F"/>
<path d="M1259.49 347.507L1262.63 347.291C1263.64 363.546 1265.84 379.553 1268.47 395.621C1269.57 402.311 1270.36 411.128 1273.33 417.186L1213.17 441.299C1212.36 435.101 1215.64 427.466 1218.05 421.795L1259.49 347.507Z" fill="#010103"/>
<path d="M701.331 692.555C706.187 692.159 710.99 691.672 715.866 691.903C727.081 693.894 740.369 690.743 751.855 690.867L751.723 691.782L795.841 690.068C811.432 717.176 827.52 744.126 851.599 764.994C860.826 772.99 871.281 779.438 881.587 786.001L887.535 789.028C889.517 796.657 894.051 804.558 896.521 812.362L893.079 816.788C895.707 829.731 899.157 842.378 901.252 855.443C904.141 873.43 905.362 891.734 906.466 909.902C906.714 913.999 908.13 921.784 907.017 925.496C906.266 928.001 903.147 931.82 901.657 934.013C894.067 945.187 885.325 955.727 877.922 966.967C874.858 971.622 873.249 977.171 869.975 981.571C870.195 984.94 870.81 985.087 873.049 987.496L871.847 991.428L842.536 957.964L813.835 917.352L773.67 851.462L769.805 844.781C763.796 836.884 759.574 826.195 754.866 817.375C733.648 777.619 713.713 736.631 697.222 694.731L697.851 693.277L701.331 692.555Z" fill="#0E0717"/>
<path d="M730.893 713.446L738.791 725.759C738.147 727.385 737.651 728.879 736.602 730.305L729.055 720.177C730.075 718.051 730.396 715.734 730.893 713.446Z" fill="#5A5B6D"/>
<path d="M719.223 698.365C723.576 703.198 727.338 708.023 730.893 713.446C730.396 715.734 730.075 718.051 729.055 720.176C723.981 714.19 720.179 707.872 716.901 700.801L719.223 698.365Z" fill="#565769"/>
<path d="M881.587 786L887.535 789.028C889.517 796.657 894.051 804.558 896.521 812.362L893.079 816.788C891.557 811.612 890.024 806.288 887.823 801.346C885.618 796.385 882.394 791.39 881.587 786Z" fill="#25212E"/>
<path d="M773.32 782.349C777.85 790.587 782.314 798.89 786.281 807.408C786.831 808.584 788.623 811.85 788.471 812.949L787.817 815.745L786.177 812.241L785.379 813.701C785.806 814.861 786.123 815.484 786.86 816.529L786.277 820.014L772.1 790.735C773.874 788.382 773.365 785.141 773.32 782.349Z" fill="#494451"/>
<path d="M816.765 887.494C819.586 897.486 822.472 907.512 825.519 917.437C826.822 921.679 828.62 923.837 828.938 928.547L830.172 930.178C829.687 932.241 828.763 933.911 829.885 935.879C831.706 939.071 834.309 941.723 836.152 944.929L837.312 946.348L840.515 950.686L842.192 952.862L842.536 957.964L813.835 917.351L814.964 916.492L816.168 917.248L817.471 919.309C818.621 920.871 820.927 921.651 822.8 922.039L822.469 921.192L822.99 920.028C823.642 917.255 823.168 914.827 821.458 912.72C819.634 913.35 818.222 913.506 816.294 913.551C817.308 906.402 814.919 898.856 813.197 891.959L814.206 889.621C814.586 891.138 814.955 892.556 815.575 893.997C816.487 891.95 816.513 889.7 816.765 887.494Z" fill="#494451"/>
<path d="M738.791 725.759C751.745 742.645 763.818 763.365 773.32 782.348C773.365 785.141 773.874 788.382 772.1 790.734L746.576 748.397L736.602 730.305C737.651 728.879 738.147 727.385 738.791 725.759Z" fill="#33354A"/>
<path d="M786.277 820.014L786.86 816.529C786.123 815.484 785.806 814.86 785.379 813.701L786.177 812.241L787.817 815.745L788.47 812.949C794.125 821.553 796.077 830.343 799.798 839.702C806.23 855.878 812.802 870.393 816.765 887.494C816.513 889.7 816.487 891.95 815.575 893.997C814.955 892.556 814.586 891.138 814.206 889.621L813.197 891.959L812.936 891.922L786.277 820.014Z" fill="#3B3D4D"/>
<path d="M773.981 822.894C775.273 824.324 776.545 825.662 777.435 827.38L779.26 830.77C780.469 832.678 781.47 834.535 782.465 836.562L783.42 835.388C783.108 830.619 782.584 826.178 780.717 821.72C777.138 813.177 770.617 805.397 766.42 796.97C762.309 788.721 760.061 776.88 753.993 769.821C748.073 762.935 747.71 754.844 743.179 748.054C742.423 746.926 742.148 746.195 741.805 744.886L746.576 748.397L772.1 790.735L786.277 820.014L812.936 891.922L813.197 891.959C814.919 898.856 817.308 906.402 816.294 913.551C818.222 913.506 819.634 913.35 821.458 912.72C823.168 914.827 823.641 917.255 822.99 920.028L822.469 921.192L822.8 922.039C820.927 921.651 818.621 920.871 817.471 919.309L816.168 917.248L814.964 916.492L813.835 917.352L773.67 851.462C773.52 847.13 772.648 842.168 775.022 838.281L775.526 837.491C776.018 832.079 775.393 828.114 773.981 822.894Z" fill="url(#paint4_linear_14_5177)"/>
<path d="M701.331 692.555C706.187 692.159 710.99 691.672 715.866 691.903C727.081 693.894 740.369 690.743 751.855 690.867L751.723 691.782C741.833 692.173 728.351 691.302 719.058 694.383L719.223 698.366L716.901 700.801C720.179 707.872 723.981 714.19 729.055 720.177L736.602 730.305L746.576 748.397L741.805 744.886C742.148 746.195 742.423 746.926 743.179 748.054C747.71 754.844 748.074 762.935 753.993 769.821C760.061 776.88 762.31 788.721 766.42 796.97C770.618 805.397 777.139 813.177 780.717 821.72C782.584 826.178 783.108 830.619 783.42 835.388L782.465 836.562C781.47 834.535 780.469 832.678 779.26 830.77L777.435 827.38C776.546 825.662 775.273 824.324 773.981 822.894C775.393 828.114 776.018 832.079 775.527 837.491L775.022 838.281C772.648 842.168 773.52 847.13 773.67 851.462L769.805 844.781C763.796 836.884 759.574 826.195 754.866 817.375C733.648 777.619 713.713 736.631 697.222 694.731L697.851 693.277L701.331 692.555Z" fill="#3B3D4D"/>
<path d="M716.901 700.801C720.179 707.873 723.981 714.191 729.055 720.177L736.602 730.305L746.576 748.398L741.805 744.886C742.148 746.195 742.423 746.926 743.179 748.054C747.71 754.844 748.074 762.935 753.993 769.821C760.061 776.88 762.31 788.721 766.42 796.97C770.618 805.397 777.139 813.177 780.717 821.72C782.584 826.178 783.108 830.619 783.42 835.388L782.465 836.562C781.47 834.536 780.469 832.678 779.26 830.77L777.435 827.38C776.546 825.662 775.273 824.324 773.981 822.895L717.332 708.057C716.045 704.948 715.452 703.8 716.901 700.801Z" fill="#25212E"/>
<path d="M697.222 694.731L697.85 693.277L701.33 692.555L702.28 693.633C703.377 694.848 704.508 695.623 705.818 696.593C707.653 697.946 708.791 699.148 709.685 701.238C711.823 706.232 712.78 711.655 714.961 716.676C721.777 732.368 729.759 747.649 736.512 763.332C738.217 767.295 738.917 771.786 740.628 775.623C742.06 778.841 744.439 781.301 745.788 784.633C747.022 787.683 748.434 790.186 749.43 793.365L754.347 803.629C757.155 810.639 762.489 815.356 764.186 823.042C764.452 824.251 765.091 824.524 765.625 825.492C766.191 826.516 766.34 828.167 766.563 829.284C766.878 830.874 767.45 831.595 768.294 832.943C770.352 836.231 769.835 841.024 769.805 844.781C763.795 836.884 759.573 826.195 754.865 817.375C733.648 777.619 713.713 736.631 697.222 694.731Z" fill="#5A5B6D"/>
<path d="M725.829 249.417L730.054 250.071L730.412 254.215C739.391 258.835 747.516 272.878 754.085 280.668L756.993 276.921L799.578 326.551L803.344 327.553C805.559 328.765 805.877 328.874 807.025 331.056L803.816 332.777L802.764 332.812C802.746 335.751 802.943 338.836 802.165 341.691L800.477 435.75C800.477 437.574 800.659 439.522 800.218 441.296L795.668 440.676L770.003 436.712L761.546 535.054C760.743 544.149 761.518 553.493 761.835 562.608C762.107 570.369 761.886 578.606 763.094 586.268C765.287 596.186 766.147 606.344 768.462 616.213C774.105 640.262 783.564 663.049 794.291 685.28L795.842 690.068L751.723 691.782L751.855 690.867C740.369 690.743 727.081 693.894 715.866 691.903C710.99 691.672 706.187 692.159 701.331 692.555L697.851 693.277L697.222 694.731L697.151 694.749L694.495 687.961C683.777 664.981 675.275 638.22 668.502 613.805C668.579 608.441 668.741 603.278 667.509 598.02C666.937 595.583 665.455 591.44 665.529 589.025C665.632 585.573 670.892 576.738 672.828 573.421L673.843 570.246C672.952 568.734 672.296 568.119 670.984 566.99L672.977 560.807C675.208 554.842 677.905 548.732 679.279 542.534C685.163 528.319 689.019 512.752 693.157 497.944C712.492 428.777 721.553 359.515 724.592 288.058L724.926 257.229C725.724 256.418 725.725 250.839 725.829 249.417Z" fill="url(#paint5_linear_14_5177)"/>
<path d="M797.007 332.332C798.896 332.51 800.873 332.832 802.764 332.812C802.746 335.751 802.943 338.836 802.165 341.691C800.533 342.433 799.239 342.781 797.46 343.024L797.007 332.332Z" fill="#5A5B6D"/>
<path d="M794.264 329.329L796.004 326.489C797.269 326.138 798.294 326.4 799.577 326.551L803.344 327.553C805.559 328.765 805.877 328.874 807.025 331.056L803.815 332.777L802.764 332.812C800.873 332.832 798.896 332.51 797.007 332.332L794.264 329.329Z" fill="#565769"/>
<path d="M796.508 426.3C800.173 429.143 799.744 431.477 800.477 435.751C800.477 437.574 800.658 439.523 800.218 441.296L795.668 440.676C795.084 436.412 796.208 430.681 796.508 426.3Z" fill="#494451"/>
<path d="M725.829 249.417L730.054 250.071L730.411 254.215L728.615 292.395L724.592 288.057L724.926 257.229C725.724 256.418 725.725 250.839 725.829 249.417Z" fill="#5A5B6D"/>
<path d="M756.992 276.92L799.577 326.55C798.293 326.4 797.269 326.137 796.004 326.489L794.264 329.329C789.262 321.05 782.351 313.897 775.983 306.614C768.535 298.092 761.335 289.348 754.084 280.668L756.992 276.92Z" fill="#5A5B6D"/>
<path d="M797.46 343.025C799.239 342.781 800.533 342.433 802.165 341.691L800.477 435.75C799.744 431.477 800.174 429.142 796.508 426.299L797.46 343.025Z" fill="#33354A"/>
<path d="M679.279 542.534C685.163 528.319 689.019 512.752 693.157 497.944C712.492 428.777 721.553 359.515 724.592 288.058L728.616 292.395C725.092 374.415 711.798 455.188 686.173 533.486C682.227 545.541 679.146 558.71 673.843 570.246C672.952 568.734 672.296 568.119 670.984 566.99L672.977 560.807C675.208 554.842 677.905 548.732 679.279 542.534Z" fill="#565769"/>
<path d="M668.501 613.805C668.579 608.441 668.741 603.278 667.509 598.02C666.937 595.583 665.455 591.44 665.529 589.025C665.632 585.573 670.892 576.738 672.828 573.421C675.965 586.541 703.907 679.824 711.88 684.544L712.886 685.076L711.04 687.696L694.494 687.961C683.777 664.982 675.275 638.22 668.501 613.805Z" fill="#565769"/>
<path d="M763.093 586.268C765.286 596.186 766.147 606.344 768.462 616.213C774.105 640.262 783.563 663.049 794.291 685.28L795.841 690.068L751.723 691.782L751.855 690.867C740.369 690.743 727.081 693.894 715.866 691.903C710.99 691.672 706.186 692.159 701.33 692.555L697.85 693.277L697.222 694.731L697.151 694.749L694.494 687.961L711.04 687.696L712.886 685.075C721.249 671.169 729.216 656.066 736.363 641.529C742.674 628.691 748.654 615.769 754.487 602.717C756.628 597.929 758.076 590.357 762.183 587.026L763.093 586.268Z" fill="#0E0717"/>
<path d="M717.798 686.2L719.789 688.351L777.124 686.661L794.291 685.28L795.841 690.068L751.723 691.781L751.855 690.867C740.369 690.743 727.081 693.894 715.866 691.903L717.798 686.2Z" fill="#33354A"/>
<path d="M777.124 686.661L794.291 685.28L795.841 690.068L751.723 691.781L751.855 690.867C762.352 688.4 774.507 690.757 785.472 688.857L786.39 687.531C783.199 687.681 780.261 687.171 777.124 686.661Z" fill="#494451"/>
<path d="M712.886 685.076C721.249 671.169 729.216 656.067 736.363 641.529C742.674 628.692 748.653 615.769 754.486 602.717C756.628 597.929 758.075 590.358 762.182 587.026C762.384 594.215 758.966 600.281 756.297 606.826C750.743 620.451 744.053 634.748 736.891 647.631C730.129 659.793 722.067 672.992 717.797 686.201L715.866 691.903C710.99 691.672 706.186 692.159 701.33 692.555L697.85 693.277L697.222 694.731L697.151 694.749L694.494 687.961L711.039 687.696L712.886 685.076Z" fill="#787F8C"/>
<path d="M974.387 95.3163L1002.4 96.5908C1006.43 97.1207 1011.31 97.2264 1015.15 98.4032L1028.9 101.275L1042.15 105.2L1042.88 105.89C1044.3 107.259 1045.74 108.326 1046.24 110.291L1047.43 110.803C1050.28 112.123 1052.16 115.516 1054.97 116.351C1058.2 117.311 1063.33 123.882 1065.51 126.486L1028.21 117.826C1028.44 125.22 1028.5 132.529 1030.15 139.776C1031.54 150.686 1033.13 161.589 1034.36 172.516C1035.12 179.334 1034.9 188.531 1037.89 194.694C1037.58 195.859 1037.26 198.488 1036.64 199.403C1035.59 200.957 1031.33 203.118 1030.88 204.519C1034.43 209.639 1033.66 221.921 1034.76 228.518C1037.18 231.337 1037.87 233.48 1038.09 237.085L1038.14 237.961C1039.87 237.027 1038.72 227.463 1039.9 224.407L1040.19 223.738C1043.02 248.064 1045.43 272.66 1047.62 297.053C1048.36 305.326 1048.93 313.593 1049.8 321.853C1050.05 324.196 1049.92 329.008 1050.8 331.058C1051.39 332.433 1053.93 334.827 1054.96 336.069C1054.51 336.91 1051.68 339.938 1051.67 339.985C1049.77 342.739 1048.58 343.878 1045.88 345.824C1043.36 347.635 1041.96 351.577 1040.1 354.079C1036.86 358.405 1033.05 362.463 1029.49 366.54C1020.43 376.924 1011.46 388.561 1001.31 397.906C979.096 418.355 950.187 429.939 920.316 433.955L890.764 436.115L888.355 435.885C887.379 440.605 887.605 445.201 887.822 449.969C888.059 455.033 888.672 460.273 887.728 465.28L880.635 462.598L800.218 441.296C800.658 439.522 800.477 437.574 800.477 435.75L802.164 341.691C802.943 338.836 802.746 335.751 802.764 332.812L803.815 332.777L807.025 331.056C805.876 328.874 805.558 328.765 803.344 327.553L799.577 326.55L756.992 276.921L754.084 280.668C747.516 272.878 739.391 258.835 730.411 254.215L730.054 250.071L725.829 249.417L724.247 244.246C725.673 243.087 725.347 242.457 725.614 240.728L726.283 241.322C727.234 235.044 734.096 232.077 737.199 227.011C743.722 216.359 756.483 203.894 766.455 196.567C770.738 193.419 774.409 187.824 779.247 185.122C785.734 181.499 791.468 174.442 797.652 169.996C799.834 168.432 800.706 166.02 803.343 164.7C805.105 163.82 804.502 164.264 805.777 163.339C815.439 156.324 826 150.535 836.477 144.742C842.989 141.139 849.666 136.962 856.598 134.326L870.506 128.256L872.211 127.605C877.922 125.997 883.163 123.513 888.767 121.651C890.098 121.211 890.872 121.167 892.035 120.323C893.51 119.25 894.081 120.071 895.631 119.606C899.218 118.535 902.9 116.866 906.472 115.67C909.211 114.756 910.649 116.129 913.371 114.191C919.143 114.031 927.508 112.896 932.97 111.123C935.233 110.389 938.268 111.178 940.496 110.528C943.712 109.586 947.112 108.984 950.234 107.762C951.914 107.107 956.277 107.434 958.209 107.334C966.612 106.89 974.964 106.34 983.381 106.643C982.315 105.853 979.386 104.171 978.765 103.188C978.345 102.522 978.745 100.021 978.288 99.5204C976.896 97.985 975.828 97.7567 974.387 95.3163Z" fill="url(#paint6_linear_14_5177)"/>
<path d="M725.614 240.727L726.283 241.322C730.911 242.409 734.336 241.899 738.897 241.076L750.364 239.529L755.152 241.847C748.162 243.159 736.47 243.638 731.419 248.826L730.054 250.07L725.829 249.417L724.247 244.246C725.673 243.086 725.347 242.457 725.614 240.727Z" fill="#787F8C"/>
<path d="M730.054 250.071L731.419 248.827C733.851 251.517 737.031 252.924 739.54 255.471C745.55 261.57 752.047 269.988 756.993 276.92L754.085 280.668C747.516 272.878 739.391 258.835 730.411 254.215L730.054 250.071Z" fill="#565769"/>
<path d="M1000.73 108.025C1004.2 109.63 1003.28 109.705 1005.62 112.441C1007.35 114.463 1018.82 114.617 1021.8 115.057L1023.69 127.748C1022.82 125.934 1022.2 124.484 1020.73 123.049L1010.27 123.088C1013.08 121.064 1015.15 120.951 1018.57 120.496C1015.5 120.346 1012.83 119.645 1009.86 119.222C1004.41 118.447 1003.09 115.119 998.213 114.411C996.492 116.153 995.222 116.578 992.918 117.194L992.116 117.398L1000.73 108.025Z" fill="#3B3D4D"/>
<path d="M865.378 319.017L866.101 321.074L865.295 321.263C863.314 321.741 861.833 322.095 860.17 323.334L807.025 331.055C805.877 328.874 805.559 328.765 803.344 327.553C812.14 325.474 822.86 325.675 831.969 324.675C843.206 323.439 854.283 321.109 865.378 319.017Z" fill="#5A5B6D"/>
<path d="M1009.28 100.595L1015.15 98.4029L1028.9 101.275C1028.16 102.802 1026.71 104.925 1026.66 106.583C1025.41 109.788 1025.34 111.58 1022.31 113.429L1021.8 115.057C1018.82 114.617 1007.35 114.463 1005.62 112.441C1003.28 109.705 1004.2 109.63 1000.74 108.025C1002.81 105.366 1006.65 102.84 1009.28 100.595Z" fill="#565769"/>
<path d="M1009.28 100.596L1015.15 98.4033L1028.9 101.276C1028.16 102.802 1026.71 104.926 1026.66 106.584C1025.41 109.788 1025.34 111.58 1022.31 113.429C1021.98 110.822 1021.89 107.287 1020.56 105.024C1019.53 103.278 1011.56 101.371 1009.28 100.596Z" fill="#757E8D"/>
<path d="M865.378 319.017C865.553 318.417 884.247 312.855 890.981 310.416C916.521 301.158 941.368 288.465 961.977 270.802C970.766 263.27 978.659 254.62 987.613 247.339L988.242 246.833L991.467 249.14C964.111 280.081 921.018 307.801 880.703 318.727C874.748 320.342 867.919 322.795 861.775 323.244L860.17 323.334C861.833 322.095 863.314 321.742 865.295 321.263L866.101 321.074L865.378 319.017Z" fill="#33354A"/>
<path d="M1028.9 101.275L1042.15 105.2L1042.88 105.891C1044.3 107.259 1045.74 108.326 1046.24 110.291L1047.43 110.804C1050.28 112.123 1052.16 115.516 1054.97 116.351C1058.2 117.311 1063.33 123.882 1065.51 126.486L1028.21 117.826C1028.44 125.22 1028.5 132.529 1030.15 139.776C1031.54 150.686 1033.13 161.589 1034.36 172.517C1035.12 179.334 1034.9 188.531 1037.89 194.695C1037.58 195.859 1037.26 198.488 1036.64 199.403C1035.59 200.957 1031.33 203.118 1030.88 204.519L991.467 249.14L988.241 246.833L996.812 237.395C1006.13 227.041 1014.77 216.225 1023.54 205.43C1025.65 202.834 1030.21 198.8 1031.4 196.04C1033.1 192.121 1024.55 137.714 1023.97 128.593L1023.69 127.749L1021.8 115.057L1022.31 113.429C1025.34 111.58 1025.41 109.788 1026.66 106.584C1026.71 104.926 1028.16 102.802 1028.9 101.275Z" fill="#5A5B6D"/>
<path d="M1026.66 106.583L1026.88 128.143C1025.61 128.652 1025.37 128.792 1023.97 128.593L1023.69 127.749L1021.8 115.057L1022.31 113.429C1025.34 111.58 1025.41 109.788 1026.66 106.583Z" fill="#6B7081"/>
<path d="M974.388 95.3161L1002.4 96.5906C1006.43 97.1204 1011.31 97.2262 1015.15 98.4029L1009.28 100.595C1006.65 102.84 1002.81 105.366 1000.74 108.025L992.117 117.398C976.944 129.891 962.937 143.803 947.624 156.286C905.091 190.959 857.849 213.909 805.338 230.203C794.096 233.69 782.693 236.458 771.2 239.025C766.325 240.111 760.105 242.004 755.152 241.847L750.365 239.529C825.917 227.099 895.045 196.806 953.109 147.661C963.224 139.1 974.25 130.635 982.799 120.576C986.774 117.12 990.078 112.957 993.486 108.978L992.621 107.163C989.997 107.164 987.327 107.261 984.731 106.866L983.381 106.643C982.315 105.853 979.386 104.171 978.765 103.187C978.345 102.522 978.745 100.021 978.289 99.5202C976.896 97.9848 975.829 97.7565 974.388 95.3161Z" fill="#6B7081"/>
<path d="M1002.4 96.5906C1006.43 97.1205 1011.31 97.2262 1015.15 98.4029L1009.28 100.595C1006.65 102.84 1002.81 105.366 1000.73 108.025L998.316 106.428C1001.21 103.003 1002.23 101.056 1002.4 96.5906Z" fill="#9094A4"/>
<path d="M726.283 241.322C727.234 235.044 734.096 232.077 737.2 227.011C743.722 216.359 756.483 203.894 766.455 196.567C770.738 193.419 774.409 187.824 779.247 185.122C785.734 181.499 791.468 174.441 797.652 169.996C799.834 168.432 800.706 166.02 803.343 164.7C805.105 163.82 804.502 164.264 805.777 163.339C815.44 156.324 826 150.535 836.477 144.742C842.989 141.138 849.666 136.962 856.598 134.326L870.506 128.255L872.211 127.605C877.922 125.996 883.164 123.513 888.767 121.651C890.098 121.211 890.872 121.166 892.035 120.322C893.51 119.25 894.081 120.071 895.631 119.606C899.218 118.535 902.9 116.866 906.472 115.67C909.211 114.756 910.649 116.129 913.371 114.191C919.143 114.031 927.508 112.896 932.97 111.123C935.233 110.389 938.268 111.178 940.496 110.528C943.712 109.586 947.112 108.984 950.234 107.762C951.914 107.107 956.277 107.434 958.209 107.334C966.612 106.889 974.964 106.34 983.381 106.643L984.731 106.866C987.327 107.261 989.997 107.164 992.62 107.163L993.486 108.978C990.078 112.957 986.774 117.12 982.798 120.576C974.25 130.635 963.223 139.1 953.109 147.661C895.044 196.806 825.917 227.1 750.364 239.529L738.897 241.076C734.336 241.899 730.911 242.409 726.283 241.322Z" fill="#33354A"/>
<path d="M726.283 241.322C727.234 235.044 734.096 232.077 737.2 227.011C743.722 216.359 756.483 203.894 766.455 196.567C770.738 193.419 774.409 187.824 779.247 185.122C785.734 181.499 791.468 174.441 797.652 169.996C799.834 168.432 800.706 166.02 803.343 164.7C805.105 163.82 804.502 164.264 805.777 163.339C815.44 156.324 826 150.535 836.477 144.742C842.989 141.138 849.666 136.962 856.598 134.326L870.506 128.255L872.211 127.605C877.922 125.996 883.164 123.513 888.767 121.651C890.098 121.211 890.872 121.166 892.035 120.322C893.51 119.25 894.081 120.071 895.631 119.606C899.218 118.535 902.9 116.866 906.472 115.67C909.211 114.756 910.649 116.129 913.371 114.191C919.143 114.031 927.508 112.896 932.97 111.123C935.233 110.389 938.268 111.178 940.496 110.528C943.712 109.586 947.112 108.984 950.234 107.762C951.914 107.107 956.277 107.434 958.209 107.334C966.612 106.889 974.964 106.34 983.381 106.643L984.731 106.866C987.327 107.261 989.997 107.164 992.62 107.163L993.486 108.978C990.078 112.957 986.774 117.12 982.798 120.576C978.749 118.741 978.804 120.483 975.256 120.037C973.385 119.8 971.132 118.532 969.06 118.159L967.669 119.361L966.423 117.728C965.186 117.785 964.668 117.971 963.555 118.431L962.338 117.355C959.712 117.488 956.104 118.342 954.168 116.633L953.489 116.917C950.186 118.189 942.891 117.493 940.953 119.571C938.882 119.684 939.036 119.266 937.532 120.881C934.5 121.046 933.085 122.24 930.055 122.393L928.837 121.32C927.544 122.039 927.012 122.648 926.053 123.732C923.519 123.862 920.288 123.394 918.575 125.243L917.361 124.17C914.334 124.326 907.291 123.704 905.246 125.916L904.169 127.68C901.392 128.553 895.56 127.928 893.645 129.313C892.5 130.142 891.692 130.229 890.372 130.651C888.252 131.325 886.235 132.029 884.089 132.666L882.373 133.326C879.844 133.852 879.56 133.767 877.237 135.295L876.75 137.019L875.886 137.062L874.919 135.412C872.402 137.59 870.567 137.057 868.58 138.495C867.139 139.536 865.539 140.123 863.89 140.759C860.586 142.031 856.626 144.383 853.999 146.68L851.109 147.122L852.306 147.914C849.616 150.016 846.393 151.467 843.589 153.496C842.452 154.319 841.194 154.795 839.91 155.346L838.684 154.282L838.06 154.77C835.224 156.821 832.12 158.031 829.447 160.423C826.607 162.969 823.586 163.534 820.358 165.244C815.548 167.796 811.237 170.451 807.152 174.04L805.927 172.976C804.251 174.788 798.525 179.176 798.331 179.994C797.859 182.013 796.917 182.802 795.517 184.24C794.742 185.036 794.557 185.542 794.417 186.62L792.947 187.014C790.624 187.73 789.51 189.468 787.981 191.185C787.544 191.676 781.579 196.918 781.579 196.918C780.497 197.339 779.186 196.719 778.09 197.106C776.357 197.72 776.02 200.299 773.57 200.912C768.678 202.136 765.627 205.696 762.433 209.257L762.319 210.54C762.029 212.46 761.513 212.966 760.373 214.474L759.873 215.177C756.662 219.647 750.966 223.608 748.279 228.15C746.522 231.124 745.804 233.211 742.225 234.701C740.57 235.386 739.407 236.382 737.619 236.917C736.148 237.36 735.431 238.077 734.315 239.07C736.08 240.622 736.652 240.567 738.897 241.076C734.336 241.899 730.911 242.409 726.283 241.322Z" fill="#3B3D4D"/>
<path d="M1030.88 204.519C1034.43 209.64 1033.66 221.921 1034.76 228.518C1037.18 231.337 1037.87 233.48 1038.09 237.085L1038.14 237.961C1039.87 237.027 1038.72 227.463 1039.9 224.407L1040.19 223.739C1043.02 248.064 1045.43 272.66 1047.62 297.053C1048.36 305.326 1048.93 313.593 1049.8 321.853C1050.05 324.196 1049.92 329.008 1050.8 331.058C1051.39 332.434 1053.93 334.827 1054.96 336.069C1054.51 336.91 1051.68 339.938 1051.67 339.985C1049.77 342.739 1048.58 343.878 1045.88 345.824C1043.36 347.635 1041.96 351.577 1040.1 354.079C1036.86 358.405 1033.05 362.463 1029.49 366.54C1020.43 376.925 1011.46 388.561 1001.31 397.907C979.096 418.355 950.187 429.939 920.316 433.956L890.764 436.115L888.355 435.885C887.379 440.605 887.605 445.201 887.822 449.969C888.059 455.033 888.672 460.273 887.728 465.28L880.635 462.598L800.218 441.296C800.658 439.523 800.477 437.574 800.477 435.75L802.164 341.691C802.943 338.836 802.746 335.751 802.764 332.812L803.815 332.777L807.025 331.056L860.17 323.334L861.774 323.245C867.919 322.795 874.748 320.342 880.702 318.727C921.018 307.802 964.111 280.081 991.466 249.14L1030.88 204.519Z" fill="#0E0717"/>
<path d="M802.764 332.812L803.816 332.776C806.563 340.346 816.479 345.445 821.127 352.765C818.625 352.117 818.097 352.321 815.711 352.852L814.742 352.927L805.143 341.578L802.165 341.691C802.943 338.836 802.746 335.751 802.764 332.812Z" fill="#33354A"/>
<path d="M1034.76 228.518C1037.18 231.337 1037.87 233.48 1038.09 237.085L1038.14 237.961C1039.87 237.027 1038.72 227.463 1039.9 224.407L1040.19 223.738C1043.02 248.064 1045.43 272.66 1047.62 297.053C1048.36 305.326 1048.93 313.593 1049.81 321.853C1050.05 324.196 1049.92 329.008 1050.8 331.058C1051.39 332.434 1053.93 334.827 1054.96 336.069C1054.51 336.91 1051.68 339.938 1051.67 339.985C1049.77 342.739 1048.58 343.878 1045.88 345.824C1043.36 347.635 1041.96 351.577 1040.1 354.079C1036.86 358.405 1033.05 362.463 1029.49 366.54C1020.43 376.924 1011.46 388.561 1001.31 397.906C979.097 418.355 950.187 429.939 920.316 433.956L922.943 431.95C916.111 430.206 908.755 432.721 901.379 431.382C931.334 429.566 961.629 421.153 985.899 403.344C995.664 396.176 1004.55 387.019 1012.76 378.198C1017.53 373.08 1021.38 367.481 1025.82 362.135C1031.06 355.818 1041.35 346.922 1043.46 338.994C1044.79 334.014 1043.36 325.02 1043.07 319.766C1041.42 289.21 1036.2 259.094 1034.76 228.518Z" fill="url(#paint7_linear_14_5177)"/>
<path d="M802.165 341.691L805.143 341.578L814.741 352.927L815.71 352.852C818.096 352.321 818.624 352.117 821.126 352.765C824.249 355.926 830.684 362.475 831.856 366.558L846.841 384.773C850.402 388.729 869.022 409.437 870.068 413.596C874.2 418.253 880.243 427.931 885.427 430.555L901.378 431.382C908.755 432.721 916.11 430.206 922.943 431.95L920.316 433.956L890.764 436.115L888.355 435.885C887.379 440.605 887.605 445.201 887.822 449.969C888.059 455.033 888.672 460.273 887.728 465.28L880.635 462.598L800.218 441.296C800.658 439.523 800.477 437.574 800.477 435.75L802.165 341.691Z" fill="#0E0717"/>
<path d="M846.841 384.772C850.402 388.729 869.022 409.436 870.068 413.595C870.63 415.475 871.263 417.11 871.22 419.09C869.466 417.945 867.785 416.753 865.881 415.863L841.948 386.68C843.752 386.231 845.224 385.683 846.841 384.772Z" fill="#2F2C3F"/>
<path d="M814.741 352.927L815.71 352.852C818.096 352.321 818.624 352.117 821.126 352.765C824.249 355.926 830.684 362.475 831.856 366.558L846.841 384.772C845.224 385.683 843.752 386.231 841.948 386.68L828.442 369.996C823.502 365.533 818.425 358.422 814.741 352.927Z" fill="#494451"/>
<path d="M831.857 366.558L846.841 384.773C845.224 385.683 843.752 386.231 841.948 386.68L828.442 369.996C832.089 371.462 833.663 372.941 835.906 376.118L836.568 377.088L837.132 376.49C834.768 373.444 832.948 371.151 832.036 367.346L831.857 366.558Z" fill="#33354A"/>
<path d="M870.068 413.595C874.2 418.253 880.243 427.931 885.427 430.555L901.378 431.382C908.755 432.72 916.111 430.206 922.943 431.949L920.316 433.955L890.764 436.115L888.355 435.884C887.379 440.605 887.605 445.201 887.822 449.969C888.059 455.033 888.672 460.272 887.728 465.279L880.635 462.597L882.057 461.01C883.515 455.169 883.195 446.241 881.061 440.612C880.464 439.04 880.086 437.921 879.997 436.216C879.729 431.139 869.368 420.306 865.881 415.863C867.785 416.753 869.467 417.945 871.22 419.09C871.263 417.11 870.63 415.475 870.068 413.595Z" fill="#25212E"/>
<path d="M1051.67 339.984C1062.39 353.693 1074.26 366.149 1086.64 378.428C1093.92 385.652 1100.71 393.245 1108.62 399.841C1127.69 415.735 1156.87 431.265 1181.9 434.15C1186.84 434.718 1196.53 436.106 1200.86 433.403L1205.01 435.835C1204.93 438.756 1201.76 440.301 1200.48 442.812C1199.58 444.579 1199.34 446.877 1199.06 448.808L1213.17 441.299L1273.33 417.185L1277.03 416.108C1283.12 414.434 1291.94 410.761 1298.14 411.751C1299.28 413.794 1300.37 415.731 1301.13 417.95C1302.24 417.26 1301.79 417.635 1302.53 416.896C1306.07 425.267 1305.66 438.92 1306.43 447.983C1309.01 478.156 1312.16 509.033 1311.56 539.328C1311.28 553.213 1309.72 567.46 1307.41 581.149C1306.58 586.025 1306.31 591.853 1304.44 596.375C1301.79 614.435 1297.49 632.287 1293.53 650.108C1289.67 667.519 1286.07 686.04 1279.03 702.53C1273.59 715.268 1264.99 726.528 1259.76 739.284C1247.72 781.737 1232.4 823.38 1215.97 864.389C1210.77 877.359 1206.19 891.32 1199.96 903.807C1179.02 955.722 1158.27 1014.18 1101.89 1038.14L1085 1044.27L1080.21 1045.63C1059.57 1051.59 1035.63 1052.77 1014.23 1052.73C957.53 1052.63 911.247 1030.25 871.847 991.427L873.05 987.495C870.81 985.086 870.196 984.94 869.975 981.571C873.249 977.171 874.858 971.621 877.922 966.967C885.325 955.727 894.067 945.187 901.657 934.013C903.147 931.82 906.266 928.001 907.017 925.496C908.13 921.784 906.714 913.999 906.466 909.901C905.362 891.734 904.141 873.43 901.253 855.443C899.157 842.378 895.707 829.73 893.079 816.788L896.521 812.362C894.051 804.557 889.517 796.656 887.535 789.028L881.587 786C871.281 779.437 860.826 772.99 851.599 764.994C827.52 744.125 811.432 717.176 795.842 690.068L794.291 685.28C783.564 663.049 774.105 640.262 768.462 616.212C766.147 606.344 765.287 596.186 763.094 586.267C761.886 578.606 762.107 570.369 761.835 562.608C761.518 553.493 760.743 544.149 761.546 535.053L770.003 436.711L795.668 440.676L800.218 441.295L880.635 462.597L887.729 465.279C888.672 460.272 888.06 455.033 887.822 449.969C887.605 445.201 887.379 440.605 888.355 435.884L890.765 436.115L920.316 433.955C950.187 429.938 979.097 418.355 1001.31 397.906C1011.46 388.56 1020.43 376.924 1029.49 366.54C1033.05 362.463 1036.86 358.404 1040.1 354.079C1041.96 351.576 1043.36 347.634 1045.88 345.823C1048.58 343.878 1049.77 342.739 1051.67 339.984Z" fill="url(#paint8_linear_14_5177)"/>
<path d="M911.535 466.007L916.931 472.192C914.414 472.468 912.319 471.939 909.857 471.487L907.905 468.762C909.411 468.019 910.35 467.169 911.535 466.007Z" fill="#2F2C3F"/>
<path d="M909.857 471.488C912.319 471.939 914.413 472.468 916.931 472.192C919.908 475.062 921.21 476.933 922.135 480.944L908.963 474.831L909.857 471.488Z" fill="#252132"/>
<path d="M1184.1 831.619C1179.21 825.978 1173.53 818.845 1170.24 812.187C1171.34 812.812 1172.23 813.262 1173 814.284L1175.14 817.05L1175.68 816.171C1174.88 814.478 1175.06 814.305 1175.2 812.536L1189 830.612L1185.58 830.232L1184.1 831.619Z" fill="#0E0717"/>
<path d="M947.07 866.481L966.132 837.677L966.542 840.07L965.726 841.179L962.494 846.24L963.407 847.047L966.439 843.77L967.143 844.869C964.554 848.565 956.035 863.623 952.737 865.188L951.129 863.847L947.07 866.481Z" fill="#25212E"/>
<path d="M1184.1 831.619L1185.58 830.232L1189 830.612C1193.74 837.974 1205.77 850.011 1204.26 858.802C1201.47 857.43 1199.84 853.876 1197.99 851.375C1193.16 844.862 1188.54 838.393 1184.1 831.619Z" fill="#252528"/>
<path d="M1165.79 910.28L1165.79 910.004C1171.43 906.203 1177.35 904.566 1183.47 901.762C1188.34 899.527 1193.12 895.944 1198.49 896.261L1199.13 898.5L1196.62 902.597C1187.82 907.614 1177.96 908.506 1168.88 912.781C1168.3 911.044 1167.38 911.102 1165.79 910.28Z" fill="#0E0717"/>
<path d="M887.822 449.969C887.605 445.201 887.379 440.605 888.355 435.884L890.764 436.115L890.252 438.526L911.535 466.007C910.35 467.169 909.411 468.019 907.904 468.761C903.524 464.555 899.362 460.187 895.591 455.438C893.765 453.139 892.166 448.874 889.521 447.734L887.822 449.969Z" fill="#252132"/>
<path d="M887.822 449.969L889.521 447.734C892.166 448.875 893.765 453.139 895.592 455.438C899.362 460.187 903.524 464.555 907.904 468.762L909.857 471.487L908.963 474.831L887.728 465.279C888.672 460.273 888.059 455.033 887.822 449.969Z" fill="#0E0717"/>
<path d="M1165.79 910.28C1167.38 911.102 1168.3 911.044 1168.88 912.78C1143.3 928.439 1122.68 948.936 1104.78 972.602C1097.3 982.491 1091.28 992.3 1082.62 1001.43C1080.43 1015.45 1084.01 1029.28 1082.28 1043.05L1085 1044.27L1080.21 1045.63C1076.03 1040.31 1077.07 1030.68 1076.87 1024.16L1078.25 1024.03L1079.36 1037.76C1080.17 1033.68 1080.15 1025.94 1079.16 1021.9C1078.49 1019.12 1079.72 1020.27 1080.4 1018.11C1080.8 1016.85 1080.15 1013.16 1080.07 1011.59C1079.9 1008.19 1080.03 1006.46 1080.82 1003.32C1081.74 999.619 1079.32 994.768 1080.61 990.834C1081.32 988.675 1081.49 983.684 1080.46 981.621L1079.98 980.921C1083.77 973.988 1077.38 958.527 1079.32 950.561C1081.21 942.778 1079.56 932.219 1079.13 923.869L1080.06 923.261C1082.05 934.062 1081 946.983 1081.06 958.01C1081.13 970.444 1081.96 982.819 1082.8 995.22C1088.35 989.946 1090.84 983.645 1095.61 977.96C1117.28 952.093 1136.8 928.692 1165.79 910.28Z" fill="#252528"/>
<path d="M913.737 923.535L914.482 923.741C926.568 926.721 942.019 922.294 954.95 923.975C991.379 928.708 1019.93 940.66 1047.06 965.004C1057.31 974.197 1066.45 984.515 1076.67 993.811L1076.77 911.501C1078 915.857 1077.85 920.562 1078.03 925.062C1075.19 929.711 1078.78 936.979 1077.73 942.119C1076.71 947.092 1077.03 951.299 1077.3 956.661C1077.39 958.326 1078.11 962.231 1077.66 963.711C1075.33 971.339 1077.49 983.353 1077.91 991.715C1077.95 992.6 1078.66 993.719 1078.04 994.37C1077.37 995.076 1076.13 994.845 1075.17 995.082C1072.76 992.917 1070.31 990.74 1067.6 988.931C1068.57 993.821 1076.24 995.816 1078.33 1000.1C1078.71 1000.88 1078.54 1004.28 1078.59 1005.31C1078.93 1011.98 1078.03 1017.49 1078.25 1024.03L1076.87 1024.16L1076.2 1001.38C1068.89 994.994 1062.72 987.269 1055.78 980.472C1028.77 954.018 999.389 933.857 960.367 929.693C944.903 928.042 928.458 931.762 913.463 928.787L912.299 928.54L913.737 923.535Z" fill="#25212E"/>
<path d="M896.521 812.363C906.473 846.765 910.535 880.051 913.49 915.571C921.694 904.771 928.943 893.654 936.382 882.36C939.816 877.14 944.182 871.975 947.07 866.48L951.129 863.847L952.738 865.188L913.737 923.535L912.299 928.54C903.365 938.561 895.613 950.243 888.197 961.4C882.356 970.182 876.863 977.582 873.049 987.496C870.81 985.087 870.195 984.94 869.975 981.572C873.249 977.171 874.858 971.622 877.922 966.968C885.325 955.727 894.066 945.187 901.657 934.013C903.147 931.821 906.266 928.001 907.017 925.497C908.13 921.784 906.714 913.999 906.465 909.902C905.362 891.734 904.141 873.43 901.252 855.443C899.156 842.378 895.707 829.731 893.079 816.789L896.521 812.363Z" fill="#252132"/>
<path d="M1168.88 912.78C1177.96 908.506 1187.82 907.613 1196.63 902.596L1199.96 903.807C1179.02 955.722 1158.27 1014.18 1101.89 1038.14L1085 1044.27L1082.28 1043.05C1084.01 1029.28 1080.43 1015.45 1082.62 1001.43C1091.28 992.3 1097.3 982.491 1104.78 972.602C1122.68 948.936 1143.3 928.439 1168.88 912.78Z" fill="#010103"/>
<path d="M912.299 928.54L913.463 928.787C928.458 931.762 944.903 928.042 960.367 929.693C999.388 933.857 1028.77 954.018 1055.78 980.472C1062.72 987.269 1068.89 994.994 1076.2 1001.38L1076.87 1024.16C1077.07 1030.68 1076.03 1040.31 1080.21 1045.63C1059.57 1051.59 1035.63 1052.77 1014.23 1052.73C957.53 1052.63 911.247 1030.25 871.846 991.428L873.049 987.495C876.863 977.582 882.356 970.182 888.196 961.4C895.613 950.243 903.365 938.56 912.299 928.54Z" fill="#010103"/>
<path d="M1277.03 416.109C1283.12 414.435 1291.94 410.761 1298.14 411.752C1299.28 413.794 1300.37 415.732 1301.13 417.951C1302.24 417.26 1301.79 417.635 1302.53 416.897C1306.07 425.267 1305.66 438.921 1306.43 447.983C1309.01 478.156 1312.16 509.033 1311.56 539.328C1311.28 553.214 1309.72 567.461 1307.41 581.15C1306.58 586.026 1306.31 591.854 1304.44 596.375C1301.79 614.435 1297.49 632.288 1293.53 650.108C1289.67 667.52 1286.07 686.04 1279.03 702.53C1273.59 715.268 1264.99 726.528 1259.76 739.285C1255.78 740.367 1253.63 745.467 1251.31 748.836C1242.52 761.615 1231.55 771.462 1217.35 778.35C1200.58 786.488 1183.14 787.408 1165.49 781.347C1132.57 770.04 1114.48 736.22 1100.44 707.481C1094.71 694.834 1086.95 679.495 1086.71 665.523C1086.51 654.186 1088.93 642.501 1090.81 631.333C1096.77 595.837 1106.37 561.321 1122.66 528.943C1130.16 514.024 1137.93 500.691 1149.84 488.601C1160.91 473.107 1183.05 459.395 1199.06 448.809L1213.17 441.3L1273.33 417.186L1277.03 416.109Z" fill="url(#paint9_linear_14_5177)"/>
<path d="M1235.29 503.547C1240.86 501.954 1248.29 501.754 1253.93 502.918C1258.62 503.883 1264.25 505.422 1266.81 509.656C1269.3 513.783 1273.21 517.379 1274.86 521.926C1275.31 523.155 1275.74 524.183 1276.34 525.336L1278.08 525.26C1278.92 528.799 1280.14 532.128 1279.02 535.713L1276.57 535.546L1275.84 538.425L1275.63 539.861C1274.9 542.425 1275.61 542.805 1273.86 545.34L1273.95 547.045C1271.4 547.721 1270.38 549.357 1268.81 551.293L1268.11 552.169L1266.07 551.989L1264.62 553.342C1263.27 553.986 1261.97 554.651 1260.52 555.07C1259.23 555.452 1258.2 555.644 1257.08 556.46C1254.39 558.407 1252.64 556.07 1250.88 556.159C1250.1 556.198 1249.68 557.347 1248.91 557.387C1248.72 557.396 1247.43 556.423 1247.12 556.354C1245.84 556.061 1243.3 556.538 1241.9 556.606C1240.4 555.413 1239.04 554.062 1237.1 553.689C1233.23 552.939 1231.12 549.325 1227.65 548.377L1226.95 548.27C1225.4 546.565 1223.11 544.587 1222.27 542.476L1221.98 541.714C1219.92 539.189 1219.03 529.26 1218.84 525.398L1219.93 524.206C1219.6 521.119 1220.36 519.384 1221.65 516.649L1222.37 514.998L1222.44 513.57C1225.24 509.816 1231.15 505.798 1235.29 503.547Z" fill="white"/>
<path d="M1277.03 416.109C1283.12 414.435 1291.94 410.761 1298.14 411.752C1299.28 413.794 1300.37 415.732 1301.13 417.951C1302.24 417.26 1301.79 417.635 1302.53 416.897C1306.07 425.267 1305.66 438.921 1306.43 447.983C1309.01 478.156 1312.16 509.033 1311.56 539.328C1311.28 553.214 1309.72 567.461 1307.41 581.15C1306.58 586.026 1306.31 591.854 1304.44 596.375L1304.01 595.338C1304.22 592.192 1304.55 591.34 1302.52 588.697C1300.21 585.704 1300.64 578.504 1300.72 574.89C1301.01 561.705 1301.6 548.694 1301.27 535.49C1300.54 537.528 1300.08 539.029 1298.59 540.678L1297.28 534.88C1296.77 552.009 1298.42 575.532 1290.71 591.081L1289.68 593.984L1288.22 593.764L1288.73 592.322L1287.51 592.127C1285.7 591.812 1286.4 591.965 1284.53 591.344C1283.8 587.28 1285.31 580.92 1285.6 576.56C1286.31 565.692 1286.84 554.784 1286.91 543.893C1287.1 510.096 1284.4 474.414 1278.96 441.044C1265.58 444.383 1252.82 449.905 1240.34 455.581C1209.72 469.499 1182.95 486.984 1160.96 512.229C1135.58 550.581 1121.34 595.285 1114.64 640.248C1113.38 648.706 1111.09 659.267 1112.87 667.656L1122.11 694.078L1122.23 694.872C1116.01 697.105 1114.25 701.717 1109.16 704.856C1106.82 706.298 1103.1 706.837 1100.44 707.481C1094.71 694.834 1086.95 679.495 1086.71 665.523C1086.51 654.186 1088.93 642.501 1090.81 631.333C1096.77 595.837 1106.37 561.321 1122.66 528.943C1130.16 514.024 1137.93 500.691 1149.84 488.601C1160.91 473.107 1183.05 459.395 1199.06 448.809L1213.17 441.3L1273.33 417.186L1277.03 416.109Z" fill="#EA3473"/>
<path d="M1294.69 447.147L1297.89 477.771L1297.79 478.771C1297.23 485.178 1297.8 491.665 1298.16 498.072L1296.89 498.854C1295.43 499.778 1295.85 499.282 1295.25 500.22L1292.33 463.81C1295.79 458.636 1294.54 453.222 1294.69 447.147Z" fill="#CF083D"/>
<path d="M1295.25 500.22C1295.85 499.282 1295.43 499.777 1296.89 498.854L1298.16 498.072C1297.8 491.665 1297.23 485.178 1297.79 478.771L1297.89 477.771L1301.27 535.49C1300.54 537.528 1300.08 539.029 1298.59 540.677L1297.28 534.88L1295.25 500.22Z" fill="#9C0139"/>
<path d="M1157.97 494.351C1182.58 466.821 1219.99 447.945 1254.2 434.503C1265.76 429.964 1278.22 426.665 1289.34 421.206L1290.26 420.744L1294.69 447.147C1294.54 453.222 1295.79 458.636 1292.33 463.81L1286.93 427.384C1244.84 442.607 1207.48 456.234 1172.95 485.26L1172.19 485.783C1152 500.499 1138.54 527.15 1129.11 549.287C1126.66 555.024 1123.67 560.41 1122.12 566.475L1120.8 566.131C1123.63 548.53 1134.63 527.009 1144.49 512.041C1146.32 509.267 1157.63 496.663 1157.97 494.351Z" fill="#B10028"/>
<path d="M1277.03 416.109C1283.12 414.434 1291.94 410.761 1298.14 411.751C1299.28 413.794 1300.37 415.731 1301.13 417.95C1302.24 417.26 1301.79 417.635 1302.53 416.896C1306.07 425.267 1305.66 438.92 1306.43 447.983C1309.01 478.156 1312.16 509.033 1311.56 539.328C1311.28 553.213 1309.72 567.461 1307.41 581.149C1306.58 586.025 1306.31 591.853 1304.43 596.375L1304 595.338C1304.22 592.192 1304.55 591.34 1302.52 588.697C1300.21 585.704 1300.64 578.503 1300.72 574.89C1301.01 561.704 1301.6 548.693 1301.27 535.49L1297.89 477.771L1294.69 447.147L1290.26 420.744L1289.34 421.206C1278.22 426.665 1265.76 429.964 1254.2 434.503C1219.99 447.945 1182.58 466.821 1157.97 494.352L1158.09 492.219C1160.13 489.833 1162.97 485.522 1165.75 484.183C1168.09 483.064 1169.37 480.484 1171.62 479.009L1186.29 467.955C1188.45 466.278 1190.87 465.118 1193 463.463L1195.83 461.214C1193.99 460.699 1192.73 460.247 1191.19 459.11L1189.88 458.117C1187.49 458.799 1185.42 460.683 1183.53 462.218L1181.44 463.932C1179.17 465.321 1180.75 463.894 1179.33 465.15L1170.54 472.443C1163.62 476.611 1155.78 484.622 1150.28 490.725L1149.84 488.601C1160.91 473.106 1183.05 459.395 1199.06 448.808L1213.17 441.299L1273.33 417.186L1277.03 416.109Z" fill="url(#paint10_linear_14_5177)"/>
<path d="M1149.84 488.601L1150.28 490.725C1155.78 484.622 1163.62 476.611 1170.54 472.443L1179.33 465.15C1180.75 463.894 1179.17 465.321 1181.44 463.932L1183.53 462.218C1185.42 460.683 1187.49 458.799 1189.88 458.117L1191.19 459.11C1192.73 460.248 1193.99 460.699 1195.83 461.214L1193 463.463C1190.87 465.118 1188.45 466.278 1186.29 467.955L1171.62 479.009C1169.37 480.484 1168.09 483.064 1165.75 484.183C1162.97 485.522 1160.13 489.833 1158.09 492.22L1157.97 494.352C1157.63 496.664 1146.32 509.268 1144.49 512.042C1134.63 527.01 1123.63 548.53 1120.8 566.131L1122.12 566.475C1123.67 560.411 1126.66 555.024 1129.1 549.287C1138.54 527.15 1152 500.499 1172.19 485.784L1172.95 485.26L1173.15 487.393L1186.17 477.051L1187.9 476.957L1188.8 475.92C1193.2 470.966 1202.66 465.422 1208.69 462.564C1210.9 464.18 1211.1 464.859 1211.55 467.533C1210.16 469.031 1210.73 468.994 1208.44 469.115L1207.71 469.754C1205.9 471.332 1204.95 471.868 1202.81 472.808L1200.84 474.045L1199.58 474.606C1197.95 475.412 1198.51 475.096 1197.27 476.424C1194.48 479.43 1190.14 481.286 1186.81 483.798C1182.62 486.959 1177.39 491.051 1173.7 494.73C1171.98 496.443 1170.64 498.989 1168.14 499.554L1167.22 500.718C1166.36 501.782 1165.49 502.608 1164.49 503.534C1162.93 504.98 1162.7 506.004 1162.17 508.038L1160.96 512.229C1135.58 550.58 1121.34 595.284 1114.64 640.248C1113.38 648.706 1111.09 659.266 1112.87 667.656L1122.11 694.077L1122.22 694.872C1116.01 697.105 1114.25 701.717 1109.16 704.856C1106.82 706.297 1103.1 706.837 1100.44 707.48C1094.71 694.834 1086.95 679.495 1086.71 665.522C1086.51 654.185 1088.93 642.501 1090.81 631.333C1096.77 595.837 1106.37 561.321 1122.66 528.943C1130.16 514.024 1137.93 500.691 1149.84 488.601Z" fill="#CF083D"/>
<path d="M1284.53 591.344C1286.4 591.965 1285.7 591.811 1287.51 592.127L1288.73 592.321L1288.22 593.764L1289.68 593.984L1290.71 591.081C1298.42 575.532 1296.77 552.008 1297.28 534.88L1298.59 540.677C1300.08 539.029 1300.54 537.528 1301.27 535.49C1301.6 548.693 1301.01 561.704 1300.72 574.89C1300.64 578.504 1300.21 585.704 1302.52 588.697C1304.55 591.34 1304.22 592.192 1304.01 595.338L1304.44 596.375C1301.79 614.435 1297.49 632.288 1293.53 650.108C1289.67 667.519 1286.07 686.04 1279.03 702.53C1273.59 715.268 1264.99 726.528 1259.76 739.285C1255.78 740.367 1253.63 745.467 1251.31 748.836C1242.52 761.615 1231.55 771.461 1217.35 778.35C1200.58 786.488 1183.14 787.408 1165.49 781.346C1132.57 770.04 1114.48 736.22 1100.44 707.48C1103.1 706.837 1106.82 706.297 1109.16 704.856C1114.25 701.717 1116.01 697.105 1122.23 694.872L1122.11 694.077L1123.14 693.714C1128.68 691.89 1133.53 689.037 1138.79 686.596C1155.38 678.906 1170.84 669.961 1186.44 660.55C1208.3 647.356 1230.13 634.155 1251.9 620.826C1257.75 617.241 1263.57 613.637 1269.32 609.895C1272.13 608.066 1275.52 605.265 1278.77 604.528C1280.38 604.165 1281.17 603.811 1282.54 602.939L1284.53 591.344Z" fill="white"/>
<path d="M1284.53 591.344C1286.4 591.965 1285.7 591.811 1287.51 592.127L1288.73 592.321L1288.22 593.764L1289.68 593.984L1290.71 591.081C1298.42 575.532 1296.77 552.008 1297.28 534.88L1298.59 540.677C1300.08 539.029 1300.54 537.528 1301.27 535.49C1301.6 548.693 1301.01 561.704 1300.72 574.89C1300.64 578.504 1300.21 585.704 1302.52 588.697C1304.55 591.34 1304.22 592.192 1304.01 595.338L1304.44 596.375C1301.79 614.435 1297.49 632.288 1293.53 650.108C1289.67 667.519 1286.07 686.04 1279.03 702.53C1273.59 715.268 1264.99 726.528 1259.76 739.285C1255.78 740.367 1253.63 745.467 1251.31 748.836C1242.52 761.615 1231.55 771.461 1217.35 778.35C1200.58 786.488 1183.14 787.408 1165.49 781.346C1132.57 770.04 1114.48 736.22 1100.44 707.48C1103.1 706.837 1106.82 706.297 1109.16 704.856C1114.25 701.717 1116.01 697.105 1122.23 694.872C1126.24 704.861 1132.02 714.68 1137.62 723.898C1146.99 739.33 1162.19 756.117 1180.75 760.449C1191.08 762.857 1202.14 759.661 1210.95 754.123C1224.04 745.895 1234.06 732.178 1241.83 719.255C1261.82 686.007 1272.71 649.686 1281.4 612.36L1282.54 602.939L1284.53 591.344Z" fill="#9C0139"/>
<path d="M1284.53 591.344C1286.4 591.965 1285.69 591.811 1287.51 592.127L1288.73 592.322L1288.22 593.764L1289.68 593.984L1290.71 591.081C1298.42 575.532 1296.77 552.008 1297.28 534.88L1298.59 540.677C1300.08 539.029 1300.54 537.528 1301.27 535.49C1301.6 548.694 1301.01 561.704 1300.72 574.89C1300.64 578.504 1300.21 585.704 1302.52 588.697C1304.55 591.34 1304.22 592.192 1304.01 595.338L1298.96 593.496L1297.58 589.03L1298.68 587.838L1298.45 560.58C1298.14 565.119 1298.74 568.69 1297.35 573.134L1298.03 575.372C1295.56 578.603 1295.68 587.614 1295.39 591.98L1296.6 593.056L1295.56 594.272C1292.47 597.918 1290.39 602.183 1286.77 605.381L1285.55 604.408L1285.38 605.056L1285.06 606.131L1284.62 607.773C1284.03 609.822 1282.89 610.871 1281.4 612.36L1282.54 602.939L1284.53 591.344Z" fill="#B10028"/>
<path d="M761.546 535.053L770.002 436.711L795.668 440.675L800.218 441.295L880.635 462.597L887.728 465.279L908.963 474.831L922.135 480.944C939.411 491.966 960.715 504.42 972.24 521.651C980.576 530.434 987.61 541.426 993.953 551.653C1011.79 580.419 1024.38 611.475 1034.02 643.709C1036.54 652.159 1040.5 663.437 1040.26 672.193C1040.05 679.888 1036.84 688.011 1034.49 695.341C1025.04 724.785 1011.21 753.444 987.132 774.327C969.481 789.633 948.081 798.644 924.179 797.151C911.752 796.373 899.197 793.233 887.535 789.028L881.587 786C871.281 779.437 860.826 772.99 851.599 764.994C827.52 744.125 811.432 717.176 795.841 690.068L794.291 685.28C783.563 663.049 774.105 640.262 768.462 616.212C766.147 606.344 765.286 596.186 763.093 586.267C761.886 578.606 762.107 570.369 761.835 562.608C761.518 553.493 760.743 544.149 761.546 535.053Z" fill="url(#paint11_linear_14_5177)"/>
<path d="M882.28 756.501C886.215 757.085 887.704 756.879 890.721 759.531L892.46 759.454L893.994 761.076C896.914 762.752 900.234 763.931 903.237 765.729L903.792 765.116L903.735 763.993C905.241 762.175 906.32 761.271 908.437 760.19C913.379 757.663 918.238 754.204 922.836 751.107C924.07 750.274 924.866 749.417 926.303 748.94C929.129 748.003 936.565 745.505 938.6 744.026C940.075 742.957 940.646 743.775 942.197 743.313C944.137 742.735 946.521 741.341 948.459 740.725C952.86 739.322 959.022 741.228 963.632 739.672L964.368 739.347C967.892 741.377 973.402 738.019 977.481 740.384C984.49 740.042 984.236 733.891 990.276 730.547L991.102 730.098C982.412 746.852 966.023 764.025 947.548 770.134C929.725 776.031 911.64 772.9 895.289 764.824C890.933 762.67 885.798 759.846 882.28 756.501Z" fill="white"/>
<path d="M776.169 521.878L782.132 452.525C808.018 456.507 832.772 462.854 857.705 470.593C890.869 480.886 924.062 493.665 949.898 517.217C953.982 524.222 960.732 530.118 965.028 537.213C965.538 538.052 966.704 540.003 966.841 540.947C966.913 541.423 966.258 543.021 966.401 543.244C967.009 544.208 968.271 542.931 968.973 544.693C969.521 546.074 970.499 546.411 971.264 547.542C971.939 548.54 972.118 549.721 972.354 550.864L971.717 552.208L969.208 558.917L957.119 541.711C949.018 533.152 942.155 524.661 932.746 517.253C894.247 486.943 838.514 473.474 790.865 464.351L786.128 526.623C783.801 522.375 783.706 519.061 783.658 514.398C785.829 512.025 784.502 508.253 784.787 505.234C784.914 503.907 784.918 504.878 784.841 503.532C782.763 504.789 781.535 506.753 780.307 508.773L779.91 509.462L778.962 507.817L778.594 506.131L778.001 506.161C778.207 509.193 779.047 513.516 778.111 516.379C777.356 518.683 777.492 521.149 777.426 523.557L776.169 521.878Z" fill="#EA3473"/>
<path d="M957.119 541.711L958.399 539.904C959.784 541.061 959.982 541.784 960.867 543.238C961.723 544.637 963.003 545.713 964.252 546.758L965.922 545.551L966.384 546.165C967.968 548.24 969.538 550.709 971.717 552.208L969.208 558.917L957.119 541.711Z" fill="#D91A68"/>
<path d="M761.546 535.054L770.003 436.711L795.668 440.676L800.218 441.295L880.635 462.597L887.729 465.279L908.964 474.831L922.136 480.944C939.411 491.966 960.715 504.42 972.24 521.652L970.86 522.882L968.142 520.43C966.268 517.959 964.481 516.447 962.038 514.484C961.894 511.81 958.801 510.008 956.777 508.222L954.784 509.169C953.055 510.027 952.384 510.768 950.435 510.238L949.605 509.992L951.153 511.912C954.011 512.6 956.493 515.322 958.677 517.216C958.8 519.473 960.472 519.712 960.966 522.13C958.171 519.092 955.097 516.655 951.837 514.132L949.898 517.217C924.062 493.665 890.869 480.886 857.706 470.592C832.772 462.853 808.018 456.507 782.132 452.525L776.169 521.878C774.73 526.904 775.228 533.121 775.241 538.33C775.277 553.602 776.09 569.367 777.889 584.521C777.291 586.994 777.033 589.261 775.454 591.331C771.261 570.358 770.877 545.528 771.75 524.201C771.261 522.053 770.983 519.851 769.88 517.92C767.149 518.692 765.783 520.733 764.023 522.767C763.783 524.612 763.6 526.416 763.092 528.207C762.36 530.789 763.145 534.854 763.318 537.579C762.648 536.74 762.109 535.959 761.546 535.054Z" fill="#EA3473"/>
<path d="M771.75 524.202L779.148 448.039C825.627 457.737 871.635 465.466 913.741 488.63C927.156 496.008 938.718 506.545 951.837 514.132L949.898 517.217C924.063 493.666 890.869 480.886 857.706 470.593C832.772 462.854 808.019 456.508 782.132 452.525L776.17 521.879C774.73 526.905 775.228 533.122 775.241 538.331C775.277 553.602 776.09 569.367 777.889 584.521C777.291 586.994 777.034 589.262 775.454 591.331C771.261 570.358 770.877 545.529 771.75 524.202Z" fill="#B10028"/>
<path d="M776.169 521.878L777.426 523.557C777.492 521.149 777.356 518.683 778.111 516.379C779.047 513.516 778.207 509.193 778 506.16L778.594 506.131L778.962 507.816L779.91 509.461L780.307 508.772C781.535 506.753 782.763 504.789 784.841 503.532C784.918 504.878 784.914 503.907 784.787 505.234C784.502 508.253 785.829 512.025 783.658 514.398C783.706 519.061 783.801 522.375 786.128 526.623C785.996 550.915 786.529 575.036 790.717 599.034C799.579 649.803 826.246 705.181 863.62 741.868C869.07 747.219 875.374 753 882.28 756.5C885.798 759.845 890.932 762.67 895.289 764.823C911.639 772.899 929.724 776.03 947.548 770.134C966.023 764.025 982.412 746.851 991.102 730.098C1001.56 716.13 1009.24 695.352 1013.17 678.495C1015.75 667.475 1011.54 656.768 1008.41 646.222C999.282 615.475 986.604 586.082 969.208 558.917L971.717 552.208L972.354 550.864C972.118 549.721 971.939 548.54 971.264 547.542C970.499 546.411 969.521 546.074 968.973 544.693C968.271 542.931 967.008 544.208 966.4 543.244C966.258 543.021 966.913 541.423 966.841 540.947C966.704 540.003 965.538 538.052 965.028 537.213C960.732 530.118 953.982 524.222 949.898 517.217L951.836 514.132C955.096 516.655 958.17 519.092 960.965 522.13C960.472 519.712 958.799 519.473 958.677 517.216C956.493 515.322 954.011 512.6 951.153 511.912L949.605 509.992L950.435 510.238C952.384 510.768 953.054 510.028 954.784 509.17L956.777 508.223C958.801 510.008 961.894 511.81 962.037 514.484C964.481 516.447 966.268 517.959 968.142 520.43L970.859 522.882L972.24 521.652C980.576 530.434 987.61 541.426 993.953 551.653C1011.79 580.42 1024.38 611.475 1034.02 643.709C1036.54 652.159 1040.5 663.438 1040.26 672.193C1040.05 679.889 1036.84 688.012 1034.49 695.341C1025.04 724.785 1011.21 753.444 987.132 774.327C969.481 789.633 948.081 798.645 924.179 797.151C911.752 796.373 899.197 793.233 887.535 789.028L881.587 786.001C871.281 779.438 860.826 772.99 851.599 764.994C827.52 744.125 811.432 717.176 795.841 690.068L794.291 685.28C783.563 663.049 774.105 640.262 768.462 616.213C766.147 606.344 765.286 596.186 763.093 586.268C761.886 578.606 762.107 570.369 761.835 562.608C761.518 553.493 760.743 544.149 761.546 535.054C762.109 535.959 762.648 536.74 763.318 537.579C763.145 534.854 762.36 530.789 763.092 528.207C763.6 526.416 763.783 524.612 764.023 522.767C765.782 520.733 767.149 518.692 769.88 517.92C770.983 519.851 771.261 522.053 771.75 524.201C770.877 545.528 771.26 570.358 775.454 591.331C777.033 589.262 777.291 586.994 777.889 584.521C776.089 569.367 775.276 553.602 775.241 538.33C775.228 533.121 774.73 526.905 776.169 521.878Z" fill="url(#paint12_linear_14_5177)"/>
<path d="M777.889 584.521L785.714 622.46L782.19 625.849C778.756 615.1 775.685 602.631 775.454 591.331C777.033 589.261 777.291 586.994 777.889 584.521Z" fill="#CF083D"/>
<path d="M785.714 622.46C789.543 635.318 794.14 646.788 799.28 659.15C800.526 662.144 800.842 666.765 803.059 669.079L801.663 670.001C798.174 666.067 799.36 662.753 797.311 658.574L796.975 657.687C796.515 656.532 796.739 657.015 795.723 655.815L795.638 654.895C795.358 653.356 794.685 652.401 793.899 651.085L792.101 647.476L791.601 646.524C789.771 642.864 788.31 638.077 787.65 634.061L786.809 634.677C787.182 639.358 788.314 644.342 789.841 648.727L790.182 651.525C790.334 652.769 790.294 652.349 790.967 653.778L789.31 654.717L782.19 625.849L785.714 622.46Z" fill="#B10028"/>
<path d="M1594.98 472.643C1592.04 471.758 1588.69 470.857 1585.57 470.573C1573.03 469.427 1563.18 477.159 1554.43 483.119C1551.79 483.435 1547.63 484.358 1545.05 483.999C1539.62 483.238 1532.52 476.803 1526.68 474.878C1518.58 472.205 1508.08 473.36 1501.16 477.506C1497.14 479.908 1493.19 483.678 1488.85 485.544C1485.58 486.947 1481.4 486.227 1478.14 487.617C1476.04 488.513 1474.9 489.816 1474.44 491.741C1473.94 493.868 1475.17 495.636 1476.66 497.281C1478.36 497.937 1480.02 498.461 1481.91 498.602C1492.51 499.386 1500.66 493.638 1508.05 488.352C1520.93 480.046 1530.21 493.344 1542.96 495.326C1554.81 497.168 1561.44 494.417 1570.24 488.32C1573.88 485.794 1577.82 482.824 1582.86 482.586C1589.17 482.288 1595.92 487.496 1601.19 490.041C1605.73 492.237 1610.79 493.219 1616.01 493.086C1619.84 492.989 1625.82 492.391 1628.34 489.853C1630.52 487.65 1630.12 485.995 1629.55 483.441C1628.47 482.329 1627.25 480.824 1625.66 480.202C1622.9 479.118 1617 481.398 1614.07 482.117L1594.98 472.643Z" fill="#B10028"/>
<path d="M1531.99 237.674C1528.86 237.983 1525.35 238.429 1522.32 239.344C1510.13 243.016 1504.39 253.632 1498.88 262.254C1496.57 263.523 1493.1 265.912 1490.54 266.555C1485.15 267.909 1475.69 264.8 1469.41 265.262C1460.68 265.902 1451.42 270.871 1446.81 277.18C1444.13 280.836 1442.12 285.694 1438.91 288.994C1436.48 291.478 1432.28 292.396 1429.85 294.864C1428.3 296.453 1427.81 298.047 1428.24 299.945C1428.71 302.04 1430.64 303.161 1432.75 304.078C1434.63 304.028 1436.41 303.875 1438.23 303.293C1448.44 300.027 1453.48 291.822 1458.02 284.317C1466.34 272.047 1480.86 280.488 1493.6 277.489C1505.45 274.7 1510.41 269.75 1515.9 260.991C1518.17 257.364 1520.53 253.225 1525.11 251.124C1530.86 248.491 1539.45 250.629 1545.47 250.938C1550.67 251.204 1555.82 250.189 1560.62 248.113C1564.14 246.593 1569.44 243.816 1570.66 240.599C1571.72 237.807 1570.61 236.475 1568.95 234.4C1567.45 233.808 1565.65 232.917 1563.9 232.953C1560.85 233.015 1556.36 237.271 1553.96 239.01L1531.99 237.674Z" fill="#B10028"/>
<path d="M1387.78 57.4181C1385.42 59.407 1382.83 61.7137 1380.95 64.1117C1373.38 73.7457 1375.68 85.1139 1376.85 94.8234C1375.79 97.0917 1374.53 100.867 1372.85 102.791C1369.32 106.848 1359.51 109.746 1354.66 113.616C1347.92 118.987 1343.61 127.985 1343.99 135.412C1344.21 139.717 1345.78 144.573 1345.32 148.908C1344.97 152.173 1342.12 155.229 1341.77 158.481C1341.54 160.573 1342.19 162.069 1343.8 163.29C1345.57 164.636 1347.89 164.417 1350.23 163.941C1351.74 162.852 1353.1 161.74 1354.21 160.275C1360.43 152.056 1359.14 142.93 1357.91 134.625C1356.63 120.544 1374.12 118.91 1382.59 109.481C1390.47 100.713 1391.27 94.1354 1389.98 84.3356C1389.45 80.2776 1388.65 75.78 1391.02 71.6016C1394 66.3648 1402.46 63.205 1407.6 60.0737C1412.05 57.3689 1415.6 53.7132 1418.17 49.4315C1420.05 46.295 1422.57 41.1957 1421.44 38.0416C1420.46 35.3052 1418.67 34.9012 1415.94 34.2357C1414.32 34.6172 1412.25 34.94 1410.84 35.9475C1408.38 37.698 1407.51 43.48 1406.69 46.1588L1387.78 57.4181Z" fill="#B10028"/>
</g>
<defs>
<filter id="filter0_d_14_5177" x="0" y="0" width="1928" height="1088" filterUnits="userSpaceOnUse" color-interpolation-filters="sRGB">
<feFlood flood-opacity="0" result="BackgroundImageFix"/>
<feColorMatrix in="SourceAlpha" type="matrix" values="0 0 0 0 0 0 0 0 0 0 0 0 0 0 0 0 0 0 127 0" result="hardAlpha"/>
<feOffset dy="4"/>
<feGaussianBlur stdDeviation="2"/>
<feComposite in2="hardAlpha" operator="out"/>
<feColorMatrix type="matrix" values="0 0 0 0 0 0 0 0 0 0 0 0 0 0 0 0 0 0 0.25 0"/>
<feBlend mode="normal" in2="BackgroundImageFix" result="effect1_dropShadow_14_5177"/>
<feBlend mode="normal" in="SourceGraphic" in2="effect1_dropShadow_14_5177" result="shape"/>
</filter>
<linearGradient id="paint0_linear_14_5177" x1="1278.22" y1="412.756" x2="1313.96" y2="391.724" gradientUnits="userSpaceOnUse">
<stop stop-color="#03040A"/>
<stop offset="1" stop-color="#2B2A2F"/>
</linearGradient>
<linearGradient id="paint1_linear_14_5177" x1="673.997" y1="552.309" x2="588.302" y2="507.995" gradientUnits="userSpaceOnUse">
<stop stop-color="#150F20"/>
<stop offset="1" stop-color="#2F3549"/>
</linearGradient>
<linearGradient id="paint2_linear_14_5177" x1="1257.82" y1="330.843" x2="1223.51" y2="101.114" gradientUnits="userSpaceOnUse">
<stop stop-color="#08000B"/>
<stop offset="1" stop-color="#201E32"/>
</linearGradient>
<linearGradient id="paint3_linear_14_5177" x1="1263.92" y1="313.491" x2="1281.22" y2="297.292" gradientUnits="userSpaceOnUse">
<stop stop-color="#33323B"/>
<stop offset="1" stop-color="#4F4F54"/>
</linearGradient>
<linearGradient id="paint4_linear_14_5177" x1="767.085" y1="785.083" x2="746.063" y2="796.69" gradientUnits="userSpaceOnUse">
<stop stop-color="#161421"/>
<stop offset="1" stop-color="#3A3B45"/>
</linearGradient>
<linearGradient id="paint5_linear_14_5177" x1="715.118" y1="676.356" x2="515.324" y2="484.255" gradientUnits="userSpaceOnUse">
<stop stop-color="#0F0615"/>
<stop offset="1" stop-color="#262B40"/>
</linearGradient>
<linearGradient id="paint6_linear_14_5177" x1="930.4" y1="290.548" x2="861.971" y2="174.624" gradientUnits="userSpaceOnUse">
<stop stop-color="#140D20"/>
<stop offset="1" stop-color="#2E3549"/>
</linearGradient>
<linearGradient id="paint7_linear_14_5177" x1="994.13" y1="402.091" x2="931.955" y2="324.342" gradientUnits="userSpaceOnUse">
<stop stop-color="#1B1525"/>
<stop offset="1" stop-color="#433F51"/>
</linearGradient>
<linearGradient id="paint8_linear_14_5177" x1="1201.38" y1="893.842" x2="774.878" y2="702.172" gradientUnits="userSpaceOnUse">
<stop stop-color="#010003"/>
<stop offset="1" stop-color="#150A23"/>
</linearGradient>
<linearGradient id="paint9_linear_14_5177" x1="1123.75" y1="690.967" x2="1332.66" y2="508.997" gradientUnits="userSpaceOnUse">
<stop stop-color="white"/>
<stop offset="1" stop-color="#F5FFFD"/>
</linearGradient>
<linearGradient id="paint10_linear_14_5177" x1="1303.37" y1="588.738" x2="1344.01" y2="426.602" gradientUnits="userSpaceOnUse">
<stop stop-color="#D71054"/>
<stop offset="1" stop-color="#F04979"/>
</linearGradient>
<linearGradient id="paint11_linear_14_5177" x1="980.97" y1="740.208" x2="857.043" y2="441.327" gradientUnits="userSpaceOnUse">
<stop stop-color="white"/>
<stop offset="1" stop-color="#FCFFFE"/>
</linearGradient>
<linearGradient id="paint12_linear_14_5177" x1="963.61" y1="787.669" x2="820.613" y2="486.194" gradientUnits="userSpaceOnUse">
<stop stop-color="#BB0032"/>
<stop offset="1" stop-color="#E81C5E"/>
</linearGradient>
<clipPath id="clip0_14_5177">
<rect width="1920" height="1080" fill="white" transform="translate(4)"/>
</clipPath>
</defs>
</svg>
