<svg width="1920" height="1080" viewBox="0 0 1920 1080" fill="none" xmlns="http://www.w3.org/2000/svg">
<g clip-path="url(#clip0_14_5417)">
<path d="M1251.98 191.953L1267.46 209.932L1257.2 208.68L1245.05 200.663L1239.29 198.675L1232.34 194.791C1237.25 192.066 1243.97 196.43 1249.86 195.909L1251.98 191.953Z" fill="#737A87"/>
<path d="M672.297 318.622C677.63 300.164 686.517 282.002 695.557 264.874L696.902 273.558C695.019 278.269 679.754 309.392 676.908 310.999L676.286 312.55C675.35 314.811 673.901 316.734 672.297 318.622Z" fill="#737A87"/>
<path d="M717.021 684.608L721.482 684.017L723.349 686.302L724.72 687.536C728.334 699.54 732.463 712.416 738.334 723.603C741.053 728.788 743.088 733.871 745.634 739.119C749.34 746.758 753.329 750.652 754.247 759.482C748.668 752.473 744.688 742.305 740.722 734.34C732.548 717.917 724.12 701.478 717.021 684.608Z" fill="#636375"/>
<path d="M1257.2 208.679L1267.46 209.932C1279.54 226.087 1290.35 241.942 1299.96 259.535C1298.34 258.451 1296.47 257.363 1295.28 255.855C1294.42 254.763 1294.18 253.989 1292.84 253.284C1291.74 252.705 1292.05 253.096 1291.28 252.153L1290.6 251.244C1279.95 237.211 1266.11 223.68 1257.2 208.679Z" fill="#494D5D"/>
<path d="M729.051 213.276C730.181 216.346 731.497 217.46 733.816 219.759L733.959 219.959C727.757 229.203 718.472 238.768 713.637 248.461C711.962 250.076 708.049 252.977 707.495 254.977C706.82 257.419 704.208 259.836 703.106 262.432C702.15 264.679 698.678 272.124 696.902 273.559L695.557 264.874C704.934 246.7 716.151 229.463 729.051 213.276Z" fill="#758092"/>
<path d="M1245.04 200.663L1257.2 208.679C1266.11 223.68 1279.95 237.211 1290.6 251.244L1291.28 252.153C1292.05 253.096 1291.74 252.706 1292.84 253.285C1294.18 253.99 1294.42 254.763 1295.28 255.856C1296.47 257.364 1298.34 258.452 1299.96 259.535L1315.52 288.288L1313.09 293.661C1312.06 291.002 1311.01 288.264 1308.94 286.167C1301.79 278.96 1297.71 267.781 1291.52 259.511C1283.98 249.428 1275.88 238.735 1267.72 229.177C1259.53 219.588 1251.3 211.642 1245.04 200.663Z" fill="#3A3C4D"/>
<path d="M1223.21 190.588C1226.1 192.137 1229.09 194.052 1232.34 194.791L1239.29 198.674L1245.05 200.663C1251.3 211.642 1259.53 219.588 1267.72 229.177C1275.88 238.735 1283.98 249.428 1291.52 259.511C1297.71 267.781 1301.79 278.959 1308.94 286.167C1311.01 288.263 1312.06 291.002 1313.09 293.66L1311.7 296.284C1310.31 295.061 1309.22 294.102 1308.18 292.586C1304.89 287.79 1301.14 283.983 1298.28 278.814L1297.14 279.269C1292.57 275.719 1289.87 269.359 1286.69 264.666C1283.29 259.657 1278.02 255.605 1274.89 250.881C1272.51 247.285 1271.4 243.374 1268.67 239.812C1261.74 230.781 1253.84 222.165 1246.13 213.718C1242.64 209.895 1238 206.24 1235.72 201.673C1234.38 199.525 1232.73 198.371 1230.4 197.24C1226.62 195.402 1225.16 194.19 1223.21 190.588Z" fill="#2E3245"/>
<path d="M1223.21 190.588C1226.1 192.137 1229.09 194.052 1232.34 194.791L1239.29 198.674C1245.03 209.95 1255.13 219.656 1263.31 229.45C1266.4 233.153 1270.31 237.044 1272.18 241.447C1273.88 245.455 1275.56 248.444 1278.94 251.412C1281.42 253.576 1277.45 250.041 1280.35 253.147L1281.42 253.939C1288.13 259.035 1294.02 270.839 1298.36 278.051L1298.28 278.814L1297.14 279.269C1292.57 275.719 1289.87 269.359 1286.69 264.666C1283.29 259.657 1278.02 255.605 1274.89 250.881C1272.51 247.285 1271.4 243.374 1268.67 239.812C1261.74 230.781 1253.84 222.165 1246.13 213.718C1242.64 209.895 1238 206.24 1235.72 201.673C1234.38 199.525 1232.73 198.371 1230.4 197.24C1226.62 195.402 1225.16 194.19 1223.21 190.588Z" fill="#312C3D"/>
<path d="M1315.52 288.288L1320.16 299.014C1326.78 316.148 1332.79 333.05 1337.95 350.629C1340.76 360.191 1344.11 370.707 1344.91 380.65C1339.34 385.184 1327.9 387.375 1320.78 389.319C1318.08 385.816 1319.68 382.198 1317.81 378.696C1316.75 376.735 1317.33 375.026 1316.68 373.073C1315.45 369.368 1315.88 365.117 1314.63 361.765C1314.15 360.474 1313.42 359.977 1313.27 358.515C1312.99 355.805 1313.37 351.825 1312.49 349.316C1310.95 344.9 1309.16 339.201 1308.27 334.52C1307.38 329.838 1308.88 325.277 1305.63 321.601L1308.17 316.043L1303.23 312.921L1298.06 311.623L1296.19 309.302L1297.47 307.427C1300.98 307.39 1303.27 307.097 1306.53 305.806C1308.85 303.378 1310.23 299.273 1311.7 296.284L1313.09 293.661L1315.52 288.288Z" fill="#1F1C26"/>
<path d="M1315.52 288.288L1320.16 299.014L1315.98 298.634C1312.11 304.178 1309.5 309.535 1308.17 316.043L1303.23 312.921L1298.06 311.623L1296.19 309.302L1297.47 307.427C1300.98 307.39 1303.27 307.097 1306.53 305.806C1308.85 303.378 1310.23 299.273 1311.7 296.284L1313.09 293.661L1315.52 288.288Z" fill="#494D5D"/>
<path d="M1084.77 84.4429C1131.4 96.3695 1184.12 125.686 1217.04 158.512C1223.62 163.17 1229.97 169.481 1235.3 175.387L1251.98 191.953L1249.86 195.909C1243.97 196.43 1237.25 192.066 1232.34 194.791C1229.09 194.052 1226.1 192.137 1223.21 190.588C1212.85 186.019 1204.5 179.977 1195.19 173.995C1178.7 163.413 1162.64 152.218 1147.05 140.501C1137.82 133.559 1128.6 125.481 1118.5 119.71L1117.38 117.208L1097.69 102.051L1091.19 95.0836L1092.53 92.8778C1090.98 88.6386 1086.27 88.222 1084.77 84.4429Z" fill="#525061"/>
<path d="M1152.1 138.765C1158.68 138.073 1166.16 144.103 1171.12 147.682C1179.86 153.982 1189.12 159.719 1197.77 165.964C1203.26 169.932 1208.3 174.588 1214.31 177.804C1219.57 180.621 1222.65 182.511 1228.83 183.735C1232.01 186.061 1234.58 188.652 1237.28 191.444C1206.76 178.143 1176.82 160.368 1152.1 138.765Z" fill="#312C3D"/>
<path d="M1110.43 101.642C1114.2 102.076 1117.17 102.504 1120.58 104.065C1121.75 104.6 1122.71 104.629 1123.96 104.909C1129.8 106.222 1135.99 110.414 1141.21 113.182C1155.27 120.643 1168.34 128.6 1181.94 136.65C1186.45 139.323 1191.43 141.34 1195.84 144.162C1203.4 149.006 1207.06 157.053 1217.04 158.511C1223.62 163.17 1229.97 169.48 1235.3 175.387C1214.67 169.043 1202.57 151.559 1185.11 140.631C1170.97 131.779 1156.75 122.919 1141.54 115.616C1131.59 110.845 1119.3 107.678 1110.43 101.642Z" fill="#616472"/>
<path d="M1152.1 138.765L1117.12 112.031C1123.85 113.598 1128.77 117.442 1134.78 120.391C1143.34 124.586 1152.19 127.804 1160.53 132.476C1168.11 136.723 1174.53 141.984 1181.46 147.024C1187.65 151.519 1194.59 155.077 1200.65 159.737C1206.99 164.618 1212.17 170.633 1218.09 175.937C1221.37 178.877 1225.78 180.704 1228.83 183.735C1222.65 182.511 1219.57 180.621 1214.31 177.804C1208.3 174.588 1203.26 169.932 1197.77 165.964C1189.12 159.719 1179.86 153.982 1171.12 147.682C1166.15 144.103 1158.68 138.073 1152.1 138.765Z" fill="#2E3245"/>
<path d="M1084.77 84.4429C1131.4 96.3695 1184.12 125.686 1217.04 158.512C1207.06 157.053 1203.4 149.006 1195.84 144.162C1191.43 141.341 1186.45 139.324 1181.94 136.651C1168.34 128.601 1155.27 120.643 1141.21 113.182C1135.99 110.414 1129.8 106.223 1123.96 104.91C1122.71 104.629 1121.75 104.6 1120.59 104.065C1117.17 102.504 1114.2 102.076 1110.43 101.642C1106.2 99.2008 1102.49 96.9435 1097.5 96.0244C1104.75 102.074 1112.47 107.945 1118.63 115.012L1117.38 117.208L1097.69 102.051L1091.19 95.0836L1092.53 92.8778C1090.98 88.6386 1086.27 88.222 1084.77 84.4429Z" fill="#737A87"/>
<path d="M958.002 74.0062C983.754 70.131 1013.26 69.5129 1038.93 74.088L1040.62 74.3764L1032.32 82.9887C1028.98 86.6187 1025.68 90.7061 1021.95 93.9547L1019.18 91.0728L1014.79 94.9067C1009.95 92.4843 996.202 94.0299 990.198 94.4538C988.09 94.6011 984.201 95.3995 982.42 94.6249C981.285 94.1338 980.379 93.9926 979.165 93.7832L975.435 92.9122C974.278 92.6224 973.649 92.3668 972.557 92.7997C969.756 93.9136 967.204 94.1641 964.226 94.3201L963.095 95.5392C960.802 97.4781 956.897 97.242 954.045 97.3651C951.954 98.893 950.408 98.2593 948.751 100.04L944.4 99.2264C940.998 101.711 937.401 99.7358 934.243 102.258C932.321 103.794 929.976 103.824 927.636 103.894L926.338 102.843C924.86 103.683 924.886 103.957 924.071 105.305L922.762 104.267C919.491 106.654 915.105 104.725 912.437 106.674C908.854 109.29 904.395 110.291 899.99 110.535L899.853 111.226C899.456 112.682 898.647 113.941 897.905 115.264C895.719 115.426 895.953 115.831 894.172 114.393L893.466 114.701C891.921 115.314 892.735 114.978 890.883 115.464C889.099 115.936 889.063 116.297 887.65 117.17C885.835 118.29 884.378 118.703 882.252 118.726L881.773 120.475L880.39 120.826C876.736 121.789 874.476 124.175 871.165 125.846C869.924 126.468 868.93 127.689 868.055 128.684C862.08 135.464 850.968 139.226 842.763 142.491C837.021 144.774 831.811 148.131 825.922 150.325C824.1 151.003 823.322 151.879 821.807 152.988L820.115 153.903C818.015 155.018 816.506 156.467 814.844 158.086L814.735 158.781C814.128 160.956 812.716 162.228 810.953 163.544C809.965 164.28 809.397 165.282 808.797 166.271C808.068 167.472 807.209 167.747 806.082 168.514C803.726 170.111 802.647 172.004 800.076 173.512L797.775 175.395C795.25 177.41 791.47 181.132 788.518 182.063C786.918 182.569 786.185 183.292 784.984 184.364C782.973 184.521 781.636 184.306 780.204 185.865C779.393 186.743 774.297 192.334 774.005 193.209C773.156 195.766 774.307 196.432 772.65 199.356C770.804 202.612 768.494 204.402 766.112 207.175C761.089 213.019 758.847 217.145 751.637 221.006L749.643 224.551L748.403 226.336C744.487 224.496 742.136 222.487 739.273 219.401C736.461 215.881 734.197 212.504 732.401 208.427C758.561 175.696 789.26 146.517 825.578 123.74C836.455 116.19 847.866 109.686 860.048 104.178C866.717 100.028 874.738 97.011 882.064 94.0129C906.616 83.9687 931.699 78.016 958.002 74.0062Z" fill="#737A87"/>
<path d="M825.578 123.74C836.455 116.19 847.866 109.686 860.048 104.178C858.285 107.401 857.042 109.526 853.933 111.736C847.859 115.472 840.345 118.769 835.078 123.389C833.099 125.126 830.365 126.173 828.218 127.84C824.966 130.361 822.768 133.343 819.303 135.427L816.988 137.324L816.338 136.785C819.606 133.377 823.452 130.244 824.815 125.798L825.578 123.74Z" fill="#737B8B"/>
<path d="M860.049 104.178C866.718 100.028 874.738 97.0113 882.065 94.0132C906.616 83.969 931.7 78.0162 958.002 74.0064L957.277 75.3451L953.686 75.6286L952.621 77.7025C946.19 79.7688 940.254 79.8474 933.769 81.1402C931.15 81.6627 928.722 82.9133 926.132 83.4014C923.069 83.9743 921.81 83.5395 918.918 85.0797C915.056 87.1405 911.014 88.0149 907.019 89.5458C898.215 92.9202 887.564 98.6934 878.403 100.457C876.168 100.887 875.02 101.661 873.15 102.788C868.387 105.661 859.385 110.784 853.933 111.736C857.042 109.526 858.285 107.401 860.049 104.178Z" fill="#758092"/>
<path d="M739.274 219.402C745.212 207.772 755.549 197.762 764.657 188.251C771.411 181.194 778.886 172.716 787.132 167.233L793.21 163.174L794.949 161.875C800.271 158.778 803.681 153.415 808.677 149.965C816.193 144.779 823.801 139.979 831.387 134.846C835.577 132.013 840.819 127.782 845.642 126.277C846.903 125.885 846.545 126.131 847.561 125.39C855.902 119.28 865.585 115.028 874.953 110.676C877.907 109.304 880.615 106.912 883.776 106.018L896.903 101.608C901.625 100.146 905.954 98.1857 910.6 96.5772C911.986 96.0961 912.798 96.0331 914.004 95.1487C916.44 93.3665 921.073 93.798 923.763 92.7451C932.036 89.501 941.034 88.7643 949.573 86.2486C953.137 85.1985 955.913 86.812 959.219 84.3874C967.964 83.8748 975.803 81.7953 984.542 81.3566C986.363 81.2658 986.781 81.9331 988.392 82.2187C991.693 82.7987 996.07 80.7995 999.352 81.4161C1000.84 81.6963 1001.31 82.4387 1002.98 82.3385C1009.85 81.9354 1017.77 81.2702 1024.49 82.4159L1025.21 84.0755L1019.18 91.0731L1014.79 94.9069C1009.95 92.4846 996.203 94.0302 990.199 94.4541C988.09 94.6014 984.202 95.3998 982.42 94.6251C981.285 94.1341 980.38 93.9929 979.166 93.7835L975.436 92.9125C974.279 92.6226 973.649 92.3671 972.557 92.8C969.756 93.9139 967.205 94.1644 964.227 94.3203L963.096 95.5395C960.803 97.4784 956.898 97.2423 954.046 97.3654C951.954 98.8933 950.408 98.2596 948.752 100.04L944.401 99.2267C940.999 101.711 937.401 99.736 934.244 102.258C932.322 103.794 929.976 103.824 927.637 103.895L926.339 102.843C924.861 103.683 924.887 103.957 924.072 105.306L922.762 104.267C919.491 106.654 915.105 104.725 912.437 106.674C908.855 109.29 904.396 110.292 899.99 110.536L899.853 111.227C899.456 112.682 898.647 113.942 897.906 115.264C895.72 115.426 895.953 115.831 894.173 114.393L893.466 114.701C891.921 115.314 892.735 114.978 890.884 115.464C889.1 115.937 889.064 116.297 887.65 117.17C885.836 118.291 884.379 118.704 882.252 118.726L881.773 120.475L880.391 120.827C876.736 121.789 874.476 124.175 871.165 125.846C869.924 126.469 868.931 127.689 868.056 128.684C862.08 135.464 850.969 139.226 842.763 142.492C837.021 144.774 831.812 148.132 825.922 150.325C824.1 151.003 823.322 151.879 821.808 152.989L820.116 153.903C818.016 155.018 816.507 156.467 814.845 158.087L814.736 158.781C814.129 160.956 812.717 162.228 810.954 163.544C809.966 164.28 809.398 165.282 808.797 166.271C808.068 167.472 807.209 167.747 806.082 168.514C803.727 170.111 802.648 172.004 800.076 173.512L797.776 175.396C795.251 177.41 791.47 181.132 788.518 182.063C786.918 182.569 786.186 183.292 784.984 184.364C782.974 184.522 781.637 184.307 780.205 185.865C779.393 186.744 774.298 192.334 774.005 193.21C773.157 195.766 774.308 196.432 772.65 199.357C770.805 202.612 768.495 204.403 766.113 207.175C761.089 213.019 758.847 217.146 751.637 221.007L749.644 224.552L748.404 226.336C744.487 224.496 742.136 222.487 739.274 219.402Z" fill="#494D5D"/>
<path d="M713.637 248.461C718.472 238.768 727.758 229.202 733.959 219.959C737.176 222.846 739.786 225.178 741.593 229.114L742.898 230.558L742.97 231.453C737.99 233.761 737.705 238.233 734.834 242.526L733.812 244.251C731.031 248.919 726.563 252.366 724.291 257.052L723.526 258.15C721.36 261.306 719.165 265.728 718.193 269.289C717.877 270.445 717.906 270.102 717.08 271.307C716.147 272.665 715.991 273.31 715.817 274.872C713.919 276.517 712.867 278.042 711.286 279.79L708.986 281.674L708.502 283.44L709.749 283.92L708.67 285.719L709.958 286.771L709.767 287.748L708.995 293.394C708.656 295.886 707.274 298.221 706.713 300.756C705.991 304.011 705.223 307.494 703.12 310.197C703.281 312.385 703.822 312.509 702.208 314.266C701.339 312.491 701.217 312.113 699.514 311.039C697.772 313.239 697.513 313.798 696.855 316.387C695.864 320.295 693.974 321.879 694.522 326.306L693.43 328.106C694.553 328.994 693.802 328.651 695.903 328.496C696.263 332.289 693.532 337.382 692.364 341.083C690.748 346.187 689.88 351.412 688.195 356.559L686.406 357.27L686.027 358.838C685.453 361.084 684.45 362.678 683.238 364.675C681.406 367.697 681.454 370.898 680.573 374.125C680.139 375.718 680.44 376.28 681.178 377.719L680.087 379.519C681.108 381.104 680.353 380.502 682.566 381.054C681.863 382.224 681.356 383.163 680.33 384.116C673.111 406.226 674.185 430.181 673.449 452.99C673.308 457.366 671.345 466.026 673.636 469.635L674.64 471.033C671.86 477.814 674.476 481.93 675.249 488.753C675.591 491.787 675.071 494.848 675.449 497.906C676.606 507.309 679.069 517.879 681.039 527.177C683.244 537.599 686.613 547.674 688.443 558.23L690.513 559.306L692.385 556.069L695.299 553.175L696.84 556.675L695.56 561.32L691.276 573.361C689.267 577.042 687.446 580.419 686.221 584.406C685.824 585.694 685.177 586.681 684.378 587.781L684.631 591.057C685.701 591.776 687.921 592.856 688.677 593.765C693.124 599.13 695.175 610.726 697.383 617.442C700.954 628.303 706.449 638.725 709.935 649.495C712.895 658.635 715.433 670.473 721.169 678.425C718.853 678.896 717.307 679.201 715.296 680.47C704.784 658.763 696.519 636.142 688.375 613.565C666.83 553.851 651.676 495.154 651.751 431.466C652.766 393.535 659.464 354.787 672.297 318.622C673.901 316.734 675.35 314.811 676.286 312.55L676.908 310.999C679.754 309.392 695.019 278.269 696.902 273.558C698.678 272.124 702.151 264.679 703.106 262.431C704.208 259.836 706.82 257.418 707.495 254.977C708.049 252.976 711.962 250.076 713.637 248.461Z" fill="#616472"/>
<path d="M696.902 273.558C698.678 272.124 702.151 264.679 703.106 262.432C704.208 259.836 706.82 257.418 707.495 254.977C708.049 252.976 711.962 250.076 713.637 248.461L713.099 249.707C710.605 255.422 706.809 260.165 704.065 265.688C695.197 283.542 686.671 301.325 679.974 319.929C678.373 324.383 675.857 328.275 674.836 332.916C673.863 337.348 671.869 341.441 670.894 345.815L667.595 359.244C665.879 365.291 663.639 371.738 662.854 377.931C662.352 381.876 661.872 386.301 660.697 390.117L659.791 390.184L658.891 386.24C656.976 393.667 657.233 401.895 655.343 408.856C654.68 411.299 656.691 411.699 654.503 414.076C654.705 416.833 656.146 424.094 654.848 426.237C654.01 427.62 654.423 426.894 653.865 428.367C653.361 429.683 652.704 430.416 651.751 431.466C652.766 393.535 659.464 354.788 672.296 318.622C673.901 316.734 675.35 314.811 676.286 312.55L676.908 310.999C679.754 309.392 695.019 278.269 696.902 273.558Z" fill="#737B8B"/>
<path d="M690.513 559.306C690.086 563.301 686.461 569.053 684.569 572.737C680.098 549.33 671.873 526.324 668.241 502.905C667.243 496.48 667.376 489.893 666.732 483.427C664.527 461.325 663.283 438.372 665.107 416.163C668.487 375.017 681.503 332.994 699.285 295.389C701.579 290.533 702.946 285.277 705.448 280.556C711.941 268.296 719.852 257.401 727.618 245.924C730.117 242.233 734.492 232.251 738.102 230.264C739.167 229.675 740.431 229.496 741.593 229.114L742.898 230.557L742.97 231.453C737.99 233.761 737.705 238.233 734.834 242.526L733.811 244.251C731.03 248.919 726.563 252.365 724.29 257.052L723.526 258.15C721.36 261.306 719.165 265.728 718.193 269.289C717.877 270.444 717.905 270.102 717.08 271.307C716.147 272.664 715.99 273.31 715.817 274.872C713.919 276.517 712.866 278.042 711.286 279.79L708.986 281.673L708.502 283.44L709.749 283.92L708.669 285.719L709.958 286.771L709.767 287.747L708.995 293.394C708.655 295.886 707.274 298.221 706.712 300.756C705.99 304.011 705.223 307.494 703.12 310.196C703.281 312.385 703.822 312.509 702.208 314.266C701.339 312.491 701.217 312.112 699.514 311.039C697.772 313.239 697.512 313.798 696.854 316.387C695.864 320.295 693.974 321.879 694.521 326.306L693.43 328.106C694.553 328.994 693.802 328.651 695.903 328.495C696.263 332.289 693.532 337.382 692.364 341.083C690.748 346.187 689.879 351.412 688.195 356.559L686.406 357.27L686.027 358.838C685.453 361.084 684.449 362.678 683.238 364.675C681.406 367.697 681.453 370.898 680.573 374.125C680.139 375.718 680.44 376.28 681.178 377.719L680.086 379.519C681.107 381.104 680.353 380.502 682.565 381.054C681.863 382.224 681.356 383.162 680.33 384.116C673.111 406.226 674.184 430.18 673.449 452.99C673.307 457.366 671.345 466.025 673.635 469.635L674.64 471.033C671.86 477.814 674.476 481.93 675.249 488.752C675.591 491.787 675.071 494.848 675.449 497.906C676.606 507.309 679.069 517.879 681.038 527.177C683.244 537.599 686.613 547.674 688.443 558.23L690.513 559.306Z" fill="#3A3C4D"/>
<path d="M749.643 224.552L751.637 221.007C758.847 217.146 761.089 213.019 766.112 207.176C768.494 204.403 770.804 202.612 772.65 199.357C774.307 196.432 773.156 195.766 774.005 193.21C774.297 192.334 779.393 186.744 780.205 185.865C781.637 184.307 782.973 184.522 784.984 184.364C786.185 183.292 786.918 182.569 788.518 182.063C791.47 181.132 795.25 177.411 797.776 175.396L800.076 173.512C802.648 172.005 803.726 170.112 806.082 168.514C807.209 167.747 808.068 167.472 808.797 166.271C809.397 165.282 809.965 164.281 810.954 163.544C812.716 162.229 814.128 160.956 814.736 158.781L814.844 158.087C816.507 156.468 818.015 155.018 820.115 153.903L821.807 152.989C823.322 151.879 824.1 151.003 825.922 150.325C831.811 148.132 837.021 144.774 842.763 142.492C850.968 139.226 862.08 135.464 868.055 128.684C868.931 127.69 869.924 126.469 871.165 125.846C874.476 124.175 876.736 121.79 880.39 120.827L881.773 120.475L882.252 118.726C884.379 118.704 885.835 118.291 887.65 117.171C889.063 116.297 889.099 115.937 890.883 115.464C892.735 114.978 891.921 115.314 893.466 114.701L894.173 114.393C895.953 115.831 895.72 115.426 897.905 115.264C898.647 113.942 899.456 112.682 899.853 111.227L899.99 110.536C904.395 110.292 908.854 109.29 912.437 106.675C915.105 104.726 919.491 106.654 922.762 104.267L924.072 105.306C924.887 103.957 924.86 103.684 926.339 102.844L927.637 103.895C929.976 103.824 932.321 103.794 934.243 102.258C937.401 99.7362 940.999 101.711 944.4 99.2268L948.751 100.04C950.408 98.2598 951.954 98.8935 954.045 97.3656C956.897 97.2424 960.802 97.4785 963.095 95.5396L964.227 94.3205C967.204 94.1646 969.756 93.9141 972.557 92.8001C973.649 92.3672 974.278 92.6228 975.436 92.9126L979.165 93.7837C980.379 93.993 981.285 94.1343 982.42 94.6253C984.201 95.4 988.09 94.6016 990.198 94.4543C996.202 94.0303 1009.95 92.4847 1014.79 94.9071C990.565 119.148 964.757 141.349 935.518 160.246C880.401 195.863 815.204 215.881 749.643 224.552Z" fill="#2E3245"/>
<path d="M742.969 231.453C743.925 282.872 742.609 333.358 735.973 384.55C730.869 423.91 721.716 463.042 710.871 501.375L696.898 541.06C695.921 546.044 694.311 550.126 692.106 554.746L692.385 556.069L690.512 559.306L688.443 558.23C686.613 547.675 683.243 537.6 681.038 527.178C679.069 517.879 676.605 507.309 675.449 497.907C675.071 494.848 675.591 491.788 675.249 488.753C674.476 481.93 671.86 477.814 674.639 471.034L673.635 469.635C671.345 466.026 673.307 457.367 673.449 452.99C674.184 430.181 673.111 406.226 680.33 384.116C681.355 383.163 681.862 382.225 682.565 381.055C680.352 380.503 681.107 381.104 680.086 379.519L681.178 377.719C680.44 376.28 680.139 375.719 680.573 374.126C681.453 370.898 681.406 367.698 683.237 364.675C684.449 362.678 685.453 361.084 686.027 358.839L686.406 357.27L688.194 356.56C689.879 351.412 690.748 346.187 692.364 341.083C693.532 337.382 696.263 332.289 695.903 328.496C693.801 328.651 694.553 328.995 693.43 328.107L694.521 326.307C693.974 321.879 695.864 320.296 696.854 316.388C697.512 313.798 697.772 313.239 699.513 311.039C701.217 312.113 701.339 312.491 702.208 314.266C703.822 312.51 703.281 312.385 703.12 310.197C705.222 307.495 705.99 304.011 706.712 300.757C707.274 298.221 708.655 295.887 708.995 293.394L709.767 287.748L709.958 286.771L708.669 285.72L709.748 283.921L708.502 283.441L708.986 281.674L711.286 279.79C712.866 278.042 713.919 276.518 715.817 274.872C715.99 273.31 716.146 272.665 717.08 271.308C717.905 270.103 717.877 270.445 718.193 269.289C719.165 265.729 721.36 261.306 723.526 258.15L724.29 257.052C726.563 252.366 731.03 248.919 733.811 244.251L734.833 242.527C737.705 238.233 737.99 233.761 742.969 231.453Z" fill="url(#paint0_linear_14_5417)"/>
<path d="M678.874 438.365L680.687 439.231C680.952 441.483 679.786 443.168 680.261 444.849C680.768 446.648 680.762 447.805 680.588 449.651C678.208 475.088 689.607 500.851 690.875 525.918C690.965 527.654 691.193 526.842 689.796 528.36L690.555 530.307L691.415 530.584C692.584 531.029 693.041 531.496 693.849 532.358C694.32 535.53 694.436 538.564 694.449 541.766L692.182 544.228L692.799 548.193L695.552 540.84L696.898 541.06C695.921 546.044 694.312 550.126 692.106 554.746C689.883 552.523 689.792 549.194 689.086 546.23C687.555 539.786 685.743 533.278 684.568 526.778C683.918 523.171 683.805 517.793 682.04 514.643L681.368 513.511L682.205 511.729C680.048 508.533 681.335 504.744 680.18 501.253L679.74 500.168C679.303 498.818 679.339 497.9 678.277 496.82L677.666 496.308L678.106 493.984C680.998 485.329 673.637 471.665 677.498 463.587C678.063 462.407 678.412 461.656 678.715 460.416C676.442 458.581 677.588 443.92 677.239 439.939L678.874 438.365Z" fill="#312C3D"/>
<path d="M680.33 384.116C682.203 387.028 683.005 387.84 682.183 391.398C680.06 400.598 681.633 410.723 679.351 419.113L678.874 438.365L677.24 439.938C677.588 443.92 676.442 458.581 678.715 460.416C678.412 461.656 678.063 462.407 677.499 463.587C673.638 471.665 680.998 485.329 678.106 493.984L677.667 496.307L678.277 496.82C679.339 497.9 679.303 498.818 679.741 500.167L680.18 501.253C681.335 504.744 680.048 508.533 682.205 511.729L681.368 513.51L682.04 514.643C683.805 517.792 683.918 523.171 684.568 526.778C685.744 533.278 687.555 539.786 689.086 546.23C689.792 549.193 689.883 552.522 692.106 554.746L692.385 556.069L690.513 559.306L688.443 558.23C686.613 547.674 683.244 537.599 681.039 527.177C679.069 517.879 676.606 507.309 675.449 497.906C675.071 494.848 675.591 491.787 675.249 488.753C674.476 481.93 671.86 477.814 674.64 471.033L673.636 469.635C671.345 466.026 673.308 457.366 673.449 452.99C674.185 430.181 673.111 406.226 680.33 384.116Z" fill="#2E3245"/>
<path d="M1056.64 77.1686L1084.76 84.4426C1086.27 88.2218 1090.98 88.6383 1092.53 92.8776L1091.19 95.0833L1097.69 102.051L1117.38 117.208L1118.5 119.71C1128.6 125.481 1137.82 133.559 1147.05 140.5C1162.64 152.217 1178.7 163.412 1195.19 173.995C1204.5 179.977 1212.85 186.018 1223.21 190.588C1225.16 194.19 1226.62 195.402 1230.4 197.24C1232.73 198.371 1234.38 199.525 1235.72 201.673C1238 206.24 1242.64 209.895 1246.13 213.718C1253.84 222.165 1261.74 230.781 1268.67 239.812C1271.4 243.374 1272.51 247.285 1274.89 250.881C1278.02 255.605 1283.29 259.657 1286.69 264.666C1289.87 269.359 1292.57 275.719 1297.14 279.269L1298.28 278.815C1301.14 283.983 1304.89 287.79 1308.18 292.586C1309.22 294.103 1310.31 295.061 1311.7 296.284C1310.23 299.273 1308.85 303.378 1306.53 305.805C1303.27 307.097 1300.98 307.39 1297.47 307.427L1297.28 306.869L1291.97 306.126L1279.73 304.574L1275.71 308.721C1269.84 308.202 1264.01 306.601 1258.28 305.314C1219.78 294.824 1188.58 276.439 1156.7 254.148L1123.83 227.522L1101.11 206.276L1103.97 202.371C1093.24 191.834 1082.88 180.311 1070.76 171.183L1068.11 161.549C1068.73 156.535 1067.02 150.228 1066.3 145.22C1064.43 132.157 1061.98 119.227 1060.52 106.106L1059.61 105.346C1058.08 107.046 1057.7 107.215 1055.46 107.98C1054.5 104.908 1054.22 101.831 1053.87 98.653L1056.54 97.8038L1057.39 91.4921L1056.68 82.2737L1056.64 77.1686Z" fill="url(#paint1_linear_14_5417)"/>
<path d="M1262.21 301.215L1279.73 304.574L1275.71 308.721C1269.84 308.202 1264.01 306.601 1258.28 305.314L1262.21 301.215Z" fill="#2E3245"/>
<path d="M1103.97 202.371L1127.52 224.775C1126.12 226.684 1126.16 226.856 1123.83 227.522L1101.11 206.276L1103.97 202.371Z" fill="#3A3C4D"/>
<path d="M1127.52 224.775L1160.46 251.647L1156.7 254.148L1123.83 227.522C1126.16 226.856 1126.12 226.684 1127.52 224.775Z" fill="#2E3245"/>
<path d="M1160.46 251.646C1179 264.432 1199.47 278.396 1220.43 287.483C1233.89 293.321 1248.04 297.221 1262.21 301.214L1258.28 305.314C1219.78 294.824 1188.58 276.439 1156.7 254.148L1160.46 251.646Z" fill="#312C3D"/>
<path d="M1057.39 91.4922L1058.37 93.7757C1061.38 93.6967 1062.36 93.8001 1064.83 95.38C1073.42 100.844 1087.57 100.216 1097.69 102.051L1117.38 117.208L1118.5 119.71C1114.27 118.221 1110.53 113.514 1106.55 112.579C1101.91 111.488 1098.18 113.909 1093.29 111.519L1092.63 111.163L1090.86 112.101C1088.6 112.054 1084.9 112.343 1082.89 111.318L1082.21 110.843C1079.41 111.206 1078.45 110.91 1076.02 109.826L1078.43 109.359C1077.85 108.986 1077.22 108.537 1076.53 108.347C1074.25 107.727 1073.14 108.111 1071.06 108.881C1067.47 107.504 1064.45 106.299 1060.52 106.106L1059.61 105.346C1058.08 107.046 1057.7 107.216 1055.46 107.98C1054.5 104.908 1054.22 101.831 1053.87 98.6532L1056.54 97.8039L1057.39 91.4922Z" fill="#3A3C4D"/>
<path d="M1057.39 91.4922L1058.37 93.7757L1059.61 105.346C1058.08 107.046 1057.7 107.216 1055.46 107.98C1054.5 104.908 1054.22 101.831 1053.87 98.6532L1056.54 97.8039L1057.39 91.4922Z" fill="#616472"/>
<path d="M1056.64 77.1685L1084.77 84.4425C1086.27 88.2216 1090.98 88.6382 1092.53 92.8774L1091.19 95.0831L1097.69 102.051C1087.57 100.216 1073.42 100.844 1064.83 95.3798C1062.36 93.7998 1061.38 93.6965 1058.37 93.7754L1057.39 91.492L1056.68 82.2736L1056.64 77.1685Z" fill="#494D5D"/>
<path d="M1056.64 77.1685L1084.77 84.4425C1086.27 88.2216 1090.98 88.6382 1092.53 92.8774L1091.19 95.0831L1085.66 91.0595C1078.83 91.2307 1067.76 90.1196 1062.34 85.9826L1056.68 82.2736L1056.64 77.1685Z" fill="#616472"/>
<path d="M1287.51 279.353L1285.33 275.375L1283.57 271.809C1282.96 270.484 1283.07 270.267 1281.81 269.246L1280.88 268.569L1282 267.339L1280.63 265.149L1278.64 263C1277.36 260.912 1277.03 259.493 1275.18 257.532C1273.5 255.74 1272.61 253.9 1271.12 252.103L1269.12 249.951C1268.22 248.457 1268.41 247.627 1266.98 246.248L1265.71 245.054L1266.87 244.393C1265.73 243.064 1264.38 241.725 1263.68 240.138C1263.2 239.056 1262.65 239.055 1261.56 238.484L1261.35 235.634L1260.08 235.144L1260.44 235.988L1259.64 237.468L1257.09 235.943C1255.98 231.677 1254.96 230.086 1251.17 227.68C1248.17 225.778 1250.51 225.731 1249.44 223.336C1249.06 222.493 1245.2 219.34 1244.16 217.997C1243.22 216.796 1241.36 215.975 1240.26 214.848C1236.49 210.975 1236.8 206.906 1230.5 205.425L1229.76 205.3C1227.2 202.333 1224.68 199.706 1223.3 196.047L1224.1 194.844C1225.19 198.577 1227.44 199.684 1230.45 202.108L1235.72 201.673C1238 206.24 1242.64 209.895 1246.13 213.718C1253.84 222.166 1261.74 230.781 1268.67 239.812C1271.4 243.374 1272.51 247.285 1274.89 250.882C1278.02 255.605 1283.29 259.657 1286.69 264.666C1289.87 269.359 1292.57 275.72 1297.13 279.269L1298.28 278.815C1301.14 283.983 1304.89 287.79 1308.18 292.586C1309.22 294.103 1310.31 295.061 1311.7 296.284C1310.23 299.273 1308.85 303.378 1306.53 305.806C1303.27 307.097 1300.98 307.39 1297.47 307.427L1297.28 306.869L1291.97 306.127L1294.18 304.264C1292.34 300.66 1293.91 296.122 1292.45 292.926C1291.53 290.897 1291.1 291.058 1290.9 288.455L1288.49 285.483C1286.69 283.082 1287 282.234 1287.51 279.353Z" fill="#1F1C26"/>
<path d="M1287.51 279.353C1290.82 283.371 1298.16 292.777 1297.68 297.706L1299.19 298.164C1301.7 299.738 1302.48 301.273 1305.59 302.636L1306.53 305.806C1303.27 307.097 1300.98 307.39 1297.47 307.427L1297.28 306.869L1291.97 306.127L1294.18 304.264C1292.34 300.66 1293.91 296.122 1292.45 292.926C1291.53 290.897 1291.1 291.058 1290.9 288.455L1288.49 285.484C1286.69 283.082 1287 282.234 1287.51 279.353Z" fill="#0F0817"/>
<path d="M1070.76 171.183C1082.88 180.311 1093.24 191.834 1103.97 202.371L1101.11 206.276L1123.83 227.522L1156.7 254.148C1188.58 276.439 1219.78 294.824 1258.28 305.314C1264.01 306.6 1269.84 308.202 1275.71 308.72L1279.73 304.574L1291.97 306.126L1297.28 306.869L1297.47 307.427L1296.19 309.302L1298.06 311.623L1303.22 312.921L1308.17 316.043L1305.62 321.601C1308.88 325.276 1307.38 329.838 1308.27 334.519C1309.16 339.201 1310.95 344.9 1312.49 349.316C1313.37 351.824 1312.99 355.804 1313.27 358.515C1313.42 359.977 1314.15 360.474 1314.63 361.765C1315.88 365.116 1315.45 369.367 1316.68 373.072C1317.33 375.025 1316.75 376.734 1317.81 378.695C1319.68 382.197 1318.08 385.816 1320.78 389.319L1259.3 415.285L1250.77 420.124C1250.48 418.124 1250.23 416.431 1250.56 414.418C1250.89 412.431 1250.72 412.716 1249.76 411.082L1229.25 410.612C1220.51 410.074 1211.84 407.054 1203.65 404.369C1156.89 389.063 1125.34 356.503 1094.06 322.192L1092.19 321.624C1090.65 320.658 1091.03 318.545 1090.9 316.958L1095.34 315.153C1093.72 313.449 1089.98 310.492 1089.05 308.557C1086.59 303.426 1086.66 290.356 1085.91 284.4C1082.66 258.386 1080.11 231.885 1075.21 206.128L1073.43 206.82C1072.38 204.853 1072.26 202.817 1072 200.66C1070.51 203.407 1069.99 205.661 1069.38 208.675C1068.77 203.718 1067.72 198.814 1067.16 193.856C1066.69 189.663 1067.46 185.322 1064.69 181.808C1068.72 177.725 1070.13 176.904 1070.76 171.183Z" fill="#0F0817"/>
<path d="M1279.73 304.574L1291.97 306.126L1297.28 306.869L1297.47 307.427L1296.19 309.302L1298.06 311.623L1275.71 308.72L1279.73 304.574Z" fill="#3A3C4D"/>
<path d="M1303.22 312.921L1308.17 316.043L1305.62 321.601L1270.18 387.529L1267.1 383.966L1303.22 312.921Z" fill="#3A3C4D"/>
<path d="M1070.76 171.183C1082.88 180.311 1093.24 191.834 1103.97 202.371L1101.11 206.276L1072.07 177.101C1070.77 184.887 1074.33 198.069 1075.21 206.128L1073.43 206.82C1072.38 204.853 1072.26 202.817 1072 200.66C1070.51 203.407 1069.99 205.661 1069.38 208.675C1068.77 203.718 1067.72 198.814 1067.16 193.856C1066.69 189.663 1067.46 185.322 1064.69 181.808C1068.72 177.725 1070.13 176.904 1070.76 171.183Z" fill="#525061"/>
<path d="M1095.34 315.153C1103.45 324.044 1110.41 334.182 1118.67 342.765C1145.53 370.696 1188.22 401.897 1229.8 404.851L1254.4 405.417C1255.64 403.366 1266.28 384.218 1267.1 383.966L1270.18 387.529C1269.03 396.821 1262.1 402.876 1259.28 411.705L1258.79 413.113L1258.51 413.962L1259.3 415.285L1250.77 420.124C1250.48 418.124 1250.23 416.432 1250.56 414.418C1250.89 412.431 1250.72 412.716 1249.76 411.083L1229.25 410.612C1220.51 410.074 1211.84 407.054 1203.65 404.369C1156.89 389.063 1125.34 356.503 1094.06 322.192L1092.19 321.624C1090.65 320.658 1091.03 318.545 1090.9 316.958L1095.34 315.153Z" fill="#1F1C26"/>
<path d="M1305.62 321.601C1308.88 325.277 1307.38 329.838 1308.27 334.519C1309.16 339.201 1310.95 344.9 1312.49 349.316C1313.37 351.824 1312.99 355.805 1313.27 358.515C1313.42 359.977 1314.15 360.474 1314.63 361.765C1315.88 365.117 1315.45 369.367 1316.68 373.072C1317.33 375.025 1316.75 376.735 1317.81 378.696C1319.68 382.197 1318.08 385.816 1320.78 389.319L1259.3 415.285L1258.51 413.961L1258.79 413.113L1259.28 411.704C1262.1 402.876 1269.03 396.821 1270.18 387.529L1305.62 321.601Z" fill="#010104"/>
<path d="M732.152 683.151L741.417 681.691L745.222 676.31C746.103 676.831 746.863 677.597 747.863 677.872C750.92 678.71 760.087 677.064 763.632 676.828C784.031 675.467 804.843 674.648 825.133 672.213L827.993 678.379C840.753 699.286 854.348 720.474 872.195 737.944C886.765 752.204 904.309 763.746 922.734 773.217L928.741 775.516L932.659 784.285C942.068 805.214 948.065 828.863 951.483 851.359C953.295 863.295 954.857 875.317 956.077 887.32C956.227 888.811 956.509 897.507 957.103 898.222C957.429 898.615 958.036 898.693 958.501 898.932L959.683 898.662C960.082 900.686 960.264 902.178 961.421 903.964L958.086 909.052L956.228 914.142L928.491 952.25C924.674 959.811 919.19 965.994 914.418 973.01L913.859 973.794C912.095 976.33 911.777 978.387 911.506 981.352C901.152 973.226 890.594 962.519 882.552 952.368C872.623 944.909 862.422 930.167 855.473 920.19L828.613 883.161L801.831 841.685L792.203 826.428C786.602 819.379 782.376 810.339 777.86 802.596C769.867 788.891 760.043 774.084 754.248 759.483C753.33 750.652 749.341 746.758 745.634 739.12C743.089 733.872 741.053 728.789 738.334 723.603C732.464 712.417 728.335 699.541 724.721 687.536L723.35 686.302L721.482 684.017C724.681 683.663 729.046 682.624 732.152 683.151Z" fill="#0F0817"/>
<path d="M922.734 773.217L928.741 775.516L932.659 784.285C931.693 786.135 930.679 787.163 931.05 789.231C931.366 790.979 931.267 792.524 931.13 794.289C928.82 788.237 922.95 779.312 922.734 773.217Z" fill="#312C3D"/>
<path d="M742.235 687.976C744.578 686.887 744.47 686.693 746.911 687.407L765.557 709.823L764.715 710.299C763.468 710.957 763.983 710.764 762.517 710.925C762.652 712.203 762.889 713.523 762.821 714.808L748.409 697.758L742.235 687.976Z" fill="#494D5D"/>
<path d="M765.557 709.823C778.58 724 788.261 741.805 798.306 757.917L795.611 763.638L762.821 714.808C762.889 713.523 762.651 712.203 762.517 710.925C763.982 710.764 763.468 710.957 764.715 710.299L765.557 709.823Z" fill="#525061"/>
<path d="M798.306 757.917C802.511 764.327 828.934 806.719 828.105 810.594C828.624 813.278 829.048 815.6 828.764 818.335C829.501 819.501 830.278 820.535 831.182 821.592L830.983 823.325L829.479 821.257L827.527 821.313L795.611 763.638L798.306 757.917Z" fill="#312C3D"/>
<path d="M828.104 810.594C840.618 834.706 852.944 861.586 858.751 888.065C856.633 885.311 853.677 882.479 854.032 878.923C851.806 876.054 852.873 873.757 850.716 871.145C850.876 873.462 850.302 874.033 852.243 875.617C852.44 878.17 853.028 878.126 853.792 880.085C854.675 882.349 854.012 887.982 854.084 890.626L827.527 821.313L829.479 821.257L830.983 823.325L831.181 821.592C830.277 820.535 829.5 819.501 828.764 818.335C829.048 815.6 828.624 813.278 828.104 810.594Z" fill="#2E3245"/>
<path d="M732.152 683.151L741.417 681.69L745.222 676.31C746.103 676.831 746.863 677.596 747.863 677.872C750.92 678.71 760.087 677.063 763.631 676.827C784.031 675.467 804.843 674.648 825.133 672.212L827.993 678.379C818.016 676.791 806.991 678.487 796.912 679.225C779.87 680.475 762.829 681.751 745.788 683.033C742.076 682.44 736.409 683.528 732.152 683.151Z" fill="#525061"/>
<path d="M854.084 890.625C854.012 887.981 854.675 882.349 853.792 880.085C853.029 878.126 852.44 878.169 852.243 875.617C850.302 874.033 850.877 873.462 850.716 871.144C852.874 873.757 851.806 876.054 854.032 878.923C853.677 882.479 856.633 885.311 858.751 888.065C861.999 898.448 865.56 908.708 868.909 919.054C870.569 924.195 871.254 929.419 874.032 934.172C875.335 936.402 875.286 938.465 875.394 940.957L876.541 942.083C880.023 945.56 881.276 947.697 882.552 952.367C872.623 944.908 862.422 930.167 855.473 920.19C857.167 918.492 858.41 916.534 859.77 914.597C860.311 907.389 855.974 897.685 854.084 890.625Z" fill="#3A3C4D"/>
<path d="M932.659 784.285C942.068 805.214 948.065 828.863 951.483 851.359C953.295 863.295 954.857 875.317 956.077 887.32C956.227 888.811 956.508 897.507 957.103 898.222C957.429 898.615 958.036 898.693 958.501 898.932L959.683 898.662C960.082 900.686 960.264 902.178 961.421 903.964L958.086 909.052L956.228 914.142L928.491 952.25C928.286 950.484 928.221 951.131 928.58 949.374L928.933 947.831C929.224 946.501 929.41 945.671 930.169 944.491L950.141 913.137C953.439 907.113 950.969 894.49 950.251 887.619C946.867 855.216 940.967 825.39 931.13 794.288C931.267 792.524 931.366 790.979 931.05 789.231C930.679 787.163 931.693 786.135 932.659 784.285Z" fill="url(#paint2_linear_14_5417)"/>
<path d="M721.482 684.017C724.68 683.663 729.046 682.624 732.152 683.151C736.409 683.528 742.076 682.44 745.788 683.033L746.91 687.407C744.47 686.693 744.578 686.887 742.235 687.976L748.409 697.758L762.821 714.808L795.611 763.638L827.527 821.313L854.084 890.626C855.973 897.685 860.311 907.389 859.77 914.597C858.409 916.534 857.166 918.492 855.473 920.19L828.613 883.161L801.831 841.685L792.203 826.428C786.602 819.379 782.376 810.339 777.86 802.596C769.867 788.891 760.043 774.084 754.247 759.483C753.33 750.652 749.341 746.758 745.634 739.12C743.089 733.872 741.053 728.789 738.334 723.603C732.464 712.417 728.335 699.541 724.721 687.536L723.35 686.302L721.482 684.017Z" fill="url(#paint3_linear_14_5417)"/>
<path d="M721.482 684.017C724.68 683.663 729.046 682.624 732.152 683.151C736.409 683.528 742.076 682.44 745.788 683.033L746.91 687.407C744.47 686.693 744.578 686.887 742.235 687.976L748.409 697.758L746.34 698.944C749.247 703.532 753.492 708.401 754.89 713.497C755.358 715.193 756.338 716.684 757.26 718.192L756.821 719.55L755.942 722.881C753.464 720.646 753.028 719.904 751.941 716.872C750.944 714.079 748.581 711.306 747.395 708.369C746.707 706.668 746.347 705.606 744.681 704.527L744.187 705.772L743.193 706.054L739.274 702.592C737.667 697.973 734.914 692.89 731.793 688.999C729.457 686.088 727.009 686.68 723.35 686.302L721.482 684.017Z" fill="#312C3D"/>
<path d="M798.616 827.182L800.774 825.873L801.092 826.624C803.557 831.845 807.883 836.703 809.764 842.156C810.882 845.403 815.31 847.86 817.424 850.69C821.35 855.953 823.249 862.029 826.764 867.39C828.092 869.416 828.937 871.624 830.289 873.669C831.515 875.523 831.619 876.695 831.694 878.857L831.073 879.608L828.614 883.161L801.831 841.684C801.526 836.502 798.381 831.956 798.616 827.182Z" fill="#2E3245"/>
<path d="M723.35 686.302C727.008 686.68 729.457 686.088 731.793 688.998C734.914 692.889 737.666 697.972 739.273 702.592C742.69 712.199 747.52 720.896 751.44 730.255C753.171 734.381 753.505 738.936 755.444 743.005C757.487 747.287 760.924 750.823 762.977 755.178C766.158 761.916 768.491 768.617 772.211 775.207C777.22 784.087 782.014 793.355 787.267 802.058C790.777 807.871 796.255 814.95 798.613 821.139C799.071 822.346 798.599 825.764 798.616 827.183C798.381 831.956 801.526 836.502 801.831 841.684L792.203 826.428C786.602 819.379 782.376 810.339 777.86 802.596C769.867 788.891 760.043 774.084 754.247 759.483C753.33 750.652 749.341 746.758 745.634 739.12C743.089 733.872 741.053 728.788 738.334 723.603C732.464 712.417 728.335 699.54 724.72 687.536L723.35 686.302Z" fill="#494D5D"/>
<path d="M724.721 687.536C727.317 691.982 730.643 696.359 732.457 701.113L740.696 717.959C742.137 721.25 744.442 724.383 746.026 727.619C748.637 732.953 749.401 739.727 752.186 744.925C759.807 759.141 767.754 773.337 774.629 787.961C776.457 791.848 776.534 796.606 778.787 800.26C781.53 804.71 785.929 807.822 788.726 812.585C791.062 816.564 793.202 819.195 792.523 823.928L792.358 825.431L792.203 826.428C786.602 819.379 782.376 810.339 777.86 802.596C769.867 788.891 760.043 774.084 754.248 759.482C753.33 750.652 749.341 746.758 745.634 739.12C743.089 733.872 741.053 728.788 738.334 723.603C732.464 712.417 728.335 699.54 724.721 687.536Z" fill="#525061"/>
<path d="M1040.62 74.3763C1043.88 74.8827 1047.24 75.2267 1050.3 76.4441L1056.64 77.1684L1056.68 82.2736L1057.39 91.4919L1056.54 97.8036L1053.87 98.6529C1054.22 101.831 1054.5 104.908 1055.46 107.98C1057.7 107.215 1058.08 107.046 1059.61 105.345L1060.52 106.106C1061.98 119.226 1064.43 132.157 1066.3 145.22C1067.02 150.228 1068.73 156.535 1068.11 161.548L1070.76 171.183C1070.13 176.904 1068.72 177.724 1064.69 181.807C1067.46 185.322 1066.69 189.663 1067.16 193.856C1067.72 198.814 1068.77 203.718 1069.38 208.675C1069.99 205.661 1070.51 203.407 1072 200.659C1072.26 202.817 1072.38 204.852 1073.43 206.82L1075.21 206.128C1080.11 231.885 1082.66 258.386 1085.91 284.4C1086.66 290.356 1086.59 303.426 1089.05 308.557C1089.98 310.492 1093.72 313.449 1095.34 315.153L1090.9 316.958C1090.02 317.933 1086.76 320.899 1086.4 321.932C1085.25 325.224 1088.73 337.283 1086.58 339.106L1085.42 319.866L1061.11 352.668C1053.61 361.881 1045.13 372.454 1035.92 380.125C1011.51 400.445 982.183 412.327 950.166 416.61L922.18 418.797C920.576 422.155 921.391 425.398 921.828 428.921C921.936 435.338 922.564 442.189 921.866 448.584L916.586 446.587L827.3 426.076L822.834 425.753L794.67 422.402C790.618 451.445 786.229 482.64 787.994 511.915L789.87 569.433L791.689 580.743C798.167 613.322 809.882 642.498 825.132 672.212C804.843 674.647 784.031 675.467 763.631 676.827C760.086 677.063 750.92 678.71 747.863 677.871C746.863 677.596 746.102 676.831 745.222 676.309L741.416 681.69L732.152 683.151C729.045 682.624 724.68 683.663 721.482 684.017L717.021 684.608L715.296 680.47C717.306 679.201 718.852 678.896 721.168 678.425C715.432 670.473 712.894 658.635 709.935 649.495C706.449 638.725 700.954 628.303 697.383 617.442C695.174 610.726 693.124 599.13 688.676 593.765C687.921 592.856 685.701 591.776 684.631 591.057L684.377 587.781C685.176 586.681 685.824 585.694 686.221 584.406C687.446 580.419 689.267 577.042 691.275 573.361L695.559 561.32L696.839 556.675L695.299 553.175L692.385 556.069L692.106 554.746C694.311 550.126 695.921 546.043 696.898 541.06L710.871 501.374C721.716 463.041 730.869 423.91 735.973 384.549C742.609 333.358 743.925 282.871 742.969 231.453L742.897 230.557L741.592 229.114C739.785 225.178 737.176 222.845 733.959 219.959L733.816 219.758C731.496 217.46 730.181 216.345 729.051 213.275L732.401 208.427C734.197 212.504 736.461 215.881 739.273 219.401C742.136 222.487 744.487 224.496 748.403 226.336L749.643 224.551C815.204 215.88 880.401 195.862 935.518 160.245C964.756 141.349 990.565 119.147 1014.79 94.9066L1019.18 91.0728L1021.95 93.9547C1025.68 90.706 1028.98 86.6186 1032.32 82.9886L1040.62 74.3763Z" fill="url(#paint4_linear_14_5417)"/>
<path d="M768.682 250.095L779.623 261.83L776.444 265.859L766.075 254.231C766.553 252.77 767.784 251.382 768.682 250.095Z" fill="#616472"/>
<path d="M1064.55 172.462C1066.38 169.845 1064.85 165.032 1065.62 161.9L1066 160.704L1066.17 158.975C1066.36 160.583 1066.86 160.529 1068.11 161.549L1070.76 171.183C1070.13 176.905 1068.72 177.725 1064.69 181.808L1040.65 210.427L1037.9 210.542L1037.62 207.078C1046.94 198.754 1059.09 183.326 1064.55 172.462Z" fill="#636375"/>
<path d="M1059.61 105.345L1060.52 106.106C1061.98 119.226 1064.43 132.157 1066.3 145.22C1067.02 150.228 1068.73 156.535 1068.11 161.548C1066.86 160.529 1066.36 160.583 1066.17 158.975L1066 160.704L1065.62 161.9C1064.85 165.032 1066.38 169.844 1064.55 172.462C1064.56 164.437 1062.55 156.177 1061.29 148.264C1059.16 134.864 1057.17 121.437 1055.46 107.979C1057.7 107.215 1058.08 107.046 1059.61 105.345Z" fill="#525061"/>
<path d="M779.623 261.831L825.007 309.895L819.778 308.431L819.195 309.052L819.607 309.934L820.989 313.881L776.445 265.859L779.623 261.831Z" fill="#525061"/>
<path d="M1040.62 74.3764C1043.88 74.8828 1047.24 75.2268 1050.3 76.4442L1056.64 77.1685L1056.68 82.2736L1057.39 91.492L1056.54 97.8037L1053.87 98.6529L1052.1 89.9065C1047.71 89.6034 1042.48 90.029 1038.31 89.0057C1034.35 88.0368 1034.22 86.2361 1032.32 82.9887L1040.62 74.3764Z" fill="#616472"/>
<path d="M1050.3 76.4443L1056.64 77.1687L1056.68 82.2738L1057.39 91.4922L1056.54 97.8039L1053.87 98.6531L1052.1 89.9067L1050.3 76.4443Z" fill="#737B8B"/>
<path d="M914.34 293.752C964.758 277.339 1004.35 245.474 1037.62 207.077L1037.9 210.542L1040.65 210.427C1032.54 221.858 1020.89 232.611 1010.22 241.941C983.641 265.177 953.59 285.571 919.179 297.108C917.938 295.431 916.198 294.706 914.34 293.752Z" fill="#312C3D"/>
<path d="M1014.79 94.9068L1019.18 91.073L1021.95 93.9549C974.82 143.007 910.435 186.31 843.509 207.592C824.863 213.52 806.133 218.527 786.927 222.545C776.171 224.797 763.128 225.871 752.956 229.458C750.054 230.483 750.48 230.357 750.048 233.088C756.767 238.561 763.517 243.146 768.682 250.095C767.784 251.382 766.553 252.77 766.075 254.231L748.855 235.471C747.785 249.926 748.651 264.355 748.385 278.813C748.03 298.449 746.563 318.531 745 338.131C742.252 372.528 737.253 407.987 729.94 441.869C725.569 462.137 719.776 482.103 714.836 502.255L710.871 501.375C721.716 463.042 730.869 423.91 735.973 384.55C742.609 333.358 743.925 282.872 742.97 231.453L742.898 230.558L741.593 229.114C739.786 225.178 737.176 222.846 733.959 219.959L733.816 219.759C731.497 217.46 730.182 216.346 729.051 213.275L732.402 208.427C734.197 212.504 736.461 215.881 739.274 219.402C742.136 222.487 744.487 224.496 748.404 226.336L749.644 224.551C815.204 215.881 880.401 195.862 935.519 160.245C964.757 141.349 990.566 119.148 1014.79 94.9068Z" fill="#636375"/>
<path d="M732.401 208.427C734.197 212.504 736.461 215.881 739.274 219.402C742.136 222.487 744.487 224.496 748.403 226.336L750.178 228.212L747.008 233.419C744.681 232.899 744.477 232.283 742.898 230.558L741.593 229.114C739.785 225.179 737.176 222.846 733.959 219.959L733.816 219.759C731.497 217.46 730.181 216.346 729.051 213.276L732.401 208.427Z" fill="#737B8B"/>
<path d="M714.836 502.254C719.776 482.103 725.569 462.137 729.94 441.869C737.252 407.987 742.252 372.528 745 338.13C746.563 318.531 748.03 298.448 748.385 278.812C748.65 264.355 747.785 249.926 748.855 235.471L766.075 254.231L776.444 265.859L820.989 313.88L821.91 315.129C822.497 316.679 822.952 319.125 824.3 320.137L824.437 317.826L825.782 317.381C827.255 316.861 828.396 316.283 829.719 315.505L829.001 318.037L828.259 323.329L828.075 411.271L827.3 426.076L822.834 425.753L794.67 422.402C790.618 451.445 786.229 482.64 787.994 511.915L789.87 569.433L791.689 580.743C798.167 613.322 809.882 642.498 825.132 672.212C804.843 674.647 784.031 675.466 763.631 676.827C760.086 677.063 750.92 678.71 747.863 677.871C746.863 677.596 746.102 676.831 745.222 676.309L741.416 681.69L732.152 683.151C729.045 682.624 724.68 683.663 721.482 684.017L717.021 684.608L715.296 680.47C717.306 679.201 718.852 678.895 721.168 678.425C715.432 670.473 712.894 658.635 709.935 649.495C706.449 638.725 700.954 628.303 697.383 617.442C695.174 610.726 693.124 599.13 688.676 593.765C687.921 592.856 685.701 591.776 684.631 591.057L684.377 587.781C685.176 586.681 685.824 585.694 686.221 584.406C687.446 580.419 689.267 577.042 691.275 573.361L695.559 561.32L696.839 556.675L695.299 553.174L692.385 556.069L692.106 554.746C694.311 550.126 695.921 546.043 696.898 541.059L710.871 501.374L714.836 502.254Z" fill="url(#paint5_linear_14_5417)"/>
<path d="M823.705 405.419C825.816 407.404 826.909 408.688 828.075 411.271L827.3 426.077L822.835 425.753L823.705 405.419Z" fill="#525061"/>
<path d="M710.871 501.375L714.836 502.255L696.944 556.65L696.84 556.675L695.299 553.175L692.385 556.069L692.106 554.746C694.312 550.126 695.921 546.043 696.898 541.06L710.871 501.375Z" fill="#494D5D"/>
<path d="M821.911 315.13C822.497 316.679 822.952 319.125 824.3 320.137L824.438 317.827L825.782 317.381C827.256 316.861 828.397 316.284 829.72 315.505L829.001 318.037L828.26 323.329L828.076 411.271C826.909 408.687 825.816 407.404 823.705 405.419L821.911 315.13Z" fill="#494D5D"/>
<path d="M741.393 670.758C756.77 643.927 770.526 616.375 782.554 588.135C785.178 581.97 788.828 576.052 789.87 569.433L791.689 580.743L745.472 674.898L744.866 671.073L741.393 670.758Z" fill="#525061"/>
<path d="M695.559 561.321C695.874 563.864 695.626 567.38 697.672 569.033L695.31 570.067C695.445 571.873 695.254 572.979 696.835 574.253L698.749 575.264L699.07 576.56C699.565 578.269 699.867 578.373 700.902 579.681L706.476 589.012L705.37 590.526C706.122 591.347 706.67 591.776 707.608 592.402C709.853 593.896 710.772 595.844 711.101 598.322L711.277 600.122L712.106 598.919C713.48 601.306 713.705 602.967 713.825 605.669C714.608 606.562 715.688 607.286 716.176 608.347C717.398 611.014 715.146 615.256 718.695 616.19C720.831 621.7 720.481 629.04 720.868 634.944C724.084 635.689 723.169 637.047 727.12 636.84L730.889 644.506L730.552 645.211C730.055 646.58 730.309 647.738 730.468 649.132L731.755 650.172L730.622 651.403C730.737 652.885 730.464 654.281 731.443 655.464C732.409 656.639 733.162 657.904 733.957 659.183L734.702 656.842C735.488 657.735 736.51 658.48 737.062 659.519C737.796 660.911 737.625 669.611 738.37 670.128C739.198 670.7 740.385 670.548 741.393 670.758L744.866 671.073L745.472 674.898L745.222 676.31L741.417 681.691L732.152 683.151C729.046 682.624 724.68 683.663 721.482 684.017L717.021 684.609L715.296 680.471C717.306 679.201 718.852 678.896 721.169 678.425C715.432 670.474 712.895 658.636 709.935 649.496C706.449 638.725 700.954 628.303 697.383 617.442C695.175 610.726 693.124 599.131 688.677 593.765C687.921 592.856 685.701 591.776 684.631 591.058L684.378 587.782C685.176 586.681 685.824 585.694 686.221 584.406C687.446 580.419 689.267 577.043 691.276 573.362L695.559 561.321Z" fill="#312C3D"/>
<path d="M741.393 670.758L744.866 671.073L745.472 674.898L745.222 676.31L741.417 681.691L732.152 683.151C729.046 682.624 724.68 683.663 721.482 684.017L717.021 684.609L715.296 680.47C717.307 679.201 718.852 678.896 721.169 678.425C724.422 678.48 726.827 679.303 729.27 677.15C731.153 677.046 732.384 677.017 734.211 677.518C736.281 678.087 735.069 677.991 737.456 677.718L741.393 670.758Z" fill="#737A87"/>
<path d="M691.276 573.361L728.698 676.184L729.27 677.15C726.827 679.303 724.422 678.481 721.169 678.425C715.432 670.474 712.895 658.635 709.935 649.496C706.449 638.725 700.954 628.303 697.383 617.442C695.175 610.726 693.124 599.131 688.677 593.765C687.921 592.856 685.701 591.776 684.631 591.057L684.378 587.781C685.177 586.681 685.824 585.694 686.221 584.406C687.446 580.419 689.267 577.042 691.276 573.361Z" fill="#494D5D"/>
<path d="M745.472 674.898L791.69 580.743C798.167 613.322 809.882 642.498 825.132 672.213C804.843 674.648 784.031 675.467 763.631 676.828C760.086 677.064 750.92 678.71 747.863 677.872C746.863 677.597 746.102 676.831 745.222 676.31L745.472 674.898Z" fill="#0F0817"/>
<path d="M1064.69 181.808C1067.46 185.323 1066.69 189.664 1067.16 193.856C1067.72 198.814 1068.77 203.718 1069.38 208.675C1069.99 205.661 1070.51 203.408 1072 200.66C1072.26 202.817 1072.38 204.853 1073.43 206.82L1075.21 206.128C1080.11 231.886 1082.66 258.386 1085.91 284.4C1086.66 290.357 1086.59 303.426 1089.05 308.557C1089.98 310.492 1093.72 313.449 1095.34 315.153L1090.9 316.958C1090.02 317.933 1086.76 320.9 1086.4 321.933C1085.25 325.224 1088.73 337.283 1086.58 339.106L1085.42 319.867L1061.11 352.669C1053.61 361.882 1045.13 372.455 1035.92 380.125C1011.51 400.446 982.183 412.328 950.166 416.611L922.18 418.797C920.577 422.155 921.391 425.398 921.828 428.922C921.936 435.339 922.565 442.19 921.867 448.585L916.586 446.587L827.3 426.077L828.075 411.271L828.26 323.329L829.001 318.038L829.72 315.505C828.396 316.284 827.256 316.861 825.782 317.381L824.437 317.827L824.3 320.137C822.952 319.125 822.497 316.68 821.91 315.13L820.989 313.881L819.607 309.934L819.195 309.053L819.778 308.431L825.007 309.896C840.442 310.328 857.251 308.022 872.442 305.21L872.566 304.934L914.34 293.753C916.198 294.706 917.938 295.431 919.179 297.109C953.59 285.572 983.641 265.177 1010.22 241.942C1020.89 232.611 1032.54 221.859 1040.65 210.427L1064.69 181.808Z" fill="#0F0817"/>
<path d="M829.001 318.037C836.321 322.618 843.47 329.822 848.414 336.668L844.394 335.839C844.547 337.755 844.68 337.945 845.77 339.442L844.531 340.045C838.65 336.942 834.836 327.416 828.259 323.329L829.001 318.037Z" fill="#525061"/>
<path d="M872.442 305.21L872.566 304.934L914.34 293.752C916.197 294.706 917.938 295.431 919.178 297.108C904.078 301.627 888.201 306.722 872.566 309.158C873.355 308.141 872.853 308.594 874.444 307.796L875.762 307.159L872.442 305.21Z" fill="#3A3C4D"/>
<path d="M820.989 313.881L819.607 309.934L819.195 309.052L819.778 308.431L825.007 309.895C840.442 310.328 857.251 308.022 872.442 305.21L875.762 307.159L874.444 307.796C872.853 308.595 873.355 308.141 872.566 309.159C862.818 310.681 853.005 311.672 843.204 312.817C839.036 313.304 833.374 313.392 829.719 315.505C828.396 316.284 827.255 316.861 825.782 317.381L824.437 317.827L824.3 320.137C822.952 319.125 822.497 316.679 821.91 315.13L820.989 313.881Z" fill="#636375"/>
<path d="M844.531 340.045L845.77 339.442C844.68 337.945 844.547 337.755 844.394 335.839L848.414 336.668C854.832 342.682 860.451 349.633 866.202 356.219C867.402 357.589 870.252 360.083 870.649 361.779L870.935 362.825C871.696 365.477 872.174 367.164 874.322 369.047C875.623 370.188 876.639 371.577 877.708 372.912L876.994 372.528L871.348 369.848L844.531 340.045Z" fill="#312C3D"/>
<path d="M870.649 361.778C882.535 372.276 894.215 386.87 903.948 399.24L903.94 399.314L901.508 403.525L871.348 369.848L876.994 372.528L877.708 372.912C876.64 371.577 875.624 370.188 874.322 369.046C872.174 367.163 871.697 365.477 870.936 362.825L870.649 361.778Z" fill="#2E3245"/>
<path d="M1069.38 208.675C1069.99 205.661 1070.51 203.408 1072 200.66C1072.26 202.817 1072.38 204.853 1073.43 206.82L1075.21 206.128C1080.11 231.886 1082.66 258.386 1085.91 284.4C1086.66 290.357 1086.59 303.426 1089.05 308.557C1089.98 310.492 1093.72 313.449 1095.34 315.153L1090.9 316.958C1090.02 317.933 1086.76 320.9 1086.4 321.933C1085.25 325.224 1088.73 337.283 1086.58 339.106L1085.42 319.867L1061.11 352.669L1058.74 348.461C1065.38 337.536 1077.26 326.502 1081.72 314.865C1082.78 312.117 1081.14 303.161 1080.88 299.827C1078.53 269.442 1074.1 238.809 1069.38 208.675Z" fill="url(#paint6_linear_14_5417)"/>
<path d="M903.94 399.314C909.108 403.957 912.901 409.057 918.55 413.486C946.173 415.847 974.609 408.619 999.321 397.366C1024.21 386.033 1041.28 367.858 1058.74 348.46L1061.11 352.668C1053.61 361.881 1045.13 372.455 1035.92 380.125C1011.51 400.445 982.184 412.327 950.166 416.611L922.18 418.797C920.577 422.155 921.391 425.398 921.828 428.921C921.936 435.339 922.565 442.19 921.867 448.584L916.587 446.587L916.923 444.482C917.243 439.802 915.933 422.387 913.991 418.444C911.548 413.476 905.245 407.79 901.508 403.525L903.94 399.314Z" fill="url(#paint7_linear_14_5417)"/>
<path d="M828.26 323.329C834.836 327.416 838.65 336.942 844.531 340.045L871.348 369.848L901.507 403.525C905.245 407.79 911.547 413.476 913.991 418.444C915.933 422.387 917.243 439.802 916.923 444.482L916.586 446.587L827.3 426.077L828.075 411.271L828.26 323.329Z" fill="#0F0817"/>
<path d="M1090.9 316.958C1091.03 318.544 1090.65 320.658 1092.19 321.624L1094.06 322.192C1125.34 356.503 1156.89 389.062 1203.65 404.369C1211.84 407.054 1220.51 410.074 1229.25 410.612L1249.76 411.082C1250.72 412.716 1250.89 412.431 1250.56 414.418C1250.23 416.431 1250.48 418.124 1250.77 420.124L1259.3 415.284L1320.78 389.319C1327.9 387.374 1339.34 385.184 1344.91 380.65L1349.47 382.879L1353.41 404.715C1358.76 442.473 1364.32 477.884 1359.15 516.061L1354.7 554.129C1349.09 591.933 1341.58 629.565 1331.66 666.635C1329.15 676.033 1327.27 686.514 1323.71 695.562C1318.86 707.861 1309.08 718.132 1303.92 730.349L1251.53 878.055C1229.68 933.509 1211.24 992.443 1149.3 1019.4C1129.95 1027.82 1108.03 1031.68 1086.98 1033.67C1051.05 1037.07 1016.59 1035.37 982.561 1023.67C956.765 1014.81 931.188 999.25 911.506 981.352C911.776 978.386 912.095 976.33 913.858 973.793L914.418 973.01C919.189 965.994 924.673 959.811 928.491 952.249L956.227 914.141L958.085 909.052L961.421 903.964C960.263 902.178 960.082 900.686 959.683 898.662L958.5 898.931C958.035 898.693 957.428 898.615 957.102 898.222C956.508 897.506 956.226 888.811 956.076 887.32C954.857 875.316 953.295 863.295 951.482 851.359C948.065 828.863 942.068 805.214 932.658 784.285L928.74 775.515L922.734 773.217C904.309 763.746 886.765 752.203 872.195 737.944C854.347 720.474 840.752 699.286 827.992 678.379L825.132 672.212C809.882 642.498 798.167 613.322 791.69 580.743L789.87 569.433L787.994 511.915C786.229 482.64 790.618 451.445 794.67 422.402L822.834 425.753L827.3 426.077L916.586 446.587L921.866 448.584C922.564 442.189 921.936 435.338 921.828 428.921C921.391 425.398 920.577 422.155 922.18 418.797L950.166 416.611C982.183 412.327 1011.51 400.445 1035.92 380.125C1045.13 372.454 1053.61 361.881 1061.11 352.668L1085.42 319.866L1086.58 339.106C1088.73 337.283 1085.25 325.224 1086.4 321.932C1086.76 320.9 1090.02 317.933 1090.9 316.958Z" fill="url(#paint8_linear_14_5417)"/>
<path d="M982.576 864.762C984.448 864.765 984.284 864.401 985.528 865.791L986.264 866.939L961.421 903.964C960.263 902.178 960.082 900.686 959.683 898.662L982.576 864.762Z" fill="#312C3D"/>
<path d="M982.576 864.762L1009.73 822.226L1010.22 824.669L1009.39 825.805L1003.92 834.592L1004.89 835.376C1007.72 831.758 1009.88 827.904 1012.23 824.019L1015.65 819.039C1016.27 818.01 1017.02 817.239 1017.86 816.367L1018.63 817.457C1015.61 822.167 988.667 866.034 986.264 866.939L985.528 865.791C984.284 864.401 984.448 864.765 982.576 864.762Z" fill="#1F1C26"/>
<path d="M1201.81 901.299L1201.8 901.089C1212.28 891.259 1232.93 875.986 1247.7 874.164L1248.9 876.372C1240.8 884.503 1229.79 888.024 1219.57 893.254C1213.88 896.169 1208.86 900.159 1203.98 904.135L1201.81 901.299Z" fill="#1F1C26"/>
<path d="M921.828 428.922C921.391 425.398 920.577 422.155 922.18 418.797C926.721 427.307 935.895 436.5 942.565 443.705C947.947 449.517 954.929 454.61 955.441 462.608L940.857 456.162L921.867 448.585C922.565 442.19 921.936 435.339 921.828 428.922Z" fill="#1F1C26"/>
<path d="M921.828 428.921C926.022 432.492 928.551 437.017 932.022 441.137C935.142 444.838 938.804 447.946 941.725 451.832C941.489 453.31 941.267 454.714 940.857 456.162L921.867 448.584C922.565 442.19 921.936 435.339 921.828 428.921Z" fill="#0F0817"/>
<path d="M956.227 914.142L958.085 909.052C966.776 911.715 982.064 908.136 991.698 907.863C1032.79 906.701 1077.81 925.202 1105.78 953.086L1102.88 957.226C1073.64 931.361 1036.88 913.199 995.655 913.535C983.507 913.633 969.018 916.918 957.279 914.398L956.227 914.142Z" fill="#1F1C26"/>
<path d="M1105.78 953.087L1128.44 974.528C1128.35 964.187 1126.12 904.037 1128.5 899.287C1128.96 905.666 1129.77 911.577 1128.62 917.615C1127.56 923.186 1130.1 928.948 1128.66 934.802C1128.12 936.977 1129.18 941.834 1129.36 944.323C1129.85 950.967 1130.54 957.074 1129.53 963.389C1128.99 966.865 1130.51 970.514 1129.72 974.262L1127.97 975.252C1123.24 973.973 1117.48 966.403 1113.32 963.158L1112.51 964.649C1115.6 966.87 1117.29 969.609 1119.85 971.708C1123.5 974.697 1127.38 977.273 1130.79 980.529C1131.13 985.151 1133.19 995.053 1130.91 998.813C1131.18 1002.43 1130.61 1007.28 1132.97 1010.12L1131.19 898.519L1132.17 899.016L1135.25 975.414C1146.03 965.098 1153.49 952.189 1162.19 940.437C1173.18 925.594 1187.06 912.792 1201.81 901.3L1203.98 904.135C1188.84 916.434 1175.59 929.065 1163.94 944.453C1154.56 956.833 1146.67 970.631 1135.01 981.288L1133.81 1020.37L1131.37 1021.63L1129.29 1019.86L1128.44 981.528L1102.88 957.227L1105.78 953.087Z" fill="#0F0817"/>
<path d="M1248.9 876.372L1251.53 878.055C1229.68 933.509 1211.24 992.443 1149.3 1019.4C1129.95 1027.82 1108.03 1031.68 1086.98 1033.67C1051.05 1037.07 1016.59 1035.37 982.561 1023.67C956.765 1014.81 931.188 999.25 911.506 981.352C911.776 978.387 912.095 976.33 913.859 973.794L914.418 973.01C919.189 965.994 924.673 959.811 928.491 952.249L956.228 914.142L957.279 914.398C969.018 916.918 983.507 913.633 995.655 913.535C1036.88 913.199 1073.64 931.361 1102.88 957.226L1128.44 981.527L1129.29 1019.86L1131.37 1021.63L1133.81 1020.37L1135.01 981.287C1146.67 970.631 1154.56 956.832 1163.94 944.453C1175.59 929.065 1188.84 916.433 1203.98 904.135C1208.86 900.159 1213.88 896.169 1219.57 893.254C1229.79 888.024 1240.8 884.503 1248.9 876.372Z" fill="#010104"/>
<path d="M1344.91 380.65L1349.47 382.879L1353.41 404.715C1358.76 442.474 1364.32 477.884 1359.15 516.061L1354.7 554.129C1349.09 591.933 1341.58 629.565 1331.66 666.635C1329.15 676.033 1327.27 686.515 1323.71 695.562C1318.87 707.861 1309.08 718.133 1303.92 730.35C1298.18 731.661 1290.26 741.897 1285.53 745.72C1280.58 749.725 1274.82 753.352 1268.96 756.066C1252.4 763.717 1234.86 764.81 1217.48 759.17C1181.03 747.343 1160.69 710.797 1145.3 680.06C1140.36 670.055 1134.16 657.205 1133.1 646.155C1132.04 635.032 1134.82 621.812 1136.43 610.676C1144.89 551.871 1166.6 480.25 1219.06 442.301C1227.8 433.627 1240.27 426.757 1250.77 420.124L1259.3 415.285L1320.78 389.319C1327.9 387.375 1339.34 385.184 1344.91 380.65Z" fill="url(#paint9_linear_14_5417)"/>
<path d="M1273.08 474.679C1277.96 473.569 1283.36 473.29 1288 475.155L1289.21 475.659C1292.73 476.968 1300.59 481.679 1301.68 485.338C1302.92 489.48 1300.53 490.3 1304.74 493.72C1305.38 495.999 1305.28 498.216 1305.26 500.559C1304.46 501.612 1303.51 502.689 1303.26 503.996C1302.44 508.24 1303.5 519.885 1306.29 523.185C1307.27 524.353 1307.46 525.292 1307.87 526.723C1306.97 528.175 1306.53 528.985 1306.37 530.698L1306.32 531.996L1298.93 539.408C1298.24 540.022 1297.47 540.86 1296.61 541.302C1293.22 543.061 1288.92 541.402 1285.58 540.405C1283.27 538.88 1280.83 537.201 1278.05 536.547L1277.31 536.423C1271.65 530.281 1263.34 528.6 1255.22 526.892L1255.76 525.996L1253.75 523.565C1252.47 521.604 1252.09 521.737 1249.87 520.696C1249.5 519.444 1249.25 518.562 1248.38 517.517C1247.34 516.254 1247.63 515.023 1247.51 513.427C1245.17 511.541 1246.62 509.236 1244.58 506.767C1244.2 502.976 1243.03 498.471 1245.49 495.106C1250.69 487.978 1253.57 481.26 1263.62 479.275C1267.48 478.511 1268.89 477.809 1272.01 475.492L1273.08 474.679Z" fill="white"/>
<path d="M1344.91 380.65L1349.47 382.879L1353.41 404.715C1358.76 442.474 1364.32 477.884 1359.15 516.061L1354.7 554.129C1351.34 555.053 1348.84 555.006 1347.18 558.195C1344.88 562.602 1343.53 566.63 1338.36 568.96C1337.35 569.417 1336.71 569.537 1335.58 569.856L1336.1 564.492L1337.79 550.98C1336.9 546.742 1337.8 541.045 1337.91 536.66C1338.15 526.89 1338.2 517.107 1337.89 507.346C1336.9 476.053 1333.88 443.802 1328.46 412.961C1282.02 426.453 1240.39 452.681 1208.42 486.777C1181.76 523.731 1169.51 570.786 1162.6 614.219C1161.06 623.942 1158.21 636.399 1160.21 646.003C1161.61 652.682 1165.25 659.724 1167.76 666.134C1162.39 667.033 1158.41 668.949 1155.12 673.277C1151.91 677.505 1151.13 678.886 1145.3 680.06C1140.36 670.055 1134.16 657.205 1133.1 646.155C1132.04 635.032 1134.82 621.812 1136.43 610.676C1144.89 551.871 1166.6 480.25 1219.06 442.301C1227.8 433.627 1240.27 426.757 1250.77 420.124L1259.3 415.285L1320.78 389.319C1327.9 387.375 1339.34 385.184 1344.91 380.65Z" fill="#D2093F"/>
<path d="M1231.54 445.819C1254.29 429.248 1280.45 415.259 1307.11 405.012C1317.54 401.004 1328.43 398.111 1338.82 394.112L1340.49 393.463L1342.64 407.24C1341.18 408.358 1340 409.225 1339.02 410.756L1336.75 398.649C1323.8 403.85 1310.44 408.084 1297.56 413.455C1275.02 422.858 1253.68 434.571 1234.2 448.814C1225.96 454.84 1217.4 461.001 1211.17 468.967C1207.08 472.163 1203.84 476.698 1200.57 480.622C1186.92 496.986 1180.01 514.649 1171.32 533.388L1170.28 533.465C1169.77 530 1172.2 525.572 1173.41 522.216C1181.95 498.562 1196.11 478.388 1214.34 460.219C1219.38 455.184 1227.62 451.455 1231.54 445.819Z" fill="#A70020"/>
<path d="M1344.91 380.65L1349.47 382.879L1353.41 404.715L1352.82 404.11C1351 402.168 1350.49 401.211 1349.74 398.699L1349.27 397.487C1348.14 393.587 1349.57 389.705 1348.16 385.631C1346.6 384.905 1345.65 383.904 1343.91 384.453C1342.55 384.879 1341.92 385.325 1340.87 386.192L1342.2 387.803L1343.73 387.694C1343.67 388.912 1343.52 390.015 1343.35 391.218C1342.17 399.811 1345.54 408.255 1346.13 416.675L1345.14 416.763L1344.32 417.097L1342.64 407.24L1340.49 393.463L1338.82 394.112C1328.43 398.112 1317.54 401.004 1307.11 405.012C1280.45 415.259 1254.29 429.249 1231.54 445.819L1231.51 444.484C1232.68 443.241 1233.82 441.922 1235.21 440.897C1237.73 439.056 1240.26 436.936 1243.08 435.539L1244.48 434.863C1242.39 434.264 1240.99 433.836 1239.35 432.429L1238.11 431.324C1236.81 431.893 1235.93 432.383 1234.83 433.286C1233.58 434.311 1232.49 435.225 1231.12 436.13L1229.6 436.249C1229.25 436.68 1228.63 437.482 1228.19 437.788C1226.12 439.209 1225.28 439.643 1223.63 441.696L1223.03 442.462C1220.9 443.16 1221.08 443.206 1219.06 442.301C1227.8 433.627 1240.27 426.757 1250.77 420.124L1259.3 415.285L1320.78 389.319C1327.9 387.375 1339.34 385.184 1344.91 380.65Z" fill="#EC3A78"/>
<path d="M1344.32 417.097L1345.14 416.763L1346.13 416.675C1345.54 408.254 1342.17 399.811 1343.35 391.218C1343.52 390.014 1343.67 388.912 1343.73 387.693L1342.2 387.803L1340.87 386.192C1341.92 385.325 1342.55 384.879 1343.91 384.453C1345.65 383.904 1346.6 384.904 1348.16 385.631C1349.57 389.705 1348.14 393.586 1349.27 397.487L1349.74 398.699C1350.49 401.211 1351 402.168 1352.82 404.11L1353.41 404.715C1358.76 442.473 1364.32 477.884 1359.15 516.061L1354.7 554.129C1351.34 555.053 1348.84 555.005 1347.18 558.194C1344.88 562.601 1343.53 566.63 1338.36 568.96C1337.35 569.417 1336.71 569.537 1335.58 569.856L1336.1 564.492L1337.79 550.98C1336.9 546.742 1337.8 541.045 1337.91 536.66C1338.14 526.89 1338.2 517.107 1337.89 507.346C1336.9 476.053 1333.88 443.802 1328.46 412.96C1282.02 426.453 1240.39 452.68 1208.42 486.777L1208.59 483.141C1213.2 478.115 1218.05 471.389 1223.31 467.097C1228.03 463.251 1233.04 459.6 1237.76 455.712C1241.37 452.737 1246.29 450.753 1249.47 447.317C1250.71 445.978 1250.21 446.235 1251.89 445.387C1253.98 444.325 1255.62 443.517 1257.56 442.209L1259.38 442.068L1261.04 439.657C1264.08 438.903 1266.11 437.436 1268.04 435.122L1266.14 434.118L1267.11 430.608C1263.92 431.748 1259.87 433.829 1257.34 436.019L1256.83 436.521C1252.38 436.865 1236.68 448.504 1233.02 451.879L1224.83 458.664C1220.43 461.352 1215.93 465.698 1212.5 469.561L1211.17 468.967C1217.4 461.001 1225.96 454.84 1234.2 448.814C1253.68 434.571 1275.02 422.858 1297.56 413.455C1310.44 408.084 1323.8 403.85 1336.75 398.649L1339.02 410.756C1340 409.225 1341.18 408.358 1342.64 407.24L1344.32 417.097Z" fill="#E82D66"/>
<path d="M1339.02 410.756C1340 409.226 1341.18 408.358 1342.64 407.24L1344.32 417.097C1344.83 421.261 1346.31 427.104 1345.95 431.188C1343.05 436.578 1345.24 443.871 1344.67 449.898L1339.02 410.756Z" fill="#9E023B"/>
<path d="M1337.79 550.98L1339.76 551.142L1340.95 554.07C1339.05 556.156 1339.76 558.413 1338.81 560.944L1338.47 561.703C1341.12 561.519 1341.18 561.306 1343.21 559.638C1343.72 557.679 1344.25 555.628 1345.31 553.862L1345.79 553.152C1345.47 550.365 1344.54 546.458 1345.96 543.886C1351.16 534.456 1347.78 515.979 1348.82 504.871C1349.22 508.899 1348.79 515.092 1351.18 518.359C1352.69 517.097 1353.02 511.959 1353.55 509.837L1353.67 509.854L1359.15 516.061L1354.7 554.129C1351.34 555.053 1348.84 555.006 1347.18 558.195C1344.88 562.602 1343.53 566.63 1338.36 568.96C1337.35 569.417 1336.71 569.537 1335.58 569.856L1336.1 564.492L1337.79 550.98Z" fill="#D2093F"/>
<path d="M1344.32 417.097L1345.14 416.763L1346.13 416.675C1345.54 408.255 1342.17 399.811 1343.35 391.218C1343.52 390.015 1343.67 388.912 1343.73 387.693L1342.2 387.803L1340.87 386.192C1341.92 385.325 1342.55 384.879 1343.91 384.453C1345.65 383.904 1346.6 384.905 1348.16 385.631C1349.57 389.705 1348.14 393.586 1349.27 397.487L1349.74 398.699C1350.49 401.211 1351 402.168 1352.82 404.11L1353.41 404.715C1358.76 442.474 1364.32 477.884 1359.15 516.061L1353.67 509.854L1353.55 509.837C1353.02 511.959 1352.69 517.097 1351.18 518.359C1348.79 515.092 1349.22 508.899 1348.82 504.871L1346.46 468.22L1344.67 449.898C1345.24 443.871 1343.05 436.578 1345.95 431.188C1346.31 427.104 1344.83 421.261 1344.32 417.097Z" fill="#E82D66"/>
<path d="M1345.95 431.187L1350.65 474.974C1352.66 485.504 1354.89 499.252 1353.67 509.854L1353.55 509.837C1353.02 511.959 1352.69 517.097 1351.18 518.359C1348.79 515.091 1349.22 508.899 1348.82 504.87L1346.46 468.219L1344.67 449.898C1345.24 443.87 1343.05 436.578 1345.95 431.187Z" fill="#A70020"/>
<path d="M1346.46 468.22L1346.78 469.22C1349.48 478.221 1349.51 488.467 1350.32 497.795L1351.52 497.706C1351.13 490.3 1350.06 482.358 1350.65 474.974C1352.66 485.504 1354.89 499.252 1353.67 509.855L1353.55 509.837C1353.02 511.959 1352.69 517.097 1351.18 518.359C1348.79 515.092 1349.22 508.899 1348.82 504.871L1346.46 468.22Z" fill="#9E023B"/>
<path d="M1335.58 569.856C1336.71 569.537 1337.35 569.417 1338.36 568.96C1343.53 566.63 1344.88 562.602 1347.18 558.195C1348.84 555.006 1351.34 555.053 1354.7 554.129C1349.09 591.933 1341.58 629.565 1331.66 666.635C1329.15 676.033 1327.27 686.515 1323.71 695.562C1318.86 707.861 1309.08 718.133 1303.92 730.35C1298.18 731.661 1290.26 741.897 1285.53 745.72C1280.58 749.725 1274.82 753.352 1268.96 756.066C1252.4 763.717 1234.86 764.81 1217.48 759.17C1181.02 747.344 1160.69 710.797 1145.3 680.06C1151.13 678.886 1151.91 677.505 1155.12 673.277C1158.41 668.95 1162.39 667.033 1167.75 666.134L1168.53 666.74C1188.51 657.697 1207.71 644.859 1226.36 633.48C1250.24 618.903 1274.09 604.709 1297.65 589.66C1305.84 584.43 1314.04 579.196 1322.07 573.749C1325.26 571.585 1329.13 567.901 1332.77 566.681C1334.32 566.161 1334.94 565.57 1336.1 564.492L1335.58 569.856Z" fill="white"/>
<path d="M1335.58 569.856C1336.71 569.537 1337.35 569.417 1338.36 568.96C1343.53 566.63 1344.88 562.602 1347.18 558.195C1348.84 555.006 1351.34 555.053 1354.7 554.129C1349.09 591.933 1341.58 629.565 1331.66 666.635C1329.15 676.033 1327.27 686.515 1323.71 695.562C1318.86 707.861 1309.08 718.133 1303.92 730.35C1298.18 731.661 1290.26 741.897 1285.53 745.72C1280.58 749.725 1274.82 753.352 1268.96 756.066C1252.4 763.717 1234.86 764.81 1217.48 759.17C1181.02 747.344 1160.69 710.797 1145.3 680.06C1151.13 678.886 1151.91 677.505 1155.12 673.277C1158.41 668.95 1162.39 667.033 1167.75 666.134L1168.53 666.74C1173.93 680.871 1183.51 697.352 1192.92 709.514C1203.97 723.776 1218.13 736.047 1237.45 738.551C1246.68 739.743 1258.56 734.442 1265.79 729.119C1308.58 697.609 1328.42 618.408 1335.58 569.856Z" fill="#9E023B"/>
<path d="M787.994 511.915C786.229 482.64 790.618 451.445 794.67 422.402L822.834 425.753L827.3 426.077L916.586 446.587L921.866 448.584L940.856 456.162L955.441 462.607C971.381 471.705 988.779 480.914 1001.38 494.096C1036.34 524.067 1059.6 572.702 1074.61 614.2C1078.81 625.826 1084 639.211 1084.75 651.542C1085.18 658.523 1082.06 666.208 1080.04 672.862C1071.29 701.766 1058.48 730.006 1036.35 752.471C1018.59 770.509 995.743 780.682 969.689 781.649C955.08 782.191 942.517 779.486 928.74 775.515L922.734 773.217C904.309 763.746 886.765 752.204 872.195 737.944C854.347 720.474 840.752 699.286 827.992 678.379L825.132 672.212C809.882 642.498 798.167 613.322 791.689 580.743L789.87 569.433L787.994 511.915Z" fill="url(#paint10_linear_14_5417)"/>
<path d="M994.964 508.698C1000.18 513.179 1008.84 521.287 1009.56 528.11C1009.87 530.96 1007.25 535.578 1006.29 538.365L1001.5 531.999C1002.69 528.314 1003.07 525.457 1002.74 521.621C1002.02 520.198 1001.11 519.536 1000.26 518.266L999.55 516.887C997.119 513.79 996.182 512.665 994.964 508.698Z" fill="#D2093F"/>
<path d="M813.322 535.222C812.741 530.972 809.801 521.673 810.713 517.976C811.298 515.588 810.905 514.321 810.267 511.992L808.054 511.002C804.962 509.902 807.884 511.168 805.29 510.022L804.279 509.563C804.382 512.193 804.863 515.17 803.96 517.704C802.801 503.881 802.544 490.967 804.529 477.462C805.272 472.396 803.333 464.956 805.162 460.197C807.364 454.465 804.01 443.066 807.897 438.245C813.296 438.274 820.191 438.864 825.426 440.072L872.972 450.024C885.816 452.421 899.325 457.104 911.692 461.182C942.802 471.441 973.203 484.667 994.964 508.698C996.181 512.665 997.119 513.79 999.55 516.887L1000.26 518.266C1001.11 519.535 1002.02 520.198 1002.74 521.621C1003.07 525.457 1002.69 528.313 1001.5 531.998L989.761 517.342C944.242 473.538 879.641 459.846 817.408 449.429C815.671 456.253 815.775 464.225 815.325 471.23C814.36 486.226 813.828 501.269 813.597 516.284C813.502 522.37 814.268 529.26 813.322 535.222Z" fill="#EC3A78"/>
<path d="M989.761 517.342L991.556 516.346L992.037 516.968C994.031 519.361 996.306 521.352 998.215 523.863C999.642 523.123 1001.21 522.098 1002.74 521.621C1003.07 525.457 1002.69 528.313 1001.5 531.999L989.761 517.342Z" fill="#E82D66"/>
<path d="M787.994 511.915C786.229 482.64 790.618 451.445 794.671 422.402L822.835 425.753L827.3 426.077L916.587 446.587L921.867 448.584L940.857 456.162L955.441 462.607C971.382 471.705 988.779 480.914 1001.38 494.096L999.762 495.052L992.624 489.322L989.707 491.246L988.55 491.047C986.935 490.797 987.589 490.834 986.014 490.95L985.171 491.878L987.444 493.717L986.262 494.244C953.765 471.83 917.065 455.019 877.577 446.274C873.329 445.333 868.978 443.918 864.623 443.61C862.02 443.424 860.11 442.216 857.675 441.581C846.834 438.754 832.923 436.448 821.778 435.698C817.106 435.384 810.81 435.19 806.369 433.917C803.19 437.391 803.311 440.577 803.048 444.915C802.443 454.8 800.453 464.867 799.752 474.844C799.206 482.633 800.288 492.378 797.845 499.732L797.552 501.197L796.522 499.83C794.103 502.902 793.377 504.869 792.9 508.686C792.729 510.063 792.688 513.352 792.104 514.475C790.636 517.288 789.867 516.239 789.756 519.88L787.994 511.915Z" fill="#EC3A78"/>
<path d="M813.323 535.221C814.268 529.26 813.503 522.37 813.597 516.284C813.828 501.269 814.36 486.225 815.325 471.229C815.775 464.225 815.671 456.253 817.408 449.429C879.641 459.846 944.243 473.538 989.761 517.341L1001.5 531.998L1006.29 538.365C1023.86 562.63 1036.45 588.669 1047.11 616.186C1051.3 626.992 1056.28 639.43 1057.6 650.874C1058.46 658.292 1054.82 666.957 1052.27 673.891C1044.39 695.276 1034.97 715.677 1019.49 733.362C1008.84 745.527 992.535 755.58 975.596 756.966C947.424 759.272 926.982 749.261 906.05 732.553C864.749 699.586 834.538 645.393 822.137 596.303C817.063 576.227 815.008 555.783 813.323 535.221Z" fill="url(#paint11_linear_14_5417)"/>
<path d="M1593.36 470.955C1590.41 470.108 1587.05 469.251 1583.92 469.008C1571.37 468.026 1561.63 475.886 1552.95 481.96C1550.32 482.31 1546.16 483.288 1543.59 482.963C1538.14 482.273 1530.96 475.931 1525.1 474.082C1516.97 471.516 1506.48 472.808 1499.61 477.043C1495.63 479.498 1491.73 483.319 1487.41 485.242C1484.15 486.688 1479.97 486.023 1476.73 487.455C1474.64 488.378 1473.52 489.695 1473.08 491.627C1472.61 493.76 1473.86 495.511 1475.37 497.137C1477.09 497.771 1478.75 498.273 1480.64 498.389C1491.25 499.035 1499.32 493.181 1506.64 487.799C1519.42 479.325 1528.87 492.5 1541.64 494.315C1553.51 496.003 1560.11 493.165 1568.82 486.954C1572.43 484.381 1576.34 481.359 1581.37 481.055C1587.68 480.674 1594.5 485.794 1599.79 488.27C1604.37 490.407 1609.44 491.322 1614.66 491.121C1618.48 490.974 1624.46 490.298 1626.94 487.727C1629.09 485.496 1628.67 483.846 1628.06 481.3C1626.97 480.203 1625.73 478.714 1624.14 478.112C1621.37 477.064 1615.49 479.421 1612.58 480.179L1593.36 470.955Z" fill="#B10028"/>
<path d="M1527.31 236.829C1524.18 237.179 1520.67 237.671 1517.65 238.625C1505.52 242.456 1499.92 253.146 1494.52 261.839C1492.22 263.139 1488.79 265.572 1486.24 266.249C1480.86 267.673 1471.37 264.689 1465.09 265.232C1456.37 265.987 1447.17 271.076 1442.65 277.445C1440.02 281.136 1438.08 286.02 1434.9 289.361C1432.51 291.876 1428.32 292.849 1425.93 295.349C1424.39 296.958 1423.93 298.558 1424.38 300.45C1424.87 302.539 1426.82 303.635 1428.95 304.525C1430.82 304.449 1432.6 304.273 1434.41 303.668C1444.58 300.269 1449.51 291.999 1453.95 284.435C1462.11 272.057 1476.74 280.307 1489.44 277.142C1501.25 274.199 1506.15 269.184 1511.52 260.354C1513.74 256.697 1516.05 252.528 1520.6 250.368C1526.31 247.66 1534.93 249.685 1540.96 249.916C1546.16 250.114 1551.29 249.032 1556.07 246.893C1559.57 245.326 1564.84 242.481 1566.01 239.248C1567.03 236.443 1565.91 235.125 1564.22 233.072C1562.72 232.5 1560.9 231.632 1559.15 231.691C1556.11 231.792 1551.67 236.107 1549.29 237.877L1527.31 236.829Z" fill="#B10028"/>
<path d="M1380.75 58.4734C1378.41 60.493 1375.86 62.8334 1374.01 65.2557C1366.56 74.9879 1369.02 86.3249 1370.32 96.0183C1369.29 98.3002 1368.07 102.092 1366.42 104.037C1362.94 108.141 1353.17 111.166 1348.37 115.099C1341.7 120.557 1337.5 129.611 1337.99 137.033C1338.27 141.334 1339.89 146.17 1339.49 150.511C1339.18 153.78 1336.38 156.873 1336.06 160.129C1335.86 162.223 1336.54 163.711 1338.16 164.911C1339.95 166.234 1342.27 165.985 1344.6 165.478C1346.09 164.369 1347.44 163.24 1348.53 161.761C1354.64 153.46 1353.24 144.353 1351.89 136.064C1350.43 122.001 1367.9 120.139 1376.25 110.6C1384.01 101.729 1384.72 95.142 1383.31 85.3598C1382.72 81.3091 1381.86 76.8223 1384.18 72.6133C1387.09 67.3381 1395.5 64.068 1400.61 60.8696C1405.02 58.107 1408.52 54.4052 1411.03 50.0902C1412.87 46.9294 1415.32 41.7976 1414.16 38.6586C1413.14 35.9352 1411.35 35.5546 1408.61 34.9249C1406.99 35.3275 1404.93 35.6773 1403.53 36.7032C1401.1 38.4857 1400.3 44.2786 1399.51 46.9679L1380.75 58.4734Z" fill="#B10028"/>
</g>
<defs>
<linearGradient id="paint0_linear_14_5417" x1="692.529" y1="548.786" x2="584.391" y2="481.754" gradientUnits="userSpaceOnUse">
<stop stop-color="#120E1F"/>
<stop offset="1" stop-color="#2F3447"/>
</linearGradient>
<linearGradient id="paint1_linear_14_5417" x1="1294.45" y1="303.666" x2="1265.54" y2="80.2434" gradientUnits="userSpaceOnUse">
<stop stop-color="#08000A"/>
<stop offset="1" stop-color="#1F1D31"/>
</linearGradient>
<linearGradient id="paint2_linear_14_5417" x1="947.411" y1="839.347" x2="934.743" y2="842.037" gradientUnits="userSpaceOnUse">
<stop stop-color="#221C2F"/>
<stop offset="1" stop-color="#353640"/>
</linearGradient>
<linearGradient id="paint3_linear_14_5417" x1="826.387" y1="823.094" x2="805.57" y2="834.198" gradientUnits="userSpaceOnUse">
<stop stop-color="#0D0A19"/>
<stop offset="1" stop-color="#373842"/>
</linearGradient>
<linearGradient id="paint4_linear_14_5417" x1="968.878" y1="265.883" x2="899.86" y2="147.054" gradientUnits="userSpaceOnUse">
<stop stop-color="#130C1E"/>
<stop offset="1" stop-color="#2D3548"/>
</linearGradient>
<linearGradient id="paint5_linear_14_5417" x1="741.535" y1="666.637" x2="539.331" y2="504.863" gradientUnits="userSpaceOnUse">
<stop stop-color="#0E0615"/>
<stop offset="1" stop-color="#262B3F"/>
</linearGradient>
<linearGradient id="paint6_linear_14_5417" x1="1060.62" y1="349.627" x2="994.505" y2="254.79" gradientUnits="userSpaceOnUse">
<stop stop-color="#1E1728"/>
<stop offset="1" stop-color="#474458"/>
</linearGradient>
<linearGradient id="paint7_linear_14_5417" x1="1034.66" y1="379.054" x2="981.893" y2="324.759" gradientUnits="userSpaceOnUse">
<stop stop-color="#191324"/>
<stop offset="1" stop-color="#383043"/>
</linearGradient>
<linearGradient id="paint8_linear_14_5417" x1="1252.77" y1="868.311" x2="815.386" y2="684.468" gradientUnits="userSpaceOnUse">
<stop stop-color="#000003"/>
<stop offset="1" stop-color="#150A23"/>
</linearGradient>
<linearGradient id="paint9_linear_14_5417" x1="1170.48" y1="663.532" x2="1348.59" y2="434.645" gradientUnits="userSpaceOnUse">
<stop stop-color="white"/>
<stop offset="1" stop-color="#F1FFFD"/>
</linearGradient>
<linearGradient id="paint10_linear_14_5417" x1="1016.57" y1="765.463" x2="843.976" y2="471.934" gradientUnits="userSpaceOnUse">
<stop stop-color="#B50031"/>
<stop offset="1" stop-color="#EE1A5F"/>
</linearGradient>
<linearGradient id="paint11_linear_14_5417" x1="986.296" y1="752.806" x2="855.554" y2="437.488" gradientUnits="userSpaceOnUse">
<stop stop-color="white"/>
<stop offset="1" stop-color="#FFFFFE"/>
</linearGradient>
<clipPath id="clip0_14_5417">
<rect width="1920" height="1080" fill="white"/>
</clipPath>
</defs>
</svg>
