<svg width="1920" height="1080" viewBox="0 0 1920 1080" fill="none" xmlns="http://www.w3.org/2000/svg">
<g clip-path="url(#clip0_14_5300)">
<path d="M1264.48 253.322L1279.93 270.294L1269.63 269.135L1257.47 261.581L1251.7 259.714L1244.74 256.057C1249.69 253.466 1256.41 257.578 1262.33 257.07L1264.48 253.322Z" fill="#737A87"/>
<path d="M681.632 374.626C687.088 357.148 696.111 339.942 705.283 323.714L706.587 331.927C704.67 336.389 689.171 365.874 686.304 367.402L685.671 368.871C684.719 371.012 683.254 372.836 681.632 374.626Z" fill="#737A87"/>
<path d="M724.568 720.792L729.051 720.221L730.914 722.379L732.284 723.542C735.849 734.892 739.926 747.064 745.761 757.633C748.463 762.532 750.48 767.337 753.008 772.296C756.689 779.514 760.674 783.188 761.548 791.541C755.983 784.923 752.04 775.313 748.101 767.786C739.981 752.268 731.605 736.735 724.568 720.792Z" fill="#636375"/>
<path d="M1269.63 269.135L1279.93 270.294C1291.97 285.549 1302.74 300.523 1312.3 317.144C1310.68 316.123 1308.81 315.099 1307.63 313.675C1306.77 312.644 1306.52 311.912 1305.19 311.248C1304.09 310.703 1304.4 311.072 1303.62 310.182L1302.95 309.323C1292.32 296.073 1278.5 283.306 1269.63 269.135Z" fill="#494D5D"/>
<path d="M739.199 274.81C740.317 277.712 741.632 278.763 743.949 280.932L744.091 281.121C737.813 289.882 728.436 298.956 723.528 308.14C721.837 309.671 717.892 312.426 717.325 314.32C716.633 316.632 713.998 318.925 712.877 321.384C711.905 323.513 708.377 330.566 706.586 331.927L705.282 323.714C714.797 306.495 726.156 290.158 739.199 274.81Z" fill="#758092"/>
<path d="M1257.47 261.581L1269.63 269.135C1278.5 283.306 1292.32 296.073 1302.95 309.323L1303.62 310.182C1304.4 311.072 1304.09 310.703 1305.19 311.248C1306.52 311.912 1306.77 312.644 1307.63 313.675C1308.81 315.099 1310.68 316.123 1312.3 317.144L1327.77 344.31L1325.3 349.399C1324.28 346.887 1323.24 344.298 1321.17 342.32C1314.03 335.518 1309.99 324.952 1303.83 317.143C1296.31 307.622 1288.23 297.525 1280.08 288.502C1271.91 279.45 1263.69 271.953 1257.47 261.581Z" fill="#3A3C4D"/>
<path d="M1235.6 252.103C1238.49 253.561 1241.48 255.365 1244.74 256.056L1251.7 259.713L1257.47 261.58C1263.69 271.952 1271.91 279.45 1280.08 288.502C1288.23 297.525 1296.31 307.622 1303.83 317.143C1309.99 324.952 1314.03 335.518 1321.17 342.319C1323.24 344.298 1324.28 346.886 1325.3 349.399L1323.89 351.884C1322.5 350.731 1321.41 349.827 1320.38 348.395C1317.1 343.865 1313.36 340.272 1310.51 335.39L1309.36 335.822C1304.79 332.476 1302.11 326.465 1298.94 322.032C1295.56 317.301 1290.29 313.481 1287.17 309.019C1284.8 305.623 1283.7 301.925 1280.98 298.562C1274.08 290.034 1266.19 281.903 1258.49 273.929C1255 270.321 1250.36 266.874 1248.1 262.559C1246.76 260.531 1245.11 259.443 1242.78 258.379C1239 256.649 1237.53 255.506 1235.6 252.103Z" fill="#2E3245"/>
<path d="M1235.6 252.103C1238.49 253.561 1241.48 255.365 1244.74 256.056L1251.7 259.713C1257.4 270.367 1267.49 279.525 1275.65 288.772C1278.74 292.267 1282.64 295.939 1284.5 300.1C1286.18 303.888 1287.85 306.712 1291.24 309.511C1293.71 311.552 1289.75 308.218 1292.64 311.149L1293.71 311.896C1300.42 316.7 1306.27 327.854 1310.59 334.667L1310.51 335.39L1309.36 335.822C1304.79 332.476 1302.11 326.465 1298.94 322.032C1295.56 317.301 1290.29 313.481 1287.17 309.019C1284.8 305.623 1283.7 301.925 1280.98 298.562C1274.08 290.034 1266.19 281.903 1258.49 273.929C1255 270.321 1250.36 266.874 1248.1 262.559C1246.76 260.531 1245.11 259.443 1242.78 258.379C1239 256.649 1237.53 255.506 1235.6 252.103Z" fill="#312C3D"/>
<path d="M1327.77 344.31L1332.37 354.446C1338.92 370.641 1344.88 386.618 1349.96 403.238C1352.73 412.278 1356.04 422.219 1356.78 431.625C1351.17 435.928 1339.67 438.03 1332.51 439.887C1329.82 436.58 1331.45 433.152 1329.58 429.844C1328.53 427.991 1329.12 426.372 1328.48 424.526C1327.26 421.024 1327.72 417.001 1326.48 413.832C1326 412.613 1325.27 412.144 1325.13 410.761C1324.86 408.197 1325.26 404.431 1324.4 402.059C1322.88 397.885 1321.1 392.497 1320.24 388.07C1319.37 383.643 1320.9 379.324 1317.65 375.854L1320.24 370.589L1315.29 367.648L1310.11 366.432L1308.25 364.241L1309.54 362.463C1313.06 362.42 1315.37 362.137 1318.65 360.907C1320.99 358.604 1322.4 354.717 1323.89 351.885L1325.3 349.399L1327.77 344.31Z" fill="#1F1C26"/>
<path d="M1327.77 344.31L1332.37 354.446L1328.18 354.097C1324.26 359.353 1321.61 364.428 1320.24 370.589L1315.29 367.648L1310.11 366.432L1308.25 364.241L1309.54 362.463C1313.06 362.42 1315.37 362.137 1318.65 360.907C1320.99 358.604 1322.4 354.717 1323.89 351.885L1325.3 349.399L1327.77 344.31Z" fill="#494D5D"/>
<path d="M1097.13 152.021C1143.9 163.188 1196.69 190.794 1229.57 221.769C1236.16 226.16 1242.49 232.115 1247.82 237.69L1264.48 253.322L1262.33 257.07C1256.41 257.578 1249.69 253.466 1244.74 256.057C1241.48 255.365 1238.49 253.561 1235.6 252.103C1225.22 247.805 1216.86 242.11 1207.54 236.473C1191.04 226.502 1174.97 215.95 1159.38 204.904C1150.15 198.359 1140.94 190.739 1130.82 185.304L1129.71 182.94L1110.02 168.649L1103.53 162.073L1104.89 159.982C1103.35 155.975 1098.62 155.593 1097.13 152.021Z" fill="#525061"/>
<path d="M1164.46 203.25C1171.07 202.578 1178.55 208.264 1183.51 211.638C1192.26 217.577 1201.52 222.982 1210.18 228.869C1215.68 232.609 1220.71 237.002 1226.72 240.03C1231.99 242.682 1235.08 244.463 1241.27 245.605C1244.46 247.797 1247.03 250.242 1249.73 252.878C1219.14 240.37 1189.18 223.626 1164.46 203.25Z" fill="#312C3D"/>
<path d="M1122.82 168.229C1126.6 168.631 1129.58 169.029 1133 170.496C1134.17 171 1135.13 171.025 1136.38 171.287C1142.24 172.515 1148.44 176.465 1153.66 179.071C1167.74 186.095 1180.82 193.591 1194.44 201.173C1198.96 203.691 1203.94 205.587 1208.36 208.245C1215.93 212.81 1219.55 220.414 1229.57 221.769C1236.16 226.16 1242.49 232.115 1247.82 237.69C1227.14 231.74 1215.07 215.227 1197.6 204.932C1183.45 196.592 1169.22 188.245 1153.98 181.373C1144.02 176.884 1131.69 173.918 1122.82 168.229Z" fill="#616472"/>
<path d="M1164.46 203.25L1129.48 178.043C1136.23 179.509 1141.14 183.133 1147.17 185.908C1155.74 189.856 1164.61 192.878 1172.97 197.278C1180.55 201.277 1186.97 206.239 1193.91 210.99C1200.09 215.227 1207.04 218.576 1213.1 222.97C1219.45 227.573 1224.62 233.251 1230.54 238.253C1233.82 241.027 1238.23 242.745 1241.27 245.605C1235.08 244.463 1231.99 242.682 1226.72 240.03C1220.71 237.002 1215.68 232.609 1210.18 228.869C1201.52 222.982 1192.26 217.577 1183.51 211.638C1178.55 208.265 1171.07 202.578 1164.46 203.25Z" fill="#2E3245"/>
<path d="M1097.13 152.021C1143.9 163.188 1196.69 190.794 1229.57 221.769C1219.55 220.414 1215.93 212.81 1208.36 208.245C1203.94 205.587 1198.96 203.691 1194.44 201.173C1180.82 193.591 1167.74 186.095 1153.66 179.071C1148.44 176.465 1142.24 172.515 1136.38 171.287C1135.13 171.025 1134.17 171 1133 170.496C1129.58 169.029 1126.6 168.631 1122.82 168.229C1118.57 165.93 1114.86 163.804 1109.86 162.947C1117.11 168.653 1124.83 174.188 1130.97 180.859L1129.71 182.94L1110.02 168.649L1103.53 162.073L1104.89 159.982C1103.35 155.975 1098.62 155.593 1097.13 152.021Z" fill="#737A87"/>
<path d="M969.883 142.465C995.767 138.734 1025.41 138.075 1051.15 142.339L1052.85 142.608L1044.47 150.777C1041.1 154.22 1037.76 158.096 1033.99 161.179L1031.23 158.459L1026.81 162.098C1021.95 159.818 1008.14 161.315 1002.11 161.731C999.988 161.876 996.079 162.641 994.294 161.912C993.157 161.45 992.248 161.319 991.03 161.124L987.289 160.309C986.128 160.038 985.498 159.798 984.399 160.21C981.58 161.271 979.016 161.515 976.024 161.67L974.882 162.826C972.568 164.666 968.648 164.453 965.783 164.576C963.674 166.027 962.125 165.431 960.452 167.12L956.087 166.361C952.657 168.721 949.055 166.861 945.87 169.255C943.931 170.713 941.576 170.747 939.226 170.82L937.928 169.829C936.439 170.627 936.464 170.886 935.638 172.164L934.328 171.185C931.031 173.451 926.636 171.638 923.946 173.489C920.334 175.972 915.85 176.931 911.425 177.173L911.284 177.827C910.877 179.205 910.058 180.399 909.306 181.652C907.11 181.811 907.342 182.193 905.562 180.837L904.85 181.13C903.295 181.714 904.115 181.394 902.253 181.859C900.459 182.31 900.42 182.652 898.996 183.482C897.168 184.546 895.703 184.94 893.567 184.967L893.076 186.623L891.686 186.959C888.011 187.879 885.728 190.142 882.394 191.731C881.144 192.324 880.14 193.481 879.255 194.425C873.218 200.854 862.038 204.442 853.78 207.552C848.001 209.726 842.751 212.916 836.825 215.006C834.991 215.652 834.205 216.483 832.678 217.536L830.974 218.406C828.859 219.466 827.336 220.841 825.658 222.377L825.545 223.035C824.923 225.094 823.498 226.301 821.721 227.551C820.724 228.25 820.148 229.199 819.54 230.136C818.802 231.274 817.937 231.537 816.801 232.265C814.427 233.782 813.334 235.576 810.743 237.009L808.422 238.797C805.876 240.71 802.059 244.24 799.089 245.129C797.479 245.611 796.74 246.298 795.527 247.315C793.507 247.469 792.166 247.269 790.72 248.747C789.899 249.58 784.752 254.883 784.453 255.712C783.588 258.133 784.74 258.76 783.06 261.531C781.189 264.616 778.859 266.316 776.452 268.945C771.375 274.487 769.101 278.397 761.839 282.068L759.818 285.427L758.563 287.119C754.64 285.387 752.29 283.493 749.432 280.58C746.626 277.256 744.371 274.067 742.59 270.214C769.038 239.18 800.027 211.495 836.624 189.854C847.588 182.683 859.083 176.5 871.347 171.258C878.067 167.315 886.138 164.44 893.512 161.585C918.223 152.02 943.446 146.325 969.883 142.465Z" fill="#737A87"/>
<path d="M836.624 189.853C847.588 182.682 859.083 176.5 871.347 171.258C869.559 174.311 868.299 176.325 865.165 178.425C859.045 181.974 851.48 185.112 846.166 189.497C844.169 191.145 841.418 192.143 839.253 193.726C835.973 196.119 833.75 198.946 830.259 200.926L827.924 202.727L827.274 202.219C830.574 198.986 834.453 196.012 835.847 191.802L836.624 189.853Z" fill="#737B8B"/>
<path d="M871.347 171.258C878.068 167.315 886.139 164.44 893.513 161.585C918.224 152.02 943.446 146.325 969.883 142.465L969.148 143.733L965.54 144.011L964.459 145.976C957.989 147.947 952.028 148.036 945.508 149.275C942.875 149.776 940.43 150.966 937.826 151.434C934.747 151.984 933.485 151.576 930.572 153.04C926.683 155 922.618 155.837 918.598 157.296C909.738 160.51 899.01 165.999 889.801 167.691C887.554 168.103 886.397 168.839 884.512 169.91C879.713 172.64 870.645 177.51 865.165 178.425C868.299 176.325 869.559 174.311 871.347 171.258Z" fill="#758092"/>
<path d="M749.432 280.58C755.459 269.562 765.894 260.065 775.093 251.043C781.913 244.349 789.466 236.309 797.777 231.1L803.903 227.245L805.657 226.011C811.019 223.068 814.472 217.985 819.508 214.708C827.085 209.782 834.751 205.222 842.397 200.347C846.62 197.656 851.908 193.639 856.759 192.203C858.028 191.829 857.667 192.063 858.692 191.359C867.101 185.557 876.848 181.51 886.28 177.369C889.255 176.063 891.986 173.793 895.166 172.939L908.373 168.734C913.124 167.339 917.482 165.473 922.157 163.939C923.551 163.481 924.367 163.419 925.583 162.579C928.039 160.887 932.689 161.284 935.396 160.281C943.722 157.19 952.763 156.471 961.352 154.069C964.936 153.067 967.716 154.586 971.049 152.284C979.835 151.777 987.718 149.79 996.496 149.353C998.326 149.262 998.743 149.893 1000.36 150.159C1003.67 150.699 1008.08 148.797 1011.37 149.372C1012.86 149.633 1013.33 150.335 1015.01 150.236C1021.91 149.837 1029.87 149.188 1036.61 150.255L1037.33 151.823L1031.23 158.459L1026.81 162.097C1021.95 159.818 1008.14 161.315 1002.11 161.731C999.989 161.875 996.079 162.641 994.294 161.912C993.157 161.45 992.249 161.319 991.03 161.124L987.29 160.309C986.129 160.038 985.498 159.798 984.399 160.21C981.58 161.271 979.016 161.514 976.025 161.669L974.882 162.826C972.569 164.666 968.648 164.452 965.784 164.576C963.675 166.027 962.126 165.431 960.453 167.12L956.087 166.361C952.658 168.721 949.055 166.861 945.87 169.255C943.932 170.713 941.576 170.747 939.226 170.82L937.929 169.829C936.439 170.627 936.464 170.886 935.639 172.164L934.329 171.185C931.031 173.451 926.637 171.638 923.947 173.488C920.334 175.972 915.851 176.931 911.426 177.173L911.284 177.827C910.878 179.205 910.058 180.399 909.306 181.652C907.11 181.811 907.343 182.193 905.562 180.837L904.851 181.13C903.296 181.714 904.116 181.394 902.253 181.859C900.459 182.31 900.421 182.652 898.997 183.481C897.168 184.546 895.703 184.94 893.567 184.967L893.077 186.623L891.686 186.959C888.011 187.879 885.728 190.142 882.394 191.731C881.145 192.324 880.14 193.481 879.256 194.424C873.218 200.854 862.039 204.442 853.781 207.552C848.002 209.726 842.752 212.916 836.825 215.006C834.992 215.652 834.206 216.482 832.679 217.536L830.974 218.406C828.859 219.466 827.336 220.841 825.658 222.377L825.545 223.035C824.924 225.094 823.499 226.301 821.721 227.551C820.725 228.25 820.149 229.199 819.541 230.136C818.802 231.274 817.938 231.537 816.802 232.265C814.428 233.782 813.334 235.576 810.743 237.009L808.423 238.797C805.876 240.71 802.059 244.24 799.089 245.129C797.48 245.611 796.74 246.297 795.528 247.315C793.508 247.469 792.167 247.269 790.72 248.747C789.9 249.58 784.753 254.883 784.454 255.712C783.588 258.133 784.74 258.76 783.06 261.531C781.189 264.616 778.859 266.316 776.452 268.945C771.376 274.487 769.102 278.397 761.84 282.068L759.819 285.427L758.564 287.118C754.641 285.387 752.29 283.493 749.432 280.58Z" fill="#494D5D"/>
<path d="M723.528 308.139C728.436 298.956 737.814 289.882 744.092 281.121C747.307 283.844 749.915 286.045 751.709 289.764L753.011 291.126L753.079 291.973C748.065 294.17 747.755 298.401 744.848 302.471L743.812 304.105C740.994 308.529 736.489 311.801 734.181 316.241L733.407 317.282C731.215 320.273 728.987 324.463 727.991 327.834C727.668 328.928 727.698 328.604 726.863 329.747C725.918 331.033 725.758 331.644 725.575 333.122C723.66 334.684 722.595 336.129 720.998 337.787L718.678 339.575L718.182 341.248L719.432 341.699L718.338 343.404L719.627 344.396L719.429 345.32L718.624 350.664C718.269 353.023 716.869 355.236 716.291 357.636C715.549 360.717 714.759 364.015 712.633 366.577C712.783 368.647 713.325 368.763 711.695 370.43C710.831 368.752 710.711 368.395 709.006 367.383C707.245 369.469 706.982 369.999 706.307 372.45C705.291 376.15 703.384 377.653 703.91 381.841L702.804 383.547C703.927 384.384 703.175 384.061 705.286 383.909C705.627 387.497 702.856 392.322 701.663 395.827C700.013 400.66 699.112 405.606 697.393 410.481L695.593 411.157L695.203 412.642C694.615 414.769 693.598 416.279 692.37 418.172C690.515 421.036 690.545 424.064 689.643 427.12C689.199 428.628 689.498 429.159 690.231 430.518L689.125 432.224C690.142 433.721 689.387 433.154 691.607 433.671C690.895 434.779 690.38 435.668 689.345 436.573C681.976 457.511 682.924 480.173 682.062 501.756C681.896 505.897 679.879 514.095 682.159 517.504L683.16 518.824C680.332 525.247 682.937 529.135 683.677 535.588C684.004 538.458 683.465 541.355 683.828 544.248C684.939 553.141 687.355 563.136 689.283 571.929C691.441 581.784 694.77 591.308 696.551 601.291L698.624 602.304L700.521 599.236L703.464 596.491L704.992 599.799L703.681 604.197L699.314 615.6C697.277 619.088 695.43 622.288 694.178 626.063C693.772 627.282 693.117 628.218 692.309 629.261L692.545 632.36C693.616 633.037 695.84 634.053 696.594 634.912C701.031 639.977 703.028 650.943 705.209 657.292C708.737 667.559 714.199 677.406 717.642 687.588C720.564 696.228 723.049 707.422 728.767 714.931C726.438 715.382 724.884 715.675 722.858 716.881C712.419 696.37 704.24 674.987 696.183 653.646C674.869 597.202 659.968 541.704 660.388 481.445C661.612 445.554 668.549 408.876 681.631 374.626C683.253 372.836 684.719 371.013 685.671 368.871L686.304 367.402C689.171 365.874 704.67 336.389 706.586 331.927C708.378 330.566 711.905 323.513 712.877 321.384C713.998 318.925 716.633 316.631 717.325 314.32C717.892 312.426 721.837 309.671 723.528 308.139Z" fill="#616472"/>
<path d="M706.586 331.927C708.377 330.566 711.905 323.513 712.877 321.384C713.998 318.925 716.633 316.632 717.325 314.32C717.892 312.426 721.837 309.671 723.528 308.14L722.981 309.32C720.445 314.733 716.607 319.231 713.822 324.462C704.819 341.378 696.161 358.225 689.334 375.843C687.702 380.062 685.155 383.751 684.104 388.144C683.103 392.34 681.078 396.218 680.076 400.358L676.69 413.072C674.934 418.798 672.649 424.904 671.827 430.765C671.302 434.499 670.796 438.687 669.595 442.3L668.685 442.366L667.802 438.637C665.839 445.668 666.053 453.453 664.117 460.044C663.438 462.357 665.456 462.73 663.245 464.985C663.433 467.593 664.841 474.459 663.526 476.49C662.677 477.8 663.096 477.113 662.527 478.508C662.013 479.755 661.35 480.449 660.387 481.445C661.612 445.554 668.548 408.876 681.631 374.626C683.253 372.836 684.719 371.013 685.671 368.871L686.303 367.402C689.17 365.874 704.67 336.389 706.586 331.927Z" fill="#737B8B"/>
<path d="M698.623 602.304C698.173 606.085 694.502 611.536 692.581 615.027C688.219 592.891 680.083 571.145 676.561 548.996C675.594 542.92 675.763 536.687 675.152 530.571C673.056 509.665 671.931 487.951 673.884 466.933C677.5 427.994 690.799 388.201 708.861 352.576C711.191 347.977 712.593 343 715.131 338.527C721.718 326.911 729.722 316.583 737.582 305.704C740.112 302.205 744.56 292.75 748.197 290.861C749.269 290.301 750.54 290.129 751.708 289.764L753.011 291.127L753.078 291.974C748.065 294.17 747.754 298.401 744.848 302.471L743.812 304.105C740.994 308.529 736.489 311.801 734.181 316.241L733.407 317.282C731.215 320.273 728.986 324.463 727.991 327.834C727.668 328.929 727.698 328.605 726.862 329.747C725.918 331.033 725.757 331.644 725.575 333.123C723.66 334.684 722.594 336.129 720.998 337.787L718.677 339.575L718.182 341.248L719.431 341.699L718.338 343.404L719.626 344.396L719.429 345.32L718.623 350.664C718.269 353.023 716.869 355.236 716.291 357.636C715.548 360.717 714.758 364.015 712.633 366.577C712.782 368.647 713.325 368.764 711.694 370.43C710.831 368.752 710.711 368.395 709.006 367.383C707.245 369.469 706.981 369.999 706.306 372.45C705.291 376.15 703.384 377.653 703.91 381.841L702.804 383.547C703.927 384.384 703.174 384.061 705.286 383.909C705.626 387.497 702.856 392.322 701.663 395.827C700.013 400.661 699.112 405.606 697.392 410.481L695.592 411.157L695.203 412.642C694.614 414.769 693.598 416.279 692.37 418.172C690.514 421.036 690.545 424.064 689.643 427.12C689.199 428.628 689.498 429.159 690.231 430.518L689.125 432.224C690.142 433.721 689.387 433.154 691.607 433.671C690.894 434.78 690.38 435.669 689.345 436.573C681.975 457.511 682.924 480.173 682.062 501.756C681.896 505.897 679.879 514.095 682.159 517.504L683.16 518.824C680.332 525.247 682.937 529.135 683.676 535.588C684.003 538.459 683.464 541.355 683.827 544.248C684.938 553.142 687.355 563.136 689.282 571.929C691.441 581.784 694.77 591.308 696.551 601.291L698.623 602.304Z" fill="#3A3C4D"/>
<path d="M759.819 285.427L761.84 282.068C769.102 278.397 771.376 274.487 776.452 268.945C778.859 266.316 781.189 264.616 783.06 261.531C784.74 258.76 783.588 258.133 784.454 255.712C784.753 254.883 789.9 249.58 790.72 248.747C792.167 247.269 793.508 247.469 795.528 247.315C796.74 246.298 797.48 245.611 799.089 245.129C802.059 244.24 805.876 240.71 808.423 238.797L810.743 237.009C813.334 235.576 814.428 233.782 816.802 232.265C817.938 231.537 818.802 231.274 819.541 230.136C820.149 229.199 820.725 228.25 821.721 227.551C823.499 226.301 824.924 225.094 825.545 223.035L825.658 222.377C827.336 220.841 828.859 219.466 830.974 218.406L832.679 217.536C834.206 216.483 834.992 215.652 836.825 215.006C842.752 212.916 848.002 209.726 853.781 207.552C862.039 204.442 873.218 200.854 879.256 194.425C880.14 193.481 881.145 192.324 882.394 191.731C885.728 190.142 888.011 187.879 891.686 186.959L893.077 186.623L893.567 184.967C895.703 184.94 897.168 184.546 898.997 183.482C900.421 182.652 900.459 182.31 902.253 181.859C904.116 181.394 903.296 181.714 904.851 181.13L905.562 180.837C907.343 182.193 907.11 181.811 909.306 181.652C910.058 180.399 910.878 179.205 911.284 177.827L911.426 177.173C915.851 176.931 920.334 175.972 923.947 173.489C926.637 171.638 931.031 173.451 934.329 171.185L935.639 172.164C936.464 170.886 936.439 170.627 937.929 169.829L939.226 170.82C941.576 170.747 943.932 170.713 945.87 169.255C949.055 166.861 952.658 168.721 956.087 166.361L960.453 167.12C962.126 165.431 963.675 166.027 965.784 164.576C968.648 164.453 972.569 164.666 974.882 162.826L976.025 161.67C979.016 161.515 981.58 161.271 984.399 160.21C985.498 159.798 986.129 160.038 987.29 160.309L991.03 161.124C992.249 161.319 993.157 161.45 994.294 161.912C996.079 162.641 999.989 161.876 1002.11 161.731C1008.14 161.315 1021.95 159.818 1026.81 162.098C1002.34 185.094 976.303 206.165 946.837 224.117C891.291 257.954 825.707 277.058 759.819 285.427Z" fill="#2E3245"/>
<path d="M753.079 291.973C753.761 340.621 752.166 388.392 745.224 436.844C739.885 474.097 730.482 511.145 719.383 547.441L705.136 585.024C704.128 589.742 702.489 593.609 700.249 597.985L700.522 599.236L698.624 602.304L696.551 601.291C694.771 591.308 691.441 581.784 689.283 571.929C687.356 563.136 684.939 553.141 683.828 544.248C683.465 541.355 684.004 538.458 683.677 535.588C682.937 529.135 680.333 525.247 683.161 518.824L682.16 517.504C679.879 514.095 681.897 505.897 682.063 501.756C682.925 480.173 681.976 457.511 689.346 436.573C690.381 435.668 690.895 434.78 691.607 433.671C689.388 433.154 690.143 433.721 689.126 432.224L690.232 430.518C689.499 429.159 689.199 428.628 689.644 427.12C690.545 424.064 690.515 421.036 692.371 418.172C693.599 416.279 694.615 414.769 695.204 412.642L695.593 411.157L697.393 410.481C699.113 405.606 700.013 400.66 701.664 395.827C702.857 392.322 705.627 387.497 705.286 383.909C703.175 384.061 703.928 384.384 702.805 383.547L703.911 381.841C703.385 377.653 705.292 376.15 706.307 372.45C706.982 369.999 707.246 369.469 709.007 367.383C710.712 368.395 710.832 368.752 711.695 370.43C713.326 368.763 712.783 368.647 712.633 366.577C714.759 364.015 715.549 360.717 716.292 357.636C716.87 355.236 718.269 353.023 718.624 350.664L719.43 345.32L719.627 344.396L718.339 343.404L719.432 341.699L718.183 341.248L718.678 339.575L720.998 337.787C722.595 336.129 723.661 334.684 725.576 333.122C725.758 331.644 725.918 331.033 726.863 329.747C727.699 328.604 727.669 328.929 727.992 327.834C728.987 324.463 731.215 320.273 733.408 317.282L734.182 316.241C736.489 311.801 740.994 308.529 743.813 304.105L744.848 302.471C747.755 298.401 748.066 294.17 753.079 291.973Z" fill="url(#paint0_linear_14_5300)"/>
<path d="M687.589 487.905L689.405 488.72C689.66 490.849 688.48 492.446 688.947 494.036C689.447 495.737 689.435 496.831 689.25 498.578C686.722 522.651 698.03 546.999 699.168 570.713C699.249 572.355 699.483 571.586 698.071 573.026L698.823 574.866L699.685 575.126C700.856 575.544 701.313 575.985 702.12 576.798C702.576 579.798 702.676 582.668 702.672 585.699L700.382 588.034L700.98 591.784L703.784 584.819L705.135 585.024C704.127 589.742 702.489 593.609 700.248 597.985C698.028 595.887 697.955 592.737 697.262 589.935C695.759 583.842 693.975 577.689 692.83 571.542C692.196 568.131 692.112 563.042 690.356 560.067L689.688 558.997L690.537 557.31C688.389 554.291 689.702 550.702 688.561 547.402L688.125 546.377C687.693 545.101 687.734 544.232 686.673 543.213L686.063 542.73L686.517 540.53C689.469 532.334 682.15 519.424 686.072 511.771C686.645 510.653 686.999 509.943 687.31 508.769C685.038 507.038 686.268 493.164 685.939 489.397L687.589 487.905Z" fill="#312C3D"/>
<path d="M689.346 436.573C691.211 439.324 692.011 440.09 691.167 443.459C688.985 452.168 690.51 461.745 688.173 469.688L687.59 487.905L685.94 489.398C686.269 493.164 685.038 507.038 687.311 508.769C687 509.943 686.645 510.654 686.072 511.772C682.151 519.425 689.469 532.334 686.518 540.53L686.064 542.73L686.674 543.213C687.735 544.233 687.694 545.101 688.126 546.377L688.561 547.403C689.702 550.703 688.389 554.291 690.538 557.31L689.688 558.997L690.357 560.067C692.112 563.043 692.197 568.131 692.83 571.543C693.975 577.689 695.759 583.842 697.262 589.935C697.955 592.738 698.029 595.887 700.249 597.985L700.522 599.237L698.624 602.304L696.551 601.291C694.771 591.308 691.442 581.784 689.283 571.929C687.356 563.136 684.939 553.142 683.828 544.248C683.465 541.356 684.004 538.459 683.677 535.588C682.937 529.135 680.333 525.247 683.161 518.824L682.16 517.504C679.879 514.095 681.897 505.897 682.063 501.756C682.925 480.173 681.976 457.511 689.346 436.573Z" fill="#2E3245"/>
<path d="M1068.93 145.209L1097.13 152.021C1098.62 155.593 1103.35 155.975 1104.89 159.982L1103.53 162.072L1110.02 168.649L1129.71 182.94L1130.82 185.304C1140.94 190.739 1150.15 198.359 1159.38 204.904C1174.98 215.95 1191.04 226.502 1207.54 236.473C1216.87 242.11 1225.22 247.805 1235.6 252.103C1237.53 255.506 1239 256.649 1242.78 258.379C1245.11 259.443 1246.76 260.531 1248.1 262.559C1250.36 266.874 1255 270.321 1258.49 273.929C1266.19 281.903 1274.08 290.034 1280.98 298.562C1283.7 301.925 1284.8 305.623 1287.17 309.02C1290.29 313.481 1295.56 317.301 1298.94 322.032C1302.11 326.465 1304.79 332.476 1309.36 335.822L1310.51 335.39C1313.36 340.273 1317.1 343.865 1320.38 348.395C1321.41 349.827 1322.5 350.731 1323.89 351.884C1322.4 354.717 1320.99 358.604 1318.65 360.906C1315.37 362.136 1313.07 362.419 1309.54 362.463L1309.35 361.936L1304.02 361.247L1291.74 359.809L1287.68 363.742C1281.79 363.266 1275.94 361.766 1270.19 360.563C1231.59 350.734 1200.35 333.417 1168.46 312.407L1135.59 287.297L1112.89 267.252L1115.78 263.55C1105.06 253.608 1094.72 242.731 1082.6 234.126L1079.98 225.017C1080.64 220.272 1078.96 214.308 1078.26 209.572C1076.45 197.217 1074.06 184.989 1072.66 172.579L1071.76 171.861C1070.21 173.474 1069.82 173.635 1067.57 174.364C1066.63 171.46 1066.37 168.549 1066.03 165.544L1068.72 164.733L1069.6 158.759L1068.94 150.039L1068.93 145.209Z" fill="url(#paint1_linear_14_5300)"/>
<path d="M1274.17 356.675L1291.74 359.809L1287.68 363.742C1281.79 363.266 1275.94 361.766 1270.19 360.563L1274.17 356.675Z" fill="#2E3245"/>
<path d="M1115.78 263.551L1139.32 284.69C1137.89 286.499 1137.94 286.662 1135.59 287.298L1112.89 267.253L1115.78 263.551Z" fill="#3A3C4D"/>
<path d="M1139.32 284.69L1172.24 310.031L1168.46 312.408L1135.59 287.298C1137.94 286.662 1137.89 286.499 1139.32 284.69Z" fill="#2E3245"/>
<path d="M1172.24 310.031C1190.8 322.082 1211.27 335.242 1232.28 343.787C1245.77 349.278 1259.95 352.931 1274.17 356.674L1270.19 360.563C1231.59 350.735 1200.35 333.418 1168.46 312.407L1172.24 310.031Z" fill="#312C3D"/>
<path d="M1069.6 158.759L1070.57 160.917C1073.59 160.835 1074.58 160.931 1077.06 162.419C1085.65 167.567 1099.86 166.938 1110.02 168.649L1129.71 182.94L1130.82 185.304C1126.59 183.906 1122.85 179.462 1118.86 178.588C1114.21 177.567 1110.45 179.866 1105.55 177.618L1104.88 177.283L1103.11 178.174C1100.83 178.136 1097.12 178.418 1095.11 177.453L1094.43 177.006C1091.61 177.356 1090.65 177.079 1088.21 176.059L1090.64 175.612C1090.06 175.26 1089.42 174.836 1088.73 174.659C1086.45 174.077 1085.33 174.444 1083.24 175.178C1079.64 173.884 1076.61 172.751 1072.66 172.578L1071.76 171.861C1070.21 173.474 1069.82 173.635 1067.57 174.364C1066.63 171.46 1066.37 168.549 1066.03 165.544L1068.72 164.733L1069.6 158.759Z" fill="#3A3C4D"/>
<path d="M1069.6 158.759L1070.57 160.917L1071.76 171.861C1070.21 173.474 1069.82 173.635 1067.57 174.364C1066.63 171.46 1066.37 168.549 1066.03 165.544L1068.72 164.733L1069.6 158.759Z" fill="#616472"/>
<path d="M1068.93 145.209L1097.13 152.021C1098.62 155.593 1103.35 155.975 1104.89 159.982L1103.53 162.073L1110.02 168.649C1099.86 166.938 1085.65 167.568 1077.06 162.42C1074.58 160.931 1073.59 160.836 1070.57 160.918L1069.6 158.76L1068.94 150.04L1068.93 145.209Z" fill="#494D5D"/>
<path d="M1068.93 145.209L1097.13 152.021C1098.62 155.593 1103.35 155.975 1104.89 159.982L1103.53 162.073L1098 158.28C1091.14 158.459 1080.03 157.435 1074.6 153.535L1068.94 150.04L1068.93 145.209Z" fill="#616472"/>
<path d="M1299.69 335.926L1297.53 332.168L1295.77 328.798C1295.17 327.546 1295.28 327.341 1294.02 326.378L1293.09 325.74L1294.23 324.573L1292.86 322.505L1290.87 320.476C1289.59 318.503 1289.27 317.162 1287.43 315.311C1285.75 313.62 1284.86 311.881 1283.37 310.185L1281.38 308.153C1280.48 306.742 1280.68 305.956 1279.25 304.655L1277.98 303.529L1279.15 302.901C1278.01 301.645 1276.67 300.383 1275.97 298.882C1275.49 297.86 1274.94 297.861 1273.85 297.323L1273.65 294.627L1272.38 294.166L1272.74 294.964L1271.92 296.366L1269.37 294.93C1268.29 290.896 1267.27 289.394 1263.47 287.127C1260.47 285.335 1262.82 285.284 1261.76 283.021C1261.39 282.224 1257.53 279.251 1256.49 277.983C1255.55 276.849 1253.68 276.077 1252.59 275.013C1248.82 271.359 1249.16 267.508 1242.84 266.122L1242.1 266.006C1239.54 263.205 1237.02 260.726 1235.66 257.267L1236.47 256.127C1237.54 259.656 1239.8 260.698 1242.8 262.984L1248.1 262.559C1250.36 266.874 1255 270.321 1258.49 273.929C1266.19 281.903 1274.08 290.034 1280.98 298.562C1283.7 301.925 1284.8 305.623 1287.17 309.019C1290.29 313.481 1295.56 317.301 1298.94 322.032C1302.11 326.465 1304.79 332.476 1309.36 335.822L1310.51 335.39C1313.36 340.273 1317.1 343.865 1320.38 348.395C1321.41 349.827 1322.5 350.731 1323.89 351.884C1322.4 354.717 1320.99 358.603 1318.65 360.906C1315.37 362.136 1313.07 362.419 1309.54 362.463L1309.35 361.936L1304.02 361.247L1306.26 359.479C1304.42 356.073 1306.03 351.776 1304.58 348.756C1303.67 346.838 1303.23 346.992 1303.05 344.53L1300.64 341.724C1298.85 339.456 1299.16 338.653 1299.69 335.926Z" fill="#1F1C26"/>
<path d="M1299.69 335.927C1302.99 339.72 1310.31 348.6 1309.81 353.265L1311.32 353.695C1313.83 355.178 1314.61 356.628 1317.72 357.91L1318.65 360.907C1315.37 362.137 1313.06 362.42 1309.54 362.463L1309.35 361.936L1304.02 361.247L1306.26 359.479C1304.42 356.074 1306.03 351.776 1304.58 348.756C1303.67 346.838 1303.23 346.992 1303.05 344.53L1300.64 341.724C1298.84 339.456 1299.16 338.653 1299.69 335.927Z" fill="#0F0817"/>
<path d="M1082.6 234.126C1094.72 242.732 1105.06 253.609 1115.78 263.55L1112.89 267.252L1135.59 287.297L1168.46 312.407C1200.35 333.418 1231.59 350.735 1270.19 360.563C1275.94 361.766 1281.79 363.266 1287.68 363.742L1291.74 359.809L1304.02 361.247L1309.35 361.936L1309.54 362.463L1308.25 364.241L1310.11 366.432L1315.29 367.647L1320.25 370.589L1317.65 375.854C1320.9 379.323 1319.37 383.643 1320.24 388.07C1321.11 392.497 1322.88 397.885 1324.4 402.059C1325.27 404.43 1324.86 408.197 1325.13 410.761C1325.27 412.144 1326 412.612 1326.48 413.832C1327.72 417 1327.26 421.023 1328.48 424.526C1329.12 426.372 1328.53 427.991 1329.58 429.843C1331.45 433.152 1329.82 436.58 1332.51 439.887L1270.63 464.609L1262.03 469.209C1261.75 467.318 1261.51 465.717 1261.86 463.811C1262.19 461.93 1262.02 462.201 1261.07 460.657L1240.47 460.264C1231.69 459.777 1223.01 456.941 1214.79 454.421C1167.92 440.056 1136.41 409.329 1105.19 376.945L1103.3 376.412C1101.77 375.502 1102.15 373.501 1102.03 372L1106.51 370.281C1104.88 368.673 1101.15 365.885 1100.23 364.056C1097.78 359.208 1097.92 346.842 1097.2 341.208C1094.08 316.603 1091.66 291.536 1086.88 267.178L1085.09 267.837C1084.05 265.978 1083.93 264.052 1083.68 262.012C1082.17 264.615 1081.64 266.749 1081.01 269.602C1080.42 264.913 1079.4 260.276 1078.86 255.587C1078.41 251.621 1079.21 247.512 1076.44 244.193C1080.51 240.32 1081.93 239.54 1082.6 234.126Z" fill="#0F0817"/>
<path d="M1291.74 359.809L1304.02 361.247L1309.35 361.936L1309.54 362.463L1308.25 364.241L1310.11 366.432L1287.68 363.742L1291.74 359.809Z" fill="#3A3C4D"/>
<path d="M1315.29 367.647L1320.25 370.589L1317.65 375.854L1281.7 438.321L1278.63 434.958L1315.29 367.647Z" fill="#3A3C4D"/>
<path d="M1082.6 234.126C1094.72 242.732 1105.06 253.609 1115.78 263.55L1112.89 267.252L1083.88 239.722C1082.54 247.091 1086.04 259.555 1086.88 267.178L1085.09 267.837C1084.05 265.978 1083.93 264.052 1083.68 262.012C1082.17 264.615 1081.64 266.749 1081.01 269.602C1080.42 264.913 1079.4 260.276 1078.86 255.587C1078.41 251.621 1079.21 247.512 1076.44 244.193C1080.51 240.32 1081.93 239.54 1082.6 234.126Z" fill="#525061"/>
<path d="M1106.51 370.281C1114.6 378.673 1121.54 388.247 1129.78 396.348C1156.61 422.707 1199.32 452.12 1241.05 454.811L1265.76 455.285C1267.02 453.341 1277.81 435.197 1278.63 434.957L1281.7 438.32C1280.49 447.115 1273.5 452.861 1270.62 461.222L1270.13 462.556L1269.84 463.359L1270.63 464.609L1262.03 469.209C1261.75 467.317 1261.51 465.717 1261.86 463.811C1262.19 461.93 1262.02 462.2 1261.07 460.657L1240.47 460.264C1231.69 459.776 1223.01 456.941 1214.79 454.421C1167.92 440.056 1136.41 409.329 1105.19 376.945L1103.3 376.412C1101.77 375.502 1102.15 373.501 1102.03 372L1106.51 370.281Z" fill="#1F1C26"/>
<path d="M1317.65 375.854C1320.9 379.323 1319.37 383.643 1320.24 388.07C1321.11 392.497 1322.88 397.885 1324.4 402.059C1325.27 404.43 1324.86 408.197 1325.13 410.761C1325.27 412.144 1326 412.612 1326.48 413.832C1327.72 417 1327.26 421.023 1328.48 424.526C1329.12 426.372 1328.53 427.991 1329.58 429.843C1331.45 433.152 1329.82 436.58 1332.51 439.887L1270.63 464.609L1269.84 463.359L1270.13 462.556L1270.62 461.222C1273.5 452.862 1280.49 447.115 1281.7 438.321L1317.65 375.854Z" fill="#010104"/>
<path d="M739.771 719.375L749.083 717.97L752.934 712.869C753.815 713.361 754.575 714.083 755.578 714.341C758.643 715.126 767.858 713.545 771.419 713.313C791.914 711.974 812.819 711.147 833.209 708.792L836.047 714.619C848.749 734.368 862.287 754.381 880.117 770.866C894.672 784.321 912.229 795.198 930.681 804.112L936.701 806.272L940.589 814.56C949.925 834.338 955.82 856.698 959.13 877.974C960.886 889.263 962.39 900.633 963.549 911.987C963.692 913.398 963.928 921.624 964.521 922.3C964.846 922.671 965.455 922.743 965.921 922.967L967.11 922.71C967.5 924.624 967.674 926.035 968.827 927.722L965.45 932.544L963.556 937.364L935.495 973.49C931.62 980.654 926.079 986.517 921.249 993.168L920.683 993.91C918.898 996.315 918.567 998.261 918.279 1001.07C907.925 993.406 897.379 983.301 889.358 973.717C879.427 966.684 869.262 952.762 862.337 943.34L835.563 908.372L808.891 869.197L799.304 854.786C793.717 848.131 789.522 839.588 785.028 832.274C777.075 819.327 767.29 805.341 761.548 791.541C760.674 783.188 756.689 779.514 753.008 772.296C750.48 767.337 748.464 762.533 745.761 757.633C739.926 747.064 735.849 734.892 732.284 723.542L730.914 722.379L729.051 720.222C732.265 719.878 736.654 718.884 739.771 719.375Z" fill="#0F0817"/>
<path d="M930.682 804.113L936.702 806.272L940.59 814.56C939.61 816.312 938.586 817.288 938.947 819.243C939.255 820.897 939.147 822.359 939.001 824.028C936.713 818.308 930.866 809.879 930.682 804.113Z" fill="#312C3D"/>
<path d="M749.872 723.915C752.23 722.879 752.123 722.695 754.57 723.365L773.175 744.527L772.327 744.979C771.071 745.606 771.589 745.421 770.116 745.577C770.244 746.786 770.476 748.035 770.4 749.25L756.02 733.155L749.872 723.915Z" fill="#494D5D"/>
<path d="M773.175 744.527C786.178 757.908 795.804 774.73 805.804 789.948L803.067 795.368L770.4 749.25C770.476 748.035 770.244 746.786 770.116 745.577C771.589 745.421 771.071 745.605 772.327 744.979L773.175 744.527Z" fill="#525061"/>
<path d="M805.804 789.949C809.992 796.003 836.299 836.046 835.445 839.715C835.952 842.253 836.366 844.449 836.065 847.037C836.799 848.138 837.574 849.114 838.476 850.112L838.267 851.753L836.768 849.8L834.807 849.858L803.067 795.368L805.804 789.949Z" fill="#312C3D"/>
<path d="M835.446 839.714C847.882 862.496 860.115 887.897 865.804 912.936C863.692 910.336 860.738 907.664 861.115 904.299C858.894 901.59 859.979 899.414 857.826 896.948C857.975 899.14 857.395 899.681 859.336 901.175C859.52 903.59 860.111 903.547 860.867 905.399C861.742 907.539 861.045 912.87 861.103 915.371L834.808 849.858L836.769 849.799L838.268 851.753L838.476 850.112C837.574 849.114 836.8 848.138 836.066 847.037C836.366 844.448 835.953 842.253 835.446 839.714Z" fill="#2E3245"/>
<path d="M739.771 719.375L749.083 717.97L752.934 712.87C753.816 713.361 754.575 714.083 755.578 714.341C758.644 715.127 767.858 713.545 771.42 713.313C791.914 711.975 812.819 711.147 833.209 708.792L836.048 714.62C826.037 713.142 814.955 714.775 804.83 715.498C787.707 716.723 770.587 717.974 753.466 719.23C749.741 718.677 744.044 719.722 739.771 719.375Z" fill="#525061"/>
<path d="M861.104 915.371C861.045 912.87 861.742 907.539 860.867 905.399C860.111 903.548 859.52 903.59 859.336 901.176C857.395 899.682 857.975 899.14 857.826 896.948C859.979 899.414 858.894 901.59 861.115 904.299C860.739 907.664 863.692 910.337 865.804 912.937C869.01 922.753 872.531 932.451 875.838 942.232C877.478 947.091 878.137 952.033 880.901 956.522C882.198 958.629 882.137 960.581 882.232 962.939L883.378 964.002C886.857 967.283 888.103 969.302 889.359 973.717C879.428 966.684 869.263 952.762 862.338 943.34C864.049 941.729 865.307 939.874 866.684 938.037C867.266 931.217 862.963 922.046 861.104 915.371Z" fill="#3A3C4D"/>
<path d="M940.589 814.56C949.926 834.338 955.821 856.698 959.131 877.974C960.887 889.263 962.39 900.633 963.55 911.987C963.693 913.397 963.929 921.624 964.522 922.3C964.847 922.67 965.456 922.743 965.922 922.967L967.111 922.71C967.5 924.624 967.675 926.034 968.828 927.721L965.45 932.544L963.557 937.364L935.495 973.49C935.299 971.82 935.23 972.432 935.601 970.768L935.964 969.308C936.262 968.048 936.454 967.263 937.222 966.145L957.449 936.429C960.794 930.721 958.382 918.784 957.698 912.285C954.475 881.635 948.711 853.43 939 824.028C939.147 822.358 939.255 820.896 938.947 819.243C938.586 817.288 939.609 816.312 940.589 814.56Z" fill="url(#paint2_linear_14_5300)"/>
<path d="M729.051 720.221C732.265 719.878 736.654 718.884 739.771 719.375C744.044 719.721 749.741 718.677 753.466 719.229L754.57 723.365C752.122 722.695 752.23 722.879 749.871 723.915L756.019 733.155L770.4 749.25L803.067 795.368L834.807 849.858L861.103 915.371C862.962 922.046 867.265 931.216 866.683 938.037C865.306 939.873 864.047 941.729 862.337 943.34L835.563 908.372L808.891 869.197L799.304 854.786C793.717 848.131 789.522 839.588 785.029 832.273C777.075 819.327 767.29 805.341 761.548 791.541C760.674 783.188 756.689 779.514 753.008 772.296C750.48 767.337 748.464 762.533 745.761 757.633C739.926 747.064 735.849 734.892 732.284 723.542L730.914 722.379L729.051 720.221Z" fill="url(#paint3_linear_14_5300)"/>
<path d="M729.051 720.221C732.265 719.878 736.654 718.884 739.771 719.375C744.044 719.721 749.741 718.677 753.466 719.229L754.57 723.365C752.122 722.695 752.23 722.879 749.871 723.915L756.019 733.155L753.934 734.282C756.828 738.615 761.066 743.212 762.442 748.029C762.903 749.633 763.879 751.042 764.796 752.465L764.349 753.752L763.448 756.905C760.972 754.798 760.538 754.097 759.463 751.23C758.477 748.59 756.118 745.972 754.943 743.196C754.261 741.589 753.905 740.585 752.238 739.568L751.735 740.748L750.736 741.017L746.818 737.751C745.229 733.384 742.493 728.582 739.379 724.908C737.048 722.161 734.586 722.727 730.914 722.379L729.051 720.221Z" fill="#312C3D"/>
<path d="M805.74 855.484L807.914 854.239L808.23 854.949C810.677 859.883 814.995 864.469 816.855 869.623C817.96 872.693 822.394 875.006 824.501 877.678C828.417 882.648 830.29 888.392 833.791 893.456C835.115 895.369 835.951 897.456 837.298 899.388C838.518 901.139 838.617 902.247 838.68 904.293L838.052 905.005L835.564 908.372L808.891 869.197C808.612 864.294 805.479 860.001 805.74 855.484Z" fill="#2E3245"/>
<path d="M730.914 722.379C734.586 722.727 737.048 722.161 739.379 724.909C742.493 728.582 745.229 733.385 746.818 737.751C750.197 746.833 755 755.049 758.887 763.894C760.603 767.794 760.914 772.103 762.839 775.948C764.867 779.994 768.3 783.331 770.339 787.446C773.497 793.813 775.803 800.148 779.504 806.374C784.487 814.763 789.251 823.52 794.479 831.741C797.973 837.232 803.436 843.916 805.77 849.766C806.224 850.907 805.731 854.142 805.74 855.484C805.478 860.001 808.612 864.295 808.891 869.197L799.304 854.786C793.717 848.131 789.522 839.588 785.028 832.274C777.075 819.327 767.29 805.341 761.548 791.541C760.674 783.188 756.689 779.514 753.008 772.296C750.48 767.337 748.464 762.533 745.761 757.633C739.926 747.064 735.849 734.892 732.284 723.543L730.914 722.379Z" fill="#494D5D"/>
<path d="M732.284 723.542C734.867 727.743 738.184 731.876 739.98 736.369L748.164 752.288C749.593 755.398 751.891 758.356 753.464 761.414C756.057 766.454 756.787 772.861 759.557 777.772C767.133 791.204 775.038 804.615 781.862 818.434C783.678 822.107 783.73 826.61 785.972 830.061C788.703 834.264 793.103 837.198 795.887 841.698C798.212 845.456 800.347 847.941 799.639 852.42L799.465 853.842L799.304 854.786C793.717 848.131 789.522 839.588 785.029 832.274C777.075 819.327 767.29 805.341 761.548 791.541C760.674 783.188 756.689 779.514 753.008 772.296C750.48 767.337 748.464 762.533 745.761 757.633C739.926 747.064 735.849 734.892 732.284 723.542Z" fill="#525061"/>
<path d="M1052.85 142.608C1056.13 143.079 1059.5 143.396 1062.56 144.54L1068.93 145.209L1068.94 150.039L1069.6 158.759L1068.72 164.733L1066.03 165.544C1066.37 168.549 1066.63 171.46 1067.57 174.364C1069.82 173.635 1070.21 173.474 1071.76 171.861L1072.66 172.578C1074.06 184.989 1076.45 197.217 1078.26 209.572C1078.96 214.308 1080.64 220.272 1079.98 225.017L1082.6 234.126C1081.93 239.54 1080.51 240.32 1076.44 244.193C1079.21 247.512 1078.41 251.621 1078.86 255.587C1079.4 260.276 1080.42 264.913 1081.01 269.602C1081.63 266.749 1082.17 264.615 1083.68 262.012C1083.93 264.052 1084.05 265.978 1085.09 267.837L1086.88 267.178C1091.66 291.536 1094.07 316.603 1097.2 341.208C1097.92 346.842 1097.78 359.208 1100.23 364.056C1101.15 365.885 1104.88 368.673 1106.51 370.281L1102.03 372C1101.14 372.925 1097.85 375.74 1097.49 376.718C1096.32 379.835 1099.75 391.236 1097.58 392.966L1096.51 374.766L1071.92 405.862C1064.34 414.598 1055.77 424.623 1046.48 431.904C1021.85 451.191 992.338 462.507 960.16 466.64L932.043 468.779C930.414 471.96 931.214 475.026 931.634 478.359C931.708 484.43 932.302 490.911 931.567 496.963L926.275 495.087L836.717 475.905L832.234 475.61L803.968 472.51C799.741 499.999 795.164 529.525 796.778 557.22L798.351 611.635L800.118 622.332C806.447 653.141 818.054 680.716 833.209 708.792C812.819 711.147 791.914 711.974 771.419 713.313C767.858 713.545 758.644 715.126 755.578 714.34C754.575 714.083 753.816 713.361 752.934 712.869L749.083 717.97L739.771 719.375C736.654 718.884 732.265 719.878 729.051 720.221L724.568 720.792L722.858 716.881C724.884 715.675 726.438 715.382 728.766 714.931C723.049 707.422 720.564 696.228 717.641 687.588C714.199 677.406 708.737 667.559 705.209 657.292C703.027 650.943 701.031 639.977 696.593 634.912C695.84 634.053 693.616 633.037 692.545 632.36L692.308 629.261C693.116 628.218 693.772 627.282 694.178 626.063C695.43 622.287 697.277 619.088 699.314 615.6L703.681 604.197L704.992 599.799L703.464 596.49L700.521 599.236L700.249 597.985C702.489 593.608 704.127 589.741 705.135 585.024L719.383 547.44C730.481 511.144 739.885 474.097 745.224 436.843C752.165 388.392 753.76 340.621 753.079 291.973L753.011 291.126L751.708 289.764C749.915 286.045 747.307 283.844 744.091 281.121L743.949 280.932C741.632 278.763 740.317 277.712 739.199 274.809L742.59 270.214C744.371 274.067 746.626 277.256 749.432 280.58C752.29 283.492 754.64 285.387 758.563 287.118L759.818 285.427C825.706 277.058 891.29 257.954 946.837 224.117C976.302 206.164 1002.34 185.093 1026.81 162.097L1031.23 158.459L1033.99 161.179C1037.76 158.095 1041.1 154.22 1044.47 150.777L1052.85 142.608Z" fill="url(#paint4_linear_14_5300)"/>
<path d="M778.8 309.547L789.725 320.623L786.511 324.443L776.16 313.467C776.648 312.083 777.892 310.767 778.8 309.547Z" fill="#616472"/>
<path d="M1076.35 235.352C1078.2 232.87 1076.69 228.321 1077.49 225.355L1077.87 224.223L1078.05 222.587C1078.24 224.108 1078.74 224.055 1079.98 225.017L1082.6 234.126C1081.93 239.541 1080.51 240.32 1076.44 244.194L1052.14 271.332L1049.38 271.448L1049.12 268.171C1058.53 260.271 1070.81 245.644 1076.35 235.352Z" fill="#636375"/>
<path d="M1071.76 171.862L1072.66 172.579C1074.06 184.989 1076.45 197.217 1078.26 209.572C1078.96 214.308 1080.64 220.272 1079.99 225.017C1078.74 224.055 1078.24 224.108 1078.05 222.587L1077.87 224.223L1077.49 225.355C1076.69 228.321 1078.2 232.87 1076.35 235.351C1076.4 227.759 1074.43 219.949 1073.21 212.465C1071.14 199.792 1069.22 187.092 1067.57 174.364C1069.82 173.636 1070.21 173.474 1071.76 171.862Z" fill="#525061"/>
<path d="M789.725 320.623L835.043 365.986L829.8 364.614L829.21 365.203L829.619 366.036L830.986 369.767L786.511 324.443L789.725 320.623Z" fill="#525061"/>
<path d="M1052.85 142.608C1056.13 143.079 1059.5 143.396 1062.56 144.54L1068.93 145.209L1068.94 150.039L1069.6 158.76L1068.72 164.734L1066.03 165.544L1064.29 157.273C1059.89 156.997 1054.63 157.413 1050.45 156.455C1046.49 155.548 1046.37 153.845 1044.47 150.777L1052.85 142.608Z" fill="#616472"/>
<path d="M1062.56 144.54L1068.93 145.209L1068.94 150.04L1069.6 158.76L1068.72 164.734L1066.03 165.544L1064.29 157.273L1062.56 144.54Z" fill="#737B8B"/>
<path d="M924.846 350.487C975.569 334.832 1015.5 304.583 1049.12 268.17L1049.38 271.448L1052.14 271.332C1043.94 282.168 1032.19 292.371 1021.42 301.226C994.599 323.277 964.308 342.649 929.687 353.651C928.45 352.067 926.706 351.385 924.846 350.487Z" fill="#312C3D"/>
<path d="M1026.8 162.098L1031.23 158.459L1033.99 161.179C986.399 207.708 921.504 248.841 854.177 269.145C835.419 274.8 816.582 279.585 797.272 283.435C786.458 285.592 773.353 286.641 763.118 290.061C760.198 291.038 760.627 290.918 760.178 293.503C766.896 298.664 773.651 302.985 778.8 309.547C777.891 310.767 776.647 312.084 776.159 313.467L758.967 295.76C757.814 309.44 758.606 323.09 758.261 336.769C757.798 355.349 756.216 374.354 754.54 392.902C751.594 425.454 746.382 459.016 738.855 491.092C734.355 510.28 728.43 529.184 723.359 548.263L719.382 547.441C730.481 511.145 739.885 474.097 745.223 436.844C752.165 388.392 753.76 340.621 753.078 291.974L753.011 291.127L751.708 289.764C749.914 286.045 747.306 283.844 744.091 281.121L743.949 280.932C741.632 278.763 740.317 277.712 739.199 274.81L742.589 270.214C744.371 274.067 746.626 277.256 749.432 280.58C752.289 283.493 754.64 285.387 758.563 287.119L759.818 285.427C825.706 277.058 891.29 257.954 946.836 224.117C976.302 206.165 1002.34 185.094 1026.8 162.098Z" fill="#636375"/>
<path d="M742.59 270.214C744.371 274.067 746.627 277.256 749.432 280.58C752.29 283.493 754.64 285.387 758.564 287.118L760.336 288.888L757.124 293.823C754.79 293.337 754.588 292.755 753.011 291.126L751.709 289.764C749.915 286.045 747.307 283.844 744.092 281.121L743.949 280.932C741.632 278.763 740.318 277.712 739.199 274.81L742.59 270.214Z" fill="#737B8B"/>
<path d="M723.36 548.264C728.431 529.185 734.356 510.28 738.856 491.092C746.383 459.016 751.595 425.454 754.542 392.902C756.217 374.354 757.799 355.349 758.262 336.769C758.607 323.09 757.816 309.44 758.968 295.76L776.16 313.467L786.511 324.443L830.987 369.767L831.905 370.946C832.486 372.411 832.93 374.724 834.278 375.678L834.428 373.492L835.781 373.066C837.264 372.571 838.413 372.022 839.746 371.282L839.01 373.679L838.237 378.688L837.577 461.895L836.718 475.905L832.235 475.61L803.968 472.51C799.742 500 795.165 529.526 796.779 557.22L798.352 611.636L800.119 622.333C806.447 653.141 818.054 680.716 833.21 708.792C812.82 711.147 791.915 711.975 771.42 713.313C767.859 713.545 758.644 715.127 755.579 714.341C754.576 714.083 753.816 713.361 752.935 712.87L749.084 717.97L739.772 719.375C736.655 718.885 732.266 719.879 729.052 720.222L724.569 720.792L722.859 716.881C724.884 715.675 726.439 715.383 728.767 714.931C723.049 707.423 720.565 696.228 717.642 687.588C714.2 677.406 708.737 667.559 705.21 657.292C703.028 650.943 701.032 639.977 696.594 634.912C695.84 634.054 693.616 633.038 692.546 632.36L692.309 629.261C693.117 628.218 693.773 627.283 694.178 626.063C695.431 622.288 697.278 619.088 699.315 615.6L703.682 604.197L704.993 599.799L703.465 596.491L700.522 599.237L700.249 597.985C702.489 593.609 704.128 589.742 705.136 585.024L719.383 547.441L723.36 548.264Z" fill="url(#paint5_linear_14_5300)"/>
<path d="M833.218 456.369C835.328 458.242 836.418 459.453 837.576 461.895L836.717 475.905L832.234 475.61L833.218 456.369Z" fill="#525061"/>
<path d="M719.383 547.441L723.36 548.263L705.098 599.774L704.993 599.799L703.464 596.49L700.522 599.236L700.249 597.985C702.489 593.609 704.128 589.742 705.136 585.024L719.383 547.441Z" fill="#494D5D"/>
<path d="M831.905 370.946C832.485 372.411 832.929 374.723 834.278 375.677L834.428 373.491L835.781 373.066C837.263 372.571 838.412 372.021 839.745 371.281L839.01 373.679L838.237 378.688L837.576 461.894C836.419 459.453 835.328 458.242 833.218 456.368L831.905 370.946Z" fill="#494D5D"/>
<path d="M749.119 707.626C764.707 682.202 778.671 656.098 790.903 629.349C793.572 623.51 797.27 617.901 798.351 611.635L800.118 622.332L753.193 711.533L752.605 707.915L749.119 707.626Z" fill="#525061"/>
<path d="M703.681 604.197C703.984 606.603 703.715 609.93 705.761 611.488L703.383 612.473C703.51 614.182 703.312 615.228 704.892 616.429L706.81 617.381L707.125 618.607C707.612 620.223 707.915 620.32 708.947 621.555L714.495 630.37L713.376 631.805C714.127 632.58 714.675 632.984 715.614 633.574C717.86 634.982 718.772 636.823 719.089 639.167L719.257 640.869L720.095 639.729C721.462 641.984 721.68 643.555 721.786 646.111C722.567 646.954 723.647 647.636 724.132 648.639C725.345 651.16 723.06 655.179 726.62 656.054C728.735 661.262 728.344 668.207 728.7 673.792C731.926 674.489 731 675.776 734.969 675.57L738.712 682.814L738.37 683.482C737.863 684.779 738.112 685.873 738.264 687.192L739.552 688.172L738.407 689.34C738.514 690.742 738.232 692.063 739.209 693.18C740.173 694.29 740.923 695.485 741.714 696.693L742.475 694.476C743.259 695.319 744.282 696.022 744.83 697.003C745.561 698.318 745.341 706.55 746.087 707.037C746.915 707.577 748.108 707.43 749.119 707.626L752.605 707.915L753.193 711.533L752.935 712.869L749.084 717.97L739.772 719.375C736.655 718.884 732.265 719.878 729.052 720.221L724.568 720.792L722.858 716.881C724.884 715.675 726.438 715.382 728.767 714.931C723.049 707.422 720.564 696.228 717.642 687.588C714.199 677.406 708.737 667.559 705.21 657.292C703.028 650.943 701.031 639.977 696.594 634.912C695.84 634.053 693.616 633.037 692.545 632.36L692.309 629.261C693.117 628.218 693.772 627.282 694.178 626.063C695.43 622.287 697.277 619.088 699.314 615.6L703.681 604.197Z" fill="#312C3D"/>
<path d="M749.119 707.626L752.605 707.915L753.193 711.533L752.934 712.87L749.083 717.97L739.771 719.375C736.655 718.884 732.265 719.879 729.051 720.222L724.568 720.792L722.858 716.881C724.884 715.675 726.438 715.383 728.766 714.931C732.033 714.976 734.444 715.748 736.909 713.705C738.801 713.602 740.037 713.571 741.87 714.04C743.946 714.573 742.729 714.486 745.128 714.221L749.119 707.626Z" fill="#737A87"/>
<path d="M699.314 615.6L736.34 712.791L736.91 713.705C734.444 715.747 732.034 714.975 728.767 714.931C723.049 707.422 720.564 696.228 717.642 687.588C714.199 677.406 708.737 667.559 705.21 657.292C703.028 650.943 701.031 639.977 696.594 634.912C695.84 634.053 693.616 633.037 692.545 632.36L692.309 629.261C693.117 628.218 693.772 627.282 694.178 626.063C695.43 622.287 697.277 619.088 699.314 615.6Z" fill="#494D5D"/>
<path d="M753.194 711.533L800.118 622.332C806.447 653.141 818.054 680.716 833.209 708.792C812.82 711.147 791.914 711.975 771.42 713.313C767.859 713.545 758.644 715.127 755.578 714.341C754.576 714.083 753.816 713.361 752.935 712.87L753.194 711.533Z" fill="#0F0817"/>
<path d="M1076.44 244.194C1079.21 247.512 1078.41 251.621 1078.86 255.587C1079.4 260.276 1080.42 264.914 1081.01 269.602C1081.64 266.749 1082.17 264.616 1083.68 262.012C1083.93 264.053 1084.05 265.978 1085.09 267.837L1086.88 267.178C1091.66 291.536 1094.07 316.603 1097.2 341.208C1097.92 346.842 1097.78 359.208 1100.23 364.057C1101.15 365.885 1104.88 368.673 1106.51 370.282L1102.03 372.001C1101.14 372.925 1097.85 375.74 1097.49 376.719C1096.32 379.836 1099.75 391.236 1097.58 392.967L1096.51 374.766L1071.92 405.863C1064.34 414.599 1055.77 424.624 1046.48 431.904C1021.85 451.192 992.338 462.507 960.16 466.641L932.043 468.779C930.414 471.96 931.214 475.027 931.634 478.36C931.708 484.431 932.302 490.911 931.567 496.963L926.275 495.087L836.717 475.905L837.576 461.895L838.237 378.688L839.01 373.68L839.745 371.282C838.412 372.022 837.263 372.571 835.78 373.067L834.428 373.492L834.278 375.678C832.929 374.724 832.485 372.411 831.905 370.946L830.986 369.767L829.619 366.036L829.21 365.203L829.8 364.614L835.043 365.986C850.542 366.357 867.435 364.132 882.706 361.434L882.832 361.172L924.846 350.488C926.706 351.386 928.45 352.067 929.687 353.651C964.308 342.649 994.598 323.277 1021.42 301.226C1032.19 292.371 1043.94 282.168 1052.14 271.332L1076.44 244.194Z" fill="#0F0817"/>
<path d="M839.01 373.679C846.336 377.995 853.477 384.793 858.406 391.258L854.373 390.483C854.516 392.296 854.649 392.475 855.735 393.889L854.487 394.462C848.598 391.541 844.819 382.538 838.237 378.688L839.01 373.679Z" fill="#525061"/>
<path d="M882.706 361.433L882.832 361.172L924.846 350.488C926.706 351.385 928.45 352.067 929.687 353.651C914.498 357.964 898.525 362.824 882.81 365.169C883.608 364.204 883.101 364.635 884.703 363.875L886.03 363.269L882.706 361.433Z" fill="#3A3C4D"/>
<path d="M830.986 369.767L829.619 366.036L829.21 365.203L829.8 364.614L835.043 365.986C850.542 366.357 867.435 364.132 882.706 361.434L886.03 363.269L884.703 363.876C883.101 364.635 883.607 364.204 882.809 365.169C873.011 366.635 863.151 367.596 853.302 368.704C849.114 369.176 843.427 369.273 839.745 371.282C838.412 372.022 837.263 372.571 835.78 373.067L834.428 373.492L834.278 375.678C832.929 374.724 832.485 372.411 831.905 370.946L830.986 369.767Z" fill="#636375"/>
<path d="M854.487 394.463L855.734 393.89C854.648 392.475 854.516 392.296 854.372 390.484L858.405 391.258C864.818 396.932 870.423 403.495 876.164 409.712C877.361 411.005 880.21 413.357 880.599 414.961L880.881 415.95C881.631 418.457 882.102 420.052 884.249 421.828C885.55 422.905 886.562 424.216 887.628 425.477L886.913 425.115L881.257 422.594L854.487 394.463Z" fill="#312C3D"/>
<path d="M880.6 414.96C892.48 424.863 904.131 438.641 913.838 450.321L913.831 450.391L911.365 454.382L881.258 422.593L886.914 425.115L887.629 425.477C886.563 424.216 885.55 422.905 884.249 421.828C882.103 420.052 881.632 418.457 880.882 415.95L880.6 414.96Z" fill="#2E3245"/>
<path d="M1081.01 269.602C1081.64 266.749 1082.17 264.616 1083.68 262.012C1083.93 264.053 1084.05 265.978 1085.09 267.837L1086.88 267.178C1091.66 291.536 1094.08 316.603 1097.2 341.208C1097.92 346.842 1097.78 359.208 1100.23 364.057C1101.15 365.885 1104.88 368.673 1106.51 370.282L1102.03 372.001C1101.14 372.925 1097.85 375.74 1097.49 376.718C1096.32 379.836 1099.75 391.236 1097.58 392.966L1096.51 374.766L1071.92 405.863L1069.57 401.887C1076.3 391.534 1088.29 381.065 1092.83 370.043C1093.9 367.441 1092.31 358.971 1092.07 355.816C1089.87 327.074 1085.58 298.102 1081.01 269.602Z" fill="url(#paint6_linear_14_5300)"/>
<path d="M913.831 450.391C918.995 454.771 922.777 459.587 928.427 463.763C956.154 465.928 984.751 459.018 1009.63 448.309C1034.69 437.523 1051.93 420.284 1069.57 401.887L1071.92 405.862C1064.34 414.598 1055.77 424.623 1046.48 431.904C1021.85 451.191 992.338 462.507 960.161 466.64L932.043 468.779C930.415 471.96 931.215 475.026 931.635 478.359C931.709 484.43 932.303 490.911 931.567 496.963L926.275 495.087L926.625 493.094C926.972 488.666 925.75 472.191 923.821 468.465C921.394 463.771 915.095 458.407 911.365 454.382L913.831 450.391Z" fill="url(#paint7_linear_14_5300)"/>
<path d="M838.237 378.688C844.819 382.538 848.598 391.541 854.487 394.462L881.258 422.593L911.364 454.382C915.095 458.408 921.393 463.771 923.82 468.466C925.749 472.191 926.971 488.666 926.624 493.094L926.275 495.087L836.717 475.905L837.576 461.895L838.237 378.688Z" fill="#0F0817"/>
<path d="M1102.03 372.001C1102.15 373.501 1101.77 375.502 1103.3 376.412L1105.18 376.945C1136.41 409.329 1167.92 440.057 1214.79 454.421C1223.01 456.941 1231.69 459.777 1240.47 460.264L1261.07 460.657C1262.02 462.201 1262.19 461.93 1261.85 463.811C1261.51 465.717 1261.75 467.318 1262.03 469.209L1270.63 464.609L1332.51 439.887C1339.67 438.03 1351.17 435.928 1356.78 431.624L1361.36 433.722L1365.19 454.372C1370.36 490.084 1375.76 523.574 1370.36 559.708L1365.69 595.737C1359.85 631.52 1352.1 667.144 1341.94 702.243C1339.36 711.141 1337.42 721.063 1333.79 729.632C1328.86 741.281 1318.98 751.024 1313.73 762.596L1260.32 902.48C1238.08 955.003 1219.24 1010.81 1156.88 1036.47C1137.41 1044.49 1115.38 1048.19 1094.22 1050.13C1058.12 1053.43 1023.52 1051.91 989.41 1040.93C963.551 1032.61 937.949 1017.95 918.279 1001.07C918.567 998.262 918.898 996.315 920.683 993.911L921.249 993.168C926.079 986.518 931.62 980.654 935.495 973.49L963.556 937.365L965.45 932.544L968.827 927.722C967.674 926.035 967.5 924.624 967.11 922.71L965.921 922.968C965.455 922.743 964.846 922.671 964.521 922.3C963.928 921.624 963.692 913.398 963.549 911.987C962.39 900.634 960.886 889.263 959.13 877.975C955.82 856.698 949.925 834.338 940.589 814.56L936.701 806.272L930.681 804.113C912.229 795.198 894.672 784.321 880.117 770.866C862.288 754.382 848.749 734.368 836.048 714.62L833.209 708.792C818.053 680.716 806.446 653.141 800.118 622.332L798.351 611.636L796.778 557.22C795.164 529.526 799.741 500 803.967 472.51L832.234 475.61L836.717 475.905L926.275 495.087L931.567 496.963C932.302 490.911 931.708 484.431 931.634 478.359C931.214 475.027 930.414 471.96 932.043 468.779L960.16 466.64C992.338 462.507 1021.85 451.191 1046.48 431.904C1055.77 424.624 1064.34 414.598 1071.92 405.863L1096.51 374.766L1097.58 392.966C1099.75 391.236 1096.32 379.836 1097.49 376.718C1097.85 375.74 1101.14 372.925 1102.03 372.001Z" fill="url(#paint8_linear_14_5300)"/>
<path d="M990.284 890.578C992.164 890.575 992.001 890.232 993.244 891.543L993.976 892.628L968.827 927.722C967.674 926.035 967.5 924.624 967.11 922.71L990.284 890.578Z" fill="#312C3D"/>
<path d="M990.285 890.578L1017.79 850.264L1018.26 852.574L1017.42 853.651L1011.88 861.978L1012.86 862.718C1015.71 859.288 1017.91 855.636 1020.29 851.954L1023.75 847.234C1024.38 846.259 1025.14 845.527 1025.99 844.7L1026.75 845.729C1023.69 850.193 996.395 891.765 993.976 892.628L993.244 891.543C992.002 890.232 992.165 890.575 990.285 890.578Z" fill="#1F1C26"/>
<path d="M1210.26 924.597L1210.25 924.398C1220.83 915.071 1241.65 900.568 1256.49 898.808L1257.69 900.894C1249.51 908.607 1238.43 911.966 1228.14 916.94C1222.41 919.713 1217.35 923.5 1212.42 927.274L1210.26 924.597Z" fill="#1F1C26"/>
<path d="M931.635 478.359C931.215 475.026 930.415 471.96 932.043 468.779C936.557 476.819 945.72 485.494 952.38 492.294C957.754 497.78 964.738 502.581 965.209 510.147L950.597 504.085L931.567 496.963C932.303 490.911 931.709 484.43 931.635 478.359Z" fill="#1F1C26"/>
<path d="M931.635 478.359C935.827 481.727 938.343 486.002 941.806 489.892C944.92 493.385 948.581 496.317 951.493 499.986C951.248 501.385 951.017 502.714 950.598 504.085L931.567 496.963C932.303 490.911 931.709 484.43 931.635 478.359Z" fill="#0F0817"/>
<path d="M963.556 937.364L965.45 932.544C974.164 935.042 989.536 931.617 999.213 931.335C1040.49 930.132 1085.6 947.524 1113.54 973.836L1110.6 977.761C1081.38 953.361 1044.56 936.27 1003.16 936.691C990.956 936.815 976.386 939.959 964.611 937.605L963.556 937.364Z" fill="#1F1C26"/>
<path d="M1113.54 973.837L1136.18 994.066C1136.15 984.282 1134.24 927.377 1136.64 922.877C1137.08 928.911 1137.86 934.502 1136.67 940.218C1135.57 945.491 1138.09 950.936 1136.61 956.479C1136.07 958.538 1137.1 963.131 1137.27 965.486C1137.72 971.771 1138.38 977.547 1137.34 983.524C1136.77 986.815 1138.28 990.263 1137.47 993.812L1135.7 994.753C1130.96 993.555 1125.22 986.406 1121.05 983.347L1120.23 984.76C1123.33 986.853 1125.01 989.44 1127.57 991.42C1131.21 994.239 1135.1 996.666 1138.51 999.738C1138.83 1004.11 1140.84 1013.47 1138.53 1017.04C1138.78 1020.46 1138.18 1025.05 1140.53 1027.73L1139.35 922.143L1140.33 922.611L1143.01 994.888C1153.9 985.1 1161.46 972.867 1170.26 961.726C1181.37 947.655 1195.39 935.508 1210.26 924.597L1212.42 927.274C1197.15 938.949 1183.77 950.933 1171.99 965.522C1162.51 977.258 1154.51 990.334 1142.74 1000.45L1141.33 1037.43L1138.86 1038.62L1136.79 1036.96L1136.14 1000.69L1110.6 977.761L1113.54 973.837Z" fill="#0F0817"/>
<path d="M1257.69 900.894L1260.32 902.48C1238.08 955.002 1219.24 1010.81 1156.88 1036.47C1137.41 1044.49 1115.38 1048.19 1094.22 1050.13C1058.12 1053.43 1023.52 1051.91 989.41 1040.93C963.551 1032.61 937.949 1017.95 918.28 1001.07C918.567 998.261 918.898 996.315 920.683 993.91L921.249 993.168C926.079 986.517 931.62 980.654 935.495 973.49L963.556 937.364L964.611 937.605C976.386 939.959 990.956 936.815 1003.16 936.691C1044.56 936.27 1081.38 953.361 1110.6 977.761L1136.14 1000.69L1136.79 1036.96L1138.86 1038.62L1141.33 1037.43L1142.74 1000.45C1154.51 990.333 1162.51 977.258 1171.99 965.522C1183.77 950.933 1197.15 938.948 1212.42 927.274C1217.34 923.5 1222.41 919.712 1228.14 916.94C1238.43 911.966 1249.51 908.607 1257.69 900.894Z" fill="#010104"/>
<path d="M1356.79 431.624L1361.36 433.722L1365.19 454.372C1370.36 490.084 1375.76 523.574 1370.36 559.708L1365.69 595.737C1359.85 631.52 1352.1 667.144 1341.94 702.243C1339.36 711.141 1337.42 721.063 1333.79 729.632C1328.86 741.281 1318.98 751.024 1313.74 762.596C1307.96 763.851 1299.95 773.556 1295.18 777.185C1290.18 780.987 1284.39 784.433 1278.48 787.016C1261.81 794.296 1244.19 795.375 1226.76 790.082C1190.22 778.984 1169.99 744.456 1154.7 715.413C1149.79 705.959 1143.64 693.817 1142.64 683.365C1141.63 672.843 1144.5 660.328 1146.17 649.788C1154.99 594.128 1177.18 526.309 1230.07 490.272C1238.89 482.043 1251.45 475.512 1262.03 469.209L1270.63 464.609L1332.51 439.887C1339.67 438.03 1351.17 435.928 1356.79 431.624Z" fill="url(#paint9_linear_14_5300)"/>
<path d="M1284.14 520.771C1289.05 519.709 1294.48 519.431 1299.13 521.184L1300.34 521.657C1303.86 522.887 1311.73 527.324 1312.81 530.784C1314.03 534.7 1311.62 535.481 1315.84 538.707C1316.47 540.861 1316.35 542.959 1316.32 545.176C1315.51 546.175 1314.55 547.196 1314.29 548.433C1313.44 552.451 1314.45 563.466 1317.23 566.581C1318.21 567.684 1318.4 568.572 1318.8 569.925C1317.89 571.3 1317.44 572.068 1317.27 573.689L1317.21 574.917L1309.75 581.949C1309.06 582.532 1308.28 583.326 1307.42 583.747C1304 585.419 1299.69 583.86 1296.34 582.926C1294.03 581.489 1291.58 579.907 1288.8 579.295L1288.06 579.179C1282.41 573.383 1274.07 571.813 1265.92 570.217L1266.47 569.367L1264.47 567.073C1263.19 565.22 1262.81 565.348 1260.59 564.368C1260.22 563.184 1259.98 562.35 1259.11 561.364C1258.06 560.171 1258.36 559.006 1258.25 557.497C1255.92 555.717 1257.38 553.533 1255.34 551.203C1254.98 547.616 1253.83 543.357 1256.32 540.167C1261.59 533.41 1264.51 527.047 1274.62 525.143C1278.5 524.411 1279.92 523.742 1283.06 521.542L1284.14 520.771Z" fill="white"/>
<path d="M1356.79 431.624L1361.36 433.722L1365.19 454.372C1370.36 490.084 1375.76 523.574 1370.36 559.708L1365.69 595.737C1362.3 596.62 1359.8 596.581 1358.11 599.603C1355.77 603.778 1354.39 607.593 1349.2 609.811C1348.18 610.245 1347.53 610.361 1346.4 610.665L1346.95 605.589L1348.72 592.8C1347.85 588.793 1348.78 583.4 1348.92 579.251C1349.2 570.007 1349.31 560.751 1349.06 551.516C1348.23 521.911 1345.37 491.404 1340.09 462.237C1293.38 475.119 1251.43 500.039 1219.14 532.38C1192.17 567.411 1179.6 611.962 1172.44 653.074C1170.83 662.277 1167.9 674.071 1169.86 683.152C1171.23 689.469 1174.85 696.122 1177.33 702.18C1171.94 703.044 1167.93 704.868 1164.6 708.971C1161.35 712.979 1160.57 714.287 1154.7 715.413C1149.79 705.959 1143.64 693.817 1142.64 683.365C1141.63 672.844 1144.5 660.328 1146.17 649.788C1154.99 594.128 1177.18 526.309 1230.07 490.272C1238.89 482.043 1251.45 475.512 1262.03 469.209L1270.63 464.609L1332.51 439.887C1339.67 438.03 1351.17 435.928 1356.79 431.624Z" fill="#D2093F"/>
<path d="M1242.58 493.569C1265.52 477.833 1291.87 464.532 1318.69 454.77C1329.19 450.951 1340.14 448.187 1350.6 444.377L1352.28 443.759L1354.37 456.788C1352.89 457.85 1351.7 458.673 1350.71 460.124L1348.49 448.675C1335.46 453.628 1322.02 457.668 1309.06 462.782C1286.37 471.735 1264.88 482.871 1245.24 496.396C1236.93 502.118 1228.3 507.969 1222 515.522C1217.87 518.556 1214.59 522.855 1211.29 526.576C1197.49 542.092 1190.45 558.822 1181.63 576.574L1180.59 576.649C1180.09 573.372 1182.56 569.176 1183.79 565.998C1192.49 543.597 1206.83 524.473 1225.23 507.237C1230.32 502.46 1238.61 498.912 1242.58 493.569Z" fill="#A70020"/>
<path d="M1356.79 431.625L1361.36 433.722L1365.19 454.372L1364.61 453.801C1362.79 451.968 1362.28 451.064 1361.54 448.69L1361.08 447.544C1359.96 443.856 1361.42 440.18 1360.03 436.329C1358.47 435.646 1357.52 434.702 1355.76 435.225C1354.39 435.632 1353.76 436.055 1352.7 436.878L1354.03 438.399L1355.56 438.292C1355.5 439.445 1355.34 440.488 1355.17 441.628C1353.93 449.761 1357.27 457.741 1357.82 465.707L1356.82 465.793L1356 466.11L1354.37 456.788L1352.28 443.759L1350.6 444.377C1340.14 448.187 1329.19 450.951 1318.69 454.77C1291.87 464.532 1265.52 477.834 1242.58 493.569L1242.56 492.306C1243.74 491.127 1244.89 489.876 1246.3 488.903C1248.83 487.155 1251.38 485.142 1254.22 483.813L1255.64 483.17C1253.54 482.609 1252.14 482.208 1250.5 480.88L1249.25 479.838C1247.94 480.379 1247.06 480.845 1245.96 481.702C1244.69 482.676 1243.59 483.543 1242.21 484.403L1240.69 484.519C1240.33 484.928 1239.71 485.688 1239.26 485.979C1237.17 487.329 1236.33 487.742 1234.66 489.688L1234.05 490.414C1231.91 491.079 1232.09 491.122 1230.07 490.272C1238.89 482.043 1251.45 475.512 1262.03 469.209L1270.63 464.609L1332.51 439.887C1339.67 438.03 1351.17 435.928 1356.79 431.625Z" fill="#EC3A78"/>
<path d="M1356 466.11L1356.82 465.792L1357.82 465.706C1357.27 457.741 1353.93 449.76 1355.17 441.627C1355.34 440.488 1355.5 439.444 1355.56 438.291L1354.03 438.399L1352.7 436.878C1353.76 436.055 1354.39 435.632 1355.76 435.225C1357.52 434.701 1358.47 435.645 1360.03 436.329C1361.41 440.18 1359.96 443.856 1361.08 447.543L1361.54 448.689C1362.28 451.064 1362.79 451.968 1364.61 453.801L1365.19 454.372C1370.36 490.084 1375.76 523.574 1370.36 559.708L1365.69 595.737C1362.3 596.619 1359.79 596.581 1358.11 599.603C1355.77 603.778 1354.39 607.593 1349.2 609.811C1348.18 610.245 1347.53 610.361 1346.4 610.665L1346.95 605.589L1348.72 592.8C1347.85 588.792 1348.78 583.4 1348.92 579.251C1349.2 570.007 1349.31 560.75 1349.06 551.515C1348.23 521.91 1345.37 491.403 1340.09 462.236C1293.38 475.119 1251.43 500.039 1219.14 532.38L1219.33 528.939C1223.98 524.172 1228.89 517.796 1234.2 513.722C1238.96 510.071 1244.01 506.604 1248.77 502.914C1252.42 500.089 1257.36 498.201 1260.58 494.941C1261.83 493.672 1261.33 493.916 1263.02 493.109C1265.12 492.099 1266.78 491.33 1268.73 490.088L1270.56 489.95L1272.24 487.664C1275.3 486.944 1277.34 485.55 1279.29 483.356L1277.39 482.411L1278.38 479.088C1275.17 480.174 1271.09 482.153 1268.55 484.232L1268.03 484.708C1263.56 485.045 1247.73 496.096 1244.04 499.299L1235.77 505.739C1231.34 508.293 1226.8 512.417 1223.33 516.08L1222 515.522C1228.3 507.969 1236.93 502.118 1245.24 496.396C1264.88 482.871 1286.37 471.735 1309.06 462.782C1322.02 457.668 1335.46 453.628 1348.49 448.674L1350.71 460.124C1351.7 458.673 1352.89 457.849 1354.37 456.788L1356 466.11Z" fill="#E82D66"/>
<path d="M1350.71 460.124C1351.7 458.674 1352.89 457.85 1354.37 456.788L1356 466.11C1356.49 470.048 1357.94 475.573 1357.56 479.438C1354.62 484.545 1356.78 491.44 1356.17 497.144L1350.71 460.124Z" fill="#9E023B"/>
<path d="M1348.72 592.8L1350.7 592.949L1351.88 595.716C1349.96 597.694 1350.65 599.828 1349.69 602.225L1349.34 602.944C1352 602.763 1352.07 602.561 1354.12 600.979C1354.64 599.124 1355.18 597.181 1356.26 595.508L1356.74 594.835C1356.43 592.199 1355.52 588.505 1356.96 586.067C1362.23 577.132 1358.94 559.659 1360.04 549.146C1360.42 552.956 1359.96 558.817 1362.34 561.902C1363.86 560.704 1364.22 555.842 1364.76 553.833L1364.88 553.849L1370.36 559.708L1365.69 595.737C1362.3 596.62 1359.79 596.581 1358.11 599.603C1355.77 603.778 1354.39 607.593 1349.2 609.811C1348.18 610.245 1347.53 610.361 1346.4 610.665L1346.95 605.589L1348.72 592.8Z" fill="#D2093F"/>
<path d="M1356 466.11L1356.82 465.792L1357.82 465.706C1357.27 457.741 1353.93 449.761 1355.17 441.627C1355.34 440.488 1355.5 439.444 1355.56 438.291L1354.03 438.399L1352.7 436.878C1353.76 436.055 1354.39 435.632 1355.76 435.225C1357.52 434.701 1358.47 435.645 1360.03 436.329C1361.42 440.18 1359.96 443.856 1361.08 447.543L1361.54 448.689C1362.28 451.064 1362.79 451.968 1364.61 453.801L1365.19 454.372C1370.36 490.084 1375.76 523.574 1370.36 559.708L1364.88 553.849L1364.76 553.833C1364.22 555.842 1363.86 560.704 1362.34 561.902C1359.96 558.816 1360.42 552.956 1360.04 549.146L1357.87 514.474L1356.17 497.144C1356.78 491.439 1354.62 484.545 1357.56 479.438C1357.94 475.573 1356.49 470.048 1356 466.11Z" fill="#E82D66"/>
<path d="M1357.56 479.438L1362.04 520.855C1364.01 530.813 1366.17 543.814 1364.88 553.849L1364.76 553.833C1364.22 555.842 1363.86 560.704 1362.34 561.902C1359.96 558.817 1360.42 552.956 1360.04 549.146L1357.87 514.475L1356.17 497.144C1356.78 491.44 1354.62 484.545 1357.56 479.438Z" fill="#A70020"/>
<path d="M1357.87 514.475L1358.19 515.42C1360.85 523.93 1360.82 533.624 1361.59 542.447L1362.8 542.36C1362.45 535.354 1361.41 527.843 1362.04 520.855C1364.01 530.813 1366.17 543.815 1364.88 553.849L1364.76 553.833C1364.22 555.842 1363.86 560.705 1362.34 561.902C1359.96 558.817 1360.42 552.956 1360.04 549.146L1357.87 514.475Z" fill="#9E023B"/>
<path d="M1346.4 610.665C1347.53 610.361 1348.18 610.245 1349.2 609.811C1354.39 607.593 1355.77 603.778 1358.11 599.603C1359.79 596.582 1362.3 596.62 1365.69 595.737C1359.85 631.52 1352.1 667.144 1341.94 702.243C1339.36 711.142 1337.42 721.063 1333.79 729.632C1328.86 741.282 1318.98 751.024 1313.73 762.596C1307.96 763.851 1299.95 773.556 1295.18 777.186C1290.18 780.987 1284.39 784.433 1278.48 787.016C1261.81 794.296 1244.19 795.375 1226.76 790.082C1190.22 778.984 1169.99 744.456 1154.7 715.413C1160.57 714.287 1161.35 712.979 1164.6 708.971C1167.93 704.868 1171.94 703.044 1177.33 702.18L1178.1 702.752C1198.22 694.146 1217.58 681.951 1236.36 671.138C1260.42 657.286 1284.45 643.796 1308.2 629.498C1316.45 624.529 1324.71 619.557 1332.81 614.383C1336.02 612.328 1339.93 608.832 1343.59 607.669C1345.15 607.173 1345.78 606.612 1346.95 605.589L1346.4 610.665Z" fill="white"/>
<path d="M1346.4 610.665C1347.53 610.361 1348.18 610.245 1349.2 609.811C1354.39 607.593 1355.77 603.778 1358.11 599.603C1359.79 596.582 1362.3 596.62 1365.69 595.737C1359.85 631.52 1352.1 667.144 1341.94 702.243C1339.36 711.142 1337.42 721.063 1333.79 729.632C1328.86 741.282 1318.98 751.024 1313.73 762.596C1307.96 763.851 1299.95 773.556 1295.18 777.186C1290.18 780.987 1284.39 784.433 1278.48 787.016C1261.81 794.296 1244.19 795.375 1226.76 790.082C1190.22 778.984 1169.99 744.456 1154.7 715.413C1160.57 714.287 1161.35 712.979 1164.6 708.971C1167.93 704.868 1171.94 703.044 1177.33 702.18L1178.1 702.752C1183.45 716.109 1192.98 731.678 1202.37 743.161C1213.39 756.628 1227.54 768.203 1246.94 770.523C1256.19 771.627 1268.15 766.582 1275.44 761.527C1318.59 731.607 1338.94 656.621 1346.4 610.665Z" fill="#9E023B"/>
<path d="M796.779 557.22C795.164 529.526 799.741 499.999 803.968 472.51L832.234 475.61L836.717 475.905L926.275 495.087L931.567 496.963L950.597 504.085L965.209 510.147C981.168 518.714 998.591 527.384 1011.17 539.824C1046.13 568.094 1069.22 614.052 1084.07 653.277C1088.23 664.267 1093.36 676.918 1094.05 688.583C1094.44 695.186 1091.27 702.466 1089.21 708.767C1080.27 736.136 1067.24 762.887 1044.9 784.198C1026.96 801.31 1003.96 810.993 977.793 811.973C963.118 812.522 950.516 809.994 936.702 806.272L930.682 804.113C912.229 795.198 894.672 784.321 880.118 770.866C862.288 754.382 848.75 734.368 836.048 714.62L833.209 708.792C818.054 680.716 806.447 653.141 800.118 622.332L798.352 611.636L796.779 557.22Z" fill="url(#paint10_linear_14_5300)"/>
<path d="M1004.65 553.656C1009.86 557.883 1018.52 565.532 1019.21 571.986C1019.5 574.681 1016.85 579.057 1015.87 581.697L1011.09 575.686C1012.31 572.196 1012.71 569.492 1012.39 565.863C1011.67 564.519 1010.76 563.894 1009.92 562.696L1009.21 561.393C1006.79 558.468 1005.85 557.406 1004.65 553.656Z" fill="#D2093F"/>
<path d="M822.089 579.208C821.529 575.189 818.626 566.397 819.562 562.897C820.163 560.637 819.774 559.439 819.147 557.236L816.929 556.306C813.83 555.273 816.758 556.463 814.158 555.385L813.146 554.953C813.235 557.441 813.702 560.257 812.782 562.657C811.692 549.581 811.505 537.363 813.571 524.581C814.344 519.786 812.437 512.751 814.299 508.243C816.542 502.815 813.235 492.038 817.166 487.467C822.587 487.481 829.509 488.021 834.759 489.152L882.455 498.449C895.341 500.684 908.883 505.081 921.28 508.908C952.468 518.537 982.928 530.974 1004.65 553.656C1005.85 557.407 1006.79 558.468 1009.21 561.393L1009.92 562.696C1010.76 563.895 1011.67 564.52 1012.39 565.863C1012.71 569.492 1012.31 572.196 1011.09 575.686L999.379 561.847C953.903 520.517 889.099 507.725 826.657 498.025C824.875 504.486 824.936 512.029 824.446 518.657C823.396 532.848 822.78 547.082 822.467 561.289C822.34 567.048 823.071 573.565 822.089 579.208Z" fill="#EC3A78"/>
<path d="M999.38 561.848L1001.19 560.901L1001.67 561.488C1003.66 563.747 1005.93 565.625 1007.84 567.996C1009.27 567.293 1010.85 566.319 1012.39 565.864C1012.71 569.492 1012.31 572.196 1011.09 575.686L999.38 561.848Z" fill="#E82D66"/>
<path d="M796.778 557.22C795.164 529.526 799.741 499.999 803.968 472.51L832.234 475.61L836.717 475.905L926.275 495.087L931.567 496.963L950.597 504.085L965.209 510.147C981.168 518.714 998.591 527.384 1011.17 539.824L1009.54 540.733L1002.41 535.33L999.466 537.157L998.305 536.972C996.685 536.739 997.341 536.772 995.759 536.887L994.907 537.767L997.18 539.5L995.99 540.003C963.475 518.877 926.709 503.063 887.1 494.889C882.839 494.009 878.476 492.681 874.104 492.401C871.492 492.231 869.58 491.093 867.138 490.498C856.266 487.851 842.308 485.704 831.119 485.022C826.429 484.737 820.107 484.569 815.653 483.375C812.442 486.671 812.547 489.685 812.259 493.79C811.598 503.144 809.545 512.674 808.787 522.116C808.197 529.486 809.231 538.704 806.738 545.668L806.435 547.055L805.408 545.764C802.962 548.677 802.222 550.54 801.722 554.152C801.543 555.455 801.485 558.567 800.892 559.631C799.403 562.297 798.636 561.307 798.505 564.751L796.778 557.22Z" fill="#EC3A78"/>
<path d="M822.09 579.208C823.072 573.565 822.34 567.047 822.468 561.289C822.781 547.082 823.397 532.847 824.447 518.656C824.937 512.028 824.876 504.485 826.657 498.025C889.1 507.725 953.904 520.517 999.38 561.847L1011.09 575.685L1015.87 581.697C1033.38 604.611 1045.88 629.217 1056.44 655.225C1060.59 665.439 1065.52 677.194 1066.79 688.019C1067.61 695.035 1063.91 703.243 1061.31 709.81C1053.28 730.063 1043.71 749.389 1028.07 766.16C1017.31 777.698 1000.88 787.25 983.858 788.604C955.554 790.857 935.078 781.436 914.147 765.681C872.847 734.592 842.8 683.393 830.612 636.978C825.625 617.996 823.671 598.658 822.09 579.208Z" fill="url(#paint11_linear_14_5300)"/>
<path d="M1468.85 461.686C1467.13 461.084 1465.17 460.505 1463.29 460.511C1455.76 460.529 1449.18 469.025 1443.39 475.681C1441.77 476.231 1439.16 477.519 1437.63 477.401C1434.38 477.149 1430.57 471.474 1427.17 470.115C1422.45 468.228 1415.98 470.321 1411.45 475.026C1408.82 477.753 1406.13 481.819 1403.34 484.048C1401.25 485.726 1398.77 485.4 1396.67 487.063C1395.33 488.135 1394.54 489.519 1394.11 491.453C1393.64 493.589 1394.25 495.213 1395.03 496.694C1396.01 497.183 1396.98 497.546 1398.12 497.512C1404.5 497.316 1409.9 490.924 1414.8 485.055C1423.27 475.718 1427.88 487.938 1435.48 488.722C1442.54 489.45 1446.78 486.142 1452.6 479.348C1455.01 476.534 1457.63 473.255 1460.72 472.562C1464.58 471.692 1468.28 476.194 1471.28 478.214C1473.87 479.958 1476.87 480.461 1480.06 479.854C1482.39 479.409 1486.07 478.276 1487.8 475.552C1489.29 473.188 1489.18 471.598 1489.03 469.141C1488.46 468.147 1487.83 466.78 1486.92 466.312C1485.32 465.499 1481.56 468.279 1479.73 469.252L1468.85 461.686Z" fill="#B10028"/>
<path d="M1403.39 280.656C1401.32 280.811 1399 281.082 1397.06 281.838C1389.23 284.872 1386.35 295.054 1383.44 303.283C1382.01 304.422 1379.9 306.609 1378.25 307.12C1374.76 308.195 1368.13 304.682 1363.96 304.836C1358.17 305.049 1352.42 309.5 1349.9 315.493C1348.45 318.967 1347.55 323.656 1345.69 326.752C1344.29 329.082 1341.56 329.786 1340.16 332.101C1339.26 333.591 1339.08 335.139 1339.54 337.028C1340.05 339.114 1341.45 340.311 1342.95 341.316C1344.2 341.355 1345.38 341.29 1346.55 340.804C1353.09 338.075 1355.72 330.235 1358.08 323.06C1362.53 311.372 1373.04 320.381 1381.3 318.036C1388.99 315.856 1391.86 311.217 1394.74 302.853C1395.93 299.388 1397.13 295.425 1400.01 293.575C1403.62 291.256 1409.57 293.773 1413.64 294.365C1417.15 294.876 1420.51 294.122 1423.54 292.307C1425.76 290.978 1429.06 288.497 1429.58 285.386C1430.03 282.687 1429.17 281.322 1427.86 279.199C1426.81 278.544 1425.52 277.58 1424.35 277.532C1422.31 277.447 1419.69 281.424 1418.24 283.022L1403.39 280.656Z" fill="#B10028"/>
<path d="M1285.56 144.497C1283.83 145.924 1281.95 147.595 1280.71 149.414C1275.72 156.722 1279.74 166.489 1282.47 174.751C1281.93 176.545 1281.48 179.582 1280.34 181.024C1277.93 184.067 1269.79 185.498 1266.19 188.249C1261.2 192.066 1258.96 199.172 1260.6 205.439C1261.55 209.072 1263.78 213.303 1264.13 216.892C1264.39 219.594 1262.42 221.867 1262.67 224.558C1262.84 226.288 1263.68 227.61 1265.3 228.797C1267.1 230.106 1269.11 230.16 1271.09 229.998C1272.23 229.239 1273.23 228.445 1273.95 227.329C1278 221.07 1275.27 213.287 1272.73 206.197C1269.14 194.259 1284.27 194.67 1290.09 187.626C1295.5 181.076 1295.05 175.642 1292.21 167.293C1291.03 163.836 1289.54 159.983 1290.9 156.721C1292.61 152.633 1299.51 150.845 1303.5 148.743C1306.94 146.928 1309.43 144.224 1310.95 140.895C1312.06 138.456 1313.39 134.437 1311.84 131.677C1310.51 129.283 1308.86 128.762 1306.33 127.925C1304.97 128.081 1303.21 128.141 1302.14 128.842C1300.28 130.059 1300.52 134.819 1300.26 136.981L1285.56 144.497Z" fill="#B10028"/>
</g>
<defs>
<linearGradient id="paint0_linear_14_5300" x1="700.706" y1="592.345" x2="596.412" y2="523.242" gradientUnits="userSpaceOnUse">
<stop stop-color="#120E1F"/>
<stop offset="1" stop-color="#2F3447"/>
</linearGradient>
<linearGradient id="paint1_linear_14_5300" x1="1306.53" y1="358.912" x2="1280.24" y2="147.403" gradientUnits="userSpaceOnUse">
<stop stop-color="#08000A"/>
<stop offset="1" stop-color="#1F1D31"/>
</linearGradient>
<linearGradient id="paint2_linear_14_5300" x1="955.107" y1="866.62" x2="942.417" y2="869.409" gradientUnits="userSpaceOnUse">
<stop stop-color="#221C2F"/>
<stop offset="1" stop-color="#353640"/>
</linearGradient>
<linearGradient id="paint3_linear_14_5300" x1="833.652" y1="851.545" x2="813.202" y2="863.023" gradientUnits="userSpaceOnUse">
<stop stop-color="#0D0A19"/>
<stop offset="1" stop-color="#373842"/>
</linearGradient>
<linearGradient id="paint4_linear_14_5300" x1="979.768" y1="323.982" x2="916.6" y2="208.709" gradientUnits="userSpaceOnUse">
<stop stop-color="#130C1E"/>
<stop offset="1" stop-color="#2D3548"/>
</linearGradient>
<linearGradient id="paint5_linear_14_5300" x1="749.285" y1="703.727" x2="556.936" y2="539.632" gradientUnits="userSpaceOnUse">
<stop stop-color="#0E0615"/>
<stop offset="1" stop-color="#262B3F"/>
</linearGradient>
<linearGradient id="paint6_linear_14_5300" x1="1071.45" y1="402.986" x2="1010.49" y2="310.184" gradientUnits="userSpaceOnUse">
<stop stop-color="#1E1728"/>
<stop offset="1" stop-color="#474458"/>
</linearGradient>
<linearGradient id="paint7_linear_14_5300" x1="1045.22" y1="430.893" x2="995.738" y2="376.716" gradientUnits="userSpaceOnUse">
<stop stop-color="#191324"/>
<stop offset="1" stop-color="#383043"/>
</linearGradient>
<linearGradient id="paint8_linear_14_5300" x1="1261.62" y1="893.257" x2="832.717" y2="699.669" gradientUnits="userSpaceOnUse">
<stop stop-color="#000003"/>
<stop offset="1" stop-color="#150A23"/>
</linearGradient>
<linearGradient id="paint9_linear_14_5300" x1="1180.09" y1="699.711" x2="1346.61" y2="472.738" gradientUnits="userSpaceOnUse">
<stop stop-color="white"/>
<stop offset="1" stop-color="#F1FFFD"/>
</linearGradient>
<linearGradient id="paint10_linear_14_5300" x1="1024.96" y1="796.54" x2="866.928" y2="511.645" gradientUnits="userSpaceOnUse">
<stop stop-color="#B50031"/>
<stop offset="1" stop-color="#EE1A5F"/>
</linearGradient>
<linearGradient id="paint11_linear_14_5300" x1="994.627" y1="784.641" x2="876.035" y2="482.314" gradientUnits="userSpaceOnUse">
<stop stop-color="white"/>
<stop offset="1" stop-color="#FFFFFE"/>
</linearGradient>
<clipPath id="clip0_14_5300">
<rect width="1920" height="1080" fill="white"/>
</clipPath>
</defs>
</svg>
