<svg width="1920" height="1080" viewBox="0 0 1920 1080" fill="none" xmlns="http://www.w3.org/2000/svg">
<path d="M909.923 1034.19C899.778 1034.19 890.502 1032.63 880.622 1031.9C868.217 1030.98 866.122 1015.14 856.162 1011.52C840.081 1005.67 826.114 989.085 813.102 977.374C799.337 964.985 786.777 951.044 775.647 936.734C764.285 922.126 748.644 910.533 736.919 895.458C728.056 884.063 723.591 868.337 717.809 855.328C710.595 839.094 708.127 828.145 708.127 810.611C708.127 803.971 705.834 797.059 705.834 789.973C705.834 778.024 701.347 770.302 698.445 759.016C693.19 738.579 697.779 717.299 692.585 697.101C686.852 674.806 690.787 654.269 687.362 632.001C684.927 616.179 678.316 599.224 678.316 582.954C678.316 568.998 679.104 556.394 680.737 543.333C681.961 533.537 689.782 527.9 689.782 517.727C689.782 510.66 689.717 498.173 693.222 491.865C708.265 464.788 691.873 428.458 704.688 400.267C706.883 395.436 710.42 387.066 710.42 381.795C710.42 378.359 711.317 365.434 713.223 362.812C720.268 353.125 719.593 332.967 719.593 321.026" stroke="#060606" stroke-width="5" stroke-linecap="round"/>
<path d="M719.593 321.026C740.663 320.184 747.63 298.173 767.621 295.675C809.571 290.431 853.708 293.509 896.164 293.509C919.259 293.509 942.048 288.922 965.468 288.922C986.335 288.922 1007.54 287.98 1028.4 289.05C1061.92 290.769 1094.03 294.173 1123.19 309.561C1139.02 317.918 1154.68 323.645 1172.49 325.74C1199.22 328.885 1213.84 354.357 1230.96 371.475C1235.27 375.786 1241.7 381.225 1244.72 386.508C1248.96 393.924 1247.87 400.908 1251.09 408.166C1253.68 413.998 1253.4 424.91 1255.04 431.479C1260.6 453.714 1267 476.426 1270.46 498.872C1271.54 505.945 1271.93 543.304 1276.83 545.754" stroke="#060606" stroke-width="5" stroke-linecap="round"/>
<path d="M1276.83 545.754C1276.83 562.367 1279.12 579.082 1279.12 595.056C1279.12 609.39 1275.61 626.532 1280.9 639.773C1285.66 651.671 1282.35 668.721 1277.97 679.903C1271.27 697.035 1267.65 709.263 1267.65 727.421C1267.65 741.335 1272.89 766.714 1267.14 779.654C1263.89 786.97 1262.9 795.469 1260.26 803.095C1258.35 808.624 1251.6 816.522 1251.6 822.077C1251.6 838.029 1244.25 853.735 1234.4 865.774C1223.94 878.565 1221.83 896.324 1214.4 910.363C1207.59 923.219 1197.32 934.23 1190.2 947.053C1186.74 953.264 1182.31 961.135 1175.93 964.889C1169.97 968.396 1154.18 974.403 1152.87 980.304C1151.2 987.825 1135.56 1000.51 1128.79 1004.38C1114.4 1012.61 1092.83 1020.79 1077.32 1022.73C1073.33 1023.23 1068.48 1027.48 1065.86 1030.75C1064.1 1032.95 1053.18 1034.29 1049.8 1035.98C1037.1 1042.33 1025.97 1048.9 1011.97 1045.79C997.868 1042.65 984.109 1042.39 969.672 1038.78C954.638 1035.02 942.435 1038.78 928.268 1038.78C923.583 1038.78 917.513 1034.51 914.509 1030.75C913.044 1028.92 898.875 1027.31 896.164 1027.31" stroke="#060606" stroke-width="5" stroke-linecap="round"/>
<path d="M694.528 757.725C687.99 757.725 681.451 757.725 674.913 757.725C671.337 757.725 666.97 749.045 664.538 746.566C660.678 742.632 654.656 738.741 651.81 734.187C649.436 730.389 644.255 730.455 642.831 725.469C641.09 719.376 639.977 711.082 637.687 705.069C634.984 697.973 635.244 688.586 633.328 680.92C631.648 674.201 628.555 666.58 625.482 660.433C615.723 640.916 620.213 616.503 616.851 595.659C613.119 572.518 610.609 545.598 634.113 532.54C640.58 528.948 651.169 522.208 659.22 523.997C661.128 524.421 667.407 533.105 669.42 534.894C672.95 538.032 678.169 538.269 680.405 542.74" stroke="#060606" stroke-width="5" stroke-linecap="round"/>
<path d="M658.436 575.694C654.691 575.694 646.054 563.949 643.964 560.002C638.878 550.395 626.261 548.328 625.482 561.571C624.998 569.804 621.306 581.206 625.133 589.817C629.042 598.612 626.044 611.009 628.708 620.33C630.864 627.876 630.228 636.963 634.113 643.956C637.599 650.232 634.519 661.854 636.554 668.976C638.291 675.057 639.681 689.054 645.097 693.387C651.035 698.137 657.722 702.088 663.144 707.51" stroke="#060606" stroke-width="5" stroke-linecap="round"/>
<path d="M685.113 698.094C677.238 689.235 671.366 674.776 659.307 671.33C641.39 666.211 662.075 635.538 666.282 628.176C669.814 621.995 676.253 615.783 680.056 624.34C681.522 627.638 681.581 641.123 679.184 643.52C669.348 653.357 669.857 664.445 675.697 676.125" stroke="#060606" stroke-width="5" stroke-linecap="round"/>
<path d="M677.267 528.617C671.382 521.997 664.713 517.655 664.713 508.217C664.713 499.098 667.842 484.246 661.487 476.832C656.479 470.99 645.882 460.025 645.882 452.509C645.882 448.324 645.882 444.14 645.882 439.955C645.882 432.877 648.696 427.914 649.369 421.037C649.714 417.511 653.312 404.382 649.02 401.858C646.295 400.254 645.219 398.3 643.441 395.581C640.336 390.832 639.12 386.295 636.815 381.109C635.037 377.108 634.897 370.077 634.897 365.765C634.897 356.739 631.758 351.377 628.62 342.75C625.506 334.185 627.051 323.586 627.051 314.416C627.051 305.287 638.744 301.234 633.677 291.663C628.702 282.266 621.096 275.689 620.774 264.114C620.478 253.466 617.636 244.884 617.636 234.386C617.636 221.489 636.282 232.918 634.81 222.616C633.311 212.124 625.482 203.305 625.482 192.016C625.482 182.294 630.44 180.954 634.549 173.97C636.095 171.342 637.808 169.44 641.174 169.262C646.103 169.003 644.252 162.376 644.313 158.626C644.458 149.625 647.843 141.104 651.81 133.17C655.4 125.991 659.741 125.712 667.677 127.765C673.797 129.348 675.064 123.218 677.267 118.262C680.718 110.497 685.298 101.785 694.528 101.785C701.444 101.785 701.636 101.859 704.728 96.293C707.248 91.757 707.188 89.2314 713.359 89.2314" stroke="#060606" stroke-width="5" stroke-linecap="round"/>
<path d="M710.221 97.0784C710.221 94.1861 708.43 84.5245 712.575 84.5245C717.142 84.5245 721.737 83.889 725.913 85.745C740.852 92.3848 736.376 53.488 747.882 47.7347C759.606 41.8726 770.267 48.4322 782.057 48.4322C788.188 48.4322 794.32 48.4322 800.452 48.4322C810.856 48.4322 812.364 40.3387 819.195 34.4834C825.395 29.1689 832.06 23.3244 840.816 23.3244C846.346 23.3244 849.304 30.2171 853.718 32.7398C859.44 36.0095 864.877 37.4475 871.852 37.4475C880.623 37.4475 877.931 32.5942 882.836 26.4629C886.065 22.4275 886.966 12.2066 893.036 10.8577C902.154 8.83164 908.424 12.9628 914.918 18.5296C918.108 21.2637 920.375 26.7255 926.775 25.7655C936.54 24.3007 944.707 -1.11233 956.59 10.7706C957.837 12.0175 961.094 18.2223 962.17 18.5296C967.674 20.1022 976.426 19.9852 982.047 20.186C993.771 20.6047 1000.51 19.464 1007.5 9.28851C1011.9 2.89562 1011.55 21.4681 1013.87 23.3244C1017.01 25.8401 1019.11 23.2871 1022.5 21.4065C1027.65 18.5429 1031.29 14.2375 1038.19 13.909C1044.48 13.6097 1053.45 17.6107 1055.45 24.109C1057.87 31.9513 1061.53 31.1706 1068.79 31.1706C1072.89 31.1706 1076.31 29.6014 1080.56 29.6014C1085.23 29.6014 1090.56 31.4395 1094.77 30.386C1102.8 28.3782 1108.9 30.9763 1114.73 36.227C1117.35 38.5792 1118.01 42.8182 1120.14 44.945C1122.21 47.0142 1127.24 39.6423 1128.33 38.2321C1131.65 33.9658 1136.48 33.2084 1141.76 35.0937C1154.53 39.654 1154.31 45.4708 1154.31 57.8476" stroke="#060606" stroke-width="5" stroke-linecap="round"/>
<path d="M1152.74 53.1392C1152.97 51.3517 1162.4 50.6266 1164.6 49.8264C1173.02 46.7636 1176.04 39.1049 1180.99 51.9187C1182.99 57.0826 1182.19 71.7165 1187.35 65.6931C1192.76 59.3841 1199.69 59.6285 1205.31 64.1239C1208.64 66.7886 1213.68 78.6063 1215.16 82.6059C1217.59 89.1536 1223.86 92.9988 1226.85 98.647C1228.42 101.619 1233.24 117.68 1239.05 110.416C1241.37 107.523 1251.29 104.123 1254.74 103.355C1258.54 102.511 1261.84 101.785 1265.73 101.785C1273.98 101.785 1271.96 120.321 1272.01 125.498C1272.07 131.976 1270.37 139.699 1274.45 144.939C1280.05 152.144 1290.41 151.372 1295.2 159.847C1297.56 164.034 1299.24 177.664 1295.54 181.816C1284.07 194.729 1294.93 210.574 1300.95 222.616C1308.85 238.419 1314.97 221.692 1326.93 227.673C1332.22 230.319 1331.35 249.771 1329.28 255.57C1327.06 261.791 1322.38 268.875 1322.22 275.622C1321.96 286.709 1322.22 297.833 1322.22 308.924C1322.22 320.168 1326.77 329.96 1325.27 341.965C1324.36 349.295 1316.35 355.024 1315.94 362.278C1315.63 367.942 1312.33 375.892 1310.02 381.109C1303.83 395.017 1309.75 413.094 1303.39 427.401C1300.32 434.305 1298.87 441.891 1295.89 448.586C1294.32 452.134 1292.41 457.896 1292.41 461.924C1292.41 472.038 1285.09 481.4 1284.56 490.955C1283.51 509.873 1278.28 526.507 1278.28 545.878" stroke="#060606" stroke-width="5" stroke-linecap="round"/>
<path d="M1278.98 538.19C1278.98 541.857 1279.69 547.476 1284.52 547.476C1290.51 547.476 1291.82 538.48 1297.13 537.299C1299.5 536.772 1301.69 534.568 1303.93 533.547C1307.13 532.094 1310.97 531.437 1314.44 531.437C1321.74 531.437 1327.8 531.296 1333.38 536.877C1336.46 539.95 1339.76 548.58 1339.76 552.963C1339.76 556.882 1342.3 560.443 1342.3 564.359C1342.3 568.721 1342.3 573.082 1342.3 577.444C1342.3 584.463 1342.3 591.482 1342.3 598.501C1342.3 604.585 1341.95 610.74 1341.4 616.791C1341.01 621.149 1338.69 625.085 1337.7 629.313C1336.95 632.538 1336.78 635.924 1335.54 639.021C1332.66 646.236 1331.03 653.663 1329.44 661.25C1327.47 670.7 1330.53 682.069 1326.07 690.983C1324.9 693.321 1323.3 695.32 1322.22 697.737C1320.94 700.621 1321.24 703.699 1320.35 706.929C1318.72 712.827 1316.85 718.42 1315.09 724.375C1313.58 729.536 1307.42 731.931 1304.96 736.568C1302.08 742.026 1300.34 749.705 1295.3 753.827C1290.7 757.597 1282.37 759.36 1276.45 759.36C1274.04 759.36 1272.9 759.559 1271.2 757.86C1269.81 756.472 1269.47 753.34 1268.01 752.607" stroke="#060606" stroke-width="5" stroke-linecap="round"/>
<path d="M1270.54 698.581C1273.54 698.581 1274.79 698.471 1277.3 697.08C1278.91 696.182 1280.52 695.312 1282.36 695.204C1285.94 694.993 1286.27 689.548 1288.69 687.607C1297.54 680.529 1311.06 671.349 1311.06 658.717C1311.06 644.156 1309.26 631.792 1300.51 620.121C1299.09 618.231 1296.33 617.158 1294.6 615.431C1292.33 613.165 1288.82 608.686 1286.16 607.505C1281.62 605.489 1279.83 609.988 1279.83 613.32" stroke="#060606" stroke-width="5" stroke-linecap="round"/>
<path d="M1287.42 591.372C1290.52 591.372 1297.64 590.917 1299.9 588.652C1302.56 585.992 1294.95 576.638 1299.24 574.489" stroke="#060606" stroke-width="5" stroke-linecap="round"/>
<path d="M1311.06 566.048C1311.06 558.115 1322.44 558.126 1327.94 558.45C1330.92 558.625 1329.63 566.21 1329.63 567.736C1329.63 572.331 1330.05 575.941 1331.13 580.398C1334.07 592.481 1336.43 605.568 1332.82 617.729C1331.28 622.944 1331.32 628.091 1331.32 633.58" stroke="#060606" stroke-width="5" stroke-linecap="round"/>
<path d="M1316.97 572.801C1316.97 585.835 1316.3 598.103 1322.22 609.944C1324.96 615.416 1325.41 619.755 1325.41 625.983" stroke="#060606" stroke-width="5" stroke-linecap="round"/>
<path d="M867.951 839.85C884.148 838.604 891.323 830.206 904.379 823.026C910.665 819.568 919.45 812.283 924.057 806.652C933.276 795.385 954.483 801.566 966.943 801.996C978.459 802.393 988.795 800.453 999.765 798.015C1011.82 795.336 1025.65 803.908 1035.59 808.455C1042.41 811.572 1049.61 817.373 1057.22 818.219C1060.77 818.612 1064.31 820.92 1067.74 821.974C1070.64 822.868 1073.5 822.305 1076.45 823.326C1082.92 825.566 1085.72 825.166 1088.99 831.062C1094.66 841.254 1076.4 839.85 1069.39 839.85C1040.84 839.85 1013.38 849.336 984.518 844.206C975.38 842.581 963.618 843.015 955.226 839.099C946.188 834.881 930.871 838.644 921.278 841.202C901.462 846.486 880.191 845.258 859.84 845.258" stroke="#060606" stroke-width="5" stroke-linecap="round"/>
<path d="M866.6 845.258C878.781 845.258 890.082 847.235 901.149 852.769C911.467 857.927 919.557 867.156 930.141 872.297C939.125 876.66 949.838 878.112 959.282 881.46C962.288 882.525 967.042 885.816 970.098 885.816C975.563 885.816 980.221 888.52 985.57 888.52C996.433 888.52 1006.75 890.927 1017.42 891.224C1024.62 891.424 1028.69 886.746 1035.67 885.816C1043.33 884.795 1054.19 883.44 1059.63 877.404C1062.86 873.806 1063.76 868.524 1066.69 864.861C1069.16 861.773 1074.41 860.711 1077.2 858.477C1079.6 856.562 1091.39 842.172 1089.37 840.151C1083.92 834.699 1067.64 839.85 1061.28 839.85" stroke="#060606" stroke-width="5" stroke-linecap="round"/>
<path d="M952.165 564.002C952.165 578.126 951.641 592.285 952.944 606.356C954.564 623.853 958.451 653.141 948.527 668.632C944.502 674.915 938.09 691.845 928.779 691.845C918.49 691.845 915.13 690.392 910.07 698.427C907.211 702.968 905.263 716.075 900.716 718.349" stroke="#060606" stroke-width="5" stroke-linecap="round"/>
<path d="M1022.32 549.971C1022.32 564.808 1021.35 580.107 1022.41 594.924C1023.2 605.974 1025.44 616.976 1025.44 628.097C1025.44 637.246 1024.65 650.637 1028.21 659.105C1031.91 667.877 1036.35 686.475 1036.35 686.475C1036.35 686.475 1036.95 684.106 1037.91 684.05C1039.68 683.946 1041.63 684.35 1043.37 683.963C1046.96 683.167 1050.12 679.748 1053.5 679.373C1058.74 678.791 1058.27 676.93 1061.99 681.711C1064.52 684.959 1066.22 689.702 1067.88 693.404C1072.87 704.495 1076.89 718.576 1076.89 730.822C1076.89 738.883 1069.72 744.853 1061.3 744.853C1049.66 744.853 1056.49 740.317 1052.29 732.381C1048.8 725.782 1043.58 726.759 1037.91 724.239C1032.66 721.903 1025.75 723.026 1020.07 723.026C1010.3 723.026 1014.93 724.088 1011.06 728.916C1008.07 732.657 1009 741.481 1006.39 746.412C1003.69 751.505 992.084 751.25 986.465 751.089C980.578 750.921 977.052 745.289 971.567 743.294C969.029 742.371 965.368 738.903 963.079 738.617C957.578 737.929 949.008 733.775 944.024 730.822C930.634 722.887 905.962 741.239 922.543 749.53" stroke="#060606" stroke-width="5" stroke-linecap="round"/>
<path d="M920.288 583.072C916.032 588.33 913.399 593.324 909.886 598.993C907.106 603.479 904.441 608.297 900.298 611.611C891.683 618.503 882.214 624.55 873.975 631.873C870.425 635.029 865.565 640.596 864.115 644.944" stroke="#060606" stroke-width="5" stroke-linecap="round"/>
<path d="M901.564 554.578C893.7 554.578 885.798 557.731 878 558.649C869.337 559.668 861.325 561.091 852.537 561.091C840.308 561.091 829.2 558.947 817.892 554.759C813.67 553.195 809.155 549.142 804.686 548.88C801.392 548.686 802.577 546.645 804.324 545.216C809.552 540.938 815.312 537.361 820.651 533.321C824.209 530.628 828.026 526.678 832.682 526.13C836.44 525.688 840.432 526.085 844.215 526.085C849.643 526.085 855.333 527.934 860.814 528.482C871.445 529.545 883.615 531.98 892.202 538.658C896.186 541.757 901.664 543.713 904.82 547.658C906.201 549.384 908.063 549.609 905.635 550.689C903.787 551.51 900.872 551.077 899.936 552.95" stroke="#060606" stroke-width="5" stroke-linecap="round"/>
<path d="M814.371 547.476C814.71 541.396 821.251 537.914 827.152 537.589C832.064 537.318 837.69 535.135 842.664 537.23C847.476 539.257 851.122 540.099 853.639 545.135C856.056 549.972 857.122 555.782 856.817 561.257" stroke="#060606" stroke-width="5" stroke-linecap="round"/>
<path d="M835.272 560.245C837.124 560.401 838.461 555.246 839.489 554.063C842.518 550.575 837.423 548.219 834.607 547.624C829.035 546.448 823.489 545.111 822.111 551.643" stroke="#060606" stroke-width="5" stroke-linecap="round"/>
<path d="M785.146 542.367C788.209 536.855 794.237 533.299 799.71 530.562C805.272 527.782 809.934 523.107 815.63 520.205C819.471 518.248 822.104 517.944 826.259 517.944C836.926 517.944 847.305 516.995 858.054 517.763C866.194 518.344 872.227 520.932 879.899 523.552C883.029 524.621 887.018 524.337 889.804 526.266C892.229 527.944 893.551 529.729 896.588 530.336C905.277 532.074 913.225 536.193 918.66 543.181C920.214 545.179 923.614 545.831 924.358 548.066" stroke="#060606" stroke-width="5" stroke-linecap="round"/>
<path d="M934.942 473.982C934.942 481.974 934.629 489.577 932.093 497.184C931.597 498.672 926.621 510.437 925.987 509.803" stroke="#060606" stroke-width="5" stroke-linecap="round"/>
<path d="M930.872 472.354C930.872 481.265 932.877 496.181 923.545 500.847" stroke="#060606" stroke-width="5" stroke-linecap="round"/>
<path d="M923.545 472.354C923.545 478.605 925.316 489.306 920.288 494.334" stroke="#060606" stroke-width="5" stroke-linecap="round"/>
<path d="M920.288 464.213C920.288 472.915 920.552 484.84 911.333 489.45" stroke="#060606" stroke-width="5" stroke-linecap="round"/>
<path d="M913.776 463.398C913.776 468.317 915.016 477.563 911.786 481.716C911.034 482.683 911.32 484.375 909.705 484.565C908.288 484.732 906.227 485.824 905.635 487.007" stroke="#060606" stroke-width="5" stroke-linecap="round"/>
<path d="M907.262 458.515C907.262 462.796 907.262 467.078 907.262 471.359C907.262 473.734 905.875 475.072 905.634 477.239C905.313 480.129 899.936 481.079 899.936 484.566" stroke="#060606" stroke-width="5" stroke-linecap="round"/>
<path d="M899.122 457.7C899.122 467.205 896.193 473.814 893.423 482.123" stroke="#060606" stroke-width="5" stroke-linecap="round"/>
<path d="M886.096 454.443C886.096 458.514 886.096 462.584 886.096 466.655C886.096 470.242 882.84 473.08 882.84 476.424" stroke="#060606" stroke-width="5" stroke-linecap="round"/>
<path d="M874.698 457.7C874.698 460.625 874.698 463.55 874.698 466.474C874.698 468.2 873.597 473.12 872.256 469.098" stroke="#060606" stroke-width="5" stroke-linecap="round"/>
<path d="M870.628 452.815C870.628 459.942 866.382 468.635 863.301 474.796" stroke="#060606" stroke-width="5" stroke-linecap="round"/>
<path d="M879.583 460.143C879.583 465.849 880.406 471.526 877.141 476.425" stroke="#060606" stroke-width="5" stroke-linecap="round"/>
<path d="M856.788 448.745C856.788 453.564 858.077 460.55 856.336 465.027C855.031 468.381 853.009 471.48 851.903 474.796" stroke="#060606" stroke-width="5" stroke-linecap="round"/>
<path d="M850.276 448.745C850.276 452.764 851.778 461.246 849.054 464.575C847.26 466.767 846.171 471.964 843.763 473.168" stroke="#060606" stroke-width="5" stroke-linecap="round"/>
<path d="M843.762 444.675C843.762 450.177 843.935 455.617 842.948 461.047C842.265 464.803 839.385 474.543 835.621 476.425" stroke="#060606" stroke-width="5" stroke-linecap="round"/>
<path d="M835.621 450.373C835.621 454.444 835.621 458.514 835.621 462.585C835.621 465.829 833.993 468.494 833.993 471.54" stroke="#060606" stroke-width="5" stroke-linecap="round"/>
<path d="M824.224 448.745V471.54" stroke="#060606" stroke-width="5" stroke-linecap="round"/>
<path d="M828.295 449.559V467.469" stroke="#060606" stroke-width="5" stroke-linecap="round"/>
<path d="M815.269 454.443C815.269 458.846 815.269 463.248 815.269 467.65C815.269 471.26 816.532 477.379 814.455 480.495" stroke="#060606" stroke-width="5" stroke-linecap="round"/>
<path d="M807.941 454.443V478.866" stroke="#060606" stroke-width="5" stroke-linecap="round"/>
<path d="M798.173 456.072V475.611" stroke="#060606" stroke-width="5" stroke-linecap="round"/>
<path d="M790.032 456.886C790.032 464.413 788.455 474.95 790.846 482.123" stroke="#060606" stroke-width="5" stroke-linecap="round"/>
<path d="M777.006 466.655C777.006 471.853 776.483 476.09 778.815 480.495C780.198 483.106 783.139 483.806 784.333 486.194" stroke="#060606" stroke-width="5" stroke-linecap="round"/>
<path d="M764.794 474.796C764.912 475.741 769.865 479.867 770.9 480.902C773.558 483.56 775.377 485.627 775.377 489.45" stroke="#060606" stroke-width="5" stroke-linecap="round"/>
<path d="M760.724 486.193C759.702 486.193 764.517 489.279 765.201 489.812C767.32 491.459 768.051 493.097 768.051 495.963" stroke="#060606" stroke-width="5" stroke-linecap="round"/>
<path d="M751.769 497.591C755.153 498.014 757.047 509.185 759.91 510.616" stroke="#060606" stroke-width="5" stroke-linecap="round"/>
<path d="M753.396 492.707C753.594 494.283 756.271 496.66 757.015 498.361C757.978 500.562 758.885 502.87 759.909 504.919" stroke="#060606" stroke-width="5" stroke-linecap="round"/>
<path d="M744.441 509.803C748.079 509.803 750.954 514.339 750.954 517.944" stroke="#060606" stroke-width="5" stroke-linecap="round"/>
<path d="M738.743 520.386C738.743 522.714 741.046 524.177 742 526.084" stroke="#060606" stroke-width="5" stroke-linecap="round"/>
<path d="M1024.53 470.023C1024.53 475.275 1020.96 495.415 1027.12 498.496" stroke="#060606" stroke-width="5" stroke-linecap="round"/>
<path d="M1029.71 464.847C1029.71 469.891 1027.02 498.496 1032.3 498.496" stroke="#060606" stroke-width="5" stroke-linecap="round"/>
<path d="M1034.89 466.141C1034.89 471.991 1031.88 497.638 1036.18 499.79" stroke="#060606" stroke-width="5" stroke-linecap="round"/>
<path d="M1046.54 464.847V498.496" stroke="#060606" stroke-width="5" stroke-linecap="round"/>
<path d="M1055.59 463.553V486.848" stroke="#060606" stroke-width="5" stroke-linecap="round"/>
<path d="M1067.24 459.67V477.789" stroke="#060606" stroke-width="5" stroke-linecap="round"/>
<path d="M1080.18 451.905V477.789" stroke="#060606" stroke-width="5" stroke-linecap="round"/>
<path d="M1085.36 458.376V473.906" stroke="#060606" stroke-width="5" stroke-linecap="round"/>
<path d="M1097.01 445.434V477.789" stroke="#060606" stroke-width="5" stroke-linecap="round"/>
<path d="M1106.07 448.022V471.318" stroke="#060606" stroke-width="5" stroke-linecap="round"/>
<path d="M1112.54 449.316V476.495" stroke="#060606" stroke-width="5" stroke-linecap="round"/>
<path d="M1122.89 453.199V475.201" stroke="#060606" stroke-width="5" stroke-linecap="round"/>
<path d="M1131.95 458.376V488.143" stroke="#060606" stroke-width="5" stroke-linecap="round"/>
<path d="M1146.19 464.847C1146.19 468.668 1148.08 482.669 1144.89 484.26" stroke="#060606" stroke-width="5" stroke-linecap="round"/>
<path d="M1139.72 460.964C1139.72 467.841 1140.58 475.209 1138.42 481.671" stroke="#060606" stroke-width="5" stroke-linecap="round"/>
<path d="M1155.25 463.553V484.26" stroke="#060606" stroke-width="5" stroke-linecap="round"/>
<path d="M1168.19 467.436V488.143" stroke="#060606" stroke-width="5" stroke-linecap="round"/>
<path d="M1173.37 467.436V486.849" stroke="#060606" stroke-width="5" stroke-linecap="round"/>
<path d="M1182.43 477.789V502.379" stroke="#060606" stroke-width="5" stroke-linecap="round"/>
<path d="M1191.49 482.966V498.496" stroke="#060606" stroke-width="5" stroke-linecap="round"/>
<path d="M1203.13 488.143V497.202" stroke="#060606" stroke-width="5" stroke-linecap="round"/>
<path d="M1209.6 493.319V504.967" stroke="#060606" stroke-width="5" stroke-linecap="round"/>
<path d="M1046.27 550.545C1048.83 544.644 1054.14 540.019 1058.36 535.277C1060.59 532.765 1063.04 529.688 1065.85 527.783C1071.15 524.191 1078.59 518.313 1085.05 517.667C1088.17 517.354 1091.72 514.457 1094.79 513.451C1097.88 512.441 1100.99 512.294 1103.97 510.922C1106.43 509.795 1108.93 510.116 1111.56 510.079C1116.33 510.013 1121.02 509.236 1125.8 509.236C1132.48 509.236 1137.81 509.227 1143.88 512.608C1146.97 514.333 1150.19 516.761 1153.71 517.479C1156.95 518.139 1160.33 518.529 1163.27 520.196C1168.01 522.881 1172.09 524.245 1176.1 528.251C1177.23 529.387 1179.22 532.293 1180.31 532.841" stroke="#060606" stroke-width="5" stroke-linecap="round"/>
<path d="M1061.45 558.974C1067.74 547.523 1077.46 540.942 1088.24 534.714C1092.72 532.12 1097.92 530.596 1102.71 528.625C1109.36 525.886 1112.73 524.303 1120.46 524.878C1126.24 525.309 1131.96 525.753 1137.51 527.454C1141.42 528.653 1146.27 529.735 1149.78 531.997C1151.93 533.387 1153.85 535.422 1156.05 536.681C1158.82 538.264 1167.11 538.5 1167.67 542.957C1168.1 546.423 1167.63 545.622 1164.76 548.483C1159.51 553.735 1155.77 555.321 1148.7 556.82C1138.19 559.05 1126.63 562.346 1115.87 562.346C1107.92 562.346 1098.98 564.573 1091.14 562.159C1085.74 560.498 1078.58 560.66 1072.83 560.66C1069.48 560.66 1066.54 556.445 1063.13 556.445" stroke="#060606" stroke-width="5" stroke-linecap="round"/>
<path d="M1124.64 556.599C1124.27 553.288 1120.49 547.227 1117.1 547.482C1112.54 547.826 1106.48 544.648 1101.96 543.564C1099.11 542.878 1094.88 544.18 1092.08 544.497C1089.47 544.793 1086.14 544.602 1083.86 546.074C1079.53 548.872 1078.39 551.96 1076.3 556.252" stroke="#060606" stroke-width="5" stroke-linecap="round"/>
<path d="M1100.63 559.693C1105.5 556.277 1105.48 552.012 1097.69 551.947C1090.84 551.89 1088.04 555.676 1088 560.017" stroke="#060606" stroke-width="5" stroke-linecap="round"/>
<path d="M1049.64 580.051C1052.05 584.869 1055.12 590.635 1059.34 593.914C1061.63 595.692 1064.46 595.868 1066.97 597.099C1069.51 598.344 1071.25 600.611 1073.62 601.97C1079.57 605.365 1084.89 612.62 1088.8 618.174C1091.29 621.712 1094.52 624.602 1096.85 628.103" stroke="#060606" stroke-width="5" stroke-linecap="round"/>
<path d="M558.468 416.39C559.884 415.336 561.526 414.236 563.223 413.728C570.041 411.679 577.964 418.101 584.739 422.959C586.336 423.046 588.99 423.579 590.353 423.044C593.229 421.91 595.362 415.368 598.121 413.12C601.95 410 608.289 410.252 613.477 413.566C616.484 415.486 619.862 418.684 622.898 420.079C625.184 421.128 627.352 420.131 629.63 421.169C631.094 421.837 632.133 422.96 632.969 424.715C633.891 426.654 633.712 428.395 633.353 430.042C632.576 430.786 631.783 431.403 630.747 431.682C624.932 433.242 618.567 428.533 612.774 424.194C602.944 417.477 601.609 430.574 594.923 433.415C588.707 436.057 584.099 434.018 577.262 429.035C574.431 426.971 571.296 424.517 568.348 424.69C564.654 424.907 562.352 430.28 560.106 433.059C558.166 435.458 555.572 436.768 552.55 437.054C550.336 437.263 546.744 437.175 544.551 435.011C542.649 433.133 542.386 431.562 541.951 429.141C542.235 428.023 542.484 426.527 543.204 425.824C544.455 424.6 548.506 426.258 550.388 426.699L558.468 416.39Z" fill="#020103"/>
<path d="M560.875 277.72C562.388 277.343 564.098 277.016 565.644 277.251C571.859 278.189 575.971 287.3 579.712 294.514C580.967 295.251 582.916 296.828 584.203 296.901C586.919 297.051 590.947 291.967 593.963 291.054C598.148 289.786 603.164 292.623 606.172 297.777C607.915 300.764 609.506 305.067 611.458 307.587C612.929 309.484 615.027 309.468 616.495 311.35C617.438 312.562 617.878 314.012 617.931 315.956C617.989 318.101 617.23 319.614 616.36 320.968C615.471 321.326 614.615 321.562 613.682 321.39C608.448 320.419 604.985 313.51 601.852 307.173C596.308 297.008 590.608 308.393 584.221 308.232C578.281 308.081 575.291 304.328 571.545 296.975C569.994 293.929 568.335 290.403 565.901 289.348C562.849 288.026 559.098 291.975 556.308 293.584C553.898 294.972 551.346 295.098 548.812 294.115C546.956 293.395 544.093 291.837 543.092 288.963C542.223 286.469 542.566 284.929 543.071 282.545C543.695 281.643 544.423 280.382 545.251 280.037C546.691 279.437 549.368 282.614 550.728 283.79L560.875 277.72Z" fill="#020103"/>
<path d="M595.783 104.448C597.311 105.134 598.978 105.99 600.161 107.184C604.92 111.977 602.891 121.878 601.699 130.034C602.327 131.436 603.037 133.956 604.097 134.853C606.335 136.742 612.892 135.338 616.036 136.579C620.4 138.301 622.972 143.819 622.409 149.864C622.083 153.367 620.823 157.815 620.96 161.085C621.065 163.547 622.874 164.901 622.986 167.349C623.056 168.925 622.549 170.361 621.409 171.936C620.15 173.675 618.576 174.38 617.004 174.885C616.023 174.589 615.144 174.219 614.449 173.474C610.551 169.294 611.794 161.56 612.972 154.496C614.416 142.826 602.582 148.136 597.2 143.846C592.197 139.856 591.921 134.932 593.193 126.663C593.719 123.238 594.448 119.362 593.002 116.94C591.191 113.903 585.564 114.589 582.189 114.046C579.275 113.576 577.009 112.012 575.435 109.582C574.281 107.801 572.776 104.701 573.67 101.77C574.446 99.2276 575.679 98.2307 577.566 96.6692C578.652 96.361 580.046 95.8363 580.966 96.1027C582.568 96.5648 582.926 100.828 583.376 102.646L595.783 104.448Z" fill="#020103"/>
</svg>
