<svg width="1920" height="1080" viewBox="0 0 1920 1080" fill="none" xmlns="http://www.w3.org/2000/svg">
<path d="M920.164 1036.01C911.373 1036.01 905.115 1041.74 896.455 1042.82C885.363 1044.21 873.451 1043.66 862.673 1039.88C848.55 1034.94 834.278 1028.57 822.761 1019.62C817.295 1015.36 809.107 1011.92 802.555 1010.04C798.824 1008.98 791.97 1001.32 789.543 998.283C786.974 995.072 779.13 991.466 775.467 989.838C770.701 987.72 765.077 981.439 760.891 978.014C756.883 974.735 752.637 970.78 749.506 966.754C746.063 962.328 740.396 958.86 738.808 953.304C738.409 951.907 728.837 946.788 727.61 945.922C724.115 943.455 722.333 939.448 719.165 936.914C713.187 932.132 711.123 922.679 705.653 917.208C697.525 909.08 690.538 903.151 686.51 891.872C683.754 884.154 680.57 872.634 674.186 867.161C671.071 864.492 672.05 857.783 669.619 855.838C668.257 854.748 669.056 850.197 669.056 848.457C669.056 844.82 668.472 842.314 667.054 838.948C664.447 832.757 659.269 827.342 656.419 820.931C653.1 813.463 653.183 803.615 651.915 795.532C650.945 789.349 651.039 783.288 651.039 777.015C651.039 771.18 651.564 766.303 649.037 761.251C646.998 757.172 648.715 750.954 646.785 746.612C645.132 742.891 645.64 733.647 645.409 729.721C645.055 723.708 644.283 717.855 644.283 711.705C644.283 700.444 644.283 689.184 644.283 677.923C644.283 671.912 643.697 669.494 641.155 664.411C639.024 660.149 639.779 652.526 639.779 647.77C639.779 633.206 638.285 619.136 637.527 604.73C637.241 599.308 635.275 593.769 635.275 587.84C635.275 583.221 636.401 578.396 636.401 574.327" stroke="#060606" stroke-width="5" stroke-linecap="round"/>
<path d="M636.229 572.683C636.229 564.629 635.232 556.675 635.232 548.537C635.232 543.792 635.232 539.048 635.232 534.303C635.232 528.562 636.927 523.094 637.226 517.412C637.56 511.057 641.002 504.809 642.155 498.471C642.955 494.07 644.459 490.07 645.422 485.733C647.912 474.53 651.512 463.706 653.397 452.393C655.493 439.822 656.693 426.65 657.163 413.957C657.374 408.275 659.98 402.518 661.649 397.177C663.125 392.455 663.455 388.262 664.363 383.497C665.091 379.678 664.058 374.344 665.637 370.87C666.667 368.605 667.132 363.791 667.132 361.344C667.132 355.263 670.123 349.335 670.123 343.4" stroke="#060606" stroke-width="5" stroke-linecap="round"/>
<path d="M883.676 1044.81C887.466 1044.81 891.364 1044.56 895.116 1045.18C898.792 1045.8 902.214 1048.28 906 1048.03C914.539 1047.45 922.808 1045.57 931.416 1045.34C938.851 1045.14 947.491 1045.55 954.605 1042.9C958.583 1041.41 962.721 1040.38 966.664 1038.81C968.545 1038.07 970.259 1037.02 972.322 1037.02C980.592 1037.02 988.805 1037.06 997.058 1037.55C1002.17 1037.85 1007.08 1039.2 1012.24 1039.25C1017.28 1039.29 1022.24 1038.69 1027.27 1038.69C1029.28 1038.69 1032.21 1038.74 1033.94 1037.58" stroke="#060606" stroke-width="5" stroke-linecap="round"/>
<path d="M1035.06 1037.58C1036.81 1033.36 1044.63 1030.22 1048.26 1027.9C1056.05 1022.93 1062.27 1015.34 1069.07 1009.16C1073.04 1005.55 1077.49 1002.42 1081.78 999.207C1085.81 996.179 1090.99 993.64 1092.97 988.787C1095.24 983.234 1098.57 975.559 1103.14 971.534C1108.49 966.829 1112.78 961.153 1117.21 955.456C1119.52 952.49 1121.47 949.335 1123.67 946.303C1125.92 943.201 1129 940.879 1131.62 938.11C1136.7 932.732 1140 926.133 1144.51 920.331C1148.48 915.227 1152.25 910.174 1155.58 904.624C1158.53 899.718 1162.96 896.489 1166.84 892.442C1168.21 891.006 1168.47 888.926 1169.34 887.186C1170.75 884.372 1172.6 881.79 1174.2 879.085C1175.39 877.055 1176.76 875.192 1178.09 873.272C1182.08 867.505 1185.61 861.946 1187 855.029" stroke="#060606" stroke-width="5" stroke-linecap="round"/>
<path d="M1184.21 860.595C1184.21 859.722 1186.54 857.288 1187.27 856.39C1189.96 853.112 1189.1 847.815 1190.89 843.898C1192.24 840.957 1192.44 837.462 1193.92 834.715C1194.78 833.115 1194.56 831.257 1194.91 829.552C1195.43 827.03 1196.46 824.986 1196.46 822.316C1196.46 816.312 1198.68 810.424 1198.68 804.538C1198.68 799.11 1199.72 793.435 1200.79 788.119C1202.33 780.407 1205.36 772.003 1205.36 764.312" stroke="#060606" stroke-width="5" stroke-linecap="round"/>
<path d="M1205.39 765.259C1205.39 747.287 1209.26 729.789 1209.26 711.942C1209.26 706.371 1210.8 701.864 1210.8 696.334C1210.8 688.91 1210.8 681.486 1210.8 674.062C1210.8 667.626 1210.8 661.191 1210.8 654.756C1210.8 652.539 1211.57 650.553 1211.41 648.564C1210.69 639.728 1210.03 630.771 1210.03 621.906C1210.03 615.794 1211.26 609.376 1210.63 603.331C1209.46 592.119 1208.48 581.274 1208.48 570.051C1208.48 565.728 1207.55 560.019 1210.03 556.292" stroke="#060606" stroke-width="5" stroke-linecap="round"/>
<path d="M1207.57 559.133C1207.57 551.73 1208.55 544.512 1208.87 537.157C1209.14 530.81 1206.7 524.738 1205.6 518.701C1203.79 508.734 1205.02 495.852 1200.46 486.742" stroke="#060606" stroke-width="5" stroke-linecap="round"/>
<path d="M1201.11 490.621C1201.11 486.462 1199.45 481.776 1197.59 478.053C1196.63 476.133 1195.31 474.424 1194.36 472.523C1192.84 469.48 1193.98 464.515 1193.28 461.14C1192.65 458.062 1191.42 455.349 1191.42 452.163C1191.42 451.357 1192.03 446.171 1190.77 446.023C1188.29 445.73 1187.16 442.678 1186.03 440.636C1183.39 435.858 1184.51 431.037 1182.33 426.309C1179.35 419.853 1176.55 411.868 1176.55 404.62C1176.55 399.97 1174.53 395.584 1173.46 391.083C1172.2 385.776 1174.65 378.536 1171.09 373.955C1169.95 372.485 1168.39 369.385 1169.44 367.814" stroke="#060606" stroke-width="5" stroke-linecap="round"/>
<path d="M1170.73 367.168C1165.38 366.713 1162.33 363.761 1159.13 359.771C1155.82 355.628 1154.08 352.828 1148.86 352.123C1136.7 350.48 1123.56 345.076 1113.49 338.083C1110.59 336.067 1108.09 333.245 1104.59 332.301C1098.11 330.558 1091.82 328.688 1085.56 326.233C1076.26 322.588 1067.46 319.054 1057.87 316.179C1049.1 313.547 1039.94 313.536 1030.94 311.87C1021.46 310.114 1012.16 307.577 1002.61 306.268C995.997 305.362 989.397 305.311 982.788 303.97C975.078 302.405 968.054 301.241 960.166 301.241C954.194 301.241 947.725 301.973 941.817 300.918C934.897 299.682 926.921 301.455 919.949 302.031C915.875 302.367 911.899 302.534 907.812 302.534C903.921 302.534 900.241 302.606 896.429 303.467C893.996 304.017 891.117 305.119 888.637 305.119C885.597 305.119 882.834 304.473 879.875 304.473" stroke="#060606" stroke-width="5" stroke-linecap="round"/>
<path d="M877.936 303.179C869.917 303.179 861.897 303.179 853.878 303.179C849.167 303.179 844.726 302.653 840.053 302.282C832.416 301.676 824.515 303.657 817 304.759C805.581 306.434 793.657 307.058 782.133 307.058C776.043 307.058 773.017 307.495 767.698 310.648C762.506 313.726 756.991 316.022 750.893 316.106C743.381 316.211 736.132 319.657 728.558 320.487C724.668 320.914 723.961 321.608 720.766 324.042C714.267 328.994 706.407 333.178 699.185 337.041C694.144 339.737 688.336 340.99 683.17 343.612C679.946 345.248 674.905 345.77 672.11 347.957C667.882 351.266 666.04 357.618 661.409 360.705" stroke="#060606" stroke-width="5" stroke-linecap="round"/>
<path d="M1045.85 846.991C1033.71 846.991 1022.85 835.704 1013.32 829.608C1011.18 828.238 1008.87 825.77 1006.78 824.1C1004.54 822.306 1000.7 823.313 999.038 820.658C995.385 814.814 982.655 813.946 977.009 811.364C967.411 806.977 955.856 807.897 945.513 808.267C941.464 808.411 938.329 811.364 934.326 811.364C930.195 811.364 926.065 811.364 921.934 811.364C914.705 811.364 907.477 811.364 900.248 811.364C891.887 811.364 887.793 811.769 881.661 817.56C875.072 823.783 863.866 828.574 858.426 835.374C854.35 840.469 846.437 841.554 842.936 847.679C840.42 852.083 825.87 854.736 835.966 854.736C842.311 854.736 847.674 857.834 854.554 857.834C862.736 857.834 868.88 860.424 877.358 857.489C886.455 854.34 896.688 850.809 906.1 848.884C915.423 846.977 934.39 835.488 943.62 839.59C961.755 847.65 983.567 848.54 1003.25 848.54C1012.63 848.54 1026.35 845.956 1035.7 848.626C1039.96 849.844 1034.9 862.258 1032.69 864.03C1027.82 867.925 1022.91 876.154 1019.43 881.24C1015.9 886.4 1010.51 896.582 1004.72 899.742C1002.14 901.147 1000.47 903.674 997.834 904.991C994.817 906.499 991.084 905.807 987.851 906.712C971.848 911.193 955.282 906.706 938.973 909.036C934.917 909.615 931.765 914.08 927.355 915.059C924.288 915.741 920.421 915.146 917.287 915.146C911.379 915.146 897.596 917.526 892.848 913.252C877.052 899.036 859.337 885.43 850.681 865.234C849.714 862.977 846.496 854.68 853.435 859.727C855.207 861.016 859.488 862.392 861.868 862.481C869.955 862.78 879.756 864.03 887.082 864.03C895.623 864.03 903.835 860.932 912.554 860.932C918.467 860.932 924.741 861.538 930.625 860.846C948.501 858.742 965.362 849.148 983.204 856.285C999.746 862.901 1014.69 853.187 1030.36 853.187" stroke="#060606" stroke-width="5" stroke-linecap="round"/>
<path d="M894.053 585.215C894.053 606.384 894.053 627.553 894.053 648.723C894.053 660.913 891.484 680.238 884.07 689.77C878.778 696.574 874.709 699.514 868.494 704.486C863.648 708.362 852.23 715.306 852.23 721.524" stroke="#060606" stroke-width="5" stroke-linecap="round"/>
<path d="M954.462 558.882C954.462 550.174 955.272 576.287 956.097 584.957C956.999 594.419 959.684 603.895 961.863 613.096C963.466 619.864 963.154 626.801 964.961 633.577C968.429 646.583 971.852 660.115 974.513 673.42C975.388 677.797 980.168 704.024 973.05 707.584" stroke="#060606" stroke-width="5" stroke-linecap="round"/>
<path d="M980.795 668.859C980.795 693.582 1008.21 693.152 1018.31 712.231C1020.56 716.474 1027.68 743.739 1019.52 744.759C1015.74 745.231 1008.88 748.614 1004.8 745.447C1001.19 742.639 995.736 733.916 990.863 733.916C977.898 733.916 971.802 734.992 962.896 743.898C958.987 747.807 954.316 750.656 950.16 754.397C945.297 758.773 941.595 758.276 936.649 761.023C927.037 766.364 916.054 747.857 905.67 747.857C895.926 747.857 881.09 739.134 872.367 747.857" stroke="#060606" stroke-width="5" stroke-linecap="round"/>
<path d="M991.638 600.704C991.638 607.085 992.384 612.121 997.231 616.968C1002.12 621.862 1007.03 629.51 1014.1 631.684C1016.87 632.535 1020.88 634.097 1023.31 635.642C1027.47 638.289 1030.63 638.103 1035.01 639.773C1040.02 641.68 1044.91 642.194 1047.4 647.173" stroke="#060606" stroke-width="5" stroke-linecap="round"/>
<path d="M983.893 575.921C987.622 575.507 994.268 568.643 997.059 565.853C1002.99 559.922 1011.13 558.908 1018.06 555.01C1027.86 549.496 1043.45 543.393 1054.8 543.393C1063.96 543.393 1074.68 544.951 1083.54 542.618C1089.84 540.962 1098.93 538.923 1105.49 540.381C1112.86 542.018 1114.84 553.88 1121.75 557.333" stroke="#060606" stroke-width="5" stroke-linecap="round"/>
<path d="M1100.07 575.921C1100.07 585.668 1081.42 592.592 1074.08 594.853C1063.82 598.009 1053.76 595.816 1043.44 597.692C1038.83 598.531 1035.12 599.155 1030.36 599.155C1025.16 599.155 1020.05 595.58 1014.7 594.164C1008.02 592.397 997.558 587.556 1000.93 579.965C1008.56 562.807 1033.83 560.431 1050.5 560.431C1065.93 560.431 1080.49 557.333 1096.19 557.333C1100.74 557.333 1102.2 560.012 1105.06 563.185C1107.21 565.573 1111.46 566.179 1112.46 568.176" stroke="#060606" stroke-width="5" stroke-linecap="round"/>
<path d="M1031.91 566.628C1031.91 575.96 1031.91 579.407 1041.2 583.322C1046.21 585.429 1054.29 585.215 1059.79 585.215C1067.71 585.215 1070.01 579.645 1075.28 574.372C1077.96 571.696 1084.3 563.392 1078.38 560.432" stroke="#060606" stroke-width="5" stroke-linecap="round"/>
<path d="M961.707 483.894V508.888" stroke="#060606" stroke-width="5" stroke-linecap="round"/>
<path d="M971.263 478.747V507.417" stroke="#060606" stroke-width="5" stroke-linecap="round"/>
<path d="M977.879 478.013V502.272" stroke="#060606" stroke-width="5" stroke-linecap="round"/>
<path d="M984.495 473.602V497.861" stroke="#060606" stroke-width="5" stroke-linecap="round"/>
<path d="M990.376 467.721C990.376 475.384 989.447 484.046 991.847 491.245" stroke="#060606" stroke-width="5" stroke-linecap="round"/>
<path d="M1000.67 466.985V495.655" stroke="#060606" stroke-width="5" stroke-linecap="round"/>
<path d="M1010.96 467.721C1010.96 476.815 1010.22 485.923 1010.22 494.92" stroke="#060606" stroke-width="5" stroke-linecap="round"/>
<path d="M1021.99 468.456C1021.99 472.676 1021.99 476.896 1021.99 481.117C1021.99 483.553 1021.51 485.934 1021.21 488.345C1020.88 490.972 1021.21 494.979 1019.78 497.126" stroke="#060606" stroke-width="5" stroke-linecap="round"/>
<path d="M1029.34 471.396V497.861" stroke="#060606" stroke-width="5" stroke-linecap="round"/>
<path d="M1041.1 468.456V502.272" stroke="#060606" stroke-width="5" stroke-linecap="round"/>
<path d="M1050.66 468.456V494.185" stroke="#060606" stroke-width="5" stroke-linecap="round"/>
<path d="M1059.48 466.985V497.861" stroke="#060606" stroke-width="5" stroke-linecap="round"/>
<path d="M1066.09 466.25C1066.09 478.26 1066.83 514.281 1066.83 502.271" stroke="#060606" stroke-width="5" stroke-linecap="round"/>
<path d="M1074.18 472.866C1074.18 477.711 1074.1 482.562 1074.18 487.405C1074.22 489.628 1075.54 491.431 1075.65 493.45C1075.79 495.864 1076.39 497.578 1076.39 500.066" stroke="#060606" stroke-width="5" stroke-linecap="round"/>
<path d="M1085.21 473.602V505.212" stroke="#060606" stroke-width="5" stroke-linecap="round"/>
<path d="M1099.17 477.277C1099.17 482.178 1099.17 487.079 1099.17 491.98C1099.17 494.75 1099.99 499.208 1098.44 501.536" stroke="#060606" stroke-width="5" stroke-linecap="round"/>
<path d="M1110.2 482.423V505.947" stroke="#060606" stroke-width="5" stroke-linecap="round"/>
<path d="M1121.23 494.186V512.564" stroke="#060606" stroke-width="5" stroke-linecap="round"/>
<path d="M1133.73 498.596V518.444" stroke="#060606" stroke-width="5" stroke-linecap="round"/>
<path d="M1143.28 500.066V525.796" stroke="#060606" stroke-width="5" stroke-linecap="round"/>
<path d="M870.591 482.803V515.457" stroke="#060606" stroke-width="5" stroke-linecap="round"/>
<path d="M859.331 480.551V513.205" stroke="#060606" stroke-width="5" stroke-linecap="round"/>
<path d="M844.693 481.677C844.693 490.753 845.819 500.045 845.819 508.701" stroke="#060606" stroke-width="5" stroke-linecap="round"/>
<path d="M830.055 480.551C830.055 489.33 831.181 497.944 831.181 506.449" stroke="#060606" stroke-width="5" stroke-linecap="round"/>
<path d="M816.543 473.795C816.543 482.813 818.324 493.879 814.291 501.945" stroke="#060606" stroke-width="5" stroke-linecap="round"/>
<path d="M805.283 465.912V498.566" stroke="#060606" stroke-width="5" stroke-linecap="round"/>
<path d="M794.023 470.416V498.566" stroke="#060606" stroke-width="5" stroke-linecap="round"/>
<path d="M779.384 461.408C779.384 473.328 780.51 484.534 780.51 496.314" stroke="#060606" stroke-width="5" stroke-linecap="round"/>
<path d="M765.872 464.786V500.818" stroke="#060606" stroke-width="5" stroke-linecap="round"/>
<path d="M771.502 467.038C771.502 478.871 772.628 490.332 772.628 501.944" stroke="#060606" stroke-width="5" stroke-linecap="round"/>
<path d="M754.612 469.29V500.818" stroke="#060606" stroke-width="5" stroke-linecap="round"/>
<path d="M744.478 477.173C744.478 485.736 745.604 495.139 745.604 503.071" stroke="#060606" stroke-width="5" stroke-linecap="round"/>
<path d="M728.714 478.299C728.714 490.646 737.722 500.877 737.722 513.205" stroke="#060606" stroke-width="5" stroke-linecap="round"/>
<path d="M721.958 494.062C721.958 503.822 725.336 512.7 725.336 522.213" stroke="#060606" stroke-width="5" stroke-linecap="round"/>
<path d="M711.824 509.827C711.824 511.98 710.056 532.026 712.95 533.473" stroke="#060606" stroke-width="5" stroke-linecap="round"/>
<path d="M701.69 527.843C701.69 534.007 702.816 539.834 702.816 545.859" stroke="#060606" stroke-width="5" stroke-linecap="round"/>
<path d="M692.682 537.977C692.682 544.265 693.808 550.158 693.808 555.993" stroke="#060606" stroke-width="5" stroke-linecap="round"/>
<path d="M860.457 598.781C860.457 604.703 862.231 613.502 859.831 618.987C858.266 622.564 856.355 625.805 854.577 629.183C851.786 634.486 846.247 638.461 843.567 643.822" stroke="#060606" stroke-width="5" stroke-linecap="round"/>
<path d="M848.071 583.017C845.741 583.276 843.317 585.465 841.19 586.395C837.405 588.051 833.394 588.377 829.554 589.774C826.449 590.903 823.055 592.903 820.484 594.903C813.487 600.345 798.83 602.624 791.145 598.782C784.717 595.568 775.477 591.633 768.75 589.711C765.637 588.822 763.697 585.374 761.306 583.58C758.69 581.619 755.215 581.243 752.986 579.014C747.373 573.401 767.466 561.623 773.504 561.623C787.663 561.623 801.821 561.623 815.98 561.623C820.421 561.623 824.863 561.623 829.304 561.623C831.283 561.623 837.248 560.622 838.813 561.874C845.04 566.856 848.802 575.412 850.323 583.017" stroke="#060606" stroke-width="5" stroke-linecap="round"/>
<path d="M821.047 566.127C821.047 572.071 823.37 584.58 818.795 588.647C813.485 593.367 801.823 592.025 795.149 592.025C787.422 592.025 784.108 588.214 780.761 581.891C779.151 578.851 773.394 567.433 778.258 565.001" stroke="#060606" stroke-width="5" stroke-linecap="round"/>
<path d="M809.787 565.001C809.787 571.797 807.895 581.433 799.653 581.891C792.493 582.289 791.152 581.642 789.581 574.572C788.784 570.985 789.519 566.429 789.519 562.749" stroke="#060606" stroke-width="5" stroke-linecap="round"/>
<path d="M1049.63 559.371C1049.63 563.52 1052.69 567.583 1056.38 569.755C1057.18 570.223 1062.51 574.233 1063.08 572.258C1063.75 569.881 1064.55 563.733 1066.52 562.749" stroke="#060606" stroke-width="5" stroke-linecap="round"/>
<path d="M860.457 563.875C855.684 563.875 849.312 562.187 845.256 559.934C834.695 554.066 828.543 546.984 815.542 546.984C810.974 546.984 806.351 544.732 801.905 544.732C795.069 544.732 789.502 545.864 783.013 547.86C774.547 550.465 766.662 554.641 757.99 557.118C752.487 558.691 749.081 559.48 743.853 562.248C739.667 564.464 736.517 568.03 732.092 569.505" stroke="#060606" stroke-width="5" stroke-linecap="round"/>
<path d="M626.436 570.38C626.436 556.651 622.946 542.755 618.342 529.912C612.249 512.915 606.569 495.538 600.132 478.877C595.784 467.625 586.239 452.022 585.968 439.533C585.722 428.228 583.944 416.878 583.944 405.697C583.944 402.992 585.185 396.145 582.933 394.344C579.862 391.887 574.648 377.296 573.715 373.098C571.631 363.722 567.556 355.512 569.893 344.995C570.627 341.691 579.374 328.203 574.727 325.548C567.911 321.653 563.972 314.027 562.137 306.888C560.261 299.594 559.888 290.673 559.888 283.169C559.888 278.949 561.384 282.832 562.699 282.832C564.783 282.832 561.766 274.365 561.687 272.939C561.233 264.761 555.424 258.05 567.757 258.776C570.302 258.925 572.61 262.041 574.951 262.71C581.999 264.724 576.754 248.695 576.3 244.162C574.384 225.001 573.827 204.086 573.827 184.809C573.827 173.314 578.664 173.793 589.003 173.793C598.402 173.793 599.499 185.238 602.267 172.781C604.024 164.878 608.238 159.718 612.272 152.659C613.45 150.598 620.075 149.512 622.389 149.512C629.59 149.512 625.318 140.892 626.885 135.798C628.993 128.947 644.584 132.303 644.646 131.301C645.031 125.15 651.416 107.02 658.81 107.02C662.606 107.02 666.128 110.842 667.916 110.842C668.441 110.842 669.829 103.337 670.951 102.074C674.326 98.2768 674.399 96.2496 680.056 94.9924C683.824 94.1551 689.161 102.945 689.161 97.6903C689.161 89.9041 685.908 77.0551 696.243 74.7584C700.39 73.8369 703.847 75.756 707.372 72.6225C709.821 70.4458 712.843 67.6819 716.365 68.6882C729.881 72.5499 734.022 74.4321 744.468 59.8077C750.088 51.9395 757.898 47.5293 764.477 40.6977C768.88 36.1254 773.098 31.8374 777.741 27.658C785.158 20.983 788.024 41.4801 788.308 46.3183C788.582 50.9684 812.231 48.3166 812.589 43.8453C813.515 32.2736 825.241 13.078 836.87 24.0609C843.971 30.7673 851.829 36.643 860.139 41.2598C861.865 42.2187 863.78 43.1991 865.647 43.8453C867.749 44.5729 869.695 49.0153 871.268 47.4424C876.938 41.772 876.277 33.1877 885.319 29.2318C897.532 23.8885 906.951 24.0609 920.729 24.0609C931.28 24.0609 938.58 22.5772 946.134 30.1311C954.77 38.7674 955.531 40.2481 968.391 40.2481C976.822 40.2481 985.253 40.2481 993.684 40.2481C998.54 40.2481 1004.62 47.3208 1005.26 45.8687C1009.74 35.6939 1024.07 32.1545 1033.93 32.1545C1047.45 32.1545 1044.17 41.9269 1047.42 53.2878C1049.94 62.1377 1059.01 65.1941 1067.54 60.9318C1074.56 57.4228 1083.84 51.6176 1087.32 62.0559C1093.71 81.2329 1084.98 59.4045 1095.87 53.9623C1106.95 48.4184 1108.29 56.0992 1112.5 64.5289C1114.23 67.9823 1115.38 71.9093 1116.21 75.6576C1118.42 85.5881 1128.34 80.7162 1136.33 80.7162C1146.79 80.7162 1152.16 84.8791 1159.6 90.8332C1163.65 94.0728 1161.66 107.181 1162.75 112.079C1164.7 120.845 1180.07 122.232 1184.9 128.266C1187.77 131.861 1196.43 133.622 1200.63 137.821C1210.53 147.714 1216.35 163.389 1222.89 175.816C1227.88 185.294 1229.41 189.396 1229.41 200.097C1229.41 207.21 1228.05 215.53 1231.43 221.455C1239.61 235.757 1244.87 236.518 1261.67 236.518C1273.57 236.518 1276.14 238.787 1273.81 251.581C1271.72 263.092 1252.28 264.596 1249.76 275.975C1247.86 284.491 1250.73 293.785 1251.67 301.267C1252.31 306.383 1262.76 307.502 1265.38 313.408C1269.7 323.118 1268.14 330.43 1261.33 337.239C1254.46 344.114 1254.05 357.162 1253.69 366.466C1253.48 371.979 1248.83 376.41 1246.61 381.304C1244.17 386.661 1246.41 390.394 1247.51 395.355C1248.37 399.227 1244.6 401.016 1246.05 404.461C1247.88 408.805 1249.64 412.883 1249.64 417.613C1249.64 425.539 1253.71 434.658 1249.64 441.781C1248.39 443.98 1243.68 443.701 1242 445.378C1240.69 446.69 1238.97 450.18 1237.5 452.011C1234.27 456.055 1226.58 459.893 1223.79 465.163C1220.26 471.829 1223.76 486.306 1223.34 493.49C1222.93 500.523 1215.25 506.852 1215.25 514.736C1215.25 529.798 1213.22 543.903 1213.22 558.239" stroke="#060606" stroke-width="5" stroke-linecap="round"/>
<path d="M646.814 776.984C632.536 776.984 621.52 775.631 611.423 765.534C607.782 761.894 604.804 753.058 602.649 748.21C599.09 740.201 595.203 732.532 590.902 724.79C579.043 703.443 574.872 678.8 563.243 657.205C557.128 645.847 561.162 633.723 561.162 621.74C561.162 616.386 561.162 611.033 561.162 605.68C561.162 600.793 558.485 595.834 558.485 590.289C558.485 587.771 558.013 584.719 558.559 582.259C559.316 578.853 562.5 576.675 562.5 573.56C562.5 567.627 564.976 561.676 568.894 558.541C578.07 551.201 597.159 545.082 608.672 551.478C616.19 555.655 626.739 562.621 626.739 572.222" stroke="#060606" stroke-width="5" stroke-linecap="round"/>
<path d="M625.401 623.077C622.374 622.699 622.527 616.803 620.048 615.345C616.951 613.523 615.484 610.01 613.059 607.315C609.687 603.569 608.108 598.303 603.319 595.642C596.918 592.086 595.023 583.926 590.307 579.21C583.751 572.654 581.751 582.791 577.891 584.935C565.857 591.621 576.685 613.429 577.221 623.077C577.93 635.829 578.56 648.783 578.56 661.889" stroke="#060606" stroke-width="5" stroke-linecap="round"/>
<path d="M638.837 717.169C638.837 714.188 630.889 708.849 628.197 707.166C625.557 705.516 622.305 696.024 620.012 695.889C614.538 695.567 615.864 691.014 614.464 687.34C613.545 684.926 614.634 682.578 613.282 680.156C611.664 677.257 611.231 673.98 609.826 670.971C608.03 667.121 608.553 662.333 608.553 658.194C608.553 649.219 612.728 636.412 622.649 635.368C624.557 635.167 626.519 633.634 628.015 635.504C628.942 636.663 629.833 639.953 629.833 641.461C629.833 646.242 629.985 650.804 628.97 655.375C628.035 659.58 626.56 665.587 626.56 669.698" stroke="#060606" stroke-width="5" stroke-linecap="round"/>
<path d="M1202.21 764.636C1209 764.636 1213.63 764.155 1219.91 761.015C1224.31 758.816 1228.9 756.082 1233.19 754.175C1241.34 750.551 1241.07 737.038 1246.87 731.241C1249.92 728.194 1249.09 723.906 1250.13 719.886C1251.5 714.611 1253.07 709.852 1254.92 704.73C1256.66 699.9 1262.19 699.846 1263.77 695.745C1265.65 690.848 1263.09 684.791 1264.22 679.74C1265.7 673.082 1266.25 665.998 1267.39 659.176C1268.83 650.523 1271.41 642.764 1271.41 633.917C1271.41 620.365 1273.02 607.443 1273.02 593.861C1273.02 587.397 1274.63 581.083 1274.63 574.548C1274.63 567.629 1273.81 561.515 1272.4 554.788C1270.93 547.8 1266.2 545.72 1260.95 540.93C1256.66 537.009 1249.45 537.711 1244.05 537.711C1239.83 537.711 1236.27 539.02 1233.68 542.271C1230.15 546.708 1227.62 548.446 1222.51 549.96C1219.31 550.908 1215.68 550.693 1212.67 552.195" stroke="#060606" stroke-width="5" stroke-linecap="round"/>
<path d="M1212.67 681.752C1212.67 678.487 1218.4 676.931 1219.06 673.258C1220.14 667.352 1220.72 661.631 1220.72 655.6C1220.72 643.843 1214.28 634.036 1214.28 622.205C1214.28 615.085 1218.92 609.368 1222.95 604.323C1225.43 601.231 1225.04 597.078 1226.17 593.415C1227.88 587.871 1237.5 584.592 1238.42 592.431C1238.87 596.245 1240.84 599.538 1240.84 603.697" stroke="#060606" stroke-width="5" stroke-linecap="round"/>
<path d="M1217.5 701.869C1217.5 703.502 1217.91 704.718 1218.35 706.25C1219.04 708.665 1220.07 704.334 1220.09 704.283C1221.84 700.343 1223.42 697.667 1226.75 695.074C1232.9 690.293 1236.43 683.969 1241.64 678.175C1244.11 675.434 1245.2 670.006 1246.51 666.731C1248.13 662.681 1249.69 659.629 1249.69 655.376C1249.69 647.704 1251.46 638.023 1249.24 630.743C1247.68 625.624 1237.4 624.555 1233.15 621.846C1230.49 620.159 1225.47 619.79 1222.33 619.79" stroke="#060606" stroke-width="5" stroke-linecap="round"/>
</svg>
