<svg width="1920" height="1067" viewBox="0 0 1920 1067" fill="none" xmlns="http://www.w3.org/2000/svg">
<g clip-path="url(#clip0_26_3)">
<path d="M993.795 1063.82C978.131 1063.82 962.851 1065.26 947.975 1060.71C934.731 1056.66 931.856 1044.19 921.153 1037.06C914.804 1032.82 907.134 1034.48 900.789 1030.04C896.182 1026.82 891.239 1022.75 888.185 1018C883.049 1010.01 873.559 1003.61 865.275 999.246C850.683 991.565 840.305 978.983 829.513 966.65C820.394 956.229 812.483 944.357 800.456 937.283C795.79 934.538 790.297 926.649 787.915 921.885C783.529 913.115 779.441 903.983 774.318 895.312C772.395 892.058 769.69 888.742 768.295 885.254C767.068 882.186 767.461 879.829 766.867 876.562C765.921 871.36 763.946 864.014 761.59 859.302C755.273 846.669 751.931 833.999 748.986 820.746C746.441 809.293 747.199 797.875 743.46 786.66" stroke="#060606" stroke-width="5" stroke-linecap="round"/>
<path d="M741.804 787.211C741.804 767.946 740.849 748.672 740.849 729.534C740.849 724.811 740.495 719.369 739.151 714.836C737.993 710.927 739.115 707.161 737.56 703.163C733.515 692.762 733.209 682.512 733.209 671.432C733.209 657.094 731.141 642.076 730.343 627.71C729.839 618.627 726.523 610.212 726.523 600.967C726.523 588.113 725.568 575.708 725.568 562.764" stroke="#060606" stroke-width="5" stroke-linecap="round"/>
<path d="M722.703 565.629C722.703 561.808 722.703 557.988 722.703 554.168C722.703 542.963 728.52 531.068 731.511 520.103C733.412 513.132 736.238 506.942 738.727 500.47C739.507 498.442 740.849 496.175 740.849 493.997C740.849 487.948 740.849 481.899 740.849 475.85C740.849 469.65 742.383 464.479 742.76 458.446C743.522 446.252 747.437 434.248 750.294 422.471C752.469 413.508 752.132 402.818 752.311 393.606C752.498 383.929 754.527 372.713 757.298 363.361C758.492 359.333 758.649 353.163 760.906 349.777" stroke="#060606" stroke-width="5" stroke-linecap="round"/>
<path d="M759.951 349.777C761.549 349.486 769.926 346.86 770.457 345.797C775.057 336.598 785.087 332.594 793.698 328.022C796.796 326.377 799.819 324.308 803.408 324.042C806.439 323.818 808.908 324.089 811.792 322.875C821.932 318.606 832.506 314.564 843.363 312.528C846.42 311.955 849.77 312.107 852.755 311.361C858.036 310.04 862.794 306.051 867.505 303.455C876.379 298.565 884.993 298.197 894.407 295.549C910.19 291.11 924.324 282.211 940.676 278.941C955.881 275.9 971.92 277.19 987.37 277.19C1000.92 277.19 1013.51 280.074 1026.85 281.965C1037.86 283.526 1048.57 282.319 1059.48 283.61C1087.03 286.869 1116.72 292.609 1143.16 301.916C1157.96 307.129 1171.05 315.889 1185.39 321.973C1188.35 323.229 1191.28 322.967 1194.41 323.034C1200.91 323.174 1207.33 324.337 1213.51 326.324C1223.62 329.571 1234.45 331.47 1243.12 337.732C1248.91 341.915 1253.9 347.384 1259.47 351.899C1261.17 353.279 1264.27 356.514 1265.2 358.373" stroke="#060606" stroke-width="5" stroke-linecap="round"/>
<path d="M1269.97 366.014C1269.97 379.621 1268.93 393.97 1274 406.87C1279.17 419.991 1283.32 433.508 1290.56 445.233C1296.12 454.244 1303.34 462.141 1309.02 471.074C1311.1 474.333 1310.99 478.566 1312.95 482.005C1314.13 484.07 1314.44 485.219 1315.87 486.886C1318.42 489.857 1319.64 489.875 1319.64 493.996C1319.64 516.909 1315.82 539.896 1315.82 562.763" stroke="#060606" stroke-width="5" stroke-linecap="round"/>
<path d="M1314.37 563.428C1319.99 563.428 1325.2 564.002 1330.66 562.717C1334.28 561.865 1338.85 558.141 1341.42 555.576C1344.4 552.593 1348.62 549.21 1352.76 548.176C1356.85 547.153 1362.1 547.424 1366.2 547.788C1370.96 548.212 1379.79 550.942 1380.13 556.157C1380.41 560.547 1382.38 565.221 1383.59 569.438C1384.5 572.63 1386.09 575.647 1387.08 578.842C1388.17 582.408 1389.4 586.163 1389.4 589.86C1389.4 604.832 1390.66 619.811 1386.49 634.389" stroke="#060606" stroke-width="5" stroke-linecap="round"/>
<path d="M1384.17 633.807C1384.17 641.259 1386.13 649.823 1383.88 657.04C1382.34 661.966 1381.86 667.149 1380.22 672.066C1379.6 673.946 1378.8 675.775 1378.29 677.689C1376.21 685.459 1373.38 693.006 1371.24 700.696C1369.24 707.897 1367.55 714.878 1364.97 721.958C1361.61 731.201 1356.72 740.346 1355.08 750.136" stroke="#060606" stroke-width="5" stroke-linecap="round"/>
<path d="M1355.67 751.881C1355.67 759.224 1350.66 764.069 1344.74 768.167C1339.76 771.619 1335.91 776.318 1329.56 777.473C1327.11 777.918 1324.68 779.102 1322.19 779.671C1319.77 780.224 1316.88 779.8 1314.4 779.8C1310.45 779.8 1308.45 778.02 1305.06 776.892" stroke="#060606" stroke-width="5" stroke-linecap="round"/>
<path d="M1308.55 776.311C1308.55 788.34 1309.13 800.486 1309.13 812.373C1309.13 833.966 1299.36 853.713 1290.65 872.993C1285.9 883.51 1278.95 894.717 1270.88 902.98C1268.02 905.902 1266.18 909.512 1263.96 912.933C1261.02 917.47 1257.45 921.63 1254.01 925.794C1248.58 932.361 1244.95 939.184 1242.12 947.185C1240.84 950.789 1238.27 954.176 1235.98 957.203C1232 962.456 1227.95 967.6 1224.08 972.972C1220.12 978.477 1214.57 983.633 1209.8 988.482C1206.87 991.467 1203.75 993.405 1200.37 995.721C1195.32 999.174 1193.61 1005.9 1188.6 1009.55C1184.66 1012.43 1179.75 1014.99 1176.52 1018.6C1174.4 1020.97 1173.55 1024.48 1170.83 1026.42C1169.09 1027.66 1167.56 1028.8 1166.05 1030.23C1162.98 1033.14 1158.18 1033.71 1155.13 1036.76C1150.68 1041.21 1146.09 1045.52 1141.04 1049.23C1137.55 1051.8 1132.99 1051.95 1129.41 1054.34" stroke="#060606" stroke-width="5" stroke-linecap="round"/>
<path d="M1129.41 1053.17C1125.83 1053.17 1122.25 1053.17 1118.68 1053.17C1116.79 1053.17 1115.83 1054.46 1114.28 1055.37C1110.36 1057.68 1105.6 1059.38 1101.23 1060.99C1097.93 1062.21 1093.41 1061.08 1089.92 1061.45C1085.34 1061.92 1080.83 1063.06 1076.22 1063.06C1071.87 1063.06 1068.57 1064.85 1064.46 1065.97C1059.05 1067.44 1052.54 1067.24 1047.01 1067.13C1043.54 1067.06 1040.34 1065.66 1036.89 1066C1034.52 1066.24 1032.35 1066.55 1029.94 1066.55C1025.01 1066.55 1020.33 1065.97 1015.44 1065.97C1007.25 1065.97 999.131 1063.64 990.974 1063.64" stroke="#060606" stroke-width="5" stroke-linecap="round"/>
<path d="M993.882 933.936C998.175 933.323 1002.33 931.35 1006.61 930.511C1011.68 929.52 1016.66 929.283 1021.8 929.283C1027.82 929.283 1033.25 927.144 1039.25 926.504C1043.98 925.999 1048.79 926.798 1053.5 926.084C1057.31 925.507 1060.93 925.101 1064.71 924.177C1070.4 922.79 1075.91 923.295 1080.81 920.041C1087.25 915.756 1094.57 912.427 1100.74 907.794C1102.2 906.703 1102.65 905.568 1103.62 904.111C1106.07 900.428 1108.8 896.791 1111.67 893.415C1113.65 891.067 1116.27 890.534 1118.35 888.568C1121.53 885.57 1123.32 881.918 1126.24 879.003C1126.56 878.682 1129.02 876.784 1127.08 877.646C1124.87 878.629 1122.59 879.289 1120.39 880.134C1117.56 881.222 1113.35 881.006 1110.34 881.006C1104.29 881.006 1098.23 881.17 1092.18 881.006C1090.16 880.952 1086.87 879.59 1084.88 878.971C1081.35 877.875 1077.41 876.935 1073.7 876.935C1060.95 876.935 1048.23 878.205 1035.57 879.552C1031.43 879.992 1027.25 879.843 1023.09 879.843C1021.59 879.843 1020.08 879.843 1018.57 879.843C1015.77 879.843 1013.84 878.63 1011.27 878.163C1006.21 877.244 1000.32 878.098 995.175 878.098C992.077 878.098 988.802 877.68 985.674 877.484C983.247 877.332 980.842 876.814 978.436 876.482C974.413 875.927 970.383 877.162 966.415 877.646C963.032 878.058 959.602 877.928 956.366 878.647C950.587 879.932 944.417 880.425 938.496 880.425C935.928 880.425 928.655 879.677 930.483 883.333C932.122 886.611 935.378 888.067 937.786 890.668C945.396 898.887 955.033 904.6 963.701 911.704C967.193 914.566 970.83 917.172 974.365 919.977C976.74 921.861 979.354 925.265 982.378 925.922C986.613 926.843 990.569 929.253 994.755 929.897C998.415 930.46 1001.98 930.749 1005.52 929.865" stroke="#060606" stroke-width="5" stroke-linecap="round"/>
<path d="M922.34 868.792C924.202 868.792 926.15 868.974 927.994 868.728C929.757 868.493 930.2 865.762 930.935 864.398C932.706 861.11 937.08 857.502 940.629 856.319C942.03 855.852 943.533 856.321 944.895 855.867C946.16 855.445 947.55 851.05 948.255 849.986C951.81 844.62 958.292 839.701 964.832 838.611C967.317 838.197 969.216 838.405 971.65 837.383C976.084 835.522 980.743 834.113 985.448 833.118C989.262 832.311 992.917 831.267 996.338 829.24C998.561 827.923 1000.82 828.077 1003.32 828.077C1008.68 828.077 1013.7 828.527 1018.76 830.274C1020.65 830.923 1022.56 832.653 1024.58 832.73C1030.12 832.943 1036.33 829.818 1041.84 828.659C1052.7 826.371 1064.71 830.342 1075.12 832.73C1082.85 834.504 1088.56 835.165 1094.05 841.132C1098.75 846.232 1103.47 850.914 1108.72 855.414C1110.78 857.172 1111.89 857.086 1114.61 857.159C1117.75 857.244 1120.95 858.171 1124.04 858.775C1126.56 859.268 1129 860.075 1131.44 860.617C1132.9 860.941 1133.77 861.751 1134.93 862.653C1136.32 863.734 1128.98 866.107 1127.79 866.466C1123.95 867.623 1120.1 868.211 1116.06 868.211C1113.39 868.211 1110.39 869.295 1107.88 868.34C1105.87 867.571 1102.64 868.109 1100.52 867.887C1095.75 867.39 1090.71 866.979 1086.17 865.367C1080.8 863.461 1078.19 863.333 1072.6 863.816C1068.19 864.197 1063.77 864.139 1059.35 864.139C1052.61 864.139 1046.18 866.466 1039.44 866.466C1036.85 866.466 1034.25 866.533 1031.66 866.433C1027.54 866.275 1023.84 864.788 1019.83 864.171C1012.63 863.064 1005 866.466 997.727 866.466C991.156 866.466 984.867 867.207 978.307 867.758C973.101 868.196 968.023 868.211 962.796 868.211C956.69 868.211 949.156 866.85 943.408 869.245C939.878 870.716 934.74 872.864 930.935 872.864C928.49 872.864 919.096 874.186 918.268 871.701" stroke="#060606" stroke-width="5" stroke-linecap="round"/>
<path d="M1091.6 532.019C1085 532.49 1077.38 536.857 1073.44 542.165C1071.18 545.201 1069.46 548.505 1067.04 551.471C1065.53 553.319 1064.31 555.401 1062.52 556.997C1061.5 557.898 1059.82 558.508 1059.06 559.647C1057.51 561.968 1056.12 563.372 1056.12 566.336C1056.12 572.131 1051.1 576.174 1049.2 581.394C1048.17 584.24 1047.39 587.488 1047.39 590.506C1047.39 599.763 1046.88 608.989 1046.81 618.231C1046.7 633.443 1046.48 649.615 1050.3 664.44C1051.55 669.284 1053.07 673.538 1055.99 677.753C1058.02 680.68 1057.73 684.118 1058.74 687.35C1059.52 689.868 1059.39 692.567 1060.19 695.17C1060.8 697.152 1062.1 699.955 1063.36 701.569C1065.11 703.818 1064.72 704.456 1067.82 704.8C1071.25 705.181 1075.17 706.149 1078.22 707.676" stroke="#060606" stroke-width="5" stroke-linecap="round"/>
<path d="M986.903 566.336C986.903 583.351 986.711 600.378 986.903 617.392C987.047 630.23 989.859 643.365 991.426 656.103C991.902 659.965 993.311 665.716 992.557 669.611C991.776 673.65 987.527 677.891 985.19 681.146C981.517 686.262 978.887 691.701 976.174 697.4C973.736 702.524 971.632 704.359 967.32 707.741C961.378 712.401 955.642 717.306 949.774 722.056C945.802 725.271 941.621 728.093 939.208 732.719C937.229 736.512 934.054 739.004 931.064 741.993" stroke="#060606" stroke-width="5" stroke-linecap="round"/>
<path d="M1075.89 706.513C1080.66 706.513 1086.06 706.874 1090.56 708.581C1092.63 709.362 1094.57 712.181 1096.25 713.622C1098.34 715.409 1099.93 717.558 1101.78 719.567C1104.45 722.476 1106.37 725.366 1107.89 729.068C1108.43 730.403 1109.02 731.672 1109.63 732.978C1110.51 734.854 1112.39 735.846 1113.25 737.728C1115.05 741.666 1114.67 747.311 1113.41 751.332C1112.68 753.68 1112.89 759.712 1110.21 760.606" stroke="#060606" stroke-width="5" stroke-linecap="round"/>
<path d="M1098.58 762.351C1097.95 767.37 1088.33 758.881 1086.95 758.15C1083.99 756.594 1080.68 755.771 1077.45 754.918C1073.03 753.756 1071.01 754.208 1067.43 756.857C1064.88 758.74 1062.14 760.323 1059.61 762.221C1057.95 763.464 1056.28 765.571 1054.37 766.39C1050.11 768.218 1045.56 771.333 1042.74 774.856C1040.05 778.222 1034.9 779.061 1030.66 779.218C1025.52 779.408 1020.45 778.781 1015.4 778.637C1010.46 778.496 1008.35 774.367 1004.35 772.368C1002.21 771.299 997.736 770.9 996.532 769.007C994.826 766.327 989.178 765.803 986.062 764.386C984.458 763.657 982.783 763.082 981.344 762.027C977.66 759.325 973.562 761.447 969.518 762.609C962.301 764.682 949.104 762.897 946.769 772.239" stroke="#060606" stroke-width="5" stroke-linecap="round"/>
<path d="M1088.11 591.346C1088.11 585.511 1089.29 581.731 1093.96 578.227C1096.58 576.262 1098.09 573.32 1100.45 571.118C1101.56 570.088 1103.24 570.061 1103.78 568.533C1104.69 565.999 1105.62 564.227 1107.5 562.199C1111.6 557.776 1116.52 554.202 1121.39 550.695C1123.5 549.179 1124.6 549.399 1127.4 549.758C1130.69 550.18 1134 550.29 1137.29 550.76C1140.44 551.21 1142.89 552.376 1146.14 552.376C1149.39 552.376 1152.62 552.13 1155.77 552.99C1161.43 554.533 1167.37 553.915 1173.13 554.993C1177.41 555.796 1181.63 556.347 1185.83 557.481C1188.27 558.143 1189.52 559.692 1191.64 560.842C1194.26 562.261 1195.25 564.798 1197.17 566.335C1198.07 567.054 1198.22 570.051 1199.07 571.118C1200.01 572.292 1198.63 575.768 1198.01 576.708C1196.43 579.071 1192.87 580.758 1190.45 582.04C1188.75 582.937 1185.93 584.807 1183.95 584.948C1181.32 585.136 1178.84 585.217 1176.33 586.24C1172.51 587.788 1168.91 588.783 1164.72 588.987C1162.04 589.118 1159.91 590.074 1157.23 590.215C1153.29 590.422 1148.91 591.424 1145.11 592.509C1140.44 593.845 1135.02 593.17 1130.18 593.091C1121.81 592.954 1112.88 589.641 1105.56 585.982C1102.53 584.466 1093.93 585.742 1093.93 580.295" stroke="#060606" stroke-width="5" stroke-linecap="round"/>
<path d="M1110.21 568.662C1112.9 568.906 1116.52 569.682 1118.81 571.118C1119.97 571.848 1119.91 573.21 1121.39 573.315C1122.98 573.429 1124.26 574.029 1125.79 574.349C1128.84 574.988 1133.26 575.819 1136.35 574.737C1138.97 573.82 1141.49 570.852 1143.07 568.662C1144.25 567.03 1146.17 566.064 1147.15 564.3C1148.95 561.055 1148.6 554.685 1148.6 551.213" stroke="#060606" stroke-width="5" stroke-linecap="round"/>
<path d="M1126.5 559.938C1126.5 562.59 1133.67 566.84 1135.67 563.428C1136.5 562.024 1137.26 558.161 1134.93 557.643C1132.89 557.189 1130.34 557.611 1128.24 557.611" stroke="#060606" stroke-width="5" stroke-linecap="round"/>
<path d="M1078.8 575.642C1079.36 572.571 1082.11 570.078 1084.17 567.952C1088.64 563.327 1093.5 558.023 1096.96 552.57C1102.38 544.04 1109.71 534.074 1120.23 531.696C1124.64 530.698 1130.2 531.301 1134.58 532.148C1138.85 532.977 1143.52 533.232 1147.7 534.475C1153.52 536.211 1159.08 539.639 1164.82 541.778C1170.9 544.043 1176.69 547.231 1182.79 549.339C1186.33 550.565 1190.39 550.05 1194.1 550.05C1200.31 550.05 1205.05 552 1206.18 558.775" stroke="#060606" stroke-width="5" stroke-linecap="round"/>
<path d="M1250.97 529.692C1250.97 532.52 1251.67 538.648 1248.64 540.162" stroke="#060606" stroke-width="5" stroke-linecap="round"/>
<path d="M1248.64 523.294C1248.64 527.37 1248.11 533.943 1243.41 535.509" stroke="#060606" stroke-width="5" stroke-linecap="round"/>
<path d="M1243.99 518.641C1243.99 520.636 1245.08 525.138 1242.83 526.331C1241.74 526.905 1239.17 528.274 1238.76 529.11" stroke="#060606" stroke-width="5" stroke-linecap="round"/>
<path d="M1239.34 510.498C1239.34 515.453 1239.89 518.668 1236.43 522.131C1234.64 523.919 1232.3 525.727 1231.19 527.947" stroke="#060606" stroke-width="5" stroke-linecap="round"/>
<path d="M1234.1 500.609C1234.1 504.602 1234.94 509.639 1232.94 513.147C1231.3 516.014 1228.82 521.281 1225.96 522.712" stroke="#060606" stroke-width="5" stroke-linecap="round"/>
<path d="M1226.54 500.609C1226.54 507.374 1227.5 516.576 1219.56 519.222" stroke="#060606" stroke-width="5" stroke-linecap="round"/>
<path d="M1220.14 494.793C1220.14 501.033 1221.06 510.164 1216.07 515.151" stroke="#060606" stroke-width="5" stroke-linecap="round"/>
<path d="M1210.25 494.212C1210.25 496.482 1212.23 511.08 1208.51 511.08" stroke="#060606" stroke-width="5" stroke-linecap="round"/>
<path d="M1199.2 484.905C1199.2 491.421 1200.71 501.894 1198.62 508.171" stroke="#060606" stroke-width="5" stroke-linecap="round"/>
<path d="M1188.73 486.068C1188.73 492.559 1189.43 499.471 1188.15 505.844" stroke="#060606" stroke-width="5" stroke-linecap="round"/>
<path d="M1174.77 484.323V501.773" stroke="#060606" stroke-width="5" stroke-linecap="round"/>
<path d="M1164.3 479.67C1164.3 486.191 1165.64 494.952 1163.14 501.191" stroke="#060606" stroke-width="5" stroke-linecap="round"/>
<path d="M1152.67 480.252C1152.67 483.281 1154.52 499.686 1151.51 501.191" stroke="#060606" stroke-width="5" stroke-linecap="round"/>
<path d="M1143.95 482.578C1143.95 490.197 1144.45 496.121 1141.04 502.936" stroke="#060606" stroke-width="5" stroke-linecap="round"/>
<path d="M1128.82 483.16C1128.82 489.537 1130.29 497.946 1128.24 504.099" stroke="#060606" stroke-width="5" stroke-linecap="round"/>
<path d="M1113.7 481.415C1113.7 490.127 1114.84 500.149 1113.12 508.752" stroke="#060606" stroke-width="5" stroke-linecap="round"/>
<path d="M1099.16 483.742C1099.16 490.743 1099.16 497.745 1099.16 504.746C1099.16 507.548 1098.77 511.282 1098 513.988" stroke="#060606" stroke-width="5" stroke-linecap="round"/>
<path d="M1081.13 491.304V518.059" stroke="#060606" stroke-width="5" stroke-linecap="round"/>
<path d="M1087.53 485.486C1087.53 498.057 1086.99 510.631 1091.02 522.712" stroke="#060606" stroke-width="5" stroke-linecap="round"/>
<path d="M1085.69 609.465C1085.86 611.435 1086.88 613.569 1088.31 614.927C1091.89 618.334 1094.9 622.108 1098.19 625.816C1102.16 630.289 1106.33 633.994 1110.91 637.782C1114.87 641.056 1119.49 643.558 1123.53 646.694C1124.69 647.6 1127.08 651.302 1127.08 652.804" stroke="#060606" stroke-width="5" stroke-linecap="round"/>
<path d="M951.788 602.996C951.658 607.808 950.252 611.781 947.404 615.646C944.143 620.071 942.725 625.372 939.283 629.732C934.491 635.802 926.812 638.969 921.387 644.394" stroke="#060606" stroke-width="5" stroke-linecap="round"/>
<path d="M926.561 580.356C926.561 585.362 916.186 589.278 912.295 591.029C906.91 593.453 900.772 592.646 895.01 592.646C887.152 592.646 879.444 592.766 871.723 591.029C869.106 590.44 866.469 588.905 863.817 588.765C857.157 588.415 839.582 587.343 838.59 578.416C838.307 575.869 837.294 573.806 838.662 571.264C840.649 567.575 843.848 564.244 846.64 561.166C848.954 558.616 851.905 554.566 855.768 554.482C870.847 554.155 886.113 557.644 900.544 561.095C904.7 562.089 909.815 563.236 913.265 565.766C915.645 567.512 918.008 567.957 920.74 569.36C923.976 571.022 926.561 573.357 926.561 577.122" stroke="#060606" stroke-width="5" stroke-linecap="round"/>
<path d="M882.576 561.598C882.576 563.019 883.025 565.438 882.432 566.772C881.592 568.662 879.877 569.601 878.838 571.3C877.662 573.225 873.493 575.184 871.579 576.619C867.732 579.504 862.241 581.531 857.493 581.65C853.458 581.751 850.737 582.162 848.293 578.559C847.257 577.033 845.811 574.483 845.706 572.594C845.486 568.637 847.143 567.117 849.587 564.185" stroke="#060606" stroke-width="5" stroke-linecap="round"/>
<path d="M866.405 559.011C866.405 562 866.522 564.397 868.022 567.097C868.583 568.106 871.383 571.857 872.73 570.511C876.964 566.276 873.503 558.364 867.698 558.364" stroke="#060606" stroke-width="5" stroke-linecap="round"/>
<path d="M815.951 579.709C816.554 572.468 824.411 571.613 828.6 567.204C831.118 564.553 831.719 561.533 835.069 559.657C836.867 558.65 839.473 558.231 841.07 557.034C843.165 555.463 844.166 553.595 846.748 552.147C851.043 549.737 854.11 547.893 859.11 547.367C871.082 546.107 882.125 547.509 893.968 549.559C901.188 550.809 908.652 549.827 915.924 551.248C922.214 552.477 924.715 553.803 929.149 558.364C932.961 562.284 937.1 566.504 939.498 571.3" stroke="#060606" stroke-width="5" stroke-linecap="round"/>
<path d="M969.253 496.913C969.253 503.803 966.987 509.45 964.402 515.708C963.378 518.186 960.198 522.792 960.198 525.374" stroke="#060606" stroke-width="5" stroke-linecap="round"/>
<path d="M962.138 497.561C962.138 504.889 961.042 511.064 959.515 517.936C959.131 519.663 955.516 526.022 953.729 526.022" stroke="#060606" stroke-width="5" stroke-linecap="round"/>
<path d="M954.376 496.913C954.376 501.899 953.539 505.366 952.076 510.173C951.212 513.012 949.034 519.824 945.967 520.846" stroke="#060606" stroke-width="5" stroke-linecap="round"/>
<path d="M945.967 489.798C945.967 496.652 946.205 503.48 943.02 509.85C941.868 512.155 939.976 517.612 936.911 517.612" stroke="#060606" stroke-width="5" stroke-linecap="round"/>
<path d="M938.205 485.271C938.205 492.436 936.523 499.383 933.677 505.826C932.161 509.256 929.019 512.181 927.855 515.672" stroke="#060606" stroke-width="5" stroke-linecap="round"/>
<path d="M927.855 485.917C927.682 489.554 928.304 497.366 925.483 500.291C923.953 501.878 921.53 502.947 919.769 504.316C916.783 506.639 917.445 510.912 915.565 513.731" stroke="#060606" stroke-width="5" stroke-linecap="round"/>
<path d="M914.271 480.096C914.271 489.129 914.025 497.545 912.69 506.509C912.405 508.424 911.794 511.754 909.743 512.438" stroke="#060606" stroke-width="5" stroke-linecap="round"/>
<path d="M903.922 480.742C903.922 489.896 904.945 500.688 900.688 509.203" stroke="#060606" stroke-width="5" stroke-linecap="round"/>
<path d="M896.806 478.155C896.806 481.677 896.806 485.199 896.806 488.72C896.806 491.152 897.75 495.8 896.447 497.848C894.231 501.331 891.997 505.157 890.985 509.204" stroke="#060606" stroke-width="5" stroke-linecap="round"/>
<path d="M883.223 479.448V504.675" stroke="#060606" stroke-width="5" stroke-linecap="round"/>
<path d="M870.933 477.508V508.556" stroke="#060606" stroke-width="5" stroke-linecap="round"/>
<path d="M856.055 479.448V509.85" stroke="#060606" stroke-width="5" stroke-linecap="round"/>
<path d="M863.17 478.802V509.85" stroke="#060606" stroke-width="5" stroke-linecap="round"/>
<path d="M843.765 477.508V513.731" stroke="#060606" stroke-width="5" stroke-linecap="round"/>
<path d="M847.646 479.448V511.144" stroke="#060606" stroke-width="5" stroke-linecap="round"/>
<path d="M832.769 480.096V515.672" stroke="#060606" stroke-width="5" stroke-linecap="round"/>
<path d="M819.185 486.563C819.185 494.599 818.122 502.787 819.329 510.784C819.783 513.795 820.479 516.507 820.479 519.553" stroke="#060606" stroke-width="5" stroke-linecap="round"/>
<path d="M810.129 502.735V529.903" stroke="#060606" stroke-width="5" stroke-linecap="round"/>
<path d="M801.073 511.791C801.073 520.39 801.72 529.227 801.72 537.665" stroke="#060606" stroke-width="5" stroke-linecap="round"/>
<path d="M792.018 527.962V547.367" stroke="#060606" stroke-width="5" stroke-linecap="round"/>
<path d="M783.608 548.661V557.717" stroke="#060606" stroke-width="5" stroke-linecap="round"/>
<path d="M737.392 788.349C733.038 788.349 728.339 790.647 724.195 788.575C719.749 786.351 717.591 781.314 713.592 780.171C710.747 779.358 704.547 773.692 703.102 771.091C699.842 765.223 697.295 758.914 694.247 752.818C691.966 748.255 686.929 741.603 686.634 736.575C686.442 733.321 683.874 728.893 683.137 725.521C681.65 718.726 678.697 713.001 675.918 706.684C673.657 701.546 669.869 697.488 668.022 692.02C666.905 688.714 667.345 684.978 667.345 681.53C667.345 675.388 667.381 669.898 665.766 663.877C662.495 651.686 659.224 641.321 659.224 628.515C659.224 619.615 655.163 611.55 655.163 602.572C655.163 595.654 655.163 588.735 655.163 581.817C655.163 575.317 656.601 573.295 662.269 570.312C673.735 564.277 680.496 561.965 693.74 561.965C699.26 561.965 706.715 565.902 711.505 568.563C715.777 570.937 719.354 568.762 721.149 574.147" stroke="#060606" stroke-width="5" stroke-linecap="round"/>
<path d="M718.104 629.982C717.439 622.663 711.967 615.484 708.46 609.171C703.87 600.909 698.372 593.134 693.74 584.863C690.142 578.438 688.72 577.688 682.065 579.167C674.252 580.903 670.677 585.904 666.894 592.928C663.102 599.97 663.932 611.17 666.33 618.364C667.507 621.895 669.138 625.64 670.617 628.967C671.295 630.494 670.73 633.706 671.632 634.833C673.853 637.609 674.249 646.645 674.452 650.286C674.652 653.886 676.482 656.831 676.482 660.438" stroke="#060606" stroke-width="5" stroke-linecap="round"/>
<path d="M730.286 725.409C730.286 712.089 715.659 712.595 711.223 702.06C706.809 691.576 705.922 677.28 705.922 665.964C705.922 659.748 703.369 642.781 714.551 645.266C716.278 645.65 719.635 650.313 720.078 651.865C721.174 655.7 721.15 659.933 721.15 663.99C721.15 668.812 718.492 670.441 717.089 674.65" stroke="#060606" stroke-width="5" stroke-linecap="round"/>
<path d="M717.316 558.202C717.316 552.89 714.816 546.106 713.042 540.98C711.232 535.751 707.134 529.17 707.134 523.696C707.134 517.933 706.003 512.163 706.003 506.161C706.003 502.341 700.764 499.4 698.963 495.979C697.464 493.129 695.821 489.698 695.821 486.362C695.821 482.844 694.689 479.337 694.689 475.677C694.689 473.142 695.324 469.516 694.187 467.192C689.457 457.529 682.995 448.692 680.862 438.029C679.825 432.846 679.982 427.701 679.982 422.442C679.982 420.402 681.335 417.723 681.051 416.157C680.424 412.713 678.363 409.739 676.588 406.855C673.293 401.501 669.51 394.617 670.994 387.936C671.464 385.821 675.011 385.819 675.394 384.479C676.313 381.263 673.242 377.063 672.314 374.046C670.873 369.362 670.931 364.609 670.931 359.653C670.931 354.129 667.743 349.47 667.537 344.128C667.403 340.622 667.033 336.297 668.417 333.067C669.182 331.282 672.348 329.184 671.937 327.85C669.345 319.425 664.859 311.983 662.761 303.4C660.52 294.233 655.744 282.421 658.55 272.603C659.867 267.993 654.094 251.24 664.395 261.541C666.044 263.191 668.29 265.789 670.051 267.198C672.454 269.12 672.063 259.854 672.063 259.467C672.063 253.287 672.063 247.106 672.063 240.926C672.063 237.673 670.515 235.88 669.863 232.944C669.021 229.156 667.616 224.468 668.732 220.562C668.883 220.03 673.397 217.893 674.325 216.036C677.142 210.404 673.013 191.65 681.742 191.65C684.361 191.65 686.98 191.65 689.598 191.65C691.884 191.65 693.61 183.607 694.438 181.468C697.709 173.017 698.537 157.245 711.094 160.035C712.033 160.244 715.576 163.517 716.122 161.607C717.472 156.882 719.643 152.653 721.213 148.031C722.63 143.857 724.282 137.774 726.618 133.952C729.363 129.46 734.711 135.238 737.052 136.089C739.245 136.887 740.712 126.815 741.577 124.838C742.898 121.819 744.247 119.868 745.851 116.982C749.033 111.253 758.296 106.613 762.569 114.091C764.685 117.793 765.629 112.181 765.963 110.76C767.448 104.449 771.293 99.3208 773.631 93.4753C776.465 86.3922 782.931 91.4628 786.893 93.2239C789.889 94.5556 789.721 95.8522 789.721 92.0297C789.721 89.0921 789.959 84.6298 791.104 81.9106C793.187 76.9627 792.634 66.7606 797.075 63.3064C804.265 57.7144 816.013 70.0721 816.873 77.3852C818.113 87.9217 842.705 69.9061 844.025 69.4659" stroke="#060606" stroke-width="5" stroke-linecap="round"/>
<path d="M1349.88 292.542C1361.76 292.542 1369.93 315.575 1369.93 325.69C1369.93 332.052 1366.7 334.292 1371.47 338.795C1373.33 340.555 1380.18 348.478 1376.86 351.13C1369.02 357.408 1363.57 357.561 1360.76 367.404C1357.9 377.404 1352.97 387.672 1352.97 398.24C1352.97 404.378 1352.97 410.517 1352.97 416.655C1352.97 421.378 1350.11 424.091 1349.88 428.219C1349.59 433.538 1344.77 439.179 1343.8 444.493C1342.28 452.861 1343.72 462.508 1343.72 471.046C1343.72 476.762 1344.66 483.53 1343.63 489.205C1342.48 495.555 1330.04 494.2 1329.84 497.599C1329.2 508.445 1320.59 518.318 1320.59 528.435" stroke="#060606" stroke-width="5" stroke-linecap="round"/>
<path d="M1321.22 644.829C1321.22 643.235 1320.85 641.056 1321.36 639.528C1322.17 637.086 1324.08 634.773 1325.15 632.416C1327.17 627.976 1331.52 627.098 1336.02 628.827C1344.58 632.118 1359.28 636.302 1361.65 646.942C1362.47 650.623 1362.79 654.505 1363.79 658.113C1364.56 660.885 1365.41 663.785 1365.77 666.634C1366.08 669.002 1366.97 674.567 1365 676.53C1362.76 678.772 1361.61 682.435 1360 685.152C1358.45 687.774 1357.19 690.657 1355.94 693.405C1354.48 696.637 1348.3 695.552 1345.44 695.552C1343.49 695.552 1341.45 695.323 1340.61 697.631C1339.22 701.457 1337.25 705.027 1334.37 708.098C1330.75 711.973 1327.58 712.459 1322.43 712.459C1318.42 712.459 1316.6 707.694 1316.39 704.005C1316.31 702.473 1315.45 701.172 1315.82 699.477C1316.01 698.642 1316.82 698.104 1317.6 697.967C1318.45 697.817 1318.34 695.689 1318.67 694.948C1321.48 688.701 1323.89 682.353 1326.79 676.229C1328.16 673.344 1327.26 668.497 1327.26 665.359C1327.26 661.112 1324.9 657.893 1323.03 654.155C1320.54 649.166 1318.2 644.475 1318.2 638.79" stroke="#060606" stroke-width="5" stroke-linecap="round"/>
<path d="M1331.49 611.617C1334.31 611.617 1337.12 611.617 1339.94 611.617C1341.6 611.617 1343.45 611.389 1345.04 611.919C1346.16 612.291 1347.49 613.061 1348.7 612.791C1350.78 612.328 1349.48 604.585 1349.13 603.163C1348.47 600.43 1347.17 597.701 1345.98 595.313" stroke="#060606" stroke-width="5" stroke-linecap="round"/>
<path d="M1364.7 582.029C1364.7 596.541 1365.06 610.811 1368.19 624.902C1369.02 628.661 1369.63 631.861 1371.04 635.47C1371.93 637.737 1373.76 640.253 1373.76 642.716C1373.76 647.424 1374.36 652.59 1374.36 657.51" stroke="#060606" stroke-width="5" stroke-linecap="round"/>
<path d="M1379.8 643.017C1379.8 632.606 1379.84 622.31 1378.59 611.953C1377.34 601.638 1379.9 589.663 1375.57 579.916C1373.77 575.863 1371.48 572.971 1367.12 572.971C1362.95 572.971 1361.98 566.329 1358.06 566.329" stroke="#060606" stroke-width="5" stroke-linecap="round"/>
<path d="M439.395 498.536C441.811 496.986 444.579 495.326 447.281 494.319C458.138 490.266 468.5 495.476 477.524 499.218C479.922 498.907 483.807 498.829 486.009 497.876C490.657 495.863 495.564 487.944 500.32 484.705C506.92 480.208 516.461 478.87 523.474 481.278C527.54 482.672 531.84 485.412 536.084 486.207C539.281 486.805 542.82 485.127 546.006 485.713C548.054 486.092 549.342 487.092 550.159 488.856C551.06 490.805 550.344 492.813 549.378 494.761C548.009 495.799 546.651 496.697 545.009 497.277C535.799 500.522 527.357 496.844 519.689 493.437C506.512 488.381 501.138 503.483 490.281 508.396C480.185 512.964 473.725 511.845 464.639 507.978C460.877 506.376 456.754 504.413 452.243 505.362C446.59 506.552 441.727 513.197 437.613 516.904C434.059 520.104 429.792 522.244 425.14 523.339C421.732 524.141 416.311 524.962 413.542 523.083C411.14 521.454 411.144 519.75 411.103 517.133C411.821 515.8 412.58 514.051 413.851 513.074C416.059 511.375 421.775 512.207 424.514 512.221L439.395 498.536Z" fill="#020103"/>
<path d="M445.014 255.349C447.851 254.916 451.055 254.527 453.933 254.706C465.5 255.42 472.846 264.396 479.566 271.485C481.883 272.178 485.464 273.686 487.863 273.712C492.928 273.764 500.633 268.527 506.295 267.503C514.154 266.081 523.413 268.74 528.841 273.793C531.987 276.721 534.801 280.973 538.354 283.427C541.031 285.273 544.947 285.181 547.619 287.012C549.336 288.192 550.105 289.628 550.134 291.573C550.164 293.72 548.692 295.263 547.018 296.65C545.345 297.04 543.739 297.308 542.003 297.17C532.269 296.387 526.055 289.593 520.436 283.36C510.456 273.381 499.403 284.99 487.486 285.06C476.404 285.125 470.959 281.475 464.232 274.246C461.447 271.252 458.48 267.78 453.973 266.813C448.325 265.599 441.179 269.691 435.912 271.403C431.364 272.881 426.596 273.099 421.9 272.207C418.461 271.553 413.174 270.097 411.409 267.255C409.878 264.788 410.575 263.234 411.603 260.827C412.8 259.901 414.206 258.612 415.764 258.237C418.473 257.583 423.356 260.669 425.852 261.796L445.014 255.349Z" fill="#020103"/>
<path d="M534.198 46.3187C536.716 47.6979 539.498 49.3342 541.675 51.2243C550.431 58.8162 550.816 70.4079 551.85 80.1218C553.271 82.0789 555.199 85.452 557.09 86.93C561.082 90.047 570.384 90.5649 575.504 93.1897C582.612 96.8327 588.353 104.569 589.597 111.879C590.318 116.116 589.971 121.203 591.304 125.31C592.31 128.402 595.477 130.707 596.487 133.785C597.135 135.765 596.874 137.373 595.716 138.936C594.436 140.659 592.33 140.992 590.158 141.077C588.591 140.371 587.153 139.609 585.858 138.445C578.599 131.911 577.788 122.74 577.109 114.376C575.241 100.387 559.409 102.897 549.898 95.716C541.055 89.0382 538.945 82.8307 537.991 73.0029C537.597 68.933 537.347 64.3726 534.354 60.8669C530.604 56.4731 522.442 55.3837 517.218 53.5458C512.707 51.9578 508.786 49.2356 505.598 45.6753C503.262 43.0673 499.946 38.6998 500.27 35.3697C500.551 32.4805 502.049 31.6684 504.327 30.3806C505.841 30.3723 507.74 30.2015 509.206 30.8497C511.755 31.9755 513.761 37.3921 515.059 39.8039L534.198 46.3187Z" fill="#020103"/>
<path d="M845.72 67.4416C846.732 58.3317 855.816 63.2969 861.138 60.9318C865.86 58.833 873.666 56.6491 878.868 56.6491C889.305 56.6491 895.423 38.1477 908.248 38.1477C913.147 38.1477 916.18 37.9705 918.869 42.8587C920.646 46.0902 922.292 53.9047 924.693 56.3065C924.869 56.4819 928.088 51.3212 928.976 50.482C931.013 48.5582 934.186 46.7637 936.685 45.514C945.744 40.9846 950.667 33.9028 961.439 31.2097C974.34 27.9845 976.501 43.2397 982.939 50.482C986.404 54.3803 988.966 44.8555 993.731 41.2313C1002.06 34.893 1011.83 32.9949 1020.71 28.2118C1039.55 18.0685 1037.6 50.482 1050.26 50.482C1066.83 50.482 1073.59 40.7428 1088.46 36.7773C1095.49 34.903 1107.37 42.8119 1107.82 50.482C1108.22 57.3073 1117.03 53.8081 1123.58 53.5655C1126.73 53.4489 1132.77 49.907 1135.57 52.709C1139.27 56.4039 1141.63 62.0675 1144.65 66.3281C1146.54 68.9796 1150.25 71.677 1150.91 74.9792C1151.23 76.6088 1151.32 73.619 1151.68 72.9235C1154.23 67.9599 1158.27 63.5871 1162.47 59.9896C1170.21 53.36 1179.9 48.9402 1190.05 48.9402C1197.71 48.9402 1204.96 53.2408 1204.96 62.131C1204.96 68.5551 1204.96 74.9792 1204.96 81.4033C1204.96 92.1472 1210.8 89.0265 1220.37 89.0265C1229.65 89.0265 1240.55 86.0059 1246.24 94.851C1248.63 98.5608 1251.84 102.184 1253.95 105.986C1256.03 109.728 1260.03 102.245 1263.54 99.9047C1276.51 91.2605 1284.19 101.765 1290.44 111.982C1294.79 119.11 1294.38 125.739 1294.38 133.738C1294.38 148.269 1308.56 151.572 1320.59 152.24C1327.34 152.614 1330.58 169.08 1332.58 173.825C1334.74 178.952 1332.32 186.97 1331.72 192.155C1330.66 201.447 1333.54 205.797 1336.69 213.911C1339.34 220.719 1343.89 223.482 1347.14 229.329C1348.62 231.986 1351.33 232.584 1352.62 235.496C1353.4 237.234 1353.77 240.455 1355.28 241.663C1363.54 248.269 1373.01 256.334 1373.01 268.216C1373.01 274.839 1369.21 274.92 1364.53 278.666C1360.56 281.845 1359.27 287.075 1354.51 289.458" stroke="#060606" stroke-width="5" stroke-linecap="round"/>
</g>
<defs>
<clipPath id="clip0_26_3">
<rect width="1920" height="1067" fill="white"/>
</clipPath>
</defs>
</svg>
