<svg width="1920" height="1080" viewBox="0 0 1920 1080" fill="none" xmlns="http://www.w3.org/2000/svg">
<g clip-path="url(#clip0_26_4)">
<path d="M945.04 1060.37C941.143 1060.37 938.107 1059.18 934.516 1057.78C930.088 1056.07 925.507 1055.72 920.929 1054.72C914.886 1053.4 908.733 1051.06 903.707 1047.45C900.151 1044.9 895.522 1044.43 892.513 1041.42C887.562 1036.47 882.134 1034.54 875.721 1031.47C870.087 1028.78 865.507 1024.06 860.269 1020.71C853.996 1016.69 847.916 1013.08 841.66 1008.7C835.858 1004.64 827.913 1001.39 823.242 995.785C819.641 991.464 816.533 987.456 811.569 984.974C806.402 982.39 802.875 976.923 797.887 973.875C794.741 971.953 792.279 966.316 790.042 963.255C788.13 960.639 783.334 958.582 783.153 955.314C783.012 952.773 779.675 948.392 777.986 946.703C773.71 942.426 767.744 938.816 764.208 933.977C759.236 927.173 755.677 920.088 749.57 913.981C743.645 908.056 739.512 900.547 734.261 893.984C733.087 892.516 732.603 888.346 731.917 886.425C730.872 883.498 731.321 880.921 729.764 878.197C726.241 872.031 723.992 865.044 722.828 858.057C722.297 854.876 721.832 851.376 721.105 848.106C720.403 844.945 719.014 841.418 718.618 838.251C717.054 825.743 714.38 813.108 711.633 800.745C710.854 797.239 709.098 793.684 709.098 789.982C709.098 788.681 708.878 787.276 709.528 786.107C710.083 785.108 709.96 784.3 709.863 783.141C709.365 777.165 708.433 771.198 708.237 765.201C707.972 757.119 708.237 748.985 708.237 740.899C708.237 730.149 707.433 721.568 704.792 711.143C702.603 702.5 700.487 695.614 700.487 686.649C700.487 682.343 700.487 678.038 700.487 673.732C700.487 664.183 700.422 652.075 696.181 643.594" stroke="#060606" stroke-width="5" stroke-linecap="round"/>
<path d="M694.459 644.455C694.459 624.729 694.459 605.003 694.459 585.278C694.459 575.375 694.459 565.472 694.459 555.569C694.459 548.357 695.702 541.591 696.229 534.472C697.043 523.482 701.144 513.49 702.735 502.707C703.442 497.919 704.716 494.05 704.792 489.264C704.882 483.595 705.729 476.585 708.045 471.373C709.472 468.163 709.212 463.376 710.389 459.843C711.809 455.583 713.186 450.302 715.221 446.401C717.596 441.849 719.267 436.968 721.823 432.623C722.764 431.024 722.875 430.293 722.875 428.317" stroke="#060606" stroke-width="5" stroke-linecap="round"/>
<path d="M722.875 429.178C722.875 410.662 725.746 392.531 730.243 374.546C731.666 368.854 733.209 362.697 733.209 356.845C733.209 354.55 733.016 348.234 735.792 348.234" stroke="#060606" stroke-width="5" stroke-linecap="round"/>
<path d="M733.209 348.234C736.172 348.234 737.535 347.911 740.385 346.704C750.268 342.516 761.301 338.483 771.863 336.37C777.711 335.201 787.536 337.525 792.051 333.356C799.768 326.233 810.252 321.727 820.324 319.005C829.595 316.499 838.969 316.688 848.119 313.79C860.878 309.749 873.634 306.709 887.012 306.04C891.62 305.81 895.38 304.971 899.689 303.314C910.546 299.138 921.538 295.992 933.081 294.272C942.923 292.805 952.973 292.4 962.55 295.468C967.747 297.133 972.938 300.758 978.528 300.874C991.489 301.141 1003.83 298.291 1016.94 300.108C1028.96 301.773 1040.57 305.87 1052.77 306.04C1073.2 306.326 1091.88 308.766 1111.04 316.374C1117.44 318.915 1125.21 324.246 1132.38 323.741C1146.21 322.765 1160.11 321.162 1174 322.497C1186.04 323.655 1198.9 333.226 1208.16 340.293C1213.09 344.057 1216.95 353.832 1218.06 359.907C1218.46 362.123 1219.76 365.993 1221.84 367.179C1222.96 367.821 1223.84 369.9 1224.42 371.006C1226.64 375.217 1229.46 379.163 1231.79 383.348C1237.53 393.689 1242.73 404.87 1245.57 416.357C1246.65 420.735 1246.51 425.639 1247.91 429.848C1251.37 440.238 1258.34 449.347 1260.11 460.417C1261.53 469.327 1266.23 478.225 1266.23 487.255C1266.23 492.034 1267.84 497.169 1268.82 501.894C1270.64 510.686 1272.26 518.088 1272.26 527.009C1272.26 534.871 1272.26 542.732 1272.26 550.594" stroke="#060606" stroke-width="5" stroke-linecap="round"/>
<path d="M1270.04 556.873C1270.25 561.464 1273.86 564.942 1278.34 564.942C1281.16 564.942 1282.12 563.642 1284.5 562.013C1286.17 560.868 1288.89 558.06 1290.81 557.47C1295.01 556.177 1298.4 556.301 1302.25 553.944C1305.24 552.119 1309.66 552.569 1313.07 552.569C1317.38 552.569 1321.05 550.417 1325.18 550.417C1331.44 550.417 1335.47 554.52 1340.48 557.65C1343.98 559.839 1342.66 564.157 1342.66 567.931C1342.66 570.541 1342.66 573.151 1342.66 575.762C1342.66 579.67 1342.97 582.568 1344.28 586.282C1345.68 590.289 1344.81 593.423 1344.81 597.49C1344.81 607.157 1345.89 616.676 1345.89 626.391C1345.89 633.352 1345.35 640.129 1344.93 647.073C1344.73 650.523 1344.81 653.989 1344.81 657.444C1344.81 660.261 1343.82 662.963 1343.74 665.783C1343.62 669.983 1341.44 675.381 1340.09 679.411C1338.98 682.735 1337.95 686.369 1337.82 689.872C1337.73 692.531 1336.49 696.355 1334.59 698.36C1333.4 699.618 1331.9 701.466 1331.9 703.202" stroke="#060606" stroke-width="5" stroke-linecap="round"/>
<path d="M1331.9 704.277C1331.9 711.735 1329.11 716.386 1325.75 722.808C1324.57 725.052 1323.71 727.156 1322.88 729.562C1322.2 731.494 1322.36 733.636 1321.44 735.48C1320.16 738.04 1317.95 740.065 1316.42 742.474C1313.66 746.819 1310.78 751.159 1308.23 755.624C1304.19 762.696 1298.66 768.97 1291.05 772.301C1288.01 773.631 1283.91 772.174 1280.79 773.557C1279.09 774.316 1269.25 775.344 1268.42 773.676" stroke="#060606" stroke-width="5" stroke-linecap="round"/>
<path d="M1273.26 551.492C1273.26 563.814 1274.88 576.357 1274.88 588.852C1274.88 615.93 1275.28 642.748 1271.23 669.608C1269.55 680.712 1267.63 691.794 1266.27 702.962C1264.73 715.616 1262.97 729.051 1264.66 741.816C1266.92 758.96 1266.06 776.096 1264.69 793.222C1264.19 799.378 1263.8 806.155 1262.47 812.141C1261.98 814.352 1261.29 816.489 1260.65 818.686C1260.12 820.512 1260.06 822.671 1259.28 824.246" stroke="#060606" stroke-width="5" stroke-linecap="round"/>
<path d="M1261.43 821.018C1261.43 829.635 1260.39 837.436 1258.2 845.764C1257.47 848.532 1256.79 850.077 1254.91 852.31C1251.03 856.916 1247.79 862.159 1244.45 867.164C1241.57 871.49 1238.18 875.757 1237.73 881.002C1237.47 883.972 1236.91 887.175 1236.38 890.117C1236.02 892.113 1236.05 894.742 1235.34 896.603C1234.71 898.226 1234.79 899.945 1233.57 901.295C1230.33 904.899 1231.71 911.452 1230.76 915.701" stroke="#060606" stroke-width="5" stroke-linecap="round"/>
<path d="M1230.1 903.747C1230.1 908.271 1227.75 910.605 1225.5 914.144C1222.6 918.696 1221.52 923.767 1217.96 928.113C1211.03 936.589 1206.53 947.143 1200.1 956.05C1196.09 961.612 1193.77 967.859 1190.26 973.669C1187.2 978.738 1182.71 983.213 1179.39 988.193C1172.63 998.33 1162.32 1005.26 1155.06 1014.78C1150.49 1020.78 1143.98 1025.69 1138 1030.18C1130.98 1035.45 1122.58 1037.33 1115.1 1041.77C1109.13 1045.31 1103.92 1052.31 1100.1 1058.04" stroke="#060606" stroke-width="5" stroke-linecap="round"/>
<path d="M1104.1 1057.56C1101.08 1058.65 1099.98 1061.51 1096.61 1061.83C1095.18 1061.97 1093.48 1061.96 1092.5 1063.24C1091.56 1064.48 1089.99 1063.98 1088.54 1064.03C1085.18 1064.14 1081.77 1064.59 1078.42 1064.96C1073.37 1065.51 1069.17 1068.85 1065.02 1071.52C1063.01 1072.81 1060.85 1072.88 1058.72 1074.12C1056.22 1075.58 1053.46 1076.62 1051.03 1078.18C1050.04 1078.82 1049.18 1079.64 1047.98 1079.9C1042.29 1081.09 1036.3 1080.08 1030.56 1079.9C1027.05 1079.79 1024.38 1079.13 1020.97 1078.18C1015.65 1076.7 1011.15 1075.6 1005.51 1075.6C999.398 1075.6 993.426 1074.72 987.278 1075.6" stroke="#060606" stroke-width="5" stroke-linecap="round"/>
<path d="M990.264 1073.51C985.49 1073.51 981.252 1072.67 976.956 1070.52C972.607 1068.34 966.3 1068.26 961.518 1067.39C959.056 1066.94 956.357 1065.82 953.866 1065.73C950.867 1065.62 947.981 1063.93 944.883 1063.93C941.844 1063.93 938.806 1063.93 935.767 1063.93" stroke="#060606" stroke-width="5" stroke-linecap="round"/>
<path d="M706.52 786.121C703.322 786.121 699.485 786.775 696.413 785.983C693.18 785.148 690.796 783.303 687.829 781.898C683.756 779.969 680.862 777.044 677.376 773.799C675.304 771.869 672.439 770.639 671.146 768.053C668.98 763.721 667.386 759.11 666.161 754.346C661.8 737.383 654.06 721.612 648.716 704.988C647.656 701.69 646.674 698.39 645.463 695.019C643.81 690.417 642.751 685.6 641.725 680.828C641.406 679.345 640.522 677.699 640.479 676.19C640.301 669.965 639.321 663.716 637.986 657.637C636.884 652.614 637.39 647.346 636.083 642.442C634.47 636.394 633.625 629.626 633.625 623.37C633.625 618.627 630.483 614.725 629.61 610.113C628.567 604.601 629.873 599.636 630.545 594.261C630.871 591.65 631.904 588.679 632.691 586.161C632.964 585.287 632.632 582.934 633.314 582.388C635.946 580.283 636.637 574.874 638.956 572.42C642.808 568.341 645.155 565.566 650.759 565.566C655.743 565.566 660.727 565.566 665.712 565.566C669.972 565.566 673.486 568.853 677.861 569.339C680.167 569.596 688.804 571.717 689.698 569.928" stroke="#060606" stroke-width="5" stroke-linecap="round"/>
<path d="M684.091 624.755C684.091 621.502 682.938 619.078 680.976 616.517C680.056 615.316 677.026 612.557 676.615 611.221C675.039 606.101 674.306 594.444 667.304 593.569C659.84 592.636 654.595 586.127 647.332 586.127C644.671 586.127 642.929 585.598 641.725 588.307C639.457 593.409 640.748 599.309 640.444 604.783C639.644 619.191 640.479 633.458 640.479 647.807" stroke="#060606" stroke-width="5" stroke-linecap="round"/>
<path d="M697.175 721.325C696.446 718.897 691.879 715.931 690.183 713.849C688.214 711.432 686.434 709.339 684.23 707.134C682.121 705.026 682.878 702.388 682.845 699.519C682.793 694.989 682.222 690.513 682.222 685.951C682.222 676.371 675.533 661.736 682.361 653.138C683.314 651.937 687.829 650.004 687.829 652.791C687.829 654.807 688.452 656.864 688.452 659.022C688.452 663.609 687.206 667.689 687.206 672.106" stroke="#060606" stroke-width="5" stroke-linecap="round"/>
<path d="M673.499 734.409C671.639 732.548 670.27 730.568 669.138 728.179C668.235 726.273 668.139 724.096 666.992 722.294C665.339 719.697 663.159 717.664 661.731 714.887C659.669 710.877 658.816 706.51 656.539 702.634C654.427 699.04 652.076 695.208 651.209 691.073C650.644 688.379 650.995 685.302 650.759 682.558C649.529 668.291 648.578 654.038 648.578 639.707C648.578 634.536 647.83 629.477 650.447 624.824C651.283 623.338 652.433 622.074 653.285 620.601C655.382 616.979 654.808 612.565 654.808 608.556" stroke="#060606" stroke-width="5" stroke-linecap="round"/>
<path d="M687.609 564.097C687.609 555.398 687.326 546.66 684.903 538.231C683.933 534.853 682.671 531.307 681.919 527.924C681.01 523.836 680.901 520.717 677.223 517.856C671.657 513.527 670.141 508.964 669.383 501.819C668.579 494.237 667.867 489.076 663.971 482.121C663.185 480.716 662.488 479.074 661.464 477.823C659.563 475.499 660.351 471.561 660.072 468.75C659.495 462.946 658.241 457.11 658.241 451.28C658.241 444.974 658.24 440.035 656.092 434.129C654.329 429.28 649.589 425.702 648.969 420.121C648.786 418.475 648.478 415.704 649.645 414.391C651.148 412.7 650.362 409.009 650.362 406.909C650.362 398.75 648.215 389.918 645.706 382.197C642.956 373.738 641.163 365.136 640.493 356.251C639.817 347.303 638.491 338.601 637.628 329.708C637.295 326.286 638.245 325.834 638.861 323.062C639.179 321.632 640.837 321.015 640.731 319.362C640.485 315.494 637.406 312.075 635.479 308.935C633.18 305.19 631.574 301.079 629.987 296.997C629.175 294.908 628.873 293.45 628.873 291.187C628.873 287.856 633.693 286.246 633.171 282.592C632.258 276.205 616.594 260.888 630.305 257.362C634.977 256.161 639.708 258.681 643.835 260.744C645.938 261.796 646.78 262.417 646.78 259.67C646.78 253.917 641.777 248.586 640.174 243.195C639.455 240.775 636.665 229.271 640.334 227.437" stroke="#060606" stroke-width="5" stroke-linecap="round"/>
<path d="M638.185 226.721C638.185 218.835 640.828 213.098 643.358 205.789C644.59 202.229 647.455 200.142 648.77 196.795C650.296 192.912 654.558 191.082 658.241 190.03C661.34 189.145 663.12 188.826 663.255 185.414C663.434 180.883 665.385 175.717 667.553 171.725C670.462 166.366 670.332 161.469 676.865 159.548C680.573 158.457 683.546 156.186 687.291 155.25C690.9 154.347 689.231 152.64 690.474 149.201C691.267 147.01 692.108 144.948 692.783 142.754C693.839 139.32 694.847 137.409 697.478 134.875C698.723 133.677 700.814 130.839 702.652 130.736C704.355 130.642 708.332 130.971 708.382 128.826C708.563 121.048 707.074 110.68 717.694 110.68C721.874 110.68 723.42 113.666 727.165 114.819C728.636 115.271 730.489 114.978 732.02 114.978C734.316 114.978 734.092 112.525 734.885 110.839C737.064 106.208 733.584 99.5926 735.76 95.2398C737.474 91.813 743.333 95.6569 744.913 97.0704C745.764 97.8312 746.618 98.5674 747.778 98.503C748.517 98.4619 751.895 97.2648 752.474 96.9112C753.701 96.1616 753.764 92.4431 755.658 91.1808C760.326 88.0686 749.342 78.8439 748.097 75.661C745.853 69.9264 750.537 69.851 754.941 69.851C759.509 69.851 765.189 69.7929 769.267 67.8613C773.778 65.7246 779.087 70.2803 781.842 73.1141C783.385 74.7011 784.282 78.1285 786.697 78.367C790.301 78.7229 796.182 76.597 799.75 75.8997C803.518 75.1634 807.42 75.3161 811.131 74.5467C816.193 73.4974 815.308 69.1703 817.259 64.9961C819.411 60.3942 823.38 56.879 828.322 55.525C831.258 54.7208 834.122 54.1458 836.958 52.9782C838.903 52.1772 841.186 50.5682 843.365 50.5109C846.768 50.4213 852.094 51.8071 855.382 52.819C857.409 53.4426 859.723 54.7307 861.829 54.8087C864.481 54.9069 864.858 53.1811 866.525 51.3864C869.93 47.7193 871.943 43.2989 876.712 41.0398C879.186 39.868 882.601 40.4827 885.308 40.4827C888.805 40.4827 891.938 39.9363 895.336 39.7664C898.125 39.627 899.656 36.9679 902.658 36.9012C904.494 36.8604 909.362 35.085 910.935 36.3441C911.859 37.0832 911.921 37.6175 913.244 37.6175C914.979 37.6175 916.553 38.4235 918.258 38.3338C921.133 38.1825 922.512 36.5726 925.819 37.2196C930.883 38.2105 931.032 39.5524 933.141 43.3479C933.583 44.1441 934.036 45.1484 934.733 45.4968" stroke="#060606" stroke-width="5" stroke-linecap="round"/>
<path d="M934.016 47.6452C936.058 47.6452 948.126 49.1353 949.218 46.7697C950.379 44.2532 952.486 42.0686 954.431 40.1241C958.156 36.3987 965.057 38.512 969.99 37.4578C977.826 35.7836 987.497 33.1064 995.618 34.911C1001.47 36.2115 1003.9 43.887 1005.65 48.6799C1008.08 55.3674 1022.41 48.4143 1024.75 45.4167C1029.04 39.9212 1034.33 37.6826 1040.74 35.4681C1043.79 34.4153 1047.63 34.9274 1050.37 33.6774C1056.36 30.9575 1057.46 36.6776 1056.11 41.5169C1055.49 43.6999 1054 45.5792 1053.08 47.6452C1052.06 49.9486 1053.14 53.9918 1053.64 56.2408" stroke="#060606" stroke-width="5" stroke-linecap="round"/>
<path d="M1054.35 50.5107C1054.35 54.854 1063.57 50.5107 1065.82 50.5107C1070.81 50.5107 1076.11 52.9034 1079.27 56.9574C1080.64 58.7238 1080.08 59.1063 1082.45 59.1063C1084.89 59.1063 1087.33 59.1063 1089.77 59.1063C1092.51 59.1063 1095.05 58.936 1097.69 58.3502C1101.39 57.5273 1103.16 55.2917 1107.36 55.5248C1110.59 55.7045 1107.53 61.8272 1108.95 63.245C1110.43 64.7233 1120.58 61.2552 1124.19 61.2552C1126.99 61.2552 1129.43 61.1654 1132.07 60.5787C1134.93 59.9437 1135.65 68.2035 1136.01 69.8508C1136.64 72.6542 1138.43 78.752 1140.63 80.6351C1141.47 81.3576 1141.53 83.0421 1142.86 83.4207C1145.94 84.3026 1148.17 78.2502 1149.14 76.4567C1152.05 71.0903 1153.1 66.893 1158.93 65.3939C1161.54 64.7231 1161.99 61.5353 1164.51 60.6981C1166.87 59.9099 1169.5 59.828 1171.91 59.0665C1174.49 58.2509 1176.67 57.6737 1179.35 57.6737C1181.04 57.6737 1180.36 59.7563 1180.46 60.9767C1180.93 66.356 1179.94 73.3343 1181.86 78.2872C1182.05 78.782 1183.54 86.9574 1185.6 83.4605C1187.36 80.4707 1190.38 81.6721 1192.6 82.9034C1196.47 85.0533 1200.24 88.9475 1203.34 92.0561C1207.36 96.0763 1212.5 98.0382 1216.52 102.403C1220.4 106.628 1223.51 108.063 1228.73 109.964C1235.72 112.503 1235.58 118.408 1235.58 124.847C1235.58 133.91 1241.6 128.658 1247.08 129.343C1255.7 130.422 1259.25 137.479 1262.12 144.664C1262.74 146.216 1264.04 148.648 1265.34 149.718C1266.99 151.063 1270.14 151.73 1271.39 153.3C1272.04 154.111 1274.26 153.702 1275.33 154.414C1276.2 154.989 1276.48 156.028 1277.44 156.523C1279.2 157.425 1281.38 157.38 1283.25 157.956C1287.2 159.171 1287.87 161.574 1287.87 165.676C1287.87 170.437 1288.58 174.973 1288.58 179.803C1288.58 182.253 1286.52 183.754 1286.52 185.613C1286.52 187.858 1288.23 189.824 1288.62 192.02C1289.16 194.982 1290.02 197.136 1290.02 200.217" stroke="#060606" stroke-width="5" stroke-linecap="round"/>
<path d="M1289.3 199.501C1289.3 202.709 1288.35 207.948 1290.42 210.604C1293.51 214.58 1295.4 219.209 1298.97 222.781C1305.52 229.333 1306.53 239.924 1314.01 245.742C1318.04 248.875 1323.25 246.833 1327.98 248.05C1335.28 249.927 1337.66 258.285 1332.28 263.968C1329.95 266.427 1329.1 270.231 1326.55 272.404C1324.04 274.547 1321.28 277.543 1319.39 280.284C1315.66 285.664 1316.52 294.176 1316.52 300.658C1316.52 304.593 1316.87 306.842 1318.71 310.209C1321.6 315.504 1322.21 321.324 1323.01 327.321C1323.95 334.38 1330.11 333.724 1335.5 334.921C1338.04 335.486 1337.42 341.321 1337.25 343.079C1336.91 346.678 1331.1 349.224 1328.38 350.958C1327.04 351.813 1325.42 350.855 1324.24 351.914C1323.3 352.759 1320.63 354.783 1319.39 354.938C1317.38 355.189 1319.39 368.279 1319.39 369.821C1319.39 380.185 1321.32 394.261 1317.95 404.363" stroke="#060606" stroke-width="5" stroke-linecap="round"/>
<path d="M1315.8 402.93C1315.8 410.247 1315.64 416.84 1314.33 424.021C1314.07 425.447 1313.25 426.845 1312.98 428.319C1312.61 430.335 1314.37 431.751 1314.37 433.731C1314.37 436.399 1314.88 440.292 1315.64 442.883C1318.22 451.576 1307.71 448.799 1303.27 452.354C1300.99 454.176 1299.62 456.51 1296.86 458.085C1294.34 459.526 1292.65 462.292 1291.45 464.85C1289.01 470.03 1289.74 477.733 1288.43 483.474C1287.36 488.114 1285.97 492.566 1284.68 497.163C1283.14 502.677 1283.77 508.367 1282.5 513.956C1281.5 518.326 1280.73 522.778 1279.43 527.009C1277.75 532.473 1277.84 537.824 1277.84 543.683C1277.84 547.749 1278.06 550.741 1279.23 554.666C1280.03 557.312 1280.7 559.159 1280.7 561.948" stroke="#060606" stroke-width="5" stroke-linecap="round"/>
<path d="M878.822 865.686C882.532 865.686 890.254 866.973 893.63 865.155C895.382 864.211 897.821 863.487 899.362 862.289C900.83 861.146 901.036 859.237 902.706 858.255C904.054 857.462 904.288 855.95 905.253 854.752C908.262 851.017 912.787 848.225 917.036 846.101C921.436 843.901 924.937 841.395 929.827 839.891C933.044 838.901 933.877 836.07 937.523 836.07C942.579 836.07 948.032 836.6 951.906 832.726C958.272 826.36 963.534 828.757 971.279 831.081C982.781 834.531 995.52 828.427 1006.84 828.427C1015.21 828.427 1024.59 833.551 1032.58 836.547C1045.83 841.515 1059.28 845.314 1072.23 851.143C1076.53 853.08 1083.04 856.132 1087.57 856.132C1089.29 856.132 1094.11 856.979 1095.47 855.92C1096.97 854.759 1092.09 857.602 1090.43 858.52C1085.74 861.127 1078.62 862.719 1073.29 862.819C1063.05 863.013 1053.55 864.847 1043.57 863.032C1038.67 862.141 1034.04 860.909 1029.08 860.909C1017.24 860.909 1007.02 857.023 996.33 852.523C993.279 851.238 984.526 855.556 981.522 856.663C978.546 857.759 972.781 858.515 970.483 860.431C964.625 865.312 946.398 862.981 939.487 861.917C936.598 861.473 933.34 861.864 930.411 861.864C927.44 861.864 925.109 863.637 922.768 863.775C914.617 864.254 906.639 863.775 898.407 863.775C895.49 863.775 883.828 862.361 882.643 864.73" stroke="#060606" stroke-width="5" stroke-linecap="round"/>
<path d="M887.42 881.926C896.244 881.926 900.041 883.189 906.102 889.25C911.158 894.306 914.536 903.743 921.335 906.765C927.013 909.289 930.514 914.361 935.612 917.274C940.831 920.256 946.551 922.422 952.649 922.9C955.877 923.153 959.205 922.653 962.362 923.537C964.006 923.997 965.452 924.917 967.192 924.917C973.364 924.917 979.488 926.828 985.821 926.828C994.384 926.828 1002.95 926.828 1011.51 926.828C1016.77 926.828 1022.58 927.468 1027.64 925.66C1031.89 924.144 1036.09 918.602 1040.06 916.106C1041.87 914.971 1042.63 913.358 1044.1 911.967C1045.4 910.736 1047.62 910.348 1049.09 909.207C1051.73 907.149 1054.11 905.495 1057.05 903.899C1058.85 902.922 1059.57 899.708 1060.98 898.167C1065.17 893.581 1069.91 888.703 1074.24 884.368C1075.5 883.109 1077.44 881.086 1078.97 880.068C1082.56 877.675 1081.58 876.194 1078.01 876.194C1073.95 876.194 1070.28 875.584 1066.34 875.292C1056.36 874.553 1046.71 878.105 1036.88 878.105C1029.22 878.105 1022.14 875.086 1014.64 874.336C1009.34 873.806 1004.25 872.774 998.825 873.859C994.537 874.716 990.14 877.149 985.768 877.149C973.737 877.149 961.789 877.335 949.942 875.982C945.814 875.51 940.907 876.019 937.098 874.496C932.788 872.772 926.502 876.034 922.025 876.194C914.014 876.48 905.948 876.194 897.929 876.194C895.122 876.194 886.864 876.351 885.509 879.06" stroke="#060606" stroke-width="5" stroke-linecap="round"/>
<path d="M914.17 602.008C914.17 610.107 908.887 617.549 904.616 624.193C900.813 630.109 898.75 636.127 892.727 640.222C882.918 646.892 874.569 655.193 864.491 661.24" stroke="#060606" stroke-width="5" stroke-linecap="round"/>
<path d="M1044.1 611.562C1047.51 612.493 1052.69 619.505 1054.39 622.601C1057.39 628.049 1062.87 630.726 1067.93 634.012C1075.33 638.826 1082.04 643.751 1090.8 646.379C1098.11 648.571 1106.44 651.932 1111.93 657.418" stroke="#060606" stroke-width="5" stroke-linecap="round"/>
<path d="M1007.79 577.169C1007.79 583.945 1007.79 590.721 1007.79 597.497C1007.79 607.521 1009.24 616.035 1011.19 625.892C1013.85 639.323 1013.53 652.644 1013.53 666.282C1013.53 670.319 1012.76 675.37 1014 679.339C1014.53 681.033 1015.44 682.366 1015.44 684.168C1015.44 689.962 1019.12 694.749 1020.27 699.932C1020.81 702.397 1022.78 704.533 1023.08 707.097C1023.44 710.173 1023.59 701.421 1024.99 704.231" stroke="#060606" stroke-width="5" stroke-linecap="round"/>
<path d="M1022.12 708.053C1022.12 713.489 1024.31 724.669 1020.96 728.858C1020.34 729.635 1017.09 734.986 1017.56 733.635C1019.45 728.164 1021.69 723.145 1022.87 717.394C1023.16 715.946 1023.26 711.92 1024.51 710.919C1031.31 705.483 1041.7 705.25 1049.41 708.053C1052.42 709.149 1054.38 711.307 1057.05 712.829C1059.7 714.345 1063.47 715.548 1065.65 717.606C1071.69 723.318 1073.71 732.195 1073.71 740.534C1073.71 742.812 1075.88 745.483 1073.93 747.434C1072.31 749.052 1070.38 749.715 1068.94 751.521C1067.04 753.892 1065.06 754.701 1063.63 757.359C1062.63 759.217 1061.73 763.357 1058.91 763.357C1058.81 763.357 1057.66 761.341 1057.47 761.021C1056.71 759.686 1055.48 759.3 1054.61 758.209C1052.56 755.647 1047.01 755.349 1044.1 754.122C1039.45 752.166 1027.44 754.7 1024.04 757.731C1019.99 761.329 1012.97 765.726 1011.67 771.583C1010.59 776.426 1006.41 779.704 1001.58 779.704C991.719 779.704 981.031 780.989 971.491 778.536C962.679 776.27 958.809 769.989 953.127 763.675C948.734 758.794 940.17 758.686 933.807 758.686C929.435 758.686 920.388 753.489 917.46 757.253C916.058 759.056 914.172 761.359 912.737 762.508C911.453 763.534 912.259 768.548 912.259 770.15" stroke="#060606" stroke-width="5" stroke-linecap="round"/>
<path d="M954.295 602.963C954.295 616.017 953.724 629.158 955.25 642.132C956.383 651.767 955.446 656.639 951.641 665.273C949.635 669.826 946.676 673.245 944.263 677.533C942.919 679.924 941.687 682.341 940.389 684.752C938.016 689.159 938.716 694.878 936.886 699.453C935.643 702.561 934.47 709.366 931.366 710.918" stroke="#060606" stroke-width="5" stroke-linecap="round"/>
<path d="M884.711 582.97C876.248 583.91 870.802 596.328 861.645 598.508C848.585 601.618 836.415 597.502 823.8 594.434C815.069 592.31 806.967 587.447 798.317 585.525C787.606 583.145 793.597 578.016 798.662 572.749C804.22 566.969 811.105 564.256 817.308 559.351C823.02 554.835 827.061 555.622 834.366 555.622C840.872 555.622 847.397 556.997 853.634 558.73C858.246 560.011 866.393 561.102 869.794 564.323C872.301 566.699 875.749 567.348 878.219 569.572C880.163 571.321 880.616 573.224 882.846 574.959C886.996 578.186 891.982 584.741 895.899 586.699" stroke="#060606" stroke-width="5" stroke-linecap="round"/>
<path d="M847.419 559.351C847.419 569.663 845.837 584.212 831.535 584.212C822.826 584.212 820.304 586.656 812.336 578.964C807.887 574.668 805.154 573.05 805.154 566.809" stroke="#060606" stroke-width="5" stroke-linecap="round"/>
<path d="M838.717 560.594C838.717 563.779 838.689 576.589 831.949 569.848C830.422 568.321 831.258 563.854 831.258 561.837C831.258 558.238 834.631 559.351 837.474 559.351" stroke="#060606" stroke-width="5" stroke-linecap="round"/>
<path d="M787.148 570.314C787.288 568.919 788.578 567.98 789.696 567.342C790.629 566.809 791.005 566.116 791.441 565.172C792.479 562.923 794.596 561.095 796.371 559.44C798.961 557.026 802.806 553.682 806.443 552.929C810.681 552.053 814.024 548.733 818.473 548.66C821.086 548.617 823.537 547.414 826.068 546.726C830.146 545.617 835.555 544.947 839.749 545.9C841.602 546.321 843.694 545.138 845.457 544.697C848.027 544.055 850.762 543.764 853.383 544.296C855.488 544.724 857.212 545.821 859.044 546.867C860.614 547.765 862.567 547.188 864.28 547.056C867.23 546.829 870.567 546.547 873.149 548.236C875.454 549.743 876.091 549.775 878.975 550.193C887.653 551.453 895.666 558.028 900.417 565.313C901.391 566.807 903.436 569.855 905.394 570.29C906.284 570.488 908.626 571.684 909.003 572.437" stroke="#060606" stroke-width="5" stroke-linecap="round"/>
<path d="M922.165 494.314C921.077 501.032 920.531 508.364 918.249 514.836C916.863 518.765 914.142 522.232 911.975 525.733" stroke="#060606" stroke-width="5" stroke-linecap="round"/>
<path d="M913.673 495.588C913.673 500.662 914.919 508.041 912.116 512.713C910.121 516.038 907.758 519.108 905.606 522.336" stroke="#060606" stroke-width="5" stroke-linecap="round"/>
<path d="M906.879 490.068C906.676 495.763 905.701 501.389 904.78 507.004C904.248 510.252 903.994 513.967 902.634 517.029C902.311 517.755 901.207 517.859 900.511 518.091" stroke="#060606" stroke-width="5" stroke-linecap="round"/>
<path d="M900.511 485.822C899.122 490.684 896.714 495.285 895.251 500.164C894.698 502.006 894.576 503.956 894.142 505.825C893.423 508.925 893.008 512.717 891.595 515.543" stroke="#060606" stroke-width="5" stroke-linecap="round"/>
<path d="M892.444 482.426C891.365 489.075 890.277 496.609 887.255 502.711C886.417 504.403 884.877 505.622 883.952 507.24C883.44 508.137 883.202 509.55 882.254 510.023" stroke="#060606" stroke-width="5" stroke-linecap="round"/>
<path d="M879.706 479.454C879.206 486.792 876.317 494 875.885 501.344C875.796 502.86 874.599 505.372 873.762 506.627" stroke="#060606" stroke-width="5" stroke-linecap="round"/>
<path d="M868.243 473.085C868.243 482.057 868.925 491.407 867.818 500.258" stroke="#060606" stroke-width="5" stroke-linecap="round"/>
<path d="M858.053 470.963C858.053 478.007 858.102 485.053 858.053 492.097C858.037 494.416 856.779 496.369 856.779 498.561" stroke="#060606" stroke-width="5" stroke-linecap="round"/>
<path d="M847.863 472.661V505.354" stroke="#060606" stroke-width="5" stroke-linecap="round"/>
<path d="M838.947 473.085C838.947 481.378 838.522 489.98 838.522 498.135" stroke="#060606" stroke-width="5" stroke-linecap="round"/>
<path d="M825.785 476.058V501.532" stroke="#060606" stroke-width="5" stroke-linecap="round"/>
<path d="M813.896 479.029V498.985" stroke="#060606" stroke-width="5" stroke-linecap="round"/>
<path d="M832.578 470.113V493.89" stroke="#060606" stroke-width="5" stroke-linecap="round"/>
<path d="M806.679 476.482V506.203" stroke="#060606" stroke-width="5" stroke-linecap="round"/>
<path d="M795.64 481.152C795.64 489.145 794.628 497.865 796.277 505.778C796.946 508.993 796.195 512.31 796.913 515.543" stroke="#060606" stroke-width="5" stroke-linecap="round"/>
<path d="M780.355 490.493C780.355 494.346 780.201 498.201 781.11 501.98C781.932 505.4 783.477 508.835 784.813 512.1C785.325 513.35 785.99 516.238 787.148 516.817" stroke="#060606" stroke-width="5" stroke-linecap="round"/>
<path d="M787.573 484.549C787.573 491.507 786.997 498.875 788.422 505.731C788.849 507.787 789.696 510.085 789.696 512.146" stroke="#060606" stroke-width="5" stroke-linecap="round"/>
<path d="M768.467 499.409C768.467 507.499 771.329 514.297 774.411 521.487" stroke="#060606" stroke-width="5" stroke-linecap="round"/>
<path d="M759.126 515.119C759.222 519.421 760.286 524.998 762.098 528.942C762.432 529.669 764.646 535.385 764.646 533.376" stroke="#060606" stroke-width="5" stroke-linecap="round"/>
<path d="M761.673 510.023C762.361 515.475 762.157 522.396 766.344 526.582C767.36 527.599 767.855 528.755 768.467 529.979" stroke="#060606" stroke-width="5" stroke-linecap="round"/>
<path d="M751.908 524.459C751.908 527.865 752.889 530.563 753.937 533.705C754.33 534.885 755.302 535.406 755.729 536.583C756.691 539.228 758.138 540.326 758.701 543.14" stroke="#060606" stroke-width="5" stroke-linecap="round"/>
<path d="M748.512 535.923C748.512 537.872 748.479 539.824 748.512 541.773C748.54 543.507 749.581 544.061 750.21 545.476C750.967 547.178 752.906 548.108 753.606 549.509" stroke="#060606" stroke-width="5" stroke-linecap="round"/>
<path d="M1057.97 583.007C1058.35 579.049 1060.98 575.437 1063.19 572.274C1066.2 567.963 1069.84 562.926 1074.59 560.38C1079.58 557.708 1083.69 555.217 1089.61 554.578C1097.55 553.724 1104.65 551.155 1112.79 551.155C1122.05 551.155 1129.6 552.669 1138.29 555.855C1143.8 557.875 1148.87 560.5 1153.99 563.31C1158.61 565.849 1163.35 568.946 1167.16 572.622C1167.45 572.909 1169.13 574.464 1169.13 574.943C1169.13 576.371 1159.39 578.053 1158.02 578.54C1154.17 579.904 1150.06 579.404 1146.21 580.629C1140.16 582.555 1134.38 585.145 1128.46 587.475C1121.28 590.299 1114.81 590.84 1107.22 590.84C1104.69 590.84 1102.19 590.363 1099.8 590.318C1095.34 590.233 1085.94 591.654 1083.03 587.823C1081.79 586.198 1077.45 586.465 1075.6 585.85C1073.47 585.139 1071.62 583.785 1069.45 583.123C1067.89 582.645 1066.26 581.555 1064.75 580.803C1062.45 579.651 1059.25 579.304 1057.97 576.741" stroke="#060606" stroke-width="5" stroke-linecap="round"/>
<path d="M1077.29 558.988C1077.29 562.497 1080.33 566.714 1082.48 569.402C1084.7 572.178 1085.35 574.584 1089.47 574.653C1092.63 574.705 1095.79 574.653 1098.96 574.653C1102.51 574.653 1104.1 571.025 1107.02 569.199C1109.54 567.625 1113.84 563.579 1113.84 560.293C1113.84 557.764 1113.93 553.531 1114.88 551.155" stroke="#060606" stroke-width="5" stroke-linecap="round"/>
<path d="M1098.17 550.11C1098.17 554.138 1099.09 559.467 1097.24 563.164C1096.09 565.477 1089.08 567.891 1087.09 565.543C1085.84 564.065 1084.6 561.734 1084.6 559.77C1084.6 556.512 1087.57 556.915 1089.7 556.26C1093.26 555.167 1092.63 548.907 1097.13 551.155" stroke="#060606" stroke-width="5" stroke-linecap="round"/>
<path d="M1177.54 566.298C1167.56 564.635 1161.85 556.583 1153.64 551.793C1148.15 548.592 1142.33 546.128 1136.44 543.612C1130.06 540.893 1123.74 540.145 1116.83 538.681C1111 537.447 1105.09 537.212 1099.22 538.101C1092.49 539.118 1086.34 542.101 1079.93 544.106C1074.19 545.898 1068.87 549.35 1063.59 552.141C1059.06 554.538 1058.17 555.018 1055.99 559.277C1054.36 562.463 1052.17 565.077 1050.13 567.98C1049.55 568.813 1049.09 569.453 1049.09 570.475" stroke="#060606" stroke-width="5" stroke-linecap="round"/>
<path d="M1021.73 494.883C1021.73 500.468 1022.07 505.657 1023.03 511.151C1023.51 513.889 1023.44 516.688 1024.76 519.213C1025.58 520.784 1025.87 524.206 1027.78 524.683" stroke="#060606" stroke-width="5" stroke-linecap="round"/>
<path d="M1028.64 491.859C1028.64 498.226 1028.64 504.592 1028.64 510.958C1028.64 512.615 1028.7 518.232 1030.37 519.068" stroke="#060606" stroke-width="5" stroke-linecap="round"/>
<path d="M1032.96 492.724C1032.96 501.249 1032.96 509.775 1032.96 518.301C1032.96 519.138 1032.31 524.801 1033.39 522.092" stroke="#060606" stroke-width="5" stroke-linecap="round"/>
<path d="M1040.3 488.836C1040.3 495.458 1040.3 502.081 1040.3 508.703C1040.3 510.828 1041.06 517.5 1043.33 518.636" stroke="#060606" stroke-width="5" stroke-linecap="round"/>
<path d="M1048.08 485.381C1048.08 492.305 1047.2 499.815 1048.41 506.639C1048.79 508.739 1049.26 515.126 1051.1 516.045" stroke="#060606" stroke-width="5" stroke-linecap="round"/>
<path d="M1056.72 484.949C1056.72 491.636 1056.72 498.322 1056.72 505.008C1056.72 507.414 1057.58 510.388 1057.58 513.022" stroke="#060606" stroke-width="5" stroke-linecap="round"/>
<path d="M1065.79 481.062V507.84" stroke="#060606" stroke-width="5" stroke-linecap="round"/>
<path d="M1071.4 478.902C1071.4 484.867 1071.32 490.838 1071.4 496.802C1071.43 499.089 1071.55 501.797 1072.26 503.952" stroke="#060606" stroke-width="5" stroke-linecap="round"/>
<path d="M1083.93 478.471V506.112" stroke="#060606" stroke-width="5" stroke-linecap="round"/>
<path d="M1077.45 477.176C1077.45 483.107 1077.01 489.258 1078.1 495.099C1078.49 497.242 1078.74 499.196 1078.74 501.362" stroke="#060606" stroke-width="5" stroke-linecap="round"/>
<path d="M1089.54 475.88C1089.54 479.952 1089.66 483.945 1090 487.997C1090.4 492.875 1091.7 497.721 1091.7 502.657" stroke="#060606" stroke-width="5" stroke-linecap="round"/>
<path d="M1099.91 475.88C1099.91 484.172 1098.83 493.482 1100.34 501.793" stroke="#060606" stroke-width="5" stroke-linecap="round"/>
<path d="M1113.73 478.039V500.929" stroke="#060606" stroke-width="5" stroke-linecap="round"/>
<path d="M1124.96 477.176V501.793" stroke="#060606" stroke-width="5" stroke-linecap="round"/>
<path d="M1137.48 482.358C1137.48 489.856 1137.91 497.355 1137.91 504.817" stroke="#060606" stroke-width="5" stroke-linecap="round"/>
<path d="M1152.16 487.108V512.59" stroke="#060606" stroke-width="5" stroke-linecap="round"/>
<path d="M1164.26 488.404C1164.26 498.646 1165.98 508.888 1165.98 519.068" stroke="#060606" stroke-width="5" stroke-linecap="round"/>
<path d="M1179.8 496.179V521.228" stroke="#060606" stroke-width="5" stroke-linecap="round"/>
<path d="M1191.47 505.248V527.274" stroke="#060606" stroke-width="5" stroke-linecap="round"/>
<path d="M1202.26 515.182C1202.26 519.788 1202.26 524.395 1202.26 529.002C1202.26 531.923 1201.4 534.765 1201.4 537.64" stroke="#060606" stroke-width="5" stroke-linecap="round"/>
<path d="M1209.6 532.457V543.254" stroke="#060606" stroke-width="5" stroke-linecap="round"/>
<path d="M1283.72 641.978C1283.72 640.075 1283.74 645.828 1284.25 647.663C1284.77 649.586 1285.83 651.826 1285.83 653.846C1285.83 656.22 1285.83 658.593 1285.83 660.967C1285.83 665.802 1285.83 670.637 1285.83 675.472C1285.83 677.006 1285.83 678.539 1285.83 680.073C1285.83 682.858 1284.59 685.13 1284.25 687.867C1283.46 694.113 1281.61 700.283 1281.11 706.563C1280.8 710.456 1280.53 717.068 1283.98 719.749C1285.94 721.276 1291.41 707.637 1292.42 705.537C1294.63 700.945 1297.01 698.371 1301.39 696.014C1308.11 692.394 1314.83 688.919 1316.01 680.893C1316.78 675.699 1315.58 670.187 1316.54 665.069C1316.9 663.149 1317.62 661.248 1318.27 659.414C1319.8 655.057 1320.12 650.548 1320.02 645.934C1319.95 642.352 1319.08 639.301 1317.48 636.176C1313.89 629.208 1303.46 630.344 1297.02 627.737C1292.59 625.942 1285.58 625.315 1283.72 630.902" stroke="#060606" stroke-width="5" stroke-linecap="round"/>
<path d="M433.395 495.536C435.811 493.986 438.579 492.326 441.281 491.319C452.138 487.266 462.5 492.476 471.524 496.218C473.922 495.907 477.807 495.829 480.009 494.876C484.657 492.863 489.564 484.944 494.32 481.705C500.92 477.208 510.461 475.87 517.474 478.278C521.54 479.672 525.84 482.412 530.084 483.207C533.281 483.805 536.82 482.127 540.006 482.713C542.054 483.092 543.342 484.092 544.159 485.856C545.06 487.805 544.344 489.813 543.378 491.761C542.009 492.799 540.651 493.697 539.009 494.277C529.799 497.522 521.357 493.844 513.689 490.437C500.512 485.381 495.138 500.483 484.281 505.396C474.185 509.964 467.725 508.845 458.639 504.978C454.877 503.376 450.754 501.413 446.243 502.362C440.59 503.552 435.727 510.197 431.613 513.904C428.059 517.104 423.792 519.244 419.14 520.339C415.732 521.141 410.311 521.962 407.542 520.083C405.14 518.454 405.144 516.75 405.103 514.133C405.821 512.8 406.58 511.051 407.851 510.074C410.059 508.375 415.775 509.207 418.514 509.221L433.395 495.536Z" fill="#020103"/>
<path d="M439.014 252.349C441.852 251.916 445.056 251.527 447.934 251.706C459.5 252.42 466.846 261.396 473.566 268.485C475.884 269.178 479.464 270.686 481.864 270.712C486.929 270.764 494.633 265.527 500.295 264.503C508.154 263.081 517.414 265.74 522.841 270.793C525.988 273.721 528.801 277.973 532.354 280.427C535.031 282.273 538.947 282.181 541.619 284.012C543.336 285.192 544.105 286.628 544.134 288.573C544.164 290.72 542.693 292.263 541.018 293.65C539.345 294.04 537.739 294.308 536.004 294.17C526.269 293.387 520.055 286.593 514.436 280.36C504.456 270.381 493.403 281.99 481.486 282.06C470.405 282.125 464.959 278.475 458.233 271.246C455.448 268.252 452.48 264.78 447.973 263.813C442.325 262.599 435.179 266.691 429.912 268.403C425.364 269.881 420.596 270.099 415.901 269.207C412.461 268.553 407.175 267.097 405.41 264.255C403.878 261.788 404.575 260.234 405.603 257.827C406.801 256.901 408.206 255.612 409.764 255.237C412.473 254.583 417.356 257.669 419.852 258.796L439.014 252.349Z" fill="#020103"/>
<path d="M528.198 43.3187C530.715 44.6979 533.497 46.3342 535.675 48.2243C544.431 55.8162 544.816 67.4079 545.85 77.1218C547.271 79.0789 549.199 82.452 551.09 83.93C555.082 87.047 564.384 87.5649 569.504 90.1897C576.612 93.8327 582.353 101.569 583.597 108.879C584.318 113.116 583.971 118.203 585.304 122.31C586.31 125.402 589.477 127.707 590.487 130.785C591.135 132.765 590.874 134.373 589.716 135.936C588.436 137.659 586.33 137.992 584.157 138.077C582.591 137.371 581.152 136.609 579.857 135.445C572.599 128.911 571.788 119.74 571.109 111.376C569.24 97.3866 553.409 99.8971 543.898 92.716C535.055 86.0381 532.945 79.8307 531.991 70.0029C531.597 65.933 531.347 61.3726 528.354 57.8669C524.604 53.4731 516.442 52.3837 511.218 50.5458C506.707 48.9578 502.786 46.2356 499.597 42.6753C497.262 40.0673 493.946 35.6998 494.27 32.3697C494.551 29.4805 496.049 28.6684 498.327 27.3806C499.841 27.3723 501.74 27.2015 503.206 27.8497C505.755 28.9755 507.761 34.3921 509.059 36.8039L528.198 43.3187Z" fill="#020103"/>
</g>
<defs>
<clipPath id="clip0_26_4">
<rect width="1920" height="1080" fill="white"/>
</clipPath>
</defs>
</svg>
