<svg width="1920" height="1080" viewBox="0 0 1920 1080" fill="none" xmlns="http://www.w3.org/2000/svg">
<g clip-path="url(#clip0_26_5)">
<path d="M931.343 1032.02C926.79 1032.02 922.046 1032.41 917.511 1031.95C913.833 1031.59 911.407 1029.37 908.118 1028.54C899.327 1026.35 891.652 1021.83 883.219 1018.64C877.377 1016.42 871.583 1014.62 865.977 1011.82C861.198 1009.43 856.427 1007.09 851.565 1004.87C844.163 1001.49 839.847 995.574 834.709 989.427C826.184 979.228 817.556 969.923 809.617 959.189C806.814 955.399 803.626 952.032 799.774 949.281C796.984 947.288 792.822 946.911 790.316 944.906C787.251 942.453 784.179 935.976 781.695 932.746C773.033 921.486 765.198 909.874 758.405 897.361C754.866 890.842 750.572 884.467 746.695 878.124C744.91 875.203 743.008 872.023 740.841 869.374C736.367 863.906 732.904 854.23 730.354 847.628C727.543 840.352 724.564 832.234 722.633 824.724C720.163 815.115 715.829 806.77 714.848 796.48C713.837 785.857 714.784 774.668 714.784 763.989C714.784 753.731 715.851 744.333 711.567 734.909C708.427 728 706.83 717.655 705.777 710.075C705.382 707.229 702.571 697.838 704.619 695.277C707.157 692.105 705.52 684.101 705.52 680.094C705.52 671.745 702.641 663.915 702.045 655.581C700.022 627.258 693.939 599.054 693.939 570.656C693.939 558.944 692.781 548.025 692.781 536.364" stroke="#060606" stroke-width="5" stroke-linecap="round"/>
<path d="M691.65 536.384C691.65 528.136 691.381 519.144 694.538 511.335C697.325 504.44 701.603 498.087 704.646 491.325C706.026 488.259 708.094 485.606 708.094 482.249C708.094 478.28 708.094 474.312 708.094 470.343C708.094 465.486 707.47 460.105 708.625 455.343C709.363 452.295 709.155 449.214 709.155 446.09C709.155 435.934 710.061 426.588 712.338 416.68C713.446 411.855 714.274 407.12 715.108 402.24C715.973 397.172 716.573 392.041 717.76 387.033C718.717 382.998 720.088 379.059 720.736 374.951C721.437 370.511 721.156 365.798 721.65 361.307C722.317 355.239 723.724 349.353 724.803 343.36C725.43 339.876 726.422 336.76 726.748 333.223C726.911 331.461 727.038 325.077 728.781 324.205" stroke="#060606" stroke-width="5" stroke-linecap="round"/>
<path d="M728.251 329.51C728.251 325.979 731.684 324.506 734.498 323.262C738.497 321.495 741.604 318.563 745.815 317.074C751.219 315.162 756.585 314.302 762.288 313.891C765.558 313.655 769.438 314.121 772.573 313.007C778.372 310.945 783.776 308.026 789.635 306.023C798.945 302.84 808.078 300.927 817.896 300.335C824.685 299.925 831.547 299.936 838.348 299.834C840.49 299.802 842.459 299.867 844.537 299.333C857.393 296.027 870.239 293.91 883.495 292.673C899.337 291.195 915.431 293.226 931.176 290.993C944.259 289.138 957.345 288.937 970.518 290.08C976.268 290.579 981.949 292.563 987.639 292.879C995.757 293.33 1003.54 295.981 1011.75 296.091C1020.57 296.21 1027.96 297.86 1036.44 300.335" stroke="#060606" stroke-width="5" stroke-linecap="round"/>
<path d="M1030.08 300.335C1038.57 300.76 1047.27 303.505 1055.68 304.814C1061.61 305.736 1067.9 305.044 1073.87 305.227C1080.33 305.425 1086.84 305.718 1093.26 306.582C1100.27 307.526 1106.95 309.859 1113.86 311.298C1120.97 312.779 1128.04 314.148 1135.04 316.13C1145.86 319.194 1155.94 324.052 1166.46 327.918C1170.14 329.27 1173.81 330.22 1177.6 331.189C1183.77 332.768 1189.71 335.673 1195.57 338.115C1206.31 342.584 1216.79 347.669 1227.49 352.23C1230.94 353.701 1230.43 353.469 1230.61 357.034C1230.8 360.665 1232.1 364.216 1233.35 367.584C1235.68 373.862 1238.36 379.219 1238.57 386.031C1238.78 392.79 1240.56 399.224 1242.25 405.717C1244.32 413.643 1245.97 421.528 1245.97 429.705C1245.97 434.512 1246.21 439.092 1247.29 443.791C1247.78 445.891 1248.62 447.745 1248.62 449.921" stroke="#060606" stroke-width="5" stroke-linecap="round"/>
<path d="M1249.68 446.208C1249.68 454.49 1253.31 463.295 1256.05 471.021C1257.27 474.475 1258.55 477.866 1258.7 481.571C1258.86 485.74 1260.87 489.453 1262.29 493.3C1265.77 502.7 1265.66 513.453 1269.72 522.592C1270.95 525.361 1269.41 529.559 1270.25 532.494C1271.22 535.897 1270.01 539.895 1269.84 543.28C1269.74 545.116 1270.13 546.93 1269.31 548.584" stroke="#060606" stroke-width="5" stroke-linecap="round"/>
<path d="M1267.71 544.341C1267.71 556.59 1267.71 568.84 1267.71 581.089C1267.71 589.507 1268.17 598.015 1267.18 606.374C1266.32 613.74 1266.88 621.636 1264.53 628.682C1262.26 635.5 1263.17 643.93 1264 650.843C1265.01 659.174 1265.59 667.79 1265.59 676.186C1265.59 683.749 1267.39 690.748 1268.22 698.17C1269.8 712.423 1268.03 726.84 1267.18 741.136" stroke="#060606" stroke-width="5" stroke-linecap="round"/>
<path d="M1268.78 743.258C1268.78 746.288 1268.31 749.324 1267.6 752.275C1267.08 754.384 1267.35 756.375 1267.15 758.523C1266.9 761.289 1265.19 764.481 1264.12 767.01C1259.7 777.483 1256.23 787.871 1255.1 799.19C1254.52 804.978 1253.63 810.702 1252.86 816.459C1252.55 818.825 1251.04 821.17 1250.09 823.296C1248.43 827.041 1247.18 830.802 1245.97 834.701C1245.33 836.743 1245.49 839.32 1244.67 841.214C1241.35 848.911 1237.02 856.195 1233.77 863.964C1232.55 866.874 1232.19 870.855 1229.82 873.04C1224.24 878.178 1222.81 887.869 1215.2 890.722" stroke="#060606" stroke-width="5" stroke-linecap="round"/>
<path d="M1220.5 888.069C1220.5 892.245 1219.88 894.873 1216.85 898C1208.33 906.812 1199.53 915.505 1193.51 926.32C1191.32 930.261 1189.74 934.654 1187.2 938.403C1185.71 940.609 1183.18 941.981 1181.05 943.471C1173.39 948.816 1164.64 954.71 1160.54 963.334C1158.79 966.999 1153.46 969.064 1150.19 971.173C1144.2 975.037 1139.56 978.526 1135.78 984.728C1133.61 988.29 1132.1 991.378 1128.68 993.982C1122.66 998.56 1114.67 1000.75 1107.87 1003.97C1103.32 1006.13 1098.83 1008.61 1094.32 1010.87C1088.83 1013.61 1083.36 1016.84 1078.05 1019.91C1075.84 1021.2 1074.76 1022.86 1073.16 1024.81C1070.85 1027.63 1067.52 1029.47 1064.55 1031.53C1062.76 1032.77 1060.79 1033.73 1059.01 1035C1056.1 1037.1 1052.49 1036.59 1049.05 1036.59C1044.13 1036.59 1036.81 1034.93 1032.55 1037.66C1027.24 1041.06 1022.11 1043.34 1015.87 1043.49C1009.05 1043.65 1001.33 1043.25 994.417 1044.14C988.398 1044.91 983.253 1046.84 977.561 1048.26" stroke="#060606" stroke-width="5" stroke-linecap="round"/>
<path d="M977.561 1050.92C975.329 1050.69 972.651 1048.78 970.93 1047.44C968.889 1045.85 967.733 1045.61 965.007 1045.61C957.689 1045.61 950.688 1045.19 944.437 1041.37C942.055 1039.91 939.253 1038.96 936.982 1037.39C935.988 1036.7 934.744 1035.53 933.534 1035.53C929.69 1035.53 926.149 1035.03 922.925 1032.88" stroke="#060606" stroke-width="5" stroke-linecap="round"/>
<path d="M700.374 764.622H712.829" stroke="#060606" stroke-width="5" stroke-linecap="round"/>
<path d="M697.5 766.538C687.368 766.538 681.136 760.138 677.38 751.688C675.615 747.716 675.288 743.363 673.122 739.499C667.029 728.631 657.484 716.379 654.599 704.049C652.987 697.163 652.196 690.555 650.074 683.717C649.152 680.744 647.083 677.6 646.774 674.508C646.435 671.115 646.79 667.792 646.242 664.395C644.835 655.67 640.86 647.088 640.068 638.367C639.315 630.087 637.35 622.058 636.288 613.829C635.686 609.162 636.128 604.214 635.756 599.511C635.035 590.394 633.308 581.199 633.308 572.046C633.308 567.277 632.676 555.858 636.395 552.139C638.809 549.725 644.469 550.805 646.242 547.615C647.366 545.591 649.673 543.871 651.99 543.356C657.134 542.213 662.613 542.235 668.225 542.345C677.367 542.524 680.956 547.487 687.919 550.968" stroke="#060606" stroke-width="5" stroke-linecap="round"/>
<path d="M691.902 619.374C683.321 619.374 683.244 636.292 683.244 642.526C683.244 650.906 680.935 659.099 680.935 667.538C680.935 673.115 679.448 680.574 684.142 684.598C687.6 687.562 689.046 690.78 691.646 694.122C693.968 697.108 698.912 696.142 702.292 696.142" stroke="#060606" stroke-width="5" stroke-linecap="round"/>
<path d="M672.855 709.417C672.855 704.25 669.398 700.317 666.056 696.847C663.825 694.529 663.104 690.676 661.888 687.804C659.807 682.894 657.876 678.001 656.436 672.861C655.573 669.777 655.835 666.104 655.538 662.92C655.053 657.698 654.971 652.397 653.839 647.304C653.354 645.124 653.23 643.085 653.23 640.826C653.23 634.928 652.277 629.255 651.498 623.414" stroke="#060606" stroke-width="5" stroke-linecap="round"/>
<path d="M641.686 614.179C641.686 604.441 641.686 594.704 641.686 584.966C641.686 580.788 642.823 576.435 644.604 572.652C644.993 571.826 646.091 569.043 647.361 569.285C651.115 570 654.513 573.377 657.238 575.795C661.734 579.783 663.621 582.856 665.928 588.077C666.679 589.776 668.175 589.198 669.712 589.487C671.575 589.839 673.107 591.344 674.394 592.63C680 598.236 682.841 605.695 688.439 611.293" stroke="#060606" stroke-width="5" stroke-linecap="round"/>
<path d="M685.341 533.944C685.341 527.332 682.044 522.109 678.864 516.506C676.073 511.588 674.009 504.201 672.985 498.57C670.817 486.646 670.553 474.507 668.302 462.498C667.573 458.612 667.353 453.536 665.462 449.943C663.691 446.578 661.291 443.578 659.533 440.178C657.546 436.334 655.009 431.894 654.85 427.423C654.654 421.943 654.724 420.147 657.939 416.014C660.305 412.971 660.128 406.102 658.387 402.911C653.662 394.249 650.227 386.616 648.522 376.953C647.154 369.201 645.882 361.617 645.882 353.686C645.882 343.912 637.099 337.716 636.914 327.679C636.756 319.165 636.38 311.563 639.803 303.664C640.257 302.618 641.387 299.503 642.693 299.13C643.13 299.005 643.311 299.943 643.191 298.981C642.86 296.335 638.189 294.537 636.914 292.305C635.042 289.03 633.473 285.545 633.326 281.742C633.025 273.91 640.64 265.386 635.07 257.728C631.14 252.324 629.739 248.475 629.739 242.084C629.739 237.531 628.625 229.526 631.533 225.891C636.637 219.511 645.964 238.978 648.572 241.585" stroke="#060606" stroke-width="5" stroke-linecap="round"/>
<path d="M645.882 229.03C645.882 220.494 645.882 211.958 645.882 203.421C645.882 196.507 647.857 190.088 648.572 183.293C648.891 180.266 649.469 176.983 649.469 173.428C649.469 169.44 648.067 161.982 649.967 158.183C651.041 156.036 655.435 155.652 657.54 156.588C661.355 158.284 662.703 159.306 666.508 156.588C672.304 152.448 672.313 142.513 677.669 137.157C682.103 132.723 688.499 129.485 694.758 129.485C698.166 129.485 699.683 120.902 700.388 118.225C702.478 110.28 699.834 105.938 709.256 102.282C713.788 100.523 711.858 105.171 714.487 105.171C716.693 105.171 716.729 92.318 716.729 91.9684C716.729 88.071 714.294 79.2637 719.42 79.2637C724.106 79.2637 727.505 81.6722 729.085 86.2388C730.119 89.2248 729.858 88.5281 732.423 90.5236C734.429 92.0835 737.421 92.1602 739.15 89.8261C741.193 87.0674 746.324 84.2333 746.324 80.4594C746.324 77.7068 745.316 62.7045 746.822 62.2742C748.723 61.7312 750.406 65.505 751.007 66.7084C752.143 68.9808 755.232 69.1711 756.886 70.4949C761.263 73.9966 765.918 71.3898 764.21 65.413C763.567 63.1626 757.821 62.7968 756.189 61.3276C753.762 59.1432 749.911 56.3321 749.911 52.8578C749.911 45.0247 758.5 46.9787 764.459 46.9787C766.966 46.9787 771.673 45.916 773.278 48.3239C775.441 51.5679 780.672 51.6229 783.99 52.808C791.188 55.3788 799.716 54.1532 807.307 54.1532" stroke="#060606" stroke-width="5" stroke-linecap="round"/>
<path d="M806.41 46.9787C806.883 42.2418 812.49 41.1561 815.926 39.3061C822.395 35.8224 829.327 32.5764 835.506 28.644C840.704 25.3361 846.69 24.7945 852.197 22.3166C854.919 21.0915 859.516 19.1622 862.51 20.523C871.426 24.5759 878.999 24.4697 886.923 18.6796C891.317 15.4685 895.406 8.5993 901.072 7.56914C905.532 6.75827 910.291 7.80981 914.425 9.31292C918.06 10.6349 919.17 13.844 922.994 14.6938C928.052 15.8176 932.14 17.9191 937.343 16.6867C941.86 15.6168 948.292 16.4256 950.995 12.0033C956.909 2.32573 971.855 0.11328 981.287 4.8289C984.167 6.26896 987.461 6.49936 990.454 7.7186C992.782 8.66717 993.45 11.5561 995.635 12.7009C998.209 14.0489 1001.63 14.7579 1004.4 15.5906C1008.8 16.9091 1012.41 18.1059 1016.96 18.281C1019.88 18.3931 1018.82 19.3221 1021.14 16.6867C1023.99 13.4536 1029.1 12.3588 1033.1 11.3058C1035.88 10.5747 1045.54 8.31067 1048.15 11.1564C1051.63 14.9536 1051.24 19.2159 1051.24 24.1102C1051.24 28.7599 1052.16 28.1458 1056.62 28.1458C1061 28.1458 1064.88 26.8787 1069.17 26.402C1076.93 25.5407 1084.66 23.3404 1089.35 31.733C1093 38.2646 1103.14 34.4235 1109.88 34.4235C1112.04 34.4235 1115.03 34.9662 1117.1 34.3736C1120.96 33.2711 1124.93 20.5722 1131.05 26.3522C1133.22 28.3986 1133.62 30.9552 1134.84 33.5267C1135.67 35.2781 1136.11 36.4984 1137.33 38.0107C1139.74 40.9975 1139.82 45.8318 1142.01 48.573C1145.62 53.076 1150.76 40.1661 1151.48 37.8114C1153.22 32.1577 1160.03 32.3203 1164.23 34.4235" stroke="#060606" stroke-width="5" stroke-linecap="round"/>
<path d="M1163.34 34.4229C1163.34 36.8109 1162.55 42.4759 1165.13 44.0884C1167.26 45.4215 1170.94 46.0644 1172.75 47.4763C1176.2 50.1595 1177.29 49.9629 1181.27 48.0742C1186.46 45.6159 1190.52 52.754 1192.38 56.3447C1195.61 62.551 1199.89 68.6597 1204.59 73.8823C1208.09 77.7684 1214 77.8582 1218.89 80.6083C1225.12 84.1119 1231.71 90.8834 1234.19 97.6974C1235.34 100.879 1237.11 105.27 1240.91 105.27C1245.29 105.27 1249.71 107.057 1251.03 111.349C1251.63 113.307 1251.58 116.722 1253.52 117.826C1256.25 119.386 1256.98 123.251 1259.5 124.801C1261.93 126.302 1265.79 125.909 1268.56 127.691C1270.96 129.229 1272.94 129.484 1275.89 129.484C1281.37 129.484 1281.72 131.24 1281.72 136.858C1281.72 141.349 1279.03 144.94 1279.03 149.563C1279.03 151.792 1277.97 153.636 1278.23 156.139C1278.92 162.882 1280.57 170.133 1282.61 176.616C1284.16 181.53 1284.85 186.616 1287.1 191.364C1290.81 199.232 1298.14 203.362 1302.74 210.595C1304.28 213.015 1305.95 214.803 1307.72 217.172C1309.44 219.464 1313.69 217.736 1316.19 219.165C1321.18 222.016 1322.07 234.521 1322.07 239.343C1322.07 247.879 1321.7 255.578 1316.19 262.66C1314.19 265.234 1312.21 263.613 1312.21 267.642C1312.21 277.754 1314.87 285.623 1319.18 294.596C1323.39 303.353 1322.97 312.832 1322.97 322.297C1322.97 329.999 1319.59 333.059 1312.21 333.059C1307.49 333.059 1307.72 335.319 1307.72 339.386C1307.72 347.041 1306.18 356.241 1308.62 363.55" stroke="#060606" stroke-width="5" stroke-linecap="round"/>
<path d="M1309.52 375.209C1309.52 371.173 1309.52 367.138 1309.52 363.102C1309.52 354.758 1307.2 379.657 1305.23 387.764C1301.71 402.264 1292.17 413.735 1289.79 428.619C1288.77 434.992 1288.16 444.594 1283.31 449.444C1279.07 453.687 1279.03 465.642 1279.03 471.217C1279.03 477.544 1279.03 483.872 1279.03 490.199C1279.03 495.99 1277.54 501.463 1277.23 507.039C1276.99 511.373 1273.65 514.245 1273.65 518.249C1273.65 524.64 1271.85 531.602 1271.85 538.427" stroke="#060606" stroke-width="5" stroke-linecap="round"/>
<path d="M1274.51 531.067C1274.51 532.241 1273.49 543.079 1274.84 543.465C1277.02 544.089 1279.76 540.301 1281.32 539.091C1283.4 537.466 1285.24 535.935 1287.2 534.027C1288.92 532.363 1291.52 531.792 1293.58 530.673C1296.05 529.332 1299.47 526.058 1302.33 525.74C1303.59 525.6 1303.89 524.401 1304.7 523.635C1305.34 523.031 1307.31 523.372 1308.08 523.372C1314.34 523.372 1317.87 524.491 1319.79 530.475C1320.99 534.205 1322.64 538.517 1324.95 541.722C1327.72 545.556 1331.02 549.559 1332.32 554.152C1333.75 559.223 1336.15 564.799 1336.63 570.068C1337.74 582.316 1336.66 595.087 1336.66 607.392C1336.66 613.861 1336.91 620.468 1335.61 626.827C1334.06 634.417 1335.68 641.994 1333.11 649.452C1329.92 658.696 1328.99 668.271 1326.3 677.568C1324.44 684.002 1321.83 690.421 1320.68 697.036C1320.43 698.438 1319.58 700.039 1318.87 701.278C1317.33 703.977 1315.97 706.439 1314.63 709.236C1313.3 711.993 1309.94 712.955 1308.84 715.155" stroke="#060606" stroke-width="5" stroke-linecap="round"/>
<path d="M1310.02 715.155C1310.02 717.446 1310.02 719.737 1310.02 722.028C1310.02 724.517 1309.23 726.165 1308.87 728.474C1308.47 731.109 1306.7 732.946 1305.75 735.412C1304.09 739.732 1299.44 747.25 1294.7 748.303C1291.64 748.983 1288.52 752.098 1285.56 753.367C1282.96 754.481 1280.56 755.935 1277.76 756.557C1273.54 757.497 1270.22 754.814 1266.22 754.814" stroke="#060606" stroke-width="5" stroke-linecap="round"/>
<path d="M1276.88 694.437C1277.25 691.918 1279.74 688.725 1281.02 686.512C1282.57 683.845 1284.16 681.235 1286.35 679.047C1287.48 677.917 1289.2 675.73 1290.92 675.529C1294.72 675.082 1298.78 676.175 1302.53 675.364C1304.9 674.851 1306.64 671.946 1307.66 669.906C1310.99 663.24 1310.02 655.513 1310.02 648.202C1310.02 638.109 1306.54 627.681 1304.4 617.849C1303.62 614.238 1300.73 614.591 1297.46 613.344C1293.48 611.828 1289.54 609.567 1285.76 607.885C1283.97 607.092 1281.79 607.425 1279.84 607.425C1276.36 607.425 1276.2 610.148 1274.25 612.456C1271.91 615.213 1271.55 622.523 1271.55 626.07C1271.55 628.573 1272.73 630.686 1272.73 633.206C1272.73 636.513 1272.51 641.521 1273.46 644.584C1275.1 649.941 1277.63 656.273 1276.84 662.145C1276.61 663.867 1275.78 665.8 1274.64 667.077C1274.39 667.357 1272.8 668.604 1272.77 668.722C1272.23 670.586 1270.02 669.681 1269.18 671.352" stroke="#060606" stroke-width="5" stroke-linecap="round"/>
<path d="M1315.35 573.094C1315.35 579.45 1314.54 586.807 1315.91 592.989C1316.32 594.843 1317.06 597.109 1317.13 599.007C1317.23 601.94 1319.22 605.142 1319.99 608.083C1321.46 613.711 1323.05 618.577 1323.05 624.591" stroke="#060606" stroke-width="5" stroke-linecap="round"/>
<path d="M1294.63 577.237C1295.84 578.744 1296.45 582.305 1297.13 584.209C1297.91 586.359 1298.78 588.272 1298.78 590.556C1298.78 596.912 1289.45 590.573 1286.97 589.405C1284.18 588.087 1281.09 588.484 1278.06 588.484" stroke="#060606" stroke-width="5" stroke-linecap="round"/>
<path d="M875.331 843.326C884.59 843.326 891.144 839.145 899.007 834.776C906.612 830.551 911.169 822.108 918.606 817.348C923.284 814.354 927.803 812.791 932.154 809.061C934.673 806.902 938.623 808.155 941.625 806.891C945.704 805.173 951.594 805.97 956.093 804.523C960.442 803.126 971.39 805.186 975.232 807.22C982.107 810.86 990.378 813.231 998.316 810.706C1010.39 806.865 1023.89 808.402 1035.15 813.468C1039.73 815.532 1043.74 815.842 1047.9 819.913C1052.32 824.226 1057.47 827.769 1061.78 832.08C1066.1 836.403 1068.46 840.508 1074.21 843.063C1075.74 843.745 1080.02 843.739 1081.05 844.773C1083.44 847.163 1074.16 845.207 1070.92 844.247C1060.1 841.041 1049.47 838.98 1038.17 837.473C1027.94 836.109 1016.92 839.492 1006.73 839.775C992.14 840.18 977.609 840.959 962.867 840.959C949.308 840.959 935.7 844.81 922.749 848.588C915.575 850.68 905.03 852.797 897.56 852.797C891.824 852.797 887.36 848.061 881.776 848.061C879.354 848.061 868.328 845.417 870.267 845.825C875.62 846.952 880.819 849.891 885.985 851.613" stroke="#060606" stroke-width="5" stroke-linecap="round"/>
<path d="M887.169 851.613C898.28 861.613 909.14 872.06 918.869 883.576C925.61 891.556 934.235 896.443 941.427 903.635C944.451 906.659 946.35 906.068 950.832 906.068C957.75 906.068 962.02 905.982 967.931 909.62C978.505 916.127 1001.11 905.684 1011.34 904.358C1018.4 903.443 1025.81 903.969 1032.78 902.517C1038.44 901.337 1045.8 893.543 1049.29 888.969C1052.11 885.259 1053.57 882.369 1057.37 880.024C1060.76 877.943 1061.19 877.034 1061.19 872.922C1061.19 866.897 1062.92 865.427 1065.92 861.675C1068.26 858.753 1072.26 856.787 1074.87 853.586C1076.49 851.596 1077.92 849.167 1080.13 848.062" stroke="#060606" stroke-width="5" stroke-linecap="round"/>
<path d="M892.526 857.222C899.554 857.222 906.523 857.433 913.483 856.294C917.765 855.593 921.577 854.464 925.951 855.1C942.455 857.501 959.302 854.79 975.822 856.957C984.716 858.123 990.224 853.831 998.105 850.06C1016.32 841.34 1048.75 837.275 1069.2 844.091" stroke="#060606" stroke-width="5" stroke-linecap="round"/>
<path d="M1045.28 592.008C1045.28 618.66 1068.55 632.541 1089.84 639.636" stroke="#060606" stroke-width="5" stroke-linecap="round"/>
<path d="M900.862 585.862C900.862 593.85 894.515 604.131 888.229 608.908C877.201 617.29 871.336 631.788 860.147 640.49C855.066 644.442 845.635 648.623 842.479 654.147C839.561 659.253 836.07 662.682 830.188 662.682" stroke="#060606" stroke-width="5" stroke-linecap="round"/>
<path d="M943.881 544.38C943.881 569.133 941.597 595.55 945.759 620.005C949.853 644.054 949.152 666.879 941.15 689.996C935.817 705.401 921.184 694.667 911.958 702.97C907.771 706.739 898.797 709.832 896.253 714.92" stroke="#060606" stroke-width="5" stroke-linecap="round"/>
<path d="M1000.73 541.307C1000.73 555.039 997.153 573.14 1002.61 585.862C1007.51 597.299 1007.15 610.619 1008.5 622.736C1009.87 635.105 1010.87 648.028 1013.1 660.292C1014.61 668.586 1016.09 681.114 1019.51 688.801C1021.39 693.033 1021.51 687.86 1022.15 684.96C1022.78 682.112 1024.92 680.203 1027.19 678.388C1034.61 672.453 1043.68 679.519 1049.12 684.96C1053.65 689.484 1060.92 692.685 1064.06 698.019C1065 699.608 1067.12 699.462 1067.99 701.092C1068.88 702.769 1068.12 704.71 1069.1 706.47C1071.96 711.619 1071.4 721.278 1071.4 727.211C1071.4 730.186 1072.13 734.254 1071.32 737.112C1070.79 738.958 1061.37 739.18 1059.79 739.844C1054.35 742.134 1042.46 743.296 1040.76 735.661C1037.24 719.838 1008.31 733.205 1004.14 742.575C1000.12 751.632 1004.39 758.76 991.509 759.475C986.763 759.739 983.139 762.548 977.767 762.548C971.686 762.548 967.845 757.515 963.342 754.013C960.653 751.921 958.112 752.53 955.404 751.025C947.376 746.565 937.093 741.039 927.749 741.039C922.737 741.039 909.554 739.018 907.007 744.111" stroke="#060606" stroke-width="5" stroke-linecap="round"/>
<path d="M913.431 471.513V496.619" stroke="#060606" stroke-width="5" stroke-linecap="round"/>
<path d="M901.924 469.421V500.804" stroke="#060606" stroke-width="5" stroke-linecap="round"/>
<path d="M889.371 465.236V494.527" stroke="#060606" stroke-width="5" stroke-linecap="round"/>
<path d="M875.772 462.099V491.389" stroke="#060606" stroke-width="5" stroke-linecap="round"/>
<path d="M861.126 463.145V486.159" stroke="#060606" stroke-width="5" stroke-linecap="round"/>
<path d="M843.343 460.006V487.204" stroke="#060606" stroke-width="5" stroke-linecap="round"/>
<path d="M829.744 460.006C829.744 469.479 830.821 480.866 826.605 489.296" stroke="#060606" stroke-width="5" stroke-linecap="round"/>
<path d="M808.822 456.868V502.896" stroke="#060606" stroke-width="5" stroke-linecap="round"/>
<path d="M815.099 462.099V496.62" stroke="#060606" stroke-width="5" stroke-linecap="round"/>
<path d="M796.269 467.329V511.265" stroke="#060606" stroke-width="5" stroke-linecap="round"/>
<path d="M783.716 477.79V508.127" stroke="#060606" stroke-width="5" stroke-linecap="round"/>
<path d="M772.209 481.974V519.633" stroke="#060606" stroke-width="5" stroke-linecap="round"/>
<path d="M759.656 496.619C759.656 508.53 760.702 520.493 760.702 532.186" stroke="#060606" stroke-width="5" stroke-linecap="round"/>
<path d="M748.148 518.587V538.463" stroke="#060606" stroke-width="5" stroke-linecap="round"/>
<path d="M889.882 558.262C889.51 568.291 877.54 567.369 869.917 567.369C867.248 567.369 864.772 568.069 862.25 568.069C853.333 568.069 844.706 568.77 835.786 568.77C832.827 568.77 827.865 569.414 825.434 567.33C823.239 565.449 820.933 563.701 818.428 562.31C816.561 561.272 815.913 560.195 813.914 559.624C811.775 559.013 809.743 557.112 808.621 555.149C807.545 553.266 806.841 551.213 805.975 549.155C804.357 545.313 815.254 542.362 817.417 540.632C820.12 538.47 821.26 535.889 824.967 535.301C827.796 534.852 830.824 535.145 833.684 535.145C838.367 535.145 843.05 535.145 847.734 535.145C850.27 535.145 851.937 536.429 854.155 536.546C857.196 536.706 860.142 536.308 863.106 537.247C865.26 537.929 866.731 539.562 867.815 541.489C869.277 544.088 870.551 543.375 873.38 543.94C878.165 544.897 881.749 548.549 884.978 551.957C886.487 553.55 889.625 554.246 890.582 556.161" stroke="#060606" stroke-width="5" stroke-linecap="round"/>
<path d="M847.149 535.846C847.149 539.541 847.858 546.362 845.204 549.311C843.638 551.05 843.825 552.243 841.545 553.709C837.864 556.075 831.017 558.531 826.795 557.212C819.984 555.083 809.321 552.746 809.321 544.252" stroke="#060606" stroke-width="5" stroke-linecap="round"/>
<path d="M835.241 537.246C833.777 537.246 838.564 536.756 839.6 537.791C840.314 538.505 841.27 540.737 841.507 541.8C842.175 544.807 844.46 548.455 839.794 548.455C836.61 548.455 834.67 548.792 832.595 546.198C829.609 542.466 831.84 537.145 834.54 534.444" stroke="#060606" stroke-width="5" stroke-linecap="round"/>
<path d="M779.899 557.562C784.607 547.539 789.228 542.39 798.813 537.597C806.021 533.994 809.436 525.555 816.249 520.824C821.163 517.411 825.58 516.913 831.427 518.333C834.597 519.103 837.867 519.561 841 520.434C842.985 520.987 845.247 522.474 847.305 522.536C853.825 522.733 860.172 522.55 866.647 523.198C871.144 523.647 874.914 526.224 878.712 528.49C884.366 531.865 890.458 534.78 896.731 536.819C902.436 538.673 902.957 544.202 906.538 548.844C907.601 550.222 909.168 553.359 910.897 553.359" stroke="#060606" stroke-width="5" stroke-linecap="round"/>
<path d="M1054.14 557.298C1056.51 559.273 1058.75 559.665 1061.64 559.916C1066.54 560.342 1069.8 563.108 1074.77 563.108C1081.52 563.108 1088.13 563.968 1094.85 564.363C1102.21 564.796 1109.67 562.462 1117.12 562.462C1120.35 562.462 1123.72 563.632 1126.88 562.749C1131.63 561.418 1136.41 560.304 1141.22 559.235C1143.03 558.832 1144.86 558.384 1146.53 557.549C1148.03 556.796 1152.58 555.619 1153.56 554.393C1155.17 552.378 1141.99 545.596 1140.43 544.674C1133.62 540.63 1125.63 538.657 1118.13 536.281C1114.78 535.222 1111.55 534.06 1108.51 532.265C1107.34 531.567 1106.17 530.037 1104.86 529.683C1099.71 528.292 1091.09 529.091 1086.28 530.902C1076.96 534.41 1072.24 540.43 1063.97 545.391C1060.82 547.279 1056.73 548.597 1056.73 552.779" stroke="#060606" stroke-width="5" stroke-linecap="round"/>
<path d="M1068.35 536.64C1068.61 539.308 1069.92 541.509 1071.29 543.741C1072.19 545.223 1075.59 549.998 1077.13 550.161C1081.68 550.639 1087.4 550.907 1091.59 549.049C1095.46 547.327 1098.35 543.88 1100.34 540.191C1102.28 536.575 1105.79 533.852 1105.79 529.539" stroke="#060606" stroke-width="5" stroke-linecap="round"/>
<path d="M1095.46 531.476C1095.46 534.258 1095.61 537.09 1095.46 539.868C1095.12 545.991 1087.74 546.413 1083.19 546.323C1079.71 546.255 1079.97 543.577 1079.97 540.836C1079.97 537.171 1082.22 536.716 1083.7 534.058C1085.3 531.169 1091.22 532.121 1094.17 532.121" stroke="#060606" stroke-width="5" stroke-linecap="round"/>
<path d="M1032.84 554.715C1033.76 550.109 1037.29 545.487 1040.23 541.983C1043.35 538.265 1048.47 536.602 1051.31 532.945C1058.49 523.713 1068.49 520.848 1078.96 517.273C1091.44 513.011 1104.4 514.691 1117.26 514.691C1123.58 514.691 1130.49 513.868 1136.7 515.121C1140.89 515.965 1146.29 516.825 1150.26 518.349C1155.41 520.324 1157.99 525.46 1161.95 528.857C1164.38 530.936 1167.52 532.507 1170.13 534.416C1172.48 536.142 1174.26 537.742 1176.15 539.867C1177.48 541.359 1177.76 543.304 1179.38 544.386" stroke="#060606" stroke-width="5" stroke-linecap="round"/>
<path d="M1020.57 463.692C1020.57 474.59 1020.66 485.133 1021.87 495.97" stroke="#060606" stroke-width="5" stroke-linecap="round"/>
<path d="M1028.97 466.274C1028.97 474.249 1028.07 483.071 1029.61 490.805" stroke="#060606" stroke-width="5" stroke-linecap="round"/>
<path d="M1036.71 464.338V490.806" stroke="#060606" stroke-width="5" stroke-linecap="round"/>
<path d="M1047.04 458.528V492.097" stroke="#060606" stroke-width="5" stroke-linecap="round"/>
<path d="M1061.89 454.654V487.578" stroke="#060606" stroke-width="5" stroke-linecap="round"/>
<path d="M1071.57 455.3V484.995" stroke="#060606" stroke-width="5" stroke-linecap="round"/>
<path d="M1079.32 452.072C1079.32 459.472 1079.32 466.872 1079.32 474.272C1079.32 476.616 1078.96 479.117 1079.97 481.122" stroke="#060606" stroke-width="5" stroke-linecap="round"/>
<path d="M1089 452.072V476.603" stroke="#060606" stroke-width="5" stroke-linecap="round"/>
<path d="M1098.04 452.718V484.35" stroke="#060606" stroke-width="5" stroke-linecap="round"/>
<path d="M1108.37 454.654V476.603" stroke="#060606" stroke-width="5" stroke-linecap="round"/>
<path d="M1121.93 460.465V479.831" stroke="#060606" stroke-width="5" stroke-linecap="round"/>
<path d="M1133.55 464.338V484.35" stroke="#060606" stroke-width="5" stroke-linecap="round"/>
<path d="M1145.17 468.211V485.641" stroke="#060606" stroke-width="5" stroke-linecap="round"/>
<path d="M1154.2 470.793V483.058" stroke="#060606" stroke-width="5" stroke-linecap="round"/>
<path d="M1162.6 475.312V486.287" stroke="#060606" stroke-width="5" stroke-linecap="round"/>
<path d="M1169.7 477.249V490.16" stroke="#060606" stroke-width="5" stroke-linecap="round"/>
<path d="M1180.67 480.477V493.388" stroke="#060606" stroke-width="5" stroke-linecap="round"/>
<path d="M1185.84 486.287V500.489" stroke="#060606" stroke-width="5" stroke-linecap="round"/>
<path d="M1192.29 495.324V505.008" stroke="#060606" stroke-width="5" stroke-linecap="round"/>
<path d="M1198.1 499.197V506.944" stroke="#060606" stroke-width="5" stroke-linecap="round"/>
<path d="M395.395 519.536C397.811 517.986 400.579 516.326 403.281 515.319C414.138 511.266 424.5 516.476 433.524 520.218C435.922 519.907 439.807 519.829 442.009 518.876C446.657 516.863 451.564 508.944 456.32 505.705C462.92 501.208 472.461 499.87 479.474 502.278C483.54 503.672 487.84 506.412 492.084 507.207C495.281 507.805 498.82 506.127 502.006 506.713C504.054 507.092 505.342 508.092 506.159 509.856C507.06 511.805 506.344 513.813 505.378 515.761C504.009 516.799 502.651 517.697 501.009 518.277C491.799 521.522 483.357 517.844 475.689 514.437C462.512 509.381 457.138 524.483 446.281 529.396C436.185 533.964 429.725 532.845 420.639 528.978C416.877 527.376 412.754 525.413 408.243 526.362C402.59 527.552 397.727 534.197 393.613 537.904C390.059 541.104 385.792 543.244 381.14 544.339C377.732 545.141 372.311 545.962 369.542 544.083C367.14 542.454 367.144 540.75 367.103 538.133C367.821 536.8 368.58 535.051 369.851 534.074C372.059 532.375 377.775 533.207 380.514 533.221L395.395 519.536Z" fill="#020103"/>
<path d="M401.014 276.349C403.852 275.916 407.056 275.527 409.934 275.706C421.5 276.42 428.846 285.396 435.566 292.485C437.884 293.178 441.464 294.686 443.864 294.712C448.929 294.764 456.633 289.527 462.295 288.503C470.154 287.081 479.414 289.74 484.841 294.793C487.988 297.721 490.801 301.973 494.354 304.427C497.031 306.273 500.947 306.181 503.619 308.012C505.336 309.192 506.105 310.628 506.134 312.573C506.164 314.72 504.693 316.263 503.018 317.65C501.345 318.04 499.739 318.308 498.004 318.17C488.269 317.387 482.055 310.593 476.436 304.36C466.456 294.381 455.403 305.99 443.486 306.06C432.405 306.125 426.959 302.475 420.233 295.246C417.448 292.252 414.48 288.78 409.973 287.813C404.325 286.599 397.179 290.691 391.912 292.403C387.364 293.881 382.596 294.099 377.901 293.207C374.461 292.553 369.175 291.097 367.41 288.255C365.878 285.788 366.575 284.234 367.603 281.827C368.801 280.901 370.206 279.612 371.764 279.237C374.473 278.583 379.356 281.669 381.852 282.796L401.014 276.349Z" fill="#020103"/>
<path d="M490.198 67.3187C492.715 68.6979 495.497 70.3342 497.675 72.2243C506.431 79.8162 506.816 91.4079 507.85 101.122C509.271 103.079 511.199 106.452 513.09 107.93C517.082 111.047 526.384 111.565 531.504 114.19C538.612 117.833 544.353 125.569 545.597 132.879C546.318 137.116 545.971 142.203 547.304 146.31C548.31 149.402 551.477 151.707 552.487 154.785C553.135 156.765 552.874 158.373 551.716 159.936C550.436 161.659 548.33 161.992 546.157 162.077C544.591 161.371 543.152 160.609 541.857 159.445C534.599 152.911 533.788 143.74 533.109 135.376C531.24 121.387 515.409 123.897 505.898 116.716C497.055 110.038 494.945 103.831 493.991 94.0029C493.597 89.933 493.347 85.3726 490.354 81.8669C486.604 77.4731 478.442 76.3837 473.218 74.5458C468.707 72.9578 464.786 70.2356 461.597 66.6753C459.262 64.0673 455.946 59.6998 456.27 56.3697C456.551 53.4805 458.049 52.6684 460.327 51.3806C461.841 51.3723 463.74 51.2015 465.206 51.8497C467.755 52.9755 469.761 58.3921 471.059 60.8039L490.198 67.3187Z" fill="#020103"/>
</g>
<defs>
<clipPath id="clip0_26_5">
<rect width="1920" height="1080" fill="white"/>
</clipPath>
</defs>
</svg>
