<svg width="1920" height="1080" viewBox="0 0 1920 1080" fill="none" xmlns="http://www.w3.org/2000/svg">
<path d="M897.743 1023.51C879.298 1021.78 863.222 1011.51 846.643 1004.17C834.69 998.873 825.54 1000.63 819.898 989.125C810.693 970.345 792.9 955.914 778.111 941.367C767.743 931.17 755.372 921.295 743.964 912.235C736.391 906.221 734.664 896.563 730.592 888.117C726.712 880.07 722.449 870.855 721.518 861.851C720.186 848.976 708.023 834.861 702.295 823.406C692.258 803.33 693.579 775.024 693.579 752.844C693.579 714.628 684.983 677.668 684.983 639.3C684.983 626.574 685.84 602.413 680.685 590.587C673.646 574.44 669.939 559.478 669.939 542.113C669.939 538.147 671.543 537.96 673.76 535.188C676.401 531.887 675.819 523.425 678.536 518.951C685.087 508.16 685.128 494.163 691.43 483.132C699.254 469.441 693.579 438.679 693.579 422.719C693.579 402.378 694.413 382.586 697.878 362.664C699.254 354.751 699.165 335.157 706.474 331.502" stroke="#060606" stroke-width="5" stroke-linecap="round"/>
<path d="M699.357 346.891C701.652 331.592 719.193 314.226 734.242 311.539C742.635 310.04 750.655 306.89 759.004 305.154C768.324 303.215 777.589 303.624 787.036 303.441C793.402 303.317 794.35 299.75 799.806 298.457C807.262 296.692 816.154 297.253 823.789 296.744C838.815 295.743 856.506 295.973 871.132 292.072C874.963 291.051 878.279 288.322 882.189 287.167C893.648 283.781 905.19 281.485 916.996 279.691C928.133 278 943.286 275.812 954.45 278.913C964.269 281.64 976.669 279.614 986.765 279.614C999.735 279.614 1012.68 280.703 1025.46 283.04C1035.58 284.888 1043.13 289.425 1053.34 289.425C1066.94 289.425 1080.09 292.062 1093.52 292.228C1111.69 292.452 1131.12 292.356 1146.47 303.519C1150.59 306.518 1154.69 309.802 1157.61 314.031C1160.55 318.308 1162.13 325.326 1167.11 327.735C1171.57 329.897 1177.3 331.473 1182.29 331.473C1187.13 331.473 1194.11 331.527 1197.94 334.977C1200.2 337.012 1197.83 339.883 1202.53 339.883" stroke="#060606" stroke-width="5" stroke-linecap="round"/>
<path d="M1202.53 339.883C1202.53 351.134 1206.63 362.241 1211.57 372.12C1214.94 378.869 1218.77 385.507 1222 392.365C1225.71 400.223 1230.32 408.14 1230.57 416.971C1230.8 425.681 1232.2 434.243 1234.07 442.745C1236.79 455.132 1238.2 468.689 1243.88 480.044C1247.7 487.682 1246.79 494.906 1249.49 502.469C1251.55 508.238 1251.59 515.631 1251.59 521.78C1251.59 535.341 1248.33 548.9 1246.76 562.349C1245.39 574.082 1246.02 587.449 1242.87 598.869C1241.31 604.517 1239.55 615.623 1242.48 620.905C1243.8 623.285 1245.82 625.723 1245.98 628.614C1246.37 635.578 1245.98 642.66 1245.98 649.638C1245.98 658.779 1244.58 667.474 1244.58 676.346C1244.58 695.402 1234.77 713.593 1234.77 733.034C1234.77 741.567 1232.97 748.42 1234.85 756.861C1236.38 763.748 1236.17 770.545 1236.17 777.807C1236.17 783.98 1235.42 789.563 1234.77 795.405C1233.98 802.555 1224.96 806.595 1224.96 813.626C1224.96 819.664 1222.82 849.034 1217.95 851.47" stroke="#060606" stroke-width="5" stroke-linecap="round"/>
<path d="M1217.95 850.068C1217.95 869.086 1209.38 883.619 1194.9 895.465C1190.49 899.077 1187.39 906.403 1185.09 911.661C1180.17 922.919 1170.2 930.364 1161.58 938.681C1152.24 947.686 1142.04 953.932 1136.04 965.623C1133.57 970.426 1127.22 976.772 1122.64 979.717C1118.81 982.183 1116.09 987.069 1112.13 988.828C1094.29 996.755 1084.15 1012.68 1066.5 1020.99C1056.86 1025.52 1048.07 1025.37 1038.55 1028.77C1029.43 1032.03 1015.26 1035.08 1005.69 1035.08C990.027 1035.08 974.649 1036.48 959.356 1036.48C949.794 1036.48 943.225 1035.4 934.205 1033.76C931.936 1033.34 929.75 1030.99 927.82 1030.88C925.12 1030.72 922.612 1031.47 920.5 1029.79C919.128 1028.69 914.818 1029.47 913.103 1029.47C910.757 1029.47 908.53 1027.29 906.095 1026.75C900.842 1025.58 894.518 1024.47 889.977 1021.06" stroke="#060606" stroke-width="5" stroke-linecap="round"/>
<path d="M679.454 691.4C678.887 687.008 676.091 683.676 673.736 680.144C672.823 678.774 670.642 676.221 670.127 674.677C667.991 668.268 669.048 661.031 667.233 654.453C666.691 652.488 665.852 650.386 665.339 648.593C663.447 641.969 665.921 632.91 669.449 627.368C670.812 625.225 671.055 622.673 673.665 621.436C676.098 620.283 679.349 618.413 679.454 623.008C679.57 628.113 677.345 631.869 676.095 636.729C675.455 639.216 673.665 641.936 673.665 644.448" stroke="#060606" stroke-width="5" stroke-linecap="round"/>
<path d="M659.515 702.334C656.712 698.811 654.129 695.758 650.796 692.829C649.074 691.316 649.275 687.119 648.723 685.04C647.133 679.043 646.066 673.314 645.4 667.102C644.493 658.631 644.599 650.602 641.863 642.554C640.714 639.175 639.899 635.662 638.933 632.227C638.151 629.448 635.985 626.039 635.717 623.223C634.974 615.428 635.074 607.263 635.074 599.425C635.074 593.152 634.431 587.037 634.431 580.773C634.431 578.507 633.654 574.481 634.573 572.412C634.913 571.647 634.854 569.246 635.717 569.196C638.803 569.014 641.887 568.16 645.007 567.945C651.284 567.512 653.701 569.517 655.155 575.77C655.846 578.743 660.26 581.131 662.194 583.453C665.522 587.446 667.531 591.017 669.805 595.566" stroke="#060606" stroke-width="5" stroke-linecap="round"/>
<path d="M671.735 552.473C667.416 552.041 662.074 546.385 659.157 543.468C655.099 539.41 648.664 537.283 643.114 536.429C640.026 535.954 637.31 536.31 634.752 537.966C632.72 539.281 630.202 539.763 628.142 541.039C625.932 542.407 624.332 546.228 622.854 548.257C619.726 552.549 618.013 557.383 616.136 562.299C614.776 565.86 612.835 569.092 611.634 572.697C609.339 579.58 608.376 587.47 610.312 594.565C611.207 597.85 611.529 600.896 612.062 604.213C612.467 606.73 612.558 611.229 613.849 613.432C616.574 618.08 617.774 622.596 619.28 627.761C620.925 633.399 618.837 639.824 619.781 645.591C620.305 648.794 621.221 652.236 621.924 655.453C623.943 664.683 625.656 673.52 629.786 682.109C631.029 684.695 630.887 687.749 631.929 690.471C633.736 695.189 636.279 699.595 638.147 704.263C639.649 708.017 641.287 711.684 642.792 715.447C645.078 721.162 648.987 722.509 653.047 726.882C658.736 733.009 662.577 741.383 665.947 748.964C666.6 750.434 671.582 753.336 673.164 754.431C677.325 757.312 681.801 758.29 686.814 758.29C688.759 758.29 692.902 758.465 693.603 756.361" stroke="#060606" stroke-width="5" stroke-linecap="round"/>
<path d="M671.411 538.78C670.176 523.963 658.668 510.855 658.122 495.848C657.905 489.879 657.1 484.037 657.1 478.016C657.1 473.239 652.584 471.008 649.831 467.567C643.099 459.153 640.745 451.266 640.745 440.65C640.745 437.318 641.767 434.062 641.767 430.939C641.767 429.289 641.995 428.574 642.789 427.134C644.941 423.234 642.348 419.125 641.881 415.151C640.867 406.538 637.659 398.222 634.612 390.335C633.237 386.775 631.545 383.697 631.545 379.886C631.545 376.456 630.855 361.94 635.123 361.94C639.135 361.94 634.065 357.581 632.34 355.58C629.257 352.003 627.33 346.443 626.207 341.951C623.587 331.47 625.412 322.826 625.412 312.421C625.412 309.331 624.854 308.556 627.684 307.537C631.276 306.244 629.132 300.214 628.479 297.599C626.857 291.112 618.972 287.162 615.985 281.187C614.377 277.97 614.849 272.498 615.247 268.921C615.594 265.796 620.454 263.936 618.711 261.197C613.049 252.3 612.909 247.643 613.146 237.005C613.404 225.388 621.292 226.689 626.945 233.598C627.881 234.742 631.545 236.35 631.545 234.961C631.545 226.37 629.801 217.897 628.706 209.406C627.451 199.678 624.434 184.122 629.955 175.447C633.884 169.272 638.416 165.821 644.834 162.612" stroke="#060606" stroke-width="5" stroke-linecap="round"/>
<path d="M642.789 163.634C649.822 163.634 647.9 158.758 647.9 152.901C647.9 145.606 647.371 141.347 653.806 137.057C658.723 133.779 662.549 133.99 668.344 133.99C674.783 133.99 672.145 133.561 674.136 128.311C676.019 123.347 681.44 119.269 682.598 114.057C683.76 108.829 684.816 107.815 689.81 105.596C694.874 103.345 693.965 112.268 696.454 104.801C697.823 100.695 695.316 96.448 700.032 94.3518C705.029 92.1309 715.181 98.078 715.365 89.8087C715.447 86.1245 713.518 74.2981 717.977 71.75C724.767 67.87 733.317 69.464 739.784 72.9993C742.261 74.3536 743.426 77.0515 744.498 73.624C745.525 70.3366 745.009 66.4536 745.009 63.0613C745.009 58.7727 743.99 52.7288 745.52 48.7506C747.565 43.4329 751.484 52.2032 753.186 53.0097C757.384 54.998 763.829 52.5897 768.462 53.748C770.708 54.3093 772.87 54.259 775.163 54.259C780.445 54.259 785.726 54.259 791.007 54.259C792.06 54.259 796.073 54.872 796.913 54.0319C798.63 52.3158 795.284 47.1037 799.185 47.1037" stroke="#060606" stroke-width="5" stroke-linecap="round"/>
<path d="M795.096 53.2372C796.575 49.5386 800.884 49.6017 802.024 46.309C804.623 38.8003 809.259 31.6231 815.994 26.7737C823.211 21.5772 822.01 23.1488 827.806 29.6131C830.785 32.9357 839.91 32.7933 844.104 32.7933C848.269 32.7933 850.232 28.8657 852.793 25.6947C856.501 21.1043 858.018 20.9815 863.583 23.3664C869.231 25.787 871.516 25.8991 876.871 22.7985C885.105 18.0319 884.548 11.8356 895.612 11.384C905.405 10.9842 909.981 13.0014 917.305 18.9937C919.364 20.6784 921.505 21.6801 923.381 23.1392C926.333 25.4347 925.626 26.625 927.981 22.7985C929.948 19.6019 930.264 18.1668 934.058 16.7789C941.783 13.9524 949.45 9.63744 957.625 8.2606C965.819 6.88058 980.31 4.83311 982.953 15.6431C983.998 19.9195 985.327 25.6309 989.313 28.1934C996.085 32.5471 1000.18 26.0102 1004.76 21.4356C1010.56 15.6347 1013.24 10.9107 1022.02 10.3618C1025.51 10.1436 1029.28 9.69853 1032.25 11.5543C1039.38 16.013 1031.91 32.2637 1041.44 32.7933C1045.85 33.0379 1050 33.8155 1054.51 33.8155C1060.47 33.8155 1061.03 32.6821 1066.15 29.6699C1072.01 26.2189 1074.03 24.937 1077.45 30.7489C1079.04 33.4572 1082.15 34.2168 1083.87 36.8821C1085.04 38.704 1086.76 40.3044 1089.03 39.8919C1094.13 38.9654 1098.48 37.9043 1103.8 37.9043C1109.89 37.9043 1114.44 38.0439 1120.15 39.9487" stroke="#060606" stroke-width="5" stroke-linecap="round"/>
<path d="M1119.13 45.0594C1119.13 46.3745 1118.34 51.0665 1119.36 51.9876C1120.19 52.7314 1127.94 52.8128 1128.27 51.6469C1129.51 47.3302 1135.43 38.0176 1140.09 38.0176C1142.44 38.0176 1145.96 47.4652 1146.73 49.1482C1148.03 51.9891 1147.23 55.0746 1148.78 57.78C1149.28 58.662 1153.86 58.872 1154.91 59.143C1159.9 60.4256 1164.91 62.9718 1169.67 59.938C1175.41 56.2909 1175.67 60.0147 1177.91 64.9354C1181.3 72.3918 1189.17 72.7539 1194.77 77.7696C1197.8 80.4754 1200.32 80.6884 1202.44 84.925C1203.45 86.9338 1204.93 90.2132 1206.25 91.8532C1207.79 93.7811 1209.26 95.6982 1210.56 97.8728C1214.02 103.671 1215.27 100.812 1220.44 102.927C1227.36 105.757 1232.63 112.783 1236.17 119.169C1239.23 124.675 1241.4 132.592 1246.11 136.83C1249.3 139.702 1255.14 136.26 1258.15 139.101C1260.46 141.285 1262.8 142.186 1263.49 145.462C1264.6 150.773 1264.28 156.123 1264.28 161.533C1264.28 173.56 1263.82 185.465 1266.33 197.31C1267.64 203.504 1269.76 210.546 1270.42 216.788C1270.88 221.189 1282.53 219.855 1285.52 219.855C1289.08 219.855 1289.75 227.828 1292.39 230.474C1295.42 233.505 1303.9 231.953 1304.15 238.482C1304.41 245.259 1307.88 262.892 1298.58 265.626C1294.09 266.949 1286.77 267.553 1286.77 273.066C1286.77 280.914 1285.79 284.277 1293.87 286.298C1300.94 288.066 1298.36 297.058 1300.29 301.63C1301.67 304.924 1299.68 303.59 1299.1 306.23C1298.33 309.655 1299.58 313.849 1300.86 316.963C1303.51 323.45 1304.88 331.062 1306.65 337.862C1306.84 338.582 1309.63 345.244 1308.01 345.244C1305.28 345.244 1302.72 340.316 1301.14 338.543C1296.03 332.792 1294.2 334.904 1287.28 336.442C1281.92 337.634 1279.91 358.694 1279.62 363.984C1279.47 366.663 1278.23 369.027 1278.65 371.764C1279.27 375.803 1283.18 381.303 1281.43 385.451C1277.41 395.008 1276.52 406.665 1271.44 415.549C1264.02 428.533 1268.77 444.291 1268.37 459.049C1268.22 464.846 1264.3 470.719 1262.75 476.312C1261.75 479.904 1261.22 482.63 1261.22 486.421C1261.22 490.076 1260.32 494.442 1259.17 497.892" stroke="#060606" stroke-width="5" stroke-linecap="round"/>
<path d="M1259.61 489.949C1259.61 492.665 1259.85 495.512 1259.57 498.219C1259.24 501.328 1256.75 503.969 1255.85 506.925C1255.05 509.551 1253.83 511.828 1252.7 514.363C1250.24 519.897 1250.95 526.561 1250.95 532.477" stroke="#060606" stroke-width="5" stroke-linecap="round"/>
<path d="M1250.95 532.477C1250.95 536.228 1263.12 534.839 1265.74 534.839C1269.96 534.839 1275.95 531.91 1279.13 529.327C1282.91 526.249 1283.89 518.474 1289.85 517.557C1292.37 517.168 1296.15 516.003 1298.64 517.163C1304.35 519.829 1308.72 526.701 1310.02 532.87C1310.8 536.62 1312.48 541.204 1314.83 544.334C1317.02 547.261 1319.15 548.657 1319.9 552.297C1321.19 558.538 1323.21 564.739 1324.02 571.067C1325.41 582.029 1324.72 594.949 1322.62 605.719C1320.86 614.716 1320.05 623.843 1318.68 632.933C1318.16 636.353 1316.41 639.752 1316.32 643.171C1316.27 644.677 1315.95 646.15 1315.13 647.459C1311.93 652.58 1312.76 660.983 1311.15 666.71C1309.37 673.062 1306.54 679.139 1304.5 685.262" stroke="#060606" stroke-width="5" stroke-linecap="round"/>
<path d="M1303.72 684.475C1303.72 692.176 1304.11 699.458 1301.53 706.701C1300.63 709.217 1298.84 711.221 1297.59 713.614C1296.19 716.284 1293.12 718.693 1290.94 720.877C1288.35 723.464 1285.4 726.119 1282.45 727.965C1279.7 729.687 1277.74 733.723 1275.36 736.103C1271.32 740.141 1268.03 742.492 1262.59 745.641C1259.29 747.552 1254.95 750.629 1250.95 750.629C1247.32 750.629 1236.62 752.518 1235.2 748.266" stroke="#060606" stroke-width="5" stroke-linecap="round"/>
<path d="M1251.74 701.013C1251.74 696.25 1252.35 694.406 1255.32 690.775C1257.38 688.26 1258.34 683.263 1260.05 680.274C1261.36 677.981 1262.79 675.766 1264.34 673.624C1266.42 670.736 1269.33 668.797 1273 668.723C1275.35 668.676 1277.75 668.891 1280.09 668.723C1284.12 668.435 1286.17 665.724 1289.19 663.998C1292.52 662.096 1293.19 653.362 1293.48 650.128C1293.83 646.156 1294.37 641.956 1295.45 638.096C1296.2 635.38 1293.92 632.508 1292.69 630.177C1290.6 626.223 1289.2 621.443 1285.56 618.714C1282.23 616.218 1279.72 613.574 1276.76 610.619C1271.48 605.335 1257.95 602.397 1253.92 610.444C1252.65 612.994 1252.52 615.293 1252.52 618.145C1252.52 621.912 1254.2 623.783 1254.84 627.333C1255.8 632.572 1255.67 637.76 1255.67 643.128C1255.67 646.278 1255.67 649.428 1255.67 652.578C1255.67 658.729 1250.95 663.721 1250.95 669.511" stroke="#060606" stroke-width="5" stroke-linecap="round"/>
<path d="M1272.21 581.305C1272.21 579.766 1297.87 582.539 1300.39 589.356C1304.9 601.547 1302.93 615.736 1302.93 628.558" stroke="#060606" stroke-width="5" stroke-linecap="round"/>
<path d="M1302.93 618.32C1302.93 606.76 1304.35 595.175 1303.67 583.624C1303.45 579.89 1302.32 576.316 1302.18 572.555C1302.06 569.232 1302.51 565.751 1302.1 562.448C1301.56 558.168 1296.54 554.024 1294.26 550.416C1292.79 548.078 1292.14 547.55 1289.71 549.978C1286.97 552.721 1284.79 555.996 1282.8 559.254C1280.3 563.352 1277.57 568.863 1274.18 572.249C1272.83 573.598 1271.46 574.944 1270.64 576.58" stroke="#060606" stroke-width="5" stroke-linecap="round"/>
<path d="M931.216 523.844C931.216 541.324 931.216 558.804 931.216 576.284C931.216 587.3 929.699 597.945 929.699 608.827C929.699 616.605 926.063 622.573 925.23 630.072C923.757 643.334 920.836 659.095 914.86 671.046C910.756 679.255 899.933 695.327 890.242 695.327" stroke="#060606" stroke-width="5" stroke-linecap="round"/>
<path d="M976.743 519.291C976.743 535.404 977.067 551.033 978.345 567.01C978.942 574.472 980.991 581.502 982.476 588.761C984.029 596.354 983.384 604.355 985.09 611.862C987.721 623.438 989.869 637.6 994.617 648.283C997.904 655.68 1001.02 667.465 1001.02 675.599" stroke="#060606" stroke-width="5" stroke-linecap="round"/>
<path d="M1001.02 674.081C1007.22 674.081 1013.55 672.563 1019.99 672.563C1022.31 672.563 1030.63 677.167 1031.29 679.477C1033.51 687.249 1037.78 694.092 1040.14 702.24C1041.68 707.54 1046.55 712.509 1046.55 718.09C1046.55 725.768 1047.58 732.027 1042.84 738.493C1036.47 747.177 1032.92 752.941 1027.67 740.938C1024.21 733.042 1021.21 727.673 1011.65 727.195C1006.11 726.919 1000.49 727.195 994.954 727.195C990.022 727.195 982.813 731.585 982.813 737.059C982.813 740.682 980.428 752.888 977.586 754.511C970.187 758.739 951.607 761.226 947.572 751.139C941.884 736.918 927.487 737.818 914.523 737.818C911.163 737.818 899.222 736.071 897.493 739.336C894.572 744.853 896.954 749.723 899.348 754.511" stroke="#060606" stroke-width="5" stroke-linecap="round"/>
<path d="M829.541 842.529C838.209 842.529 846.57 842.496 855.17 841.349C860.654 840.618 858.371 840.727 860.566 836.459C864.115 829.558 878.261 825.066 885.016 821.284C896.01 815.127 907.11 815.768 915.704 805.265C918.841 801.431 933.009 800.425 937.961 799.954C944.398 799.341 951.32 797.003 957.774 797.003C964.152 797.003 970.29 798.879 976.743 798.52C981.023 798.283 983.61 795.485 988.125 795.485C1000.58 795.485 1014.96 798.503 1026.82 801.893C1035.7 804.429 1042.58 814.776 1049.92 819.766C1054.63 822.97 1063.04 826.044 1068.56 827.27C1070.78 827.763 1078.81 832.655 1076.9 834.942C1074.89 837.354 1070.14 841.535 1066.95 842.445C1056.94 845.306 1047.52 848.6 1036.6 848.6C1008.62 848.6 981.467 854.67 953.39 854.67C943.253 854.67 933.018 851.635 922.954 851.635C913.177 851.635 902.538 852.967 892.941 851.298C877.99 848.697 861.494 848.6 846.234 848.6C842.187 848.6 838.14 848.6 834.093 848.6C824.936 848.6 828.105 849.151 834.936 851.635C841.241 853.927 850.166 854.67 856.857 854.67C869.2 854.67 878.725 859.676 889.653 865.377C895.751 868.559 901.683 869.645 906.936 874.314C911.405 878.286 916.495 879.726 922.28 880.553C929.4 881.57 936.702 884.341 943.273 887.297C947.386 889.148 952.01 888.981 955.835 891.091C971.084 899.505 993.795 894.126 1010.47 894.126C1022.61 894.126 1031.83 887.513 1041.07 879.878C1046.65 875.271 1045.9 867.748 1051.1 862.258C1058.38 854.572 1073.63 846.279 1076.9 836.459" stroke="#060606" stroke-width="5" stroke-linecap="round"/>
<path d="M897.257 590.264C897.257 594.683 897.598 600.677 893.822 603.787C889.317 607.498 884.253 610.352 879.332 613.501C871.058 618.796 862.907 624.965 854.432 629.869C847.982 633.6 839.598 639.106 832.536 641.46" stroke="#060606" stroke-width="5" stroke-linecap="round"/>
<path d="M890.495 566.115C885.737 557.075 875.652 550.438 867.795 544.327C860.155 538.385 842.926 543.538 837.366 533.808C835.697 530.887 812.828 533.272 808.602 533.272C801.95 533.272 795.442 533.448 789.282 536.169C785.636 537.78 783.509 540.975 780.374 542.717C776.326 544.965 774.835 551.208 773.612 555.489C772.714 558.63 776.382 557.421 778.925 557.421C782.203 557.421 784.928 560.319 788.155 560.319C795.126 560.319 802.331 561.824 809.246 562.734C817.084 563.765 801.899 562.783 805.006 562.305C807.693 561.891 810.677 563.566 813.217 564.183C818.774 565.532 824.71 565.339 830.39 565.9C837.697 566.622 844.939 567.081 852.285 567.081C857.698 567.081 863.013 565.441 868.278 565.149C871.967 564.944 872.823 562.308 875.04 559.353" stroke="#060606" stroke-width="5" stroke-linecap="round"/>
<path d="M830.605 527.476C830.605 530.857 830.605 534.237 830.605 537.618C830.605 540.565 828.951 541.671 828.673 543.897C828.162 547.986 821.256 552.718 817.832 553.772C814.102 554.919 810.205 553.851 806.509 555.006C802.459 556.271 797.564 555.947 794.112 553.557C788.474 549.653 789.068 542.335 789.068 536.169" stroke="#060606" stroke-width="5" stroke-linecap="round"/>
<path d="M809.353 537.135C809.353 544.634 813.456 541.346 817.51 545.399C819.283 547.172 820.734 546.795 823.36 546.795C824.549 546.795 830.843 544.478 828.136 542.931C827.12 542.35 822.963 540.77 822.877 540.033C822.512 536.938 819.072 533.539 816.866 531.554C812.584 527.699 809.095 531.855 807.421 535.203" stroke="#060606" stroke-width="5" stroke-linecap="round"/>
<path d="M903.053 471.448V498.496" stroke="#060606" stroke-width="5" stroke-linecap="round"/>
<path d="M894.359 469.517C894.359 474.964 896.248 484.376 894.144 489.373C893.323 491.322 892.427 494.401 892.427 496.564" stroke="#060606" stroke-width="5" stroke-linecap="round"/>
<path d="M885.665 466.619V491.735" stroke="#060606" stroke-width="5" stroke-linecap="round"/>
<path d="M876.972 462.755C876.972 470.765 878.612 481.984 876.006 489.802" stroke="#060606" stroke-width="5" stroke-linecap="round"/>
<path d="M872.142 462.755V487.87" stroke="#060606" stroke-width="5" stroke-linecap="round"/>
<path d="M862.481 459.857V483.041" stroke="#060606" stroke-width="5" stroke-linecap="round"/>
<path d="M849.924 458.891V480.142" stroke="#060606" stroke-width="5" stroke-linecap="round"/>
<path d="M833.503 455.993V475.313" stroke="#060606" stroke-width="5" stroke-linecap="round"/>
<path d="M838.333 458.891C838.333 462.894 837.329 483.04 839.299 483.04" stroke="#060606" stroke-width="5" stroke-linecap="round"/>
<path d="M844.128 460.823V478.211" stroke="#060606" stroke-width="5" stroke-linecap="round"/>
<path d="M819.979 452.129V478.21" stroke="#060606" stroke-width="5" stroke-linecap="round"/>
<path d="M807.421 449.231V477.245" stroke="#060606" stroke-width="5" stroke-linecap="round"/>
<path d="M827.707 454.062V474.347" stroke="#060606" stroke-width="5" stroke-linecap="round"/>
<path d="M793.897 456.959V482.074" stroke="#060606" stroke-width="5" stroke-linecap="round"/>
<path d="M798.728 452.129V479.176" stroke="#060606" stroke-width="5" stroke-linecap="round"/>
<path d="M784.237 456.959V481.108" stroke="#060606" stroke-width="5" stroke-linecap="round"/>
<path d="M771.68 467.585V484.007" stroke="#060606" stroke-width="5" stroke-linecap="round"/>
<path d="M777.476 464.687V489.802" stroke="#060606" stroke-width="5" stroke-linecap="round"/>
<path d="M761.055 477.244V499.462" stroke="#060606" stroke-width="5" stroke-linecap="round"/>
<path d="M761.055 475.312V492.7" stroke="#060606" stroke-width="5" stroke-linecap="round"/>
<path d="M753.326 488.836V509.121" stroke="#060606" stroke-width="5" stroke-linecap="round"/>
<path d="M742.701 504.292V532.305" stroke="#060606" stroke-width="5" stroke-linecap="round"/>
<path d="M747.53 499.462V520.713" stroke="#060606" stroke-width="5" stroke-linecap="round"/>
<path d="M732.075 521.68V547.761" stroke="#060606" stroke-width="5" stroke-linecap="round"/>
<path d="M1027.61 560.141C1027.61 553.385 1032.21 547.619 1035.61 541.975C1037.9 538.175 1039.13 536.949 1043.44 536.324C1046.91 535.82 1050.23 534.338 1053.69 534.023C1058.87 533.552 1063.13 530.098 1068.34 529.663C1073.63 529.223 1078.89 528.896 1084.21 528.896C1091.28 528.896 1097.71 529.101 1104.63 530.188C1110.82 531.159 1115.91 535.456 1121.99 536.808C1126.83 537.884 1130.92 541.917 1133.13 546.335C1134.06 548.179 1136.07 548.989 1136.65 551.018C1137.14 552.746 1137.91 552.664 1135.15 552.915C1132.79 553.129 1130.69 554.38 1128.61 555.418C1124.38 557.534 1119.7 561.381 1114.81 561.594C1098.71 562.294 1082.92 565.227 1066.89 565.227C1059.83 565.227 1051.83 565.654 1045.62 561.594C1041.02 558.588 1036.45 555.336 1031.25 553.601" stroke="#060606" stroke-width="5" stroke-linecap="round"/>
<path d="M1049.41 534.708C1049.41 539.828 1049.27 545.395 1054.82 547.384C1059.69 549.131 1062.87 551.42 1068.1 551.42C1072.71 551.42 1078.56 551.93 1082.67 549.241C1086.15 546.968 1086.34 541.097 1088.08 537.615C1089.67 534.443 1090.83 530.246 1090.83 526.716" stroke="#060606" stroke-width="5" stroke-linecap="round"/>
<path d="M1075.57 531.076C1075.57 535.858 1071.99 539.234 1069.19 543.106C1067.73 545.125 1066.5 545.608 1063.94 545.608C1061.07 545.608 1060.23 541.605 1059.22 539.392C1057.37 535.321 1059.76 529.623 1064.43 529.623C1066.81 529.623 1069.19 529.623 1071.57 529.623C1074.19 529.623 1074.12 536.115 1074.12 537.616" stroke="#060606" stroke-width="5" stroke-linecap="round"/>
<path d="M1023.98 541.248C1024.46 536.503 1034.25 532.004 1038.03 530.026C1040.68 528.636 1042.6 525.647 1045.21 523.971C1049.54 521.191 1054.52 518.851 1059.26 516.866C1075.22 510.187 1091.1 517.997 1107.22 517.997C1114.56 517.997 1125.28 518.513 1130.83 524.294C1134.44 528.055 1138.43 531.122 1142.01 534.709C1145.71 538.407 1153.83 537.921 1156.22 542.701" stroke="#060606" stroke-width="5" stroke-linecap="round"/>
<path d="M993.464 477.307C993.464 485.411 993.197 494.975 1001.46 499.105" stroke="#060606" stroke-width="5" stroke-linecap="round"/>
<path d="M1002.91 475.127C1002.91 477.715 1001.37 496.925 1004.36 496.925" stroke="#060606" stroke-width="5" stroke-linecap="round"/>
<path d="M1013.81 468.588V494.746" stroke="#060606" stroke-width="5" stroke-linecap="round"/>
<path d="M1021.08 465.682V487.48" stroke="#060606" stroke-width="5" stroke-linecap="round"/>
<path d="M1031.25 461.321V486.753" stroke="#060606" stroke-width="5" stroke-linecap="round"/>
<path d="M1041.42 463.502V486.753" stroke="#060606" stroke-width="5" stroke-linecap="round"/>
<path d="M1053.77 463.502V483.12" stroke="#060606" stroke-width="5" stroke-linecap="round"/>
<path d="M1066.85 459.868V481.666" stroke="#060606" stroke-width="5" stroke-linecap="round"/>
<path d="M1075.57 454.782V485.3" stroke="#060606" stroke-width="5" stroke-linecap="round"/>
<path d="M1087.92 459.142V481.666" stroke="#060606" stroke-width="5" stroke-linecap="round"/>
<path d="M1101 454.782C1101 459.77 1102.69 468.839 1100.64 473.351C1099.37 476.137 1100.58 479.751 1098.82 482.393" stroke="#060606" stroke-width="5" stroke-linecap="round"/>
<path d="M1112.63 458.415V481.666" stroke="#060606" stroke-width="5" stroke-linecap="round"/>
<path d="M1122.8 464.229C1122.8 471.401 1120.62 478.176 1120.62 485.3" stroke="#060606" stroke-width="5" stroke-linecap="round"/>
<path d="M1130.79 464.955V482.394" stroke="#060606" stroke-width="5" stroke-linecap="round"/>
<path d="M1146.78 464.955C1146.78 472.311 1145.32 479.47 1145.32 486.753" stroke="#060606" stroke-width="5" stroke-linecap="round"/>
<path d="M1157.68 476.58V494.745" stroke="#060606" stroke-width="5" stroke-linecap="round"/>
<path d="M1170.03 486.026V502.012" stroke="#060606" stroke-width="5" stroke-linecap="round"/>
<path d="M1177.29 496.199V504.918" stroke="#060606" stroke-width="5" stroke-linecap="round"/>
<path d="M1184.56 499.832V505.645" stroke="#060606" stroke-width="5" stroke-linecap="round"/>
<path d="M1017.12 582.736C1027.77 583.919 1028.47 597.502 1033.41 603.857C1039.72 611.961 1050.55 615.602 1059.37 620.009C1069.93 625.288 1074.5 637.848 1079.25 647.342" stroke="#060606" stroke-width="5" stroke-linecap="round"/>
<path d="M549.747 467.858C551.079 466.846 552.624 465.794 554.235 465.328C560.71 463.45 568.424 469.975 575.008 474.928C576.537 475.049 579.086 475.634 580.378 475.134C583.102 474.075 585 467.651 587.588 465.488C591.181 462.484 597.247 462.872 602.28 466.263C605.197 468.228 608.496 471.465 611.429 472.911C613.638 473.998 615.689 473.06 617.889 474.136C619.304 474.829 620.322 475.962 621.159 477.716C622.083 479.654 621.95 481.373 621.643 482.994C620.915 483.713 620.171 484.306 619.187 484.56C613.661 485.976 607.472 481.179 601.839 476.761C592.294 469.902 591.303 482.828 584.973 485.493C579.087 487.971 574.638 485.853 567.992 480.775C565.24 478.672 562.189 476.176 559.375 476.283C555.848 476.417 553.764 481.682 551.677 484.382C549.875 486.713 547.422 487.952 544.539 488.169C542.428 488.327 538.991 488.162 536.847 485.974C534.987 484.075 534.702 482.514 534.233 480.111C534.481 479.011 534.686 477.537 535.359 476.857C536.528 475.673 540.438 477.402 542.247 477.878L549.747 467.858Z" fill="#020103"/>
<path d="M550.048 301.798C551.612 301.418 553.38 301.088 554.977 301.321C561.398 302.251 565.635 311.356 569.491 318.566C570.788 319.301 572.799 320.875 574.129 320.946C576.936 321.093 581.106 316.003 584.224 315.086C588.551 313.811 593.731 316.642 596.832 321.792C598.629 324.776 600.268 329.078 602.282 331.596C603.799 333.49 605.967 333.471 607.481 335.351C608.454 336.562 608.907 338.012 608.96 339.955C609.016 342.101 608.23 343.615 607.328 344.97C606.409 345.329 605.524 345.567 604.56 345.396C599.153 344.432 595.583 337.527 592.354 331.195C586.639 321.037 580.732 332.43 574.132 332.278C567.994 332.136 564.909 328.387 561.048 321.038C559.449 317.995 557.74 314.47 555.225 313.419C552.074 312.101 548.191 316.056 545.305 317.669C542.813 319.06 540.176 319.19 537.558 318.21C535.641 317.493 532.685 315.939 531.654 313.066C530.759 310.573 531.116 309.033 531.641 306.647C532.287 305.744 533.041 304.483 533.898 304.137C535.386 303.534 538.149 306.708 539.553 307.882L550.048 301.798Z" fill="#020103"/>
<path d="M574.007 121.503C575.888 122.436 577.951 123.57 579.488 125.011C585.67 130.801 584.5 141.304 584.101 150.014C585.011 151.614 586.154 154.438 587.51 155.541C590.372 157.867 597.906 157.147 601.753 158.881C607.094 161.287 610.794 167.594 610.874 174.089C610.921 177.854 609.986 182.529 610.549 186.097C610.974 188.783 613.267 190.476 613.698 193.148C613.974 194.867 613.555 196.365 612.408 197.936C611.142 199.669 609.378 200.241 607.593 200.597C606.403 200.155 605.325 199.645 604.416 198.751C599.323 193.734 599.835 185.488 600.351 177.961C600.616 165.466 587.359 169.779 580.508 164.46C574.138 159.514 573.21 154.133 573.689 145.309C573.888 141.654 574.268 137.535 572.272 134.727C569.77 131.207 563.241 131.261 559.208 130.257C555.726 129.389 552.871 127.413 550.722 124.581C549.147 122.506 546.998 118.955 547.689 115.882C548.288 113.216 549.616 112.284 551.643 110.82C552.88 110.619 554.454 110.22 555.569 110.622C557.508 111.321 558.452 115.995 559.204 118.024L574.007 121.503Z" fill="#020103"/>
</svg>
