<svg width="1920" height="1080" viewBox="0 0 1920 1080" fill="none" xmlns="http://www.w3.org/2000/svg">
<path d="M796.481 1047.19C786.336 1047.19 777.06 1045.63 767.18 1044.9C754.775 1043.98 752.68 1028.14 742.72 1024.52C726.638 1018.67 712.672 1002.08 699.66 990.374C685.894 977.985 673.335 964.044 662.205 949.734C650.843 935.126 635.202 923.533 623.476 908.458C614.614 897.063 610.149 881.337 604.367 868.328C597.152 852.094 594.685 841.145 594.685 823.611C594.685 816.971 592.392 810.059 592.392 802.973C592.392 791.024 587.905 783.302 585.003 772.016C579.747 751.579 584.336 730.299 579.142 710.101C573.409 687.806 577.345 667.269 573.919 645.001C571.485 629.179 564.874 612.224 564.874 595.954C564.874 581.998 565.662 569.394 567.295 556.333C568.519 546.537 576.34 540.9 576.34 530.727C576.34 523.66 576.275 511.173 579.779 504.865C594.823 477.788 578.431 441.458 591.245 413.267C593.441 408.436 596.978 400.066 596.978 394.795C596.978 391.359 597.874 378.434 599.781 375.812C606.826 366.125 606.151 345.967 606.151 334.026" stroke="#060606" stroke-width="5" stroke-linecap="round"/>
<path d="M606.15 334.026C627.221 333.184 634.188 311.173 654.179 308.675C696.129 303.431 740.266 306.509 782.722 306.509C805.816 306.509 828.606 301.922 852.026 301.922C872.893 301.922 894.102 300.98 914.96 302.05C948.476 303.769 980.587 307.173 1009.74 322.561C1025.58 330.918 1041.24 336.645 1059.05 338.74C1085.78 341.885 1100.4 367.357 1117.52 384.475C1121.83 388.786 1128.26 394.225 1131.28 399.508C1135.52 406.924 1134.42 413.908 1137.65 421.166C1140.24 426.998 1139.96 437.91 1141.6 444.479C1147.16 466.714 1153.56 489.426 1157.01 511.872C1158.1 518.945 1158.48 556.304 1163.38 558.754" stroke="#060606" stroke-width="5" stroke-linecap="round"/>
<path d="M1163.38 558.754C1163.38 575.367 1165.68 592.082 1165.68 608.056C1165.68 622.39 1162.16 639.532 1167.46 652.773C1172.22 664.671 1168.91 681.721 1164.53 692.903C1157.83 710.035 1154.21 722.263 1154.21 740.421C1154.21 754.335 1159.45 779.714 1153.7 792.654C1150.45 799.97 1149.46 808.469 1146.82 816.095C1144.91 821.624 1138.16 829.522 1138.16 835.077C1138.16 851.029 1130.81 866.735 1120.96 878.774C1110.49 891.565 1108.39 909.324 1100.96 923.363C1094.15 936.219 1083.88 947.23 1076.75 960.053C1073.3 966.264 1068.87 974.135 1062.49 977.889C1056.52 981.396 1040.74 987.403 1039.43 993.304C1037.75 1000.82 1022.12 1013.51 1015.35 1017.38C1000.96 1025.61 979.386 1033.79 963.88 1035.73C959.888 1036.23 955.035 1040.48 952.414 1043.75C950.655 1045.95 939.741 1047.29 936.362 1048.98C923.657 1055.33 912.532 1061.9 898.526 1058.79C884.426 1055.65 870.667 1055.39 856.23 1051.78C841.196 1048.02 828.993 1051.78 814.826 1051.78C810.141 1051.78 804.072 1047.51 801.067 1043.75C799.602 1041.92 785.433 1040.31 782.722 1040.31" stroke="#060606" stroke-width="5" stroke-linecap="round"/>
<path d="M581.086 770.725C574.547 770.725 568.009 770.725 561.47 770.725C557.895 770.725 553.528 762.045 551.096 759.566C547.236 755.632 541.214 751.741 538.368 747.187C535.994 743.389 530.813 743.455 529.388 738.469C527.647 732.376 526.535 724.082 524.245 718.069C521.541 710.973 521.802 701.586 519.886 693.92C518.206 687.201 515.113 679.58 512.039 673.433C502.281 653.916 506.771 629.503 503.409 608.659C499.676 585.518 497.167 558.598 520.67 545.54C527.137 541.948 537.727 535.208 545.778 536.997C547.686 537.421 553.964 546.105 555.978 547.894C559.508 551.032 564.727 551.269 566.963 555.74" stroke="#060606" stroke-width="5" stroke-linecap="round"/>
<path d="M544.994 588.694C541.248 588.694 532.612 576.949 530.522 573.002C525.436 563.395 512.819 561.328 512.04 574.571C511.555 582.804 507.864 594.206 511.691 602.817C515.6 611.612 512.602 624.009 515.265 633.33C517.421 640.876 516.786 649.963 520.67 656.956C524.157 663.232 521.076 674.854 523.111 681.976C524.849 688.057 526.239 702.054 531.655 706.387C537.593 711.137 544.28 715.088 549.701 720.51" stroke="#060606" stroke-width="5" stroke-linecap="round"/>
<path d="M571.67 711.094C563.795 702.235 557.924 687.776 545.865 684.33C527.947 679.211 548.633 648.538 552.84 641.176C556.372 634.995 562.811 628.783 566.614 637.34C568.079 640.638 568.139 654.123 565.742 656.52C555.905 666.357 556.415 677.445 562.255 689.125" stroke="#060606" stroke-width="5" stroke-linecap="round"/>
<path d="M563.824 541.617C557.94 534.997 551.27 530.655 551.27 521.217C551.27 512.098 554.4 497.246 548.045 489.832C543.037 483.99 532.44 473.025 532.44 465.509C532.44 461.324 532.44 457.14 532.44 452.955C532.44 445.877 535.254 440.914 535.927 434.037C536.272 430.511 539.87 417.382 535.578 414.858C532.853 413.254 531.776 411.3 529.999 408.581C526.894 403.832 525.678 399.295 523.373 394.109C521.595 390.108 521.455 383.077 521.455 378.765C521.455 369.739 518.315 364.377 515.178 355.75C512.063 347.185 513.609 336.586 513.609 327.416C513.609 318.287 525.302 314.234 520.234 304.663C515.26 295.266 507.653 288.689 507.332 277.114C507.036 266.466 504.193 257.884 504.193 247.386C504.193 234.489 522.839 245.918 521.368 235.616C519.869 225.124 512.04 216.305 512.04 205.016C512.04 195.294 516.998 193.954 521.106 186.97C522.652 184.342 524.365 182.44 527.732 182.262C532.661 182.003 530.81 175.376 530.87 171.626C531.016 162.625 534.401 154.104 538.368 146.17C541.957 138.991 546.298 138.712 554.234 140.765C560.355 142.348 561.622 136.218 563.824 131.262C567.275 123.497 571.856 114.785 581.086 114.785C588.002 114.785 588.194 114.859 591.286 109.293C593.806 104.757 593.746 102.231 599.917 102.231" stroke="#060606" stroke-width="5" stroke-linecap="round"/>
<path d="M596.778 110.078C596.778 107.186 594.987 97.5245 599.132 97.5245C603.699 97.5245 608.294 96.889 612.47 98.745C627.41 105.385 622.933 66.488 634.44 60.7347C646.164 54.8726 656.824 61.4322 668.614 61.4322C674.746 61.4322 680.877 61.4322 687.009 61.4322C697.413 61.4322 698.921 53.3387 705.753 47.4834C711.953 42.1689 718.618 36.3244 727.373 36.3244C732.904 36.3244 735.861 43.2171 740.276 45.7398C745.998 49.0095 751.434 50.4475 758.409 50.4475C767.18 50.4475 764.489 45.5942 769.394 39.4629C772.622 35.4275 773.524 25.2066 779.594 23.8577C788.711 21.8316 794.981 25.9628 801.476 31.5296C804.666 34.2637 806.932 39.7255 813.332 38.7655C823.097 37.3007 831.265 11.8877 843.148 23.7706C844.395 25.0175 847.652 31.2223 848.727 31.5296C854.232 33.1022 862.984 32.9852 868.604 33.186C880.328 33.6047 887.065 32.464 894.061 22.2885C898.456 15.8956 898.104 34.4681 900.425 36.3244C903.569 38.8401 905.67 36.2871 909.055 34.4065C914.21 31.5429 917.85 27.2375 924.748 26.909C931.034 26.6097 940.01 30.6107 942.009 37.109C944.422 44.9513 948.089 44.1706 955.348 44.1706C959.447 44.1706 962.868 42.6014 967.117 42.6014C971.789 42.6014 977.113 44.4395 981.327 43.386C989.358 41.3782 995.457 43.9763 1001.29 49.227C1003.91 51.5792 1004.57 55.8182 1006.7 57.945C1008.77 60.0142 1013.79 52.6423 1014.89 51.2321C1018.21 46.9658 1023.04 46.2084 1028.32 48.0937C1041.09 52.654 1040.87 58.4708 1040.87 70.8476" stroke="#060606" stroke-width="5" stroke-linecap="round"/>
<path d="M1039.3 66.1392C1039.53 64.3517 1048.96 63.6266 1051.16 62.8264C1059.58 59.7636 1062.6 52.1049 1067.55 64.9187C1069.54 70.0826 1068.75 84.7165 1073.91 78.6931C1079.32 72.3841 1086.25 72.6285 1091.87 77.1239C1095.2 79.7886 1100.24 91.6063 1101.72 95.6059C1104.15 102.154 1110.41 105.999 1113.4 111.647C1114.98 114.619 1119.8 130.68 1125.61 123.416C1127.92 120.523 1137.84 117.123 1141.3 116.355C1145.1 115.511 1148.39 114.785 1152.29 114.785C1160.54 114.785 1158.51 133.321 1158.56 138.498C1158.63 144.976 1156.93 152.699 1161 157.939C1166.61 165.144 1176.96 164.372 1181.75 172.847C1184.12 177.034 1185.79 190.664 1182.1 194.816C1170.62 207.729 1181.49 223.574 1187.51 235.616C1195.41 251.419 1201.52 234.692 1213.49 240.673C1218.78 243.319 1217.91 262.771 1215.84 268.57C1213.62 274.791 1208.94 281.875 1208.78 288.622C1208.52 299.709 1208.78 310.833 1208.78 321.924C1208.78 333.168 1213.33 342.96 1211.83 354.965C1210.91 362.295 1202.91 368.024 1202.5 375.278C1202.19 380.942 1198.89 388.892 1196.57 394.109C1190.39 408.017 1196.31 426.094 1189.95 440.401C1186.88 447.305 1185.43 454.891 1182.45 461.586C1180.87 465.134 1178.96 470.896 1178.96 474.924C1178.96 485.038 1171.65 494.4 1171.12 503.955C1170.07 522.873 1164.84 539.507 1164.84 558.878" stroke="#060606" stroke-width="5" stroke-linecap="round"/>
<path d="M1165.54 551.19C1165.54 554.857 1166.25 560.476 1171.07 560.476C1177.07 560.476 1178.38 551.48 1183.69 550.299C1186.06 549.772 1188.24 547.568 1190.49 546.547C1193.69 545.094 1197.52 544.437 1201 544.437C1208.3 544.437 1214.36 544.296 1219.94 549.877C1223.02 552.95 1226.32 561.58 1226.32 565.963C1226.32 569.882 1228.85 573.443 1228.85 577.359C1228.85 581.721 1228.85 586.082 1228.85 590.444C1228.85 597.463 1228.85 604.482 1228.85 611.501C1228.85 617.585 1228.51 623.74 1227.96 629.791C1227.57 634.149 1225.24 638.085 1224.26 642.313C1223.5 645.538 1223.34 648.924 1222.1 652.021C1219.21 659.236 1217.59 666.663 1216 674.25C1214.03 683.7 1217.08 695.069 1212.63 703.983C1211.46 706.321 1209.85 708.32 1208.78 710.737C1207.5 713.621 1207.8 716.699 1206.9 719.929C1205.28 725.827 1203.4 731.42 1201.65 737.375C1200.13 742.536 1193.98 744.931 1191.52 749.568C1188.63 755.026 1186.9 762.705 1181.86 766.827C1177.25 770.597 1168.93 772.36 1163.01 772.36C1160.59 772.36 1159.46 772.559 1157.76 770.86C1156.37 769.472 1156.03 766.34 1154.57 765.607" stroke="#060606" stroke-width="5" stroke-linecap="round"/>
<path d="M1157.1 711.581C1160.1 711.581 1161.35 711.471 1163.85 710.08C1165.47 709.182 1167.08 708.312 1168.92 708.204C1172.5 707.993 1172.82 702.548 1175.25 700.607C1184.1 693.529 1197.62 684.349 1197.62 671.717C1197.62 657.156 1195.82 644.792 1187.07 633.121C1185.65 631.231 1182.89 630.158 1181.16 628.431C1178.89 626.165 1175.37 621.686 1172.72 620.505C1168.18 618.489 1166.39 622.988 1166.39 626.32" stroke="#060606" stroke-width="5" stroke-linecap="round"/>
<path d="M1173.98 604.372C1177.08 604.372 1184.19 603.917 1186.46 601.652C1189.12 598.992 1181.5 589.638 1185.8 587.489" stroke="#060606" stroke-width="5" stroke-linecap="round"/>
<path d="M1197.62 579.048C1197.62 571.115 1209 571.126 1214.5 571.45C1217.48 571.625 1216.19 579.21 1216.19 580.736C1216.19 585.331 1216.61 588.941 1217.69 593.398C1220.63 605.481 1222.98 618.568 1219.38 630.729C1217.83 635.944 1217.88 641.091 1217.88 646.58" stroke="#060606" stroke-width="5" stroke-linecap="round"/>
<path d="M1203.53 585.801C1203.53 598.835 1202.86 611.103 1208.78 622.944C1211.52 628.416 1211.97 632.755 1211.97 638.983" stroke="#060606" stroke-width="5" stroke-linecap="round"/>
<path d="M754.509 852.85C770.705 851.604 777.88 843.206 790.936 836.026C797.222 832.568 806.008 825.283 810.614 819.652C819.833 808.385 841.04 814.566 853.501 814.996C865.016 815.393 875.353 813.453 886.323 811.015C898.38 808.336 912.203 816.908 922.149 821.455C928.967 824.572 936.168 830.373 943.78 831.219C947.323 831.612 950.87 833.92 954.295 834.974C957.2 835.868 960.058 835.305 963.008 836.326C969.477 838.566 972.275 838.166 975.551 844.062C981.213 854.254 962.954 852.85 955.948 852.85C927.401 852.85 899.933 862.336 871.076 857.206C861.937 855.581 850.175 856.015 841.784 852.099C832.746 847.881 817.429 851.644 807.835 854.202C788.02 859.486 766.749 858.258 746.397 858.258" stroke="#060606" stroke-width="5" stroke-linecap="round"/>
<path d="M753.157 858.258C765.338 858.258 776.64 860.235 787.707 865.769C798.024 870.927 806.114 880.156 816.698 885.297C825.682 889.66 836.396 891.112 845.84 894.46C848.846 895.525 853.6 898.816 856.655 898.816C862.12 898.816 866.779 901.52 872.128 901.52C882.99 901.52 893.306 903.927 903.973 904.224C911.179 904.424 915.246 899.746 922.224 898.816C929.883 897.795 940.752 896.44 946.184 890.404C949.422 886.806 950.313 881.524 953.244 877.861C955.714 874.773 960.966 873.711 963.759 871.477C966.153 869.562 977.948 855.172 975.926 853.151C970.475 847.699 954.199 852.85 947.836 852.85" stroke="#060606" stroke-width="5" stroke-linecap="round"/>
<path d="M838.723 577.002C838.723 591.126 838.199 605.285 839.502 619.356C841.122 636.853 845.009 666.141 835.085 681.632C831.06 687.915 824.648 704.845 815.337 704.845C805.049 704.845 801.688 703.392 796.628 711.427C793.769 715.968 791.821 729.075 787.274 731.349" stroke="#060606" stroke-width="5" stroke-linecap="round"/>
<path d="M908.88 562.971C908.88 577.808 907.909 593.107 908.967 607.924C909.756 618.974 911.998 629.976 911.998 641.097C911.998 650.246 911.205 663.637 914.77 672.105C918.464 680.877 922.912 699.475 922.912 699.475C922.912 699.475 923.511 697.106 924.471 697.05C926.242 696.946 928.187 697.35 929.928 696.963C933.512 696.167 936.68 692.748 940.061 692.373C945.296 691.791 944.831 689.93 948.55 694.711C951.076 697.959 952.773 702.702 954.439 706.404C959.43 717.495 963.447 731.576 963.447 743.822C963.447 751.883 956.273 757.853 947.857 757.853C936.213 757.853 943.051 753.317 938.849 745.381C935.355 738.782 930.141 739.759 924.471 737.239C919.216 734.903 912.304 736.026 906.628 736.026C896.858 736.026 901.483 737.088 897.62 741.916C894.628 745.657 895.554 754.481 892.943 759.412C890.247 764.505 878.642 764.25 873.022 764.089C867.135 763.921 863.61 758.289 858.124 756.294C855.587 755.371 851.925 751.903 849.636 751.617C844.136 750.929 835.566 746.775 830.581 743.822C817.192 735.887 792.519 754.239 809.101 762.53" stroke="#060606" stroke-width="5" stroke-linecap="round"/>
<path d="M806.846 596.072C802.589 601.33 799.956 606.324 796.444 611.993C793.663 616.479 790.998 621.297 786.855 624.611C778.241 631.503 768.772 637.55 760.533 644.873C756.983 648.029 752.122 653.596 750.673 657.944" stroke="#060606" stroke-width="5" stroke-linecap="round"/>
<path d="M788.122 567.578C780.258 567.578 772.356 570.731 764.558 571.649C755.895 572.668 747.883 574.091 739.094 574.091C726.865 574.091 715.758 571.947 704.45 567.759C700.228 566.195 695.713 562.142 691.243 561.88C687.95 561.686 689.135 559.645 690.881 558.216C696.11 553.938 701.87 550.361 707.209 546.321C710.767 543.628 714.584 539.678 719.239 539.13C722.997 538.688 726.989 539.085 730.773 539.085C736.2 539.085 741.891 540.934 747.371 541.482C758.003 542.545 770.173 544.98 778.759 551.658C782.743 554.757 788.222 556.713 791.378 560.658C792.758 562.384 794.62 562.609 792.192 563.689C790.345 564.51 787.43 564.077 786.493 565.95" stroke="#060606" stroke-width="5" stroke-linecap="round"/>
<path d="M725.893 569.197C723.828 563.468 728.488 557.706 733.793 555.101C738.208 552.932 742.533 548.723 747.931 548.708C753.152 548.693 756.838 548.043 761.122 551.694C765.238 555.201 768.49 560.133 770.349 565.291" stroke="#060606" stroke-width="5" stroke-linecap="round"/>
<path d="M981.782 570.348C979.717 564.618 984.377 558.857 989.682 556.251C994.097 554.082 998.422 549.873 1003.82 549.858C1009.04 549.843 1012.73 549.193 1017.01 552.844C1021.13 556.351 1024.38 561.283 1026.24 566.441" stroke="#060606" stroke-width="5" stroke-linecap="round"/>
<path d="M753.057 571.86C754.865 571.427 754.52 566.113 755.126 564.668C756.91 560.406 751.333 559.765 748.473 560.082C742.813 560.711 737.127 561.178 737.864 567.813" stroke="#060606" stroke-width="5" stroke-linecap="round"/>
<path d="M671.705 555.367C674.767 549.855 680.795 546.299 686.268 543.562C691.83 540.782 696.492 536.107 702.188 533.205C706.029 531.248 708.662 530.944 712.817 530.944C723.485 530.944 733.863 529.995 744.612 530.763C752.752 531.344 758.786 533.932 766.457 536.552C769.587 537.621 773.576 537.337 776.362 539.266C778.787 540.944 780.109 542.729 783.146 543.336C791.835 545.074 799.783 549.193 805.218 556.181C806.772 558.179 810.172 558.831 810.916 561.066" stroke="#060606" stroke-width="5" stroke-linecap="round"/>
<path d="M821.5 486.982C821.5 494.974 821.186 502.577 818.65 510.184C818.155 511.672 813.179 523.437 812.545 522.803" stroke="#060606" stroke-width="5" stroke-linecap="round"/>
<path d="M817.429 485.354C817.429 494.265 819.435 509.181 810.103 513.847" stroke="#060606" stroke-width="5" stroke-linecap="round"/>
<path d="M810.102 485.354C810.102 491.605 811.874 502.306 806.846 507.334" stroke="#060606" stroke-width="5" stroke-linecap="round"/>
<path d="M806.846 477.213C806.846 485.915 807.11 497.84 797.891 502.45" stroke="#060606" stroke-width="5" stroke-linecap="round"/>
<path d="M800.333 476.398C800.333 481.317 801.573 490.563 798.343 494.716C797.591 495.683 797.877 497.375 796.263 497.565C794.845 497.732 792.784 498.824 792.192 500.007" stroke="#060606" stroke-width="5" stroke-linecap="round"/>
<path d="M793.82 471.515C793.82 475.796 793.82 480.078 793.82 484.359C793.82 486.734 792.433 488.072 792.192 490.239C791.871 493.129 786.493 494.079 786.493 497.566" stroke="#060606" stroke-width="5" stroke-linecap="round"/>
<path d="M785.679 470.7C785.679 480.205 782.75 486.814 779.98 495.123" stroke="#060606" stroke-width="5" stroke-linecap="round"/>
<path d="M772.654 467.443C772.654 471.514 772.654 475.584 772.654 479.655C772.654 483.242 769.397 486.08 769.397 489.424" stroke="#060606" stroke-width="5" stroke-linecap="round"/>
<path d="M761.256 470.7C761.256 473.625 761.256 476.55 761.256 479.474C761.256 481.2 760.155 486.12 758.814 482.098" stroke="#060606" stroke-width="5" stroke-linecap="round"/>
<path d="M757.186 465.815C757.186 472.942 752.939 481.635 749.859 487.796" stroke="#060606" stroke-width="5" stroke-linecap="round"/>
<path d="M766.141 473.143C766.141 478.849 766.964 484.526 763.698 489.425" stroke="#060606" stroke-width="5" stroke-linecap="round"/>
<path d="M743.346 461.745C743.346 466.564 744.635 473.55 742.894 478.027C741.589 481.381 739.567 484.48 738.461 487.796" stroke="#060606" stroke-width="5" stroke-linecap="round"/>
<path d="M736.833 461.745C736.833 465.764 738.336 474.246 735.612 477.575C733.818 479.767 732.728 484.964 730.32 486.168" stroke="#060606" stroke-width="5" stroke-linecap="round"/>
<path d="M730.32 457.675C730.32 463.177 730.493 468.617 729.506 474.047C728.823 477.803 725.943 487.543 722.179 489.425" stroke="#060606" stroke-width="5" stroke-linecap="round"/>
<path d="M722.179 463.373C722.179 467.444 722.179 471.514 722.179 475.585C722.179 478.829 720.551 481.494 720.551 484.54" stroke="#060606" stroke-width="5" stroke-linecap="round"/>
<path d="M710.782 461.745V484.54" stroke="#060606" stroke-width="5" stroke-linecap="round"/>
<path d="M714.852 462.559V480.469" stroke="#060606" stroke-width="5" stroke-linecap="round"/>
<path d="M701.827 467.443C701.827 471.846 701.827 476.248 701.827 480.65C701.827 484.26 703.089 490.379 701.012 493.495" stroke="#060606" stroke-width="5" stroke-linecap="round"/>
<path d="M694.5 467.443V491.866" stroke="#060606" stroke-width="5" stroke-linecap="round"/>
<path d="M684.73 469.072V488.611" stroke="#060606" stroke-width="5" stroke-linecap="round"/>
<path d="M676.589 469.886C676.589 477.413 675.013 487.95 677.404 495.123" stroke="#060606" stroke-width="5" stroke-linecap="round"/>
<path d="M663.564 479.655C663.564 484.853 663.041 489.09 665.373 493.495C666.755 496.106 669.697 496.806 670.891 499.194" stroke="#060606" stroke-width="5" stroke-linecap="round"/>
<path d="M651.352 487.796C651.47 488.741 656.424 492.867 657.458 493.902C660.116 496.56 661.935 498.627 661.935 502.45" stroke="#060606" stroke-width="5" stroke-linecap="round"/>
<path d="M647.282 499.193C646.26 499.193 651.075 502.279 651.759 502.812C653.877 504.459 654.609 506.097 654.609 508.963" stroke="#060606" stroke-width="5" stroke-linecap="round"/>
<path d="M638.326 510.591C641.711 511.014 643.605 522.185 646.467 523.616" stroke="#060606" stroke-width="5" stroke-linecap="round"/>
<path d="M639.955 505.707C640.152 507.283 642.829 509.66 643.573 511.361C644.536 513.562 645.443 515.87 646.467 517.919" stroke="#060606" stroke-width="5" stroke-linecap="round"/>
<path d="M631 522.803C634.637 522.803 637.512 527.339 637.512 530.944" stroke="#060606" stroke-width="5" stroke-linecap="round"/>
<path d="M625.301 533.386C625.301 535.714 627.603 537.177 628.557 539.084" stroke="#060606" stroke-width="5" stroke-linecap="round"/>
<path d="M911.092 483.023C911.092 488.275 907.518 508.415 913.68 511.496" stroke="#060606" stroke-width="5" stroke-linecap="round"/>
<path d="M916.269 477.847C916.269 482.891 913.581 511.496 918.857 511.496" stroke="#060606" stroke-width="5" stroke-linecap="round"/>
<path d="M921.446 479.141C921.446 484.991 918.436 510.638 922.74 512.79" stroke="#060606" stroke-width="5" stroke-linecap="round"/>
<path d="M933.093 477.847V511.496" stroke="#060606" stroke-width="5" stroke-linecap="round"/>
<path d="M942.153 476.553V499.848" stroke="#060606" stroke-width="5" stroke-linecap="round"/>
<path d="M953.8 472.67V490.789" stroke="#060606" stroke-width="5" stroke-linecap="round"/>
<path d="M966.742 464.905V490.789" stroke="#060606" stroke-width="5" stroke-linecap="round"/>
<path d="M971.919 471.376V486.906" stroke="#060606" stroke-width="5" stroke-linecap="round"/>
<path d="M983.567 458.434V490.789" stroke="#060606" stroke-width="5" stroke-linecap="round"/>
<path d="M992.626 461.022V484.318" stroke="#060606" stroke-width="5" stroke-linecap="round"/>
<path d="M999.097 462.316V489.495" stroke="#060606" stroke-width="5" stroke-linecap="round"/>
<path d="M1009.45 466.199V488.201" stroke="#060606" stroke-width="5" stroke-linecap="round"/>
<path d="M1018.51 471.376V501.143" stroke="#060606" stroke-width="5" stroke-linecap="round"/>
<path d="M1032.75 477.847C1032.75 481.668 1034.63 495.669 1031.45 497.26" stroke="#060606" stroke-width="5" stroke-linecap="round"/>
<path d="M1026.28 473.964C1026.28 480.841 1027.14 488.209 1024.98 494.671" stroke="#060606" stroke-width="5" stroke-linecap="round"/>
<path d="M1041.81 476.553V497.26" stroke="#060606" stroke-width="5" stroke-linecap="round"/>
<path d="M1054.75 480.436V501.143" stroke="#060606" stroke-width="5" stroke-linecap="round"/>
<path d="M1059.92 480.436V499.849" stroke="#060606" stroke-width="5" stroke-linecap="round"/>
<path d="M1068.98 490.789V515.379" stroke="#060606" stroke-width="5" stroke-linecap="round"/>
<path d="M1078.04 495.966V511.496" stroke="#060606" stroke-width="5" stroke-linecap="round"/>
<path d="M1089.69 501.143V510.202" stroke="#060606" stroke-width="5" stroke-linecap="round"/>
<path d="M1096.16 506.319V517.967" stroke="#060606" stroke-width="5" stroke-linecap="round"/>
<path d="M932.83 563.545C935.387 557.644 940.698 553.019 944.913 548.277C947.146 545.765 949.595 542.688 952.407 540.783C957.71 537.191 965.143 531.313 971.609 530.667C974.731 530.354 978.278 527.457 981.351 526.451C984.44 525.441 987.546 525.294 990.531 523.922C992.984 522.795 995.486 523.116 998.118 523.079C1002.89 523.013 1007.57 522.236 1012.36 522.236C1019.03 522.236 1024.37 522.227 1030.43 525.608C1033.53 527.333 1036.74 529.761 1040.27 530.479C1043.51 531.139 1046.88 531.529 1049.82 533.196C1054.56 535.881 1058.65 537.245 1062.66 541.251C1063.79 542.387 1065.78 545.293 1066.87 545.841" stroke="#060606" stroke-width="5" stroke-linecap="round"/>
<path d="M948.004 571.974C954.302 560.523 964.014 553.942 974.794 547.714C979.283 545.12 984.48 543.596 989.266 541.625C995.918 538.886 999.285 537.303 1007.02 537.878C1012.8 538.309 1018.51 538.753 1024.06 540.454C1027.98 541.653 1032.83 542.735 1036.34 544.997C1038.49 546.387 1040.41 548.422 1042.61 549.681C1045.38 551.264 1053.67 551.5 1054.23 555.957C1054.66 559.423 1054.18 558.622 1051.32 561.483C1046.07 566.735 1042.33 568.321 1035.26 569.82C1024.74 572.05 1013.19 575.346 1002.43 575.346C994.481 575.346 985.542 577.573 977.698 575.159C972.299 573.498 965.136 573.66 959.385 573.66C956.041 573.66 953.1 569.445 949.69 569.445" stroke="#060606" stroke-width="5" stroke-linecap="round"/>
<path d="M1009.54 573.489C1015.52 565.974 1014.49 557.655 1003.64 558.886C994.096 559.969 991.081 567.845 992.043 576.322" stroke="#060606" stroke-width="5" stroke-linecap="round"/>
<path d="M936.202 593.051C938.611 597.869 941.681 603.635 945.897 606.914C948.183 608.692 951.02 608.868 953.531 610.099C956.072 611.344 957.804 613.611 960.182 614.97C966.124 618.365 971.447 625.62 975.356 631.174C977.846 634.712 981.077 637.602 983.412 641.103" stroke="#060606" stroke-width="5" stroke-linecap="round"/>
<path d="M1385.08 452.536C1382.42 450.986 1379.38 449.326 1376.41 448.319C1364.49 444.266 1353.11 449.476 1343.2 453.218C1340.56 452.907 1336.3 452.829 1333.88 451.876C1328.77 449.863 1323.38 441.944 1318.16 438.705C1310.91 434.208 1300.43 432.87 1292.73 435.278C1288.26 436.672 1283.54 439.412 1278.88 440.207C1275.37 440.805 1271.48 439.127 1267.98 439.713C1265.73 440.092 1264.32 441.092 1263.42 442.856C1262.43 444.805 1263.22 446.813 1264.28 448.761C1265.78 449.799 1267.27 450.697 1269.08 451.277C1279.19 454.522 1288.46 450.844 1296.89 447.437C1311.36 442.381 1317.26 457.483 1329.19 462.396C1340.28 466.964 1347.37 465.845 1357.35 461.978C1361.48 460.376 1366.01 458.413 1370.96 459.362C1377.17 460.552 1382.51 467.197 1387.03 470.904C1390.94 474.104 1395.62 476.244 1400.73 477.339C1404.48 478.141 1410.43 478.962 1413.47 477.083C1416.11 475.454 1416.11 473.75 1416.15 471.133C1415.36 469.8 1414.53 468.051 1413.13 467.074C1410.71 465.375 1404.43 466.207 1401.42 466.221L1385.08 452.536Z" fill="#020103"/>
<path d="M1378.9 209.349C1375.79 208.916 1372.27 208.527 1369.11 208.706C1356.4 209.42 1348.34 218.396 1340.95 225.485C1338.41 226.178 1334.48 227.686 1331.84 227.712C1326.28 227.764 1317.82 222.527 1311.6 221.503C1302.97 220.081 1292.8 222.74 1286.83 227.793C1283.38 230.721 1280.29 234.973 1276.39 237.427C1273.45 239.273 1269.14 239.181 1266.21 241.012C1264.32 242.192 1263.48 243.628 1263.45 245.573C1263.41 247.72 1265.03 249.263 1266.87 250.65C1268.71 251.04 1270.47 251.308 1272.38 251.17C1283.07 250.387 1289.89 243.593 1296.07 237.36C1307.03 227.381 1319.17 238.99 1332.26 239.06C1344.43 239.125 1350.41 235.475 1357.8 228.246C1360.85 225.252 1364.11 221.78 1369.06 220.813C1375.27 219.599 1383.12 223.691 1388.9 225.403C1393.9 226.881 1399.13 227.099 1404.29 226.207C1408.07 225.553 1413.88 224.097 1415.81 221.255C1417.5 218.788 1416.73 217.234 1415.6 214.827C1414.29 213.901 1412.74 212.612 1411.03 212.237C1408.06 211.583 1402.69 214.669 1399.95 215.796L1378.9 209.349Z" fill="#020103"/>
<path d="M1280.95 33.3187C1278.18 34.6979 1275.13 36.3342 1272.74 38.2243C1263.12 45.8162 1262.7 57.4079 1261.56 67.1218C1260 69.0789 1257.88 72.452 1255.81 73.93C1251.42 77.047 1241.21 77.5649 1235.58 80.1897C1227.78 83.8327 1221.47 91.5688 1220.1 98.8791C1219.31 103.116 1219.69 108.203 1218.23 112.31C1217.12 115.402 1213.64 117.707 1212.54 120.785C1211.82 122.765 1212.11 124.373 1213.38 125.936C1214.79 127.659 1217.1 127.992 1219.49 128.077C1221.21 127.371 1222.79 126.609 1224.21 125.445C1232.18 118.911 1233.07 109.74 1233.82 101.376C1235.87 87.3866 1253.26 89.8971 1263.71 82.716C1273.42 76.0381 1275.74 69.8307 1276.78 60.0029C1277.22 55.933 1277.49 51.3726 1280.78 47.8669C1284.9 43.4731 1293.86 42.3837 1299.6 40.5458C1304.55 38.9578 1308.86 36.2356 1312.36 32.6753C1314.93 30.0673 1318.57 25.6998 1318.21 22.3697C1317.91 19.4805 1316.26 18.6684 1313.76 17.3806C1312.1 17.3723 1310.01 17.2015 1308.4 17.8497C1305.6 18.9755 1303.4 24.3921 1301.97 26.8039L1280.95 33.3187Z" fill="#020103"/>
</svg>
