<svg width="1920" height="1080" viewBox="0 0 1920 1080" fill="none" xmlns="http://www.w3.org/2000/svg">
<path d="M909.922 1034.19C899.777 1034.19 890.501 1032.63 880.621 1031.9C868.216 1030.98 866.121 1015.14 856.161 1011.52C840.08 1005.67 826.113 989.085 813.101 977.374C799.336 964.985 786.776 951.044 775.646 936.734C764.284 922.126 748.643 910.533 736.918 895.458C728.055 884.063 723.59 868.337 717.808 855.328C710.594 839.094 708.126 828.145 708.126 810.611C708.126 803.971 705.833 797.059 705.833 789.973C705.833 778.024 701.346 770.302 698.444 759.016C693.189 738.579 697.778 717.299 692.584 697.101C686.851 674.806 690.786 654.269 687.361 632.001C684.926 616.179 678.315 599.224 678.315 582.954C678.315 568.998 679.103 556.394 680.736 543.333C681.96 533.537 689.781 527.9 689.781 517.727C689.781 510.66 689.716 498.173 693.221 491.865C708.264 464.788 691.872 428.458 704.687 400.267C706.882 395.436 710.419 387.066 710.419 381.795C710.419 378.359 711.316 365.434 713.222 362.812C720.267 353.125 719.592 332.967 719.592 321.026" stroke="#060606" stroke-width="5" stroke-linecap="round"/>
<path d="M719.592 321.026C740.662 320.184 747.629 298.173 767.62 295.675C809.571 290.431 853.707 293.509 896.163 293.509C919.258 293.509 942.047 288.922 965.467 288.922C986.334 288.922 1007.54 287.98 1028.4 289.05C1061.92 290.769 1094.03 294.173 1123.18 309.561C1139.02 317.918 1154.68 323.645 1172.49 325.74C1199.22 328.885 1213.84 354.357 1230.96 371.475C1235.27 375.786 1241.7 381.225 1244.72 386.508C1248.96 393.924 1247.86 400.908 1251.09 408.166C1253.68 413.998 1253.4 424.91 1255.04 431.479C1260.6 453.714 1267 476.426 1270.45 498.872C1271.54 505.945 1271.92 543.304 1276.82 545.754" stroke="#060606" stroke-width="5" stroke-linecap="round"/>
<path d="M1276.82 545.754C1276.82 562.367 1279.12 579.082 1279.12 595.056C1279.12 609.39 1275.61 626.532 1280.9 639.773C1285.66 651.671 1282.35 668.721 1277.97 679.903C1271.27 697.035 1267.65 709.263 1267.65 727.421C1267.65 741.335 1272.89 766.714 1267.14 779.654C1263.89 786.97 1262.9 795.469 1260.26 803.095C1258.35 808.624 1251.6 816.522 1251.6 822.077C1251.6 838.029 1244.25 853.735 1234.4 865.774C1223.94 878.565 1221.83 896.324 1214.4 910.363C1207.59 923.219 1197.32 934.23 1190.19 947.053C1186.74 953.264 1182.31 961.135 1175.93 964.889C1169.96 968.396 1154.18 974.403 1152.87 980.304C1151.2 987.825 1135.56 1000.51 1128.79 1004.38C1114.4 1012.61 1092.83 1020.79 1077.32 1022.73C1073.33 1023.23 1068.48 1027.48 1065.86 1030.75C1064.1 1032.95 1053.18 1034.29 1049.8 1035.98C1037.1 1042.33 1025.97 1048.9 1011.97 1045.79C997.868 1042.65 984.108 1042.39 969.671 1038.78C954.637 1035.02 942.435 1038.78 928.268 1038.78C923.583 1038.78 917.513 1034.51 914.509 1030.75C913.043 1028.92 898.874 1027.31 896.164 1027.31" stroke="#060606" stroke-width="5" stroke-linecap="round"/>
<path d="M694.527 757.725C687.989 757.725 681.45 757.725 674.912 757.725C671.336 757.725 666.969 749.045 664.537 746.566C660.677 742.632 654.655 738.741 651.809 734.187C649.435 730.389 644.254 730.455 642.83 725.469C641.089 719.376 639.977 711.082 637.686 705.069C634.983 697.973 635.243 688.586 633.327 680.92C631.647 674.201 628.554 666.58 625.481 660.433C615.722 640.916 620.212 616.503 616.85 595.659C613.118 572.518 610.608 545.598 634.112 532.54C640.579 528.948 651.168 522.208 659.219 523.997C661.127 524.421 667.406 533.105 669.419 534.894C672.949 538.032 678.168 538.269 680.404 542.74" stroke="#060606" stroke-width="5" stroke-linecap="round"/>
<path d="M658.435 575.694C654.69 575.694 646.053 563.949 643.963 560.002C638.877 550.395 626.26 548.328 625.481 561.571C624.997 569.804 621.305 581.206 625.132 589.817C629.041 598.612 626.043 611.009 628.707 620.33C630.863 627.876 630.227 636.963 634.112 643.956C637.598 650.232 634.518 661.854 636.553 668.976C638.29 675.057 639.681 689.054 645.096 693.387C651.034 698.137 657.721 702.088 663.143 707.51" stroke="#060606" stroke-width="5" stroke-linecap="round"/>
<path d="M685.112 698.094C677.237 689.235 671.365 674.776 659.306 671.33C641.389 666.211 662.074 635.538 666.281 628.176C669.813 621.995 676.252 615.783 680.055 624.34C681.521 627.638 681.58 641.123 679.183 643.52C669.347 653.357 669.856 664.445 675.696 676.125" stroke="#060606" stroke-width="5" stroke-linecap="round"/>
<path d="M677.266 528.617C671.381 521.997 664.712 517.655 664.712 508.217C664.712 499.098 667.841 484.246 661.486 476.832C656.478 470.99 645.881 460.025 645.881 452.509C645.881 448.324 645.881 444.14 645.881 439.955C645.881 432.877 648.695 427.914 649.368 421.037C649.713 417.511 653.311 404.382 649.019 401.858C646.294 400.254 645.218 398.3 643.44 395.581C640.335 390.832 639.119 386.295 636.814 381.109C635.036 377.108 634.896 370.077 634.896 365.765C634.896 356.739 631.757 351.377 628.619 342.75C625.505 334.185 627.05 323.586 627.05 314.416C627.05 305.287 638.743 301.234 633.676 291.663C628.701 282.266 621.095 275.689 620.773 264.114C620.477 253.466 617.635 244.884 617.635 234.386C617.635 221.489 636.281 232.918 634.809 222.616C633.31 212.124 625.481 203.305 625.481 192.016C625.481 182.294 630.439 180.954 634.548 173.97C636.094 171.342 637.807 169.44 641.173 169.262C646.102 169.003 644.251 162.376 644.312 158.626C644.457 149.625 647.842 141.104 651.809 133.17C655.399 125.991 659.74 125.712 667.676 127.765C673.796 129.348 675.063 123.218 677.266 118.262C680.717 110.497 685.297 101.785 694.527 101.785C701.443 101.785 701.635 101.859 704.727 96.293C707.247 91.757 707.187 89.2314 713.358 89.2314" stroke="#060606" stroke-width="5" stroke-linecap="round"/>
<path d="M710.22 97.0784C710.22 94.1861 708.429 84.5245 712.574 84.5245C717.141 84.5245 721.736 83.889 725.912 85.745C740.851 92.3848 736.375 53.488 747.881 47.7347C759.605 41.8726 770.266 48.4322 782.056 48.4322C788.187 48.4322 794.319 48.4322 800.451 48.4322C810.855 48.4322 812.363 40.3387 819.194 34.4834C825.394 29.1689 832.059 23.3244 840.815 23.3244C846.345 23.3244 849.303 30.2171 853.717 32.7398C859.439 36.0095 864.876 37.4475 871.851 37.4475C880.622 37.4475 877.93 32.5942 882.835 26.4629C886.064 22.4275 886.965 12.2066 893.035 10.8577C902.153 8.83164 908.423 12.9628 914.917 18.5296C918.107 21.2637 920.374 26.7255 926.774 25.7655C936.539 24.3007 944.706 -1.11233 956.589 10.7706C957.836 12.0175 961.093 18.2223 962.169 18.5296C967.673 20.1022 976.425 19.9852 982.046 20.186C993.77 20.6047 1000.51 19.464 1007.5 9.28851C1011.9 2.89562 1011.55 21.4681 1013.87 23.3244C1017.01 25.8401 1019.11 23.2871 1022.5 21.4065C1027.65 18.5429 1031.29 14.2375 1038.19 13.909C1044.48 13.6097 1053.45 17.6107 1055.45 24.109C1057.86 31.9513 1061.53 31.1706 1068.79 31.1706C1072.89 31.1706 1076.31 29.6014 1080.56 29.6014C1085.23 29.6014 1090.55 31.4395 1094.77 30.386C1102.8 28.3782 1108.9 30.9763 1114.73 36.227C1117.35 38.5792 1118.01 42.8182 1120.14 44.945C1122.21 47.0142 1127.24 39.6423 1128.33 38.2321C1131.65 33.9658 1136.48 33.2084 1141.76 35.0937C1154.53 39.654 1154.31 45.4708 1154.31 57.8476" stroke="#060606" stroke-width="5" stroke-linecap="round"/>
<path d="M1152.74 53.1392C1152.97 51.3517 1162.4 50.6266 1164.6 49.8264C1173.02 46.7636 1176.04 39.1049 1180.99 51.9187C1182.98 57.0826 1182.19 71.7165 1187.35 65.6931C1192.76 59.3841 1199.69 59.6285 1205.31 64.1239C1208.64 66.7886 1213.68 78.6063 1215.16 82.6059C1217.59 89.1536 1223.86 92.9988 1226.85 98.647C1228.42 101.619 1233.24 117.68 1239.05 110.416C1241.37 107.523 1251.28 104.123 1254.74 103.355C1258.54 102.511 1261.83 101.785 1265.73 101.785C1273.98 101.785 1271.95 120.321 1272 125.498C1272.07 131.976 1270.37 139.699 1274.45 144.939C1280.05 152.144 1290.4 151.372 1295.19 159.847C1297.56 164.034 1299.23 177.664 1295.54 181.816C1284.07 194.729 1294.93 210.574 1300.95 222.616C1308.85 238.419 1314.97 221.692 1326.93 227.673C1332.22 230.319 1331.35 249.771 1329.28 255.57C1327.06 261.791 1322.38 268.875 1322.22 275.622C1321.96 286.709 1322.22 297.833 1322.22 308.924C1322.22 320.168 1326.77 329.96 1325.27 341.965C1324.36 349.295 1316.35 355.024 1315.94 362.278C1315.63 367.942 1312.33 375.892 1310.02 381.109C1303.83 395.017 1309.75 413.094 1303.39 427.401C1300.32 434.305 1298.87 441.891 1295.89 448.586C1294.32 452.134 1292.4 457.896 1292.4 461.924C1292.4 472.038 1285.09 481.4 1284.56 490.955C1283.51 509.873 1278.28 526.507 1278.28 545.878" stroke="#060606" stroke-width="5" stroke-linecap="round"/>
<path d="M1278.98 538.19C1278.98 541.857 1279.69 547.476 1284.52 547.476C1290.51 547.476 1291.82 538.48 1297.13 537.299C1299.5 536.772 1301.69 534.568 1303.93 533.547C1307.13 532.094 1310.96 531.437 1314.44 531.437C1321.74 531.437 1327.8 531.296 1333.38 536.877C1336.46 539.95 1339.76 548.58 1339.76 552.963C1339.76 556.882 1342.29 560.443 1342.29 564.359C1342.29 568.721 1342.29 573.082 1342.29 577.444C1342.29 584.463 1342.29 591.482 1342.29 598.501C1342.29 604.585 1341.95 610.74 1341.4 616.791C1341.01 621.149 1338.69 625.085 1337.7 629.313C1336.95 632.538 1336.78 635.924 1335.54 639.021C1332.66 646.236 1331.03 653.663 1329.44 661.25C1327.47 670.7 1330.53 682.069 1326.07 690.983C1324.9 693.321 1323.3 695.32 1322.22 697.737C1320.94 700.621 1321.24 703.699 1320.35 706.929C1318.72 712.827 1316.85 718.42 1315.09 724.375C1313.58 729.536 1307.42 731.931 1304.96 736.568C1302.07 742.026 1300.34 749.705 1295.3 753.827C1290.69 757.597 1282.37 759.36 1276.45 759.36C1274.04 759.36 1272.9 759.559 1271.2 757.86C1269.81 756.472 1269.47 753.34 1268.01 752.607" stroke="#060606" stroke-width="5" stroke-linecap="round"/>
<path d="M1270.54 698.581C1273.54 698.581 1274.79 698.471 1277.29 697.08C1278.91 696.182 1280.52 695.312 1282.36 695.204C1285.94 694.993 1286.26 689.548 1288.69 687.607C1297.54 680.529 1311.06 671.349 1311.06 658.717C1311.06 644.156 1309.26 631.792 1300.51 620.121C1299.09 618.231 1296.33 617.158 1294.6 615.431C1292.33 613.165 1288.82 608.686 1286.16 607.505C1281.62 605.489 1279.83 609.988 1279.83 613.32" stroke="#060606" stroke-width="5" stroke-linecap="round"/>
<path d="M1287.42 591.372C1290.52 591.372 1297.63 590.917 1299.9 588.652C1302.56 585.992 1294.94 576.638 1299.24 574.489" stroke="#060606" stroke-width="5" stroke-linecap="round"/>
<path d="M1311.06 566.048C1311.06 558.115 1322.44 558.126 1327.94 558.45C1330.92 558.625 1329.63 566.21 1329.63 567.736C1329.63 572.331 1330.05 575.941 1331.13 580.398C1334.07 592.481 1336.42 605.568 1332.82 617.729C1331.28 622.944 1331.32 628.091 1331.32 633.58" stroke="#060606" stroke-width="5" stroke-linecap="round"/>
<path d="M1316.97 572.801C1316.97 585.835 1316.3 598.103 1322.22 609.944C1324.96 615.416 1325.41 619.755 1325.41 625.983" stroke="#060606" stroke-width="5" stroke-linecap="round"/>
<path d="M867.95 839.85C884.147 838.604 891.322 830.206 904.378 823.026C910.664 819.568 919.449 812.283 924.056 806.652C933.275 795.385 954.482 801.566 966.942 801.996C978.458 802.393 988.794 800.453 999.764 798.015C1011.82 795.336 1025.64 803.908 1035.59 808.455C1042.41 811.572 1049.61 817.373 1057.22 818.219C1060.76 818.612 1064.31 820.92 1067.74 821.974C1070.64 822.868 1073.5 822.305 1076.45 823.326C1082.92 825.566 1085.72 825.166 1088.99 831.062C1094.65 841.254 1076.4 839.85 1069.39 839.85C1040.84 839.85 1013.37 849.336 984.517 844.206C975.379 842.581 963.617 843.015 955.226 839.099C946.187 834.881 930.87 838.644 921.277 841.202C901.461 846.486 880.19 845.258 859.839 845.258" stroke="#060606" stroke-width="5" stroke-linecap="round"/>
<path d="M866.599 845.258C878.78 845.258 890.081 847.235 901.148 852.769C911.466 857.927 919.556 867.156 930.14 872.297C939.124 876.66 949.837 878.112 959.281 881.46C962.287 882.525 967.041 885.816 970.097 885.816C975.562 885.816 980.22 888.52 985.569 888.52C996.432 888.52 1006.75 890.927 1017.41 891.224C1024.62 891.424 1028.69 886.746 1035.67 885.816C1043.32 884.795 1054.19 883.44 1059.63 877.404C1062.86 873.806 1063.75 868.524 1066.69 864.861C1069.16 861.773 1074.41 860.711 1077.2 858.477C1079.59 856.562 1091.39 842.172 1089.37 840.151C1083.92 834.699 1067.64 839.85 1061.28 839.85" stroke="#060606" stroke-width="5" stroke-linecap="round"/>
<path d="M952.164 564.002C952.164 578.126 951.641 592.285 952.944 606.356C954.564 623.853 958.451 653.141 948.526 668.632C944.502 674.915 938.09 691.845 928.778 691.845C918.49 691.845 915.129 690.392 910.07 698.427C907.211 702.968 905.262 716.075 900.715 718.349" stroke="#060606" stroke-width="5" stroke-linecap="round"/>
<path d="M1022.32 549.971C1022.32 564.808 1021.35 580.107 1022.41 594.924C1023.2 605.974 1025.44 616.976 1025.44 628.097C1025.44 637.246 1024.65 650.637 1028.21 659.105C1031.91 667.877 1036.35 686.475 1036.35 686.475C1036.35 686.475 1036.95 684.106 1037.91 684.05C1039.68 683.946 1041.63 684.35 1043.37 683.963C1046.95 683.167 1050.12 679.748 1053.5 679.373C1058.74 678.791 1058.27 676.93 1061.99 681.711C1064.52 684.959 1066.21 689.702 1067.88 693.404C1072.87 704.495 1076.89 718.576 1076.89 730.822C1076.89 738.883 1069.71 744.853 1061.3 744.853C1049.65 744.853 1056.49 740.317 1052.29 732.381C1048.8 725.782 1043.58 726.759 1037.91 724.239C1032.66 721.903 1025.75 723.026 1020.07 723.026C1010.3 723.026 1014.92 724.088 1011.06 728.916C1008.07 732.657 1009 741.481 1006.38 746.412C1003.69 751.505 992.083 751.25 986.464 751.089C980.577 750.921 977.051 745.289 971.566 743.294C969.028 742.371 965.367 738.903 963.078 738.617C957.577 737.929 949.007 733.775 944.023 730.822C930.633 722.887 905.961 741.239 922.542 749.53" stroke="#060606" stroke-width="5" stroke-linecap="round"/>
<path d="M920.287 583.072C916.031 588.33 913.398 593.324 909.885 598.993C907.105 603.479 904.44 608.297 900.297 611.611C891.682 618.503 882.213 624.55 873.974 631.873C870.424 635.029 865.564 640.596 864.114 644.944" stroke="#060606" stroke-width="5" stroke-linecap="round"/>
<path d="M901.563 554.578C893.699 554.578 885.797 557.731 877.999 558.649C869.336 559.668 861.324 561.091 852.536 561.091C840.307 561.091 829.199 558.947 817.891 554.759C813.669 553.195 809.154 549.142 804.685 548.88C801.392 548.686 802.576 546.645 804.323 545.216C809.551 540.938 815.311 537.361 820.65 533.321C824.208 530.628 828.025 526.678 832.681 526.13C836.439 525.688 840.431 526.085 844.214 526.085C849.642 526.085 855.332 527.934 860.813 528.482C871.444 529.545 883.614 531.98 892.201 538.658C896.185 541.757 901.663 543.713 904.819 547.658C906.2 549.384 908.062 549.609 905.634 550.689C903.786 551.51 900.871 551.077 899.935 552.95" stroke="#060606" stroke-width="5" stroke-linecap="round"/>
<path d="M849.334 556.197C847.27 550.468 851.929 544.706 857.234 542.101C861.65 539.932 865.975 535.723 871.372 535.708C876.594 535.693 880.279 535.043 884.563 538.694C888.679 542.201 891.932 547.133 893.791 552.291" stroke="#060606" stroke-width="5" stroke-linecap="round"/>
<path d="M1109.22 557.348C1107.16 551.618 1111.82 545.857 1117.12 543.251C1121.54 541.082 1125.86 536.873 1131.26 536.858C1136.48 536.843 1140.17 536.193 1144.45 539.844C1148.57 543.351 1151.82 548.283 1153.68 553.441" stroke="#060606" stroke-width="5" stroke-linecap="round"/>
<path d="M879.499 558.86C881.307 558.427 880.962 553.113 881.567 551.668C883.351 547.406 877.775 546.765 874.915 547.082C869.255 547.711 863.569 548.178 864.306 554.813" stroke="#060606" stroke-width="5" stroke-linecap="round"/>
<path d="M785.146 542.367C788.208 536.855 794.236 533.299 799.709 530.562C805.271 527.782 809.933 523.107 815.63 520.205C819.471 518.248 822.103 517.944 826.258 517.944C836.926 517.944 847.304 516.995 858.054 517.763C866.193 518.344 872.227 520.932 879.899 523.552C883.028 524.621 887.018 524.337 889.804 526.266C892.228 527.944 893.551 529.729 896.588 530.336C905.276 532.074 913.224 536.193 918.659 543.181C920.213 545.179 923.613 545.831 924.358 548.066" stroke="#060606" stroke-width="5" stroke-linecap="round"/>
<path d="M934.941 473.982C934.941 481.974 934.628 489.577 932.092 497.184C931.596 498.672 926.62 510.437 925.986 509.803" stroke="#060606" stroke-width="5" stroke-linecap="round"/>
<path d="M930.871 472.354C930.871 481.265 932.876 496.181 923.544 500.847" stroke="#060606" stroke-width="5" stroke-linecap="round"/>
<path d="M923.544 472.354C923.544 478.605 925.315 489.306 920.287 494.334" stroke="#060606" stroke-width="5" stroke-linecap="round"/>
<path d="M920.287 464.213C920.287 472.915 920.551 484.84 911.332 489.45" stroke="#060606" stroke-width="5" stroke-linecap="round"/>
<path d="M913.775 463.398C913.775 468.317 915.015 477.563 911.785 481.716C911.033 482.683 911.319 484.375 909.704 484.565C908.287 484.732 906.226 485.824 905.634 487.007" stroke="#060606" stroke-width="5" stroke-linecap="round"/>
<path d="M907.262 458.515C907.262 462.796 907.262 467.078 907.262 471.359C907.262 473.734 905.874 475.072 905.633 477.239C905.312 480.129 899.935 481.079 899.935 484.566" stroke="#060606" stroke-width="5" stroke-linecap="round"/>
<path d="M899.121 457.7C899.121 467.205 896.192 473.814 893.422 482.123" stroke="#060606" stroke-width="5" stroke-linecap="round"/>
<path d="M886.095 454.443C886.095 458.514 886.095 462.584 886.095 466.655C886.095 470.242 882.839 473.08 882.839 476.424" stroke="#060606" stroke-width="5" stroke-linecap="round"/>
<path d="M874.698 457.7C874.698 460.625 874.698 463.55 874.698 466.474C874.698 468.2 873.596 473.12 872.255 469.098" stroke="#060606" stroke-width="5" stroke-linecap="round"/>
<path d="M870.627 452.815C870.627 459.942 866.381 468.635 863.3 474.796" stroke="#060606" stroke-width="5" stroke-linecap="round"/>
<path d="M879.582 460.143C879.582 465.849 880.405 471.526 877.14 476.425" stroke="#060606" stroke-width="5" stroke-linecap="round"/>
<path d="M856.787 448.745C856.787 453.564 858.076 460.55 856.335 465.027C855.03 468.381 853.008 471.48 851.902 474.796" stroke="#060606" stroke-width="5" stroke-linecap="round"/>
<path d="M850.275 448.745C850.275 452.764 851.777 461.246 849.053 464.575C847.26 466.767 846.17 471.964 843.762 473.168" stroke="#060606" stroke-width="5" stroke-linecap="round"/>
<path d="M843.762 444.675C843.762 450.177 843.935 455.617 842.948 461.047C842.265 464.803 839.384 474.543 835.621 476.425" stroke="#060606" stroke-width="5" stroke-linecap="round"/>
<path d="M835.62 450.373C835.62 454.444 835.62 458.514 835.62 462.585C835.62 465.829 833.992 468.494 833.992 471.54" stroke="#060606" stroke-width="5" stroke-linecap="round"/>
<path d="M824.223 448.745V471.54" stroke="#060606" stroke-width="5" stroke-linecap="round"/>
<path d="M828.294 449.559V467.469" stroke="#060606" stroke-width="5" stroke-linecap="round"/>
<path d="M815.268 454.443C815.268 458.846 815.268 463.248 815.268 467.65C815.268 471.26 816.531 477.379 814.454 480.495" stroke="#060606" stroke-width="5" stroke-linecap="round"/>
<path d="M807.941 454.443V478.866" stroke="#060606" stroke-width="5" stroke-linecap="round"/>
<path d="M798.172 456.072V475.611" stroke="#060606" stroke-width="5" stroke-linecap="round"/>
<path d="M790.031 456.886C790.031 464.413 788.454 474.95 790.845 482.123" stroke="#060606" stroke-width="5" stroke-linecap="round"/>
<path d="M777.005 466.655C777.005 471.853 776.482 476.09 778.814 480.495C780.197 483.106 783.138 483.806 784.332 486.194" stroke="#060606" stroke-width="5" stroke-linecap="round"/>
<path d="M764.793 474.796C764.912 475.741 769.865 479.867 770.899 480.902C773.557 483.56 775.377 485.627 775.377 489.45" stroke="#060606" stroke-width="5" stroke-linecap="round"/>
<path d="M760.723 486.193C759.701 486.193 764.516 489.279 765.2 489.812C767.319 491.459 768.05 493.097 768.05 495.963" stroke="#060606" stroke-width="5" stroke-linecap="round"/>
<path d="M751.768 497.591C755.153 498.014 757.046 509.185 759.909 510.616" stroke="#060606" stroke-width="5" stroke-linecap="round"/>
<path d="M753.396 492.707C753.593 494.283 756.27 496.66 757.014 498.361C757.977 500.562 758.885 502.87 759.909 504.919" stroke="#060606" stroke-width="5" stroke-linecap="round"/>
<path d="M744.441 509.803C748.078 509.803 750.954 514.339 750.954 517.944" stroke="#060606" stroke-width="5" stroke-linecap="round"/>
<path d="M738.742 520.386C738.742 522.714 741.045 524.177 741.999 526.084" stroke="#060606" stroke-width="5" stroke-linecap="round"/>
<path d="M1024.53 470.023C1024.53 475.275 1020.96 495.415 1027.12 498.496" stroke="#060606" stroke-width="5" stroke-linecap="round"/>
<path d="M1029.71 464.847C1029.71 469.891 1027.02 498.496 1032.3 498.496" stroke="#060606" stroke-width="5" stroke-linecap="round"/>
<path d="M1034.89 466.141C1034.89 471.991 1031.88 497.638 1036.18 499.79" stroke="#060606" stroke-width="5" stroke-linecap="round"/>
<path d="M1046.53 464.847V498.496" stroke="#060606" stroke-width="5" stroke-linecap="round"/>
<path d="M1055.59 463.553V486.848" stroke="#060606" stroke-width="5" stroke-linecap="round"/>
<path d="M1067.24 459.67V477.789" stroke="#060606" stroke-width="5" stroke-linecap="round"/>
<path d="M1080.18 451.905V477.789" stroke="#060606" stroke-width="5" stroke-linecap="round"/>
<path d="M1085.36 458.376V473.906" stroke="#060606" stroke-width="5" stroke-linecap="round"/>
<path d="M1097.01 445.434V477.789" stroke="#060606" stroke-width="5" stroke-linecap="round"/>
<path d="M1106.07 448.022V471.318" stroke="#060606" stroke-width="5" stroke-linecap="round"/>
<path d="M1112.54 449.316V476.495" stroke="#060606" stroke-width="5" stroke-linecap="round"/>
<path d="M1122.89 453.199V475.201" stroke="#060606" stroke-width="5" stroke-linecap="round"/>
<path d="M1131.95 458.376V488.143" stroke="#060606" stroke-width="5" stroke-linecap="round"/>
<path d="M1146.19 464.847C1146.19 468.668 1148.08 482.669 1144.89 484.26" stroke="#060606" stroke-width="5" stroke-linecap="round"/>
<path d="M1139.72 460.964C1139.72 467.841 1140.58 475.209 1138.42 481.671" stroke="#060606" stroke-width="5" stroke-linecap="round"/>
<path d="M1155.25 463.553V484.26" stroke="#060606" stroke-width="5" stroke-linecap="round"/>
<path d="M1168.19 467.436V488.143" stroke="#060606" stroke-width="5" stroke-linecap="round"/>
<path d="M1173.37 467.436V486.849" stroke="#060606" stroke-width="5" stroke-linecap="round"/>
<path d="M1182.43 477.789V502.379" stroke="#060606" stroke-width="5" stroke-linecap="round"/>
<path d="M1191.48 482.966V498.496" stroke="#060606" stroke-width="5" stroke-linecap="round"/>
<path d="M1203.13 488.143V497.202" stroke="#060606" stroke-width="5" stroke-linecap="round"/>
<path d="M1209.6 493.319V504.967" stroke="#060606" stroke-width="5" stroke-linecap="round"/>
<path d="M1046.27 550.545C1048.83 544.644 1054.14 540.019 1058.35 535.277C1060.59 532.765 1063.04 529.688 1065.85 527.783C1071.15 524.191 1078.58 518.313 1085.05 517.667C1088.17 517.354 1091.72 514.457 1094.79 513.451C1097.88 512.441 1100.99 512.294 1103.97 510.922C1106.43 509.795 1108.93 510.116 1111.56 510.079C1116.33 510.013 1121.02 509.236 1125.8 509.236C1132.48 509.236 1137.81 509.227 1143.88 512.608C1146.97 514.333 1150.18 516.761 1153.71 517.479C1156.95 518.139 1160.32 518.529 1163.27 520.196C1168 522.881 1172.09 524.245 1176.1 528.251C1177.23 529.387 1179.22 532.293 1180.31 532.841" stroke="#060606" stroke-width="5" stroke-linecap="round"/>
<path d="M1061.45 558.974C1067.74 547.523 1077.46 540.942 1088.24 534.714C1092.72 532.12 1097.92 530.596 1102.71 528.625C1109.36 525.886 1112.73 524.303 1120.46 524.878C1126.24 525.309 1131.96 525.753 1137.51 527.454C1141.42 528.653 1146.27 529.735 1149.78 531.997C1151.93 533.387 1153.85 535.422 1156.05 536.681C1158.82 538.264 1167.11 538.5 1167.67 542.957C1168.1 546.423 1167.62 545.622 1164.76 548.483C1159.51 553.735 1155.77 555.321 1148.7 556.82C1138.19 559.05 1126.63 562.346 1115.87 562.346C1107.92 562.346 1098.98 564.573 1091.14 562.159C1085.74 560.498 1078.58 560.66 1072.83 560.66C1069.48 560.66 1066.54 556.445 1063.13 556.445" stroke="#060606" stroke-width="5" stroke-linecap="round"/>
<path d="M1135.98 559.489C1141.96 551.974 1140.93 543.655 1130.08 544.886C1120.54 545.969 1117.52 553.845 1118.48 562.322" stroke="#060606" stroke-width="5" stroke-linecap="round"/>
<path d="M1049.64 580.051C1052.05 584.869 1055.12 590.635 1059.34 593.914C1061.62 595.692 1064.46 595.868 1066.97 597.099C1069.51 598.344 1071.25 600.611 1073.62 601.97C1079.57 605.365 1084.89 612.62 1088.8 618.174C1091.29 621.712 1094.52 624.602 1096.85 628.103" stroke="#060606" stroke-width="5" stroke-linecap="round"/>
<path d="M1498.52 439.536C1495.86 437.986 1492.82 436.326 1489.86 435.319C1477.93 431.266 1466.55 436.476 1456.64 440.218C1454.01 439.907 1449.74 439.829 1447.32 438.876C1442.21 436.863 1436.82 428.944 1431.6 425.705C1424.35 421.208 1413.87 419.87 1406.17 422.278C1401.7 423.672 1396.98 426.412 1392.32 427.207C1388.81 427.805 1384.92 426.127 1381.42 426.713C1379.17 427.092 1377.76 428.092 1376.86 429.856C1375.87 431.805 1376.66 433.813 1377.72 435.761C1379.22 436.799 1380.71 437.697 1382.52 438.277C1392.63 441.522 1401.9 437.844 1410.33 434.437C1424.8 429.381 1430.7 444.483 1442.63 449.396C1453.72 453.964 1460.81 452.845 1470.79 448.978C1474.92 447.376 1479.45 445.413 1484.41 446.362C1490.61 447.552 1495.96 454.197 1500.48 457.904C1504.38 461.104 1509.06 463.244 1514.17 464.339C1517.92 465.141 1523.87 465.962 1526.91 464.083C1529.55 462.454 1529.55 460.75 1529.59 458.133C1528.8 456.8 1527.97 455.051 1526.57 454.074C1524.15 452.375 1517.87 453.207 1514.86 453.221L1498.52 439.536Z" fill="#020103"/>
<path d="M1492.35 196.349C1489.23 195.916 1485.71 195.527 1482.55 195.706C1469.85 196.42 1461.78 205.396 1454.4 212.485C1451.85 213.178 1447.92 214.686 1445.28 214.712C1439.72 214.764 1431.26 209.527 1425.04 208.503C1416.41 207.081 1406.24 209.74 1400.28 214.793C1396.82 217.721 1393.73 221.973 1389.83 224.427C1386.89 226.273 1382.59 226.181 1379.65 228.012C1377.77 229.192 1376.92 230.628 1376.89 232.573C1376.86 234.72 1378.47 236.263 1380.31 237.65C1382.15 238.04 1383.91 238.308 1385.82 238.17C1396.51 237.387 1403.34 230.593 1409.51 224.36C1420.47 214.381 1432.61 225.99 1445.7 226.06C1457.87 226.125 1463.85 222.475 1471.24 215.246C1474.3 212.252 1477.56 208.78 1482.51 207.813C1488.71 206.599 1496.56 210.691 1502.34 212.403C1507.34 213.881 1512.58 214.099 1517.73 213.207C1521.51 212.553 1527.32 211.097 1529.26 208.255C1530.94 205.788 1530.17 204.234 1529.04 201.827C1527.73 200.901 1526.18 199.612 1524.47 199.237C1521.5 198.583 1516.13 201.669 1513.39 202.796L1492.35 196.349Z" fill="#020103"/>
<path d="M1394.39 42.3187C1391.63 43.6979 1388.57 45.3342 1386.18 47.2243C1376.56 54.8162 1376.14 66.4079 1375 76.1218C1373.44 78.0789 1371.32 81.452 1369.25 82.93C1364.86 86.047 1354.65 86.5649 1349.02 89.1897C1341.22 92.8327 1334.91 100.569 1333.54 107.879C1332.75 112.116 1333.13 117.203 1331.67 121.31C1330.56 124.402 1327.09 126.707 1325.98 129.785C1325.27 131.765 1325.55 133.373 1326.82 134.936C1328.23 136.659 1330.54 136.992 1332.93 137.077C1334.65 136.371 1336.23 135.609 1337.65 134.445C1345.62 127.911 1346.51 118.74 1347.26 110.376C1349.31 96.3866 1366.7 98.8971 1377.15 91.716C1386.86 85.0381 1389.18 78.8307 1390.23 69.0029C1390.66 64.933 1390.93 60.3726 1394.22 56.8669C1398.34 52.4731 1407.3 51.3837 1413.04 49.5458C1418 47.9578 1422.3 45.2356 1425.8 41.6753C1428.37 39.0673 1432.01 34.6998 1431.66 31.3697C1431.35 28.4805 1429.7 27.6684 1427.2 26.3806C1425.54 26.3723 1423.45 26.2015 1421.84 26.8497C1419.04 27.9755 1416.84 33.3921 1415.41 35.8039L1394.39 42.3187Z" fill="#020103"/>
</svg>
