<svg width="1920" height="1080" viewBox="0 0 1920 1080" fill="none" xmlns="http://www.w3.org/2000/svg">
<g clip-path="url(#clip0_27_494)">
<path d="M796.481 1067.19C786.336 1067.19 777.06 1065.63 767.18 1064.9C754.775 1063.98 752.68 1048.14 742.72 1044.52C726.638 1038.67 712.672 1022.08 699.66 1010.37C685.894 997.985 673.335 984.044 662.205 969.734C650.843 955.126 635.202 943.533 623.476 928.458C614.614 917.063 610.149 901.337 604.367 888.328C597.152 872.094 594.685 861.145 594.685 843.611C594.685 836.971 592.392 830.059 592.392 822.973C592.392 811.024 587.905 803.302 585.003 792.016C579.747 771.579 584.336 750.299 579.142 730.101C573.409 707.806 577.345 687.269 573.919 665.001C571.485 649.179 564.874 632.224 564.874 615.954C564.874 601.998 565.662 589.394 567.295 576.333C568.519 566.537 576.34 560.9 576.34 550.727C576.34 543.66 576.275 531.173 579.779 524.865C594.823 497.788 578.431 461.458 591.245 433.267C593.441 428.436 596.978 420.066 596.978 414.795C596.978 411.359 597.874 398.434 599.781 395.812C606.826 386.125 606.151 365.967 606.151 354.026" stroke="#060606" stroke-width="5" stroke-linecap="round"/>
<path d="M606.15 354.026C627.221 353.184 634.188 331.173 654.179 328.675C696.129 323.431 740.266 326.509 782.722 326.509C805.816 326.509 828.606 321.922 852.026 321.922C872.893 321.922 894.102 320.98 914.96 322.05C948.476 323.769 980.587 327.173 1009.74 342.561C1025.58 350.918 1041.24 356.645 1059.05 358.74C1085.78 361.885 1100.4 387.357 1117.52 404.475C1121.83 408.786 1128.26 414.225 1131.28 419.508C1135.52 426.924 1134.42 433.908 1137.65 441.166C1140.24 446.998 1139.96 457.91 1141.6 464.479C1147.16 486.714 1153.56 509.426 1157.01 531.872C1158.1 538.945 1158.48 576.304 1163.38 578.754" stroke="#060606" stroke-width="5" stroke-linecap="round"/>
<path d="M1163.38 578.754C1163.38 595.367 1165.68 612.082 1165.68 628.056C1165.68 642.39 1162.16 659.532 1167.46 672.773C1172.22 684.671 1168.91 701.721 1164.53 712.903C1157.83 730.035 1154.21 742.263 1154.21 760.421C1154.21 774.335 1159.45 799.714 1153.7 812.654C1150.45 819.97 1149.46 828.469 1146.82 836.095C1144.91 841.624 1138.16 849.522 1138.16 855.077C1138.16 871.029 1130.81 886.735 1120.96 898.774C1110.5 911.565 1108.39 929.324 1100.96 943.363C1094.15 956.219 1083.88 967.23 1076.75 980.053C1073.3 986.264 1068.87 994.135 1062.49 997.889C1056.52 1001.4 1040.74 1007.4 1039.43 1013.3C1037.76 1020.82 1022.12 1033.51 1015.35 1037.38C1000.96 1045.61 979.387 1053.79 963.881 1055.73C959.889 1056.23 955.035 1060.48 952.415 1063.75C950.655 1065.95 939.741 1067.29 936.363 1068.98C923.657 1075.33 912.533 1081.9 898.526 1078.79C884.427 1075.65 870.667 1075.39 856.23 1071.78C841.196 1068.02 828.994 1071.78 814.827 1071.78C810.142 1071.78 804.072 1067.51 801.068 1063.75C799.602 1061.92 785.433 1060.31 782.723 1060.31" stroke="#060606" stroke-width="5" stroke-linecap="round"/>
<path d="M581.086 790.725C574.547 790.725 568.009 790.725 561.47 790.725C557.895 790.725 553.528 782.045 551.096 779.566C547.236 775.632 541.214 771.741 538.368 767.187C535.994 763.389 530.813 763.455 529.388 758.469C527.647 752.376 526.535 744.082 524.245 738.069C521.541 730.973 521.802 721.586 519.886 713.92C518.206 707.201 515.113 699.58 512.039 693.433C502.281 673.916 506.771 649.503 503.409 628.659C499.676 605.518 497.167 578.598 520.67 565.54C527.137 561.948 537.727 555.208 545.778 556.997C547.686 557.421 553.964 566.105 555.978 567.894C559.508 571.032 564.727 571.269 566.963 575.74" stroke="#060606" stroke-width="5" stroke-linecap="round"/>
<path d="M544.994 608.694C541.248 608.694 532.612 596.949 530.522 593.002C525.436 583.395 512.819 581.328 512.04 594.571C511.555 602.804 507.864 614.206 511.691 622.817C515.6 631.612 512.602 644.009 515.265 653.33C517.421 660.876 516.786 669.963 520.67 676.956C524.157 683.232 521.076 694.854 523.111 701.976C524.849 708.057 526.239 722.054 531.655 726.387C537.593 731.137 544.28 735.088 549.701 740.51" stroke="#060606" stroke-width="5" stroke-linecap="round"/>
<path d="M571.67 731.094C563.795 722.235 557.924 707.776 545.865 704.33C527.947 699.211 548.633 668.538 552.839 661.176C556.371 654.995 562.81 648.783 566.614 657.34C568.079 660.638 568.139 674.123 565.742 676.52C555.905 686.357 556.415 697.445 562.255 709.125" stroke="#060606" stroke-width="5" stroke-linecap="round"/>
<path d="M563.824 561.617C557.94 554.997 551.27 550.655 551.27 541.217C551.27 532.098 554.4 517.246 548.045 509.832C543.037 503.99 532.44 493.025 532.44 485.509C532.44 481.324 532.44 477.14 532.44 472.955C532.44 465.877 535.254 460.914 535.927 454.037C536.272 450.511 539.87 437.382 535.578 434.858C532.853 433.254 531.776 431.3 529.999 428.581C526.894 423.832 525.678 419.295 523.373 414.109C521.595 410.108 521.455 403.077 521.455 398.765C521.455 389.739 518.315 384.377 515.178 375.75C512.063 367.185 513.609 356.586 513.609 347.416C513.609 338.287 525.302 334.234 520.234 324.663C515.26 315.266 507.653 308.689 507.332 297.114C507.036 286.466 504.193 277.884 504.193 267.386C504.193 254.489 522.839 265.918 521.368 255.616C519.869 245.124 512.04 236.305 512.04 225.016C512.04 215.294 516.998 213.954 521.106 206.97C522.652 204.342 524.365 202.44 527.732 202.262C532.661 202.003 530.81 195.376 530.87 191.626C531.016 182.625 534.401 174.104 538.368 166.17C541.957 158.991 546.298 158.712 554.234 160.765C560.355 162.348 561.622 156.218 563.824 151.262C567.275 143.497 571.856 134.785 581.086 134.785C588.002 134.785 588.194 134.859 591.286 129.293C593.806 124.757 593.746 122.231 599.917 122.231" stroke="#060606" stroke-width="5" stroke-linecap="round"/>
<path d="M596.778 130.078C596.778 127.186 594.988 117.525 599.132 117.525C603.7 117.525 608.295 116.889 612.471 118.745C627.41 125.385 622.933 86.488 634.44 80.7347C646.164 74.8726 656.824 81.4322 668.614 81.4322C674.746 81.4322 680.878 81.4322 687.009 81.4322C697.413 81.4322 698.922 73.3387 705.753 67.4834C711.953 62.1689 718.618 56.3244 727.373 56.3244C732.904 56.3244 735.861 63.2171 740.276 65.7398C745.998 69.0095 751.434 70.4475 758.409 70.4475C767.18 70.4475 764.489 65.5942 769.394 59.4629C772.622 55.4275 773.524 45.2066 779.594 43.8577C788.711 41.8316 794.981 45.9628 801.476 51.5296C804.666 54.2637 806.932 59.7255 813.332 58.7655C823.097 57.3007 831.265 31.8877 843.148 43.7706C844.395 45.0175 847.652 51.2223 848.727 51.5296C854.232 53.1022 862.984 52.9852 868.604 53.186C880.328 53.6047 887.065 52.464 894.061 42.2885C898.456 35.8956 898.104 54.4681 900.425 56.3244C903.569 58.8401 905.671 56.2871 909.056 54.4065C914.21 51.5429 917.85 47.2375 924.748 46.909C931.035 46.6097 940.01 50.6107 942.01 57.109C944.423 64.9513 948.09 64.1706 955.348 64.1706C959.448 64.1706 962.869 62.6014 967.117 62.6014C971.789 62.6014 977.113 64.4395 981.328 63.386C989.359 61.3782 995.458 63.9763 1001.29 69.227C1003.91 71.5792 1004.57 75.8182 1006.7 77.945C1008.77 80.0142 1013.8 72.6423 1014.89 71.2321C1018.21 66.9658 1023.04 66.2084 1028.32 68.0937C1041.09 72.654 1040.87 78.4708 1040.87 90.8476" stroke="#060606" stroke-width="5" stroke-linecap="round"/>
<path d="M1039.3 86.1392C1039.53 84.3517 1048.96 83.6266 1051.16 82.8264C1059.58 79.7636 1062.6 72.1049 1067.55 84.9187C1069.54 90.0826 1068.75 104.716 1073.91 98.6931C1079.32 92.3841 1086.25 92.6285 1091.87 97.1239C1095.2 99.7886 1100.24 111.606 1101.72 115.606C1104.15 122.154 1110.41 125.999 1113.4 131.647C1114.98 134.619 1119.8 150.68 1125.61 143.416C1127.92 140.523 1137.84 137.123 1141.3 136.355C1145.1 135.511 1148.39 134.785 1152.29 134.785C1160.54 134.785 1158.51 153.321 1158.56 158.498C1158.63 164.976 1156.93 172.699 1161 177.939C1166.61 185.144 1176.96 184.372 1181.75 192.847C1184.12 197.034 1185.79 210.664 1182.1 214.816C1170.62 227.729 1181.49 243.574 1187.51 255.616C1195.41 271.419 1201.52 254.692 1213.49 260.673C1218.78 263.319 1217.91 282.771 1215.84 288.57C1213.62 294.791 1208.94 301.875 1208.78 308.622C1208.52 319.709 1208.78 330.833 1208.78 341.924C1208.78 353.168 1213.33 362.96 1211.83 374.965C1210.91 382.295 1202.91 388.024 1202.5 395.278C1202.19 400.942 1198.89 408.892 1196.57 414.109C1190.39 428.017 1196.31 446.094 1189.95 460.401C1186.88 467.305 1185.43 474.891 1182.45 481.586C1180.87 485.134 1178.96 490.896 1178.96 494.924C1178.96 505.038 1171.65 514.4 1171.12 523.955C1170.07 542.873 1164.84 559.507 1164.84 578.878" stroke="#060606" stroke-width="5" stroke-linecap="round"/>
<path d="M1165.54 571.19C1165.54 574.857 1166.25 580.476 1171.07 580.476C1177.07 580.476 1178.37 571.48 1183.69 570.299C1186.06 569.772 1188.24 567.568 1190.49 566.547C1193.69 565.094 1197.52 564.437 1201 564.437C1208.3 564.437 1214.36 564.296 1219.94 569.877C1223.01 572.95 1226.32 581.58 1226.32 585.963C1226.32 589.882 1228.85 593.443 1228.85 597.359C1228.85 601.721 1228.85 606.082 1228.85 610.444C1228.85 617.463 1228.85 624.482 1228.85 631.501C1228.85 637.585 1228.51 643.74 1227.96 649.791C1227.57 654.149 1225.24 658.085 1224.26 662.313C1223.5 665.538 1223.34 668.924 1222.1 672.021C1219.21 679.236 1217.59 686.663 1216 694.25C1214.02 703.7 1217.08 715.069 1212.63 723.983C1211.46 726.321 1209.85 728.32 1208.78 730.737C1207.5 733.621 1207.8 736.699 1206.9 739.929C1205.28 745.827 1203.4 751.42 1201.65 757.375C1200.13 762.536 1193.98 764.931 1191.52 769.568C1188.63 775.026 1186.9 782.705 1181.86 786.827C1177.25 790.597 1168.93 792.36 1163.01 792.36C1160.59 792.36 1159.46 792.559 1157.76 790.86C1156.37 789.472 1156.03 786.34 1154.57 785.607" stroke="#060606" stroke-width="5" stroke-linecap="round"/>
<path d="M1157.1 731.581C1160.1 731.581 1161.35 731.471 1163.85 730.08C1165.47 729.182 1167.08 728.312 1168.92 728.204C1172.5 727.993 1172.82 722.548 1175.25 720.607C1184.1 713.529 1197.62 704.349 1197.62 691.717C1197.62 677.156 1195.82 664.792 1187.07 653.121C1185.65 651.231 1182.89 650.158 1181.16 648.431C1178.89 646.165 1175.37 641.686 1172.72 640.505C1168.18 638.489 1166.39 642.988 1166.39 646.32" stroke="#060606" stroke-width="5" stroke-linecap="round"/>
<path d="M1173.98 624.372C1177.08 624.372 1184.19 623.917 1186.46 621.652C1189.12 618.992 1181.5 609.638 1185.8 607.489" stroke="#060606" stroke-width="5" stroke-linecap="round"/>
<path d="M1197.62 599.048C1197.62 591.115 1209 591.126 1214.5 591.45C1217.48 591.625 1216.19 599.21 1216.19 600.736C1216.19 605.331 1216.61 608.941 1217.69 613.398C1220.63 625.481 1222.98 638.568 1219.38 650.729C1217.83 655.944 1217.88 661.091 1217.88 666.58" stroke="#060606" stroke-width="5" stroke-linecap="round"/>
<path d="M1203.53 605.801C1203.53 618.835 1202.86 631.103 1208.78 642.944C1211.52 648.416 1211.97 652.755 1211.97 658.983" stroke="#060606" stroke-width="5" stroke-linecap="round"/>
<path d="M754.509 872.85C770.705 871.604 777.88 863.206 790.936 856.026C797.222 852.568 806.008 845.283 810.614 839.652C819.833 828.385 841.04 834.566 853.501 834.996C865.016 835.393 875.353 833.453 886.323 831.015C898.38 828.336 912.203 836.908 922.149 841.455C928.967 844.572 936.168 850.373 943.78 851.219C947.323 851.612 950.87 853.92 954.295 854.974C957.2 855.868 960.058 855.305 963.008 856.326C969.477 858.566 972.275 858.166 975.551 864.062C981.213 874.254 962.954 872.85 955.948 872.85C927.401 872.85 899.933 882.336 871.076 877.206C861.937 875.581 850.175 876.015 841.784 872.099C832.746 867.881 817.429 871.644 807.835 874.202C788.02 879.486 766.749 878.258 746.397 878.258" stroke="#060606" stroke-width="5" stroke-linecap="round"/>
<path d="M753.157 880.258C765.338 880.258 776.64 882.235 787.707 887.769C798.024 892.927 806.114 902.156 816.698 907.297C825.682 911.66 836.396 913.112 845.84 916.46C848.846 917.525 853.6 920.816 856.655 920.816C862.12 920.816 866.779 923.52 872.128 923.52C882.99 923.52 893.306 925.927 903.973 926.224C911.179 926.424 915.246 921.746 922.224 920.816C929.883 919.795 940.752 918.44 946.184 912.404C949.422 908.806 950.313 903.524 953.244 899.861C955.714 896.773 960.966 895.711 963.759 893.477C966.153 891.562 977.948 877.172 975.926 875.151C970.475 869.699 954.199 874.85 947.836 874.85" stroke="#060606" stroke-width="5" stroke-linecap="round"/>
<path d="M838.722 597.002C838.722 611.126 838.199 625.285 839.502 639.356C841.122 656.853 845.009 686.141 835.085 701.632C831.06 707.915 824.648 724.845 815.336 724.845C805.048 724.845 801.687 723.392 796.628 731.427C793.769 735.968 791.82 749.075 787.273 751.349" stroke="#060606" stroke-width="5" stroke-linecap="round"/>
<path d="M908.881 582.971C908.881 597.808 907.909 613.107 908.967 627.924C909.756 638.974 911.999 649.976 911.999 661.097C911.999 670.246 911.205 683.637 914.77 692.105C918.464 700.877 922.912 719.475 922.912 719.475C922.912 719.475 923.512 717.106 924.471 717.05C926.242 716.946 928.188 717.35 929.928 716.963C933.513 716.167 936.681 712.748 940.062 712.373C945.296 711.791 944.831 709.93 948.55 714.711C951.076 717.959 952.774 722.702 954.44 726.404C959.43 737.495 963.448 751.576 963.448 763.822C963.448 771.883 956.273 777.853 947.857 777.853C936.213 777.853 943.051 773.317 938.849 765.381C935.356 758.782 930.142 759.759 924.471 757.239C919.216 754.903 912.305 756.026 906.629 756.026C896.858 756.026 901.483 757.088 897.621 761.916C894.628 765.657 895.554 774.481 892.943 779.412C890.247 784.505 878.642 784.25 873.022 784.089C867.136 783.921 863.61 778.289 858.125 776.294C855.587 775.371 851.926 771.903 849.636 771.617C844.136 770.929 835.566 766.775 830.581 763.822C817.192 755.887 792.519 774.239 809.101 782.53" stroke="#060606" stroke-width="5" stroke-linecap="round"/>
<path d="M806.846 616.072C802.589 621.33 799.956 626.324 796.444 631.993C793.663 636.479 790.998 641.297 786.855 644.611C778.241 651.503 768.772 657.55 760.533 664.873C756.983 668.029 752.122 673.596 750.673 677.944" stroke="#060606" stroke-width="5" stroke-linecap="round"/>
<path d="M788.122 587.578C780.258 587.578 772.356 590.731 764.558 591.649C755.895 592.668 747.883 594.091 739.094 594.091C726.865 594.091 715.758 591.947 704.45 587.759C700.228 586.195 695.713 582.142 691.243 581.88C687.95 581.686 689.135 579.645 690.881 578.216C696.11 573.938 701.87 570.361 707.209 566.321C710.767 563.628 714.584 559.678 719.239 559.13C722.997 558.688 726.989 559.085 730.773 559.085C736.2 559.085 741.891 560.934 747.371 561.482C758.003 562.545 770.173 564.98 778.759 571.658C782.743 574.757 788.222 576.713 791.378 580.658C792.758 582.384 794.62 582.609 792.192 583.689C790.345 584.51 787.43 584.077 786.493 585.95" stroke="#060606" stroke-width="5" stroke-linecap="round"/>
<path d="M735.893 589.197C733.829 583.468 738.488 577.706 743.794 575.101C748.209 572.932 752.534 568.723 757.931 568.708C763.153 568.693 766.838 568.043 771.123 571.694C775.238 575.201 778.491 580.133 780.35 585.291" stroke="#060606" stroke-width="5" stroke-linecap="round"/>
<path d="M1000.78 590.348C998.717 584.618 1003.38 578.857 1008.68 576.251C1013.1 574.082 1017.42 569.873 1022.82 569.858C1028.04 569.843 1031.73 569.193 1036.01 572.844C1040.13 576.351 1043.38 581.283 1045.24 586.441" stroke="#060606" stroke-width="5" stroke-linecap="round"/>
<path d="M766.058 591.86C767.865 591.427 767.521 586.113 768.126 584.668C769.91 580.406 764.333 579.765 761.473 580.082C755.813 580.711 750.127 581.178 750.864 587.813" stroke="#060606" stroke-width="5" stroke-linecap="round"/>
<path d="M671.705 575.367C674.767 569.855 680.795 566.299 686.268 563.562C691.83 560.782 696.492 556.107 702.189 553.205C706.03 551.248 708.663 550.944 712.817 550.944C723.485 550.944 733.863 549.995 744.613 550.763C752.753 551.344 758.786 553.932 766.458 556.552C769.587 557.621 773.577 557.337 776.363 559.266C778.788 560.944 780.11 562.729 783.147 563.336C791.835 565.074 799.783 569.193 805.218 576.181C806.773 578.179 810.172 578.831 810.917 581.066" stroke="#060606" stroke-width="5" stroke-linecap="round"/>
<path d="M821.5 506.982C821.5 514.974 821.187 522.577 818.651 530.184C818.155 531.672 813.179 543.437 812.545 542.803" stroke="#060606" stroke-width="5" stroke-linecap="round"/>
<path d="M817.429 505.354C817.429 514.265 819.435 529.181 810.103 533.847" stroke="#060606" stroke-width="5" stroke-linecap="round"/>
<path d="M810.102 505.354C810.102 511.605 811.874 522.306 806.846 527.334" stroke="#060606" stroke-width="5" stroke-linecap="round"/>
<path d="M806.846 497.213C806.846 505.915 807.11 517.84 797.891 522.45" stroke="#060606" stroke-width="5" stroke-linecap="round"/>
<path d="M800.333 496.398C800.333 501.317 801.573 510.563 798.343 514.716C797.591 515.683 797.878 517.375 796.263 517.565C794.845 517.732 792.784 518.824 792.192 520.007" stroke="#060606" stroke-width="5" stroke-linecap="round"/>
<path d="M793.82 491.515C793.82 495.796 793.82 500.078 793.82 504.359C793.82 506.734 792.433 508.072 792.192 510.239C791.871 513.129 786.493 514.079 786.493 517.566" stroke="#060606" stroke-width="5" stroke-linecap="round"/>
<path d="M785.679 490.7C785.679 500.205 782.75 506.814 779.98 515.123" stroke="#060606" stroke-width="5" stroke-linecap="round"/>
<path d="M772.654 487.443C772.654 491.514 772.654 495.584 772.654 499.655C772.654 503.242 769.397 506.08 769.397 509.424" stroke="#060606" stroke-width="5" stroke-linecap="round"/>
<path d="M761.257 490.7C761.257 493.625 761.257 496.55 761.257 499.474C761.257 501.2 760.155 506.12 758.814 502.098" stroke="#060606" stroke-width="5" stroke-linecap="round"/>
<path d="M757.185 485.815C757.185 492.942 752.939 501.635 749.858 507.796" stroke="#060606" stroke-width="5" stroke-linecap="round"/>
<path d="M766.141 493.143C766.141 498.849 766.964 504.526 763.698 509.425" stroke="#060606" stroke-width="5" stroke-linecap="round"/>
<path d="M743.346 481.745C743.346 486.564 744.634 493.55 742.893 498.027C741.589 501.381 739.566 504.48 738.461 507.796" stroke="#060606" stroke-width="5" stroke-linecap="round"/>
<path d="M736.833 481.745C736.833 485.764 738.336 494.246 735.612 497.575C733.818 499.767 732.728 504.964 730.32 506.168" stroke="#060606" stroke-width="5" stroke-linecap="round"/>
<path d="M730.321 477.675C730.321 483.177 730.494 488.617 729.507 494.047C728.824 497.803 725.943 507.543 722.18 509.425" stroke="#060606" stroke-width="5" stroke-linecap="round"/>
<path d="M722.179 483.373C722.179 487.444 722.179 491.514 722.179 495.585C722.179 498.829 720.551 501.494 720.551 504.54" stroke="#060606" stroke-width="5" stroke-linecap="round"/>
<path d="M710.781 481.745V504.54" stroke="#060606" stroke-width="5" stroke-linecap="round"/>
<path d="M714.853 482.559V500.469" stroke="#060606" stroke-width="5" stroke-linecap="round"/>
<path d="M701.827 487.443C701.827 491.846 701.827 496.248 701.827 500.65C701.827 504.26 703.09 510.379 701.013 513.495" stroke="#060606" stroke-width="5" stroke-linecap="round"/>
<path d="M694.5 487.443V511.866" stroke="#060606" stroke-width="5" stroke-linecap="round"/>
<path d="M684.73 489.072V508.611" stroke="#060606" stroke-width="5" stroke-linecap="round"/>
<path d="M676.589 489.886C676.589 497.413 675.012 507.95 677.403 515.123" stroke="#060606" stroke-width="5" stroke-linecap="round"/>
<path d="M663.564 499.655C663.564 504.853 663.041 509.09 665.373 513.495C666.755 516.106 669.697 516.806 670.891 519.194" stroke="#060606" stroke-width="5" stroke-linecap="round"/>
<path d="M651.352 507.796C651.47 508.741 656.423 512.867 657.457 513.902C660.115 516.56 661.935 518.627 661.935 522.45" stroke="#060606" stroke-width="5" stroke-linecap="round"/>
<path d="M647.281 519.193C646.259 519.193 651.075 522.279 651.759 522.812C653.877 524.459 654.608 526.097 654.608 528.963" stroke="#060606" stroke-width="5" stroke-linecap="round"/>
<path d="M638.326 530.591C641.711 531.014 643.605 542.185 646.467 543.616" stroke="#060606" stroke-width="5" stroke-linecap="round"/>
<path d="M639.955 525.707C640.152 527.283 642.829 529.66 643.573 531.361C644.536 533.562 645.444 535.87 646.468 537.919" stroke="#060606" stroke-width="5" stroke-linecap="round"/>
<path d="M631 542.803C634.637 542.803 637.513 547.339 637.513 550.944" stroke="#060606" stroke-width="5" stroke-linecap="round"/>
<path d="M625.301 553.386C625.301 555.714 627.603 557.177 628.557 559.084" stroke="#060606" stroke-width="5" stroke-linecap="round"/>
<path d="M911.091 503.023C911.091 508.275 907.517 528.415 913.68 531.496" stroke="#060606" stroke-width="5" stroke-linecap="round"/>
<path d="M916.268 497.847C916.268 502.891 913.581 531.496 918.857 531.496" stroke="#060606" stroke-width="5" stroke-linecap="round"/>
<path d="M921.445 499.141C921.445 504.991 918.436 530.638 922.739 532.79" stroke="#060606" stroke-width="5" stroke-linecap="round"/>
<path d="M933.094 497.847V531.496" stroke="#060606" stroke-width="5" stroke-linecap="round"/>
<path d="M942.152 496.553V519.848" stroke="#060606" stroke-width="5" stroke-linecap="round"/>
<path d="M953.801 492.67V510.789" stroke="#060606" stroke-width="5" stroke-linecap="round"/>
<path d="M966.742 484.905V510.789" stroke="#060606" stroke-width="5" stroke-linecap="round"/>
<path d="M971.919 491.376V506.906" stroke="#060606" stroke-width="5" stroke-linecap="round"/>
<path d="M983.566 478.434V510.789" stroke="#060606" stroke-width="5" stroke-linecap="round"/>
<path d="M992.627 481.022V504.318" stroke="#060606" stroke-width="5" stroke-linecap="round"/>
<path d="M999.098 482.316V509.495" stroke="#060606" stroke-width="5" stroke-linecap="round"/>
<path d="M1009.45 486.199V508.201" stroke="#060606" stroke-width="5" stroke-linecap="round"/>
<path d="M1018.51 491.376V521.143" stroke="#060606" stroke-width="5" stroke-linecap="round"/>
<path d="M1032.75 497.847C1032.75 501.668 1034.63 515.669 1031.45 517.26" stroke="#060606" stroke-width="5" stroke-linecap="round"/>
<path d="M1026.28 493.964C1026.28 500.841 1027.14 508.209 1024.98 514.671" stroke="#060606" stroke-width="5" stroke-linecap="round"/>
<path d="M1041.81 496.553V517.26" stroke="#060606" stroke-width="5" stroke-linecap="round"/>
<path d="M1054.75 500.436V521.143" stroke="#060606" stroke-width="5" stroke-linecap="round"/>
<path d="M1059.92 500.436V519.849" stroke="#060606" stroke-width="5" stroke-linecap="round"/>
<path d="M1068.98 510.789V535.379" stroke="#060606" stroke-width="5" stroke-linecap="round"/>
<path d="M1078.04 515.966V531.496" stroke="#060606" stroke-width="5" stroke-linecap="round"/>
<path d="M1089.69 521.143V530.202" stroke="#060606" stroke-width="5" stroke-linecap="round"/>
<path d="M1096.16 526.319V537.967" stroke="#060606" stroke-width="5" stroke-linecap="round"/>
<path d="M932.83 583.545C935.387 577.644 940.698 573.019 944.913 568.277C947.146 565.765 949.595 562.688 952.407 560.783C957.71 557.191 965.143 551.313 971.609 550.667C974.731 550.354 978.278 547.457 981.351 546.451C984.44 545.441 987.546 545.294 990.531 543.922C992.984 542.795 995.486 543.116 998.118 543.079C1002.89 543.013 1007.57 542.236 1012.36 542.236C1019.03 542.236 1024.37 542.227 1030.43 545.608C1033.53 547.333 1036.74 549.761 1040.27 550.479C1043.51 551.139 1046.88 551.529 1049.82 553.196C1054.56 555.881 1058.65 557.245 1062.66 561.251C1063.79 562.387 1065.78 565.293 1066.87 565.841" stroke="#060606" stroke-width="5" stroke-linecap="round"/>
<path d="M948.004 591.974C954.302 580.523 964.013 573.942 974.794 567.714C979.282 565.12 984.48 563.596 989.266 561.625C995.918 558.886 999.285 557.303 1007.02 557.878C1012.8 558.309 1018.51 558.753 1024.06 560.454C1027.98 561.653 1032.83 562.735 1036.33 564.997C1038.49 566.387 1040.41 568.422 1042.61 569.681C1045.38 571.264 1053.67 571.5 1054.23 575.957C1054.66 579.423 1054.18 578.622 1051.32 581.483C1046.07 586.735 1042.33 588.321 1035.26 589.82C1024.74 592.05 1013.18 595.346 1002.43 595.346C994.481 595.346 985.542 597.573 977.697 595.159C972.298 593.498 965.135 593.66 959.385 593.66C956.041 593.66 953.099 589.445 949.69 589.445" stroke="#060606" stroke-width="5" stroke-linecap="round"/>
<path d="M1031.54 590.489C1037.52 582.974 1036.49 574.655 1025.64 575.886C1016.1 576.969 1013.08 584.845 1014.04 593.322" stroke="#060606" stroke-width="5" stroke-linecap="round"/>
<path d="M936.202 613.051C938.611 617.869 941.681 623.635 945.897 626.914C948.183 628.692 951.02 628.868 953.531 630.099C956.072 631.344 957.804 633.611 960.182 634.97C966.124 638.365 971.447 645.62 975.356 651.174C977.846 654.712 981.077 657.602 983.412 661.103" stroke="#060606" stroke-width="5" stroke-linecap="round"/>
<path d="M1309.26 441.831C1307.43 440.654 1305.32 439.417 1303.19 438.785C1294.6 436.242 1285.24 442.365 1277.19 446.948C1275.22 446.937 1271.97 447.319 1270.25 446.681C1266.61 445.33 1263.52 438.449 1259.94 435.957C1254.99 432.497 1247.16 432.357 1240.97 435.447C1237.38 437.237 1233.42 440.322 1229.75 441.569C1227 442.507 1224.24 441.343 1221.5 442.269C1219.73 442.866 1218.52 443.958 1217.61 445.716C1216.6 447.657 1216.94 449.464 1217.5 451.185C1218.52 452.002 1219.54 452.688 1220.84 453.041C1228.15 455.016 1235.7 450.562 1242.57 446.453C1254.28 440.146 1256.84 453.736 1265.31 457.089C1273.19 460.206 1278.75 458.393 1286.87 453.686C1290.23 451.736 1293.94 449.402 1297.6 449.767C1302.19 450.224 1305.41 455.911 1308.39 458.919C1310.95 461.515 1314.26 463.03 1318.02 463.515C1320.77 463.87 1325.21 464.007 1327.78 461.913C1330 460.096 1330.22 458.492 1330.59 456.024C1330.16 454.852 1329.75 453.294 1328.81 452.523C1327.17 451.182 1322.27 452.637 1319.97 452.972L1309.26 441.831Z" fill="#020103"/>
<path d="M1308.86 246.366C1306.73 245.971 1304.33 245.624 1302.16 245.841C1293.45 246.707 1287.79 255.774 1282.63 262.949C1280.88 263.671 1278.16 265.226 1276.36 265.284C1272.54 265.403 1266.82 260.27 1262.58 259.321C1256.69 258.003 1249.68 260.783 1245.52 265.905C1243.12 268.873 1240.94 273.16 1238.23 275.659C1236.19 277.539 1233.24 277.499 1231.21 279.365C1229.9 280.566 1229.3 282.012 1229.25 283.956C1229.19 286.102 1230.28 287.624 1231.52 288.988C1232.77 289.357 1233.98 289.603 1235.28 289.442C1242.62 288.532 1247.39 281.659 1251.71 275.356C1259.36 265.25 1267.51 276.707 1276.48 276.62C1284.81 276.539 1288.96 272.819 1294.13 265.506C1296.27 262.477 1298.55 258.968 1301.95 257.941C1306.22 256.654 1311.54 260.649 1315.47 262.291C1318.87 263.708 1322.46 263.863 1326 262.909C1328.6 262.211 1332.6 260.686 1333.97 257.821C1335.16 255.337 1334.66 253.792 1333.92 251.4C1333.03 250.491 1331.99 249.221 1330.82 248.866C1328.8 248.249 1325.08 251.397 1323.18 252.557L1308.86 246.366Z" fill="#020103"/>
<path d="M1220.72 104.234C1218.99 104.951 1217.11 105.841 1215.76 107.065C1210.34 111.983 1212.45 121.959 1213.65 130.184C1212.92 131.611 1212.08 134.169 1210.88 135.091C1208.33 137.035 1201 135.716 1197.45 137.019C1192.52 138.826 1189.54 144.442 1190.07 150.543C1190.38 154.079 1191.72 158.556 1191.51 161.863C1191.35 164.352 1189.3 165.749 1189.13 168.225C1189.03 169.818 1189.57 171.262 1190.82 172.837C1192.21 174.575 1193.96 175.263 1195.72 175.75C1196.82 175.436 1197.82 175.048 1198.61 174.285C1203.05 170 1201.79 162.203 1200.59 155.081C1199.16 143.308 1212.35 148.493 1218.47 144.075C1224.15 139.966 1224.54 134.985 1223.25 126.647C1222.72 123.193 1221.97 119.287 1223.63 116.816C1225.71 113.72 1232.02 114.327 1235.81 113.726C1239.09 113.206 1241.66 111.592 1243.47 109.111C1244.79 107.294 1246.54 104.138 1245.58 101.189C1244.75 98.6308 1243.39 97.642 1241.29 96.0927C1240.08 95.7979 1238.53 95.2889 1237.49 95.5722C1235.68 96.0637 1235.21 100.379 1234.67 102.223L1220.72 104.234Z" fill="#020103"/>
</g>
<defs>
<clipPath id="clip0_27_494">
<rect width="1920" height="1080" fill="white"/>
</clipPath>
</defs>
</svg>
