<svg width="1920" height="1080" viewBox="0 0 1920 1080" fill="none" xmlns="http://www.w3.org/2000/svg">
<path d="M848.48 1027.7C837.778 1017 826.073 1006.38 814.09 997.133C803.332 988.834 800.442 978.461 792.031 968.648C780.577 955.285 764.311 949.625 751.909 938.773C742.119 930.208 735.669 927.188 728.981 915.151C719.566 898.204 719.242 884.475 714.044 865.823C708.08 844.423 697.981 824.296 689.033 804.163C684.68 794.37 673.401 780.618 673.401 769.772C673.401 726.437 665.635 679.771 664.021 636.204C663.032 609.495 654.642 583.721 654.642 557.175C654.642 543.436 656.306 531.253 657.768 518.095C658.638 510.268 666.347 506.507 666.974 498.989C667.824 488.792 667.148 478.31 667.148 468.072C667.148 442.503 669.402 419.464 673.227 394.601C676.528 373.141 689.033 354.207 689.033 333.636" stroke="#060606" stroke-width="5" stroke-linecap="round"/>
<path d="M689.081 332.799C690.05 324.074 714.804 318.618 721.346 316.667C737.337 311.897 757.329 309.712 774 308.6C792.221 307.386 810.07 305.559 828.223 308.152C839.549 309.77 851.152 307.43 862.28 305.576C879.281 302.742 895.46 302.551 912.694 302.551C941.505 302.551 969.918 303.18 998.621 304.455C1026.8 305.708 1055.29 302.739 1083.43 304.679C1099.34 305.777 1112.94 316.667 1129.59 316.667C1144.83 316.667 1158.17 327.795 1171.93 332.799C1176.31 334.389 1187.27 339.041 1189.19 342.882" stroke="#060606" stroke-width="5" stroke-linecap="round"/>
<path d="M1197.25 344.898C1197.25 372.276 1200.99 399.383 1205.32 426.457C1209.85 454.809 1229.52 477.417 1229.52 507.119C1229.52 511.253 1231.53 513.199 1231.53 517.313C1231.53 524.507 1231.96 536.095 1234 542.968C1239.18 560.461 1235.57 581.648 1235.57 599.88C1235.57 608.32 1235.57 616.759 1235.57 625.199C1235.57 649.547 1235.57 673.895 1235.57 698.243C1235.57 717.471 1227.5 735.478 1227.5 755.266C1227.5 773.243 1225.26 790.068 1221.34 807.697C1218.57 820.175 1211.96 831.756 1209.24 843.995C1206.42 856.695 1205.67 871.407 1199.72 883.317C1194.59 893.566 1187.08 901.623 1181.57 911.549C1176.93 919.897 1168.3 923.699 1162.97 932.163C1157.84 940.309 1147.92 946.629 1144.82 955.913" stroke="#060606" stroke-width="5" stroke-linecap="round"/>
<path d="M1143.57 959.598C1140.65 959.598 1137.21 963.555 1135.76 965.876C1130.19 974.785 1116.59 979.259 1108.48 985.338C1106.97 986.474 1104.56 988.898 1103.39 990.361C1102.3 991.725 1096.55 991.98 1094.67 992.802C1090.39 994.674 1086.32 996.105 1082.04 998.243C1073.77 1002.38 1064.93 1010.15 1056.79 1014.99C1046.5 1021.1 1035.83 1026.11 1025.47 1031.94C1020.08 1034.97 1014.68 1038.26 1008.24 1038.7C1003.63 1039.02 999.609 1041.09 994.847 1041.21C990.502 1041.33 984.398 1041.81 980.268 1043.1C968.293 1046.84 951.781 1046.24 939.18 1046.24C932.818 1046.24 926.426 1046.41 920.067 1046.24C912.972 1046.04 905.85 1041.05 898.721 1040.03C891.763 1039.03 884.772 1040.28 878.003 1038.77C873.571 1037.79 869.371 1036.19 864.819 1036.19C862.363 1036.19 853.798 1037.48 852.262 1035.56C851.633 1034.78 844.76 1031.17 843.473 1031.17" stroke="#060606" stroke-width="5" stroke-linecap="round"/>
<path d="M665.86 765.609C655.484 765.609 645.305 764.263 636.912 758.13C629.417 752.653 621.783 746.285 619.737 737.077C617.983 729.184 611.378 723.665 609.764 715.193C608.892 710.614 605.722 706.825 604.778 702.104C603.838 697.405 603.612 692.122 602.008 687.63C599.161 679.659 595.122 672.257 591.758 664.568C587.189 654.124 591.683 640.161 587.049 629.733C584.886 624.866 585.272 618.157 583.863 612.835C580.482 600.061 574.952 585.159 578.877 571.422C581.151 563.464 583.174 555.558 588.018 548.637C593.602 540.661 596.662 539.98 605.401 539.98C614.017 539.98 621.313 540.342 629.017 542.543C631.991 543.393 648.408 561.763 648.408 547.46" stroke="#060606" stroke-width="5" stroke-linecap="round"/>
<path d="M640.928 598.569C630.184 598.569 631.016 586.063 625.692 580.148C620.968 574.898 615.878 571.145 608.518 571.145C599.376 571.145 603.531 593.115 603.531 599.816C603.531 607.482 602.265 616.511 604.501 623.777C605.648 627.506 604.778 632.692 604.778 636.589C604.778 640.174 607.066 643.504 607.271 647.185C607.671 654.391 609.764 662.75 609.764 669.623C609.764 673.101 611.952 680.266 613.642 683.405C616.061 687.897 618.911 695.668 622.507 699.264C624.67 701.427 628.74 707.367 631.648 708.198C633.725 708.791 638.79 711.469 639.682 713.253" stroke="#060606" stroke-width="5" stroke-linecap="round"/>
<path d="M659.627 700.788C646.635 700.788 646.325 677.819 633.449 677.103C620.302 676.373 623.476 660.397 623.476 649.748C623.476 640.812 627.628 627.843 635.942 623.224C640.089 620.92 644.333 616.003 649.031 619.761C656.585 625.805 650.403 639.268 647.438 645.939C644.655 652.201 645.915 660.073 645.915 667.131" stroke="#060606" stroke-width="5" stroke-linecap="round"/>
<path d="M648.408 544.967C648.408 542.048 650.757 539.153 649.377 536.241C645.89 528.879 640.692 523.286 637.881 515.257C636.942 512.573 633.751 494.152 630.956 493.857C626.559 493.395 610.102 491.216 609.764 485.131C609.477 479.963 611.769 476.894 615.374 473.289C619.046 469.617 625.969 465.999 625.969 460.2C625.969 454.038 620.937 447.167 619.806 440.948C618.954 436.261 620.815 431.097 619.044 426.543C617.069 421.465 615.997 416.965 615.997 411.584C615.997 407.362 616.532 403.894 614.058 400.296C607.898 391.336 605.926 387.854 605.055 375.987C604.643 370.377 606.405 361.846 604.224 356.458C601.873 350.651 596.98 345.816 594.805 339.837C592.508 333.519 593.559 325.976 593.559 319.338C593.559 315.825 592.927 311.551 593.836 308.119C594.42 305.91 596.713 304.833 597.229 302.509C597.836 299.776 594.288 298.698 593.005 296.83C590.798 293.621 589.938 289.687 587.949 286.373C583.063 278.229 584.833 267.702 584.833 258.533C584.833 252.065 581.653 237.064 590.789 237.064C594.288 237.064 596.476 238.311 599.792 238.311C602.72 238.311 603.531 239.452 603.531 235.541C603.531 228.107 601.559 220.554 601.107 213.103C600.426 201.86 601.038 190.362 601.038 179.099C601.038 174.956 606.739 173.489 610.387 173.489C616.118 173.489 616.992 168.188 619.737 164.071C623.709 158.112 626.543 154.836 629.224 148.281C630.778 144.483 631.912 138.188 635.319 135.538C636.832 134.362 639.16 134.813 640.928 133.876C643.68 132.42 645.623 128.957 646.884 126.12C649.463 120.318 651.279 123.54 655.264 120.441C660.878 116.075 662.5 110.476 664.336 103.682C665.322 100.035 666.426 92.4624 671.469 92.4624C676.348 92.4624 681.284 91.2159 686.428 91.2159C690.42 91.2159 690.482 82.8743 691.761 79.9967C694.782 73.1994 698.669 74.4129 705.75 72.7943C709.313 71.9799 718.216 74.7561 718.216 69.9549C718.216 65.3604 717.004 58.995 718.285 54.5113C719.811 49.17 730.114 51.2535 733.867 51.3257C739.156 51.4274 745.591 55.3721 751.25 56.2427C756.976 57.1237 760.649 55.4498 764.339 51.3257C767.477 47.8177 768.839 42.8401 772.788 40.1066C779.992 35.1192 786.417 35.1203 794.88 35.1203C804.848 35.1203 814.509 37.4508 824.589 37.6134C832.856 37.7468 836.357 46.3394 843.565 46.3394C853.479 46.3394 859.301 40.2603 868.219 36.5054C875.67 33.3684 882.216 35.9196 889.272 38.86C893.634 40.6773 898.532 42.3491 902.431 45.0928C904.631 46.641 905.828 50.4184 909.218 49.8021C913.023 49.1102 916.422 46.3649 920.09 45.1621C926.29 43.1295 932.996 42.0813 939.481 41.4916C944.339 41.0501 950.513 40.577 955.064 42.5997C961.061 45.265 965.237 48.1532 970.299 52.2952C972.286 53.9208 991.531 48.5392 994.33 47.0319C996.992 45.5987 999.485 43.2549 1002.43 42.5997C1007.67 41.437 1010.33 36.2496 1015.18 34.1507C1022.91 30.7989 1026.37 32.4665 1030.48 38.86C1033.87 44.1291 1037.11 46.5039 1041.56 51.1872C1044.41 54.1823 1049.72 44.1783 1054.1 42.8767C1061.07 40.8029 1072.92 38.5259 1080.34 40.1758C1084.24 41.0408 1084.95 48.6568 1087.2 51.3257C1090.23 54.9242 1089.37 57.8298 1093.99 59.7746C1097.45 61.2328 1101.37 60.3524 1104.93 62.2678C1107.79 63.8072 1107.21 55.8123 1109.78 53.8188C1116.65 48.4692 1126.41 50.0791 1134.57 50.0791C1139.51 50.0791 1142.28 56.431 1143.23 60.6749C1144.29 65.4802 1144.01 69.0606 1149.81 68.1543C1157.24 66.992 1162.56 67.7966 1167.26 73.7639C1173.19 81.3003 1180.13 89.5188 1183.19 98.6953" stroke="#060606" stroke-width="5" stroke-linecap="round"/>
<path d="M1179.45 99.9414C1179.45 105.748 1179.16 107.849 1184.43 110.191C1186.85 111.266 1188.95 111.264 1191.63 111.161C1195.02 111.03 1194.41 106.309 1197.52 104.928C1203.55 102.246 1207.54 100.602 1209.36 108.806C1210.26 112.838 1211.7 116.718 1213.1 120.579C1214.38 124.085 1217.35 125.545 1219.06 128.612C1221.89 133.708 1228.61 138.585 1234.57 138.585C1245.26 138.585 1245.51 141.764 1245.51 152.228C1245.51 160.581 1244.27 169.263 1244.27 177.229C1244.27 180.894 1243.09 187.083 1244.89 190.318C1247.67 195.316 1251.32 199.569 1254.79 204.03C1258.68 209.026 1257.18 218.12 1261.44 222.382C1265.34 226.281 1264.36 227.091 1271 227.091C1276.02 227.091 1283.13 223.332 1286.51 228.338C1289.42 232.646 1297.42 246.241 1291.64 252.023C1289.74 253.924 1287.17 254.481 1285.68 257.009C1284.56 258.91 1281.87 258.305 1280.42 260.125C1273.46 268.823 1275.43 280.348 1275.43 291.22C1275.43 298.09 1275.1 309.035 1282.22 313.105C1287.94 316.375 1290.32 320.436 1291.91 326.817C1295.72 342.021 1289.56 349.255 1274.81 349.255C1269.31 349.255 1272.78 379.218 1270.17 384.159C1265.48 393.018 1269.2 403.282 1269.2 412.83C1269.2 414.788 1270 418.178 1267.81 419.063C1265.27 420.094 1259.06 419 1257.7 421.556C1256.49 423.85 1254.66 425.813 1252.99 427.789C1249.52 431.917 1251.01 439.694 1249.81 444.687C1246.62 457.902 1244.27 467.257 1244.27 480.768C1244.27 491.795 1245.11 504.826 1240.8 515.049C1239.73 517.599 1238.03 522.949 1238.03 525.645C1238.03 528.675 1237.15 537.562 1235.54 539.98" stroke="#060606" stroke-width="5" stroke-linecap="round"/>
<path d="M1236.79 537.487C1240.46 537.487 1244 538.734 1247.38 538.734C1251.03 538.734 1254.41 531.606 1257.36 529.315C1261.23 526.305 1269.56 519.87 1274.74 521.351C1277.41 522.114 1279.71 525.442 1282.36 526.199C1300.46 531.37 1298.9 558.439 1301.54 572.945C1303.37 583.035 1302.86 594.255 1302.86 604.525C1302.86 620.869 1306.14 638.068 1301.33 653.695C1296.12 670.624 1289.43 687.743 1281.66 703.281" stroke="#060606" stroke-width="5" stroke-linecap="round"/>
<path d="M1282.91 702.034C1282.91 709.075 1280.11 713.561 1275.99 718.863C1271.77 724.288 1269.83 730.907 1265.74 736.73C1261.59 742.626 1253.33 752.167 1245.51 753.143C1242.22 753.555 1231.71 760.449 1229.31 755.637" stroke="#060606" stroke-width="5" stroke-linecap="round"/>
<path d="M1236.95 711.235C1236.95 705.452 1242.02 701.941 1242.28 696.334C1242.51 691.222 1245.97 684.606 1248.05 679.757C1251.35 672.044 1257.9 670.687 1264.48 667.916C1266.42 667.098 1270.71 668.542 1272.27 666.633C1274.39 664.045 1272.5 653.29 1272.67 650.351C1272.88 646.552 1274.25 642.594 1274.25 638.855C1274.25 634.638 1275.22 632.102 1274.25 627.261C1272.88 620.423 1269.26 614.711 1267.09 608.216C1266.56 606.615 1265.61 603.092 1263.84 602.937C1260.44 602.642 1256.78 603.448 1253.43 602.838C1252.63 602.694 1246.3 601.034 1246.03 601.309C1244.76 602.576 1245.83 609.787 1245.83 611.571C1245.83 616.374 1245.83 621.176 1245.83 625.978C1245.83 630.848 1247.65 640.086 1245.63 644.628C1243.19 650.13 1245.09 657.496 1243.16 663.278" stroke="#060606" stroke-width="5" stroke-linecap="round"/>
<path d="M1273.36 556.707C1275.58 555.532 1283.91 553.068 1286.48 555.128C1291.07 558.798 1290.32 571.723 1291.12 576.738C1293.72 593.011 1291.12 609.949 1291.12 626.422C1291.12 630.418 1291.12 634.414 1291.12 638.411" stroke="#060606" stroke-width="5" stroke-linecap="round"/>
<path d="M1284.9 618.874C1284.9 614.365 1284.65 609.98 1282.73 605.799C1281.8 603.762 1281.35 602.923 1281.35 600.668C1281.35 597.56 1281.19 593.139 1279.38 590.652C1275.96 585.95 1276.91 579.238 1276.91 573.581" stroke="#060606" stroke-width="5" stroke-linecap="round"/>
<path d="M1259.15 574.469C1259.15 577.501 1263.07 589.039 1260.73 591.145C1258.6 593.057 1243.18 591.383 1242.28 589.566" stroke="#060606" stroke-width="5" stroke-linecap="round"/>
<path d="M986.081 543.366C986.081 549.092 985.585 554.571 985.163 560.277C984.582 568.112 985.512 577.189 983.92 584.751C981.249 597.437 983.164 612.056 983.164 625.055C983.164 633.051 985.557 642.784 989.485 649.853C991.363 653.234 992.891 656.157 994.077 659.848C996.125 666.221 1001.64 673.682 1001.64 680.487" stroke="#060606" stroke-width="5" stroke-linecap="round"/>
<path d="M1002.61 675.624C1002.76 674.465 1007.81 671.206 1008.93 670.33C1011.23 668.542 1014.48 668.817 1017.2 668.817C1021.86 668.817 1025.3 674.26 1026.71 678.326C1029.17 685.444 1032.13 689.17 1036.76 695.182C1041.19 700.943 1042.58 707.106 1045.89 713.065C1048.54 717.829 1048.32 723.27 1048.32 728.625C1048.32 732.398 1042.74 741.293 1038.6 741.753C1034.76 742.179 1034.88 742.709 1031.25 740.727C1028.36 739.152 1026.38 735.74 1024.76 733.001C1020.9 726.438 1005.61 724.769 999.264 727.652C994.203 729.953 986.502 732.243 983.65 737.377C981.253 741.692 980.241 747.701 976.896 751.046C973.572 754.37 962.835 756.665 958.419 753.855C954.07 751.088 948.833 749.441 944.696 746.4C942.84 745.035 937.745 740.898 935.512 740.781C928.492 740.411 922.207 735.858 916.062 732.785C910.744 730.126 906.887 730.084 900.989 730.084C894.777 730.084 893.695 733.177 893.695 739.322C893.695 743.322 895.868 749.647 899.53 751.478" stroke="#060606" stroke-width="5" stroke-linecap="round"/>
<path d="M918.98 536.559C918.98 544.671 921.144 549.886 923.842 557.413C925.941 563.267 928.704 565.592 928.704 572.324C928.704 587.29 928.704 602.255 928.704 617.221C928.704 626.116 928.816 633.85 926.219 642.505C924.226 649.149 921.888 654.076 918.98 660.064C917.608 662.889 916.062 667.583 916.062 670.762C916.062 672.51 915.584 678.73 914.603 679.514C911.207 682.231 907.319 682.67 902.988 683.458C899.633 684.068 893.218 685.962 890.777 688.266C888.683 690.244 886.809 690.631 885.699 693.129C884.686 695.407 883.242 697.266 882.025 699.396C880.143 702.69 875.751 702.759 874.245 705.771" stroke="#060606" stroke-width="5" stroke-linecap="round"/>
<path d="M889.805 589.073C889.805 593.592 886.075 597.358 883.754 600.959C881.022 605.199 877.665 609.744 874.678 613.818C869.841 620.413 866.498 627.94 860.63 633.808" stroke="#060606" stroke-width="5" stroke-linecap="round"/>
<path d="M1015.26 576.431C1015.26 584.324 1024.12 588.971 1030.28 592.909C1042.5 600.733 1054.98 608.379 1068.74 613.385" stroke="#060606" stroke-width="5" stroke-linecap="round"/>
<path d="M867.438 563.788C866.825 569.613 860.871 574.327 857.227 578.376C854.317 581.609 846.801 583.124 842.694 583.238C834.262 583.472 825.792 583.238 817.355 583.238C814.244 583.238 811.222 581.216 808.332 580.105C804.682 578.701 801.022 576.828 797.419 575.026C794.891 573.762 791.529 573.469 789.423 571.784C786.633 569.552 780.364 571.6 778.185 567.678C777.169 565.85 775.233 561.317 777.483 560.817C783.374 559.508 788.845 556.646 794.718 555.036C800.936 553.331 808.348 553.678 814.762 553.037C819.269 552.586 823.878 551.553 828.484 551.092C834.092 550.531 839.175 549.201 844.855 549.201C848.052 549.201 850.067 551.844 852.364 553.631C854.944 555.638 856.772 556.727 859.658 558.17C861.999 559.34 866.23 559.427 867.438 561.843" stroke="#060606" stroke-width="5" stroke-linecap="round"/>
<path d="M845.071 553.092C845.071 564.65 842.331 580.321 827.566 580.321C823.417 580.321 819.635 580.756 815.842 578.755C813.026 577.269 806.641 573.356 805.199 570.11C803.939 567.277 795.336 555.592 800.336 553.092" stroke="#060606" stroke-width="5" stroke-linecap="round"/>
<path d="M814.924 551.146C814.924 554.671 813.08 565.457 816.869 567.462C822.363 570.371 828.589 567.293 831.456 562.276C832.687 560.121 835.346 558.103 835.346 555.522C835.346 551.026 829.837 549.201 826.107 549.201C822.615 549.201 819.716 549.379 816.382 550.12C815.148 550.394 813.76 549.881 812.546 550.228C811.515 550.522 812.26 552.478 811.034 553.091" stroke="#060606" stroke-width="5" stroke-linecap="round"/>
<path d="M751.712 556.008C754.987 556.008 757.997 555.036 761.221 555.036C764.392 555.036 764.883 553.144 767.704 552.119C772.501 550.374 775.668 546.163 780.671 544.555C788.351 542.086 795.424 536.558 803.2 534.614C809.836 532.955 817.528 532.669 824.432 532.669C835.377 532.669 847.395 530.879 857.713 535.1C861.432 536.621 864.553 537.064 867.87 539.476C869.904 540.955 870.65 543.564 872.3 545.311C875.745 548.959 879.733 549.568 883.97 551.686C887.387 553.395 890.774 557.953 894.667 557.953" stroke="#060606" stroke-width="5" stroke-linecap="round"/>
<path d="M899.53 477.237C899.53 484.061 899.498 490.903 896.18 497.065C895.257 498.78 895.392 501.674 893.695 502.522" stroke="#060606" stroke-width="5" stroke-linecap="round"/>
<path d="M890.778 468.485C890.778 479.726 893.43 494.654 886.888 504.467" stroke="#060606" stroke-width="5" stroke-linecap="round"/>
<path d="M882.998 471.402C882.998 477.288 884.443 485.347 882.241 490.852C881.03 493.879 882.698 498.782 879.108 500.577" stroke="#060606" stroke-width="5" stroke-linecap="round"/>
<path d="M873.273 464.595C873.273 475.034 875.08 489.183 870.355 498.632" stroke="#060606" stroke-width="5" stroke-linecap="round"/>
<path d="M861.603 469.458C861.603 479.62 860.766 488.658 859.658 498.633" stroke="#060606" stroke-width="5" stroke-linecap="round"/>
<path d="M851.878 466.54C851.878 476.047 852.236 486.247 847.988 494.742" stroke="#060606" stroke-width="5" stroke-linecap="round"/>
<path d="M835.346 467.513C835.346 476.983 832.428 486.262 832.428 495.715" stroke="#060606" stroke-width="5" stroke-linecap="round"/>
<path d="M839.236 465.567V491.824" stroke="#060606" stroke-width="5" stroke-linecap="round"/>
<path d="M817.841 460.705V488.907" stroke="#060606" stroke-width="5" stroke-linecap="round"/>
<path d="M827.566 463.623C827.566 468.182 827.852 472.222 826.377 476.481C825.504 479.004 824.757 486.908 822.704 487.935" stroke="#060606" stroke-width="5" stroke-linecap="round"/>
<path d="M803.254 463.623V485.99" stroke="#060606" stroke-width="5" stroke-linecap="round"/>
<path d="M807.144 462.65V485.99" stroke="#060606" stroke-width="5" stroke-linecap="round"/>
<path d="M789.639 457.788C789.639 466.512 790.612 475.636 790.612 484.045" stroke="#060606" stroke-width="5" stroke-linecap="round"/>
<path d="M793.529 462.65V481.128" stroke="#060606" stroke-width="5" stroke-linecap="round"/>
<path d="M777.969 461.678V486.962" stroke="#060606" stroke-width="5" stroke-linecap="round"/>
<path d="M759.492 465.567C759.492 474.474 759.275 485.178 764.354 492.797" stroke="#060606" stroke-width="5" stroke-linecap="round"/>
<path d="M765.327 467.513C765.327 475.726 765.759 481.452 768.244 488.907" stroke="#060606" stroke-width="5" stroke-linecap="round"/>
<path d="M771.162 466.54V485.017" stroke="#060606" stroke-width="5" stroke-linecap="round"/>
<path d="M748.795 476.265C748.795 480.451 748.549 484.726 748.795 488.907C748.951 491.565 753.068 497.262 754.63 499.604" stroke="#060606" stroke-width="5" stroke-linecap="round"/>
<path d="M739.07 485.018C739.07 494.166 736.979 506.121 741.015 514.192" stroke="#060606" stroke-width="5" stroke-linecap="round"/>
<path d="M741.015 481.127C741.015 486.151 741.015 491.176 741.015 496.2C741.015 501.248 744.676 504.525 745.877 509.329" stroke="#060606" stroke-width="5" stroke-linecap="round"/>
<path d="M727.4 499.604C727.4 508.908 731.321 515.256 734.207 523.917" stroke="#060606" stroke-width="5" stroke-linecap="round"/>
<path d="M719.62 508.357C719.62 511.871 718.7 517.355 721.133 520.135C724.23 523.675 725.455 528.228 725.455 532.67" stroke="#060606" stroke-width="5" stroke-linecap="round"/>
<path d="M715.73 521.972C715.73 527.379 715.564 531.933 718.648 536.559" stroke="#060606" stroke-width="5" stroke-linecap="round"/>
<path d="M992.888 469.458C992.888 476.334 991.821 488.06 996.562 493.986C998.174 496.001 996.657 500.03 999.696 501.55" stroke="#060606" stroke-width="5" stroke-linecap="round"/>
<path d="M1001.64 466.54C1001.64 473.185 1001.64 479.831 1001.64 486.476C1001.64 488.531 1006.77 494.875 1008.45 495.715" stroke="#060606" stroke-width="5" stroke-linecap="round"/>
<path d="M1012.34 465.567C1012.34 469.229 1010.19 486.375 1013.31 487.935" stroke="#060606" stroke-width="5" stroke-linecap="round"/>
<path d="M1023.04 460.705V489.88" stroke="#060606" stroke-width="5" stroke-linecap="round"/>
<path d="M1031.79 452.926V485.99" stroke="#060606" stroke-width="5" stroke-linecap="round"/>
<path d="M1038.6 460.705V482.1" stroke="#060606" stroke-width="5" stroke-linecap="round"/>
<path d="M1046.38 460.705C1046.38 468.567 1047.35 476.422 1047.35 484.045" stroke="#060606" stroke-width="5" stroke-linecap="round"/>
<path d="M1054.16 459.732V482.1" stroke="#060606" stroke-width="5" stroke-linecap="round"/>
<path d="M1061.93 457.788C1061.93 449.677 1059.28 474.845 1062.91 482.1" stroke="#060606" stroke-width="5" stroke-linecap="round"/>
<path d="M1070.69 460.705V480.155" stroke="#060606" stroke-width="5" stroke-linecap="round"/>
<path d="M1082.36 458.76V479.182" stroke="#060606" stroke-width="5" stroke-linecap="round"/>
<path d="M1093.05 459.732V477.237" stroke="#060606" stroke-width="5" stroke-linecap="round"/>
<path d="M1101.81 458.76C1101.81 462.707 1100.12 471.823 1102.29 475.292C1103.72 477.572 1101.33 482.835 1103.75 484.044" stroke="#060606" stroke-width="5" stroke-linecap="round"/>
<path d="M1112.5 462.65V481.128" stroke="#060606" stroke-width="5" stroke-linecap="round"/>
<path d="M1124.17 463.623V481.128" stroke="#060606" stroke-width="5" stroke-linecap="round"/>
<path d="M1137.79 463.623C1137.79 472.089 1138.51 480.906 1135.84 488.908" stroke="#060606" stroke-width="5" stroke-linecap="round"/>
<path d="M1146.54 478.21V491.825" stroke="#060606" stroke-width="5" stroke-linecap="round"/>
<path d="M1158.21 483.072V499.605" stroke="#060606" stroke-width="5" stroke-linecap="round"/>
<path d="M1165.99 491.825V501.55" stroke="#060606" stroke-width="5" stroke-linecap="round"/>
<path d="M1174.74 500.577V512.247" stroke="#060606" stroke-width="5" stroke-linecap="round"/>
<path d="M856.531 842.744C866.436 841.329 875.423 828.916 881.232 821.654C886.85 814.632 893.358 811.136 900.011 805.692C908.622 798.647 923.612 798.542 934.245 798.542C943.879 798.542 951.466 803.742 961.185 803.742C966.24 803.742 971.612 798.542 977.436 798.542C988.523 798.542 998.062 802.157 1009.07 803.742C1024.58 805.976 1037.5 820.559 1049.52 830.393C1051.52 832.036 1053.79 833.105 1055.73 834.655C1057.74 836.261 1056.36 834.515 1052.91 835.593C1047.78 837.197 1042.59 837.544 1037.24 837.544C1023.87 837.544 1009.96 846.557 996.359 842.672C982.347 838.668 965.685 842.224 951.146 842.744C942.207 843.063 933.11 840.73 924.423 841.733C911.613 843.211 899.437 846.644 886.432 846.644C876.14 846.644 866.638 845.344 856.531 845.344C846.945 845.344 858.215 846.449 861.731 846.644C870.811 847.148 879.725 857.449 885.277 863.617C890.989 869.964 899.815 883.676 908.678 885.645C912.506 886.496 915.45 890.514 918.934 890.846C924.987 891.422 928.872 893.767 934.245 895.757C941.837 898.569 950.734 896.496 958.513 898.718C961.71 899.632 965.472 900.393 968.986 901.174C971.859 901.812 975.814 902.546 978.736 902.546C985.951 902.546 987.582 895.641 993.325 893.012C997.536 891.085 1002.81 892.609 1007.26 891.496C1013.37 889.969 1018.02 886.661 1023.37 883.334C1029.72 879.384 1033.48 869.447 1037.96 863.472C1042.33 857.647 1049.48 853.172 1052.19 847.222C1053.42 844.517 1056.74 838.937 1056.74 836.243" stroke="#060606" stroke-width="5" stroke-linecap="round"/>
<path d="M1007.28 563.095C1008.09 554.184 1020.27 541.36 1027.88 537.345C1032.24 535.044 1035.36 534.547 1040.01 532.996C1045.15 531.285 1049.15 527.837 1054.66 526.816C1064.74 524.95 1076.92 524.985 1087.16 524.985C1094.3 524.985 1103.67 524.107 1110.28 527.045C1113.81 528.616 1117.52 530.371 1121.15 531.68C1126.51 533.608 1133.51 535.856 1137.57 539.92C1141.8 544.147 1149.35 541.327 1152.51 547.645" stroke="#060606" stroke-width="5" stroke-linecap="round"/>
<path d="M1138.09 557.945C1135.19 557.945 1130.46 558.903 1127.79 557.716C1123.72 555.905 1119.88 551.945 1115.95 550.735C1112.1 549.55 1107.41 546.482 1104.16 544.04C1100.22 541.085 1093.62 543.525 1088.65 543.525C1077.82 543.525 1062.7 541.745 1053.12 547.645C1047.35 551.194 1043.41 556.757 1037.72 560.004C1035.4 561.334 1033.56 562.469 1031.49 564.124C1025.56 568.862 1035.05 566.84 1038.53 567.443C1044.16 568.422 1049.52 570.742 1054.89 572.593C1061.63 574.916 1068.15 574.424 1075.32 574.424C1091.08 574.424 1117.96 578.641 1126.76 561.034" stroke="#060606" stroke-width="5" stroke-linecap="round"/>
<path d="M1103.07 550.735C1103.07 554.882 1104.74 563.731 1101.81 566.985C1096.4 572.997 1089.16 571.334 1081.44 571.334C1074.09 571.334 1067.97 569.924 1064.73 563.094C1061.91 557.136 1064.06 548.028 1061.87 541.465" stroke="#060606" stroke-width="5" stroke-linecap="round"/>
<path d="M1076.29 546.614C1076.29 551.129 1078.42 556.375 1082.47 558.173C1085.68 559.599 1093.8 559.821 1093.8 554.854C1093.8 547.107 1091.69 543.922 1084.53 543.525C1080.93 543.324 1075.34 539.238 1073.2 543.525" stroke="#060606" stroke-width="5" stroke-linecap="round"/>
</svg>
