<svg width="1920" height="1080" viewBox="0 0 1920 1080" fill="none" xmlns="http://www.w3.org/2000/svg">
<g clip-path="url(#clip0_27_481)">
<path d="M880.934 1024.47C865.487 1024.47 850.039 1024.47 834.592 1024.47C809.203 1024.47 794.524 1000.99 778.194 984.24C765.163 970.875 752.317 960.182 736.88 949.994C727.001 943.473 718.762 942.178 710.924 932.599C706.549 927.252 703.864 919.922 699.372 914.932C690.725 905.324 681.832 895.424 680.21 882.452C678.547 869.144 668.427 852.189 663.767 839.643C660.628 831.193 657.753 822.732 653.438 815.181C647.73 805.193 634.637 798.576 633.869 784.74C631.909 749.462 631.422 714.087 631.422 678.331C631.422 647.289 630.737 616.539 624.084 586.598C620.984 572.647 621.638 558.966 621.638 544.605C621.638 534.006 621.676 529.172 625.986 520.551C628.528 515.468 631.422 509.124 631.422 503.428C631.422 496.542 631.422 489.657 631.422 482.771C631.422 476.462 635.662 472.612 636.315 466.735C636.861 461.816 641.207 457.732 641.207 453.145C641.207 443.798 643.653 435.09 643.653 425.965C643.653 405.206 640.269 381.123 648.546 362.5C651.178 356.578 653.804 336.904 658.331 334.641" stroke="#060606" stroke-width="5" stroke-linecap="round"/>
<path d="M658.331 327.302C682.463 327.302 695.191 320.774 715.137 307.733C726.594 300.241 746.103 306.552 759.168 304.743C782 301.582 805.372 302.502 827.933 298.492C866.936 291.558 904.991 290.609 944.535 290.609C982.094 290.609 1017.55 310.941 1055.16 312.625C1072.06 313.382 1094.67 321.171 1110.33 327.846C1121.59 332.644 1130.97 341.942 1142.13 346.328C1156.13 351.828 1168.84 361.8 1181.82 369.431C1186.56 372.225 1185.83 377.843 1188.61 381.662C1193.52 388.408 1193.8 407.9 1194.05 416.452C1194.49 432.129 1206.64 446.273 1208.86 461.843C1211.51 480.399 1215.29 502.52 1224.62 519.328C1228.26 525.869 1231.29 549.466 1224.62 554.798C1220.63 557.994 1224.94 564.769 1225.71 568.252C1228.52 580.888 1228.52 593.2 1227.07 606.848C1225.65 620.23 1220.95 631.803 1220.95 645.307C1220.95 673.872 1227.01 711.677 1217.96 738.806C1213.73 751.516 1206.28 759.254 1206.28 772.509C1206.28 780.682 1203.15 792.097 1201.25 800.64C1199.19 809.889 1193.42 818.745 1191.46 827.548C1190.1 833.677 1186.71 836.851 1186.71 843.584C1186.71 850.47 1186.71 857.356 1186.71 864.241C1186.71 882.076 1173.09 891.804 1163.2 906.098C1157.18 914.787 1147.92 922.333 1144.99 932.599C1144.11 935.672 1139.27 938.25 1136.7 938.986C1131.59 940.444 1119.95 954.825 1117.13 958.42C1111.99 964.953 1101.74 970.132 1094.98 975.543C1087.79 981.292 1085.93 989.346 1079.62 995.656C1073.06 1002.21 1064.23 1003.38 1057.06 1009.79C1050.53 1015.64 1037.67 1012.09 1030.7 1017.67C1016.63 1028.92 998.818 1039.14 980.005 1039.14C969.767 1039.14 959.529 1039.14 949.291 1039.14C942.511 1039.14 914.49 1043.17 910.288 1037.92C900.841 1026.11 863.964 1039.45 858.918 1029.36" stroke="#060606" stroke-width="5" stroke-linecap="round"/>
<path d="M625.447 763.225C616.913 762.277 607.26 753.71 600.018 749.687C595.306 747.069 589.267 742.535 586.48 737.797C584.456 734.356 583.854 730.256 581.536 726.613C577.97 721.009 577.061 713.374 573.942 707.482C570.368 700.731 566.601 692.344 566.055 684.703C565.582 678.079 561.617 671.423 559.285 665.278C557.499 660.569 556.451 655.669 555.047 650.857C551.056 637.173 551.704 622.592 549.985 608.652C548.04 592.878 537.256 568.157 547.042 552.615C551.84 544.995 557.715 537.546 567.35 537.546C574.276 537.546 580.282 539.341 586.774 540.783C589.19 541.32 596.523 544.831 597.899 546.552C601.874 551.52 610.782 550.874 615.911 553.439" stroke="#060606" stroke-width="5" stroke-linecap="round"/>
<path d="M627.567 696.475C621.805 691.838 615.52 686.379 609.084 682.701C604.906 680.314 597.342 678.73 594.25 674.755C591.02 670.602 592.525 662.275 592.602 657.508C592.709 650.907 596.283 645.794 597.9 639.732C601 628.105 601.779 615.951 616.442 615.951C620.368 615.951 620.423 616.169 622.799 618.07C624.886 619.74 621.783 625.761 620.15 626.782C615.405 629.748 610.614 640.147 610.614 645.618C610.614 648.957 611.031 651.465 611.733 654.624C612.254 656.97 614.726 659.357 614.852 661.511C614.949 663.155 616.725 667.268 618.619 667.809C621.353 668.59 622.194 671.957 623.328 674.225" stroke="#060606" stroke-width="5" stroke-linecap="round"/>
<path d="M592.602 708.13C592.602 702.666 587.334 695.717 584.126 691.707C579.525 685.955 577.242 681.124 575.591 673.695C573.082 662.407 568.233 649.929 568.233 638.201C568.233 632.903 568.233 627.606 568.233 622.308C568.233 618.735 572.779 613.352 574.59 610.182C576.342 607.116 576.709 600.536 576.709 596.879C576.709 591.371 578.828 586.267 578.828 580.986" stroke="#060606" stroke-width="5" stroke-linecap="round"/>
<path d="M585.185 588.403C585.185 591.365 583.743 602.622 586.775 603.296C592.044 604.467 591.289 607.072 596.84 604.296" stroke="#060606" stroke-width="5" stroke-linecap="round"/>
<path d="M606.376 596.879C606.376 592.913 602.51 579.41 597.9 578.867C595.784 578.619 586.949 573.116 585.185 571.451C581.003 567.501 571.754 559.897 567.409 565.329C565.914 567.197 566.416 573.154 565.29 575.689C563.897 578.822 563.995 582.843 563.995 586.284C563.995 594.407 563.995 602.53 563.995 610.653" stroke="#060606" stroke-width="5" stroke-linecap="round"/>
<path d="M1213.52 760.591C1213.52 754.239 1230.02 761.262 1233.24 759.695C1238.41 757.182 1244.67 753.621 1249.03 749.984C1251.7 747.76 1252.35 743.253 1254.31 740.423C1258.37 734.553 1260.36 726.996 1264.17 720.653C1268.78 712.97 1269.35 706.419 1270.19 697.647C1271.17 687.497 1274.84 677.018 1276.97 667.071C1277.59 664.154 1279.47 663.209 1280.05 660C1281 654.811 1282.13 646.194 1284.78 641.774C1286.75 638.494 1286.13 634.23 1286.13 630.569C1286.13 623.799 1288.82 616.853 1288.82 610.401C1288.82 602.803 1290.12 595.879 1289.02 588.192C1288.12 581.93 1287.92 575.972 1287.92 569.667C1287.92 559.821 1286.72 542.378 1273.78 541.88C1269.1 541.7 1264.37 541.88 1259.69 541.88C1256.4 541.88 1252.56 545.984 1249.78 547.756C1246.85 549.619 1221.59 559.262 1221.59 551.74" stroke="#060606" stroke-width="5" stroke-linecap="round"/>
<path d="M1225.18 708.602C1231.23 708.602 1233.43 697 1238.22 694.26C1240.78 692.798 1241.47 689.826 1242.41 687.289C1243.18 685.214 1245.38 683.607 1246.49 681.711C1247.92 679.276 1251.67 679.498 1254.26 679.969C1258.19 680.683 1258.32 682.963 1261.03 678.823C1263.88 674.467 1266.41 669.003 1266.41 663.784C1266.41 655.911 1266.4 648.004 1264.82 640.28C1263.45 633.595 1259.12 631.551 1255.25 626.585C1249.95 619.769 1241.59 616.277 1233.24 616.277C1230.01 616.277 1231.45 629.696 1231.45 632.611C1231.45 637.537 1229.49 648.624 1232.55 652.829C1236.63 658.444 1236.83 665.132 1236.83 671.852" stroke="#060606" stroke-width="5" stroke-linecap="round"/>
<path d="M1242.21 591.18C1245.85 591.18 1249.18 592.385 1252.52 593.869C1255.78 595.318 1258.34 598.949 1258.34 594.068C1258.34 589.062 1257.31 589.149 1254.36 585.353C1252.41 582.85 1252.75 580.099 1251.17 577.734" stroke="#060606" stroke-width="5" stroke-linecap="round"/>
<path d="M1264.62 572.356C1264.62 569 1269.86 568.046 1271.79 565.633C1272.67 564.524 1278.44 564.21 1279.85 564.289C1283.82 564.509 1283.32 579.679 1281.45 582.017C1280.12 583.679 1279.85 589.387 1279.85 591.677C1279.85 596.07 1279.66 600.235 1278.26 604.426C1276.41 609.981 1274.48 614.983 1274.48 620.759" stroke="#060606" stroke-width="5" stroke-linecap="round"/>
<path d="M850.12 558.622C844.977 554.864 841.784 549.527 837.648 544.93C834.396 541.318 828.553 539.991 824.003 537.944C812.645 532.833 798.933 531.411 786.54 531.614C780.578 531.712 775.556 534.277 770.129 536.022C764.643 537.785 755.033 538.34 751.421 543.758C749.608 546.478 744.677 548.042 741.762 549.338C740.08 550.086 738.205 552.848 736.839 554.214C736.365 554.688 738.544 554.317 739.136 554.449C740.567 554.766 742.522 556.994 743.591 557.965C746.066 560.215 751.809 561.998 755.219 561.998C760.975 561.998 765.738 561.478 771.208 560.263C775.988 559.2 779.472 559.731 784.289 560.966C792.416 563.05 800.554 562.842 808.859 562.842C815.436 562.842 821.968 563.685 828.598 563.685C834.237 563.685 838.886 561.066 844.212 562.842" stroke="#060606" stroke-width="5" stroke-linecap="round"/>
<path d="M781.757 533.303C782.116 536.527 787.506 539.834 789.353 542.399C792.556 546.847 798.699 550.682 802.857 554.402C805.801 557.037 812.373 554.731 815.892 554.449C819.285 554.178 825.156 554.969 828.176 553.371C830.218 552.29 833.24 547.408 833.24 545.118" stroke="#060606" stroke-width="5" stroke-linecap="round"/>
<path d="M799.481 534.99C799.481 542.571 799.248 553.431 808.39 556.043C811.887 557.042 821.221 555.105 821.424 551.026C821.551 548.499 826.773 539.352 823.112 537.522" stroke="#060606" stroke-width="5" stroke-linecap="round"/>
<path d="M723.523 546.806C725.85 546.806 731.412 546.419 733.182 544.649C734.387 543.444 735.2 540.727 736.37 539.21C738.084 536.989 739.747 536.537 742.09 535.366C746.781 533.02 750.061 526.604 755.125 525.519C765.935 523.203 775.599 517 786.446 514.923C801.259 512.086 815.074 519.457 828.973 522.237C834.482 523.339 837.771 531.593 842.665 534.615C851.698 540.195 859.579 545.294 866.999 552.714" stroke="#060606" stroke-width="5" stroke-linecap="round"/>
<path d="M875.439 473.38C875.439 484.455 873.866 494.133 870.375 504.607" stroke="#060606" stroke-width="5" stroke-linecap="round"/>
<path d="M870.375 471.692C870.375 475.096 872.553 488.967 869.906 492.37C867.142 495.924 867.698 501.891 863.624 504.608" stroke="#060606" stroke-width="5" stroke-linecap="round"/>
<path d="M861.935 471.692C861.935 481.867 861.612 490.447 859.403 500.388" stroke="#060606" stroke-width="5" stroke-linecap="round"/>
<path d="M856.871 467.472C856.871 473.075 858.113 480.086 855.559 485.195C853.979 488.354 851.633 490.608 850.12 493.635" stroke="#060606" stroke-width="5" stroke-linecap="round"/>
<path d="M847.588 463.252C847.588 467.582 849.543 489.415 842.524 489.415" stroke="#060606" stroke-width="5" stroke-linecap="round"/>
<path d="M840.836 465.784C840.836 469.979 841.069 474.253 840.836 478.444C840.691 481.047 836.648 483.413 835.772 486.04" stroke="#060606" stroke-width="5" stroke-linecap="round"/>
<path d="M834.928 460.721C834.928 464.806 835.877 470.085 834.084 473.849C832.173 477.863 830.374 481.134 829.021 485.196" stroke="#060606" stroke-width="5" stroke-linecap="round"/>
<path d="M825.644 460.721C825.644 467.58 827.947 478.137 820.581 481.82" stroke="#060606" stroke-width="5" stroke-linecap="round"/>
<path d="M816.361 462.408C816.361 466.118 818.955 478.835 814.673 480.976" stroke="#060606" stroke-width="5" stroke-linecap="round"/>
<path d="M807.789 459.296C807.789 465.257 807.789 471.218 807.789 477.179C807.789 479.092 808.076 481.105 807.256 482.745" stroke="#060606" stroke-width="5" stroke-linecap="round"/>
<path d="M799.262 457.697V481.146" stroke="#060606" stroke-width="5" stroke-linecap="round"/>
<path d="M789.669 457.164C789.669 464.191 789.136 471.059 789.136 477.948" stroke="#060606" stroke-width="5" stroke-linecap="round"/>
<path d="M780.609 458.763V479.014" stroke="#060606" stroke-width="5" stroke-linecap="round"/>
<path d="M768.885 458.229V475.283" stroke="#060606" stroke-width="5" stroke-linecap="round"/>
<path d="M773.681 457.697V477.949" stroke="#060606" stroke-width="5" stroke-linecap="round"/>
<path d="M760.891 451.302V479.014" stroke="#060606" stroke-width="5" stroke-linecap="round"/>
<path d="M749.699 457.697C749.699 463.915 749.699 470.132 749.699 476.35C749.699 477.826 749.405 479.372 750.232 480.613" stroke="#060606" stroke-width="5" stroke-linecap="round"/>
<path d="M754.496 458.229V478.481" stroke="#060606" stroke-width="5" stroke-linecap="round"/>
<path d="M739.041 468.355V484.343" stroke="#060606" stroke-width="5" stroke-linecap="round"/>
<path d="M741.706 463.559V480.612" stroke="#060606" stroke-width="5" stroke-linecap="round"/>
<path d="M729.448 468.889V487.008" stroke="#060606" stroke-width="5" stroke-linecap="round"/>
<path d="M719.855 478.481C719.855 484.524 720.745 491.007 724.119 496.068" stroke="#060606" stroke-width="5" stroke-linecap="round"/>
<path d="M713.46 485.409C713.46 491.397 714.629 496.273 717.191 501.397" stroke="#060606" stroke-width="5" stroke-linecap="round"/>
<path d="M706.532 495.002C706.532 498.177 705.414 507.5 709.197 509.391" stroke="#060606" stroke-width="5" stroke-linecap="round"/>
<path d="M696.407 504.595C696.407 510.761 699.861 516.023 701.736 521.648" stroke="#060606" stroke-width="5" stroke-linecap="round"/>
<path d="M699.604 500.331C699.604 505.868 703.104 511.593 705.467 516.319" stroke="#060606" stroke-width="5" stroke-linecap="round"/>
<path d="M691.077 510.457C691.077 516.35 691.61 522.303 691.61 528.044" stroke="#060606" stroke-width="5" stroke-linecap="round"/>
<path d="M682.018 523.78C682.018 526.164 681.806 528.475 682.55 530.708" stroke="#060606" stroke-width="5" stroke-linecap="round"/>
<path d="M852.872 584.972C852.872 595.871 852.957 607.018 848.161 617.143C845.136 623.527 839.826 626.17 835.974 631.441C831.826 637.119 822.256 640.356 819.239 646.39" stroke="#060606" stroke-width="5" stroke-linecap="round"/>
<path d="M1000.57 589.358C1000.57 611.313 1017.88 625.799 1035.66 634.691" stroke="#060606" stroke-width="5" stroke-linecap="round"/>
<path d="M962.548 549.876C962.548 574.627 962.548 599.379 962.548 624.13C962.548 632.825 964.365 672.712 973.515 672.712C982.822 672.712 984.605 680.959 990.657 687.011C996.092 692.445 1005.1 690.29 1011.54 695.297C1015.84 698.647 1022.5 704.996 1022.5 710.733C1022.5 717.333 1024.97 731.41 1020.72 736.73C1017.74 740.446 1006.93 750.565 1001.38 745.017C998.277 741.913 999.528 736.867 996.831 733.399C993.618 729.268 990.762 728.625 987.082 725.681C981.028 720.838 966.396 733.779 961.817 736.324C955.716 739.713 949.432 744.04 942.887 745.91C935.151 748.121 927.669 751.793 921.277 744.692C916.012 738.841 911.525 739.09 905.842 735.593C902.418 733.486 896.953 729.743 893.087 729.743C884.069 729.743 875.051 729.743 866.034 729.743C858.879 729.743 860.916 745.83 863.109 750.216" stroke="#060606" stroke-width="5" stroke-linecap="round"/>
<path d="M902.592 574.735C902.592 591.273 905.902 614.724 899.343 630.304C893.708 643.686 895.207 657.798 890.893 671.818C887.49 682.878 876.926 689.63 868.146 694.647C861.092 698.678 845.561 695.875 845.561 707.808" stroke="#060606" stroke-width="5" stroke-linecap="round"/>
<path d="M821.409 833.239C829.331 833.239 829.738 828.144 836.476 826.071C840.433 824.853 854.254 821.675 856.056 818.371C857.956 814.888 859.995 812.636 863.49 810.539C866.549 808.704 870.471 810.489 873.314 808.681C876.595 806.593 880.116 804.341 883.535 802.441C890.268 798.701 902.156 800.981 909.819 800.981C915.327 800.981 920.486 801.128 925.882 802.11C931.333 803.101 937.099 800.981 942.608 800.981C956.762 800.981 971.247 802.223 984.49 807.619C996.869 812.662 1007.12 820.996 1020.4 823.681C1028.14 825.246 1033.25 826.845 1038.25 830.85C1042.42 834.181 1039.98 839.159 1035.4 839.213C1022.66 839.363 1009.91 839.213 997.168 839.213C978.499 839.213 960.28 835.628 941.812 835.628C925.683 835.628 909.66 836.823 893.624 836.823C876.146 836.823 859.208 847.576 841.985 847.576C835.216 847.576 828.555 845.38 822.006 843.925C818.606 843.169 819.576 838.505 815.435 838.018C814.055 837.856 813.589 837.469 815.435 839.213C819.578 843.125 826.297 846.498 831.033 850.098C836.608 854.335 838.84 859.956 845.968 861.382C856.243 863.437 864.805 869.25 873.977 873.594C876.988 875.021 881.441 875.092 884.73 876.249C888.847 877.698 892.748 879.944 896.744 881.692C901.678 883.851 907.664 884.148 910.749 889.392C912.406 892.209 919.276 893.762 922.364 894.701C950.535 903.275 974.383 884.692 1000.09 876.714C1004.41 875.374 1008.76 872.885 1011.97 869.678C1015.75 865.9 1015.3 859.425 1018.54 855.01C1021.87 850.472 1026.27 844.602 1031.68 842.797" stroke="#060606" stroke-width="5" stroke-linecap="round"/>
<path d="M989.502 554.329C990.693 553.138 992.221 551.571 993.783 550.876C997.478 549.234 998.654 546.75 1001.93 544.11C1006.7 540.269 1013.22 536.692 1017.12 532.096C1026.44 521.108 1041.27 515.801 1055.37 515.801C1069.61 515.801 1084.06 514.832 1097.63 519.53C1105.69 522.32 1113.58 525.336 1117.51 533.201" stroke="#060606" stroke-width="5" stroke-linecap="round"/>
<path d="M1003.17 564.272C1003.59 560.534 1008.1 559.616 1009.39 557.367C1011.64 553.429 1015.14 546.868 1019.33 544.663C1027.97 540.115 1041.55 532.489 1051.64 531.959C1063.06 531.358 1076.33 528.228 1087.27 532.787C1094.69 535.878 1109.15 542.756 1113.16 549.979C1118.02 558.721 1107.54 562.69 1100.73 564.203C1096.45 565.153 1090.87 565.514 1086.44 565.514C1076.35 565.514 1066.38 570.486 1055.99 570.486C1047.1 570.486 1040.09 566.757 1031.76 566.757C1027.63 566.757 1022.27 562.886 1019.88 559.577C1018.2 557.244 1014.61 556.485 1011.87 555.572" stroke="#060606" stroke-width="5" stroke-linecap="round"/>
<path d="M1057.86 535.687C1057.86 543.482 1058.03 556.203 1069.04 556.814C1078.07 557.316 1085.29 552.296 1093.9 551.843C1096.74 551.694 1097.63 545.908 1097.63 543.143" stroke="#060606" stroke-width="5" stroke-linecap="round"/>
<path d="M1070.29 533.201C1070.29 541.151 1071.49 546.872 1080.85 546.872C1083.06 546.872 1087.68 547.997 1087.68 545.008C1087.68 541.901 1087.68 538.794 1087.68 535.687" stroke="#060606" stroke-width="5" stroke-linecap="round"/>
<path d="M618.456 538.288C618.071 534.44 615.728 530.865 615.728 526.919C615.728 523.341 616.194 519.761 614.818 516.46C612.772 511.549 603.291 510.291 602.135 505.091C601.17 500.745 601.138 496.344 600.468 491.903C600.103 489.484 600.394 487.054 600.266 484.627C600.067 480.846 596.541 477.405 594.354 474.622C590.275 469.431 584.154 461.815 583.894 454.815C583.77 451.466 582.985 448.389 582.985 445.012C582.985 438.732 583.677 433.755 584.753 427.832C585.667 422.81 587.333 417.836 588.442 412.775C590.058 405.402 580.317 398.439 577.073 392.311C574.388 387.239 573.89 380.923 573.89 375.282C573.89 369.678 572.732 364.714 572.121 359.214C570.907 348.282 565.965 339.306 562.47 328.998C561.15 325.102 561.885 321.113 560.702 317.326C560.09 315.368 560.11 313.345 560.449 311.313C561.222 306.674 565.3 300.762 565.3 296.357C565.3 291.619 559.058 284.874 557.518 279.985C555.42 273.319 555.85 265.366 555.245 258.46C554.608 251.207 553.451 243.63 553.88 236.328C554.155 231.654 565.075 240.695 566.614 240.876C567.435 240.973 567.603 241.786 568.433 241.786C570.452 241.786 568.168 234.225 567.927 233.196C566.1 225.387 564.225 218.541 563.178 210.559C562.309 203.932 561.121 193.916 568.837 191.712C570.848 191.137 571.965 188.243 572.071 186.406C572.392 180.839 575.837 175.263 579.751 171.349C584.327 166.773 591.545 168.758 593.444 160.738C595.647 151.438 597.207 144.816 606.178 140.829C610.731 138.806 619.351 138.186 620.275 132.644" stroke="#060606" stroke-width="5" stroke-linecap="round"/>
<path d="M619.366 129.915C621.797 125.323 623.927 125.619 628.461 125.367C632.61 125.137 634.41 117.379 634.828 114.453C635.649 108.703 648.204 100.215 652.412 98.2838C655.911 96.6775 662.811 97.1194 665.246 93.9889C666.88 91.8882 668.42 88.0093 670.753 86.7127C672.723 85.6187 673.768 84.0148 676.16 83.5799C677.725 83.2954 679.303 83.883 680.758 83.0747C683.299 81.6629 687.86 85.6258 689.399 82.1651C691.109 78.3158 691.229 75.1702 692.228 70.7456C693.467 65.2588 695.892 60.4627 698.089 55.3344C699.011 53.1835 699.702 48.5659 702.132 47.3508C705.482 45.6755 712.643 50.4074 714.663 52.6058C718.392 56.6641 720.94 58.5073 726.386 60.5894C735.512 64.0788 741.018 54.9655 747.81 50.2815C750.122 48.6866 752.789 47.8552 755.086 46.2392C757.506 44.536 759.483 42.4004 761.958 40.7821C768.514 36.4956 781.692 39.9686 788.94 40.7316C792.526 41.1091 796.39 42.6012 799.905 42.6012C801.819 42.6012 802.342 38.041 803.998 36.7398C806.177 35.0276 807.565 32.3089 810.364 31.6869C815.511 30.5433 820.553 30.7774 825.826 30.7774C830.274 30.7774 835.628 32.4266 839.974 31.6364C844.184 30.871 846.687 25.6941 850.383 23.9055C859.489 19.4993 866.367 21.2955 873.121 28.0489C879.363 34.2913 884.11 31.0416 891.918 28.5542C899.147 26.2509 904.816 22.5521 911.321 19.6611C916.591 17.3185 920.644 16.0205 926.58 16.2252C932.54 16.4307 937.5 23.9308 942.244 26.8362C947.543 30.0815 952.867 32.4059 957.201 36.7398C960.391 39.9297 973.606 39.3511 974.987 34.5166C975.762 31.8031 988.144 30.0977 990.802 29.5142C995.049 28.5821 1000.35 28.3618 1004.5 29.8679C1010.1 31.9062 1006.65 37.6256 1011.82 39.8726C1017.63 42.3971 1025.29 40.3066 1031.28 39.4684C1038.91 38.3994 1046.88 40.5388 1053 45.3297C1056.43 48.0125 1062.43 56.065 1065.94 50.2815C1068.8 45.564 1074.09 47.2355 1077.76 48.9678C1082.63 51.2676 1087.99 50.9143 1092.31 54.2228C1096.28 57.2537 1099.71 68.1136 1105.96 62.56C1108.88 59.9648 1112.52 58.9697 1115.51 56.6481C1117.75 54.9022 1115.71 52.054 1117.38 50.3826C1118.98 48.7814 1125.58 49.6587 1127.74 49.9278C1130.85 50.3173 1130.09 53.2573 1131.02 55.3849C1132.32 58.3549 1132.39 65.3391 1135.52 65.3391C1139.85 65.3391 1140.93 64.7636 1142.34 68.9771" stroke="#060606" stroke-width="5" stroke-linecap="round"/>
<path d="M1142.34 69.8867C1149.82 69.8867 1150 71.8341 1152.14 78.7798C1153.06 81.7621 1154.72 83.7776 1155.98 86.6117C1156.99 88.8785 1162.39 88.6217 1164.67 89.0371C1169.99 90.0035 1174.67 98.5802 1178.26 102.175C1181.9 105.812 1184.06 113.996 1188.72 116.07C1190.55 116.88 1193.45 117.714 1195.49 117.131C1198.79 116.189 1197.99 110.187 1202.97 111.017C1211.04 112.362 1221.49 125.202 1225.86 131.178C1230.03 136.871 1230.04 144.694 1233.79 150.834C1235.76 154.043 1238.68 158.193 1242.38 159.221C1246.24 160.293 1252.02 161.593 1254.61 164.931C1256.96 167.947 1253.42 170.349 1251.28 171.753C1245.5 175.541 1246.93 180.062 1246.93 186.507C1246.93 194.35 1250.39 198.681 1253.75 205.405C1255.96 209.809 1260.21 212.854 1262.39 217.228C1263.67 219.775 1264.83 227.821 1266.94 229.406C1269.3 231.178 1272.64 238.147 1275.58 238.147C1290.38 238.147 1284.18 258.203 1277.4 264.978C1272.77 269.611 1270.58 276.077 1270.58 282.714C1270.58 286.503 1270.58 290.293 1270.58 294.083C1270.58 300.05 1273.52 305.243 1275.63 310.707C1279.33 320.267 1286.4 332.081 1280.13 341.832C1278.26 344.745 1275.26 345.728 1273.31 348.906C1269.48 355.144 1270.04 365.037 1262.9 369.118C1261.23 370.075 1262.39 378.116 1262.39 379.83C1262.39 383.261 1263.35 384.644 1265.12 387.308" stroke="#060606" stroke-width="5" stroke-linecap="round"/>
<path d="M1261.48 388.218C1261.48 396.112 1262.7 403.767 1262.39 411.663C1262.31 413.962 1258.56 415.947 1257.14 417.524C1255.22 419.662 1256.92 429.287 1256.94 431.672C1256.97 436.213 1257.97 439.643 1258.96 443.9C1259.81 447.574 1262.54 450.051 1262.39 453.905C1262.17 459.871 1256.5 462.62 1251.48 463.91C1247.09 465.038 1247 465.298 1245.82 468.963C1244.82 472.065 1242.42 475.496 1240.11 477.805C1234.06 483.852 1232.97 493.547 1232.33 501.604C1231.94 506.505 1230.19 510.347 1228.74 514.691C1228.25 516.169 1227.5 521.09 1226.47 521.917C1224.62 523.396 1226.01 533.543 1226.01 536.014C1226.01 540.163 1227.4 547.581 1225.1 551.021" stroke="#060606" stroke-width="5" stroke-linecap="round"/>
<path d="M971.158 473.921C971.158 478.57 972.356 483.034 972.356 487.651C972.356 489.926 971.974 492.625 972.444 494.86C972.78 496.453 971.71 503.467 974.352 503.467" stroke="#060606" stroke-width="5" stroke-linecap="round"/>
<path d="M980.341 473.921C980.341 478.352 979.36 484.477 980.651 488.783C981.112 490.32 982.381 495.503 983.934 496.28" stroke="#060606" stroke-width="5" stroke-linecap="round"/>
<path d="M989.524 473.122C989.524 477.987 989.524 482.852 989.524 487.718C989.524 488.947 989.741 494.991 990.722 495.481" stroke="#060606" stroke-width="5" stroke-linecap="round"/>
<path d="M996.711 471.925C996.711 475.688 996.711 479.452 996.711 483.215C996.711 486.539 997.035 489.853 997.11 493.175C997.125 493.843 996.914 494.385 997.509 494.683" stroke="#060606" stroke-width="5" stroke-linecap="round"/>
<path d="M1004.3 470.727C1004.3 475.917 1004.3 481.108 1004.3 486.298C1004.3 487.643 1003.76 492.419 1005.1 493.086" stroke="#060606" stroke-width="5" stroke-linecap="round"/>
<path d="M1011.88 468.331V490.291" stroke="#060606" stroke-width="5" stroke-linecap="round"/>
<path d="M1020.67 465.137C1020.67 473.015 1020.27 480.87 1020.27 488.694" stroke="#060606" stroke-width="5" stroke-linecap="round"/>
<path d="M1028.25 462.342V484.701" stroke="#060606" stroke-width="5" stroke-linecap="round"/>
<path d="M1036.24 464.737C1036.24 469.937 1035.84 475.116 1035.84 480.309" stroke="#060606" stroke-width="5" stroke-linecap="round"/>
<path d="M1046.22 458.749C1046.22 462.433 1046.72 466.52 1046 470.128C1045.42 473.001 1045.02 475.446 1045.02 478.402C1045.02 479.148 1044.69 480.741 1045.42 481.108" stroke="#060606" stroke-width="5" stroke-linecap="round"/>
<path d="M1053.81 459.147V477.514" stroke="#060606" stroke-width="5" stroke-linecap="round"/>
<path d="M1062.59 457.551V479.511" stroke="#060606" stroke-width="5" stroke-linecap="round"/>
<path d="M1068.98 459.147C1068.98 463.007 1068.98 466.867 1068.98 470.726C1068.98 472.091 1068.61 473.962 1069.38 475.118" stroke="#060606" stroke-width="5" stroke-linecap="round"/>
<path d="M1078.56 458.749C1078.56 464.931 1077.44 472.644 1078.96 478.712" stroke="#060606" stroke-width="5" stroke-linecap="round"/>
<path d="M1087.74 464.737V484.301" stroke="#060606" stroke-width="5" stroke-linecap="round"/>
<path d="M1098.12 469.13C1098.12 474.315 1097.73 479.618 1097.73 484.701" stroke="#060606" stroke-width="5" stroke-linecap="round"/>
<path d="M1107.31 471.525V486.698" stroke="#060606" stroke-width="5" stroke-linecap="round"/>
<path d="M1117.69 473.122C1117.69 477.422 1118.22 482.072 1117.6 486.342C1117.27 488.63 1116.86 493.494 1114.49 494.283" stroke="#060606" stroke-width="5" stroke-linecap="round"/>
<path d="M1130.07 477.514C1130.07 481.366 1130.07 485.218 1130.07 489.07C1130.07 492.819 1129.04 495.751 1128.47 499.473" stroke="#060606" stroke-width="5" stroke-linecap="round"/>
<path d="M1137.65 484.701C1137.65 490.28 1137.39 495.326 1136.06 500.672" stroke="#060606" stroke-width="5" stroke-linecap="round"/>
<path d="M1147.63 487.097C1147.63 490.708 1148.47 495.451 1147.41 498.919C1146.8 500.923 1146.44 502.193 1146.44 504.265" stroke="#060606" stroke-width="5" stroke-linecap="round"/>
<path d="M1153.22 499.074V513.448" stroke="#060606" stroke-width="5" stroke-linecap="round"/>
<path d="M1160.01 504.265V517.041" stroke="#060606" stroke-width="5" stroke-linecap="round"/>
<path d="M1165.85 514.103V525.351" stroke="#060606" stroke-width="5" stroke-linecap="round"/>
<path d="M1171.74 523.209V535.529" stroke="#060606" stroke-width="5" stroke-linecap="round"/>
<path d="M1524.52 451.536C1521.86 449.986 1518.82 448.326 1515.86 447.319C1503.93 443.266 1492.55 448.476 1482.64 452.218C1480.01 451.907 1475.74 451.829 1473.32 450.876C1468.21 448.863 1462.82 440.944 1457.6 437.705C1450.35 433.208 1439.87 431.87 1432.17 434.278C1427.7 435.672 1422.98 438.412 1418.32 439.207C1414.81 439.805 1410.92 438.127 1407.42 438.713C1405.17 439.092 1403.76 440.092 1402.86 441.856C1401.87 443.805 1402.66 445.813 1403.72 447.761C1405.22 448.799 1406.71 449.697 1408.52 450.277C1418.63 453.522 1427.9 449.844 1436.33 446.437C1450.8 441.381 1456.7 456.483 1468.63 461.396C1479.72 465.964 1486.81 464.845 1496.79 460.978C1500.92 459.376 1505.45 457.413 1510.41 458.362C1516.61 459.552 1521.96 466.197 1526.48 469.904C1530.38 473.104 1535.06 475.244 1540.17 476.339C1543.92 477.141 1549.87 477.962 1552.91 476.083C1555.55 474.454 1555.55 472.75 1555.59 470.133C1554.8 468.8 1553.97 467.051 1552.57 466.074C1550.15 464.375 1543.87 465.207 1540.86 465.221L1524.52 451.536Z" fill="#020103"/>
<path d="M1518.35 208.349C1515.23 207.916 1511.71 207.527 1508.55 207.706C1495.85 208.42 1487.78 217.396 1480.4 224.485C1477.85 225.178 1473.92 226.686 1471.28 226.712C1465.72 226.764 1457.26 221.527 1451.04 220.503C1442.41 219.081 1432.24 221.74 1426.28 226.793C1422.82 229.721 1419.73 233.973 1415.83 236.427C1412.89 238.273 1408.59 238.181 1405.65 240.012C1403.77 241.192 1402.92 242.628 1402.89 244.573C1402.86 246.72 1404.47 248.263 1406.31 249.65C1408.15 250.04 1409.91 250.308 1411.82 250.17C1422.51 249.387 1429.34 242.593 1435.51 236.36C1446.47 226.381 1458.61 237.99 1471.7 238.06C1483.87 238.125 1489.85 234.475 1497.24 227.246C1500.3 224.252 1503.56 220.78 1508.51 219.813C1514.71 218.599 1522.56 222.691 1528.34 224.403C1533.34 225.881 1538.58 226.099 1543.73 225.207C1547.51 224.553 1553.32 223.097 1555.26 220.255C1556.94 217.788 1556.17 216.234 1555.04 213.827C1553.73 212.901 1552.18 211.612 1550.47 211.237C1547.5 210.583 1542.13 213.669 1539.39 214.796L1518.35 208.349Z" fill="#020103"/>
<path d="M1420.39 -0.681345C1417.63 0.697898 1414.57 2.3342 1412.18 4.22428C1402.56 11.8162 1402.14 23.4079 1401 33.1218C1399.44 35.0789 1397.32 38.452 1395.25 39.93C1390.86 43.047 1380.65 43.5649 1375.02 46.1897C1367.22 49.8327 1360.91 57.5688 1359.54 64.8791C1358.75 69.1161 1359.13 74.2033 1357.67 78.31C1356.56 81.4025 1353.09 83.7074 1351.98 86.785C1351.27 88.7648 1351.55 90.3733 1352.82 91.9355C1354.23 93.6594 1356.54 93.9918 1358.93 94.0769C1360.65 93.3715 1362.23 92.6088 1363.65 91.4448C1371.62 84.9115 1372.51 75.7395 1373.26 67.3758C1375.31 53.3866 1392.7 55.8971 1403.15 48.716C1412.86 42.0381 1415.18 35.8307 1416.23 26.0029C1416.66 21.933 1416.93 17.3726 1420.22 13.8669C1424.34 9.4731 1433.3 8.3837 1439.04 6.54581C1444 4.95776 1448.3 2.23558 1451.8 -1.32469C1454.37 -3.93267 1458.01 -8.30019 1457.66 -11.6303C1457.35 -14.5195 1455.7 -15.3316 1453.2 -16.6194C1451.54 -16.6277 1449.45 -16.7985 1447.84 -16.1503C1445.04 -15.0245 1442.84 -9.6079 1441.41 -7.19606L1420.39 -0.681345Z" fill="#020103"/>
</g>
<defs>
<clipPath id="clip0_27_481">
<rect width="1920" height="1080" fill="white"/>
</clipPath>
</defs>
</svg>
