<svg width="1920" height="1080" viewBox="0 0 1920 1080" fill="none" xmlns="http://www.w3.org/2000/svg">
<g clip-path="url(#clip0_27_482)">
<path d="M744.76 1084.24C735.545 1084.24 724.17 1082.32 716.901 1076.09C712.54 1072.35 707.188 1063.2 701.489 1060.82C695.422 1058.3 686.505 1056.4 682.225 1050.89C678.127 1045.63 663.965 1045.41 662.22 1037.56C659.973 1027.45 655.396 1033.35 648.735 1027.04C640.474 1019.21 629.709 1009.77 622.655 1000.96C618.995 996.381 611.236 987.193 608.725 981.544C605.359 973.971 596.786 973.766 595.24 968.355C593.783 963.255 585.299 960.628 582.644 956.204C576.209 945.478 566.706 937.837 563.232 925.678C561.852 920.848 553.003 913.442 552.711 908.192C552.166 898.384 549.576 890.541 545.302 881.518C536.12 862.134 531.372 850.845 531.372 828.468C531.372 817.225 526.037 807.573 526.037 796.163C526.037 785.026 523.77 774.352 523.37 763.562C521.117 702.731 512.701 637.836 512.701 576.107C512.701 559.146 518.035 541.742 518.035 525.428C518.035 517.819 525.168 512.046 528.112 505.423C531.503 497.792 531.485 490.001 533.447 481.416C537.855 462.13 527.216 436.532 535.373 418.586C539.653 409.169 539.975 387.759 550.044 382.725" stroke="#060606" stroke-width="5" stroke-linecap="round"/>
<path d="M550.044 382.725C572.665 382.725 593.462 364.166 615.987 359.904C650.194 353.432 683.3 345.382 718.087 345.382C741.698 345.382 765.309 345.382 788.92 345.382C812.312 345.382 834.159 350.717 857.381 350.717C883.824 350.717 908.676 353.272 934.29 360.052C955.062 365.551 981.541 370.257 996.676 385.392C1006.97 395.689 1023.92 401.396 1038.17 401.396C1050.87 401.396 1048.84 409.623 1048.84 420.068" stroke="#060606" stroke-width="5" stroke-linecap="round"/>
<path d="M1048.84 420.067C1048.84 430.681 1048.25 441.476 1048.84 452.076C1049.31 460.543 1058.19 471.124 1061.58 478.749C1070.59 499.026 1078.18 524.892 1078.18 547.063C1078.18 568.616 1076.98 590.586 1078.18 612.116C1078.66 620.719 1080.85 629.515 1080.85 638.79C1080.85 644.322 1083.82 648.164 1083.36 653.905C1082.32 666.987 1076.68 678.83 1075.36 691.988C1071.56 729.987 1075.1 768.498 1072.84 806.832C1072.52 812.352 1065.57 819.689 1064.84 825.504C1064.1 831.411 1063.31 843.666 1060.69 849.658C1053.78 865.459 1044.46 888.278 1043.5 905.524C1043.05 913.638 1036.06 924.551 1032.24 932.198C1027.77 941.146 1026.96 952.081 1022.76 961.539C1017.66 973.017 1005.84 989.625 994.305 996.214C989.055 999.214 984.516 1009.86 980.079 1014.29C974.547 1019.82 967.748 1024.25 962.297 1029.7C958.867 1033.13 949.754 1040.94 944.811 1041.56C937.953 1042.42 930.042 1052.47 925.547 1056.97C919.828 1062.69 910.928 1063.62 903.615 1065.71C894.038 1068.45 884.556 1076.44 874.126 1078.75C866.174 1080.52 860.283 1090.42 852.788 1092.09C842.11 1094.46 821.96 1104.39 810.851 1095.5C799.093 1086.09 782.602 1084.24 767.432 1084.24C759.002 1084.24 724.149 1088.36 720.754 1081.57" stroke="#060606" stroke-width="5" stroke-linecap="round"/>
<path d="M525.35 822.046C518.425 822.046 513.455 818.687 506.312 818.687C502.049 818.687 496.489 813.164 492.749 810.972C488.688 808.591 482.914 804.799 480.306 800.769C476.748 795.27 471.671 791.18 469.107 785.091C467.597 781.504 465.717 777.572 463.757 774.265C459.669 767.366 456.883 757.108 454.798 749.504C453.664 745.368 454.014 741.616 453.616 737.434C453.161 732.662 450.676 728.263 450.319 723.498C449.756 715.993 446.048 709.228 445.839 701.723C445.656 695.132 443.067 687.067 440.489 680.943C438.943 677.272 439.237 671.736 439.12 667.753C438.766 655.711 438 643.73 438 631.669C438 627.243 438.685 623.485 439.12 619.35C439.737 613.489 441.612 602.243 445.59 597.824C450.774 592.064 458.799 593.593 465.997 593.593C473.931 593.593 481.322 592.121 487.274 598.073C490.133 600.931 493.817 602.228 495.984 605.912C497.203 607.984 502.894 607.167 505.192 607.032C508.67 606.827 501.57 596.99 500.961 595.833C498.928 591.969 497.594 584.499 497.353 580.155C496.928 572.499 495.966 564.711 491.505 558.877C488.32 554.713 485.118 553.541 484.163 548.052C483.155 542.253 483.915 535.692 483.915 529.761C483.915 528.206 485.278 527.217 484.972 525.841C484.109 521.958 478.159 520.371 477.195 516.322C476.196 512.124 476.076 508.474 476.076 504.004C476.076 496.85 477.195 490.189 477.195 482.975C477.195 480.594 478.596 471.37 476.947 469.537C471.513 463.499 465.997 459.527 465.997 450.25" stroke="#060606" stroke-width="5" stroke-linecap="round"/>
<path d="M500.712 605.911C500.712 612.431 511.911 614.44 511.911 621.589" stroke="#060606" stroke-width="5" stroke-linecap="round"/>
<path d="M464.877 451.369C464.877 441.986 459.277 434.142 459.277 425.052C459.277 421.311 461.828 418.203 461.455 414.663C460.709 407.578 457.743 400.806 456.54 393.758C455.653 388.564 455.586 390.73 457.909 388.408C461.335 384.981 458.371 377.825 457.287 373.85C455.434 367.058 454.546 358.994 454.798 351.95C454.93 348.262 457.938 352.744 458.655 353.257C463.444 356.677 452.088 342.992 451.438 337.143C450.806 331.454 446.959 325.732 446.959 319.785C446.959 317.837 443.563 314.846 442.479 313.066C438.764 306.962 437.78 302.006 441.795 295.521C443.866 292.176 451.507 289.546 454.798 286.749C456.314 285.46 461.397 286.56 461.517 284.509C461.631 282.575 461.517 280.598 461.517 278.661C461.517 268.293 459.277 258.056 459.277 247.616C459.277 243.028 459.824 240.431 465.375 242.016C467.66 242.669 466.846 242.583 467.179 239.59C467.662 235.242 469.396 230.658 470.725 226.525C472.195 221.951 479.747 226.026 480.493 223.414C481.038 221.506 481.989 219.633 482.857 217.753C485.295 212.469 486.097 206.808 488.394 201.639C489.738 198.615 494.259 195.022 497.602 198.03C498.862 199.165 500.105 201.378 500.961 199.15C502.856 194.224 504.944 189.333 506.872 184.405C507.686 182.324 512.827 172.522 514.711 172.522C518.974 172.522 523.332 172.773 527.589 172.522C530.133 172.373 533.189 162.58 533.189 160.204C533.189 152.535 545.4 137.152 548.929 149.503C550.436 154.778 554.247 144.594 554.715 142.908C556.564 136.254 554.466 118.297 562.865 116.529C571.96 114.614 573.504 120.834 573.504 129.843C573.504 134.096 574.679 128.021 575.184 126.608C576.719 122.309 577.815 117.861 578.855 113.418C580.734 105.387 582.412 99.216 591.422 99.7309C598.323 100.125 598.803 111.885 604.3 113.107C608.919 114.133 613.579 114.073 618.237 114.849C624.149 115.835 627.909 109.762 631.551 105.392C636.519 99.4298 640.638 99.1133 646.544 95.2514C653.328 90.8161 668.408 84.8873 675.412 91.8918" stroke="#060606" stroke-width="5" stroke-linecap="round"/>
<path d="M677.652 90.7715C679.567 91.0109 680.87 92.0237 683.251 91.8914C685.485 91.7673 687.972 86.4328 689.41 84.6745C690.954 82.7881 692.859 79.7234 695.57 79.5728C699.564 79.3509 701.423 82.215 705.026 82.8702C710.955 83.9481 715.51 79.0791 719.709 75.8399C721.663 74.3326 724.883 74.7719 726.304 73.3513C729.269 70.3866 728.045 65.2234 733.894 65.0146C736.997 64.9037 740.331 66.7257 741.982 69.5562C744.908 74.5726 751.841 79.7065 757.847 80.6305C761.547 81.1998 765.726 81.8126 769.481 81.8126C774.434 81.8126 776.661 74.8196 779.995 71.9204C788.138 64.8396 803.619 71.7338 813.156 71.7338C819.47 71.7338 826.811 78.6836 831.634 82.4347C835.204 85.2112 834.783 85.2112 838.353 82.4347C841.433 80.0394 846.458 79.5138 850.112 78.7018C855.437 77.5183 866.591 76.9252 871.389 79.324C873.957 80.6078 875.385 84.1879 876.366 86.852C878.491 92.6197 879.265 89.8154 885.325 89.6516C890.27 89.518 890.844 88.7725 895.342 90.7715C898.226 92.0536 900.362 93.9175 903.616 95.0021C907.829 96.4063 906.611 101.13 911.331 98.4862C914.004 96.9893 921.303 92.6904 924.023 96.6197C925.529 98.7946 926.771 106.998 929.062 107.507C932.649 108.304 936.796 109.747 940.572 108.441C945.222 106.831 947.955 100.85 953.139 100.85C960.721 100.85 963.218 109.357 963.218 115.409" stroke="#060606" stroke-width="5" stroke-linecap="round"/>
<path d="M960.978 114.289C960.978 115.773 960.978 121.817 960.978 121.008C960.978 117.582 962.883 114.713 965.209 112.298C967.824 109.582 973.202 102.332 976.407 101.1C991.402 95.3326 999.054 113.794 999.054 125.923C999.054 127.983 1002.61 123.538 1004.65 123.31C1008.37 122.898 1014.77 122.296 1017.97 124.43C1022.04 127.147 1023.55 133.55 1026.18 137.495C1030.57 144.086 1035.01 151.09 1040.43 156.844C1043.4 160.005 1044.14 162.348 1045.03 166.363C1045.96 170.557 1050.27 171.952 1053.93 173.891C1059.1 176.628 1062.88 171.407 1067.37 169.412C1072.68 167.049 1072.39 172.84 1073.84 175.882C1076.94 182.428 1079.97 188.295 1085.03 193.551C1088.64 197.295 1090.07 204.016 1094.8 206.118C1099.77 208.325 1104.32 209.656 1104.32 215.637C1104.32 219.997 1100.02 223.132 1099.84 227.645C1099.71 231.168 1098.77 230.297 1097.85 232.373C1096.4 235.648 1100.47 239.92 1102.08 242.203C1105.81 247.508 1110.17 251.187 1112.72 257.135C1115.02 262.501 1119.4 265.056 1117.82 270.573C1116.59 274.896 1120.8 280.891 1123.92 283.389C1124.67 283.987 1125.61 286.324 1126.16 287.309C1128.18 290.95 1132.48 288.03 1134.5 291.726C1136.96 296.24 1138.62 306.62 1135.93 311.386C1132.99 316.582 1121.5 324.032 1121.12 330.424C1120.83 335.381 1123.88 337.904 1125.85 341.622C1127.74 345.19 1131.12 343.31 1134.56 344.982C1137.45 346.391 1138.79 348.902 1139.91 351.701C1143.6 360.928 1136.73 367.035 1132.82 374.161C1130.38 378.584 1124.65 385.888 1130.64 389.217C1133.99 391.081 1140.9 389.133 1138.97 395.874C1138.66 396.981 1129.35 401.565 1127.9 402.655C1122.28 406.868 1123.36 416.205 1123.36 422.253C1123.36 427.852 1123.36 433.452 1123.36 439.051C1123.36 444.805 1122.68 445.243 1118.32 448.632C1115.7 450.669 1108.63 456.673 1112.78 460.826C1114.68 462.722 1125.73 470.343 1118.88 473.767" stroke="#060606" stroke-width="5" stroke-linecap="round"/>
<path d="M1118.46 475.764C1118.46 479.186 1117.91 481.275 1114.1 482.036C1111.19 482.617 1110.63 483.678 1109.68 486.287C1107.43 492.47 1107.71 500.497 1110.3 506.357C1111.17 508.309 1114.17 513.395 1112.46 515.591C1110.75 517.8 1107.61 518.203 1105.29 519.18C1100.48 521.205 1104.1 526.727 1100.9 530.33C1099.01 532.45 1099.69 538.197 1099.01 540.888C1098.62 542.483 1097.1 543.924 1096.37 545.383C1095.61 546.896 1094.62 547.632 1094.62 549.46C1094.62 552.369 1095.59 556.613 1093.51 558.693C1088.12 564.083 1091.49 574.634 1091.49 581.761" stroke="#060606" stroke-width="5" stroke-linecap="round"/>
<path d="M1091.49 584.269C1091.49 587.696 1090.86 591.539 1090.86 594.617C1090.86 596.207 1089.61 597.764 1089.61 599.635C1089.61 601.306 1089.47 603.207 1088.67 604.653C1087.15 607.389 1084.59 610.7 1084.59 613.747C1084.59 615.485 1084.17 617.817 1083.47 619.392C1082.74 621.034 1081.29 628.006 1080.83 627.545" stroke="#060606" stroke-width="5" stroke-linecap="round"/>
<path d="M1088.98 605.594C1091.89 605.594 1094.86 605.765 1097.76 605.594C1099.66 605.483 1102.35 601.419 1103.54 600.089C1104.22 599.342 1104.94 598.485 1105.63 597.789C1108.29 595.13 1108.98 595.541 1112.81 594.653C1117.72 593.516 1120.36 589.914 1125.5 589.914C1132.03 589.914 1134.21 593.853 1136.51 598.695C1138.01 601.878 1140.93 604.671 1142.15 607.963C1142.67 609.366 1143.18 610.677 1144.03 611.936C1145.12 613.543 1144.71 615.383 1145.18 617.232C1145.87 619.897 1146.68 623.161 1147.8 625.664C1149.23 628.882 1149.08 632.344 1149.19 635.839C1149.56 647.182 1150.18 657.523 1148.08 668.872C1146.61 676.771 1145.43 683.896 1145.43 692.008C1145.43 696.236 1145.43 700.464 1145.43 704.692C1145.43 706.268 1144.26 707.568 1144.17 709.082C1143.97 712.686 1142.47 716.034 1142.29 719.745C1142.02 725.443 1140.77 731.866 1138.88 737.271C1138.18 739.252 1136.88 742.218 1136.65 744.205C1136.42 746.163 1133.63 747.852 1133.51 749.85C1133.44 751.085 1132.6 751.638 1132.29 752.707C1131.8 754.437 1131.89 756.328 1131.14 758.004C1130.19 760.143 1130.36 761.772 1127.87 763.021" stroke="#060606" stroke-width="5" stroke-linecap="round"/>
<path d="M1127.87 763.648C1127.87 766.744 1127.46 768.43 1126.47 771.314C1124.96 775.711 1122.53 779.687 1120.97 783.998C1120.52 785.236 1119.66 787.158 1118.81 788.109C1116.07 791.154 1115.98 794.639 1113.3 798.144C1111.72 800.206 1108.58 805.254 1106.23 806.298C1104.96 806.86 1103.19 808.455 1102.15 809.434C1099.39 812.044 1096.19 813.385 1093.09 815.358C1090.72 816.863 1088.22 816.96 1085.53 816.96C1083.15 816.96 1080.69 814.814 1079.57 812.849C1078.73 811.379 1077.91 808.288 1076.44 807.552" stroke="#060606" stroke-width="5" stroke-linecap="round"/>
<path d="M1076.44 808.807C1075.5 808.69 1074.3 807.047 1073.93 806.298" stroke="#060606" stroke-width="5" stroke-linecap="round"/>
<path d="M1091.49 756.122C1091.96 750.988 1094.57 746.68 1097.13 742.463C1099.94 737.832 1101.67 731.137 1108.35 733.264C1111.7 734.329 1115.59 733.903 1118.14 731.348C1120.35 729.144 1120.02 727.439 1120.65 724.518C1121.98 718.395 1123.48 712.899 1123.48 706.573C1123.48 697.28 1125.31 685.187 1119.09 677.409C1117.03 674.842 1114.8 671.45 1111.42 671.45C1106.82 671.45 1103.59 669.923 1099.33 668.976C1092.21 667.395 1091.49 678.495 1091.49 682.74C1091.49 686.815 1091.6 692.207 1089.75 695.911C1088.59 698.219 1088.44 702.416 1089.01 705.005C1090.07 709.756 1092.12 714.833 1092.12 719.745C1092.12 723.063 1090.18 724.857 1088.67 727.585C1087.4 729.871 1086.98 736.423 1085.22 737.306" stroke="#060606" stroke-width="5" stroke-linecap="round"/>
<path d="M1098.39 652.006C1104.38 652.322 1112.81 654.871 1112.81 646.048C1112.81 644.086 1110.93 642.883 1110.93 641.03C1110.93 640.113 1110.75 638.446 1110.16 637.72C1109.01 636.281 1109.68 632.532 1109.68 630.682" stroke="#060606" stroke-width="5" stroke-linecap="round"/>
<path d="M1122.22 624.409C1122.22 621.461 1126.18 622.528 1128.49 622.528C1131.09 622.528 1132.39 624.676 1133.51 626.918C1136.58 633.064 1137.27 639.51 1137.27 646.327C1137.27 664.015 1138.52 681.378 1135.36 698.767C1134.57 703.09 1134.76 707.463 1134.76 711.904C1134.76 716.898 1132.82 723.803 1131.14 728.664C1129.36 733.821 1127.76 738.917 1124.38 743.264C1122.6 745.557 1121.52 748.763 1120.34 751.417C1119.48 753.348 1118.05 754.424 1117.2 756.121" stroke="#060606" stroke-width="5" stroke-linecap="round"/>
<path d="M691.489 892.699C695.962 888.633 701.338 885.416 706.036 881.589C711.702 876.972 719.104 877.905 725.736 874.659C730.235 872.458 736.198 868.899 739.366 864.866C742.221 861.233 743.01 862.201 747.728 860.743C758.846 857.306 772.159 851.961 783.922 853.756C789.905 854.668 796.283 857.65 802.306 857.65C810.463 857.65 818.104 855.568 825.958 853.756C838.945 850.759 850.965 860.647 861.351 866.756C865.312 869.086 869.952 870.298 874.408 871.108C882.879 872.648 891.147 879.363 898.805 883.192C903.337 885.458 907.498 888.145 912.149 890.179C915.269 891.544 923.733 895.744 916.215 897.624C907.111 899.9 896.24 903.007 886.893 903.007C873.965 903.007 861.035 901.558 848.179 900.946C844.676 900.779 841.147 901.02 837.641 900.946C830.712 900.798 825.128 897.571 817.826 897.91C808.912 898.325 800.147 898.884 791.195 898.884C787.571 898.884 783.94 897.787 780.486 897.853C770.626 898.043 760.332 899.743 750.477 900.717C745.537 901.204 738.743 902.334 734.785 898.941C732.408 896.904 727.897 897.853 725.164 897.853C716.707 897.853 708.25 897.853 699.793 897.853C697.458 897.853 692.786 898.804 690.687 897.624C689.731 897.086 689.678 896.219 688.396 895.791" stroke="#060606" stroke-width="5" stroke-linecap="round"/>
<path d="M690.458 898.884C693.231 904.121 700.578 905.709 705.692 907.932C712.384 910.842 719.721 912.026 726.194 915.148C732.173 918.032 744.623 922.68 746.124 929.809C747.344 935.604 761.469 940.81 765.939 942.18C771.371 943.844 776.546 947.242 782.204 948.136C789.776 949.331 798.183 948.365 805.856 948.365C816.98 948.365 829.364 948.926 840.275 950.885C844.271 951.602 848.343 953.36 852.416 952.03C859.74 949.638 869.537 945.032 875.439 939.602C879.619 935.757 883.618 931.74 888.782 929.294C891.975 927.782 893.062 920.825 893.479 917.496C894.398 910.139 903.74 909.505 905.906 903.007" stroke="#060606" stroke-width="5" stroke-linecap="round"/>
<path d="M828.493 610.141C828.493 629.885 824.854 654.45 830.522 673.578C835.336 689.827 841.771 708.706 841.771 725.49C841.771 738.733 858.376 739.786 869.156 744.577C873.573 746.54 882.985 755.982 884.923 760.344C889.28 770.146 895.296 774.35 892.853 786.807C891.921 791.56 877.993 802.101 872.015 797.319C866.609 792.994 861.038 782.75 853.389 782.75C842.643 782.75 833.893 788.427 824.436 792.893C815.489 797.118 815.715 807.646 805.257 807.646C795.843 807.646 791.202 801.813 782.944 796.857C774.576 791.837 767.629 792.708 757.956 792.708C750.941 792.708 745.639 787.336 738.132 789.481C730.638 791.622 743.385 805.06 743.848 805.986" stroke="#060606" stroke-width="5" stroke-linecap="round"/>
<path d="M768.744 626.737C768.744 643.137 770.404 659.907 770.404 675.791C770.404 691.51 771.983 708.259 768.744 723.646C767.773 728.257 759.182 733.3 755.835 736.647C751.941 740.541 749.071 743.84 743.848 746.605C738.502 749.435 734.263 751.49 728.911 754.166C723.204 757.019 713.974 756.367 713.974 766.153" stroke="#060606" stroke-width="5" stroke-linecap="round"/>
<path d="M733.072 636.124C732.192 646.021 729.249 657.965 722.999 665.951C720.917 668.611 717.584 669.447 715.15 671.707C711.1 675.467 706.445 678.057 702.46 682.041C695.464 689.038 688.386 695.349 680.09 700.879" stroke="#060606" stroke-width="5" stroke-linecap="round"/>
<path d="M866.114 634.946C866.114 639.56 871.322 643.715 874.879 646.458C880.631 650.896 883.878 653.857 887.83 659.606C892.911 666.996 898.374 671.418 905.425 677.135C908.622 679.727 913.249 685.005 916.741 686.751" stroke="#060606" stroke-width="5" stroke-linecap="round"/>
<path d="M717.766 618.463C707.596 618.463 698.905 620.525 688.921 622.061C682.291 623.081 675.07 624.22 668.317 624.35C659.64 624.517 651.916 620.793 643.854 618.202C637.832 616.266 629.039 611.399 622.988 611.399C619.366 611.399 616.489 610.09 620.11 607.147C627.691 600.988 634.229 593.878 642.218 588.048C648.071 583.777 651.141 580.322 658.309 580.853C664.679 581.325 670.913 584.476 676.82 586.674C681.861 588.55 686.797 586.847 691.864 588.113C702.153 590.686 713.035 596.654 719.467 604.924C721.712 607.81 723.465 611.07 726.008 613.754C729.871 617.832 729.43 618.463 724.83 618.463C717.374 618.463 709.917 618.463 702.46 618.463" stroke="#060606" stroke-width="5" stroke-linecap="round"/>
<path d="M600.029 607.867C600.346 602.476 606.144 597.629 610.364 594.916C615.168 591.828 621.522 586.878 627.043 585.497C638.639 582.598 645.42 565.656 659.159 568.098C669.209 569.885 679.256 568.602 689.248 571.369C695.813 573.187 700.358 577.56 706.516 580.199C711.05 582.142 715.558 581.914 720.317 583.273C726.141 584.937 727.599 588.521 731.895 591.384" stroke="#060606" stroke-width="5" stroke-linecap="round"/>
<path d="M742.491 524.273V556.062" stroke="#060606" stroke-width="5" stroke-linecap="round"/>
<path d="M751.91 530.161C751.91 538.363 754.304 551.274 750.732 558.418" stroke="#060606" stroke-width="5" stroke-linecap="round"/>
<path d="M723.653 523.097C723.653 529.553 721.099 544.58 724.83 550.176" stroke="#060606" stroke-width="5" stroke-linecap="round"/>
<path d="M731.895 525.451C731.895 535.129 733.072 544.159 733.072 553.708" stroke="#060606" stroke-width="5" stroke-linecap="round"/>
<path d="M713.057 519.564V544.289" stroke="#060606" stroke-width="5" stroke-linecap="round"/>
<path d="M704.815 516.032C704.815 522.05 707.152 534.309 703.638 539.58" stroke="#060606" stroke-width="5" stroke-linecap="round"/>
<path d="M688.332 519.564V534.87" stroke="#060606" stroke-width="5" stroke-linecap="round"/>
<path d="M695.396 514.855V537.225" stroke="#060606" stroke-width="5" stroke-linecap="round"/>
<path d="M683.623 512.5V541.934" stroke="#060606" stroke-width="5" stroke-linecap="round"/>
<path d="M673.026 511.323V532.516" stroke="#060606" stroke-width="5" stroke-linecap="round"/>
<path d="M660.075 513.678V539.58" stroke="#060606" stroke-width="5" stroke-linecap="round"/>
<path d="M644.769 511.323C644.769 515.439 642.6 534.375 645.947 536.048" stroke="#060606" stroke-width="5" stroke-linecap="round"/>
<path d="M651.833 510.146V534.87" stroke="#060606" stroke-width="5" stroke-linecap="round"/>
<path d="M631.818 508.968V537.225" stroke="#060606" stroke-width="5" stroke-linecap="round"/>
<path d="M638.882 511.323V537.225" stroke="#060606" stroke-width="5" stroke-linecap="round"/>
<path d="M616.512 519.564C616.512 526.73 617.69 533.909 617.69 540.757" stroke="#060606" stroke-width="5" stroke-linecap="round"/>
<path d="M623.577 511.323V541.935" stroke="#060606" stroke-width="5" stroke-linecap="round"/>
<path d="M602.384 527.806C602.384 538.695 602.585 548.826 604.739 559.595" stroke="#060606" stroke-width="5" stroke-linecap="round"/>
<path d="M608.271 525.451C608.271 534.333 610.626 542.573 610.626 551.353" stroke="#060606" stroke-width="5" stroke-linecap="round"/>
<path d="M588.255 543.111C588.255 548.963 587.911 554.925 588.255 560.772C588.328 562.005 592.376 568.719 592.965 569.013" stroke="#060606" stroke-width="5" stroke-linecap="round"/>
<path d="M592.965 536.048C592.965 545.367 592.424 557.336 596.497 565.482" stroke="#060606" stroke-width="5" stroke-linecap="round"/>
<path d="M577.659 558.418C577.659 566.649 577.691 573.787 581.191 580.788" stroke="#060606" stroke-width="5" stroke-linecap="round"/>
<path d="M570.595 580.787C570.595 584.333 572.95 586.799 572.95 590.206" stroke="#060606" stroke-width="5" stroke-linecap="round"/>
<path d="M578.836 558.418C578.836 565.34 584.723 571.215 584.723 577.256" stroke="#060606" stroke-width="5" stroke-linecap="round"/>
<path d="M563.531 581.965C563.531 586.236 565.671 590.74 567.063 594.916" stroke="#060606" stroke-width="5" stroke-linecap="round"/>
<path d="M664.16 588.244C664.16 590.907 663.877 593.575 664.915 596.088C665.586 597.712 666.912 598.996 668.02 600.325C670.02 602.726 671.699 605.384 673.892 607.624C674.881 608.634 675.882 610.811 677.374 610.896C678.487 610.96 679.771 611.528 680.772 612.029C683.018 613.152 685.221 613.82 687.756 613.35C690.009 612.933 692.326 613.463 694.573 613.098C696.345 612.811 698.304 611.64 699.858 610.707C701.792 609.547 703.574 608.904 705.291 607.331C706.766 605.978 707.235 604.414 708.143 602.779C708.852 601.503 708.742 599.898 709.464 598.815" stroke="#060606" stroke-width="5" stroke-linecap="round"/>
<path d="M680.017 586.356C680.017 591.722 679.821 597.46 684.757 600.829C687.064 602.403 689.592 602.59 692.287 602.59C693.579 602.59 695.596 602.947 696.796 602.402C698.822 601.481 699.339 598.169 700.068 596.34C700.518 595.21 701.159 594.32 701.159 593.152" stroke="#060606" stroke-width="5" stroke-linecap="round"/>
<path d="M856.866 621.851C857.478 615.124 862.508 608.792 865.812 603.152C869.367 597.085 876.717 592.459 882.091 588.047C888.652 582.66 896.11 579.172 904.162 576.461C914.482 572.987 925.758 569.998 936.756 570.522C943.238 570.83 950.049 573.669 956.335 575.215C966.527 577.721 976.483 576.728 986.142 581.558C989.554 583.264 994.795 584.759 994.795 589.514" stroke="#060606" stroke-width="5" stroke-linecap="round"/>
<path d="M877.984 617.891C880.366 617.361 883.525 612.66 884.877 610.851C887.815 606.92 889.776 603.796 894.336 601.759C899.598 599.408 904.945 594.252 909.332 590.54C916.308 584.637 927.084 581.931 935.913 581.08C940.694 580.62 952.186 579.106 954.611 583.61C957.216 588.448 961.959 591.069 965.097 595.306C966.663 597.42 969.994 597.615 971.697 599.742C973.978 602.594 977.153 604.543 978.956 607.698C980.025 609.568 981.281 611.024 978.626 612.281C973.684 614.622 967.312 614.916 961.944 616.058C959.284 616.624 956.713 616.407 954.025 616.718C948.403 617.366 942.851 618.858 937.196 619.577C931.745 620.271 926.32 620.334 920.881 621.044C912.628 622.12 904.687 622.231 896.609 619.724C893.066 618.624 890.431 618.551 886.6 618.551C884.253 618.551 881.988 618.616 880.624 616.571" stroke="#060606" stroke-width="5" stroke-linecap="round"/>
<path d="M929.788 589.754C929.788 591.491 929.788 593.228 929.788 594.966C929.788 597.205 929.311 599.97 930.378 602.016C932.282 605.664 934.005 610.536 938.828 610.938C942.636 611.255 946.286 609.633 949.994 609.184C952.158 608.921 955.357 608.156 956.993 606.637C957.211 606.434 957.081 606.041 957.179 605.777C957.544 604.79 958.689 604.093 959.472 603.483C961.716 601.735 963.615 600.498 965.004 597.951" stroke="#060606" stroke-width="5" stroke-linecap="round"/>
<path d="M939.503 585.504C939.503 588.233 938.876 591.971 939.807 594.544C940.966 597.75 943.1 598.255 946.249 598.255C949.301 598.255 953.178 597.183 954.683 594.173C955.43 592.678 956.808 590.718 956.808 589.147" stroke="#060606" stroke-width="5" stroke-linecap="round"/>
<path d="M845.229 529.288C845.229 537.505 846.064 544.89 848.439 552.757C849.234 555.392 850.365 559.284 850.365 562.031" stroke="#060606" stroke-width="5" stroke-linecap="round"/>
<path d="M851.649 529.288C851.649 532.51 851.649 535.732 851.649 538.954C851.649 541.845 850.517 547.538 851.97 550.154C852.619 551.322 852.933 554.925 852.933 556.253" stroke="#060606" stroke-width="5" stroke-linecap="round"/>
<path d="M858.711 528.646C858.711 537.89 858.087 547.19 859.995 556.252" stroke="#060606" stroke-width="5" stroke-linecap="round"/>
<path d="M867.057 524.794C867.057 533.427 865.595 543.52 868.341 551.759" stroke="#060606" stroke-width="5" stroke-linecap="round"/>
<path d="M876.688 522.226V546.622" stroke="#060606" stroke-width="5" stroke-linecap="round"/>
<path d="M885.676 520.3V543.412" stroke="#060606" stroke-width="5" stroke-linecap="round"/>
<path d="M894.022 519.658C894.022 525.484 894.022 531.31 894.022 537.135C894.022 539.88 893.067 544.869 894.664 547.265" stroke="#060606" stroke-width="5" stroke-linecap="round"/>
<path d="M901.084 519.016V545.338" stroke="#060606" stroke-width="5" stroke-linecap="round"/>
<path d="M911.999 518.374V541.487" stroke="#060606" stroke-width="5" stroke-linecap="round"/>
<path d="M922.913 517.09C922.913 524.592 923.555 532.16 923.555 539.56" stroke="#060606" stroke-width="5" stroke-linecap="round"/>
<path d="M933.827 517.731V539.56" stroke="#060606" stroke-width="5" stroke-linecap="round"/>
<path d="M946.025 519.658C946.025 524.628 946.025 529.598 946.025 534.567C946.025 535.999 945.309 540.166 946.667 540.845" stroke="#060606" stroke-width="5" stroke-linecap="round"/>
<path d="M960.792 519.658V542.129" stroke="#060606" stroke-width="5" stroke-linecap="round"/>
<path d="M954.372 517.09V543.413" stroke="#060606" stroke-width="5" stroke-linecap="round"/>
<path d="M967.854 524.794V541.486" stroke="#060606" stroke-width="5" stroke-linecap="round"/>
<path d="M980.052 526.078V543.413" stroke="#060606" stroke-width="5" stroke-linecap="round"/>
<path d="M987.114 529.93C987.114 534.605 986.935 538.936 988.398 543.412C989.206 545.884 990.324 549.825 990.324 552.4" stroke="#060606" stroke-width="5" stroke-linecap="round"/>
<path d="M1005.09 540.845V554.969" stroke="#060606" stroke-width="5" stroke-linecap="round"/>
<path d="M998.029 531.856C998.029 539.368 997.738 546.87 998.671 554.327" stroke="#060606" stroke-width="5" stroke-linecap="round"/>
<path d="M1013.44 545.339C1013.44 547.617 1012.2 559.168 1014.08 560.105" stroke="#060606" stroke-width="5" stroke-linecap="round"/>
<path d="M1021.78 558.82V567.167" stroke="#060606" stroke-width="5" stroke-linecap="round"/>
<path d="M1028.85 571.661V578.081" stroke="#060606" stroke-width="5" stroke-linecap="round"/>
<path d="M515.329 749.573C508.425 749.573 502.95 744.759 500.996 738.507C500.063 735.52 500.166 733.146 497.321 731.565C495.83 730.736 492.801 729.865 491.809 728.625C490.637 727.16 487.477 726.222 485.929 724.583C484.855 723.445 484.541 720.742 484.541 719.274C484.541 713.047 485.163 707.012 487.399 701.226C490.387 693.492 491.704 686.064 497.689 679.747C501.663 675.553 506.053 676.044 507.285 681.585C508.619 687.588 509.667 692.26 506.386 697.837C503.844 702.159 499.159 704.118 499.159 709.311C499.159 712.6 499.424 714.386 500.466 717.396C502.03 721.915 504.549 728.829 509.449 730.463" stroke="#060606" stroke-width="5" stroke-linecap="round"/>
<path d="M502.834 665.782C502.648 663.929 501.007 661.854 500.465 659.902C499.13 655.096 493.099 649.228 490.257 645.284C486.542 640.128 484.364 634.668 483.029 628.665C482.305 625.403 478.03 624.057 475.23 622.785C472.654 621.614 470.098 620.518 467.594 619.11C466.596 618.548 464.23 616.537 463.143 616.537C460.794 616.537 458.833 623.762 458.162 625.357C456.253 629.891 455.793 635.141 455.793 640.057C455.793 647.897 455.793 655.737 455.793 663.577" stroke="#060606" stroke-width="5" stroke-linecap="round"/>
<path d="M469.759 646.672C469.759 659.275 469.859 671.891 468.452 684.402C467.91 689.216 465.457 694.254 465.349 699.021C465.221 704.613 464.86 710.607 465.43 716.171C466.086 722.567 469.271 728.181 471.555 734.056C473.684 739.531 476.195 744.743 478.946 749.94C480.957 753.738 485.043 758.265 485.969 762.435C486.515 764.891 489.008 766.3 489.604 768.683" stroke="#060606" stroke-width="5" stroke-linecap="round"/>
<path d="M1342.59 472.536C1339.93 470.986 1336.89 469.326 1333.92 468.319C1322 464.266 1310.62 469.476 1300.71 473.218C1298.07 472.907 1293.81 472.829 1291.39 471.876C1286.28 469.863 1280.89 461.944 1275.67 458.705C1268.42 454.208 1257.94 452.87 1250.24 455.278C1245.77 456.672 1241.05 459.412 1236.39 460.207C1232.88 460.805 1228.99 459.127 1225.49 459.713C1223.24 460.092 1221.83 461.092 1220.93 462.856C1219.94 464.805 1220.73 466.813 1221.79 468.761C1223.29 469.799 1224.78 470.697 1226.59 471.277C1236.7 474.522 1245.97 470.844 1254.4 467.437C1268.87 462.381 1274.77 477.483 1286.7 482.396C1297.78 486.964 1304.88 485.845 1314.86 481.978C1318.99 480.376 1323.52 478.413 1328.47 479.362C1334.68 480.552 1340.02 487.197 1344.54 490.904C1348.45 494.104 1353.13 496.244 1358.24 497.339C1361.99 498.141 1367.94 498.962 1370.98 497.083C1373.62 495.454 1373.62 493.75 1373.66 491.133C1372.87 489.8 1372.04 488.051 1370.64 487.074C1368.22 485.375 1361.94 486.207 1358.93 486.221L1342.59 472.536Z" fill="#020103"/>
<path d="M1336.41 229.349C1333.3 228.916 1329.78 228.527 1326.62 228.706C1313.91 229.42 1305.85 238.396 1298.46 245.485C1295.92 246.178 1291.99 247.686 1289.35 247.712C1283.79 247.764 1275.33 242.527 1269.11 241.503C1260.47 240.081 1250.3 242.74 1244.34 247.793C1240.89 250.721 1237.8 254.973 1233.9 257.427C1230.95 259.273 1226.65 259.181 1223.72 261.012C1221.83 262.192 1220.99 263.628 1220.96 265.573C1220.92 267.72 1222.54 269.263 1224.38 270.65C1226.22 271.04 1227.98 271.308 1229.89 271.17C1240.58 270.387 1247.4 263.593 1253.57 257.36C1264.54 247.381 1276.68 258.99 1289.77 259.06C1301.94 259.125 1307.92 255.475 1315.31 248.246C1318.36 245.252 1321.62 241.78 1326.57 240.813C1332.78 239.599 1340.63 243.691 1346.41 245.403C1351.41 246.881 1356.64 247.099 1361.8 246.207C1365.58 245.553 1371.38 244.097 1373.32 241.255C1375.01 238.788 1374.24 237.234 1373.11 234.827C1371.8 233.901 1370.25 232.612 1368.54 232.237C1365.57 231.583 1360.2 234.669 1357.46 235.796L1336.41 229.349Z" fill="#020103"/>
<path d="M1238.46 20.3187C1235.69 21.6979 1232.64 23.3342 1230.25 25.2243C1220.63 32.8162 1220.21 44.4079 1219.07 54.1218C1217.51 56.0789 1215.39 59.452 1213.32 60.93C1208.93 64.047 1198.72 64.5649 1193.09 67.1897C1185.28 70.8327 1178.98 78.5688 1177.61 85.8791C1176.82 90.1161 1177.2 95.2033 1175.74 99.31C1174.63 102.402 1171.15 104.707 1170.04 107.785C1169.33 109.765 1169.62 111.373 1170.89 112.936C1172.3 114.659 1174.61 114.992 1177 115.077C1178.72 114.371 1180.3 113.609 1181.72 112.445C1189.69 105.911 1190.58 96.7395 1191.33 88.3758C1193.38 74.3866 1210.77 76.8971 1221.22 69.716C1230.93 63.0381 1233.25 56.8307 1234.29 47.0029C1234.73 42.933 1235 38.3726 1238.29 34.8669C1242.41 30.4731 1251.37 29.3837 1257.11 27.5458C1262.06 25.9578 1266.37 23.2356 1269.87 19.6753C1272.44 17.0673 1276.08 12.6998 1275.72 9.36965C1275.42 6.48051 1273.77 5.66836 1271.27 4.38063C1269.61 4.37232 1267.52 4.20155 1265.91 4.8497C1263.11 5.97549 1260.91 11.3921 1259.48 13.8039L1238.46 20.3187Z" fill="#020103"/>
</g>
<defs>
<clipPath id="clip0_27_482">
<rect width="1920" height="1080" fill="white"/>
</clipPath>
</defs>
</svg>
