<svg width="1920" height="1080" viewBox="0 0 1920 1080" fill="none" xmlns="http://www.w3.org/2000/svg">
<path d="M928.719 1038.85C904.165 1038.85 875.894 1037.66 852.74 1029.24C819.439 1017.13 792.401 992.848 768.575 967.673C758.695 957.233 750.151 943.615 741.707 931.908C737.088 925.505 733.062 918.706 728.539 912.246C725.225 907.51 723.834 901.224 719.732 897.121C711.471 888.86 706.145 877.867 700.959 867.494C693.14 851.855 685.301 833.191 685.301 815.358C685.301 805.067 675.688 791.507 671.244 782.618C666.069 772.269 669.286 753.952 669.286 742.76C669.286 724.148 669.457 703.708 666.172 685.642C660.012 651.757 658.076 617.639 658.076 583.15C658.076 554.699 658.587 528.191 668.397 501.565C673.396 487.995 672.602 473.763 676.582 459.483C680.493 445.449 685.301 429.644 685.301 415.088C685.301 407.855 684.294 399.968 685.39 392.845C686.055 388.52 688.27 383.028 688.504 379.055C688.85 373.159 690.11 351.028 694.909 348.628" stroke="#060606" stroke-width="5" stroke-linecap="round"/>
<path d="M693.309 351.831C693.636 349.214 701.123 346.555 703.006 345.425C711.673 340.225 720.97 335.627 730.498 332.258C744.449 327.324 758.055 327.629 771.957 322.293C800.015 311.524 824.794 299.273 855.766 298.984C884.109 298.719 912.069 294.179 940.464 294.179C954.993 294.179 969.53 294.051 984.059 294.179C1000.34 294.323 1016.6 296.032 1032.28 300.585C1039.91 302.8 1046.98 306.882 1055.06 306.991C1082.16 307.357 1109.96 313.148 1133.35 327.454C1152.75 339.322 1179.6 353.671 1191.36 374.251C1195.79 382.016 1195.66 389.535 1199.36 397.561C1202.64 404.664 1205.2 412.998 1207.01 420.693C1210.88 437.121 1220.18 453.611 1220.18 471.049C1220.18 487.36 1220.18 503.671 1220.18 519.982C1220.18 527.926 1224.58 533.451 1224.99 540.801C1225.4 548.302 1226.25 558.029 1223.03 564.822C1217.08 577.373 1218.58 594.592 1218.58 608.061C1218.58 613.472 1219.78 620.777 1218.22 626.033C1216.93 630.387 1218.3 636.114 1216.62 640.09C1212.82 649.117 1217.21 661.509 1213.42 670.517C1208.93 681.191 1210.57 696.848 1210.57 708.596C1210.57 718.124 1208.97 727.901 1208.97 737.778C1208.97 744.362 1212.17 751.336 1212.17 758.597C1212.17 767.8 1210.57 776.483 1210.57 785.821" stroke="#060606" stroke-width="5" stroke-linecap="round"/>
<path d="M1210.57 785.821C1210.57 794.905 1210.69 807.432 1208.62 816.249C1205.06 831.381 1193.14 843.866 1189.84 858.687C1187.73 868.196 1180.57 877.776 1176.14 886.623C1173.38 892.156 1168.29 897.356 1166.09 903.082C1163.89 908.809 1163.13 914.655 1160.57 920.342C1156.47 929.467 1154.87 939.031 1144.91 944.008C1138.85 947.04 1131.63 949.362 1127.3 954.773C1118.2 966.141 1099.95 970.29 1092.87 982.887C1083.2 1000.08 1058.61 1005.95 1042.42 1014.47C1037.43 1017.1 1028.54 1022.17 1023.2 1022.83C1020.34 1023.19 1009.02 1027.76 1007.19 1030.04C997.931 1041.61 974.658 1042.05 960.749 1042.05C953.622 1042.05 947.29 1043.65 940.731 1043.65C933.052 1043.65 926.31 1042.05 919.111 1042.05" stroke="#060606" stroke-width="5" stroke-linecap="round"/>
<path d="M662.219 768.977C656.527 768.977 650.959 765.541 646.94 761.521C644.307 758.889 640.156 758.281 637.578 755.704C633.794 751.92 631.292 747.01 627.615 743.333C625.234 740.952 623.425 737.593 622.633 734.34C621.836 731.063 619.443 729.666 617.953 726.85C614.571 720.462 613.103 712.815 610.263 706.189C608.791 702.754 606.075 700.113 605.683 696.192C605.382 693.191 605.354 690.889 604.178 688.034C602.478 683.905 602.221 678.518 601.169 674.159C600.075 669.625 597.852 664.941 597.224 660.385C596.832 657.546 596.812 654.792 596.488 651.959C595.658 644.695 593.518 637.739 592.276 630.562C590.406 619.761 589.4 608.453 589.4 597.463C589.4 593.661 589.529 590.07 589.969 586.329C590.493 581.874 589.697 578.318 591.44 574.059C593.338 569.42 593.779 564.669 594.85 559.85C595.755 555.777 598.678 554.893 601.905 552.327C604.501 550.262 607.166 548.703 609.862 546.777C613.833 543.941 615.741 546.52 619.491 548.583C620.584 549.184 622.233 548.969 623.402 549.619C624.466 550.21 625.841 551.432 627.013 551.692C628.298 551.978 630.032 552.672 631.259 553.23C632.585 553.833 634.105 553.487 635.472 554.133C636.661 554.694 637.68 555.662 639.016 555.905C641.492 556.355 654.997 556.833 654.997 554.133" stroke="#060606" stroke-width="5" stroke-linecap="round"/>
<path d="M651.989 621.535C651.989 614.869 649.815 609.724 647.174 603.781C644.555 597.889 640.319 592.758 638.013 586.764C637.144 584.503 634.797 582.027 633.333 580.144C630.052 575.926 627.665 571.029 624.339 566.871C622.156 564.143 614.134 565.567 610.765 565.567C609.447 565.567 607.839 565.315 606.552 565.6C604.525 566.051 603.076 570.011 602.039 571.719C598.026 578.328 598.428 586.692 598.428 594.086C598.428 598.338 597.826 602.356 597.826 606.623C597.826 612.731 602.641 618.529 602.641 624.544" stroke="#060606" stroke-width="5" stroke-linecap="round"/>
<path d="M617.084 586.63C617.084 597.606 616.116 609.049 615.88 620.13C615.681 629.511 612.871 638.736 612.871 648.047C612.871 659.421 613.727 670.623 615.312 681.715C616.208 687.991 617.578 694.461 623.704 697.83C627.572 699.958 629.757 704.105 630.925 708.194" stroke="#060606" stroke-width="5" stroke-linecap="round"/>
<path d="M659.21 700.371C651.948 700.371 645.776 694.415 641.156 689.538C637.939 686.143 635.723 678.334 635.171 673.925C633.953 664.174 634.536 653.975 634.536 644.068C634.536 639.985 635.381 635.506 637.879 632.099C640.149 629.005 644.851 627.437 647.776 624.878C652.144 621.056 652.59 633.631 652.59 635.677C652.59 638.321 652.916 641.199 652.457 643.801C651.898 646.966 649.93 649.741 649.113 652.828C647.968 657.155 644.165 660.615 644.165 665.165C644.165 668.911 646.154 672.454 647.776 675.697" stroke="#060606" stroke-width="5" stroke-linecap="round"/>
<path d="M625.509 587.833C625.509 593.111 628.966 597.073 630.357 601.942C630.537 602.572 631.313 603.184 631.493 603.814C631.858 605.089 631.534 601.762 631.661 601.073C632.07 598.842 632.652 596.258 635.138 596.258" stroke="#060606" stroke-width="5" stroke-linecap="round"/>
<path d="M1225.53 558.87C1228.23 558.87 1230.65 556.399 1233.1 555.296C1235.21 554.345 1238.16 554.822 1239.93 553.404C1243.93 550.202 1246.04 545.294 1249.18 541.37C1251.29 538.727 1261.75 538.81 1265.26 539.005C1266.91 539.096 1269.71 541.628 1270.94 542.789C1273.96 545.645 1280.86 549.605 1282.29 552.826C1286.34 561.94 1287.02 569.783 1287.02 579.681C1287.02 589.447 1288.91 599.082 1288.91 609.005C1288.91 617.621 1287.75 628.857 1284.65 636.911C1283.5 639.914 1283.47 644.679 1283.18 647.895C1282.62 654.03 1281.32 659.943 1279.66 665.763C1277.77 672.388 1274 678.219 1272.09 684.892C1270.14 691.712 1272.6 699.766 1268.62 706.018C1261.91 716.569 1259.92 729.801 1253.38 740.072C1249.59 746.038 1246.99 752.176 1242.14 757.467C1239.17 760.703 1232.83 764.84 1228.37 765.088C1223.49 765.358 1220.32 765.269 1216.54 762.25C1213.64 759.927 1211.71 758.175 1208.5 756.574" stroke="#060606" stroke-width="5" stroke-linecap="round"/>
<path d="M1224.59 709.276C1235.58 708.055 1240.15 692.376 1248.65 687.519C1258.54 681.869 1262.42 674.43 1262.42 662.925C1262.42 657.992 1263.25 652.255 1261.69 647.579C1259.47 640.913 1255.44 633.733 1252.39 627.294C1251.42 625.246 1250.11 617.668 1247.29 617.519C1244.99 617.398 1242.79 616.691 1240.67 616.573C1236.92 616.365 1230.04 612.475 1228.84 617.046C1226.91 624.395 1226.48 633.846 1226.48 641.378C1226.48 649.037 1232.15 654.029 1232.15 661.558C1232.15 669.223 1229.05 675.249 1227.48 682.317C1227.13 683.882 1226.7 685.581 1225.74 686.784C1224.73 688.043 1225.99 690.748 1225.32 692.249C1224 695.211 1221.36 713.06 1225.53 713.06" stroke="#060606" stroke-width="5" stroke-linecap="round"/>
<path d="M1237.45 602.022C1239.89 602.022 1242.33 602.022 1244.76 602.022C1245.83 602.022 1246.93 601.954 1247.99 602.047C1250.43 602.259 1252.08 603.481 1252.08 600.692C1252.08 595.246 1247.2 590.815 1247.2 585.615" stroke="#060606" stroke-width="5" stroke-linecap="round"/>
<path d="M1261.39 569.209C1264.9 568.819 1269.45 567.973 1272.04 571.204C1272.23 571.44 1273.5 572.478 1273.81 572.657C1274.77 573.221 1275.41 574.13 1276.03 575.072C1281.1 582.831 1283.57 590.562 1283.57 600.003C1283.57 603.087 1283.96 606.324 1282.8 609.241C1281.13 613.45 1279.13 617.423 1277.8 621.755C1277.06 624.159 1276.91 626.205 1276.91 628.727C1276.91 631.861 1275.94 634.856 1275.56 637.916C1275.33 639.731 1273.81 641.556 1273.81 643.262" stroke="#060606" stroke-width="5" stroke-linecap="round"/>
<path d="M1261.39 578.521C1261.39 581.937 1260.77 586.035 1261.64 589.385C1262.28 591.856 1263.46 594.158 1264.33 596.554C1266.5 602.588 1269.07 608.258 1270.8 614.34C1271.77 617.736 1271.15 621.99 1271.15 625.525C1271.15 628.037 1271.15 630.55 1271.15 633.063" stroke="#060606" stroke-width="5" stroke-linecap="round"/>
<path d="M975.545 550.296C975.545 567.763 975.545 585.231 975.545 602.698C975.545 611.115 973.382 623.5 976.671 631.311C977.894 634.216 976.992 639.027 976.992 642.161C976.992 647.246 980.198 654.319 982.779 658.476C985.046 662.129 985.175 666.326 987.119 669.728C988.553 672.238 988.853 678.992 990.736 680.498C993.322 682.567 991.465 686.285 995.799 686.285C998.023 686.285 1004.48 685.201 1005.93 687.008C1008.76 690.555 1017.25 688.729 1020.07 693.518C1022.31 697.323 1024.13 700.992 1025.86 705.092C1030.03 715.008 1029.07 728.04 1029.07 738.687C1029.07 745.333 1027.39 756.669 1018.14 751.386C1013.23 748.579 1014.3 740.995 1011.39 736.919C1008.88 733.401 1002.19 729.258 997.969 728.319C991.585 726.901 982.265 727.493 977.715 731.132C972.941 734.952 972.148 741.527 968.312 746.323C963.391 752.474 957.412 757.173 949.505 757.173C945.812 757.173 943.511 755.726 940.101 755.726C937.493 755.726 935.569 755.642 933.27 754.28C929.677 752.151 931.104 751.231 928.93 748.814C928.181 747.983 924.543 748.196 923.384 747.689C920.771 746.546 918.154 743.374 915.508 742.786C910.69 741.716 907.083 739.307 902.487 738.286C899.211 737.557 882.957 733.368 882.957 737.643C882.957 744.084 883.766 751.067 890.19 754.28" stroke="#060606" stroke-width="5" stroke-linecap="round"/>
<path d="M917.678 560.422C917.678 553.457 917.678 574.354 917.678 581.319C917.678 588.547 920.571 595.134 920.571 602.377C920.571 620.801 922.018 640.547 922.018 659.441C922.018 678.097 907.948 699.305 888.02 699.305C881.341 699.305 878.16 699.189 872.83 702.52C870.325 704.086 869.608 707.639 868.49 710.155C864.136 719.953 861.872 721.095 874.277 716.665" stroke="#060606" stroke-width="5" stroke-linecap="round"/>
<path d="M851.13 838.188C861.286 829.047 875.076 827.273 885.85 819.702C891.169 815.965 898.053 811.868 903.934 809.254C906.474 808.125 907.703 806.522 910.444 806.361C914.541 806.12 917.295 802.021 922.017 802.021C928.672 802.021 937.867 805.909 942.994 809.897C945.565 811.896 954.99 806.376 956.738 804.191C960.521 799.461 981.041 807.422 986.395 807.888C994.716 808.611 1000.24 813.01 1007.53 815.844C1014.4 818.516 1022.99 819.728 1028.43 825.168C1033.02 829.757 1035.81 836.075 1040.32 840.76C1050.82 851.655 1034.14 849.079 1025.86 847.993C1013.61 846.387 1003.95 842.528 991.459 842.528C980.982 842.528 970.629 838.188 960.435 838.188C949.442 838.188 937.303 843.777 926.358 845.341C912.826 847.274 898.817 845.741 885.127 847.591C872.948 849.237 859.844 851.208 847.593 851.208C845.852 851.208 843.103 854.112 841.324 852.333C839.234 850.243 842.232 845.695 843.092 843.975C846.201 837.758 849.332 834.023 855.47 830.954" stroke="#060606" stroke-width="5" stroke-linecap="round"/>
<path d="M846.79 852.654C841.2 852.654 859.015 851.312 863.427 854.744C871.015 860.646 877.257 865.86 883.68 873.712C887.274 878.103 885.822 879.016 891.959 880.784C899.991 883.099 907.3 886.405 914.704 890.268C919.774 892.913 923.153 893.348 923.464 898.948C923.608 901.531 929.891 900.395 931.662 900.395C950.691 900.395 973.655 902.843 991.459 894.93C994.693 893.492 993.254 893.564 995.317 890.75C1002.87 880.445 1008.62 871.852 1018.79 863.745C1028.44 856.043 1033.32 849.761 1046.43 849.761" stroke="#060606" stroke-width="5" stroke-linecap="round"/>
<path d="M1018.48 847.812C1011.15 847.812 1003.81 847.812 996.477 847.812C984.724 847.812 973.336 852.212 961.353 852.212C950.864 852.212 941.798 849.981 931.608 849.279C924.432 848.784 914.442 847.397 908.464 843.411" stroke="#060606" stroke-width="5" stroke-linecap="round"/>
<path d="M882.188 588.456C882.188 603.322 872.038 611.577 860.202 617.334C854.104 620.301 846.74 620.653 840.95 623.811C836.035 626.492 830.935 631.124 827.64 635.517" stroke="#060606" stroke-width="5" stroke-linecap="round"/>
<path d="M869.353 570.273C857.682 570.273 845.061 569.15 833.463 570.807C824.328 572.112 815.485 573.125 806.129 572.768C796.394 572.397 791.348 569.732 782.955 566.826C779.772 565.724 774.112 561.655 772.022 559.042C770.871 557.604 768.318 556.586 769.526 554.586C775.814 544.178 786.37 537.116 798.523 537.116C802.148 537.116 805.773 537.116 809.397 537.116C815.436 537.116 819.747 535.395 825.619 534.502C838.66 532.517 850.265 540.685 860.558 547.812C866.159 551.689 881.011 570.273 866.144 570.273" stroke="#060606" stroke-width="5" stroke-linecap="round"/>
<path d="M809.457 538.186C809.457 546.092 810.883 548.181 816.112 553.991C820.849 559.255 826.661 560.759 833.522 562.251C843.134 564.34 859.727 564.9 859.727 552.09" stroke="#060606" stroke-width="5" stroke-linecap="round"/>
<path d="M828.709 539.256C828.709 546.913 834.569 554.23 842.079 554.23C849.371 554.23 851.17 552.236 851.17 544.604" stroke="#060606" stroke-width="5" stroke-linecap="round"/>
<path d="M743.144 563.856C744.486 539.013 770.664 532.222 790.145 526.54C806.866 521.663 824.847 516.538 842.435 519.112C850.782 520.334 857.562 525.056 865.312 527.728C870.594 529.549 874.124 531.93 878.147 535.809C881.959 539.485 881.241 547.339 886.466 549.951" stroke="#060606" stroke-width="5" stroke-linecap="round"/>
<path d="M897.161 475.081V513.586" stroke="#060606" stroke-width="5" stroke-linecap="round"/>
<path d="M889.674 474.012V507.168" stroke="#060606" stroke-width="5" stroke-linecap="round"/>
<path d="M877.909 475.081V505.029" stroke="#060606" stroke-width="5" stroke-linecap="round"/>
<path d="M866.144 469.733C866.144 480.912 867.213 491.929 867.213 502.89" stroke="#060606" stroke-width="5" stroke-linecap="round"/>
<path d="M857.587 467.595V493.264" stroke="#060606" stroke-width="5" stroke-linecap="round"/>
<path d="M841.544 464.386C841.544 473.09 840.419 481.897 843.683 490.055" stroke="#060606" stroke-width="5" stroke-linecap="round"/>
<path d="M849.03 466.525C849.03 474.392 850.1 482.455 850.1 490.056" stroke="#060606" stroke-width="5" stroke-linecap="round"/>
<path d="M830.848 459.038C830.848 467.65 829.182 478.639 831.918 486.847" stroke="#060606" stroke-width="5" stroke-linecap="round"/>
<path d="M820.152 461.177V486.846" stroke="#060606" stroke-width="5" stroke-linecap="round"/>
<path d="M805.179 463.316V487.916" stroke="#060606" stroke-width="5" stroke-linecap="round"/>
<path d="M810.526 462.247V490.056" stroke="#060606" stroke-width="5" stroke-linecap="round"/>
<path d="M791.274 462.247C791.274 467.075 788.907 484.594 793.413 486.847" stroke="#060606" stroke-width="5" stroke-linecap="round"/>
<path d="M777.369 464.386V486.847" stroke="#060606" stroke-width="5" stroke-linecap="round"/>
<path d="M784.856 462.247V485.778" stroke="#060606" stroke-width="5" stroke-linecap="round"/>
<path d="M761.326 469.733C761.326 477.289 762.396 484.951 762.396 492.194" stroke="#060606" stroke-width="5" stroke-linecap="round"/>
<path d="M766.674 468.664V493.264" stroke="#060606" stroke-width="5" stroke-linecap="round"/>
<path d="M750.63 477.221C750.63 486.312 749.873 495.271 752.769 503.96" stroke="#060606" stroke-width="5" stroke-linecap="round"/>
<path d="M757.048 474.012V499.681" stroke="#060606" stroke-width="5" stroke-linecap="round"/>
<path d="M742.074 488.986C742.074 498.01 743.144 506.954 743.144 515.726" stroke="#060606" stroke-width="5" stroke-linecap="round"/>
<path d="M735.656 498.612V531.769" stroke="#060606" stroke-width="5" stroke-linecap="round"/>
<path d="M726.03 509.308V531.769" stroke="#060606" stroke-width="5" stroke-linecap="round"/>
<path d="M719.613 522.143V545.673" stroke="#060606" stroke-width="5" stroke-linecap="round"/>
<path d="M1002.56 564.083C1002.56 553.047 1015.19 542.282 1024.01 537.335C1030.82 533.513 1036.72 527.95 1043.59 524.328C1051.85 519.978 1060.84 520.987 1069.7 518.586C1079.82 515.847 1089.94 513.611 1100.03 517.555C1114.14 523.065 1128.09 527.207 1141.65 534.243C1147.97 537.518 1149.21 539.612 1149.21 546.414" stroke="#060606" stroke-width="5" stroke-linecap="round"/>
<path d="M1015.81 566.734C1019.54 561.977 1023.66 559.71 1028.38 556.231C1032.99 552.829 1036.22 547.106 1040.65 543.274C1046.3 538.382 1053.42 535.492 1058.76 530.562C1060.66 528.81 1065.2 530.803 1067.45 531.446C1069.72 532.094 1071.64 532.28 1074.32 532.28C1081.9 532.28 1090.14 531.234 1097.38 533.752C1105.36 536.522 1109.17 539.063 1114.81 544.697C1117.17 547.059 1120.8 549.688 1122.51 552.599C1123.53 554.322 1126.47 554.494 1127.08 556.624C1128.25 560.734 1106.7 566.653 1103.77 566.734C1090.75 567.096 1078.02 567.738 1065.24 569.335C1058.4 570.19 1045.33 571.379 1038.98 567.618C1035.16 565.354 1031.16 563.832 1028.18 560.108C1026.92 558.529 1024.65 559.663 1024.65 557.016" stroke="#060606" stroke-width="5" stroke-linecap="round"/>
<path d="M1062.64 540.231C1062.64 548.002 1066.27 551.969 1072.16 556.624C1075.22 559.045 1078.09 560.475 1082.07 560.55C1085.73 560.619 1093.08 562.021 1096.21 560.01C1100.8 557.057 1101.19 552.625 1103.76 548.574C1105.36 546.071 1107 539.695 1109.46 538.464" stroke="#060606" stroke-width="5" stroke-linecap="round"/>
<path d="M1075.89 537.581C1075.89 542.021 1075.48 547.199 1078.54 550.832C1081.18 553.966 1082.13 554.366 1086.93 554.366C1089.15 554.366 1092.67 550.054 1092.67 547.74C1092.67 544.309 1092.94 539.689 1094.44 536.697" stroke="#060606" stroke-width="5" stroke-linecap="round"/>
<path d="M989.31 477.506C989.31 485.98 989.31 494.455 989.31 502.929C989.31 505.119 988.176 512.718 990.193 513.727" stroke="#060606" stroke-width="5" stroke-linecap="round"/>
<path d="M996.377 477.506V505.776" stroke="#060606" stroke-width="5" stroke-linecap="round"/>
<path d="M1007.86 476.623V505.777" stroke="#060606" stroke-width="5" stroke-linecap="round"/>
<path d="M1012.28 472.205C1012.28 478.242 1012.28 484.279 1012.28 490.316C1012.28 494.401 1014.05 498.245 1014.05 502.242" stroke="#060606" stroke-width="5" stroke-linecap="round"/>
<path d="M1024.65 467.788C1024.65 473.318 1024.65 478.847 1024.65 484.377C1024.65 487.702 1025.66 493.221 1023.76 496.058" stroke="#060606" stroke-width="5" stroke-linecap="round"/>
<path d="M1031.71 465.138C1031.71 469.997 1031.71 474.856 1031.71 479.715C1031.71 484.776 1033.48 489.342 1033.48 494.291" stroke="#060606" stroke-width="5" stroke-linecap="round"/>
<path d="M1037.02 464.255C1037.02 472.101 1037.9 480.763 1037.9 488.108" stroke="#060606" stroke-width="5" stroke-linecap="round"/>
<path d="M1045.85 469.555V488.107" stroke="#060606" stroke-width="5" stroke-linecap="round"/>
<path d="M1056.45 466.905V490.758" stroke="#060606" stroke-width="5" stroke-linecap="round"/>
<path d="M1065.29 460.721V488.107" stroke="#060606" stroke-width="5" stroke-linecap="round"/>
<path d="M1072.35 463.371C1072.35 471.298 1071.06 480.504 1073.24 488.108" stroke="#060606" stroke-width="5" stroke-linecap="round"/>
<path d="M1078.54 465.138V486.34" stroke="#060606" stroke-width="5" stroke-linecap="round"/>
<path d="M1088.26 466.021C1088.26 473.411 1089.14 480.868 1089.14 488.108" stroke="#060606" stroke-width="5" stroke-linecap="round"/>
<path d="M1097.09 469.555C1097.09 475.474 1097.97 481.571 1097.97 487.224" stroke="#060606" stroke-width="5" stroke-linecap="round"/>
<path d="M1102.39 471.322C1102.39 475.314 1101.66 479.482 1104.16 482.807" stroke="#060606" stroke-width="5" stroke-linecap="round"/>
<path d="M1113.88 473.089V485.457" stroke="#060606" stroke-width="5" stroke-linecap="round"/>
<path d="M1121.83 476.623V491.642" stroke="#060606" stroke-width="5" stroke-linecap="round"/>
<path d="M1131.54 483.69V494.292" stroke="#060606" stroke-width="5" stroke-linecap="round"/>
<path d="M1141.26 491.642V502.243" stroke="#060606" stroke-width="5" stroke-linecap="round"/>
<path d="M1149.21 498.709V507.543" stroke="#060606" stroke-width="5" stroke-linecap="round"/>
<path d="M1157.16 504.01V510.194" stroke="#060606" stroke-width="5" stroke-linecap="round"/>
<path d="M1161.58 509.311V515.495" stroke="#060606" stroke-width="5" stroke-linecap="round"/>
<path d="M654.437 548.416C653.662 539.901 645.973 533.983 645.498 525.432C645.076 517.827 639.874 517.158 634.007 514.224C623.544 508.993 634.417 495.723 632.446 488.119C631.126 483.027 626.586 480.394 623.792 476.202C617.896 467.359 613.854 455.929 616.911 445.06C619.286 436.615 627.625 423.997 622.515 415.054C621.24 412.823 618.447 411.62 617.124 409.237C614.12 403.831 613.577 400.272 613.577 393.986C613.577 392.559 613.335 390.851 613.648 389.446C614.864 383.973 613.744 380.431 611.59 374.194C609.266 367.462 606.955 360.266 604 353.764C600.018 345.004 600.808 331.566 600.808 322.126C600.808 320.501 599.906 314.392 601.517 313.472C602.607 312.849 607.89 311.726 606.909 309.641C605.577 306.812 601.994 305.809 600.808 302.547C599.421 298.733 598.872 295.599 597.97 291.765C596.593 285.911 596.05 278.209 598.538 272.612C600.539 268.11 594.634 264.092 593.218 259.843C590.939 253.006 588.134 242.434 594.92 237.214C603.016 230.987 605.915 250.628 605.915 231.185C605.915 225.584 603.66 213.339 606.554 208.13C607.551 206.336 606.749 202.56 609.746 202.384C612.049 202.249 613.577 200.305 613.577 197.844C613.577 193.8 611.577 178.945 615.847 178.124C618.527 177.608 624.933 178.089 625.068 174.577C625.4 165.949 626.111 156.284 632.73 150.032C638.793 144.306 652.408 150.581 654.72 139.534C656.486 131.1 661.172 124.885 664.935 118.111C668.798 111.158 679.662 117.65 681.889 113.642C685.592 106.976 686.356 105.342 694.658 105.342C706.885 105.342 704.234 96.6299 704.234 86.2597C704.234 73.8442 712.051 87.4787 715.159 90.5869C717.591 93.0194 718.506 82.8072 719.273 81.0813C722.02 74.9021 717.125 65.1185 726.793 62.9214C732.738 61.5701 736.67 60.8154 740.554 65.7589C744.462 70.7327 754.085 72.3672 760.133 72.1432C769.708 71.7886 787.181 62.4448 788.508 52.9901C789.757 44.0913 802.849 27.6067 809.931 41.4983C810.481 42.5765 814.435 53.7154 814.755 53.4867C817.91 51.2327 821.125 50.1466 824.828 49.0886C826.777 48.5316 827.319 40.7395 828.375 38.9446C830.294 35.6816 838.925 40.5367 841.569 41.4983C843.967 42.3702 847.478 45.4764 848.805 42.4914C851.405 36.6404 856.885 35.9856 861.006 32.2765C866.959 26.9189 869.598 38.545 874.342 30.0065C878.985 21.6487 891.13 36.3908 897.042 36.3908C905.087 36.3908 914.42 38.1657 920.664 31.9218C927.634 24.9514 934.756 15.3026 943.648 26.2468C947.94 31.5292 954.287 31.5846 959.892 35.1139C962.505 36.7587 966.904 38.0719 969.824 37.0293C973.355 35.7682 976.75 34.6707 980.039 32.844C982.903 31.2525 990.855 19.6836 995.361 24.1896C1002.32 31.1451 1008.91 44.4748 1019.91 44.052C1023.63 43.9088 1026.71 41.4983 1030.48 41.4983C1034.77 41.4983 1033.55 48.4808 1036.22 50.1527C1038.44 51.542 1040.38 52.2786 1043.24 51.6423C1044.77 51.303 1044.88 49.7554 1046.08 49.0177C1052.03 45.3569 1056.71 49.2427 1061.47 52.9901C1064.95 55.7249 1073.92 64.3604 1077.22 60.5804C1081.95 55.179 1088.94 46.6058 1096.8 46.6058C1102.03 46.6058 1102.95 53.988 1104.18 57.8139C1104.73 59.5401 1106.47 67.9407 1107.23 66.752C1109.72 62.8843 1113.06 59.3745 1117.94 59.3745C1120.72 59.3745 1122.06 61.9282 1124.96 61.9282C1128.64 61.9282 1128.73 67.4922 1130.71 69.5895C1134.34 73.4386 1140.22 67.7059 1144.12 67.1067C1152 65.8931 1154.03 69.6745 1158.8 74.6969C1161.41 77.4397 1164.96 80.446 1167.17 83.3513C1174.41 92.8826 1180.5 102.356 1185.9 113.571C1187.31 116.51 1187.32 119.328 1190.86 119.387C1195.7 119.468 1201.93 118.252 1206.54 120.026C1210.77 121.654 1213.26 125.73 1216.26 128.893C1222.23 135.197 1224.12 142.91 1230.31 148.755C1232.55 150.872 1234.87 152.516 1237.33 154.43C1242.52 158.47 1243.07 168.82 1243.07 175.002C1243.07 181.191 1239.6 182.647 1241.8 189.615C1243.76 195.851 1244.72 202.953 1248.75 208.13C1253.27 213.943 1259.48 218.38 1260.88 226.077C1261.51 229.528 1260.94 237.402 1262.51 240.123C1262.84 240.698 1270.53 241.513 1271.87 241.896C1284.83 245.596 1279.37 268.809 1271.73 276.443C1269.24 278.935 1268.61 278.07 1268.61 282.259C1268.61 286.481 1270.89 290.066 1272.44 293.893C1275.48 301.364 1277.4 309.21 1277.55 317.302C1277.67 323.658 1277.55 330.027 1277.55 336.385C1277.55 339.043 1274.89 342.2 1276.27 344.4C1280.77 351.547 1295.04 367.442 1283.65 374.762C1275.93 379.724 1267.87 375.578 1266.13 386.892C1265.06 393.833 1266.06 401.55 1266.06 408.599C1266.06 412.542 1263.05 414.632 1260.38 416.898C1258.19 418.758 1255.09 418.924 1253.01 421.013C1250.4 423.623 1249.59 428.176 1248.89 431.653C1246.93 441.461 1246.39 450.394 1244.28 460.241C1242.27 469.615 1239.98 481.118 1235.7 489.68C1233.23 494.615 1232.86 500.818 1232.86 506.279C1232.86 509.046 1232.86 511.812 1232.86 514.579C1232.86 517.639 1230.9 519.119 1230.23 522.098C1227.57 534.103 1231.89 545.984 1226.47 558.631" stroke="#060606" stroke-width="5" stroke-linecap="round"/>
<path d="M1009.01 584.781C1010.89 592.685 1011.84 596.537 1017.69 601.082C1021.48 604.032 1024.99 605.857 1028.11 609.603C1032.44 614.794 1034.54 620.644 1037.16 626.645C1038.88 630.564 1040.24 634.112 1043.3 637.177C1046.89 640.764 1051.24 643.212 1054.73 646.704" stroke="#060606" stroke-width="5" stroke-linecap="round"/>
<path d="M1392.35 461.843C1390.21 460.529 1387.76 459.135 1385.32 458.365C1375.5 455.264 1365.39 461.049 1356.65 465.322C1354.44 465.2 1350.81 465.412 1348.83 464.658C1344.65 463.062 1340.71 455.797 1336.53 453.029C1330.72 449.186 1321.92 448.603 1315.17 451.441C1311.25 453.085 1307.01 456.043 1302.98 457.123C1299.94 457.935 1296.77 456.581 1293.75 457.382C1291.8 457.898 1290.52 458.956 1289.61 460.716C1288.61 462.66 1289.12 464.541 1289.86 466.346C1291.05 467.245 1292.25 468.009 1293.74 468.446C1302.08 470.891 1310.27 466.723 1317.72 462.873C1330.44 457.029 1334.24 471.178 1343.99 475.107C1353.05 478.76 1359.18 477.204 1367.98 472.807C1371.63 470.985 1375.64 468.789 1379.78 469.37C1384.97 470.097 1388.98 476.138 1392.52 479.404C1395.58 482.224 1399.39 483.969 1403.65 484.68C1406.77 485.201 1411.77 485.59 1414.51 483.575C1416.89 481.828 1417.03 480.187 1417.28 477.664C1416.72 476.433 1416.15 474.804 1415.04 473.957C1413.11 472.483 1407.7 473.708 1405.14 473.925L1392.35 461.843Z" fill="#020103"/>
<path d="M1356.39 286.891C1354.61 286.509 1352.59 286.177 1350.77 286.407C1343.44 287.326 1338.63 296.425 1334.24 303.629C1332.76 304.362 1330.47 305.933 1328.95 306.002C1325.75 306.144 1320.98 301.048 1317.42 300.125C1312.49 298.843 1306.58 301.666 1303.05 306.811C1301.01 309.793 1299.14 314.092 1296.85 316.606C1295.12 318.499 1292.65 318.476 1290.93 320.354C1289.82 321.563 1289.3 323.012 1289.25 324.956C1289.19 327.102 1290.09 328.617 1291.12 329.973C1292.17 330.334 1293.18 330.573 1294.28 330.404C1300.44 329.449 1304.5 322.549 1308.18 316.222C1314.68 306.072 1321.44 317.476 1328.97 317.335C1335.97 317.203 1339.49 313.458 1343.88 306.115C1345.7 303.074 1347.64 299.552 1350.51 298.505C1354.1 297.192 1358.54 301.154 1361.83 302.771C1364.68 304.167 1367.69 304.301 1370.67 303.325C1372.86 302.611 1376.23 301.062 1377.4 298.19C1378.42 295.699 1378.01 294.158 1377.4 291.771C1376.67 290.867 1375.8 289.604 1374.82 289.257C1373.13 288.652 1369.98 291.822 1368.38 292.993L1356.39 286.891Z" fill="#020103"/>
<path d="M1324.76 118.385C1322.64 119.349 1320.32 120.517 1318.58 121.99C1311.6 127.904 1312.77 138.482 1313.1 147.262C1312.06 148.886 1310.74 151.748 1309.21 152.877C1305.98 155.258 1297.57 154.623 1293.25 156.419C1287.25 158.91 1283.03 165.316 1282.86 171.868C1282.75 175.665 1283.74 180.369 1283.06 183.974C1282.55 186.688 1279.96 188.423 1279.45 191.124C1279.11 192.861 1279.56 194.366 1280.82 195.936C1282.22 197.669 1284.18 198.224 1286.17 198.561C1287.5 198.102 1288.72 197.574 1289.74 196.662C1295.5 191.539 1295.04 183.23 1294.56 175.645C1294.43 163.046 1309.19 167.235 1316.92 161.787C1324.1 156.721 1325.21 151.283 1324.79 142.389C1324.62 138.706 1324.25 134.556 1326.52 131.7C1329.36 128.12 1336.66 128.095 1341.18 127.033C1345.08 126.116 1348.3 124.088 1350.74 121.205C1352.52 119.093 1354.97 115.486 1354.24 112.395C1353.61 109.713 1352.13 108.791 1349.89 107.339C1348.51 107.151 1346.76 106.768 1345.51 107.187C1343.33 107.915 1342.21 112.64 1341.34 114.696L1324.76 118.385Z" fill="#020103"/>
</svg>
