<?xml version="1.0" encoding="utf-8" ?>
<svg xmlns="http://www.w3.org/2000/svg" xmlns:xlink="http://www.w3.org/1999/xlink" width="479" height="413">
	<path transform="scale(0.249503 0.383162)" d="M1039.73 64.1197C1049.36 63.0323 1060.21 64.0243 1069.64 66.2249C1098.18 72.8831 1125.55 88.6584 1141.22 113.923L1156.26 115.087C1185.83 117.141 1222.62 136.464 1232.89 165.806C1234.43 170.195 1234.71 175.126 1235.17 179.727C1235.22 180.209 1235.37 183.354 1235.54 183.567C1235.76 183.843 1241.2 185.02 1241.91 185.214C1246.23 186.394 1250.23 187.885 1254.27 189.799C1267.75 196.177 1279.3 205.19 1289.03 216.496C1301.69 231.194 1312.33 250.148 1315.47 269.482C1316.92 278.449 1316.4 287.686 1315.7 296.691L1324.5 301.64C1348.39 317.294 1363.53 354.968 1355.12 382.371C1353.51 387.599 1351.37 392.423 1348.86 397.272C1348.29 398.375 1345.65 402.369 1345.63 403.372C1345.6 404.268 1350.13 408.991 1350.83 409.813C1363.99 425.299 1372.76 443.101 1374.87 463.528C1376.38 478.124 1375.59 494.304 1371.66 508.495C1370.18 513.841 1367.32 519.172 1366.3 524.591C1365.17 530.652 1366.13 537.211 1365.22 543.438C1364.45 548.741 1358.59 559.484 1359.64 563.511C1360.97 568.601 1362.98 573.624 1363.76 578.836C1367.52 604.154 1356.73 628.119 1338.05 644.777C1333.47 648.861 1327.83 651.496 1323.06 655.314C1316.93 660.216 1312.48 667.237 1305.76 671.364C1304.21 672.316 1291.9 679.04 1291.82 679.334C1291.6 680.157 1292.58 683.704 1292.73 684.723C1294.7 697.336 1293.19 706.932 1287.39 718.409C1276.72 739.516 1257.46 749.301 1235.9 756.259C1231.66 767.311 1225.18 778.187 1219.3 788.476C1185.21 848.153 1134.42 897.33 1072.15 926.808C1007.96 957.195 937.018 957.416 870.71 933.814C810.428 912.887 758.241 864.326 722.742 812.509C717.68 805.121 712.795 797.555 708.298 789.809C706.289 786.347 703.577 778.046 700.582 775.599C700.243 775.322 697.599 775.087 697.055 774.993C692.736 774.242 688.335 773.583 684.088 772.486C679.397 771.275 674.521 769.463 670.302 767.075C659.229 760.808 645.854 745.611 643.829 732.83C643.247 729.153 644.874 723.505 643.897 720.255C643.074 717.521 627.442 710.563 624.201 708.205C621.168 705.998 618.834 703.381 616.697 700.317C608.922 689.175 610.855 675.443 613.148 662.871C595.635 656.83 583.295 650.632 570.675 636.608C554.111 618.2 548.712 591.768 555.52 568.178C556.239 565.689 560.486 557.172 560.277 555.415C560.186 554.649 557.384 551.404 556.811 550.629C547.19 537.603 542.785 526.913 543.773 510.464C544.458 499.071 551.84 492.038 559.81 484.957L549.208 451.4C545.986 437.097 545.414 418.995 554.341 406.661C557.157 402.769 561.481 399.507 565.069 396.295C565.568 395.847 568.66 393.429 568.779 392.984C569.289 391.073 566.904 383.018 566.633 380.626C566.072 375.666 566.175 370.495 566.332 365.512C567.153 339.33 577.469 313.227 598.925 297.232C602.436 294.615 606.075 292.437 609.991 290.477C611.219 289.862 614.693 288.68 615.534 287.791C615.559 287.765 615.519 285.757 615.521 285.526C615.718 263.202 620.309 241.943 632.397 222.853C645.544 202.092 661.743 193.172 685.215 187.93L687.843 178.217C696.84 153.132 720.521 134.137 744.059 123.346C773.53 109.837 801.951 108.802 832.203 120.057L834.247 117.13C839.248 110.776 844.83 104.762 851.328 99.9136C865.796 89.1187 883.233 82.3501 900.469 77.4234C917.533 72.5457 936.201 68.8974 953.875 72.7301C960.157 74.0925 966.909 75.7153 972.655 78.6721C975.896 80.3405 981.828 85.9941 984.886 86.6541C985.224 86.727 985.45 86.2551 985.732 86.0558C987.052 85.1228 988.378 84.1987 989.699 83.2677C1006.27 71.5932 1019.47 66.5695 1039.73 64.1197ZM923.46 350.048C883.605 374.384 835.036 401.214 786.664 389.257C777.984 387.111 769.962 383.048 761.972 379.15C755.277 394.946 747.664 405.417 731.279 411.982C724.837 414.563 717.672 416.829 710.755 417.602C698.272 418.998 674.041 414.649 667.84 428.854C664.495 436.516 663.49 444.626 662.375 452.83C658.728 479.658 660.313 506.969 660.92 533.931C661.712 569.078 661.893 604.263 667.808 639.023C673.18 670.591 681.541 702.359 693.856 731.962C727.265 812.268 786.345 885.98 868.619 919.68C918.347 940.049 968.679 942.439 1021.05 931.931C1045.45 924.803 1068.75 915.587 1090.81 902.888C1144.29 872.096 1185.01 825.075 1214.37 771.341C1258.67 690.261 1269.59 593.14 1264.4 502.107C1262.9 475.848 1259.35 449.813 1257.14 423.615C1231.65 420.328 1207.61 416.036 1190.92 394.478C1185.95 388.062 1182.84 381.176 1179.49 373.837C1157.13 391.521 1137.3 407.119 1107.13 403.733C1091.75 402.007 1072.93 394.796 1061.14 384.607C1056.05 380.209 1051.22 373.482 1044.67 371.312C1030.9 366.749 1010.81 375.302 996.484 376.458C988.306 377.119 980.197 376.009 972.232 374.225C958.297 371.106 944.576 365.662 933.998 355.75C930.762 352.719 928.355 348.419 923.46 350.048ZM633.035 523.362C610.872 525.858 593.123 531.975 578.781 550.083C567.572 564.236 563.886 581.424 566.092 599.156C567.99 614.411 579.491 629.549 591.303 638.746L592.521 639.625C601.879 645.2 611.822 650.392 622.737 652.049C630.407 653.213 638.808 652.558 646.521 651.968C647.461 648.721 646.964 644.452 646.966 641.062C646.972 633.625 646.979 626.188 646.983 618.752C646.998 587.364 646.991 555.976 646.981 524.589L633.035 523.362ZM1283.8 523.4L1270.25 524.656L1270.08 651.933C1291.84 653.216 1306.59 651.405 1325.11 639.225C1339.6 625.592 1350.47 612.495 1351.06 591.59C1351.56 573.836 1346.41 558.024 1334.07 545.061C1320.56 530.872 1303.08 524.467 1283.8 523.4Z"/>
</svg>
