<svg width="1115" height="712" viewBox="0 0 1115 712" fill="none" xmlns="http://www.w3.org/2000/svg">
<g clip-path="url(#clip0_21_169)">
<g clip-path="url(#clip1_21_169)">
<path d="M0 70.0119V0H1115.47C1116.56 2.23483 1116.12 5.41543 1116.12 7.85818C1116.12 13.0697 1116.13 18.2812 1116.13 23.4928C1116.14 42.2317 1116.12 60.9705 1116.09 79.7092V220.662V232.759V622.069V653.057V695.257C1116.11 699.493 1116.12 703.729 1116.1 707.964C1116.09 709.553 1116.4 711.441 1115.47 712.819H0V639.985V70.0119ZM0 70.0119V639.985L0.203839 640.329C2.95606 645.092 4.62527 650.315 7.49415 655.108C16.7721 670.604 32.8841 682.23 51.0408 687.515C55.8912 688.927 61.392 689.983 66.4676 690.373C74.945 691.024 83.7735 690.598 92.2884 690.598C107.673 690.598 123.058 690.598 138.443 690.595C187.781 690.591 237.119 690.593 286.457 690.559L292.107 690.545L292.052 664.579C290.253 664.356 288.38 664.503 286.566 664.544L280.399 664.576L277.048 669.183C270.28 672.321 263.576 676.273 256.05 677.579C238.676 680.598 220.258 673.24 206.173 664.521L191.848 651.668C187.648 647.893 183.123 644.189 179.325 640.063C166.916 626.584 158.102 611.106 148.513 595.926C142.742 586.792 136.194 578.062 130.757 568.749C126.482 561.426 123.314 553.693 120.08 545.944C116.701 537.844 113.298 529.762 111.3 521.252C110.132 516.278 109.82 510.954 109.161 505.895C108.069 497.509 106.934 489.615 106.798 481.134C111.362 482.459 112.569 485.402 116.307 487.408C116.767 487.655 116.991 487.96 117.262 488.37C117.361 484.742 117.853 481.444 117.568 477.765C117.47 470.055 117.702 462.945 119.136 455.356L120.144 451.361L120.778 443.286L120.167 443.554C117.048 444.973 114.057 449.028 111.052 449.482C110.631 448.507 110.496 447.623 110.362 446.594C112.371 435.085 115.212 424.095 119.678 413.19C126.549 396.414 137.913 377.251 156.405 369.632C167.868 364.908 186.076 364.993 197.686 369.229C209.816 373.652 221.341 382.394 226.591 393.515C232.455 382.257 239.313 371.853 246.549 361.324C257.347 345.614 269.159 329.742 285.101 318.082L286.45 316.725L291.513 313.429L293.906 311.529C298.318 308.747 303.567 306.031 308.566 304.314C320.432 300.232 337.134 299.162 349.508 302.07C354.128 303.157 358.446 305.041 362.765 306.87C371.582 294.321 381.988 284.296 393.114 273.553L393.646 273.039C395.594 271.497 399.014 270.156 401.35 269.129C410.45 265.137 420.037 262.684 430.096 262.198C434.821 261.971 442.272 262.533 446.687 261.061C450.431 259.814 454.541 255.758 457.818 253.555C460.995 251.419 464.562 249.642 468.056 247.99C477.828 243.372 488.43 239.762 499.272 237.999C509.106 236.401 519.314 236.163 529.278 235.739C538.818 235.333 548.838 234.925 558.355 235.693C591.841 238.393 643.856 243.855 666.693 269.168C667.497 271.55 668.292 272.654 667.356 275.052C666.552 277.115 667.839 282.244 668.66 284.305L669.717 284.917L670.531 284.211C670.264 281.747 669.143 279.65 669.999 277.282L671.217 276.929L671.051 276.411L670.143 273.61L673.083 273.326L1048.31 273.489L1053.69 273.45C1057.84 273.429 1080.76 272.613 1082.7 273.874C1084.18 275.65 1083.41 284.541 1083.42 287.184L1113.52 287.633L1114.08 236.706L1114.16 236.016L1114.29 233.94L1116.09 232.759V220.662V79.7092C1116.12 60.9705 1116.14 42.2317 1116.13 23.4928C1116.13 18.2812 1116.12 13.0697 1116.12 7.85818C1116.12 5.41543 1116.56 2.23483 1115.47 0H0V70.0119ZM1116.09 232.759L1114.29 233.94L1114.16 236.016L1114.08 236.706L1113.52 287.633L1083.42 287.184C1083.41 284.541 1084.18 275.65 1082.7 273.874C1080.76 272.613 1057.84 273.429 1053.69 273.45L1048.31 273.489L673.083 273.326L670.143 273.61L671.051 276.411L671.217 276.929C672.283 280.285 673.11 284.903 675.444 287.667C677.807 290.677 680.366 292.146 683.234 294.559C687.78 300.182 692.217 307.809 693.524 314.867C694.865 322.109 694.865 329.199 697.261 336.366C706.234 335.992 714.846 333.897 723.77 333.391C729.954 333.038 736.146 333.443 742.337 333.432C749.509 333.42 756.847 333.132 763.991 333.734C793.44 336.217 819.885 346.836 841.694 365.273C852.484 374.395 857.446 384.475 861.752 397.13C877.513 391.349 893.297 386.407 909.647 382.275C938.616 374.952 968.993 370.769 997.497 382.172C1016.97 389.96 1036.23 405.152 1044.1 423.74C1044.96 425.789 1045.66 428.154 1047.05 429.963C1050.57 434.565 1055.68 438.077 1058.72 443.052C1073.31 467.022 1073.46 500.163 1061.37 525.205C1059.36 529.382 1056.91 533.952 1053.33 537.154L1035.42 538.084C1031.18 553.306 1022.82 566.487 1013.09 579.162C1008.81 584.734 1004.7 590.418 999.957 595.664C992.473 603.946 983.928 611.532 975.445 618.926C961.779 630.838 947.723 641.801 931.516 650.666L901.364 664.125C904.124 664.746 907.878 664.269 910.743 664.246C917.321 664.189 923.897 664.201 930.472 664.205C950.232 664.219 969.995 664.237 989.756 664.239C1000.32 664.242 1011.68 664.98 1022.14 663.708C1031.36 662.589 1039.79 659.561 1047.95 655.537L1048.54 654.638L1052.8 652.8L1054.04 651.53L1059.91 647.246L1061.36 646.341L1066.23 640.661L1067.78 639.293C1070.73 641.095 1074.4 640.558 1077.89 640.606C1084.81 640.7 1091.71 640.483 1098.62 640.48C1102.38 640.48 1106.47 640.256 1110.13 641.15L1114.05 623.572L1114.52 624.28L1116.09 622.069V232.759Z" fill="black"/>
<path d="M286.45 316.725L291.513 313.429C292.612 314.853 293.396 315.295 293.057 317.115C292.73 318.884 292.097 319.813 292.827 321.596L292.624 322.066L286.512 326.613C284.547 323.56 286.823 320.876 285.101 318.082L286.45 316.725Z" fill="black"/>
<path d="M824.752 495.528C826.158 497.408 826.71 501.896 828.494 502.943C830.845 503.062 839.64 502.51 841.18 503.532C837.334 503.725 830.679 502.973 827.131 503.883C824.421 504.577 820.407 508.747 818.165 510.495C816.368 511.898 814.067 512.978 812.023 514.057C814.762 510.229 815.316 506.94 816.076 502.514C818.793 503.081 820.976 497.912 823.78 496.853C824.342 496.642 824.48 496.023 824.752 495.528Z" fill="#060606"/>
<path d="M403.907 273.259C411.36 267.099 423.509 266.723 433.125 267.236C439.807 267.591 452.886 268.588 457.6 273.392C447.214 274.433 435.702 273.425 425.169 273.425C418.5 273.425 410.311 274.499 403.907 273.259Z" fill="black"/>
<path d="M305.243 518.857L306.166 518.76C306.517 519.051 306.831 519.299 307.027 519.709C307.853 521.437 308.066 523.936 308.529 525.806C311.887 539.386 310.86 554.736 306.804 568.135L305.542 569.345L304.698 568.717C304.381 565.403 304.27 561.96 303.716 558.68C303.374 556.666 302.713 554.727 302.58 552.678C302.162 546.219 302.889 539.35 303.283 532.881C303.567 528.229 303.651 523.308 305.243 518.857Z" fill="#FEFEFE"/>
<path d="M893.334 562.978L894.519 563.086C894.747 563.789 894.705 564.099 894.485 564.812C890.904 576.414 881 586.513 871.242 594.081C868.124 596.497 865.051 599.015 861.507 600.886L859.953 600.485L859.975 598.791C863.368 592.451 869.564 586.696 874.526 581.335C880.258 575.144 886.1 567.651 893.334 562.978Z" fill="#FEFEFE"/>
<path d="M729.333 533.7C743.795 533.024 756.394 535.378 770.368 538.222C756.852 542.306 742.78 545.6 728.593 546.863C721.53 547.491 714.247 547.317 707.152 547.401C692.811 547.257 679.972 545.893 665.921 543.214C674.276 539.609 682.68 538.286 691.735 537.06C704.163 535.375 716.808 534.511 729.333 533.7Z" fill="#FEFEFE"/>
<path d="M512.44 432.422C513.556 434.538 514.167 436.662 514.791 438.936L514.709 440.584C517.062 449.848 516.325 458.764 516.021 468.148C515.88 472.562 516.243 477.018 515.887 481.423C515.558 485.48 514.669 489.372 514.674 493.463C512.13 492.877 509.861 490.142 508.092 488.483C503.763 484.424 499.44 480.364 495.055 476.358C492.234 473.782 489.044 470.078 484.827 469.94L485.54 464.497C485.458 461.036 485.943 457.74 486.727 454.361C490.167 454.157 507.814 435.748 512.44 432.422Z" fill="black"/>
<path d="M737.351 650.098C746.51 648.986 755.973 648.933 765.025 647.341C775.823 645.44 786.33 642.101 797.095 640.35C800.953 650.536 804.123 657.561 814.121 664.042C810.949 665.074 805.076 664.207 801.503 664.237L672.984 664.661L672.981 690.554L667.257 690.559L667.158 664.641C657.482 664.604 647.809 664.556 638.132 664.531C633.49 664.519 627.964 665.012 623.425 664.265L623.121 664.21L616.199 664.258C622.336 660.428 626.425 653.744 630.31 648.062L631.023 647.409L671.44 646.268L672.363 646.506C679.628 648.729 687.221 648.933 694.776 649.612C699.923 650.075 705.11 651.154 710.223 651.494C718.914 652.069 728.736 651.4 737.351 650.098Z" fill="#FEFEFE"/>
<path d="M472.045 273.965C465.445 270.188 459.904 268.306 454.418 262.744C454.47 262.443 454.497 262.111 454.628 261.825C457.016 256.617 471.416 251.719 477.029 249.881C512.083 238.396 548.439 239.269 584.763 244.155C605.266 246.915 625.165 250.766 643.975 259.125C652.048 262.709 655.804 265.49 658.838 273.482C610.698 274.222 562.394 273.452 514.236 273.461C508.757 273.461 474.837 272.512 472.045 273.965Z" fill="black"/>
<path d="M294.822 628.019C295.514 626.449 295.643 625.495 297.274 624.562C306.636 624.959 314.191 624.138 323.394 623.004C330.544 631.287 338.574 634.711 349.748 635.883C358.889 636.841 367.167 636.942 376.13 634.613C378.288 634.051 391.328 627.799 391.439 627.81C391.926 627.863 393.847 629.238 394.362 629.545C396.866 631.046 399.343 632.532 401.637 634.306C404.632 636.618 408.074 640.792 411.986 641.393L412.709 641.507C417.804 642.289 423.036 641.798 428.129 642.825C429.775 643.158 431.653 642.541 433.247 642.147C439 640.723 443.529 638.846 448.436 635.736L457.264 629.068C460.674 633.144 464.052 637.531 467.959 641.2C477.331 650.004 488.598 657.201 499.383 664.4C494.57 664.975 488.383 664.221 483.392 664.217C469.085 664.201 454.779 664.214 440.473 664.214C391.771 664.219 343.066 664.114 294.364 664.331L292.052 664.579C290.253 664.356 288.38 664.503 286.566 664.544L280.399 664.576C281.956 661.966 284.049 659.617 285.48 656.933C286.997 654.086 287.858 650.542 288.875 647.489L293.089 638.569C294.072 635.452 294.955 631.267 294.822 628.019Z" fill="#FEFEFE"/>
<path d="M403.907 273.259C410.311 274.499 418.5 273.425 425.169 273.425C435.702 273.425 447.214 274.433 457.6 273.392C459.446 273.704 461.038 274.433 462.461 275.561C464.242 276.973 465.495 279.18 466.705 281.018C470.682 287.067 474.745 294.768 475.285 301.937C476.012 311.591 474.985 321.025 471.241 330.102C466.155 342.442 455.205 354.817 445.887 364.718C438.874 372.169 426.81 383.439 415.671 384.2C414.357 383.476 414.078 383.306 413.362 382C411.665 378.901 410.719 375.057 409.356 371.773C405.478 362.435 401.573 353.201 396.458 344.372C389.432 332.249 381.478 322.604 371.228 312.721C378.543 297.621 386.658 280.738 403.907 273.259Z" fill="#FEFEFE"/>
<path d="M499.383 664.4C523.984 677.604 560.09 682.289 587.498 675.509C597.745 672.974 606.689 668.406 616.199 664.258L623.121 664.21L623.425 664.265C627.964 665.012 633.49 664.519 638.133 664.531C647.809 664.556 657.482 664.604 667.158 664.641L667.257 690.559L292.107 690.545L292.052 664.579L294.364 664.331C343.066 664.114 391.771 664.219 440.473 664.214C454.779 664.214 469.085 664.201 483.392 664.217C488.383 664.221 494.57 664.975 499.383 664.4Z" fill="black"/>
<path d="M483.644 476.729C482.704 481.74 482.184 486.865 481.078 491.838C480.598 494.006 479.682 496.005 479.123 498.144C476.985 506.294 475.032 514.282 472.594 522.391C465.217 546.943 454.73 574.285 432.192 590.475C422.373 597.528 410.752 602.745 398.074 601.193C390.456 600.262 386.158 597.184 381.592 591.676C386.821 583.897 393.916 577.67 398.969 569.574C421.729 533.118 424.476 491.309 423.865 450.22C423.803 445.982 423.66 441.51 423.172 437.297C422.425 430.845 421.165 426.85 423.674 420.361C427.926 418.024 431.381 415.046 435.422 412.484C446.33 405.566 460.11 398.784 473.755 399.461C476.544 399.598 479.251 401.888 481.058 403.701C483.085 405.734 484.824 408.115 485.641 410.811C487.297 416.263 486.933 422.566 486.985 428.196C487.062 436.917 487.146 445.645 486.728 454.361C485.943 457.74 485.458 461.036 485.54 464.497L484.827 469.94C484.503 472.15 484.344 474.6 483.644 476.729Z" fill="#FEFEFE"/>
<path d="M658.838 273.482C661.424 277.896 663.305 282.361 664.973 287.131C665.471 288.873 666.141 290.69 666.384 292.478L666.837 295.763L665.822 344.097C658.366 348.199 649.687 350.498 641.793 353.863C630.174 358.814 619.622 364.186 609.022 370.792C604.538 373.588 600.029 375.974 596.424 379.813C589.418 387.278 585.924 397.719 582.494 406.9C580.162 413.144 577.713 419.296 575.951 425.706C573.812 433.476 571.617 441.372 570.368 449.319C567.786 465.723 567.596 482.342 568.207 498.872C568.63 510.287 569.019 521.657 571.137 532.934C573.951 547.924 580.697 564.594 589.015 577.661C591.529 581.61 607.256 600.68 606.917 602.742C606.503 605.273 604.697 608.101 603.353 610.345C599.324 617.074 594.145 624.631 588.188 630.013C584.496 633.348 579.831 636.27 575.404 638.7C560.407 646.937 542.668 647.031 526.11 643.059C512.304 639.747 500.385 635.044 488.22 628.216C481.729 624.572 475.856 621.03 470.528 615.954C475.995 609.025 481.689 602.263 486.025 594.647C494.55 579.675 499.361 562.827 503.82 546.521C507.646 532.531 511.096 519.127 513.105 504.777L513.491 504.337C513.046 500.963 513.605 497.383 514.677 494.144L514.674 493.463C514.669 489.372 515.558 485.48 515.887 481.423C516.243 477.018 515.88 472.562 516.021 468.148C516.325 458.764 517.062 449.848 514.709 440.584L514.791 438.936C514.167 436.662 513.556 434.538 512.44 432.422L512.222 430.994C509.327 428.086 506.038 426.403 502.358 424.535C501.472 424.086 498.168 422.805 497.685 422.211C497.205 421.62 496.874 418.963 496.723 418.196C495.842 413.68 495.485 406.974 492.739 403.164L492.489 402.823C488.811 397.728 483.746 396.029 477.94 393.552C479.618 389.772 482.696 386.618 485.235 383.306C494.483 371.239 501.823 360.368 503.437 345.323C504.867 332.009 502.343 316.485 493.221 305.747C490.618 302.68 486.292 299.877 484.305 296.53C482.788 293.975 481.974 290.933 480.803 288.222C478.603 283.113 475.817 278.229 472.045 273.965C474.837 272.512 508.757 273.461 514.236 273.461C562.394 273.452 610.698 274.222 658.838 273.482Z" fill="#FEFEFE"/>
<path d="M843.647 445.542C851.791 436.447 858.911 427.458 860.876 415.514C861.371 412.511 861.418 407.214 862.895 404.693C863.541 403.588 869.579 401.317 870.958 400.749C886.719 394.244 902.208 389.978 918.734 385.596C928.366 383.04 937.76 380.251 947.812 379.401C971.176 377.425 995.188 386.382 1012.97 400.194C1027.75 411.675 1039.07 430.132 1040.47 448.12C1041.94 467.004 1035.86 485.925 1026.38 502.427C1015.57 502.877 1004.64 503.335 993.904 504.577C979.206 506.278 964.704 508.641 949.94 510C936.453 511.24 923.189 511.815 910.132 508.148L909.61 507.997C909.962 509.31 910.271 510.449 911.001 511.628L909.62 513.413L910.018 514.942C915.059 515.829 920.011 516.819 925.179 516.615C928.579 516.482 931.843 515.772 935.305 515.774C938.007 515.774 940.259 516.594 943.048 516.358C947.651 515.971 952.277 514.756 956.889 514.273C964.373 513.489 971.832 513.216 979.295 512.118C987.38 510.928 995.171 509.102 1003.38 508.522C1001.95 514.559 999.506 521.286 996.66 526.879C994.545 531.034 991.696 534.855 989.033 538.717C985.839 543.347 982.861 548.073 979.241 552.439C973.616 559.221 967.036 565.371 960.718 571.591C935.896 596.036 907.942 620.001 873.262 631.67C854.536 637.971 831.182 643.29 812.193 634.897C802.277 630.512 794.393 621.484 790.775 611.97C790.552 611.383 788.822 606.614 788.889 606.49C789.179 605.951 801.201 601.094 802.691 600.315C812.399 595.234 825.052 586.35 829.437 576.544C831.115 572.795 831.075 563.111 829.209 559.391C822.832 546.689 807.922 541.227 794.757 536.679C803.965 531.192 813.111 526.404 820.6 518.804C823.592 515.769 825.04 511.815 828.457 509.115C836.304 506.633 849.94 510.763 857.565 513.069C872.366 517.546 888.988 526.012 896.041 539.521C896.786 540.949 898.87 545.364 898.803 546.84C898.764 547.734 892.446 551.605 891.461 552.286C878.827 561.041 869.396 571.323 859.418 582.46C853.118 589.492 845.473 597.682 842.32 606.469C841.437 608.935 841.123 610.861 842.437 613.286C843.941 614.503 845.651 614.743 847.587 614.741C858.696 614.725 867.468 609.066 875.808 602.919C887.118 594.583 898.026 584.521 903.735 571.999C905.609 567.892 907.306 563.579 908.447 559.249C908.848 557.727 908.89 552.717 909.551 551.772C909.694 551.571 911.221 551.034 911.545 550.894C914.084 549.801 916.383 549.061 919.155 548.637C921.979 548.204 926.233 548.49 928.324 546.613C928.505 544.759 928.673 544.534 927.577 543.012C923.491 541.626 915.406 542.852 911.1 543.668L910.484 543.787C907.195 538.428 905.732 532.987 901.179 528.119C887.016 512.987 862.284 504.818 841.18 503.532C839.64 502.51 830.845 503.062 828.494 502.943C826.71 501.896 826.158 497.408 824.753 495.528L824.428 494.302C821.879 491.591 819.34 488.675 816.381 486.344C808.674 480.284 798.82 476.188 789.683 472.349C805.997 465.505 822.961 462.487 836.681 450.866L837.232 450.394L837.705 450.41C838.925 448.902 841.128 447.391 842.595 445.991L843.647 445.542Z" fill="#FEFEFE"/>
<path d="M884.148 484.272C884.467 484.795 884.744 485.579 885.343 485.794C888.471 486.92 888.612 489.714 892.186 489.532C891.666 491.187 891.612 491.969 892.045 493.626C892.839 496.686 891.654 497.527 893.98 500.392C896.714 500.037 897.172 499.755 899.105 497.93C901.602 500.683 904.643 502.125 906.69 505.357L906.517 506.459C907.524 507.062 908.452 507.667 909.61 507.997C909.961 509.31 910.271 510.449 911.001 511.628L909.62 513.413L910.018 514.942C907.125 514.619 904.371 513.865 901.575 513.138L898.298 512.379C893.366 510.961 886.382 507.399 883.957 502.996L883.779 502.666C882.245 499.89 881.542 496.78 880.713 493.775L880.532 492.386C881.191 489.441 882.344 486.766 884.148 484.272Z" fill="black"/>
<path d="M884.148 484.272C884.467 484.795 884.744 485.579 885.343 485.794C888.471 486.92 888.612 489.714 892.186 489.532C891.666 491.187 891.612 491.969 892.045 493.626C892.839 496.686 891.654 497.527 893.98 500.392L893.292 500.578C889.407 498.568 885.638 493.599 881.614 492.915L880.713 493.775L880.532 492.386C881.191 489.441 882.344 486.766 884.148 484.272Z" fill="black"/>
<path d="M899.105 497.93C901.602 500.683 904.643 502.125 906.69 505.357L906.517 506.459C907.524 507.062 908.452 507.667 909.61 507.997C909.961 509.31 910.271 510.449 911.001 511.628L909.62 513.413L910.018 514.942C907.125 514.619 904.371 513.865 901.575 513.138L902.51 512.242L902.466 511.135C899.192 507.979 895.428 504.504 893.292 500.578L893.98 500.392C896.714 500.037 897.172 499.755 899.105 497.93Z" fill="black"/>
<path d="M884.173 483.791L884.475 483.449C886.845 480.688 888.13 477.403 890.575 474.607C904.057 459.191 918.522 446.348 936.057 434.989C940.804 431.913 946.585 427.733 952.46 427.079C955.08 426.788 958.429 426.697 960.626 428.063C960.73 429.585 960.225 430.602 959.409 431.877C957.221 435.299 954.296 438.496 951.801 441.751C947.886 446.857 944.172 452.129 940.418 457.336C936.216 463.163 932.608 469.315 928.517 475.2C921.461 485.35 913.924 495.301 906.69 505.357C904.643 502.125 901.602 500.683 899.105 497.93C897.172 499.755 896.714 500.037 893.98 500.392C891.654 497.527 892.839 496.686 892.045 493.626C891.612 491.969 891.666 491.187 892.186 489.532C888.612 489.714 888.471 486.92 885.343 485.794C884.744 485.579 884.467 484.795 884.148 484.272L884.173 483.791Z" fill="black"/>
<path d="M892.186 489.532C894.289 486.679 895.95 483.42 898.078 480.669C901.154 476.699 905.005 472.993 908.469 469.294C916.735 460.47 925.24 451.971 935.832 445.448C935.711 446.775 934.681 448.2 934.006 449.397C931.353 454.084 927.735 458.37 924.629 462.812C916.435 474.529 908.774 487.19 899.105 497.93C897.172 499.755 896.714 500.037 893.98 500.392C891.654 497.527 892.839 496.686 892.045 493.626C891.612 491.969 891.666 491.187 892.186 489.532Z" fill="#FEFEFE"/>
<path d="M1114.93 658.638C1115.55 656.866 1115.76 654.895 1116.09 653.057V695.258L1115.34 695.248C1115.14 693.956 1114.72 692.305 1115.1 691.029C1116.5 686.406 1115.53 680.653 1115.14 675.86C1114.66 670.086 1114.48 664.416 1114.93 658.638Z" fill="#AF4C57"/>
<path d="M1116.09 622.069V653.057C1115.76 654.895 1115.55 656.866 1114.93 658.638C1114.9 655.874 1115.2 649.548 1113.56 647.21L1108.48 646.488L1110.13 641.15L1114.05 623.572L1114.52 624.28L1116.09 622.069Z" fill="#C2C1C2"/>
<path d="M1066.23 640.662L1067.78 639.293C1070.73 641.095 1074.4 640.558 1077.9 640.606C1084.81 640.7 1091.71 640.483 1098.62 640.48C1102.38 640.48 1106.47 640.256 1110.13 641.15L1108.48 646.488L1107.3 648.505C1098.28 666.149 1083.71 679.784 1063.65 686.406L1053.84 689.092C1052.06 689.47 1050.28 689.942 1048.46 690.009L1047.95 655.537L1048.54 654.638L1052.8 652.8L1054.04 651.53L1059.91 647.246L1061.36 646.341L1066.23 640.662Z" fill="black"/>
<path d="M901.364 664.125C904.124 664.746 907.878 664.269 910.744 664.246C917.321 664.189 923.897 664.201 930.472 664.205C950.232 664.219 969.995 664.237 989.756 664.24C1000.32 664.242 1011.68 664.98 1022.14 663.708C1031.36 662.589 1039.79 659.562 1047.95 655.537L1048.46 690.009C1034.47 691.51 1019.52 690.579 1005.41 690.579C979.384 690.579 953.36 690.582 927.334 690.582C842.551 690.582 757.765 690.742 672.981 690.554L672.984 664.661L801.503 664.237C805.076 664.207 810.949 665.074 814.121 664.042C835.225 675.241 856.466 676.759 879.783 670.845L901.364 664.125Z" fill="black"/>
<path d="M674.229 348.188C686.05 343.59 698.075 341.003 710.57 338.516C715.309 337.574 720.117 336.224 724.955 335.864C729.944 335.495 735.181 335.813 740.184 335.969C758.975 336.556 777.493 339.581 794.917 346.26C815.789 354.262 840.155 369.524 849.113 389.55L852.427 399.543C850.997 401.019 848.752 402.651 848.604 404.62C849.255 405.475 851.43 407.036 851.702 407.693C852.123 408.713 851.62 411.682 851.417 412.791C850.14 419.759 847.54 425.75 843.325 431.659C841.373 434.396 838.819 436.738 836.824 439.463C838.331 441.962 841.009 443.449 842.595 445.991C841.128 447.391 838.925 448.902 837.705 450.41L837.232 450.394L836.681 450.866C822.961 462.487 805.997 465.505 789.683 472.349C798.82 476.188 808.674 480.284 816.381 486.344C819.34 488.675 821.879 491.591 824.428 494.302L824.752 495.528C824.48 496.023 824.342 496.642 823.78 496.853C820.976 497.912 818.793 503.081 816.076 502.514C815.316 506.94 814.762 510.229 812.023 514.057C809.006 516.523 806.395 519.439 803.292 521.79C796.872 526.652 788.948 530.564 781.529 533.975C770.705 530.108 758.015 529.198 746.433 528.912C733.864 528.602 720.901 529.961 708.384 530.963C695.212 532.02 682.573 532.973 669.559 535.316C665.716 536.008 661.066 536.544 657.47 537.942C656.084 538.481 654.787 539.356 653.295 539.613C649.692 540.23 648.643 538.777 645.94 542.063C646.032 542.998 645.836 543.842 646.643 544.458C650.875 547.697 656.643 548.112 661.887 549.008C687.867 553.448 715.487 552.934 741.753 550.574C749.165 549.907 757.619 548.442 764.771 546.645C769.651 545.419 774.405 543.803 779.295 542.581C780.908 542.178 782.836 541.438 784.491 541.412C788.835 541.341 804.789 548.928 808.57 551.752C813.54 555.465 818.633 559.904 819.204 566.13C819.788 572.499 816.376 577.466 811.99 582.148C804.816 589.811 795.858 594.493 786.164 598.862C768.73 606.721 750.269 611.773 730.988 614.003C720.377 615.229 708.966 614.718 698.523 616.87C695.011 617.595 691.643 615.672 688.139 615.277C683.58 614.766 678.943 614.665 674.367 614.257L673.788 613.684C671.259 613.746 668.675 613.29 666.171 612.967L665.899 612.781L633.599 605.697C629.498 604.411 625.737 602.96 622.25 600.531C618.451 597.881 615.172 593.861 612.198 590.439C605.207 582.389 598.72 574.12 593.806 564.812C581.563 541.619 578.029 514.385 578.049 488.852C578.069 463.571 580.846 439.578 589.764 415.535C593.702 404.925 598.537 392.601 605.976 383.627C609.577 379.284 614.44 376.057 619.243 372.944C630.879 365.399 643.696 359.756 656.589 354.296C659.91 352.889 663.404 351.851 666.671 350.349L667.052 350.173C668.507 349.873 668.596 349.719 669.975 350.393L669.356 352.685L670.336 353.444L671.553 352.685L671.974 349.664L674.229 348.188Z" fill="#FEFEFE"/>
<path d="M836.483 439.541L836.824 439.463C838.331 441.962 841.009 443.449 842.595 445.991C841.128 447.391 838.925 448.902 837.705 450.41L837.232 450.394L836.681 450.866C822.961 462.487 805.997 465.505 789.683 472.349C798.82 476.188 808.674 480.284 816.381 486.344C819.34 488.675 821.879 491.591 824.428 494.302L824.753 495.528C824.48 496.023 824.342 496.642 823.78 496.853C820.976 497.912 818.793 503.081 816.076 502.514C814.572 498.71 811.644 494.426 808.429 491.657C802.681 486.699 795.796 483.555 788.835 480.351C783.655 477.965 778.201 475.423 772.435 474.575C767.696 473.88 761.452 475.668 756.53 475.899C751.474 476.136 746.364 475.783 741.296 475.854C733.092 475.971 724.93 476.429 716.737 476.681C708.83 476.924 672.712 476.262 668.48 471.671C667.339 470.431 667.45 469.745 667.723 468.292C670.348 466.268 673.12 464.939 676.342 463.887C683.848 461.439 692.012 460.476 699.918 459.931C720.144 458.533 740.162 460.575 759.962 464.357C765.107 465.338 770.47 465.769 775.251 467.905L775.776 468.143C796.744 464.772 814.111 457.371 830.575 444.987L830.957 444.414C833.043 443.344 834.847 441.155 836.483 439.541Z" fill="black"/>
<path d="M836.483 439.541L836.824 439.463C838.331 441.962 841.009 443.449 842.595 445.991C841.128 447.391 838.925 448.902 837.705 450.41L837.232 450.394C837 450.002 836.787 449.764 836.431 449.459C834.339 447.678 833.362 445.727 830.575 444.987L830.957 444.414C833.043 443.344 834.847 441.155 836.483 439.541Z" fill="#020103"/>
<path d="M704.559 463.186C708.865 462.775 713.47 463.855 717.791 464.258C728.39 465.246 739.449 465.769 749.836 468.201C752.503 468.824 755.137 470.24 757.594 471.357C750.269 473.103 742.81 472.833 735.304 472.876L720.488 473.11C717.155 473.362 713.787 472.583 710.466 472.335C703.853 471.843 689.824 472.583 684.867 468.719L684.976 467.859C691.247 465.569 697.926 464.219 704.559 463.186Z" fill="#FEFEFE"/>
<path d="M1116.09 232.759V622.069L1114.52 624.28L1114.05 623.572L1110.13 641.15C1106.47 640.256 1102.38 640.48 1098.62 640.48C1091.71 640.483 1084.81 640.7 1077.9 640.607C1074.4 640.558 1070.73 641.095 1067.78 639.293L1066.23 640.662L1061.36 646.341L1059.91 647.247L1054.04 651.53L1052.8 652.8L1048.54 654.638L1047.95 655.537C1039.79 659.562 1031.36 662.589 1022.14 663.708C1011.68 664.98 1000.32 664.242 989.756 664.24C969.995 664.237 950.232 664.219 930.472 664.205C923.897 664.201 917.321 664.189 910.744 664.246C907.878 664.269 904.124 664.746 901.364 664.125L931.516 650.666C947.723 641.801 961.779 630.838 975.445 618.926C983.928 611.532 992.473 603.946 999.957 595.665C1004.7 590.418 1008.81 584.734 1013.09 579.162C1022.82 566.487 1031.18 553.306 1035.42 538.084L1053.33 537.154C1056.91 533.952 1059.36 529.382 1061.37 525.206C1073.46 500.163 1073.31 467.023 1058.72 443.053C1055.68 438.077 1050.57 434.565 1047.05 429.963C1045.66 428.154 1044.96 425.789 1044.1 423.74C1036.23 405.152 1016.97 389.96 997.497 382.172C968.993 370.769 938.616 374.952 909.647 382.275C893.297 386.408 877.513 391.349 861.752 397.13C857.446 384.475 852.484 374.395 841.694 365.273C819.885 346.836 793.44 336.217 763.991 333.735C756.847 333.132 749.509 333.421 742.337 333.432C736.146 333.443 729.954 333.038 723.77 333.391C714.846 333.897 706.234 335.992 697.261 336.366C694.865 329.199 694.865 322.109 693.524 314.867C692.217 307.809 687.78 300.182 683.234 294.559C680.366 292.146 677.807 290.677 675.444 287.667C673.11 284.903 672.283 280.285 671.217 276.929L671.051 276.411L670.143 273.61L673.083 273.326L1048.31 273.489L1053.69 273.45C1057.84 273.429 1080.76 272.613 1082.7 273.874C1084.18 275.65 1083.41 284.541 1083.42 287.184L1113.52 287.633L1114.08 236.706L1114.16 236.016L1114.29 233.94L1116.09 232.759ZM1116.09 232.759L1114.29 233.94L1114.16 236.016L1114.08 236.706L1113.52 287.633L1083.42 287.184C1083.41 284.541 1084.18 275.65 1082.7 273.874L1082.91 286.975L1082.87 293.814L1082.82 599.673C1081.96 614.257 1077.71 627.657 1067.78 639.293C1070.73 641.095 1074.4 640.558 1077.9 640.607C1084.81 640.7 1091.71 640.483 1098.62 640.48C1102.38 640.48 1106.47 640.256 1110.13 641.15L1114.05 623.572L1114.52 624.28L1116.09 622.069V232.759Z" fill="#FEFEFE"/>
<path d="M1116.09 232.759V622.069L1114.52 624.28L1114.05 623.572L1110.13 641.15C1106.47 640.256 1102.38 640.48 1098.62 640.48C1091.71 640.483 1084.81 640.7 1077.9 640.607C1074.4 640.558 1070.73 641.095 1067.78 639.293C1077.71 627.657 1081.96 614.257 1082.82 599.673L1082.87 293.814L1082.91 286.975L1082.7 273.874C1084.18 275.65 1083.41 284.541 1083.42 287.184L1113.52 287.633L1114.08 236.706L1114.16 236.016L1114.29 233.94L1116.09 232.759ZM1116.09 232.759L1114.29 233.94L1114.16 236.016L1114.1 316.609L1114.05 623.572L1114.52 624.28L1116.09 622.069V232.759Z" fill="black"/>
<path d="M1114.16 236.016L1114.1 316.608L1114.01 316.095C1112.74 308.866 1113.5 300.406 1113.45 293.028L1083.36 293.78C1083.28 367.544 1083.3 441.311 1083.32 515.075C1083.32 534.502 1083.34 553.929 1083.33 573.356C1083.33 581.523 1084.55 591.722 1082.82 599.673L1082.87 293.814L1082.91 286.975L1082.7 273.874C1084.18 275.65 1083.41 284.541 1083.42 287.184L1113.52 287.633L1114.08 236.706L1114.16 236.016Z" fill="black"/>
<path d="M292.827 321.596C304.084 312.258 319.207 304.007 334.825 304.635C342.977 304.963 352.443 309.068 358.275 314.177C355.603 322.655 352.886 330.631 350.906 339.325C349.96 343.471 348.29 348.623 350.178 352.685C351.554 353.849 352.066 354.583 354.061 354.404C355.665 354.26 356.996 353.059 358.127 352.112C359.802 348.956 359.733 344.977 360.29 341.523C361.399 334.633 363.205 327.418 366.91 321.303C379.001 331.14 387.195 345.644 393.582 359.158C396.564 365.468 399.44 371.844 401.506 378.47C402.459 381.525 403.926 385.09 404.129 388.262C404.211 389.552 404.008 390.547 403.278 391.649C399.351 393.552 396.482 393.077 392.337 391.844C385.106 389.694 378.754 385.798 375.197 379.376C373.638 376.556 373.161 373.808 370.278 371.981C367.927 371.963 365.816 371.851 363.616 372.74C362.693 374.276 362.579 375.021 363.136 376.751C365.531 384.196 371.231 390.389 378.635 393.799C382.082 395.388 385.373 396.52 389.286 396.552C395.549 396.605 404.51 392.055 407.294 399.937C409.207 405.353 410.539 411.507 411.251 417.16C407.233 419.422 404.367 422.463 400.657 425.028C386.24 434.998 371.406 444.51 357.625 455.253C354.865 457.405 348.533 461.7 347.597 464.875C347.313 465.842 347.597 466.546 347.817 467.495C349.869 468.54 351.673 468.113 353.9 467.531C358.127 466.424 361.052 463.639 364.309 461.068C368.677 457.616 373 454.118 377.511 450.827C388.566 442.764 399.949 434.104 411.917 427.247C413.622 437.581 413.783 448.187 413.899 458.624C414.149 481.107 412.068 503.491 406.151 525.304C404.83 530.179 403.723 535.178 401.917 539.92C399.474 546.331 396.168 552.439 392.867 558.499C389.744 564.236 386.586 570.138 382.429 575.307C380.389 577.842 377.751 580.088 375.19 582.174C374.005 580.934 372.431 579.497 371.696 577.986C370.77 576.091 370.491 573.728 370.003 571.688C369.181 568.256 368.197 564.896 367.551 561.426C366.694 556.81 366.281 552.274 364.091 547.965C363.217 546.251 362.76 545.884 360.998 545.05C359.062 545.247 357.56 545.32 355.895 546.361C354.826 547.924 355.041 549.774 355.056 551.555C355.1 557.227 356.293 562.572 357.627 568.082C359.676 576.558 363.091 584.243 366.251 592.371C357.513 597.872 347.159 603.897 336.149 602.027C328.735 600.769 319.42 596.428 315.102 590.551L311.786 585.651C313.936 580.957 316.099 576.418 317.411 571.447C320.415 560.042 320.747 549.221 320.455 537.564C320.281 530.523 319.873 522.081 317.057 515.485C315.74 512.402 313.713 508.898 310.199 507.577C307.452 506.546 302.369 507.19 299.749 508.35C297.413 509.384 296.205 511.336 295.445 513.528C293.874 518.05 293.515 523.003 293.005 527.713C291.154 544.761 291.795 563.299 296.871 579.824C297.719 582.584 299.266 585.305 295.841 586.973C295.133 587.317 294.497 587.468 293.728 587.633L293.361 588.023C292.389 591.174 292.99 595.305 292.963 598.591C292.884 608.009 292.325 617.787 293.572 627.136L294.822 628.019C294.955 631.267 294.072 635.452 293.089 638.569L288.875 647.489C287.858 650.542 286.997 654.086 285.48 656.933C284.049 659.617 281.956 661.966 280.399 664.576L277.048 669.183C270.28 672.321 263.576 676.273 256.05 677.579C238.676 680.598 220.258 673.24 206.173 664.521L191.848 651.668C187.648 647.893 183.123 644.189 179.325 640.063C166.916 626.584 158.102 611.106 148.513 595.926C142.742 586.792 136.194 578.062 130.757 568.749C126.482 561.426 123.314 553.693 120.08 545.944C116.701 537.844 113.298 529.762 111.3 521.252C110.132 516.278 109.82 510.954 109.161 505.895C108.069 497.509 106.934 489.615 106.798 481.134C111.362 482.459 112.569 485.402 116.307 487.408C116.767 487.655 116.991 487.96 117.262 488.37C117.361 484.742 117.853 481.444 117.568 477.765C117.47 470.055 117.702 462.945 119.136 455.356L120.144 451.361L120.778 443.286L120.167 443.554C117.048 444.973 114.057 449.028 111.052 449.482C110.631 448.507 110.496 447.623 110.362 446.594C112.371 435.085 115.212 424.095 119.678 413.19C126.549 396.414 137.913 377.251 156.405 369.632C167.868 364.908 186.076 364.993 197.686 369.229C209.816 373.652 221.341 382.394 226.591 393.515C232.455 382.257 239.313 371.853 246.549 361.324C257.347 345.614 269.159 329.742 285.101 318.082C286.823 320.876 284.547 323.56 286.511 326.613L292.624 322.066L292.827 321.596Z" fill="#FEFEFE"/>
<path d="M285.101 318.082C286.823 320.876 284.547 323.56 286.512 326.613L284.839 328.864C270.208 343.171 257.32 359.996 246.77 377.141C242.919 383.398 239.669 389.978 236.103 396.378C229.959 407.4 223.647 418.828 219.537 430.662C215.991 440.87 212.679 451.822 210.977 462.415C210.54 465.138 210.457 473.087 208.65 475.166C207.975 475.945 205.469 476.11 204.417 476.138C203.086 476.175 201.83 475.817 200.574 475.453C198.992 473.782 199.213 471.719 199.357 469.642C199.984 460.584 202.378 451.691 205.053 442.984C210.215 426.181 216.949 411.264 225.088 395.518C222.291 395.337 218.732 395.486 216.157 394.466C214.371 392.105 213.084 389.185 211.091 387.04C204.136 379.561 189.912 371.988 179.43 370.405C171.423 369.197 163.514 372.985 157.22 377.29C136.956 391.152 128.75 415.736 122.756 437.258L120.778 443.286L120.167 443.554C117.048 444.973 114.057 449.028 111.052 449.482C110.631 448.507 110.496 447.623 110.362 446.594C112.371 435.085 115.212 424.095 119.678 413.19C126.549 396.414 137.913 377.251 156.405 369.632C167.868 364.908 186.076 364.993 197.686 369.229C209.816 373.652 221.341 382.394 226.591 393.515C232.455 382.257 239.313 371.853 246.549 361.324C257.347 345.614 269.159 329.742 285.101 318.082Z" fill="black"/>
<path d="M106.798 481.134C111.362 482.459 112.569 485.402 116.307 487.408C116.767 487.655 116.991 487.96 117.262 488.37L117.884 492.684L117.922 492.677C118.295 501.458 120.209 509.475 122.332 517.997C131.594 555.162 151.683 586.788 179.806 614.372C183.434 617.932 186.905 621.732 190.772 625.064C198.702 631.895 208.868 637.984 218.69 642.142C221.672 642.408 224.403 642.791 227.281 643.575C233.597 643.554 237.778 642.245 243.226 639.211C245.429 637.446 247.495 635.759 249.299 633.616C255.016 626.827 259.102 618.124 261.42 609.85C262.245 606.905 263.296 604.001 264.252 601.09C264.519 600.276 265.244 598.832 265.241 598.073C265.224 588.743 254.741 582.561 250.049 575.142C245.582 568.075 242.979 559.29 241.984 551.17C241.031 543.386 240.784 534.319 242.824 526.677C243.32 524.816 244.054 522.359 245.455 520.917C247.961 518.341 251.598 517.559 255.204 517.527C259.235 517.491 262.418 518.68 265.209 521.362C273.21 529.052 275.618 541.907 277.615 552.027C278.216 555.08 279.278 558.444 279.387 561.513C279.464 563.686 278.79 565.939 278.689 568.135C278.407 574.133 278.488 580.18 278.444 586.185C279.634 588.241 281.213 588.374 283.495 589.263L286.618 589.203C288.756 588.495 291.122 588.325 293.361 588.023C292.389 591.174 292.99 595.305 292.963 598.591C292.884 608.009 292.325 617.787 293.572 627.136L294.822 628.019C294.955 631.267 294.072 635.452 293.089 638.569L288.875 647.489C287.858 650.542 286.997 654.086 285.48 656.933C284.049 659.617 281.956 661.966 280.399 664.576L277.048 669.183C270.28 672.321 263.576 676.273 256.05 677.579C238.676 680.598 220.258 673.24 206.173 664.522L191.848 651.668C187.648 647.893 183.123 644.189 179.325 640.063C166.916 626.584 158.102 611.106 148.513 595.926C142.742 586.792 136.194 578.062 130.757 568.749C126.482 561.426 123.314 553.693 120.08 545.944C116.701 537.844 113.298 529.762 111.3 521.252C110.132 516.278 109.82 510.954 109.161 505.895C108.069 497.509 106.934 489.615 106.798 481.134Z" fill="black"/>
<path d="M254.387 526.879C255.471 526.613 255.739 526.782 256.778 527.094C266.219 536.931 267.028 551.66 267.357 564.124C267.479 568.802 267.877 573.439 267.669 578.124L266.34 578.814C262.329 575.417 259.055 569.542 256.919 564.961C252.192 554.818 249.928 537.19 254.387 526.879Z" fill="#FEFEFE"/>
<path d="M0 70.0119V3.99999C0 1.79086 1.79086 0 4 0H1112.98C1114.5 0 1115.94 0.882881 1116.12 2.4016C1116.32 4.21014 1116.12 6.20345 1116.12 7.85818C1116.12 13.0697 1116.13 18.2812 1116.13 23.4928C1116.14 42.2317 1116.12 60.9705 1116.09 79.7092V220.662V231.643C1116.09 232.34 1115.74 232.99 1115.16 233.372V233.372C1114.61 233.729 1114.27 234.323 1114.23 234.973L1114.16 236.016L1114.08 236.706L1113.56 283.617C1113.54 285.832 1111.72 287.606 1109.5 287.573L1087.34 287.242C1085.16 287.21 1083.47 285.439 1083.55 283.26C1083.66 280.054 1083.7 276.083 1083 274.39C1082.84 274.023 1082.53 273.763 1082.14 273.67C1078.1 272.707 1057.59 273.43 1053.69 273.45L1048.31 273.489L673.083 273.326V273.326C671.578 273.471 670.585 274.973 671.051 276.411V276.411V276.411C671.142 276.695 670.981 276.998 670.694 277.08L670.402 277.165C670.149 277.239 669.942 277.428 669.872 277.682C669.307 279.744 670.154 281.624 670.473 283.758C670.515 284.041 670.403 284.322 670.187 284.51V284.51C669.906 284.753 669.501 284.792 669.179 284.605L669.006 284.505C668.782 284.375 668.608 284.176 668.519 283.933C667.702 281.682 666.597 277 667.356 275.052C668.183 272.932 667.658 271.823 666.97 269.949C666.781 269.437 666.508 268.96 666.135 268.56C643.019 243.767 591.571 238.371 558.355 235.693C548.838 234.925 538.818 235.333 529.278 235.739C519.314 236.163 509.106 236.401 499.272 237.999C488.43 239.762 477.828 243.372 468.056 247.99C464.562 249.642 460.996 251.419 457.818 253.555C454.541 255.758 450.431 259.814 446.687 261.061C442.272 262.533 434.821 261.971 430.096 262.198C420.037 262.684 410.45 265.137 401.35 269.129C399.014 270.156 395.594 271.497 393.646 273.039L393.114 273.553C382.773 283.537 373.055 292.902 364.655 304.249C363.534 305.764 361.528 306.338 359.788 305.612C356.449 304.218 353.068 302.907 349.508 302.07C337.134 299.162 320.432 300.232 308.566 304.314C303.567 306.031 298.318 308.747 293.906 311.529L291.513 313.429L286.805 316.494C286.569 316.648 286.349 316.826 286.151 317.026L285.323 317.859C285.175 318.008 285.016 318.144 284.847 318.269C269.033 329.911 257.29 345.698 246.549 361.324C240.851 369.615 235.387 377.829 230.459 386.443C228.816 389.314 224.388 389.287 222.371 386.665C216.337 378.821 207.198 372.697 197.686 369.229C186.076 364.993 167.868 364.908 156.405 369.632C137.913 377.251 126.549 396.414 119.678 413.19C115.275 423.942 112.451 434.777 110.447 446.109C110.391 446.43 110.384 446.77 110.43 447.093V447.093C110.639 448.544 112.095 449.32 113.338 448.543C115.583 447.141 117.839 444.613 120.167 443.554V443.554C120.444 443.433 120.75 443.651 120.726 443.952L120.17 451.024C120.153 451.248 120.116 451.471 120.061 451.689L119.136 455.356C117.702 462.945 117.47 470.055 117.568 477.765C117.816 480.975 117.473 483.896 117.316 486.999C117.295 487.421 116.68 487.608 116.307 487.408V487.408C114.276 486.318 112.992 484.951 111.511 483.718C109.442 481.996 106.847 483.86 107.015 486.546C107.421 493.04 108.304 499.316 109.161 505.895C109.82 510.954 110.132 516.278 111.3 521.252C113.298 529.762 116.701 537.844 120.08 545.944C123.314 553.693 126.482 561.426 130.757 568.749C136.194 578.062 142.742 586.792 148.513 595.926C158.102 611.106 166.916 626.584 179.325 640.063C183.123 644.189 187.648 647.893 191.848 651.668L205.909 664.284C206.085 664.442 206.273 664.583 206.474 664.707C220.519 673.344 238.799 680.576 256.05 677.579C263.228 676.333 269.657 672.681 276.108 669.624C276.724 669.333 277.258 668.894 277.659 668.344L279.209 666.213C279.957 665.184 281.15 664.573 282.423 664.566L286.566 664.544C287.215 664.53 287.871 664.501 288.529 664.481C290.544 664.42 292.056 666.091 292.06 668.107L292.098 686.546C292.103 688.755 290.317 690.549 288.108 690.555L286.457 690.559C237.119 690.593 187.781 690.591 138.443 690.595C123.058 690.598 107.673 690.598 92.2885 690.598C83.7735 690.598 74.945 691.024 66.4676 690.373C61.392 689.984 55.8912 688.927 51.0408 687.515C32.8841 682.23 16.7721 670.605 7.49415 655.108C4.62527 650.316 2.95606 645.092 0.20384 640.329V640.329C0.0704086 640.104 0 639.847 0 639.586V70.0119ZM1112.85 77.7824C1112.73 77.9316 1112.66 78.1373 1112.68 78.3244C1114.86 95.7394 1114.12 113.435 1114.12 130.948C1114.14 159.655 1113.81 188.397 1114.23 217.101C1114.25 218.052 1114.6 218.967 1115.23 219.681L1116.09 220.662V79.7092C1115.73 79.1816 1115.47 78.6696 1115.28 78.1612C1114.99 77.4252 1113.33 77.1591 1112.85 77.7824V77.7824Z" fill="black"/>
<path d="M1114.26 218.574L1116.09 220.662V232.759L1114.29 233.94L1114.26 218.574Z" fill="#80A0C9"/>
<path d="M515.345 76.9519C515.427 79.3445 515.303 81.9474 515.781 84.2935L515.446 85.7338C514.714 85.8656 514.071 86.0512 513.464 86.4764C511.999 87.5016 510.801 89.2598 509.48 90.5017C507.495 92.3674 503.736 94.5732 502.338 96.6736L501.9 97.5045C501.922 96.5824 501.801 96.0257 501.437 95.1675L496.156 95.1437C498.505 94.1359 499.254 92.313 500.739 90.4904C503.711 86.8454 509.19 80.5213 513.927 79.0594L514.429 78.9148L515.345 76.9519Z" fill="#060606"/>
<path d="M734.054 169.896C735.195 169.675 736.247 169.798 737.378 170.064C739.853 170.645 740.969 172.34 742.256 174.194C742.553 175.966 742.491 177.013 741.726 178.637C740.62 180.989 739.553 181.286 737.153 182.169C735.515 182.278 734.047 182.343 732.476 181.789C730.867 181.221 729.588 180.251 728.905 178.764C728.024 176.848 728.135 174.949 729.051 173.082C730.095 170.959 731.919 170.643 734.054 169.896Z" fill="#FEFEFE"/>
<path d="M729.994 191.097L741.439 191.073C741.236 199.749 741.387 208.445 741.414 217.123C741.424 220.566 742.328 226.554 740.603 229.489L729.516 229.626C729.34 220.864 729.39 212.088 729.377 203.325C729.37 199.924 728.558 194.168 729.994 191.097Z" fill="#FEFEFE"/>
<path d="M760.333 190.337C767.171 189.912 772.017 191.295 778.149 193.845L778.339 202.523C775.479 200.9 772.316 199.099 769.015 198.387C766.763 197.902 762.984 197.669 761.036 199.005C759.665 199.946 759.796 200.505 759.546 201.985C761.91 206.055 770.839 207.469 775.142 210.009C777.832 211.597 779.636 213.678 780.322 216.596C781.032 219.623 781.057 222.764 779.111 225.406C776.278 229.255 772.917 230.149 768.161 230.917C761.514 230.965 755.815 230.092 749.556 228.098C748.638 225.202 748.725 221.695 748.477 218.677C751.905 220.17 755.446 221.527 759.153 222.298C761.524 222.791 763.803 223.151 765.921 221.781C767.639 220.671 768.084 219.875 768.448 218.029C765.815 212.483 754.458 212.815 750.054 207.329C748.403 205.274 747.839 202.304 748.338 199.817C748.611 198.458 748.848 197.069 749.667 195.885C752.204 192.226 755.99 191.234 760.333 190.337Z" fill="#FEFEFE"/>
<path d="M515.781 189.787C519.567 190.031 523.762 190.801 526.496 193.418C531.257 197.976 530.265 205.973 530.277 211.805C530.29 217.712 530.285 223.619 530.275 229.525L516.973 229.5C516.911 224.124 517.993 202.711 515.048 199.348C513.271 198.374 511.571 197.773 509.48 198.198C507.124 198.678 505.763 199.927 504.464 201.713C502.756 210.376 503.674 220.143 503.719 228.971C501.274 230.069 494.253 229.454 491.276 229.505L491.224 190.951L502.056 190.94C504.543 191.316 502.905 194.55 504.305 196.254C505.921 195.18 506.773 193.728 508.243 192.569C510.408 190.862 513.046 190.211 515.781 189.787Z" fill="#FEFEFE"/>
<path d="M412.934 191.097L425.31 191.043L436.437 214.951L446.358 190.899L458.746 191.024L445.449 220.568L432.969 247.978L420.44 247.658L429.95 227.208L412.474 192.243L412.934 191.097Z" fill="#FEFEFE"/>
<path d="M667.46 229.246C665.961 228.727 664.419 228.186 663.033 227.44C658.089 224.78 654.181 220.351 652.808 215.164C651.357 209.694 652.127 203.744 655.361 198.945C658.546 194.217 663.941 191.529 669.712 190.448C675.951 189.279 683.18 190.639 688.441 193.95C692.866 196.736 694.89 201.114 695.786 205.859L696.345 212.527L664.312 212.545C667.426 217.107 669.284 220.267 675.32 221.574C680.955 222.794 689.069 220.812 694.296 218.671L694.128 227.109C689.73 228.206 685.093 229.349 680.564 229.849C677.277 229.878 674.704 230.149 671.737 228.763C670.031 227.967 669.037 228.652 667.46 229.246Z" fill="#FEFEFE"/>
<path d="M672.887 197.897C674.201 197.952 675.671 197.97 676.933 198.339C680.789 199.468 682.291 203.166 683.92 206.242L674.573 206.369L664.411 206.326L667.114 201.298C668.561 199.185 670.314 198.405 672.887 197.897Z" fill="black"/>
<path d="M458.719 141.422L504.922 141.407C504.894 147.863 505.61 155.108 504.746 161.465C496.777 162.542 487.356 161.687 479.246 161.694C463.713 161.709 448.018 162.146 432.502 161.576C433.165 161.136 433.752 160.727 434.345 160.207C439.629 155.576 444.851 150.931 450.015 146.171C451.208 145.072 453.762 142.141 455.383 141.676C455.868 141.538 456.704 141.596 457.231 141.564L458.719 141.422Z" fill="#FEFEFE"/>
<path d="M431.764 67.2821L431.695 54.3879L504.924 54.3989L504.902 74.444L456.665 74.4807L456.526 86.0982C454.076 85.5869 452.7 83.7067 450.938 82.0838C446.768 78.2442 442.663 74.2858 438.32 70.6154C437.53 69.948 435.882 68.2299 435.014 67.9012C434.138 67.5693 432.717 67.4636 431.764 67.2821Z" fill="#FEFEFE"/>
<path d="M609.54 189.733C610.921 189.768 612.381 189.866 613.727 190.176C617.226 190.98 619.51 192.71 621.339 195.532C621.802 196.245 621.884 196.11 622.698 196.353L624.113 194.751C626.585 192.153 630.666 189.935 634.453 189.821C637.63 189.726 640.924 191.108 643.181 193.149C644.673 194.499 645.564 196.555 646.029 198.401C646.918 201.925 646.529 206.019 646.527 209.635C646.527 216.264 646.504 222.893 646.48 229.521L634.029 229.459C633.98 223.182 634.084 216.902 634.104 210.624C634.111 207.754 634.633 203.664 633.247 201.065C632.245 199.188 631.005 198.417 628.884 197.856C627.221 198.07 626.199 198.511 625.039 199.669C622.084 202.617 622.636 207.988 622.606 211.733C622.569 216.696 622.567 221.66 622.574 226.624C622.552 228.073 622.755 228.399 621.71 229.535L610.151 229.619C610.015 223.524 610.161 217.417 610.178 211.321C610.186 208.434 610.492 205.103 609.958 202.271C609.532 200.01 608.592 199.505 606.612 198.303C604.991 198.226 603.84 197.982 602.361 198.785C600.754 199.656 599.985 201.435 599.562 203.032L599.396 203.703C598.611 206.815 598.898 210.178 598.894 213.367C598.886 218.779 598.898 224.192 598.916 229.603L587.181 229.523L587.186 191.008C590.227 191.042 596.273 190.162 598.691 191.527L598.953 195.681L599.948 196.254C602.959 192.91 605.157 191.415 609.54 189.733Z" fill="#FEFEFE"/>
<path d="M371.48 189.724L374.089 189.926C377.024 190.406 380.12 191.619 381.81 193.99C382.471 194.916 383.005 195.551 383.889 196.297C387.915 193.809 390.137 189.953 395.644 189.788C398.791 189.694 402.357 190.916 404.617 192.956C405.97 194.178 406.881 195.896 407.319 197.586C408.19 200.94 408.02 204.878 408.114 208.339C408.304 215.393 408.225 222.464 408.198 229.521L395.502 229.583C395.423 224.006 396.735 203.872 394.166 200.057C393.414 198.938 392.471 198.277 391.003 198.103C389.177 197.886 387.712 198.546 386.425 199.692C382.706 203.003 384.309 221.774 384.324 227.197C384.309 228.105 384.156 228.63 383.75 229.457L371.777 229.516C371.943 223.996 373.171 204.626 370.768 200.48C369.944 199.058 368.835 198.381 367.194 197.973C365.026 198.398 364.192 198.67 362.631 200.112C361.743 200.934 361.186 201.999 360.909 203.128C360.248 205.844 360.621 209.201 360.612 212.015C360.597 217.726 360.602 223.437 360.612 229.148C357.746 230.078 351.898 229.484 348.713 229.505L348.478 190.975C351.844 190.976 357.357 190.297 360.379 191.526C360.641 193.035 360.735 194.44 360.711 195.968C361.012 196.11 361.277 196.416 361.616 196.394C362.482 196.337 362.668 195.116 363.227 194.501C365.492 192.005 368.159 190.664 371.48 189.724Z" fill="#FEFEFE"/>
<path d="M555.467 189.826C561.387 190.155 564.552 191.507 568.868 195.108C570.62 194.091 569.237 192.556 570.729 190.917L581.491 191.117L581.504 229.386L571.038 229.537C568.596 229.169 570.355 226.115 569.279 224.399L568.14 224.905C566.49 226.797 564.738 228.947 562.067 229.567C556.722 230.804 550.436 230.229 545.665 227.586C541.136 225.076 537.427 220.511 536.306 215.701C535.031 210.235 535.841 203.823 539.186 199.111C543.067 193.643 548.724 191.011 555.467 189.826Z" fill="#FEFEFE"/>
<path d="M557.071 199.991C558.818 199.928 560.521 200.062 562.196 200.546C564.441 201.195 566.519 203.126 567.564 205.048C568.93 207.561 569.046 211.766 567.982 214.382C566.703 217.52 563.572 219.119 560.449 220.396L559.526 220.333C557.88 220.25 556.289 220.262 554.762 219.598C552.065 218.425 549.951 215.947 549.097 213.333C548.135 210.382 548.801 206.988 550.377 204.327C551.931 201.706 554.101 200.823 557.071 199.991Z" fill="black"/>
<path d="M501.9 97.5044L502.338 96.6736C503.736 94.5732 507.495 92.3673 509.48 90.5016C510.801 89.2598 511.999 87.5016 513.464 86.4764C514.071 86.0512 514.714 85.8656 515.446 85.7338L515.501 90.8028L515.357 141.682C515.758 145.016 515.236 148.326 515.362 151.675C513.818 148.007 509.252 145.007 505.872 142.489C505.488 146.863 505.481 151.226 505.471 155.61C505.466 157.581 505.874 159.792 504.746 161.465C505.61 155.108 504.894 147.863 504.922 141.407L458.719 141.422L457.231 141.564L456.917 137.831C462.327 135.146 469.551 128.42 473.391 123.927C475.171 121.846 475.539 120.597 475.208 118.002L475.45 116.031C480.016 116.045 484.582 116.054 489.148 116.036C492.068 116.024 495.018 116.269 497.794 115.313L500.818 115.254C502.788 113.184 501.756 102.361 501.766 99.0497L501.9 97.5044Z" fill="black"/>
<path d="M431.764 67.2821C432.717 67.4636 434.138 67.5693 435.014 67.9012C435.882 68.2299 437.53 69.948 438.32 70.6154C442.663 74.2858 446.768 78.2442 450.938 82.0838C452.7 83.7067 454.076 85.5869 456.526 86.0982L457.519 94.7547L496.156 95.1437L501.437 95.1675C501.801 96.0257 501.922 96.5824 501.9 97.5045L501.766 99.0498C501.756 102.361 502.788 113.184 500.819 115.254L497.794 115.313C495.018 116.269 492.068 116.024 489.148 116.036C484.582 116.054 480.016 116.045 475.45 116.031L475.208 118.002C475.539 120.597 475.171 121.846 473.391 123.927C469.551 128.42 462.327 135.146 456.917 137.831L457.232 141.564C456.704 141.596 455.868 141.538 455.383 141.676C453.762 142.141 451.208 145.072 450.015 146.171C444.851 150.931 439.629 155.576 434.345 160.207C433.752 160.727 433.165 161.136 432.502 161.576C430.757 159.788 431.574 155.073 431.675 152.688L431.787 74.8515L431.764 67.2821Z" fill="#FEFEFE"/>
<path d="M457.083 115.668C459.679 114.54 464.51 115.171 467.445 115.166C477.561 115.148 487.678 115.182 497.794 115.313C495.018 116.269 492.068 116.024 489.148 116.036C484.582 116.054 480.016 116.045 475.45 116.031L475.208 118.002C474.124 117.443 473.295 117.272 472.07 117.125C466.875 119.73 462.092 125.453 457.514 129.137C456.885 124.695 457.086 120.141 457.083 115.668Z" fill="black"/>
<path d="M456.553 130.856C456.544 126.362 455.653 119.888 457.083 115.668C457.085 120.141 456.885 124.695 457.514 129.137C462.092 125.453 466.875 119.73 472.07 117.125C473.295 117.272 474.124 117.443 475.208 118.002C475.539 120.597 475.171 121.846 473.391 123.927C469.551 128.42 462.327 135.146 456.917 137.831L456.553 130.856Z" fill="black"/>
<path d="M598.275 54.722C600.928 54.0904 604.115 54.4142 606.874 54.4048C612.601 54.3858 618.327 54.3778 624.054 54.3721L624.175 140.344L670.051 140.352C670.051 147.238 670.662 154.645 669.717 161.459C663.258 162.698 654.337 161.687 647.64 161.682C631.144 161.669 614.648 161.716 598.154 161.759C597.824 138.914 598.124 116.058 598.067 93.2106C598.035 80.643 596.847 67.2 598.275 54.722Z" fill="#FEFEFE"/>
<path d="M515.392 74.9074L515.454 54.3627L541.683 54.4509L541.686 140.351L587.342 140.32C588.089 141.958 587.676 144.817 587.683 146.605C587.71 151.609 587.767 156.62 587.71 161.624C574.307 161.651 560.902 161.677 547.499 161.699C541.8 161.707 535.123 162.334 529.535 161.618C525.093 161.755 520.485 162.142 516.075 161.538C514.744 159.385 515.409 154.289 515.362 151.676C515.236 148.326 515.758 145.016 515.357 141.683L515.501 90.8029L515.446 85.7338L515.781 84.2935C515.303 81.9474 515.427 79.3446 515.345 76.9519L515.392 74.9074Z" fill="#FEFEFE"/>
<path d="M516.075 161.538C515.684 158.599 515.919 155.396 515.887 152.425C518.243 154.227 520.391 156.964 522.992 158.383C524.108 158.991 524.727 160.073 525.823 160.632C527.006 161.235 527.746 160.766 528.958 160.448L529.535 161.618C525.093 161.755 520.485 162.142 516.075 161.538Z" fill="#FAF4F7"/>
<path d="M403.471 54.1348L421.324 54.4344L421.2 161.771L395.057 161.699L395.181 116.271L346.531 116.282C346.271 126.408 346.432 136.528 346.531 146.656C346.575 151.211 347.347 157.025 346.308 161.433L344.137 161.673L320.88 161.761L320.487 54.403L346.654 54.3785L346.667 94.0522C350.52 94.807 355.709 94.0444 359.743 94.0403C371.555 94.0286 383.367 94.0678 395.176 94.096C394.592 89.762 395.042 84.9974 395.042 80.6077C395.042 71.8673 395.04 63.1269 395.037 54.3863L403.471 54.1348Z" fill="#FEFEFE"/>
<path d="M731.025 51.7706L731.164 51.75C745.468 50.9709 760.432 53.8653 772.088 61.9832C785.281 71.1714 792.742 84.0519 795.016 99.1009C797.372 114.697 793.811 131.328 783.467 144.014C772.868 157.014 759.091 162.696 742.021 164.932C726.249 165.202 712.638 163.121 699.503 154.408C687.003 146.114 679.151 132.491 676.792 118.547C674.144 102.907 678.007 85.3581 688.334 72.6558C699.109 59.4042 713.801 54.1028 731.025 51.7706Z" fill="#FEFEFE"/>
<path d="M731.778 74.6665C739.397 73.8675 746.856 75.0163 753.424 78.813C761.452 83.4528 765.506 90.7875 767.503 99.0729C769.757 108.417 767.951 120.184 762.358 128.239C757.148 135.743 749.977 139.208 740.877 141.13C732.817 141.903 724.938 140.672 718.162 136.436C710.763 131.809 705.949 124.036 704.393 115.954C702.403 105.632 704.066 94.5485 710.73 85.881C715.905 79.1504 723.208 75.8912 731.778 74.6665Z" fill="black"/>
<path d="M1115.47 0C1116.56 2.23483 1116.12 5.41543 1116.12 7.85818C1116.12 13.0697 1116.13 18.2812 1116.13 23.4928C1116.14 42.2317 1116.12 60.9705 1116.09 79.7092C1114.61 77.5322 1114.74 75.6195 1114.76 73.1348C1115.38 72.11 1115.09 70.3802 1115.08 69.1849C1115.05 65.5816 1115.06 61.9799 1115.1 58.3767C1115.32 38.9458 1116.03 19.4228 1115.47 0Z" fill="#C2C1C2"/>
<path d="M291.75 273.436L390.721 273.477L393.114 273.553C381.988 284.296 371.582 294.321 362.765 306.87C358.446 305.041 354.128 303.157 349.508 302.07C337.134 299.162 320.432 300.232 308.566 304.314C303.567 306.031 298.318 308.747 293.906 311.529L291.513 313.429L286.45 316.725L285.101 318.082C269.159 329.742 257.347 345.614 246.549 361.324C239.313 371.853 232.455 382.257 226.591 393.515C221.341 382.394 209.816 373.652 197.686 369.229C186.076 364.993 167.868 364.908 156.405 369.632C137.913 377.251 126.549 396.414 119.678 413.19C115.212 424.095 112.371 435.085 110.362 446.594C110.496 447.623 110.631 448.508 111.052 449.482C114.057 449.028 117.048 444.973 120.167 443.554L120.778 443.286L120.144 451.361L119.136 455.356C117.702 462.945 117.47 470.055 117.568 477.765C117.853 481.444 117.361 484.742 117.262 488.37C116.991 487.96 116.767 487.655 116.307 487.408C112.569 485.402 111.362 482.459 106.798 481.134C106.934 489.615 108.069 497.509 109.161 505.895C109.82 510.954 110.132 516.278 111.3 521.252C113.298 529.762 116.701 537.844 120.08 545.944C123.314 553.693 126.482 561.426 130.757 568.749C136.194 578.062 142.742 586.792 148.513 595.926C158.102 611.106 166.916 626.584 179.325 640.063C183.123 644.189 187.648 647.893 191.848 651.668L206.173 664.521L205.151 664.556C180.124 663.598 154.873 664.237 129.809 664.251C114.358 664.26 97.3821 665.647 82.3753 661.936C71.1624 659.163 60.4684 653.135 52.2782 645.564C41.1224 635.25 34.2603 622.649 31.7064 608.259C29.7846 597.434 30.9415 585.121 30.9373 574.136C30.9289 552.613 30.9266 531.089 30.9269 509.567C30.9269 430.829 30.9269 352.094 30.9197 273.358L41.1306 273.447L286.771 273.431L291.75 273.436Z" fill="#FEFEFE"/>
<path d="M108.25 462.363C109.321 461.004 110.859 460.288 112.168 459.163C114.153 457.453 115.755 455.342 118.09 454.029L119.136 455.356C117.702 462.945 117.47 470.055 117.568 477.765C117.853 481.444 117.361 484.742 117.262 488.37C116.991 487.96 116.767 487.655 116.307 487.408C112.569 485.402 111.362 482.459 106.798 481.134C106.563 478.12 105.935 472.723 106.979 469.993L107.623 469.906C107.639 467.346 107.582 464.861 108.25 462.363Z" fill="black"/>
<path d="M76.2031 567.965C80.4089 567.784 84.3756 568.172 88.5264 568.772C104.812 571.131 120.144 581.11 127.766 594.766C129.153 597.253 130.557 599.896 131.623 602.515C132.48 604.622 132.95 607.09 134.154 609.045C136.632 613.066 141.632 616.176 144.607 620.038C150.784 628.06 153.615 638.028 151.905 647.783C149.003 651.874 144.623 652.612 139.761 653.637C135.593 654.34 130.093 655.706 126.078 654.148C119.477 651.583 113.175 650.006 107.013 646.469C99.5871 642.211 93.7478 636.171 88.5764 629.719C86.661 627.329 84.2748 624.413 83.2013 621.615C82.2444 619.121 82.9093 615.193 81.7989 613.068C81.1666 611.86 77.5229 609.499 76.3315 608.394C70.0478 602.57 65.3364 593.132 63.4554 585.197C62.5318 581.3 62.5959 576.526 65.0494 573.132C67.7196 569.439 71.8006 568.761 76.2031 567.965Z" fill="black"/>
<path d="M79.342 574.438C83.1493 573.865 86.0544 574.358 89.6247 575.685C103.362 580.787 115.099 592.495 120.834 604.872C122.518 608.507 123.184 611.865 121.487 615.617C120.54 617.711 119.393 618.36 117.239 619.187C114.448 619.538 109.629 617.684 106.888 616.792C92.6601 612.165 81.0983 599.536 74.917 587.244C73.4982 584.422 73.1053 582.13 74.3349 579.176C75.3884 576.645 76.6847 575.506 79.342 574.438Z" fill="#FEFEFE"/>
<path d="M666.642 685.568C663.205 682.572 657.667 678.893 655.401 675.036C658.817 678.023 662.161 681.211 665.972 683.723C666.218 677.942 665.045 670.649 666.527 665.142C667.458 664.352 668.142 663.866 669.293 663.453C671.496 664.946 672.203 666.049 672.603 668.729C673.467 674.516 673.775 684.248 672.211 689.965L666.642 685.568Z" fill="black"/>
<path d="M111.388 454.556C111.906 454.556 112.271 454.529 112.741 454.271C113.286 453.972 113.211 453.663 113.639 453.322C114.078 452.972 114.663 451.642 115.187 451.528C115.487 451.463 115.869 450.376 115.869 449.999C115.869 449.343 116.649 448.184 116.649 448.184C116.649 448.184 116.064 449.17 116.064 449.714C116.064 449.821 115.977 450.795 115.88 450.463C115.791 450.16 116.17 449.203 116.248 449.545C116.62 451.176 116.465 454.881 115.003 455.695C114.535 455.956 113.982 456.099 113.575 456.497C113.193 456.869 112.467 457.195 112.211 457.594C112.102 457.764 110.971 458.812 110.847 458.691C110.538 458.39 110.804 456.519 110.804 456.117C110.804 454.551 111.151 452.962 111.68 451.518C112.172 450.177 113.228 449.507 114.397 448.574C115.377 447.793 116.391 447.131 117.19 446.159C117.728 445.504 117.623 445.041 117.623 446.296C117.623 447.162 117.374 447.865 117.233 448.69C117.105 449.442 116.69 450.27 116.649 450.948C116.628 451.29 116.454 452.888 116.454 452.277C116.454 451.651 116.23 450.541 116.692 450.041C117.376 449.3 117.623 448.489 117.623 447.53C117.623 446.812 117.622 446.157 117.807 445.526C118.147 444.366 117.818 446.542 117.818 446.865C117.818 447.838 117.267 448.95 117.049 449.904C116.894 450.586 116.843 451.229 116.843 451.992C116.843 452.377 116.675 453.432 116.411 453.754C115.706 454.612 115.546 455.443 114.7 454.134C114.391 453.656 113.952 452.447 113.921 451.897C113.86 450.833 112.362 450.748 112.362 449.809" stroke="black" stroke-width="5" stroke-linecap="round"/>
<path d="M668.59 688.151C666.887 688.151 667.756 688.151 668.923 688.151C669.535 688.151 671.037 689.199 670.661 688.728C670.269 688.236 670.254 686.526 670.254 685.88C670.254 684.49 671.253 684.331 671.253 685.88C671.253 686.413 671.561 688.356 671.179 688.728C670.819 689.078 668.774 688.829 668.257 688.8C666.957 688.725 669.035 686.758 669.182 686.529C669.84 685.502 669.59 684.163 670.069 682.961C670.641 681.529 670.254 679.474 670.254 677.951C670.254 676.911 670.587 676.002 670.587 675.014C670.587 672.979 670.36 670.68 670.901 668.833C670.942 668.694 671.253 667.913 671.253 668.364C671.253 668.731 671.253 669.83 671.253 669.464C671.253 668.834 671.602 667.067 670.753 667.067C669.456 667.067 670.073 667.834 670.753 668.364C671.429 668.891 671.253 670.179 671.253 670.959" stroke="black" stroke-width="5" stroke-linecap="round"/>
</g>
</g>
<defs>
<clipPath id="clip0_21_169">
<rect width="1115" height="712" fill="white"/>
</clipPath>
<clipPath id="clip1_21_169">
<rect width="1115" height="712" rx="100" fill="white"/>
</clipPath>
</defs>
</svg>
