<svg width="1115" height="712" viewBox="0 0 1115 712" fill="none" xmlns="http://www.w3.org/2000/svg">
<g clip-path="url(#clip0_32_2)">
<g filter="url(#filter0_d_32_2)">
<path d="M95.4093 33.3085C307.771 33.316 520.132 33.3438 732.497 33.2956C796.406 33.281 860.318 33.2669 924.231 33.2687C943.712 33.2693 963.193 33.2699 982.678 33.2798C995.348 33.2863 1008.59 32.8037 1021.16 34.169C1033.02 35.4566 1045.11 41.8469 1053.56 49.404C1065.59 60.1722 1072.33 74.5846 1072.52 89.9013C1073.03 129.992 1072.51 170.148 1072.49 210.246C1072.46 288.749 1072.45 367.252 1072.44 445.755C1072.43 481.695 1072.37 517.634 1072.45 553.571C1072.48 564.892 1072.51 576.214 1072.52 587.532C1072.53 595.224 1072.84 603.285 1071.7 610.911C1070.04 621.954 1063.16 633.706 1054.63 641.611C1039.32 655.8 1021.77 659.286 1000.78 659.393C786.012 659.25 571.246 659.352 356.481 659.364C291.111 659.367 225.741 659.379 160.371 659.373C140.787 659.37 121.203 659.367 101.62 659.355C90.8827 659.346 79.5312 660.016 68.889 658.884C55.4884 657.456 41.9312 650.947 32.3708 642.419C20.1286 631.496 13.2808 616.657 13.0697 601.093C12.5337 561.608 13.0378 522.066 13.0263 482.575C13.0037 404.093 12.9872 325.614 13.0145 247.132C13.027 211.088 13.0033 175.043 12.9945 138.999C12.9895 120.083 11.2427 99.5988 14.1462 80.9447C15.8976 69.6935 22.6422 58.3445 31.3458 50.2834C38.1936 43.9413 47.1615 38.2792 56.5896 35.7766C68.8404 32.5246 82.7243 33.431 95.4093 33.3085Z" fill="#CC093D"/>
<path d="M710.122 184.52C712.056 184.286 713.199 184.119 714.89 185.268C716.684 186.488 717.757 188.123 717.997 190.134C716.615 192.42 715.531 194.214 713.156 195.748C710.841 195.94 709.311 195.351 707.449 193.962C705.501 192.507 704.972 191.202 704.683 189.011C706.309 186.473 707.33 186.006 710.122 184.52Z" fill="#FDFDFD"/>
<path d="M706.522 203.234C709.524 202.596 713.59 203.269 716.697 203.431C716.519 210.947 716.582 218.467 716.588 225.984C716.588 230.014 717.396 234.851 715.265 238.356L705.78 238.703C705.682 230.581 705.586 222.459 705.544 214.336C705.527 210.95 704.805 206.286 706.522 203.234Z" fill="#FDFDFD"/>
<path d="M735.045 199.357C738.483 199.137 743.032 198.674 746.329 199.634C749.219 200.474 753.702 202.991 755.049 205.479C754.513 206.776 754.415 206.891 753.137 207.544C750.671 208.803 747.952 209.831 745.131 209.072L744.411 208.872C742.418 208.361 741.475 208.012 739.656 208.957C739.656 209.431 739.482 210.668 739.649 211.054C740.112 212.116 742.92 213.525 744.034 214.1C748.119 216.217 752.96 218.052 755.393 221.948C756.888 224.339 756.737 226.499 756.1 229.059C755.659 230.827 755.091 231.659 753.719 232.975C748.467 238.02 745.722 238.07 738.267 238.278C731.515 237.873 727.515 233.701 723.156 229.493L732.194 224.063C734.217 225.626 737.022 227.671 739.551 228.396C741.758 229.029 742.408 228.513 744.339 227.523C744.957 221.755 737.298 222.62 733.147 220.075C730.421 218.404 727.567 215.191 725.823 212.679C725.16 211.725 725.311 209.848 725.626 208.771C726.874 204.469 731.094 201.578 735.045 199.357Z" fill="#FDFDFD"/>
<path d="M446.548 203.294L448.771 203.155L449.638 204.357C447.047 211.192 442.768 217.926 439.435 224.512C436.269 230.771 433.116 237.037 429.914 243.281C427.973 247.063 426.291 251.18 423.165 254.288C419.447 255.313 415.786 254.99 411.969 254.806L420.695 237.004L421.28 235.64C421.608 234.701 421.986 231.842 421.697 230.93C421.02 228.798 419.047 226.311 417.999 224.235C414.462 217.234 410.82 210.345 407.014 203.46L419.92 203.609L428.226 220.684C432.006 215.28 434.604 209.428 437.04 203.44L446.548 203.294Z" fill="#FDFDFD"/>
<path d="M43.185 303.756C41.9837 300.226 42.4041 296.165 42.4021 292.488C42.3988 286.067 42.4254 279.646 42.4586 273.225C55.6381 273.283 68.8179 273.328 81.9978 273.363C90.2971 273.384 98.8926 273.853 107.109 272.664C104.597 277.538 104.473 282.221 102.442 286.916C87.3509 284.129 71.3523 282.815 57.9028 290.94C52.1139 294.437 47.4813 298.803 43.185 303.756Z" fill="#FDFDFD"/>
<path d="M497.757 202.399C500.608 202.208 503.757 201.876 506.529 202.617C509.317 203.36 511.718 204.927 513.064 207.292L513.291 207.701C515.899 212.315 515.508 217.174 515.541 222.222C515.58 227.677 515.675 233.078 516.02 238.526L502.283 238.529C502.345 232.999 502.394 227.468 502.398 221.938C502.398 219.46 502.739 216.261 501.701 213.918C500.575 211.376 499.471 210.829 496.87 209.736C494.913 210.027 494.105 210.179 492.709 211.541C488.463 215.681 490.115 232.686 490.279 238.587L476.63 238.554L476.647 203.168L497.757 202.399Z" fill="#FDFDFD"/>
<path d="M669.832 226.603C671.951 227.385 673.655 228.06 675.412 229.433L675.192 230.197C674.102 232.951 668.125 236.551 665.271 237.578C660.722 239.213 652.472 239.415 647.93 237.459C644.416 235.945 639.678 231.907 638.292 228.605L637.589 226.946C635.464 221.773 635.523 215.525 638.269 210.499C641.297 204.957 649.684 201.72 655.75 199.92C658.046 199.239 665.75 202.152 667.924 203.207C671.583 204.984 674.542 207.916 675.672 211.581C676.709 214.956 677.53 219.302 675.58 222.508L675.156 222.662C673.048 223.374 671.097 223.343 668.88 223.332L669.064 223.662C669.494 224.576 669.629 225.628 669.832 226.603Z" fill="#FDFDFD"/>
<path d="M652.462 209.971L652.919 209.874C655.422 209.407 659.326 209.599 661.477 210.918C662.926 211.807 662.808 212.242 663.133 213.714L661.077 214.823C657.97 215.088 652.21 215.831 649.865 214.088C650.2 211.653 650.558 211.529 652.462 209.971Z" fill="#CC093D"/>
<path d="M669.832 226.603C666.413 226.268 664.147 228.535 661.077 229.373C658.213 230.155 655.129 230.711 652.456 229.137C649.986 227.682 648.485 226.153 647.94 223.603C649.884 222.202 652.929 222.591 655.32 222.549C662.082 222.429 668.814 222.425 675.579 222.508L675.156 222.662C673.047 223.374 671.097 223.343 668.88 223.332L669.064 223.662C669.494 224.576 669.629 225.628 669.832 226.603Z" fill="#FA0014"/>
<path d="M557.187 238.226C554.054 237.315 551.039 235.133 547.774 235.139L545.587 237.141C542.648 238.357 537.367 238.604 534.244 237.689C529.278 236.232 524.46 230.222 522.362 225.993C520.779 222.804 520.831 216.163 522.155 212.965C524.789 206.607 531.695 203.112 537.935 200.303L546.188 202.421C550.211 203.813 556.783 202.457 561.42 202.974C561.266 214.004 562.096 226.035 560.372 236.919L557.187 238.226Z" fill="#FDFDFD"/>
<path d="M539.232 209.971C540.227 209.735 541.255 209.536 542.287 209.627C545.124 209.878 547.962 211.85 549.594 213.874C551.351 216.054 552.198 217.854 551.659 220.551C550.871 224.491 547.899 226.965 544.49 229.183C542.254 229.442 540.7 229.481 538.7 228.348L538.339 228.139C536.993 227.371 535.833 226.57 534.95 225.338C533.071 222.709 532.066 220.178 532.884 217.08C533.745 213.801 536.165 211.632 539.232 209.971Z" fill="#CC093D"/>
<path d="M358.182 202.59C362.937 201.98 367.995 201.264 372.675 202.632C375.128 203.349 376.294 205.694 379.016 205.546L380.199 204.753L380.754 204.408C383.512 202.673 386.488 202.105 389.811 201.92C393.437 201.718 398.097 202.491 400.823 204.857C408.242 211.306 405.555 229.482 405.565 238.532L393.887 238.74C393.552 230.835 395.312 221.288 393 213.714C391.503 212.111 390.751 211.605 388.567 210.968C385.933 210.199 384.718 210.798 382.438 211.917C379.755 216.127 380.356 221.161 380.415 225.851L380.737 238.472L368.632 238.844C368.632 233.218 370.258 215.042 366.602 211.371C366.024 210.791 363.893 210.508 363.042 210.529C361.959 210.555 358.491 210.92 357.785 211.616C353.827 215.517 355.394 233.037 355.335 238.849L343.84 238.698L343.423 203.173L358.182 202.59Z" fill="#FDFDFD"/>
<path d="M575.338 202.887C582.077 203.297 589.417 200.603 595.696 202.291C597.627 202.811 600.606 204.801 602.452 204.817C604.458 204.834 607.647 203.485 609.605 202.913C611.349 202.403 614.544 201.1 616.347 201.203C620.055 201.414 625.116 203.92 627.513 206.394C633.142 212.196 629.618 230.649 630.19 238.483L618.498 238.823C618.666 230.493 619.776 220.769 617.562 212.707C615.693 211.304 614.514 210.634 612.015 210.73C609.736 210.817 608.002 211.776 606.58 213.339C603.746 219.494 605.26 231.826 605.217 238.755L593.207 238.637C593.329 232.097 595.539 217.232 591.854 211.751C589.263 210.345 588.55 210.348 585.542 210.424C583.286 211.657 582.011 213.211 581.384 215.555C579.614 222.174 581.007 231.627 581.141 238.585L569.555 238.724C565.755 239.1 561.377 237.945 557.187 238.226L560.372 236.919C562.097 226.035 561.266 214.004 561.42 202.974C565.89 203.113 571.085 202.254 575.338 202.887Z" fill="#FDFDFD"/>
<path d="M561.42 202.974C565.89 203.113 571.085 202.254 575.338 202.887L569.532 203.759C568.084 205.838 568.642 207.945 568.681 210.386C568.78 216.29 568.924 222.199 568.941 228.105C568.951 231.065 568.494 234.39 568.891 237.293C568.97 237.858 569.249 238.245 569.555 238.724C565.755 239.1 561.377 237.945 557.187 238.226L560.372 236.919C562.097 226.035 561.266 214.004 561.42 202.974Z" fill="#FA0014"/>
<path d="M585.92 66.996L609.703 67.011L609.293 154.584L648.482 154.82L648.958 171.794C648.62 172.063 647.881 172.823 647.507 172.95C644.952 173.813 637.27 172.972 634.288 172.988C617.91 173.074 601.532 173.264 585.154 173.417C584.504 147.701 584.928 121.882 584.925 96.1572C584.925 90.6682 583.388 71.0371 585.92 66.996Z" fill="#FDFDFD"/>
<path d="M507.514 66.996L531.853 67.2392L531.755 154.671L571.003 154.549L570.714 172.543C563.926 174.143 554.379 173.084 547.265 173.065C533.879 173.028 520.5 173.167 507.114 173.318C507.107 148.079 507.13 122.839 507.055 97.5992C507.035 91.341 507.078 85.0731 506.923 78.8167C506.831 74.9915 506.053 70.6277 507.514 66.996Z" fill="#FDFDFD"/>
<path d="M479.603 67.0074L493.133 66.9717L493.189 88.3179L449.605 88.3664L449.642 107.333L493.343 108.088L493.022 128.786L449.651 128.443L449.612 154.034C452.111 155.661 479.002 154.585 484.355 154.463L493.251 154.556L493.074 173.334L425.385 173.563C424.554 172.505 424.955 170.074 424.958 168.779C424.971 163.34 424.968 157.9 424.978 152.461C425.001 134.605 425.053 116.749 425.007 98.8936C424.978 88.388 425.401 77.6758 424.413 67.2053L479.603 67.0074Z" fill="#FDFDFD"/>
<path d="M317.055 67.7446L340.49 68.0212C339.811 77.4345 339.994 86.9685 339.909 96.4015C339.886 98.8978 339.164 103.938 340.231 106.123L388.058 105.929L388.067 67.4748L411.95 68.2443C412.6 78.0364 413.125 171.808 411.49 174.04L405.096 174.415L388.222 174.416L388.14 126.204L340.435 125.983C339.308 129.427 340.123 135.218 340.142 138.939C340.208 150.609 340.336 162.275 340.53 173.943C339.131 174.721 336.651 174.371 335.003 174.384C328.674 174.433 322.346 174.483 316.017 174.533C316.01 150.287 316.047 126.041 316.05 101.796C316.05 91.4401 314.799 79.8311 315.991 69.6276C316.073 68.9264 316.585 68.2766 317.055 67.7446Z" fill="#FDFDFD"/>
<path d="M705.481 66.1067C719.554 64.8363 732.533 66.6253 744.805 73.1447C756.799 79.517 769.656 93.6516 773.118 106.152C777.138 120.654 774.842 137.263 766.33 150.086C755.61 166.231 740.25 172.939 720.798 177.358L720.362 177.436C706.293 179.553 687.964 174.259 676.68 166.583C664.574 158.351 654.38 144.589 652.262 130.819C649.769 114.64 653.674 100.399 664.482 87.4538C674.663 75.261 689.008 68.15 705.481 66.1067Z" fill="#FDFDFD"/>
<path d="M708.112 85.4707C716.23 84.0727 725.531 86.7565 732.575 90.496C741.078 95.0092 747.837 104.181 750.244 112.735C752.658 121.312 750.431 132.896 745.416 140.375C739.58 149.072 730.408 154.724 719.672 157.089C710.759 157.823 703.281 157.484 695.356 153.162C685.757 147.924 678.584 139.218 676.026 129.253C673.819 120.666 675.872 110.699 680.827 103.273C687.635 93.0635 695.481 88.2494 708.112 85.4707Z" fill="#CC093D"/>
<path d="M241.049 273.187C238.586 264.306 235.973 255.525 234.552 246.441C233.9 242.272 233.116 238.08 235.571 234.27C238.879 229.135 246.218 224.433 252.61 223.071C258.569 221.8 265.56 222.15 270.824 225.156C283.818 232.574 288.671 250.806 292.98 263.311C293.63 265.197 294.358 269.384 295.476 270.894C295.589 271.045 296.7 271.443 296.949 271.555L297.544 271.299C303.994 268.639 313.784 269.303 320.227 271.712L324.664 273.438C333.012 272.569 341.797 273.339 350.211 273.341C367.696 273.346 385.181 273.304 402.669 273.277C464.722 273.181 526.772 273.327 588.826 273.36C638.022 273.387 687.222 273.301 736.418 273.326C752.766 273.334 769.174 273.108 785.512 273.534C790.796 273.672 795.988 273.21 801.237 273.989L809.559 274.132C828.13 271.973 848.222 273.291 866.981 273.144C875.661 268.324 883.244 266.064 893.419 268.239C897.52 269.116 900.867 270.77 904.414 272.78L1043.1 273.263L1043.45 286.791C1049.45 302.358 1051.38 320.126 1052.22 336.591C1054.45 380.525 1049.38 424.112 1047.66 467.945C1047 484.889 1046.82 501.852 1046.47 518.802C1046.2 531.854 1047.16 546.666 1042.98 559.239C1044.14 564.374 1043.07 569.902 1043.05 575.127C1043.02 585.31 1044.31 597.104 1042.42 607.081C1040.95 614.782 1035.68 622.07 1028.62 626.502C1020.86 631.382 1012.14 632.511 1002.95 632.727C977.147 633.335 951.203 632.835 925.383 632.826C877.698 632.808 830.012 632.808 782.327 632.817C634.416 632.838 486.506 632.808 338.595 632.844C275.164 632.859 211.733 632.886 148.302 632.877C130.703 632.874 113.106 632.868 95.5077 632.751C87.6422 632.7 78.3212 633.436 70.6357 632.029C61.6957 630.397 53.3937 624.559 48.4646 617.705C45.0994 613.025 43.0589 607.539 42.5801 601.961C41.5206 589.622 42.4395 576.573 42.434 564.174C42.4221 538.265 42.4251 512.356 42.4333 486.449C42.4389 467.463 42.4898 448.474 42.4323 429.487C42.4014 419.31 40.876 406.821 43.1939 396.907C38.0559 388.436 33.8312 379.483 31.3908 370.046C25.3059 346.514 29.3086 324.276 43.185 303.756C47.4813 298.803 52.1139 294.437 57.9028 290.94C71.3523 282.815 87.3509 284.129 102.442 286.916C104.473 282.221 104.597 277.538 107.109 272.664C112.823 267.185 117.742 262.988 126.585 262.878C131.872 262.812 136.807 264.718 140.538 268.141L144.844 272.496C154.946 275.059 169.612 273.313 180.238 273.288C200.504 273.242 220.786 273.448 241.049 273.187Z" fill="#000108"/>
<path d="M284.306 283.768C287.22 285.607 291.841 291.488 294.814 291.856L295.786 301.055C294.577 301.433 293.854 301.795 292.844 302.511L291.308 302.229C290.687 302.78 289.43 303.648 288.996 304.289C288.217 305.439 288.107 309.272 287.281 310.002C287.019 310.233 285.078 310.556 284.608 310.673L284.954 309.966L285.125 309.568C288.267 302.511 285.268 291.218 284.306 283.768Z" fill="#000108"/>
<path d="M137.342 451.007L137.868 450.884C140.868 450.309 150.011 455.681 152.448 457.321C155.558 459.414 158.839 461.894 159.321 465.61C160.603 475.491 148.595 490.129 142.206 497.33L131.059 507.637L137.342 451.007Z" fill="#FDFDFD"/>
<path d="M639.664 481.698C642.072 480.814 646.873 481.991 649.52 482.278C658.42 483.252 667.356 484.243 676.292 484.895C680.585 485.207 685.054 484.794 689.291 485.392L685.803 518.569C685.59 519.871 685.629 519.844 684.532 520.695C675.133 513.532 666.624 504.514 657.651 496.777C654.157 493.764 650.545 490.875 646.83 488.087C644.288 486.18 641.211 484.413 639.664 481.698Z" fill="#FDFDFD"/>
<path d="M809.559 274.132C828.13 271.973 848.223 273.291 866.981 273.144C863.779 275.944 860.962 278.822 859.139 282.568C856.229 288.543 854.929 295.07 853.402 301.421C851.615 308.837 849.717 316.23 847.92 323.647C845.756 332.576 842.984 341.355 840.758 350.257C839.983 353.35 839.681 359.668 837.313 361.862L836.511 361.554C835.401 348.194 836.544 334.315 836.393 320.868C836.239 306.813 837.152 290.22 824.482 280.027C820.133 276.528 815.358 275.261 809.854 274.187L809.559 274.132Z" fill="#FDFDFD"/>
<path d="M627.828 450.048C638.38 449.53 648.863 451.983 659.297 453.103C668.042 454.04 682.023 453.48 689.865 457.073C692.063 458.079 693.35 460.094 694.01 462.184C694.857 464.855 695.044 469.044 693.465 471.532C691.711 474.299 689.343 476.404 685.915 477.164C675.465 477.868 664.896 475.661 654.555 474.571C646.065 473.676 636.475 473.556 628.291 471.361C625.516 470.616 621.713 469.463 620.35 466.906C618.488 463.415 618.712 458.711 620.255 455.145C621.661 451.899 624.61 451.264 627.828 450.048Z" fill="#CC093D"/>
<path d="M284.608 310.673C282.523 311.901 280.688 312.796 278.126 312.469C274.538 312.011 272.076 309.412 270.016 306.93C261.212 296.314 247.508 255.002 249.652 242.547C250.015 240.438 250.586 239.171 252.553 237.951C254.949 236.464 258.436 236.049 261.235 236.534C273.682 248.092 280.108 268.21 284.306 283.768C285.268 291.218 288.267 302.511 285.126 309.568L284.954 309.966L284.608 310.673Z" fill="#CC093D"/>
<path d="M155.595 333.483C156.89 333.339 157.008 333.345 158.051 334.097C171.239 343.612 169.347 384.523 171.621 399.542C153.394 392.191 133.543 387.086 116.023 378.567C103.274 371.366 97.6779 364.321 92.5162 351.487C101.982 357.437 110.554 365.129 122.566 366.363C130.508 367.177 138.797 364.839 144.979 360.287C155.986 352.188 154.119 345.274 155.529 333.989L155.595 333.483Z" fill="#FDFDFD"/>
<path d="M241.049 273.187C245.6 287.962 251.045 310.529 265.09 320.371C272.401 325.494 278.412 325.875 287.186 324.806C288.177 326.89 288.237 329.875 288.79 332.148C290.012 337.166 291.458 342.154 292.997 347.101C290.277 347.092 287.299 346.969 284.623 347.421C279.465 348.292 276.23 352.874 273.494 356.542L267.011 347.909C250.615 328.728 228.479 312.981 206.662 299.285C196.895 293.153 187.063 286.029 174.938 284.773C165.117 283.756 159.144 286.661 151.604 292.045C150.865 284.752 148.872 278.844 144.844 272.496C154.946 275.059 169.612 273.313 180.238 273.288C200.504 273.242 220.786 273.448 241.049 273.187Z" fill="#FDFDFD"/>
<path d="M455.471 437.533C458.922 437.14 464.006 442.129 467.09 443.991C483.8 454.073 498.706 457.606 518.618 453.983L520.739 492.645C517.524 498.627 513.202 502.358 507.718 506.595C499.553 512.347 490.857 518.299 481.277 521.925L480.837 521.536C456.203 499.471 455.783 466.789 455.471 437.533Z" fill="#FDFDFD"/>
<path d="M282.987 391.838L284.943 362.371L286.276 361.632C290.987 364.994 293.286 372.408 295.067 377.477C302.299 398.072 306.253 420.603 309.101 442.024C312.168 465.13 313.981 488.153 314.812 511.406C315.196 522.177 316.227 535.657 313.396 546.193C312.726 548.685 310.733 551.026 309.032 553.017C306.943 555.467 304.615 557.263 301.137 557.661C298.24 557.994 293.316 557.413 291.052 555.646C286.216 551.87 286.791 535.812 286.589 530.195L282.879 428.601C281.728 425.58 281.965 421.69 281.782 418.489C280.437 418.501 279.307 418.049 278.066 417.636L276.414 422.654L276.173 396.29L278.066 400.488C279.189 399.691 279.93 399.437 281.353 399.308L281.76 399.278C281.781 396.745 282.426 394.308 282.987 391.838Z" fill="#CC093D"/>
<path d="M276.173 396.29L278.066 400.488C279.189 399.691 279.93 399.437 281.353 399.308L281.76 399.278C281.781 396.745 282.426 394.308 282.987 391.838L282.879 428.601C281.728 425.58 281.965 421.69 281.782 418.489C280.437 418.501 279.307 418.049 278.066 417.636L276.414 422.654L276.173 396.29Z" fill="#000108"/>
<path d="M904.414 272.78L1043.1 273.263L1043.45 286.791C1040.25 282.984 1036.84 279.262 1031.36 278.531C1026.58 277.893 1021.72 278.502 1017.83 281.287C1002.36 292.366 994.524 352.844 992.189 370.908C986.987 356.823 987.814 341.475 981.841 327.408C978.435 319.38 973.801 312.541 964.78 309.017C957.2 306.053 945.945 305.708 938.293 308.601C924.086 313.975 920.956 324.509 915.698 336.327C914.555 323.623 915.078 310.724 914.138 297.947C913.751 292.684 913.682 286.655 911.455 281.731C909.807 278.089 907.353 275.576 904.414 272.78Z" fill="#FDFDFD"/>
<path d="M276.414 422.654C274.07 439.958 259.536 454.968 244.7 465.142C241.488 467.346 234.607 471.092 232.562 474.116C232.041 474.889 232.398 481.925 232.366 483.168C231.894 501.448 231.61 519.745 230.953 538.022C230.681 545.613 231.605 559.194 227.753 565.743C226.447 567.964 222.59 572.734 219.864 573.366C215.364 574.408 208.873 573.159 205.118 570.914C203.754 570.096 199.424 567.491 198.741 566.294C197.222 563.632 196.882 524.324 197.868 520.823C198.922 517.083 202.857 512.718 205.087 509.415C214.543 495.42 218.586 481.769 218.296 465.262C217.954 445.761 209.217 428.262 195.105 413.821C192.724 411.384 186.72 407.297 185.284 404.704C184.218 402.779 184.749 395.742 184.582 393.026C183.937 382.549 183.094 372.115 182.04 361.665C181.31 354.431 180.764 346.262 177.872 339.426C175.815 334.564 171.828 329.68 168.011 325.845C164.674 322.491 158.436 317.853 157.541 313.359C156.786 309.571 158.412 304.406 160.877 301.331C162.421 299.401 165.238 297.652 167.874 297.345C171.621 296.91 175.755 298.65 179.069 300.112C190.484 305.148 201.413 312.454 211.507 319.452C238.484 338.151 271.402 364.243 276.173 396.29L276.414 422.654Z" fill="#CC093D"/>
<path d="M216.812 358.934C218.093 358.718 219.051 359.009 220.165 359.626C223.729 361.599 227.115 365.74 229.659 368.704C238.048 378.477 245.657 389.128 248.342 401.488C250.665 412.177 245.952 422.762 239.649 431.553C237.9 433.727 236.265 435.742 233.996 437.494C232.976 438.281 232.99 438.173 231.677 438.069C228.9 432.826 229.735 422.801 228.949 416.75C227.611 406.443 226.127 395.973 223.694 385.831C222.344 380.202 220.521 374.675 218.756 369.144C217.696 365.821 216.139 362.422 216.812 358.934Z" fill="#000108"/>
<path d="M80.2172 353.242C90.1008 401.548 155.808 395.907 188.503 423.819C201.56 434.967 207.112 449.369 207.626 465.55C208.417 490.456 194.731 513.895 176.468 531.611C161.739 545.9 138.146 561.832 115.861 562.374C106.816 562.593 97.3465 560.111 90.6761 554.275C83.8875 548.34 81.1591 538.863 80.9978 530.537C80.6109 510.562 92.2699 490.27 103.614 473.829C109.654 465.077 115.728 456.8 123.643 449.351C123.723 457.432 122.363 465.445 121.417 473.463C120.087 484.722 118.835 495.974 117.304 507.214C116.495 513.146 114.408 520.317 114.925 526.228L116.323 527.21C118.424 527.312 120.545 527 122.527 526.363C126.165 525.192 129.925 522.62 133.164 520.647C147.665 511.802 159.504 499.361 166.989 484.955C171.023 477.191 174.865 467.804 171.239 459.241C163.868 441.829 134.517 437.027 117.496 431.945C110.514 429.861 103.788 427.199 97.1459 424.346C74.5606 414.654 56.2598 398.733 47.7112 377.025C40.4963 358.709 39.4454 337.657 48.7819 319.715C53.1642 311.293 60.0182 303.648 70.017 300.573C86.2679 295.575 100.434 302.187 114.589 308.625C114.857 299.986 115.069 286.925 119.301 279.039C120.303 277.171 121.252 276.959 123.301 276.322C125.62 276.776 128.56 277.14 130.097 278.949C139.941 290.525 140.06 308.532 141.25 322.497C141.779 328.695 142.94 335.785 141.981 341.957L141.897 342.466L141.826 342.939C141.371 345.75 138.196 349.915 135.62 351.553C117.157 363.294 101.271 335.19 84.9322 333.028C83.0402 332.776 82.9171 332.947 81.4287 333.932L80.3646 339.938L80.2172 353.242Z" fill="#CC093D"/>
<path d="M80.2171 353.242L79.8096 358.934L78.9656 358.928C76.8062 350.487 75.9146 341.289 77.9222 332.734L78.7307 332.89C79.6227 335.187 79.9652 337.537 80.3646 339.938L80.2171 353.242Z" fill="#CC093D"/>
<path d="M500.963 294.558C505.294 293.804 507.206 294.608 510.848 296.755C528.828 307.358 545.722 319.587 563.072 331.022C585.729 345.954 609.44 359.572 629.75 377.229C637.211 383.717 646.558 392.778 648.656 402.35C650.699 411.692 648.863 421.064 643.116 428.999C633.47 442.323 612.508 449.24 596.215 452.794C592.836 453.531 589.299 453.588 585.864 454.237C591.296 459.735 598.803 464.094 605.148 468.765C625.27 483.581 645.835 498.432 664.131 515.122C667.615 518.302 675.99 525.348 676.584 529.998C676.965 532.992 675.681 535.642 673.652 537.941C671.323 540.585 668.758 543.328 664.811 543.615C656.623 544.208 647.077 535.426 641.415 530.872L561.016 467.646C564.881 485.144 564.501 504.568 565.144 522.428C565.4 529.498 566.622 537.863 565.331 544.783C564.684 548.256 562.858 549.906 559.837 551.888C556.697 553.945 554.796 554.637 550.875 553.975C537.801 551.766 539.141 541.28 538.911 531.896C538.234 504.136 534.352 476.527 533.709 448.809C533.466 438.398 537.515 428.026 537.581 417.507C537.65 406.408 535.413 395.173 532.769 384.379C528.454 366.74 522.201 348.538 512.47 332.746C507.219 324.225 500.411 316.985 494.614 308.858C493.242 306.933 492.765 304.912 493.366 302.657C494.361 298.933 497.547 296.481 500.963 294.558Z" fill="#CC093D"/>
<path d="M541.374 351.448L542.723 351.263C547.561 352.457 553.965 358.125 557.988 360.904C574.54 372.342 591.565 383.993 606.938 396.733C612.012 400.937 617.713 405.204 618.058 411.707C616.321 414.594 614.626 416.381 611.775 418.399C600.957 424.241 589.512 424.699 577.292 424.873C570.277 424.972 563.354 425.083 556.382 424.223L541.374 351.448Z" fill="#000108"/>
<path d="M564.169 385.133L565.831 384.882L596.488 407.947L595.394 409.453C586.557 410.863 577.857 410.98 568.921 411.022L564.169 385.133Z" fill="#FDFDFD"/>
<path d="M324.664 273.438C333.012 272.569 341.797 273.339 350.211 273.341C367.696 273.346 385.181 273.304 402.669 273.277C464.722 273.181 526.773 273.327 588.826 273.36C638.022 273.387 687.222 273.301 736.418 273.326C752.766 273.334 769.174 273.108 785.512 273.534C790.796 273.672 795.989 273.21 801.237 273.989C797.319 274.811 793.266 275.918 789.969 278.069C784.392 281.706 780.915 287.008 778.57 292.778C774.888 301.834 774.07 312.895 772.3 322.434C768.987 340.304 765.479 358.173 762.359 376.067C761.748 379.579 761.285 387.325 758.369 389.257C754.247 386.442 751.394 344.636 749.157 336.076C747.755 330.71 745.558 325.593 741.577 321.359C736.868 316.347 731.048 313.463 723.804 313.002C716.152 312.517 708.496 315.122 702.861 319.796C698.903 323.081 695.665 327.854 694.752 332.719C692.279 345.933 695.107 361.144 695.133 374.636C695.176 399.38 694.141 423.762 692.657 448.459C679.622 445.665 664.22 444.683 650.876 443.779C655.267 439.042 659.11 434.065 661.829 428.343C667.304 416.836 666.794 403.862 661.737 392.311C657.477 382.585 649.421 374.821 641.326 367.629C619.319 348.08 593.099 333.45 568.464 316.907C558.793 310.412 549.206 303.81 539.548 297.295C530.966 291.506 522.447 285.655 512.552 281.843C506.835 279.64 501.363 280.488 495.767 282.689C488.131 285.696 484.703 290.879 481.724 297.694L472.795 292.663C462.358 287.31 449.307 285.246 437.746 288.29C416.065 293.997 405.578 317.805 400.465 335.869C399.148 340.516 398.738 347.421 396.288 351.421C389.22 341.999 382.33 332.118 374.402 323.273C367.128 315.161 358.737 307.858 351.229 299.918C342.743 290.945 334.592 281.107 324.664 273.438Z" fill="#FDFDFD"/>
<path d="M294.814 291.856C295.793 289.084 296.418 286.631 299.413 285.234C302.759 283.671 308.069 281.868 311.797 282.96C313.633 283.498 315.948 285.495 317.423 286.657C322.618 290.749 327.367 295.36 332.099 299.888C352.504 319.41 372.1 339.148 390.412 360.35C394.196 364.728 397.588 369.351 400.945 374.007C402.58 376.277 403.966 379.133 406.557 380.603C406.823 380.391 407.812 379.759 407.923 379.519C408.833 377.576 408.639 373.429 408.817 371.219C409.247 365.863 409.894 360.497 410.728 355.179C413.523 337.316 422.341 297.515 449.825 299.436C461.973 300.283 474.857 310.209 482.328 318.401C499.206 336.899 509.055 361.527 516.74 384.229C521.189 397.368 526.027 413.558 524.346 427.379C523.817 431.742 520.786 435.431 517.088 438.093C512.191 441.617 505.337 442.219 499.307 441.476C476.318 438.652 457.612 419.657 439.51 407.947C438.377 441.024 437.976 475.113 451.747 506.34C454.88 513.442 458.61 520.991 464.42 526.65C469.077 531.186 473.405 533.83 480.45 533.983C492.779 534.252 500.726 529.411 509.331 521.856C512.562 519.018 516.674 514.173 521.557 514.278C523.873 514.326 526.001 515.526 527.442 517.119C528.838 518.667 530.339 522.15 529.938 524.165C529.498 526.399 527.301 529.081 526.122 531.102C519.048 543.226 511.166 552.694 498.089 559.626C488.319 564.806 473.721 565.063 462.995 562.407C447.05 558.461 434.64 542.46 427.132 530.078C425.408 527.234 419.887 514.218 417.598 513.035C401.378 532.414 382.603 547.951 360.054 560.898C354.372 564.162 348.425 568.051 341.591 568.776C338.3 569.123 335.311 568.441 332.31 567.273C328.277 563.767 328.451 556.074 328.326 551.314C327.203 507.789 327.472 463.663 321.025 420.43C317.009 393.502 311.009 366.77 304.851 340.187C301.826 327.138 298.304 314.206 295.786 301.055L294.814 291.856Z" fill="#CC093D"/>
<path d="M449.323 329.74C449.825 329.65 450.22 329.593 450.729 329.623C453.438 329.773 457.037 333.297 458.867 335.115C464.581 340.786 468.942 347.496 473.067 354.176C482.23 369.025 488.709 384.071 493.81 400.434C495.192 404.86 497.445 410.075 497.251 414.702L496.05 415.375L491.107 413.228L441.146 387.226C441.146 372.782 443.707 359.212 445.953 344.978C446.617 340.78 446.748 333.219 449.323 329.74Z" fill="#000108"/>
<path d="M458.716 361.928L460.745 362.485C465.192 369.824 468.505 377.977 471.724 385.816L470.597 387.092C466.052 384.544 462.039 381.576 457.94 378.474C458.568 373.001 457.661 367.246 458.716 361.928Z" fill="#FDFDFD"/>
<path d="M330.083 337.226C331.088 337.157 331.311 337.235 332.106 337.858C337.413 342.011 342.556 350.209 346.786 355.452C364.021 376.819 380.803 398.039 394.836 421.343C399.493 429.074 405.854 439.29 406.885 448.102C407.798 455.923 408.81 468.748 406.412 476.284C405.217 480.045 402.55 483.563 400.232 486.815C395.214 493.848 389.542 500.412 383.785 506.948L357.647 531.617C358.034 517.892 356.917 504.397 356.162 490.698C355.298 475.125 354.789 459.426 352.921 443.925C349.87 418.609 344.31 393.395 338.205 368.563C336.615 362.102 334.605 355.769 332.559 349.418C331.259 345.382 329.419 341.502 330.083 337.226Z" fill="#000108"/>
<path d="M359.551 396.362L360.872 396.188C364.435 398.922 367.22 403.596 369.758 407.138C378.156 418.873 387.499 432.862 391.444 446.458C392.928 451.57 393.903 461.984 392.659 467.113C391.072 473.658 385.683 481.093 382.012 486.866C379.023 491.528 375.69 495.75 371.788 499.804C370.097 477.404 369.414 454.989 366.458 432.667C364.829 420.364 362.152 408.492 359.551 396.362Z" fill="#FDFDFD"/>
<path d="M818.994 475.329C818.741 479.685 818.564 483.734 819.365 488.057L820.357 488.237C821.473 487.315 822.544 486.446 823.017 485.099C825.93 476.82 827.322 467.957 829.161 459.441C831.227 449.884 833.812 440.302 836.186 430.796C843.513 401.476 852.055 372.405 859.031 343.002C861.221 333.773 863.658 324.584 865.806 315.35C867.596 307.643 869.07 299.594 871.845 292.117C872.86 289.381 874.765 285.443 877.218 283.571C879.75 281.637 884.049 281.153 887.208 281.418C892.246 281.841 895.757 285.316 896.91 289.692C898.309 295.023 897.465 302.876 897.603 308.49C897.954 322.916 898.348 337.34 898.844 351.763C900.342 395.113 902.772 438.143 911.035 480.949C911.934 485.626 912.907 498.444 916.007 501.771C917.35 501.558 917.967 501.873 918.306 500.57C920.69 491.396 920.086 480.62 921.314 471.152C925.143 441.647 929.36 412.177 931.672 382.52C932.825 367.74 931.554 352.185 933.547 337.591C934.02 334.121 935.189 331.037 937.521 328.24C940.099 325.144 942.815 322.811 947.206 322.35C952.773 321.766 958.29 322.952 961.705 327.189C966.497 333.133 967.975 343.148 969.486 350.251C971.515 359.808 973.4 369.399 975.558 378.932C979.653 397.024 984.977 414.782 989.627 432.739C991.486 439.907 992.245 447.611 994.52 454.621C995.072 456.324 996.1 458.142 997.653 459.241C998.067 458.858 999.026 458.184 999.269 457.744C999.956 456.498 999.745 451.354 999.873 449.704C1000.61 440.254 1001.28 430.769 1002.29 421.34C1005.69 389.346 1009.77 356.865 1016.79 325.351C1018.44 317.997 1021.43 299.376 1028.49 295.12L1029.39 296.055C1042.16 351.652 1032.85 406.153 1030.96 462.1C1030.39 479.239 1030.25 496.384 1030.05 513.529C1029.93 524.267 1030.21 535.327 1028.96 546.005C1028.36 551.212 1026.33 556.913 1021.51 560.167C1017.67 562.755 1013.07 563.515 1008.45 562.662C1004.58 561.943 1001.74 558.491 999.956 555.496C997.213 550.9 995.745 545.544 994.11 540.558C991.41 532.321 988.918 524.027 986.379 515.748C980.353 496.103 974.047 476.533 968.083 456.866C965.21 447.381 963.827 437.003 957.968 428.664C955.196 439.599 954.884 451.102 953.594 462.235C952.162 474.622 950.076 486.905 948.332 499.25C946.914 509.283 946.654 523.767 940.001 532.135C935.84 537.372 931.068 538.274 924.5 539.271C926.782 548.427 931.475 563.5 928.381 572.432C927.518 574.932 926.079 577.953 923.396 579.184C920.391 579.274 917.275 578.498 914.89 576.788C902.168 567.665 894.568 526.629 892.591 512.005C884.959 512.281 877.323 512.517 869.691 512.149C863.55 511.853 854.413 509.376 848.686 510.4C846.492 520.599 844.107 530.764 841.585 540.897C839.566 549.026 837.112 558.85 832.482 566.099C830.12 569.797 827.181 573.827 822.386 574.917C819.181 575.648 814.521 575.36 811.67 573.737C793.893 563.611 791.397 510.179 791.01 492.034C790.836 483.847 792.448 472.619 790.291 464.855C789.506 464.319 788.655 464.409 787.719 464.394C782.619 473.182 782.908 486.851 781.144 496.702C779.532 505.693 777.423 514.655 775.627 523.623C774.671 528.375 774.12 534.282 771.932 538.681C769.814 542.945 765.814 547.355 760.888 548.996C756.93 550.316 753.581 550.245 749.748 548.571C747.2 547.457 744.707 545.388 743.429 543.079C741.328 539.283 740.756 533.965 740.001 529.809C738.733 522.835 737.344 515.847 736.503 508.816C735.455 500.019 735.836 489.989 732.546 481.698L731.275 482.012C729.294 485.123 729.452 489.98 728.917 493.513C727.833 500.663 726.529 507.789 725.13 514.892C723.895 521.177 722.536 534.315 716.358 537.998C713.156 539.905 708.93 539.277 705.412 538.666C704.437 538.058 703.478 537.378 702.893 536.42C702.739 536.166 702.565 535.818 702.44 535.552C699.491 529.171 701.274 520.09 701.833 513.281C702.687 502.858 703.682 492.45 704.756 482.048C707.632 454.166 709.672 426.685 710.263 398.667C710.457 389.391 710.752 380.088 710.549 370.815C710.394 363.785 709.951 356.751 709.603 349.73C709.35 344.711 708.864 339.483 710.342 334.576C711.15 331.89 712.454 330.168 715.146 328.791C718.224 327.216 722 326.683 725.403 327.683C729.373 328.848 732.122 333.136 733.364 336.537C736.467 345.047 736.129 355.844 737.311 364.767C740.139 386.14 743.764 407.59 747.489 428.846C749.883 442.536 750.681 459.25 757.732 471.631C762.54 462.615 762.507 449.578 764.55 439.593C770.024 412.842 776.182 386.28 781.157 359.419C783.203 348.379 785.358 337.334 787.253 326.27C788.763 317.446 789.926 308.245 792.537 299.624C793.548 296.289 795.729 292.128 798.662 289.839C800.77 288.191 804.179 287.553 806.895 287.744C810.944 288.028 812.964 289.7 815.545 292.401C817.105 294.113 818.524 295.68 818.849 297.945C820.55 309.811 819.89 322.338 819.848 334.303C819.785 351.631 819.779 368.959 819.756 386.286C819.729 405.288 819.706 424.289 819.651 443.291C819.618 453.372 820.245 464.014 819.161 474.029L818.994 475.329Z" fill="#CC093D"/>
<path d="M869.888 415.348L872.762 415.675C873.895 414.785 874.86 414.618 876.387 414.588C877.54 414.567 878.374 415.705 879.156 416.381L879.783 429.379C879.212 428.107 878.972 426.694 878.657 425.352L877.418 426.092C875.487 425.945 874.591 424.789 872.903 424.211C871.491 423.729 869.55 423.636 868.174 424.178L869.888 415.348Z" fill="#000108"/>
<path d="M869.888 415.348C871.169 410.884 872.844 400.126 876.223 397.11L877.149 396.883L877.267 397.431C877.533 398.649 877.635 399.632 878.726 400.479L879.156 416.381C878.374 415.705 877.54 414.567 876.387 414.588C874.86 414.618 873.895 414.785 872.762 415.675L869.888 415.348Z" fill="#000108"/>
<path d="M815.546 292.401C817.106 294.113 818.524 295.68 818.849 297.945C820.55 309.811 819.89 322.338 819.848 334.303C819.785 351.631 819.779 368.959 819.756 386.286C819.729 405.288 819.707 424.289 819.651 443.291C819.618 453.372 820.245 464.014 819.161 474.029L818.994 475.329C818.688 475.08 818.468 474.937 818.239 474.64C817.477 473.664 817.181 471.802 817.365 470.631C817.542 469.508 817.329 468.577 817.079 467.475C816.81 468.625 816.928 469.394 815.854 470.095L816.458 322.255C818.514 324.225 817.463 337.48 817.483 340.969H818.304C817.375 337.471 818.009 333.986 818.304 330.489C818.626 326.704 819.444 315.344 816.816 312.673L816.531 312.398C816.255 310.96 816.248 309.885 816.564 308.448L816.662 308.032C815.575 306.897 814.902 306.181 814.744 304.639C814.688 304.083 814.656 303.606 814.465 303.068C813.999 301.744 813.926 300.819 813.999 299.424C815.44 298.088 815.342 294.24 815.546 292.401Z" fill="#CC093D"/>
<path d="M868.174 424.178C869.55 423.636 871.491 423.729 872.903 424.211C874.591 424.789 875.488 425.945 877.419 426.092L878.657 425.352C878.972 426.694 879.212 428.107 879.783 429.379L887.416 491.689L854.683 490.584C855.415 481.311 857.983 472.329 860.062 463.247C863.028 450.294 865.878 437.242 868.174 424.178Z" fill="#000108"/>
<path d="M43.194 396.907C59.232 419.462 82.6196 434.883 110.882 442.746C90.1034 468.562 62.8091 503.771 68.3484 537.591C70.2154 548.99 75.3584 559.611 85.7556 566.599C96.7633 574.001 111.03 575.543 124.28 573.648C147.672 570.303 167.717 556.485 184.54 542.052C184.249 553.553 182.072 568.285 191.492 577.268C197.537 583.031 205.667 585.888 214.338 585.972C221.594 586.044 228.518 584.379 233.843 579.603C246.611 568.147 244.925 545.37 245.384 530.105C245.77 517.272 245.916 504.433 246.087 491.597C246.122 489.03 245.446 481.766 246.842 479.757C247.316 479.075 249.191 478.102 249.968 477.548C252.919 475.443 255.873 473.335 258.681 471.074C263.292 467.361 267.522 463.436 271.538 459.19C271.114 475.631 272.226 492.201 272.589 508.649C272.788 517.631 273.03 526.614 273.343 535.594C273.537 541.142 273.443 547.238 274.734 552.664C275.739 556.892 277.681 560.623 280.984 563.74C285.772 568.255 291.834 570.686 298.721 570.692C305.59 570.695 310.122 568.557 315.321 564.74C318.658 571.77 322.513 577.522 330.855 580.388C338.004 582.84 346.586 581.786 353.335 578.899C359.749 576.16 365.775 572.267 371.716 568.749C386.957 559.718 403.802 548.676 414.859 535.309C424.804 551.829 438.331 568.794 459.126 574.36C474.883 578.579 491.13 577.286 505.524 570.028C514.779 565.363 520.277 558.979 527.883 552.664C533.223 559.961 538.54 564.195 548.133 565.952C554.832 567.18 562.3 565.848 567.985 562.323C573.824 558.706 576.924 554.341 578.757 548.191C580.636 541.897 579.555 532.725 579.177 526.192C578.596 516.17 578.117 506.143 577.601 496.118C591.848 507.574 606.432 518.682 620.626 530.186C629.195 537.133 637.477 546.373 647.477 551.535C653.753 554.772 660.003 555.985 667.172 555.556C673.471 555.179 679.895 551.349 683.931 547.104C685.547 545.4 686.864 543.448 688.141 541.525C692.483 546.813 697.183 552.125 704.884 553.077C713.107 554.095 720.513 552.571 727.17 547.984C729.669 548.852 731.663 552.739 733.518 554.613C742.589 563.773 756.468 566.069 768.698 561.227C772.093 559.883 775.204 557.637 777.988 555.446C779.115 554.562 781.105 552.484 782.53 552.287C785.92 565.177 790.481 578.477 803.736 585.699C810.291 589.274 819.818 590.298 827.188 588.481C835.467 586.436 841.359 580.924 845.415 574.219C854.078 559.895 857.711 541.558 861.172 525.596L879.097 525.916C881.36 545.316 887.163 574.549 904.923 587.493C910.454 591.523 916.697 593.389 923.807 592.661C930.08 592.02 935.177 589.457 939.055 584.873C945.985 576.69 946.71 564.335 945.18 554.455L944.067 549.041C953.949 541.918 957.89 533.737 960.445 522.713C961.975 516.116 962.757 509.433 965.771 503.205C968.862 513.335 972.468 523.365 975.85 533.417C980.547 547.382 983.082 565.725 998.334 573.743C1005.01 577.25 1012.92 578.118 1020.3 576.136C1030.14 573.495 1037.76 568.081 1042.66 559.793L1042.98 559.239C1044.14 564.374 1043.07 569.902 1043.05 575.127C1043.02 585.31 1044.31 597.104 1042.42 607.081C1040.95 614.782 1035.68 622.07 1028.62 626.502C1020.86 631.382 1012.14 632.511 1002.95 632.727C977.148 633.335 951.203 632.835 925.383 632.826C877.698 632.808 830.012 632.808 782.327 632.817C634.416 632.838 486.506 632.808 338.595 632.844C275.164 632.859 211.733 632.886 148.302 632.877C130.703 632.874 113.106 632.868 95.5078 632.751C87.6423 632.7 78.3213 633.436 70.6358 632.029C61.6958 630.397 53.3938 624.559 48.4647 617.705C45.0994 613.025 43.059 607.539 42.5802 601.961C41.5207 589.622 42.4396 576.573 42.434 564.174C42.4222 538.265 42.4252 512.356 42.4334 486.449C42.439 467.463 42.4899 448.474 42.4324 429.487C42.4015 419.31 40.876 406.821 43.194 396.907Z" fill="#FDFDFD"/>
</g>
</g>
<defs>
<filter id="filter0_d_32_2" x="-33" y="0" width="1123" height="720" filterUnits="userSpaceOnUse" color-interpolation-filters="sRGB">
<feFlood flood-opacity="0" result="BackgroundImageFix"/>
<feColorMatrix in="SourceAlpha" type="matrix" values="0 0 0 0 0 0 0 0 0 0 0 0 0 0 0 0 0 0 127 0" result="hardAlpha"/>
<feOffset dy="4"/>
<feGaussianBlur stdDeviation="2"/>
<feComposite in2="hardAlpha" operator="out"/>
<feColorMatrix type="matrix" values="0 0 0 0 0 0 0 0 0 0 0 0 0 0 0 0 0 0 0.25 0"/>
<feBlend mode="normal" in2="BackgroundImageFix" result="effect1_dropShadow_32_2"/>
<feBlend mode="normal" in="SourceGraphic" in2="effect1_dropShadow_32_2" result="shape"/>
</filter>
<clipPath id="clip0_32_2">
<rect width="1115" height="712" fill="white"/>
</clipPath>
</defs>
</svg>
